<?xml version="1.0" encoding="UTF-8" standalone="no"?>
<!DOCTYPE svg PUBLIC "-//W3C//DTD SVG 1.1//EN"
 "http://www.w3.org/Graphics/SVG/1.1/DTD/svg11.dtd">
<!-- Generated by graphviz version 6.0.2 (20221011.1828)
 -->
<!-- Title: src/lib/spect/Fit.hh Pages: 1 -->
<svg width="278pt" height="137pt"
 viewBox="0.00 0.00 278.00 137.00" xmlns="http://www.w3.org/2000/svg" xmlns:xlink="http://www.w3.org/1999/xlink">
<g id="graph0" class="graph" transform="scale(1 1) rotate(0) translate(4 133)">
<title>src/lib/spect/Fit.hh</title>
<!-- Node1 -->
<g id="node1" class="node">
<title>Node1</title>
<g id="a_node1"><a xlink:title=" ">
<polygon fill="#999999" stroke="#666666" points="198,-129 101,-129 101,-110 198,-110 198,-129"/>
<text text-anchor="middle" x="149.5" y="-117" font-family="Helvetica,sans-Serif" font-size="10.00">src/lib/spect/Fit.hh</text>
</a>
</g>
</g>
<!-- Node2 -->
<g id="node2" class="node">
<title>Node2</title>
<g id="a_node2"><a xlink:href="../../d0/d68/_abbreviations_8hh.html" target="_top" xlink:title=" ">
<polygon fill="white" stroke="#666666" points="155,-74 0,-74 0,-55 155,-55 155,-74"/>
<text text-anchor="middle" x="77.5" y="-62" font-family="Helvetica,sans-Serif" font-size="10.00">src/lib/abbrevs/Abbreviations.hh</text>
</a>
</g>
</g>
<!-- Node1&#45;&gt;Node2 -->
<g id="edge1" class="edge">
<title>Node1&#45;&gt;Node2</title>
<path fill="none" stroke="#63b8ff" d="M129.63,-103.88C116.68,-94.34 100.2,-82.21 89.28,-74.17"/>
<polygon fill="#63b8ff" stroke="#63b8ff" points="127.8,-106.88 137.93,-109.98 131.95,-101.24 127.8,-106.88"/>
</g>
<!-- Node4 -->
<g id="node4" class="node">
<title>Node4</title>
<g id="a_node4"><a xlink:href="../../d5/dad/_fit_8cc.html" target="_top" xlink:title=" ">
<polygon fill="white" stroke="#666666" points="270,-74 173,-74 173,-55 270,-55 270,-74"/>
<text text-anchor="middle" x="221.5" y="-62" font-family="Helvetica,sans-Serif" font-size="10.00">src/lib/spect/Fit.cc</text>
</a>
</g>
</g>
<!-- Node1&#45;&gt;Node4 -->
<g id="edge3" class="edge">
<title>Node1&#45;&gt;Node4</title>
<path fill="none" stroke="#63b8ff" d="M169.37,-103.88C182.32,-94.34 198.8,-82.21 209.72,-74.17"/>
<polygon fill="#63b8ff" stroke="#63b8ff" points="167.05,-101.24 161.07,-109.98 171.2,-106.88 167.05,-101.24"/>
</g>
<!-- Node3 -->
<g id="node3" class="node">
<title>Node3</title>
<g id="a_node3"><a xlink:href="../../d0/d17/_abbreviations_8cc.html" target="_top" xlink:title=" ">
<polygon fill="white" stroke="#666666" points="155,-19 0,-19 0,0 155,0 155,-19"/>
<text text-anchor="middle" x="77.5" y="-7" font-family="Helvetica,sans-Serif" font-size="10.00">src/lib/abbrevs/Abbreviations.cc</text>
</a>
</g>
</g>
<!-- Node2&#45;&gt;Node3 -->
<g id="edge2" class="edge">
<title>Node2&#45;&gt;Node3</title>
<path fill="none" stroke="#63b8ff" d="M77.5,-44.66C77.5,-35.93 77.5,-25.99 77.5,-19.09"/>
<polygon fill="#63b8ff" stroke="#63b8ff" points="74,-44.75 77.5,-54.75 81,-44.75 74,-44.75"/>
</g>
</g>
</svg>
