<?xml version="1.0" encoding="UTF-8" standalone="no"?>
<!DOCTYPE svg PUBLIC "-//W3C//DTD SVG 1.1//EN"
 "http://www.w3.org/Graphics/SVG/1.1/DTD/svg11.dtd">
<!-- Generated by graphviz version 12.2.1 (20241206.2353)
 -->
<!-- Title: GamR::Nucleus::LevelSchemeDraw::Scheme Pages: 1 -->
<!--zoomable 1590 -->

<svg id="main" version="1.1" xmlns="http://www.w3.org/2000/svg" xmlns:xlink="http://www.w3.org/1999/xlink" xml:space="preserve" onload="init(evt)">

<style type="text/css"><![CDATA[
.node, .edge {opacity: 0.7;}
.node.selected, .edge.selected {opacity: 1;}
.edge:hover path { stroke: red; }
.edge:hover polygon { stroke: red; fill: red; }
]]></style>

<defs>
  <circle id="rim" cx="0" cy="0" r="7"/>
  <circle id="rim2" cx="0" cy="0" r="3.5"/>
  <g id="zoomPlus">
    <use xlink:href="#rim" fill="#404040"><set attributeName="fill" to="#808080" begin="zoomplus.mouseover" end="zoomplus.mouseout"/></use>
    <path d="M-4,0h8M0,-4v8" fill="none" stroke="white" stroke-width="1.5" pointer-events="none"/>
  </g>
  <g id="zoomMin">
    <use xlink:href="#rim" fill="#404040"><set attributeName="fill" to="#808080" begin="zoomminus.mouseover" end="zoomminus.mouseout"/></use>
    <path d="M-4,0h8" fill="none" stroke="white" stroke-width="1.5" pointer-events="none"/>
  </g>
  <g id="arrowUp" transform="translate(30 24)">
    <use xlink:href="#rim"/>
    <path pointer-events="none" fill="none" stroke="white" stroke-width="1.5" d="M0,-3.0v7 M-2.5,-0.5L0,-3.0L2.5,-0.5"/>
  </g>
  <g id="arrowRight" transform="rotate(90) translate(36 -43)">
    <use xlink:href="#rim"/>
    <path pointer-events="none" fill="none" stroke="white" stroke-width="1.5" d="M0,-3.0v7 M-2.5,-0.5L0,-3.0L2.5,-0.5"/>
  </g>
  <g id="arrowDown" transform="rotate(180) translate(-30 -48)">
    <use xlink:href="#rim"/>
    <path pointer-events="none" fill="none" stroke="white" stroke-width="1.5" d="M0,-3.0v7 M-2.5,-0.5L0,-3.0L2.5,-0.5"/>
  </g>
  <g id="arrowLeft" transform="rotate(270) translate(-36 17)">
    <use xlink:href="#rim"/>
    <path pointer-events="none" fill="none" stroke="white" stroke-width="1.5" d="M0,-3.0v7 M-2.5,-0.5L0,-3.0L2.5,-0.5"/>
  </g>
  <g id="resetDef">
    <use xlink:href="#rim2" fill="#404040"><set attributeName="fill" to="#808080" begin="reset.mouseover" end="reset.mouseout"/></use>
  </g>
</defs>
<script type="application/ecmascript">
var viewWidth = 873;
var viewHeight = 1590;
var sectionId = 'dynsection-1';
</script>
<script type="application/ecmascript" xlink:href="../../svg.min.js"/>
<svg id="graph" class="graph">
<g id="viewport">
<title>GamR::Nucleus::LevelSchemeDraw::Scheme</title>
<!-- Node1 -->
<g id="Node000001" class="node">
<title>Node1</title>
<g id="a_Node000001"><a xlink:title=" ">
<polygon fill="#999999" stroke="none" points="332.12,-1483.75 191.37,-1483.75 191.37,-1163.5 332.12,-1163.5 332.12,-1483.75"/>
<text text-anchor="start" x="195.37" y="-1470.25" font-family="Helvetica,sans-Serif" font-size="10.00">GamR::Nucleus::LevelScheme</text>
<text text-anchor="start" x="230.25" y="-1459" font-family="Helvetica,sans-Serif" font-size="10.00">Draw::Scheme</text>
<text text-anchor="start" x="208.25" y="-1443.75" font-family="Helvetica,sans-Serif" font-size="10.00">+</text>
<text text-anchor="start" x="231.12" y="-1443.75" font-family="Helvetica,sans-Serif" font-size="10.00">ylo</text>
<text text-anchor="start" x="208.25" y="-1428.5" font-family="Helvetica,sans-Serif" font-size="10.00">+</text>
<text text-anchor="start" x="231.12" y="-1428.5" font-family="Helvetica,sans-Serif" font-size="10.00">yhi</text>
<text text-anchor="start" x="208.25" y="-1413.25" font-family="Helvetica,sans-Serif" font-size="10.00">+</text>
<text text-anchor="start" x="231.12" y="-1413.25" font-family="Helvetica,sans-Serif" font-size="10.00">xlo</text>
<text text-anchor="start" x="208.25" y="-1398" font-family="Helvetica,sans-Serif" font-size="10.00">+</text>
<text text-anchor="start" x="231.12" y="-1398" font-family="Helvetica,sans-Serif" font-size="10.00">xhi</text>
<text text-anchor="start" x="208.25" y="-1382.75" font-family="Helvetica,sans-Serif" font-size="10.00">+</text>
<text text-anchor="start" x="231.12" y="-1382.75" font-family="Helvetica,sans-Serif" font-size="10.00">textsize</text>
<text text-anchor="start" x="208.25" y="-1367.5" font-family="Helvetica,sans-Serif" font-size="10.00">+</text>
<text text-anchor="start" x="231.12" y="-1367.5" font-family="Helvetica,sans-Serif" font-size="10.00">fWidthScale</text>
<text text-anchor="start" x="208.25" y="-1352.25" font-family="Helvetica,sans-Serif" font-size="10.00">+</text>
<text text-anchor="start" x="231.12" y="-1352.25" font-family="Helvetica,sans-Serif" font-size="10.00">fDrawHist</text>
<text text-anchor="start" x="208.25" y="-1337" font-family="Helvetica,sans-Serif" font-size="10.00">+</text>
<text text-anchor="start" x="231.12" y="-1337" font-family="Helvetica,sans-Serif" font-size="10.00">fAxis</text>
<text text-anchor="start" x="208.25" y="-1321.75" font-family="Helvetica,sans-Serif" font-size="10.00">+</text>
<text text-anchor="start" x="231.12" y="-1321.75" font-family="Helvetica,sans-Serif" font-size="10.00">Scheme()</text>
<text text-anchor="start" x="208.25" y="-1306.5" font-family="Helvetica,sans-Serif" font-size="10.00">+</text>
<text text-anchor="start" x="231.12" y="-1306.5" font-family="Helvetica,sans-Serif" font-size="10.00">Scheme()</text>
<text text-anchor="start" x="208.25" y="-1291.25" font-family="Helvetica,sans-Serif" font-size="10.00">+</text>
<text text-anchor="start" x="231.12" y="-1291.25" font-family="Helvetica,sans-Serif" font-size="10.00">AddState()</text>
<text text-anchor="start" x="208.25" y="-1276" font-family="Helvetica,sans-Serif" font-size="10.00">+</text>
<text text-anchor="start" x="231.12" y="-1276" font-family="Helvetica,sans-Serif" font-size="10.00">AddTransition()</text>
<text text-anchor="start" x="208.25" y="-1260.75" font-family="Helvetica,sans-Serif" font-size="10.00">+</text>
<text text-anchor="start" x="231.12" y="-1260.75" font-family="Helvetica,sans-Serif" font-size="10.00">SetDrawRange()</text>
<text text-anchor="start" x="208.25" y="-1245.5" font-family="Helvetica,sans-Serif" font-size="10.00">+</text>
<text text-anchor="start" x="231.12" y="-1245.5" font-family="Helvetica,sans-Serif" font-size="10.00">SetTextSize()</text>
<text text-anchor="start" x="208.25" y="-1230.25" font-family="Helvetica,sans-Serif" font-size="10.00">+</text>
<text text-anchor="start" x="231.12" y="-1230.25" font-family="Helvetica,sans-Serif" font-size="10.00">PaintArrow()</text>
<text text-anchor="start" x="208.25" y="-1215" font-family="Helvetica,sans-Serif" font-size="10.00">+</text>
<text text-anchor="start" x="231.12" y="-1215" font-family="Helvetica,sans-Serif" font-size="10.00">Paint()</text>
<text text-anchor="start" x="208.25" y="-1199.75" font-family="Helvetica,sans-Serif" font-size="10.00">+</text>
<text text-anchor="start" x="231.12" y="-1199.75" font-family="Helvetica,sans-Serif" font-size="10.00">ReadScheme()</text>
<text text-anchor="start" x="208.25" y="-1184.5" font-family="Helvetica,sans-Serif" font-size="10.00">+</text>
<text text-anchor="start" x="231.12" y="-1184.5" font-family="Helvetica,sans-Serif" font-size="10.00">WriteScheme()</text>
<text text-anchor="start" x="208.25" y="-1169.25" font-family="Helvetica,sans-Serif" font-size="10.00">+</text>
<text text-anchor="start" x="231.12" y="-1169.25" font-family="Helvetica,sans-Serif" font-size="10.00">ClassDef()</text>
<polygon fill="#666666" stroke="#666666" points="191.37,-1455.25 191.37,-1455.25 332.12,-1455.25 332.12,-1455.25 191.37,-1455.25"/>
<polygon fill="#666666" stroke="#666666" points="191.37,-1333.25 191.37,-1333.25 229.12,-1333.25 229.12,-1333.25 191.37,-1333.25"/>
<polygon fill="#666666" stroke="#666666" points="229.12,-1333.25 229.12,-1333.25 332.12,-1333.25 332.12,-1333.25 229.12,-1333.25"/>
<polygon fill="none" stroke="#666666" points="191.37,-1163.5 191.37,-1483.75 332.12,-1483.75 332.12,-1163.5 191.37,-1163.5"/>
</a>
</g>
</g>
<!-- Node6 -->
<g id="Node000006" class="node">
<title>Node6</title>
<g id="a_Node000006"><a xlink:href="../../d0/d50/class_gam_r_1_1_nucleus_1_1_level_scheme_draw_1_1_state.html" target="_top" xlink:title=" ">
<polygon fill="white" stroke="none" points="484.12,-1105 343.37,-1105 343.37,-678 484.12,-678 484.12,-1105"/>
<text text-anchor="start" x="347.37" y="-1091.5" font-family="Helvetica,sans-Serif" font-size="10.00">GamR::Nucleus::LevelScheme</text>
<text text-anchor="start" x="388.62" y="-1080.25" font-family="Helvetica,sans-Serif" font-size="10.00">Draw::State</text>
<text text-anchor="start" x="355.37" y="-1065" font-family="Helvetica,sans-Serif" font-size="10.00">+</text>
<text text-anchor="start" x="373.37" y="-1065" font-family="Helvetica,sans-Serif" font-size="10.00">index</text>
<text text-anchor="start" x="355.37" y="-1049.75" font-family="Helvetica,sans-Serif" font-size="10.00">+</text>
<text text-anchor="start" x="373.37" y="-1049.75" font-family="Helvetica,sans-Serif" font-size="10.00">fEnergy</text>
<text text-anchor="start" x="355.37" y="-1034.5" font-family="Helvetica,sans-Serif" font-size="10.00">+</text>
<text text-anchor="start" x="373.37" y="-1034.5" font-family="Helvetica,sans-Serif" font-size="10.00">fDrawPos</text>
<text text-anchor="start" x="355.37" y="-1019.25" font-family="Helvetica,sans-Serif" font-size="10.00">+</text>
<text text-anchor="start" x="373.37" y="-1019.25" font-family="Helvetica,sans-Serif" font-size="10.00">fLabelPos</text>
<text text-anchor="start" x="355.37" y="-1004" font-family="Helvetica,sans-Serif" font-size="10.00">+</text>
<text text-anchor="start" x="373.37" y="-1004" font-family="Helvetica,sans-Serif" font-size="10.00">fLeft</text>
<text text-anchor="start" x="355.37" y="-988.75" font-family="Helvetica,sans-Serif" font-size="10.00">+</text>
<text text-anchor="start" x="373.37" y="-988.75" font-family="Helvetica,sans-Serif" font-size="10.00">fRight</text>
<text text-anchor="start" x="355.37" y="-973.5" font-family="Helvetica,sans-Serif" font-size="10.00">+</text>
<text text-anchor="start" x="373.37" y="-973.5" font-family="Helvetica,sans-Serif" font-size="10.00">fExtLeft</text>
<text text-anchor="start" x="355.37" y="-958.25" font-family="Helvetica,sans-Serif" font-size="10.00">+</text>
<text text-anchor="start" x="373.37" y="-958.25" font-family="Helvetica,sans-Serif" font-size="10.00">fExtRight</text>
<text text-anchor="start" x="355.37" y="-943" font-family="Helvetica,sans-Serif" font-size="10.00">+</text>
<text text-anchor="start" x="373.37" y="-943" font-family="Helvetica,sans-Serif" font-size="10.00">textsize</text>
<text text-anchor="start" x="355.37" y="-927.75" font-family="Helvetica,sans-Serif" font-size="10.00">+</text>
<text text-anchor="start" x="373.37" y="-927.75" font-family="Helvetica,sans-Serif" font-size="10.00">extension</text>
<text text-anchor="start" x="355.37" y="-912.5" font-family="Helvetica,sans-Serif" font-size="10.00">+</text>
<text text-anchor="start" x="373.37" y="-912.5" font-family="Helvetica,sans-Serif" font-size="10.00">extline</text>
<text text-anchor="start" x="355.37" y="-897.25" font-family="Helvetica,sans-Serif" font-size="10.00">+</text>
<text text-anchor="start" x="373.37" y="-897.25" font-family="Helvetica,sans-Serif" font-size="10.00">fLeftLabel</text>
<text text-anchor="start" x="355.37" y="-882" font-family="Helvetica,sans-Serif" font-size="10.00">+</text>
<text text-anchor="start" x="373.37" y="-882" font-family="Helvetica,sans-Serif" font-size="10.00">fRightLabel</text>
<text text-anchor="start" x="355.37" y="-866.75" font-family="Helvetica,sans-Serif" font-size="10.00">+</text>
<text text-anchor="start" x="373.37" y="-866.75" font-family="Helvetica,sans-Serif" font-size="10.00">State()</text>
<text text-anchor="start" x="355.37" y="-851.5" font-family="Helvetica,sans-Serif" font-size="10.00">+</text>
<text text-anchor="start" x="373.37" y="-851.5" font-family="Helvetica,sans-Serif" font-size="10.00">State()</text>
<text text-anchor="start" x="355.37" y="-836.25" font-family="Helvetica,sans-Serif" font-size="10.00">+</text>
<text text-anchor="start" x="373.37" y="-836.25" font-family="Helvetica,sans-Serif" font-size="10.00">~State()</text>
<text text-anchor="start" x="355.37" y="-821" font-family="Helvetica,sans-Serif" font-size="10.00">+</text>
<text text-anchor="start" x="373.37" y="-821" font-family="Helvetica,sans-Serif" font-size="10.00">SetLeftRight()</text>
<text text-anchor="start" x="355.37" y="-805.75" font-family="Helvetica,sans-Serif" font-size="10.00">+</text>
<text text-anchor="start" x="373.37" y="-805.75" font-family="Helvetica,sans-Serif" font-size="10.00">SetWidth()</text>
<text text-anchor="start" x="355.37" y="-790.5" font-family="Helvetica,sans-Serif" font-size="10.00">+</text>
<text text-anchor="start" x="373.37" y="-790.5" font-family="Helvetica,sans-Serif" font-size="10.00">SetLabels()</text>
<text text-anchor="start" x="355.37" y="-775.25" font-family="Helvetica,sans-Serif" font-size="10.00">+</text>
<text text-anchor="start" x="373.37" y="-775.25" font-family="Helvetica,sans-Serif" font-size="10.00">SetExtension()</text>
<text text-anchor="start" x="355.37" y="-760" font-family="Helvetica,sans-Serif" font-size="10.00">+</text>
<text text-anchor="start" x="373.37" y="-760" font-family="Helvetica,sans-Serif" font-size="10.00">AddTransition()</text>
<text text-anchor="start" x="355.37" y="-744.75" font-family="Helvetica,sans-Serif" font-size="10.00">+</text>
<text text-anchor="start" x="373.37" y="-744.75" font-family="Helvetica,sans-Serif" font-size="10.00">DistancetoPrimitive()</text>
<text text-anchor="start" x="355.37" y="-729.5" font-family="Helvetica,sans-Serif" font-size="10.00">+</text>
<text text-anchor="start" x="373.37" y="-729.5" font-family="Helvetica,sans-Serif" font-size="10.00">ExecuteEvent()</text>
<text text-anchor="start" x="355.37" y="-714.25" font-family="Helvetica,sans-Serif" font-size="10.00">+</text>
<text text-anchor="start" x="373.37" y="-714.25" font-family="Helvetica,sans-Serif" font-size="10.00">Paint()</text>
<text text-anchor="start" x="355.37" y="-699" font-family="Helvetica,sans-Serif" font-size="10.00">+</text>
<text text-anchor="start" x="373.37" y="-699" font-family="Helvetica,sans-Serif" font-size="10.00">operator&lt;()</text>
<text text-anchor="start" x="355.37" y="-683.75" font-family="Helvetica,sans-Serif" font-size="10.00">+</text>
<text text-anchor="start" x="373.37" y="-683.75" font-family="Helvetica,sans-Serif" font-size="10.00">operator==()</text>
<polygon fill="#666666" stroke="#666666" points="343.37,-1076.5 343.37,-1076.5 484.12,-1076.5 484.12,-1076.5 343.37,-1076.5"/>
<polygon fill="#666666" stroke="#666666" points="343.37,-878.25 343.37,-878.25 371.37,-878.25 371.37,-878.25 343.37,-878.25"/>
<polygon fill="#666666" stroke="#666666" points="371.37,-878.25 371.37,-878.25 484.12,-878.25 484.12,-878.25 371.37,-878.25"/>
<polygon fill="none" stroke="#666666" points="343.37,-678 343.37,-1105 484.12,-1105 484.12,-678 343.37,-678"/>
</a>
</g>
</g>
<!-- Node1&#45;&gt;Node6 -->
<g id="edge8_Node000006_Node000001" class="edge">
<title>Node1&#45;&gt;Node6</title>
<g id="a_edge8_Node000006_Node000001"><a xlink:title=" ">
<path fill="none" stroke="#63b8ff" d="M317.92,-1163.68C324.85,-1144.07 332.01,-1123.79 339.16,-1103.55"/>
<polygon fill="none" stroke="#63b8ff" points="339.19,-1103.48 337.42,-1096.49 343.19,-1092.16 344.96,-1099.15 339.19,-1103.48"/>
</a>
</g>
<text text-anchor="middle" x="352.27" y="-1130.38" font-family="Helvetica,sans-Serif" font-size="10.00" fill="grey"> +fScheme</text>
</g>
<!-- Node12 -->
<g id="Node000012" class="node">
<title>Node12</title>
<g id="a_Node000012"><a xlink:href="../../d9/d6a/class_gam_r_1_1_nucleus_1_1_level_scheme_draw_1_1_transition.html" target="_top" xlink:title=" ">
<polygon fill="white" stroke="none" points="273.12,-592.25 132.37,-592.25 132.37,-119.5 273.12,-119.5 273.12,-592.25"/>
<text text-anchor="start" x="136.37" y="-578.75" font-family="Helvetica,sans-Serif" font-size="10.00">GamR::Nucleus::LevelScheme</text>
<text text-anchor="start" x="167.87" y="-567.5" font-family="Helvetica,sans-Serif" font-size="10.00">Draw::Transition</text>
<text text-anchor="start" x="144.37" y="-552.25" font-family="Helvetica,sans-Serif" font-size="10.00">+</text>
<text text-anchor="start" x="162.37" y="-552.25" font-family="Helvetica,sans-Serif" font-size="10.00">fStart</text>
<text text-anchor="start" x="144.37" y="-537" font-family="Helvetica,sans-Serif" font-size="10.00">+</text>
<text text-anchor="start" x="162.37" y="-537" font-family="Helvetica,sans-Serif" font-size="10.00">fStop</text>
<text text-anchor="start" x="144.37" y="-521.75" font-family="Helvetica,sans-Serif" font-size="10.00">+</text>
<text text-anchor="start" x="162.37" y="-521.75" font-family="Helvetica,sans-Serif" font-size="10.00">fWidth</text>
<text text-anchor="start" x="144.37" y="-506.5" font-family="Helvetica,sans-Serif" font-size="10.00">+</text>
<text text-anchor="start" x="162.37" y="-506.5" font-family="Helvetica,sans-Serif" font-size="10.00">fLabelPos</text>
<text text-anchor="start" x="144.37" y="-491.25" font-family="Helvetica,sans-Serif" font-size="10.00">+</text>
<text text-anchor="start" x="162.37" y="-491.25" font-family="Helvetica,sans-Serif" font-size="10.00">fLabel</text>
<text text-anchor="start" x="144.37" y="-476" font-family="Helvetica,sans-Serif" font-size="10.00">+</text>
<text text-anchor="start" x="162.37" y="-476" font-family="Helvetica,sans-Serif" font-size="10.00">fLabelBox</text>
<text text-anchor="start" x="144.37" y="-460.75" font-family="Helvetica,sans-Serif" font-size="10.00">+</text>
<text text-anchor="start" x="162.37" y="-460.75" font-family="Helvetica,sans-Serif" font-size="10.00">textsize</text>
<text text-anchor="start" x="144.37" y="-445.5" font-family="Helvetica,sans-Serif" font-size="10.00">+</text>
<text text-anchor="start" x="162.37" y="-445.5" font-family="Helvetica,sans-Serif" font-size="10.00">Transition()</text>
<text text-anchor="start" x="144.37" y="-430.25" font-family="Helvetica,sans-Serif" font-size="10.00">+</text>
<text text-anchor="start" x="162.37" y="-430.25" font-family="Helvetica,sans-Serif" font-size="10.00">Transition()</text>
<text text-anchor="start" x="144.37" y="-415" font-family="Helvetica,sans-Serif" font-size="10.00">+</text>
<text text-anchor="start" x="162.37" y="-415" font-family="Helvetica,sans-Serif" font-size="10.00">~Transition()</text>
<text text-anchor="start" x="144.37" y="-399.75" font-family="Helvetica,sans-Serif" font-size="10.00">+</text>
<text text-anchor="start" x="162.37" y="-399.75" font-family="Helvetica,sans-Serif" font-size="10.00">SetStartStop()</text>
<text text-anchor="start" x="144.37" y="-384.5" font-family="Helvetica,sans-Serif" font-size="10.00">+</text>
<text text-anchor="start" x="162.37" y="-384.5" font-family="Helvetica,sans-Serif" font-size="10.00">Paint()</text>
<text text-anchor="start" x="144.37" y="-369.25" font-family="Helvetica,sans-Serif" font-size="10.00">+</text>
<text text-anchor="start" x="162.37" y="-369.25" font-family="Helvetica,sans-Serif" font-size="10.00">DistancetoPrimitive()</text>
<text text-anchor="start" x="144.37" y="-354" font-family="Helvetica,sans-Serif" font-size="10.00">+</text>
<text text-anchor="start" x="162.37" y="-354" font-family="Helvetica,sans-Serif" font-size="10.00">ExecuteEvent()</text>
<text text-anchor="start" x="144.37" y="-338.75" font-family="Helvetica,sans-Serif" font-size="10.00">+</text>
<text text-anchor="start" x="162.37" y="-338.75" font-family="Helvetica,sans-Serif" font-size="10.00">Draw()</text>
<text text-anchor="start" x="144.37" y="-323.5" font-family="Helvetica,sans-Serif" font-size="10.00">+</text>
<text text-anchor="start" x="162.37" y="-323.5" font-family="Helvetica,sans-Serif" font-size="10.00">GetX1()</text>
<text text-anchor="start" x="144.37" y="-308.25" font-family="Helvetica,sans-Serif" font-size="10.00">+</text>
<text text-anchor="start" x="162.37" y="-308.25" font-family="Helvetica,sans-Serif" font-size="10.00">GetX2()</text>
<text text-anchor="start" x="144.37" y="-293" font-family="Helvetica,sans-Serif" font-size="10.00">+</text>
<text text-anchor="start" x="162.37" y="-293" font-family="Helvetica,sans-Serif" font-size="10.00">GetY1()</text>
<text text-anchor="start" x="144.37" y="-277.75" font-family="Helvetica,sans-Serif" font-size="10.00">+</text>
<text text-anchor="start" x="162.37" y="-277.75" font-family="Helvetica,sans-Serif" font-size="10.00">GetY2()</text>
<text text-anchor="start" x="144.37" y="-262.5" font-family="Helvetica,sans-Serif" font-size="10.00">+</text>
<text text-anchor="start" x="162.37" y="-262.5" font-family="Helvetica,sans-Serif" font-size="10.00">GetPerpTheta()</text>
<text text-anchor="start" x="144.37" y="-247.25" font-family="Helvetica,sans-Serif" font-size="10.00">+</text>
<text text-anchor="start" x="162.37" y="-247.25" font-family="Helvetica,sans-Serif" font-size="10.00">GetLength()</text>
<text text-anchor="start" x="144.37" y="-232" font-family="Helvetica,sans-Serif" font-size="10.00">+</text>
<text text-anchor="start" x="162.37" y="-232" font-family="Helvetica,sans-Serif" font-size="10.00">GetWidth()</text>
<text text-anchor="start" x="144.37" y="-216.75" font-family="Helvetica,sans-Serif" font-size="10.00">+</text>
<text text-anchor="start" x="162.37" y="-216.75" font-family="Helvetica,sans-Serif" font-size="10.00">GetWidthX()</text>
<text text-anchor="start" x="144.37" y="-201.5" font-family="Helvetica,sans-Serif" font-size="10.00">+</text>
<text text-anchor="start" x="162.37" y="-201.5" font-family="Helvetica,sans-Serif" font-size="10.00">GetWidthY()</text>
<text text-anchor="start" x="144.37" y="-186.25" font-family="Helvetica,sans-Serif" font-size="10.00">+</text>
<text text-anchor="start" x="162.37" y="-186.25" font-family="Helvetica,sans-Serif" font-size="10.00">GetHeadWidth()</text>
<text text-anchor="start" x="144.37" y="-171" font-family="Helvetica,sans-Serif" font-size="10.00">+</text>
<text text-anchor="start" x="162.37" y="-171" font-family="Helvetica,sans-Serif" font-size="10.00">GetHeadWidthX()</text>
<text text-anchor="start" x="144.37" y="-155.75" font-family="Helvetica,sans-Serif" font-size="10.00">+</text>
<text text-anchor="start" x="162.37" y="-155.75" font-family="Helvetica,sans-Serif" font-size="10.00">GetHeadWidthY()</text>
<text text-anchor="start" x="144.37" y="-140.5" font-family="Helvetica,sans-Serif" font-size="10.00">+</text>
<text text-anchor="start" x="162.37" y="-140.5" font-family="Helvetica,sans-Serif" font-size="10.00">GetHeadLength()</text>
<text text-anchor="start" x="144.37" y="-125.25" font-family="Helvetica,sans-Serif" font-size="10.00">+</text>
<text text-anchor="start" x="162.37" y="-125.25" font-family="Helvetica,sans-Serif" font-size="10.00">PaintArrow()</text>
<polygon fill="#666666" stroke="#666666" points="132.37,-563.75 132.37,-563.75 273.12,-563.75 273.12,-563.75 132.37,-563.75"/>
<polygon fill="#666666" stroke="#666666" points="132.37,-457 132.37,-457 160.37,-457 160.37,-457 132.37,-457"/>
<polygon fill="#666666" stroke="#666666" points="160.37,-457 160.37,-457 273.12,-457 273.12,-457 160.37,-457"/>
<polygon fill="none" stroke="#666666" points="132.37,-119.5 132.37,-592.25 273.12,-592.25 273.12,-119.5 132.37,-119.5"/>
</a>
</g>
</g>
<!-- Node1&#45;&gt;Node12 -->
<g id="edge16_Node000012_Node000001" class="edge">
<title>Node1&#45;&gt;Node12</title>
<g id="a_edge16_Node000012_Node000001"><a xlink:title=" ">
<path fill="none" stroke="#63b8ff" d="M225.13,-1163.61C221.65,-1143.96 218.64,-1124.08 216.5,-1105 197.87,-938.95 194.49,-750.9 195.74,-604.87"/>
<polygon fill="none" stroke="#63b8ff" points="195.74,-605.11 191.8,-599.07 195.85,-593.11 199.8,-599.15 195.74,-605.11"/>
</a>
</g>
<text text-anchor="middle" x="240.12" y="-887.62" font-family="Helvetica,sans-Serif" font-size="10.00" fill="grey"> +fScheme</text>
</g>
<!-- Node2 -->
<g id="Node000002" class="node">
<title>Node2</title>
<g id="a_Node000002"><a xlink:title=" ">
<polygon fill="white" stroke="none" points="404.5,-1576.12 359,-1576.12 359,-1526.38 404.5,-1526.38 404.5,-1576.12"/>
<text text-anchor="start" x="363" y="-1562.62" font-family="Helvetica,sans-Serif" font-size="10.00">TNamed</text>
<text text-anchor="start" x="380.25" y="-1547.38" font-family="Helvetica,sans-Serif" font-size="10.00"> </text>
<text text-anchor="start" x="380.25" y="-1532.12" font-family="Helvetica,sans-Serif" font-size="10.00"> </text>
<polygon fill="#666666" stroke="#666666" points="359,-1558.88 359,-1558.88 404.5,-1558.88 404.5,-1558.88 359,-1558.88"/>
<polygon fill="#666666" stroke="#666666" points="359,-1543.62 359,-1543.62 404.5,-1543.62 404.5,-1543.62 359,-1543.62"/>
<polygon fill="none" stroke="#666666" points="359,-1526.38 359,-1576.12 404.5,-1576.12 404.5,-1526.38 359,-1526.38"/>
</a>
</g>
</g>
<!-- Node2&#45;&gt;Node1 -->
<g id="edge1_Node000001_Node000002" class="edge">
<title>Node2&#45;&gt;Node1</title>
<g id="a_edge1_Node000001_Node000002"><a xlink:title=" ">
<path fill="none" stroke="#63b8ff" d="M360.38,-1516.93C353.87,-1506.43 346.83,-1494.71 340.75,-1483.75 337.83,-1478.49 334.9,-1473.11 331.97,-1467.66"/>
<polygon fill="none" stroke="#63b8ff" points="357.33,-1518.66 365.6,-1525.27 363.26,-1514.94 357.33,-1518.66"/>
</a>
</g>
</g>
<!-- Node2&#45;&gt;Node6 -->
<g id="edge6_Node000006_Node000002" class="edge">
<title>Node2&#45;&gt;Node6</title>
<g id="a_edge6_Node000006_Node000002"><a xlink:title=" ">
<path fill="none" stroke="#63b8ff" d="M395.95,-1515.9C399.52,-1505.72 402.87,-1494.44 404.75,-1483.75 426.62,-1359.39 429.55,-1218.04 426.7,-1104.74"/>
<polygon fill="none" stroke="#63b8ff" points="392.77,-1514.41 392.58,-1525 399.34,-1516.84 392.77,-1514.41"/>
</a>
</g>
</g>
<!-- Node3 -->
<g id="Node000003" class="node">
<title>Node3</title>
<g id="a_Node000003"><a xlink:title=" ">
<polygon fill="white" stroke="none" points="538.25,-392 395.25,-392 395.25,-319.75 538.25,-319.75 538.25,-392"/>
<text text-anchor="start" x="399.25" y="-378.5" font-family="Helvetica,sans-Serif" font-size="10.00">std::map&lt; std::string,</text>
<text text-anchor="start" x="399.25" y="-367.25" font-family="Helvetica,sans-Serif" font-size="10.00"> GamR::Nucleus::LevelScheme</text>
<text text-anchor="start" x="437.5" y="-356" font-family="Helvetica,sans-Serif" font-size="10.00">Draw::State &gt;</text>
<text text-anchor="start" x="465.25" y="-340.75" font-family="Helvetica,sans-Serif" font-size="10.00"> </text>
<text text-anchor="start" x="465.25" y="-325.5" font-family="Helvetica,sans-Serif" font-size="10.00"> </text>
<polygon fill="#666666" stroke="#666666" points="395.25,-352.25 395.25,-352.25 538.25,-352.25 538.25,-352.25 395.25,-352.25"/>
<polygon fill="#666666" stroke="#666666" points="395.25,-337 395.25,-337 538.25,-337 538.25,-337 395.25,-337"/>
<polygon fill="none" stroke="#666666" points="395.25,-319.75 395.25,-392 538.25,-392 538.25,-319.75 395.25,-319.75"/>
</a>
</g>
</g>
<!-- Node3&#45;&gt;Node1 -->
<g id="edge2_Node000001_Node000003" class="edge">
<title>Node3&#45;&gt;Node1</title>
<g id="a_edge2_Node000001_Node000003"><a xlink:title=" ">
<path fill="none" stroke="#63b8ff" d="M436.14,-391.69C397.39,-438 332.06,-524.09 301.75,-610.25 284.32,-659.78 272.43,-956.24 266.39,-1150.78"/>
<polygon fill="none" stroke="#63b8ff" points="266.39,-1150.84 270.2,-1156.96 266.02,-1162.83 262.2,-1156.71 266.39,-1150.84"/>
</a>
</g>
<text text-anchor="middle" x="310.27" y="-887.62" font-family="Helvetica,sans-Serif" font-size="10.00" fill="grey"> +fStates</text>
</g>
<!-- Node4 -->
<g id="Node000004" class="node">
<title>Node4</title>
<g id="a_Node000004"><a xlink:title=" ">
<polygon fill="white" stroke="none" points="522.75,-1348.5 472.75,-1348.5 472.75,-1298.75 522.75,-1298.75 522.75,-1348.5"/>
<text text-anchor="start" x="476.75" y="-1335" font-family="Helvetica,sans-Serif" font-size="10.00">std::string</text>
<text text-anchor="start" x="496.25" y="-1319.75" font-family="Helvetica,sans-Serif" font-size="10.00"> </text>
<text text-anchor="start" x="496.25" y="-1304.5" font-family="Helvetica,sans-Serif" font-size="10.00"> </text>
<polygon fill="#666666" stroke="#666666" points="472.75,-1331.25 472.75,-1331.25 522.75,-1331.25 522.75,-1331.25 472.75,-1331.25"/>
<polygon fill="#666666" stroke="#666666" points="472.75,-1316 472.75,-1316 522.75,-1316 522.75,-1316 472.75,-1316"/>
<polygon fill="none" stroke="#666666" points="472.75,-1298.75 472.75,-1348.5 522.75,-1348.5 522.75,-1298.75 472.75,-1298.75"/>
</a>
</g>
</g>
<!-- Node4&#45;&gt;Node3 -->
<g id="edge3_Node000003_Node000004" class="edge">
<title>Node4&#45;&gt;Node3</title>
<g id="a_edge3_Node000003_Node000004"><a xlink:title=" ">
<path fill="none" stroke="#63b8ff" d="M499.5,-1298.97C502.09,-1261.61 506.55,-1186.64 505.75,-1123 502.86,-895.06 507.28,-837.75 492.75,-610.25 488.15,-538.35 478.88,-455.33 472.74,-404.47"/>
<polygon fill="none" stroke="#63b8ff" points="472.73,-404.45 468.04,-398.98 471.28,-392.54 475.98,-398.01 472.73,-404.45"/>
</a>
</g>
<text text-anchor="middle" x="519.73" y="-887.62" font-family="Helvetica,sans-Serif" font-size="10.00" fill="grey"> +keys</text>
</g>
<!-- Node4&#45;&gt;Node6 -->
<g id="edge9_Node000006_Node000004" class="edge">
<title>Node4&#45;&gt;Node6</title>
<g id="a_edge9_Node000006_Node000004"><a xlink:title=" ">
<path fill="none" stroke="#63b8ff" d="M492,-1298.93C483.87,-1265.03 468.77,-1200.68 457.75,-1145.5 455.91,-1136.3 454.08,-1126.91 452.26,-1117.42"/>
<polygon fill="none" stroke="#63b8ff" points="452.29,-1117.56 447.24,-1112.41 450.06,-1105.77 455.1,-1110.92 452.29,-1117.56"/>
</a>
</g>
<text text-anchor="middle" x="481.75" y="-1136" font-family="Helvetica,sans-Serif" font-size="10.00" fill="grey"> +fLeftLab</text>
<text text-anchor="middle" x="481.75" y="-1124.75" font-family="Helvetica,sans-Serif" font-size="10.00" fill="grey">+fRightLab</text>
</g>
<!-- Node5 -->
<g id="Node000005" class="node">
<title>Node5</title>
<g id="a_Node000005"><a xlink:title=" ">
<polygon fill="white" stroke="none" points="540,-1581.75 455.5,-1581.75 455.5,-1520.75 540,-1520.75 540,-1581.75"/>
<text text-anchor="start" x="459.5" y="-1568.25" font-family="Helvetica,sans-Serif" font-size="10.00">std::basic_string&lt;</text>
<text text-anchor="start" x="482.37" y="-1557" font-family="Helvetica,sans-Serif" font-size="10.00"> Char &gt;</text>
<text text-anchor="start" x="496.25" y="-1541.75" font-family="Helvetica,sans-Serif" font-size="10.00"> </text>
<text text-anchor="start" x="496.25" y="-1526.5" font-family="Helvetica,sans-Serif" font-size="10.00"> </text>
<polygon fill="#666666" stroke="#666666" points="455.5,-1553.25 455.5,-1553.25 540,-1553.25 540,-1553.25 455.5,-1553.25"/>
<polygon fill="#666666" stroke="#666666" points="455.5,-1538 455.5,-1538 540,-1538 540,-1538 455.5,-1538"/>
<polygon fill="none" stroke="#666666" points="455.5,-1520.75 455.5,-1581.75 540,-1581.75 540,-1520.75 455.5,-1520.75"/>
</a>
</g>
</g>
<!-- Node5&#45;&gt;Node4 -->
<g id="edge4_Node000004_Node000005" class="edge">
<title>Node5&#45;&gt;Node4</title>
<g id="a_edge4_Node000004_Node000005"><a xlink:title=" ">
<path fill="none" stroke="#63b8ff" d="M497.75,-1509.44C497.75,-1462.36 497.75,-1386.53 497.75,-1348.29"/>
<polygon fill="none" stroke="#63b8ff" points="494.25,-1509.24 497.75,-1519.24 501.25,-1509.24 494.25,-1509.24"/>
</a>
</g>
</g>
<!-- Node6&#45;&gt;Node3 -->
<g id="edge5_Node000003_Node000006" class="edge">
<title>Node6&#45;&gt;Node3</title>
<g id="a_edge5_Node000003_Node000006"><a xlink:title=" ">
<path fill="none" stroke="#63b8ff" d="M434.85,-678.06C444.85,-577.33 455.93,-465.81 462.04,-404.25"/>
<polygon fill="none" stroke="#63b8ff" points="462.03,-404.37 458.64,-398.01 463.22,-392.43 466.6,-398.8 462.03,-404.37"/>
</a>
</g>
<text text-anchor="middle" x="464.25" y="-631.25" font-family="Helvetica,sans-Serif" font-size="10.00" fill="grey"> +elements</text>
</g>
<!-- Node6&#45;&gt;Node12 -->
<g id="edge17_Node000012_Node000006" class="edge">
<title>Node6&#45;&gt;Node12</title>
<g id="a_edge17_Node000012_Node000006"><a xlink:title=" ">
<path fill="none" stroke="#63b8ff" d="M343.4,-712.52C338.78,-700.84 334.2,-689.25 329.75,-678 312.97,-635.57 294.95,-590 277.9,-546.89"/>
<polygon fill="none" stroke="#63b8ff" points="277.87,-546.8 271.94,-542.69 273.45,-535.64 279.38,-539.75 277.87,-546.8"/>
</a>
</g>
<text text-anchor="middle" x="335.58" y="-636.88" font-family="Helvetica,sans-Serif" font-size="10.00" fill="grey"> +fFinal</text>
<text text-anchor="middle" x="335.58" y="-625.62" font-family="Helvetica,sans-Serif" font-size="10.00" fill="grey">+fInitial</text>
</g>
<!-- Node7 -->
<g id="Node000007" class="node">
<title>Node7</title>
<g id="a_Node000007"><a xlink:title=" ">
<polygon fill="white" stroke="none" points="395.5,-1348.5 350,-1348.5 350,-1298.75 395.5,-1298.75 395.5,-1348.5"/>
<text text-anchor="start" x="354" y="-1335" font-family="Helvetica,sans-Serif" font-size="10.00">TAttLine</text>
<text text-anchor="start" x="371.25" y="-1319.75" font-family="Helvetica,sans-Serif" font-size="10.00"> </text>
<text text-anchor="start" x="371.25" y="-1304.5" font-family="Helvetica,sans-Serif" font-size="10.00"> </text>
<polygon fill="#666666" stroke="#666666" points="350,-1331.25 350,-1331.25 395.5,-1331.25 395.5,-1331.25 350,-1331.25"/>
<polygon fill="#666666" stroke="#666666" points="350,-1316 350,-1316 395.5,-1316 395.5,-1316 350,-1316"/>
<polygon fill="none" stroke="#666666" points="350,-1298.75 350,-1348.5 395.5,-1348.5 395.5,-1298.75 350,-1298.75"/>
</a>
</g>
</g>
<!-- Node7&#45;&gt;Node6 -->
<g id="edge7_Node000006_Node000007" class="edge">
<title>Node7&#45;&gt;Node6</title>
<g id="a_edge7_Node000006_Node000007"><a xlink:title=" ">
<path fill="none" stroke="#63b8ff" d="M376.08,-1287.69C379.98,-1246.79 386.76,-1175.59 393.51,-1104.79"/>
<polygon fill="none" stroke="#63b8ff" points="372.62,-1287.09 375.15,-1297.38 379.59,-1287.76 372.62,-1287.09"/>
</a>
</g>
</g>
<!-- Node8 -->
<g id="Node000008" class="node">
<title>Node8</title>
<g id="a_Node000008"><a xlink:title=" ">
<polygon fill="white" stroke="none" points="645.37,-916.38 566.12,-916.38 566.12,-866.62 645.37,-866.62 645.37,-916.38"/>
<text text-anchor="start" x="570.12" y="-902.88" font-family="Helvetica,sans-Serif" font-size="10.00">std::map&lt; K, T &gt;</text>
<text text-anchor="start" x="604.25" y="-887.62" font-family="Helvetica,sans-Serif" font-size="10.00"> </text>
<text text-anchor="start" x="604.25" y="-872.38" font-family="Helvetica,sans-Serif" font-size="10.00"> </text>
<polygon fill="#666666" stroke="#666666" points="566.12,-899.12 566.12,-899.12 645.37,-899.12 645.37,-899.12 566.12,-899.12"/>
<polygon fill="#666666" stroke="#666666" points="566.12,-883.88 566.12,-883.88 645.37,-883.88 645.37,-883.88 566.12,-883.88"/>
<polygon fill="none" stroke="#666666" points="566.12,-866.62 566.12,-916.38 645.37,-916.38 645.37,-866.62 566.12,-866.62"/>
</a>
</g>
</g>
<!-- Node8&#45;&gt;Node3 -->
<g id="edge10_Node000003_Node000008" class="edge">
<title>Node8&#45;&gt;Node3</title>
<g id="a_edge10_Node000003_Node000008"><a xlink:title=" ">
<path fill="none" stroke="orange" d="M597.3,-855.87C587,-813.77 568.93,-740.59 552.75,-678 525.8,-573.79 492.47,-450.98 476.36,-391.99"/>
<polygon fill="orange" stroke="orange" points="593.86,-856.53 599.64,-865.41 600.66,-854.87 593.86,-856.53"/>
</a>
</g>
<text text-anchor="start" x="545.97" y="-642.5" font-family="Helvetica,sans-Serif" font-size="10.00" fill="grey"> &lt; std::string, GamR</text>
<text text-anchor="start" x="545.97" y="-631.25" font-family="Helvetica,sans-Serif" font-size="10.00" fill="grey">::Nucleus::LevelSchemeDraw</text>
<text text-anchor="middle" x="609.72" y="-620" font-family="Helvetica,sans-Serif" font-size="10.00" fill="grey">::State &gt;</text>
</g>
<!-- Node9 -->
<g id="Node000009" class="node">
<title>Node9</title>
<g id="a_Node000009"><a xlink:title=" ">
<polygon fill="white" stroke="none" points="607.12,-1348.5 592.37,-1348.5 592.37,-1298.75 607.12,-1298.75 607.12,-1348.5"/>
<text text-anchor="start" x="596.37" y="-1335" font-family="Helvetica,sans-Serif" font-size="10.00">K</text>
<text text-anchor="start" x="598.25" y="-1319.75" font-family="Helvetica,sans-Serif" font-size="10.00"> </text>
<text text-anchor="start" x="598.25" y="-1304.5" font-family="Helvetica,sans-Serif" font-size="10.00"> </text>
<polygon fill="#666666" stroke="#666666" points="592.37,-1331.25 592.37,-1331.25 607.12,-1331.25 607.12,-1331.25 592.37,-1331.25"/>
<polygon fill="#666666" stroke="#666666" points="592.37,-1316 592.37,-1316 607.12,-1316 607.12,-1316 592.37,-1316"/>
<polygon fill="none" stroke="#666666" points="592.37,-1298.75 592.37,-1348.5 607.12,-1348.5 607.12,-1298.75 592.37,-1298.75"/>
</a>
</g>
</g>
<!-- Node9&#45;&gt;Node8 -->
<g id="edge11_Node000008_Node000009" class="edge">
<title>Node9&#45;&gt;Node8</title>
<g id="a_edge11_Node000008_Node000009"><a xlink:title=" ">
<path fill="none" stroke="#63b8ff" d="M599.83,-1298.96C599.99,-1261.59 600.39,-1186.59 601.25,-1123 602.17,-1054.45 603.88,-974.45 604.9,-929"/>
<polygon fill="none" stroke="#63b8ff" points="604.9,-928.96 601.04,-922.87 605.17,-916.96 609.04,-923.05 604.9,-928.96"/>
</a>
</g>
<text text-anchor="middle" x="615.5" y="-1130.38" font-family="Helvetica,sans-Serif" font-size="10.00" fill="grey"> +keys</text>
</g>
<!-- Node10 -->
<g id="Node000010" class="node">
<title>Node10</title>
<g id="a_Node000010"><a xlink:title=" ">
<polygon fill="white" stroke="none" points="693.75,-1348.5 679.75,-1348.5 679.75,-1298.75 693.75,-1298.75 693.75,-1348.5"/>
<text text-anchor="start" x="683.75" y="-1335" font-family="Helvetica,sans-Serif" font-size="10.00">T</text>
<text text-anchor="start" x="685.25" y="-1319.75" font-family="Helvetica,sans-Serif" font-size="10.00"> </text>
<text text-anchor="start" x="685.25" y="-1304.5" font-family="Helvetica,sans-Serif" font-size="10.00"> </text>
<polygon fill="#666666" stroke="#666666" points="679.75,-1331.25 679.75,-1331.25 693.75,-1331.25 693.75,-1331.25 679.75,-1331.25"/>
<polygon fill="#666666" stroke="#666666" points="679.75,-1316 679.75,-1316 693.75,-1316 693.75,-1316 679.75,-1316"/>
<polygon fill="none" stroke="#666666" points="679.75,-1298.75 679.75,-1348.5 693.75,-1348.5 693.75,-1298.75 679.75,-1298.75"/>
</a>
</g>
</g>
<!-- Node10&#45;&gt;Node8 -->
<g id="edge12_Node000008_Node000010" class="edge">
<title>Node10&#45;&gt;Node8</title>
<g id="a_edge12_Node000008_Node000010"><a xlink:title=" ">
<path fill="none" stroke="#63b8ff" d="M682.14,-1298.85C675.56,-1264.87 663.12,-1200.42 652.75,-1145.5 638.2,-1068.46 621.51,-978.14 612.45,-928.96"/>
<polygon fill="none" stroke="#63b8ff" points="612.44,-928.92 607.42,-923.74 610.27,-917.11 615.29,-922.29 612.44,-928.92"/>
</a>
</g>
<text text-anchor="middle" x="676.75" y="-1130.38" font-family="Helvetica,sans-Serif" font-size="10.00" fill="grey"> +elements</text>
</g>
<!-- Node14 -->
<g id="Node000014" class="node">
<title>Node14</title>
<g id="a_Node000014"><a xlink:title=" ">
<polygon fill="white" stroke="none" points="760.5,-660 685,-660 685,-610.25 760.5,-610.25 760.5,-660"/>
<text text-anchor="start" x="689" y="-646.5" font-family="Helvetica,sans-Serif" font-size="10.00">std::vector&lt; T &gt;</text>
<text text-anchor="start" x="721.25" y="-631.25" font-family="Helvetica,sans-Serif" font-size="10.00"> </text>
<text text-anchor="start" x="721.25" y="-616" font-family="Helvetica,sans-Serif" font-size="10.00"> </text>
<polygon fill="#666666" stroke="#666666" points="685,-642.75 685,-642.75 760.5,-642.75 760.5,-642.75 685,-642.75"/>
<polygon fill="#666666" stroke="#666666" points="685,-627.5 685,-627.5 760.5,-627.5 760.5,-627.5 685,-627.5"/>
<polygon fill="none" stroke="#666666" points="685,-610.25 685,-660 760.5,-660 760.5,-610.25 685,-610.25"/>
</a>
</g>
</g>
<!-- Node10&#45;&gt;Node14 -->
<g id="edge19_Node000014_Node000010" class="edge">
<title>Node10&#45;&gt;Node14</title>
<g id="a_edge19_Node000014_Node000010"><a xlink:title=" ">
<path fill="none" stroke="#63b8ff" d="M688.9,-1298.86C691.91,-1264.89 697.39,-1200.46 700.75,-1145.5 711.56,-968.47 718.93,-756.5 721.62,-672.74"/>
<polygon fill="none" stroke="#63b8ff" points="721.62,-672.65 717.81,-666.52 722,-660.65 725.81,-666.78 721.62,-672.65"/>
</a>
</g>
<text text-anchor="middle" x="725.92" y="-1130.38" font-family="Helvetica,sans-Serif" font-size="10.00" fill="grey"> +elements</text>
</g>
<!-- Node11 -->
<g id="Node000011" class="node">
<title>Node11</title>
<g id="a_Node000011"><a xlink:title=" ">
<polygon fill="white" stroke="none" points="268.25,-72.25 137.25,-72.25 137.25,0 268.25,0 268.25,-72.25"/>
<text text-anchor="start" x="141.25" y="-58.75" font-family="Helvetica,sans-Serif" font-size="10.00">std::vector&lt; GamR::</text>
<text text-anchor="start" x="141.25" y="-47.5" font-family="Helvetica,sans-Serif" font-size="10.00">Nucleus::LevelSchemeDraw</text>
<text text-anchor="start" x="175" y="-36.25" font-family="Helvetica,sans-Serif" font-size="10.00">::Transition &gt;</text>
<text text-anchor="start" x="201.25" y="-21" font-family="Helvetica,sans-Serif" font-size="10.00"> </text>
<text text-anchor="start" x="201.25" y="-5.75" font-family="Helvetica,sans-Serif" font-size="10.00"> </text>
<polygon fill="#666666" stroke="#666666" points="137.25,-32.5 137.25,-32.5 268.25,-32.5 268.25,-32.5 137.25,-32.5"/>
<polygon fill="#666666" stroke="#666666" points="137.25,-17.25 137.25,-17.25 268.25,-17.25 268.25,-17.25 137.25,-17.25"/>
<polygon fill="none" stroke="#666666" points="137.25,0 137.25,-72.25 268.25,-72.25 268.25,0 137.25,0"/>
</a>
</g>
</g>
<!-- Node11&#45;&gt;Node1 -->
<g id="edge13_Node000001_Node000011" class="edge">
<title>Node11&#45;&gt;Node1</title>
<g id="a_edge13_Node000001_Node000011"><a xlink:title=" ">
<path fill="none" stroke="#63b8ff" d="M158.29,-72.1C144.7,-85.37 131.34,-101.63 123.75,-119.5 -47.59,-522.68 -28.88,-688.13 105.75,-1105 121.62,-1154.14 153.08,-1201.6 183.62,-1239.6"/>
<polygon fill="none" stroke="#63b8ff" points="183.6,-1239.57 190.5,-1241.68 191.21,-1248.85 184.31,-1246.75 183.6,-1239.57"/>
</a>
</g>
<text text-anchor="middle" x="30.98" y="-631.25" font-family="Helvetica,sans-Serif" font-size="10.00" fill="grey"> +fTransitions</text>
</g>
<!-- Node12&#45;&gt;Node11 -->
<g id="edge14_Node000011_Node000012" class="edge">
<title>Node12&#45;&gt;Node11</title>
<g id="a_edge14_Node000011_Node000012"><a xlink:title=" ">
<path fill="none" stroke="#63b8ff" d="M202.75,-119.78C202.75,-107.21 202.75,-95.48 202.75,-85.03"/>
<polygon fill="none" stroke="#63b8ff" points="202.75,-84.96 198.75,-78.96 202.75,-72.96 206.75,-78.96 202.75,-84.96"/>
</a>
</g>
<text text-anchor="middle" x="226.75" y="-92" font-family="Helvetica,sans-Serif" font-size="10.00" fill="grey"> +elements</text>
</g>
<!-- Node13 -->
<g id="Node000013" class="node">
<title>Node13</title>
<g id="a_Node000013"><a xlink:title=" ">
<polygon fill="white" stroke="none" points="166.5,-916.38 115,-916.38 115,-866.62 166.5,-866.62 166.5,-916.38"/>
<text text-anchor="start" x="119" y="-902.88" font-family="Helvetica,sans-Serif" font-size="10.00">TPolyLine</text>
<text text-anchor="start" x="139.25" y="-887.62" font-family="Helvetica,sans-Serif" font-size="10.00"> </text>
<text text-anchor="start" x="139.25" y="-872.38" font-family="Helvetica,sans-Serif" font-size="10.00"> </text>
<polygon fill="#666666" stroke="#666666" points="115,-899.12 115,-899.12 166.5,-899.12 166.5,-899.12 115,-899.12"/>
<polygon fill="#666666" stroke="#666666" points="115,-883.88 115,-883.88 166.5,-883.88 166.5,-883.88 115,-883.88"/>
<polygon fill="none" stroke="#666666" points="115,-866.62 115,-916.38 166.5,-916.38 166.5,-866.62 115,-866.62"/>
</a>
</g>
</g>
<!-- Node13&#45;&gt;Node12 -->
<g id="edge15_Node000012_Node000013" class="edge">
<title>Node13&#45;&gt;Node12</title>
<g id="a_edge15_Node000012_Node000013"><a xlink:title=" ">
<path fill="none" stroke="#63b8ff" d="M144.8,-855.61C151.06,-801.71 163.61,-693.77 175.42,-592.05"/>
<polygon fill="none" stroke="#63b8ff" points="141.34,-855.04 143.67,-865.38 148.3,-855.85 141.34,-855.04"/>
</a>
</g>
</g>
<!-- Node14&#45;&gt;Node11 -->
<g id="edge18_Node000011_Node000014" class="edge">
<title>Node14&#45;&gt;Node11</title>
<g id="a_edge18_Node000011_Node000014"><a xlink:title=" ">
<path fill="none" stroke="orange" d="M721.84,-599.14C717.44,-506.15 692.13,-250.99 547.75,-119.5 507.23,-82.6 356.26,-57.19 268.03,-45.13"/>
<polygon fill="orange" stroke="orange" points="718.33,-599.05 722.24,-608.9 725.32,-598.76 718.33,-599.05"/>
</a>
</g>
<text text-anchor="start" x="721.42" y="-357.62" font-family="Helvetica,sans-Serif" font-size="10.00" fill="grey"> &lt; GamR::Nucleus::LevelScheme</text>
<text text-anchor="middle" x="793.04" y="-346.38" font-family="Helvetica,sans-Serif" font-size="10.00" fill="grey">Draw::Transition &gt;</text>
</g>
</g>
</svg>

<g id="navigator" transform="translate(0 0)" fill="#404254">
  <rect fill="#f2f5e9" fill-opacity="0.5" stroke="#606060" stroke-width=".5" x="0" y="0" width="60" height="60"/>
  <use id="zoomplus" xlink:href="#zoomPlus" x="17" y="9" onmousedown="handleZoom(evt,'in')"/>
  <use id="zoomminus" xlink:href="#zoomMin" x="42" y="9" onmousedown="handleZoom(evt,'out')"/>
  <use id="reset" xlink:href="#resetDef" x="30" y="36" onmousedown="handleReset()"/>
   <use id="arrowup" xlink:href="#arrowUp" x="0" y="0" onmousedown="handlePan(0,-1)"/>
  <use id="arrowright" xlink:href="#arrowRight" x="0" y="0" onmousedown="handlePan(1,0)"/>
  <use id="arrowdown" xlink:href="#arrowDown" x="0" y="0" onmousedown="handlePan(0,1)"/>
  <use id="arrowleft" xlink:href="#arrowLeft" x="0" y="0" onmousedown="handlePan(-1,0)"/>
</g>
<svg viewBox="0 0 15 15" width="100%" height="30px" preserveAspectRatio="xMaxYMin meet">
 <g id="arrow_out" transform="scale(0.3 0.3)">
  <a xlink:href="class_gam_r_1_1_nucleus_1_1_level_scheme_draw_1_1_scheme__coll__graph_org.svg" target="_base">
   <rect id="button" ry="5" rx="5" y="6" x="6" height="38" width="38"
        fill="#f2f5e9" fill-opacity="0.5" stroke="#606060" stroke-width="1.0"/>
   <path id="arrow"
     d="M 11.500037,31.436501 C 11.940474,20.09759 22.043105,11.32322 32.158766,21.979434 L 37.068811,17.246167 C 37.068811,17.246167 37.088388,32 37.088388,32 L 22.160133,31.978069 C 22.160133,31.978069 26.997745,27.140456 26.997745,27.140456 C 18.528582,18.264221 13.291696,25.230495 11.500037,31.436501 z"
     style="fill:#404040;"/>
  </a>
 </g>
</svg>

<style type='text/css'>
<![CDATA[
[data-mouse-over-selected='false'] { opacity: 0.7; }
[data-mouse-over-selected='true']  { opacity: 1.0; }
]]>
</style>
<script type="application/ecmascript"><![CDATA[
document.addEventListener('DOMContentLoaded', (event) => {
  highlightEdges();
  highlightAdjacentNodes();
});
]]></script>
</svg>
