<?xml version="1.0" encoding="UTF-8" standalone="no"?>
<!DOCTYPE svg PUBLIC "-//W3C//DTD SVG 1.1//EN"
 "http://www.w3.org/Graphics/SVG/1.1/DTD/svg11.dtd">
<!-- Generated by graphviz version 12.0.0 (20240704.0754)
 -->
<!-- Title: GamR::Spect::PeakFitGuesses::Save Pages: 1 -->
<svg width="240pt" height="64pt"
 viewBox="0.00 0.00 240.25 64.25" xmlns="http://www.w3.org/2000/svg" xmlns:xlink="http://www.w3.org/1999/xlink">
<g id="graph0" class="graph" transform="scale(1 1) rotate(0) translate(4 60.25)">
<title>GamR::Spect::PeakFitGuesses::Save</title>
<!-- Node1 -->
<g id="Node000001" class="node">
<title>Node1</title>
<g id="a_Node000001"><a xlink:title=" ">
<polygon fill="#999999" stroke="#666666" points="232.25,-42.88 81.25,-42.88 81.25,-12.37 232.25,-12.37 232.25,-42.88"/>
<text text-anchor="start" x="89.25" y="-29.38" font-family="Helvetica,sans-Serif" font-size="10.00">GamR::Spect::PeakFitGuesses</text>
<text text-anchor="middle" x="156.75" y="-18.12" font-family="Helvetica,sans-Serif" font-size="10.00">::Save</text>
</a>
</g>
</g>
<!-- Node2 -->
<g id="Node000002" class="node">
<title>Node2</title>
<g id="a_Node000002"><a xlink:href="../../d0/d17/_abbreviations_8cc.html#aa11c5ea485a0e7cdcc8190dd5778fe8b" target="_top" xlink:title=" ">
<polygon fill="white" stroke="#666666" points="45.25,-56.25 0,-56.25 0,-37 45.25,-37 45.25,-56.25"/>
<text text-anchor="middle" x="22.62" y="-42.75" font-family="Helvetica,sans-Serif" font-size="10.00">pfsave</text>
</a>
</g>
</g>
<!-- Node1&#45;&gt;Node2 -->
<g id="edge1_Node000001_Node000002" class="edge">
<title>Node1&#45;&gt;Node2</title>
<g id="a_edge1_Node000001_Node000002"><a xlink:title=" ">
<path fill="none" stroke="#63b8ff" d="M69.57,-40.02C60.87,-41.27 52.69,-42.45 45.7,-43.45"/>
<polygon fill="#63b8ff" stroke="#63b8ff" points="69.91,-43.51 79.31,-38.62 68.91,-36.58 69.91,-43.51"/>
</a>
</g>
</g>
<!-- Node3 -->
<g id="Node000003" class="node">
<title>Node3</title>
<g id="a_Node000003"><a xlink:href="../../d0/d17/_abbreviations_8cc.html#a5c5eac3ab548c30d9785b881b1f8f7b1" target="_top" xlink:title=" ">
<polygon fill="white" stroke="#666666" points="45.25,-19.25 0,-19.25 0,0 45.25,0 45.25,-19.25"/>
<text text-anchor="middle" x="22.62" y="-5.75" font-family="Helvetica,sans-Serif" font-size="10.00">pfsave</text>
</a>
</g>
</g>
<!-- Node1&#45;&gt;Node3 -->
<g id="edge2_Node000001_Node000003" class="edge">
<title>Node1&#45;&gt;Node3</title>
<g id="a_edge2_Node000001_Node000003"><a xlink:title=" ">
<path fill="none" stroke="#63b8ff" d="M69.57,-15.88C60.87,-14.7 52.69,-13.58 45.7,-12.63"/>
<polygon fill="#63b8ff" stroke="#63b8ff" points="68.93,-19.33 79.31,-17.21 69.87,-12.39 68.93,-19.33"/>
</a>
</g>
</g>
</g>
</svg>
