<?xml version="1.0" encoding="UTF-8" standalone="no"?>
<!DOCTYPE svg PUBLIC "-//W3C//DTD SVG 1.1//EN"
 "http://www.w3.org/Graphics/SVG/1.1/DTD/svg11.dtd">
<!-- Generated by graphviz version 12.0.0 (20240704.0754)
 -->
<!-- Title: GamR::Sort::Type::GatedTimeDifference::GatedTimeDifference Pages: 1 -->
<svg width="647pt" height="125pt"
 viewBox="0.00 0.00 646.50 124.50" xmlns="http://www.w3.org/2000/svg" xmlns:xlink="http://www.w3.org/1999/xlink">
<g id="graph0" class="graph" transform="scale(1 1) rotate(0) translate(4 120.5)">
<title>GamR::Sort::Type::GatedTimeDifference::GatedTimeDifference</title>
<!-- Node1 -->
<g id="Node000001" class="node">
<title>Node1</title>
<g id="a_Node000001"><a xlink:title=" ">
<polygon fill="#999999" stroke="#666666" points="155.5,-73.5 0,-73.5 0,-43 155.5,-43 155.5,-73.5"/>
<text text-anchor="start" x="8" y="-60" font-family="Helvetica,sans-Serif" font-size="10.00">GamR::Sort::Type::GatedTime</text>
<text text-anchor="middle" x="77.75" y="-48.75" font-family="Helvetica,sans-Serif" font-size="10.00">Difference::GatedTimeDifference</text>
</a>
</g>
</g>
<!-- Node2 -->
<g id="Node000002" class="node">
<title>Node2</title>
<g id="a_Node000002"><a xlink:href="../../d3/d27/class_gam_r_1_1_sort_1_1_sorter.html#ae6f53503e0c3225df3b5763192a54f0a" target="_top" xlink:title=" ">
<polygon fill="white" stroke="#666666" points="288.5,-116.5 191.5,-116.5 191.5,-86 288.5,-86 288.5,-116.5"/>
<text text-anchor="start" x="199.5" y="-103" font-family="Helvetica,sans-Serif" font-size="10.00">GamR::Sort::Sorter</text>
<text text-anchor="middle" x="240" y="-91.75" font-family="Helvetica,sans-Serif" font-size="10.00">::GetMatrix</text>
</a>
</g>
</g>
<!-- Node1&#45;&gt;Node2 -->
<g id="edge1_Node000001_Node000002" class="edge">
<title>Node1&#45;&gt;Node2</title>
<g id="a_edge1_Node000001_Node000002"><a xlink:title=" ">
<path fill="none" stroke="#63b8ff" d="M137.06,-73.9C151.11,-77.67 166.13,-81.7 180.21,-85.47"/>
<polygon fill="#63b8ff" stroke="#63b8ff" points="179.23,-88.83 189.79,-88.05 181.04,-82.07 179.23,-88.83"/>
</a>
</g>
</g>
<!-- Node3 -->
<g id="Node000003" class="node">
<title>Node3</title>
<g id="a_Node000003"><a xlink:href="../../d0/d17/_abbreviations_8cc.html#a5d1794b612bdcca3f4f4baa3d2e38a0b" target="_top" xlink:title=" ">
<polygon fill="white" stroke="#666666" points="254.4,-67.88 225.6,-67.88 225.6,-48.62 254.4,-48.62 254.4,-67.88"/>
<text text-anchor="middle" x="240" y="-54.38" font-family="Helvetica,sans-Serif" font-size="10.00">ss</text>
</a>
</g>
</g>
<!-- Node1&#45;&gt;Node3 -->
<g id="edge2_Node000001_Node000003" class="edge">
<title>Node1&#45;&gt;Node3</title>
<g id="a_edge2_Node000001_Node000003"><a xlink:title=" ">
<path fill="none" stroke="#63b8ff" d="M155.59,-58.25C176.63,-58.25 197.98,-58.25 213.81,-58.25"/>
<polygon fill="#63b8ff" stroke="#63b8ff" points="213.7,-61.75 223.7,-58.25 213.7,-54.75 213.7,-61.75"/>
</a>
</g>
</g>
<!-- Node6 -->
<g id="Node000006" class="node">
<title>Node6</title>
<g id="a_Node000006"><a xlink:href="../../d3/d27/class_gam_r_1_1_sort_1_1_sorter.html#a51c1581fef56e2b16c8e9a3fc3a4ad4e" target="_top" xlink:title=" ">
<polygon fill="white" stroke="#666666" points="288.5,-30.5 191.5,-30.5 191.5,0 288.5,0 288.5,-30.5"/>
<text text-anchor="start" x="199.5" y="-17" font-family="Helvetica,sans-Serif" font-size="10.00">GamR::Sort::Sorter</text>
<text text-anchor="middle" x="240" y="-5.75" font-family="Helvetica,sans-Serif" font-size="10.00">::WriteObject</text>
</a>
</g>
</g>
<!-- Node1&#45;&gt;Node6 -->
<g id="edge6_Node000001_Node000006" class="edge">
<title>Node1&#45;&gt;Node6</title>
<g id="a_edge6_Node000001_Node000006"><a xlink:title=" ">
<path fill="none" stroke="#63b8ff" d="M137.06,-42.6C151.11,-38.83 166.13,-34.8 180.21,-31.03"/>
<polygon fill="#63b8ff" stroke="#63b8ff" points="181.04,-34.43 189.79,-28.45 179.23,-27.67 181.04,-34.43"/>
</a>
</g>
</g>
<!-- Node4 -->
<g id="Node000004" class="node">
<title>Node4</title>
<g id="a_Node000004"><a xlink:href="../../dc/d89/namespace_gam_r_1_1_spect.html#ab983da62eb972889ea13491189e13913" target="_top" xlink:title=" ">
<polygon fill="white" stroke="#666666" points="462,-67.88 324.5,-67.88 324.5,-48.62 462,-48.62 462,-67.88"/>
<text text-anchor="middle" x="393.25" y="-54.38" font-family="Helvetica,sans-Serif" font-size="10.00">GamR::Spect::StackSpectra</text>
</a>
</g>
</g>
<!-- Node3&#45;&gt;Node4 -->
<g id="edge3_Node000003_Node000004" class="edge">
<title>Node3&#45;&gt;Node4</title>
<g id="a_edge3_Node000003_Node000004"><a xlink:title=" ">
<path fill="none" stroke="#63b8ff" d="M254.69,-58.25C268.31,-58.25 290.38,-58.25 312.9,-58.25"/>
<polygon fill="#63b8ff" stroke="#63b8ff" points="312.79,-61.75 322.79,-58.25 312.79,-54.75 312.79,-61.75"/>
</a>
</g>
</g>
<!-- Node4&#45;&gt;Node4 -->
<g id="edge5_Node000004_Node000004" class="edge">
<title>Node4&#45;&gt;Node4</title>
<g id="a_edge5_Node000004_Node000004"><a xlink:title=" ">
<path fill="none" stroke="#63b8ff" d="M369.26,-68.16C358.31,-76.77 366.31,-85.88 393.25,-85.88 408.4,-85.88 417.56,-82.99 420.73,-78.94"/>
<polygon fill="#63b8ff" stroke="#63b8ff" points="424.12,-78.04 417.71,-69.6 417.46,-80.19 424.12,-78.04"/>
</a>
</g>
</g>
<!-- Node5 -->
<g id="Node000005" class="node">
<title>Node5</title>
<g id="a_Node000005"><a xlink:href="../../dc/d89/namespace_gam_r_1_1_spect.html#a56e80bce5bf691212c8b7dfb76c2d2b4" target="_top" xlink:title=" ">
<polygon fill="white" stroke="#666666" points="638.5,-67.88 498,-67.88 498,-48.62 638.5,-48.62 638.5,-67.88"/>
<text text-anchor="middle" x="568.25" y="-54.38" font-family="Helvetica,sans-Serif" font-size="10.00">GamR::Spect::List1DSpectra</text>
</a>
</g>
</g>
<!-- Node4&#45;&gt;Node5 -->
<g id="edge4_Node000004_Node000005" class="edge">
<title>Node4&#45;&gt;Node5</title>
<g id="a_edge4_Node000004_Node000005"><a xlink:title=" ">
<path fill="none" stroke="#63b8ff" d="M462.13,-58.25C470.04,-58.25 478.17,-58.25 486.24,-58.25"/>
<polygon fill="#63b8ff" stroke="#63b8ff" points="486.06,-61.75 496.06,-58.25 486.06,-54.75 486.06,-61.75"/>
</a>
</g>
</g>
</g>
</svg>
