<?xml version="1.0" encoding="UTF-8" standalone="no"?>
<!DOCTYPE svg PUBLIC "-//W3C//DTD SVG 1.1//EN"
 "http://www.w3.org/Graphics/SVG/1.1/DTD/svg11.dtd">
<!-- Generated by graphviz version 9.0.0 (20230911.1827)
 -->
<!-- Title: GamR::Sort::Type::GatedTimeDifference::operator() Pages: 1 -->
<svg width="285pt" height="88pt"
 viewBox="0.00 0.00 285.25 87.50" xmlns="http://www.w3.org/2000/svg" xmlns:xlink="http://www.w3.org/1999/xlink">
<g id="graph0" class="graph" transform="scale(1 1) rotate(0) translate(4 83.5)">
<title>GamR::Sort::Type::GatedTimeDifference::operator()</title>
<!-- Node1 -->
<g id="Node000001" class="node">
<title>Node1</title>
<g id="a_Node000001"><a xlink:title=" ">
<polygon fill="#999999" stroke="#666666" points="144.25,-54.5 0,-54.5 0,-24 144.25,-24 144.25,-54.5"/>
<text text-anchor="start" x="8" y="-41" font-family="Helvetica,sans-Serif" font-size="10.00">GamR::Sort::Type::GatedTime</text>
<text text-anchor="middle" x="72.12" y="-29.75" font-family="Helvetica,sans-Serif" font-size="10.00">Difference::operator()</text>
</a>
</g>
</g>
<!-- Node2 -->
<g id="Node000002" class="node">
<title>Node2</title>
<g id="a_Node000002"><a xlink:href="../../d3/d27/class_gam_r_1_1_sort_1_1_sorter.html#ad7e35ff82283dd168d4dc556e38b3f05" target="_top" xlink:title=" ">
<polygon fill="white" stroke="#666666" points="277.25,-79.5 180.25,-79.5 180.25,-49 277.25,-49 277.25,-79.5"/>
<text text-anchor="start" x="188.25" y="-66" font-family="Helvetica,sans-Serif" font-size="10.00">GamR::Sort::Sorter</text>
<text text-anchor="middle" x="228.75" y="-54.75" font-family="Helvetica,sans-Serif" font-size="10.00">::Done</text>
</a>
</g>
</g>
<!-- Node1&#45;&gt;Node2 -->
<g id="edge1_Node000001_Node000002" class="edge">
<title>Node1&#45;&gt;Node2</title>
<g id="a_edge1_Node000001_Node000002"><a xlink:title=" ">
<path fill="none" stroke="#63b8ff" d="M144.55,-50.8C152.63,-52.11 160.8,-53.43 168.7,-54.7"/>
<polygon fill="#63b8ff" stroke="#63b8ff" points="168.11,-58.15 178.54,-56.29 169.23,-51.24 168.11,-58.15"/>
</a>
</g>
</g>
<!-- Node3 -->
<g id="Node000003" class="node">
<title>Node3</title>
<g id="a_Node000003"><a xlink:href="../../d3/d27/class_gam_r_1_1_sort_1_1_sorter.html#a16bffa5282aa7e22c3d70044f1986ee8" target="_top" xlink:title=" ">
<polygon fill="white" stroke="#666666" points="277.25,-30.5 180.25,-30.5 180.25,0 277.25,0 277.25,-30.5"/>
<text text-anchor="start" x="188.25" y="-17" font-family="Helvetica,sans-Serif" font-size="10.00">GamR::Sort::Sorter</text>
<text text-anchor="middle" x="228.75" y="-5.75" font-family="Helvetica,sans-Serif" font-size="10.00">::Tick</text>
</a>
</g>
</g>
<!-- Node1&#45;&gt;Node3 -->
<g id="edge2_Node000001_Node000003" class="edge">
<title>Node1&#45;&gt;Node3</title>
<g id="a_edge2_Node000001_Node000003"><a xlink:title=" ">
<path fill="none" stroke="#63b8ff" d="M144.55,-28.16C152.63,-26.91 160.8,-25.64 168.7,-24.42"/>
<polygon fill="#63b8ff" stroke="#63b8ff" points="169.2,-27.88 178.54,-22.89 168.12,-20.96 169.2,-27.88"/>
</a>
</g>
</g>
</g>
</svg>
