<?xml version="1.0" encoding="UTF-8" standalone="no"?>
<!DOCTYPE svg PUBLIC "-//W3C//DTD SVG 1.1//EN"
 "http://www.w3.org/Graphics/SVG/1.1/DTD/svg11.dtd">
<!-- Generated by graphviz version 2.49.3 (20211023.0002)
 -->
<!-- Title: /Users/99j/git/gamma&#45;root/src/lib/spect/Transform.cc Pages: 1 -->
<svg width="1228pt" height="151pt"
 viewBox="0.00 0.00 1228.00 151.00" xmlns="http://www.w3.org/2000/svg" xmlns:xlink="http://www.w3.org/1999/xlink">
<g id="graph0" class="graph" transform="scale(1 1) rotate(0) translate(4 147)">
<title>/Users/99j/git/gamma&#45;root/src/lib/spect/Transform.cc</title>
<polygon fill="white" stroke="transparent" points="-4,4 -4,-147 1224,-147 1224,4 -4,4"/>
<!-- Node1 -->
<g id="node1" class="node">
<title>Node1</title>
<g id="a_node1"><a xlink:title=" ">
<polygon fill="#bfbfbf" stroke="black" points="264.5,-112.5 264.5,-142.5 417.5,-142.5 417.5,-112.5 264.5,-112.5"/>
<text text-anchor="start" x="272.5" y="-130.5" font-family="Helvetica,sans-Serif" font-size="10.00">/Users/99j/git/gamma</text>
<text text-anchor="middle" x="341" y="-119.5" font-family="Helvetica,sans-Serif" font-size="10.00">&#45;root/src/lib/spect/Transform.cc</text>
</a>
</g>
</g>
<!-- Node2 -->
<g id="node2" class="node">
<title>Node2</title>
<g id="a_node2"><a xlink:title=" ">
<polygon fill="white" stroke="#bfbfbf" points="96.5,-56.5 96.5,-75.5 149.5,-75.5 149.5,-56.5 96.5,-56.5"/>
<text text-anchor="middle" x="123" y="-63.5" font-family="Helvetica,sans-Serif" font-size="10.00">TMath.h</text>
</a>
</g>
</g>
<!-- Node1&#45;&gt;Node2 -->
<g id="edge1" class="edge">
<title>Node1&#45;&gt;Node2</title>
<path fill="none" stroke="midnightblue" d="M289.61,-112.47C249.63,-101.56 195.13,-86.69 159.51,-76.97"/>
<polygon fill="midnightblue" stroke="midnightblue" points="160.12,-73.5 149.55,-74.25 158.28,-80.26 160.12,-73.5"/>
</g>
<!-- Node3 -->
<g id="node3" class="node">
<title>Node3</title>
<g id="a_node3"><a xlink:title=" ">
<polygon fill="white" stroke="#bfbfbf" points="168,-56.5 168,-75.5 242,-75.5 242,-56.5 168,-56.5"/>
<text text-anchor="middle" x="205" y="-63.5" font-family="Helvetica,sans-Serif" font-size="10.00">TRandom3.h</text>
</a>
</g>
</g>
<!-- Node1&#45;&gt;Node3 -->
<g id="edge2" class="edge">
<title>Node1&#45;&gt;Node3</title>
<path fill="none" stroke="midnightblue" d="M308.77,-112.4C286.16,-102.51 256.16,-89.38 234.24,-79.79"/>
<polygon fill="midnightblue" stroke="midnightblue" points="235.35,-76.46 224.79,-75.66 232.55,-82.87 235.35,-76.46"/>
</g>
<!-- Node4 -->
<g id="node4" class="node">
<title>Node4</title>
<g id="a_node4"><a xlink:href="../../d7/db9/_utilities_8hh.html" target="_top" xlink:title=" ">
<polygon fill="white" stroke="black" points="434.5,-56.5 434.5,-75.5 517.5,-75.5 517.5,-56.5 434.5,-56.5"/>
<text text-anchor="middle" x="476" y="-63.5" font-family="Helvetica,sans-Serif" font-size="10.00">utils/Utilities.hh</text>
</a>
</g>
</g>
<!-- Node1&#45;&gt;Node4 -->
<g id="edge3" class="edge">
<title>Node1&#45;&gt;Node4</title>
<path fill="none" stroke="midnightblue" d="M372.99,-112.4C395.44,-102.51 425.21,-89.38 446.98,-79.79"/>
<polygon fill="midnightblue" stroke="midnightblue" points="448.62,-82.89 456.36,-75.66 445.79,-76.49 448.62,-82.89"/>
</g>
<!-- Node11 -->
<g id="node11" class="node">
<title>Node11</title>
<g id="a_node11"><a xlink:href="../../dd/d50/_gate_8hh.html" target="_top" xlink:title=" ">
<polygon fill="white" stroke="black" points="744.5,-56.5 744.5,-75.5 825.5,-75.5 825.5,-56.5 744.5,-56.5"/>
<text text-anchor="middle" x="785" y="-63.5" font-family="Helvetica,sans-Serif" font-size="10.00">toolkit/Gate.hh</text>
</a>
</g>
</g>
<!-- Node1&#45;&gt;Node11 -->
<g id="edge10" class="edge">
<title>Node1&#45;&gt;Node11</title>
<path fill="none" stroke="midnightblue" d="M417.58,-116.24C508.27,-104.08 656.78,-84.18 734.29,-73.79"/>
<polygon fill="midnightblue" stroke="midnightblue" points="734.85,-77.25 744.3,-72.45 733.92,-70.31 734.85,-77.25"/>
</g>
<!-- Node19 -->
<g id="node19" class="node">
<title>Node19</title>
<g id="a_node19"><a xlink:href="../../dc/d1a/_transform_8hh.html" target="_top" xlink:title=" ">
<polygon fill="white" stroke="black" points="260,-56.5 260,-75.5 336,-75.5 336,-56.5 260,-56.5"/>
<text text-anchor="middle" x="298" y="-63.5" font-family="Helvetica,sans-Serif" font-size="10.00">Transform.hh</text>
</a>
</g>
</g>
<!-- Node1&#45;&gt;Node19 -->
<g id="edge22" class="edge">
<title>Node1&#45;&gt;Node19</title>
<path fill="none" stroke="midnightblue" d="M330.81,-112.4C324.63,-103.84 316.7,-92.87 310.18,-83.86"/>
<polygon fill="midnightblue" stroke="midnightblue" points="312.95,-81.71 304.26,-75.66 307.28,-85.81 312.95,-81.71"/>
</g>
<!-- Node24 -->
<g id="node24" class="node">
<title>Node24</title>
<g id="a_node24"><a xlink:href="../../d9/db7/_display_8hh.html" target="_top" xlink:title=" ">
<polygon fill="white" stroke="black" points="354,-56.5 354,-75.5 416,-75.5 416,-56.5 354,-56.5"/>
<text text-anchor="middle" x="385" y="-63.5" font-family="Helvetica,sans-Serif" font-size="10.00">Display.hh</text>
</a>
</g>
</g>
<!-- Node1&#45;&gt;Node24 -->
<g id="edge30" class="edge">
<title>Node1&#45;&gt;Node24</title>
<path fill="none" stroke="midnightblue" d="M351.43,-112.4C357.76,-103.84 365.87,-92.87 372.53,-83.86"/>
<polygon fill="midnightblue" stroke="midnightblue" points="375.47,-85.78 378.6,-75.66 369.84,-81.62 375.47,-85.78"/>
</g>
<!-- Node5 -->
<g id="node5" class="node">
<title>Node5</title>
<g id="a_node5"><a xlink:title=" ">
<polygon fill="white" stroke="#bfbfbf" points="440.5,-0.5 440.5,-19.5 481.5,-19.5 481.5,-0.5 440.5,-0.5"/>
<text text-anchor="middle" x="461" y="-7.5" font-family="Helvetica,sans-Serif" font-size="10.00">string</text>
</a>
</g>
</g>
<!-- Node4&#45;&gt;Node5 -->
<g id="edge4" class="edge">
<title>Node4&#45;&gt;Node5</title>
<path fill="none" stroke="midnightblue" d="M473.52,-56.08C471.51,-48.85 468.61,-38.41 466.11,-29.4"/>
<polygon fill="midnightblue" stroke="midnightblue" points="469.48,-28.45 463.43,-19.75 462.74,-30.32 469.48,-28.45"/>
</g>
<!-- Node6 -->
<g id="node6" class="node">
<title>Node6</title>
<g id="a_node6"><a xlink:title=" ">
<polygon fill="white" stroke="#bfbfbf" points="583,-0.5 583,-19.5 633,-19.5 633,-0.5 583,-0.5"/>
<text text-anchor="middle" x="608" y="-7.5" font-family="Helvetica,sans-Serif" font-size="10.00">fstream</text>
</a>
</g>
</g>
<!-- Node4&#45;&gt;Node6 -->
<g id="edge5" class="edge">
<title>Node4&#45;&gt;Node6</title>
<path fill="none" stroke="midnightblue" d="M496.92,-56.44C518.74,-47.52 553.15,-33.44 577.89,-23.32"/>
<polygon fill="midnightblue" stroke="midnightblue" points="579.25,-26.54 587.18,-19.52 576.6,-20.06 579.25,-26.54"/>
</g>
<!-- Node7 -->
<g id="node7" class="node">
<title>Node7</title>
<g id="a_node7"><a xlink:title=" ">
<polygon fill="white" stroke="#bfbfbf" points="651,-0.5 651,-19.5 705,-19.5 705,-0.5 651,-0.5"/>
<text text-anchor="middle" x="678" y="-7.5" font-family="Helvetica,sans-Serif" font-size="10.00">complex</text>
</a>
</g>
</g>
<!-- Node4&#45;&gt;Node7 -->
<g id="edge6" class="edge">
<title>Node4&#45;&gt;Node7</title>
<path fill="none" stroke="midnightblue" d="M508.01,-56.44C544.26,-46.75 603.23,-30.99 641.31,-20.81"/>
<polygon fill="midnightblue" stroke="midnightblue" points="642.23,-24.18 650.99,-18.22 640.43,-17.42 642.23,-24.18"/>
</g>
<!-- Node8 -->
<g id="node8" class="node">
<title>Node8</title>
<g id="a_node8"><a xlink:title=" ">
<polygon fill="white" stroke="#bfbfbf" points="499.5,-0.5 499.5,-19.5 564.5,-19.5 564.5,-0.5 499.5,-0.5"/>
<text text-anchor="middle" x="532" y="-7.5" font-family="Helvetica,sans-Serif" font-size="10.00">TCanvas.h</text>
</a>
</g>
</g>
<!-- Node4&#45;&gt;Node8 -->
<g id="edge7" class="edge">
<title>Node4&#45;&gt;Node8</title>
<path fill="none" stroke="midnightblue" d="M485,-56.32C493.19,-48.42 505.51,-36.55 515.47,-26.94"/>
<polygon fill="midnightblue" stroke="midnightblue" points="518.07,-29.29 522.84,-19.83 513.21,-24.26 518.07,-29.29"/>
</g>
<!-- Node9 -->
<g id="node9" class="node">
<title>Node9</title>
<g id="a_node9"><a xlink:title=" ">
<polygon fill="white" stroke="#bfbfbf" points="316,-0.5 316,-19.5 360,-19.5 360,-0.5 316,-0.5"/>
<text text-anchor="middle" x="338" y="-7.5" font-family="Helvetica,sans-Serif" font-size="10.00">TH1.h</text>
</a>
</g>
</g>
<!-- Node4&#45;&gt;Node9 -->
<g id="edge8" class="edge">
<title>Node4&#45;&gt;Node9</title>
<path fill="none" stroke="midnightblue" d="M454.13,-56.44C431.22,-47.48 395.02,-33.31 369.13,-23.18"/>
<polygon fill="midnightblue" stroke="midnightblue" points="370.35,-19.9 359.76,-19.52 367.8,-26.42 370.35,-19.9"/>
</g>
<!-- Node10 -->
<g id="node10" class="node">
<title>Node10</title>
<g id="a_node10"><a xlink:title=" ">
<polygon fill="white" stroke="#bfbfbf" points="378,-0.5 378,-19.5 422,-19.5 422,-0.5 378,-0.5"/>
<text text-anchor="middle" x="400" y="-7.5" font-family="Helvetica,sans-Serif" font-size="10.00">TH2.h</text>
</a>
</g>
</g>
<!-- Node4&#45;&gt;Node10 -->
<g id="edge9" class="edge">
<title>Node4&#45;&gt;Node10</title>
<path fill="none" stroke="midnightblue" d="M463.79,-56.32C452.22,-48.11 434.62,-35.6 420.84,-25.81"/>
<polygon fill="midnightblue" stroke="midnightblue" points="422.61,-22.77 412.43,-19.83 418.56,-28.48 422.61,-22.77"/>
</g>
<!-- Node11&#45;&gt;Node5 -->
<g id="edge14" class="edge">
<title>Node11&#45;&gt;Node5</title>
<path fill="none" stroke="midnightblue" d="M744.24,-60.59C689.07,-54.21 587.45,-41.06 491.43,-19.8"/>
<polygon fill="midnightblue" stroke="midnightblue" points="492.08,-16.36 481.56,-17.58 490.55,-23.19 492.08,-16.36"/>
</g>
<!-- Node11&#45;&gt;Node8 -->
<g id="edge18" class="edge">
<title>Node11&#45;&gt;Node8</title>
<path fill="none" stroke="midnightblue" d="M744.94,-56.47C704.57,-47.87 640.19,-34.15 574.66,-20.14"/>
<polygon fill="midnightblue" stroke="midnightblue" points="575.07,-16.65 564.56,-17.98 573.61,-23.49 575.07,-16.65"/>
</g>
<!-- Node11&#45;&gt;Node9 -->
<g id="edge19" class="edge">
<title>Node11&#45;&gt;Node9</title>
<path fill="none" stroke="midnightblue" d="M744.49,-62.97C671.44,-58.81 512.78,-47.46 370.45,-19.97"/>
<polygon fill="midnightblue" stroke="midnightblue" points="370.72,-16.45 360.24,-17.96 369.37,-23.32 370.72,-16.45"/>
</g>
<!-- Node11&#45;&gt;Node10 -->
<g id="edge20" class="edge">
<title>Node11&#45;&gt;Node10</title>
<path fill="none" stroke="midnightblue" d="M744.45,-61.79C680.28,-56.28 551.31,-43.49 432.29,-19.75"/>
<polygon fill="midnightblue" stroke="midnightblue" points="432.77,-16.27 422.28,-17.72 431.38,-23.13 432.77,-16.27"/>
</g>
<!-- Node12 -->
<g id="node12" class="node">
<title>Node12</title>
<g id="a_node12"><a xlink:title=" ">
<polygon fill="white" stroke="#bfbfbf" points="1108,-0.5 1108,-19.5 1166,-19.5 1166,-0.5 1108,-0.5"/>
<text text-anchor="middle" x="1137" y="-7.5" font-family="Helvetica,sans-Serif" font-size="10.00">algorithm</text>
</a>
</g>
</g>
<!-- Node11&#45;&gt;Node12 -->
<g id="edge11" class="edge">
<title>Node11&#45;&gt;Node12</title>
<path fill="none" stroke="midnightblue" d="M825.84,-60.34C884.06,-53.44 994.43,-39.39 1097.63,-20.12"/>
<polygon fill="midnightblue" stroke="midnightblue" points="1098.42,-23.53 1107.6,-18.24 1097.12,-16.66 1098.42,-23.53"/>
</g>
<!-- Node13 -->
<g id="node13" class="node">
<title>Node13</title>
<g id="a_node13"><a xlink:title=" ">
<polygon fill="white" stroke="#bfbfbf" points="1184,-0.5 1184,-19.5 1220,-19.5 1220,-0.5 1184,-0.5"/>
<text text-anchor="middle" x="1202" y="-7.5" font-family="Helvetica,sans-Serif" font-size="10.00">map</text>
</a>
</g>
</g>
<!-- Node11&#45;&gt;Node13 -->
<g id="edge12" class="edge">
<title>Node11&#45;&gt;Node13</title>
<path fill="none" stroke="midnightblue" d="M825.6,-63.08C895.26,-59.2 1042.01,-48.41 1173.97,-19.8"/>
<polygon fill="midnightblue" stroke="midnightblue" points="1174.83,-23.19 1183.84,-17.62 1173.32,-16.36 1174.83,-23.19"/>
</g>
<!-- Node14 -->
<g id="node14" class="node">
<title>Node14</title>
<g id="a_node14"><a xlink:title=" ">
<polygon fill="white" stroke="#bfbfbf" points="723,-0.5 723,-19.5 775,-19.5 775,-0.5 723,-0.5"/>
<text text-anchor="middle" x="749" y="-7.5" font-family="Helvetica,sans-Serif" font-size="10.00">sstream</text>
</a>
</g>
</g>
<!-- Node11&#45;&gt;Node14 -->
<g id="edge13" class="edge">
<title>Node11&#45;&gt;Node14</title>
<path fill="none" stroke="midnightblue" d="M779.06,-56.08C774.02,-48.53 766.66,-37.49 760.49,-28.23"/>
<polygon fill="midnightblue" stroke="midnightblue" points="763.29,-26.13 754.83,-19.75 757.47,-30.01 763.29,-26.13"/>
</g>
<!-- Node15 -->
<g id="node15" class="node">
<title>Node15</title>
<g id="a_node15"><a xlink:title=" ">
<polygon fill="white" stroke="#bfbfbf" points="793.5,-0.5 793.5,-19.5 848.5,-19.5 848.5,-0.5 793.5,-0.5"/>
<text text-anchor="middle" x="821" y="-7.5" font-family="Helvetica,sans-Serif" font-size="10.00">iostream</text>
</a>
</g>
</g>
<!-- Node11&#45;&gt;Node15 -->
<g id="edge15" class="edge">
<title>Node11&#45;&gt;Node15</title>
<path fill="none" stroke="midnightblue" d="M790.94,-56.08C795.98,-48.53 803.34,-37.49 809.51,-28.23"/>
<polygon fill="midnightblue" stroke="midnightblue" points="812.53,-30.01 815.17,-19.75 806.71,-26.13 812.53,-30.01"/>
</g>
<!-- Node16 -->
<g id="node16" class="node">
<title>Node16</title>
<g id="a_node16"><a xlink:title=" ">
<polygon fill="white" stroke="#bfbfbf" points="867,-0.5 867,-19.5 923,-19.5 923,-0.5 867,-0.5"/>
<text text-anchor="middle" x="895" y="-7.5" font-family="Helvetica,sans-Serif" font-size="10.00">Rtypes.h</text>
</a>
</g>
</g>
<!-- Node11&#45;&gt;Node16 -->
<g id="edge16" class="edge">
<title>Node11&#45;&gt;Node16</title>
<path fill="none" stroke="midnightblue" d="M802.67,-56.32C820.39,-47.62 847.9,-34.12 868.29,-24.11"/>
<polygon fill="midnightblue" stroke="midnightblue" points="869.94,-27.2 877.37,-19.65 866.85,-20.92 869.94,-27.2"/>
</g>
<!-- Node17 -->
<g id="node17" class="node">
<title>Node17</title>
<g id="a_node17"><a xlink:title=" ">
<polygon fill="white" stroke="#bfbfbf" points="941.5,-0.5 941.5,-19.5 1008.5,-19.5 1008.5,-0.5 941.5,-0.5"/>
<text text-anchor="middle" x="975" y="-7.5" font-family="Helvetica,sans-Serif" font-size="10.00">TBrowser.h</text>
</a>
</g>
</g>
<!-- Node11&#45;&gt;Node17 -->
<g id="edge17" class="edge">
<title>Node11&#45;&gt;Node17</title>
<path fill="none" stroke="midnightblue" d="M815.11,-56.44C847.63,-47.2 899.58,-32.44 935.39,-22.26"/>
<polygon fill="midnightblue" stroke="midnightblue" points="936.37,-25.62 945.03,-19.52 934.46,-18.88 936.37,-25.62"/>
</g>
<!-- Node18 -->
<g id="node18" class="node">
<title>Node18</title>
<g id="a_node18"><a xlink:title=" ">
<polygon fill="white" stroke="#bfbfbf" points="1026.5,-0.5 1026.5,-19.5 1089.5,-19.5 1089.5,-0.5 1026.5,-0.5"/>
<text text-anchor="middle" x="1058" y="-7.5" font-family="Helvetica,sans-Serif" font-size="10.00">TNamed.h</text>
</a>
</g>
</g>
<!-- Node11&#45;&gt;Node18 -->
<g id="edge21" class="edge">
<title>Node11&#45;&gt;Node18</title>
<path fill="none" stroke="midnightblue" d="M825.9,-57.49C870.4,-49.24 943.88,-35.35 1015.98,-20.38"/>
<polygon fill="midnightblue" stroke="midnightblue" points="1017.07,-23.73 1026.14,-18.26 1015.64,-16.88 1017.07,-23.73"/>
</g>
<!-- Node19&#45;&gt;Node5 -->
<g id="edge23" class="edge">
<title>Node19&#45;&gt;Node5</title>
<path fill="none" stroke="midnightblue" d="M323.83,-56.44C352.86,-46.82 399.95,-31.22 430.7,-21.04"/>
<polygon fill="midnightblue" stroke="midnightblue" points="432.06,-24.27 440.45,-17.81 429.86,-17.63 432.06,-24.27"/>
</g>
<!-- Node19&#45;&gt;Node9 -->
<g id="edge27" class="edge">
<title>Node19&#45;&gt;Node9</title>
<path fill="none" stroke="midnightblue" d="M304.61,-56.08C310.26,-48.46 318.54,-37.26 325.45,-27.94"/>
<polygon fill="midnightblue" stroke="midnightblue" points="328.38,-29.87 331.52,-19.75 322.75,-25.7 328.38,-29.87"/>
</g>
<!-- Node19&#45;&gt;Node10 -->
<g id="edge28" class="edge">
<title>Node19&#45;&gt;Node10</title>
<path fill="none" stroke="midnightblue" d="M314.39,-56.32C330.67,-47.7 355.87,-34.36 374.72,-24.39"/>
<polygon fill="midnightblue" stroke="midnightblue" points="376.45,-27.43 383.65,-19.65 373.18,-21.24 376.45,-27.43"/>
</g>
<!-- Node20 -->
<g id="node20" class="node">
<title>Node20</title>
<g id="a_node20"><a xlink:title=" ">
<polygon fill="white" stroke="#bfbfbf" points="254,-0.5 254,-19.5 298,-19.5 298,-0.5 254,-0.5"/>
<text text-anchor="middle" x="276" y="-7.5" font-family="Helvetica,sans-Serif" font-size="10.00">vector</text>
</a>
</g>
</g>
<!-- Node19&#45;&gt;Node20 -->
<g id="edge24" class="edge">
<title>Node19&#45;&gt;Node20</title>
<path fill="none" stroke="midnightblue" d="M294.37,-56.08C291.39,-48.77 287.07,-38.18 283.38,-29.1"/>
<polygon fill="midnightblue" stroke="midnightblue" points="286.58,-27.69 279.57,-19.75 280.1,-30.33 286.58,-27.69"/>
</g>
<!-- Node21 -->
<g id="node21" class="node">
<title>Node21</title>
<g id="a_node21"><a xlink:title=" ">
<polygon fill="white" stroke="#bfbfbf" points="0,-0.5 0,-19.5 54,-19.5 54,-0.5 0,-0.5"/>
<text text-anchor="middle" x="27" y="-7.5" font-family="Helvetica,sans-Serif" font-size="10.00">TCutG.h</text>
</a>
</g>
</g>
<!-- Node19&#45;&gt;Node21 -->
<g id="edge25" class="edge">
<title>Node19&#45;&gt;Node21</title>
<path fill="none" stroke="midnightblue" d="M259.84,-57.7C202.52,-46.72 97.92,-26.7 64.27,-20.02"/>
<polygon fill="midnightblue" stroke="midnightblue" points="64.59,-16.52 54.09,-17.94 63.19,-23.38 64.59,-16.52"/>
</g>
<!-- Node22 -->
<g id="node22" class="node">
<title>Node22</title>
<g id="a_node22"><a xlink:title=" ">
<polygon fill="white" stroke="#bfbfbf" points="72,-0.5 72,-19.5 140,-19.5 140,-0.5 72,-0.5"/>
<text text-anchor="middle" x="106" y="-7.5" font-family="Helvetica,sans-Serif" font-size="10.00">TFormula.h</text>
</a>
</g>
</g>
<!-- Node19&#45;&gt;Node22 -->
<g id="edge26" class="edge">
<title>Node19&#45;&gt;Node22</title>
<path fill="none" stroke="midnightblue" d="M267.58,-56.44C234.72,-47.2 182.22,-32.44 146.03,-22.26"/>
<polygon fill="midnightblue" stroke="midnightblue" points="146.85,-18.85 136.28,-19.52 144.96,-25.59 146.85,-18.85"/>
</g>
<!-- Node23 -->
<g id="node23" class="node">
<title>Node23</title>
<g id="a_node23"><a xlink:title=" ">
<polygon fill="white" stroke="#bfbfbf" points="158.5,-0.5 158.5,-19.5 235.5,-19.5 235.5,-0.5 158.5,-0.5"/>
<text text-anchor="middle" x="197" y="-7.5" font-family="Helvetica,sans-Serif" font-size="10.00">TVirtualPad.h</text>
</a>
</g>
</g>
<!-- Node19&#45;&gt;Node23 -->
<g id="edge29" class="edge">
<title>Node19&#45;&gt;Node23</title>
<path fill="none" stroke="midnightblue" d="M281.77,-56.32C265.65,-47.7 240.7,-34.36 222.04,-24.39"/>
<polygon fill="midnightblue" stroke="midnightblue" points="223.66,-21.28 213.19,-19.65 220.36,-27.46 223.66,-21.28"/>
</g>
<!-- Node24&#45;&gt;Node8 -->
<g id="edge34" class="edge">
<title>Node24&#45;&gt;Node8</title>
<path fill="none" stroke="midnightblue" d="M408.29,-56.44C432.81,-47.44 471.6,-33.19 499.2,-23.05"/>
<polygon fill="midnightblue" stroke="midnightblue" points="500.64,-26.25 508.82,-19.52 498.22,-19.68 500.64,-26.25"/>
</g>
<!-- Node24&#45;&gt;Node9 -->
<g id="edge32" class="edge">
<title>Node24&#45;&gt;Node9</title>
<path fill="none" stroke="midnightblue" d="M377.24,-56.08C370.46,-48.3 360.46,-36.8 352.24,-27.37"/>
<polygon fill="midnightblue" stroke="midnightblue" points="354.82,-25 345.62,-19.75 349.54,-29.59 354.82,-25"/>
</g>
<!-- Node24&#45;&gt;Node10 -->
<g id="edge33" class="edge">
<title>Node24&#45;&gt;Node10</title>
<path fill="none" stroke="midnightblue" d="M387.48,-56.08C389.49,-48.85 392.39,-38.41 394.89,-29.4"/>
<polygon fill="midnightblue" stroke="midnightblue" points="398.26,-30.32 397.57,-19.75 391.52,-28.45 398.26,-30.32"/>
</g>
<!-- Node24&#45;&gt;Node20 -->
<g id="edge31" class="edge">
<title>Node24&#45;&gt;Node20</title>
<path fill="none" stroke="midnightblue" d="M367.49,-56.32C349.93,-47.62 322.67,-34.12 302.47,-24.11"/>
<polygon fill="midnightblue" stroke="midnightblue" points="303.98,-20.96 293.47,-19.65 300.88,-27.23 303.98,-20.96"/>
</g>
</g>
</svg>
