<?xml version="1.0" encoding="UTF-8" standalone="no"?>
<!DOCTYPE svg PUBLIC "-//W3C//DTD SVG 1.1//EN"
 "http://www.w3.org/Graphics/SVG/1.1/DTD/svg11.dtd">
<!-- Generated by graphviz version 8.1.0 (20230707.0739)
 -->
<!-- Title: src/lib/coulex/Coulex.hh Pages: 1 -->
<svg width="348pt" height="138pt"
 viewBox="0.00 0.00 348.00 137.75" xmlns="http://www.w3.org/2000/svg" xmlns:xlink="http://www.w3.org/1999/xlink">
<g id="graph0" class="graph" transform="scale(1 1) rotate(0) translate(4 133.75)">
<title>src/lib/coulex/Coulex.hh</title>
<!-- Node1 -->
<g id="Node000001" class="node">
<title>Node1</title>
<g id="a_Node000001"><a xlink:title=" ">
<polygon fill="#999999" stroke="#666666" points="205,-129.75 87,-129.75 87,-110.5 205,-110.5 205,-129.75"/>
<text text-anchor="middle" x="146" y="-116.25" font-family="Helvetica,sans-Serif" font-size="10.00">src/lib/coulex/Coulex.hh</text>
</a>
</g>
</g>
<!-- Node2 -->
<g id="Node000002" class="node">
<title>Node2</title>
<g id="a_Node000002"><a xlink:href="../../d2/d58/_coulex_8cc.html" target="_top" xlink:title=" ">
<polygon fill="white" stroke="#666666" points="118,-74.5 0,-74.5 0,-55.25 118,-55.25 118,-74.5"/>
<text text-anchor="middle" x="59" y="-61" font-family="Helvetica,sans-Serif" font-size="10.00">src/lib/coulex/Coulex.cc</text>
</a>
</g>
</g>
<!-- Node1&#45;&gt;Node2 -->
<g id="edge1_Node000001_Node000002" class="edge">
<title>Node1&#45;&gt;Node2</title>
<g id="a_edge1_Node000001_Node000002"><a xlink:title=" ">
<path fill="none" stroke="#63b8ff" d="M122.26,-104.59C106.79,-95.13 87.1,-83.08 73.83,-74.95"/>
<polygon fill="#63b8ff" stroke="#63b8ff" points="119.89,-107.86 130.24,-110.09 123.54,-101.89 119.89,-107.86"/>
</a>
</g>
</g>
<!-- Node3 -->
<g id="Node000003" class="node">
<title>Node3</title>
<g id="a_Node000003"><a xlink:href="../../dc/d19/_coulex_calculation_8cc.html" target="_top" xlink:title=" ">
<polygon fill="white" stroke="#666666" points="284,-19.25 118,-19.25 118,0 284,0 284,-19.25"/>
<text text-anchor="middle" x="201" y="-5.75" font-family="Helvetica,sans-Serif" font-size="10.00">src/lib/coulex/CoulexCalculation.cc</text>
</a>
</g>
</g>
<!-- Node1&#45;&gt;Node3 -->
<g id="edge2_Node000001_Node000003" class="edge">
<title>Node1&#45;&gt;Node3</title>
<g id="a_edge2_Node000001_Node000003"><a xlink:title=" ">
<path fill="none" stroke="#63b8ff" d="M149.77,-99.44C152.75,-86.41 157.66,-69.21 165,-55.25 172.23,-41.5 184.01,-27.94 192.12,-19.44"/>
<polygon fill="#63b8ff" stroke="#63b8ff" points="146.17,-98.52 147.55,-109.03 153.02,-99.96 146.17,-98.52"/>
</a>
</g>
</g>
<!-- Node4 -->
<g id="Node000004" class="node">
<title>Node4</title>
<g id="a_Node000004"><a xlink:href="../../db/dba/_coulex_calculation_8hh.html" target="_top" xlink:title=" ">
<polygon fill="white" stroke="#666666" points="340,-74.5 174,-74.5 174,-55.25 340,-55.25 340,-74.5"/>
<text text-anchor="middle" x="257" y="-61" font-family="Helvetica,sans-Serif" font-size="10.00">src/lib/coulex/CoulexCalculation.hh</text>
</a>
</g>
</g>
<!-- Node1&#45;&gt;Node4 -->
<g id="edge3_Node000001_Node000004" class="edge">
<title>Node1&#45;&gt;Node4</title>
<g id="a_edge3_Node000001_Node000004"><a xlink:title=" ">
<path fill="none" stroke="#63b8ff" d="M174.63,-105.39C194.59,-95.81 220.67,-83.31 238.08,-74.95"/>
<polygon fill="#63b8ff" stroke="#63b8ff" points="173.33,-102.61 165.83,-110.09 176.36,-108.92 173.33,-102.61"/>
</a>
</g>
</g>
<!-- Node4&#45;&gt;Node3 -->
<g id="edge4_Node000004_Node000003" class="edge">
<title>Node4&#45;&gt;Node3</title>
<g id="a_edge4_Node000004_Node000003"><a xlink:title=" ">
<path fill="none" stroke="#63b8ff" d="M239.66,-47.39C229.99,-38.19 218.33,-27.1 210.36,-19.52"/>
<polygon fill="#63b8ff" stroke="#63b8ff" points="236.84,-49.49 246.5,-53.84 241.67,-44.41 236.84,-49.49"/>
</a>
</g>
</g>
</g>
</svg>
