<?xml version="1.0" encoding="UTF-8" standalone="no"?>
<!DOCTYPE svg PUBLIC "-//W3C//DTD SVG 1.1//EN"
 "http://www.w3.org/Graphics/SVG/1.1/DTD/svg11.dtd">
<!-- Generated by graphviz version 12.2.1 (20241206.2353)
 -->
<!-- Title: GamR::Sort::Type::Matrix Pages: 1 -->
<svg width="806pt" height="893pt"
 viewBox="0.00 0.00 806.38 892.75" xmlns="http://www.w3.org/2000/svg" xmlns:xlink="http://www.w3.org/1999/xlink">
<g id="page0,1_graph0" class="graph" transform="scale(1 1) rotate(0) translate(4 888.75)">
<title>GamR::Sort::Type::Matrix</title>
<!-- Node1 -->
<g id="Node000001" class="node">
<title>Node1</title>
<g id="a_Node000001"><a xlink:title=" ">
<polygon fill="#999999" stroke="none" points="545.12,-156.5 430.62,-156.5 430.62,0 545.12,0 545.12,-156.5"/>
<text text-anchor="start" x="434.62" y="-143" font-family="Helvetica,sans-Serif" font-size="10.00">GamR::Sort::Type::Matrix</text>
<text text-anchor="start" x="446.94" y="-127.75" font-family="Helvetica,sans-Serif" font-size="10.00">+</text>
<text text-anchor="start" x="469.25" y="-127.75" font-family="Helvetica,sans-Serif" font-size="10.00">fGroupI</text>
<text text-anchor="start" x="446.94" y="-112.5" font-family="Helvetica,sans-Serif" font-size="10.00">+</text>
<text text-anchor="start" x="469.25" y="-112.5" font-family="Helvetica,sans-Serif" font-size="10.00">fGroupJ</text>
<text text-anchor="start" x="446.94" y="-97.25" font-family="Helvetica,sans-Serif" font-size="10.00">+</text>
<text text-anchor="start" x="469.25" y="-97.25" font-family="Helvetica,sans-Serif" font-size="10.00">fMeasX</text>
<text text-anchor="start" x="446.94" y="-82" font-family="Helvetica,sans-Serif" font-size="10.00">+</text>
<text text-anchor="start" x="469.25" y="-82" font-family="Helvetica,sans-Serif" font-size="10.00">fMeasY</text>
<text text-anchor="start" x="446.94" y="-66.75" font-family="Helvetica,sans-Serif" font-size="10.00">+</text>
<text text-anchor="start" x="469.25" y="-66.75" font-family="Helvetica,sans-Serif" font-size="10.00">XAxis</text>
<text text-anchor="start" x="446.94" y="-51.5" font-family="Helvetica,sans-Serif" font-size="10.00">+</text>
<text text-anchor="start" x="469.25" y="-51.5" font-family="Helvetica,sans-Serif" font-size="10.00">YAxis</text>
<text text-anchor="start" x="446.94" y="-36.25" font-family="Helvetica,sans-Serif" font-size="10.00">+</text>
<text text-anchor="start" x="469.25" y="-36.25" font-family="Helvetica,sans-Serif" font-size="10.00">GatedSort</text>
<text text-anchor="start" x="446.94" y="-21" font-family="Helvetica,sans-Serif" font-size="10.00">+</text>
<text text-anchor="start" x="469.25" y="-21" font-family="Helvetica,sans-Serif" font-size="10.00">Matrix()</text>
<text text-anchor="start" x="446.94" y="-5.75" font-family="Helvetica,sans-Serif" font-size="10.00">+</text>
<text text-anchor="start" x="469.25" y="-5.75" font-family="Helvetica,sans-Serif" font-size="10.00">operator()()</text>
<polygon fill="#666666" stroke="#666666" points="430.62,-139.25 430.62,-139.25 545.12,-139.25 545.12,-139.25 430.62,-139.25"/>
<polygon fill="#666666" stroke="#666666" points="430.62,-32.5 430.62,-32.5 467.25,-32.5 467.25,-32.5 430.62,-32.5"/>
<polygon fill="#666666" stroke="#666666" points="467.25,-32.5 467.25,-32.5 545.12,-32.5 545.12,-32.5 467.25,-32.5"/>
<polygon fill="none" stroke="#666666" points="430.62,0 430.62,-156.5 545.12,-156.5 545.12,0 430.62,0"/>
</a>
</g>
</g>
<!-- Node2 -->
<g id="Node000002" class="node">
<title>Node2</title>
<g id="a_Node000002"><a xlink:title=" ">
<polygon fill="white" stroke="none" points="113.75,-381.5 0,-381.5 0,-331.75 113.75,-331.75 113.75,-381.5"/>
<text text-anchor="start" x="4" y="-368" font-family="Helvetica,sans-Serif" font-size="10.00">std::shared_ptr&lt; TH2D &gt;</text>
<text text-anchor="start" x="15.38" y="-352.75" font-family="Helvetica,sans-Serif" font-size="10.00">+</text>
<text text-anchor="start" x="36.75" y="-352.75" font-family="Helvetica,sans-Serif" font-size="10.00">ptr</text>
<text text-anchor="start" x="15.38" y="-337.5" font-family="Helvetica,sans-Serif" font-size="10.00">+</text>
<text text-anchor="start" x="36.75" y="-337.5" font-family="Helvetica,sans-Serif" font-size="10.00">operator&#45;&gt;()</text>
<polygon fill="#666666" stroke="#666666" points="0,-364.25 0,-364.25 113.75,-364.25 113.75,-364.25 0,-364.25"/>
<polygon fill="#666666" stroke="#666666" points="0,-349 0,-349 34.75,-349 34.75,-349 0,-349"/>
<polygon fill="#666666" stroke="#666666" points="34.75,-349 34.75,-349 113.75,-349 113.75,-349 34.75,-349"/>
<polygon fill="none" stroke="#666666" points="0,-331.75 0,-381.5 113.75,-381.5 113.75,-331.75 0,-331.75"/>
</a>
</g>
</g>
<!-- Node2&#45;&gt;Node1 -->
<g id="edge1_Node000001_Node000002" class="edge">
<title>Node2&#45;&gt;Node1</title>
<g id="a_edge1_Node000001_Node000002"><a xlink:title=" ">
<path fill="none" stroke="#63b8ff" d="M61.58,-331.78C69.1,-299.74 86.8,-243 122.88,-209.75 206.25,-132.91 337.98,-100.69 418.3,-87.63"/>
<polygon fill="none" stroke="#63b8ff" points="417.99,-87.68 423.31,-82.81 429.85,-85.84 424.53,-90.71 417.99,-87.68"/>
</a>
</g>
<text text-anchor="start" x="166.88" y="-179.25" font-family="Helvetica,sans-Serif" font-size="10.00" fill="grey">+ptrMatrix</text>
</g>
<!-- Node3 -->
<g id="Node000003" class="node">
<title>Node3</title>
<g id="a_Node000003"><a xlink:title=" ">
<polygon fill="white" stroke="none" points="113,-665.5 18.75,-665.5 18.75,-615.75 113,-615.75 113,-665.5"/>
<text text-anchor="start" x="22.75" y="-652" font-family="Helvetica,sans-Serif" font-size="10.00">std::shared_ptr&lt; T &gt;</text>
<text text-anchor="start" x="64.38" y="-636.75" font-family="Helvetica,sans-Serif" font-size="10.00"> </text>
<text text-anchor="start" x="29.25" y="-621.5" font-family="Helvetica,sans-Serif" font-size="10.00">+</text>
<text text-anchor="start" x="45.75" y="-621.5" font-family="Helvetica,sans-Serif" font-size="10.00">operator&#45;&gt;()</text>
<polygon fill="#666666" stroke="#666666" points="18.75,-648.25 18.75,-648.25 113,-648.25 113,-648.25 18.75,-648.25"/>
<polygon fill="#666666" stroke="#666666" points="18.75,-633 18.75,-633 113,-633 113,-633 18.75,-633"/>
<polygon fill="none" stroke="#666666" points="18.75,-615.75 18.75,-665.5 113,-665.5 113,-615.75 18.75,-615.75"/>
</a>
</g>
</g>
<!-- Node3&#45;&gt;Node2 -->
<g id="edge2_Node000002_Node000003" class="edge">
<title>Node3&#45;&gt;Node2</title>
<g id="a_edge2_Node000002_Node000003"><a xlink:title=" ">
<path fill="none" stroke="orange" d="M60.08,-604.87C59.17,-598.13 58.37,-591.11 57.88,-584.5 52.37,-510.46 54.43,-422.45 55.9,-381.18"/>
<polygon fill="orange" stroke="orange" points="56.55,-604.94 61.46,-614.33 63.48,-603.93 56.55,-604.94"/>
</a>
</g>
<text text-anchor="start" x="60.88" y="-549.12" font-family="Helvetica,sans-Serif" font-size="10.00" fill="grey">&lt; TH2D &gt;</text>
</g>
<!-- Node4 -->
<g id="Node000004" class="node">
<title>Node4</title>
<g id="a_Node000004"><a xlink:title=" ">
<polygon fill="white" stroke="none" points="190.88,-781.75 176.88,-781.75 176.88,-732 190.88,-732 190.88,-781.75"/>
<text text-anchor="start" x="180.88" y="-768.25" font-family="Helvetica,sans-Serif" font-size="10.00">T</text>
<text text-anchor="start" x="182.38" y="-753" font-family="Helvetica,sans-Serif" font-size="10.00"> </text>
<text text-anchor="start" x="182.38" y="-737.75" font-family="Helvetica,sans-Serif" font-size="10.00"> </text>
<polygon fill="#666666" stroke="#666666" points="176.88,-764.5 176.88,-764.5 190.88,-764.5 190.88,-764.5 176.88,-764.5"/>
<polygon fill="#666666" stroke="#666666" points="176.88,-749.25 176.88,-749.25 190.88,-749.25 190.88,-749.25 176.88,-749.25"/>
<polygon fill="none" stroke="#666666" points="176.88,-732 176.88,-781.75 190.88,-781.75 190.88,-732 176.88,-732"/>
</a>
</g>
</g>
<!-- Node4&#45;&gt;Node3 -->
<g id="edge3_Node000003_Node000004" class="edge">
<title>Node4&#45;&gt;Node3</title>
<g id="a_edge3_Node000003_Node000004"><a xlink:title=" ">
<path fill="none" stroke="#63b8ff" d="M177.19,-749.41C162.54,-735.22 126.73,-700.54 99.65,-674.33"/>
<polygon fill="none" stroke="#63b8ff" points="99.75,-674.43 92.66,-673.13 91.13,-666.08 98.23,-667.38 99.75,-674.43"/>
</a>
</g>
<text text-anchor="start" x="141.91" y="-701.5" font-family="Helvetica,sans-Serif" font-size="10.00" fill="grey">+ptr</text>
</g>
<!-- Node6 -->
<g id="Node000006" class="node">
<title>Node6</title>
<g id="a_Node000006"><a xlink:title=" ">
<polygon fill="white" stroke="none" points="221.62,-665.5 146.12,-665.5 146.12,-615.75 221.62,-615.75 221.62,-665.5"/>
<text text-anchor="start" x="150.12" y="-652" font-family="Helvetica,sans-Serif" font-size="10.00">std::vector&lt; T &gt;</text>
<text text-anchor="start" x="182.38" y="-636.75" font-family="Helvetica,sans-Serif" font-size="10.00"> </text>
<text text-anchor="start" x="182.38" y="-621.5" font-family="Helvetica,sans-Serif" font-size="10.00"> </text>
<polygon fill="#666666" stroke="#666666" points="146.12,-648.25 146.12,-648.25 221.62,-648.25 221.62,-648.25 146.12,-648.25"/>
<polygon fill="#666666" stroke="#666666" points="146.12,-633 146.12,-633 221.62,-633 221.62,-633 146.12,-633"/>
<polygon fill="none" stroke="#666666" points="146.12,-615.75 146.12,-665.5 221.62,-665.5 221.62,-615.75 146.12,-615.75"/>
</a>
</g>
</g>
<!-- Node4&#45;&gt;Node6 -->
<g id="edge6_Node000006_Node000004" class="edge">
<title>Node4&#45;&gt;Node6</title>
<g id="a_edge6_Node000006_Node000004"><a xlink:title=" ">
<path fill="none" stroke="#63b8ff" d="M183.88,-732.2C183.88,-716.58 183.88,-695.8 183.88,-678.08"/>
<polygon fill="none" stroke="#63b8ff" points="183.88,-678.17 179.88,-672.17 183.88,-666.17 187.88,-672.17 183.88,-678.17"/>
</a>
</g>
<text text-anchor="start" x="186.88" y="-701.5" font-family="Helvetica,sans-Serif" font-size="10.00" fill="grey">+elements</text>
</g>
<!-- Node8 -->
<g id="Node000008" class="node">
<title>Node8</title>
<g id="a_Node000008"><a xlink:title=" ">
<polygon fill="white" stroke="none" points="601.25,-671.12 508.5,-671.12 508.5,-610.12 601.25,-610.12 601.25,-671.12"/>
<text text-anchor="start" x="512.5" y="-657.62" font-family="Helvetica,sans-Serif" font-size="10.00">std::unordered_map</text>
<text text-anchor="start" x="537.62" y="-646.38" font-family="Helvetica,sans-Serif" font-size="10.00">&lt; K, T &gt;</text>
<text text-anchor="start" x="553.38" y="-631.12" font-family="Helvetica,sans-Serif" font-size="10.00"> </text>
<text text-anchor="start" x="553.38" y="-615.88" font-family="Helvetica,sans-Serif" font-size="10.00"> </text>
<polygon fill="#666666" stroke="#666666" points="508.5,-642.62 508.5,-642.62 601.25,-642.62 601.25,-642.62 508.5,-642.62"/>
<polygon fill="#666666" stroke="#666666" points="508.5,-627.38 508.5,-627.38 601.25,-627.38 601.25,-627.38 508.5,-627.38"/>
<polygon fill="none" stroke="#666666" points="508.5,-610.12 508.5,-671.12 601.25,-671.12 601.25,-610.12 508.5,-610.12"/>
</a>
</g>
</g>
<!-- Node4&#45;&gt;Node8 -->
<g id="edge10_Node000008_Node000004" class="edge">
<title>Node4&#45;&gt;Node8</title>
<g id="a_edge10_Node000008_Node000004"><a xlink:title=" ">
<path fill="none" stroke="#63b8ff" d="M190.76,-753.36C215.49,-744.4 302.27,-713.71 376.12,-696.75 427.3,-685 443.49,-696.57 492.88,-678.75 494.77,-678.07 496.68,-677.32 498.58,-676.53"/>
<polygon fill="none" stroke="#63b8ff" points="498.48,-676.57 502.22,-670.4 509.35,-671.48 505.61,-677.65 498.48,-676.57"/>
</a>
</g>
<text text-anchor="start" x="379.12" y="-701.5" font-family="Helvetica,sans-Serif" font-size="10.00" fill="grey">+elements</text>
</g>
<!-- Node5 -->
<g id="Node000005" class="node">
<title>Node5</title>
<g id="a_Node000005"><a xlink:title=" ">
<polygon fill="white" stroke="none" points="341.75,-398.38 132,-398.38 132,-314.88 341.75,-314.88 341.75,-398.38"/>
<text text-anchor="start" x="136" y="-384.88" font-family="Helvetica,sans-Serif" font-size="10.00">std::vector&lt; std::unordered</text>
<text text-anchor="start" x="136" y="-373.62" font-family="Helvetica,sans-Serif" font-size="10.00">_map&lt; GroupID_t, std::unordered</text>
<text text-anchor="start" x="136" y="-362.38" font-family="Helvetica,sans-Serif" font-size="10.00">_map&lt; DetID_t, std::unordered</text>
<text text-anchor="start" x="136" y="-351.12" font-family="Helvetica,sans-Serif" font-size="10.00">_map&lt; MeasID_t, GamR::TK::GateMap &gt; &gt; &gt; &gt;</text>
<text text-anchor="start" x="174" y="-335.88" font-family="Helvetica,sans-Serif" font-size="10.00">+</text>
<text text-anchor="start" x="222" y="-335.88" font-family="Helvetica,sans-Serif" font-size="10.00">elements</text>
<text text-anchor="start" x="235.38" y="-320.62" font-family="Helvetica,sans-Serif" font-size="10.00"> </text>
<polygon fill="#666666" stroke="#666666" points="132,-347.38 132,-347.38 341.75,-347.38 341.75,-347.38 132,-347.38"/>
<polygon fill="#666666" stroke="#666666" points="132,-332.12 132,-332.12 220,-332.12 220,-332.12 132,-332.12"/>
<polygon fill="#666666" stroke="#666666" points="220,-332.12 220,-332.12 341.75,-332.12 341.75,-332.12 220,-332.12"/>
<polygon fill="none" stroke="#666666" points="132,-314.88 132,-398.38 341.75,-398.38 341.75,-314.88 132,-314.88"/>
</a>
</g>
</g>
<!-- Node5&#45;&gt;Node1 -->
<g id="edge4_Node000001_Node000005" class="edge">
<title>Node5&#45;&gt;Node1</title>
<g id="a_edge4_Node000001_Node000005"><a xlink:title=" ">
<path fill="none" stroke="#63b8ff" d="M263.51,-315.04C289.45,-276.89 331.09,-219.14 373.62,-174.5 388.01,-159.4 404.68,-144.36 420.78,-130.83"/>
<polygon fill="none" stroke="#63b8ff" points="420.76,-130.84 422.83,-123.93 430,-123.19 427.93,-130.1 420.76,-130.84"/>
</a>
</g>
<text text-anchor="start" x="376.62" y="-179.25" font-family="Helvetica,sans-Serif" font-size="10.00" fill="grey">+fGates</text>
</g>
<!-- Node6&#45;&gt;Node5 -->
<g id="edge5_Node000005_Node000006" class="edge">
<title>Node6&#45;&gt;Node5</title>
<g id="a_edge5_Node000005_Node000006"><a xlink:title=" ">
<path fill="none" stroke="orange" d="M144.59,-608.13C138.28,-601.08 132.67,-593.1 129.12,-584.5 118.45,-558.61 121.1,-548.32 129.12,-521.5 143.04,-475.02 174.85,-429.51 200.32,-398.29"/>
<polygon fill="orange" stroke="orange" points="141.69,-610.17 151.18,-614.89 146.7,-605.28 141.69,-610.17"/>
</a>
</g>
<text text-anchor="start" x="132.12" y="-572" font-family="Helvetica,sans-Serif" font-size="10.00" fill="grey">&lt; std::unordered_map</text>
<text text-anchor="start" x="132.12" y="-556.75" font-family="Helvetica,sans-Serif" font-size="10.00" fill="grey">  &lt; GroupID_t, std::unordered</text>
<text text-anchor="start" x="132.12" y="-541.5" font-family="Helvetica,sans-Serif" font-size="10.00" fill="grey">  _map&lt; DetID_t, std::unordered</text>
<text text-anchor="start" x="132.12" y="-526.25" font-family="Helvetica,sans-Serif" font-size="10.00" fill="grey">  _map&lt; MeasID_t, GamR::TK::GateMap &gt; &gt; &gt; &gt;</text>
</g>
<!-- Node10 -->
<g id="Node000010" class="node">
<title>Node10</title>
<g id="a_Node000010"><a xlink:title=" ">
<polygon fill="white" stroke="none" points="484,-387.12 359.75,-387.12 359.75,-326.12 484,-326.12 484,-387.12"/>
<text text-anchor="start" x="363.75" y="-373.62" font-family="Helvetica,sans-Serif" font-size="10.00">std::vector&lt; std::pair</text>
<text text-anchor="start" x="363.75" y="-362.38" font-family="Helvetica,sans-Serif" font-size="10.00">&lt; GroupID_t, MeasID_t &gt; &gt;</text>
<text text-anchor="start" x="420.38" y="-347.12" font-family="Helvetica,sans-Serif" font-size="10.00"> </text>
<text text-anchor="start" x="420.38" y="-331.88" font-family="Helvetica,sans-Serif" font-size="10.00"> </text>
<polygon fill="#666666" stroke="#666666" points="359.75,-358.62 359.75,-358.62 484,-358.62 484,-358.62 359.75,-358.62"/>
<polygon fill="#666666" stroke="#666666" points="359.75,-343.38 359.75,-343.38 484,-343.38 484,-343.38 359.75,-343.38"/>
<polygon fill="none" stroke="#666666" points="359.75,-326.12 359.75,-387.12 484,-387.12 484,-326.12 359.75,-326.12"/>
</a>
</g>
</g>
<!-- Node6&#45;&gt;Node10 -->
<g id="edge16_Node000010_Node000006" class="edge">
<title>Node6&#45;&gt;Node10</title>
<g id="a_edge16_Node000010_Node000006"><a xlink:title=" ">
<path fill="none" stroke="orange" d="M232.57,-634.54C267.75,-628.36 313.99,-614.7 342.88,-584.5 363.07,-563.39 352.41,-549.22 361.62,-521.5 377.4,-474.04 397.87,-419.68 410.43,-387.03"/>
<polygon fill="orange" stroke="orange" points="232.39,-631.02 223.06,-636.05 233.49,-637.93 232.39,-631.02"/>
</a>
</g>
<text text-anchor="start" x="364.62" y="-556.75" font-family="Helvetica,sans-Serif" font-size="10.00" fill="grey">&lt; std::pair&lt; GroupID</text>
<text text-anchor="start" x="364.62" y="-541.5" font-family="Helvetica,sans-Serif" font-size="10.00" fill="grey">  _t, MeasID_t &gt; &gt;</text>
</g>
<!-- Node7 -->
<g id="Node000007" class="node">
<title>Node7</title>
<g id="a_Node000007"><a xlink:title=" ">
<polygon fill="white" stroke="none" points="604.62,-394.75 505.12,-394.75 505.12,-318.5 604.62,-318.5 604.62,-394.75"/>
<text text-anchor="start" x="509.12" y="-381.25" font-family="Helvetica,sans-Serif" font-size="10.00">std::unordered_map</text>
<text text-anchor="start" x="509.12" y="-370" font-family="Helvetica,sans-Serif" font-size="10.00">&lt; GroupID_t, size_t &gt;</text>
<text text-anchor="start" x="519.56" y="-354.75" font-family="Helvetica,sans-Serif" font-size="10.00">+</text>
<text text-anchor="start" x="540" y="-354.75" font-family="Helvetica,sans-Serif" font-size="10.00">keys</text>
<text text-anchor="start" x="519.56" y="-339.5" font-family="Helvetica,sans-Serif" font-size="10.00">+</text>
<text text-anchor="start" x="540" y="-339.5" font-family="Helvetica,sans-Serif" font-size="10.00">elements</text>
<text text-anchor="start" x="553.38" y="-324.25" font-family="Helvetica,sans-Serif" font-size="10.00"> </text>
<polygon fill="#666666" stroke="#666666" points="505.12,-366.25 505.12,-366.25 604.62,-366.25 604.62,-366.25 505.12,-366.25"/>
<polygon fill="#666666" stroke="#666666" points="505.12,-335.75 505.12,-335.75 538,-335.75 538,-335.75 505.12,-335.75"/>
<polygon fill="#666666" stroke="#666666" points="538,-335.75 538,-335.75 604.62,-335.75 604.62,-335.75 538,-335.75"/>
<polygon fill="none" stroke="#666666" points="505.12,-318.5 505.12,-394.75 604.62,-394.75 604.62,-318.5 505.12,-318.5"/>
</a>
</g>
</g>
<!-- Node7&#45;&gt;Node1 -->
<g id="edge7_Node000001_Node000007" class="edge">
<title>Node7&#45;&gt;Node1</title>
<g id="a_edge7_Node000001_Node000007"><a xlink:title=" ">
<path fill="none" stroke="#63b8ff" d="M553.83,-318.51C551.98,-281.41 546.89,-223.04 532.88,-174.5 532.31,-172.54 531.71,-170.57 531.07,-168.59"/>
<polygon fill="none" stroke="#63b8ff" points="531.08,-168.6 525.32,-164.26 527.11,-157.28 532.87,-161.62 531.08,-168.6"/>
</a>
</g>
<text text-anchor="start" x="539.68" y="-179.25" font-family="Helvetica,sans-Serif" font-size="10.00" fill="grey">+fInNumAndGates</text>
</g>
<!-- Node8&#45;&gt;Node7 -->
<g id="edge8_Node000007_Node000008" class="edge">
<title>Node8&#45;&gt;Node7</title>
<g id="a_edge8_Node000007_Node000008"><a xlink:title=" ">
<path fill="none" stroke="orange" d="M554.88,-598.88C554.88,-544.03 554.88,-447.25 554.88,-394.48"/>
<polygon fill="orange" stroke="orange" points="551.38,-598.73 554.88,-608.73 558.38,-598.73 551.38,-598.73"/>
</a>
</g>
<text text-anchor="start" x="557.88" y="-549.12" font-family="Helvetica,sans-Serif" font-size="10.00" fill="grey">&lt; GroupID_t, size_t &gt;</text>
</g>
<!-- Node9 -->
<g id="Node000009" class="node">
<title>Node9</title>
<g id="a_Node000009"><a xlink:title=" ">
<polygon fill="white" stroke="none" points="570.25,-781.75 555.5,-781.75 555.5,-732 570.25,-732 570.25,-781.75"/>
<text text-anchor="start" x="559.5" y="-768.25" font-family="Helvetica,sans-Serif" font-size="10.00">K</text>
<text text-anchor="start" x="561.38" y="-753" font-family="Helvetica,sans-Serif" font-size="10.00"> </text>
<text text-anchor="start" x="561.38" y="-737.75" font-family="Helvetica,sans-Serif" font-size="10.00"> </text>
<polygon fill="#666666" stroke="#666666" points="555.5,-764.5 555.5,-764.5 570.25,-764.5 570.25,-764.5 555.5,-764.5"/>
<polygon fill="#666666" stroke="#666666" points="555.5,-749.25 555.5,-749.25 570.25,-749.25 570.25,-749.25 555.5,-749.25"/>
<polygon fill="none" stroke="#666666" points="555.5,-732 555.5,-781.75 570.25,-781.75 570.25,-732 555.5,-732"/>
</a>
</g>
</g>
<!-- Node9&#45;&gt;Node8 -->
<g id="edge9_Node000008_Node000009" class="edge">
<title>Node9&#45;&gt;Node8</title>
<g id="a_edge9_Node000008_Node000009"><a xlink:title=" ">
<path fill="none" stroke="#63b8ff" d="M561.22,-732.2C560.24,-718.17 558.96,-699.99 557.81,-683.6"/>
<polygon fill="none" stroke="#63b8ff" points="557.83,-683.82 553.42,-678.12 556.99,-671.85 561.4,-677.56 557.83,-683.82"/>
</a>
</g>
<text text-anchor="start" x="562.83" y="-701.5" font-family="Helvetica,sans-Serif" font-size="10.00" fill="grey">+keys</text>
</g>
<!-- Node10&#45;&gt;Node1 -->
<g id="edge11_Node000001_Node000010" class="edge">
<title>Node10&#45;&gt;Node1</title>
<g id="a_edge11_Node000001_Node000010"><a xlink:title=" ">
<path fill="none" stroke="#63b8ff" d="M416.82,-326.28C411.69,-289.77 406.57,-225.98 422.62,-174.5 423.49,-171.74 424.46,-168.99 425.52,-166.25"/>
<polygon fill="none" stroke="#63b8ff" points="425.55,-166.2 424.31,-159.09 430.39,-155.22 431.63,-162.32 425.55,-166.2"/>
</a>
</g>
<text text-anchor="start" x="425.62" y="-179.25" font-family="Helvetica,sans-Serif" font-size="10.00" fill="grey">+fReaderMeasurements</text>
</g>
<!-- Node11 -->
<g id="Node000011" class="node">
<title>Node11</title>
<g id="a_Node000011"><a xlink:title=" ">
<polygon fill="white" stroke="none" points="483.88,-678.75 397.88,-678.75 397.88,-602.5 483.88,-602.5 483.88,-678.75"/>
<text text-anchor="start" x="401.88" y="-665.25" font-family="Helvetica,sans-Serif" font-size="10.00">std::pair&lt; GroupID</text>
<text text-anchor="start" x="409" y="-654" font-family="Helvetica,sans-Serif" font-size="10.00">_t, MeasID_t &gt;</text>
<text text-anchor="start" x="405.19" y="-638.75" font-family="Helvetica,sans-Serif" font-size="10.00">+</text>
<text text-anchor="start" x="418.5" y="-638.75" font-family="Helvetica,sans-Serif" font-size="10.00">first_type</text>
<text text-anchor="start" x="405.19" y="-623.5" font-family="Helvetica,sans-Serif" font-size="10.00">+</text>
<text text-anchor="start" x="418.5" y="-623.5" font-family="Helvetica,sans-Serif" font-size="10.00">second_type</text>
<text text-anchor="start" x="439.38" y="-608.25" font-family="Helvetica,sans-Serif" font-size="10.00"> </text>
<polygon fill="#666666" stroke="#666666" points="397.88,-650.25 397.88,-650.25 483.88,-650.25 483.88,-650.25 397.88,-650.25"/>
<polygon fill="#666666" stroke="#666666" points="397.88,-619.75 397.88,-619.75 416.5,-619.75 416.5,-619.75 397.88,-619.75"/>
<polygon fill="#666666" stroke="#666666" points="416.5,-619.75 416.5,-619.75 483.88,-619.75 483.88,-619.75 416.5,-619.75"/>
<polygon fill="none" stroke="#666666" points="397.88,-602.5 397.88,-678.75 483.88,-678.75 483.88,-602.5 397.88,-602.5"/>
</a>
</g>
</g>
<!-- Node11&#45;&gt;Node10 -->
<g id="edge12_Node000010_Node000011" class="edge">
<title>Node11&#45;&gt;Node10</title>
<g id="a_edge12_Node000010_Node000011"><a xlink:title=" ">
<path fill="none" stroke="#63b8ff" d="M453.94,-602.61C455.57,-596.63 456.98,-590.44 457.88,-584.5 467.63,-519.75 450.07,-444.74 436.21,-399.26"/>
<polygon fill="none" stroke="#63b8ff" points="436.22,-399.28 430.6,-394.76 432.61,-387.83 438.23,-392.35 436.22,-399.28"/>
</a>
</g>
<text text-anchor="start" x="463.69" y="-549.12" font-family="Helvetica,sans-Serif" font-size="10.00" fill="grey">+elements</text>
</g>
<!-- Node12 -->
<g id="Node000012" class="node">
<title>Node12</title>
<g id="a_Node000012"><a xlink:title=" ">
<polygon fill="white" stroke="none" points="468.88,-781.75 382.88,-781.75 382.88,-732 468.88,-732 468.88,-781.75"/>
<text text-anchor="start" x="386.88" y="-768.25" font-family="Helvetica,sans-Serif" font-size="10.00">std::pair&lt; T1, T2 &gt;</text>
<text text-anchor="start" x="424.38" y="-753" font-family="Helvetica,sans-Serif" font-size="10.00"> </text>
<text text-anchor="start" x="424.38" y="-737.75" font-family="Helvetica,sans-Serif" font-size="10.00"> </text>
<polygon fill="#666666" stroke="#666666" points="382.88,-764.5 382.88,-764.5 468.88,-764.5 468.88,-764.5 382.88,-764.5"/>
<polygon fill="#666666" stroke="#666666" points="382.88,-749.25 382.88,-749.25 468.88,-749.25 468.88,-749.25 382.88,-749.25"/>
<polygon fill="none" stroke="#666666" points="382.88,-732 382.88,-781.75 468.88,-781.75 468.88,-732 382.88,-732"/>
</a>
</g>
</g>
<!-- Node12&#45;&gt;Node11 -->
<g id="edge13_Node000011_Node000012" class="edge">
<title>Node12&#45;&gt;Node11</title>
<g id="a_edge13_Node000011_Node000012"><a xlink:title=" ">
<path fill="none" stroke="orange" d="M430.46,-720.94C432.23,-707.44 434.26,-691.98 436.06,-678.32"/>
<polygon fill="orange" stroke="orange" points="427.01,-720.33 429.18,-730.7 433.95,-721.24 427.01,-720.33"/>
</a>
</g>
<text text-anchor="start" x="436.38" y="-701.5" font-family="Helvetica,sans-Serif" font-size="10.00" fill="grey">&lt; GroupID_t, MeasID_t &gt;</text>
</g>
<!-- Node13 -->
<g id="Node000013" class="node">
<title>Node13</title>
<g id="a_Node000013"><a xlink:title=" ">
<polygon fill="white" stroke="none" points="398.5,-884.75 379.25,-884.75 379.25,-835 398.5,-835 398.5,-884.75"/>
<text text-anchor="start" x="383.25" y="-871.25" font-family="Helvetica,sans-Serif" font-size="10.00">T1</text>
<text text-anchor="start" x="387.38" y="-856" font-family="Helvetica,sans-Serif" font-size="10.00"> </text>
<text text-anchor="start" x="387.38" y="-840.75" font-family="Helvetica,sans-Serif" font-size="10.00"> </text>
<polygon fill="#666666" stroke="#666666" points="379.25,-867.5 379.25,-867.5 398.5,-867.5 398.5,-867.5 379.25,-867.5"/>
<polygon fill="#666666" stroke="#666666" points="379.25,-852.25 379.25,-852.25 398.5,-852.25 398.5,-852.25 379.25,-852.25"/>
<polygon fill="none" stroke="#666666" points="379.25,-835 379.25,-884.75 398.5,-884.75 398.5,-835 379.25,-835"/>
</a>
</g>
</g>
<!-- Node13&#45;&gt;Node12 -->
<g id="edge14_Node000012_Node000013" class="edge">
<title>Node13&#45;&gt;Node12</title>
<g id="a_edge14_Node000012_Node000013"><a xlink:title=" ">
<path fill="none" stroke="#63b8ff" d="M385.65,-835.15C385.04,-824.06 385.64,-810.88 389.88,-799.75 390.83,-797.23 392.02,-794.76 393.36,-792.35"/>
<polygon fill="none" stroke="#63b8ff" points="393.37,-792.35 393.43,-785.14 400.11,-782.42 400.05,-789.63 393.37,-792.35"/>
</a>
</g>
<text text-anchor="start" x="392.88" y="-804.5" font-family="Helvetica,sans-Serif" font-size="10.00" fill="grey">+first_type</text>
</g>
<!-- Node14 -->
<g id="Node000014" class="node">
<title>Node14</title>
<g id="a_Node000014"><a xlink:title=" ">
<polygon fill="white" stroke="none" points="472.5,-884.75 453.25,-884.75 453.25,-835 472.5,-835 472.5,-884.75"/>
<text text-anchor="start" x="457.25" y="-871.25" font-family="Helvetica,sans-Serif" font-size="10.00">T2</text>
<text text-anchor="start" x="461.38" y="-856" font-family="Helvetica,sans-Serif" font-size="10.00"> </text>
<text text-anchor="start" x="461.38" y="-840.75" font-family="Helvetica,sans-Serif" font-size="10.00"> </text>
<polygon fill="#666666" stroke="#666666" points="453.25,-867.5 453.25,-867.5 472.5,-867.5 472.5,-867.5 453.25,-867.5"/>
<polygon fill="#666666" stroke="#666666" points="453.25,-852.25 453.25,-852.25 472.5,-852.25 472.5,-852.25 453.25,-852.25"/>
<polygon fill="none" stroke="#666666" points="453.25,-835 453.25,-884.75 472.5,-884.75 472.5,-835 453.25,-835"/>
</a>
</g>
</g>
<!-- Node14&#45;&gt;Node12 -->
<g id="edge15_Node000012_Node000014" class="edge">
<title>Node14&#45;&gt;Node12</title>
<g id="a_edge15_Node000012_Node000014"><a xlink:title=" ">
<path fill="none" stroke="#63b8ff" d="M454.2,-835.19C449.65,-822.78 443.99,-807.33 438.93,-793.51"/>
<polygon fill="none" stroke="#63b8ff" points="438.93,-793.52 433.11,-789.26 434.81,-782.25 440.63,-786.51 438.93,-793.52"/>
</a>
</g>
<text text-anchor="start" x="449.59" y="-804.5" font-family="Helvetica,sans-Serif" font-size="10.00" fill="grey">+second_type</text>
</g>
<!-- Node15 -->
<g id="Node000015" class="node">
<title>Node15</title>
<g id="a_Node000015"><a xlink:title=" ">
<polygon fill="white" stroke="none" points="690.88,-381.5 640.88,-381.5 640.88,-331.75 690.88,-331.75 690.88,-381.5"/>
<text text-anchor="start" x="644.88" y="-368" font-family="Helvetica,sans-Serif" font-size="10.00">std::string</text>
<text text-anchor="start" x="664.38" y="-352.75" font-family="Helvetica,sans-Serif" font-size="10.00"> </text>
<text text-anchor="start" x="664.38" y="-337.5" font-family="Helvetica,sans-Serif" font-size="10.00"> </text>
<polygon fill="#666666" stroke="#666666" points="640.88,-364.25 640.88,-364.25 690.88,-364.25 690.88,-364.25 640.88,-364.25"/>
<polygon fill="#666666" stroke="#666666" points="640.88,-349 640.88,-349 690.88,-349 690.88,-349 640.88,-349"/>
<polygon fill="none" stroke="#666666" points="640.88,-331.75 640.88,-381.5 690.88,-381.5 690.88,-331.75 640.88,-331.75"/>
</a>
</g>
</g>
<!-- Node15&#45;&gt;Node1 -->
<g id="edge17_Node000001_Node000015" class="edge">
<title>Node15&#45;&gt;Node1</title>
<g id="a_edge17_Node000001_Node000015"><a xlink:title=" ">
<path fill="none" stroke="#63b8ff" d="M666.53,-331.75C666.39,-294.91 661.51,-223.33 628.88,-174.5 610.99,-147.74 582.8,-126.51 556.31,-110.95"/>
<polygon fill="none" stroke="#63b8ff" points="556.33,-110.96 549.14,-111.5 545.88,-105.06 553.07,-104.53 556.33,-110.96"/>
</a>
</g>
<text text-anchor="start" x="641.82" y="-179.25" font-family="Helvetica,sans-Serif" font-size="10.00" fill="grey">+fPrefix</text>
</g>
<!-- Node16 -->
<g id="Node000016" class="node">
<title>Node16</title>
<g id="a_Node000016"><a xlink:title=" ">
<polygon fill="white" stroke="none" points="710.12,-671.12 625.62,-671.12 625.62,-610.12 710.12,-610.12 710.12,-671.12"/>
<text text-anchor="start" x="629.62" y="-657.62" font-family="Helvetica,sans-Serif" font-size="10.00">std::basic_string&lt;</text>
<text text-anchor="start" x="652.5" y="-646.38" font-family="Helvetica,sans-Serif" font-size="10.00"> Char &gt;</text>
<text text-anchor="start" x="666.38" y="-631.12" font-family="Helvetica,sans-Serif" font-size="10.00"> </text>
<text text-anchor="start" x="666.38" y="-615.88" font-family="Helvetica,sans-Serif" font-size="10.00"> </text>
<polygon fill="#666666" stroke="#666666" points="625.62,-642.62 625.62,-642.62 710.12,-642.62 710.12,-642.62 625.62,-642.62"/>
<polygon fill="#666666" stroke="#666666" points="625.62,-627.38 625.62,-627.38 710.12,-627.38 710.12,-627.38 625.62,-627.38"/>
<polygon fill="none" stroke="#666666" points="625.62,-610.12 625.62,-671.12 710.12,-671.12 710.12,-610.12 625.62,-610.12"/>
</a>
</g>
</g>
<!-- Node16&#45;&gt;Node15 -->
<g id="edge18_Node000015_Node000016" class="edge">
<title>Node16&#45;&gt;Node15</title>
<g id="a_edge18_Node000015_Node000016"><a xlink:title=" ">
<path fill="none" stroke="#63b8ff" d="M667.59,-598.98C667.16,-539.18 666.38,-429.39 666.04,-381.27"/>
<polygon fill="none" stroke="#63b8ff" points="664.08,-598.76 667.66,-608.73 671.08,-598.71 664.08,-598.76"/>
</a>
</g>
</g>
<!-- Node17 -->
<g id="Node000017" class="node">
<title>Node17</title>
<g id="a_Node000017"><a xlink:href="../../d3/d27/class_gam_r_1_1_sort_1_1_sorter.html" target="_top" xlink:title=" ">
<polygon fill="white" stroke="none" points="798.38,-503.5 709.38,-503.5 709.38,-209.75 798.38,-209.75 798.38,-503.5"/>
<text text-anchor="start" x="713.38" y="-490" font-family="Helvetica,sans-Serif" font-size="10.00">GamR::Sort::Sorter</text>
<text text-anchor="start" x="752.38" y="-474.75" font-family="Helvetica,sans-Serif" font-size="10.00"> </text>
<text text-anchor="start" x="715.19" y="-459.5" font-family="Helvetica,sans-Serif" font-size="10.00">+</text>
<text text-anchor="start" x="727" y="-459.5" font-family="Helvetica,sans-Serif" font-size="10.00">Sorter()</text>
<text text-anchor="start" x="715.19" y="-444.25" font-family="Helvetica,sans-Serif" font-size="10.00">+</text>
<text text-anchor="start" x="727" y="-444.25" font-family="Helvetica,sans-Serif" font-size="10.00">~Sorter()</text>
<text text-anchor="start" x="715.19" y="-429" font-family="Helvetica,sans-Serif" font-size="10.00">+</text>
<text text-anchor="start" x="727" y="-429" font-family="Helvetica,sans-Serif" font-size="10.00">Done()</text>
<text text-anchor="start" x="715.19" y="-413.75" font-family="Helvetica,sans-Serif" font-size="10.00">+</text>
<text text-anchor="start" x="727" y="-413.75" font-family="Helvetica,sans-Serif" font-size="10.00">Tick()</text>
<text text-anchor="start" x="715.19" y="-398.5" font-family="Helvetica,sans-Serif" font-size="10.00">+</text>
<text text-anchor="start" x="727" y="-398.5" font-family="Helvetica,sans-Serif" font-size="10.00">SetXsize()</text>
<text text-anchor="start" x="715.19" y="-383.25" font-family="Helvetica,sans-Serif" font-size="10.00">+</text>
<text text-anchor="start" x="727" y="-383.25" font-family="Helvetica,sans-Serif" font-size="10.00">SetYsize()</text>
<text text-anchor="start" x="715.19" y="-368" font-family="Helvetica,sans-Serif" font-size="10.00">+</text>
<text text-anchor="start" x="727" y="-368" font-family="Helvetica,sans-Serif" font-size="10.00">SetZsize()</text>
<text text-anchor="start" x="715.19" y="-352.75" font-family="Helvetica,sans-Serif" font-size="10.00">+</text>
<text text-anchor="start" x="727" y="-352.75" font-family="Helvetica,sans-Serif" font-size="10.00">GetSpectrum()</text>
<text text-anchor="start" x="715.19" y="-337.5" font-family="Helvetica,sans-Serif" font-size="10.00">+</text>
<text text-anchor="start" x="727" y="-337.5" font-family="Helvetica,sans-Serif" font-size="10.00">GetMatrix()</text>
<text text-anchor="start" x="715.19" y="-322.25" font-family="Helvetica,sans-Serif" font-size="10.00">+</text>
<text text-anchor="start" x="727" y="-322.25" font-family="Helvetica,sans-Serif" font-size="10.00">GetCube()</text>
<text text-anchor="start" x="715.19" y="-307" font-family="Helvetica,sans-Serif" font-size="10.00">+</text>
<text text-anchor="start" x="727" y="-307" font-family="Helvetica,sans-Serif" font-size="10.00">Process()</text>
<text text-anchor="start" x="715.19" y="-291.75" font-family="Helvetica,sans-Serif" font-size="10.00">+</text>
<text text-anchor="start" x="727" y="-291.75" font-family="Helvetica,sans-Serif" font-size="10.00">Process()</text>
<text text-anchor="start" x="715.19" y="-276.5" font-family="Helvetica,sans-Serif" font-size="10.00">+</text>
<text text-anchor="start" x="727" y="-276.5" font-family="Helvetica,sans-Serif" font-size="10.00">PrintStatus()</text>
<text text-anchor="start" x="715.19" y="-261.25" font-family="Helvetica,sans-Serif" font-size="10.00">+</text>
<text text-anchor="start" x="727" y="-261.25" font-family="Helvetica,sans-Serif" font-size="10.00">Halt()</text>
<text text-anchor="start" x="715.19" y="-246" font-family="Helvetica,sans-Serif" font-size="10.00">+</text>
<text text-anchor="start" x="727" y="-246" font-family="Helvetica,sans-Serif" font-size="10.00">Write()</text>
<text text-anchor="start" x="715.19" y="-230.75" font-family="Helvetica,sans-Serif" font-size="10.00">+</text>
<text text-anchor="start" x="727" y="-230.75" font-family="Helvetica,sans-Serif" font-size="10.00">WriteObject()</text>
<text text-anchor="start" x="715.19" y="-215.5" font-family="Helvetica,sans-Serif" font-size="10.00">+</text>
<text text-anchor="start" x="727" y="-215.5" font-family="Helvetica,sans-Serif" font-size="10.00">Clear()</text>
<polygon fill="#666666" stroke="#666666" points="709.38,-486.25 709.38,-486.25 798.38,-486.25 798.38,-486.25 709.38,-486.25"/>
<polygon fill="#666666" stroke="#666666" points="709.38,-471 709.38,-471 798.38,-471 798.38,-471 709.38,-471"/>
<polygon fill="none" stroke="#666666" points="709.38,-209.75 709.38,-503.5 798.38,-503.5 798.38,-209.75 709.38,-209.75"/>
</a>
</g>
</g>
<!-- Node17&#45;&gt;Node1 -->
<g id="edge19_Node000001_Node000017" class="edge">
<title>Node17&#45;&gt;Node1</title>
<g id="a_edge19_Node000001_Node000017"><a xlink:title=" ">
<path fill="none" stroke="#63b8ff" d="M709.62,-210.65C701.78,-197.43 692.61,-185.06 681.88,-174.5 647.1,-140.27 597.59,-116.24 557.3,-100.87"/>
<polygon fill="none" stroke="#63b8ff" points="557.22,-100.84 550.2,-102.52 545.96,-96.69 552.97,-95.02 557.22,-100.84"/>
</a>
</g>
<text text-anchor="start" x="698.72" y="-179.25" font-family="Helvetica,sans-Serif" font-size="10.00" fill="grey">+p</text>
</g>
</g>
</svg>
