<?xml version="1.0" encoding="UTF-8" standalone="no"?>
<!DOCTYPE svg PUBLIC "-//W3C//DTD SVG 1.1//EN"
 "http://www.w3.org/Graphics/SVG/1.1/DTD/svg11.dtd">
<!-- Generated by graphviz version 12.2.1 (20241206.2353)
 -->
<!-- Title: GamR::Sort::Type::Matrix Pages: 1 -->
<!--zoomable 857 -->

<svg id="main" version="1.1" xmlns="http://www.w3.org/2000/svg" xmlns:xlink="http://www.w3.org/1999/xlink" xml:space="preserve" onload="init(evt)">

<style type="text/css"><![CDATA[
.node, .edge {opacity: 0.7;}
.node.selected, .edge.selected {opacity: 1;}
.edge:hover path { stroke: red; }
.edge:hover polygon { stroke: red; fill: red; }
]]></style>

<defs>
  <circle id="rim" cx="0" cy="0" r="7"/>
  <circle id="rim2" cx="0" cy="0" r="3.5"/>
  <g id="zoomPlus">
    <use xlink:href="#rim" fill="#404040"><set attributeName="fill" to="#808080" begin="zoomplus.mouseover" end="zoomplus.mouseout"/></use>
    <path d="M-4,0h8M0,-4v8" fill="none" stroke="white" stroke-width="1.5" pointer-events="none"/>
  </g>
  <g id="zoomMin">
    <use xlink:href="#rim" fill="#404040"><set attributeName="fill" to="#808080" begin="zoomminus.mouseover" end="zoomminus.mouseout"/></use>
    <path d="M-4,0h8" fill="none" stroke="white" stroke-width="1.5" pointer-events="none"/>
  </g>
  <g id="arrowUp" transform="translate(30 24)">
    <use xlink:href="#rim"/>
    <path pointer-events="none" fill="none" stroke="white" stroke-width="1.5" d="M0,-3.0v7 M-2.5,-0.5L0,-3.0L2.5,-0.5"/>
  </g>
  <g id="arrowRight" transform="rotate(90) translate(36 -43)">
    <use xlink:href="#rim"/>
    <path pointer-events="none" fill="none" stroke="white" stroke-width="1.5" d="M0,-3.0v7 M-2.5,-0.5L0,-3.0L2.5,-0.5"/>
  </g>
  <g id="arrowDown" transform="rotate(180) translate(-30 -48)">
    <use xlink:href="#rim"/>
    <path pointer-events="none" fill="none" stroke="white" stroke-width="1.5" d="M0,-3.0v7 M-2.5,-0.5L0,-3.0L2.5,-0.5"/>
  </g>
  <g id="arrowLeft" transform="rotate(270) translate(-36 17)">
    <use xlink:href="#rim"/>
    <path pointer-events="none" fill="none" stroke="white" stroke-width="1.5" d="M0,-3.0v7 M-2.5,-0.5L0,-3.0L2.5,-0.5"/>
  </g>
  <g id="resetDef">
    <use xlink:href="#rim2" fill="#404040"><set attributeName="fill" to="#808080" begin="reset.mouseover" end="reset.mouseout"/></use>
  </g>
</defs>
<script type="application/ecmascript">
var viewWidth = 799;
var viewHeight = 857;
var sectionId = 'dynsection-0';
</script>
<script type="application/ecmascript" xlink:href="../../svg.min.js"/>
<svg id="graph" class="graph">
<g id="viewport">
<title>GamR::Sort::Type::Matrix</title>
<!-- Node1 -->
<g id="Node000001" class="node">
<title>Node1</title>
<g id="a_Node000001"><a xlink:title=" ">
<polygon fill="#999999" stroke="none" points="544.12,-156.5 429.62,-156.5 429.62,0 544.12,0 544.12,-156.5"/>
<text text-anchor="start" x="433.62" y="-143" font-family="Helvetica,sans-Serif" font-size="10.00">GamR::Sort::Type::Matrix</text>
<text text-anchor="start" x="445.94" y="-127.75" font-family="Helvetica,sans-Serif" font-size="10.00">+</text>
<text text-anchor="start" x="468.25" y="-127.75" font-family="Helvetica,sans-Serif" font-size="10.00">fGroupI</text>
<text text-anchor="start" x="445.94" y="-112.5" font-family="Helvetica,sans-Serif" font-size="10.00">+</text>
<text text-anchor="start" x="468.25" y="-112.5" font-family="Helvetica,sans-Serif" font-size="10.00">fGroupJ</text>
<text text-anchor="start" x="445.94" y="-97.25" font-family="Helvetica,sans-Serif" font-size="10.00">+</text>
<text text-anchor="start" x="468.25" y="-97.25" font-family="Helvetica,sans-Serif" font-size="10.00">fMeasX</text>
<text text-anchor="start" x="445.94" y="-82" font-family="Helvetica,sans-Serif" font-size="10.00">+</text>
<text text-anchor="start" x="468.25" y="-82" font-family="Helvetica,sans-Serif" font-size="10.00">fMeasY</text>
<text text-anchor="start" x="445.94" y="-66.75" font-family="Helvetica,sans-Serif" font-size="10.00">+</text>
<text text-anchor="start" x="468.25" y="-66.75" font-family="Helvetica,sans-Serif" font-size="10.00">XAxis</text>
<text text-anchor="start" x="445.94" y="-51.5" font-family="Helvetica,sans-Serif" font-size="10.00">+</text>
<text text-anchor="start" x="468.25" y="-51.5" font-family="Helvetica,sans-Serif" font-size="10.00">YAxis</text>
<text text-anchor="start" x="445.94" y="-36.25" font-family="Helvetica,sans-Serif" font-size="10.00">+</text>
<text text-anchor="start" x="468.25" y="-36.25" font-family="Helvetica,sans-Serif" font-size="10.00">GatedSort</text>
<text text-anchor="start" x="445.94" y="-21" font-family="Helvetica,sans-Serif" font-size="10.00">+</text>
<text text-anchor="start" x="468.25" y="-21" font-family="Helvetica,sans-Serif" font-size="10.00">Matrix()</text>
<text text-anchor="start" x="445.94" y="-5.75" font-family="Helvetica,sans-Serif" font-size="10.00">+</text>
<text text-anchor="start" x="468.25" y="-5.75" font-family="Helvetica,sans-Serif" font-size="10.00">operator()()</text>
<polygon fill="#666666" stroke="#666666" points="429.62,-139.25 429.62,-139.25 544.12,-139.25 544.12,-139.25 429.62,-139.25"/>
<polygon fill="#666666" stroke="#666666" points="429.62,-32.5 429.62,-32.5 466.25,-32.5 466.25,-32.5 429.62,-32.5"/>
<polygon fill="#666666" stroke="#666666" points="466.25,-32.5 466.25,-32.5 544.12,-32.5 544.12,-32.5 466.25,-32.5"/>
<polygon fill="none" stroke="#666666" points="429.62,0 429.62,-156.5 544.12,-156.5 544.12,0 429.62,0"/>
</a>
</g>
</g>
<!-- Node2 -->
<g id="Node000002" class="node">
<title>Node2</title>
<g id="a_Node000002"><a xlink:title=" ">
<polygon fill="white" stroke="none" points="113.75,-375.5 0,-375.5 0,-325.75 113.75,-325.75 113.75,-375.5"/>
<text text-anchor="start" x="4" y="-362" font-family="Helvetica,sans-Serif" font-size="10.00">std::shared_ptr&lt; TH2D &gt;</text>
<text text-anchor="start" x="15.38" y="-346.75" font-family="Helvetica,sans-Serif" font-size="10.00">+</text>
<text text-anchor="start" x="36.75" y="-346.75" font-family="Helvetica,sans-Serif" font-size="10.00">ptr</text>
<text text-anchor="start" x="15.38" y="-331.5" font-family="Helvetica,sans-Serif" font-size="10.00">+</text>
<text text-anchor="start" x="36.75" y="-331.5" font-family="Helvetica,sans-Serif" font-size="10.00">operator&#45;&gt;()</text>
<polygon fill="#666666" stroke="#666666" points="0,-358.25 0,-358.25 113.75,-358.25 113.75,-358.25 0,-358.25"/>
<polygon fill="#666666" stroke="#666666" points="0,-343 0,-343 34.75,-343 34.75,-343 0,-343"/>
<polygon fill="#666666" stroke="#666666" points="34.75,-343 34.75,-343 113.75,-343 113.75,-343 34.75,-343"/>
<polygon fill="none" stroke="#666666" points="0,-325.75 0,-375.5 113.75,-375.5 113.75,-325.75 0,-325.75"/>
</a>
</g>
</g>
<!-- Node2&#45;&gt;Node1 -->
<g id="edge1_Node000001_Node000002" class="edge">
<title>Node2&#45;&gt;Node1</title>
<g id="a_edge1_Node000001_Node000002"><a xlink:title=" ">
<path fill="none" stroke="#63b8ff" d="M61.45,-325.98C68.85,-293.91 86.47,-236.84 122.88,-203.75 205.97,-128.22 336.94,-98.2 417.04,-86.49"/>
<polygon fill="none" stroke="#63b8ff" points="417.15,-86.47 422.55,-81.68 429.04,-84.82 423.65,-89.61 417.15,-86.47"/>
</a>
</g>
<text text-anchor="middle" x="178.07" y="-176.25" font-family="Helvetica,sans-Serif" font-size="10.00" fill="grey"> +ptrMatrix</text>
</g>
<!-- Node3 -->
<g id="Node000003" class="node">
<title>Node3</title>
<g id="a_Node000003"><a xlink:title=" ">
<polygon fill="white" stroke="none" points="131,-641.5 36.75,-641.5 36.75,-591.75 131,-591.75 131,-641.5"/>
<text text-anchor="start" x="40.75" y="-628" font-family="Helvetica,sans-Serif" font-size="10.00">std::shared_ptr&lt; T &gt;</text>
<text text-anchor="start" x="82.38" y="-612.75" font-family="Helvetica,sans-Serif" font-size="10.00"> </text>
<text text-anchor="start" x="47.25" y="-597.5" font-family="Helvetica,sans-Serif" font-size="10.00">+</text>
<text text-anchor="start" x="63.75" y="-597.5" font-family="Helvetica,sans-Serif" font-size="10.00">operator&#45;&gt;()</text>
<polygon fill="#666666" stroke="#666666" points="36.75,-624.25 36.75,-624.25 131,-624.25 131,-624.25 36.75,-624.25"/>
<polygon fill="#666666" stroke="#666666" points="36.75,-609 36.75,-609 131,-609 131,-609 36.75,-609"/>
<polygon fill="none" stroke="#666666" points="36.75,-591.75 36.75,-641.5 131,-641.5 131,-591.75 36.75,-591.75"/>
</a>
</g>
</g>
<!-- Node3&#45;&gt;Node2 -->
<g id="edge2_Node000002_Node000003" class="edge">
<title>Node3&#45;&gt;Node2</title>
<g id="a_edge2_Node000002_Node000003"><a xlink:title=" ">
<path fill="none" stroke="orange" d="M76.1,-580.91C74.78,-574.16 73.55,-567.13 72.62,-560.5 63.33,-493.69 59.23,-414.03 57.68,-375.22"/>
<polygon fill="orange" stroke="orange" points="72.6,-581.28 78.04,-590.38 79.46,-579.88 72.6,-581.28"/>
</a>
</g>
<text text-anchor="middle" x="94.75" y="-534.12" font-family="Helvetica,sans-Serif" font-size="10.00" fill="grey"> &lt; TH2D &gt;</text>
</g>
<!-- Node4 -->
<g id="Node000004" class="node">
<title>Node4</title>
<g id="a_Node000004"><a xlink:title=" ">
<polygon fill="white" stroke="none" points="207.88,-751.75 193.88,-751.75 193.88,-702 207.88,-702 207.88,-751.75"/>
<text text-anchor="start" x="197.88" y="-738.25" font-family="Helvetica,sans-Serif" font-size="10.00">T</text>
<text text-anchor="start" x="199.38" y="-723" font-family="Helvetica,sans-Serif" font-size="10.00"> </text>
<text text-anchor="start" x="199.38" y="-707.75" font-family="Helvetica,sans-Serif" font-size="10.00"> </text>
<polygon fill="#666666" stroke="#666666" points="193.88,-734.5 193.88,-734.5 207.88,-734.5 207.88,-734.5 193.88,-734.5"/>
<polygon fill="#666666" stroke="#666666" points="193.88,-719.25 193.88,-719.25 207.88,-719.25 207.88,-719.25 193.88,-719.25"/>
<polygon fill="none" stroke="#666666" points="193.88,-702 193.88,-751.75 207.88,-751.75 207.88,-702 193.88,-702"/>
</a>
</g>
</g>
<!-- Node4&#45;&gt;Node3 -->
<g id="edge3_Node000003_Node000004" class="edge">
<title>Node4&#45;&gt;Node3</title>
<g id="a_edge3_Node000003_Node000004"><a xlink:title=" ">
<path fill="none" stroke="#63b8ff" d="M193.91,-719.43C179.45,-706.05 145.33,-674.49 118.89,-650.02"/>
<polygon fill="none" stroke="#63b8ff" points="119.02,-650.14 111.9,-649 110.21,-641.99 117.33,-643.13 119.02,-650.14"/>
</a>
</g>
<text text-anchor="middle" x="162.6" y="-674.5" font-family="Helvetica,sans-Serif" font-size="10.00" fill="grey"> +ptr</text>
</g>
<!-- Node6 -->
<g id="Node000006" class="node">
<title>Node6</title>
<g id="a_Node000006"><a xlink:title=" ">
<polygon fill="white" stroke="none" points="238.62,-641.5 163.12,-641.5 163.12,-591.75 238.62,-591.75 238.62,-641.5"/>
<text text-anchor="start" x="167.12" y="-628" font-family="Helvetica,sans-Serif" font-size="10.00">std::vector&lt; T &gt;</text>
<text text-anchor="start" x="199.38" y="-612.75" font-family="Helvetica,sans-Serif" font-size="10.00"> </text>
<text text-anchor="start" x="199.38" y="-597.5" font-family="Helvetica,sans-Serif" font-size="10.00"> </text>
<polygon fill="#666666" stroke="#666666" points="163.12,-624.25 163.12,-624.25 238.62,-624.25 238.62,-624.25 163.12,-624.25"/>
<polygon fill="#666666" stroke="#666666" points="163.12,-609 163.12,-609 238.62,-609 238.62,-609 163.12,-609"/>
<polygon fill="none" stroke="#666666" points="163.12,-591.75 163.12,-641.5 238.62,-641.5 238.62,-591.75 163.12,-591.75"/>
</a>
</g>
</g>
<!-- Node4&#45;&gt;Node6 -->
<g id="edge6_Node000006_Node000004" class="edge">
<title>Node4&#45;&gt;Node6</title>
<g id="a_edge6_Node000006_Node000004"><a xlink:title=" ">
<path fill="none" stroke="#63b8ff" d="M200.88,-702.12C200.88,-688.02 200.88,-669.85 200.88,-653.98"/>
<polygon fill="none" stroke="#63b8ff" points="200.88,-654.23 196.88,-648.23 200.88,-642.23 204.88,-648.23 200.88,-654.23"/>
</a>
</g>
<text text-anchor="middle" x="224.88" y="-674.5" font-family="Helvetica,sans-Serif" font-size="10.00" fill="grey"> +elements</text>
</g>
<!-- Node8 -->
<g id="Node000008" class="node">
<title>Node8</title>
<g id="a_Node000008"><a xlink:title=" ">
<polygon fill="white" stroke="none" points="597.25,-647.12 504.5,-647.12 504.5,-586.12 597.25,-586.12 597.25,-647.12"/>
<text text-anchor="start" x="508.5" y="-633.62" font-family="Helvetica,sans-Serif" font-size="10.00">std::unordered_map</text>
<text text-anchor="start" x="533.62" y="-622.38" font-family="Helvetica,sans-Serif" font-size="10.00">&lt; K, T &gt;</text>
<text text-anchor="start" x="549.38" y="-607.12" font-family="Helvetica,sans-Serif" font-size="10.00"> </text>
<text text-anchor="start" x="549.38" y="-591.88" font-family="Helvetica,sans-Serif" font-size="10.00"> </text>
<polygon fill="#666666" stroke="#666666" points="504.5,-618.62 504.5,-618.62 597.25,-618.62 597.25,-618.62 504.5,-618.62"/>
<polygon fill="#666666" stroke="#666666" points="504.5,-603.38 504.5,-603.38 597.25,-603.38 597.25,-603.38 504.5,-603.38"/>
<polygon fill="none" stroke="#666666" points="504.5,-586.12 504.5,-647.12 597.25,-647.12 597.25,-586.12 504.5,-586.12"/>
</a>
</g>
</g>
<!-- Node4&#45;&gt;Node8 -->
<g id="edge10_Node000008_Node000004" class="edge">
<title>Node4&#45;&gt;Node8</title>
<g id="a_edge10_Node000008_Node000004"><a xlink:title=" ">
<path fill="none" stroke="#63b8ff" d="M207.87,-723.41C231.49,-715.16 310.64,-688.17 377.88,-672.75 427.02,-661.48 442.57,-672.18 489.88,-654.75 491.66,-654.09 493.44,-653.38 495.23,-652.63"/>
<polygon fill="none" stroke="#63b8ff" points="495.25,-652.61 498.95,-646.42 506.09,-647.46 502.39,-653.65 495.25,-652.61"/>
</a>
</g>
<text text-anchor="middle" x="401.88" y="-674.5" font-family="Helvetica,sans-Serif" font-size="10.00" fill="grey"> +elements</text>
</g>
<!-- Node5 -->
<g id="Node000005" class="node">
<title>Node5</title>
<g id="a_Node000005"><a xlink:title=" ">
<polygon fill="white" stroke="none" points="341.75,-400 132,-400 132,-301.25 341.75,-301.25 341.75,-400"/>
<text text-anchor="start" x="136" y="-386.5" font-family="Helvetica,sans-Serif" font-size="10.00">std::vector&lt; std::unordered</text>
<text text-anchor="start" x="136" y="-375.25" font-family="Helvetica,sans-Serif" font-size="10.00">_map&lt; GroupID_t, std::unordered</text>
<text text-anchor="start" x="136" y="-364" font-family="Helvetica,sans-Serif" font-size="10.00">_map&lt; DetID_t, std::unordered</text>
<text text-anchor="start" x="136" y="-352.75" font-family="Helvetica,sans-Serif" font-size="10.00">_map&lt; MeasID_t, GamR::TK::GateMap &gt; &gt; &gt; &gt;</text>
<text text-anchor="start" x="174" y="-337.5" font-family="Helvetica,sans-Serif" font-size="10.00">+</text>
<text text-anchor="start" x="222" y="-337.5" font-family="Helvetica,sans-Serif" font-size="10.00">elements</text>
<text text-anchor="start" x="174" y="-322.25" font-family="Helvetica,sans-Serif" font-size="10.00">+</text>
<text text-anchor="start" x="222" y="-322.25" font-family="Helvetica,sans-Serif" font-size="10.00">elements</text>
<text text-anchor="start" x="235.38" y="-307" font-family="Helvetica,sans-Serif" font-size="10.00"> </text>
<polygon fill="#666666" stroke="#666666" points="132,-349 132,-349 341.75,-349 341.75,-349 132,-349"/>
<polygon fill="#666666" stroke="#666666" points="132,-318.5 132,-318.5 220,-318.5 220,-318.5 132,-318.5"/>
<polygon fill="#666666" stroke="#666666" points="220,-318.5 220,-318.5 341.75,-318.5 341.75,-318.5 220,-318.5"/>
<polygon fill="none" stroke="#666666" points="132,-301.25 132,-400 341.75,-400 341.75,-301.25 132,-301.25"/>
</a>
</g>
</g>
<!-- Node5&#45;&gt;Node1 -->
<g id="edge4_Node000001_Node000005" class="edge">
<title>Node5&#45;&gt;Node1</title>
<g id="a_edge4_Node000001_Node000005"><a xlink:title=" ">
<path fill="none" stroke="#63b8ff" d="M270.38,-301.55C296.91,-264.96 335.96,-214.3 375.38,-174.5 389.19,-160.55 404.8,-146.36 419.87,-133.35"/>
<polygon fill="none" stroke="#63b8ff" points="419.86,-133.36 421.82,-126.42 428.98,-125.56 427.02,-132.5 419.86,-133.36"/>
</a>
</g>
<text text-anchor="middle" x="394.12" y="-176.25" font-family="Helvetica,sans-Serif" font-size="10.00" fill="grey"> +fGates</text>
</g>
<!-- Node6&#45;&gt;Node5 -->
<g id="edge5_Node000005_Node000006" class="edge">
<title>Node6&#45;&gt;Node5</title>
<g id="a_edge5_Node000005_Node000006"><a xlink:title=" ">
<path fill="none" stroke="orange" d="M156.7,-584.07C149.96,-577.12 143.98,-569.2 140.12,-560.5 132.03,-542.21 134.85,-534.79 140.12,-515.5 151.66,-473.27 177.17,-430.86 199.1,-399.76"/>
<polygon fill="orange" stroke="orange" points="154.09,-586.42 163.77,-590.73 158.89,-581.33 154.09,-586.42"/>
</a>
</g>
<text text-anchor="start" x="140.12" y="-551" font-family="Helvetica,sans-Serif" font-size="10.00" fill="grey"> &lt; std::unordered_map</text>
<text text-anchor="start" x="140.12" y="-539.75" font-family="Helvetica,sans-Serif" font-size="10.00" fill="grey">&lt; GroupID_t, std::unordered</text>
<text text-anchor="start" x="140.12" y="-528.5" font-family="Helvetica,sans-Serif" font-size="10.00" fill="grey">_map&lt; DetID_t, std::unordered</text>
<text text-anchor="middle" x="241" y="-517.25" font-family="Helvetica,sans-Serif" font-size="10.00" fill="grey">_map&lt; MeasID_t, GamR::TK::GateMap &gt; &gt; &gt; &gt;</text>
</g>
<!-- Node10 -->
<g id="Node000010" class="node">
<title>Node10</title>
<g id="a_Node000010"><a xlink:title=" ">
<polygon fill="white" stroke="none" points="484,-381.12 359.75,-381.12 359.75,-320.12 484,-320.12 484,-381.12"/>
<text text-anchor="start" x="363.75" y="-367.62" font-family="Helvetica,sans-Serif" font-size="10.00">std::vector&lt; std::pair</text>
<text text-anchor="start" x="363.75" y="-356.38" font-family="Helvetica,sans-Serif" font-size="10.00">&lt; GroupID_t, MeasID_t &gt; &gt;</text>
<text text-anchor="start" x="420.38" y="-341.12" font-family="Helvetica,sans-Serif" font-size="10.00"> </text>
<text text-anchor="start" x="420.38" y="-325.88" font-family="Helvetica,sans-Serif" font-size="10.00"> </text>
<polygon fill="#666666" stroke="#666666" points="359.75,-352.62 359.75,-352.62 484,-352.62 484,-352.62 359.75,-352.62"/>
<polygon fill="#666666" stroke="#666666" points="359.75,-337.38 359.75,-337.38 484,-337.38 484,-337.38 359.75,-337.38"/>
<polygon fill="none" stroke="#666666" points="359.75,-320.12 359.75,-381.12 484,-381.12 484,-320.12 359.75,-320.12"/>
</a>
</g>
</g>
<!-- Node6&#45;&gt;Node10 -->
<g id="edge16_Node000010_Node000006" class="edge">
<title>Node6&#45;&gt;Node10</title>
<g id="a_edge16_Node000010_Node000006"><a xlink:title=" ">
<path fill="none" stroke="orange" d="M249.58,-607.01C279.65,-599.4 317.08,-585.47 341.88,-560.5 345.21,-557.14 389.88,-437.71 410.98,-380.98"/>
<polygon fill="orange" stroke="orange" points="248.87,-603.58 239.94,-609.28 250.47,-610.39 248.87,-603.58"/>
</a>
</g>
<text text-anchor="start" x="359.09" y="-539.75" font-family="Helvetica,sans-Serif" font-size="10.00" fill="grey"> &lt; std::pair&lt; GroupID</text>
<text text-anchor="middle" x="403.34" y="-528.5" font-family="Helvetica,sans-Serif" font-size="10.00" fill="grey">_t, MeasID_t &gt; &gt;</text>
</g>
<!-- Node7 -->
<g id="Node000007" class="node">
<title>Node7</title>
<g id="a_Node000007"><a xlink:title=" ">
<polygon fill="white" stroke="none" points="601.62,-388.75 502.12,-388.75 502.12,-312.5 601.62,-312.5 601.62,-388.75"/>
<text text-anchor="start" x="506.12" y="-375.25" font-family="Helvetica,sans-Serif" font-size="10.00">std::unordered_map</text>
<text text-anchor="start" x="506.12" y="-364" font-family="Helvetica,sans-Serif" font-size="10.00">&lt; GroupID_t, size_t &gt;</text>
<text text-anchor="start" x="516.56" y="-348.75" font-family="Helvetica,sans-Serif" font-size="10.00">+</text>
<text text-anchor="start" x="537" y="-348.75" font-family="Helvetica,sans-Serif" font-size="10.00">keys</text>
<text text-anchor="start" x="516.56" y="-333.5" font-family="Helvetica,sans-Serif" font-size="10.00">+</text>
<text text-anchor="start" x="537" y="-333.5" font-family="Helvetica,sans-Serif" font-size="10.00">elements</text>
<text text-anchor="start" x="550.38" y="-318.25" font-family="Helvetica,sans-Serif" font-size="10.00"> </text>
<polygon fill="#666666" stroke="#666666" points="502.12,-360.25 502.12,-360.25 601.62,-360.25 601.62,-360.25 502.12,-360.25"/>
<polygon fill="#666666" stroke="#666666" points="502.12,-329.75 502.12,-329.75 535,-329.75 535,-329.75 502.12,-329.75"/>
<polygon fill="#666666" stroke="#666666" points="535,-329.75 535,-329.75 601.62,-329.75 601.62,-329.75 535,-329.75"/>
<polygon fill="none" stroke="#666666" points="502.12,-312.5 502.12,-388.75 601.62,-388.75 601.62,-312.5 502.12,-312.5"/>
</a>
</g>
</g>
<!-- Node7&#45;&gt;Node1 -->
<g id="edge7_Node000001_Node000007" class="edge">
<title>Node7&#45;&gt;Node1</title>
<g id="a_edge7_Node000001_Node000007"><a xlink:title=" ">
<path fill="none" stroke="#63b8ff" d="M550.44,-312.77C548.3,-276.89 543,-221.1 529.88,-174.5 529.32,-172.52 528.73,-170.53 528.1,-168.54"/>
<polygon fill="none" stroke="#63b8ff" points="528.08,-168.46 522.36,-164.07 524.22,-157.1 529.94,-161.49 528.08,-168.46"/>
</a>
</g>
<text text-anchor="middle" x="574.33" y="-176.25" font-family="Helvetica,sans-Serif" font-size="10.00" fill="grey"> +fInNumAndGates</text>
</g>
<!-- Node8&#45;&gt;Node7 -->
<g id="edge8_Node000007_Node000008" class="edge">
<title>Node8&#45;&gt;Node7</title>
<g id="a_edge8_Node000007_Node000008"><a xlink:title=" ">
<path fill="none" stroke="orange" d="M551.03,-575.17C551.22,-524.33 551.55,-437.79 551.73,-388.63"/>
<polygon fill="orange" stroke="orange" points="547.53,-574.84 550.99,-584.85 554.53,-574.86 547.53,-574.84"/>
</a>
</g>
<text text-anchor="middle" x="598.1" y="-534.12" font-family="Helvetica,sans-Serif" font-size="10.00" fill="grey"> &lt; GroupID_t, size_t &gt;</text>
</g>
<!-- Node9 -->
<g id="Node000009" class="node">
<title>Node9</title>
<g id="a_Node000009"><a xlink:title=" ">
<polygon fill="white" stroke="none" points="565.25,-751.75 550.5,-751.75 550.5,-702 565.25,-702 565.25,-751.75"/>
<text text-anchor="start" x="554.5" y="-738.25" font-family="Helvetica,sans-Serif" font-size="10.00">K</text>
<text text-anchor="start" x="556.38" y="-723" font-family="Helvetica,sans-Serif" font-size="10.00"> </text>
<text text-anchor="start" x="556.38" y="-707.75" font-family="Helvetica,sans-Serif" font-size="10.00"> </text>
<polygon fill="#666666" stroke="#666666" points="550.5,-734.5 550.5,-734.5 565.25,-734.5 565.25,-734.5 550.5,-734.5"/>
<polygon fill="#666666" stroke="#666666" points="550.5,-719.25 550.5,-719.25 565.25,-719.25 565.25,-719.25 550.5,-719.25"/>
<polygon fill="none" stroke="#666666" points="550.5,-702 550.5,-751.75 565.25,-751.75 565.25,-702 550.5,-702"/>
</a>
</g>
</g>
<!-- Node9&#45;&gt;Node8 -->
<g id="edge9_Node000008_Node000009" class="edge">
<title>Node9&#45;&gt;Node8</title>
<g id="a_edge9_Node000008_Node000009"><a xlink:title=" ">
<path fill="none" stroke="#63b8ff" d="M556.34,-702.12C555.54,-689.73 554.53,-674.2 553.61,-659.85"/>
<polygon fill="none" stroke="#63b8ff" points="553.62,-660 549.24,-654.27 552.84,-648.02 557.22,-653.75 553.62,-660"/>
</a>
</g>
<text text-anchor="middle" x="569.25" y="-674.5" font-family="Helvetica,sans-Serif" font-size="10.00" fill="grey"> +keys</text>
</g>
<!-- Node10&#45;&gt;Node1 -->
<g id="edge11_Node000001_Node000010" class="edge">
<title>Node10&#45;&gt;Node1</title>
<g id="a_edge11_Node000001_Node000010"><a xlink:title=" ">
<path fill="none" stroke="#63b8ff" d="M415.91,-320.29C409.94,-284.82 403.69,-223.75 419.38,-174.5 420.71,-170.32 422.3,-166.16 424.09,-162.06"/>
<polygon fill="none" stroke="#63b8ff" points="424,-162.25 423.03,-155.1 429.25,-151.46 430.22,-158.6 424,-162.25"/>
</a>
</g>
<text text-anchor="middle" x="472.62" y="-176.25" font-family="Helvetica,sans-Serif" font-size="10.00" fill="grey"> +fReaderMeasurements</text>
</g>
<!-- Node11 -->
<g id="Node000011" class="node">
<title>Node11</title>
<g id="a_Node000011"><a xlink:title=" ">
<polygon fill="white" stroke="none" points="480.88,-654.75 394.88,-654.75 394.88,-578.5 480.88,-578.5 480.88,-654.75"/>
<text text-anchor="start" x="398.88" y="-641.25" font-family="Helvetica,sans-Serif" font-size="10.00">std::pair&lt; GroupID</text>
<text text-anchor="start" x="406" y="-630" font-family="Helvetica,sans-Serif" font-size="10.00">_t, MeasID_t &gt;</text>
<text text-anchor="start" x="402.19" y="-614.75" font-family="Helvetica,sans-Serif" font-size="10.00">+</text>
<text text-anchor="start" x="415.5" y="-614.75" font-family="Helvetica,sans-Serif" font-size="10.00">first_type</text>
<text text-anchor="start" x="402.19" y="-599.5" font-family="Helvetica,sans-Serif" font-size="10.00">+</text>
<text text-anchor="start" x="415.5" y="-599.5" font-family="Helvetica,sans-Serif" font-size="10.00">second_type</text>
<text text-anchor="start" x="436.38" y="-584.25" font-family="Helvetica,sans-Serif" font-size="10.00"> </text>
<polygon fill="#666666" stroke="#666666" points="394.88,-626.25 394.88,-626.25 480.88,-626.25 480.88,-626.25 394.88,-626.25"/>
<polygon fill="#666666" stroke="#666666" points="394.88,-595.75 394.88,-595.75 413.5,-595.75 413.5,-595.75 394.88,-595.75"/>
<polygon fill="#666666" stroke="#666666" points="413.5,-595.75 413.5,-595.75 480.88,-595.75 480.88,-595.75 413.5,-595.75"/>
<polygon fill="none" stroke="#666666" points="394.88,-578.5 394.88,-654.75 480.88,-654.75 480.88,-578.5 394.88,-578.5"/>
</a>
</g>
</g>
<!-- Node11&#45;&gt;Node10 -->
<g id="edge12_Node000010_Node000011" class="edge">
<title>Node11&#45;&gt;Node10</title>
<g id="a_edge12_Node000010_Node000011"><a xlink:title=" ">
<path fill="none" stroke="#63b8ff" d="M450.17,-578.57C451.71,-572.59 453.03,-566.42 453.88,-560.5 462.12,-502.53 447.64,-435.65 435.57,-393.51"/>
<polygon fill="none" stroke="#63b8ff" points="435.53,-393.36 429.99,-388.75 432.11,-381.86 437.66,-386.47 435.53,-393.36"/>
</a>
</g>
<text text-anchor="middle" x="480.29" y="-534.12" font-family="Helvetica,sans-Serif" font-size="10.00" fill="grey"> +elements</text>
</g>
<!-- Node12 -->
<g id="Node000012" class="node">
<title>Node12</title>
<g id="a_Node000012"><a xlink:title=" ">
<polygon fill="white" stroke="none" points="467.88,-751.75 381.88,-751.75 381.88,-702 467.88,-702 467.88,-751.75"/>
<text text-anchor="start" x="385.88" y="-738.25" font-family="Helvetica,sans-Serif" font-size="10.00">std::pair&lt; T1, T2 &gt;</text>
<text text-anchor="start" x="423.38" y="-723" font-family="Helvetica,sans-Serif" font-size="10.00"> </text>
<text text-anchor="start" x="423.38" y="-707.75" font-family="Helvetica,sans-Serif" font-size="10.00"> </text>
<polygon fill="#666666" stroke="#666666" points="381.88,-734.5 381.88,-734.5 467.88,-734.5 467.88,-734.5 381.88,-734.5"/>
<polygon fill="#666666" stroke="#666666" points="381.88,-719.25 381.88,-719.25 467.88,-719.25 467.88,-719.25 381.88,-719.25"/>
<polygon fill="none" stroke="#666666" points="381.88,-702 381.88,-751.75 467.88,-751.75 467.88,-702 381.88,-702"/>
</a>
</g>
</g>
<!-- Node12&#45;&gt;Node11 -->
<g id="edge13_Node000011_Node000012" class="edge">
<title>Node12&#45;&gt;Node11</title>
<g id="a_edge13_Node000011_Node000012"><a xlink:title=" ">
<path fill="none" stroke="orange" d="M429.06,-691.01C430.46,-679.36 432.03,-666.33 433.44,-654.52"/>
<polygon fill="orange" stroke="orange" points="425.63,-690.27 427.91,-700.62 432.58,-691.11 425.63,-690.27"/>
</a>
</g>
<text text-anchor="middle" x="486.11" y="-674.5" font-family="Helvetica,sans-Serif" font-size="10.00" fill="grey"> &lt; GroupID_t, MeasID_t &gt;</text>
</g>
<!-- Node13 -->
<g id="Node000013" class="node">
<title>Node13</title>
<g id="a_Node000013"><a xlink:title=" ">
<polygon fill="white" stroke="none" points="399.5,-848.75 380.25,-848.75 380.25,-799 399.5,-799 399.5,-848.75"/>
<text text-anchor="start" x="384.25" y="-835.25" font-family="Helvetica,sans-Serif" font-size="10.00">T1</text>
<text text-anchor="start" x="388.38" y="-820" font-family="Helvetica,sans-Serif" font-size="10.00"> </text>
<text text-anchor="start" x="388.38" y="-804.75" font-family="Helvetica,sans-Serif" font-size="10.00"> </text>
<polygon fill="#666666" stroke="#666666" points="380.25,-831.5 380.25,-831.5 399.5,-831.5 399.5,-831.5 380.25,-831.5"/>
<polygon fill="#666666" stroke="#666666" points="380.25,-816.25 380.25,-816.25 399.5,-816.25 399.5,-816.25 380.25,-816.25"/>
<polygon fill="none" stroke="#666666" points="380.25,-799 380.25,-848.75 399.5,-848.75 399.5,-799 380.25,-799"/>
</a>
</g>
</g>
<!-- Node13&#45;&gt;Node12 -->
<g id="edge14_Node000012_Node000013" class="edge">
<title>Node13&#45;&gt;Node12</title>
<g id="a_edge14_Node000012_Node000013"><a xlink:title=" ">
<path fill="none" stroke="#63b8ff" d="M386.9,-799.26C386.56,-789.82 387.24,-779.02 390.62,-769.75 391.56,-767.2 392.71,-764.69 394.03,-762.25"/>
<polygon fill="none" stroke="#63b8ff" points="394.09,-762.16 394.04,-754.95 400.67,-752.13 400.73,-759.34 394.09,-762.16"/>
</a>
</g>
<text text-anchor="middle" x="414.25" y="-771.5" font-family="Helvetica,sans-Serif" font-size="10.00" fill="grey"> +first_type</text>
</g>
<!-- Node14 -->
<g id="Node000014" class="node">
<title>Node14</title>
<g id="a_Node000014"><a xlink:title=" ">
<polygon fill="white" stroke="none" points="469.5,-848.75 450.25,-848.75 450.25,-799 469.5,-799 469.5,-848.75"/>
<text text-anchor="start" x="454.25" y="-835.25" font-family="Helvetica,sans-Serif" font-size="10.00">T2</text>
<text text-anchor="start" x="458.38" y="-820" font-family="Helvetica,sans-Serif" font-size="10.00"> </text>
<text text-anchor="start" x="458.38" y="-804.75" font-family="Helvetica,sans-Serif" font-size="10.00"> </text>
<polygon fill="#666666" stroke="#666666" points="450.25,-831.5 450.25,-831.5 469.5,-831.5 469.5,-831.5 450.25,-831.5"/>
<polygon fill="#666666" stroke="#666666" points="450.25,-816.25 450.25,-816.25 469.5,-816.25 469.5,-816.25 450.25,-816.25"/>
<polygon fill="none" stroke="#666666" points="450.25,-799 450.25,-848.75 469.5,-848.75 469.5,-799 450.25,-799"/>
</a>
</g>
</g>
<!-- Node14&#45;&gt;Node12 -->
<g id="edge15_Node000012_Node000014" class="edge">
<title>Node14&#45;&gt;Node12</title>
<g id="a_edge15_Node000012_Node000014"><a xlink:title=" ">
<path fill="none" stroke="#63b8ff" d="M451.22,-799.39C447.26,-788.63 442.47,-775.63 438.07,-763.68"/>
<polygon fill="none" stroke="#63b8ff" points="438.13,-763.85 432.3,-759.61 433.98,-752.59 439.81,-756.84 438.13,-763.85"/>
</a>
</g>
<text text-anchor="middle" x="474.92" y="-771.5" font-family="Helvetica,sans-Serif" font-size="10.00" fill="grey"> +second_type</text>
</g>
<!-- Node15 -->
<g id="Node000015" class="node">
<title>Node15</title>
<g id="a_Node000015"><a xlink:title=" ">
<polygon fill="white" stroke="none" points="683.88,-375.5 633.88,-375.5 633.88,-325.75 683.88,-325.75 683.88,-375.5"/>
<text text-anchor="start" x="637.88" y="-362" font-family="Helvetica,sans-Serif" font-size="10.00">std::string</text>
<text text-anchor="start" x="657.38" y="-346.75" font-family="Helvetica,sans-Serif" font-size="10.00"> </text>
<text text-anchor="start" x="657.38" y="-331.5" font-family="Helvetica,sans-Serif" font-size="10.00"> </text>
<polygon fill="#666666" stroke="#666666" points="633.88,-358.25 633.88,-358.25 683.88,-358.25 683.88,-358.25 633.88,-358.25"/>
<polygon fill="#666666" stroke="#666666" points="633.88,-343 633.88,-343 683.88,-343 683.88,-343 633.88,-343"/>
<polygon fill="none" stroke="#666666" points="633.88,-325.75 633.88,-375.5 683.88,-375.5 683.88,-325.75 633.88,-325.75"/>
</a>
</g>
</g>
<!-- Node15&#45;&gt;Node1 -->
<g id="edge17_Node000001_Node000015" class="edge">
<title>Node15&#45;&gt;Node1</title>
<g id="a_edge17_Node000001_Node000015"><a xlink:title=" ">
<path fill="none" stroke="#63b8ff" d="M658.82,-326.04C657.66,-290.35 651.14,-221.79 619.88,-174.5 603.64,-149.95 578.76,-129.67 554.89,-114.22"/>
<polygon fill="none" stroke="#63b8ff" points="554.98,-114.28 547.77,-114.51 544.79,-107.94 552,-107.71 554.98,-114.28"/>
</a>
</g>
<text text-anchor="middle" x="642.55" y="-176.25" font-family="Helvetica,sans-Serif" font-size="10.00" fill="grey"> +fPrefix</text>
</g>
<!-- Node16 -->
<g id="Node000016" class="node">
<title>Node16</title>
<g id="a_Node000016"><a xlink:title=" ">
<polygon fill="white" stroke="none" points="702.12,-647.12 617.62,-647.12 617.62,-586.12 702.12,-586.12 702.12,-647.12"/>
<text text-anchor="start" x="621.62" y="-633.62" font-family="Helvetica,sans-Serif" font-size="10.00">std::basic_string&lt;</text>
<text text-anchor="start" x="644.5" y="-622.38" font-family="Helvetica,sans-Serif" font-size="10.00"> Char &gt;</text>
<text text-anchor="start" x="658.38" y="-607.12" font-family="Helvetica,sans-Serif" font-size="10.00"> </text>
<text text-anchor="start" x="658.38" y="-591.88" font-family="Helvetica,sans-Serif" font-size="10.00"> </text>
<polygon fill="#666666" stroke="#666666" points="617.62,-618.62 617.62,-618.62 702.12,-618.62 702.12,-618.62 617.62,-618.62"/>
<polygon fill="#666666" stroke="#666666" points="617.62,-603.38 617.62,-603.38 702.12,-603.38 702.12,-603.38 617.62,-603.38"/>
<polygon fill="none" stroke="#666666" points="617.62,-586.12 617.62,-647.12 702.12,-647.12 702.12,-586.12 617.62,-586.12"/>
</a>
</g>
</g>
<!-- Node16&#45;&gt;Node15 -->
<g id="edge18_Node000015_Node000016" class="edge">
<title>Node16&#45;&gt;Node15</title>
<g id="a_edge18_Node000015_Node000016"><a xlink:title=" ">
<path fill="none" stroke="#63b8ff" d="M659.72,-575.13C659.51,-519.26 659.14,-420.33 658.96,-375.22"/>
<polygon fill="none" stroke="#63b8ff" points="656.22,-574.86 659.76,-584.85 663.22,-574.84 656.22,-574.86"/>
</a>
</g>
</g>
<!-- Node17 -->
<g id="Node000017" class="node">
<title>Node17</title>
<g id="a_Node000017"><a xlink:href="../../d3/d27/class_gam_r_1_1_sort_1_1_sorter.html" target="_top" xlink:title=" ">
<polygon fill="white" stroke="none" points="791.38,-497.5 702.38,-497.5 702.38,-203.75 791.38,-203.75 791.38,-497.5"/>
<text text-anchor="start" x="706.38" y="-484" font-family="Helvetica,sans-Serif" font-size="10.00">GamR::Sort::Sorter</text>
<text text-anchor="start" x="745.38" y="-468.75" font-family="Helvetica,sans-Serif" font-size="10.00"> </text>
<text text-anchor="start" x="708.19" y="-453.5" font-family="Helvetica,sans-Serif" font-size="10.00">+</text>
<text text-anchor="start" x="720" y="-453.5" font-family="Helvetica,sans-Serif" font-size="10.00">Sorter()</text>
<text text-anchor="start" x="708.19" y="-438.25" font-family="Helvetica,sans-Serif" font-size="10.00">+</text>
<text text-anchor="start" x="720" y="-438.25" font-family="Helvetica,sans-Serif" font-size="10.00">~Sorter()</text>
<text text-anchor="start" x="708.19" y="-423" font-family="Helvetica,sans-Serif" font-size="10.00">+</text>
<text text-anchor="start" x="720" y="-423" font-family="Helvetica,sans-Serif" font-size="10.00">Done()</text>
<text text-anchor="start" x="708.19" y="-407.75" font-family="Helvetica,sans-Serif" font-size="10.00">+</text>
<text text-anchor="start" x="720" y="-407.75" font-family="Helvetica,sans-Serif" font-size="10.00">Tick()</text>
<text text-anchor="start" x="708.19" y="-392.5" font-family="Helvetica,sans-Serif" font-size="10.00">+</text>
<text text-anchor="start" x="720" y="-392.5" font-family="Helvetica,sans-Serif" font-size="10.00">SetXsize()</text>
<text text-anchor="start" x="708.19" y="-377.25" font-family="Helvetica,sans-Serif" font-size="10.00">+</text>
<text text-anchor="start" x="720" y="-377.25" font-family="Helvetica,sans-Serif" font-size="10.00">SetYsize()</text>
<text text-anchor="start" x="708.19" y="-362" font-family="Helvetica,sans-Serif" font-size="10.00">+</text>
<text text-anchor="start" x="720" y="-362" font-family="Helvetica,sans-Serif" font-size="10.00">SetZsize()</text>
<text text-anchor="start" x="708.19" y="-346.75" font-family="Helvetica,sans-Serif" font-size="10.00">+</text>
<text text-anchor="start" x="720" y="-346.75" font-family="Helvetica,sans-Serif" font-size="10.00">GetSpectrum()</text>
<text text-anchor="start" x="708.19" y="-331.5" font-family="Helvetica,sans-Serif" font-size="10.00">+</text>
<text text-anchor="start" x="720" y="-331.5" font-family="Helvetica,sans-Serif" font-size="10.00">GetMatrix()</text>
<text text-anchor="start" x="708.19" y="-316.25" font-family="Helvetica,sans-Serif" font-size="10.00">+</text>
<text text-anchor="start" x="720" y="-316.25" font-family="Helvetica,sans-Serif" font-size="10.00">GetCube()</text>
<text text-anchor="start" x="708.19" y="-301" font-family="Helvetica,sans-Serif" font-size="10.00">+</text>
<text text-anchor="start" x="720" y="-301" font-family="Helvetica,sans-Serif" font-size="10.00">Process()</text>
<text text-anchor="start" x="708.19" y="-285.75" font-family="Helvetica,sans-Serif" font-size="10.00">+</text>
<text text-anchor="start" x="720" y="-285.75" font-family="Helvetica,sans-Serif" font-size="10.00">Process()</text>
<text text-anchor="start" x="708.19" y="-270.5" font-family="Helvetica,sans-Serif" font-size="10.00">+</text>
<text text-anchor="start" x="720" y="-270.5" font-family="Helvetica,sans-Serif" font-size="10.00">PrintStatus()</text>
<text text-anchor="start" x="708.19" y="-255.25" font-family="Helvetica,sans-Serif" font-size="10.00">+</text>
<text text-anchor="start" x="720" y="-255.25" font-family="Helvetica,sans-Serif" font-size="10.00">Halt()</text>
<text text-anchor="start" x="708.19" y="-240" font-family="Helvetica,sans-Serif" font-size="10.00">+</text>
<text text-anchor="start" x="720" y="-240" font-family="Helvetica,sans-Serif" font-size="10.00">Write()</text>
<text text-anchor="start" x="708.19" y="-224.75" font-family="Helvetica,sans-Serif" font-size="10.00">+</text>
<text text-anchor="start" x="720" y="-224.75" font-family="Helvetica,sans-Serif" font-size="10.00">WriteObject()</text>
<text text-anchor="start" x="708.19" y="-209.5" font-family="Helvetica,sans-Serif" font-size="10.00">+</text>
<text text-anchor="start" x="720" y="-209.5" font-family="Helvetica,sans-Serif" font-size="10.00">Clear()</text>
<polygon fill="#666666" stroke="#666666" points="702.38,-480.25 702.38,-480.25 791.38,-480.25 791.38,-480.25 702.38,-480.25"/>
<polygon fill="#666666" stroke="#666666" points="702.38,-465 702.38,-465 791.38,-465 791.38,-465 702.38,-465"/>
<polygon fill="none" stroke="#666666" points="702.38,-203.75 702.38,-497.5 791.38,-497.5 791.38,-203.75 702.38,-203.75"/>
</a>
</g>
</g>
<!-- Node17&#45;&gt;Node1 -->
<g id="edge19_Node000001_Node000017" class="edge">
<title>Node17&#45;&gt;Node1</title>
<g id="a_edge19_Node000001_Node000017"><a xlink:title=" ">
<path fill="none" stroke="#63b8ff" d="M702.41,-220.08C699.39,-214.46 696.22,-208.99 692.88,-203.75 661.35,-154.33 602.51,-121.68 555.76,-102.27"/>
<polygon fill="none" stroke="#63b8ff" points="555.83,-102.3 548.78,-103.78 544.69,-97.84 551.75,-96.35 555.83,-102.3"/>
</a>
</g>
<text text-anchor="middle" x="684.19" y="-176.25" font-family="Helvetica,sans-Serif" font-size="10.00" fill="grey"> +p</text>
</g>
</g>
</svg>

<g id="navigator" transform="translate(0 0)" fill="#404254">
  <rect fill="#f2f5e9" fill-opacity="0.5" stroke="#606060" stroke-width=".5" x="0" y="0" width="60" height="60"/>
  <use id="zoomplus" xlink:href="#zoomPlus" x="17" y="9" onmousedown="handleZoom(evt,'in')"/>
  <use id="zoomminus" xlink:href="#zoomMin" x="42" y="9" onmousedown="handleZoom(evt,'out')"/>
  <use id="reset" xlink:href="#resetDef" x="30" y="36" onmousedown="handleReset()"/>
   <use id="arrowup" xlink:href="#arrowUp" x="0" y="0" onmousedown="handlePan(0,-1)"/>
  <use id="arrowright" xlink:href="#arrowRight" x="0" y="0" onmousedown="handlePan(1,0)"/>
  <use id="arrowdown" xlink:href="#arrowDown" x="0" y="0" onmousedown="handlePan(0,1)"/>
  <use id="arrowleft" xlink:href="#arrowLeft" x="0" y="0" onmousedown="handlePan(-1,0)"/>
</g>
<svg viewBox="0 0 15 15" width="100%" height="30px" preserveAspectRatio="xMaxYMin meet">
 <g id="arrow_out" transform="scale(0.3 0.3)">
  <a xlink:href="class_gam_r_1_1_sort_1_1_type_1_1_matrix__coll__graph_org.svg" target="_base">
   <rect id="button" ry="5" rx="5" y="6" x="6" height="38" width="38"
        fill="#f2f5e9" fill-opacity="0.5" stroke="#606060" stroke-width="1.0"/>
   <path id="arrow"
     d="M 11.500037,31.436501 C 11.940474,20.09759 22.043105,11.32322 32.158766,21.979434 L 37.068811,17.246167 C 37.068811,17.246167 37.088388,32 37.088388,32 L 22.160133,31.978069 C 22.160133,31.978069 26.997745,27.140456 26.997745,27.140456 C 18.528582,18.264221 13.291696,25.230495 11.500037,31.436501 z"
     style="fill:#404040;"/>
  </a>
 </g>
</svg>

<style type='text/css'>
<![CDATA[
[data-mouse-over-selected='false'] { opacity: 0.7; }
[data-mouse-over-selected='true']  { opacity: 1.0; }
]]>
</style>
<script type="application/ecmascript"><![CDATA[
document.addEventListener('DOMContentLoaded', (event) => {
  highlightEdges();
  highlightAdjacentNodes();
});
]]></script>
</svg>
