<?xml version="1.0" encoding="UTF-8" standalone="no"?>
<!DOCTYPE svg PUBLIC "-//W3C//DTD SVG 1.1//EN"
 "http://www.w3.org/Graphics/SVG/1.1/DTD/svg11.dtd">
<!-- Generated by graphviz version 6.0.2 (20221011.1828)
 -->
<!-- Title: GamR::Sort::Type::Matrix Pages: 1 -->
<!--zoomable 772 -->
<svg id="main" version="1.1" xmlns="http://www.w3.org/2000/svg" xmlns:xlink="http://www.w3.org/1999/xlink" xml:space="preserve" onload="init(evt)">
<style type="text/css"><![CDATA[
.edge:hover path { stroke: red; }
.edge:hover polygon { stroke: red; fill: red; }
]]></style>
<script type="text/javascript"><![CDATA[
var edges = document.getElementsByTagName('g');
if (edges && edges.length) {
  for (var i=0;i<edges.length;i++) {
    if (edges[i].id.substr(0,4)=='edge') {
      edges[i].setAttribute('class','edge');
    }
  }
}
]]></script>
        <defs>
                <circle id="rim" cx="0" cy="0" r="7"/>
                <circle id="rim2" cx="0" cy="0" r="3.5"/>
                <g id="zoomPlus">
                        <use xlink:href="#rim" fill="#404040">
                                <set attributeName="fill" to="#808080" begin="zoomplus.mouseover" end="zoomplus.mouseout"/>
                        </use>
                        <path d="M-4,0h8M0,-4v8" fill="none" stroke="white" stroke-width="1.5" pointer-events="none"/>
                </g>
                <g id="zoomMin">
                        <use xlink:href="#rim" fill="#404040">
                                <set attributeName="fill" to="#808080" begin="zoomminus.mouseover" end="zoomminus.mouseout"/>
                        </use>
                        <path d="M-4,0h8" fill="none" stroke="white" stroke-width="1.5" pointer-events="none"/>
                </g>
                <g id="dirArrow">
                        <path fill="none" stroke="white" stroke-width="1.5" d="M0,-3.0v7 M-2.5,-0.5L0,-3.0L2.5,-0.5"/>
                </g>
               <g id="resetDef">
                       <use xlink:href="#rim2" fill="#404040">
                               <set attributeName="fill" to="#808080" begin="reset.mouseover" end="reset.mouseout"/>
                       </use>
               </g>
        </defs>

<script type="text/javascript">
var viewWidth = 848;
var viewHeight = 772;
var sectionId = 'dynsection-0';
</script>
<script xlink:href="../../svgpan.js"/>
<svg id="graph" class="graph">
<g id="viewport">
<title>GamR::Sort::Type::Matrix</title>
<!-- Node1 -->
<g id="node1" class="node">
<title>Node1</title>
<g id="a_node1"><a xlink:title=" ">
<polygon fill="#999999" stroke="#666666" points="596,-129 470,-129 470,0 596,0 596,-129"/>
<text text-anchor="middle" x="533" y="-117" font-family="Helvetica,sans-Serif" font-size="10.00">{GamR::Sort::Type::Matrix</text>
<text text-anchor="start" x="478" y="-106" font-family="Helvetica,sans-Serif" font-size="10.00">|+ fGroupI</text>
<text text-anchor="start" x="478" y="-95" font-family="Helvetica,sans-Serif" font-size="10.00">+ fGroupJ</text>
<text text-anchor="start" x="478" y="-84" font-family="Helvetica,sans-Serif" font-size="10.00">+ fMeasX</text>
<text text-anchor="start" x="478" y="-73" font-family="Helvetica,sans-Serif" font-size="10.00">+ fMeasY</text>
<text text-anchor="start" x="478" y="-62" font-family="Helvetica,sans-Serif" font-size="10.00">+ XAxis</text>
<text text-anchor="start" x="478" y="-51" font-family="Helvetica,sans-Serif" font-size="10.00">+ YAxis</text>
<text text-anchor="start" x="478" y="-40" font-family="Helvetica,sans-Serif" font-size="10.00">+ GatedSort</text>
<text text-anchor="start" x="478" y="-29" font-family="Helvetica,sans-Serif" font-size="10.00">|+ Matrix()</text>
<text text-anchor="start" x="478" y="-18" font-family="Helvetica,sans-Serif" font-size="10.00">+ operator()()</text>
<text text-anchor="middle" x="533" y="-7" font-family="Helvetica,sans-Serif" font-size="10.00">}</text>
</a>
</g>
</g>
<!-- Node2 -->
<g id="node2" class="node">
<title>Node2</title>
<g id="a_node2"><a xlink:title=" ">
<polygon fill="white" stroke="#666666" points="691.5,-468.5 566.5,-468.5 566.5,-416.5 691.5,-416.5 691.5,-468.5"/>
<text text-anchor="middle" x="629" y="-456.5" font-family="Helvetica,sans-Serif" font-size="10.00">{std::shared_ptr&lt; TH2D &gt;</text>
<text text-anchor="start" x="574.5" y="-445.5" font-family="Helvetica,sans-Serif" font-size="10.00">|+ ptr</text>
<text text-anchor="start" x="574.5" y="-434.5" font-family="Helvetica,sans-Serif" font-size="10.00">|+ operator&#45;&gt;()</text>
<text text-anchor="middle" x="629" y="-423.5" font-family="Helvetica,sans-Serif" font-size="10.00">}</text>
</a>
</g>
</g>
<!-- Node2&#45;&gt;Node1 -->
<g id="edge1" class="edge">
<title>Node2&#45;&gt;Node1</title>
<path fill="none" stroke="#404040" d="M613.1,-416.4C609.17,-409.11 605.4,-400.96 603,-393 571.32,-287.86 613.31,-251.64 580,-147 579.32,-144.87 578.59,-142.74 577.79,-140.61"/>
<polygon fill="none" stroke="#404040" points="577.69,-140.37 571.7,-136.35 573.11,-129.28 579.09,-133.29 577.69,-140.37"/>
<text text-anchor="middle" x="626" y="-282" font-family="Helvetica,sans-Serif" font-size="10.00"> +ptrMatrix</text>
</g>
<!-- Node3 -->
<g id="node3" class="node">
<title>Node3</title>
<g id="a_node3"><a xlink:title=" ">
<polygon fill="white" stroke="#666666" points="607,-687 501,-687 501,-646 607,-646 607,-687"/>
<text text-anchor="middle" x="554" y="-675" font-family="Helvetica,sans-Serif" font-size="10.00">{std::shared_ptr&lt; T &gt;</text>
<text text-anchor="start" x="509" y="-664" font-family="Helvetica,sans-Serif" font-size="10.00">||+ operator&#45;&gt;()</text>
<text text-anchor="middle" x="554" y="-653" font-family="Helvetica,sans-Serif" font-size="10.00">}</text>
</a>
</g>
</g>
<!-- Node3&#45;&gt;Node2 -->
<g id="edge2" class="edge">
<title>Node3&#45;&gt;Node2</title>
<path fill="none" stroke="orange" d="M563.88,-636.26C578.74,-592.28 606.58,-509.87 620.55,-468.51"/>
<polygon fill="orange" stroke="orange" points="560.54,-635.2 560.66,-645.8 567.17,-637.45 560.54,-635.2"/>
<text text-anchor="middle" x="599.5" y="-609" font-family="Helvetica,sans-Serif" font-size="10.00"> &lt; TH2D &gt;</text>
</g>
<!-- Node4 -->
<g id="node4" class="node">
<title>Node4</title>
<g id="a_node4"><a xlink:title=" ">
<polygon fill="white" stroke="#666666" points="423.5,-764 394.5,-764 394.5,-734 423.5,-734 423.5,-764"/>
<text text-anchor="middle" x="409" y="-752" font-family="Helvetica,sans-Serif" font-size="10.00">{T</text>
<text text-anchor="middle" x="409" y="-741" font-family="Helvetica,sans-Serif" font-size="10.00">||}</text>
</a>
</g>
</g>
<!-- Node4&#45;&gt;Node3 -->
<g id="edge3" class="edge">
<title>Node4&#45;&gt;Node3</title>
<path fill="none" stroke="#404040" d="M423.7,-739.84C443.3,-728.96 478.89,-709.2 507.93,-693.08"/>
<polygon fill="none" stroke="#404040" points="508.2,-692.93 511.5,-686.52 518.69,-687.1 515.39,-693.51 508.2,-692.93"/>
<text text-anchor="middle" x="495" y="-708" font-family="Helvetica,sans-Serif" font-size="10.00"> +ptr</text>
</g>
<!-- Node7 -->
<g id="node7" class="node">
<title>Node7</title>
<g id="a_node7"><a xlink:title=" ">
<polygon fill="white" stroke="#666666" points="239,-687 135,-687 135,-646 239,-646 239,-687"/>
<text text-anchor="start" x="143" y="-675" font-family="Helvetica,sans-Serif" font-size="10.00">{std::unordered_map</text>
<text text-anchor="middle" x="187" y="-664" font-family="Helvetica,sans-Serif" font-size="10.00">&lt; K, T &gt;</text>
<text text-anchor="middle" x="187" y="-653" font-family="Helvetica,sans-Serif" font-size="10.00">||}</text>
</a>
</g>
</g>
<!-- Node4&#45;&gt;Node7 -->
<g id="edge8" class="edge">
<title>Node4&#45;&gt;Node7</title>
<path fill="none" stroke="#404040" d="M394.43,-742.72C365.71,-732.3 300.22,-708.56 250.46,-690.51"/>
<polygon fill="none" stroke="#404040" points="250.42,-690.5 243.41,-692.21 239.14,-686.41 246.14,-684.69 250.42,-690.5"/>
<text text-anchor="middle" x="342.5" y="-708" font-family="Helvetica,sans-Serif" font-size="10.00"> +elements</text>
</g>
<!-- Node9 -->
<g id="node9" class="node">
<title>Node9</title>
<g id="a_node9"><a xlink:title=" ">
<polygon fill="white" stroke="#666666" points="452.5,-549.5 365.5,-549.5 365.5,-519.5 452.5,-519.5 452.5,-549.5"/>
<text text-anchor="middle" x="409" y="-537.5" font-family="Helvetica,sans-Serif" font-size="10.00">{std::vector&lt; T &gt;</text>
<text text-anchor="middle" x="409" y="-526.5" font-family="Helvetica,sans-Serif" font-size="10.00">||}</text>
</a>
</g>
</g>
<!-- Node4&#45;&gt;Node9 -->
<g id="edge10" class="edge">
<title>Node4&#45;&gt;Node9</title>
<path fill="none" stroke="#404040" d="M409,-733.73C409,-698.57 409,-607.36 409,-561.97"/>
<polygon fill="none" stroke="#404040" points="409,-561.71 405,-555.71 409,-549.71 413,-555.71 409,-561.71"/>
<text text-anchor="middle" x="433.5" y="-664" font-family="Helvetica,sans-Serif" font-size="10.00"> +elements</text>
</g>
<!-- Node5 -->
<g id="node5" class="node">
<title>Node5</title>
<g id="a_node5"><a xlink:title=" ">
<polygon fill="white" stroke="#666666" points="375,-316 157,-316 157,-253 375,-253 375,-316"/>
<text text-anchor="start" x="165" y="-304" font-family="Helvetica,sans-Serif" font-size="10.00">{std::vector&lt; std::unordered</text>
<text text-anchor="start" x="165" y="-293" font-family="Helvetica,sans-Serif" font-size="10.00">_map&lt; GroupID_t, std::unordered</text>
<text text-anchor="start" x="165" y="-282" font-family="Helvetica,sans-Serif" font-size="10.00">_map&lt; DetID_t, std::unordered</text>
<text text-anchor="middle" x="266" y="-271" font-family="Helvetica,sans-Serif" font-size="10.00">_map&lt; MeasID_t, GamR::TK::GateMap &gt; &gt; &gt; &gt;</text>
<text text-anchor="middle" x="266" y="-260" font-family="Helvetica,sans-Serif" font-size="10.00">||}</text>
</a>
</g>
</g>
<!-- Node5&#45;&gt;Node1 -->
<g id="edge4" class="edge">
<title>Node5&#45;&gt;Node1</title>
<path fill="none" stroke="#404040" d="M301.37,-252.99C333.96,-225.05 383.82,-182.73 428,-147 438.41,-138.58 449.49,-129.79 460.41,-121.24"/>
<polygon fill="none" stroke="#404040" points="460.48,-121.18 462.75,-114.33 469.94,-113.79 467.67,-120.64 460.48,-121.18"/>
<text text-anchor="middle" x="447" y="-150" font-family="Helvetica,sans-Serif" font-size="10.00"> +fGates</text>
</g>
<!-- Node6 -->
<g id="node6" class="node">
<title>Node6</title>
<g id="a_node6"><a xlink:title=" ">
<polygon fill="white" stroke="#666666" points="292,-577 82,-577 82,-492 292,-492 292,-577"/>
<text text-anchor="start" x="90" y="-565" font-family="Helvetica,sans-Serif" font-size="10.00">{std::unordered_map</text>
<text text-anchor="start" x="90" y="-554" font-family="Helvetica,sans-Serif" font-size="10.00">&lt; GroupID_t, std::unordered</text>
<text text-anchor="start" x="90" y="-543" font-family="Helvetica,sans-Serif" font-size="10.00">_map&lt; DetID_t, std::unordered</text>
<text text-anchor="middle" x="187" y="-532" font-family="Helvetica,sans-Serif" font-size="10.00">_map&lt; MeasID_t, GamR::TK::GateMap &gt; &gt; &gt;</text>
<text text-anchor="start" x="90" y="-521" font-family="Helvetica,sans-Serif" font-size="10.00">|+ keys</text>
<text text-anchor="start" x="90" y="-510" font-family="Helvetica,sans-Serif" font-size="10.00">+ elements</text>
<text text-anchor="middle" x="187" y="-499" font-family="Helvetica,sans-Serif" font-size="10.00">|}</text>
</a>
</g>
</g>
<!-- Node6&#45;&gt;Node5 -->
<g id="edge5" class="edge">
<title>Node6&#45;&gt;Node5</title>
<path fill="none" stroke="#404040" d="M175.23,-491.77C170.38,-467.65 167.63,-437.02 176,-411 186.24,-379.14 207.89,-348.52 227.39,-325.5"/>
<polygon fill="none" stroke="#404040" points="227.4,-325.48 228.33,-318.33 235.29,-316.43 234.36,-323.58 227.4,-325.48"/>
<text text-anchor="middle" x="200.5" y="-440" font-family="Helvetica,sans-Serif" font-size="10.00"> +elements</text>
</g>
<!-- Node7&#45;&gt;Node6 -->
<g id="edge6" class="edge">
<title>Node7&#45;&gt;Node6</title>
<path fill="none" stroke="orange" d="M187,-635.66C187,-618.35 187,-596.28 187,-577.26"/>
<polygon fill="orange" stroke="orange" points="183.5,-635.76 187,-645.76 190.5,-635.76 183.5,-635.76"/>
<text text-anchor="start" x="187" y="-620" font-family="Helvetica,sans-Serif" font-size="10.00"> &lt; GroupID_t, std::unordered</text>
<text text-anchor="start" x="187" y="-609" font-family="Helvetica,sans-Serif" font-size="10.00">_map&lt; DetID_t, std::unordered</text>
<text text-anchor="middle" x="284" y="-598" font-family="Helvetica,sans-Serif" font-size="10.00">_map&lt; MeasID_t, GamR::TK::GateMap &gt; &gt; &gt;</text>
</g>
<!-- Node10 -->
<g id="node10" class="node">
<title>Node10</title>
<g id="a_node10"><a xlink:title=" ">
<polygon fill="white" stroke="#666666" points="108,-474 0,-474 0,-411 108,-411 108,-474"/>
<text text-anchor="start" x="8" y="-462" font-family="Helvetica,sans-Serif" font-size="10.00">{std::unordered_map</text>
<text text-anchor="middle" x="54" y="-451" font-family="Helvetica,sans-Serif" font-size="10.00">&lt; GroupID_t, size_t &gt;</text>
<text text-anchor="start" x="8" y="-440" font-family="Helvetica,sans-Serif" font-size="10.00">|+ keys</text>
<text text-anchor="start" x="8" y="-429" font-family="Helvetica,sans-Serif" font-size="10.00">+ elements</text>
<text text-anchor="middle" x="54" y="-418" font-family="Helvetica,sans-Serif" font-size="10.00">|}</text>
</a>
</g>
</g>
<!-- Node7&#45;&gt;Node10 -->
<g id="edge12" class="edge">
<title>Node7&#45;&gt;Node10</title>
<path fill="none" stroke="orange" d="M125.1,-651.43C111.79,-645.96 98.79,-638.41 89,-628 49.69,-586.2 47.89,-514.67 50.6,-474.05"/>
<polygon fill="orange" stroke="orange" points="124.22,-654.84 134.81,-655.06 126.67,-648.28 124.22,-654.84"/>
<text text-anchor="middle" x="136" y="-609" font-family="Helvetica,sans-Serif" font-size="10.00"> &lt; GroupID_t, size_t &gt;</text>
</g>
<!-- Node8 -->
<g id="node8" class="node">
<title>Node8</title>
<g id="a_node8"><a xlink:title=" ">
<polygon fill="white" stroke="#666666" points="201.5,-764 172.5,-764 172.5,-734 201.5,-734 201.5,-764"/>
<text text-anchor="middle" x="187" y="-752" font-family="Helvetica,sans-Serif" font-size="10.00">{K</text>
<text text-anchor="middle" x="187" y="-741" font-family="Helvetica,sans-Serif" font-size="10.00">||}</text>
</a>
</g>
</g>
<!-- Node8&#45;&gt;Node7 -->
<g id="edge7" class="edge">
<title>Node8&#45;&gt;Node7</title>
<path fill="none" stroke="#404040" d="M187,-733.98C187,-724.35 187,-711.17 187,-699.09"/>
<polygon fill="none" stroke="#404040" points="187,-699.09 183,-693.09 187,-687.09 191,-693.09 187,-699.09"/>
<text text-anchor="middle" x="201.5" y="-708" font-family="Helvetica,sans-Serif" font-size="10.00"> +keys</text>
</g>
<!-- Node9&#45;&gt;Node5 -->
<g id="edge9" class="edge">
<title>Node9&#45;&gt;Node5</title>
<path fill="none" stroke="orange" d="M364.67,-515.77C345.23,-508.17 322.09,-499.37 301,-492 275.92,-483.23 259.7,-495.43 244,-474 209.92,-427.49 232.71,-356.48 250.55,-316.2"/>
<polygon fill="orange" stroke="orange" points="363.59,-519.1 374.18,-519.5 366.15,-512.59 363.59,-519.1"/>
<text text-anchor="start" x="244" y="-456.5" font-family="Helvetica,sans-Serif" font-size="10.00"> &lt; std::unordered_map</text>
<text text-anchor="start" x="244" y="-445.5" font-family="Helvetica,sans-Serif" font-size="10.00">&lt; GroupID_t, std::unordered</text>
<text text-anchor="start" x="244" y="-434.5" font-family="Helvetica,sans-Serif" font-size="10.00">_map&lt; DetID_t, std::unordered</text>
<text text-anchor="middle" x="345" y="-423.5" font-family="Helvetica,sans-Serif" font-size="10.00">_map&lt; MeasID_t, GamR::TK::GateMap &gt; &gt; &gt; &gt;</text>
</g>
<!-- Node11 -->
<g id="node11" class="node">
<title>Node11</title>
<g id="a_node11"><a xlink:title=" ">
<polygon fill="white" stroke="#666666" points="538.5,-310.5 405.5,-310.5 405.5,-258.5 538.5,-258.5 538.5,-310.5"/>
<text text-anchor="start" x="413.5" y="-298.5" font-family="Helvetica,sans-Serif" font-size="10.00">{std::vector&lt; std::pair</text>
<text text-anchor="middle" x="472" y="-287.5" font-family="Helvetica,sans-Serif" font-size="10.00">&lt; GroupID_t, MeasID_t &gt; &gt;</text>
<text text-anchor="start" x="413.5" y="-276.5" font-family="Helvetica,sans-Serif" font-size="10.00">|+ elements</text>
<text text-anchor="middle" x="472" y="-265.5" font-family="Helvetica,sans-Serif" font-size="10.00">|}</text>
</a>
</g>
</g>
<!-- Node9&#45;&gt;Node11 -->
<g id="edge14" class="edge">
<title>Node9&#45;&gt;Node11</title>
<path fill="none" stroke="orange" d="M427.95,-511.58C436.1,-500.93 444.91,-487.53 450,-474 470.88,-418.49 473.27,-347.85 472.85,-310.8"/>
<polygon fill="orange" stroke="orange" points="425.14,-509.48 421.63,-519.48 430.61,-513.85 425.14,-509.48"/>
<text text-anchor="start" x="466" y="-445.5" font-family="Helvetica,sans-Serif" font-size="10.00"> &lt; std::pair&lt; GroupID</text>
<text text-anchor="middle" x="510.5" y="-434.5" font-family="Helvetica,sans-Serif" font-size="10.00">_t, MeasID_t &gt; &gt;</text>
</g>
<!-- Node10&#45;&gt;Node1 -->
<g id="edge11" class="edge">
<title>Node10&#45;&gt;Node1</title>
<path fill="none" stroke="#404040" d="M44.29,-410.74C29.28,-356.59 7.58,-243.58 63,-176 112.4,-115.77 337.82,-84.75 457.63,-72.27"/>
<polygon fill="none" stroke="#404040" points="457.65,-72.27 463.21,-67.68 469.58,-71.05 464.02,-75.64 457.65,-72.27"/>
<text text-anchor="middle" x="105.5" y="-282" font-family="Helvetica,sans-Serif" font-size="10.00"> +fInNumAndGates</text>
</g>
<!-- Node11&#45;&gt;Node1 -->
<g id="edge13" class="edge">
<title>Node11&#45;&gt;Node1</title>
<path fill="none" stroke="#404040" d="M467.65,-258.34C463.83,-230.36 460.63,-184.22 473,-147 473.75,-144.75 474.58,-142.51 475.5,-140.28"/>
<polygon fill="none" stroke="#404040" points="475.55,-140.18 474.48,-133.05 480.65,-129.32 481.72,-136.45 475.55,-140.18"/>
<text text-anchor="middle" x="526.5" y="-150" font-family="Helvetica,sans-Serif" font-size="10.00"> +fReaderMeasurements</text>
</g>
<!-- Node12 -->
<g id="node12" class="node">
<title>Node12</title>
<g id="a_node12"><a xlink:title=" ">
<polygon fill="white" stroke="#666666" points="720,-299.5 658,-299.5 658,-269.5 720,-269.5 720,-299.5"/>
<text text-anchor="middle" x="689" y="-287.5" font-family="Helvetica,sans-Serif" font-size="10.00">{std::string</text>
<text text-anchor="middle" x="689" y="-276.5" font-family="Helvetica,sans-Serif" font-size="10.00">||}</text>
</a>
</g>
</g>
<!-- Node12&#45;&gt;Node1 -->
<g id="edge15" class="edge">
<title>Node12&#45;&gt;Node1</title>
<path fill="none" stroke="#404040" d="M685.04,-269.41C678.62,-248 664.55,-206.56 644,-176 632.88,-159.46 619.03,-143.34 604.92,-128.75"/>
<polygon fill="none" stroke="#404040" points="604.57,-128.39 597.51,-126.94 596.13,-119.87 603.19,-121.31 604.57,-128.39"/>
<text text-anchor="middle" x="646" y="-150" font-family="Helvetica,sans-Serif" font-size="10.00"> +fPrefix</text>
</g>
<!-- Node13 -->
<g id="node13" class="node">
<title>Node13</title>
<g id="a_node13"><a xlink:title=" ">
<polygon fill="white" stroke="#666666" points="755,-555 659,-555 659,-514 755,-514 755,-555"/>
<text text-anchor="start" x="667" y="-543" font-family="Helvetica,sans-Serif" font-size="10.00">{std::basic_string&lt;</text>
<text text-anchor="middle" x="707" y="-532" font-family="Helvetica,sans-Serif" font-size="10.00"> Char &gt;</text>
<text text-anchor="middle" x="707" y="-521" font-family="Helvetica,sans-Serif" font-size="10.00">||}</text>
</a>
</g>
</g>
<!-- Node13&#45;&gt;Node12 -->
<g id="edge16" class="edge">
<title>Node13&#45;&gt;Node12</title>
<path fill="none" stroke="#63b8ff" d="M704.81,-503.35C700.91,-449.54 692.88,-338.9 690.03,-299.67"/>
<polygon fill="none" stroke="#63b8ff" points="701.34,-503.9 705.56,-513.62 708.32,-503.4 701.34,-503.9"/>
</g>
<!-- Node14 -->
<g id="node14" class="node">
<title>Node14</title>
<g id="a_node14"><a xlink:href="../../d3/d27/class_gam_r_1_1_sort_1_1_sorter.html" target="_top" xlink:title=" ">
<polygon fill="white" stroke="#666666" points="839.5,-393 738.5,-393 738.5,-176 839.5,-176 839.5,-393"/>
<text text-anchor="middle" x="789" y="-381" font-family="Helvetica,sans-Serif" font-size="10.00">{GamR::Sort::Sorter</text>
<text text-anchor="start" x="746.5" y="-370" font-family="Helvetica,sans-Serif" font-size="10.00">||+ Sorter()</text>
<text text-anchor="start" x="746.5" y="-359" font-family="Helvetica,sans-Serif" font-size="10.00">+ ~Sorter()</text>
<text text-anchor="start" x="746.5" y="-348" font-family="Helvetica,sans-Serif" font-size="10.00">+ Done()</text>
<text text-anchor="start" x="746.5" y="-337" font-family="Helvetica,sans-Serif" font-size="10.00">+ Tick()</text>
<text text-anchor="start" x="746.5" y="-326" font-family="Helvetica,sans-Serif" font-size="10.00">+ SetXsize()</text>
<text text-anchor="start" x="746.5" y="-315" font-family="Helvetica,sans-Serif" font-size="10.00">+ SetYsize()</text>
<text text-anchor="start" x="746.5" y="-304" font-family="Helvetica,sans-Serif" font-size="10.00">+ SetZsize()</text>
<text text-anchor="start" x="746.5" y="-293" font-family="Helvetica,sans-Serif" font-size="10.00">+ GetSpectrum()</text>
<text text-anchor="start" x="746.5" y="-282" font-family="Helvetica,sans-Serif" font-size="10.00">+ GetMatrix()</text>
<text text-anchor="start" x="746.5" y="-271" font-family="Helvetica,sans-Serif" font-size="10.00">+ GetCube()</text>
<text text-anchor="start" x="746.5" y="-260" font-family="Helvetica,sans-Serif" font-size="10.00">+ Process()</text>
<text text-anchor="start" x="746.5" y="-249" font-family="Helvetica,sans-Serif" font-size="10.00">+ Process()</text>
<text text-anchor="start" x="746.5" y="-238" font-family="Helvetica,sans-Serif" font-size="10.00">+ PrintStatus()</text>
<text text-anchor="start" x="746.5" y="-227" font-family="Helvetica,sans-Serif" font-size="10.00">+ Halt()</text>
<text text-anchor="start" x="746.5" y="-216" font-family="Helvetica,sans-Serif" font-size="10.00">+ Write()</text>
<text text-anchor="start" x="746.5" y="-205" font-family="Helvetica,sans-Serif" font-size="10.00">+ WriteObject()</text>
<text text-anchor="start" x="746.5" y="-194" font-family="Helvetica,sans-Serif" font-size="10.00">+ Clear()</text>
<text text-anchor="middle" x="789" y="-183" font-family="Helvetica,sans-Serif" font-size="10.00">}</text>
</a>
</g>
</g>
<!-- Node14&#45;&gt;Node1 -->
<g id="edge17" class="edge">
<title>Node14&#45;&gt;Node1</title>
<path fill="none" stroke="#404040" d="M738.36,-186.34C735.36,-182.72 732.24,-179.26 729,-176 694.48,-141.34 646.84,-114.14 607.16,-95.41"/>
<polygon fill="none" stroke="#404040" points="607.1,-95.38 599.97,-96.5 596.2,-90.35 603.33,-89.23 607.1,-95.38"/>
<text text-anchor="middle" x="713" y="-150" font-family="Helvetica,sans-Serif" font-size="10.00"> +p</text>
</g>
</g>
</svg>
        <g id="navigator" transform="translate(0 0)" fill="#404254">
                <rect fill="#f2f5e9" fill-opacity="0.5" stroke="#606060" stroke-width=".5" x="0" y="0" width="60" height="60"/>
                <use id="zoomplus" xlink:href="#zoomPlus" x="17" y="9" onmousedown="handleZoom(evt,'in')"/>
                <use id="zoomminus" xlink:href="#zoomMin" x="42" y="9" onmousedown="handleZoom(evt,'out')"/>
                <use id="reset" xlink:href="#resetDef" x="30" y="36" onmousedown="handleReset()"/>
                <g id="arrowUp" xlink:href="#dirArrow" transform="translate(30 24)" onmousedown="handlePan(0,-1)">
                  <use xlink:href="#rim" fill="#404040">
                        <set attributeName="fill" to="#808080" begin="arrowUp.mouseover" end="arrowUp.mouseout"/>
                  </use>
                  <path fill="none" stroke="white" stroke-width="1.5" d="M0,-3.0v7 M-2.5,-0.5L0,-3.0L2.5,-0.5"/>
                </g>
                <g id="arrowRight" xlink:href="#dirArrow" transform="rotate(90) translate(36 -43)" onmousedown="handlePan(1,0)">
                  <use xlink:href="#rim" fill="#404040">
                        <set attributeName="fill" to="#808080" begin="arrowRight.mouseover" end="arrowRight.mouseout"/>
                  </use>
                  <path fill="none" stroke="white" stroke-width="1.5" d="M0,-3.0v7 M-2.5,-0.5L0,-3.0L2.5,-0.5"/>
                </g>
                <g id="arrowDown" xlink:href="#dirArrow" transform="rotate(180) translate(-30 -48)" onmousedown="handlePan(0,1)">
                  <use xlink:href="#rim" fill="#404040">
                        <set attributeName="fill" to="#808080" begin="arrowDown.mouseover" end="arrowDown.mouseout"/>
                  </use>
                  <path fill="none" stroke="white" stroke-width="1.5" d="M0,-3.0v7 M-2.5,-0.5L0,-3.0L2.5,-0.5"/>
                </g>
                <g id="arrowLeft" xlink:href="#dirArrow" transform="rotate(270) translate(-36 17)" onmousedown="handlePan(-1,0)">
                  <use xlink:href="#rim" fill="#404040">
                        <set attributeName="fill" to="#808080" begin="arrowLeft.mouseover" end="arrowLeft.mouseout"/>
                  </use>
                  <path fill="none" stroke="white" stroke-width="1.5" d="M0,-3.0v7 M-2.5,-0.5L0,-3.0L2.5,-0.5"/>
                </g>
        </g>
        <svg viewBox="0 0 15 15" width="100%" height="30px" preserveAspectRatio="xMaxYMin meet">
         <g id="arrow_out" transform="scale(0.3 0.3)">
          <a xlink:href="class_gam_r_1_1_sort_1_1_type_1_1_matrix__coll__graph_org.svg" target="_base">
           <rect id="button" ry="5" rx="5" y="6" x="6" height="38" width="38"
                fill="#f2f5e9" fill-opacity="0.5" stroke="#606060" stroke-width="1.0"/>
           <path id="arrow"
             d="M 11.500037,31.436501 C 11.940474,20.09759 22.043105,11.32322 32.158766,21.979434 L 37.068811,17.246167 C 37.068811,17.246167 37.088388,32 37.088388,32 L 22.160133,31.978069 C 22.160133,31.978069 26.997745,27.140456 26.997745,27.140456 C 18.528582,18.264221 13.291696,25.230495 11.500037,31.436501 z"
             style="fill:#404040;"/>
          </a>
         </g>
        </svg>
</svg>
