<?xml version="1.0" encoding="UTF-8" standalone="no"?>
<!DOCTYPE svg PUBLIC "-//W3C//DTD SVG 1.1//EN"
 "http://www.w3.org/Graphics/SVG/1.1/DTD/svg11.dtd">
<!-- Generated by graphviz version 2.50.0 (20220203.2022)
 -->
<!-- Title: GamR::TK::OneTailStepGaussianPeak::GetAreaError Pages: 1 -->
<svg width="346pt" height="78pt"
 viewBox="0.00 0.00 346.00 77.50" xmlns="http://www.w3.org/2000/svg" xmlns:xlink="http://www.w3.org/1999/xlink">
<g id="graph0" class="graph" transform="scale(1 1) rotate(0) translate(4 73.5)">
<title>GamR::TK::OneTailStepGaussianPeak::GetAreaError</title>
<polygon fill="white" stroke="transparent" points="-4,4 -4,-73.5 342,-73.5 342,4 -4,4"/>
<!-- Node1 -->
<g id="node1" class="node">
<title>Node1</title>
<g id="a_node1"><a xlink:title=" ">
<polygon fill="#bfbfbf" stroke="black" points="0,-17 0,-47 161,-47 161,-17 0,-17"/>
<text text-anchor="start" x="8" y="-35" font-family="Helvetica,sans-Serif" font-size="10.00">GamR::TK::OneTailStepGaussian</text>
<text text-anchor="middle" x="80.5" y="-24" font-family="Helvetica,sans-Serif" font-size="10.00">Peak::GetAreaError</text>
</a>
</g>
</g>
<!-- Node2 -->
<g id="node2" class="node">
<title>Node2</title>
<g id="a_node2"><a xlink:href="../../d0/d74/group___t_k.html#ga9ce06d4dc01b94a919d61cf14ae7ced4" target="_top" xlink:title=" ">
<polygon fill="white" stroke="black" points="197,-39 197,-69 338,-69 338,-39 197,-39"/>
<text text-anchor="start" x="205" y="-57" font-family="Helvetica,sans-Serif" font-size="10.00">GamR::TK::OneTailGaussian</text>
<text text-anchor="middle" x="267.5" y="-46" font-family="Helvetica,sans-Serif" font-size="10.00">Peak::GetAreaError</text>
</a>
</g>
</g>
<!-- Node1&#45;&gt;Node2 -->
<g id="edge1" class="edge">
<title>Node1&#45;&gt;Node2</title>
<path fill="none" stroke="midnightblue" d="M161.03,-41.46C169.62,-42.48 178.36,-43.52 186.95,-44.54"/>
<polygon fill="midnightblue" stroke="midnightblue" points="186.59,-48.02 196.94,-45.73 187.42,-41.07 186.59,-48.02"/>
</g>
<!-- Node3 -->
<g id="node3" class="node">
<title>Node3</title>
<g id="a_node3"><a xlink:href="../../d0/d74/group___t_k.html#gaea3f5cb2c25b5827dafe494c5c284d31" target="_top" xlink:title=" ">
<polygon fill="white" stroke="black" points="199,-0.5 199,-19.5 336,-19.5 336,-0.5 199,-0.5"/>
<text text-anchor="middle" x="267.5" y="-7.5" font-family="Helvetica,sans-Serif" font-size="10.00">GamR::TK::FPeak::GetFunc</text>
</a>
</g>
</g>
<!-- Node1&#45;&gt;Node3 -->
<g id="edge2" class="edge">
<title>Node1&#45;&gt;Node3</title>
<path fill="none" stroke="midnightblue" d="M161.03,-22.54C170.31,-21.44 179.76,-20.31 189.01,-19.21"/>
<polygon fill="midnightblue" stroke="midnightblue" points="189.43,-22.69 198.95,-18.03 188.61,-15.74 189.43,-22.69"/>
</g>
</g>
</svg>
