<?xml version="1.0" encoding="UTF-8" standalone="no"?>
<!DOCTYPE svg PUBLIC "-//W3C//DTD SVG 1.1//EN"
 "http://www.w3.org/Graphics/SVG/1.1/DTD/svg11.dtd">
<!-- Generated by graphviz version 2.49.3 (20211023.0002)
 -->
<!-- Title: GamR::Nucleus::LevelScheme::Transition::ExecuteEvent Pages: 1 -->
<svg width="562pt" height="69pt"
 viewBox="0.00 0.00 562.00 69.00" xmlns="http://www.w3.org/2000/svg" xmlns:xlink="http://www.w3.org/1999/xlink">
<g id="graph0" class="graph" transform="scale(1 1) rotate(0) translate(4 65)">
<title>GamR::Nucleus::LevelScheme::Transition::ExecuteEvent</title>
<polygon fill="white" stroke="transparent" points="-4,4 -4,-65 558,-65 558,4 -4,4"/>
<!-- Node1 -->
<g id="node1" class="node">
<title>Node1</title>
<g id="a_node1"><a xlink:title=" ">
<polygon fill="#bfbfbf" stroke="black" points="0,-16 0,-46 153,-46 153,-16 0,-16"/>
<text text-anchor="start" x="8" y="-34" font-family="Helvetica,sans-Serif" font-size="10.00">GamR::Nucleus::LevelScheme</text>
<text text-anchor="middle" x="76.5" y="-23" font-family="Helvetica,sans-Serif" font-size="10.00">::Transition::ExecuteEvent</text>
</a>
</g>
</g>
<!-- Node2 -->
<g id="node2" class="node">
<title>Node2</title>
<g id="a_node2"><a xlink:href="../../d5/d3a/class_gam_r_1_1_nucleus_1_1_level_scheme_1_1_transition.html#adcbc35b4270d5ce2adfdf8ddc839f601" target="_top" xlink:title=" ">
<polygon fill="white" stroke="black" points="189,-16 189,-46 346,-46 346,-16 189,-16"/>
<text text-anchor="start" x="197" y="-34" font-family="Helvetica,sans-Serif" font-size="10.00">GamR::Nucleus::LevelScheme</text>
<text text-anchor="middle" x="267.5" y="-23" font-family="Helvetica,sans-Serif" font-size="10.00">::Transition::DistancetoPrimitive</text>
</a>
</g>
</g>
<!-- Node1&#45;&gt;Node2 -->
<g id="edge1" class="edge">
<title>Node1&#45;&gt;Node2</title>
<path fill="none" stroke="midnightblue" d="M153.01,-31C161.51,-31 170.22,-31 178.86,-31"/>
<polygon fill="midnightblue" stroke="midnightblue" points="178.94,-34.5 188.94,-31 178.94,-27.5 178.94,-34.5"/>
</g>
<!-- Node3 -->
<g id="node3" class="node">
<title>Node3</title>
<g id="a_node3"><a xlink:href="../../d0/d17/_abbreviations_8cc.html#addb21d32acc58c64bf98c616bebe77fc" target="_top" xlink:title=" ">
<polygon fill="white" stroke="black" points="382,-41.5 382,-60.5 411,-60.5 411,-41.5 382,-41.5"/>
<text text-anchor="middle" x="396.5" y="-48.5" font-family="Helvetica,sans-Serif" font-size="10.00">px</text>
</a>
</g>
</g>
<!-- Node1&#45;&gt;Node3 -->
<g id="edge6" class="edge">
<title>Node1&#45;&gt;Node3</title>
<path fill="none" stroke="midnightblue" d="M133.24,-46.03C150.93,-50.11 170.66,-53.97 189,-56 258.35,-63.68 276.31,-59.51 346,-56 354.4,-55.58 363.57,-54.75 371.7,-53.89"/>
<polygon fill="midnightblue" stroke="midnightblue" points="372.11,-57.37 381.66,-52.77 371.33,-50.41 372.11,-57.37"/>
</g>
<!-- Node5 -->
<g id="node5" class="node">
<title>Node5</title>
<g id="a_node5"><a xlink:href="../../d0/d17/_abbreviations_8cc.html#ada52d00d8b5e1ca20ee1be4110ac3175" target="_top" xlink:title=" ">
<polygon fill="white" stroke="black" points="382,-0.5 382,-19.5 411,-19.5 411,-0.5 382,-0.5"/>
<text text-anchor="middle" x="396.5" y="-7.5" font-family="Helvetica,sans-Serif" font-size="10.00">py</text>
</a>
</g>
</g>
<!-- Node1&#45;&gt;Node5 -->
<g id="edge7" class="edge">
<title>Node1&#45;&gt;Node5</title>
<path fill="none" stroke="midnightblue" d="M133.24,-15.97C150.93,-11.89 170.66,-8.03 189,-6 258.35,1.68 276.28,-3.19 346,-6 354.29,-6.33 363.35,-6.98 371.42,-7.66"/>
<polygon fill="midnightblue" stroke="midnightblue" points="371.38,-11.17 381.65,-8.58 372,-4.2 371.38,-11.17"/>
</g>
<!-- Node2&#45;&gt;Node3 -->
<g id="edge2" class="edge">
<title>Node2&#45;&gt;Node3</title>
<path fill="none" stroke="midnightblue" d="M346.03,-43.21C355.33,-44.67 364.21,-46.07 371.81,-47.27"/>
<polygon fill="midnightblue" stroke="midnightblue" points="371.51,-50.77 381.94,-48.86 372.6,-43.85 371.51,-50.77"/>
</g>
<!-- Node2&#45;&gt;Node5 -->
<g id="edge4" class="edge">
<title>Node2&#45;&gt;Node5</title>
<path fill="none" stroke="midnightblue" d="M346.03,-18.18C355.33,-16.64 364.21,-15.17 371.81,-13.92"/>
<polygon fill="midnightblue" stroke="midnightblue" points="372.64,-17.33 381.94,-12.24 371.5,-10.42 372.64,-17.33"/>
</g>
<!-- Node4 -->
<g id="node4" class="node">
<title>Node4</title>
<g id="a_node4"><a xlink:href="../../dc/d89/namespace_gam_r_1_1_spect.html#aab35a8f2d75f6fd8f3175f37c4f5f0cd" target="_top" xlink:title=" ">
<polygon fill="white" stroke="black" points="447,-41.5 447,-60.5 554,-60.5 554,-41.5 447,-41.5"/>
<text text-anchor="middle" x="500.5" y="-48.5" font-family="Helvetica,sans-Serif" font-size="10.00">GamR::Spect::ProjX</text>
</a>
</g>
</g>
<!-- Node3&#45;&gt;Node4 -->
<g id="edge3" class="edge">
<title>Node3&#45;&gt;Node4</title>
<path fill="none" stroke="midnightblue" d="M411.26,-51C418.2,-51 427.16,-51 436.71,-51"/>
<polygon fill="midnightblue" stroke="midnightblue" points="436.81,-54.5 446.81,-51 436.81,-47.5 436.81,-54.5"/>
</g>
<!-- Node6 -->
<g id="node6" class="node">
<title>Node6</title>
<g id="a_node6"><a xlink:href="../../dc/d89/namespace_gam_r_1_1_spect.html#a16ff9da3440d1c99c085b58a70b447b9" target="_top" xlink:title=" ">
<polygon fill="white" stroke="black" points="447,-0.5 447,-19.5 554,-19.5 554,-0.5 447,-0.5"/>
<text text-anchor="middle" x="500.5" y="-7.5" font-family="Helvetica,sans-Serif" font-size="10.00">GamR::Spect::ProjY</text>
</a>
</g>
</g>
<!-- Node5&#45;&gt;Node6 -->
<g id="edge5" class="edge">
<title>Node5&#45;&gt;Node6</title>
<path fill="none" stroke="midnightblue" d="M411.26,-10C418.2,-10 427.16,-10 436.71,-10"/>
<polygon fill="midnightblue" stroke="midnightblue" points="436.81,-13.5 446.81,-10 436.81,-6.5 436.81,-13.5"/>
</g>
</g>
</svg>
