<?xml version="1.0" encoding="UTF-8" standalone="no"?>
<!DOCTYPE svg PUBLIC "-//W3C//DTD SVG 1.1//EN"
 "http://www.w3.org/Graphics/SVG/1.1/DTD/svg11.dtd">
<!-- Generated by graphviz version 6.0.2 (20221011.1828)
 -->
<!-- Title: GamR::Nucleus::LevelSchemeDraw::State Pages: 1 -->
<!--zoomable 1425 -->
<svg id="main" version="1.1" xmlns="http://www.w3.org/2000/svg" xmlns:xlink="http://www.w3.org/1999/xlink" xml:space="preserve" onload="init(evt)">
<style type="text/css"><![CDATA[
.edge:hover path { stroke: red; }
.edge:hover polygon { stroke: red; fill: red; }
]]></style>
<script type="text/javascript"><![CDATA[
var edges = document.getElementsByTagName('g');
if (edges && edges.length) {
  for (var i=0;i<edges.length;i++) {
    if (edges[i].id.substr(0,4)=='edge') {
      edges[i].setAttribute('class','edge');
    }
  }
}
]]></script>
        <defs>
                <circle id="rim" cx="0" cy="0" r="7"/>
                <circle id="rim2" cx="0" cy="0" r="3.5"/>
                <g id="zoomPlus">
                        <use xlink:href="#rim" fill="#404040">
                                <set attributeName="fill" to="#808080" begin="zoomplus.mouseover" end="zoomplus.mouseout"/>
                        </use>
                        <path d="M-4,0h8M0,-4v8" fill="none" stroke="white" stroke-width="1.5" pointer-events="none"/>
                </g>
                <g id="zoomMin">
                        <use xlink:href="#rim" fill="#404040">
                                <set attributeName="fill" to="#808080" begin="zoomminus.mouseover" end="zoomminus.mouseout"/>
                        </use>
                        <path d="M-4,0h8" fill="none" stroke="white" stroke-width="1.5" pointer-events="none"/>
                </g>
                <g id="dirArrow">
                        <path fill="none" stroke="white" stroke-width="1.5" d="M0,-3.0v7 M-2.5,-0.5L0,-3.0L2.5,-0.5"/>
                </g>
               <g id="resetDef">
                       <use xlink:href="#rim2" fill="#404040">
                               <set attributeName="fill" to="#808080" begin="reset.mouseover" end="reset.mouseout"/>
                       </use>
               </g>
        </defs>

<script type="text/javascript">
var viewWidth = 596;
var viewHeight = 1425;
var sectionId = 'dynsection-1';
</script>
<script xlink:href="../../svgpan.js"/>
<svg id="graph" class="graph">
<g id="viewport">
<title>GamR::Nucleus::LevelSchemeDraw::State</title>
<!-- Node1 -->
<g id="node1" class="node">
<title>Node1</title>
<g id="a_node1"><a xlink:title=" ">
<polygon fill="#999999" stroke="#666666" points="454.5,-1251 302.5,-1251 302.5,-924 454.5,-924 454.5,-1251"/>
<text text-anchor="start" x="310.5" y="-1239" font-family="Helvetica,sans-Serif" font-size="10.00">{GamR::Nucleus::LevelScheme</text>
<text text-anchor="middle" x="378.5" y="-1228" font-family="Helvetica,sans-Serif" font-size="10.00">Draw::State</text>
<text text-anchor="start" x="310.5" y="-1217" font-family="Helvetica,sans-Serif" font-size="10.00">|+ index</text>
<text text-anchor="start" x="310.5" y="-1206" font-family="Helvetica,sans-Serif" font-size="10.00">+ fEnergy</text>
<text text-anchor="start" x="310.5" y="-1195" font-family="Helvetica,sans-Serif" font-size="10.00">+ fDrawPos</text>
<text text-anchor="start" x="310.5" y="-1184" font-family="Helvetica,sans-Serif" font-size="10.00">+ fLabelPos</text>
<text text-anchor="start" x="310.5" y="-1173" font-family="Helvetica,sans-Serif" font-size="10.00">+ fLeft</text>
<text text-anchor="start" x="310.5" y="-1162" font-family="Helvetica,sans-Serif" font-size="10.00">+ fRight</text>
<text text-anchor="start" x="310.5" y="-1151" font-family="Helvetica,sans-Serif" font-size="10.00">+ fExtLeft</text>
<text text-anchor="start" x="310.5" y="-1140" font-family="Helvetica,sans-Serif" font-size="10.00">+ fExtRight</text>
<text text-anchor="start" x="310.5" y="-1129" font-family="Helvetica,sans-Serif" font-size="10.00">+ textsize</text>
<text text-anchor="start" x="310.5" y="-1118" font-family="Helvetica,sans-Serif" font-size="10.00">+ extension</text>
<text text-anchor="start" x="310.5" y="-1107" font-family="Helvetica,sans-Serif" font-size="10.00">+ extline</text>
<text text-anchor="start" x="310.5" y="-1096" font-family="Helvetica,sans-Serif" font-size="10.00">+ fLeftLabel</text>
<text text-anchor="start" x="310.5" y="-1085" font-family="Helvetica,sans-Serif" font-size="10.00">+ fRightLabel</text>
<text text-anchor="start" x="310.5" y="-1074" font-family="Helvetica,sans-Serif" font-size="10.00">|+ State()</text>
<text text-anchor="start" x="310.5" y="-1063" font-family="Helvetica,sans-Serif" font-size="10.00">+ State()</text>
<text text-anchor="start" x="310.5" y="-1052" font-family="Helvetica,sans-Serif" font-size="10.00">+ ~State()</text>
<text text-anchor="start" x="310.5" y="-1041" font-family="Helvetica,sans-Serif" font-size="10.00">+ SetLeftRight()</text>
<text text-anchor="start" x="310.5" y="-1030" font-family="Helvetica,sans-Serif" font-size="10.00">+ SetWidth()</text>
<text text-anchor="start" x="310.5" y="-1019" font-family="Helvetica,sans-Serif" font-size="10.00">+ SetLabels()</text>
<text text-anchor="start" x="310.5" y="-1008" font-family="Helvetica,sans-Serif" font-size="10.00">+ SetExtension()</text>
<text text-anchor="start" x="310.5" y="-997" font-family="Helvetica,sans-Serif" font-size="10.00">+ AddTransition()</text>
<text text-anchor="start" x="310.5" y="-986" font-family="Helvetica,sans-Serif" font-size="10.00">+ DistancetoPrimitive()</text>
<text text-anchor="start" x="310.5" y="-975" font-family="Helvetica,sans-Serif" font-size="10.00">+ ExecuteEvent()</text>
<text text-anchor="start" x="310.5" y="-964" font-family="Helvetica,sans-Serif" font-size="10.00">+ Paint()</text>
<text text-anchor="start" x="310.5" y="-953" font-family="Helvetica,sans-Serif" font-size="10.00">+ operator&lt;()</text>
<text text-anchor="start" x="310.5" y="-942" font-family="Helvetica,sans-Serif" font-size="10.00">+ operator==()</text>
<text text-anchor="middle" x="378.5" y="-931" font-family="Helvetica,sans-Serif" font-size="10.00">}</text>
</a>
</g>
</g>
<!-- Node5 -->
<g id="node5" class="node">
<title>Node5</title>
<g id="a_node5"><a xlink:title=" ">
<polygon fill="white" stroke="#666666" points="324.5,-855 172.5,-855 172.5,-803 324.5,-803 324.5,-855"/>
<text text-anchor="start" x="180.5" y="-843" font-family="Helvetica,sans-Serif" font-size="10.00">{std::map&lt; std::string,</text>
<text text-anchor="start" x="180.5" y="-832" font-family="Helvetica,sans-Serif" font-size="10.00"> GamR::Nucleus::LevelScheme</text>
<text text-anchor="middle" x="248.5" y="-821" font-family="Helvetica,sans-Serif" font-size="10.00">Draw::State &gt;</text>
<text text-anchor="middle" x="248.5" y="-810" font-family="Helvetica,sans-Serif" font-size="10.00">||}</text>
</a>
</g>
</g>
<!-- Node1&#45;&gt;Node5 -->
<g id="edge8" class="edge">
<title>Node1&#45;&gt;Node5</title>
<path fill="none" stroke="#404040" d="M302.31,-936.18C289.04,-909.98 276.4,-885.05 266.71,-865.93"/>
<polygon fill="none" stroke="#404040" points="266.65,-865.81 260.37,-862.27 261.22,-855.11 267.5,-858.65 266.65,-865.81"/>
<text text-anchor="middle" x="312" y="-887" font-family="Helvetica,sans-Serif" font-size="10.00"> +elements</text>
</g>
<!-- Node12 -->
<g id="node12" class="node">
<title>Node12</title>
<g id="a_node12"><a xlink:href="../../d9/d6a/class_gam_r_1_1_nucleus_1_1_level_scheme_draw_1_1_transition.html" target="_top" xlink:title=" ">
<polygon fill="white" stroke="#666666" points="459.5,-448 307.5,-448 307.5,-99 459.5,-99 459.5,-448"/>
<text text-anchor="start" x="315.5" y="-436" font-family="Helvetica,sans-Serif" font-size="10.00">{GamR::Nucleus::LevelScheme</text>
<text text-anchor="middle" x="383.5" y="-425" font-family="Helvetica,sans-Serif" font-size="10.00">Draw::Transition</text>
<text text-anchor="start" x="315.5" y="-414" font-family="Helvetica,sans-Serif" font-size="10.00">|+ fStart</text>
<text text-anchor="start" x="315.5" y="-403" font-family="Helvetica,sans-Serif" font-size="10.00">+ fStop</text>
<text text-anchor="start" x="315.5" y="-392" font-family="Helvetica,sans-Serif" font-size="10.00">+ fWidth</text>
<text text-anchor="start" x="315.5" y="-381" font-family="Helvetica,sans-Serif" font-size="10.00">+ fLabel</text>
<text text-anchor="start" x="315.5" y="-370" font-family="Helvetica,sans-Serif" font-size="10.00">+ fLabelBox</text>
<text text-anchor="start" x="315.5" y="-359" font-family="Helvetica,sans-Serif" font-size="10.00">+ textsize</text>
<text text-anchor="start" x="315.5" y="-348" font-family="Helvetica,sans-Serif" font-size="10.00">|+ Transition()</text>
<text text-anchor="start" x="315.5" y="-337" font-family="Helvetica,sans-Serif" font-size="10.00">+ Transition()</text>
<text text-anchor="start" x="315.5" y="-326" font-family="Helvetica,sans-Serif" font-size="10.00">+ ~Transition()</text>
<text text-anchor="start" x="315.5" y="-315" font-family="Helvetica,sans-Serif" font-size="10.00">+ SetStartStop()</text>
<text text-anchor="start" x="315.5" y="-304" font-family="Helvetica,sans-Serif" font-size="10.00">+ Paint()</text>
<text text-anchor="start" x="315.5" y="-293" font-family="Helvetica,sans-Serif" font-size="10.00">+ DistancetoPrimitive()</text>
<text text-anchor="start" x="315.5" y="-282" font-family="Helvetica,sans-Serif" font-size="10.00">+ ExecuteEvent()</text>
<text text-anchor="start" x="315.5" y="-271" font-family="Helvetica,sans-Serif" font-size="10.00">+ Draw()</text>
<text text-anchor="start" x="315.5" y="-260" font-family="Helvetica,sans-Serif" font-size="10.00">+ GetX1()</text>
<text text-anchor="start" x="315.5" y="-249" font-family="Helvetica,sans-Serif" font-size="10.00">+ GetX2()</text>
<text text-anchor="start" x="315.5" y="-238" font-family="Helvetica,sans-Serif" font-size="10.00">+ GetY1()</text>
<text text-anchor="start" x="315.5" y="-227" font-family="Helvetica,sans-Serif" font-size="10.00">+ GetY2()</text>
<text text-anchor="start" x="315.5" y="-216" font-family="Helvetica,sans-Serif" font-size="10.00">+ GetPerpTheta()</text>
<text text-anchor="start" x="315.5" y="-205" font-family="Helvetica,sans-Serif" font-size="10.00">+ GetLength()</text>
<text text-anchor="start" x="315.5" y="-194" font-family="Helvetica,sans-Serif" font-size="10.00">+ GetWidth()</text>
<text text-anchor="start" x="315.5" y="-183" font-family="Helvetica,sans-Serif" font-size="10.00">+ GetWidthX()</text>
<text text-anchor="start" x="315.5" y="-172" font-family="Helvetica,sans-Serif" font-size="10.00">+ GetWidthY()</text>
<text text-anchor="start" x="315.5" y="-161" font-family="Helvetica,sans-Serif" font-size="10.00">+ GetHeadWidth()</text>
<text text-anchor="start" x="315.5" y="-150" font-family="Helvetica,sans-Serif" font-size="10.00">+ GetHeadWidthX()</text>
<text text-anchor="start" x="315.5" y="-139" font-family="Helvetica,sans-Serif" font-size="10.00">+ GetHeadWidthY()</text>
<text text-anchor="start" x="315.5" y="-128" font-family="Helvetica,sans-Serif" font-size="10.00">+ GetHeadLength()</text>
<text text-anchor="start" x="315.5" y="-117" font-family="Helvetica,sans-Serif" font-size="10.00">+ PaintArrow()</text>
<text text-anchor="middle" x="383.5" y="-106" font-family="Helvetica,sans-Serif" font-size="10.00">}</text>
</a>
</g>
</g>
<!-- Node1&#45;&gt;Node12 -->
<g id="edge16" class="edge">
<title>Node1&#45;&gt;Node12</title>
<path fill="none" stroke="#404040" d="M355.24,-923.73C341.5,-804.8 329.16,-639.71 342.5,-495 343.55,-483.63 344.89,-471.98 346.45,-460.25"/>
<polygon fill="none" stroke="#404040" points="346.5,-459.9 343.37,-453.4 348.16,-448.01 351.29,-454.5 346.5,-459.9"/>
<text text-anchor="middle" x="359" y="-777" font-family="Helvetica,sans-Serif" font-size="10.00"> +fFinal</text>
<text text-anchor="middle" x="359" y="-766" font-family="Helvetica,sans-Serif" font-size="10.00">+fInitial</text>
</g>
<!-- Node2 -->
<g id="node2" class="node">
<title>Node2</title>
<g id="a_node2"><a xlink:title=" ">
<polygon fill="white" stroke="#666666" points="507,-1339 450,-1339 450,-1309 507,-1309 507,-1339"/>
<text text-anchor="middle" x="478.5" y="-1327" font-family="Helvetica,sans-Serif" font-size="10.00">{TNamed</text>
<text text-anchor="middle" x="478.5" y="-1316" font-family="Helvetica,sans-Serif" font-size="10.00">||}</text>
</a>
</g>
</g>
<!-- Node2&#45;&gt;Node1 -->
<g id="edge1" class="edge">
<title>Node2&#45;&gt;Node1</title>
<path fill="none" stroke="#63b8ff" d="M468.46,-1299.45C463.05,-1286.76 455.85,-1269.88 447.87,-1251.18"/>
<polygon fill="none" stroke="#63b8ff" points="465.25,-1300.86 472.4,-1308.68 471.69,-1298.11 465.25,-1300.86"/>
</g>
<!-- Node4 -->
<g id="node4" class="node">
<title>Node4</title>
<g id="a_node4"><a xlink:href="../../d3/ddb/class_gam_r_1_1_nucleus_1_1_level_scheme_draw_1_1_scheme.html" target="_top" xlink:title=" ">
<polygon fill="white" stroke="#666666" points="585.5,-745 433.5,-745 433.5,-495 585.5,-495 585.5,-745"/>
<text text-anchor="start" x="441.5" y="-733" font-family="Helvetica,sans-Serif" font-size="10.00">{GamR::Nucleus::LevelScheme</text>
<text text-anchor="middle" x="509.5" y="-722" font-family="Helvetica,sans-Serif" font-size="10.00">Draw::Scheme</text>
<text text-anchor="start" x="441.5" y="-711" font-family="Helvetica,sans-Serif" font-size="10.00">|+ ylo</text>
<text text-anchor="start" x="441.5" y="-700" font-family="Helvetica,sans-Serif" font-size="10.00">+ yhi</text>
<text text-anchor="start" x="441.5" y="-689" font-family="Helvetica,sans-Serif" font-size="10.00">+ xlo</text>
<text text-anchor="start" x="441.5" y="-678" font-family="Helvetica,sans-Serif" font-size="10.00">+ xhi</text>
<text text-anchor="start" x="441.5" y="-667" font-family="Helvetica,sans-Serif" font-size="10.00">+ textsize</text>
<text text-anchor="start" x="441.5" y="-656" font-family="Helvetica,sans-Serif" font-size="10.00">+ fWidthScale</text>
<text text-anchor="start" x="441.5" y="-645" font-family="Helvetica,sans-Serif" font-size="10.00">+ fDrawHist</text>
<text text-anchor="start" x="441.5" y="-634" font-family="Helvetica,sans-Serif" font-size="10.00">+ fAxis</text>
<text text-anchor="start" x="441.5" y="-623" font-family="Helvetica,sans-Serif" font-size="10.00">|+ Scheme()</text>
<text text-anchor="start" x="441.5" y="-612" font-family="Helvetica,sans-Serif" font-size="10.00">+ Scheme()</text>
<text text-anchor="start" x="441.5" y="-601" font-family="Helvetica,sans-Serif" font-size="10.00">+ AddState()</text>
<text text-anchor="start" x="441.5" y="-590" font-family="Helvetica,sans-Serif" font-size="10.00">+ AddTransition()</text>
<text text-anchor="start" x="441.5" y="-579" font-family="Helvetica,sans-Serif" font-size="10.00">+ SetDrawRange()</text>
<text text-anchor="start" x="441.5" y="-568" font-family="Helvetica,sans-Serif" font-size="10.00">+ SetTextSize()</text>
<text text-anchor="start" x="441.5" y="-557" font-family="Helvetica,sans-Serif" font-size="10.00">+ PaintArrow()</text>
<text text-anchor="start" x="441.5" y="-546" font-family="Helvetica,sans-Serif" font-size="10.00">+ Paint()</text>
<text text-anchor="start" x="441.5" y="-535" font-family="Helvetica,sans-Serif" font-size="10.00">+ ReadScheme()</text>
<text text-anchor="start" x="441.5" y="-524" font-family="Helvetica,sans-Serif" font-size="10.00">+ WriteScheme()</text>
<text text-anchor="start" x="441.5" y="-513" font-family="Helvetica,sans-Serif" font-size="10.00">+ ClassDef()</text>
<text text-anchor="middle" x="509.5" y="-502" font-family="Helvetica,sans-Serif" font-size="10.00">}</text>
</a>
</g>
</g>
<!-- Node2&#45;&gt;Node4 -->
<g id="edge4" class="edge">
<title>Node2&#45;&gt;Node4</title>
<path fill="none" stroke="#63b8ff" d="M479.56,-1298.89C483.37,-1212.73 496.47,-916.14 504.02,-745.17"/>
<polygon fill="none" stroke="#63b8ff" points="476.06,-1298.83 479.12,-1308.98 483.06,-1299.14 476.06,-1298.83"/>
</g>
<!-- Node3 -->
<g id="node3" class="node">
<title>Node3</title>
<g id="a_node3"><a xlink:title=" ">
<polygon fill="white" stroke="#666666" points="407,-1339 350,-1339 350,-1309 407,-1309 407,-1339"/>
<text text-anchor="middle" x="378.5" y="-1327" font-family="Helvetica,sans-Serif" font-size="10.00">{TAttLine</text>
<text text-anchor="middle" x="378.5" y="-1316" font-family="Helvetica,sans-Serif" font-size="10.00">||}</text>
</a>
</g>
</g>
<!-- Node3&#45;&gt;Node1 -->
<g id="edge2" class="edge">
<title>Node3&#45;&gt;Node1</title>
<path fill="none" stroke="#63b8ff" d="M378.5,-1298.31C378.5,-1285.76 378.5,-1269.33 378.5,-1251.18"/>
<polygon fill="none" stroke="#63b8ff" points="375,-1298.68 378.5,-1308.68 382,-1298.68 375,-1298.68"/>
</g>
<!-- Node4&#45;&gt;Node1 -->
<g id="edge3" class="edge">
<title>Node4&#45;&gt;Node1</title>
<path fill="none" stroke="#404040" d="M453.75,-745.09C446.29,-764.25 439.25,-783.99 433.5,-803 422.96,-837.86 413.97,-875.76 406.51,-912.17"/>
<polygon fill="none" stroke="#404040" points="406.51,-912.17 409.24,-918.85 404.14,-923.94 401.4,-917.27 406.51,-912.17"/>
<text text-anchor="middle" x="457.5" y="-826.5" font-family="Helvetica,sans-Serif" font-size="10.00"> +fScheme</text>
</g>
<!-- Node4&#45;&gt;Node12 -->
<g id="edge15" class="edge">
<title>Node4&#45;&gt;Node12</title>
<path fill="none" stroke="#404040" d="M447.64,-494.88C445.14,-488.87 442.74,-482.89 440.5,-477 438.32,-471.28 436.19,-465.44 434.1,-459.52"/>
<polygon fill="none" stroke="#404040" points="434.06,-459.4 428.32,-455.03 430.14,-448.05 435.88,-452.42 434.06,-459.4"/>
<text text-anchor="middle" x="464.5" y="-469" font-family="Helvetica,sans-Serif" font-size="10.00"> +fScheme</text>
</g>
<!-- Node5&#45;&gt;Node4 -->
<g id="edge5" class="edge">
<title>Node5&#45;&gt;Node4</title>
<path fill="none" stroke="#404040" d="M252.57,-802.92C256.18,-788.96 262.94,-772.53 275.5,-763 325.4,-725.14 362.51,-773.36 422.63,-744.24"/>
<polygon fill="none" stroke="#404040" points="422.78,-744.15 426.11,-737.76 433.3,-738.38 429.96,-744.77 422.78,-744.15"/>
<text text-anchor="middle" x="295.5" y="-771.5" font-family="Helvetica,sans-Serif" font-size="10.00"> +fStates</text>
</g>
<!-- Node6 -->
<g id="node6" class="node">
<title>Node6</title>
<g id="a_node6"><a xlink:title=" ">
<polygon fill="white" stroke="#666666" points="309.5,-1339 247.5,-1339 247.5,-1309 309.5,-1309 309.5,-1339"/>
<text text-anchor="middle" x="278.5" y="-1327" font-family="Helvetica,sans-Serif" font-size="10.00">{std::string</text>
<text text-anchor="middle" x="278.5" y="-1316" font-family="Helvetica,sans-Serif" font-size="10.00">||}</text>
</a>
</g>
</g>
<!-- Node6&#45;&gt;Node1 -->
<g id="edge19" class="edge">
<title>Node6&#45;&gt;Node1</title>
<path fill="none" stroke="#404040" d="M284.6,-1308.68C289.27,-1297.74 296.27,-1281.34 304.38,-1262.32"/>
<polygon fill="none" stroke="#404040" points="304.42,-1262.22 303.1,-1255.13 309.13,-1251.18 310.45,-1258.27 304.42,-1262.22"/>
<text text-anchor="middle" x="325" y="-1283" font-family="Helvetica,sans-Serif" font-size="10.00"> +fLeftLab</text>
<text text-anchor="middle" x="325" y="-1272" font-family="Helvetica,sans-Serif" font-size="10.00">+fRightLab</text>
</g>
<!-- Node6&#45;&gt;Node5 -->
<g id="edge6" class="edge">
<title>Node6&#45;&gt;Node5</title>
<path fill="none" stroke="#404040" d="M275.06,-1308.76C271.72,-1294.3 266.84,-1271.24 264.5,-1251 248.23,-1110.14 247.42,-941.19 247.99,-867.48"/>
<polygon fill="none" stroke="#404040" points="248,-867.25 244.05,-861.22 248.11,-855.25 252.05,-861.29 248,-867.25"/>
<text text-anchor="middle" x="279" y="-1085" font-family="Helvetica,sans-Serif" font-size="10.00"> +keys</text>
</g>
<!-- Node7 -->
<g id="node7" class="node">
<title>Node7</title>
<g id="a_node7"><a xlink:title=" ">
<polygon fill="white" stroke="#666666" points="326.5,-1417 230.5,-1417 230.5,-1376 326.5,-1376 326.5,-1417"/>
<text text-anchor="start" x="238.5" y="-1405" font-family="Helvetica,sans-Serif" font-size="10.00">{std::basic_string&lt;</text>
<text text-anchor="middle" x="278.5" y="-1394" font-family="Helvetica,sans-Serif" font-size="10.00"> Char &gt;</text>
<text text-anchor="middle" x="278.5" y="-1383" font-family="Helvetica,sans-Serif" font-size="10.00">||}</text>
</a>
</g>
</g>
<!-- Node7&#45;&gt;Node6 -->
<g id="edge7" class="edge">
<title>Node7&#45;&gt;Node6</title>
<path fill="none" stroke="#63b8ff" d="M278.5,-1365.58C278.5,-1356.51 278.5,-1346.95 278.5,-1339.39"/>
<polygon fill="none" stroke="#63b8ff" points="275,-1365.86 278.5,-1375.86 282,-1365.86 275,-1365.86"/>
</g>
<!-- Node8 -->
<g id="node8" class="node">
<title>Node8</title>
<g id="a_node8"><a xlink:title=" ">
<polygon fill="white" stroke="#666666" points="160,-1102.5 69,-1102.5 69,-1072.5 160,-1072.5 160,-1102.5"/>
<text text-anchor="middle" x="114.5" y="-1090.5" font-family="Helvetica,sans-Serif" font-size="10.00">{std::map&lt; K, T &gt;</text>
<text text-anchor="middle" x="114.5" y="-1079.5" font-family="Helvetica,sans-Serif" font-size="10.00">||}</text>
</a>
</g>
</g>
<!-- Node8&#45;&gt;Node5 -->
<g id="edge9" class="edge">
<title>Node8&#45;&gt;Node5</title>
<path fill="none" stroke="orange" d="M106.11,-1062.79C92.69,-1020.21 71.87,-929.95 113.5,-873 117.56,-867.44 143.91,-858.51 172.27,-850.23"/>
<polygon fill="orange" stroke="orange" points="102.79,-1063.9 109.24,-1072.3 109.44,-1061.71 102.79,-1063.9"/>
<text text-anchor="start" x="113.5" y="-898" font-family="Helvetica,sans-Serif" font-size="10.00"> &lt; std::string, GamR</text>
<text text-anchor="start" x="113.5" y="-887" font-family="Helvetica,sans-Serif" font-size="10.00">::Nucleus::LevelSchemeDraw</text>
<text text-anchor="middle" x="177.5" y="-876" font-family="Helvetica,sans-Serif" font-size="10.00">::State &gt;</text>
</g>
<!-- Node9 -->
<g id="node9" class="node">
<title>Node9</title>
<g id="a_node9"><a xlink:title=" ">
<polygon fill="white" stroke="#666666" points="199,-1339 170,-1339 170,-1309 199,-1309 199,-1339"/>
<text text-anchor="middle" x="184.5" y="-1327" font-family="Helvetica,sans-Serif" font-size="10.00">{K</text>
<text text-anchor="middle" x="184.5" y="-1316" font-family="Helvetica,sans-Serif" font-size="10.00">||}</text>
</a>
</g>
</g>
<!-- Node9&#45;&gt;Node8 -->
<g id="edge10" class="edge">
<title>Node9&#45;&gt;Node8</title>
<path fill="none" stroke="#404040" d="M180.23,-1308.68C168.73,-1270.16 137,-1163.89 122.24,-1114.44"/>
<polygon fill="none" stroke="#404040" points="122.15,-1114.13 116.6,-1109.52 118.72,-1102.63 124.27,-1107.23 122.15,-1114.13"/>
<text text-anchor="middle" x="189" y="-1277.5" font-family="Helvetica,sans-Serif" font-size="10.00"> +keys</text>
</g>
<!-- Node10 -->
<g id="node10" class="node">
<title>Node10</title>
<g id="a_node10"><a xlink:title=" ">
<polygon fill="white" stroke="#666666" points="91,-1339 62,-1339 62,-1309 91,-1309 91,-1339"/>
<text text-anchor="middle" x="76.5" y="-1327" font-family="Helvetica,sans-Serif" font-size="10.00">{T</text>
<text text-anchor="middle" x="76.5" y="-1316" font-family="Helvetica,sans-Serif" font-size="10.00">||}</text>
</a>
</g>
</g>
<!-- Node10&#45;&gt;Node8 -->
<g id="edge11" class="edge">
<title>Node10&#45;&gt;Node8</title>
<path fill="none" stroke="#404040" d="M83.7,-1308.99C86.23,-1303.51 88.85,-1297.09 90.5,-1291 107.27,-1229.27 112.32,-1153.79 113.84,-1114.73"/>
<polygon fill="none" stroke="#404040" points="113.85,-1114.51 110.05,-1108.38 114.25,-1102.52 118.05,-1108.65 113.85,-1114.51"/>
<text text-anchor="middle" x="121" y="-1277.5" font-family="Helvetica,sans-Serif" font-size="10.00"> +elements</text>
</g>
<!-- Node14 -->
<g id="node14" class="node">
<title>Node14</title>
<g id="a_node14"><a xlink:title=" ">
<polygon fill="white" stroke="#666666" points="87,-904.5 0,-904.5 0,-874.5 87,-874.5 87,-904.5"/>
<text text-anchor="middle" x="43.5" y="-892.5" font-family="Helvetica,sans-Serif" font-size="10.00">{std::vector&lt; T &gt;</text>
<text text-anchor="middle" x="43.5" y="-881.5" font-family="Helvetica,sans-Serif" font-size="10.00">||}</text>
</a>
</g>
</g>
<!-- Node10&#45;&gt;Node14 -->
<g id="edge18" class="edge">
<title>Node10&#45;&gt;Node14</title>
<path fill="none" stroke="#404040" d="M61.79,-1315.35C52.97,-1309.88 42.52,-1301.61 37.5,-1291 33.32,-1282.16 37.42,-1278.78 37.5,-1269 38.55,-1136.72 41.66,-978.47 42.94,-916.86"/>
<polygon fill="none" stroke="#404040" points="42.94,-916.59 39.07,-910.51 43.2,-904.59 47.07,-910.67 42.94,-916.59"/>
<text text-anchor="middle" x="62" y="-1277.5" font-family="Helvetica,sans-Serif" font-size="10.00"> +elements</text>
</g>
<!-- Node11 -->
<g id="node11" class="node">
<title>Node11</title>
<g id="a_node11"><a xlink:title=" ">
<polygon fill="white" stroke="#666666" points="453.5,-52 313.5,-52 313.5,0 453.5,0 453.5,-52"/>
<text text-anchor="start" x="321.5" y="-40" font-family="Helvetica,sans-Serif" font-size="10.00">{std::vector&lt; GamR::</text>
<text text-anchor="start" x="321.5" y="-29" font-family="Helvetica,sans-Serif" font-size="10.00">Nucleus::LevelSchemeDraw</text>
<text text-anchor="middle" x="383.5" y="-18" font-family="Helvetica,sans-Serif" font-size="10.00">::Transition &gt;</text>
<text text-anchor="middle" x="383.5" y="-7" font-family="Helvetica,sans-Serif" font-size="10.00">||}</text>
</a>
</g>
</g>
<!-- Node11&#45;&gt;Node4 -->
<g id="edge12" class="edge">
<title>Node11&#45;&gt;Node4</title>
<path fill="none" stroke="#404040" d="M426.2,-52.24C442.42,-64.22 459.21,-80.08 468.5,-99 527.43,-218.96 532.04,-373.44 525.37,-482.77"/>
<polygon fill="none" stroke="#404040" points="525.36,-482.89 528.96,-489.14 524.58,-494.87 520.98,-488.62 525.36,-482.89"/>
<text text-anchor="middle" x="557.5" y="-271" font-family="Helvetica,sans-Serif" font-size="10.00"> +fTransitions</text>
</g>
<!-- Node12&#45;&gt;Node11 -->
<g id="edge13" class="edge">
<title>Node12&#45;&gt;Node11</title>
<path fill="none" stroke="#404040" d="M383.5,-99C383.5,-86.33 383.5,-74.53 383.5,-64.31"/>
<polygon fill="none" stroke="#404040" points="383.5,-64.25 379.5,-58.25 383.5,-52.25 387.5,-58.25 383.5,-64.25"/>
<text text-anchor="middle" x="408" y="-73" font-family="Helvetica,sans-Serif" font-size="10.00"> +elements</text>
</g>
<!-- Node13 -->
<g id="node13" class="node">
<title>Node13</title>
<g id="a_node13"><a xlink:title=" ">
<polygon fill="white" stroke="#666666" points="415,-635 352,-635 352,-605 415,-605 415,-635"/>
<text text-anchor="middle" x="383.5" y="-623" font-family="Helvetica,sans-Serif" font-size="10.00">{TPolyLine</text>
<text text-anchor="middle" x="383.5" y="-612" font-family="Helvetica,sans-Serif" font-size="10.00">||}</text>
</a>
</g>
</g>
<!-- Node13&#45;&gt;Node12 -->
<g id="edge14" class="edge">
<title>Node13&#45;&gt;Node12</title>
<path fill="none" stroke="#63b8ff" d="M383.5,-594.25C383.5,-562.76 383.5,-505.56 383.5,-448.15"/>
<polygon fill="none" stroke="#63b8ff" points="380,-594.64 383.5,-604.64 387,-594.64 380,-594.64"/>
</g>
<!-- Node14&#45;&gt;Node11 -->
<g id="edge17" class="edge">
<title>Node14&#45;&gt;Node11</title>
<path fill="none" stroke="orange" d="M73.46,-868.42C99.65,-848.23 133.5,-814.48 133.5,-775 133.5,-775 133.5,-775 133.5,-272.5 133.5,-164.98 252.67,-88.9 326.46,-52.1"/>
<polygon fill="orange" stroke="orange" points="71.23,-865.72 65.29,-874.49 75.4,-871.34 71.23,-865.72"/>
<text text-anchor="start" x="133.5" y="-623" font-family="Helvetica,sans-Serif" font-size="10.00"> &lt; GamR::Nucleus::LevelScheme</text>
<text text-anchor="middle" x="205.5" y="-612" font-family="Helvetica,sans-Serif" font-size="10.00">Draw::Transition &gt;</text>
</g>
</g>
</svg>
        <g id="navigator" transform="translate(0 0)" fill="#404254">
                <rect fill="#f2f5e9" fill-opacity="0.5" stroke="#606060" stroke-width=".5" x="0" y="0" width="60" height="60"/>
                <use id="zoomplus" xlink:href="#zoomPlus" x="17" y="9" onmousedown="handleZoom(evt,'in')"/>
                <use id="zoomminus" xlink:href="#zoomMin" x="42" y="9" onmousedown="handleZoom(evt,'out')"/>
                <use id="reset" xlink:href="#resetDef" x="30" y="36" onmousedown="handleReset()"/>
                <g id="arrowUp" xlink:href="#dirArrow" transform="translate(30 24)" onmousedown="handlePan(0,-1)">
                  <use xlink:href="#rim" fill="#404040">
                        <set attributeName="fill" to="#808080" begin="arrowUp.mouseover" end="arrowUp.mouseout"/>
                  </use>
                  <path fill="none" stroke="white" stroke-width="1.5" d="M0,-3.0v7 M-2.5,-0.5L0,-3.0L2.5,-0.5"/>
                </g>
                <g id="arrowRight" xlink:href="#dirArrow" transform="rotate(90) translate(36 -43)" onmousedown="handlePan(1,0)">
                  <use xlink:href="#rim" fill="#404040">
                        <set attributeName="fill" to="#808080" begin="arrowRight.mouseover" end="arrowRight.mouseout"/>
                  </use>
                  <path fill="none" stroke="white" stroke-width="1.5" d="M0,-3.0v7 M-2.5,-0.5L0,-3.0L2.5,-0.5"/>
                </g>
                <g id="arrowDown" xlink:href="#dirArrow" transform="rotate(180) translate(-30 -48)" onmousedown="handlePan(0,1)">
                  <use xlink:href="#rim" fill="#404040">
                        <set attributeName="fill" to="#808080" begin="arrowDown.mouseover" end="arrowDown.mouseout"/>
                  </use>
                  <path fill="none" stroke="white" stroke-width="1.5" d="M0,-3.0v7 M-2.5,-0.5L0,-3.0L2.5,-0.5"/>
                </g>
                <g id="arrowLeft" xlink:href="#dirArrow" transform="rotate(270) translate(-36 17)" onmousedown="handlePan(-1,0)">
                  <use xlink:href="#rim" fill="#404040">
                        <set attributeName="fill" to="#808080" begin="arrowLeft.mouseover" end="arrowLeft.mouseout"/>
                  </use>
                  <path fill="none" stroke="white" stroke-width="1.5" d="M0,-3.0v7 M-2.5,-0.5L0,-3.0L2.5,-0.5"/>
                </g>
        </g>
        <svg viewBox="0 0 15 15" width="100%" height="30px" preserveAspectRatio="xMaxYMin meet">
         <g id="arrow_out" transform="scale(0.3 0.3)">
          <a xlink:href="class_gam_r_1_1_nucleus_1_1_level_scheme_draw_1_1_state__coll__graph_org.svg" target="_base">
           <rect id="button" ry="5" rx="5" y="6" x="6" height="38" width="38"
                fill="#f2f5e9" fill-opacity="0.5" stroke="#606060" stroke-width="1.0"/>
           <path id="arrow"
             d="M 11.500037,31.436501 C 11.940474,20.09759 22.043105,11.32322 32.158766,21.979434 L 37.068811,17.246167 C 37.068811,17.246167 37.088388,32 37.088388,32 L 22.160133,31.978069 C 22.160133,31.978069 26.997745,27.140456 26.997745,27.140456 C 18.528582,18.264221 13.291696,25.230495 11.500037,31.436501 z"
             style="fill:#404040;"/>
          </a>
         </g>
        </svg>
</svg>
