<?xml version="1.0" encoding="UTF-8" standalone="no"?>
<!DOCTYPE svg PUBLIC "-//W3C//DTD SVG 1.1//EN"
 "http://www.w3.org/Graphics/SVG/1.1/DTD/svg11.dtd">
<!-- Generated by graphviz version 6.0.2 (20221011.1828)
 -->
<!-- Title: src/lib/angdist/AngCorr.cc Pages: 1 -->
<!--zoomable 302 -->
<svg id="main" version="1.1" xmlns="http://www.w3.org/2000/svg" xmlns:xlink="http://www.w3.org/1999/xlink" xml:space="preserve" onload="init(evt)">
<style type="text/css"><![CDATA[
.edge:hover path { stroke: red; }
.edge:hover polygon { stroke: red; fill: red; }
]]></style>
<script type="text/javascript"><![CDATA[
var edges = document.getElementsByTagName('g');
if (edges && edges.length) {
  for (var i=0;i<edges.length;i++) {
    if (edges[i].id.substr(0,4)=='edge') {
      edges[i].setAttribute('class','edge');
    }
  }
}
]]></script>
        <defs>
                <circle id="rim" cx="0" cy="0" r="7"/>
                <circle id="rim2" cx="0" cy="0" r="3.5"/>
                <g id="zoomPlus">
                        <use xlink:href="#rim" fill="#404040">
                                <set attributeName="fill" to="#808080" begin="zoomplus.mouseover" end="zoomplus.mouseout"/>
                        </use>
                        <path d="M-4,0h8M0,-4v8" fill="none" stroke="white" stroke-width="1.5" pointer-events="none"/>
                </g>
                <g id="zoomMin">
                        <use xlink:href="#rim" fill="#404040">
                                <set attributeName="fill" to="#808080" begin="zoomminus.mouseover" end="zoomminus.mouseout"/>
                        </use>
                        <path d="M-4,0h8" fill="none" stroke="white" stroke-width="1.5" pointer-events="none"/>
                </g>
                <g id="dirArrow">
                        <path fill="none" stroke="white" stroke-width="1.5" d="M0,-3.0v7 M-2.5,-0.5L0,-3.0L2.5,-0.5"/>
                </g>
               <g id="resetDef">
                       <use xlink:href="#rim2" fill="#404040">
                               <set attributeName="fill" to="#808080" begin="reset.mouseover" end="reset.mouseout"/>
                       </use>
               </g>
        </defs>

<script type="text/javascript">
var viewWidth = 1764;
var viewHeight = 302;
var sectionId = 'dynsection-0';
</script>
<script xlink:href="../../svgpan.js"/>
<svg id="graph" class="graph">
<g id="viewport">
<title>src/lib/angdist/AngCorr.cc</title>
<!-- Node1 -->
<g id="node1" class="node">
<title>Node1</title>
<g id="a_node1"><a xlink:title=" ">
<polygon fill="#999999" stroke="#666666" points="353.5,-294 225.5,-294 225.5,-275 353.5,-275 353.5,-294"/>
<text text-anchor="middle" x="289.5" y="-282" font-family="Helvetica,sans-Serif" font-size="10.00">src/lib/angdist/AngCorr.cc</text>
</a>
</g>
</g>
<!-- Node2 -->
<g id="node2" class="node">
<title>Node2</title>
<g id="a_node2"><a xlink:title=" ">
<polygon fill="#e0e0e0" stroke="#999999" points="235.5,-239 173.5,-239 173.5,-220 235.5,-220 235.5,-239"/>
<text text-anchor="middle" x="204.5" y="-227" font-family="Helvetica,sans-Serif" font-size="10.00">TLegend.h</text>
</a>
</g>
</g>
<!-- Node1&#45;&gt;Node2 -->
<g id="edge1" class="edge">
<title>Node1&#45;&gt;Node2</title>
<path fill="none" stroke="#63b8ff" d="M275.84,-274.98C262.66,-266.77 242.47,-254.18 226.93,-244.49"/>
<polygon fill="#63b8ff" stroke="#63b8ff" points="228.74,-241.49 218.41,-239.17 225.04,-247.43 228.74,-241.49"/>
</g>
<!-- Node3 -->
<g id="node3" class="node">
<title>Node3</title>
<g id="a_node3"><a xlink:href="../../d7/d1d/_cut_8hh.html" target="_top" xlink:title=" ">
<polygon fill="white" stroke="#666666" points="325,-239 254,-239 254,-220 325,-220 325,-239"/>
<text text-anchor="middle" x="289.5" y="-227" font-family="Helvetica,sans-Serif" font-size="10.00">spect/Cut.hh</text>
</a>
</g>
</g>
<!-- Node1&#45;&gt;Node3 -->
<g id="edge2" class="edge">
<title>Node1&#45;&gt;Node3</title>
<path fill="none" stroke="#63b8ff" d="M289.5,-274.75C289.5,-267.8 289.5,-257.85 289.5,-249.13"/>
<polygon fill="#63b8ff" stroke="#63b8ff" points="293,-249.09 289.5,-239.09 286,-249.09 293,-249.09"/>
</g>
<!-- Node23 -->
<g id="node23" class="node">
<title>Node23</title>
<g id="a_node23"><a xlink:href="../../db/db9/_ang_corr_8hh.html" target="_top" xlink:title=" ">
<polygon fill="white" stroke="#666666" points="1340,-239 1275,-239 1275,-220 1340,-220 1340,-239"/>
<text text-anchor="middle" x="1307.5" y="-227" font-family="Helvetica,sans-Serif" font-size="10.00">AngCorr.hh</text>
</a>
</g>
</g>
<!-- Node1&#45;&gt;Node23 -->
<g id="edge34" class="edge">
<title>Node1&#45;&gt;Node23</title>
<path fill="none" stroke="#63b8ff" d="M353.57,-280.16C544.16,-270.24 1104.24,-241.08 1264.32,-232.75"/>
<polygon fill="#63b8ff" stroke="#63b8ff" points="1264.9,-236.22 1274.71,-232.21 1264.54,-229.23 1264.9,-236.22"/>
</g>
<!-- Node4 -->
<g id="node4" class="node">
<title>Node4</title>
<g id="a_node4"><a xlink:title=" ">
<polygon fill="#e0e0e0" stroke="#999999" points="185,-184 134,-184 134,-165 185,-165 185,-184"/>
<text text-anchor="middle" x="159.5" y="-172" font-family="Helvetica,sans-Serif" font-size="10.00">memory</text>
</a>
</g>
</g>
<!-- Node3&#45;&gt;Node4 -->
<g id="edge3" class="edge">
<title>Node3&#45;&gt;Node4</title>
<path fill="none" stroke="#63b8ff" d="M268.61,-219.98C247.42,-211.34 214.37,-197.87 190.2,-188.02"/>
<polygon fill="#63b8ff" stroke="#63b8ff" points="191.35,-184.7 180.77,-184.17 188.71,-191.19 191.35,-184.7"/>
</g>
<!-- Node5 -->
<g id="node5" class="node">
<title>Node5</title>
<g id="a_node5"><a xlink:title=" ">
<polygon fill="#e0e0e0" stroke="#999999" points="1280.5,-19 1236.5,-19 1236.5,0 1280.5,0 1280.5,-19"/>
<text text-anchor="middle" x="1258.5" y="-7" font-family="Helvetica,sans-Serif" font-size="10.00">vector</text>
</a>
</g>
</g>
<!-- Node3&#45;&gt;Node5 -->
<g id="edge4" class="edge">
<title>Node3&#45;&gt;Node5</title>
<path fill="none" stroke="#63b8ff" d="M325.27,-227C415.46,-222.88 650.21,-209.91 723.5,-184 773.01,-166.5 872.25,-73.22 921.5,-55 1028.01,-15.59 1164.83,-10.29 1226.2,-10.08"/>
<polygon fill="#63b8ff" stroke="#63b8ff" points="1226.41,-13.58 1236.41,-10.09 1226.42,-6.58 1226.41,-13.58"/>
</g>
<!-- Node6 -->
<g id="node6" class="node">
<title>Node6</title>
<g id="a_node6"><a xlink:title=" ">
<polygon fill="#e0e0e0" stroke="#999999" points="179,-74 116,-74 116,-55 179,-55 179,-74"/>
<text text-anchor="middle" x="147.5" y="-62" font-family="Helvetica,sans-Serif" font-size="10.00">TCanvas.h</text>
</a>
</g>
</g>
<!-- Node3&#45;&gt;Node6 -->
<g id="edge5" class="edge">
<title>Node3&#45;&gt;Node6</title>
<path fill="none" stroke="#63b8ff" d="M253.95,-221.3C207.88,-211.61 132.46,-194.39 124.5,-184 101.66,-154.19 122.07,-108.04 136.37,-83.04"/>
<polygon fill="#63b8ff" stroke="#63b8ff" points="139.48,-84.67 141.62,-74.29 133.47,-81.06 139.48,-84.67"/>
</g>
<!-- Node7 -->
<g id="node7" class="node">
<title>Node7</title>
<g id="a_node7"><a xlink:title=" ">
<polygon fill="#e0e0e0" stroke="#999999" points="98,-74 55,-74 55,-55 98,-55 98,-74"/>
<text text-anchor="middle" x="76.5" y="-62" font-family="Helvetica,sans-Serif" font-size="10.00">TH2.h</text>
</a>
</g>
</g>
<!-- Node3&#45;&gt;Node7 -->
<g id="edge6" class="edge">
<title>Node3&#45;&gt;Node7</title>
<path fill="none" stroke="#63b8ff" d="M278.35,-219.97C243.99,-193.68 139.47,-113.69 95.89,-80.34"/>
<polygon fill="#63b8ff" stroke="#63b8ff" points="97.87,-77.44 87.8,-74.15 93.61,-83 97.87,-77.44"/>
</g>
<!-- Node8 -->
<g id="node8" class="node">
<title>Node8</title>
<g id="a_node8"><a xlink:title=" ">
<polygon fill="#e0e0e0" stroke="#999999" points="77,-184 0,-184 0,-165 77,-165 77,-184"/>
<text text-anchor="middle" x="38.5" y="-172" font-family="Helvetica,sans-Serif" font-size="10.00">TSpectrum2.h</text>
</a>
</g>
</g>
<!-- Node3&#45;&gt;Node8 -->
<g id="edge7" class="edge">
<title>Node3&#45;&gt;Node8</title>
<path fill="none" stroke="#63b8ff" d="M253.8,-220.96C210.21,-211.76 136.26,-196.14 87.4,-185.83"/>
<polygon fill="#63b8ff" stroke="#63b8ff" points="87.88,-182.35 77.37,-183.71 86.43,-189.2 87.88,-182.35"/>
</g>
<!-- Node9 -->
<g id="node9" class="node">
<title>Node9</title>
<g id="a_node9"><a xlink:href="../../d7/db9/_utilities_8hh.html" target="_top" xlink:title=" ">
<polygon fill="white" stroke="#666666" points="330,-129 247,-129 247,-110 330,-110 330,-129"/>
<text text-anchor="middle" x="288.5" y="-117" font-family="Helvetica,sans-Serif" font-size="10.00">utils/Utilities.hh</text>
</a>
</g>
</g>
<!-- Node3&#45;&gt;Node9 -->
<g id="edge8" class="edge">
<title>Node3&#45;&gt;Node9</title>
<path fill="none" stroke="#63b8ff" d="M289.42,-219.66C289.26,-202.17 288.89,-162.8 288.67,-139.27"/>
<polygon fill="#63b8ff" stroke="#63b8ff" points="292.17,-139.13 288.58,-129.16 285.17,-139.19 292.17,-139.13"/>
</g>
<!-- Node14 -->
<g id="node14" class="node">
<title>Node14</title>
<g id="a_node14"><a xlink:href="../../dd/d50/_gate_8hh.html" target="_top" xlink:title=" ">
<polygon fill="white" stroke="#666666" points="526.5,-129 446.5,-129 446.5,-110 526.5,-110 526.5,-129"/>
<text text-anchor="middle" x="486.5" y="-117" font-family="Helvetica,sans-Serif" font-size="10.00">toolkit/Gate.hh</text>
</a>
</g>
</g>
<!-- Node3&#45;&gt;Node14 -->
<g id="edge15" class="edge">
<title>Node3&#45;&gt;Node14</title>
<path fill="none" stroke="#63b8ff" d="M305.29,-219.84C339.59,-201.04 421.14,-156.33 462.11,-133.87"/>
<polygon fill="#63b8ff" stroke="#63b8ff" points="463.82,-136.92 470.91,-129.05 460.46,-130.79 463.82,-136.92"/>
</g>
<!-- Node22 -->
<g id="node22" class="node">
<title>Node22</title>
<g id="a_node22"><a xlink:href="../../d3/d2c/_transition_8hh.html" target="_top" xlink:title=" ">
<polygon fill="white" stroke="#666666" points="715,-184 606,-184 606,-165 715,-165 715,-184"/>
<text text-anchor="middle" x="660.5" y="-172" font-family="Helvetica,sans-Serif" font-size="10.00">nucleus/Transition.hh</text>
</a>
</g>
</g>
<!-- Node3&#45;&gt;Node22 -->
<g id="edge27" class="edge">
<title>Node3&#45;&gt;Node22</title>
<path fill="none" stroke="#63b8ff" d="M325.07,-223.42C387.38,-214.52 517.11,-195.98 595.72,-184.75"/>
<polygon fill="#63b8ff" stroke="#63b8ff" points="596.58,-188.17 605.99,-183.29 595.59,-181.24 596.58,-188.17"/>
</g>
<!-- Node9&#45;&gt;Node6 -->
<g id="edge12" class="edge">
<title>Node9&#45;&gt;Node6</title>
<path fill="none" stroke="#63b8ff" d="M265.85,-109.98C242.65,-101.27 206.38,-87.63 180.1,-77.75"/>
<polygon fill="#63b8ff" stroke="#63b8ff" points="181.16,-74.41 170.57,-74.17 178.7,-80.97 181.16,-74.41"/>
</g>
<!-- Node9&#45;&gt;Node7 -->
<g id="edge14" class="edge">
<title>Node9&#45;&gt;Node7</title>
<path fill="none" stroke="#63b8ff" d="M251.8,-109.94C217.06,-101.74 163.2,-88.81 108.05,-74.34"/>
<polygon fill="#63b8ff" stroke="#63b8ff" points="108.67,-70.89 98.1,-71.72 106.88,-77.66 108.67,-70.89"/>
</g>
<!-- Node10 -->
<g id="node10" class="node">
<title>Node10</title>
<g id="a_node10"><a xlink:title=" ">
<polygon fill="#e0e0e0" stroke="#999999" points="368,-74 327,-74 327,-55 368,-55 368,-74"/>
<text text-anchor="middle" x="347.5" y="-62" font-family="Helvetica,sans-Serif" font-size="10.00">string</text>
</a>
</g>
</g>
<!-- Node9&#45;&gt;Node10 -->
<g id="edge9" class="edge">
<title>Node9&#45;&gt;Node10</title>
<path fill="none" stroke="#63b8ff" d="M297.98,-109.98C306.7,-102.15 319.84,-90.34 330.4,-80.86"/>
<polygon fill="#63b8ff" stroke="#63b8ff" points="332.75,-83.46 337.85,-74.17 328.07,-78.25 332.75,-83.46"/>
</g>
<!-- Node11 -->
<g id="node11" class="node">
<title>Node11</title>
<g id="a_node11"><a xlink:title=" ">
<polygon fill="#e0e0e0" stroke="#999999" points="247.5,-74 197.5,-74 197.5,-55 247.5,-55 247.5,-74"/>
<text text-anchor="middle" x="222.5" y="-62" font-family="Helvetica,sans-Serif" font-size="10.00">fstream</text>
</a>
</g>
</g>
<!-- Node9&#45;&gt;Node11 -->
<g id="edge10" class="edge">
<title>Node9&#45;&gt;Node11</title>
<path fill="none" stroke="#63b8ff" d="M277.9,-109.98C268.04,-102.07 253.15,-90.11 241.28,-80.58"/>
<polygon fill="#63b8ff" stroke="#63b8ff" points="243.29,-77.7 233.3,-74.17 238.9,-83.16 243.29,-77.7"/>
</g>
<!-- Node12 -->
<g id="node12" class="node">
<title>Node12</title>
<g id="a_node12"><a xlink:title=" ">
<polygon fill="#e0e0e0" stroke="#999999" points="984,-74 931,-74 931,-55 984,-55 984,-74"/>
<text text-anchor="middle" x="957.5" y="-62" font-family="Helvetica,sans-Serif" font-size="10.00">complex</text>
</a>
</g>
</g>
<!-- Node9&#45;&gt;Node12 -->
<g id="edge11" class="edge">
<title>Node9&#45;&gt;Node12</title>
<path fill="none" stroke="#63b8ff" d="M330.03,-115.96C427.02,-109.92 675.96,-93.67 883.5,-74 895.65,-72.85 908.89,-71.39 920.78,-70.01"/>
<polygon fill="#63b8ff" stroke="#63b8ff" points="921.29,-73.47 930.81,-68.82 920.47,-66.52 921.29,-73.47"/>
</g>
<!-- Node13 -->
<g id="node13" class="node">
<title>Node13</title>
<g id="a_node13"><a xlink:title=" ">
<polygon fill="#e0e0e0" stroke="#999999" points="309,-74 266,-74 266,-55 309,-55 309,-74"/>
<text text-anchor="middle" x="287.5" y="-62" font-family="Helvetica,sans-Serif" font-size="10.00">TH1.h</text>
</a>
</g>
</g>
<!-- Node9&#45;&gt;Node13 -->
<g id="edge13" class="edge">
<title>Node9&#45;&gt;Node13</title>
<path fill="none" stroke="#63b8ff" d="M288.33,-109.75C288.2,-102.8 288.02,-92.85 287.85,-84.13"/>
<polygon fill="#63b8ff" stroke="#63b8ff" points="291.35,-84.02 287.66,-74.09 284.35,-84.15 291.35,-84.02"/>
</g>
<!-- Node14&#45;&gt;Node6 -->
<g id="edge23" class="edge">
<title>Node14&#45;&gt;Node6</title>
<path fill="none" stroke="#63b8ff" d="M446.38,-113.24C390.94,-105.81 287.58,-91.38 189.35,-74.06"/>
<polygon fill="#63b8ff" stroke="#63b8ff" points="189.71,-70.57 179.25,-72.27 188.48,-77.46 189.71,-70.57"/>
</g>
<!-- Node14&#45;&gt;Node7 -->
<g id="edge25" class="edge">
<title>Node14&#45;&gt;Node7</title>
<path fill="none" stroke="#63b8ff" d="M446.23,-115.91C378.27,-111.07 236.42,-98.99 108.03,-74.02"/>
<polygon fill="#63b8ff" stroke="#63b8ff" points="108.52,-70.55 98.03,-72.04 107.16,-77.42 108.52,-70.55"/>
</g>
<!-- Node14&#45;&gt;Node10 -->
<g id="edge19" class="edge">
<title>Node14&#45;&gt;Node10</title>
<path fill="none" stroke="#63b8ff" d="M464.17,-109.98C440.76,-101.06 403.83,-86.98 377.8,-77.05"/>
<polygon fill="#63b8ff" stroke="#63b8ff" points="379,-73.77 368.41,-73.47 376.51,-80.31 379,-73.77"/>
</g>
<!-- Node14&#45;&gt;Node13 -->
<g id="edge24" class="edge">
<title>Node14&#45;&gt;Node13</title>
<path fill="none" stroke="#63b8ff" d="M453.42,-109.98C421.31,-101.68 370.96,-88.53 318.86,-74.34"/>
<polygon fill="#63b8ff" stroke="#63b8ff" points="319.69,-70.94 309.12,-71.68 317.84,-77.69 319.69,-70.94"/>
</g>
<!-- Node15 -->
<g id="node15" class="node">
<title>Node15</title>
<g id="a_node15"><a xlink:title=" ">
<polygon fill="#e0e0e0" stroke="#999999" points="442.5,-74 386.5,-74 386.5,-55 442.5,-55 442.5,-74"/>
<text text-anchor="middle" x="414.5" y="-62" font-family="Helvetica,sans-Serif" font-size="10.00">algorithm</text>
</a>
</g>
</g>
<!-- Node14&#45;&gt;Node15 -->
<g id="edge16" class="edge">
<title>Node14&#45;&gt;Node15</title>
<path fill="none" stroke="#63b8ff" d="M474.93,-109.98C464.08,-102 447.62,-89.88 434.62,-80.31"/>
<polygon fill="#63b8ff" stroke="#63b8ff" points="436.41,-77.28 426.28,-74.17 432.26,-82.92 436.41,-77.28"/>
</g>
<!-- Node16 -->
<g id="node16" class="node">
<title>Node16</title>
<g id="a_node16"><a xlink:title=" ">
<polygon fill="#e0e0e0" stroke="#999999" points="802,-74 767,-74 767,-55 802,-55 802,-74"/>
<text text-anchor="middle" x="784.5" y="-62" font-family="Helvetica,sans-Serif" font-size="10.00">map</text>
</a>
</g>
</g>
<!-- Node14&#45;&gt;Node16 -->
<g id="edge17" class="edge">
<title>Node14&#45;&gt;Node16</title>
<path fill="none" stroke="#63b8ff" d="M526.8,-113.7C578.13,-107.2 669.65,-94.26 757.07,-73.78"/>
<polygon fill="#63b8ff" stroke="#63b8ff" points="757.96,-77.16 766.88,-71.44 756.34,-70.35 757.96,-77.16"/>
</g>
<!-- Node17 -->
<g id="node17" class="node">
<title>Node17</title>
<g id="a_node17"><a xlink:title=" ">
<polygon fill="#e0e0e0" stroke="#999999" points="512.5,-74 460.5,-74 460.5,-55 512.5,-55 512.5,-74"/>
<text text-anchor="middle" x="486.5" y="-62" font-family="Helvetica,sans-Serif" font-size="10.00">sstream</text>
</a>
</g>
</g>
<!-- Node14&#45;&gt;Node17 -->
<g id="edge18" class="edge">
<title>Node14&#45;&gt;Node17</title>
<path fill="none" stroke="#63b8ff" d="M486.5,-109.75C486.5,-102.8 486.5,-92.85 486.5,-84.13"/>
<polygon fill="#63b8ff" stroke="#63b8ff" points="490,-84.09 486.5,-74.09 483,-84.09 490,-84.09"/>
</g>
<!-- Node18 -->
<g id="node18" class="node">
<title>Node18</title>
<g id="a_node18"><a xlink:title=" ">
<polygon fill="#e0e0e0" stroke="#999999" points="874.5,-74 820.5,-74 820.5,-55 874.5,-55 874.5,-74"/>
<text text-anchor="middle" x="847.5" y="-62" font-family="Helvetica,sans-Serif" font-size="10.00">iostream</text>
</a>
</g>
</g>
<!-- Node14&#45;&gt;Node18 -->
<g id="edge20" class="edge">
<title>Node14&#45;&gt;Node18</title>
<path fill="none" stroke="#63b8ff" d="M526.59,-114.16C587.98,-107.25 708.85,-92.62 810.5,-74 810.6,-73.98 810.7,-73.96 810.8,-73.94"/>
<polygon fill="#63b8ff" stroke="#63b8ff" points="811.37,-77.4 820.48,-72 809.99,-70.54 811.37,-77.4"/>
</g>
<!-- Node19 -->
<g id="node19" class="node">
<title>Node19</title>
<g id="a_node19"><a xlink:title=" ">
<polygon fill="#e0e0e0" stroke="#999999" points="668.5,-74 614.5,-74 614.5,-55 668.5,-55 668.5,-74"/>
<text text-anchor="middle" x="641.5" y="-62" font-family="Helvetica,sans-Serif" font-size="10.00">Rtypes.h</text>
</a>
</g>
</g>
<!-- Node14&#45;&gt;Node19 -->
<g id="edge21" class="edge">
<title>Node14&#45;&gt;Node19</title>
<path fill="none" stroke="#63b8ff" d="M511.4,-109.98C537.2,-101.16 577.72,-87.31 606.68,-77.41"/>
<polygon fill="#63b8ff" stroke="#63b8ff" points="608.07,-80.63 616.4,-74.08 605.81,-74.01 608.07,-80.63"/>
</g>
<!-- Node20 -->
<g id="node20" class="node">
<title>Node20</title>
<g id="a_node20"><a xlink:title=" ">
<polygon fill="#e0e0e0" stroke="#999999" points="596.5,-74 530.5,-74 530.5,-55 596.5,-55 596.5,-74"/>
<text text-anchor="middle" x="563.5" y="-62" font-family="Helvetica,sans-Serif" font-size="10.00">TBrowser.h</text>
</a>
</g>
</g>
<!-- Node14&#45;&gt;Node20 -->
<g id="edge22" class="edge">
<title>Node14&#45;&gt;Node20</title>
<path fill="none" stroke="#63b8ff" d="M498.87,-109.98C510.59,-101.92 528.42,-89.65 542.39,-80.03"/>
<polygon fill="#63b8ff" stroke="#63b8ff" points="544.65,-82.72 550.9,-74.17 540.68,-76.96 544.65,-82.72"/>
</g>
<!-- Node21 -->
<g id="node21" class="node">
<title>Node21</title>
<g id="a_node21"><a xlink:title=" ">
<polygon fill="#e0e0e0" stroke="#999999" points="748.5,-74 686.5,-74 686.5,-55 748.5,-55 748.5,-74"/>
<text text-anchor="middle" x="717.5" y="-62" font-family="Helvetica,sans-Serif" font-size="10.00">TNamed.h</text>
</a>
</g>
</g>
<!-- Node14&#45;&gt;Node21 -->
<g id="edge26" class="edge">
<title>Node14&#45;&gt;Node21</title>
<path fill="none" stroke="#63b8ff" d="M523.61,-109.98C565.41,-100.39 633.14,-84.86 676.48,-74.91"/>
<polygon fill="#63b8ff" stroke="#63b8ff" points="677.44,-78.28 686.4,-72.63 675.87,-71.46 677.44,-78.28"/>
</g>
<!-- Node22&#45;&gt;Node10 -->
<g id="edge30" class="edge">
<title>Node22&#45;&gt;Node10</title>
<path fill="none" stroke="#63b8ff" d="M605.91,-169C559.57,-163.71 492.09,-152.45 437.5,-129 409.72,-117.07 381.92,-95.65 364.72,-81.02"/>
<polygon fill="#63b8ff" stroke="#63b8ff" points="367.02,-78.37 357.18,-74.45 362.42,-83.65 367.02,-78.37"/>
</g>
<!-- Node22&#45;&gt;Node14 -->
<g id="edge33" class="edge">
<title>Node22&#45;&gt;Node14</title>
<path fill="none" stroke="#63b8ff" d="M632.54,-164.98C603.2,-156.05 556.9,-141.94 524.31,-132.02"/>
<polygon fill="#63b8ff" stroke="#63b8ff" points="525.26,-128.65 514.68,-129.08 523.22,-135.34 525.26,-128.65"/>
</g>
<!-- Node22&#45;&gt;Node16 -->
<g id="edge28" class="edge">
<title>Node22&#45;&gt;Node16</title>
<path fill="none" stroke="#63b8ff" d="M670.65,-164.66C691.73,-146.3 740.51,-103.81 766.86,-80.87"/>
<polygon fill="#63b8ff" stroke="#63b8ff" points="769.32,-83.37 774.56,-74.16 764.72,-78.09 769.32,-83.37"/>
</g>
<!-- Node22&#45;&gt;Node18 -->
<g id="edge29" class="edge">
<title>Node22&#45;&gt;Node18</title>
<path fill="none" stroke="#63b8ff" d="M675.49,-164.84C707.85,-146.16 784.48,-101.9 823.61,-79.3"/>
<polygon fill="#63b8ff" stroke="#63b8ff" points="825.79,-82.08 832.7,-74.05 822.29,-76.02 825.79,-82.08"/>
</g>
<!-- Node22&#45;&gt;Node19 -->
<g id="edge31" class="edge">
<title>Node22&#45;&gt;Node19</title>
<path fill="none" stroke="#63b8ff" d="M658.95,-164.66C655.87,-147.17 648.94,-107.8 644.8,-84.27"/>
<polygon fill="#63b8ff" stroke="#63b8ff" points="648.2,-83.4 643.02,-74.16 641.31,-84.61 648.2,-83.4"/>
</g>
<!-- Node22&#45;&gt;Node21 -->
<g id="edge32" class="edge">
<title>Node22&#45;&gt;Node21</title>
<path fill="none" stroke="#63b8ff" d="M665.16,-164.66C674.56,-146.85 695.93,-106.37 708.26,-83.01"/>
<polygon fill="#63b8ff" stroke="#63b8ff" points="711.36,-84.64 712.93,-74.16 705.17,-81.37 711.36,-84.64"/>
</g>
<!-- Node23&#45;&gt;Node5 -->
<g id="edge35" class="edge">
<title>Node23&#45;&gt;Node5</title>
<path fill="none" stroke="#63b8ff" d="M1314.45,-219.71C1324.81,-206.89 1345.26,-182.68 1365.5,-165 1386.67,-146.51 1399.01,-150.17 1417.5,-129 1440.64,-102.52 1467.3,-82.59 1445.5,-55 1426.56,-31.03 1339.08,-18.59 1290.77,-13.44"/>
<polygon fill="#63b8ff" stroke="#63b8ff" points="1291.12,-9.96 1280.82,-12.42 1290.41,-16.92 1291.12,-9.96"/>
</g>
<!-- Node23&#45;&gt;Node7 -->
<g id="edge38" class="edge">
<title>Node23&#45;&gt;Node7</title>
<path fill="none" stroke="#63b8ff" d="M1274.92,-228.5C1164.97,-228.12 797.68,-223.76 497.5,-184 380.41,-168.49 350.61,-163.01 237.5,-129 189.99,-114.71 136.78,-92.44 105,-78.42"/>
<polygon fill="#63b8ff" stroke="#63b8ff" points="106.02,-75.05 95.46,-74.18 103.18,-81.44 106.02,-75.05"/>
</g>
<!-- Node23&#45;&gt;Node13 -->
<g id="edge37" class="edge">
<title>Node23&#45;&gt;Node13</title>
<path fill="none" stroke="#63b8ff" d="M1274.98,-228.88C1173.72,-229.54 855.34,-227.73 596.5,-184 506.87,-168.86 483.44,-163.9 399.5,-129 366.45,-115.26 330.93,-93.86 308.95,-79.77"/>
<polygon fill="#63b8ff" stroke="#63b8ff" points="310.71,-76.73 300.41,-74.21 306.89,-82.6 310.71,-76.73"/>
</g>
<!-- Node23&#45;&gt;Node22 -->
<g id="edge44" class="edge">
<title>Node23&#45;&gt;Node22</title>
<path fill="none" stroke="#63b8ff" d="M1274.97,-225.84C1173.58,-217.53 861.9,-192 725.52,-180.83"/>
<polygon fill="#63b8ff" stroke="#63b8ff" points="725.48,-177.31 715.23,-179.98 724.91,-184.29 725.48,-177.31"/>
</g>
<!-- Node24 -->
<g id="node24" class="node">
<title>Node24</title>
<g id="a_node24"><a xlink:title=" ">
<polygon fill="#e0e0e0" stroke="#999999" points="1426.5,-184 1374.5,-184 1374.5,-165 1426.5,-165 1426.5,-184"/>
<text text-anchor="middle" x="1400.5" y="-172" font-family="Helvetica,sans-Serif" font-size="10.00">TMath.h</text>
</a>
</g>
</g>
<!-- Node23&#45;&gt;Node24 -->
<g id="edge36" class="edge">
<title>Node23&#45;&gt;Node24</title>
<path fill="none" stroke="#63b8ff" d="M1322.44,-219.98C1337,-211.69 1359.37,-198.94 1376.43,-189.22"/>
<polygon fill="#63b8ff" stroke="#63b8ff" points="1378.33,-192.16 1385.29,-184.17 1374.86,-186.08 1378.33,-192.16"/>
</g>
<!-- Node25 -->
<g id="node25" class="node">
<title>Node25</title>
<g id="a_node25"><a xlink:title=" ">
<polygon fill="#e0e0e0" stroke="#999999" points="1486,-184 1445,-184 1445,-165 1486,-165 1486,-184"/>
<text text-anchor="middle" x="1465.5" y="-172" font-family="Helvetica,sans-Serif" font-size="10.00">TF1.h</text>
</a>
</g>
</g>
<!-- Node23&#45;&gt;Node25 -->
<g id="edge39" class="edge">
<title>Node23&#45;&gt;Node25</title>
<path fill="none" stroke="#63b8ff" d="M1332.89,-219.98C1360.66,-210.67 1405.19,-195.73 1434.88,-185.77"/>
<polygon fill="#63b8ff" stroke="#63b8ff" points="1436.35,-188.97 1444.72,-182.47 1434.12,-182.33 1436.35,-188.97"/>
</g>
<!-- Node26 -->
<g id="node26" class="node">
<title>Node26</title>
<g id="a_node26"><a xlink:title=" ">
<polygon fill="#e0e0e0" stroke="#999999" points="1560.5,-184 1504.5,-184 1504.5,-165 1560.5,-165 1560.5,-184"/>
<text text-anchor="middle" x="1532.5" y="-172" font-family="Helvetica,sans-Serif" font-size="10.00">TGraph.h</text>
</a>
</g>
</g>
<!-- Node23&#45;&gt;Node26 -->
<g id="edge40" class="edge">
<title>Node23&#45;&gt;Node26</title>
<path fill="none" stroke="#63b8ff" d="M1340.22,-220.79C1381.18,-211.15 1451.21,-194.65 1494.5,-184.45"/>
<polygon fill="#63b8ff" stroke="#63b8ff" points="1495.43,-187.83 1504.37,-182.13 1493.83,-181.01 1495.43,-187.83"/>
</g>
<!-- Node27 -->
<g id="node27" class="node">
<title>Node27</title>
<g id="a_node27"><a xlink:title=" ">
<polygon fill="#e0e0e0" stroke="#999999" points="1660.5,-184 1578.5,-184 1578.5,-165 1660.5,-165 1660.5,-184"/>
<text text-anchor="middle" x="1619.5" y="-172" font-family="Helvetica,sans-Serif" font-size="10.00">TGraphErrors.h</text>
</a>
</g>
</g>
<!-- Node23&#45;&gt;Node27 -->
<g id="edge41" class="edge">
<title>Node23&#45;&gt;Node27</title>
<path fill="none" stroke="#63b8ff" d="M1340.18,-222.95C1387.96,-214.84 1479.98,-199.21 1568.38,-184.19"/>
<polygon fill="#63b8ff" stroke="#63b8ff" points="1569.03,-187.63 1578.3,-182.5 1567.85,-180.73 1569.03,-187.63"/>
</g>
<!-- Node28 -->
<g id="node28" class="node">
<title>Node28</title>
<g id="a_node28"><a xlink:title=" ">
<polygon fill="#e0e0e0" stroke="#999999" points="1756,-184 1679,-184 1679,-165 1756,-165 1756,-184"/>
<text text-anchor="middle" x="1717.5" y="-172" font-family="Helvetica,sans-Serif" font-size="10.00">TMultiGraph.h</text>
</a>
</g>
</g>
<!-- Node23&#45;&gt;Node28 -->
<g id="edge42" class="edge">
<title>Node23&#45;&gt;Node28</title>
<path fill="none" stroke="#63b8ff" d="M1340.03,-225.09C1401.9,-218.47 1541.03,-202.98 1668.8,-184.03"/>
<polygon fill="#63b8ff" stroke="#63b8ff" points="1669.38,-187.48 1678.76,-182.54 1668.35,-180.56 1669.38,-187.48"/>
</g>
<!-- Node29 -->
<g id="node29" class="node">
<title>Node29</title>
<g id="a_node29"><a xlink:title=" ">
<polygon fill="#e0e0e0" stroke="#999999" points="1203,-184 1110,-184 1110,-165 1203,-165 1203,-184"/>
<text text-anchor="middle" x="1156.5" y="-172" font-family="Helvetica,sans-Serif" font-size="10.00">Math/SpecFunc.h</text>
</a>
</g>
</g>
<!-- Node23&#45;&gt;Node29 -->
<g id="edge43" class="edge">
<title>Node23&#45;&gt;Node29</title>
<path fill="none" stroke="#63b8ff" d="M1283.24,-219.98C1258.18,-211.19 1218.87,-197.39 1190.67,-187.49"/>
<polygon fill="#63b8ff" stroke="#63b8ff" points="1191.8,-184.18 1181.2,-184.17 1189.48,-190.78 1191.8,-184.18"/>
</g>
<!-- Node30 -->
<g id="node30" class="node">
<title>Node30</title>
<g id="a_node30"><a xlink:href="../../da/da2/_ang_dist_8hh.html" target="_top" xlink:title=" ">
<polygon fill="white" stroke="#666666" points="1318.5,-184 1220.5,-184 1220.5,-165 1318.5,-165 1318.5,-184"/>
<text text-anchor="middle" x="1269.5" y="-172" font-family="Helvetica,sans-Serif" font-size="10.00">angdist/AngDist.hh</text>
</a>
</g>
</g>
<!-- Node23&#45;&gt;Node30 -->
<g id="edge45" class="edge">
<title>Node23&#45;&gt;Node30</title>
<path fill="none" stroke="#63b8ff" d="M1301.23,-219.75C1295.91,-212.34 1288.14,-201.5 1281.62,-192.41"/>
<polygon fill="#63b8ff" stroke="#63b8ff" points="1284.33,-190.18 1275.66,-184.09 1278.64,-194.26 1284.33,-190.18"/>
</g>
<!-- Node30&#45;&gt;Node5 -->
<g id="edge46" class="edge">
<title>Node30&#45;&gt;Node5</title>
<path fill="none" stroke="#63b8ff" d="M1301.28,-164.89C1358.15,-147.94 1467.79,-107.28 1427.5,-55 1410.91,-33.48 1334.78,-20.29 1290.57,-14.3"/>
<polygon fill="#63b8ff" stroke="#63b8ff" points="1290.97,-10.83 1280.6,-13 1290.06,-17.77 1290.97,-10.83"/>
</g>
<!-- Node30&#45;&gt;Node12 -->
<g id="edge47" class="edge">
<title>Node30&#45;&gt;Node12</title>
<path fill="none" stroke="#63b8ff" d="M1244.76,-164.94C1189.35,-145.76 1055.2,-99.32 991.79,-77.37"/>
<polygon fill="#63b8ff" stroke="#63b8ff" points="992.84,-74.03 982.25,-74.07 990.55,-80.64 992.84,-74.03"/>
</g>
<!-- Node31 -->
<g id="node31" class="node">
<title>Node31</title>
<g id="a_node31"><a xlink:title=" ">
<polygon fill="#e0e0e0" stroke="#999999" points="1299,-74 1240,-74 1240,-55 1299,-55 1299,-74"/>
<text text-anchor="middle" x="1269.5" y="-62" font-family="Helvetica,sans-Serif" font-size="10.00">functional</text>
</a>
</g>
</g>
<!-- Node30&#45;&gt;Node31 -->
<g id="edge48" class="edge">
<title>Node30&#45;&gt;Node31</title>
<path fill="none" stroke="#63b8ff" d="M1269.5,-164.66C1269.5,-147.17 1269.5,-107.8 1269.5,-84.27"/>
<polygon fill="#63b8ff" stroke="#63b8ff" points="1273,-84.16 1269.5,-74.16 1266,-84.16 1273,-84.16"/>
</g>
<!-- Node32 -->
<g id="node32" class="node">
<title>Node32</title>
<g id="a_node32"><a xlink:href="../../de/dcb/_solid_attenuation_8hh.html" target="_top" xlink:title=" ">
<polygon fill="white" stroke="#666666" points="1418,-74 1317,-74 1317,-55 1418,-55 1418,-74"/>
<text text-anchor="middle" x="1367.5" y="-62" font-family="Helvetica,sans-Serif" font-size="10.00">SolidAttenuation.hh</text>
</a>
</g>
</g>
<!-- Node30&#45;&gt;Node32 -->
<g id="edge49" class="edge">
<title>Node30&#45;&gt;Node32</title>
<path fill="none" stroke="#63b8ff" d="M1277.52,-164.66C1293.97,-146.54 1331.74,-104.91 1352.74,-81.77"/>
<polygon fill="#63b8ff" stroke="#63b8ff" points="1355.52,-83.92 1359.64,-74.16 1350.33,-79.21 1355.52,-83.92"/>
</g>
<!-- Node33 -->
<g id="node33" class="node">
<title>Node33</title>
<g id="a_node33"><a xlink:href="../../da/da6/_stat_tensor_8hh.html" target="_top" xlink:title=" ">
<polygon fill="white" stroke="#666666" points="1238,-129 1161,-129 1161,-110 1238,-110 1238,-129"/>
<text text-anchor="middle" x="1199.5" y="-117" font-family="Helvetica,sans-Serif" font-size="10.00">StatTensor.hh</text>
</a>
</g>
</g>
<!-- Node30&#45;&gt;Node33 -->
<g id="edge51" class="edge">
<title>Node30&#45;&gt;Node33</title>
<path fill="none" stroke="#63b8ff" d="M1258.25,-164.98C1247.7,-157 1231.7,-144.88 1219.06,-135.31"/>
<polygon fill="#63b8ff" stroke="#63b8ff" points="1221.04,-132.42 1210.95,-129.17 1216.81,-138 1221.04,-132.42"/>
</g>
<!-- Node32&#45;&gt;Node5 -->
<g id="edge50" class="edge">
<title>Node32&#45;&gt;Node5</title>
<path fill="none" stroke="#63b8ff" d="M1349.99,-54.98C1332.53,-46.5 1305.49,-33.35 1285.33,-23.54"/>
<polygon fill="#63b8ff" stroke="#63b8ff" points="1286.86,-20.4 1276.33,-19.17 1283.79,-26.69 1286.86,-20.4"/>
</g>
<!-- Node33&#45;&gt;Node5 -->
<g id="edge54" class="edge">
<title>Node33&#45;&gt;Node5</title>
<path fill="none" stroke="#63b8ff" d="M1189.85,-109.99C1176.91,-97.53 1156.85,-73.76 1168.5,-55 1181.09,-34.73 1205.94,-23.42 1226.35,-17.27"/>
<polygon fill="#63b8ff" stroke="#63b8ff" points="1227.5,-20.59 1236.23,-14.59 1225.66,-13.83 1227.5,-20.59"/>
</g>
<!-- Node33&#45;&gt;Node12 -->
<g id="edge53" class="edge">
<title>Node33&#45;&gt;Node12</title>
<path fill="none" stroke="#63b8ff" d="M1160.9,-110.52C1121.31,-102.27 1057.68,-88.8 994.03,-74.31"/>
<polygon fill="#63b8ff" stroke="#63b8ff" points="994.76,-70.89 984.24,-72.07 993.2,-77.71 994.76,-70.89"/>
</g>
<!-- Node33&#45;&gt;Node31 -->
<g id="edge55" class="edge">
<title>Node33&#45;&gt;Node31</title>
<path fill="none" stroke="#63b8ff" d="M1210.75,-109.98C1221.3,-102 1237.3,-89.88 1249.94,-80.31"/>
<polygon fill="#63b8ff" stroke="#63b8ff" points="1252.19,-83 1258.05,-74.17 1247.96,-77.42 1252.19,-83"/>
</g>
<!-- Node33&#45;&gt;Node32 -->
<g id="edge58" class="edge">
<title>Node33&#45;&gt;Node32</title>
<path fill="none" stroke="#63b8ff" d="M1226.49,-109.98C1254.7,-101.09 1299.14,-87.07 1330.58,-77.15"/>
<polygon fill="#63b8ff" stroke="#63b8ff" points="1331.81,-80.43 1340.3,-74.08 1329.71,-73.75 1331.81,-80.43"/>
</g>
<!-- Node34 -->
<g id="node34" class="node">
<title>Node34</title>
<g id="a_node34"><a xlink:title=" ">
<polygon fill="#e0e0e0" stroke="#999999" points="1221.5,-74 1177.5,-74 1177.5,-55 1221.5,-55 1221.5,-74"/>
<text text-anchor="middle" x="1199.5" y="-62" font-family="Helvetica,sans-Serif" font-size="10.00">cmath</text>
</a>
</g>
</g>
<!-- Node33&#45;&gt;Node34 -->
<g id="edge52" class="edge">
<title>Node33&#45;&gt;Node34</title>
<path fill="none" stroke="#63b8ff" d="M1199.5,-109.75C1199.5,-102.8 1199.5,-92.85 1199.5,-84.13"/>
<polygon fill="#63b8ff" stroke="#63b8ff" points="1203,-84.09 1199.5,-74.09 1196,-84.09 1203,-84.09"/>
</g>
<!-- Node35 -->
<g id="node35" class="node">
<title>Node35</title>
<g id="a_node35"><a xlink:href="../../d0/d3d/_population_parameter_8hh.html" target="_top" xlink:title=" ">
<polygon fill="white" stroke="#666666" points="1121.5,-74 1001.5,-74 1001.5,-55 1121.5,-55 1121.5,-74"/>
<text text-anchor="middle" x="1061.5" y="-62" font-family="Helvetica,sans-Serif" font-size="10.00">PopulationParameter.hh</text>
</a>
</g>
</g>
<!-- Node33&#45;&gt;Node35 -->
<g id="edge56" class="edge">
<title>Node33&#45;&gt;Node35</title>
<path fill="none" stroke="#63b8ff" d="M1177.33,-109.98C1154.73,-101.3 1119.44,-87.75 1093.75,-77.88"/>
<polygon fill="#63b8ff" stroke="#63b8ff" points="1094.67,-74.49 1084.08,-74.17 1092.16,-81.02 1094.67,-74.49"/>
</g>
<!-- Node35&#45;&gt;Node5 -->
<g id="edge57" class="edge">
<title>Node35&#45;&gt;Node5</title>
<path fill="none" stroke="#63b8ff" d="M1093.15,-54.98C1129.84,-45.12 1189.94,-28.94 1226.7,-19.06"/>
<polygon fill="#63b8ff" stroke="#63b8ff" points="1227.65,-22.42 1236.4,-16.45 1225.84,-15.66 1227.65,-22.42"/>
</g>
</g>
</svg>
        <g id="navigator" transform="translate(0 0)" fill="#404254">
                <rect fill="#f2f5e9" fill-opacity="0.5" stroke="#606060" stroke-width=".5" x="0" y="0" width="60" height="60"/>
                <use id="zoomplus" xlink:href="#zoomPlus" x="17" y="9" onmousedown="handleZoom(evt,'in')"/>
                <use id="zoomminus" xlink:href="#zoomMin" x="42" y="9" onmousedown="handleZoom(evt,'out')"/>
                <use id="reset" xlink:href="#resetDef" x="30" y="36" onmousedown="handleReset()"/>
                <g id="arrowUp" xlink:href="#dirArrow" transform="translate(30 24)" onmousedown="handlePan(0,-1)">
                  <use xlink:href="#rim" fill="#404040">
                        <set attributeName="fill" to="#808080" begin="arrowUp.mouseover" end="arrowUp.mouseout"/>
                  </use>
                  <path fill="none" stroke="white" stroke-width="1.5" d="M0,-3.0v7 M-2.5,-0.5L0,-3.0L2.5,-0.5"/>
                </g>
                <g id="arrowRight" xlink:href="#dirArrow" transform="rotate(90) translate(36 -43)" onmousedown="handlePan(1,0)">
                  <use xlink:href="#rim" fill="#404040">
                        <set attributeName="fill" to="#808080" begin="arrowRight.mouseover" end="arrowRight.mouseout"/>
                  </use>
                  <path fill="none" stroke="white" stroke-width="1.5" d="M0,-3.0v7 M-2.5,-0.5L0,-3.0L2.5,-0.5"/>
                </g>
                <g id="arrowDown" xlink:href="#dirArrow" transform="rotate(180) translate(-30 -48)" onmousedown="handlePan(0,1)">
                  <use xlink:href="#rim" fill="#404040">
                        <set attributeName="fill" to="#808080" begin="arrowDown.mouseover" end="arrowDown.mouseout"/>
                  </use>
                  <path fill="none" stroke="white" stroke-width="1.5" d="M0,-3.0v7 M-2.5,-0.5L0,-3.0L2.5,-0.5"/>
                </g>
                <g id="arrowLeft" xlink:href="#dirArrow" transform="rotate(270) translate(-36 17)" onmousedown="handlePan(-1,0)">
                  <use xlink:href="#rim" fill="#404040">
                        <set attributeName="fill" to="#808080" begin="arrowLeft.mouseover" end="arrowLeft.mouseout"/>
                  </use>
                  <path fill="none" stroke="white" stroke-width="1.5" d="M0,-3.0v7 M-2.5,-0.5L0,-3.0L2.5,-0.5"/>
                </g>
        </g>
        <svg viewBox="0 0 15 15" width="100%" height="30px" preserveAspectRatio="xMaxYMin meet">
         <g id="arrow_out" transform="scale(0.3 0.3)">
          <a xlink:href="_ang_corr_8cc__incl_org.svg" target="_base">
           <rect id="button" ry="5" rx="5" y="6" x="6" height="38" width="38"
                fill="#f2f5e9" fill-opacity="0.5" stroke="#606060" stroke-width="1.0"/>
           <path id="arrow"
             d="M 11.500037,31.436501 C 11.940474,20.09759 22.043105,11.32322 32.158766,21.979434 L 37.068811,17.246167 C 37.068811,17.246167 37.088388,32 37.088388,32 L 22.160133,31.978069 C 22.160133,31.978069 26.997745,27.140456 26.997745,27.140456 C 18.528582,18.264221 13.291696,25.230495 11.500037,31.436501 z"
             style="fill:#404040;"/>
          </a>
         </g>
        </svg>
</svg>
