<?xml version="1.0" encoding="UTF-8" standalone="no"?>
<!DOCTYPE svg PUBLIC "-//W3C//DTD SVG 1.1//EN"
 "http://www.w3.org/Graphics/SVG/1.1/DTD/svg11.dtd">
<!-- Generated by graphviz version 5.0.0 (20220708.1001)
 -->
<!-- Title: src/lib/tree Pages: 1 -->
<svg width="94pt" height="167pt"
 viewBox="0.00 0.00 94.00 167.00" xmlns="http://www.w3.org/2000/svg" xmlns:xlink="http://www.w3.org/1999/xlink">
<g id="graph0" class="graph" transform="scale(1 1) rotate(0) translate(4 163)">
<title>src/lib/tree</title>
<polygon fill="white" stroke="transparent" points="-4,4 -4,-163 90,-163 90,4 -4,4"/>
<g id="clust1" class="cluster">
<title>clusterdir_c85d3e3c5052e9ad9ce18c6863244a25</title>
<g id="a_clust1"><a xlink:href="dir_c85d3e3c5052e9ad9ce18c6863244a25.html" target="_top" xlink:title="lib">
<polygon fill="#f6eeee" stroke="#7f7f7f" stroke-dasharray="5,2" points="8,-8 8,-151 78,-151 78,-8 8,-8"/>
<text text-anchor="middle" x="43" y="-139" font-family="Helvetica,sans-Serif" font-size="10.00">lib</text>
</a>
</g>
</g>
<!-- dir_87d18a4dc5174905bfd7d2dc734defe6 -->
<g id="node1" class="node">
<title>dir_87d18a4dc5174905bfd7d2dc734defe6</title>
<g id="a_node1"><a xlink:href="dir_87d18a4dc5174905bfd7d2dc734defe6.html" target="_top" xlink:title="utils">
<polygon fill="#d1a7a7" stroke="#404040" points="70,-52 16,-52 16,-16 70,-16 70,-52"/>
<text text-anchor="middle" x="43" y="-31.5" font-family="Helvetica,sans-Serif" font-size="10.00">utils</text>
</a>
</g>
</g>
<!-- dir_906a7a901dbcfec531ab813d8e7b69dd -->
<g id="node2" class="node">
<title>dir_906a7a901dbcfec531ab813d8e7b69dd</title>
<g id="a_node2"><a xlink:href="dir_906a7a901dbcfec531ab813d8e7b69dd.html" target="_top" xlink:title="tree">
<polygon fill="#f6eeee" stroke="#404040" stroke-width="2" points="70,-124 16,-124 16,-88 70,-88 70,-124"/>
<text text-anchor="middle" x="43" y="-103.5" font-family="Helvetica,sans-Serif" font-size="10.00">tree</text>
</a>
</g>
</g>
<!-- dir_906a7a901dbcfec531ab813d8e7b69dd&#45;&gt;dir_87d18a4dc5174905bfd7d2dc734defe6 -->
<g id="edge1" class="edge">
<title>dir_906a7a901dbcfec531ab813d8e7b69dd&#45;&gt;dir_87d18a4dc5174905bfd7d2dc734defe6</title>
<path fill="none" stroke="black" d="M43,-87.7C43,-79.98 43,-70.71 43,-62.11"/>
<polygon fill="black" stroke="black" points="46.5,-62.1 43,-52.1 39.5,-62.1 46.5,-62.1"/>
<g id="a_edge1&#45;headlabel"><a xlink:href="dir_000024_000025.html" target="_top" xlink:title="4">
<text text-anchor="middle" x="49.34" y="-63.2" font-family="Helvetica,sans-Serif" font-size="10.00">4</text>
</a>
</g>
</g>
</g>
</svg>
