<?xml version="1.0" encoding="UTF-8" standalone="no"?>
<!DOCTYPE svg PUBLIC "-//W3C//DTD SVG 1.1//EN"
 "http://www.w3.org/Graphics/SVG/1.1/DTD/svg11.dtd">
<!-- Generated by graphviz version 12.0.0 (20240704.0754)
 -->
<!-- Title: src/lib Pages: 1 -->
<svg width="416pt" height="371pt"
 viewBox="0.00 0.00 416.00 370.75" xmlns="http://www.w3.org/2000/svg" xmlns:xlink="http://www.w3.org/1999/xlink">

<svg id="main" version="1.1" xmlns="http://www.w3.org/2000/svg" xmlns:xlink="http://www.w3.org/1999/xlink" xml:space="preserve" onload="init(evt)">
<style type="text/css"><![CDATA[
.node, .edge {opacity: 0.7;}
.node.selected, .edge.selected {opacity: 1;}
.edge:hover path { stroke: red; }
.edge:hover polygon { stroke: red; fill: red; }
]]></style>
<script type="application/ecmascript" xlink:href="svg.min.js"/>
<svg id="graph" class="graph">
<g id="graph0" class="graph" transform="scale(1 1) rotate(0) translate(4 366.75)">
<title>src/lib</title>
<g id="clust1" class="cluster">
<title>clusterdir_68267d1309a1af8e8297ef4c3efbcdba</title>
<g id="a_clust1"><a xlink:href="dir_68267d1309a1af8e8297ef4c3efbcdba.html" target="_top" xlink:title="src">
<polygon fill="#f6eeee" stroke="#404040" stroke-dasharray="5,2" points="8,-8 8,-354.75 400,-354.75 400,-8 8,-8"/>
<text text-anchor="middle" x="204" y="-341.25" font-family="Helvetica,sans-Serif" font-size="10.00">src</text>
</a>
</g>
</g>
<g id="clust2" class="cluster">
<title>clusterdir_c85d3e3c5052e9ad9ce18c6863244a25</title>
<g id="a_clust2"><a xlink:href="dir_c85d3e3c5052e9ad9ce18c6863244a25.html" target="_top">
<polygon fill="#f6eeee" stroke="#404040" stroke-width="2" points="16,-16 16,-327.5 392,-327.5 392,-16 16,-16"/>
</a>
</g>
</g>
<!-- dir_c85d3e3c5052e9ad9ce18c6863244a25 -->
<g id="node1" class="node">
<title>dir_c85d3e3c5052e9ad9ce18c6863244a25</title>
<text text-anchor="middle" x="38" y="-306" font-family="Helvetica,sans-Serif" font-size="10.00">lib</text>
</g>
<!-- dir_5f096cfe902f9bc2abe3952f5e9ff649 -->
<g id="node2" class="node">
<title>dir_5f096cfe902f9bc2abe3952f5e9ff649</title>
<g id="a_node2"><a xlink:href="dir_5f096cfe902f9bc2abe3952f5e9ff649.html" target="_top" xlink:title="abbrevs">
<polygon fill="#d1a7a7" stroke="#404040" points="118.25,-264.25 67.75,-264.25 67.75,-245 118.25,-245 118.25,-264.25"/>
<text text-anchor="middle" x="93" y="-250.75" font-family="Helvetica,sans-Serif" font-size="10.00">abbrevs</text>
</a>
</g>
</g>
<!-- dir_dde98f77fcca3096b398273c24659d1f -->
<g id="node11" class="node">
<title>dir_dde98f77fcca3096b398273c24659d1f</title>
<g id="a_node11"><a xlink:href="dir_dde98f77fcca3096b398273c24659d1f.html" target="_top" xlink:title="spect">
<polygon fill="#d1a7a7" stroke="#404040" points="124,-209 84,-209 84,-189.75 124,-189.75 124,-209"/>
<text text-anchor="middle" x="104" y="-195.5" font-family="Helvetica,sans-Serif" font-size="10.00">spect</text>
</a>
</g>
</g>
<!-- dir_5f096cfe902f9bc2abe3952f5e9ff649&#45;&gt;dir_dde98f77fcca3096b398273c24659d1f -->
<g id="edge2" class="edge">
<title>dir_5f096cfe902f9bc2abe3952f5e9ff649&#45;&gt;dir_dde98f77fcca3096b398273c24659d1f</title>
<g id="a_edge2"><a xlink:href="dir_000000_000019.html" target="_top">
<path fill="none" stroke="#63b8ff" d="M94.82,-244.83C96.18,-238.24 98.1,-228.96 99.83,-220.57"/>
<polygon fill="#63b8ff" stroke="#63b8ff" points="103.24,-221.34 101.84,-210.84 96.39,-219.93 103.24,-221.34"/>
</a>
</g>
<g id="a_edge2&#45;headlabel"><a xlink:href="dir_000000_000019.html" target="_top" xlink:title="6">
<text text-anchor="middle" x="105.6" y="-220.08" font-family="Helvetica,sans-Serif" font-size="10.00" fill="#63b8ff">6</text>
</a>
</g>
</g>
<!-- dir_d81d19ccf3f7a799fa4dbd39188dcaa8 -->
<g id="node12" class="node">
<title>dir_d81d19ccf3f7a799fa4dbd39188dcaa8</title>
<g id="a_node12"><a xlink:href="dir_d81d19ccf3f7a799fa4dbd39188dcaa8.html" target="_top" xlink:title="toolkit">
<polygon fill="#d1a7a7" stroke="#404040" points="164.12,-98.5 121.88,-98.5 121.88,-79.25 164.12,-79.25 164.12,-98.5"/>
<text text-anchor="middle" x="143" y="-85" font-family="Helvetica,sans-Serif" font-size="10.00">toolkit</text>
</a>
</g>
</g>
<!-- dir_5f096cfe902f9bc2abe3952f5e9ff649&#45;&gt;dir_d81d19ccf3f7a799fa4dbd39188dcaa8 -->
<g id="edge1" class="edge">
<title>dir_5f096cfe902f9bc2abe3952f5e9ff649&#45;&gt;dir_d81d19ccf3f7a799fa4dbd39188dcaa8</title>
<g id="a_edge1"><a xlink:href="dir_000000_000022.html" target="_top">
<path fill="none" stroke="#63b8ff" d="M87.32,-244.91C80.02,-232.57 68.96,-209.35 75,-189.75 85.04,-157.17 109.74,-125.7 126.44,-107.06"/>
<polygon fill="#63b8ff" stroke="#63b8ff" points="128.86,-109.6 133.08,-99.88 123.72,-104.85 128.86,-109.6"/>
</a>
</g>
<g id="a_edge1&#45;headlabel"><a xlink:href="dir_000000_000022.html" target="_top" xlink:title="2">
<text text-anchor="middle" x="129.53" y="-109.18" font-family="Helvetica,sans-Serif" font-size="10.00" fill="#63b8ff">2</text>
</a>
</g>
</g>
<!-- dir_fa2908bbf7c8777569ad45e685a16ed6 -->
<g id="node3" class="node">
<title>dir_fa2908bbf7c8777569ad45e685a16ed6</title>
<g id="a_node3"><a xlink:href="dir_fa2908bbf7c8777569ad45e685a16ed6.html" target="_top" xlink:title="angdist">
<polygon fill="#d1a7a7" stroke="#404040" points="187.75,-264.25 140.25,-264.25 140.25,-245 187.75,-245 187.75,-264.25"/>
<text text-anchor="middle" x="164" y="-250.75" font-family="Helvetica,sans-Serif" font-size="10.00">angdist</text>
</a>
</g>
</g>
<!-- dir_80e0224605357bcf8f0b9969ec4933a0 -->
<g id="node7" class="node">
<title>dir_80e0224605357bcf8f0b9969ec4933a0</title>
<g id="a_node7"><a xlink:href="dir_80e0224605357bcf8f0b9969ec4933a0.html" target="_top" xlink:title="nucleus">
<polygon fill="#d1a7a7" stroke="#404040" points="231.88,-153.75 182.12,-153.75 182.12,-134.5 231.88,-134.5 231.88,-153.75"/>
<text text-anchor="middle" x="207" y="-140.25" font-family="Helvetica,sans-Serif" font-size="10.00">nucleus</text>
</a>
</g>
</g>
<!-- dir_fa2908bbf7c8777569ad45e685a16ed6&#45;&gt;dir_80e0224605357bcf8f0b9969ec4933a0 -->
<g id="edge3" class="edge">
<title>dir_fa2908bbf7c8777569ad45e685a16ed6&#45;&gt;dir_80e0224605357bcf8f0b9969ec4933a0</title>
<g id="a_edge3"><a xlink:href="dir_000001_000014.html" target="_top">
<path fill="none" stroke="#63b8ff" d="M187.99,-253.85C220.24,-252.7 276.57,-245.25 303,-209 322.32,-182.51 277.63,-163.77 242.92,-153.71"/>
<polygon fill="#63b8ff" stroke="#63b8ff" points="244.13,-150.41 233.56,-151.15 242.28,-157.16 244.13,-150.41"/>
</a>
</g>
<g id="a_edge3&#45;headlabel"><a xlink:href="dir_000001_000014.html" target="_top" xlink:title="3">
<text text-anchor="middle" x="246.88" y="-144.34" font-family="Helvetica,sans-Serif" font-size="10.00" fill="#63b8ff">3</text>
</a>
</g>
</g>
<!-- dir_fa2908bbf7c8777569ad45e685a16ed6&#45;&gt;dir_dde98f77fcca3096b398273c24659d1f -->
<g id="edge6" class="edge">
<title>dir_fa2908bbf7c8777569ad45e685a16ed6&#45;&gt;dir_dde98f77fcca3096b398273c24659d1f</title>
<g id="a_edge6"><a xlink:href="dir_000001_000019.html" target="_top">
<path fill="none" stroke="#63b8ff" d="M153.82,-244.59C145.24,-236.97 132.73,-225.87 122.4,-216.7"/>
<polygon fill="#63b8ff" stroke="#63b8ff" points="124.96,-214.3 115.16,-210.28 120.32,-219.54 124.96,-214.3"/>
</a>
</g>
<g id="a_edge6&#45;headlabel"><a xlink:href="dir_000001_000019.html" target="_top" xlink:title="1">
<text text-anchor="middle" x="128.4" y="-209.68" font-family="Helvetica,sans-Serif" font-size="10.00" fill="#63b8ff">1</text>
</a>
</g>
</g>
<!-- dir_fa2908bbf7c8777569ad45e685a16ed6&#45;&gt;dir_d81d19ccf3f7a799fa4dbd39188dcaa8 -->
<g id="edge5" class="edge">
<title>dir_fa2908bbf7c8777569ad45e685a16ed6&#45;&gt;dir_d81d19ccf3f7a799fa4dbd39188dcaa8</title>
<g id="a_edge5"><a xlink:href="dir_000001_000022.html" target="_top">
<path fill="none" stroke="#63b8ff" d="M161.39,-244.82C158.85,-235.88 155.07,-221.6 153,-209 147.35,-174.61 144.81,-134.09 143.73,-110.27"/>
<polygon fill="#63b8ff" stroke="#63b8ff" points="147.23,-110.26 143.33,-100.41 140.24,-110.55 147.23,-110.26"/>
</a>
</g>
<g id="a_edge5&#45;headlabel"><a xlink:href="dir_000001_000022.html" target="_top" xlink:title="2">
<text text-anchor="middle" x="150.16" y="-108.35" font-family="Helvetica,sans-Serif" font-size="10.00" fill="#63b8ff">2</text>
</a>
</g>
</g>
<!-- dir_87d18a4dc5174905bfd7d2dc734defe6 -->
<g id="node14" class="node">
<title>dir_87d18a4dc5174905bfd7d2dc734defe6</title>
<g id="a_node14"><a xlink:href="dir_87d18a4dc5174905bfd7d2dc734defe6.html" target="_top" xlink:title="utils">
<polygon fill="#d1a7a7" stroke="#404040" points="186,-43.25 152,-43.25 152,-24 186,-24 186,-43.25"/>
<text text-anchor="middle" x="169" y="-29.75" font-family="Helvetica,sans-Serif" font-size="10.00">utils</text>
</a>
</g>
</g>
<!-- dir_fa2908bbf7c8777569ad45e685a16ed6&#45;&gt;dir_87d18a4dc5174905bfd7d2dc734defe6 -->
<g id="edge4" class="edge">
<title>dir_fa2908bbf7c8777569ad45e685a16ed6&#45;&gt;dir_87d18a4dc5174905bfd7d2dc734defe6</title>
<g id="a_edge4"><a xlink:href="dir_000001_000025.html" target="_top">
<path fill="none" stroke="#63b8ff" d="M188.14,-252.16C238.07,-248.58 349.96,-237.48 373,-209 406.01,-168.2 446.11,-188.16 314,-79.25 280.12,-51.32 228.88,-40.84 197.25,-36.93"/>
<polygon fill="#63b8ff" stroke="#63b8ff" points="197.99,-33.49 187.67,-35.89 197.24,-40.45 197.99,-33.49"/>
</a>
</g>
<g id="a_edge4&#45;headlabel"><a xlink:href="dir_000001_000025.html" target="_top" xlink:title="4">
<text text-anchor="middle" x="200.37" y="-27.02" font-family="Helvetica,sans-Serif" font-size="10.00" fill="#63b8ff">4</text>
</a>
</g>
</g>
<!-- dir_08167a5262ffaf0c89ef11795911943f -->
<g id="node4" class="node">
<title>dir_08167a5262ffaf0c89ef11795911943f</title>
<g id="a_node4"><a xlink:href="dir_08167a5262ffaf0c89ef11795911943f.html" target="_top" xlink:title="bateman">
<polygon fill="#d1a7a7" stroke="#404040" points="123.75,-319.5 70.25,-319.5 70.25,-300.25 123.75,-300.25 123.75,-319.5"/>
<text text-anchor="middle" x="97" y="-306" font-family="Helvetica,sans-Serif" font-size="10.00">bateman</text>
</a>
</g>
</g>
<!-- dir_6a79cfc049500787c362cfe00e651ec0 -->
<g id="node5" class="node">
<title>dir_6a79cfc049500787c362cfe00e651ec0</title>
<g id="a_node5"><a xlink:href="dir_6a79cfc049500787c362cfe00e651ec0.html" target="_top" xlink:title="coulex">
<polygon fill="#d1a7a7" stroke="#404040" points="185.88,-319.5 142.12,-319.5 142.12,-300.25 185.88,-300.25 185.88,-319.5"/>
<text text-anchor="middle" x="164" y="-306" font-family="Helvetica,sans-Serif" font-size="10.00">coulex</text>
</a>
</g>
</g>
<!-- dir_6a79cfc049500787c362cfe00e651ec0&#45;&gt;dir_fa2908bbf7c8777569ad45e685a16ed6 -->
<g id="edge9" class="edge">
<title>dir_6a79cfc049500787c362cfe00e651ec0&#45;&gt;dir_fa2908bbf7c8777569ad45e685a16ed6</title>
<g id="a_edge9"><a xlink:href="dir_000006_000001.html" target="_top">
<path fill="none" stroke="#63b8ff" d="M164,-300.08C164,-293.57 164,-284.42 164,-276.12"/>
<polygon fill="#63b8ff" stroke="#63b8ff" points="167.5,-276.12 164,-266.12 160.5,-276.12 167.5,-276.12"/>
</a>
</g>
<g id="a_edge9&#45;headlabel"><a xlink:href="dir_000006_000001.html" target="_top" xlink:title="4">
<text text-anchor="middle" x="170.34" y="-274.33" font-family="Helvetica,sans-Serif" font-size="10.00" fill="#63b8ff">4</text>
</a>
</g>
</g>
<!-- dir_6a79cfc049500787c362cfe00e651ec0&#45;&gt;dir_d81d19ccf3f7a799fa4dbd39188dcaa8 -->
<g id="edge8" class="edge">
<title>dir_6a79cfc049500787c362cfe00e651ec0&#45;&gt;dir_d81d19ccf3f7a799fa4dbd39188dcaa8</title>
<g id="a_edge8"><a xlink:href="dir_000006_000022.html" target="_top">
<path fill="none" stroke="#63b8ff" d="M141.99,-302.64C114.12,-294.25 68.56,-278.7 59,-264.25 26.45,-215.05 53.38,-182.97 87,-134.5 95.03,-122.93 106.92,-112.85 117.68,-105.22"/>
<polygon fill="#63b8ff" stroke="#63b8ff" points="119.48,-108.23 125.85,-99.77 115.59,-102.41 119.48,-108.23"/>
</a>
</g>
<g id="a_edge8&#45;headlabel"><a xlink:href="dir_000006_000022.html" target="_top" xlink:title="4">
<text text-anchor="middle" x="119.33" y="-107.88" font-family="Helvetica,sans-Serif" font-size="10.00" fill="#63b8ff">4</text>
</a>
</g>
</g>
<!-- dir_6a79cfc049500787c362cfe00e651ec0&#45;&gt;dir_87d18a4dc5174905bfd7d2dc734defe6 -->
<g id="edge7" class="edge">
<title>dir_6a79cfc049500787c362cfe00e651ec0&#45;&gt;dir_87d18a4dc5174905bfd7d2dc734defe6</title>
<g id="a_edge7"><a xlink:href="dir_000006_000025.html" target="_top">
<path fill="none" stroke="#63b8ff" d="M141.65,-301.67C109.14,-291.02 51.9,-271.54 45,-264.25 24.55,-242.64 25,-230.12 25,-200.38 25,-200.38 25,-200.38 25,-143.12 25,-85.76 98.8,-54.92 140.74,-42.03"/>
<polygon fill="#63b8ff" stroke="#63b8ff" points="141.55,-45.44 150.18,-39.29 139.6,-38.72 141.55,-45.44"/>
</a>
</g>
<g id="a_edge7&#45;headlabel"><a xlink:href="dir_000006_000025.html" target="_top" xlink:title="2">
<text text-anchor="middle" x="140.35" y="-44.87" font-family="Helvetica,sans-Serif" font-size="10.00" fill="#63b8ff">2</text>
</a>
</g>
</g>
<!-- dir_b2fab0ad9db13d6f662bc066abb6118d -->
<g id="node6" class="node">
<title>dir_b2fab0ad9db13d6f662bc066abb6118d</title>
<g id="a_node6"><a xlink:href="dir_b2fab0ad9db13d6f662bc066abb6118d.html" target="_top" xlink:title="efficiency">
<polygon fill="#d1a7a7" stroke="#404040" points="293.88,-209 238.12,-209 238.12,-189.75 293.88,-189.75 293.88,-209"/>
<text text-anchor="middle" x="266" y="-195.5" font-family="Helvetica,sans-Serif" font-size="10.00">efficiency</text>
</a>
</g>
</g>
<!-- dir_b2fab0ad9db13d6f662bc066abb6118d&#45;&gt;dir_80e0224605357bcf8f0b9969ec4933a0 -->
<g id="edge10" class="edge">
<title>dir_b2fab0ad9db13d6f662bc066abb6118d&#45;&gt;dir_80e0224605357bcf8f0b9969ec4933a0</title>
<g id="a_edge10"><a xlink:href="dir_000008_000014.html" target="_top">
<path fill="none" stroke="#63b8ff" d="M255.99,-189.34C247.63,-181.8 235.5,-170.85 225.4,-161.73"/>
<polygon fill="#63b8ff" stroke="#63b8ff" points="227.75,-159.14 217.98,-155.04 223.06,-164.34 227.75,-159.14"/>
</a>
</g>
<g id="a_edge10&#45;headlabel"><a xlink:href="dir_000008_000014.html" target="_top" xlink:title="1">
<text text-anchor="middle" x="231.2" y="-154.55" font-family="Helvetica,sans-Serif" font-size="10.00" fill="#63b8ff">1</text>
</a>
</g>
</g>
<!-- dir_80e0224605357bcf8f0b9969ec4933a0&#45;&gt;dir_d81d19ccf3f7a799fa4dbd39188dcaa8 -->
<g id="edge12" class="edge">
<title>dir_80e0224605357bcf8f0b9969ec4933a0&#45;&gt;dir_d81d19ccf3f7a799fa4dbd39188dcaa8</title>
<g id="a_edge12"><a xlink:href="dir_000014_000022.html" target="_top">
<path fill="none" stroke="#63b8ff" d="M196.14,-134.09C186.89,-126.4 173.38,-115.15 162.29,-105.93"/>
<polygon fill="#63b8ff" stroke="#63b8ff" points="164.79,-103.45 154.86,-99.74 160.31,-108.83 164.79,-103.45"/>
</a>
</g>
<g id="a_edge12&#45;headlabel"><a xlink:href="dir_000014_000022.html" target="_top" xlink:title="1">
<text text-anchor="middle" x="168.2" y="-98.72" font-family="Helvetica,sans-Serif" font-size="10.00" fill="#63b8ff">1</text>
</a>
</g>
</g>
<!-- dir_80e0224605357bcf8f0b9969ec4933a0&#45;&gt;dir_87d18a4dc5174905bfd7d2dc734defe6 -->
<g id="edge11" class="edge">
<title>dir_80e0224605357bcf8f0b9969ec4933a0&#45;&gt;dir_87d18a4dc5174905bfd7d2dc734defe6</title>
<g id="a_edge11"><a xlink:href="dir_000014_000025.html" target="_top">
<path fill="none" stroke="#63b8ff" d="M203.89,-134.25C197.82,-116.92 184.27,-78.23 175.96,-54.49"/>
<polygon fill="#63b8ff" stroke="#63b8ff" points="179.26,-53.34 172.65,-45.06 172.66,-55.65 179.26,-53.34"/>
</a>
</g>
<g id="a_edge11&#45;headlabel"><a xlink:href="dir_000014_000025.html" target="_top" xlink:title="2">
<text text-anchor="middle" x="182.63" y="-50.49" font-family="Helvetica,sans-Serif" font-size="10.00" fill="#63b8ff">2</text>
</a>
</g>
</g>
<!-- dir_badc4295f65c7828fd86261e55722881 -->
<g id="node8" class="node">
<title>dir_badc4295f65c7828fd86261e55722881</title>
<g id="a_node8"><a xlink:href="dir_badc4295f65c7828fd86261e55722881.html" target="_top" xlink:title="ornl">
<polygon fill="#d1a7a7" stroke="#404040" points="278.88,-319.5 247.12,-319.5 247.12,-300.25 278.88,-300.25 278.88,-319.5"/>
<text text-anchor="middle" x="263" y="-306" font-family="Helvetica,sans-Serif" font-size="10.00">ornl</text>
</a>
</g>
</g>
<!-- dir_2288728dba6c23af0130f7abab0b92af -->
<g id="node9" class="node">
<title>dir_2288728dba6c23af0130f7abab0b92af</title>
<g id="a_node9"><a xlink:href="dir_2288728dba6c23af0130f7abab0b92af.html" target="_top" xlink:title="processor">
<polygon fill="#d1a7a7" stroke="#404040" points="220.38,-209 161.62,-209 161.62,-189.75 220.38,-189.75 220.38,-209"/>
<text text-anchor="middle" x="191" y="-195.5" font-family="Helvetica,sans-Serif" font-size="10.00">processor</text>
</a>
</g>
</g>
<!-- dir_2288728dba6c23af0130f7abab0b92af&#45;&gt;dir_80e0224605357bcf8f0b9969ec4933a0 -->
<g id="edge13" class="edge">
<title>dir_2288728dba6c23af0130f7abab0b92af&#45;&gt;dir_80e0224605357bcf8f0b9969ec4933a0</title>
<g id="a_edge13"><a xlink:href="dir_000016_000014.html" target="_top">
<path fill="none" stroke="#63b8ff" d="M193.64,-189.58C195.64,-182.92 198.48,-173.49 201.02,-165.03"/>
<polygon fill="#63b8ff" stroke="#63b8ff" points="204.34,-166.14 203.86,-155.56 197.64,-164.13 204.34,-166.14"/>
</a>
</g>
<g id="a_edge13&#45;headlabel"><a xlink:href="dir_000016_000014.html" target="_top" xlink:title="1">
<text text-anchor="middle" x="206.46" y="-165.08" font-family="Helvetica,sans-Serif" font-size="10.00" fill="#63b8ff">1</text>
</a>
</g>
</g>
<!-- dir_2288728dba6c23af0130f7abab0b92af&#45;&gt;dir_d81d19ccf3f7a799fa4dbd39188dcaa8 -->
<g id="edge14" class="edge">
<title>dir_2288728dba6c23af0130f7abab0b92af&#45;&gt;dir_d81d19ccf3f7a799fa4dbd39188dcaa8</title>
<g id="a_edge14"><a xlink:href="dir_000016_000022.html" target="_top">
<path fill="none" stroke="#63b8ff" d="M187.07,-189.5C179.34,-172.01 161.98,-132.77 151.5,-109.09"/>
<polygon fill="#63b8ff" stroke="#63b8ff" points="154.84,-107.99 147.59,-100.26 148.44,-110.82 154.84,-107.99"/>
</a>
</g>
<g id="a_edge14&#45;headlabel"><a xlink:href="dir_000016_000022.html" target="_top" xlink:title="1">
<text text-anchor="middle" x="158.28" y="-104.87" font-family="Helvetica,sans-Serif" font-size="10.00" fill="#63b8ff">1</text>
</a>
</g>
</g>
<!-- dir_aa90e1d736c4efc041844c6a212fc75e -->
<g id="node10" class="node">
<title>dir_aa90e1d736c4efc041844c6a212fc75e</title>
<g id="a_node10"><a xlink:href="dir_aa90e1d736c4efc041844c6a212fc75e.html" target="_top" xlink:title="sort">
<polygon fill="#d1a7a7" stroke="#404040" points="364.25,-209 331.75,-209 331.75,-189.75 364.25,-189.75 364.25,-209"/>
<text text-anchor="middle" x="348" y="-195.5" font-family="Helvetica,sans-Serif" font-size="10.00">sort</text>
</a>
</g>
</g>
<!-- dir_aa90e1d736c4efc041844c6a212fc75e&#45;&gt;dir_80e0224605357bcf8f0b9969ec4933a0 -->
<g id="edge15" class="edge">
<title>dir_aa90e1d736c4efc041844c6a212fc75e&#45;&gt;dir_80e0224605357bcf8f0b9969ec4933a0</title>
<g id="a_edge15"><a xlink:href="dir_000018_000014.html" target="_top">
<path fill="none" stroke="#63b8ff" d="M331.27,-192.06C309.31,-183.76 270.21,-169 241.72,-158.24"/>
<polygon fill="#63b8ff" stroke="#63b8ff" points="243.01,-154.98 232.42,-154.72 240.54,-161.53 243.01,-154.98"/>
</a>
</g>
<g id="a_edge15&#45;headlabel"><a xlink:href="dir_000018_000014.html" target="_top" xlink:title="4">
<text text-anchor="middle" x="245.96" y="-149.19" font-family="Helvetica,sans-Serif" font-size="10.00" fill="#63b8ff">4</text>
</a>
</g>
</g>
<!-- dir_aa90e1d736c4efc041844c6a212fc75e&#45;&gt;dir_d81d19ccf3f7a799fa4dbd39188dcaa8 -->
<g id="edge17" class="edge">
<title>dir_aa90e1d736c4efc041844c6a212fc75e&#45;&gt;dir_d81d19ccf3f7a799fa4dbd39188dcaa8</title>
<g id="a_edge17"><a xlink:href="dir_000018_000022.html" target="_top">
<path fill="none" stroke="#63b8ff" d="M334.09,-189.39C313.95,-176.54 275.3,-152.48 241,-134.5 219.31,-123.13 194.15,-111.71 174.76,-103.27"/>
<polygon fill="#63b8ff" stroke="#63b8ff" points="176.31,-100.13 165.74,-99.38 173.54,-106.56 176.31,-100.13"/>
</a>
</g>
<g id="a_edge17&#45;headlabel"><a xlink:href="dir_000018_000022.html" target="_top" xlink:title="1">
<text text-anchor="middle" x="179.35" y="-94.47" font-family="Helvetica,sans-Serif" font-size="10.00" fill="#63b8ff">1</text>
</a>
</g>
</g>
<!-- dir_906a7a901dbcfec531ab813d8e7b69dd -->
<g id="node13" class="node">
<title>dir_906a7a901dbcfec531ab813d8e7b69dd</title>
<g id="a_node13"><a xlink:href="dir_906a7a901dbcfec531ab813d8e7b69dd.html" target="_top" xlink:title="tree">
<polygon fill="#d1a7a7" stroke="#404040" points="305.25,-98.5 272.75,-98.5 272.75,-79.25 305.25,-79.25 305.25,-98.5"/>
<text text-anchor="middle" x="289" y="-85" font-family="Helvetica,sans-Serif" font-size="10.00">tree</text>
</a>
</g>
</g>
<!-- dir_aa90e1d736c4efc041844c6a212fc75e&#45;&gt;dir_906a7a901dbcfec531ab813d8e7b69dd -->
<g id="edge16" class="edge">
<title>dir_aa90e1d736c4efc041844c6a212fc75e&#45;&gt;dir_906a7a901dbcfec531ab813d8e7b69dd</title>
<g id="a_edge16"><a xlink:href="dir_000018_000024.html" target="_top">
<path fill="none" stroke="#63b8ff" d="M343.17,-189.5C333.62,-171.93 312.13,-132.41 299.27,-108.77"/>
<polygon fill="#63b8ff" stroke="#63b8ff" points="302.47,-107.32 294.62,-100.21 296.32,-110.66 302.47,-107.32"/>
</a>
</g>
<g id="a_edge16&#45;headlabel"><a xlink:href="dir_000018_000024.html" target="_top" xlink:title="1">
<text text-anchor="middle" x="305.96" y="-103.92" font-family="Helvetica,sans-Serif" font-size="10.00" fill="#63b8ff">1</text>
</a>
</g>
</g>
<!-- dir_dde98f77fcca3096b398273c24659d1f&#45;&gt;dir_80e0224605357bcf8f0b9969ec4933a0 -->
<g id="edge18" class="edge">
<title>dir_dde98f77fcca3096b398273c24659d1f&#45;&gt;dir_80e0224605357bcf8f0b9969ec4933a0</title>
<g id="a_edge18"><a xlink:href="dir_000019_000014.html" target="_top">
<path fill="none" stroke="#63b8ff" d="M121.47,-189.34C137.31,-181.16 160.91,-168.96 179.31,-159.44"/>
<polygon fill="#63b8ff" stroke="#63b8ff" points="180.82,-162.6 188.1,-154.9 177.61,-156.38 180.82,-162.6"/>
</a>
</g>
<g id="a_edge18&#45;headlabel"><a xlink:href="dir_000019_000014.html" target="_top" xlink:title="3">
<text text-anchor="middle" x="180.28" y="-162.2" font-family="Helvetica,sans-Serif" font-size="10.00" fill="#63b8ff">3</text>
</a>
</g>
</g>
<!-- dir_dde98f77fcca3096b398273c24659d1f&#45;&gt;dir_d81d19ccf3f7a799fa4dbd39188dcaa8 -->
<g id="edge20" class="edge">
<title>dir_dde98f77fcca3096b398273c24659d1f&#45;&gt;dir_d81d19ccf3f7a799fa4dbd39188dcaa8</title>
<g id="a_edge20"><a xlink:href="dir_000019_000022.html" target="_top">
<path fill="none" stroke="#63b8ff" d="M103.28,-189.5C106.32,-172.01 119.96,-132.77 130.8,-109.09"/>
<polygon fill="#63b8ff" stroke="#63b8ff" points="133.88,-110.75 135.16,-100.23 127.6,-107.66 133.88,-110.75"/>
</a>
</g>
<g id="a_edge20&#45;headlabel"><a xlink:href="dir_000019_000022.html" target="_top" xlink:title="7">
<text text-anchor="middle" x="135.5" y="-110" font-family="Helvetica,sans-Serif" font-size="10.00" fill="#63b8ff">7</text>
</a>
</g>
</g>
<!-- dir_dde98f77fcca3096b398273c24659d1f&#45;&gt;dir_87d18a4dc5174905bfd7d2dc734defe6 -->
<g id="edge19" class="edge">
<title>dir_dde98f77fcca3096b398273c24659d1f&#45;&gt;dir_87d18a4dc5174905bfd7d2dc734defe6</title>
<g id="a_edge19"><a xlink:href="dir_000019_000025.html" target="_top">
<path fill="none" stroke="#63b8ff" d="M102.37,-189.34C99.07,-168.52 93.5,-116.1 113,-79.25 119.5,-66.97 131,-56.9 141.89,-49.46"/>
<polygon fill="#63b8ff" stroke="#63b8ff" points="143.69,-52.47 150.29,-44.18 139.96,-46.54 143.69,-52.47"/>
</a>
</g>
<g id="a_edge19&#45;headlabel"><a xlink:href="dir_000019_000025.html" target="_top" xlink:title="7">
<text text-anchor="middle" x="143.44" y="-52.11" font-family="Helvetica,sans-Serif" font-size="10.00" fill="#63b8ff">7</text>
</a>
</g>
</g>
<!-- dir_d81d19ccf3f7a799fa4dbd39188dcaa8&#45;&gt;dir_dde98f77fcca3096b398273c24659d1f -->
<g id="edge22" class="edge">
<title>dir_d81d19ccf3f7a799fa4dbd39188dcaa8&#45;&gt;dir_dde98f77fcca3096b398273c24659d1f</title>
<g id="a_edge22"><a xlink:href="dir_000022_000019.html" target="_top">
<path fill="none" stroke="#63b8ff" d="M143.7,-98.88C140.61,-116.46 126.95,-155.72 116.13,-179.33"/>
<polygon fill="#63b8ff" stroke="#63b8ff" points="113.07,-177.62 111.77,-188.14 119.34,-180.72 113.07,-177.62"/>
</a>
</g>
<g id="a_edge22&#45;headlabel"><a xlink:href="dir_000022_000019.html" target="_top" xlink:title="1">
<text text-anchor="middle" x="111.44" y="-170.62" font-family="Helvetica,sans-Serif" font-size="10.00" fill="#63b8ff">1</text>
</a>
</g>
</g>
<!-- dir_d81d19ccf3f7a799fa4dbd39188dcaa8&#45;&gt;dir_87d18a4dc5174905bfd7d2dc734defe6 -->
<g id="edge21" class="edge">
<title>dir_d81d19ccf3f7a799fa4dbd39188dcaa8&#45;&gt;dir_87d18a4dc5174905bfd7d2dc734defe6</title>
<g id="a_edge21"><a xlink:href="dir_000022_000025.html" target="_top">
<path fill="none" stroke="#63b8ff" d="M147.29,-79.08C150.62,-72.26 155.36,-62.56 159.56,-53.95"/>
<polygon fill="#63b8ff" stroke="#63b8ff" points="162.71,-55.49 163.95,-44.97 156.42,-52.42 162.71,-55.49"/>
</a>
</g>
<g id="a_edge21&#45;headlabel"><a xlink:href="dir_000022_000025.html" target="_top" xlink:title="1">
<text text-anchor="middle" x="164.35" y="-54.73" font-family="Helvetica,sans-Serif" font-size="10.00" fill="#63b8ff">1</text>
</a>
</g>
</g>
<!-- dir_906a7a901dbcfec531ab813d8e7b69dd&#45;&gt;dir_87d18a4dc5174905bfd7d2dc734defe6 -->
<g id="edge23" class="edge">
<title>dir_906a7a901dbcfec531ab813d8e7b69dd&#45;&gt;dir_87d18a4dc5174905bfd7d2dc734defe6</title>
<g id="a_edge23"><a xlink:href="dir_000024_000025.html" target="_top">
<path fill="none" stroke="#63b8ff" d="M272.31,-80.47C252.75,-71.79 220.01,-57.26 196.63,-46.89"/>
<polygon fill="#63b8ff" stroke="#63b8ff" points="198.26,-43.78 187.7,-42.93 195.43,-50.18 198.26,-43.78"/>
</a>
</g>
<g id="a_edge23&#45;headlabel"><a xlink:href="dir_000024_000025.html" target="_top" xlink:title="4">
<text text-anchor="middle" x="201.32" y="-38.16" font-family="Helvetica,sans-Serif" font-size="10.00" fill="#63b8ff">4</text>
</a>
</g>
</g>
<!-- dir_e8f01744e326f40c4ef72a10bc6295a7 -->
<g id="node15" class="node">
<title>dir_e8f01744e326f40c4ef72a10bc6295a7</title>
<g id="a_node15"><a xlink:href="dir_e8f01744e326f40c4ef72a10bc6295a7.html" target="_top" xlink:title="viewer">
<polygon fill="#d1a7a7" stroke="#404040" points="362.25,-319.5 317.75,-319.5 317.75,-300.25 362.25,-300.25 362.25,-319.5"/>
<text text-anchor="middle" x="340" y="-306" font-family="Helvetica,sans-Serif" font-size="10.00">viewer</text>
</a>
</g>
</g>
</g>
</svg>
</svg>

<style type='text/css'>
<![CDATA[
[data-mouse-over-selected='false'] { opacity: 0.7; }
[data-mouse-over-selected='true']  { opacity: 1.0; }
]]>
</style>
<script type="application/ecmascript"><![CDATA[
document.addEventListener('DOMContentLoaded', (event) => {
  highlightEdges();
  highlightAdjacentNodes();
});
]]></script>
</svg>
