<?xml version="1.0" encoding="UTF-8" standalone="no"?>
<!DOCTYPE svg PUBLIC "-//W3C//DTD SVG 1.1//EN"
 "http://www.w3.org/Graphics/SVG/1.1/DTD/svg11.dtd">
<!-- Generated by graphviz version 6.0.2 (20221011.1828)
 -->
<!-- Title: src/lib/sort Pages: 1 -->
<svg width="203pt" height="133pt"
 viewBox="0.00 0.00 203.00 133.00" xmlns="http://www.w3.org/2000/svg" xmlns:xlink="http://www.w3.org/1999/xlink">
<g id="graph0" class="graph" transform="scale(1 1) rotate(0) translate(4 129)">
<title>src/lib/sort</title>
<g id="clust1" class="cluster">
<title>clusterdir_c85d3e3c5052e9ad9ce18c6863244a25</title>
<g id="a_clust1"><a xlink:href="dir_c85d3e3c5052e9ad9ce18c6863244a25.html" target="_top" xlink:title="lib">
<polygon fill="#f6eeee" stroke="#7f7f7f" stroke-dasharray="5,2" points="8,-8 8,-117 187,-117 187,-8 8,-8"/>
<text text-anchor="middle" x="97.5" y="-105" font-family="Helvetica,sans-Serif" font-size="10.00">lib</text>
</a>
</g>
</g>
<!-- dir_80e0224605357bcf8f0b9969ec4933a0 -->
<g id="node1" class="node">
<title>dir_80e0224605357bcf8f0b9969ec4933a0</title>
<g id="a_node1"><a xlink:href="dir_80e0224605357bcf8f0b9969ec4933a0.html" target="_top" xlink:title="nucleus">
<polygon fill="#d1a7a7" stroke="#404040" points="66,-35 16,-35 16,-16 66,-16 66,-35"/>
<text text-anchor="middle" x="41" y="-23" font-family="Helvetica,sans-Serif" font-size="10.00">nucleus</text>
</a>
</g>
</g>
<!-- dir_906a7a901dbcfec531ab813d8e7b69dd -->
<g id="node2" class="node">
<title>dir_906a7a901dbcfec531ab813d8e7b69dd</title>
<g id="a_node2"><a xlink:href="dir_906a7a901dbcfec531ab813d8e7b69dd.html" target="_top" xlink:title="tree">
<polygon fill="#d1a7a7" stroke="#404040" points="117.5,-35 84.5,-35 84.5,-16 117.5,-16 117.5,-35"/>
<text text-anchor="middle" x="101" y="-23" font-family="Helvetica,sans-Serif" font-size="10.00">tree</text>
</a>
</g>
</g>
<!-- dir_d81d19ccf3f7a799fa4dbd39188dcaa8 -->
<g id="node3" class="node">
<title>dir_d81d19ccf3f7a799fa4dbd39188dcaa8</title>
<g id="a_node3"><a xlink:href="dir_d81d19ccf3f7a799fa4dbd39188dcaa8.html" target="_top" xlink:title="toolkit">
<polygon fill="#d1a7a7" stroke="#404040" points="178.5,-35 135.5,-35 135.5,-16 178.5,-16 178.5,-35"/>
<text text-anchor="middle" x="157" y="-23" font-family="Helvetica,sans-Serif" font-size="10.00">toolkit</text>
</a>
</g>
</g>
<!-- dir_aa90e1d736c4efc041844c6a212fc75e -->
<g id="node4" class="node">
<title>dir_aa90e1d736c4efc041844c6a212fc75e</title>
<g id="a_node4"><a xlink:href="dir_aa90e1d736c4efc041844c6a212fc75e.html" target="_top" xlink:title="sort">
<polygon fill="#f6eeee" stroke="#404040" stroke-width="2" points="117.5,-90 84.5,-90 84.5,-71 117.5,-71 117.5,-90"/>
<text text-anchor="middle" x="101" y="-78" font-family="Helvetica,sans-Serif" font-size="10.00">sort</text>
</a>
</g>
</g>
<!-- dir_aa90e1d736c4efc041844c6a212fc75e&#45;&gt;dir_80e0224605357bcf8f0b9969ec4933a0 -->
<g id="edge1" class="edge">
<title>dir_aa90e1d736c4efc041844c6a212fc75e&#45;&gt;dir_80e0224605357bcf8f0b9969ec4933a0</title>
<path fill="none" stroke="#63b8ff" d="M91.36,-70.98C82.49,-63.15 69.13,-51.34 58.39,-41.86"/>
<polygon fill="#63b8ff" stroke="#63b8ff" points="60.63,-39.17 50.82,-35.17 55.99,-44.41 60.63,-39.17"/>
<g id="a_edge1&#45;headlabel"><a xlink:href="dir_000018_000014.html" target="_top" xlink:title="4">
<text text-anchor="middle" x="65.2" y="-36.92" font-family="Helvetica,sans-Serif" font-size="10.00" fill="#63b8ff">4</text>
</a>
</g>
</g>
<!-- dir_aa90e1d736c4efc041844c6a212fc75e&#45;&gt;dir_906a7a901dbcfec531ab813d8e7b69dd -->
<g id="edge2" class="edge">
<title>dir_aa90e1d736c4efc041844c6a212fc75e&#45;&gt;dir_906a7a901dbcfec531ab813d8e7b69dd</title>
<path fill="none" stroke="#63b8ff" d="M101,-70.75C101,-63.8 101,-53.85 101,-45.13"/>
<polygon fill="#63b8ff" stroke="#63b8ff" points="104.5,-45.09 101,-35.09 97.5,-45.09 104.5,-45.09"/>
<g id="a_edge2&#45;headlabel"><a xlink:href="dir_000018_000024.html" target="_top" xlink:title="1">
<text text-anchor="middle" x="107.34" y="-46.18" font-family="Helvetica,sans-Serif" font-size="10.00" fill="#63b8ff">1</text>
</a>
</g>
</g>
<!-- dir_aa90e1d736c4efc041844c6a212fc75e&#45;&gt;dir_d81d19ccf3f7a799fa4dbd39188dcaa8 -->
<g id="edge3" class="edge">
<title>dir_aa90e1d736c4efc041844c6a212fc75e&#45;&gt;dir_d81d19ccf3f7a799fa4dbd39188dcaa8</title>
<path fill="none" stroke="#63b8ff" d="M110,-70.98C118.19,-63.23 130.51,-51.58 140.47,-42.14"/>
<polygon fill="#63b8ff" stroke="#63b8ff" points="142.98,-44.59 147.84,-35.17 138.17,-39.5 142.98,-44.59"/>
<g id="a_edge3&#45;headlabel"><a xlink:href="dir_000018_000022.html" target="_top" xlink:title="1">
<text text-anchor="middle" x="142.32" y="-46.62" font-family="Helvetica,sans-Serif" font-size="10.00" fill="#63b8ff">1</text>
</a>
</g>
</g>
</g>
</svg>
