<?xml version="1.0" encoding="UTF-8" standalone="no"?>
<!DOCTYPE svg PUBLIC "-//W3C//DTD SVG 1.1//EN"
 "http://www.w3.org/Graphics/SVG/1.1/DTD/svg11.dtd">
<!-- Generated by graphviz version 6.0.2 (20221011.1828)
 -->
<!-- Title: src/bin Pages: 1 -->
<!--zoomable 141 -->
<svg id="main" version="1.1" xmlns="http://www.w3.org/2000/svg" xmlns:xlink="http://www.w3.org/1999/xlink" xml:space="preserve" onload="init(evt)">
<style type="text/css"><![CDATA[
.edge:hover path { stroke: red; }
.edge:hover polygon { stroke: red; fill: red; }
]]></style>
<script type="text/javascript"><![CDATA[
var edges = document.getElementsByTagName('g');
if (edges && edges.length) {
  for (var i=0;i<edges.length;i++) {
    if (edges[i].id.substr(0,4)=='edge') {
      edges[i].setAttribute('class','edge');
    }
  }
}
]]></script>
        <defs>
                <circle id="rim" cx="0" cy="0" r="7"/>
                <circle id="rim2" cx="0" cy="0" r="3.5"/>
                <g id="zoomPlus">
                        <use xlink:href="#rim" fill="#404040">
                                <set attributeName="fill" to="#808080" begin="zoomplus.mouseover" end="zoomplus.mouseout"/>
                        </use>
                        <path d="M-4,0h8M0,-4v8" fill="none" stroke="white" stroke-width="1.5" pointer-events="none"/>
                </g>
                <g id="zoomMin">
                        <use xlink:href="#rim" fill="#404040">
                                <set attributeName="fill" to="#808080" begin="zoomminus.mouseover" end="zoomminus.mouseout"/>
                        </use>
                        <path d="M-4,0h8" fill="none" stroke="white" stroke-width="1.5" pointer-events="none"/>
                </g>
                <g id="dirArrow">
                        <path fill="none" stroke="white" stroke-width="1.5" d="M0,-3.0v7 M-2.5,-0.5L0,-3.0L2.5,-0.5"/>
                </g>
               <g id="resetDef">
                       <use xlink:href="#rim2" fill="#404040">
                               <set attributeName="fill" to="#808080" begin="reset.mouseover" end="reset.mouseout"/>
                       </use>
               </g>
        </defs>

<script type="text/javascript">
var viewWidth = 511;
var viewHeight = 141;
var sectionId = 'dynsection-0';
</script>
<script xlink:href="svgpan.js"/>
<svg id="graph" class="graph">
<g id="viewport">
<title>src/bin</title>
<g id="clust1" class="cluster">
<title>clusterdir_68267d1309a1af8e8297ef4c3efbcdba</title>
<g id="a_clust1"><a xlink:href="dir_68267d1309a1af8e8297ef4c3efbcdba.html" target="_top" xlink:title="src">
<polygon fill="#f6eeee" stroke="#404040" stroke-dasharray="5,2" points="8,-8 8,-125 495,-125 495,-8 8,-8"/>
<text text-anchor="middle" x="251.5" y="-113" font-family="Helvetica,sans-Serif" font-size="10.00">src</text>
</a>
</g>
</g>
<g id="clust2" class="cluster">
<title>clusterdir_031c4fc26031de218e3c67acfca35073</title>
<g id="a_clust2"><a xlink:href="dir_031c4fc26031de218e3c67acfca35073.html" target="_top">
<polygon fill="#f6eeee" stroke="#404040" stroke-width="2" points="16,-63 16,-98 487,-98 487,-63 16,-63"/>
</a>
</g>
</g>
<!-- dir_c85d3e3c5052e9ad9ce18c6863244a25 -->
<g id="node1" class="node">
<title>dir_c85d3e3c5052e9ad9ce18c6863244a25</title>
<g id="a_node1"><a xlink:href="dir_c85d3e3c5052e9ad9ce18c6863244a25.html" target="_top" xlink:title="lib">
<polygon fill="#d1a7a7" stroke="red" points="207.5,-35 178.5,-35 178.5,-16 207.5,-16 207.5,-35"/>
<text text-anchor="middle" x="193" y="-23" font-family="Helvetica,sans-Serif" font-size="10.00">lib</text>
</a>
</g>
</g>
<!-- dir_031c4fc26031de218e3c67acfca35073 -->
<g id="node2" class="node">
<title>dir_031c4fc26031de218e3c67acfca35073</title>
<text text-anchor="middle" x="464" y="-78" font-family="Helvetica,sans-Serif" font-size="10.00">bin</text>
</g>
<!-- dir_9de81250746d4d85455b4df6b01cd617 -->
<g id="node3" class="node">
<title>dir_9de81250746d4d85455b4df6b01cd617</title>
<g id="a_node3"><a xlink:href="dir_9de81250746d4d85455b4df6b01cd617.html" target="_top" xlink:title="ban2root">
<polygon fill="#d1a7a7" stroke="#404040" points="431,-90 377,-90 377,-71 431,-71 431,-90"/>
<text text-anchor="middle" x="404" y="-78" font-family="Helvetica,sans-Serif" font-size="10.00">ban2root</text>
</a>
</g>
</g>
<!-- dir_9de81250746d4d85455b4df6b01cd617&#45;&gt;dir_c85d3e3c5052e9ad9ce18c6863244a25 -->
<g id="edge1" class="edge">
<title>dir_9de81250746d4d85455b4df6b01cd617&#45;&gt;dir_c85d3e3c5052e9ad9ce18c6863244a25</title>
<path fill="none" stroke="#63b8ff" d="M387.46,-70.98C381.45,-68.14 374.53,-65.15 368,-63 315.86,-45.85 252.24,-34.98 217.88,-29.89"/>
<polygon fill="#63b8ff" stroke="#63b8ff" points="218.21,-26.4 207.81,-28.44 217.21,-33.33 218.21,-26.4"/>
<g id="a_edge1&#45;headlabel"><a xlink:href="dir_000002_000012.html" target="_top" xlink:title="1">
<text text-anchor="middle" x="222.17" y="-21.6" font-family="Helvetica,sans-Serif" font-size="10.00" fill="#63b8ff">1</text>
</a>
</g>
</g>
<!-- dir_f2d0008c2927587f7d55891148a10d22 -->
<g id="node4" class="node">
<title>dir_f2d0008c2927587f7d55891148a10d22</title>
<g id="a_node4"><a xlink:href="dir_f2d0008c2927587f7d55891148a10d22.html" target="_top" xlink:title="bin2root">
<polygon fill="#d1a7a7" stroke="#404040" points="358.5,-90 307.5,-90 307.5,-71 358.5,-71 358.5,-90"/>
<text text-anchor="middle" x="333" y="-78" font-family="Helvetica,sans-Serif" font-size="10.00">bin2root</text>
</a>
</g>
</g>
<!-- dir_0b2f16dd70b610d17ceb32d5ec6fcfe6 -->
<g id="node5" class="node">
<title>dir_0b2f16dd70b610d17ceb32d5ec6fcfe6</title>
<g id="a_node5"><a xlink:href="dir_0b2f16dd70b610d17ceb32d5ec6fcfe6.html" target="_top" xlink:title="gamrcal">
<polygon fill="#d1a7a7" stroke="#404040" points="289.5,-90 238.5,-90 238.5,-71 289.5,-71 289.5,-90"/>
<text text-anchor="middle" x="264" y="-78" font-family="Helvetica,sans-Serif" font-size="10.00">gamrcal</text>
</a>
</g>
</g>
<!-- dir_e71be6491a58e33a05a0854f291058a0 -->
<g id="node6" class="node">
<title>dir_e71be6491a58e33a05a0854f291058a0</title>
<g id="a_node6"><a xlink:href="dir_e71be6491a58e33a05a0854f291058a0.html" target="_top" xlink:title="gamrsort">
<polygon fill="#d1a7a7" stroke="#404040" points="220.5,-90 165.5,-90 165.5,-71 220.5,-71 220.5,-90"/>
<text text-anchor="middle" x="193" y="-78" font-family="Helvetica,sans-Serif" font-size="10.00">gamrsort</text>
</a>
</g>
</g>
<!-- dir_e71be6491a58e33a05a0854f291058a0&#45;&gt;dir_c85d3e3c5052e9ad9ce18c6863244a25 -->
<g id="edge2" class="edge">
<title>dir_e71be6491a58e33a05a0854f291058a0&#45;&gt;dir_c85d3e3c5052e9ad9ce18c6863244a25</title>
<path fill="none" stroke="#63b8ff" d="M193,-70.75C193,-63.8 193,-53.85 193,-45.13"/>
<polygon fill="#63b8ff" stroke="#63b8ff" points="196.5,-45.09 193,-35.09 189.5,-45.09 196.5,-45.09"/>
<g id="a_edge2&#45;headlabel"><a xlink:href="dir_000010_000012.html" target="_top" xlink:title="10">
<text text-anchor="middle" x="199.34" y="-46.18" font-family="Helvetica,sans-Serif" font-size="10.00" fill="#63b8ff">10</text>
</a>
</g>
</g>
<!-- dir_0a46798c975ca2cfd2ff742a12fc5df3 -->
<g id="node7" class="node">
<title>dir_0a46798c975ca2cfd2ff742a12fc5df3</title>
<g id="a_node7"><a xlink:href="dir_0a46798c975ca2cfd2ff742a12fc5df3.html" target="_top" xlink:title="his2root">
<polygon fill="#d1a7a7" stroke="#404040" points="147.5,-90 96.5,-90 96.5,-71 147.5,-71 147.5,-90"/>
<text text-anchor="middle" x="122" y="-78" font-family="Helvetica,sans-Serif" font-size="10.00">his2root</text>
</a>
</g>
</g>
<!-- dir_aba6f5845ff58f892acd7e475dc2a3b1 -->
<g id="node8" class="node">
<title>dir_aba6f5845ff58f892acd7e475dc2a3b1</title>
<g id="a_node8"><a xlink:href="dir_aba6f5845ff58f892acd7e475dc2a3b1.html" target="_top" xlink:title="root2ban">
<polygon fill="#d1a7a7" stroke="#404040" points="78,-90 24,-90 24,-71 78,-71 78,-90"/>
<text text-anchor="middle" x="51" y="-78" font-family="Helvetica,sans-Serif" font-size="10.00">root2ban</text>
</a>
</g>
</g>
<!-- dir_aba6f5845ff58f892acd7e475dc2a3b1&#45;&gt;dir_c85d3e3c5052e9ad9ce18c6863244a25 -->
<g id="edge3" class="edge">
<title>dir_aba6f5845ff58f892acd7e475dc2a3b1&#45;&gt;dir_c85d3e3c5052e9ad9ce18c6863244a25</title>
<path fill="none" stroke="#63b8ff" d="M69.31,-70.96C75.23,-68.31 81.85,-65.43 88,-63 115.29,-52.19 147.22,-41.34 168.64,-34.32"/>
<polygon fill="#63b8ff" stroke="#63b8ff" points="169.82,-37.61 178.25,-31.19 167.66,-30.96 169.82,-37.61"/>
<g id="a_edge3&#45;headlabel"><a xlink:href="dir_000017_000012.html" target="_top" xlink:title="1">
<text text-anchor="middle" x="167.28" y="-38.92" font-family="Helvetica,sans-Serif" font-size="10.00" fill="#63b8ff">1</text>
</a>
</g>
</g>
</g>
</svg>
        <g id="navigator" transform="translate(0 0)" fill="#404254">
                <rect fill="#f2f5e9" fill-opacity="0.5" stroke="#606060" stroke-width=".5" x="0" y="0" width="60" height="60"/>
                <use id="zoomplus" xlink:href="#zoomPlus" x="17" y="9" onmousedown="handleZoom(evt,'in')"/>
                <use id="zoomminus" xlink:href="#zoomMin" x="42" y="9" onmousedown="handleZoom(evt,'out')"/>
                <use id="reset" xlink:href="#resetDef" x="30" y="36" onmousedown="handleReset()"/>
                <g id="arrowUp" xlink:href="#dirArrow" transform="translate(30 24)" onmousedown="handlePan(0,-1)">
                  <use xlink:href="#rim" fill="#404040">
                        <set attributeName="fill" to="#808080" begin="arrowUp.mouseover" end="arrowUp.mouseout"/>
                  </use>
                  <path fill="none" stroke="white" stroke-width="1.5" d="M0,-3.0v7 M-2.5,-0.5L0,-3.0L2.5,-0.5"/>
                </g>
                <g id="arrowRight" xlink:href="#dirArrow" transform="rotate(90) translate(36 -43)" onmousedown="handlePan(1,0)">
                  <use xlink:href="#rim" fill="#404040">
                        <set attributeName="fill" to="#808080" begin="arrowRight.mouseover" end="arrowRight.mouseout"/>
                  </use>
                  <path fill="none" stroke="white" stroke-width="1.5" d="M0,-3.0v7 M-2.5,-0.5L0,-3.0L2.5,-0.5"/>
                </g>
                <g id="arrowDown" xlink:href="#dirArrow" transform="rotate(180) translate(-30 -48)" onmousedown="handlePan(0,1)">
                  <use xlink:href="#rim" fill="#404040">
                        <set attributeName="fill" to="#808080" begin="arrowDown.mouseover" end="arrowDown.mouseout"/>
                  </use>
                  <path fill="none" stroke="white" stroke-width="1.5" d="M0,-3.0v7 M-2.5,-0.5L0,-3.0L2.5,-0.5"/>
                </g>
                <g id="arrowLeft" xlink:href="#dirArrow" transform="rotate(270) translate(-36 17)" onmousedown="handlePan(-1,0)">
                  <use xlink:href="#rim" fill="#404040">
                        <set attributeName="fill" to="#808080" begin="arrowLeft.mouseover" end="arrowLeft.mouseout"/>
                  </use>
                  <path fill="none" stroke="white" stroke-width="1.5" d="M0,-3.0v7 M-2.5,-0.5L0,-3.0L2.5,-0.5"/>
                </g>
        </g>
        <svg viewBox="0 0 15 15" width="100%" height="30px" preserveAspectRatio="xMaxYMin meet">
         <g id="arrow_out" transform="scale(0.3 0.3)">
          <a xlink:href="dir_031c4fc26031de218e3c67acfca35073_dep_org.svg" target="_base">
           <rect id="button" ry="5" rx="5" y="6" x="6" height="38" width="38"
                fill="#f2f5e9" fill-opacity="0.5" stroke="#606060" stroke-width="1.0"/>
           <path id="arrow"
             d="M 11.500037,31.436501 C 11.940474,20.09759 22.043105,11.32322 32.158766,21.979434 L 37.068811,17.246167 C 37.068811,17.246167 37.088388,32 37.088388,32 L 22.160133,31.978069 C 22.160133,31.978069 26.997745,27.140456 26.997745,27.140456 C 18.528582,18.264221 13.291696,25.230495 11.500037,31.436501 z"
             style="fill:#404040;"/>
          </a>
         </g>
        </svg>
</svg>
