<?xml version="1.0" encoding="UTF-8" standalone="no"?>
<!DOCTYPE svg PUBLIC "-//W3C//DTD SVG 1.1//EN"
 "http://www.w3.org/Graphics/SVG/1.1/DTD/svg11.dtd">
<!-- Generated by graphviz version 8.1.0 (20230707.0739)
 -->
<!-- Title: src/lib/coulex Pages: 1 -->
<svg width="200pt" height="134pt"
 viewBox="0.00 0.00 200.00 133.75" xmlns="http://www.w3.org/2000/svg" xmlns:xlink="http://www.w3.org/1999/xlink">
<g id="graph0" class="graph" transform="scale(1 1) rotate(0) translate(4 129.75)">
<title>src/lib/coulex</title>
<g id="clust1" class="cluster">
<title>clusterdir_c85d3e3c5052e9ad9ce18c6863244a25</title>
<g id="a_clust1"><a xlink:href="dir_c85d3e3c5052e9ad9ce18c6863244a25.html" target="_top" xlink:title="lib">
<polygon fill="#f6eeee" stroke="#7f7f7f" stroke-dasharray="5,2" points="8,-8 8,-117.75 184,-117.75 184,-8 8,-8"/>
<text text-anchor="middle" x="96" y="-104.25" font-family="Helvetica,sans-Serif" font-size="10.00">lib</text>
</a>
</g>
</g>
<!-- dir_87d18a4dc5174905bfd7d2dc734defe6 -->
<g id="node1" class="node">
<title>dir_87d18a4dc5174905bfd7d2dc734defe6</title>
<g id="a_node1"><a xlink:href="dir_87d18a4dc5174905bfd7d2dc734defe6.html" target="_top" xlink:title="utils">
<polygon fill="#d1a7a7" stroke="#404040" points="50,-35.25 16,-35.25 16,-16 50,-16 50,-35.25"/>
<text text-anchor="middle" x="33" y="-21.75" font-family="Helvetica,sans-Serif" font-size="10.00">utils</text>
</a>
</g>
</g>
<!-- dir_d81d19ccf3f7a799fa4dbd39188dcaa8 -->
<g id="node2" class="node">
<title>dir_d81d19ccf3f7a799fa4dbd39188dcaa8</title>
<g id="a_node2"><a xlink:href="dir_d81d19ccf3f7a799fa4dbd39188dcaa8.html" target="_top" xlink:title="toolkit">
<polygon fill="#d1a7a7" stroke="#404040" points="110.12,-35.25 67.88,-35.25 67.88,-16 110.12,-16 110.12,-35.25"/>
<text text-anchor="middle" x="89" y="-21.75" font-family="Helvetica,sans-Serif" font-size="10.00">toolkit</text>
</a>
</g>
</g>
<!-- dir_fa2908bbf7c8777569ad45e685a16ed6 -->
<g id="node3" class="node">
<title>dir_fa2908bbf7c8777569ad45e685a16ed6</title>
<g id="a_node3"><a xlink:href="dir_fa2908bbf7c8777569ad45e685a16ed6.html" target="_top" xlink:title="angdist">
<polygon fill="#d1a7a7" stroke="#404040" points="175.75,-35.25 128.25,-35.25 128.25,-16 175.75,-16 175.75,-35.25"/>
<text text-anchor="middle" x="152" y="-21.75" font-family="Helvetica,sans-Serif" font-size="10.00">angdist</text>
</a>
</g>
</g>
<!-- dir_6a79cfc049500787c362cfe00e651ec0 -->
<g id="node4" class="node">
<title>dir_6a79cfc049500787c362cfe00e651ec0</title>
<g id="a_node4"><a xlink:href="dir_6a79cfc049500787c362cfe00e651ec0.html" target="_top" xlink:title="coulex">
<polygon fill="#f6eeee" stroke="#404040" stroke-width="2" points="110.88,-90.5 67.12,-90.5 67.12,-71.25 110.88,-71.25 110.88,-90.5"/>
<text text-anchor="middle" x="89" y="-77" font-family="Helvetica,sans-Serif" font-size="10.00">coulex</text>
</a>
</g>
</g>
<!-- dir_6a79cfc049500787c362cfe00e651ec0&#45;&gt;dir_87d18a4dc5174905bfd7d2dc734defe6 -->
<g id="edge1" class="edge">
<title>dir_6a79cfc049500787c362cfe00e651ec0&#45;&gt;dir_87d18a4dc5174905bfd7d2dc734defe6</title>
<path fill="none" stroke="#63b8ff" d="M79.5,-70.84C71.49,-63.22 59.82,-52.12 50.17,-42.95"/>
<polygon fill="#63b8ff" stroke="#63b8ff" points="53.02,-40.88 43.36,-36.52 48.19,-45.95 53.02,-40.88"/>
<g id="a_edge1&#45;headlabel"><a xlink:href="dir_000006_000025.html" target="_top" xlink:title="2">
<text text-anchor="middle" x="56.58" y="-36.42" font-family="Helvetica,sans-Serif" font-size="10.00" fill="#63b8ff">2</text>
</a>
</g>
</g>
<!-- dir_6a79cfc049500787c362cfe00e651ec0&#45;&gt;dir_d81d19ccf3f7a799fa4dbd39188dcaa8 -->
<g id="edge2" class="edge">
<title>dir_6a79cfc049500787c362cfe00e651ec0&#45;&gt;dir_d81d19ccf3f7a799fa4dbd39188dcaa8</title>
<path fill="none" stroke="#63b8ff" d="M89,-71.08C89,-64.42 89,-54.99 89,-46.53"/>
<polygon fill="#63b8ff" stroke="#63b8ff" points="92.5,-46.61 89,-36.61 85.5,-46.61 92.5,-46.61"/>
<g id="a_edge2&#45;headlabel"><a xlink:href="dir_000006_000022.html" target="_top" xlink:title="4">
<text text-anchor="middle" x="95.34" y="-45.33" font-family="Helvetica,sans-Serif" font-size="10.00" fill="#63b8ff">4</text>
</a>
</g>
</g>
<!-- dir_6a79cfc049500787c362cfe00e651ec0&#45;&gt;dir_fa2908bbf7c8777569ad45e685a16ed6 -->
<g id="edge3" class="edge">
<title>dir_6a79cfc049500787c362cfe00e651ec0&#45;&gt;dir_fa2908bbf7c8777569ad45e685a16ed6</title>
<path fill="none" stroke="#63b8ff" d="M99.69,-70.84C108.88,-63.07 122.36,-51.67 133.34,-42.4"/>
<polygon fill="#63b8ff" stroke="#63b8ff" points="135.09,-44.65 140.47,-35.52 130.57,-39.31 135.09,-44.65"/>
<g id="a_edge3&#45;headlabel"><a xlink:href="dir_000006_000001.html" target="_top" xlink:title="4">
<text text-anchor="middle" x="135.18" y="-45.27" font-family="Helvetica,sans-Serif" font-size="10.00" fill="#63b8ff">4</text>
</a>
</g>
</g>
</g>
</svg>
