<?xml version="1.0" encoding="UTF-8" standalone="no"?>
<!DOCTYPE svg PUBLIC "-//W3C//DTD SVG 1.1//EN"
 "http://www.w3.org/Graphics/SVG/1.1/DTD/svg11.dtd">
<!-- Generated by graphviz version 12.2.1 (20241206.2353)
 -->
<!-- Title: src/bin Pages: 1 -->
<!--zoomable 142 -->

<svg id="main" version="1.1" xmlns="http://www.w3.org/2000/svg" xmlns:xlink="http://www.w3.org/1999/xlink" xml:space="preserve" onload="init(evt)">

<style type="text/css"><![CDATA[
.node, .edge {opacity: 0.7;}
.node.selected, .edge.selected {opacity: 1;}
.edge:hover path { stroke: red; }
.edge:hover polygon { stroke: red; fill: red; }
]]></style>

<defs>
  <circle id="rim" cx="0" cy="0" r="7"/>
  <circle id="rim2" cx="0" cy="0" r="3.5"/>
  <g id="zoomPlus">
    <use xlink:href="#rim" fill="#404040"><set attributeName="fill" to="#808080" begin="zoomplus.mouseover" end="zoomplus.mouseout"/></use>
    <path d="M-4,0h8M0,-4v8" fill="none" stroke="white" stroke-width="1.5" pointer-events="none"/>
  </g>
  <g id="zoomMin">
    <use xlink:href="#rim" fill="#404040"><set attributeName="fill" to="#808080" begin="zoomminus.mouseover" end="zoomminus.mouseout"/></use>
    <path d="M-4,0h8" fill="none" stroke="white" stroke-width="1.5" pointer-events="none"/>
  </g>
  <g id="arrowUp" transform="translate(30 24)">
    <use xlink:href="#rim"/>
    <path pointer-events="none" fill="none" stroke="white" stroke-width="1.5" d="M0,-3.0v7 M-2.5,-0.5L0,-3.0L2.5,-0.5"/>
  </g>
  <g id="arrowRight" transform="rotate(90) translate(36 -43)">
    <use xlink:href="#rim"/>
    <path pointer-events="none" fill="none" stroke="white" stroke-width="1.5" d="M0,-3.0v7 M-2.5,-0.5L0,-3.0L2.5,-0.5"/>
  </g>
  <g id="arrowDown" transform="rotate(180) translate(-30 -48)">
    <use xlink:href="#rim"/>
    <path pointer-events="none" fill="none" stroke="white" stroke-width="1.5" d="M0,-3.0v7 M-2.5,-0.5L0,-3.0L2.5,-0.5"/>
  </g>
  <g id="arrowLeft" transform="rotate(270) translate(-36 17)">
    <use xlink:href="#rim"/>
    <path pointer-events="none" fill="none" stroke="white" stroke-width="1.5" d="M0,-3.0v7 M-2.5,-0.5L0,-3.0L2.5,-0.5"/>
  </g>
  <g id="resetDef">
    <use xlink:href="#rim2" fill="#404040"><set attributeName="fill" to="#808080" begin="reset.mouseover" end="reset.mouseout"/></use>
  </g>
</defs>
<script type="application/ecmascript">
var viewWidth = 505;
var viewHeight = 142;
var sectionId = 'dynsection-0';
</script>
<script type="application/ecmascript" xlink:href="svg.min.js"/>
<svg id="graph" class="graph">
<g id="viewport">
<title>src/bin</title>
<g id="clust1" class="cluster">
<title>clusterdir_68267d1309a1af8e8297ef4c3efbcdba</title>
<g id="a_clust1"><a xlink:href="dir_68267d1309a1af8e8297ef4c3efbcdba.html" target="_top" xlink:title="src">
<polygon fill="#f6eeee" stroke="#404040" stroke-dasharray="5,2" points="8,-8 8,-125.75 489,-125.75 489,-8 8,-8"/>
<text text-anchor="middle" x="248.5" y="-112.25" font-family="Helvetica,sans-Serif" font-size="10.00">src</text>
</a>
</g>
</g>
<g id="clust2" class="cluster">
<title>clusterdir_031c4fc26031de218e3c67acfca35073</title>
<g id="a_clust2"><a xlink:href="dir_031c4fc26031de218e3c67acfca35073.html" target="_top">
<polygon fill="#f6eeee" stroke="#404040" stroke-width="2" points="16,-63.25 16,-98.5 481,-98.5 481,-63.25 16,-63.25"/>
</a>
</g>
</g>
<!-- dir_c85d3e3c5052e9ad9ce18c6863244a25 -->
<g id="node1" class="node">
<title>dir_c85d3e3c5052e9ad9ce18c6863244a25</title>
<g id="a_node1"><a xlink:href="dir_c85d3e3c5052e9ad9ce18c6863244a25.html" target="_top" xlink:title="lib">
<polygon fill="#d1a7a7" stroke="red" points="320.4,-35.25 291.6,-35.25 291.6,-16 320.4,-16 320.4,-35.25"/>
<text text-anchor="middle" x="306" y="-21.75" font-family="Helvetica,sans-Serif" font-size="10.00">lib</text>
</a>
</g>
</g>
<!-- dir_031c4fc26031de218e3c67acfca35073 -->
<g id="node2" class="node">
<title>dir_031c4fc26031de218e3c67acfca35073</title>
<text text-anchor="middle" x="38" y="-77" font-family="Helvetica,sans-Serif" font-size="10.00">bin</text>
</g>
<!-- dir_9de81250746d4d85455b4df6b01cd617 -->
<g id="node3" class="node">
<title>dir_9de81250746d4d85455b4df6b01cd617</title>
<g id="a_node3"><a xlink:href="dir_9de81250746d4d85455b4df6b01cd617.html" target="_top" xlink:title="ban2root">
<polygon fill="#d1a7a7" stroke="#404040" points="123.75,-90.5 70.25,-90.5 70.25,-71.25 123.75,-71.25 123.75,-90.5"/>
<text text-anchor="middle" x="97" y="-77" font-family="Helvetica,sans-Serif" font-size="10.00">ban2root</text>
</a>
</g>
</g>
<!-- dir_9de81250746d4d85455b4df6b01cd617&#45;&gt;dir_c85d3e3c5052e9ad9ce18c6863244a25 -->
<g id="edge1" class="edge">
<title>dir_9de81250746d4d85455b4df6b01cd617&#45;&gt;dir_c85d3e3c5052e9ad9ce18c6863244a25</title>
<g id="a_edge1"><a xlink:href="dir_000002_000012.html" target="_top">
<path fill="none" stroke="#63b8ff" d="M114.63,-70.78C120.37,-68.07 126.86,-65.29 133,-63.25 183.86,-46.36 245.8,-35.47 280.06,-30.26"/>
<polygon fill="#63b8ff" stroke="#63b8ff" points="280.48,-33.73 289.86,-28.81 279.45,-26.81 280.48,-33.73"/>
</a>
</g>
<g id="a_edge1&#45;headlabel"><a xlink:href="dir_000002_000012.html" target="_top" xlink:title="1">
<text text-anchor="middle" x="278.83" y="-32.97" font-family="Helvetica,sans-Serif" font-size="10.00" fill="#63b8ff">1</text>
</a>
</g>
</g>
<!-- dir_f2d0008c2927587f7d55891148a10d22 -->
<g id="node4" class="node">
<title>dir_f2d0008c2927587f7d55891148a10d22</title>
<g id="a_node4"><a xlink:href="dir_f2d0008c2927587f7d55891148a10d22.html" target="_top" xlink:title="bin2root">
<polygon fill="#d1a7a7" stroke="#404040" points="192.25,-90.5 141.75,-90.5 141.75,-71.25 192.25,-71.25 192.25,-90.5"/>
<text text-anchor="middle" x="167" y="-77" font-family="Helvetica,sans-Serif" font-size="10.00">bin2root</text>
</a>
</g>
</g>
<!-- dir_0b2f16dd70b610d17ceb32d5ec6fcfe6 -->
<g id="node5" class="node">
<title>dir_0b2f16dd70b610d17ceb32d5ec6fcfe6</title>
<g id="a_node5"><a xlink:href="dir_0b2f16dd70b610d17ceb32d5ec6fcfe6.html" target="_top" xlink:title="gamrcal">
<polygon fill="#d1a7a7" stroke="#404040" points="261.25,-90.5 210.75,-90.5 210.75,-71.25 261.25,-71.25 261.25,-90.5"/>
<text text-anchor="middle" x="236" y="-77" font-family="Helvetica,sans-Serif" font-size="10.00">gamrcal</text>
</a>
</g>
</g>
<!-- dir_e71be6491a58e33a05a0854f291058a0 -->
<g id="node6" class="node">
<title>dir_e71be6491a58e33a05a0854f291058a0</title>
<g id="a_node6"><a xlink:href="dir_e71be6491a58e33a05a0854f291058a0.html" target="_top" xlink:title="gamrsort">
<polygon fill="#d1a7a7" stroke="#404040" points="333.12,-90.5 278.88,-90.5 278.88,-71.25 333.12,-71.25 333.12,-90.5"/>
<text text-anchor="middle" x="306" y="-77" font-family="Helvetica,sans-Serif" font-size="10.00">gamrsort</text>
</a>
</g>
</g>
<!-- dir_e71be6491a58e33a05a0854f291058a0&#45;&gt;dir_c85d3e3c5052e9ad9ce18c6863244a25 -->
<g id="edge2" class="edge">
<title>dir_e71be6491a58e33a05a0854f291058a0&#45;&gt;dir_c85d3e3c5052e9ad9ce18c6863244a25</title>
<g id="a_edge2"><a xlink:href="dir_000010_000012.html" target="_top">
<path fill="none" stroke="#63b8ff" d="M306,-71.08C306,-64.57 306,-55.42 306,-47.12"/>
<polygon fill="#63b8ff" stroke="#63b8ff" points="309.5,-47.12 306,-37.12 302.5,-47.12 309.5,-47.12"/>
</a>
</g>
<g id="a_edge2&#45;headlabel"><a xlink:href="dir_000010_000012.html" target="_top" xlink:title="10">
<text text-anchor="middle" x="312.34" y="-45.33" font-family="Helvetica,sans-Serif" font-size="10.00" fill="#63b8ff">10</text>
</a>
</g>
</g>
<!-- dir_0a46798c975ca2cfd2ff742a12fc5df3 -->
<g id="node7" class="node">
<title>dir_0a46798c975ca2cfd2ff742a12fc5df3</title>
<g id="a_node7"><a xlink:href="dir_0a46798c975ca2cfd2ff742a12fc5df3.html" target="_top" xlink:title="his2root">
<polygon fill="#d1a7a7" stroke="#404040" points="401.25,-90.5 350.75,-90.5 350.75,-71.25 401.25,-71.25 401.25,-90.5"/>
<text text-anchor="middle" x="376" y="-77" font-family="Helvetica,sans-Serif" font-size="10.00">his2root</text>
</a>
</g>
</g>
<!-- dir_aba6f5845ff58f892acd7e475dc2a3b1 -->
<g id="node8" class="node">
<title>dir_aba6f5845ff58f892acd7e475dc2a3b1</title>
<g id="a_node8"><a xlink:href="dir_aba6f5845ff58f892acd7e475dc2a3b1.html" target="_top" xlink:title="root2ban">
<polygon fill="#d1a7a7" stroke="#404040" points="472.75,-90.5 419.25,-90.5 419.25,-71.25 472.75,-71.25 472.75,-90.5"/>
<text text-anchor="middle" x="446" y="-77" font-family="Helvetica,sans-Serif" font-size="10.00">root2ban</text>
</a>
</g>
</g>
<!-- dir_aba6f5845ff58f892acd7e475dc2a3b1&#45;&gt;dir_c85d3e3c5052e9ad9ce18c6863244a25 -->
<g id="edge3" class="edge">
<title>dir_aba6f5845ff58f892acd7e475dc2a3b1&#45;&gt;dir_c85d3e3c5052e9ad9ce18c6863244a25</title>
<g id="a_edge3"><a xlink:href="dir_000017_000012.html" target="_top">
<path fill="none" stroke="#63b8ff" d="M427.46,-70.91C421.89,-68.33 415.74,-65.58 410,-63.25 383.51,-52.5 352.53,-41.83 331.32,-34.8"/>
<polygon fill="#63b8ff" stroke="#63b8ff" points="332.66,-31.56 322.07,-31.77 330.48,-38.21 332.66,-31.56"/>
</a>
</g>
<g id="a_edge3&#45;headlabel"><a xlink:href="dir_000017_000012.html" target="_top" xlink:title="1">
<text text-anchor="middle" x="335.52" y="-25.63" font-family="Helvetica,sans-Serif" font-size="10.00" fill="#63b8ff">1</text>
</a>
</g>
</g>
</g>
</svg>

<g id="navigator" transform="translate(0 0)" fill="#404254">
  <rect fill="#f2f5e9" fill-opacity="0.5" stroke="#606060" stroke-width=".5" x="0" y="0" width="60" height="60"/>
  <use id="zoomplus" xlink:href="#zoomPlus" x="17" y="9" onmousedown="handleZoom(evt,'in')"/>
  <use id="zoomminus" xlink:href="#zoomMin" x="42" y="9" onmousedown="handleZoom(evt,'out')"/>
  <use id="reset" xlink:href="#resetDef" x="30" y="36" onmousedown="handleReset()"/>
   <use id="arrowup" xlink:href="#arrowUp" x="0" y="0" onmousedown="handlePan(0,-1)"/>
  <use id="arrowright" xlink:href="#arrowRight" x="0" y="0" onmousedown="handlePan(1,0)"/>
  <use id="arrowdown" xlink:href="#arrowDown" x="0" y="0" onmousedown="handlePan(0,1)"/>
  <use id="arrowleft" xlink:href="#arrowLeft" x="0" y="0" onmousedown="handlePan(-1,0)"/>
</g>
<svg viewBox="0 0 15 15" width="100%" height="30px" preserveAspectRatio="xMaxYMin meet">
 <g id="arrow_out" transform="scale(0.3 0.3)">
  <a xlink:href="dir_031c4fc26031de218e3c67acfca35073_dep_org.svg" target="_base">
   <rect id="button" ry="5" rx="5" y="6" x="6" height="38" width="38"
        fill="#f2f5e9" fill-opacity="0.5" stroke="#606060" stroke-width="1.0"/>
   <path id="arrow"
     d="M 11.500037,31.436501 C 11.940474,20.09759 22.043105,11.32322 32.158766,21.979434 L 37.068811,17.246167 C 37.068811,17.246167 37.088388,32 37.088388,32 L 22.160133,31.978069 C 22.160133,31.978069 26.997745,27.140456 26.997745,27.140456 C 18.528582,18.264221 13.291696,25.230495 11.500037,31.436501 z"
     style="fill:#404040;"/>
  </a>
 </g>
</svg>

<style type='text/css'>
<![CDATA[
[data-mouse-over-selected='false'] { opacity: 0.7; }
[data-mouse-over-selected='true']  { opacity: 1.0; }
]]>
</style>
<script type="application/ecmascript"><![CDATA[
document.addEventListener('DOMContentLoaded', (event) => {
  highlightEdges();
  highlightAdjacentNodes();
});
]]></script>
</svg>
