<?xml version="1.0" encoding="UTF-8" standalone="no"?>
<!DOCTYPE svg PUBLIC "-//W3C//DTD SVG 1.1//EN"
 "http://www.w3.org/Graphics/SVG/1.1/DTD/svg11.dtd">
<!-- Generated by graphviz version 12.2.1 (20241206.2353)
 -->
<!-- Title: Graphical Class Hierarchy Pages: 1 -->
<svg width="242pt" height="637pt"
 viewBox="0.00 0.00 241.75 636.50" xmlns="http://www.w3.org/2000/svg" xmlns:xlink="http://www.w3.org/1999/xlink">
<g id="graph0" class="graph" transform="scale(1 1) rotate(0) translate(4 632.5)">
<title>Graphical Class Hierarchy</title>
<!-- Node0 -->
<g id="Node000000" class="node">
<title>Node0</title>
<g id="a_Node000000"><a xlink:title=" ">
<polygon fill="#e0e0e0" stroke="#999999" points="50.5,-318.88 0,-318.88 0,-299.62 50.5,-299.62 50.5,-318.88"/>
<text text-anchor="middle" x="25.25" y="-305.38" font-family="Helvetica,sans-Serif" font-size="10.00">TObject</text>
</a>
</g>
</g>
<!-- Node1 -->
<g id="Node000001" class="node">
<title>Node1</title>
<g id="a_Node000001"><a xlink:href="d1/de2/struct_gam_r_1_1_tree_1_1_t_det_defn_1_1_cal_functor.html" target="_top" xlink:title=" ">
<polygon fill="white" stroke="#666666" points="216.88,-628.5 103.38,-628.5 103.38,-598 216.88,-598 216.88,-628.5"/>
<text text-anchor="start" x="111.38" y="-615" font-family="Helvetica,sans-Serif" font-size="10.00">GamR::Tree::TDetDefn</text>
<text text-anchor="middle" x="160.12" y="-603.75" font-family="Helvetica,sans-Serif" font-size="10.00">&lt; Ts &gt;::CalFunctor</text>
</a>
</g>
</g>
<!-- Node0&#45;&gt;Node1 -->
<g id="edge28_Node000000_Node000001" class="edge">
<title>Node0&#45;&gt;Node1</title>
<g id="a_edge28_Node000000_Node000001"><a xlink:title=" ">
<path fill="none" stroke="#63b8ff" d="M28.11,-330.45C33.65,-388.91 51.83,-550.65 86.5,-589.25 91.11,-594.39 96.85,-598.43 103.06,-601.61"/>
<polygon fill="#63b8ff" stroke="#63b8ff" points="31.63,-330.49 27.23,-320.85 24.66,-331.12 31.63,-330.49"/>
</a>
</g>
</g>
<!-- Node2 -->
<g id="Node000002" class="node">
<title>Node2</title>
<g id="a_Node000002"><a xlink:href="d9/df7/struct_gam_r_1_1_tree_1_1_t_det_defn_1_1_cal_functor_1_1_cal_functor_inner.html" target="_top" xlink:title=" ">
<polygon fill="white" stroke="#666666" points="233.75,-580.12 86.5,-580.12 86.5,-538.38 233.75,-538.38 233.75,-580.12"/>
<text text-anchor="start" x="94.5" y="-566.62" font-family="Helvetica,sans-Serif" font-size="10.00">GamR::Tree::TDetDefn</text>
<text text-anchor="start" x="94.5" y="-555.38" font-family="Helvetica,sans-Serif" font-size="10.00">&lt; Ts &gt;::CalFunctor::CalFunctor</text>
<text text-anchor="middle" x="160.12" y="-544.12" font-family="Helvetica,sans-Serif" font-size="10.00">Inner</text>
</a>
</g>
</g>
<!-- Node0&#45;&gt;Node2 -->
<g id="edge29_Node000000_Node000002" class="edge">
<title>Node0&#45;&gt;Node2</title>
<g id="a_edge29_Node000000_Node000002"><a xlink:title=" ">
<path fill="none" stroke="#63b8ff" d="M26.17,-330.41C27.13,-373.26 35.2,-471.13 86.5,-529.25 89.39,-532.52 92.69,-535.45 96.26,-538.06"/>
<polygon fill="#63b8ff" stroke="#63b8ff" points="29.67,-330.47 26.07,-320.5 22.67,-330.53 29.67,-330.47"/>
</a>
</g>
</g>
<!-- Node3 -->
<g id="Node000003" class="node">
<title>Node3</title>
<g id="a_Node000003"><a xlink:href="d4/d83/struct_gam_r_1_1_tree_1_1_t_det_defn_1_1_dereference_pointers.html" target="_top" xlink:title=" ">
<polygon fill="white" stroke="#666666" points="228.5,-520.5 91.75,-520.5 91.75,-490 228.5,-490 228.5,-520.5"/>
<text text-anchor="start" x="99.75" y="-507" font-family="Helvetica,sans-Serif" font-size="10.00">GamR::Tree::TDetDefn</text>
<text text-anchor="middle" x="160.12" y="-495.75" font-family="Helvetica,sans-Serif" font-size="10.00">&lt; Ts &gt;::DereferencePointers</text>
</a>
</g>
</g>
<!-- Node0&#45;&gt;Node3 -->
<g id="edge30_Node000000_Node000003" class="edge">
<title>Node0&#45;&gt;Node3</title>
<g id="a_edge30_Node000000_Node000003"><a xlink:title=" ">
<path fill="none" stroke="#63b8ff" d="M27.92,-330.77C31.83,-366.63 44.72,-438.77 86.5,-480.25 90.1,-483.82 94.22,-486.88 98.65,-489.51"/>
<polygon fill="#63b8ff" stroke="#63b8ff" points="31.4,-330.46 26.98,-320.83 24.43,-331.11 31.4,-330.46"/>
</a>
</g>
</g>
<!-- Node4 -->
<g id="Node000004" class="node">
<title>Node4</title>
<g id="a_Node000004"><a xlink:href="dd/d9c/struct_gam_r_1_1_tree_1_1_t_det_defn_1_1_interpret_pointers.html" target="_top" xlink:title=" ">
<polygon fill="white" stroke="#666666" points="220.25,-471.5 100,-471.5 100,-441 220.25,-441 220.25,-471.5"/>
<text text-anchor="start" x="108" y="-458" font-family="Helvetica,sans-Serif" font-size="10.00">GamR::Tree::TDetDefn</text>
<text text-anchor="middle" x="160.12" y="-446.75" font-family="Helvetica,sans-Serif" font-size="10.00">&lt; Ts &gt;::InterpretPointers</text>
</a>
</g>
</g>
<!-- Node0&#45;&gt;Node4 -->
<g id="edge31_Node000000_Node000004" class="edge">
<title>Node0&#45;&gt;Node4</title>
<g id="a_edge31_Node000000_Node000004"><a xlink:title=" ">
<path fill="none" stroke="#63b8ff" d="M31.19,-329.88C38.68,-356.86 55.44,-403.91 86.5,-431.25 90.6,-434.86 95.26,-437.96 100.18,-440.61"/>
<polygon fill="#63b8ff" stroke="#63b8ff" points="34.65,-329.31 28.76,-320.5 27.88,-331.06 34.65,-329.31"/>
</a>
</g>
</g>
<!-- Node5 -->
<g id="Node000005" class="node">
<title>Node5</title>
<g id="a_Node000005"><a xlink:href="d1/d3d/struct_gam_r_1_1_tree_1_1_t_det_defn_1_1_update_goodness.html" target="_top" xlink:title=" ">
<polygon fill="white" stroke="#666666" points="222.12,-422.5 98.12,-422.5 98.12,-392 222.12,-392 222.12,-422.5"/>
<text text-anchor="start" x="106.12" y="-409" font-family="Helvetica,sans-Serif" font-size="10.00">GamR::Tree::TDetDefn</text>
<text text-anchor="middle" x="160.12" y="-397.75" font-family="Helvetica,sans-Serif" font-size="10.00">&lt; Ts &gt;::UpdateGoodness</text>
</a>
</g>
</g>
<!-- Node0&#45;&gt;Node5 -->
<g id="edge32_Node000000_Node000005" class="edge">
<title>Node0&#45;&gt;Node5</title>
<g id="a_edge32_Node000000_Node000005"><a xlink:title=" ">
<path fill="none" stroke="#63b8ff" d="M38.06,-328.9C48.82,-345.27 66.12,-368.12 86.5,-382.25 91.65,-385.82 97.36,-388.92 103.24,-391.61"/>
<polygon fill="#63b8ff" stroke="#63b8ff" points="41.07,-327.11 32.78,-320.52 35.15,-330.84 41.07,-327.11"/>
</a>
</g>
</g>
<!-- Node6 -->
<g id="Node000006" class="node">
<title>Node6</title>
<g id="a_Node000006"><a xlink:href="da/d04/struct_gam_r_1_1_tree_1_1_t_event_1_1_clear_vector.html" target="_top" xlink:title=" ">
<polygon fill="white" stroke="#666666" points="217.62,-373.5 102.62,-373.5 102.62,-343 217.62,-343 217.62,-373.5"/>
<text text-anchor="start" x="110.62" y="-360" font-family="Helvetica,sans-Serif" font-size="10.00">GamR::Tree::TEvent</text>
<text text-anchor="middle" x="160.12" y="-348.75" font-family="Helvetica,sans-Serif" font-size="10.00">&lt; ADets &gt;::ClearVector</text>
</a>
</g>
</g>
<!-- Node0&#45;&gt;Node6 -->
<g id="edge33_Node000000_Node000006" class="edge">
<title>Node0&#45;&gt;Node6</title>
<g id="a_edge33_Node000000_Node000006"><a xlink:title=" ">
<path fill="none" stroke="#63b8ff" d="M61.23,-323.51C69.48,-326.78 78.28,-330.2 86.5,-333.25 94.88,-336.36 103.84,-339.55 112.52,-342.57"/>
<polygon fill="#63b8ff" stroke="#63b8ff" points="62.76,-320.35 52.18,-319.89 60.16,-326.85 62.76,-320.35"/>
</a>
</g>
</g>
<!-- Node7 -->
<g id="Node000007" class="node">
<title>Node7</title>
<g id="a_Node000007"><a xlink:href="d5/dbc/struct_gam_r_1_1_tree_1_1_t_event_1_1_event_tuple_filler.html" target="_top" xlink:title=" ">
<polygon fill="white" stroke="#666666" points="227,-324.5 93.25,-324.5 93.25,-294 227,-294 227,-324.5"/>
<text text-anchor="start" x="101.25" y="-311" font-family="Helvetica,sans-Serif" font-size="10.00">GamR::Tree::TEvent</text>
<text text-anchor="middle" x="160.12" y="-299.75" font-family="Helvetica,sans-Serif" font-size="10.00">&lt; ADets &gt;::EventTupleFiller</text>
</a>
</g>
</g>
<!-- Node0&#45;&gt;Node7 -->
<g id="edge34_Node000000_Node000007" class="edge">
<title>Node0&#45;&gt;Node7</title>
<g id="a_edge34_Node000000_Node000007"><a xlink:title=" ">
<path fill="none" stroke="#63b8ff" d="M62.28,-309.25C71.74,-309.25 82.26,-309.25 92.77,-309.25"/>
<polygon fill="#63b8ff" stroke="#63b8ff" points="62.44,-305.75 52.44,-309.25 62.44,-312.75 62.44,-305.75"/>
</a>
</g>
</g>
<!-- Node8 -->
<g id="Node000008" class="node">
<title>Node8</title>
<g id="a_Node000008"><a xlink:href="d1/dae/struct_gam_r_1_1_tree_1_1_t_event_1_1_ignore_t_object.html" target="_top" xlink:title=" ">
<polygon fill="white" stroke="#666666" points="222.88,-275.5 97.38,-275.5 97.38,-245 222.88,-245 222.88,-275.5"/>
<text text-anchor="start" x="105.38" y="-262" font-family="Helvetica,sans-Serif" font-size="10.00">GamR::Tree::TEvent</text>
<text text-anchor="middle" x="160.12" y="-250.75" font-family="Helvetica,sans-Serif" font-size="10.00">&lt; ADets &gt;::IgnoreTObject</text>
</a>
</g>
</g>
<!-- Node0&#45;&gt;Node8 -->
<g id="edge35_Node000000_Node000008" class="edge">
<title>Node0&#45;&gt;Node8</title>
<g id="a_edge35_Node000000_Node000008"><a xlink:title=" ">
<path fill="none" stroke="#63b8ff" d="M61.23,-294.99C69.48,-291.72 78.28,-288.3 86.5,-285.25 94.88,-282.14 103.84,-278.95 112.52,-275.93"/>
<polygon fill="#63b8ff" stroke="#63b8ff" points="60.16,-291.65 52.18,-298.61 62.76,-298.15 60.16,-291.65"/>
</a>
</g>
</g>
<!-- Node9 -->
<g id="Node000009" class="node">
<title>Node9</title>
<g id="a_Node000009"><a xlink:href="dd/dff/struct_gam_r_1_1_tree_1_1_t_exp_defn_1_1_fill_det_defns.html" target="_top" xlink:title=" ">
<polygon fill="white" stroke="#666666" points="221.38,-226.5 98.88,-226.5 98.88,-196 221.38,-196 221.38,-226.5"/>
<text text-anchor="start" x="106.88" y="-213" font-family="Helvetica,sans-Serif" font-size="10.00">GamR::Tree::TExpDefn</text>
<text text-anchor="middle" x="160.12" y="-201.75" font-family="Helvetica,sans-Serif" font-size="10.00">&lt; ADefns &gt;::FillDetDefns</text>
</a>
</g>
</g>
<!-- Node0&#45;&gt;Node9 -->
<g id="edge36_Node000000_Node000009" class="edge">
<title>Node0&#45;&gt;Node9</title>
<g id="a_edge36_Node000000_Node000009"><a xlink:title=" ">
<path fill="none" stroke="#63b8ff" d="M38.06,-289.6C48.82,-273.23 66.12,-250.38 86.5,-236.25 91.65,-232.68 97.36,-229.58 103.24,-226.89"/>
<polygon fill="#63b8ff" stroke="#63b8ff" points="35.15,-287.66 32.78,-297.98 41.07,-291.39 35.15,-287.66"/>
</a>
</g>
</g>
<!-- Node10 -->
<g id="Node000010" class="node">
<title>Node10</title>
<g id="a_Node000010"><a xlink:href="d4/d79/class_gam_r_1_1_tree_1_1_t_det_defn.html" target="_top" xlink:title=" ">
<polygon fill="white" stroke="#666666" points="216.88,-177.5 103.38,-177.5 103.38,-147 216.88,-147 216.88,-177.5"/>
<text text-anchor="start" x="111.38" y="-164" font-family="Helvetica,sans-Serif" font-size="10.00">GamR::Tree::TDetDefn</text>
<text text-anchor="middle" x="160.12" y="-152.75" font-family="Helvetica,sans-Serif" font-size="10.00">&lt; Ts &gt;</text>
</a>
</g>
</g>
<!-- Node0&#45;&gt;Node10 -->
<g id="edge37_Node000000_Node000010" class="edge">
<title>Node0&#45;&gt;Node10</title>
<g id="a_edge37_Node000000_Node000010"><a xlink:title=" ">
<path fill="none" stroke="#63b8ff" d="M31.19,-288.62C38.68,-261.64 55.44,-214.59 86.5,-187.25 91.4,-182.93 97.09,-179.35 103.08,-176.38"/>
<polygon fill="#63b8ff" stroke="#63b8ff" points="27.88,-287.44 28.76,-298 34.65,-289.19 27.88,-287.44"/>
</a>
</g>
</g>
<!-- Node11 -->
<g id="Node000011" class="node">
<title>Node11</title>
<g id="a_Node000011"><a xlink:href="dd/d16/class_gam_r_1_1_tree_1_1_t_detector.html" target="_top" xlink:title=" ">
<polygon fill="white" stroke="#666666" points="217.62,-128.5 102.62,-128.5 102.62,-98 217.62,-98 217.62,-128.5"/>
<text text-anchor="start" x="110.62" y="-115" font-family="Helvetica,sans-Serif" font-size="10.00">GamR::Tree::TDetector</text>
<text text-anchor="middle" x="160.12" y="-103.75" font-family="Helvetica,sans-Serif" font-size="10.00">&lt; Ts &gt;</text>
</a>
</g>
</g>
<!-- Node0&#45;&gt;Node11 -->
<g id="edge38_Node000000_Node000011" class="edge">
<title>Node0&#45;&gt;Node11</title>
<g id="a_edge38_Node000000_Node000011"><a xlink:title=" ">
<path fill="none" stroke="#63b8ff" d="M27.92,-287.73C31.83,-251.87 44.72,-179.73 86.5,-138.25 91.04,-133.74 96.43,-130.04 102.2,-127.01"/>
<polygon fill="#63b8ff" stroke="#63b8ff" points="24.43,-287.39 26.98,-297.67 31.4,-288.04 24.43,-287.39"/>
</a>
</g>
</g>
<!-- Node12 -->
<g id="Node000012" class="node">
<title>Node12</title>
<g id="a_Node000012"><a xlink:href="da/d95/class_gam_r_1_1_tree_1_1_t_event.html" target="_top" xlink:title=" ">
<polygon fill="white" stroke="#666666" points="211.62,-79.5 108.62,-79.5 108.62,-49 211.62,-49 211.62,-79.5"/>
<text text-anchor="start" x="116.62" y="-66" font-family="Helvetica,sans-Serif" font-size="10.00">GamR::Tree::TEvent</text>
<text text-anchor="middle" x="160.12" y="-54.75" font-family="Helvetica,sans-Serif" font-size="10.00">&lt; ADets &gt;</text>
</a>
</g>
</g>
<!-- Node0&#45;&gt;Node12 -->
<g id="edge39_Node000000_Node000012" class="edge">
<title>Node0&#45;&gt;Node12</title>
<g id="a_edge39_Node000000_Node000012"><a xlink:title=" ">
<path fill="none" stroke="#63b8ff" d="M25.88,-288.1C26.28,-244.92 33.36,-145.92 86.5,-89.25 92.52,-82.83 100.26,-78.06 108.44,-74.51"/>
<polygon fill="#63b8ff" stroke="#63b8ff" points="22.38,-287.88 25.91,-297.87 29.38,-287.86 22.38,-287.88"/>
</a>
</g>
</g>
<!-- Node13 -->
<g id="Node000013" class="node">
<title>Node13</title>
<g id="a_Node000013"><a xlink:href="d1/d1e/class_gam_r_1_1_tree_1_1_t_exp_defn.html" target="_top" xlink:title=" ">
<polygon fill="white" stroke="#666666" points="217.25,-30.5 103,-30.5 103,0 217.25,0 217.25,-30.5"/>
<text text-anchor="start" x="111" y="-17" font-family="Helvetica,sans-Serif" font-size="10.00">GamR::Tree::TExpDefn</text>
<text text-anchor="middle" x="160.12" y="-5.75" font-family="Helvetica,sans-Serif" font-size="10.00">&lt; ADefns &gt;</text>
</a>
</g>
</g>
<!-- Node0&#45;&gt;Node13 -->
<g id="edge40_Node000000_Node000013" class="edge">
<title>Node0&#45;&gt;Node13</title>
<g id="a_edge40_Node000000_Node000013"><a xlink:title=" ">
<path fill="none" stroke="#63b8ff" d="M28.33,-288.16C34.32,-231.42 53.35,-77.31 86.5,-40.25 91.03,-35.18 96.64,-31.14 102.72,-27.92"/>
<polygon fill="#63b8ff" stroke="#63b8ff" points="24.88,-287.46 27.35,-297.77 31.85,-288.17 24.88,-287.46"/>
</a>
</g>
</g>
</g>
</svg>
