<?xml version="1.0" encoding="UTF-8" standalone="no"?>
<!DOCTYPE svg PUBLIC "-//W3C//DTD SVG 1.1//EN"
 "http://www.w3.org/Graphics/SVG/1.1/DTD/svg11.dtd">
<!-- Generated by graphviz version 2.50.0 (20220203.2022)
 -->
<!-- Title: GamR::AngDist::DoubleGaussianDistr::Print Pages: 1 -->
<!--zoomable 1009 -->
<svg id="main" version="1.1" xmlns="http://www.w3.org/2000/svg" xmlns:xlink="http://www.w3.org/1999/xlink" xml:space="preserve" onload="init(evt)">
<style type="text/css"><![CDATA[
.edge:hover path { stroke: red; }
.edge:hover polygon { stroke: red; fill: red; }
]]></style>
<script type="text/javascript"><![CDATA[
var edges = document.getElementsByTagName('g');
if (edges && edges.length) {
  for (var i=0;i<edges.length;i++) {
    if (edges[i].id.substr(0,4)=='edge') {
      edges[i].setAttribute('class','edge');
    }
  }
}
]]></script>
        <defs>
                <circle id="rim" cx="0" cy="0" r="7"/>
                <circle id="rim2" cx="0" cy="0" r="3.5"/>
                <g id="zoomPlus">
                        <use xlink:href="#rim" fill="#404040">
                                <set attributeName="fill" to="#808080" begin="zoomplus.mouseover" end="zoomplus.mouseout"/>
                        </use>
                        <path d="M-4,0h8M0,-4v8" fill="none" stroke="white" stroke-width="1.5" pointer-events="none"/>
                </g>
                <g id="zoomMin">
                        <use xlink:href="#rim" fill="#404040">
                                <set attributeName="fill" to="#808080" begin="zoomminus.mouseover" end="zoomminus.mouseout"/>
                        </use>
                        <path d="M-4,0h8" fill="none" stroke="white" stroke-width="1.5" pointer-events="none"/>
                </g>
                <g id="dirArrow">
                        <path fill="none" stroke="white" stroke-width="1.5" d="M0,-3.0v7 M-2.5,-0.5L0,-3.0L2.5,-0.5"/>
                </g>
               <g id="resetDef">
                       <use xlink:href="#rim2" fill="#404040">
                               <set attributeName="fill" to="#808080" begin="reset.mouseover" end="reset.mouseout"/>
                       </use>
               </g>
        </defs>

<script type="text/javascript">
var viewWidth = 362;
var viewHeight = 1009;
var sectionId = 'dynsection-27';
</script>
<script xlink:href="../../svgpan.js"/>
<svg id="graph" class="graph">
<g id="viewport">
<title>GamR::AngDist::DoubleGaussianDistr::Print</title>
<polygon fill="white" stroke="transparent" points="-4,4 -4,-1004.5 358,-1004.5 358,4 -4,4"/>
<!-- Node1 -->
<g id="node1" class="node">
<title>Node1</title>
<g id="a_node1"><a xlink:title=" ">
<polygon fill="#bfbfbf" stroke="black" points="0,-480 0,-510 159,-510 159,-480 0,-480"/>
<text text-anchor="start" x="8" y="-498" font-family="Helvetica,sans-Serif" font-size="10.00">GamR::AngDist::DoubleGaussian</text>
<text text-anchor="middle" x="79.5" y="-487" font-family="Helvetica,sans-Serif" font-size="10.00">Distr::Print</text>
</a>
</g>
</g>
<!-- Node2 -->
<g id="node2" class="node">
<title>Node2</title>
<g id="a_node2"><a xlink:href="../../d3/d7a/class_gam_r_1_1_ang_dist_1_1_double_gaussian_distr.html#a0dde1f9ae825d4b645b0626bb633f6c9" target="_top" xlink:title=" ">
<polygon fill="white" stroke="black" points="195,-970 195,-1000 354,-1000 354,-970 195,-970"/>
<text text-anchor="start" x="203" y="-988" font-family="Helvetica,sans-Serif" font-size="10.00">GamR::AngDist::DoubleGaussian</text>
<text text-anchor="middle" x="274.5" y="-977" font-family="Helvetica,sans-Serif" font-size="10.00">Distr::GetAmp1</text>
</a>
</g>
</g>
<!-- Node1&#45;&gt;Node2 -->
<g id="edge1" class="edge">
<title>Node1&#45;&gt;Node2</title>
<path fill="none" stroke="midnightblue" d="M82.24,-510.36C90.78,-583.16 130.46,-892.75 195,-961 195.91,-961.96 196.85,-962.88 197.83,-963.77"/>
<polygon fill="midnightblue" stroke="midnightblue" points="195.84,-966.65 205.93,-969.87 200.05,-961.06 195.84,-966.65"/>
</g>
<!-- Node3 -->
<g id="node3" class="node">
<title>Node3</title>
<g id="a_node3"><a xlink:href="../../d3/d7a/class_gam_r_1_1_ang_dist_1_1_double_gaussian_distr.html#ad6a3e73ff6250641523595d488bd64b0" target="_top" xlink:title=" ">
<polygon fill="white" stroke="black" points="195,-921 195,-951 354,-951 354,-921 195,-921"/>
<text text-anchor="start" x="203" y="-939" font-family="Helvetica,sans-Serif" font-size="10.00">GamR::AngDist::DoubleGaussian</text>
<text text-anchor="middle" x="274.5" y="-928" font-family="Helvetica,sans-Serif" font-size="10.00">Distr::GetAmp1Err</text>
</a>
</g>
</g>
<!-- Node1&#45;&gt;Node3 -->
<g id="edge2" class="edge">
<title>Node1&#45;&gt;Node3</title>
<path fill="none" stroke="midnightblue" d="M79.83,-510.39C78.07,-570.72 79.9,-793.54 195,-912 196.06,-913.09 197.16,-914.12 198.3,-915.11"/>
<polygon fill="midnightblue" stroke="midnightblue" points="196.26,-917.95 206.4,-921 200.37,-912.29 196.26,-917.95"/>
</g>
<!-- Node4 -->
<g id="node4" class="node">
<title>Node4</title>
<g id="a_node4"><a xlink:href="../../d3/d7a/class_gam_r_1_1_ang_dist_1_1_double_gaussian_distr.html#a154e7ab79f00141862b67bd16d99ee0e" target="_top" xlink:title=" ">
<polygon fill="white" stroke="black" points="195,-872 195,-902 354,-902 354,-872 195,-872"/>
<text text-anchor="start" x="203" y="-890" font-family="Helvetica,sans-Serif" font-size="10.00">GamR::AngDist::DoubleGaussian</text>
<text text-anchor="middle" x="274.5" y="-879" font-family="Helvetica,sans-Serif" font-size="10.00">Distr::GetAmp2</text>
</a>
</g>
</g>
<!-- Node1&#45;&gt;Node4 -->
<g id="edge3" class="edge">
<title>Node1&#45;&gt;Node4</title>
<path fill="none" stroke="midnightblue" d="M80.49,-510.12C81.27,-565.6 91.6,-760.11 195,-863 196.07,-864.07 197.19,-865.09 198.35,-866.06"/>
<polygon fill="midnightblue" stroke="midnightblue" points="196.35,-868.94 206.53,-871.87 200.4,-863.23 196.35,-868.94"/>
</g>
<!-- Node5 -->
<g id="node5" class="node">
<title>Node5</title>
<g id="a_node5"><a xlink:href="../../d3/d7a/class_gam_r_1_1_ang_dist_1_1_double_gaussian_distr.html#a85c89fd94aced231afb94eae5989854d" target="_top" xlink:title=" ">
<polygon fill="white" stroke="black" points="195,-823 195,-853 354,-853 354,-823 195,-823"/>
<text text-anchor="start" x="203" y="-841" font-family="Helvetica,sans-Serif" font-size="10.00">GamR::AngDist::DoubleGaussian</text>
<text text-anchor="middle" x="274.5" y="-830" font-family="Helvetica,sans-Serif" font-size="10.00">Distr::GetAmp2Err</text>
</a>
</g>
</g>
<!-- Node1&#45;&gt;Node5 -->
<g id="edge4" class="edge">
<title>Node1&#45;&gt;Node5</title>
<path fill="none" stroke="midnightblue" d="M81.32,-510.21C84.91,-561.04 103.43,-726.71 195,-814 196.13,-815.08 197.3,-816.1 198.52,-817.08"/>
<polygon fill="midnightblue" stroke="midnightblue" points="196.84,-820.17 207.07,-822.92 200.78,-814.39 196.84,-820.17"/>
</g>
<!-- Node6 -->
<g id="node6" class="node">
<title>Node6</title>
<g id="a_node6"><a xlink:href="../../d3/d7a/class_gam_r_1_1_ang_dist_1_1_double_gaussian_distr.html#af1e8bb63e7b10e9a479024680374be29" target="_top" xlink:title=" ">
<polygon fill="white" stroke="black" points="195,-774 195,-804 354,-804 354,-774 195,-774"/>
<text text-anchor="start" x="203" y="-792" font-family="Helvetica,sans-Serif" font-size="10.00">GamR::AngDist::DoubleGaussian</text>
<text text-anchor="middle" x="274.5" y="-781" font-family="Helvetica,sans-Serif" font-size="10.00">Distr::GetFWHM</text>
</a>
</g>
</g>
<!-- Node1&#45;&gt;Node6 -->
<g id="edge5" class="edge">
<title>Node1&#45;&gt;Node6</title>
<path fill="none" stroke="midnightblue" d="M82.42,-510.11C89.03,-555.65 114.99,-692.93 195,-765 196.31,-766.18 197.68,-767.3 199.09,-768.37"/>
<polygon fill="midnightblue" stroke="midnightblue" points="197.37,-771.42 207.67,-773.9 201.16,-765.54 197.37,-771.42"/>
</g>
<!-- Node7 -->
<g id="node7" class="node">
<title>Node7</title>
<g id="a_node7"><a xlink:href="../../d3/d7a/class_gam_r_1_1_ang_dist_1_1_double_gaussian_distr.html#adfaa9af3d52aac77278c8b4e910ae190" target="_top" xlink:title=" ">
<polygon fill="white" stroke="black" points="195,-725 195,-755 354,-755 354,-725 195,-725"/>
<text text-anchor="start" x="203" y="-743" font-family="Helvetica,sans-Serif" font-size="10.00">GamR::AngDist::DoubleGaussian</text>
<text text-anchor="middle" x="274.5" y="-732" font-family="Helvetica,sans-Serif" font-size="10.00">Distr::GetFWHMErr</text>
</a>
</g>
</g>
<!-- Node1&#45;&gt;Node7 -->
<g id="edge6" class="edge">
<title>Node1&#45;&gt;Node7</title>
<path fill="none" stroke="midnightblue" d="M84,-510.19C93.99,-550.11 126.45,-658.87 195,-716 196.56,-717.3 198.19,-718.53 199.88,-719.69"/>
<polygon fill="midnightblue" stroke="midnightblue" points="198.34,-722.85 208.73,-724.97 201.93,-716.84 198.34,-722.85"/>
</g>
<!-- Node8 -->
<g id="node8" class="node">
<title>Node8</title>
<g id="a_node8"><a xlink:href="../../d3/d7a/class_gam_r_1_1_ang_dist_1_1_double_gaussian_distr.html#af2eda9dd6fd3847994996ee0546b1560" target="_top" xlink:title=" ">
<polygon fill="white" stroke="black" points="195,-676 195,-706 354,-706 354,-676 195,-676"/>
<text text-anchor="start" x="203" y="-694" font-family="Helvetica,sans-Serif" font-size="10.00">GamR::AngDist::DoubleGaussian</text>
<text text-anchor="middle" x="274.5" y="-683" font-family="Helvetica,sans-Serif" font-size="10.00">Distr::GetG1</text>
</a>
</g>
</g>
<!-- Node1&#45;&gt;Node8 -->
<g id="edge7" class="edge">
<title>Node1&#45;&gt;Node8</title>
<path fill="none" stroke="midnightblue" d="M86.38,-510.19C100.13,-543.68 137.6,-624.26 195,-667 196.86,-668.38 198.8,-669.69 200.8,-670.92"/>
<polygon fill="midnightblue" stroke="midnightblue" points="199.45,-674.17 209.92,-675.85 202.78,-668.01 199.45,-674.17"/>
</g>
<!-- Node9 -->
<g id="node9" class="node">
<title>Node9</title>
<g id="a_node9"><a xlink:href="../../d3/d7a/class_gam_r_1_1_ang_dist_1_1_double_gaussian_distr.html#aac685424cf62a292f76bca50e7354dc3" target="_top" xlink:title=" ">
<polygon fill="white" stroke="black" points="195,-627 195,-657 354,-657 354,-627 195,-627"/>
<text text-anchor="start" x="203" y="-645" font-family="Helvetica,sans-Serif" font-size="10.00">GamR::AngDist::DoubleGaussian</text>
<text text-anchor="middle" x="274.5" y="-634" font-family="Helvetica,sans-Serif" font-size="10.00">Distr::GetG1Err</text>
</a>
</g>
</g>
<!-- Node1&#45;&gt;Node9 -->
<g id="edge8" class="edge">
<title>Node1&#45;&gt;Node9</title>
<path fill="none" stroke="midnightblue" d="M90.6,-510.27C108.55,-536.21 148.5,-588.91 195,-618 197.63,-619.65 200.39,-621.19 203.22,-622.63"/>
<polygon fill="midnightblue" stroke="midnightblue" points="201.96,-625.9 212.5,-626.89 204.88,-619.54 201.96,-625.9"/>
</g>
<!-- Node10 -->
<g id="node10" class="node">
<title>Node10</title>
<g id="a_node10"><a xlink:href="../../d3/d7a/class_gam_r_1_1_ang_dist_1_1_double_gaussian_distr.html#adc230071e5e9df126e12174077b094b1" target="_top" xlink:title=" ">
<polygon fill="white" stroke="black" points="195,-578 195,-608 354,-608 354,-578 195,-578"/>
<text text-anchor="start" x="203" y="-596" font-family="Helvetica,sans-Serif" font-size="10.00">GamR::AngDist::DoubleGaussian</text>
<text text-anchor="middle" x="274.5" y="-585" font-family="Helvetica,sans-Serif" font-size="10.00">Distr::GetG2</text>
</a>
</g>
</g>
<!-- Node1&#45;&gt;Node10 -->
<g id="edge9" class="edge">
<title>Node1&#45;&gt;Node10</title>
<path fill="none" stroke="midnightblue" d="M100.19,-510.16C122.26,-526.55 159.59,-552.53 195,-569 199.11,-570.91 203.41,-572.72 207.79,-574.42"/>
<polygon fill="midnightblue" stroke="midnightblue" points="206.86,-577.8 217.46,-577.96 209.27,-571.23 206.86,-577.8"/>
</g>
<!-- Node11 -->
<g id="node11" class="node">
<title>Node11</title>
<g id="a_node11"><a xlink:href="../../d3/d7a/class_gam_r_1_1_ang_dist_1_1_double_gaussian_distr.html#a8ff440ddadb71199dce7e0a12a331252" target="_top" xlink:title=" ">
<polygon fill="white" stroke="black" points="195,-529 195,-559 354,-559 354,-529 195,-529"/>
<text text-anchor="start" x="203" y="-547" font-family="Helvetica,sans-Serif" font-size="10.00">GamR::AngDist::DoubleGaussian</text>
<text text-anchor="middle" x="274.5" y="-536" font-family="Helvetica,sans-Serif" font-size="10.00">Distr::GetG2Err</text>
</a>
</g>
</g>
<!-- Node1&#45;&gt;Node11 -->
<g id="edge10" class="edge">
<title>Node1&#45;&gt;Node11</title>
<path fill="none" stroke="midnightblue" d="M139.72,-510.03C160.19,-515.23 183.3,-521.1 204.49,-526.48"/>
<polygon fill="midnightblue" stroke="midnightblue" points="203.84,-529.93 214.39,-528.99 205.56,-523.14 203.84,-529.93"/>
</g>
<!-- Node12 -->
<g id="node12" class="node">
<title>Node12</title>
<g id="a_node12"><a xlink:href="../../d3/d7a/class_gam_r_1_1_ang_dist_1_1_double_gaussian_distr.html#ae482d9e8ff1988c209c021632f2ca9f8" target="_top" xlink:title=" ">
<polygon fill="white" stroke="black" points="195,-480 195,-510 354,-510 354,-480 195,-480"/>
<text text-anchor="start" x="203" y="-498" font-family="Helvetica,sans-Serif" font-size="10.00">GamR::AngDist::DoubleGaussian</text>
<text text-anchor="middle" x="274.5" y="-487" font-family="Helvetica,sans-Serif" font-size="10.00">Distr::GetMean</text>
</a>
</g>
</g>
<!-- Node1&#45;&gt;Node12 -->
<g id="edge11" class="edge">
<title>Node1&#45;&gt;Node12</title>
<path fill="none" stroke="midnightblue" d="M159,-495C167.48,-495 176.14,-495 184.73,-495"/>
<polygon fill="midnightblue" stroke="midnightblue" points="184.76,-498.5 194.76,-495 184.76,-491.5 184.76,-498.5"/>
</g>
<!-- Node13 -->
<g id="node13" class="node">
<title>Node13</title>
<g id="a_node13"><a xlink:href="../../d3/d7a/class_gam_r_1_1_ang_dist_1_1_double_gaussian_distr.html#a7cb62ad531040a940ee22d8cc0dbaf44" target="_top" xlink:title=" ">
<polygon fill="white" stroke="black" points="195,-431 195,-461 354,-461 354,-431 195,-431"/>
<text text-anchor="start" x="203" y="-449" font-family="Helvetica,sans-Serif" font-size="10.00">GamR::AngDist::DoubleGaussian</text>
<text text-anchor="middle" x="274.5" y="-438" font-family="Helvetica,sans-Serif" font-size="10.00">Distr::GetMeanErr</text>
</a>
</g>
</g>
<!-- Node1&#45;&gt;Node13 -->
<g id="edge12" class="edge">
<title>Node1&#45;&gt;Node13</title>
<path fill="none" stroke="midnightblue" d="M139.72,-479.97C160.19,-474.77 183.3,-468.9 204.49,-463.52"/>
<polygon fill="midnightblue" stroke="midnightblue" points="205.56,-466.86 214.39,-461.01 203.84,-460.07 205.56,-466.86"/>
</g>
<!-- Node14 -->
<g id="node14" class="node">
<title>Node14</title>
<g id="a_node14"><a xlink:href="../../d3/d7a/class_gam_r_1_1_ang_dist_1_1_double_gaussian_distr.html#aa82e3b178236a219ed76f932bb60553f" target="_top" xlink:title=" ">
<polygon fill="white" stroke="black" points="195,-382 195,-412 354,-412 354,-382 195,-382"/>
<text text-anchor="start" x="203" y="-400" font-family="Helvetica,sans-Serif" font-size="10.00">GamR::AngDist::DoubleGaussian</text>
<text text-anchor="middle" x="274.5" y="-389" font-family="Helvetica,sans-Serif" font-size="10.00">Distr::GetN1N2</text>
</a>
</g>
</g>
<!-- Node1&#45;&gt;Node14 -->
<g id="edge13" class="edge">
<title>Node1&#45;&gt;Node14</title>
<path fill="none" stroke="midnightblue" d="M100.67,-479.85C122.84,-463.74 159.99,-438.4 195,-422 199.86,-419.73 204.98,-417.58 210.18,-415.58"/>
<polygon fill="midnightblue" stroke="midnightblue" points="211.4,-418.86 219.58,-412.12 208.99,-412.28 211.4,-418.86"/>
</g>
<!-- Node15 -->
<g id="node15" class="node">
<title>Node15</title>
<g id="a_node15"><a xlink:href="../../d3/d7a/class_gam_r_1_1_ang_dist_1_1_double_gaussian_distr.html#a2f5f255ec95b3dc0820b4371124feb48" target="_top" xlink:title=" ">
<polygon fill="white" stroke="black" points="195,-333 195,-363 354,-363 354,-333 195,-333"/>
<text text-anchor="start" x="203" y="-351" font-family="Helvetica,sans-Serif" font-size="10.00">GamR::AngDist::DoubleGaussian</text>
<text text-anchor="middle" x="274.5" y="-340" font-family="Helvetica,sans-Serif" font-size="10.00">Distr::GetN1N2Err</text>
</a>
</g>
</g>
<!-- Node1&#45;&gt;Node15 -->
<g id="edge14" class="edge">
<title>Node1&#45;&gt;Node15</title>
<path fill="none" stroke="midnightblue" d="M90.67,-479.92C108.71,-454.27 148.81,-402.13 195,-373 198.31,-370.91 201.8,-368.99 205.41,-367.21"/>
<polygon fill="midnightblue" stroke="midnightblue" points="206.88,-370.39 214.56,-363.1 204.01,-364.01 206.88,-370.39"/>
</g>
<!-- Node16 -->
<g id="node16" class="node">
<title>Node16</title>
<g id="a_node16"><a xlink:href="../../d3/d7a/class_gam_r_1_1_ang_dist_1_1_double_gaussian_distr.html#a11ca2478819471f12f8c65aa49fdcdf2" target="_top" xlink:title=" ">
<polygon fill="white" stroke="black" points="195,-284 195,-314 354,-314 354,-284 195,-284"/>
<text text-anchor="start" x="203" y="-302" font-family="Helvetica,sans-Serif" font-size="10.00">GamR::AngDist::DoubleGaussian</text>
<text text-anchor="middle" x="274.5" y="-291" font-family="Helvetica,sans-Serif" font-size="10.00">Distr::GetOffset</text>
</a>
</g>
</g>
<!-- Node1&#45;&gt;Node16 -->
<g id="edge15" class="edge">
<title>Node1&#45;&gt;Node16</title>
<path fill="none" stroke="midnightblue" d="M86.44,-479.95C100.31,-446.75 138.02,-366.83 195,-324 197.49,-322.13 200.13,-320.39 202.87,-318.78"/>
<polygon fill="midnightblue" stroke="midnightblue" points="204.66,-321.8 211.91,-314.07 201.42,-315.59 204.66,-321.8"/>
</g>
<!-- Node17 -->
<g id="node17" class="node">
<title>Node17</title>
<g id="a_node17"><a xlink:href="../../d3/d7a/class_gam_r_1_1_ang_dist_1_1_double_gaussian_distr.html#a7088d5304f95e838c8fb6820006d082a" target="_top" xlink:title=" ">
<polygon fill="white" stroke="black" points="195,-235 195,-265 354,-265 354,-235 195,-235"/>
<text text-anchor="start" x="203" y="-253" font-family="Helvetica,sans-Serif" font-size="10.00">GamR::AngDist::DoubleGaussian</text>
<text text-anchor="middle" x="274.5" y="-242" font-family="Helvetica,sans-Serif" font-size="10.00">Distr::GetOffsetErr</text>
</a>
</g>
</g>
<!-- Node1&#45;&gt;Node17 -->
<g id="edge16" class="edge">
<title>Node1&#45;&gt;Node17</title>
<path fill="none" stroke="midnightblue" d="M84.06,-479.93C94.19,-440.29 126.97,-332.25 195,-275 197.01,-273.31 199.14,-271.73 201.35,-270.26"/>
<polygon fill="midnightblue" stroke="midnightblue" points="203.38,-273.13 210.28,-265.09 199.87,-267.07 203.38,-273.13"/>
</g>
<!-- Node18 -->
<g id="node18" class="node">
<title>Node18</title>
<g id="a_node18"><a xlink:href="../../d3/d7a/class_gam_r_1_1_ang_dist_1_1_double_gaussian_distr.html#a78645c9b482c8df52b3814b922af8225" target="_top" xlink:title=" ">
<polygon fill="white" stroke="black" points="195,-186 195,-216 354,-216 354,-186 195,-186"/>
<text text-anchor="start" x="203" y="-204" font-family="Helvetica,sans-Serif" font-size="10.00">GamR::AngDist::DoubleGaussian</text>
<text text-anchor="middle" x="274.5" y="-193" font-family="Helvetica,sans-Serif" font-size="10.00">Distr::GetTau1</text>
</a>
</g>
</g>
<!-- Node1&#45;&gt;Node18 -->
<g id="edge17" class="edge">
<title>Node1&#45;&gt;Node18</title>
<path fill="none" stroke="midnightblue" d="M82.48,-479.99C89.25,-434.73 115.61,-298.25 195,-226 196.72,-224.44 198.54,-222.97 200.43,-221.59"/>
<polygon fill="midnightblue" stroke="midnightblue" points="202.55,-224.4 209.19,-216.14 198.85,-218.46 202.55,-224.4"/>
</g>
<!-- Node19 -->
<g id="node19" class="node">
<title>Node19</title>
<g id="a_node19"><a xlink:href="../../d3/d7a/class_gam_r_1_1_ang_dist_1_1_double_gaussian_distr.html#a4ca918f7d86bdf9ae11a004d952968fd" target="_top" xlink:title=" ">
<polygon fill="white" stroke="black" points="195,-137 195,-167 354,-167 354,-137 195,-137"/>
<text text-anchor="start" x="203" y="-155" font-family="Helvetica,sans-Serif" font-size="10.00">GamR::AngDist::DoubleGaussian</text>
<text text-anchor="middle" x="274.5" y="-144" font-family="Helvetica,sans-Serif" font-size="10.00">Distr::GetTau1Err</text>
</a>
</g>
</g>
<!-- Node1&#45;&gt;Node19 -->
<g id="edge18" class="edge">
<title>Node1&#45;&gt;Node19</title>
<path fill="none" stroke="midnightblue" d="M81.38,-479.88C85.14,-429.33 104.15,-264.53 195,-177 196.63,-175.43 198.36,-173.95 200.17,-172.57"/>
<polygon fill="midnightblue" stroke="midnightblue" points="202.11,-175.49 208.57,-167.09 198.28,-169.63 202.11,-175.49"/>
</g>
<!-- Node20 -->
<g id="node20" class="node">
<title>Node20</title>
<g id="a_node20"><a xlink:href="../../d3/d7a/class_gam_r_1_1_ang_dist_1_1_double_gaussian_distr.html#ac13ec0a653cd6af3f74a5734105a5e78" target="_top" xlink:title=" ">
<polygon fill="white" stroke="black" points="195,-88 195,-118 354,-118 354,-88 195,-88"/>
<text text-anchor="start" x="203" y="-106" font-family="Helvetica,sans-Serif" font-size="10.00">GamR::AngDist::DoubleGaussian</text>
<text text-anchor="middle" x="274.5" y="-95" font-family="Helvetica,sans-Serif" font-size="10.00">Distr::GetTau2</text>
</a>
</g>
</g>
<!-- Node1&#45;&gt;Node20 -->
<g id="edge19" class="edge">
<title>Node1&#45;&gt;Node20</title>
<path fill="none" stroke="midnightblue" d="M80.54,-479.96C81.52,-424.77 92.42,-231.19 195,-128 196.44,-126.55 197.96,-125.19 199.55,-123.91"/>
<polygon fill="midnightblue" stroke="midnightblue" points="201.73,-126.66 208.01,-118.13 197.78,-120.88 201.73,-126.66"/>
</g>
<!-- Node21 -->
<g id="node21" class="node">
<title>Node21</title>
<g id="a_node21"><a xlink:href="../../d3/d7a/class_gam_r_1_1_ang_dist_1_1_double_gaussian_distr.html#a48fb4f8381974ee5dba2d970b06d4dc2" target="_top" xlink:title=" ">
<polygon fill="white" stroke="black" points="195,-39 195,-69 354,-69 354,-39 195,-39"/>
<text text-anchor="start" x="203" y="-57" font-family="Helvetica,sans-Serif" font-size="10.00">GamR::AngDist::DoubleGaussian</text>
<text text-anchor="middle" x="274.5" y="-46" font-family="Helvetica,sans-Serif" font-size="10.00">Distr::GetTau2Err</text>
</a>
</g>
</g>
<!-- Node1&#45;&gt;Node21 -->
<g id="edge20" class="edge">
<title>Node1&#45;&gt;Node21</title>
<path fill="none" stroke="midnightblue" d="M79.88,-479.68C78.32,-419.64 80.81,-197.82 195,-79 196.26,-77.69 197.59,-76.45 198.98,-75.27"/>
<polygon fill="midnightblue" stroke="midnightblue" points="201.38,-77.86 207.5,-69.21 197.32,-72.15 201.38,-77.86"/>
</g>
<!-- Node22 -->
<g id="node22" class="node">
<title>Node22</title>
<g id="a_node22"><a xlink:href="../../d0/db7/namespace_gam_r_1_1_utils.html#a80bc6c0c1ecd5d28cd4f9e3ae38f92ed" target="_top" xlink:title=" ">
<polygon fill="white" stroke="black" points="220.5,-0.5 220.5,-19.5 328.5,-19.5 328.5,-0.5 220.5,-0.5"/>
<text text-anchor="middle" x="274.5" y="-7.5" font-family="Helvetica,sans-Serif" font-size="10.00">GamR::Utils::wrresult</text>
</a>
</g>
</g>
<!-- Node1&#45;&gt;Node22 -->
<g id="edge21" class="edge">
<title>Node1&#45;&gt;Node22</title>
<path fill="none" stroke="midnightblue" d="M82.18,-479.61C90.43,-406.66 128.98,-96.55 195,-30 199.55,-25.41 204.99,-21.83 210.87,-19.03"/>
<polygon fill="midnightblue" stroke="midnightblue" points="212.37,-22.2 220.38,-15.26 209.79,-15.7 212.37,-22.2"/>
</g>
</g>
</svg>
        <g id="navigator" transform="translate(0 0)" fill="#404254">
                <rect fill="#f2f5e9" fill-opacity="0.5" stroke="#606060" stroke-width=".5" x="0" y="0" width="60" height="60"/>
                <use id="zoomplus" xlink:href="#zoomPlus" x="17" y="9" onmousedown="handleZoom(evt,'in')"/>
                <use id="zoomminus" xlink:href="#zoomMin" x="42" y="9" onmousedown="handleZoom(evt,'out')"/>
                <use id="reset" xlink:href="#resetDef" x="30" y="36" onmousedown="handleReset()"/>
                <g id="arrowUp" xlink:href="#dirArrow" transform="translate(30 24)" onmousedown="handlePan(0,-1)">
                  <use xlink:href="#rim" fill="#404040">
                        <set attributeName="fill" to="#808080" begin="arrowUp.mouseover" end="arrowUp.mouseout"/>
                  </use>
                  <path fill="none" stroke="white" stroke-width="1.5" d="M0,-3.0v7 M-2.5,-0.5L0,-3.0L2.5,-0.5"/>
                </g>
                <g id="arrowRight" xlink:href="#dirArrow" transform="rotate(90) translate(36 -43)" onmousedown="handlePan(1,0)">
                  <use xlink:href="#rim" fill="#404040">
                        <set attributeName="fill" to="#808080" begin="arrowRight.mouseover" end="arrowRight.mouseout"/>
                  </use>
                  <path fill="none" stroke="white" stroke-width="1.5" d="M0,-3.0v7 M-2.5,-0.5L0,-3.0L2.5,-0.5"/>
                </g>
                <g id="arrowDown" xlink:href="#dirArrow" transform="rotate(180) translate(-30 -48)" onmousedown="handlePan(0,1)">
                  <use xlink:href="#rim" fill="#404040">
                        <set attributeName="fill" to="#808080" begin="arrowDown.mouseover" end="arrowDown.mouseout"/>
                  </use>
                  <path fill="none" stroke="white" stroke-width="1.5" d="M0,-3.0v7 M-2.5,-0.5L0,-3.0L2.5,-0.5"/>
                </g>
                <g id="arrowLeft" xlink:href="#dirArrow" transform="rotate(270) translate(-36 17)" onmousedown="handlePan(-1,0)">
                  <use xlink:href="#rim" fill="#404040">
                        <set attributeName="fill" to="#808080" begin="arrowLeft.mouseover" end="arrowLeft.mouseout"/>
                  </use>
                  <path fill="none" stroke="white" stroke-width="1.5" d="M0,-3.0v7 M-2.5,-0.5L0,-3.0L2.5,-0.5"/>
                </g>
        </g>
        <svg viewBox="0 0 15 15" width="100%" height="30px" preserveAspectRatio="xMaxYMin meet">
         <g id="arrow_out" transform="scale(0.3 0.3)">
          <a xlink:href="class_gam_r_1_1_ang_dist_1_1_double_gaussian_distr_ac019d45ea1678772bdc4dc7b542a8e4c_cgraph_org.svg" target="_base">
           <rect id="button" ry="5" rx="5" y="6" x="6" height="38" width="38"
                fill="#f2f5e9" fill-opacity="0.5" stroke="#606060" stroke-width="1.0"/>
           <path id="arrow"
             d="M 11.500037,31.436501 C 11.940474,20.09759 22.043105,11.32322 32.158766,21.979434 L 37.068811,17.246167 C 37.068811,17.246167 37.088388,32 37.088388,32 L 22.160133,31.978069 C 22.160133,31.978069 26.997745,27.140456 26.997745,27.140456 C 18.528582,18.264221 13.291696,25.230495 11.500037,31.436501 z"
             style="fill:#404040;"/>
          </a>
         </g>
        </svg>
</svg>
