<?xml version="1.0" encoding="UTF-8" standalone="no"?>
<!DOCTYPE svg PUBLIC "-//W3C//DTD SVG 1.1//EN"
 "http://www.w3.org/Graphics/SVG/1.1/DTD/svg11.dtd">
<!-- Generated by graphviz version 12.2.1 (20241206.2353)
 -->
<!-- Title: GamR::AngDist::DoubleGaussianDistr::SetPars Pages: 1 -->
<svg width="557pt" height="93pt"
 viewBox="0.00 0.00 557.00 93.12" xmlns="http://www.w3.org/2000/svg" xmlns:xlink="http://www.w3.org/1999/xlink">
<g id="graph0" class="graph" transform="scale(1 1) rotate(0) translate(4 89.12)">
<title>GamR::AngDist::DoubleGaussianDistr::SetPars</title>
<!-- Node1 -->
<g id="Node000001" class="node">
<title>Node1</title>
<g id="a_Node000001"><a xlink:title=" ">
<polygon fill="#999999" stroke="#666666" points="549,-54.5 390.5,-54.5 390.5,-24 549,-24 549,-54.5"/>
<text text-anchor="start" x="398.5" y="-41" font-family="Helvetica,sans-Serif" font-size="10.00">GamR::AngDist::DoubleGaussian</text>
<text text-anchor="middle" x="469.75" y="-29.75" font-family="Helvetica,sans-Serif" font-size="10.00">Distr::SetPars</text>
</a>
</g>
</g>
<!-- Node1&#45;&gt;Node1 -->
<g id="edge4_Node000001_Node000001" class="edge">
<title>Node1&#45;&gt;Node1</title>
<g id="a_edge4_Node000001_Node000001"><a xlink:title=" ">
<path fill="none" stroke="#63b8ff" d="M502.37,-66.2C497.03,-69.97 486.16,-72.5 469.75,-72.5 439.74,-72.5 428.25,-64.06 435.28,-54.99"/>
<polygon fill="#63b8ff" stroke="#63b8ff" points="505.8,-66.92 503.97,-56.48 498.89,-65.78 505.8,-66.92"/>
</a>
</g>
</g>
<!-- Node2 -->
<g id="Node000002" class="node">
<title>Node2</title>
<g id="a_Node000002"><a xlink:href="../../d3/d7a/class_gam_r_1_1_ang_dist_1_1_double_gaussian_distr.html#aeeb5770ee36fbdca2f3c8c10b1888379" target="_top" xlink:title=" ">
<polygon fill="white" stroke="#666666" points="354.5,-79.5 196,-79.5 196,-49 354.5,-49 354.5,-79.5"/>
<text text-anchor="start" x="204" y="-66" font-family="Helvetica,sans-Serif" font-size="10.00">GamR::AngDist::DoubleGaussian</text>
<text text-anchor="middle" x="275.25" y="-54.75" font-family="Helvetica,sans-Serif" font-size="10.00">Distr::DoubleGaussianDistr</text>
</a>
</g>
</g>
<!-- Node1&#45;&gt;Node2 -->
<g id="edge1_Node000001_Node000002" class="edge">
<title>Node1&#45;&gt;Node2</title>
<g id="a_edge1_Node000001_Node000002"><a xlink:title=" ">
<path fill="none" stroke="#63b8ff" d="M378.9,-50.92C370.88,-51.96 362.8,-53.01 354.89,-54.04"/>
<polygon fill="#63b8ff" stroke="#63b8ff" points="379.21,-54.41 388.67,-49.65 378.31,-47.47 379.21,-54.41"/>
</a>
</g>
</g>
<!-- Node4 -->
<g id="Node000004" class="node">
<title>Node4</title>
<g id="a_Node000004"><a xlink:href="../../d3/d7a/class_gam_r_1_1_ang_dist_1_1_double_gaussian_distr.html#aa8c87af76f1effd71b25dbf649c8b521" target="_top" xlink:title=" ">
<polygon fill="white" stroke="#666666" points="354.5,-30.5 196,-30.5 196,0 354.5,0 354.5,-30.5"/>
<text text-anchor="start" x="204" y="-17" font-family="Helvetica,sans-Serif" font-size="10.00">GamR::AngDist::DoubleGaussian</text>
<text text-anchor="middle" x="275.25" y="-5.75" font-family="Helvetica,sans-Serif" font-size="10.00">Distr::Fit</text>
</a>
</g>
</g>
<!-- Node1&#45;&gt;Node4 -->
<g id="edge3_Node000001_Node000004" class="edge">
<title>Node1&#45;&gt;Node4</title>
<g id="a_edge3_Node000001_Node000004"><a xlink:title=" ">
<path fill="none" stroke="#63b8ff" d="M378.9,-28.05C370.88,-27.05 362.8,-26.04 354.89,-25.05"/>
<polygon fill="#63b8ff" stroke="#63b8ff" points="378.32,-31.5 388.67,-29.27 379.18,-24.56 378.32,-31.5"/>
</a>
</g>
</g>
<!-- Node3 -->
<g id="Node000003" class="node">
<title>Node3</title>
<g id="a_Node000003"><a xlink:href="../../d4/d5b/class_gam_r_1_1_ang_dist_1_1_double_gaussian_distr_1_1_global_chi_square.html#a8da107c5c63fcc0d22612057bbb788ce" target="_top" xlink:title=" ">
<polygon fill="white" stroke="#666666" points="160,-85.12 0,-85.12 0,-43.38 160,-43.38 160,-85.12"/>
<text text-anchor="start" x="8" y="-71.62" font-family="Helvetica,sans-Serif" font-size="10.00">GamR::AngDist::DoubleGaussian</text>
<text text-anchor="start" x="8" y="-60.38" font-family="Helvetica,sans-Serif" font-size="10.00">Distr::GlobalChiSquare::GlobalChi</text>
<text text-anchor="middle" x="80" y="-49.12" font-family="Helvetica,sans-Serif" font-size="10.00">Square</text>
</a>
</g>
</g>
<!-- Node2&#45;&gt;Node3 -->
<g id="edge2_Node000002_Node000003" class="edge">
<title>Node2&#45;&gt;Node3</title>
<g id="a_edge2_Node000002_Node000003"><a xlink:title=" ">
<path fill="none" stroke="#63b8ff" d="M184.14,-64.25C176.24,-64.25 168.28,-64.25 160.47,-64.25"/>
<polygon fill="#63b8ff" stroke="#63b8ff" points="184.13,-67.75 194.13,-64.25 184.13,-60.75 184.13,-67.75"/>
</a>
</g>
</g>
</g>
</svg>
