<?xml version="1.0" encoding="UTF-8" standalone="no"?>
<!DOCTYPE svg PUBLIC "-//W3C//DTD SVG 1.1//EN"
 "http://www.w3.org/Graphics/SVG/1.1/DTD/svg11.dtd">
<!-- Generated by graphviz version 5.0.0 (20220708.1001)
 -->
<!-- Title: GamR::AngDist::DoubleGaussianDistr::DoubleGaussianDistr Pages: 1 -->
<svg width="362pt" height="57pt"
 viewBox="0.00 0.00 362.00 57.00" xmlns="http://www.w3.org/2000/svg" xmlns:xlink="http://www.w3.org/1999/xlink">
<g id="graph0" class="graph" transform="scale(1 1) rotate(0) translate(4 53)">
<title>GamR::AngDist::DoubleGaussianDistr::DoubleGaussianDistr</title>
<polygon fill="white" stroke="transparent" points="-4,4 -4,-53 358,-53 358,4 -4,4"/>
<!-- Node1 -->
<g id="node1" class="node">
<title>Node1</title>
<g id="a_node1"><a xlink:title=" ">
<polygon fill="#bfbfbf" stroke="black" points="0,-0.5 0,-30.5 159,-30.5 159,-0.5 0,-0.5"/>
<text text-anchor="start" x="8" y="-18.5" font-family="Helvetica,sans-Serif" font-size="10.00">GamR::AngDist::DoubleGaussian</text>
<text text-anchor="middle" x="79.5" y="-7.5" font-family="Helvetica,sans-Serif" font-size="10.00">Distr::DoubleGaussianDistr</text>
</a>
</g>
</g>
<!-- Node2 -->
<g id="node2" class="node">
<title>Node2</title>
<g id="a_node2"><a xlink:href="../../d3/d7a/class_gam_r_1_1_ang_dist_1_1_double_gaussian_distr.html#a8642efa0d3e277d5207c22cd4528e74e" target="_top" xlink:title=" ">
<polygon fill="white" stroke="black" points="195,-0.5 195,-30.5 354,-30.5 354,-0.5 195,-0.5"/>
<text text-anchor="start" x="203" y="-18.5" font-family="Helvetica,sans-Serif" font-size="10.00">GamR::AngDist::DoubleGaussian</text>
<text text-anchor="middle" x="274.5" y="-7.5" font-family="Helvetica,sans-Serif" font-size="10.00">Distr::SetPars</text>
</a>
</g>
</g>
<!-- Node1&#45;&gt;Node2 -->
<g id="edge1" class="edge">
<title>Node1&#45;&gt;Node2</title>
<path fill="none" stroke="midnightblue" d="M159,-15.5C167.48,-15.5 176.14,-15.5 184.73,-15.5"/>
<polygon fill="midnightblue" stroke="midnightblue" points="184.76,-19 194.76,-15.5 184.76,-12 184.76,-19"/>
</g>
<!-- Node2&#45;&gt;Node2 -->
<g id="edge2" class="edge">
<title>Node2&#45;&gt;Node2</title>
<path fill="none" stroke="midnightblue" d="M240.69,-30.66C232.54,-40.06 243.81,-49 274.5,-49 293.2,-49 304.69,-45.68 308.97,-40.96"/>
<polygon fill="midnightblue" stroke="midnightblue" points="312.44,-40.41 308.31,-30.66 305.46,-40.86 312.44,-40.41"/>
</g>
</g>
</svg>
