<?xml version="1.0" encoding="UTF-8" standalone="no"?>
<!DOCTYPE svg PUBLIC "-//W3C//DTD SVG 1.1//EN"
 "http://www.w3.org/Graphics/SVG/1.1/DTD/svg11.dtd">
<!-- Generated by graphviz version 6.0.2 (20221011.1828)
 -->
<!-- Title: src/lib/utils/REPL.hh Pages: 1 -->
<svg width="272pt" height="82pt"
 viewBox="0.00 0.00 272.00 82.00" xmlns="http://www.w3.org/2000/svg" xmlns:xlink="http://www.w3.org/1999/xlink">
<g id="graph0" class="graph" transform="scale(1 1) rotate(0) translate(4 78)">
<title>src/lib/utils/REPL.hh</title>
<!-- Node1 -->
<g id="node1" class="node">
<title>Node1</title>
<g id="a_node1"><a xlink:title=" ">
<polygon fill="#999999" stroke="#666666" points="193,-74 88,-74 88,-55 193,-55 193,-74"/>
<text text-anchor="middle" x="140.5" y="-62" font-family="Helvetica,sans-Serif" font-size="10.00">src/lib/utils/REPL.hh</text>
</a>
</g>
</g>
<!-- Node2 -->
<g id="node2" class="node">
<title>Node2</title>
<g id="a_node2"><a xlink:href="../../d9/da5/gamrsort_8cc.html" target="_top" xlink:title=" ">
<polygon fill="white" stroke="#666666" points="141,-19 0,-19 0,0 141,0 141,-19"/>
<text text-anchor="middle" x="70.5" y="-7" font-family="Helvetica,sans-Serif" font-size="10.00">src/bin/gamrsort/gamrsort.cc</text>
</a>
</g>
</g>
<!-- Node1&#45;&gt;Node2 -->
<g id="edge1" class="edge">
<title>Node1&#45;&gt;Node2</title>
<path fill="none" stroke="#63b8ff" d="M121.19,-48.88C108.59,-39.34 92.57,-27.21 81.95,-19.17"/>
<polygon fill="#63b8ff" stroke="#63b8ff" points="119.17,-51.74 129.25,-54.98 123.39,-46.16 119.17,-51.74"/>
</g>
<!-- Node3 -->
<g id="node3" class="node">
<title>Node3</title>
<g id="a_node3"><a xlink:href="../../d2/df3/_r_e_p_l_8cc.html" target="_top" xlink:title=" ">
<polygon fill="white" stroke="#666666" points="264,-19 159,-19 159,0 264,0 264,-19"/>
<text text-anchor="middle" x="211.5" y="-7" font-family="Helvetica,sans-Serif" font-size="10.00">src/lib/utils/REPL.cc</text>
</a>
</g>
</g>
<!-- Node1&#45;&gt;Node3 -->
<g id="edge2" class="edge">
<title>Node1&#45;&gt;Node3</title>
<path fill="none" stroke="#63b8ff" d="M160.09,-48.88C172.87,-39.34 189.11,-27.21 199.89,-19.17"/>
<polygon fill="#63b8ff" stroke="#63b8ff" points="157.83,-46.2 151.91,-54.98 162.01,-51.81 157.83,-46.2"/>
</g>
</g>
</svg>
