<?xml version="1.0" encoding="UTF-8" standalone="no"?>
<!DOCTYPE svg PUBLIC "-//W3C//DTD SVG 1.1//EN"
 "http://www.w3.org/Graphics/SVG/1.1/DTD/svg11.dtd">
<!-- Generated by graphviz version 9.0.0 (20230911.1827)
 -->
<!-- Title: src/lib/nucleus/Photon.hh Pages: 1 -->
<svg width="750pt" height="193pt"
 viewBox="0.00 0.00 750.12 193.00" xmlns="http://www.w3.org/2000/svg" xmlns:xlink="http://www.w3.org/1999/xlink">
<g id="graph0" class="graph" transform="scale(1 1) rotate(0) translate(4 189)">
<title>src/lib/nucleus/Photon.hh</title>
<!-- Node1 -->
<g id="Node000001" class="node">
<title>Node1</title>
<g id="a_Node000001"><a xlink:title=" ">
<polygon fill="#999999" stroke="#666666" points="233.12,-185 107.62,-185 107.62,-165.75 233.12,-165.75 233.12,-185"/>
<text text-anchor="middle" x="170.38" y="-171.5" font-family="Helvetica,sans-Serif" font-size="10.00">src/lib/nucleus/Photon.hh</text>
</a>
</g>
</g>
<!-- Node2 -->
<g id="Node000002" class="node">
<title>Node2</title>
<g id="a_Node000002"><a xlink:href="../../d3/d2c/_transition_8hh.html" target="_top" xlink:title=" ">
<polygon fill="white" stroke="#666666" points="206.12,-129.75 134.62,-129.75 134.62,-110.5 206.12,-110.5 206.12,-129.75"/>
<text text-anchor="middle" x="170.38" y="-116.25" font-family="Helvetica,sans-Serif" font-size="10.00">Transition.hh</text>
</a>
</g>
</g>
<!-- Node1&#45;&gt;Node2 -->
<g id="edge1_Node000001_Node000002" class="edge">
<title>Node1&#45;&gt;Node2</title>
<g id="a_edge1_Node000001_Node000002"><a xlink:title=" ">
<path fill="none" stroke="#63b8ff" d="M170.38,-165.58C170.38,-159.07 170.38,-149.92 170.38,-141.62"/>
<polygon fill="#63b8ff" stroke="#63b8ff" points="173.88,-141.62 170.38,-131.62 166.88,-141.62 173.88,-141.62"/>
</a>
</g>
</g>
<!-- Node3 -->
<g id="Node000003" class="node">
<title>Node3</title>
<g id="a_Node000003"><a xlink:title=" ">
<polygon fill="#e0e0e0" stroke="#999999" points="34.75,-19.25 0,-19.25 0,0 34.75,0 34.75,-19.25"/>
<text text-anchor="middle" x="17.38" y="-5.75" font-family="Helvetica,sans-Serif" font-size="10.00">map</text>
</a>
</g>
</g>
<!-- Node2&#45;&gt;Node3 -->
<g id="edge2_Node000002_Node000003" class="edge">
<title>Node2&#45;&gt;Node3</title>
<g id="a_edge2_Node000002_Node000003"><a xlink:title=" ">
<path fill="none" stroke="#63b8ff" d="M157.59,-110.06C131.43,-91.51 71.51,-49.01 39.11,-26.04"/>
<polygon fill="#63b8ff" stroke="#63b8ff" points="41.43,-23.39 31.25,-20.46 37.38,-29.1 41.43,-23.39"/>
</a>
</g>
</g>
<!-- Node4 -->
<g id="Node000004" class="node">
<title>Node4</title>
<g id="a_Node000004"><a xlink:title=" ">
<polygon fill="#e0e0e0" stroke="#999999" points="106.12,-19.25 52.62,-19.25 52.62,0 106.12,0 106.12,-19.25"/>
<text text-anchor="middle" x="79.38" y="-5.75" font-family="Helvetica,sans-Serif" font-size="10.00">iostream</text>
</a>
</g>
</g>
<!-- Node2&#45;&gt;Node4 -->
<g id="edge3_Node000002_Node000004" class="edge">
<title>Node2&#45;&gt;Node4</title>
<g id="a_edge3_Node000002_Node000004"><a xlink:title=" ">
<path fill="none" stroke="#63b8ff" d="M162.93,-110.25C147.93,-92.36 113.84,-51.72 94.15,-28.25"/>
<polygon fill="#63b8ff" stroke="#63b8ff" points="97.01,-26.2 87.9,-20.79 91.64,-30.7 97.01,-26.2"/>
</a>
</g>
</g>
<!-- Node5 -->
<g id="Node000005" class="node">
<title>Node5</title>
<g id="a_Node000005"><a xlink:title=" ">
<polygon fill="#e0e0e0" stroke="#999999" points="164.38,-19.25 124.38,-19.25 124.38,0 164.38,0 164.38,-19.25"/>
<text text-anchor="middle" x="144.38" y="-5.75" font-family="Helvetica,sans-Serif" font-size="10.00">string</text>
</a>
</g>
</g>
<!-- Node2&#45;&gt;Node5 -->
<g id="edge4_Node000002_Node000005" class="edge">
<title>Node2&#45;&gt;Node5</title>
<g id="a_edge4_Node000002_Node000005"><a xlink:title=" ">
<path fill="none" stroke="#63b8ff" d="M168.25,-110.25C164.11,-93 154.91,-54.58 149.21,-30.81"/>
<polygon fill="#63b8ff" stroke="#63b8ff" points="152.62,-30.01 146.88,-21.1 145.81,-31.64 152.62,-30.01"/>
</a>
</g>
</g>
<!-- Node6 -->
<g id="Node000006" class="node">
<title>Node6</title>
<g id="a_Node000006"><a xlink:title=" ">
<polygon fill="#e0e0e0" stroke="#999999" points="236.12,-19.25 182.62,-19.25 182.62,0 236.12,0 236.12,-19.25"/>
<text text-anchor="middle" x="209.38" y="-5.75" font-family="Helvetica,sans-Serif" font-size="10.00">Rtypes.h</text>
</a>
</g>
</g>
<!-- Node2&#45;&gt;Node6 -->
<g id="edge5_Node000002_Node000006" class="edge">
<title>Node2&#45;&gt;Node6</title>
<g id="a_edge5_Node000002_Node000006"><a xlink:title=" ">
<path fill="none" stroke="#63b8ff" d="M173.57,-110.25C179.82,-92.84 193.83,-53.87 202.35,-30.16"/>
<polygon fill="#63b8ff" stroke="#63b8ff" points="205.54,-31.65 205.63,-21.05 198.95,-29.28 205.54,-31.65"/>
</a>
</g>
</g>
<!-- Node7 -->
<g id="Node000007" class="node">
<title>Node7</title>
<g id="a_Node000007"><a xlink:title=" ">
<polygon fill="#e0e0e0" stroke="#999999" points="314.88,-19.25 253.88,-19.25 253.88,0 314.88,0 314.88,-19.25"/>
<text text-anchor="middle" x="284.38" y="-5.75" font-family="Helvetica,sans-Serif" font-size="10.00">TNamed.h</text>
</a>
</g>
</g>
<!-- Node2&#45;&gt;Node7 -->
<g id="edge6_Node000002_Node000007" class="edge">
<title>Node2&#45;&gt;Node7</title>
<g id="a_edge6_Node000002_Node000007"><a xlink:title=" ">
<path fill="none" stroke="#63b8ff" d="M179.7,-110.25C198.74,-92.13 242.34,-50.63 266.84,-27.32"/>
<polygon fill="#63b8ff" stroke="#63b8ff" points="268.99,-30.1 273.82,-20.67 264.16,-25.03 268.99,-30.1"/>
</a>
</g>
</g>
<!-- Node8 -->
<g id="Node000008" class="node">
<title>Node8</title>
<g id="a_Node000008"><a xlink:href="../../dd/d50/_gate_8hh.html" target="_top" xlink:title=" ">
<polygon fill="white" stroke="#666666" points="391.88,-74.5 312.88,-74.5 312.88,-55.25 391.88,-55.25 391.88,-74.5"/>
<text text-anchor="middle" x="352.38" y="-61" font-family="Helvetica,sans-Serif" font-size="10.00">toolkit/Gate.hh</text>
</a>
</g>
</g>
<!-- Node2&#45;&gt;Node8 -->
<g id="edge7_Node000002_Node000008" class="edge">
<title>Node2&#45;&gt;Node8</title>
<g id="a_edge7_Node000002_Node000008"><a xlink:title=" ">
<path fill="none" stroke="#63b8ff" d="M201.25,-110.09C231.32,-101.29 277.24,-87.86 310.57,-78.11"/>
<polygon fill="#63b8ff" stroke="#63b8ff" points="311.28,-81.54 319.9,-75.38 309.32,-74.83 311.28,-81.54"/>
</a>
</g>
</g>
<!-- Node8&#45;&gt;Node3 -->
<g id="edge9_Node000008_Node000003" class="edge">
<title>Node8&#45;&gt;Node3</title>
<g id="a_edge9_Node000008_Node000003"><a xlink:title=" ">
<path fill="none" stroke="#63b8ff" d="M312.44,-60.39C255.24,-54.9 146.58,-42.63 46.11,-19.55"/>
<polygon fill="#63b8ff" stroke="#63b8ff" points="47.17,-16.21 36.63,-17.33 45.57,-23.02 47.17,-16.21"/>
</a>
</g>
</g>
<!-- Node8&#45;&gt;Node4 -->
<g id="edge12_Node000008_Node000004" class="edge">
<title>Node8&#45;&gt;Node4</title>
<g id="a_edge12_Node000008_Node000004"><a xlink:title=" ">
<path fill="none" stroke="#63b8ff" d="M312.42,-56.97C267.42,-49.06 191.87,-35.36 117.44,-19.61"/>
<polygon fill="#63b8ff" stroke="#63b8ff" points="118.46,-16.24 107.95,-17.58 117,-23.09 118.46,-16.24"/>
</a>
</g>
</g>
<!-- Node8&#45;&gt;Node5 -->
<g id="edge11_Node000008_Node000005" class="edge">
<title>Node8&#45;&gt;Node5</title>
<g id="a_edge11_Node000008_Node000005"><a xlink:title=" ">
<path fill="none" stroke="#63b8ff" d="M313.84,-54.79C279.84,-46.67 228.7,-34.16 175.62,-19.77"/>
<polygon fill="#63b8ff" stroke="#63b8ff" points="176.65,-16.43 166.08,-17.17 174.81,-23.18 176.65,-16.43"/>
</a>
</g>
</g>
<!-- Node8&#45;&gt;Node6 -->
<g id="edge13_Node000008_Node000006" class="edge">
<title>Node8&#45;&gt;Node6</title>
<g id="a_edge13_Node000008_Node000006"><a xlink:title=" ">
<path fill="none" stroke="#63b8ff" d="M328.12,-54.84C305.11,-46.27 270.28,-33.31 244.29,-23.63"/>
<polygon fill="#63b8ff" stroke="#63b8ff" points="245.76,-20.44 235.17,-20.23 243.32,-27 245.76,-20.44"/>
</a>
</g>
</g>
<!-- Node8&#45;&gt;Node7 -->
<g id="edge18_Node000008_Node000007" class="edge">
<title>Node8&#45;&gt;Node7</title>
<g id="a_edge18_Node000008_Node000007"><a xlink:title=" ">
<path fill="none" stroke="#63b8ff" d="M340.84,-54.84C330.91,-47.07 316.36,-35.67 304.52,-26.4"/>
<polygon fill="#63b8ff" stroke="#63b8ff" points="306.96,-23.87 296.93,-20.46 302.65,-29.38 306.96,-23.87"/>
</a>
</g>
</g>
<!-- Node9 -->
<g id="Node000009" class="node">
<title>Node9</title>
<g id="a_Node000009"><a xlink:title=" ">
<polygon fill="#e0e0e0" stroke="#999999" points="589.25,-19.25 533.5,-19.25 533.5,0 589.25,0 589.25,-19.25"/>
<text text-anchor="middle" x="561.38" y="-5.75" font-family="Helvetica,sans-Serif" font-size="10.00">algorithm</text>
</a>
</g>
</g>
<!-- Node8&#45;&gt;Node9 -->
<g id="edge8_Node000008_Node000009" class="edge">
<title>Node8&#45;&gt;Node9</title>
<g id="a_edge8_Node000008_Node000009"><a xlink:title=" ">
<path fill="none" stroke="#63b8ff" d="M387.83,-54.84C425.14,-45.34 483.71,-30.41 522.32,-20.58"/>
<polygon fill="#63b8ff" stroke="#63b8ff" points="522.84,-24.05 531.67,-18.19 521.11,-17.27 522.84,-24.05"/>
</a>
</g>
</g>
<!-- Node10 -->
<g id="Node000010" class="node">
<title>Node10</title>
<g id="a_Node000010"><a xlink:title=" ">
<polygon fill="#e0e0e0" stroke="#999999" points="659,-19.25 607.75,-19.25 607.75,0 659,0 659,-19.25"/>
<text text-anchor="middle" x="633.38" y="-5.75" font-family="Helvetica,sans-Serif" font-size="10.00">sstream</text>
</a>
</g>
</g>
<!-- Node8&#45;&gt;Node10 -->
<g id="edge10_Node000008_Node000010" class="edge">
<title>Node8&#45;&gt;Node10</title>
<g id="a_edge10_Node000008_Node000010"><a xlink:title=" ">
<path fill="none" stroke="#63b8ff" d="M392.15,-57.44C438.72,-49.74 518.43,-36.02 596.43,-19.55"/>
<polygon fill="#63b8ff" stroke="#63b8ff" points="596.89,-23.03 605.94,-17.53 595.43,-16.19 596.89,-23.03"/>
</a>
</g>
</g>
<!-- Node11 -->
<g id="Node000011" class="node">
<title>Node11</title>
<g id="a_Node000011"><a xlink:title=" ">
<polygon fill="#e0e0e0" stroke="#999999" points="742.12,-19.25 676.62,-19.25 676.62,0 742.12,0 742.12,-19.25"/>
<text text-anchor="middle" x="709.38" y="-5.75" font-family="Helvetica,sans-Serif" font-size="10.00">TBrowser.h</text>
</a>
</g>
</g>
<!-- Node8&#45;&gt;Node11 -->
<g id="edge14_Node000008_Node000011" class="edge">
<title>Node8&#45;&gt;Node11</title>
<g id="a_edge14_Node000008_Node000011"><a xlink:title=" ">
<path fill="none" stroke="#63b8ff" d="M391.92,-59.16C449.78,-52.06 561.14,-37.7 664.98,-19.76"/>
<polygon fill="#63b8ff" stroke="#63b8ff" points="665.55,-23.21 674.8,-18.04 664.35,-16.31 665.55,-23.21"/>
</a>
</g>
</g>
<!-- Node12 -->
<g id="Node000012" class="node">
<title>Node12</title>
<g id="a_Node000012"><a xlink:title=" ">
<polygon fill="#e0e0e0" stroke="#999999" points="395.62,-19.25 333.12,-19.25 333.12,0 395.62,0 395.62,-19.25"/>
<text text-anchor="middle" x="364.38" y="-5.75" font-family="Helvetica,sans-Serif" font-size="10.00">TCanvas.h</text>
</a>
</g>
</g>
<!-- Node8&#45;&gt;Node12 -->
<g id="edge15_Node000008_Node000012" class="edge">
<title>Node8&#45;&gt;Node12</title>
<g id="a_edge15_Node000008_Node000012"><a xlink:title=" ">
<path fill="none" stroke="#63b8ff" d="M354.36,-55.08C355.84,-48.49 357.93,-39.21 359.82,-30.82"/>
<polygon fill="#63b8ff" stroke="#63b8ff" points="363.23,-31.61 362.02,-21.09 356.4,-30.07 363.23,-31.61"/>
</a>
</g>
</g>
<!-- Node13 -->
<g id="Node000013" class="node">
<title>Node13</title>
<g id="a_Node000013"><a xlink:title=" ">
<polygon fill="#e0e0e0" stroke="#999999" points="455.5,-19.25 413.25,-19.25 413.25,0 455.5,0 455.5,-19.25"/>
<text text-anchor="middle" x="434.38" y="-5.75" font-family="Helvetica,sans-Serif" font-size="10.00">TH1.h</text>
</a>
</g>
</g>
<!-- Node8&#45;&gt;Node13 -->
<g id="edge16_Node000008_Node000013" class="edge">
<title>Node8&#45;&gt;Node13</title>
<g id="a_edge16_Node000008_Node000013"><a xlink:title=" ">
<path fill="none" stroke="#63b8ff" d="M366.29,-54.84C378.54,-46.89 396.63,-35.14 411.09,-25.75"/>
<polygon fill="#63b8ff" stroke="#63b8ff" points="412.65,-28.91 419.13,-20.53 408.83,-23.04 412.65,-28.91"/>
</a>
</g>
</g>
<!-- Node14 -->
<g id="Node000014" class="node">
<title>Node14</title>
<g id="a_Node000014"><a xlink:title=" ">
<polygon fill="#e0e0e0" stroke="#999999" points="515.5,-19.25 473.25,-19.25 473.25,0 515.5,0 515.5,-19.25"/>
<text text-anchor="middle" x="494.38" y="-5.75" font-family="Helvetica,sans-Serif" font-size="10.00">TH2.h</text>
</a>
</g>
</g>
<!-- Node8&#45;&gt;Node14 -->
<g id="edge17_Node000008_Node000014" class="edge">
<title>Node8&#45;&gt;Node14</title>
<g id="a_edge17_Node000008_Node000014"><a xlink:title=" ">
<path fill="none" stroke="#63b8ff" d="M376.46,-54.84C400.14,-45.96 436.42,-32.36 462.48,-22.58"/>
<polygon fill="#63b8ff" stroke="#63b8ff" points="463.41,-25.98 471.54,-19.19 460.95,-19.42 463.41,-25.98"/>
</a>
</g>
</g>
</g>
</svg>
