<?xml version="1.0" encoding="UTF-8" standalone="no"?>
<!DOCTYPE svg PUBLIC "-//W3C//DTD SVG 1.1//EN"
 "http://www.w3.org/Graphics/SVG/1.1/DTD/svg11.dtd">
<!-- Generated by graphviz version 2.50.0 (20220203.2022)
 -->
<!-- Title: main Pages: 1 -->
<svg width="922pt" height="753pt"
 viewBox="0.00 0.00 922.00 753.00" xmlns="http://www.w3.org/2000/svg" xmlns:xlink="http://www.w3.org/1999/xlink">
<g id="graph0" class="graph" transform="scale(1 1) rotate(0) translate(4 749)">
<title>main</title>
<polygon fill="white" stroke="transparent" points="-4,4 -4,-749 918,-749 918,4 -4,4"/>
<!-- Node1 -->
<g id="node1" class="node">
<title>Node1</title>
<g id="a_node1"><a xlink:title=" ">
<polygon fill="#bfbfbf" stroke="black" points="0,-362.5 0,-381.5 38,-381.5 38,-362.5 0,-362.5"/>
<text text-anchor="middle" x="19" y="-369.5" font-family="Helvetica,sans-Serif" font-size="10.00">main</text>
</a>
</g>
</g>
<!-- Node2 -->
<g id="node2" class="node">
<title>Node2</title>
<g id="a_node2"><a xlink:href="../../d1/d06/group___o_r_n_l.html#ga8dadacfbdfaeef91b856b23b906ac4e2" target="_top" xlink:title=" ">
<polygon fill="white" stroke="black" points="74,-362.5 74,-381.5 223,-381.5 223,-362.5 74,-362.5"/>
<text text-anchor="middle" x="148.5" y="-369.5" font-family="Helvetica,sans-Serif" font-size="10.00">GamR::ORNL::readAllBananas</text>
</a>
</g>
</g>
<!-- Node1&#45;&gt;Node2 -->
<g id="edge1" class="edge">
<title>Node1&#45;&gt;Node2</title>
<path fill="none" stroke="midnightblue" d="M38.27,-372C45.47,-372 54.3,-372 63.78,-372"/>
<polygon fill="midnightblue" stroke="midnightblue" points="63.85,-375.5 73.85,-372 63.85,-368.5 63.85,-375.5"/>
</g>
<!-- Node3 -->
<g id="node3" class="node">
<title>Node3</title>
<g id="a_node3"><a xlink:href="../../d0/db7/namespace_gam_r_1_1_utils.html#a0a7aaf911b057208b84e3b98d071c5c0" target="_top" xlink:title=" ">
<polygon fill="white" stroke="black" points="444.5,-725.5 444.5,-744.5 546.5,-744.5 546.5,-725.5 444.5,-725.5"/>
<text text-anchor="middle" x="495.5" y="-732.5" font-family="Helvetica,sans-Serif" font-size="10.00">GamR::Utils::getline</text>
</a>
</g>
</g>
<!-- Node2&#45;&gt;Node3 -->
<g id="edge2" class="edge">
<title>Node2&#45;&gt;Node3</title>
<path fill="none" stroke="midnightblue" d="M154.42,-381.72C177.94,-427.17 283.79,-620.63 428,-716 431.09,-718.04 434.39,-719.87 437.82,-721.5"/>
<polygon fill="midnightblue" stroke="midnightblue" points="436.54,-724.76 447.12,-725.38 439.24,-718.3 436.54,-724.76"/>
</g>
<!-- Node4 -->
<g id="node4" class="node">
<title>Node4</title>
<g id="a_node4"><a xlink:href="../../d1/d06/group___o_r_n_l.html#gadf516cfb4c9ea542a49beb4a7c8b3abd" target="_top" xlink:title=" ">
<polygon fill="white" stroke="black" points="259,-362.5 259,-381.5 392,-381.5 392,-362.5 259,-362.5"/>
<text text-anchor="middle" x="325.5" y="-369.5" font-family="Helvetica,sans-Serif" font-size="10.00">GamR::ORNL::readBanana</text>
</a>
</g>
</g>
<!-- Node2&#45;&gt;Node4 -->
<g id="edge3" class="edge">
<title>Node2&#45;&gt;Node4</title>
<path fill="none" stroke="midnightblue" d="M223.21,-372C231.64,-372 240.25,-372 248.71,-372"/>
<polygon fill="midnightblue" stroke="midnightblue" points="248.94,-375.5 258.94,-372 248.94,-368.5 248.94,-375.5"/>
</g>
<!-- Node19 -->
<g id="node19" class="node">
<title>Node19</title>
<g id="a_node19"><a xlink:href="../../d0/d17/_abbreviations_8cc.html#a5d1794b612bdcca3f4f4baa3d2e38a0b" target="_top" xlink:title=" ">
<polygon fill="white" stroke="black" points="481,-0.5 481,-19.5 510,-19.5 510,-0.5 481,-0.5"/>
<text text-anchor="middle" x="495.5" y="-7.5" font-family="Helvetica,sans-Serif" font-size="10.00">ss</text>
</a>
</g>
</g>
<!-- Node2&#45;&gt;Node19 -->
<g id="edge23" class="edge">
<title>Node2&#45;&gt;Node19</title>
<path fill="none" stroke="midnightblue" d="M154.43,-362.31C177.98,-316.99 283.97,-124.1 428,-29 440.81,-20.54 457.41,-15.79 470.82,-13.16"/>
<polygon fill="midnightblue" stroke="midnightblue" points="471.48,-16.6 480.75,-11.47 470.31,-9.7 471.48,-16.6"/>
</g>
<!-- Node4&#45;&gt;Node3 -->
<g id="edge4" class="edge">
<title>Node4&#45;&gt;Node3</title>
<path fill="none" stroke="midnightblue" d="M330.04,-381.8C340.36,-410.51 370.94,-496.94 392,-570 410.51,-634.22 381.61,-667.89 428,-716 430.22,-718.3 432.7,-720.33 435.36,-722.12"/>
<polygon fill="midnightblue" stroke="midnightblue" points="433.91,-725.32 444.37,-727.05 437.27,-719.18 433.91,-725.32"/>
</g>
<!-- Node5 -->
<g id="node5" class="node">
<title>Node5</title>
<g id="a_node5"><a xlink:href="../../d1/d06/group___o_r_n_l.html#ga1b8b343a02efb0d61061d6e2fc4b6745" target="_top" xlink:title=" ">
<polygon fill="white" stroke="black" points="428,-676 428,-706 563,-706 563,-676 428,-676"/>
<text text-anchor="start" x="436" y="-694" font-family="Helvetica,sans-Serif" font-size="10.00">GamR::ORNL::BananaGate</text>
<text text-anchor="middle" x="495.5" y="-683" font-family="Helvetica,sans-Serif" font-size="10.00">::SetDG</text>
</a>
</g>
</g>
<!-- Node4&#45;&gt;Node5 -->
<g id="edge5" class="edge">
<title>Node4&#45;&gt;Node5</title>
<path fill="none" stroke="midnightblue" d="M329.68,-381.62C346.3,-431.8 422.58,-661.5 428,-667 428.94,-667.96 429.93,-668.88 430.95,-669.76"/>
<polygon fill="midnightblue" stroke="midnightblue" points="429.24,-672.85 439.4,-675.85 433.33,-667.17 429.24,-672.85"/>
</g>
<!-- Node6 -->
<g id="node6" class="node">
<title>Node6</title>
<g id="a_node6"><a xlink:href="../../d1/d06/group___o_r_n_l.html#gacd0499872badfb298bd1272f12b41f23" target="_top" xlink:title=" ">
<polygon fill="white" stroke="black" points="428,-627 428,-657 563,-657 563,-627 428,-627"/>
<text text-anchor="start" x="436" y="-645" font-family="Helvetica,sans-Serif" font-size="10.00">GamR::ORNL::BananaGate</text>
<text text-anchor="middle" x="495.5" y="-634" font-family="Helvetica,sans-Serif" font-size="10.00">::SetFileName</text>
</a>
</g>
</g>
<!-- Node4&#45;&gt;Node6 -->
<g id="edge6" class="edge">
<title>Node4&#45;&gt;Node6</title>
<path fill="none" stroke="midnightblue" d="M329.35,-381.71C341.6,-422.87 390.85,-582.48 428,-618 429.11,-619.06 430.27,-620.07 431.47,-621.04"/>
<polygon fill="midnightblue" stroke="midnightblue" points="429.71,-624.08 439.94,-626.82 433.65,-618.3 429.71,-624.08"/>
</g>
<!-- Node7 -->
<g id="node7" class="node">
<title>Node7</title>
<g id="a_node7"><a xlink:href="../../d1/d06/group___o_r_n_l.html#ga828addea595481b96d3f41002826e8ba" target="_top" xlink:title=" ">
<polygon fill="white" stroke="black" points="428,-578 428,-608 563,-608 563,-578 428,-578"/>
<text text-anchor="start" x="436" y="-596" font-family="Helvetica,sans-Serif" font-size="10.00">GamR::ORNL::BananaGate</text>
<text text-anchor="middle" x="495.5" y="-585" font-family="Helvetica,sans-Serif" font-size="10.00">::SetIAUX</text>
</a>
</g>
</g>
<!-- Node4&#45;&gt;Node7 -->
<g id="edge7" class="edge">
<title>Node4&#45;&gt;Node7</title>
<path fill="none" stroke="midnightblue" d="M328.8,-381.78C336.77,-413.51 366.14,-514.67 428,-569 429.33,-570.17 430.72,-571.28 432.17,-572.34"/>
<polygon fill="midnightblue" stroke="midnightblue" points="430.58,-575.48 440.9,-577.86 434.31,-569.56 430.58,-575.48"/>
</g>
<!-- Node8 -->
<g id="node8" class="node">
<title>Node8</title>
<g id="a_node8"><a xlink:href="../../d1/d06/group___o_r_n_l.html#ga09cadfda3190414a9bf225552e745612" target="_top" xlink:title=" ">
<polygon fill="white" stroke="black" points="428,-529 428,-559 563,-559 563,-529 428,-529"/>
<text text-anchor="start" x="436" y="-547" font-family="Helvetica,sans-Serif" font-size="10.00">GamR::ORNL::BananaGate</text>
<text text-anchor="middle" x="495.5" y="-536" font-family="Helvetica,sans-Serif" font-size="10.00">::SetIB</text>
</a>
</g>
</g>
<!-- Node4&#45;&gt;Node8 -->
<g id="edge8" class="edge">
<title>Node4&#45;&gt;Node8</title>
<path fill="none" stroke="midnightblue" d="M330.62,-381.86C342.1,-408.14 376.97,-480.56 428,-520 429.78,-521.37 431.64,-522.67 433.56,-523.9"/>
<polygon fill="midnightblue" stroke="midnightblue" points="431.92,-526.99 442.35,-528.85 435.35,-520.89 431.92,-526.99"/>
</g>
<!-- Node9 -->
<g id="node9" class="node">
<title>Node9</title>
<g id="a_node9"><a xlink:href="../../d1/d06/group___o_r_n_l.html#ga60f97af383724875b1544ecb8281cc58" target="_top" xlink:title=" ">
<polygon fill="white" stroke="black" points="428,-480 428,-510 563,-510 563,-480 428,-480"/>
<text text-anchor="start" x="436" y="-498" font-family="Helvetica,sans-Serif" font-size="10.00">GamR::ORNL::BananaGate</text>
<text text-anchor="middle" x="495.5" y="-487" font-family="Helvetica,sans-Serif" font-size="10.00">::SetIH</text>
</a>
</g>
</g>
<!-- Node4&#45;&gt;Node9 -->
<g id="edge9" class="edge">
<title>Node4&#45;&gt;Node9</title>
<path fill="none" stroke="midnightblue" d="M333.88,-381.54C349.34,-400.96 387.11,-445.39 428,-471 430.57,-472.61 433.26,-474.13 436.03,-475.57"/>
<polygon fill="midnightblue" stroke="midnightblue" points="434.54,-478.73 445.07,-479.87 437.55,-472.41 434.54,-478.73"/>
</g>
<!-- Node10 -->
<g id="node10" class="node">
<title>Node10</title>
<g id="a_node10"><a xlink:href="../../d1/d06/group___o_r_n_l.html#gaa4083f529683a721acdc300c1e3c3afc" target="_top" xlink:title=" ">
<polygon fill="white" stroke="black" points="428,-431 428,-461 563,-461 563,-431 428,-431"/>
<text text-anchor="start" x="436" y="-449" font-family="Helvetica,sans-Serif" font-size="10.00">GamR::ORNL::BananaGate</text>
<text text-anchor="middle" x="495.5" y="-438" font-family="Helvetica,sans-Serif" font-size="10.00">::SetIPX</text>
</a>
</g>
</g>
<!-- Node4&#45;&gt;Node10 -->
<g id="edge10" class="edge">
<title>Node4&#45;&gt;Node10</title>
<path fill="none" stroke="midnightblue" d="M344.55,-381.65C364.63,-392.21 398.17,-409.32 428,-422 432.18,-423.78 436.54,-425.54 440.94,-427.26"/>
<polygon fill="midnightblue" stroke="midnightblue" points="440,-430.65 450.59,-430.94 442.49,-424.11 440,-430.65"/>
</g>
<!-- Node11 -->
<g id="node11" class="node">
<title>Node11</title>
<g id="a_node11"><a xlink:href="../../d1/d06/group___o_r_n_l.html#ga04f3d0b54f752fc65ed238db00d9c696" target="_top" xlink:title=" ">
<polygon fill="white" stroke="black" points="428,-382 428,-412 563,-412 563,-382 428,-382"/>
<text text-anchor="start" x="436" y="-400" font-family="Helvetica,sans-Serif" font-size="10.00">GamR::ORNL::BananaGate</text>
<text text-anchor="middle" x="495.5" y="-389" font-family="Helvetica,sans-Serif" font-size="10.00">::SetIPY</text>
</a>
</g>
</g>
<!-- Node4&#45;&gt;Node11 -->
<g id="edge11" class="edge">
<title>Node4&#45;&gt;Node11</title>
<path fill="none" stroke="midnightblue" d="M390.49,-381.52C399.48,-382.86 408.8,-384.25 417.99,-385.61"/>
<polygon fill="midnightblue" stroke="midnightblue" points="417.49,-389.08 427.89,-387.09 418.52,-382.15 417.49,-389.08"/>
</g>
<!-- Node12 -->
<g id="node12" class="node">
<title>Node12</title>
<g id="a_node12"><a xlink:href="../../d1/d06/group___o_r_n_l.html#ga400b10a64714b99aad436239aab3feb7" target="_top" xlink:title=" ">
<polygon fill="white" stroke="black" points="428,-333 428,-363 563,-363 563,-333 428,-333"/>
<text text-anchor="start" x="436" y="-351" font-family="Helvetica,sans-Serif" font-size="10.00">GamR::ORNL::BananaGate</text>
<text text-anchor="middle" x="495.5" y="-340" font-family="Helvetica,sans-Serif" font-size="10.00">::SetJAUX</text>
</a>
</g>
</g>
<!-- Node4&#45;&gt;Node12 -->
<g id="edge12" class="edge">
<title>Node4&#45;&gt;Node12</title>
<path fill="none" stroke="midnightblue" d="M392.42,-362.58C400.81,-361.38 409.45,-360.15 417.99,-358.93"/>
<polygon fill="midnightblue" stroke="midnightblue" points="418.54,-362.39 427.95,-357.51 417.55,-355.46 418.54,-362.39"/>
</g>
<!-- Node13 -->
<g id="node13" class="node">
<title>Node13</title>
<g id="a_node13"><a xlink:href="../../d1/d06/group___o_r_n_l.html#ga2bef3cf9878028d6fd427101c0a537b3" target="_top" xlink:title=" ">
<polygon fill="white" stroke="black" points="428,-284 428,-314 563,-314 563,-284 428,-284"/>
<text text-anchor="start" x="436" y="-302" font-family="Helvetica,sans-Serif" font-size="10.00">GamR::ORNL::BananaGate</text>
<text text-anchor="middle" x="495.5" y="-291" font-family="Helvetica,sans-Serif" font-size="10.00">::SetLXD</text>
</a>
</g>
</g>
<!-- Node4&#45;&gt;Node13 -->
<g id="edge13" class="edge">
<title>Node4&#45;&gt;Node13</title>
<path fill="none" stroke="midnightblue" d="M345.74,-362.32C366,-352.27 398.92,-336.32 428,-324 432.97,-321.9 438.18,-319.78 443.41,-317.72"/>
<polygon fill="midnightblue" stroke="midnightblue" points="444.73,-320.96 452.79,-314.08 442.2,-314.43 444.73,-320.96"/>
</g>
<!-- Node14 -->
<g id="node14" class="node">
<title>Node14</title>
<g id="a_node14"><a xlink:href="../../d1/d06/group___o_r_n_l.html#gaffd868e98112f2188173e23b387e2e8e" target="_top" xlink:title=" ">
<polygon fill="white" stroke="black" points="428,-235 428,-265 563,-265 563,-235 428,-235"/>
<text text-anchor="start" x="436" y="-253" font-family="Helvetica,sans-Serif" font-size="10.00">GamR::ORNL::BananaGate</text>
<text text-anchor="middle" x="495.5" y="-242" font-family="Helvetica,sans-Serif" font-size="10.00">::SetLXG</text>
</a>
</g>
</g>
<!-- Node4&#45;&gt;Node14 -->
<g id="edge14" class="edge">
<title>Node4&#45;&gt;Node14</title>
<path fill="none" stroke="midnightblue" d="M334.19,-362.41C349.93,-343.34 387.76,-300.29 428,-275 431.16,-273.01 434.51,-271.15 437.95,-269.4"/>
<polygon fill="midnightblue" stroke="midnightblue" points="439.65,-272.47 447.21,-265.05 436.67,-266.13 439.65,-272.47"/>
</g>
<!-- Node15 -->
<g id="node15" class="node">
<title>Node15</title>
<g id="a_node15"><a xlink:href="../../d1/d06/group___o_r_n_l.html#ga1c3e7b158df72bab8110d838fd1f4ea2" target="_top" xlink:title=" ">
<polygon fill="white" stroke="black" points="428,-186 428,-216 563,-216 563,-186 428,-186"/>
<text text-anchor="start" x="436" y="-204" font-family="Helvetica,sans-Serif" font-size="10.00">GamR::ORNL::BananaGate</text>
<text text-anchor="middle" x="495.5" y="-193" font-family="Helvetica,sans-Serif" font-size="10.00">::SetLYD</text>
</a>
</g>
</g>
<!-- Node4&#45;&gt;Node15 -->
<g id="edge15" class="edge">
<title>Node4&#45;&gt;Node15</title>
<path fill="none" stroke="midnightblue" d="M330.69,-362.32C342.33,-336.48 377.57,-265.25 428,-226 430.28,-224.22 432.7,-222.56 435.22,-221.01"/>
<polygon fill="midnightblue" stroke="midnightblue" points="436.99,-224.03 444.07,-216.15 433.62,-217.9 436.99,-224.03"/>
</g>
<!-- Node16 -->
<g id="node16" class="node">
<title>Node16</title>
<g id="a_node16"><a xlink:href="../../d1/d06/group___o_r_n_l.html#ga7cfce869f65b00cad1f052fbcf7b5f05" target="_top" xlink:title=" ">
<polygon fill="white" stroke="black" points="428,-137 428,-167 563,-167 563,-137 428,-137"/>
<text text-anchor="start" x="436" y="-155" font-family="Helvetica,sans-Serif" font-size="10.00">GamR::ORNL::BananaGate</text>
<text text-anchor="middle" x="495.5" y="-144" font-family="Helvetica,sans-Serif" font-size="10.00">::SetLYG</text>
</a>
</g>
</g>
<!-- Node4&#45;&gt;Node16 -->
<g id="edge16" class="edge">
<title>Node4&#45;&gt;Node16</title>
<path fill="none" stroke="midnightblue" d="M328.86,-362.35C337.02,-331.04 366.88,-231.18 428,-177 429.76,-175.44 431.63,-173.97 433.58,-172.59"/>
<polygon fill="midnightblue" stroke="midnightblue" points="435.87,-175.29 442.58,-167.09 432.22,-169.32 435.87,-175.29"/>
</g>
<!-- Node17 -->
<g id="node17" class="node">
<title>Node17</title>
<g id="a_node17"><a xlink:href="../../d1/d06/group___o_r_n_l.html#ga37d14ea365da5b9bc604b6270ce12c6c" target="_top" xlink:title=" ">
<polygon fill="white" stroke="black" points="428,-88 428,-118 563,-118 563,-88 428,-88"/>
<text text-anchor="start" x="436" y="-106" font-family="Helvetica,sans-Serif" font-size="10.00">GamR::ORNL::BananaGate</text>
<text text-anchor="middle" x="495.5" y="-95" font-family="Helvetica,sans-Serif" font-size="10.00">::SetNP</text>
</a>
</g>
</g>
<!-- Node4&#45;&gt;Node17 -->
<g id="edge17" class="edge">
<title>Node4&#45;&gt;Node17</title>
<path fill="none" stroke="midnightblue" d="M330,-362.35C345.67,-319.28 409.52,-145.85 428,-128 429.62,-126.43 431.35,-124.96 433.16,-123.58"/>
<polygon fill="midnightblue" stroke="midnightblue" points="435.11,-126.49 441.58,-118.1 431.29,-120.63 435.11,-126.49"/>
</g>
<!-- Node18 -->
<g id="node18" class="node">
<title>Node18</title>
<g id="a_node18"><a xlink:href="../../d1/d06/group___o_r_n_l.html#gae35a530867a4df87be125f2df9b27f15" target="_top" xlink:title=" ">
<polygon fill="white" stroke="black" points="428,-39 428,-69 563,-69 563,-39 428,-39"/>
<text text-anchor="start" x="436" y="-57" font-family="Helvetica,sans-Serif" font-size="10.00">GamR::ORNL::BananaGate</text>
<text text-anchor="middle" x="495.5" y="-46" font-family="Helvetica,sans-Serif" font-size="10.00">::SetNUPM</text>
</a>
</g>
</g>
<!-- Node4&#45;&gt;Node18 -->
<g id="edge18" class="edge">
<title>Node4&#45;&gt;Node18</title>
<path fill="none" stroke="midnightblue" d="M330.42,-362.27C340.96,-335.99 370.55,-261.28 392,-198 409.74,-145.67 390.23,-119.34 428,-79 429.36,-77.55 430.81,-76.18 432.34,-74.89"/>
<polygon fill="midnightblue" stroke="midnightblue" points="434.4,-77.72 440.53,-69.08 430.35,-72.01 434.4,-77.72"/>
</g>
<!-- Node4&#45;&gt;Node19 -->
<g id="edge19" class="edge">
<title>Node4&#45;&gt;Node19</title>
<path fill="none" stroke="midnightblue" d="M330.72,-362.36C341.98,-336.31 373.22,-262.12 392,-198 413.59,-124.3 375.59,-85.13 428,-29 438.91,-17.32 456.44,-12.65 470.77,-10.86"/>
<polygon fill="midnightblue" stroke="midnightblue" points="471.28,-14.33 480.94,-9.98 470.67,-7.35 471.28,-14.33"/>
</g>
<!-- Node20 -->
<g id="node20" class="node">
<title>Node20</title>
<g id="a_node20"><a xlink:href="../../dc/d89/namespace_gam_r_1_1_spect.html#ab983da62eb972889ea13491189e13913" target="_top" xlink:title=" ">
<polygon fill="white" stroke="black" points="599,-0.5 599,-19.5 737,-19.5 737,-0.5 599,-0.5"/>
<text text-anchor="middle" x="668" y="-7.5" font-family="Helvetica,sans-Serif" font-size="10.00">GamR::Spect::StackSpectra</text>
</a>
</g>
</g>
<!-- Node19&#45;&gt;Node20 -->
<g id="edge20" class="edge">
<title>Node19&#45;&gt;Node20</title>
<path fill="none" stroke="midnightblue" d="M510.16,-10C527.49,-10 558.73,-10 588.79,-10"/>
<polygon fill="midnightblue" stroke="midnightblue" points="588.92,-13.5 598.92,-10 588.92,-6.5 588.92,-13.5"/>
</g>
<!-- Node20&#45;&gt;Node20 -->
<g id="edge22" class="edge">
<title>Node20&#45;&gt;Node20</title>
<path fill="none" stroke="midnightblue" d="M641.49,-19.76C628.59,-28.57 637.43,-38 668,-38 688.54,-38 699.27,-33.74 700.19,-28.27"/>
<polygon fill="midnightblue" stroke="midnightblue" points="702.97,-26.14 694.51,-19.76 697.14,-30.02 702.97,-26.14"/>
</g>
<!-- Node21 -->
<g id="node21" class="node">
<title>Node21</title>
<g id="a_node21"><a xlink:href="../../dc/d89/namespace_gam_r_1_1_spect.html#a56e80bce5bf691212c8b7dfb76c2d2b4" target="_top" xlink:title=" ">
<polygon fill="white" stroke="black" points="773,-0.5 773,-19.5 914,-19.5 914,-0.5 773,-0.5"/>
<text text-anchor="middle" x="843.5" y="-7.5" font-family="Helvetica,sans-Serif" font-size="10.00">GamR::Spect::List1DSpectra</text>
</a>
</g>
</g>
<!-- Node20&#45;&gt;Node21 -->
<g id="edge21" class="edge">
<title>Node20&#45;&gt;Node21</title>
<path fill="none" stroke="midnightblue" d="M737.07,-10C745.53,-10 754.24,-10 762.86,-10"/>
<polygon fill="midnightblue" stroke="midnightblue" points="762.91,-13.5 772.91,-10 762.91,-6.5 762.91,-13.5"/>
</g>
</g>
</svg>
