<?xml version="1.0" encoding="UTF-8" standalone="no"?>
<!DOCTYPE svg PUBLIC "-//W3C//DTD SVG 1.1//EN"
 "http://www.w3.org/Graphics/SVG/1.1/DTD/svg11.dtd">
<!-- Generated by graphviz version 12.2.1 (20241206.2353)
 -->
<!-- Title: GamR::TK::FPeak Pages: 1 -->
<svg width="98pt" height="510pt"
 viewBox="0.00 0.00 98.00 509.50" xmlns="http://www.w3.org/2000/svg" xmlns:xlink="http://www.w3.org/1999/xlink">
<g id="graph0" class="graph" transform="scale(1 1) rotate(0) translate(4 505.5)">
<title>GamR::TK::FPeak</title>
<!-- Node1 -->
<g id="Node000001" class="node">
<title>Node1</title>
<g id="a_Node000001"><a xlink:title=" ">
<polygon fill="#999999" stroke="none" points="90,-217.5 0,-217.5 0,0 90,0 90,-217.5"/>
<text text-anchor="start" x="6" y="-204" font-family="Helvetica,sans-Serif" font-size="10.00">GamR::TK::FPeak</text>
<text text-anchor="start" x="4.38" y="-188.75" font-family="Helvetica,sans-Serif" font-size="10.00">#</text>
<text text-anchor="start" x="14" y="-188.75" font-family="Helvetica,sans-Serif" font-size="10.00">fPeakFunc</text>
<text text-anchor="start" x="4.38" y="-173.5" font-family="Helvetica,sans-Serif" font-size="10.00">#</text>
<text text-anchor="start" x="14" y="-173.5" font-family="Helvetica,sans-Serif" font-size="10.00">fLow</text>
<text text-anchor="start" x="4.38" y="-158.25" font-family="Helvetica,sans-Serif" font-size="10.00">#</text>
<text text-anchor="start" x="14" y="-158.25" font-family="Helvetica,sans-Serif" font-size="10.00">fHigh</text>
<text text-anchor="start" x="4.38" y="-143" font-family="Helvetica,sans-Serif" font-size="10.00">#</text>
<text text-anchor="start" x="14" y="-143" font-family="Helvetica,sans-Serif" font-size="10.00">fPeakType</text>
<text text-anchor="start" x="4" y="-127.75" font-family="Helvetica,sans-Serif" font-size="10.00">+</text>
<text text-anchor="start" x="14" y="-127.75" font-family="Helvetica,sans-Serif" font-size="10.00">FPeak()</text>
<text text-anchor="start" x="4" y="-112.5" font-family="Helvetica,sans-Serif" font-size="10.00">+</text>
<text text-anchor="start" x="14" y="-112.5" font-family="Helvetica,sans-Serif" font-size="10.00">FPeak()</text>
<text text-anchor="start" x="4" y="-97.25" font-family="Helvetica,sans-Serif" font-size="10.00">+</text>
<text text-anchor="start" x="14" y="-97.25" font-family="Helvetica,sans-Serif" font-size="10.00">~FPeak()</text>
<text text-anchor="start" x="4" y="-82" font-family="Helvetica,sans-Serif" font-size="10.00">+</text>
<text text-anchor="start" x="14" y="-82" font-family="Helvetica,sans-Serif" font-size="10.00">GetFunc()</text>
<text text-anchor="start" x="4" y="-66.75" font-family="Helvetica,sans-Serif" font-size="10.00">+</text>
<text text-anchor="start" x="14" y="-66.75" font-family="Helvetica,sans-Serif" font-size="10.00">GetPeakType()</text>
<text text-anchor="start" x="4" y="-51.5" font-family="Helvetica,sans-Serif" font-size="10.00">+</text>
<text text-anchor="start" x="14" y="-51.5" font-family="Helvetica,sans-Serif" font-size="10.00">GetStepFunc()</text>
<text text-anchor="start" x="4" y="-36.25" font-family="Helvetica,sans-Serif" font-size="10.00">+</text>
<text text-anchor="start" x="14" y="-36.25" font-family="Helvetica,sans-Serif" font-size="10.00">GetGaussFunc()</text>
<text text-anchor="start" x="4" y="-21" font-family="Helvetica,sans-Serif" font-size="10.00">+</text>
<text text-anchor="start" x="14" y="-21" font-family="Helvetica,sans-Serif" font-size="10.00">SetParameters()</text>
<text text-anchor="start" x="4" y="-5.75" font-family="Helvetica,sans-Serif" font-size="10.00">+</text>
<text text-anchor="start" x="14" y="-5.75" font-family="Helvetica,sans-Serif" font-size="10.00">SetParErrors()</text>
<polygon fill="#666666" stroke="#666666" points="0,-200.25 0,-200.25 90,-200.25 90,-200.25 0,-200.25"/>
<polygon fill="#666666" stroke="#666666" points="0,-139.25 0,-139.25 12,-139.25 12,-139.25 0,-139.25"/>
<polygon fill="#666666" stroke="#666666" points="12,-139.25 12,-139.25 90,-139.25 90,-139.25 12,-139.25"/>
<polygon fill="none" stroke="#666666" points="0,0 0,-217.5 90,-217.5 90,0 0,0"/>
</a>
</g>
</g>
<!-- Node2 -->
<g id="Node000002" class="node">
<title>Node2</title>
<g id="a_Node000002"><a xlink:href="../../d3/d75/class_gam_r_1_1_t_k_1_1_peak.html" target="_top" xlink:title=" ">
<polygon fill="white" stroke="none" points="87.38,-501.5 2.62,-501.5 2.62,-253.5 87.38,-253.5 87.38,-501.5"/>
<text text-anchor="start" x="9" y="-488" font-family="Helvetica,sans-Serif" font-size="10.00">GamR::TK::Peak</text>
<text text-anchor="start" x="43.5" y="-472.75" font-family="Helvetica,sans-Serif" font-size="10.00"> </text>
<text text-anchor="start" x="6.62" y="-457.5" font-family="Helvetica,sans-Serif" font-size="10.00">+</text>
<text text-anchor="start" x="16.62" y="-457.5" font-family="Helvetica,sans-Serif" font-size="10.00">GetArea()</text>
<text text-anchor="start" x="6.62" y="-442.25" font-family="Helvetica,sans-Serif" font-size="10.00">+</text>
<text text-anchor="start" x="16.62" y="-442.25" font-family="Helvetica,sans-Serif" font-size="10.00">GetAreaError()</text>
<text text-anchor="start" x="6.62" y="-427" font-family="Helvetica,sans-Serif" font-size="10.00">+</text>
<text text-anchor="start" x="16.62" y="-427" font-family="Helvetica,sans-Serif" font-size="10.00">GetAmp()</text>
<text text-anchor="start" x="6.62" y="-411.75" font-family="Helvetica,sans-Serif" font-size="10.00">+</text>
<text text-anchor="start" x="16.62" y="-411.75" font-family="Helvetica,sans-Serif" font-size="10.00">GetAmpError()</text>
<text text-anchor="start" x="6.62" y="-396.5" font-family="Helvetica,sans-Serif" font-size="10.00">+</text>
<text text-anchor="start" x="16.62" y="-396.5" font-family="Helvetica,sans-Serif" font-size="10.00">GetCent()</text>
<text text-anchor="start" x="6.62" y="-381.25" font-family="Helvetica,sans-Serif" font-size="10.00">+</text>
<text text-anchor="start" x="16.62" y="-381.25" font-family="Helvetica,sans-Serif" font-size="10.00">GetCentError()</text>
<text text-anchor="start" x="6.62" y="-366" font-family="Helvetica,sans-Serif" font-size="10.00">+</text>
<text text-anchor="start" x="16.62" y="-366" font-family="Helvetica,sans-Serif" font-size="10.00">GetWidth()</text>
<text text-anchor="start" x="6.62" y="-350.75" font-family="Helvetica,sans-Serif" font-size="10.00">+</text>
<text text-anchor="start" x="16.62" y="-350.75" font-family="Helvetica,sans-Serif" font-size="10.00">GetWidthError()</text>
<text text-anchor="start" x="6.62" y="-335.5" font-family="Helvetica,sans-Serif" font-size="10.00">+</text>
<text text-anchor="start" x="16.62" y="-335.5" font-family="Helvetica,sans-Serif" font-size="10.00">SetAmp()</text>
<text text-anchor="start" x="6.62" y="-320.25" font-family="Helvetica,sans-Serif" font-size="10.00">+</text>
<text text-anchor="start" x="16.62" y="-320.25" font-family="Helvetica,sans-Serif" font-size="10.00">SetAmpError()</text>
<text text-anchor="start" x="6.62" y="-305" font-family="Helvetica,sans-Serif" font-size="10.00">+</text>
<text text-anchor="start" x="16.62" y="-305" font-family="Helvetica,sans-Serif" font-size="10.00">SetCent()</text>
<text text-anchor="start" x="6.62" y="-289.75" font-family="Helvetica,sans-Serif" font-size="10.00">+</text>
<text text-anchor="start" x="16.62" y="-289.75" font-family="Helvetica,sans-Serif" font-size="10.00">SetCentError()</text>
<text text-anchor="start" x="6.62" y="-274.5" font-family="Helvetica,sans-Serif" font-size="10.00">+</text>
<text text-anchor="start" x="16.62" y="-274.5" font-family="Helvetica,sans-Serif" font-size="10.00">SetWidth()</text>
<text text-anchor="start" x="6.62" y="-259.25" font-family="Helvetica,sans-Serif" font-size="10.00">+</text>
<text text-anchor="start" x="16.62" y="-259.25" font-family="Helvetica,sans-Serif" font-size="10.00">SetWidthError()</text>
<polygon fill="#666666" stroke="#666666" points="2.62,-484.25 2.62,-484.25 87.38,-484.25 87.38,-484.25 2.62,-484.25"/>
<polygon fill="#666666" stroke="#666666" points="2.62,-469 2.62,-469 87.38,-469 87.38,-469 2.62,-469"/>
<polygon fill="none" stroke="#666666" points="2.62,-253.5 2.62,-501.5 87.38,-501.5 87.38,-253.5 2.62,-253.5"/>
</a>
</g>
</g>
<!-- Node2&#45;&gt;Node1 -->
<g id="edge1_Node000001_Node000002" class="edge">
<title>Node2&#45;&gt;Node1</title>
<g id="a_edge1_Node000001_Node000002"><a xlink:title=" ">
<path fill="none" stroke="#63b8ff" d="M45,-242.23C45,-233.84 45,-225.46 45,-217.21"/>
<polygon fill="none" stroke="#63b8ff" points="41.5,-242.15 45,-252.15 48.5,-242.15 41.5,-242.15"/>
</a>
</g>
</g>
</g>
</svg>
