<?xml version="1.0" encoding="UTF-8" standalone="no"?>
<!DOCTYPE svg PUBLIC "-//W3C//DTD SVG 1.1//EN"
 "http://www.w3.org/Graphics/SVG/1.1/DTD/svg11.dtd">
<!-- Generated by graphviz version 8.1.0 (20230707.0739)
 -->
<!-- Title: GamR::Spect::PeakFit::Parameters Pages: 1 -->
<svg width="114pt" height="173pt"
 viewBox="0.00 0.00 114.00 173.00" xmlns="http://www.w3.org/2000/svg" xmlns:xlink="http://www.w3.org/1999/xlink">
<g id="graph0" class="graph" transform="scale(1 1) rotate(0) translate(4 169)">
<title>GamR::Spect::PeakFit::Parameters</title>
<!-- Node1 -->
<g id="Node000001" class="node">
<title>Node1</title>
<g id="a_Node000001"><a xlink:title=" ">
<polygon fill="#999999" stroke="none" points="106,-165 0,-165 0,0 106,0 106,-165"/>
<text text-anchor="start" x="5" y="-151.5" font-family="Helvetica,sans-Serif" font-size="10.00">GamR::Spect::PeakFit</text>
<text text-anchor="start" x="25.62" y="-140.25" font-family="Helvetica,sans-Serif" font-size="10.00">::Parameters</text>
<text text-anchor="start" x="14" y="-125.5" font-family="Helvetica,sans-Serif" font-size="10.00">+</text>
<text text-anchor="start" x="34" y="-125.5" font-family="Helvetica,sans-Serif" font-size="10.00">iQuiet</text>
<text text-anchor="start" x="14" y="-110.5" font-family="Helvetica,sans-Serif" font-size="10.00">+</text>
<text text-anchor="start" x="34" y="-110.5" font-family="Helvetica,sans-Serif" font-size="10.00">iFixWidths</text>
<text text-anchor="start" x="14" y="-95.5" font-family="Helvetica,sans-Serif" font-size="10.00">+</text>
<text text-anchor="start" x="34" y="-95.5" font-family="Helvetica,sans-Serif" font-size="10.00">iQuadBack</text>
<text text-anchor="start" x="14" y="-80.5" font-family="Helvetica,sans-Serif" font-size="10.00">+</text>
<text text-anchor="start" x="34" y="-80.5" font-family="Helvetica,sans-Serif" font-size="10.00">iStep</text>
<text text-anchor="start" x="14" y="-65.5" font-family="Helvetica,sans-Serif" font-size="10.00">+</text>
<text text-anchor="start" x="34" y="-65.5" font-family="Helvetica,sans-Serif" font-size="10.00">iTails1</text>
<text text-anchor="start" x="14" y="-50.5" font-family="Helvetica,sans-Serif" font-size="10.00">+</text>
<text text-anchor="start" x="34" y="-50.5" font-family="Helvetica,sans-Serif" font-size="10.00">iTails2</text>
<text text-anchor="start" x="14" y="-35.5" font-family="Helvetica,sans-Serif" font-size="10.00">+</text>
<text text-anchor="start" x="34" y="-35.5" font-family="Helvetica,sans-Serif" font-size="10.00">iFixEnergy</text>
<text text-anchor="start" x="14" y="-20.5" font-family="Helvetica,sans-Serif" font-size="10.00">+</text>
<text text-anchor="start" x="34" y="-20.5" font-family="Helvetica,sans-Serif" font-size="10.00">iNoFit</text>
<text text-anchor="start" x="51.5" y="-5.5" font-family="Helvetica,sans-Serif" font-size="10.00"> </text>
<polygon fill="#666666" stroke="#666666" points="0,-137 0,-137 106,-137 106,-137 0,-137"/>
<polygon fill="#666666" stroke="#666666" points="0,-17 0,-17 32,-17 32,-17 0,-17"/>
<polygon fill="#666666" stroke="#666666" points="32,-17 32,-17 106,-17 106,-17 32,-17"/>
<polygon fill="none" stroke="#666666" points="0,0 0,-165 106,-165 106,0 0,0"/>
</a>
</g>
</g>
</g>
</svg>
