<?xml version="1.0" encoding="UTF-8" standalone="no"?>
<!DOCTYPE svg PUBLIC "-//W3C//DTD SVG 1.1//EN"
 "http://www.w3.org/Graphics/SVG/1.1/DTD/svg11.dtd">
<!-- Generated by graphviz version 12.2.1 (20241206.2353)
 -->
<!-- Title: GamR::Tree::Reader::DetGroup Pages: 1 -->
<svg width="304pt" height="459pt"
 viewBox="0.00 0.00 303.50 458.75" xmlns="http://www.w3.org/2000/svg" xmlns:xlink="http://www.w3.org/1999/xlink">
<g id="graph0" class="graph" transform="scale(1 1) rotate(0) translate(4 454.75)">
<title>GamR::Tree::Reader::DetGroup</title>
<!-- Node1 -->
<g id="Node000001" class="node">
<title>Node1</title>
<g id="a_Node000001"><a xlink:title=" ">
<polygon fill="#999999" stroke="none" points="113,-91.5 18,-91.5 18,0 113,0 113,-91.5"/>
<text text-anchor="start" x="22" y="-78" font-family="Helvetica,sans-Serif" font-size="10.00">GamR::Tree::Reader</text>
<text text-anchor="start" x="42.62" y="-66.75" font-family="Helvetica,sans-Serif" font-size="10.00">::DetGroup</text>
<text text-anchor="start" x="29.06" y="-51.5" font-family="Helvetica,sans-Serif" font-size="10.00">+</text>
<text text-anchor="start" x="46.12" y="-51.5" font-family="Helvetica,sans-Serif" font-size="10.00">ID</text>
<text text-anchor="start" x="29.06" y="-36.25" font-family="Helvetica,sans-Serif" font-size="10.00">+</text>
<text text-anchor="start" x="46.12" y="-36.25" font-family="Helvetica,sans-Serif" font-size="10.00">DetGroup()</text>
<text text-anchor="start" x="29.06" y="-21" font-family="Helvetica,sans-Serif" font-size="10.00">+</text>
<text text-anchor="start" x="46.12" y="-21" font-family="Helvetica,sans-Serif" font-size="10.00">NumFired()</text>
<text text-anchor="start" x="29.06" y="-5.75" font-family="Helvetica,sans-Serif" font-size="10.00">+</text>
<text text-anchor="start" x="46.12" y="-5.75" font-family="Helvetica,sans-Serif" font-size="10.00">operator[]()</text>
<polygon fill="#666666" stroke="#666666" points="18,-63 18,-63 113,-63 113,-63 18,-63"/>
<polygon fill="#666666" stroke="#666666" points="18,-47.75 18,-47.75 44.12,-47.75 44.12,-47.75 18,-47.75"/>
<polygon fill="#666666" stroke="#666666" points="44.12,-47.75 44.12,-47.75 113,-47.75 113,-47.75 44.12,-47.75"/>
<polygon fill="none" stroke="#666666" points="18,0 18,-91.5 113,-91.5 113,0 18,0"/>
</a>
</g>
</g>
<!-- Node2 -->
<g id="Node000002" class="node">
<title>Node2</title>
<g id="a_Node000002"><a xlink:href="../../d1/dab/class_gam_r_1_1_tree_1_1_reader.html" target="_top" xlink:title=" ">
<polygon fill="white" stroke="none" points="95,-234.25 0,-234.25 0,-138.75 95,-138.75 95,-234.25"/>
<text text-anchor="start" x="4" y="-220.75" font-family="Helvetica,sans-Serif" font-size="10.00">GamR::Tree::Reader</text>
<text text-anchor="start" x="46" y="-205.5" font-family="Helvetica,sans-Serif" font-size="10.00"> </text>
<text text-anchor="start" x="6.38" y="-190.25" font-family="Helvetica,sans-Serif" font-size="10.00">+</text>
<text text-anchor="start" x="18.75" y="-190.25" font-family="Helvetica,sans-Serif" font-size="10.00">Reader()</text>
<text text-anchor="start" x="6.38" y="-175" font-family="Helvetica,sans-Serif" font-size="10.00">+</text>
<text text-anchor="start" x="18.75" y="-175" font-family="Helvetica,sans-Serif" font-size="10.00">Next()</text>
<text text-anchor="start" x="6.38" y="-159.75" font-family="Helvetica,sans-Serif" font-size="10.00">+</text>
<text text-anchor="start" x="18.75" y="-159.75" font-family="Helvetica,sans-Serif" font-size="10.00">GetEventNum()</text>
<text text-anchor="start" x="6.38" y="-144.5" font-family="Helvetica,sans-Serif" font-size="10.00">+</text>
<text text-anchor="start" x="18.75" y="-144.5" font-family="Helvetica,sans-Serif" font-size="10.00">operator[]()</text>
<polygon fill="#666666" stroke="#666666" points="0,-217 0,-217 95,-217 95,-217 0,-217"/>
<polygon fill="#666666" stroke="#666666" points="0,-201.75 0,-201.75 95,-201.75 95,-201.75 0,-201.75"/>
<polygon fill="none" stroke="#666666" points="0,-138.75 0,-234.25 95,-234.25 95,-138.75 0,-138.75"/>
</a>
</g>
</g>
<!-- Node2&#45;&gt;Node1 -->
<g id="edge1_Node000001_Node000002" class="edge">
<title>Node2&#45;&gt;Node1</title>
<g id="a_edge1_Node000001_Node000002"><a xlink:title=" ">
<path fill="none" stroke="#63b8ff" d="M53.54,-138.91C55,-127.7 56.57,-115.6 58.08,-103.96"/>
<polygon fill="none" stroke="#63b8ff" points="58.09,-103.9 54.89,-97.43 59.63,-92 62.83,-98.46 58.09,-103.9"/>
</a>
</g>
<text text-anchor="middle" x="63.79" y="-111.25" font-family="Helvetica,sans-Serif" font-size="10.00" fill="grey"> +p</text>
</g>
<!-- Node3 -->
<g id="Node000003" class="node">
<title>Node3</title>
<g id="a_Node000003"><a xlink:title=" ">
<polygon fill="white" stroke="none" points="238.38,-230.25 112.62,-230.25 112.62,-142.75 238.38,-142.75 238.38,-230.25"/>
<text text-anchor="start" x="116.62" y="-216.75" font-family="Helvetica,sans-Serif" font-size="10.00">std::unordered_map</text>
<text text-anchor="start" x="116.62" y="-205.5" font-family="Helvetica,sans-Serif" font-size="10.00">&lt; size_t, TTreeReaderArray</text>
<text text-anchor="start" x="144" y="-194.25" font-family="Helvetica,sans-Serif" font-size="10.00">&lt; Double_t &gt; &gt;</text>
<text text-anchor="start" x="133.62" y="-179" font-family="Helvetica,sans-Serif" font-size="10.00">+</text>
<text text-anchor="start" x="160.62" y="-179" font-family="Helvetica,sans-Serif" font-size="10.00">keys</text>
<text text-anchor="start" x="133.62" y="-163.75" font-family="Helvetica,sans-Serif" font-size="10.00">+</text>
<text text-anchor="start" x="160.62" y="-163.75" font-family="Helvetica,sans-Serif" font-size="10.00">elements</text>
<text text-anchor="start" x="174" y="-148.5" font-family="Helvetica,sans-Serif" font-size="10.00"> </text>
<polygon fill="#666666" stroke="#666666" points="112.62,-190.5 112.62,-190.5 238.38,-190.5 238.38,-190.5 112.62,-190.5"/>
<polygon fill="#666666" stroke="#666666" points="112.62,-160 112.62,-160 158.62,-160 158.62,-160 112.62,-160"/>
<polygon fill="#666666" stroke="#666666" points="158.62,-160 158.62,-160 238.38,-160 238.38,-160 158.62,-160"/>
<polygon fill="none" stroke="#666666" points="112.62,-142.75 112.62,-230.25 238.38,-230.25 238.38,-142.75 112.62,-142.75"/>
</a>
</g>
</g>
<!-- Node3&#45;&gt;Node1 -->
<g id="edge2_Node000001_Node000003" class="edge">
<title>Node3&#45;&gt;Node1</title>
<g id="a_edge2_Node000001_Node000003"><a xlink:title=" ">
<path fill="none" stroke="#63b8ff" d="M141.9,-143.12C131.43,-129.91 119.73,-115.15 108.69,-101.23"/>
<polygon fill="none" stroke="#63b8ff" points="108.82,-101.39 101.95,-99.17 101.36,-91.98 108.22,-94.2 108.82,-101.39"/>
</a>
</g>
<text text-anchor="middle" x="139.92" y="-111.25" font-family="Helvetica,sans-Serif" font-size="10.00" fill="grey"> +Meas</text>
</g>
<!-- Node4 -->
<g id="Node000004" class="node">
<title>Node4</title>
<g id="a_Node000004"><a xlink:title=" ">
<polygon fill="white" stroke="none" points="221.88,-353.75 129.12,-353.75 129.12,-292.75 221.88,-292.75 221.88,-353.75"/>
<text text-anchor="start" x="133.12" y="-340.25" font-family="Helvetica,sans-Serif" font-size="10.00">std::unordered_map</text>
<text text-anchor="start" x="158.25" y="-329" font-family="Helvetica,sans-Serif" font-size="10.00">&lt; K, T &gt;</text>
<text text-anchor="start" x="174" y="-313.75" font-family="Helvetica,sans-Serif" font-size="10.00"> </text>
<text text-anchor="start" x="174" y="-298.5" font-family="Helvetica,sans-Serif" font-size="10.00"> </text>
<polygon fill="#666666" stroke="#666666" points="129.12,-325.25 129.12,-325.25 221.88,-325.25 221.88,-325.25 129.12,-325.25"/>
<polygon fill="#666666" stroke="#666666" points="129.12,-310 129.12,-310 221.88,-310 221.88,-310 129.12,-310"/>
<polygon fill="none" stroke="#666666" points="129.12,-292.75 129.12,-353.75 221.88,-353.75 221.88,-292.75 129.12,-292.75"/>
</a>
</g>
</g>
<!-- Node4&#45;&gt;Node3 -->
<g id="edge3_Node000003_Node000004" class="edge">
<title>Node4&#45;&gt;Node3</title>
<g id="a_edge3_Node000003_Node000004"><a xlink:title=" ">
<path fill="none" stroke="orange" d="M175.5,-281.69C175.5,-265.44 175.5,-246.7 175.5,-230.24"/>
<polygon fill="orange" stroke="orange" points="172,-281.5 175.5,-291.5 179,-281.5 172,-281.5"/>
</a>
</g>
<text text-anchor="start" x="175.5" y="-265.25" font-family="Helvetica,sans-Serif" font-size="10.00" fill="grey"> &lt; size_t, TTreeReaderArray</text>
<text text-anchor="middle" x="235.5" y="-254" font-family="Helvetica,sans-Serif" font-size="10.00" fill="grey">&lt; Double_t &gt; &gt;</text>
</g>
<!-- Node5 -->
<g id="Node000005" class="node">
<title>Node5</title>
<g id="a_Node000005"><a xlink:title=" ">
<polygon fill="white" stroke="none" points="156.88,-450.75 142.12,-450.75 142.12,-401 156.88,-401 156.88,-450.75"/>
<text text-anchor="start" x="146.12" y="-437.25" font-family="Helvetica,sans-Serif" font-size="10.00">K</text>
<text text-anchor="start" x="148" y="-422" font-family="Helvetica,sans-Serif" font-size="10.00"> </text>
<text text-anchor="start" x="148" y="-406.75" font-family="Helvetica,sans-Serif" font-size="10.00"> </text>
<polygon fill="#666666" stroke="#666666" points="142.12,-433.5 142.12,-433.5 156.88,-433.5 156.88,-433.5 142.12,-433.5"/>
<polygon fill="#666666" stroke="#666666" points="142.12,-418.25 142.12,-418.25 156.88,-418.25 156.88,-418.25 142.12,-418.25"/>
<polygon fill="none" stroke="#666666" points="142.12,-401 142.12,-450.75 156.88,-450.75 156.88,-401 142.12,-401"/>
</a>
</g>
</g>
<!-- Node5&#45;&gt;Node4 -->
<g id="edge4_Node000004_Node000005" class="edge">
<title>Node5&#45;&gt;Node4</title>
<g id="a_edge4_Node000004_Node000005"><a xlink:title=" ">
<path fill="none" stroke="#63b8ff" d="M147.93,-401.02C147.9,-391.75 148.58,-381.13 151,-371.75 151.54,-369.65 152.19,-367.54 152.92,-365.43"/>
<polygon fill="none" stroke="#63b8ff" points="152.88,-365.51 151.48,-358.44 157.47,-354.42 158.87,-361.5 152.88,-365.51"/>
</a>
</g>
<text text-anchor="middle" x="165.25" y="-373.5" font-family="Helvetica,sans-Serif" font-size="10.00" fill="grey"> +keys</text>
</g>
<!-- Node6 -->
<g id="Node000006" class="node">
<title>Node6</title>
<g id="a_Node000006"><a xlink:title=" ">
<polygon fill="white" stroke="none" points="208.5,-450.75 194.5,-450.75 194.5,-401 208.5,-401 208.5,-450.75"/>
<text text-anchor="start" x="198.5" y="-437.25" font-family="Helvetica,sans-Serif" font-size="10.00">T</text>
<text text-anchor="start" x="200" y="-422" font-family="Helvetica,sans-Serif" font-size="10.00"> </text>
<text text-anchor="start" x="200" y="-406.75" font-family="Helvetica,sans-Serif" font-size="10.00"> </text>
<polygon fill="#666666" stroke="#666666" points="194.5,-433.5 194.5,-433.5 208.5,-433.5 208.5,-433.5 194.5,-433.5"/>
<polygon fill="#666666" stroke="#666666" points="194.5,-418.25 194.5,-418.25 208.5,-418.25 208.5,-418.25 194.5,-418.25"/>
<polygon fill="none" stroke="#666666" points="194.5,-401 194.5,-450.75 208.5,-450.75 208.5,-401 194.5,-401"/>
</a>
</g>
</g>
<!-- Node6&#45;&gt;Node4 -->
<g id="edge5_Node000004_Node000006" class="edge">
<title>Node6&#45;&gt;Node4</title>
<g id="a_edge5_Node000004_Node000006"><a xlink:title=" ">
<path fill="none" stroke="#63b8ff" d="M195.34,-401.03C192.65,-390.61 189.41,-378.09 186.34,-366.2"/>
<polygon fill="none" stroke="#63b8ff" points="186.33,-366.17 180.96,-361.36 183.33,-354.55 188.7,-359.36 186.33,-366.17"/>
</a>
</g>
<text text-anchor="middle" x="214.06" y="-373.5" font-family="Helvetica,sans-Serif" font-size="10.00" fill="grey"> +elements</text>
</g>
</g>
</svg>
