<?xml version="1.0" encoding="UTF-8" standalone="no"?>
<!DOCTYPE svg PUBLIC "-//W3C//DTD SVG 1.1//EN"
 "http://www.w3.org/Graphics/SVG/1.1/DTD/svg11.dtd">
<!-- Generated by graphviz version 12.2.1 (20241206.2353)
 -->
<!-- Title: GamR::Tree::Reader::DetGroup Pages: 1 -->
<!--zoomable 481 -->

<svg id="main" version="1.1" xmlns="http://www.w3.org/2000/svg" xmlns:xlink="http://www.w3.org/1999/xlink" xml:space="preserve" onload="init(evt)">

<style type="text/css"><![CDATA[
.node, .edge {opacity: 0.7;}
.node.selected, .edge.selected {opacity: 1;}
.edge:hover path { stroke: red; }
.edge:hover polygon { stroke: red; fill: red; }
]]></style>

<defs>
  <circle id="rim" cx="0" cy="0" r="7"/>
  <circle id="rim2" cx="0" cy="0" r="3.5"/>
  <g id="zoomPlus">
    <use xlink:href="#rim" fill="#404040"><set attributeName="fill" to="#808080" begin="zoomplus.mouseover" end="zoomplus.mouseout"/></use>
    <path d="M-4,0h8M0,-4v8" fill="none" stroke="white" stroke-width="1.5" pointer-events="none"/>
  </g>
  <g id="zoomMin">
    <use xlink:href="#rim" fill="#404040"><set attributeName="fill" to="#808080" begin="zoomminus.mouseover" end="zoomminus.mouseout"/></use>
    <path d="M-4,0h8" fill="none" stroke="white" stroke-width="1.5" pointer-events="none"/>
  </g>
  <g id="arrowUp" transform="translate(30 24)">
    <use xlink:href="#rim"/>
    <path pointer-events="none" fill="none" stroke="white" stroke-width="1.5" d="M0,-3.0v7 M-2.5,-0.5L0,-3.0L2.5,-0.5"/>
  </g>
  <g id="arrowRight" transform="rotate(90) translate(36 -43)">
    <use xlink:href="#rim"/>
    <path pointer-events="none" fill="none" stroke="white" stroke-width="1.5" d="M0,-3.0v7 M-2.5,-0.5L0,-3.0L2.5,-0.5"/>
  </g>
  <g id="arrowDown" transform="rotate(180) translate(-30 -48)">
    <use xlink:href="#rim"/>
    <path pointer-events="none" fill="none" stroke="white" stroke-width="1.5" d="M0,-3.0v7 M-2.5,-0.5L0,-3.0L2.5,-0.5"/>
  </g>
  <g id="arrowLeft" transform="rotate(270) translate(-36 17)">
    <use xlink:href="#rim"/>
    <path pointer-events="none" fill="none" stroke="white" stroke-width="1.5" d="M0,-3.0v7 M-2.5,-0.5L0,-3.0L2.5,-0.5"/>
  </g>
  <g id="resetDef">
    <use xlink:href="#rim2" fill="#404040"><set attributeName="fill" to="#808080" begin="reset.mouseover" end="reset.mouseout"/></use>
  </g>
</defs>
<script type="application/ecmascript">
var viewWidth = 307;
var viewHeight = 481;
var sectionId = 'dynsection-0';
</script>
<script type="application/ecmascript" xlink:href="../../svg.min.js"/>
<svg id="graph" class="graph">
<g id="viewport">
<title>GamR::Tree::Reader::DetGroup</title>
<!-- Node1 -->
<g id="Node000001" class="node">
<title>Node1</title>
<g id="a_Node000001"><a xlink:title=" ">
<polygon fill="#999999" stroke="none" points="137,-91.5 42,-91.5 42,0 137,0 137,-91.5"/>
<text text-anchor="start" x="46" y="-78" font-family="Helvetica,sans-Serif" font-size="10.00">GamR::Tree::Reader</text>
<text text-anchor="start" x="66.62" y="-66.75" font-family="Helvetica,sans-Serif" font-size="10.00">::DetGroup</text>
<text text-anchor="start" x="53.06" y="-51.5" font-family="Helvetica,sans-Serif" font-size="10.00">+</text>
<text text-anchor="start" x="70.12" y="-51.5" font-family="Helvetica,sans-Serif" font-size="10.00">ID</text>
<text text-anchor="start" x="53.06" y="-36.25" font-family="Helvetica,sans-Serif" font-size="10.00">+</text>
<text text-anchor="start" x="70.12" y="-36.25" font-family="Helvetica,sans-Serif" font-size="10.00">DetGroup()</text>
<text text-anchor="start" x="53.06" y="-21" font-family="Helvetica,sans-Serif" font-size="10.00">+</text>
<text text-anchor="start" x="70.12" y="-21" font-family="Helvetica,sans-Serif" font-size="10.00">NumFired()</text>
<text text-anchor="start" x="53.06" y="-5.75" font-family="Helvetica,sans-Serif" font-size="10.00">+</text>
<text text-anchor="start" x="70.12" y="-5.75" font-family="Helvetica,sans-Serif" font-size="10.00">operator[]()</text>
<polygon fill="#666666" stroke="#666666" points="42,-63 42,-63 137,-63 137,-63 42,-63"/>
<polygon fill="#666666" stroke="#666666" points="42,-47.75 42,-47.75 68.12,-47.75 68.12,-47.75 42,-47.75"/>
<polygon fill="#666666" stroke="#666666" points="68.12,-47.75 68.12,-47.75 137,-47.75 137,-47.75 68.12,-47.75"/>
<polygon fill="none" stroke="#666666" points="42,0 42,-91.5 137,-91.5 137,0 42,0"/>
</a>
</g>
</g>
<!-- Node2 -->
<g id="Node000002" class="node">
<title>Node2</title>
<g id="a_Node000002"><a xlink:href="../../d1/dab/class_gam_r_1_1_tree_1_1_reader.html" target="_top" xlink:title=" ">
<polygon fill="white" stroke="none" points="95,-240.25 0,-240.25 0,-144.75 95,-144.75 95,-240.25"/>
<text text-anchor="start" x="4" y="-226.75" font-family="Helvetica,sans-Serif" font-size="10.00">GamR::Tree::Reader</text>
<text text-anchor="start" x="46" y="-211.5" font-family="Helvetica,sans-Serif" font-size="10.00"> </text>
<text text-anchor="start" x="6.38" y="-196.25" font-family="Helvetica,sans-Serif" font-size="10.00">+</text>
<text text-anchor="start" x="18.75" y="-196.25" font-family="Helvetica,sans-Serif" font-size="10.00">Reader()</text>
<text text-anchor="start" x="6.38" y="-181" font-family="Helvetica,sans-Serif" font-size="10.00">+</text>
<text text-anchor="start" x="18.75" y="-181" font-family="Helvetica,sans-Serif" font-size="10.00">Next()</text>
<text text-anchor="start" x="6.38" y="-165.75" font-family="Helvetica,sans-Serif" font-size="10.00">+</text>
<text text-anchor="start" x="18.75" y="-165.75" font-family="Helvetica,sans-Serif" font-size="10.00">GetEventNum()</text>
<text text-anchor="start" x="6.38" y="-150.5" font-family="Helvetica,sans-Serif" font-size="10.00">+</text>
<text text-anchor="start" x="18.75" y="-150.5" font-family="Helvetica,sans-Serif" font-size="10.00">operator[]()</text>
<polygon fill="#666666" stroke="#666666" points="0,-223 0,-223 95,-223 95,-223 0,-223"/>
<polygon fill="#666666" stroke="#666666" points="0,-207.75 0,-207.75 95,-207.75 95,-207.75 0,-207.75"/>
<polygon fill="none" stroke="#666666" points="0,-144.75 0,-240.25 95,-240.25 95,-144.75 0,-144.75"/>
</a>
</g>
</g>
<!-- Node2&#45;&gt;Node1 -->
<g id="edge1_Node000001_Node000002" class="edge">
<title>Node2&#45;&gt;Node1</title>
<g id="a_edge1_Node000001_Node000002"><a xlink:title=" ">
<path fill="none" stroke="#63b8ff" d="M61.02,-144.9C64.84,-131.74 69.04,-117.27 73.01,-103.58"/>
<polygon fill="none" stroke="#63b8ff" points="72.98,-103.68 70.81,-96.8 76.33,-92.15 78.5,-99.03 72.98,-103.68"/>
</a>
</g>
<text text-anchor="start" x="74.01" y="-114.25" font-family="Helvetica,sans-Serif" font-size="10.00" fill="grey">+p</text>
</g>
<!-- Node3 -->
<g id="Node000003" class="node">
<title>Node3</title>
<g id="a_Node000003"><a xlink:title=" ">
<polygon fill="white" stroke="none" points="238.38,-236.25 112.62,-236.25 112.62,-148.75 238.38,-148.75 238.38,-236.25"/>
<text text-anchor="start" x="116.62" y="-222.75" font-family="Helvetica,sans-Serif" font-size="10.00">std::unordered_map</text>
<text text-anchor="start" x="116.62" y="-211.5" font-family="Helvetica,sans-Serif" font-size="10.00">&lt; size_t, TTreeReaderArray</text>
<text text-anchor="start" x="144" y="-200.25" font-family="Helvetica,sans-Serif" font-size="10.00">&lt; Double_t &gt; &gt;</text>
<text text-anchor="start" x="133.62" y="-185" font-family="Helvetica,sans-Serif" font-size="10.00">+</text>
<text text-anchor="start" x="160.62" y="-185" font-family="Helvetica,sans-Serif" font-size="10.00">keys</text>
<text text-anchor="start" x="133.62" y="-169.75" font-family="Helvetica,sans-Serif" font-size="10.00">+</text>
<text text-anchor="start" x="160.62" y="-169.75" font-family="Helvetica,sans-Serif" font-size="10.00">elements</text>
<text text-anchor="start" x="174" y="-154.5" font-family="Helvetica,sans-Serif" font-size="10.00"> </text>
<polygon fill="#666666" stroke="#666666" points="112.62,-196.5 112.62,-196.5 238.38,-196.5 238.38,-196.5 112.62,-196.5"/>
<polygon fill="#666666" stroke="#666666" points="112.62,-166 112.62,-166 158.62,-166 158.62,-166 112.62,-166"/>
<polygon fill="#666666" stroke="#666666" points="158.62,-166 158.62,-166 238.38,-166 238.38,-166 158.62,-166"/>
<polygon fill="none" stroke="#666666" points="112.62,-148.75 112.62,-236.25 238.38,-236.25 238.38,-148.75 112.62,-148.75"/>
</a>
</g>
</g>
<!-- Node3&#45;&gt;Node1 -->
<g id="edge2_Node000001_Node000003" class="edge">
<title>Node3&#45;&gt;Node1</title>
<g id="a_edge2_Node000001_Node000003"><a xlink:title=" ">
<path fill="none" stroke="#63b8ff" d="M150.16,-148.85C141.51,-134.29 131.7,-117.79 122.54,-102.36"/>
<polygon fill="none" stroke="#63b8ff" points="122.59,-102.45 116.09,-99.33 116.46,-92.13 122.96,-95.24 122.59,-102.45"/>
</a>
</g>
<text text-anchor="start" x="138.08" y="-114.25" font-family="Helvetica,sans-Serif" font-size="10.00" fill="grey">+Meas</text>
</g>
<!-- Node4 -->
<g id="Node000004" class="node">
<title>Node4</title>
<g id="a_Node000004"><a xlink:title=" ">
<polygon fill="white" stroke="none" points="221.88,-369.75 129.12,-369.75 129.12,-308.75 221.88,-308.75 221.88,-369.75"/>
<text text-anchor="start" x="133.12" y="-356.25" font-family="Helvetica,sans-Serif" font-size="10.00">std::unordered_map</text>
<text text-anchor="start" x="158.25" y="-345" font-family="Helvetica,sans-Serif" font-size="10.00">&lt; K, T &gt;</text>
<text text-anchor="start" x="174" y="-329.75" font-family="Helvetica,sans-Serif" font-size="10.00"> </text>
<text text-anchor="start" x="174" y="-314.5" font-family="Helvetica,sans-Serif" font-size="10.00"> </text>
<polygon fill="#666666" stroke="#666666" points="129.12,-341.25 129.12,-341.25 221.88,-341.25 221.88,-341.25 129.12,-341.25"/>
<polygon fill="#666666" stroke="#666666" points="129.12,-326 129.12,-326 221.88,-326 221.88,-326 129.12,-326"/>
<polygon fill="none" stroke="#666666" points="129.12,-308.75 129.12,-369.75 221.88,-369.75 221.88,-308.75 129.12,-308.75"/>
</a>
</g>
</g>
<!-- Node4&#45;&gt;Node3 -->
<g id="edge3_Node000003_Node000004" class="edge">
<title>Node4&#45;&gt;Node3</title>
<g id="a_edge3_Node000003_Node000004"><a xlink:title=" ">
<path fill="none" stroke="orange" d="M175.5,-297.58C175.5,-278.43 175.5,-255.59 175.5,-236.2"/>
<polygon fill="orange" stroke="orange" points="172,-297.44 175.5,-307.44 179,-297.44 172,-297.44"/>
</a>
</g>
<text text-anchor="start" x="178.5" y="-278.25" font-family="Helvetica,sans-Serif" font-size="10.00" fill="grey">&lt; size_t, TTreeReaderArray</text>
<text text-anchor="start" x="178.5" y="-263" font-family="Helvetica,sans-Serif" font-size="10.00" fill="grey">  &lt; Double_t &gt; &gt;</text>
</g>
<!-- Node5 -->
<g id="Node000005" class="node">
<title>Node5</title>
<g id="a_Node000005"><a xlink:title=" ">
<polygon fill="white" stroke="none" points="155.88,-472.75 141.12,-472.75 141.12,-423 155.88,-423 155.88,-472.75"/>
<text text-anchor="start" x="145.12" y="-459.25" font-family="Helvetica,sans-Serif" font-size="10.00">K</text>
<text text-anchor="start" x="147" y="-444" font-family="Helvetica,sans-Serif" font-size="10.00"> </text>
<text text-anchor="start" x="147" y="-428.75" font-family="Helvetica,sans-Serif" font-size="10.00"> </text>
<polygon fill="#666666" stroke="#666666" points="141.12,-455.5 141.12,-455.5 155.88,-455.5 155.88,-455.5 141.12,-455.5"/>
<polygon fill="#666666" stroke="#666666" points="141.12,-440.25 141.12,-440.25 155.88,-440.25 155.88,-440.25 141.12,-440.25"/>
<polygon fill="none" stroke="#666666" points="141.12,-423 141.12,-472.75 155.88,-472.75 155.88,-423 141.12,-423"/>
</a>
</g>
</g>
<!-- Node5&#45;&gt;Node4 -->
<g id="edge4_Node000004_Node000005" class="edge">
<title>Node5&#45;&gt;Node4</title>
<g id="a_edge4_Node000004_Node000005"><a xlink:title=" ">
<path fill="none" stroke="#63b8ff" d="M146.18,-423.21C145.77,-412.25 146.23,-399.16 149.25,-387.75 149.81,-385.65 150.47,-383.55 151.23,-381.45"/>
<polygon fill="none" stroke="#63b8ff" points="151.19,-381.54 149.92,-374.44 155.98,-370.54 157.25,-377.64 151.19,-381.54"/>
</a>
</g>
<text text-anchor="start" x="152.25" y="-392.5" font-family="Helvetica,sans-Serif" font-size="10.00" fill="grey">+keys</text>
</g>
<!-- Node6 -->
<g id="Node000006" class="node">
<title>Node6</title>
<g id="a_Node000006"><a xlink:title=" ">
<polygon fill="white" stroke="none" points="210.5,-472.75 196.5,-472.75 196.5,-423 210.5,-423 210.5,-472.75"/>
<text text-anchor="start" x="200.5" y="-459.25" font-family="Helvetica,sans-Serif" font-size="10.00">T</text>
<text text-anchor="start" x="202" y="-444" font-family="Helvetica,sans-Serif" font-size="10.00"> </text>
<text text-anchor="start" x="202" y="-428.75" font-family="Helvetica,sans-Serif" font-size="10.00"> </text>
<polygon fill="#666666" stroke="#666666" points="196.5,-455.5 196.5,-455.5 210.5,-455.5 210.5,-455.5 196.5,-455.5"/>
<polygon fill="#666666" stroke="#666666" points="196.5,-440.25 196.5,-440.25 210.5,-440.25 210.5,-440.25 196.5,-440.25"/>
<polygon fill="none" stroke="#666666" points="196.5,-423 196.5,-472.75 210.5,-472.75 210.5,-423 196.5,-423"/>
</a>
</g>
</g>
<!-- Node6&#45;&gt;Node4 -->
<g id="edge5_Node000004_Node000006" class="edge">
<title>Node6&#45;&gt;Node4</title>
<g id="a_edge5_Node000004_Node000006"><a xlink:title=" ">
<path fill="none" stroke="#63b8ff" d="M197.29,-423.21C194.1,-411.09 190.13,-395.98 186.46,-381.98"/>
<polygon fill="none" stroke="#63b8ff" points="186.47,-382.04 181.08,-377.25 183.43,-370.43 188.82,-375.22 186.47,-382.04"/>
</a>
</g>
<text text-anchor="start" x="195.01" y="-392.5" font-family="Helvetica,sans-Serif" font-size="10.00" fill="grey">+elements</text>
</g>
</g>
</svg>

<g id="navigator" transform="translate(0 0)" fill="#404254">
  <rect fill="#f2f5e9" fill-opacity="0.5" stroke="#606060" stroke-width=".5" x="0" y="0" width="60" height="60"/>
  <use id="zoomplus" xlink:href="#zoomPlus" x="17" y="9" onmousedown="handleZoom(evt,'in')"/>
  <use id="zoomminus" xlink:href="#zoomMin" x="42" y="9" onmousedown="handleZoom(evt,'out')"/>
  <use id="reset" xlink:href="#resetDef" x="30" y="36" onmousedown="handleReset()"/>
   <use id="arrowup" xlink:href="#arrowUp" x="0" y="0" onmousedown="handlePan(0,-1)"/>
  <use id="arrowright" xlink:href="#arrowRight" x="0" y="0" onmousedown="handlePan(1,0)"/>
  <use id="arrowdown" xlink:href="#arrowDown" x="0" y="0" onmousedown="handlePan(0,1)"/>
  <use id="arrowleft" xlink:href="#arrowLeft" x="0" y="0" onmousedown="handlePan(-1,0)"/>
</g>
<svg viewBox="0 0 15 15" width="100%" height="30px" preserveAspectRatio="xMaxYMin meet">
 <g id="arrow_out" transform="scale(0.3 0.3)">
  <a xlink:href="struct_gam_r_1_1_tree_1_1_reader_1_1_det_group__coll__graph_org.svg" target="_base">
   <rect id="button" ry="5" rx="5" y="6" x="6" height="38" width="38"
        fill="#f2f5e9" fill-opacity="0.5" stroke="#606060" stroke-width="1.0"/>
   <path id="arrow"
     d="M 11.500037,31.436501 C 11.940474,20.09759 22.043105,11.32322 32.158766,21.979434 L 37.068811,17.246167 C 37.068811,17.246167 37.088388,32 37.088388,32 L 22.160133,31.978069 C 22.160133,31.978069 26.997745,27.140456 26.997745,27.140456 C 18.528582,18.264221 13.291696,25.230495 11.500037,31.436501 z"
     style="fill:#404040;"/>
  </a>
 </g>
</svg>

<style type='text/css'>
<![CDATA[
[data-mouse-over-selected='false'] { opacity: 0.7; }
[data-mouse-over-selected='true']  { opacity: 1.0; }
]]>
</style>
<script type="application/ecmascript"><![CDATA[
document.addEventListener('DOMContentLoaded', (event) => {
  highlightEdges();
  highlightAdjacentNodes();
});
]]></script>
</svg>
