<?xml version="1.0" encoding="UTF-8" standalone="no"?>
<!DOCTYPE svg PUBLIC "-//W3C//DTD SVG 1.1//EN"
 "http://www.w3.org/Graphics/SVG/1.1/DTD/svg11.dtd">
<!-- Generated by graphviz version 8.1.0 (20230707.0739)
 -->
<!-- Title: GamR::Tree::Reader::DetGroup Pages: 1 -->
<svg width="307pt" height="454pt"
 viewBox="0.00 0.00 306.50 454.00" xmlns="http://www.w3.org/2000/svg" xmlns:xlink="http://www.w3.org/1999/xlink">
<g id="graph0" class="graph" transform="scale(1 1) rotate(0) translate(4 450)">
<title>GamR::Tree::Reader::DetGroup</title>
<!-- Node1 -->
<g id="Node000001" class="node">
<title>Node1</title>
<g id="a_Node000001"><a xlink:title=" ">
<polygon fill="#999999" stroke="none" points="115,-90 18,-90 18,0 115,0 115,-90"/>
<text text-anchor="start" x="23" y="-76.5" font-family="Helvetica,sans-Serif" font-size="10.00">GamR::Tree::Reader</text>
<text text-anchor="start" x="43.62" y="-65.25" font-family="Helvetica,sans-Serif" font-size="10.00">::DetGroup</text>
<text text-anchor="start" x="29.5" y="-50.5" font-family="Helvetica,sans-Serif" font-size="10.00">+</text>
<text text-anchor="start" x="47" y="-50.5" font-family="Helvetica,sans-Serif" font-size="10.00">ID</text>
<text text-anchor="start" x="29.5" y="-35.5" font-family="Helvetica,sans-Serif" font-size="10.00">+</text>
<text text-anchor="start" x="47" y="-35.5" font-family="Helvetica,sans-Serif" font-size="10.00">DetGroup()</text>
<text text-anchor="start" x="29.5" y="-20.5" font-family="Helvetica,sans-Serif" font-size="10.00">+</text>
<text text-anchor="start" x="47" y="-20.5" font-family="Helvetica,sans-Serif" font-size="10.00">NumFired()</text>
<text text-anchor="start" x="29.5" y="-5.5" font-family="Helvetica,sans-Serif" font-size="10.00">+</text>
<text text-anchor="start" x="47" y="-5.5" font-family="Helvetica,sans-Serif" font-size="10.00">operator[]()</text>
<polygon fill="#666666" stroke="#666666" points="18,-62 18,-62 115,-62 115,-62 18,-62"/>
<polygon fill="#666666" stroke="#666666" points="18,-47 18,-47 45,-47 45,-47 18,-47"/>
<polygon fill="#666666" stroke="#666666" points="45,-47 45,-47 115,-47 115,-47 45,-47"/>
<polygon fill="none" stroke="#666666" points="18,0 18,-90 115,-90 115,0 18,0"/>
</a>
</g>
</g>
<!-- Node2 -->
<g id="Node000002" class="node">
<title>Node2</title>
<g id="a_Node000002"><a xlink:href="../../d1/dab/class_gam_r_1_1_tree_1_1_reader.html" target="_top" xlink:title=" ">
<polygon fill="white" stroke="none" points="97,-231.25 0,-231.25 0,-137.25 97,-137.25 97,-231.25"/>
<text text-anchor="start" x="5" y="-217.75" font-family="Helvetica,sans-Serif" font-size="10.00">GamR::Tree::Reader</text>
<text text-anchor="start" x="47" y="-202.75" font-family="Helvetica,sans-Serif" font-size="10.00"> </text>
<text text-anchor="start" x="7" y="-187.75" font-family="Helvetica,sans-Serif" font-size="10.00">+</text>
<text text-anchor="start" x="20" y="-187.75" font-family="Helvetica,sans-Serif" font-size="10.00">Reader()</text>
<text text-anchor="start" x="7" y="-172.75" font-family="Helvetica,sans-Serif" font-size="10.00">+</text>
<text text-anchor="start" x="20" y="-172.75" font-family="Helvetica,sans-Serif" font-size="10.00">Next()</text>
<text text-anchor="start" x="7" y="-157.75" font-family="Helvetica,sans-Serif" font-size="10.00">+</text>
<text text-anchor="start" x="20" y="-157.75" font-family="Helvetica,sans-Serif" font-size="10.00">GetEventNum()</text>
<text text-anchor="start" x="7" y="-142.75" font-family="Helvetica,sans-Serif" font-size="10.00">+</text>
<text text-anchor="start" x="20" y="-142.75" font-family="Helvetica,sans-Serif" font-size="10.00">operator[]()</text>
<polygon fill="#666666" stroke="#666666" points="0,-214.25 0,-214.25 97,-214.25 97,-214.25 0,-214.25"/>
<polygon fill="#666666" stroke="#666666" points="0,-199.25 0,-199.25 97,-199.25 97,-199.25 0,-199.25"/>
<polygon fill="none" stroke="#666666" points="0,-137.25 0,-231.25 97,-231.25 97,-137.25 0,-137.25"/>
</a>
</g>
</g>
<!-- Node2&#45;&gt;Node1 -->
<g id="edge1_Node000001_Node000002" class="edge">
<title>Node2&#45;&gt;Node1</title>
<g id="a_edge1_Node000001_Node000002"><a xlink:title=" ">
<path fill="none" stroke="#63b8ff" d="M54.49,-137.55C55.96,-126.33 57.56,-114.19 59.09,-102.53"/>
<polygon fill="none" stroke="#63b8ff" points="59.1,-102.43 55.91,-95.96 60.66,-90.54 63.85,-97 59.1,-102.43"/>
</a>
</g>
<text text-anchor="middle" x="65.25" y="-109.75" font-family="Helvetica,sans-Serif" font-size="10.00" fill="grey"> +p</text>
</g>
<!-- Node3 -->
<g id="Node000003" class="node">
<title>Node3</title>
<g id="a_Node000003"><a xlink:title=" ">
<polygon fill="white" stroke="none" points="242,-227.25 115,-227.25 115,-141.25 242,-141.25 242,-227.25"/>
<text text-anchor="start" x="119.62" y="-213.75" font-family="Helvetica,sans-Serif" font-size="10.00">std::unordered_map</text>
<text text-anchor="start" x="119.62" y="-202.5" font-family="Helvetica,sans-Serif" font-size="10.00">&lt; size_t, TTreeReaderArray</text>
<text text-anchor="start" x="147" y="-191.25" font-family="Helvetica,sans-Serif" font-size="10.00">&lt; Double_t &gt; &gt;</text>
<text text-anchor="start" x="136.5" y="-176.75" font-family="Helvetica,sans-Serif" font-size="10.00">+</text>
<text text-anchor="start" x="164" y="-176.75" font-family="Helvetica,sans-Serif" font-size="10.00">keys</text>
<text text-anchor="start" x="136.5" y="-161.75" font-family="Helvetica,sans-Serif" font-size="10.00">+</text>
<text text-anchor="start" x="164" y="-161.75" font-family="Helvetica,sans-Serif" font-size="10.00">elements</text>
<text text-anchor="start" x="177" y="-146.75" font-family="Helvetica,sans-Serif" font-size="10.00"> </text>
<polygon fill="#666666" stroke="#666666" points="115,-188.25 115,-188.25 242,-188.25 242,-188.25 115,-188.25"/>
<polygon fill="#666666" stroke="#666666" points="115,-158.25 115,-158.25 162,-158.25 162,-158.25 115,-158.25"/>
<polygon fill="#666666" stroke="#666666" points="162,-158.25 162,-158.25 242,-158.25 242,-158.25 162,-158.25"/>
<polygon fill="none" stroke="#666666" points="115,-141.25 115,-227.25 242,-227.25 242,-141.25 115,-141.25"/>
</a>
</g>
</g>
<!-- Node3&#45;&gt;Node1 -->
<g id="edge2_Node000001_Node000003" class="edge">
<title>Node3&#45;&gt;Node1</title>
<g id="a_edge2_Node000001_Node000003"><a xlink:title=" ">
<path fill="none" stroke="#63b8ff" d="M144.29,-141.32C133.52,-128.13 121.48,-113.38 110.15,-99.49"/>
<polygon fill="none" stroke="#63b8ff" points="110.21,-99.56 103.32,-97.44 102.62,-90.27 109.52,-92.39 110.21,-99.56"/>
</a>
</g>
<text text-anchor="middle" x="142.62" y="-109.75" font-family="Helvetica,sans-Serif" font-size="10.00" fill="grey"> +Meas</text>
</g>
<!-- Node4 -->
<g id="Node000004" class="node">
<title>Node4</title>
<g id="a_Node000004"><a xlink:title=" ">
<polygon fill="white" stroke="none" points="225.5,-349.75 131.5,-349.75 131.5,-289.75 225.5,-289.75 225.5,-349.75"/>
<text text-anchor="start" x="136.12" y="-336.25" font-family="Helvetica,sans-Serif" font-size="10.00">std::unordered_map</text>
<text text-anchor="start" x="161.25" y="-325" font-family="Helvetica,sans-Serif" font-size="10.00">&lt; K, T &gt;</text>
<text text-anchor="start" x="177" y="-310.25" font-family="Helvetica,sans-Serif" font-size="10.00"> </text>
<text text-anchor="start" x="177" y="-295.25" font-family="Helvetica,sans-Serif" font-size="10.00"> </text>
<polygon fill="#666666" stroke="#666666" points="131.5,-321.75 131.5,-321.75 225.5,-321.75 225.5,-321.75 131.5,-321.75"/>
<polygon fill="#666666" stroke="#666666" points="131.5,-306.75 131.5,-306.75 225.5,-306.75 225.5,-306.75 131.5,-306.75"/>
<polygon fill="none" stroke="#666666" points="131.5,-289.75 131.5,-349.75 225.5,-349.75 225.5,-289.75 131.5,-289.75"/>
</a>
</g>
</g>
<!-- Node4&#45;&gt;Node3 -->
<g id="edge3_Node000003_Node000004" class="edge">
<title>Node4&#45;&gt;Node3</title>
<g id="a_edge3_Node000003_Node000004"><a xlink:title=" ">
<path fill="none" stroke="orange" d="M178.5,-278.94C178.5,-262.58 178.5,-243.64 178.5,-227.08"/>
<polygon fill="orange" stroke="orange" points="175,-278.78 178.5,-288.78 182,-278.78 175,-278.78"/>
</a>
</g>
<text text-anchor="start" x="178.5" y="-262.25" font-family="Helvetica,sans-Serif" font-size="10.00" fill="grey"> &lt; size_t, TTreeReaderArray</text>
<text text-anchor="middle" x="238.5" y="-251" font-family="Helvetica,sans-Serif" font-size="10.00" fill="grey">&lt; Double_t &gt; &gt;</text>
</g>
<!-- Node5 -->
<g id="Node000005" class="node">
<title>Node5</title>
<g id="a_Node000005"><a xlink:title=" ">
<polygon fill="white" stroke="none" points="160.5,-446 144.5,-446 144.5,-397 160.5,-397 160.5,-446"/>
<text text-anchor="start" x="149.12" y="-432.5" font-family="Helvetica,sans-Serif" font-size="10.00">K</text>
<text text-anchor="start" x="151" y="-417.5" font-family="Helvetica,sans-Serif" font-size="10.00"> </text>
<text text-anchor="start" x="151" y="-402.5" font-family="Helvetica,sans-Serif" font-size="10.00"> </text>
<polygon fill="#666666" stroke="#666666" points="144.5,-429 144.5,-429 160.5,-429 160.5,-429 144.5,-429"/>
<polygon fill="#666666" stroke="#666666" points="144.5,-414 144.5,-414 160.5,-414 160.5,-414 144.5,-414"/>
<polygon fill="none" stroke="#666666" points="144.5,-397 144.5,-446 160.5,-446 160.5,-397 144.5,-397"/>
</a>
</g>
</g>
<!-- Node5&#45;&gt;Node4 -->
<g id="edge4_Node000004_Node000005" class="edge">
<title>Node5&#45;&gt;Node4</title>
<g id="a_edge4_Node000004_Node000005"><a xlink:title=" ">
<path fill="none" stroke="#63b8ff" d="M150.92,-397.07C150.88,-387.81 151.56,-377.15 154,-367.75 154.55,-365.64 155.21,-363.51 155.95,-361.4"/>
<polygon fill="none" stroke="#63b8ff" points="155.94,-361.41 154.58,-354.33 160.59,-350.34 161.96,-357.42 155.94,-361.41"/>
</a>
</g>
<text text-anchor="middle" x="168.75" y="-369.5" font-family="Helvetica,sans-Serif" font-size="10.00" fill="grey"> +keys</text>
</g>
<!-- Node6 -->
<g id="Node000006" class="node">
<title>Node6</title>
<g id="a_Node000006"><a xlink:title=" ">
<polygon fill="white" stroke="none" points="212.5,-446 196.5,-446 196.5,-397 212.5,-397 212.5,-446"/>
<text text-anchor="start" x="201.5" y="-432.5" font-family="Helvetica,sans-Serif" font-size="10.00">T</text>
<text text-anchor="start" x="203" y="-417.5" font-family="Helvetica,sans-Serif" font-size="10.00"> </text>
<text text-anchor="start" x="203" y="-402.5" font-family="Helvetica,sans-Serif" font-size="10.00"> </text>
<polygon fill="#666666" stroke="#666666" points="196.5,-429 196.5,-429 212.5,-429 212.5,-429 196.5,-429"/>
<polygon fill="#666666" stroke="#666666" points="196.5,-414 196.5,-414 212.5,-414 212.5,-414 196.5,-414"/>
<polygon fill="none" stroke="#666666" points="196.5,-397 196.5,-446 212.5,-446 212.5,-397 196.5,-397"/>
</a>
</g>
</g>
<!-- Node6&#45;&gt;Node4 -->
<g id="edge5_Node000004_Node000006" class="edge">
<title>Node6&#45;&gt;Node4</title>
<g id="a_edge5_Node000004_Node000006"><a xlink:title=" ">
<path fill="none" stroke="#63b8ff" d="M198.4,-397.11C195.69,-386.71 192.42,-374.14 189.31,-362.23"/>
<polygon fill="none" stroke="#63b8ff" points="189.3,-362.18 183.92,-357.38 186.27,-350.57 191.66,-355.37 189.3,-362.18"/>
</a>
</g>
<text text-anchor="middle" x="216.5" y="-369.5" font-family="Helvetica,sans-Serif" font-size="10.00" fill="grey"> +elements</text>
</g>
</g>
</svg>
