<?xml version="1.0" encoding="UTF-8" standalone="no"?>
<!DOCTYPE svg PUBLIC "-//W3C//DTD SVG 1.1//EN"
 "http://www.w3.org/Graphics/SVG/1.1/DTD/svg11.dtd">
<!-- Generated by graphviz version 2.50.0 (20220203.2022)
 -->
<!-- Title: GamR::Spect::BackSub2D Pages: 1 -->
<!--zoomable 1250 -->
<svg id="main" version="1.1" xmlns="http://www.w3.org/2000/svg" xmlns:xlink="http://www.w3.org/1999/xlink" xml:space="preserve" onload="init(evt)">
<style type="text/css"><![CDATA[
.edge:hover path { stroke: red; }
.edge:hover polygon { stroke: red; fill: red; }
]]></style>
<script type="text/javascript"><![CDATA[
var edges = document.getElementsByTagName('g');
if (edges && edges.length) {
  for (var i=0;i<edges.length;i++) {
    if (edges[i].id.substr(0,4)=='edge') {
      edges[i].setAttribute('class','edge');
    }
  }
}
]]></script>
        <defs>
                <circle id="rim" cx="0" cy="0" r="7"/>
                <circle id="rim2" cx="0" cy="0" r="3.5"/>
                <g id="zoomPlus">
                        <use xlink:href="#rim" fill="#404040">
                                <set attributeName="fill" to="#808080" begin="zoomplus.mouseover" end="zoomplus.mouseout"/>
                        </use>
                        <path d="M-4,0h8M0,-4v8" fill="none" stroke="white" stroke-width="1.5" pointer-events="none"/>
                </g>
                <g id="zoomMin">
                        <use xlink:href="#rim" fill="#404040">
                                <set attributeName="fill" to="#808080" begin="zoomminus.mouseover" end="zoomminus.mouseout"/>
                        </use>
                        <path d="M-4,0h8" fill="none" stroke="white" stroke-width="1.5" pointer-events="none"/>
                </g>
                <g id="dirArrow">
                        <path fill="none" stroke="white" stroke-width="1.5" d="M0,-3.0v7 M-2.5,-0.5L0,-3.0L2.5,-0.5"/>
                </g>
               <g id="resetDef">
                       <use xlink:href="#rim2" fill="#404040">
                               <set attributeName="fill" to="#808080" begin="reset.mouseover" end="reset.mouseout"/>
                       </use>
               </g>
        </defs>

<script type="text/javascript">
var viewWidth = 299;
var viewHeight = 1250;
var sectionId = 'dynsection-0';
</script>
<script xlink:href="../../svgpan.js"/>
<svg id="graph" class="graph">
<g id="viewport">
<title>GamR::Spect::BackSub2D</title>
<polygon fill="white" stroke="transparent" points="-4,4 -4,-1246 295,-1246 295,4 -4,4"/>
<!-- Node1 -->
<g id="node1" class="node">
<title>Node1</title>
<g id="a_node1"><a xlink:title=" ">
<polygon fill="#bfbfbf" stroke="black" points="109.5,-0.5 109.5,-310.5 240.5,-310.5 240.5,-0.5 109.5,-0.5"/>
<text text-anchor="middle" x="175" y="-298.5" font-family="Helvetica,sans-Serif" font-size="10.00">GamR::Spect::BackSub2D</text>
<polyline fill="none" stroke="black" points="109.5,-291.5 240.5,-291.5 "/>
<text text-anchor="start" x="117.5" y="-279.5" font-family="Helvetica,sans-Serif" font-size="10.00">+ y_sub</text>
<text text-anchor="start" x="117.5" y="-268.5" font-family="Helvetica,sans-Serif" font-size="10.00">+ x_sub</text>
<text text-anchor="start" x="117.5" y="-257.5" font-family="Helvetica,sans-Serif" font-size="10.00">+ unsubtracted</text>
<text text-anchor="start" x="117.5" y="-246.5" font-family="Helvetica,sans-Serif" font-size="10.00">+ subtracted</text>
<polyline fill="none" stroke="black" points="109.5,-239.5 240.5,-239.5 "/>
<text text-anchor="start" x="117.5" y="-227.5" font-family="Helvetica,sans-Serif" font-size="10.00">+ SetPeak()</text>
<text text-anchor="start" x="117.5" y="-216.5" font-family="Helvetica,sans-Serif" font-size="10.00">+ SetPeak()</text>
<text text-anchor="start" x="117.5" y="-205.5" font-family="Helvetica,sans-Serif" font-size="10.00">+ AddBackX()</text>
<text text-anchor="start" x="117.5" y="-194.5" font-family="Helvetica,sans-Serif" font-size="10.00">+ AddBackY()</text>
<text text-anchor="start" x="117.5" y="-183.5" font-family="Helvetica,sans-Serif" font-size="10.00">+ AddBackX()</text>
<text text-anchor="start" x="117.5" y="-172.5" font-family="Helvetica,sans-Serif" font-size="10.00">+ AddBackY()</text>
<text text-anchor="start" x="117.5" y="-161.5" font-family="Helvetica,sans-Serif" font-size="10.00">+ AddBackDiag()</text>
<text text-anchor="start" x="117.5" y="-150.5" font-family="Helvetica,sans-Serif" font-size="10.00">+ AddBackDiag()</text>
<text text-anchor="start" x="117.5" y="-139.5" font-family="Helvetica,sans-Serif" font-size="10.00">+ AddBackBack()</text>
<text text-anchor="start" x="117.5" y="-128.5" font-family="Helvetica,sans-Serif" font-size="10.00">+ AddBackBack()</text>
<text text-anchor="start" x="117.5" y="-117.5" font-family="Helvetica,sans-Serif" font-size="10.00">+ BackSub2D()</text>
<text text-anchor="start" x="117.5" y="-106.5" font-family="Helvetica,sans-Serif" font-size="10.00">+ SetPeak()</text>
<text text-anchor="start" x="117.5" y="-95.5" font-family="Helvetica,sans-Serif" font-size="10.00">+ AddBackX()</text>
<text text-anchor="start" x="117.5" y="-84.5" font-family="Helvetica,sans-Serif" font-size="10.00">+ AddBackY()</text>
<text text-anchor="start" x="117.5" y="-73.5" font-family="Helvetica,sans-Serif" font-size="10.00">+ AddBackBack()</text>
<text text-anchor="start" x="117.5" y="-62.5" font-family="Helvetica,sans-Serif" font-size="10.00">+ AddBackDiag()</text>
<text text-anchor="start" x="117.5" y="-51.5" font-family="Helvetica,sans-Serif" font-size="10.00">+ Subtract()</text>
<text text-anchor="start" x="117.5" y="-40.5" font-family="Helvetica,sans-Serif" font-size="10.00">+ GetPeakArea()</text>
<text text-anchor="start" x="117.5" y="-29.5" font-family="Helvetica,sans-Serif" font-size="10.00">+ GetPeakAreaError()</text>
<text text-anchor="start" x="117.5" y="-18.5" font-family="Helvetica,sans-Serif" font-size="10.00">+ GetPeakCounts()</text>
<text text-anchor="start" x="117.5" y="-7.5" font-family="Helvetica,sans-Serif" font-size="10.00">+ GetPeakCountsError()</text>
</a>
</g>
</g>
<!-- Node2 -->
<g id="node2" class="node">
<title>Node2</title>
<g id="a_node2"><a xlink:href="../../d0/d79/class_gam_r_1_1_t_k_1_1_gate.html" target="_top" xlink:title=" ">
<polygon fill="white" stroke="black" points="140,-529.5 140,-1136.5 256,-1136.5 256,-529.5 140,-529.5"/>
<text text-anchor="middle" x="198" y="-1124.5" font-family="Helvetica,sans-Serif" font-size="10.00">GamR::TK::Gate</text>
<polyline fill="none" stroke="black" points="140,-1117.5 256,-1117.5 "/>
<text text-anchor="middle" x="198" y="-1105.5" font-family="Helvetica,sans-Serif" font-size="10.00"> </text>
<polyline fill="none" stroke="black" points="140,-1098.5 256,-1098.5 "/>
<text text-anchor="start" x="148" y="-1086.5" font-family="Helvetica,sans-Serif" font-size="10.00">+ Gate()</text>
<text text-anchor="start" x="148" y="-1075.5" font-family="Helvetica,sans-Serif" font-size="10.00">+ Gate()</text>
<text text-anchor="start" x="148" y="-1064.5" font-family="Helvetica,sans-Serif" font-size="10.00">+ Gate()</text>
<text text-anchor="start" x="148" y="-1053.5" font-family="Helvetica,sans-Serif" font-size="10.00">+ Gate()</text>
<text text-anchor="start" x="148" y="-1042.5" font-family="Helvetica,sans-Serif" font-size="10.00">+ Gate()</text>
<text text-anchor="start" x="148" y="-1031.5" font-family="Helvetica,sans-Serif" font-size="10.00">+ Gate()</text>
<text text-anchor="start" x="148" y="-1020.5" font-family="Helvetica,sans-Serif" font-size="10.00">+ Gate()</text>
<text text-anchor="start" x="148" y="-1009.5" font-family="Helvetica,sans-Serif" font-size="10.00">+ ~Gate()</text>
<text text-anchor="start" x="148" y="-998.5" font-family="Helvetica,sans-Serif" font-size="10.00">+ SetGate()</text>
<text text-anchor="start" x="148" y="-987.5" font-family="Helvetica,sans-Serif" font-size="10.00">+ SetGate()</text>
<text text-anchor="start" x="148" y="-976.5" font-family="Helvetica,sans-Serif" font-size="10.00">+ SetGate()</text>
<text text-anchor="start" x="148" y="-965.5" font-family="Helvetica,sans-Serif" font-size="10.00">+ SetLow()</text>
<text text-anchor="start" x="148" y="-954.5" font-family="Helvetica,sans-Serif" font-size="10.00">+ SetLow()</text>
<text text-anchor="start" x="148" y="-943.5" font-family="Helvetica,sans-Serif" font-size="10.00">+ SetHigh()</text>
<text text-anchor="start" x="148" y="-932.5" font-family="Helvetica,sans-Serif" font-size="10.00">+ SetHigh()</text>
<text text-anchor="start" x="148" y="-921.5" font-family="Helvetica,sans-Serif" font-size="10.00">+ GetLow()</text>
<text text-anchor="start" x="148" y="-910.5" font-family="Helvetica,sans-Serif" font-size="10.00">+ GetHigh()</text>
<text text-anchor="start" x="148" y="-899.5" font-family="Helvetica,sans-Serif" font-size="10.00">+ GetWidth()</text>
<text text-anchor="start" x="148" y="-888.5" font-family="Helvetica,sans-Serif" font-size="10.00">+ GetBinLow()</text>
<text text-anchor="start" x="148" y="-877.5" font-family="Helvetica,sans-Serif" font-size="10.00">+ GetBinHigh()</text>
<text text-anchor="start" x="148" y="-866.5" font-family="Helvetica,sans-Serif" font-size="10.00">+ GetBinWidth()</text>
<text text-anchor="start" x="148" y="-855.5" font-family="Helvetica,sans-Serif" font-size="10.00">+ GetTrueWidth()</text>
<text text-anchor="start" x="148" y="-844.5" font-family="Helvetica,sans-Serif" font-size="10.00">+ GetIntegral()</text>
<text text-anchor="start" x="148" y="-833.5" font-family="Helvetica,sans-Serif" font-size="10.00">+ GetIntegral()</text>
<text text-anchor="start" x="148" y="-822.5" font-family="Helvetica,sans-Serif" font-size="10.00">+ GetIntegral()</text>
<text text-anchor="start" x="148" y="-811.5" font-family="Helvetica,sans-Serif" font-size="10.00">+ GetIntegral()</text>
<text text-anchor="start" x="148" y="-800.5" font-family="Helvetica,sans-Serif" font-size="10.00">+ GetIntegralError()</text>
<text text-anchor="start" x="148" y="-789.5" font-family="Helvetica,sans-Serif" font-size="10.00">+ GetIntegralError()</text>
<text text-anchor="start" x="148" y="-778.5" font-family="Helvetica,sans-Serif" font-size="10.00">+ GetIntegralError()</text>
<text text-anchor="start" x="148" y="-767.5" font-family="Helvetica,sans-Serif" font-size="10.00">+ GetCounts()</text>
<text text-anchor="start" x="148" y="-756.5" font-family="Helvetica,sans-Serif" font-size="10.00">+ GetCounts()</text>
<text text-anchor="start" x="148" y="-745.5" font-family="Helvetica,sans-Serif" font-size="10.00">+ GetCounts()</text>
<text text-anchor="start" x="148" y="-734.5" font-family="Helvetica,sans-Serif" font-size="10.00">+ GetCountsError()</text>
<text text-anchor="start" x="148" y="-723.5" font-family="Helvetica,sans-Serif" font-size="10.00">+ GetCountsError()</text>
<text text-anchor="start" x="148" y="-712.5" font-family="Helvetica,sans-Serif" font-size="10.00">+ GetCountsError()</text>
<text text-anchor="start" x="148" y="-701.5" font-family="Helvetica,sans-Serif" font-size="10.00">+ Browse()</text>
<text text-anchor="start" x="148" y="-690.5" font-family="Helvetica,sans-Serif" font-size="10.00">+ Pass()</text>
<text text-anchor="start" x="148" y="-679.5" font-family="Helvetica,sans-Serif" font-size="10.00">+ Pass()</text>
<text text-anchor="start" x="148" y="-668.5" font-family="Helvetica,sans-Serif" font-size="10.00">+ PassDetector()</text>
<text text-anchor="start" x="148" y="-657.5" font-family="Helvetica,sans-Serif" font-size="10.00">+ ApplyX()</text>
<text text-anchor="start" x="148" y="-646.5" font-family="Helvetica,sans-Serif" font-size="10.00">+ ApplyX()</text>
<text text-anchor="start" x="148" y="-635.5" font-family="Helvetica,sans-Serif" font-size="10.00">+ ApplyY()</text>
<text text-anchor="start" x="148" y="-624.5" font-family="Helvetica,sans-Serif" font-size="10.00">+ ApplyY()</text>
<text text-anchor="start" x="148" y="-613.5" font-family="Helvetica,sans-Serif" font-size="10.00">+ Norm()</text>
<text text-anchor="start" x="148" y="-602.5" font-family="Helvetica,sans-Serif" font-size="10.00">+ NormBackSub()</text>
<text text-anchor="start" x="148" y="-591.5" font-family="Helvetica,sans-Serif" font-size="10.00">+ Paint()</text>
<text text-anchor="start" x="148" y="-580.5" font-family="Helvetica,sans-Serif" font-size="10.00">+ DistancetoPrimitive()</text>
<text text-anchor="start" x="148" y="-569.5" font-family="Helvetica,sans-Serif" font-size="10.00">+ ExecuteEvent()</text>
<text text-anchor="start" x="148" y="-558.5" font-family="Helvetica,sans-Serif" font-size="10.00">+ IsFolder()</text>
<text text-anchor="start" x="148" y="-547.5" font-family="Helvetica,sans-Serif" font-size="10.00">+ ls()</text>
<text text-anchor="start" x="148" y="-536.5" font-family="Helvetica,sans-Serif" font-size="10.00">+ Valid()</text>
</a>
</g>
</g>
<!-- Node2&#45;&gt;Node1 -->
<g id="edge1" class="edge">
<title>Node2&#45;&gt;Node1</title>
<path fill="none" stroke="#404040" d="M212.01,-529.42C212.33,-463.28 210.59,-393.71 205,-329 204.82,-326.92 204.63,-324.82 204.43,-322.72"/>
<polygon fill="none" stroke="#404040" points="204.4,-322.5 199.8,-316.95 203.15,-310.56 207.75,-316.11 204.4,-322.5"/>
<text text-anchor="middle" x="232.5" y="-450.5" font-family="Helvetica,sans-Serif" font-size="10.00"> +fPeakX</text>
<text text-anchor="middle" x="232.5" y="-439.5" font-family="Helvetica,sans-Serif" font-size="10.00">+fPeakY</text>
</g>
<!-- Node6 -->
<g id="node6" class="node">
<title>Node6</title>
<g id="a_node6"><a xlink:title=" ">
<polygon fill="white" stroke="black" points="81,-413.5 81,-481.5 183,-481.5 183,-413.5 81,-413.5"/>
<text text-anchor="start" x="89" y="-469.5" font-family="Helvetica,sans-Serif" font-size="10.00">std::vector&lt; GamR::</text>
<text text-anchor="middle" x="132" y="-458.5" font-family="Helvetica,sans-Serif" font-size="10.00">TK::Gate &gt;</text>
<polyline fill="none" stroke="black" points="81,-451.5 183,-451.5 "/>
<text text-anchor="middle" x="132" y="-439.5" font-family="Helvetica,sans-Serif" font-size="10.00"> </text>
<polyline fill="none" stroke="black" points="81,-432.5 183,-432.5 "/>
<text text-anchor="middle" x="132" y="-420.5" font-family="Helvetica,sans-Serif" font-size="10.00"> </text>
</a>
</g>
</g>
<!-- Node2&#45;&gt;Node6 -->
<g id="edge6" class="edge">
<title>Node2&#45;&gt;Node6</title>
<path fill="none" stroke="#404040" d="M145.92,-529.36C143.68,-516.36 141.62,-504.4 139.81,-493.88"/>
<polygon fill="none" stroke="#404040" points="139.77,-493.63 134.81,-488.4 137.73,-481.8 142.69,-487.04 139.77,-493.63"/>
<text text-anchor="middle" x="166.5" y="-503" font-family="Helvetica,sans-Serif" font-size="10.00"> +elements</text>
</g>
<!-- Node3 -->
<g id="node3" class="node">
<title>Node3</title>
<g id="a_node3"><a xlink:title=" ">
<polygon fill="white" stroke="black" points="99,-1184.5 99,-1241.5 153,-1241.5 153,-1184.5 99,-1184.5"/>
<text text-anchor="middle" x="126" y="-1229.5" font-family="Helvetica,sans-Serif" font-size="10.00">TNamed</text>
<polyline fill="none" stroke="black" points="99,-1222.5 153,-1222.5 "/>
<text text-anchor="middle" x="126" y="-1210.5" font-family="Helvetica,sans-Serif" font-size="10.00"> </text>
<polyline fill="none" stroke="black" points="99,-1203.5 153,-1203.5 "/>
<text text-anchor="middle" x="126" y="-1191.5" font-family="Helvetica,sans-Serif" font-size="10.00"> </text>
</a>
</g>
</g>
<!-- Node3&#45;&gt;Node2 -->
<g id="edge2" class="edge">
<title>Node3&#45;&gt;Node2</title>
<path fill="none" stroke="midnightblue" d="M133.22,-1174.08C135.28,-1163.3 137.69,-1150.65 140.35,-1136.67"/>
<polygon fill="none" stroke="midnightblue" points="129.73,-1173.73 131.29,-1184.2 136.6,-1175.04 129.73,-1173.73"/>
</g>
<!-- Node4 -->
<g id="node4" class="node">
<title>Node4</title>
<g id="a_node4"><a xlink:title=" ">
<polygon fill="white" stroke="black" points="171,-1184.5 171,-1241.5 225,-1241.5 225,-1184.5 171,-1184.5"/>
<text text-anchor="middle" x="198" y="-1229.5" font-family="Helvetica,sans-Serif" font-size="10.00">TAttLine</text>
<polyline fill="none" stroke="black" points="171,-1222.5 225,-1222.5 "/>
<text text-anchor="middle" x="198" y="-1210.5" font-family="Helvetica,sans-Serif" font-size="10.00"> </text>
<polyline fill="none" stroke="black" points="171,-1203.5 225,-1203.5 "/>
<text text-anchor="middle" x="198" y="-1191.5" font-family="Helvetica,sans-Serif" font-size="10.00"> </text>
</a>
</g>
</g>
<!-- Node4&#45;&gt;Node2 -->
<g id="edge3" class="edge">
<title>Node4&#45;&gt;Node2</title>
<path fill="none" stroke="midnightblue" d="M198,-1174.08C198,-1163.3 198,-1150.65 198,-1136.67"/>
<polygon fill="none" stroke="midnightblue" points="194.5,-1174.2 198,-1184.2 201.5,-1174.2 194.5,-1174.2"/>
</g>
<!-- Node5 -->
<g id="node5" class="node">
<title>Node5</title>
<g id="a_node5"><a xlink:title=" ">
<polygon fill="white" stroke="black" points="243,-1184.5 243,-1241.5 291,-1241.5 291,-1184.5 243,-1184.5"/>
<text text-anchor="middle" x="267" y="-1229.5" font-family="Helvetica,sans-Serif" font-size="10.00">TAttFill</text>
<polyline fill="none" stroke="black" points="243,-1222.5 291,-1222.5 "/>
<text text-anchor="middle" x="267" y="-1210.5" font-family="Helvetica,sans-Serif" font-size="10.00"> </text>
<polyline fill="none" stroke="black" points="243,-1203.5 291,-1203.5 "/>
<text text-anchor="middle" x="267" y="-1191.5" font-family="Helvetica,sans-Serif" font-size="10.00"> </text>
</a>
</g>
</g>
<!-- Node5&#45;&gt;Node2 -->
<g id="edge4" class="edge">
<title>Node5&#45;&gt;Node2</title>
<path fill="none" stroke="midnightblue" d="M260.08,-1174.08C258.11,-1163.3 255.8,-1150.65 253.25,-1136.67"/>
<polygon fill="none" stroke="midnightblue" points="256.69,-1175 261.93,-1184.2 263.57,-1173.74 256.69,-1175"/>
</g>
<!-- Node6&#45;&gt;Node1 -->
<g id="edge5" class="edge">
<title>Node6&#45;&gt;Node1</title>
<path fill="none" stroke="#404040" d="M133.49,-413.47C134.8,-389.86 137.13,-357.38 141,-329 141.28,-326.92 141.58,-324.83 141.88,-322.73"/>
<polygon fill="none" stroke="#404040" points="141.92,-322.45 138.85,-315.93 143.69,-310.58 146.76,-317.11 141.92,-322.45"/>
<text text-anchor="middle" x="173" y="-387" font-family="Helvetica,sans-Serif" font-size="10.00"> +fBackBackX</text>
<text text-anchor="middle" x="173" y="-376" font-family="Helvetica,sans-Serif" font-size="10.00">+fBackBackY</text>
<text text-anchor="middle" x="173" y="-365" font-family="Helvetica,sans-Serif" font-size="10.00">+fBackDiagX</text>
<text text-anchor="middle" x="173" y="-354" font-family="Helvetica,sans-Serif" font-size="10.00">+fBackDiagY</text>
<text text-anchor="middle" x="173" y="-343" font-family="Helvetica,sans-Serif" font-size="10.00">+fBackX</text>
<text text-anchor="middle" x="173" y="-332" font-family="Helvetica,sans-Serif" font-size="10.00">+fBackY</text>
</g>
<!-- Node7 -->
<g id="node7" class="node">
<title>Node7</title>
<g id="a_node7"><a xlink:title=" ">
<polygon fill="white" stroke="black" points="0,-804.5 0,-861.5 84,-861.5 84,-804.5 0,-804.5"/>
<text text-anchor="middle" x="42" y="-849.5" font-family="Helvetica,sans-Serif" font-size="10.00">std::vector&lt; T &gt;</text>
<polyline fill="none" stroke="black" points="0,-842.5 84,-842.5 "/>
<text text-anchor="middle" x="42" y="-830.5" font-family="Helvetica,sans-Serif" font-size="10.00"> </text>
<polyline fill="none" stroke="black" points="0,-823.5 84,-823.5 "/>
<text text-anchor="middle" x="42" y="-811.5" font-family="Helvetica,sans-Serif" font-size="10.00"> </text>
</a>
</g>
</g>
<!-- Node7&#45;&gt;Node6 -->
<g id="edge7" class="edge">
<title>Node7&#45;&gt;Node6</title>
<path fill="none" stroke="orange" d="M31.76,-794.52C16.28,-729.63 -5.92,-594.29 48,-500 55.47,-486.93 67.73,-476.76 80.61,-469.04"/>
<polygon fill="orange" stroke="orange" points="28.38,-795.44 34.18,-804.31 35.18,-793.76 28.38,-795.44"/>
<text text-anchor="middle" x="93" y="-503" font-family="Helvetica,sans-Serif" font-size="10.00"> &lt; GamR::TK::Gate &gt;</text>
</g>
<!-- Node8 -->
<g id="node8" class="node">
<title>Node8</title>
<g id="a_node8"><a xlink:title=" ">
<polygon fill="white" stroke="black" points="27.5,-1184.5 27.5,-1241.5 56.5,-1241.5 56.5,-1184.5 27.5,-1184.5"/>
<text text-anchor="middle" x="42" y="-1229.5" font-family="Helvetica,sans-Serif" font-size="10.00">T</text>
<polyline fill="none" stroke="black" points="27.5,-1222.5 56.5,-1222.5 "/>
<text text-anchor="middle" x="42" y="-1210.5" font-family="Helvetica,sans-Serif" font-size="10.00"> </text>
<polyline fill="none" stroke="black" points="27.5,-1203.5 56.5,-1203.5 "/>
<text text-anchor="middle" x="42" y="-1191.5" font-family="Helvetica,sans-Serif" font-size="10.00"> </text>
</a>
</g>
</g>
<!-- Node8&#45;&gt;Node7 -->
<g id="edge8" class="edge">
<title>Node8&#45;&gt;Node7</title>
<path fill="none" stroke="#404040" d="M42,-1184.2C42,-1118.04 42,-951 42,-874"/>
<polygon fill="none" stroke="#404040" points="42,-873.58 38,-867.58 42,-861.58 46,-867.58 42,-873.58"/>
<text text-anchor="middle" x="66.5" y="-1158" font-family="Helvetica,sans-Serif" font-size="10.00"> +elements</text>
</g>
</g>
</svg>
        <g id="navigator" transform="translate(0 0)" fill="#404254">
                <rect fill="#f2f5e9" fill-opacity="0.5" stroke="#606060" stroke-width=".5" x="0" y="0" width="60" height="60"/>
                <use id="zoomplus" xlink:href="#zoomPlus" x="17" y="9" onmousedown="handleZoom(evt,'in')"/>
                <use id="zoomminus" xlink:href="#zoomMin" x="42" y="9" onmousedown="handleZoom(evt,'out')"/>
                <use id="reset" xlink:href="#resetDef" x="30" y="36" onmousedown="handleReset()"/>
                <g id="arrowUp" xlink:href="#dirArrow" transform="translate(30 24)" onmousedown="handlePan(0,-1)">
                  <use xlink:href="#rim" fill="#404040">
                        <set attributeName="fill" to="#808080" begin="arrowUp.mouseover" end="arrowUp.mouseout"/>
                  </use>
                  <path fill="none" stroke="white" stroke-width="1.5" d="M0,-3.0v7 M-2.5,-0.5L0,-3.0L2.5,-0.5"/>
                </g>
                <g id="arrowRight" xlink:href="#dirArrow" transform="rotate(90) translate(36 -43)" onmousedown="handlePan(1,0)">
                  <use xlink:href="#rim" fill="#404040">
                        <set attributeName="fill" to="#808080" begin="arrowRight.mouseover" end="arrowRight.mouseout"/>
                  </use>
                  <path fill="none" stroke="white" stroke-width="1.5" d="M0,-3.0v7 M-2.5,-0.5L0,-3.0L2.5,-0.5"/>
                </g>
                <g id="arrowDown" xlink:href="#dirArrow" transform="rotate(180) translate(-30 -48)" onmousedown="handlePan(0,1)">
                  <use xlink:href="#rim" fill="#404040">
                        <set attributeName="fill" to="#808080" begin="arrowDown.mouseover" end="arrowDown.mouseout"/>
                  </use>
                  <path fill="none" stroke="white" stroke-width="1.5" d="M0,-3.0v7 M-2.5,-0.5L0,-3.0L2.5,-0.5"/>
                </g>
                <g id="arrowLeft" xlink:href="#dirArrow" transform="rotate(270) translate(-36 17)" onmousedown="handlePan(-1,0)">
                  <use xlink:href="#rim" fill="#404040">
                        <set attributeName="fill" to="#808080" begin="arrowLeft.mouseover" end="arrowLeft.mouseout"/>
                  </use>
                  <path fill="none" stroke="white" stroke-width="1.5" d="M0,-3.0v7 M-2.5,-0.5L0,-3.0L2.5,-0.5"/>
                </g>
        </g>
        <svg viewBox="0 0 15 15" width="100%" height="30px" preserveAspectRatio="xMaxYMin meet">
         <g id="arrow_out" transform="scale(0.3 0.3)">
          <a xlink:href="class_gam_r_1_1_spect_1_1_back_sub2_d__coll__graph_org.svg" target="_base">
           <rect id="button" ry="5" rx="5" y="6" x="6" height="38" width="38"
                fill="#f2f5e9" fill-opacity="0.5" stroke="#606060" stroke-width="1.0"/>
           <path id="arrow"
             d="M 11.500037,31.436501 C 11.940474,20.09759 22.043105,11.32322 32.158766,21.979434 L 37.068811,17.246167 C 37.068811,17.246167 37.088388,32 37.088388,32 L 22.160133,31.978069 C 22.160133,31.978069 26.997745,27.140456 26.997745,27.140456 C 18.528582,18.264221 13.291696,25.230495 11.500037,31.436501 z"
             style="fill:#404040;"/>
          </a>
         </g>
        </svg>
</svg>
