<?xml version="1.0" encoding="UTF-8" standalone="no"?>
<!DOCTYPE svg PUBLIC "-//W3C//DTD SVG 1.1//EN"
 "http://www.w3.org/Graphics/SVG/1.1/DTD/svg11.dtd">
<!-- Generated by graphviz version 9.0.0 (20230911.1827)
 -->
<!-- Title: GamR::Tree::TDetDefn&lt; Ts &gt;::InterpretPointers Pages: 1 -->
<svg width="454pt" height="604pt"
 viewBox="0.00 0.00 453.50 603.75" xmlns="http://www.w3.org/2000/svg" xmlns:xlink="http://www.w3.org/1999/xlink">
<g id="graph0" class="graph" transform="scale(1 1) rotate(0) translate(4 599.75)">
<title>GamR::Tree::TDetDefn&lt; Ts &gt;::InterpretPointers</title>
<!-- Node1 -->
<g id="Node000001" class="node">
<title>Node1</title>
<g id="a_Node000001"><a xlink:title=" ">
<polygon fill="#999999" stroke="none" points="250.5,-75 136.5,-75 136.5,0 250.5,0 250.5,-75"/>
<text text-anchor="start" x="141.38" y="-61.5" font-family="Helvetica,sans-Serif" font-size="10.00">GamR::Tree::TDetDefn</text>
<text text-anchor="start" x="141.38" y="-50.25" font-family="Helvetica,sans-Serif" font-size="10.00">&lt; Ts &gt;::InterpretPointers</text>
<text text-anchor="start" x="145" y="-35.5" font-family="Helvetica,sans-Serif" font-size="10.00">+</text>
<text text-anchor="start" x="159.5" y="-35.5" font-family="Helvetica,sans-Serif" font-size="10.00">idxKey</text>
<text text-anchor="start" x="145" y="-20.5" font-family="Helvetica,sans-Serif" font-size="10.00">+</text>
<text text-anchor="start" x="159.5" y="-20.5" font-family="Helvetica,sans-Serif" font-size="10.00">InterpretPointers()</text>
<text text-anchor="start" x="145" y="-5.5" font-family="Helvetica,sans-Serif" font-size="10.00">+</text>
<text text-anchor="start" x="159.5" y="-5.5" font-family="Helvetica,sans-Serif" font-size="10.00">operator()()</text>
<polygon fill="#666666" stroke="#666666" points="136.5,-47 136.5,-47 250.5,-47 250.5,-47 136.5,-47"/>
<polygon fill="#666666" stroke="#666666" points="136.5,-32 136.5,-32 157.5,-32 157.5,-32 136.5,-32"/>
<polygon fill="#666666" stroke="#666666" points="157.5,-32 157.5,-32 250.5,-32 250.5,-32 157.5,-32"/>
<polygon fill="none" stroke="#666666" points="136.5,0 136.5,-75 250.5,-75 250.5,0 136.5,0"/>
</a>
</g>
</g>
<!-- Node2 -->
<g id="Node000002" class="node">
<title>Node2</title>
<g id="a_Node000002"><a xlink:href="../../d4/d79/class_gam_r_1_1_tree_1_1_t_det_defn.html" target="_top" xlink:title=" ">
<polygon fill="white" stroke="none" points="125,-392.25 0,-392.25 0,-122.25 125,-122.25 125,-392.25"/>
<text text-anchor="start" x="13.75" y="-378.75" font-family="Helvetica,sans-Serif" font-size="10.00">GamR::Tree::TDetDefn</text>
<text text-anchor="start" x="48.62" y="-367.5" font-family="Helvetica,sans-Serif" font-size="10.00">&lt; Ts &gt;</text>
<text text-anchor="start" x="61" y="-352.75" font-family="Helvetica,sans-Serif" font-size="10.00"> </text>
<text text-anchor="start" x="4" y="-337.75" font-family="Helvetica,sans-Serif" font-size="10.00">+</text>
<text text-anchor="start" x="14" y="-337.75" font-family="Helvetica,sans-Serif" font-size="10.00">TDetDefn()</text>
<text text-anchor="start" x="4" y="-322.75" font-family="Helvetica,sans-Serif" font-size="10.00">+</text>
<text text-anchor="start" x="14" y="-322.75" font-family="Helvetica,sans-Serif" font-size="10.00">~TDetDefn()</text>
<text text-anchor="start" x="4" y="-307.75" font-family="Helvetica,sans-Serif" font-size="10.00">+</text>
<text text-anchor="start" x="14" y="-307.75" font-family="Helvetica,sans-Serif" font-size="10.00">GetDatum()</text>
<text text-anchor="start" x="4" y="-292.75" font-family="Helvetica,sans-Serif" font-size="10.00">+</text>
<text text-anchor="start" x="14" y="-292.75" font-family="Helvetica,sans-Serif" font-size="10.00">GetAllDatums()</text>
<text text-anchor="start" x="4" y="-277.75" font-family="Helvetica,sans-Serif" font-size="10.00">+</text>
<text text-anchor="start" x="14" y="-277.75" font-family="Helvetica,sans-Serif" font-size="10.00">GetNumMeasurements()</text>
<text text-anchor="start" x="4" y="-262.75" font-family="Helvetica,sans-Serif" font-size="10.00">+</text>
<text text-anchor="start" x="14" y="-262.75" font-family="Helvetica,sans-Serif" font-size="10.00">GetID()</text>
<text text-anchor="start" x="4" y="-247.75" font-family="Helvetica,sans-Serif" font-size="10.00">+</text>
<text text-anchor="start" x="14" y="-247.75" font-family="Helvetica,sans-Serif" font-size="10.00">GetEfficiency()</text>
<text text-anchor="start" x="4" y="-232.75" font-family="Helvetica,sans-Serif" font-size="10.00">+</text>
<text text-anchor="start" x="14" y="-232.75" font-family="Helvetica,sans-Serif" font-size="10.00">IsGood()</text>
<text text-anchor="start" x="4" y="-217.75" font-family="Helvetica,sans-Serif" font-size="10.00">+</text>
<text text-anchor="start" x="14" y="-217.75" font-family="Helvetica,sans-Serif" font-size="10.00">SetPtrs()</text>
<text text-anchor="start" x="4" y="-202.75" font-family="Helvetica,sans-Serif" font-size="10.00">+</text>
<text text-anchor="start" x="14" y="-202.75" font-family="Helvetica,sans-Serif" font-size="10.00">SetRequired()</text>
<text text-anchor="start" x="4" y="-187.75" font-family="Helvetica,sans-Serif" font-size="10.00">+</text>
<text text-anchor="start" x="14" y="-187.75" font-family="Helvetica,sans-Serif" font-size="10.00">SetCalFuncs()</text>
<text text-anchor="start" x="4" y="-172.75" font-family="Helvetica,sans-Serif" font-size="10.00">+</text>
<text text-anchor="start" x="14" y="-172.75" font-family="Helvetica,sans-Serif" font-size="10.00">SetPollGates()</text>
<text text-anchor="start" x="4" y="-157.75" font-family="Helvetica,sans-Serif" font-size="10.00">+</text>
<text text-anchor="start" x="14" y="-157.75" font-family="Helvetica,sans-Serif" font-size="10.00">SetEffFunc()</text>
<text text-anchor="start" x="4" y="-142.75" font-family="Helvetica,sans-Serif" font-size="10.00">+</text>
<text text-anchor="start" x="14" y="-142.75" font-family="Helvetica,sans-Serif" font-size="10.00">Calibrate()</text>
<text text-anchor="start" x="4" y="-127.75" font-family="Helvetica,sans-Serif" font-size="10.00">+</text>
<text text-anchor="start" x="14" y="-127.75" font-family="Helvetica,sans-Serif" font-size="10.00">ClassDef()</text>
<polygon fill="#666666" stroke="#666666" points="0,-364.25 0,-364.25 125,-364.25 125,-364.25 0,-364.25"/>
<polygon fill="#666666" stroke="#666666" points="0,-349.25 0,-349.25 125,-349.25 125,-349.25 0,-349.25"/>
<polygon fill="none" stroke="#666666" points="0,-122.25 0,-392.25 125,-392.25 125,-122.25 0,-122.25"/>
</a>
</g>
</g>
<!-- Node2&#45;&gt;Node1 -->
<g id="edge1_Node000001_Node000002" class="edge">
<title>Node2&#45;&gt;Node1</title>
<g id="a_edge1_Node000001_Node000002"><a xlink:title=" ">
<path fill="none" stroke="#63b8ff" d="M124.93,-138.14C128.11,-132.74 131.31,-127.42 134.5,-122.25 142.01,-110.09 150.63,-97.3 158.91,-85.49"/>
<polygon fill="none" stroke="#63b8ff" points="158.91,-85.48 159.12,-78.27 165.86,-75.69 165.65,-82.9 158.91,-85.48"/>
</a>
</g>
<text text-anchor="middle" x="160.25" y="-94.75" font-family="Helvetica,sans-Serif" font-size="10.00" fill="grey"> +p</text>
</g>
<!-- Node3 -->
<g id="Node000003" class="node">
<title>Node3</title>
<g id="a_Node000003"><a xlink:title=" ">
<polygon fill="white" stroke="none" points="84.5,-488.5 40.5,-488.5 40.5,-439.5 84.5,-439.5 84.5,-488.5"/>
<text text-anchor="start" x="45.25" y="-475" font-family="Helvetica,sans-Serif" font-size="10.00">TObject</text>
<text text-anchor="start" x="61" y="-460" font-family="Helvetica,sans-Serif" font-size="10.00"> </text>
<text text-anchor="start" x="61" y="-445" font-family="Helvetica,sans-Serif" font-size="10.00"> </text>
<polygon fill="#666666" stroke="#666666" points="40.5,-471.5 40.5,-471.5 84.5,-471.5 84.5,-471.5 40.5,-471.5"/>
<polygon fill="#666666" stroke="#666666" points="40.5,-456.5 40.5,-456.5 84.5,-456.5 84.5,-456.5 40.5,-456.5"/>
<polygon fill="none" stroke="#666666" points="40.5,-439.5 40.5,-488.5 84.5,-488.5 84.5,-439.5 40.5,-439.5"/>
</a>
</g>
</g>
<!-- Node3&#45;&gt;Node2 -->
<g id="edge2_Node000002_Node000003" class="edge">
<title>Node3&#45;&gt;Node2</title>
<g id="a_edge2_Node000002_Node000003"><a xlink:title=" ">
<path fill="none" stroke="#63b8ff" d="M62.5,-428.32C62.5,-417.69 62.5,-405.3 62.5,-392.14"/>
<polygon fill="none" stroke="#63b8ff" points="59,-428 62.5,-438 66,-428 59,-428"/>
</a>
</g>
</g>
<!-- Node4 -->
<g id="Node000004" class="node">
<title>Node4</title>
<g id="a_Node000004"><a xlink:title=" ">
<polygon fill="white" stroke="none" points="243.5,-287.25 143.5,-287.25 143.5,-227.25 243.5,-227.25 243.5,-287.25"/>
<text text-anchor="start" x="148.5" y="-273.75" font-family="Helvetica,sans-Serif" font-size="10.00">std::map&lt; std::string,</text>
<text text-anchor="start" x="176.25" y="-262.5" font-family="Helvetica,sans-Serif" font-size="10.00"> void * &gt;</text>
<text text-anchor="start" x="158" y="-247.75" font-family="Helvetica,sans-Serif" font-size="10.00">+</text>
<text text-anchor="start" x="178.5" y="-247.75" font-family="Helvetica,sans-Serif" font-size="10.00">elements</text>
<text text-anchor="start" x="192" y="-232.75" font-family="Helvetica,sans-Serif" font-size="10.00"> </text>
<polygon fill="#666666" stroke="#666666" points="143.5,-259.25 143.5,-259.25 243.5,-259.25 243.5,-259.25 143.5,-259.25"/>
<polygon fill="#666666" stroke="#666666" points="143.5,-244.25 143.5,-244.25 176.5,-244.25 176.5,-244.25 143.5,-244.25"/>
<polygon fill="#666666" stroke="#666666" points="176.5,-244.25 176.5,-244.25 243.5,-244.25 243.5,-244.25 176.5,-244.25"/>
<polygon fill="none" stroke="#666666" points="143.5,-227.25 143.5,-287.25 243.5,-287.25 243.5,-227.25 143.5,-227.25"/>
</a>
</g>
</g>
<!-- Node4&#45;&gt;Node1 -->
<g id="edge3_Node000001_Node000004" class="edge">
<title>Node4&#45;&gt;Node1</title>
<g id="a_edge3_Node000001_Node000004"><a xlink:title=" ">
<path fill="none" stroke="#63b8ff" d="M193.5,-227.33C193.5,-191.76 193.5,-130.82 193.5,-87.8"/>
<polygon fill="none" stroke="#63b8ff" points="193.5,-87.7 189.5,-81.7 193.5,-75.7 197.5,-81.7 193.5,-87.7"/>
</a>
</g>
<text text-anchor="middle" x="222.38" y="-94.75" font-family="Helvetica,sans-Serif" font-size="10.00" fill="grey"> +PointerMap</text>
</g>
<!-- Node5 -->
<g id="Node000005" class="node">
<title>Node5</title>
<g id="a_Node000005"><a xlink:title=" ">
<polygon fill="white" stroke="none" points="417.5,-488.5 365.5,-488.5 365.5,-439.5 417.5,-439.5 417.5,-488.5"/>
<text text-anchor="start" x="370.5" y="-475" font-family="Helvetica,sans-Serif" font-size="10.00">std::string</text>
<text text-anchor="start" x="390" y="-460" font-family="Helvetica,sans-Serif" font-size="10.00"> </text>
<text text-anchor="start" x="390" y="-445" font-family="Helvetica,sans-Serif" font-size="10.00"> </text>
<polygon fill="#666666" stroke="#666666" points="365.5,-471.5 365.5,-471.5 417.5,-471.5 417.5,-471.5 365.5,-471.5"/>
<polygon fill="#666666" stroke="#666666" points="365.5,-456.5 365.5,-456.5 417.5,-456.5 417.5,-456.5 365.5,-456.5"/>
<polygon fill="none" stroke="#666666" points="365.5,-439.5 365.5,-488.5 417.5,-488.5 417.5,-439.5 365.5,-439.5"/>
</a>
</g>
</g>
<!-- Node5&#45;&gt;Node4 -->
<g id="edge4_Node000004_Node000005" class="edge">
<title>Node5&#45;&gt;Node4</title>
<g id="a_edge4_Node000004_Node000005"><a xlink:title=" ">
<path fill="none" stroke="#63b8ff" d="M375.57,-439.53C367.23,-429 356.12,-417.37 343.5,-410.25 307.6,-389.98 284.67,-418.03 252.5,-392.25 223.86,-369.3 208.76,-329.61 201.04,-299.37"/>
<polygon fill="none" stroke="#63b8ff" points="201.1,-299.63 195.84,-294.7 198.36,-287.94 203.63,-292.87 201.1,-299.63"/>
</a>
</g>
<text text-anchor="middle" x="372.75" y="-412" font-family="Helvetica,sans-Serif" font-size="10.00" fill="grey"> +keys</text>
</g>
<!-- Node10 -->
<g id="Node000010" class="node">
<title>Node10</title>
<g id="a_Node000010"><a xlink:title=" ">
<polygon fill="white" stroke="none" points="375,-281.75 262,-281.75 262,-232.75 375,-232.75 375,-281.75"/>
<text text-anchor="start" x="266.75" y="-268.25" font-family="Helvetica,sans-Serif" font-size="10.00">std::vector&lt; std::string &gt;</text>
<text text-anchor="start" x="317" y="-253.25" font-family="Helvetica,sans-Serif" font-size="10.00"> </text>
<text text-anchor="start" x="317" y="-238.25" font-family="Helvetica,sans-Serif" font-size="10.00"> </text>
<polygon fill="#666666" stroke="#666666" points="262,-264.75 262,-264.75 375,-264.75 375,-264.75 262,-264.75"/>
<polygon fill="#666666" stroke="#666666" points="262,-249.75 262,-249.75 375,-249.75 375,-249.75 262,-249.75"/>
<polygon fill="none" stroke="#666666" points="262,-232.75 262,-281.75 375,-281.75 375,-232.75 262,-232.75"/>
</a>
</g>
</g>
<!-- Node5&#45;&gt;Node10 -->
<g id="edge10_Node000010_Node000005" class="edge">
<title>Node5&#45;&gt;Node10</title>
<g id="a_edge10_Node000010_Node000005"><a xlink:title=" ">
<path fill="none" stroke="#63b8ff" d="M396.34,-439.64C397.46,-430.39 397.76,-419.72 395.5,-410.25 385.14,-366.88 360.28,-321.88 341.59,-292.21"/>
<polygon fill="none" stroke="#63b8ff" points="341.76,-292.47 335.15,-289.59 335.26,-282.38 341.88,-285.26 341.76,-292.47"/>
</a>
</g>
<text text-anchor="middle" x="421.5" y="-412" font-family="Helvetica,sans-Serif" font-size="10.00" fill="grey"> +elements</text>
</g>
<!-- Node6 -->
<g id="Node000006" class="node">
<title>Node6</title>
<g id="a_Node000006"><a xlink:title=" ">
<polygon fill="white" stroke="none" points="434.5,-595.75 348.5,-595.75 348.5,-535.75 434.5,-535.75 434.5,-595.75"/>
<text text-anchor="start" x="353.25" y="-582.25" font-family="Helvetica,sans-Serif" font-size="10.00">std::basic_string&lt;</text>
<text text-anchor="start" x="376.12" y="-571" font-family="Helvetica,sans-Serif" font-size="10.00"> Char &gt;</text>
<text text-anchor="start" x="390" y="-556.25" font-family="Helvetica,sans-Serif" font-size="10.00"> </text>
<text text-anchor="start" x="390" y="-541.25" font-family="Helvetica,sans-Serif" font-size="10.00"> </text>
<polygon fill="#666666" stroke="#666666" points="348.5,-567.75 348.5,-567.75 434.5,-567.75 434.5,-567.75 348.5,-567.75"/>
<polygon fill="#666666" stroke="#666666" points="348.5,-552.75 348.5,-552.75 434.5,-552.75 434.5,-552.75 348.5,-552.75"/>
<polygon fill="none" stroke="#666666" points="348.5,-535.75 348.5,-595.75 434.5,-595.75 434.5,-535.75 348.5,-535.75"/>
</a>
</g>
</g>
<!-- Node6&#45;&gt;Node5 -->
<g id="edge5_Node000005_Node000006" class="edge">
<title>Node6&#45;&gt;Node5</title>
<g id="a_edge5_Node000005_Node000006"><a xlink:title=" ">
<path fill="none" stroke="#63b8ff" d="M391.5,-524.49C391.5,-512.24 391.5,-499.17 391.5,-488.42"/>
<polygon fill="none" stroke="#63b8ff" points="388,-524.38 391.5,-534.38 395,-524.38 388,-524.38"/>
</a>
</g>
</g>
<!-- Node7 -->
<g id="Node000007" class="node">
<title>Node7</title>
<g id="a_Node000007"><a xlink:title=" ">
<polygon fill="white" stroke="none" points="209,-488.5 128,-488.5 128,-439.5 209,-439.5 209,-488.5"/>
<text text-anchor="start" x="132.88" y="-475" font-family="Helvetica,sans-Serif" font-size="10.00">std::map&lt; K, T &gt;</text>
<text text-anchor="start" x="167" y="-460" font-family="Helvetica,sans-Serif" font-size="10.00"> </text>
<text text-anchor="start" x="167" y="-445" font-family="Helvetica,sans-Serif" font-size="10.00"> </text>
<polygon fill="#666666" stroke="#666666" points="128,-471.5 128,-471.5 209,-471.5 209,-471.5 128,-471.5"/>
<polygon fill="#666666" stroke="#666666" points="128,-456.5 128,-456.5 209,-456.5 209,-456.5 128,-456.5"/>
<polygon fill="none" stroke="#666666" points="128,-439.5 128,-488.5 209,-488.5 209,-439.5 128,-439.5"/>
</a>
</g>
</g>
<!-- Node7&#45;&gt;Node4 -->
<g id="edge6_Node000004_Node000007" class="edge">
<title>Node7&#45;&gt;Node4</title>
<g id="a_edge6_Node000004_Node000007"><a xlink:title=" ">
<path fill="none" stroke="orange" d="M168.48,-428.34C168.67,-422.3 168.99,-416.09 169.5,-410.25 173.29,-367.14 181.9,-317.72 187.7,-287.24"/>
<polygon fill="orange" stroke="orange" points="164.98,-428.01 168.28,-438.08 171.98,-428.15 164.98,-428.01"/>
</a>
</g>
<text text-anchor="middle" x="214.5" y="-412" font-family="Helvetica,sans-Serif" font-size="10.00" fill="grey"> &lt; std::string, void * &gt;</text>
</g>
<!-- Node8 -->
<g id="Node000008" class="node">
<title>Node8</title>
<g id="a_Node000008"><a xlink:title=" ">
<polygon fill="white" stroke="none" points="166.5,-590.25 150.5,-590.25 150.5,-541.25 166.5,-541.25 166.5,-590.25"/>
<text text-anchor="start" x="155.12" y="-576.75" font-family="Helvetica,sans-Serif" font-size="10.00">K</text>
<text text-anchor="start" x="157" y="-561.75" font-family="Helvetica,sans-Serif" font-size="10.00"> </text>
<text text-anchor="start" x="157" y="-546.75" font-family="Helvetica,sans-Serif" font-size="10.00"> </text>
<polygon fill="#666666" stroke="#666666" points="150.5,-573.25 150.5,-573.25 166.5,-573.25 166.5,-573.25 150.5,-573.25"/>
<polygon fill="#666666" stroke="#666666" points="150.5,-558.25 150.5,-558.25 166.5,-558.25 166.5,-558.25 150.5,-558.25"/>
<polygon fill="none" stroke="#666666" points="150.5,-541.25 150.5,-590.25 166.5,-590.25 166.5,-541.25 150.5,-541.25"/>
</a>
</g>
</g>
<!-- Node8&#45;&gt;Node7 -->
<g id="edge7_Node000007_Node000008" class="edge">
<title>Node8&#45;&gt;Node7</title>
<g id="a_edge7_Node000007_Node000008"><a xlink:title=" ">
<path fill="none" stroke="#63b8ff" d="M158.16,-541.44C158.25,-530.76 158.69,-517.96 160,-506.5 160.21,-504.63 160.47,-502.71 160.76,-500.79"/>
<polygon fill="none" stroke="#63b8ff" points="160.75,-500.85 157.86,-494.24 162.85,-489.04 165.74,-495.65 160.75,-500.85"/>
</a>
</g>
<text text-anchor="middle" x="174.75" y="-508.25" font-family="Helvetica,sans-Serif" font-size="10.00" fill="grey"> +keys</text>
</g>
<!-- Node9 -->
<g id="Node000009" class="node">
<title>Node9</title>
<g id="a_Node000009"><a xlink:title=" ">
<polygon fill="white" stroke="none" points="253.5,-590.25 237.5,-590.25 237.5,-541.25 253.5,-541.25 253.5,-590.25"/>
<text text-anchor="start" x="242.5" y="-576.75" font-family="Helvetica,sans-Serif" font-size="10.00">T</text>
<text text-anchor="start" x="244" y="-561.75" font-family="Helvetica,sans-Serif" font-size="10.00"> </text>
<text text-anchor="start" x="244" y="-546.75" font-family="Helvetica,sans-Serif" font-size="10.00"> </text>
<polygon fill="#666666" stroke="#666666" points="237.5,-573.25 237.5,-573.25 253.5,-573.25 253.5,-573.25 237.5,-573.25"/>
<polygon fill="#666666" stroke="#666666" points="237.5,-558.25 237.5,-558.25 253.5,-558.25 253.5,-558.25 237.5,-558.25"/>
<polygon fill="none" stroke="#666666" points="237.5,-541.25 237.5,-590.25 253.5,-590.25 253.5,-541.25 237.5,-541.25"/>
</a>
</g>
</g>
<!-- Node9&#45;&gt;Node7 -->
<g id="edge8_Node000007_Node000009" class="edge">
<title>Node9&#45;&gt;Node7</title>
<g id="a_edge8_Node000007_Node000009"><a xlink:title=" ">
<path fill="none" stroke="#63b8ff" d="M237.55,-554.45C227.39,-541.29 209.3,-517.85 194.19,-498.28"/>
<polygon fill="none" stroke="#63b8ff" points="194.27,-498.39 187.44,-496.08 186.94,-488.89 193.77,-491.19 194.27,-498.39"/>
</a>
</g>
<text text-anchor="middle" x="231.5" y="-508.25" font-family="Helvetica,sans-Serif" font-size="10.00" fill="grey"> +elements</text>
</g>
<!-- Node11 -->
<g id="Node000011" class="node">
<title>Node11</title>
<g id="a_Node000011"><a xlink:title=" ">
<polygon fill="white" stroke="none" points="320,-488.5 243,-488.5 243,-439.5 320,-439.5 320,-488.5"/>
<text text-anchor="start" x="247.75" y="-475" font-family="Helvetica,sans-Serif" font-size="10.00">std::vector&lt; T &gt;</text>
<text text-anchor="start" x="280" y="-460" font-family="Helvetica,sans-Serif" font-size="10.00"> </text>
<text text-anchor="start" x="280" y="-445" font-family="Helvetica,sans-Serif" font-size="10.00"> </text>
<polygon fill="#666666" stroke="#666666" points="243,-471.5 243,-471.5 320,-471.5 320,-471.5 243,-471.5"/>
<polygon fill="#666666" stroke="#666666" points="243,-456.5 243,-456.5 320,-456.5 320,-456.5 243,-456.5"/>
<polygon fill="none" stroke="#666666" points="243,-439.5 243,-488.5 320,-488.5 320,-439.5 243,-439.5"/>
</a>
</g>
</g>
<!-- Node9&#45;&gt;Node11 -->
<g id="edge12_Node000011_Node000009" class="edge">
<title>Node9&#45;&gt;Node11</title>
<g id="a_edge12_Node000011_Node000009"><a xlink:title=" ">
<path fill="none" stroke="#63b8ff" d="M253.49,-542.61C257.93,-530.31 263.56,-514.7 268.61,-500.71"/>
<polygon fill="none" stroke="#63b8ff" points="268.65,-500.6 266.93,-493.6 272.73,-489.31 274.45,-496.32 268.65,-500.6"/>
</a>
</g>
<text text-anchor="middle" x="290.5" y="-508.25" font-family="Helvetica,sans-Serif" font-size="10.00" fill="grey"> +elements</text>
</g>
<!-- Node10&#45;&gt;Node1 -->
<g id="edge9_Node000001_Node000010" class="edge">
<title>Node10&#45;&gt;Node1</title>
<g id="a_edge9_Node000001_Node000010"><a xlink:title=" ">
<path fill="none" stroke="#63b8ff" d="M313.27,-232.93C305.01,-199.65 286.61,-137.6 255.5,-93 253.42,-90.02 251.15,-87.1 248.75,-84.26"/>
<polygon fill="none" stroke="#63b8ff" points="248.86,-84.38 241.85,-82.68 240.73,-75.55 247.74,-77.26 248.86,-84.38"/>
</a>
</g>
<text text-anchor="middle" x="276.5" y="-94.75" font-family="Helvetica,sans-Serif" font-size="10.00" fill="grey"> +Keys</text>
</g>
<!-- Node11&#45;&gt;Node10 -->
<g id="edge11_Node000010_Node000011" class="edge">
<title>Node11&#45;&gt;Node10</title>
<g id="a_edge11_Node000010_Node000011"><a xlink:title=" ">
<path fill="none" stroke="orange" d="M281.3,-428.3C281.56,-422.27 282.01,-416.06 282.75,-410.25 288.67,-364 302.77,-311.28 311.39,-281.67"/>
<polygon fill="orange" stroke="orange" points="277.81,-427.95 281.05,-438.04 284.8,-428.13 277.81,-427.95"/>
</a>
</g>
<text text-anchor="middle" x="313.88" y="-412" font-family="Helvetica,sans-Serif" font-size="10.00" fill="grey"> &lt; std::string &gt;</text>
</g>
</g>
</svg>
