<?xml version="1.0" encoding="UTF-8" standalone="no"?>
<!DOCTYPE svg PUBLIC "-//W3C//DTD SVG 1.1//EN"
 "http://www.w3.org/Graphics/SVG/1.1/DTD/svg11.dtd">
<!-- Generated by graphviz version 12.2.1 (20241206.2353)
 -->
<!-- Title: src/lib/coulex/CoulexCalculation.cc Pages: 1 -->
<!--zoomable 359 -->

<svg id="main" version="1.1" xmlns="http://www.w3.org/2000/svg" xmlns:xlink="http://www.w3.org/1999/xlink" xml:space="preserve" onload="init(evt)">

<style type="text/css"><![CDATA[
.node, .edge {opacity: 0.7;}
.node.selected, .edge.selected {opacity: 1;}
.edge:hover path { stroke: red; }
.edge:hover polygon { stroke: red; fill: red; }
]]></style>

<defs>
  <circle id="rim" cx="0" cy="0" r="7"/>
  <circle id="rim2" cx="0" cy="0" r="3.5"/>
  <g id="zoomPlus">
    <use xlink:href="#rim" fill="#404040"><set attributeName="fill" to="#808080" begin="zoomplus.mouseover" end="zoomplus.mouseout"/></use>
    <path d="M-4,0h8M0,-4v8" fill="none" stroke="white" stroke-width="1.5" pointer-events="none"/>
  </g>
  <g id="zoomMin">
    <use xlink:href="#rim" fill="#404040"><set attributeName="fill" to="#808080" begin="zoomminus.mouseover" end="zoomminus.mouseout"/></use>
    <path d="M-4,0h8" fill="none" stroke="white" stroke-width="1.5" pointer-events="none"/>
  </g>
  <g id="arrowUp" transform="translate(30 24)">
    <use xlink:href="#rim"/>
    <path pointer-events="none" fill="none" stroke="white" stroke-width="1.5" d="M0,-3.0v7 M-2.5,-0.5L0,-3.0L2.5,-0.5"/>
  </g>
  <g id="arrowRight" transform="rotate(90) translate(36 -43)">
    <use xlink:href="#rim"/>
    <path pointer-events="none" fill="none" stroke="white" stroke-width="1.5" d="M0,-3.0v7 M-2.5,-0.5L0,-3.0L2.5,-0.5"/>
  </g>
  <g id="arrowDown" transform="rotate(180) translate(-30 -48)">
    <use xlink:href="#rim"/>
    <path pointer-events="none" fill="none" stroke="white" stroke-width="1.5" d="M0,-3.0v7 M-2.5,-0.5L0,-3.0L2.5,-0.5"/>
  </g>
  <g id="arrowLeft" transform="rotate(270) translate(-36 17)">
    <use xlink:href="#rim"/>
    <path pointer-events="none" fill="none" stroke="white" stroke-width="1.5" d="M0,-3.0v7 M-2.5,-0.5L0,-3.0L2.5,-0.5"/>
  </g>
  <g id="resetDef">
    <use xlink:href="#rim2" fill="#404040"><set attributeName="fill" to="#808080" begin="reset.mouseover" end="reset.mouseout"/></use>
  </g>
</defs>
<script type="application/ecmascript">
var viewWidth = 1409;
var viewHeight = 359;
var sectionId = 'dynsection-0';
</script>
<script type="application/ecmascript" xlink:href="../../svg.min.js"/>
<svg id="graph" class="graph">
<g id="viewport">
<title>src/lib/coulex/CoulexCalculation.cc</title>
<!-- Node1 -->
<g id="Node000001" class="node">
<title>Node1</title>
<g id="a_Node000001"><a xlink:title=" ">
<polygon fill="#999999" stroke="#666666" points="1083.83,-350.75 917.83,-350.75 917.83,-331.5 1083.83,-331.5 1083.83,-350.75"/>
<text text-anchor="middle" x="1000.83" y="-337.25" font-family="Helvetica,sans-Serif" font-size="10.00">src/lib/coulex/CoulexCalculation.cc</text>
</a>
</g>
</g>
<!-- Node2 -->
<g id="Node000002" class="node">
<title>Node2</title>
<g id="a_Node000002"><a xlink:title=" ">
<polygon fill="#e0e0e0" stroke="#999999" points="1131.58,-129.75 1078.08,-129.75 1078.08,-110.5 1131.58,-110.5 1131.58,-129.75"/>
<text text-anchor="middle" x="1104.83" y="-116.25" font-family="Helvetica,sans-Serif" font-size="10.00">iostream</text>
</a>
</g>
</g>
<!-- Node1&#45;&gt;Node2 -->
<g id="edge1_Node000001_Node000002" class="edge">
<title>Node1&#45;&gt;Node2</title>
<g id="a_edge1_Node000001_Node000002"><a xlink:title=" ">
<path fill="none" stroke="#63b8ff" d="M1084.26,-338C1152.86,-331.1 1245.01,-308.69 1284.83,-240.25 1301.5,-211.61 1308.3,-191.81 1287.83,-165.75 1270.2,-143.3 1191.49,-130.71 1143.22,-124.98"/>
<polygon fill="#63b8ff" stroke="#63b8ff" points="1143.79,-121.52 1133.46,-123.87 1143,-128.48 1143.79,-121.52"/>
</a>
</g>
</g>
<!-- Node3 -->
<g id="Node000003" class="node">
<title>Node3</title>
<g id="a_Node000003"><a xlink:title=" ">
<polygon fill="#e0e0e0" stroke="#999999" points="952.33,-129.75 903.33,-129.75 903.33,-110.5 952.33,-110.5 952.33,-129.75"/>
<text text-anchor="middle" x="927.83" y="-116.25" font-family="Helvetica,sans-Serif" font-size="10.00">fstream</text>
</a>
</g>
</g>
<!-- Node1&#45;&gt;Node3 -->
<g id="edge2_Node000001_Node000003" class="edge">
<title>Node1&#45;&gt;Node3</title>
<g id="a_edge2_Node000001_Node000003"><a xlink:title=" ">
<path fill="none" stroke="#63b8ff" d="M1042.41,-331.03C1134.5,-309.12 1341.89,-249 1267.83,-165.75 1224.27,-116.78 1045.82,-140.06 963.76,-129.73"/>
<polygon fill="#63b8ff" stroke="#63b8ff" points="964.53,-126.31 954.11,-128.23 963.45,-133.23 964.53,-126.31"/>
</a>
</g>
</g>
<!-- Node4 -->
<g id="Node000004" class="node">
<title>Node4</title>
<g id="a_Node000004"><a xlink:title=" ">
<polygon fill="#e0e0e0" stroke="#999999" points="1071.33,-74.5 1028.33,-74.5 1028.33,-55.25 1071.33,-55.25 1071.33,-74.5"/>
<text text-anchor="middle" x="1049.83" y="-61" font-family="Helvetica,sans-Serif" font-size="10.00">cmath</text>
</a>
</g>
</g>
<!-- Node1&#45;&gt;Node4 -->
<g id="edge3_Node000001_Node000004" class="edge">
<title>Node1&#45;&gt;Node4</title>
<g id="a_edge3_Node000001_Node000004"><a xlink:title=" ">
<path fill="none" stroke="#63b8ff" d="M1083.88,-331.98C1190.76,-319.16 1362.83,-289.53 1362.83,-231.62 1362.83,-231.62 1362.83,-231.62 1362.83,-174.38 1362.83,-115.57 1163.09,-81.48 1082.73,-70.14"/>
<polygon fill="#63b8ff" stroke="#63b8ff" points="1083.23,-66.68 1072.84,-68.78 1082.27,-73.61 1083.23,-66.68"/>
</a>
</g>
</g>
<!-- Node5 -->
<g id="Node000005" class="node">
<title>Node5</title>
<g id="a_Node000005"><a xlink:title=" ">
<polygon fill="#e0e0e0" stroke="#999999" points="756.33,-19.25 713.33,-19.25 713.33,0 756.33,0 756.33,-19.25"/>
<text text-anchor="middle" x="734.83" y="-5.75" font-family="Helvetica,sans-Serif" font-size="10.00">vector</text>
</a>
</g>
</g>
<!-- Node1&#45;&gt;Node5 -->
<g id="edge4_Node000001_Node000005" class="edge">
<title>Node1&#45;&gt;Node5</title>
<g id="a_edge4_Node000001_Node000005"><a xlink:title=" ">
<path fill="none" stroke="#63b8ff" d="M1084.2,-334.37C1201.43,-323.94 1400.83,-296.65 1400.83,-231.62 1400.83,-231.62 1400.83,-231.62 1400.83,-119.12 1400.83,-54.24 901.96,-20.39 767.74,-12.46"/>
<polygon fill="#63b8ff" stroke="#63b8ff" points="768.31,-8.99 758.12,-11.9 767.9,-15.98 768.31,-8.99"/>
</a>
</g>
</g>
<!-- Node6 -->
<g id="Node000006" class="node">
<title>Node6</title>
<g id="a_Node000006"><a xlink:title=" ">
<polygon fill="#e0e0e0" stroke="#999999" points="833.71,-295.5 777.96,-295.5 777.96,-276.25 833.71,-276.25 833.71,-295.5"/>
<text text-anchor="middle" x="805.83" y="-282" font-family="Helvetica,sans-Serif" font-size="10.00">algorithm</text>
</a>
</g>
</g>
<!-- Node1&#45;&gt;Node6 -->
<g id="edge5_Node000001_Node000006" class="edge">
<title>Node1&#45;&gt;Node6</title>
<g id="a_edge5_Node000001_Node000006"><a xlink:title=" ">
<path fill="none" stroke="#63b8ff" d="M967.75,-331.09C933.83,-321.83 881.07,-307.42 845.06,-297.59"/>
<polygon fill="#63b8ff" stroke="#63b8ff" points="846.03,-294.22 835.46,-294.97 844.19,-300.98 846.03,-294.22"/>
</a>
</g>
</g>
<!-- Node7 -->
<g id="Node000007" class="node">
<title>Node7</title>
<g id="a_Node000007"><a xlink:title=" ">
<polygon fill="#e0e0e0" stroke="#999999" points="380.83,-129.75 340.83,-129.75 340.83,-110.5 380.83,-110.5 380.83,-129.75"/>
<text text-anchor="middle" x="360.83" y="-116.25" font-family="Helvetica,sans-Serif" font-size="10.00">string</text>
</a>
</g>
</g>
<!-- Node1&#45;&gt;Node7 -->
<g id="edge6_Node000001_Node000007" class="edge">
<title>Node1&#45;&gt;Node7</title>
<g id="a_edge6_Node000001_Node000007"><a xlink:title=" ">
<path fill="none" stroke="#63b8ff" d="M917.62,-331.31C857.47,-324.06 774.54,-312.24 702.83,-295.5 546.04,-258.9 452.74,-315.06 357.83,-185 348.62,-172.38 350.45,-154.32 353.96,-140.63"/>
<polygon fill="#63b8ff" stroke="#63b8ff" points="357.2,-141.99 356.79,-131.41 350.51,-139.93 357.2,-141.99"/>
</a>
</g>
</g>
<!-- Node8 -->
<g id="Node000008" class="node">
<title>Node8</title>
<g id="a_Node000008"><a xlink:title=" ">
<polygon fill="#e0e0e0" stroke="#999999" points="336.83,-74.5 284.83,-74.5 284.83,-55.25 336.83,-55.25 336.83,-74.5"/>
<text text-anchor="middle" x="310.83" y="-61" font-family="Helvetica,sans-Serif" font-size="10.00">complex</text>
</a>
</g>
</g>
<!-- Node1&#45;&gt;Node8 -->
<g id="edge7_Node000001_Node000008" class="edge">
<title>Node1&#45;&gt;Node8</title>
<g id="a_edge7_Node000001_Node000008"><a xlink:title=" ">
<path fill="none" stroke="#63b8ff" d="M917.72,-339.77C677.76,-337.67 0.83,-323.58 0.83,-231.62 0.83,-231.62 0.83,-231.62 0.83,-174.38 0.83,-144.76 -2.5,-129.96 19.83,-110.5 56.98,-78.12 203.29,-69.2 273.22,-66.77"/>
<polygon fill="#63b8ff" stroke="#63b8ff" points="273.16,-70.27 283.04,-66.46 272.94,-63.28 273.16,-70.27"/>
</a>
</g>
</g>
<!-- Node9 -->
<g id="Node000009" class="node">
<title>Node9</title>
<g id="a_Node000009"><a xlink:href="../../da/da2/_ang_dist_8hh.html" target="_top" xlink:title=" ">
<polygon fill="white" stroke="#666666" points="572.71,-185 474.96,-185 474.96,-165.75 572.71,-165.75 572.71,-185"/>
<text text-anchor="middle" x="523.83" y="-171.5" font-family="Helvetica,sans-Serif" font-size="10.00">angdist/AngDist.hh</text>
</a>
</g>
</g>
<!-- Node1&#45;&gt;Node9 -->
<g id="edge8_Node000001_Node000009" class="edge">
<title>Node1&#45;&gt;Node9</title>
<g id="a_edge8_Node000001_Node000009"><a xlink:title=" ">
<path fill="none" stroke="#63b8ff" d="M937.61,-331.01C890.57,-323.5 825.05,-311.49 768.83,-295.5 702.5,-276.64 685.44,-271.25 623.83,-240.25 595.47,-225.98 565.01,-205.74 545.26,-191.89"/>
<polygon fill="#63b8ff" stroke="#63b8ff" points="547.39,-189.11 537.21,-186.17 543.34,-194.81 547.39,-189.11"/>
</a>
</g>
</g>
<!-- Node14 -->
<g id="Node000014" class="node">
<title>Node14</title>
<g id="a_Node000014"><a xlink:href="../../df/d32/_misc_8hh.html" target="_top" xlink:title=" ">
<polygon fill="white" stroke="#666666" points="982.33,-185 903.33,-185 903.33,-165.75 982.33,-165.75 982.33,-185"/>
<text text-anchor="middle" x="942.83" y="-171.5" font-family="Helvetica,sans-Serif" font-size="10.00">toolkit/Misc.hh</text>
</a>
</g>
</g>
<!-- Node1&#45;&gt;Node14 -->
<g id="edge22_Node000001_Node000014" class="edge">
<title>Node1&#45;&gt;Node14</title>
<g id="a_edge22_Node000001_Node000014"><a xlink:title=" ">
<path fill="none" stroke="#63b8ff" d="M1003.23,-331.25C1006.2,-318.72 1010.26,-295.27 1004.83,-276.25 995.78,-244.5 973.4,-212.98 958.16,-194.09"/>
<polygon fill="#63b8ff" stroke="#63b8ff" points="961.01,-192.04 951.92,-186.59 955.63,-196.52 961.01,-192.04"/>
</a>
</g>
</g>
<!-- Node15 -->
<g id="Node000015" class="node">
<title>Node15</title>
<g id="a_Node000015"><a xlink:href="../../d7/db9/_utilities_8hh.html" target="_top" xlink:title=" ">
<polygon fill="white" stroke="#666666" points="267.21,-185 184.46,-185 184.46,-165.75 267.21,-165.75 267.21,-185"/>
<text text-anchor="middle" x="225.83" y="-171.5" font-family="Helvetica,sans-Serif" font-size="10.00">utils/Utilities.hh</text>
</a>
</g>
</g>
<!-- Node1&#45;&gt;Node15 -->
<g id="edge23_Node000001_Node000015" class="edge">
<title>Node1&#45;&gt;Node15</title>
<g id="a_edge23_Node000001_Node000015"><a xlink:title=" ">
<path fill="none" stroke="#63b8ff" d="M917.63,-339.71C739.31,-338.14 332.29,-330.71 280.83,-295.5 247.4,-272.62 233.87,-224.04 228.73,-196.51"/>
<polygon fill="#63b8ff" stroke="#63b8ff" points="232.19,-195.99 227.12,-186.69 225.29,-197.13 232.19,-195.99"/>
</a>
</g>
</g>
<!-- Node20 -->
<g id="Node000020" class="node">
<title>Node20</title>
<g id="a_Node000020"><a xlink:href="../../d5/d35/_eloss_8hh.html" target="_top" xlink:title=" ">
<polygon fill="white" stroke="#666666" points="1091.21,-185 1038.46,-185 1038.46,-165.75 1091.21,-165.75 1091.21,-185"/>
<text text-anchor="middle" x="1064.83" y="-171.5" font-family="Helvetica,sans-Serif" font-size="10.00">Eloss.hh</text>
</a>
</g>
</g>
<!-- Node1&#45;&gt;Node20 -->
<g id="edge31_Node000001_Node000020" class="edge">
<title>Node1&#45;&gt;Node20</title>
<g id="a_edge31_Node000001_Node000020"><a xlink:title=" ">
<path fill="none" stroke="#63b8ff" d="M1004.73,-331.28C1008.64,-322.31 1014.81,-308 1019.83,-295.5 1033.79,-260.73 1048.99,-219.8 1057.67,-196.09"/>
<polygon fill="#63b8ff" stroke="#63b8ff" points="1060.91,-197.41 1061.05,-186.81 1054.34,-195.01 1060.91,-197.41"/>
</a>
</g>
</g>
<!-- Node22 -->
<g id="Node000022" class="node">
<title>Node22</title>
<g id="a_Node000022"><a xlink:href="../../db/d0f/_w_d_b_subs_8hh.html" target="_top" xlink:title=" ">
<polygon fill="white" stroke="#666666" points="1258.71,-185 1184.96,-185 1184.96,-165.75 1258.71,-165.75 1258.71,-185"/>
<text text-anchor="middle" x="1221.83" y="-171.5" font-family="Helvetica,sans-Serif" font-size="10.00">WDBSubs.hh</text>
</a>
</g>
</g>
<!-- Node1&#45;&gt;Node22 -->
<g id="edge37_Node000001_Node000022" class="edge">
<title>Node1&#45;&gt;Node22</title>
<g id="a_edge37_Node000001_Node000022"><a xlink:title=" ">
<path fill="none" stroke="#63b8ff" d="M1023.69,-331.05C1059.35,-316.1 1129.08,-283.56 1176.83,-240.25 1191.26,-227.16 1203.66,-208.66 1211.77,-194.93"/>
<polygon fill="#63b8ff" stroke="#63b8ff" points="1214.69,-196.89 1216.56,-186.46 1208.59,-193.44 1214.69,-196.89"/>
</a>
</g>
</g>
<!-- Node23 -->
<g id="Node000023" class="node">
<title>Node23</title>
<g id="a_Node000023"><a xlink:href="../../df/d7f/_coulex_8hh.html" target="_top" xlink:title=" ">
<polygon fill="white" stroke="#666666" points="747.83,-240.25 689.83,-240.25 689.83,-221 747.83,-221 747.83,-240.25"/>
<text text-anchor="middle" x="718.83" y="-226.75" font-family="Helvetica,sans-Serif" font-size="10.00">Coulex.hh</text>
</a>
</g>
</g>
<!-- Node1&#45;&gt;Node23 -->
<g id="edge38_Node000001_Node000023" class="edge">
<title>Node1&#45;&gt;Node23</title>
<g id="a_edge38_Node000001_Node000023"><a xlink:title=" ">
<path fill="none" stroke="#63b8ff" d="M973.8,-331.05C949.25,-322.58 912.19,-309.22 880.83,-295.5 863.49,-287.91 860.22,-283.75 842.83,-276.25 814.78,-264.15 782.25,-252.53 757.55,-244.18"/>
<polygon fill="#63b8ff" stroke="#63b8ff" points="758.82,-240.92 748.23,-241.07 756.6,-247.56 758.82,-240.92"/>
</a>
</g>
</g>
<!-- Node26 -->
<g id="Node000026" class="node">
<title>Node26</title>
<g id="a_Node000026"><a xlink:href="../../db/dba/_coulex_calculation_8hh.html" target="_top" xlink:title=" ">
<polygon fill="white" stroke="#666666" points="995.83,-295.5 889.83,-295.5 889.83,-276.25 995.83,-276.25 995.83,-295.5"/>
<text text-anchor="middle" x="942.83" y="-282" font-family="Helvetica,sans-Serif" font-size="10.00">CoulexCalculation.hh</text>
</a>
</g>
</g>
<!-- Node1&#45;&gt;Node26 -->
<g id="edge51_Node000001_Node000026" class="edge">
<title>Node1&#45;&gt;Node26</title>
<g id="a_edge51_Node000001_Node000026"><a xlink:title=" ">
<path fill="none" stroke="#63b8ff" d="M990.99,-331.09C982.78,-323.55 970.85,-312.6 960.92,-303.48"/>
<polygon fill="#63b8ff" stroke="#63b8ff" points="963.37,-300.98 953.64,-296.8 958.64,-306.14 963.37,-300.98"/>
</a>
</g>
</g>
<!-- Node9&#45;&gt;Node5 -->
<g id="edge9_Node000009_Node000005" class="edge">
<title>Node9&#45;&gt;Node5</title>
<g id="a_edge9_Node000009_Node000005"><a xlink:title=" ">
<path fill="none" stroke="#63b8ff" d="M564.7,-165.29C591.79,-158.16 627.43,-146.59 655.83,-129.75 687.01,-111.26 696.64,-105.25 715.83,-74.5 724.19,-61.11 729.03,-43.86 731.74,-30.65"/>
<polygon fill="#63b8ff" stroke="#63b8ff" points="735.15,-31.45 733.45,-20.99 728.26,-30.22 735.15,-31.45"/>
</a>
</g>
</g>
<!-- Node9&#45;&gt;Node8 -->
<g id="edge10_Node000009_Node000008" class="edge">
<title>Node9&#45;&gt;Node8</title>
<g id="a_edge10_Node000009_Node000008"><a xlink:title=" ">
<path fill="none" stroke="#63b8ff" d="M517.52,-165.56C507.2,-151.8 485.4,-125.25 460.83,-110.5 451.04,-104.62 389.37,-87.2 348.21,-75.95"/>
<polygon fill="#63b8ff" stroke="#63b8ff" points="349.24,-72.6 338.67,-73.35 347.4,-79.35 349.24,-72.6"/>
</a>
</g>
</g>
<!-- Node10 -->
<g id="Node000010" class="node">
<title>Node10</title>
<g id="a_Node000010"><a xlink:title=" ">
<polygon fill="#e0e0e0" stroke="#999999" points="412.83,-74.5 354.83,-74.5 354.83,-55.25 412.83,-55.25 412.83,-74.5"/>
<text text-anchor="middle" x="383.83" y="-61" font-family="Helvetica,sans-Serif" font-size="10.00">functional</text>
</a>
</g>
</g>
<!-- Node9&#45;&gt;Node10 -->
<g id="edge11_Node000009_Node000010" class="edge">
<title>Node9&#45;&gt;Node10</title>
<g id="a_edge11_Node000009_Node000010"><a xlink:title=" ">
<path fill="none" stroke="#63b8ff" d="M522.62,-165.29C520.34,-151.63 514.18,-125.8 498.83,-110.5 487.89,-99.59 452.73,-86.79 424.13,-77.71"/>
<polygon fill="#63b8ff" stroke="#63b8ff" points="425.2,-74.38 414.61,-74.75 423.12,-81.06 425.2,-74.38"/>
</a>
</g>
</g>
<!-- Node11 -->
<g id="Node000011" class="node">
<title>Node11</title>
<g id="a_Node000011"><a xlink:href="../../de/dcb/_solid_attenuation_8hh.html" target="_top" xlink:title=" ">
<polygon fill="white" stroke="#666666" points="706.83,-74.5 606.83,-74.5 606.83,-55.25 706.83,-55.25 706.83,-74.5"/>
<text text-anchor="middle" x="656.83" y="-61" font-family="Helvetica,sans-Serif" font-size="10.00">SolidAttenuation.hh</text>
</a>
</g>
</g>
<!-- Node9&#45;&gt;Node11 -->
<g id="edge12_Node000009_Node000011" class="edge">
<title>Node9&#45;&gt;Node11</title>
<g id="a_edge12_Node000009_Node000011"><a xlink:title=" ">
<path fill="none" stroke="#63b8ff" d="M571.07,-165.3C593.37,-158.81 618.77,-147.9 635.83,-129.75 646.97,-117.9 652.21,-100.03 654.67,-86.2"/>
<polygon fill="#63b8ff" stroke="#63b8ff" points="658.11,-86.81 656.02,-76.42 651.18,-85.84 658.11,-86.81"/>
</a>
</g>
</g>
<!-- Node12 -->
<g id="Node000012" class="node">
<title>Node12</title>
<g id="a_Node000012"><a xlink:href="../../da/da6/_stat_tensor_8hh.html" target="_top" xlink:title=" ">
<polygon fill="white" stroke="#666666" points="627.21,-129.75 550.46,-129.75 550.46,-110.5 627.21,-110.5 627.21,-129.75"/>
<text text-anchor="middle" x="588.83" y="-116.25" font-family="Helvetica,sans-Serif" font-size="10.00">StatTensor.hh</text>
</a>
</g>
</g>
<!-- Node9&#45;&gt;Node12 -->
<g id="edge14_Node000009_Node000012" class="edge">
<title>Node9&#45;&gt;Node12</title>
<g id="a_edge14_Node000009_Node000012"><a xlink:title=" ">
<path fill="none" stroke="#63b8ff" d="M534.86,-165.34C544.25,-157.65 557.98,-146.4 569.24,-137.18"/>
<polygon fill="#63b8ff" stroke="#63b8ff" points="571.28,-140.03 576.8,-130.98 566.84,-134.61 571.28,-140.03"/>
</a>
</g>
</g>
<!-- Node11&#45;&gt;Node5 -->
<g id="edge13_Node000011_Node000005" class="edge">
<title>Node11&#45;&gt;Node5</title>
<g id="a_edge13_Node000011_Node000005"><a xlink:title=" ">
<path fill="none" stroke="#63b8ff" d="M670.06,-54.84C681.61,-46.96 698.6,-35.36 712.28,-26.02"/>
<polygon fill="#63b8ff" stroke="#63b8ff" points="714,-29.08 720.29,-20.56 710.05,-23.3 714,-29.08"/>
</a>
</g>
</g>
<!-- Node12&#45;&gt;Node4 -->
<g id="edge15_Node000012_Node000004" class="edge">
<title>Node12&#45;&gt;Node4</title>
<g id="a_edge15_Node000012_Node000004"><a xlink:title=" ">
<path fill="none" stroke="#63b8ff" d="M627.34,-114.68C716.03,-104.43 933.45,-79.32 1016.68,-69.7"/>
<polygon fill="#63b8ff" stroke="#63b8ff" points="1016.92,-73.2 1026.45,-68.58 1016.11,-66.25 1016.92,-73.2"/>
</a>
</g>
</g>
<!-- Node12&#45;&gt;Node5 -->
<g id="edge17_Node000012_Node000005" class="edge">
<title>Node12&#45;&gt;Node5</title>
<g id="a_edge17_Node000012_Node000005"><a xlink:title=" ">
<path fill="none" stroke="#63b8ff" d="M550.16,-114.06C502.58,-106.28 431.41,-88.65 459.83,-55.25 490.52,-19.18 635.15,-12.18 701.47,-10.88"/>
<polygon fill="#63b8ff" stroke="#63b8ff" points="701.43,-14.39 711.38,-10.73 701.32,-7.39 701.43,-14.39"/>
</a>
</g>
</g>
<!-- Node12&#45;&gt;Node8 -->
<g id="edge16_Node000012_Node000008" class="edge">
<title>Node12&#45;&gt;Node8</title>
<g id="a_edge16_Node000012_Node000008"><a xlink:title=" ">
<path fill="none" stroke="#63b8ff" d="M549.97,-112.73C504.04,-105 425.05,-91.22 348.02,-74.87"/>
<polygon fill="#63b8ff" stroke="#63b8ff" points="349.16,-71.53 338.65,-72.86 347.69,-78.38 349.16,-71.53"/>
</a>
</g>
</g>
<!-- Node12&#45;&gt;Node10 -->
<g id="edge18_Node000012_Node000010" class="edge">
<title>Node12&#45;&gt;Node10</title>
<g id="a_edge18_Node000012_Node000010"><a xlink:title=" ">
<path fill="none" stroke="#63b8ff" d="M554.06,-110.09C518.13,-100.76 462.12,-86.21 424.25,-76.37"/>
<polygon fill="#63b8ff" stroke="#63b8ff" points="425.15,-72.99 414.59,-73.86 423.39,-79.77 425.15,-72.99"/>
</a>
</g>
</g>
<!-- Node12&#45;&gt;Node11 -->
<g id="edge21_Node000012_Node000011" class="edge">
<title>Node12&#45;&gt;Node11</title>
<g id="a_edge21_Node000012_Node000011"><a xlink:title=" ">
<path fill="none" stroke="#63b8ff" d="M600.37,-110.09C610.29,-102.32 624.84,-90.92 636.69,-81.65"/>
<polygon fill="#63b8ff" stroke="#63b8ff" points="638.56,-84.63 644.28,-75.71 634.24,-79.12 638.56,-84.63"/>
</a>
</g>
</g>
<!-- Node13 -->
<g id="Node000013" class="node">
<title>Node13</title>
<g id="a_Node000013"><a xlink:href="../../d0/d3d/_population_parameter_8hh.html" target="_top" xlink:title=" ">
<polygon fill="white" stroke="#666666" points="588.58,-74.5 469.08,-74.5 469.08,-55.25 588.58,-55.25 588.58,-74.5"/>
<text text-anchor="middle" x="528.83" y="-61" font-family="Helvetica,sans-Serif" font-size="10.00">PopulationParameter.hh</text>
</a>
</g>
</g>
<!-- Node12&#45;&gt;Node13 -->
<g id="edge19_Node000012_Node000013" class="edge">
<title>Node12&#45;&gt;Node13</title>
<g id="a_edge19_Node000012_Node000013"><a xlink:title=" ">
<path fill="none" stroke="#63b8ff" d="M578.65,-110.09C570.07,-102.47 557.56,-91.37 547.23,-82.2"/>
<polygon fill="#63b8ff" stroke="#63b8ff" points="549.79,-79.8 539.99,-75.78 545.15,-85.04 549.79,-79.8"/>
</a>
</g>
</g>
<!-- Node13&#45;&gt;Node5 -->
<g id="edge20_Node000013_Node000005" class="edge">
<title>Node13&#45;&gt;Node5</title>
<g id="a_edge20_Node000013_Node000005"><a xlink:title=" ">
<path fill="none" stroke="#63b8ff" d="M563.78,-54.84C602.48,-44.84 664.37,-28.84 702.14,-19.08"/>
<polygon fill="#63b8ff" stroke="#63b8ff" points="702.76,-22.53 711.57,-16.64 701.01,-15.75 702.76,-22.53"/>
</a>
</g>
</g>
<!-- Node15&#45;&gt;Node3 -->
<g id="edge25_Node000015_Node000003" class="edge">
<title>Node15&#45;&gt;Node3</title>
<g id="a_edge25_Node000015_Node000003"><a xlink:title=" ">
<path fill="none" stroke="#63b8ff" d="M267.64,-171.2C394.35,-161.59 772.65,-132.9 891.61,-123.87"/>
<polygon fill="#63b8ff" stroke="#63b8ff" points="891.71,-127.38 901.42,-123.13 891.18,-120.4 891.71,-127.38"/>
</a>
</g>
</g>
<!-- Node15&#45;&gt;Node7 -->
<g id="edge24_Node000015_Node000007" class="edge">
<title>Node15&#45;&gt;Node7</title>
<g id="a_edge24_Node000015_Node000007"><a xlink:title=" ">
<path fill="none" stroke="#63b8ff" d="M248.73,-165.34C271.04,-156.54 305.12,-143.1 329.85,-133.35"/>
<polygon fill="#63b8ff" stroke="#63b8ff" points="331.05,-136.64 339.06,-129.71 328.48,-130.12 331.05,-136.64"/>
</a>
</g>
</g>
<!-- Node15&#45;&gt;Node8 -->
<g id="edge26_Node000015_Node000008" class="edge">
<title>Node15&#45;&gt;Node8</title>
<g id="a_edge26_Node000015_Node000008"><a xlink:title=" ">
<path fill="none" stroke="#63b8ff" d="M247.3,-165.38C262.46,-157.96 282.1,-146.01 293.83,-129.75 302.99,-117.06 307.22,-99.76 309.16,-86.36"/>
<polygon fill="#63b8ff" stroke="#63b8ff" points="312.64,-86.82 310.26,-76.5 305.68,-86.05 312.64,-86.82"/>
</a>
</g>
</g>
<!-- Node16 -->
<g id="Node000016" class="node">
<title>Node16</title>
<g id="a_Node000016"><a xlink:title=" ">
<polygon fill="#e0e0e0" stroke="#999999" points="165.08,-129.75 102.58,-129.75 102.58,-110.5 165.08,-110.5 165.08,-129.75"/>
<text text-anchor="middle" x="133.83" y="-116.25" font-family="Helvetica,sans-Serif" font-size="10.00">TCanvas.h</text>
</a>
</g>
</g>
<!-- Node15&#45;&gt;Node16 -->
<g id="edge27_Node000015_Node000016" class="edge">
<title>Node15&#45;&gt;Node16</title>
<g id="a_edge27_Node000015_Node000016"><a xlink:title=" ">
<path fill="none" stroke="#63b8ff" d="M210.23,-165.34C196.22,-157.23 175.4,-145.18 159.03,-135.71"/>
<polygon fill="#63b8ff" stroke="#63b8ff" points="161.23,-132.94 150.82,-130.96 157.73,-139 161.23,-132.94"/>
</a>
</g>
</g>
<!-- Node17 -->
<g id="Node000017" class="node">
<title>Node17</title>
<g id="a_Node000017"><a xlink:title=" ">
<polygon fill="#e0e0e0" stroke="#999999" points="224.96,-129.75 182.71,-129.75 182.71,-110.5 224.96,-110.5 224.96,-129.75"/>
<text text-anchor="middle" x="203.83" y="-116.25" font-family="Helvetica,sans-Serif" font-size="10.00">TH1.h</text>
</a>
</g>
</g>
<!-- Node15&#45;&gt;Node17 -->
<g id="edge28_Node000015_Node000017" class="edge">
<title>Node15&#45;&gt;Node17</title>
<g id="a_edge28_Node000015_Node000017"><a xlink:title=" ">
<path fill="none" stroke="#63b8ff" d="M222.2,-165.58C219.41,-158.84 215.46,-149.27 211.94,-140.74"/>
<polygon fill="#63b8ff" stroke="#63b8ff" points="215.17,-139.41 208.12,-131.51 208.71,-142.09 215.17,-139.41"/>
</a>
</g>
</g>
<!-- Node18 -->
<g id="Node000018" class="node">
<title>Node18</title>
<g id="a_Node000018"><a xlink:title=" ">
<polygon fill="#e0e0e0" stroke="#999999" points="284.96,-129.75 242.71,-129.75 242.71,-110.5 284.96,-110.5 284.96,-129.75"/>
<text text-anchor="middle" x="263.83" y="-116.25" font-family="Helvetica,sans-Serif" font-size="10.00">TH2.h</text>
</a>
</g>
</g>
<!-- Node15&#45;&gt;Node18 -->
<g id="edge29_Node000015_Node000018" class="edge">
<title>Node15&#45;&gt;Node18</title>
<g id="a_edge29_Node000015_Node000018"><a xlink:title=" ">
<path fill="none" stroke="#63b8ff" d="M232.11,-165.58C237.19,-158.46 244.53,-148.18 250.86,-139.3"/>
<polygon fill="#63b8ff" stroke="#63b8ff" points="253.58,-141.51 256.54,-131.34 247.88,-137.45 253.58,-141.51"/>
</a>
</g>
</g>
<!-- Node19 -->
<g id="Node000019" class="node">
<title>Node19</title>
<g id="a_Node000019"><a xlink:title=" ">
<polygon fill="#e0e0e0" stroke="#999999" points="84.71,-129.75 28.96,-129.75 28.96,-110.5 84.71,-110.5 84.71,-129.75"/>
<text text-anchor="middle" x="56.83" y="-116.25" font-family="Helvetica,sans-Serif" font-size="10.00">TGraph.h</text>
</a>
</g>
</g>
<!-- Node15&#45;&gt;Node19 -->
<g id="edge30_Node000015_Node000019" class="edge">
<title>Node15&#45;&gt;Node19</title>
<g id="a_edge30_Node000015_Node000019"><a xlink:title=" ">
<path fill="none" stroke="#63b8ff" d="M197.16,-165.34C169.32,-156.57 126.83,-143.18 95.9,-133.44"/>
<polygon fill="#63b8ff" stroke="#63b8ff" points="97.11,-130.15 86.52,-130.48 95.01,-136.82 97.11,-130.15"/>
</a>
</g>
</g>
<!-- Node20&#45;&gt;Node2 -->
<g id="edge32_Node000020_Node000002" class="edge">
<title>Node20&#45;&gt;Node2</title>
<g id="a_edge32_Node000020_Node000002"><a xlink:title=" ">
<path fill="none" stroke="#63b8ff" d="M1071.44,-165.58C1076.79,-158.46 1084.51,-148.18 1091.18,-139.3"/>
<polygon fill="#63b8ff" stroke="#63b8ff" points="1093.97,-141.42 1097.17,-131.32 1088.37,-137.21 1093.97,-141.42"/>
</a>
</g>
</g>
<!-- Node20&#45;&gt;Node3 -->
<g id="edge34_Node000020_Node000003" class="edge">
<title>Node20&#45;&gt;Node3</title>
<g id="a_edge34_Node000020_Node000003"><a xlink:title=" ">
<path fill="none" stroke="#63b8ff" d="M1041.59,-165.34C1019.65,-156.81 986.48,-143.92 961.62,-134.26"/>
<polygon fill="#63b8ff" stroke="#63b8ff" points="963.19,-131.11 952.6,-130.75 960.65,-137.64 963.19,-131.11"/>
</a>
</g>
</g>
<!-- Node20&#45;&gt;Node4 -->
<g id="edge35_Node000020_Node000004" class="edge">
<title>Node20&#45;&gt;Node4</title>
<g id="a_edge35_Node000020_Node000004"><a xlink:title=" ">
<path fill="none" stroke="#63b8ff" d="M1063.6,-165.5C1061.22,-148.25 1055.91,-109.83 1052.62,-86.06"/>
<polygon fill="#63b8ff" stroke="#63b8ff" points="1056.12,-85.8 1051.28,-76.38 1049.19,-86.76 1056.12,-85.8"/>
</a>
</g>
</g>
<!-- Node20&#45;&gt;Node7 -->
<g id="edge33_Node000020_Node000007" class="edge">
<title>Node20&#45;&gt;Node7</title>
<g id="a_edge33_Node000020_Node000007"><a xlink:title=" ">
<path fill="none" stroke="#63b8ff" d="M1038.17,-170.92C1024.35,-169.21 1007.21,-167.2 991.83,-165.75 762.41,-144.1 485.16,-127.96 392.62,-122.84"/>
<polygon fill="#63b8ff" stroke="#63b8ff" points="392.98,-119.36 382.8,-122.3 392.59,-126.35 392.98,-119.36"/>
</a>
</g>
</g>
<!-- Node21 -->
<g id="Node000021" class="node">
<title>Node21</title>
<g id="a_Node000021"><a xlink:title=" ">
<polygon fill="#e0e0e0" stroke="#999999" points="1021.46,-129.75 970.21,-129.75 970.21,-110.5 1021.46,-110.5 1021.46,-129.75"/>
<text text-anchor="middle" x="995.83" y="-116.25" font-family="Helvetica,sans-Serif" font-size="10.00">sstream</text>
</a>
</g>
</g>
<!-- Node20&#45;&gt;Node21 -->
<g id="edge36_Node000020_Node000021" class="edge">
<title>Node20&#45;&gt;Node21</title>
<g id="a_edge36_Node000020_Node000021"><a xlink:title=" ">
<path fill="none" stroke="#63b8ff" d="M1053.13,-165.34C1043.05,-157.57 1028.29,-146.17 1016.27,-136.9"/>
<polygon fill="#63b8ff" stroke="#63b8ff" points="1018.62,-134.29 1008.56,-130.95 1014.34,-139.83 1018.62,-134.29"/>
</a>
</g>
</g>
<!-- Node23&#45;&gt;Node2 -->
<g id="edge39_Node000023_Node000002" class="edge">
<title>Node23&#45;&gt;Node2</title>
<g id="a_edge39_Node000023_Node000002"><a xlink:title=" ">
<path fill="none" stroke="#63b8ff" d="M718.02,-220.63C717.3,-206.61 718.21,-179.73 733.83,-165.75 735.38,-164.37 971.76,-136.65 1066.35,-125.61"/>
<polygon fill="#63b8ff" stroke="#63b8ff" points="1066.65,-129.1 1076.18,-124.46 1065.84,-122.15 1066.65,-129.1"/>
</a>
</g>
</g>
<!-- Node23&#45;&gt;Node3 -->
<g id="edge40_Node000023_Node000003" class="edge">
<title>Node23&#45;&gt;Node3</title>
<g id="a_edge40_Node000023_Node000003"><a xlink:title=" ">
<path fill="none" stroke="#63b8ff" d="M711.85,-220.76C702.23,-207.4 687.51,-181.94 700.83,-165.75 724.58,-136.88 833.84,-126.4 891.68,-122.83"/>
<polygon fill="#63b8ff" stroke="#63b8ff" points="891.56,-126.34 901.35,-122.27 891.16,-119.35 891.56,-126.34"/>
</a>
</g>
</g>
<!-- Node23&#45;&gt;Node4 -->
<g id="edge41_Node000023_Node000004" class="edge">
<title>Node23&#45;&gt;Node4</title>
<g id="a_edge41_Node000023_Node000004"><a xlink:title=" ">
<path fill="none" stroke="#63b8ff" d="M709.64,-220.64C697.4,-207.58 678.73,-183.01 691.83,-165.75 711.95,-139.24 932.13,-90.6 1016.86,-72.71"/>
<polygon fill="#63b8ff" stroke="#63b8ff" points="1017.34,-76.19 1026.4,-70.71 1015.9,-69.34 1017.34,-76.19"/>
</a>
</g>
</g>
<!-- Node23&#45;&gt;Node5 -->
<g id="edge42_Node000023_Node000005" class="edge">
<title>Node23&#45;&gt;Node5</title>
<g id="a_edge42_Node000023_Node000005"><a xlink:title=" ">
<path fill="none" stroke="#63b8ff" d="M708.62,-220.52C700.14,-212.23 688.72,-199.15 683.83,-185 681.04,-176.91 681.71,-174.04 683.83,-165.75 695.3,-120.95 722.01,-119.21 733.83,-74.5 737.62,-60.19 737.73,-43.43 736.96,-30.67"/>
<polygon fill="#63b8ff" stroke="#63b8ff" points="740.48,-30.66 736.14,-20.99 733.5,-31.25 740.48,-30.66"/>
</a>
</g>
</g>
<!-- Node23&#45;&gt;Node7 -->
<g id="edge44_Node000023_Node000007" class="edge">
<title>Node23&#45;&gt;Node7</title>
<g id="a_edge44_Node000023_Node000007"><a xlink:title=" ">
<path fill="none" stroke="#63b8ff" d="M689.67,-230.37C636.13,-230.61 519.66,-225.9 432.83,-185 409.55,-174.03 388.22,-153.14 374.92,-138.23"/>
<polygon fill="#63b8ff" stroke="#63b8ff" points="377.89,-136.32 368.72,-131.02 372.58,-140.88 377.89,-136.32"/>
</a>
</g>
</g>
<!-- Node23&#45;&gt;Node8 -->
<g id="edge45_Node000023_Node000008" class="edge">
<title>Node23&#45;&gt;Node8</title>
<g id="a_edge45_Node000023_Node000008"><a xlink:title=" ">
<path fill="none" stroke="#63b8ff" d="M689.55,-227.55C630.92,-222.91 501.63,-210.07 465.83,-185 434.52,-163.07 451.74,-135.51 422.83,-110.5 411.16,-100.4 375.79,-87.14 347.88,-77.7"/>
<polygon fill="#63b8ff" stroke="#63b8ff" points="349.27,-74.47 338.67,-74.64 347.06,-81.11 349.27,-74.47"/>
</a>
</g>
</g>
<!-- Node23&#45;&gt;Node9 -->
<g id="edge48_Node000023_Node000009" class="edge">
<title>Node23&#45;&gt;Node9</title>
<g id="a_edge48_Node000023_Node000009"><a xlink:title=" ">
<path fill="none" stroke="#63b8ff" d="M689.64,-221.65C657.48,-212.87 605.39,-198.65 568.18,-188.49"/>
<polygon fill="#63b8ff" stroke="#63b8ff" points="569.18,-185.13 558.61,-185.87 567.34,-191.88 569.18,-185.13"/>
</a>
</g>
</g>
<!-- Node23&#45;&gt;Node14 -->
<g id="edge47_Node000023_Node000014" class="edge">
<title>Node23&#45;&gt;Node14</title>
<g id="a_edge47_Node000023_Node000014"><a xlink:title=" ">
<path fill="none" stroke="#63b8ff" d="M748.12,-222.66C784.99,-213.9 848.89,-198.71 893.39,-188.13"/>
<polygon fill="#63b8ff" stroke="#63b8ff" points="894.15,-191.55 903.07,-185.83 892.53,-184.74 894.15,-191.55"/>
</a>
</g>
</g>
<!-- Node23&#45;&gt;Node20 -->
<g id="edge49_Node000023_Node000020" class="edge">
<title>Node23&#45;&gt;Node20</title>
<g id="a_edge49_Node000023_Node000020"><a xlink:title=" ">
<path fill="none" stroke="#63b8ff" d="M748.33,-225.08C811.05,-215.43 957.58,-192.88 1027.03,-182.19"/>
<polygon fill="#63b8ff" stroke="#63b8ff" points="1027.44,-185.67 1036.79,-180.69 1026.37,-178.75 1027.44,-185.67"/>
</a>
</g>
</g>
<!-- Node23&#45;&gt;Node22 -->
<g id="edge50_Node000023_Node000022" class="edge">
<title>Node23&#45;&gt;Node22</title>
<g id="a_edge50_Node000023_Node000022"><a xlink:title=" ">
<path fill="none" stroke="#63b8ff" d="M748.05,-226.53C831.23,-217.73 1069.95,-192.45 1173.24,-181.52"/>
<polygon fill="#63b8ff" stroke="#63b8ff" points="1173.48,-185.01 1183.05,-180.48 1172.74,-178.05 1173.48,-185.01"/>
</a>
</g>
</g>
<!-- Node24 -->
<g id="Node000024" class="node">
<title>Node24</title>
<g id="a_Node000024"><a xlink:title=" ">
<polygon fill="#e0e0e0" stroke="#999999" points="777.21,-185 742.46,-185 742.46,-165.75 777.21,-165.75 777.21,-185"/>
<text text-anchor="middle" x="759.83" y="-171.5" font-family="Helvetica,sans-Serif" font-size="10.00">map</text>
</a>
</g>
</g>
<!-- Node23&#45;&gt;Node24 -->
<g id="edge43_Node000023_Node000024" class="edge">
<title>Node23&#45;&gt;Node24</title>
<g id="a_edge43_Node000023_Node000024"><a xlink:title=" ">
<path fill="none" stroke="#63b8ff" d="M725.6,-220.83C731.15,-213.63 739.17,-203.21 746.06,-194.26"/>
<polygon fill="#63b8ff" stroke="#63b8ff" points="748.66,-196.62 751.99,-186.56 743.12,-192.35 748.66,-196.62"/>
</a>
</g>
</g>
<!-- Node25 -->
<g id="Node000025" class="node">
<title>Node25</title>
<g id="a_Node000025"><a xlink:title=" ">
<polygon fill="#e0e0e0" stroke="#999999" points="846.46,-185 795.21,-185 795.21,-165.75 846.46,-165.75 846.46,-185"/>
<text text-anchor="middle" x="820.83" y="-171.5" font-family="Helvetica,sans-Serif" font-size="10.00">TMath.h</text>
</a>
</g>
</g>
<!-- Node23&#45;&gt;Node25 -->
<g id="edge46_Node000023_Node000025" class="edge">
<title>Node23&#45;&gt;Node25</title>
<g id="a_edge46_Node000023_Node000025"><a xlink:title=" ">
<path fill="none" stroke="#63b8ff" d="M736.13,-220.59C751.81,-212.41 775.18,-200.21 793.41,-190.69"/>
<polygon fill="#63b8ff" stroke="#63b8ff" points="794.86,-193.88 802.1,-186.15 791.62,-187.68 794.86,-193.88"/>
</a>
</g>
</g>
<!-- Node26&#45;&gt;Node2 -->
<g id="edge52_Node000026_Node000002" class="edge">
<title>Node26&#45;&gt;Node2</title>
<g id="a_edge52_Node000026_Node000002"><a xlink:title=" ">
<path fill="none" stroke="#63b8ff" d="M971.93,-275.83C1009.07,-262.57 1071.86,-233.94 1099.83,-185 1107.36,-171.83 1108.29,-154.56 1107.51,-141.3"/>
<polygon fill="#63b8ff" stroke="#63b8ff" points="1111.01,-141.19 1106.55,-131.58 1104.05,-141.88 1111.01,-141.19"/>
</a>
</g>
</g>
<!-- Node26&#45;&gt;Node3 -->
<g id="edge53_Node000026_Node000003" class="edge">
<title>Node26&#45;&gt;Node3</title>
<g id="a_edge53_Node000026_Node000003"><a xlink:title=" ">
<path fill="none" stroke="#63b8ff" d="M951.81,-275.96C970.98,-255.81 1012.52,-205.4 991.83,-165.75 985.03,-152.71 972.48,-142.7 960.28,-135.5"/>
<polygon fill="#63b8ff" stroke="#63b8ff" points="962.06,-132.48 951.59,-130.83 958.74,-138.65 962.06,-132.48"/>
</a>
</g>
</g>
<!-- Node26&#45;&gt;Node4 -->
<g id="edge54_Node000026_Node000004" class="edge">
<title>Node26&#45;&gt;Node4</title>
<g id="a_edge54_Node000026_Node000004"><a xlink:title=" ">
<path fill="none" stroke="#63b8ff" d="M985.75,-275.82C1011.68,-268.95 1044.5,-257.65 1069.83,-240.25 1096.4,-222 1099.78,-212.36 1116.83,-185 1135.23,-155.48 1159.23,-140.02 1140.83,-110.5 1128.11,-90.09 1103.03,-78.75 1082.42,-72.62"/>
<polygon fill="#63b8ff" stroke="#63b8ff" points="1083.56,-69.3 1072.99,-70.11 1081.76,-76.07 1083.56,-69.3"/>
</a>
</g>
</g>
<!-- Node26&#45;&gt;Node5 -->
<g id="edge55_Node000026_Node000005" class="edge">
<title>Node26&#45;&gt;Node5</title>
<g id="a_edge55_Node000026_Node000005"><a xlink:title=" ">
<path fill="none" stroke="#63b8ff" d="M932.21,-275.92C913.08,-258.75 874.83,-219.06 874.83,-176.38 874.83,-176.38 874.83,-176.38 874.83,-119.12 874.83,-65.16 809.04,-34.19 767.66,-20.05"/>
<polygon fill="#63b8ff" stroke="#63b8ff" points="768.74,-16.73 758.15,-16.97 766.58,-23.39 768.74,-16.73"/>
</a>
</g>
</g>
<!-- Node26&#45;&gt;Node7 -->
<g id="edge57_Node000026_Node000007" class="edge">
<title>Node26&#45;&gt;Node7</title>
<g id="a_edge57_Node000026_Node000007"><a xlink:title=" ">
<path fill="none" stroke="#63b8ff" d="M889.38,-280.21C874.33,-278.91 857.94,-277.51 842.83,-276.25 793.07,-272.1 433.46,-271.9 394.83,-240.25 365.39,-216.13 360.41,-168.43 360.13,-141.28"/>
<polygon fill="#63b8ff" stroke="#63b8ff" points="363.63,-141.66 360.26,-131.61 356.63,-141.56 363.63,-141.66"/>
</a>
</g>
</g>
<!-- Node26&#45;&gt;Node8 -->
<g id="edge58_Node000026_Node000008" class="edge">
<title>Node26&#45;&gt;Node8</title>
<g id="a_edge58_Node000026_Node000008"><a xlink:title=" ">
<path fill="none" stroke="#63b8ff" d="M889.55,-279.69C776.31,-267.8 516.21,-235.65 444.83,-185 411.27,-161.18 420.65,-137.78 389.83,-110.5 375.74,-98.03 357.61,-87.48 342.26,-79.78"/>
<polygon fill="#63b8ff" stroke="#63b8ff" points="344.06,-76.76 333.53,-75.57 341.02,-83.06 344.06,-76.76"/>
</a>
</g>
</g>
<!-- Node26&#45;&gt;Node9 -->
<g id="edge61_Node000026_Node000009" class="edge">
<title>Node26&#45;&gt;Node9</title>
<g id="a_edge61_Node000026_Node000009"><a xlink:title=" ">
<path fill="none" stroke="#63b8ff" d="M889.38,-279.23C835.9,-272.78 751.61,-260.42 680.83,-240.25 634.5,-227.05 583.23,-204.61 552.28,-190.15"/>
<polygon fill="#63b8ff" stroke="#63b8ff" points="554.12,-187.15 543.58,-186.04 551.13,-193.48 554.12,-187.15"/>
</a>
</g>
</g>
<!-- Node26&#45;&gt;Node14 -->
<g id="edge60_Node000026_Node000014" class="edge">
<title>Node26&#45;&gt;Node14</title>
<g id="a_edge60_Node000026_Node000014"><a xlink:title=" ">
<path fill="none" stroke="#63b8ff" d="M942.83,-276C942.83,-258.75 942.83,-220.33 942.83,-196.56"/>
<polygon fill="#63b8ff" stroke="#63b8ff" points="946.33,-196.89 942.83,-186.89 939.33,-196.89 946.33,-196.89"/>
</a>
</g>
</g>
<!-- Node26&#45;&gt;Node20 -->
<g id="edge62_Node000026_Node000020" class="edge">
<title>Node26&#45;&gt;Node20</title>
<g id="a_edge62_Node000026_Node000020"><a xlink:title=" ">
<path fill="none" stroke="#63b8ff" d="M954.18,-275.85C965.22,-266.98 982.42,-252.95 996.83,-240.25 1014.58,-224.61 1034.2,-206.03 1047.79,-192.96"/>
<polygon fill="#63b8ff" stroke="#63b8ff" points="1049.92,-195.76 1054.68,-186.29 1045.05,-190.73 1049.92,-195.76"/>
</a>
</g>
</g>
<!-- Node26&#45;&gt;Node22 -->
<g id="edge63_Node000026_Node000022" class="edge">
<title>Node26&#45;&gt;Node22</title>
<g id="a_edge63_Node000026_Node000022"><a xlink:title=" ">
<path fill="none" stroke="#63b8ff" d="M996.05,-280.74C1039.16,-275.7 1100.45,-264.59 1148.83,-240.25 1171.76,-228.72 1193.25,-208.28 1206.9,-193.63"/>
<polygon fill="#63b8ff" stroke="#63b8ff" points="1209.22,-196.28 1213.31,-186.51 1204.02,-191.6 1209.22,-196.28"/>
</a>
</g>
</g>
<!-- Node26&#45;&gt;Node23 -->
<g id="edge64_Node000026_Node000023" class="edge">
<title>Node26&#45;&gt;Node23</title>
<g id="a_edge64_Node000026_Node000023"><a xlink:title=" ">
<path fill="none" stroke="#63b8ff" d="M904.58,-275.78C864.03,-266.14 800.27,-250.99 759.01,-241.18"/>
<polygon fill="#63b8ff" stroke="#63b8ff" points="760.01,-237.82 749.48,-238.91 758.4,-244.63 760.01,-237.82"/>
</a>
</g>
</g>
<!-- Node26&#45;&gt;Node24 -->
<g id="edge56_Node000026_Node000024" class="edge">
<title>Node26&#45;&gt;Node24</title>
<g id="a_edge56_Node000026_Node000024"><a xlink:title=" ">
<path fill="none" stroke="#63b8ff" d="M917.22,-275.77C896.03,-267.75 865.53,-255.06 840.83,-240.25 817.46,-226.24 793.26,-206.32 777.47,-192.47"/>
<polygon fill="#63b8ff" stroke="#63b8ff" points="780.14,-190.15 770.35,-186.11 775.48,-195.38 780.14,-190.15"/>
</a>
</g>
</g>
<!-- Node26&#45;&gt;Node25 -->
<g id="edge59_Node000026_Node000025" class="edge">
<title>Node26&#45;&gt;Node25</title>
<g id="a_edge59_Node000026_Node000025"><a xlink:title=" ">
<path fill="none" stroke="#63b8ff" d="M919.24,-275.91C901.65,-268.36 877.83,-256.24 860.83,-240.25 847.28,-227.5 836.44,-209.21 829.49,-195.47"/>
<polygon fill="#63b8ff" stroke="#63b8ff" points="832.71,-194.09 825.23,-186.58 826.39,-197.11 832.71,-194.09"/>
</a>
</g>
</g>
</g>
</svg>

<g id="navigator" transform="translate(0 0)" fill="#404254">
  <rect fill="#f2f5e9" fill-opacity="0.5" stroke="#606060" stroke-width=".5" x="0" y="0" width="60" height="60"/>
  <use id="zoomplus" xlink:href="#zoomPlus" x="17" y="9" onmousedown="handleZoom(evt,'in')"/>
  <use id="zoomminus" xlink:href="#zoomMin" x="42" y="9" onmousedown="handleZoom(evt,'out')"/>
  <use id="reset" xlink:href="#resetDef" x="30" y="36" onmousedown="handleReset()"/>
   <use id="arrowup" xlink:href="#arrowUp" x="0" y="0" onmousedown="handlePan(0,-1)"/>
  <use id="arrowright" xlink:href="#arrowRight" x="0" y="0" onmousedown="handlePan(1,0)"/>
  <use id="arrowdown" xlink:href="#arrowDown" x="0" y="0" onmousedown="handlePan(0,1)"/>
  <use id="arrowleft" xlink:href="#arrowLeft" x="0" y="0" onmousedown="handlePan(-1,0)"/>
</g>
<svg viewBox="0 0 15 15" width="100%" height="30px" preserveAspectRatio="xMaxYMin meet">
 <g id="arrow_out" transform="scale(0.3 0.3)">
  <a xlink:href="_coulex_calculation_8cc__incl_org.svg" target="_base">
   <rect id="button" ry="5" rx="5" y="6" x="6" height="38" width="38"
        fill="#f2f5e9" fill-opacity="0.5" stroke="#606060" stroke-width="1.0"/>
   <path id="arrow"
     d="M 11.500037,31.436501 C 11.940474,20.09759 22.043105,11.32322 32.158766,21.979434 L 37.068811,17.246167 C 37.068811,17.246167 37.088388,32 37.088388,32 L 22.160133,31.978069 C 22.160133,31.978069 26.997745,27.140456 26.997745,27.140456 C 18.528582,18.264221 13.291696,25.230495 11.500037,31.436501 z"
     style="fill:#404040;"/>
  </a>
 </g>
</svg>

<style type='text/css'>
<![CDATA[
[data-mouse-over-selected='false'] { opacity: 0.7; }
[data-mouse-over-selected='true']  { opacity: 1.0; }
]]>
</style>
<script type="application/ecmascript"><![CDATA[
document.addEventListener('DOMContentLoaded', (event) => {
  highlightEdges();
  highlightAdjacentNodes();
});
]]></script>
</svg>
