<?xml version="1.0" encoding="UTF-8" standalone="no"?>
<!DOCTYPE svg PUBLIC "-//W3C//DTD SVG 1.1//EN"
 "http://www.w3.org/Graphics/SVG/1.1/DTD/svg11.dtd">
<!-- Generated by graphviz version 12.2.1 (20241206.2353)
 -->
<!-- Title: GamR::Tree::TDetDefn&lt; Ts &gt;::UpdateGoodness Pages: 1 -->
<!--zoomable 722 -->

<svg id="main" version="1.1" xmlns="http://www.w3.org/2000/svg" xmlns:xlink="http://www.w3.org/1999/xlink" xml:space="preserve" onload="init(evt)">

<style type="text/css"><![CDATA[
.node, .edge {opacity: 0.7;}
.node.selected, .edge.selected {opacity: 1;}
.edge:hover path { stroke: red; }
.edge:hover polygon { stroke: red; fill: red; }
]]></style>

<defs>
  <circle id="rim" cx="0" cy="0" r="7"/>
  <circle id="rim2" cx="0" cy="0" r="3.5"/>
  <g id="zoomPlus">
    <use xlink:href="#rim" fill="#404040"><set attributeName="fill" to="#808080" begin="zoomplus.mouseover" end="zoomplus.mouseout"/></use>
    <path d="M-4,0h8M0,-4v8" fill="none" stroke="white" stroke-width="1.5" pointer-events="none"/>
  </g>
  <g id="zoomMin">
    <use xlink:href="#rim" fill="#404040"><set attributeName="fill" to="#808080" begin="zoomminus.mouseover" end="zoomminus.mouseout"/></use>
    <path d="M-4,0h8" fill="none" stroke="white" stroke-width="1.5" pointer-events="none"/>
  </g>
  <g id="arrowUp" transform="translate(30 24)">
    <use xlink:href="#rim"/>
    <path pointer-events="none" fill="none" stroke="white" stroke-width="1.5" d="M0,-3.0v7 M-2.5,-0.5L0,-3.0L2.5,-0.5"/>
  </g>
  <g id="arrowRight" transform="rotate(90) translate(36 -43)">
    <use xlink:href="#rim"/>
    <path pointer-events="none" fill="none" stroke="white" stroke-width="1.5" d="M0,-3.0v7 M-2.5,-0.5L0,-3.0L2.5,-0.5"/>
  </g>
  <g id="arrowDown" transform="rotate(180) translate(-30 -48)">
    <use xlink:href="#rim"/>
    <path pointer-events="none" fill="none" stroke="white" stroke-width="1.5" d="M0,-3.0v7 M-2.5,-0.5L0,-3.0L2.5,-0.5"/>
  </g>
  <g id="arrowLeft" transform="rotate(270) translate(-36 17)">
    <use xlink:href="#rim"/>
    <path pointer-events="none" fill="none" stroke="white" stroke-width="1.5" d="M0,-3.0v7 M-2.5,-0.5L0,-3.0L2.5,-0.5"/>
  </g>
  <g id="resetDef">
    <use xlink:href="#rim2" fill="#404040"><set attributeName="fill" to="#808080" begin="reset.mouseover" end="reset.mouseout"/></use>
  </g>
</defs>
<script type="application/ecmascript">
var viewWidth = 227;
var viewHeight = 722;
var sectionId = 'dynsection-0';
</script>
<script type="application/ecmascript" xlink:href="../../svg.min.js"/>
<svg id="graph" class="graph">
<g id="viewport">
<title>GamR::Tree::TDetDefn&lt; Ts &gt;::UpdateGoodness</title>
<!-- Node1 -->
<g id="Node000001" class="node">
<title>Node1</title>
<g id="a_Node000001"><a xlink:title=" ">
<polygon fill="#999999" stroke="none" points="125.25,-305 0,-305 0,0 125.25,0 125.25,-305"/>
<text text-anchor="start" x="8.62" y="-291.5" font-family="Helvetica,sans-Serif" font-size="10.00">GamR::Tree::TDetDefn</text>
<text text-anchor="start" x="8.62" y="-280.25" font-family="Helvetica,sans-Serif" font-size="10.00">&lt; Ts &gt;::UpdateGoodness</text>
<text text-anchor="start" x="4" y="-265" font-family="Helvetica,sans-Serif" font-size="10.00">+</text>
<text text-anchor="start" x="14" y="-265" font-family="Helvetica,sans-Serif" font-size="10.00">parent</text>
<text text-anchor="start" x="4" y="-249.75" font-family="Helvetica,sans-Serif" font-size="10.00">+</text>
<text text-anchor="start" x="14" y="-249.75" font-family="Helvetica,sans-Serif" font-size="10.00">UpdateGoodness()</text>
<text text-anchor="start" x="4" y="-234.5" font-family="Helvetica,sans-Serif" font-size="10.00">+</text>
<text text-anchor="start" x="14" y="-234.5" font-family="Helvetica,sans-Serif" font-size="10.00">operator()()</text>
<text text-anchor="start" x="4" y="-219.25" font-family="Helvetica,sans-Serif" font-size="10.00">+</text>
<text text-anchor="start" x="14" y="-219.25" font-family="Helvetica,sans-Serif" font-size="10.00">TDetDefn()</text>
<text text-anchor="start" x="4" y="-204" font-family="Helvetica,sans-Serif" font-size="10.00">+</text>
<text text-anchor="start" x="14" y="-204" font-family="Helvetica,sans-Serif" font-size="10.00">~TDetDefn()</text>
<text text-anchor="start" x="4" y="-188.75" font-family="Helvetica,sans-Serif" font-size="10.00">+</text>
<text text-anchor="start" x="14" y="-188.75" font-family="Helvetica,sans-Serif" font-size="10.00">GetDatum()</text>
<text text-anchor="start" x="4" y="-173.5" font-family="Helvetica,sans-Serif" font-size="10.00">+</text>
<text text-anchor="start" x="14" y="-173.5" font-family="Helvetica,sans-Serif" font-size="10.00">GetAllDatums()</text>
<text text-anchor="start" x="4" y="-158.25" font-family="Helvetica,sans-Serif" font-size="10.00">+</text>
<text text-anchor="start" x="14" y="-158.25" font-family="Helvetica,sans-Serif" font-size="10.00">GetNumMeasurements()</text>
<text text-anchor="start" x="4" y="-143" font-family="Helvetica,sans-Serif" font-size="10.00">+</text>
<text text-anchor="start" x="14" y="-143" font-family="Helvetica,sans-Serif" font-size="10.00">GetID()</text>
<text text-anchor="start" x="4" y="-127.75" font-family="Helvetica,sans-Serif" font-size="10.00">+</text>
<text text-anchor="start" x="14" y="-127.75" font-family="Helvetica,sans-Serif" font-size="10.00">GetEfficiency()</text>
<text text-anchor="start" x="4" y="-112.5" font-family="Helvetica,sans-Serif" font-size="10.00">+</text>
<text text-anchor="start" x="14" y="-112.5" font-family="Helvetica,sans-Serif" font-size="10.00">IsGood()</text>
<text text-anchor="start" x="4" y="-97.25" font-family="Helvetica,sans-Serif" font-size="10.00">+</text>
<text text-anchor="start" x="14" y="-97.25" font-family="Helvetica,sans-Serif" font-size="10.00">SetPtrs()</text>
<text text-anchor="start" x="4" y="-82" font-family="Helvetica,sans-Serif" font-size="10.00">+</text>
<text text-anchor="start" x="14" y="-82" font-family="Helvetica,sans-Serif" font-size="10.00">SetRequired()</text>
<text text-anchor="start" x="4" y="-66.75" font-family="Helvetica,sans-Serif" font-size="10.00">+</text>
<text text-anchor="start" x="14" y="-66.75" font-family="Helvetica,sans-Serif" font-size="10.00">SetCalFuncs()</text>
<text text-anchor="start" x="4" y="-51.5" font-family="Helvetica,sans-Serif" font-size="10.00">+</text>
<text text-anchor="start" x="14" y="-51.5" font-family="Helvetica,sans-Serif" font-size="10.00">SetPollGates()</text>
<text text-anchor="start" x="4" y="-36.25" font-family="Helvetica,sans-Serif" font-size="10.00">+</text>
<text text-anchor="start" x="14" y="-36.25" font-family="Helvetica,sans-Serif" font-size="10.00">SetEffFunc()</text>
<text text-anchor="start" x="4" y="-21" font-family="Helvetica,sans-Serif" font-size="10.00">+</text>
<text text-anchor="start" x="14" y="-21" font-family="Helvetica,sans-Serif" font-size="10.00">Calibrate()</text>
<text text-anchor="start" x="4" y="-5.75" font-family="Helvetica,sans-Serif" font-size="10.00">+</text>
<text text-anchor="start" x="14" y="-5.75" font-family="Helvetica,sans-Serif" font-size="10.00">ClassDef()</text>
<polygon fill="#666666" stroke="#666666" points="0,-276.5 0,-276.5 125.25,-276.5 125.25,-276.5 0,-276.5"/>
<polygon fill="#666666" stroke="#666666" points="0,-261.25 0,-261.25 12,-261.25 12,-261.25 0,-261.25"/>
<polygon fill="#666666" stroke="#666666" points="12,-261.25 12,-261.25 125.25,-261.25 125.25,-261.25 12,-261.25"/>
<polygon fill="none" stroke="#666666" points="0,0 0,-305 125.25,-305 125.25,0 0,0"/>
</a>
</g>
</g>
<!-- Node2 -->
<g id="Node000002" class="node">
<title>Node2</title>
<g id="a_Node000002"><a xlink:title=" ">
<polygon fill="white" stroke="none" points="79.88,-713.5 37.38,-713.5 37.38,-663.75 79.88,-663.75 79.88,-713.5"/>
<text text-anchor="start" x="41.38" y="-700" font-family="Helvetica,sans-Serif" font-size="10.00">TObject</text>
<text text-anchor="start" x="57.12" y="-684.75" font-family="Helvetica,sans-Serif" font-size="10.00"> </text>
<text text-anchor="start" x="57.12" y="-669.5" font-family="Helvetica,sans-Serif" font-size="10.00"> </text>
<polygon fill="#666666" stroke="#666666" points="37.38,-696.25 37.38,-696.25 79.88,-696.25 79.88,-696.25 37.38,-696.25"/>
<polygon fill="#666666" stroke="#666666" points="37.38,-681 37.38,-681 79.88,-681 79.88,-681 37.38,-681"/>
<polygon fill="none" stroke="#666666" points="37.38,-663.75 37.38,-713.5 79.88,-713.5 79.88,-663.75 37.38,-663.75"/>
</a>
</g>
</g>
<!-- Node2&#45;&gt;Node1 -->
<g id="edge1_Node000001_Node000002" class="edge">
<title>Node2&#45;&gt;Node1</title>
<g id="a_edge1_Node000001_Node000002"><a xlink:title=" ">
<path fill="none" stroke="#63b8ff" d="M58.89,-652.9C59.4,-583.71 60.59,-424.98 61.49,-304.91"/>
<polygon fill="none" stroke="#63b8ff" points="55.39,-652.45 58.81,-662.47 62.39,-652.5 55.39,-652.45"/>
</a>
</g>
</g>
<!-- Node3 -->
<g id="Node000003" class="node">
<title>Node3</title>
<g id="a_Node000003"><a xlink:href="../../d4/d79/class_gam_r_1_1_tree_1_1_t_det_defn.html" target="_top" xlink:title=" ">
<polygon fill="white" stroke="none" points="200.25,-626.75 75,-626.75 75,-352.25 200.25,-352.25 200.25,-626.75"/>
<text text-anchor="start" x="88.88" y="-613.25" font-family="Helvetica,sans-Serif" font-size="10.00">GamR::Tree::TDetDefn</text>
<text text-anchor="start" x="123.75" y="-602" font-family="Helvetica,sans-Serif" font-size="10.00">&lt; Ts &gt;</text>
<text text-anchor="start" x="136.12" y="-586.75" font-family="Helvetica,sans-Serif" font-size="10.00"> </text>
<text text-anchor="start" x="79" y="-571.5" font-family="Helvetica,sans-Serif" font-size="10.00">+</text>
<text text-anchor="start" x="89" y="-571.5" font-family="Helvetica,sans-Serif" font-size="10.00">TDetDefn()</text>
<text text-anchor="start" x="79" y="-556.25" font-family="Helvetica,sans-Serif" font-size="10.00">+</text>
<text text-anchor="start" x="89" y="-556.25" font-family="Helvetica,sans-Serif" font-size="10.00">~TDetDefn()</text>
<text text-anchor="start" x="79" y="-541" font-family="Helvetica,sans-Serif" font-size="10.00">+</text>
<text text-anchor="start" x="89" y="-541" font-family="Helvetica,sans-Serif" font-size="10.00">GetDatum()</text>
<text text-anchor="start" x="79" y="-525.75" font-family="Helvetica,sans-Serif" font-size="10.00">+</text>
<text text-anchor="start" x="89" y="-525.75" font-family="Helvetica,sans-Serif" font-size="10.00">GetAllDatums()</text>
<text text-anchor="start" x="79" y="-510.5" font-family="Helvetica,sans-Serif" font-size="10.00">+</text>
<text text-anchor="start" x="89" y="-510.5" font-family="Helvetica,sans-Serif" font-size="10.00">GetNumMeasurements()</text>
<text text-anchor="start" x="79" y="-495.25" font-family="Helvetica,sans-Serif" font-size="10.00">+</text>
<text text-anchor="start" x="89" y="-495.25" font-family="Helvetica,sans-Serif" font-size="10.00">GetID()</text>
<text text-anchor="start" x="79" y="-480" font-family="Helvetica,sans-Serif" font-size="10.00">+</text>
<text text-anchor="start" x="89" y="-480" font-family="Helvetica,sans-Serif" font-size="10.00">GetEfficiency()</text>
<text text-anchor="start" x="79" y="-464.75" font-family="Helvetica,sans-Serif" font-size="10.00">+</text>
<text text-anchor="start" x="89" y="-464.75" font-family="Helvetica,sans-Serif" font-size="10.00">IsGood()</text>
<text text-anchor="start" x="79" y="-449.5" font-family="Helvetica,sans-Serif" font-size="10.00">+</text>
<text text-anchor="start" x="89" y="-449.5" font-family="Helvetica,sans-Serif" font-size="10.00">SetPtrs()</text>
<text text-anchor="start" x="79" y="-434.25" font-family="Helvetica,sans-Serif" font-size="10.00">+</text>
<text text-anchor="start" x="89" y="-434.25" font-family="Helvetica,sans-Serif" font-size="10.00">SetRequired()</text>
<text text-anchor="start" x="79" y="-419" font-family="Helvetica,sans-Serif" font-size="10.00">+</text>
<text text-anchor="start" x="89" y="-419" font-family="Helvetica,sans-Serif" font-size="10.00">SetCalFuncs()</text>
<text text-anchor="start" x="79" y="-403.75" font-family="Helvetica,sans-Serif" font-size="10.00">+</text>
<text text-anchor="start" x="89" y="-403.75" font-family="Helvetica,sans-Serif" font-size="10.00">SetPollGates()</text>
<text text-anchor="start" x="79" y="-388.5" font-family="Helvetica,sans-Serif" font-size="10.00">+</text>
<text text-anchor="start" x="89" y="-388.5" font-family="Helvetica,sans-Serif" font-size="10.00">SetEffFunc()</text>
<text text-anchor="start" x="79" y="-373.25" font-family="Helvetica,sans-Serif" font-size="10.00">+</text>
<text text-anchor="start" x="89" y="-373.25" font-family="Helvetica,sans-Serif" font-size="10.00">Calibrate()</text>
<text text-anchor="start" x="79" y="-358" font-family="Helvetica,sans-Serif" font-size="10.00">+</text>
<text text-anchor="start" x="89" y="-358" font-family="Helvetica,sans-Serif" font-size="10.00">ClassDef()</text>
<polygon fill="#666666" stroke="#666666" points="75,-598.25 75,-598.25 200.25,-598.25 200.25,-598.25 75,-598.25"/>
<polygon fill="#666666" stroke="#666666" points="75,-583 75,-583 200.25,-583 200.25,-583 75,-583"/>
<polygon fill="none" stroke="#666666" points="75,-352.25 75,-626.75 200.25,-626.75 200.25,-352.25 75,-352.25"/>
</a>
</g>
</g>
<!-- Node2&#45;&gt;Node3 -->
<g id="edge3_Node000003_Node000002" class="edge">
<title>Node2&#45;&gt;Node3</title>
<g id="a_edge3_Node000003_Node000002"><a xlink:title=" ">
<path fill="none" stroke="#63b8ff" d="M72.4,-653.25C75.61,-645.25 79.21,-636.25 83.04,-626.7"/>
<polygon fill="none" stroke="#63b8ff" points="69.19,-651.86 68.72,-662.44 75.69,-654.46 69.19,-651.86"/>
</a>
</g>
</g>
<!-- Node3&#45;&gt;Node1 -->
<g id="edge2_Node000001_Node000003" class="edge">
<title>Node3&#45;&gt;Node1</title>
<g id="a_edge2_Node000001_Node000003"><a xlink:title=" ">
<path fill="none" stroke="orange" d="M104.73,-341.57C102,-329.38 99.24,-317.03 96.5,-304.81"/>
<polygon fill="orange" stroke="orange" points="101.3,-342.25 106.9,-351.25 108.13,-340.73 101.3,-342.25"/>
</a>
</g>
<text text-anchor="middle" x="160.87" y="-324.75" font-family="Helvetica,sans-Serif" font-size="10.00" fill="grey"> &lt; Ts... &gt;::UpdateGoodness</text>
</g>
</g>
</svg>

<g id="navigator" transform="translate(0 0)" fill="#404254">
  <rect fill="#f2f5e9" fill-opacity="0.5" stroke="#606060" stroke-width=".5" x="0" y="0" width="60" height="60"/>
  <use id="zoomplus" xlink:href="#zoomPlus" x="17" y="9" onmousedown="handleZoom(evt,'in')"/>
  <use id="zoomminus" xlink:href="#zoomMin" x="42" y="9" onmousedown="handleZoom(evt,'out')"/>
  <use id="reset" xlink:href="#resetDef" x="30" y="36" onmousedown="handleReset()"/>
   <use id="arrowup" xlink:href="#arrowUp" x="0" y="0" onmousedown="handlePan(0,-1)"/>
  <use id="arrowright" xlink:href="#arrowRight" x="0" y="0" onmousedown="handlePan(1,0)"/>
  <use id="arrowdown" xlink:href="#arrowDown" x="0" y="0" onmousedown="handlePan(0,1)"/>
  <use id="arrowleft" xlink:href="#arrowLeft" x="0" y="0" onmousedown="handlePan(-1,0)"/>
</g>
<svg viewBox="0 0 15 15" width="100%" height="30px" preserveAspectRatio="xMaxYMin meet">
 <g id="arrow_out" transform="scale(0.3 0.3)">
  <a xlink:href="struct_gam_r_1_1_tree_1_1_t_det_defn_1_1_update_goodness__inherit__graph_org.svg" target="_base">
   <rect id="button" ry="5" rx="5" y="6" x="6" height="38" width="38"
        fill="#f2f5e9" fill-opacity="0.5" stroke="#606060" stroke-width="1.0"/>
   <path id="arrow"
     d="M 11.500037,31.436501 C 11.940474,20.09759 22.043105,11.32322 32.158766,21.979434 L 37.068811,17.246167 C 37.068811,17.246167 37.088388,32 37.088388,32 L 22.160133,31.978069 C 22.160133,31.978069 26.997745,27.140456 26.997745,27.140456 C 18.528582,18.264221 13.291696,25.230495 11.500037,31.436501 z"
     style="fill:#404040;"/>
  </a>
 </g>
</svg>

<style type='text/css'>
<![CDATA[
[data-mouse-over-selected='false'] { opacity: 0.7; }
[data-mouse-over-selected='true']  { opacity: 1.0; }
]]>
</style>
<script type="application/ecmascript"><![CDATA[
document.addEventListener('DOMContentLoaded', (event) => {
  highlightEdges();
  highlightAdjacentNodes();
});
]]></script>
</svg>
