<?xml version="1.0" encoding="UTF-8" standalone="no"?>
<!DOCTYPE svg PUBLIC "-//W3C//DTD SVG 1.1//EN"
 "http://www.w3.org/Graphics/SVG/1.1/DTD/svg11.dtd">
<!-- Generated by graphviz version 8.1.0 (20230707.0739)
 -->
<!-- Title: src/lib/bateman/Solver.cc Pages: 1 -->
<svg width="233pt" height="248pt"
 viewBox="0.00 0.00 233.05 248.25" xmlns="http://www.w3.org/2000/svg" xmlns:xlink="http://www.w3.org/1999/xlink">

<svg id="main" version="1.1" xmlns="http://www.w3.org/2000/svg" xmlns:xlink="http://www.w3.org/1999/xlink" xml:space="preserve" onload="init(evt)">
<style type="text/css"><![CDATA[
.node, .edge {opacity: 0.7;}
.node.selected, .edge.selected {opacity: 1;}
.edge:hover path { stroke: red; }
.edge:hover polygon { stroke: red; fill: red; }
]]></style>
<script type="application/ecmascript" xlink:href="../../svg.min.js"/>
<svg id="graph" class="graph">
<g id="graph0" class="graph" transform="scale(1 1) rotate(0) translate(4 244.25)">
<title>src/lib/bateman/Solver.cc</title>
<!-- Node1 -->
<g id="Node000001" class="node">
<title>Node1</title>
<g id="a_Node000001"><a xlink:title=" ">
<polygon fill="#999999" stroke="#666666" points="142.8,-240.25 16.55,-240.25 16.55,-221 142.8,-221 142.8,-240.25"/>
<text text-anchor="middle" x="79.68" y="-226.75" font-family="Helvetica,sans-Serif" font-size="10.00">src/lib/bateman/Solver.cc</text>
</a>
</g>
</g>
<!-- Node2 -->
<g id="Node000002" class="node">
<title>Node2</title>
<g id="a_Node000002"><a xlink:href="../../d8/dfb/_nucleus_8hh.html" target="_top" xlink:title=" ">
<polygon fill="white" stroke="#666666" points="102.05,-74.5 37.3,-74.5 37.3,-55.25 102.05,-55.25 102.05,-74.5"/>
<text text-anchor="middle" x="69.68" y="-61" font-family="Helvetica,sans-Serif" font-size="10.00">Nucleus.hh</text>
</a>
</g>
</g>
<!-- Node1&#45;&gt;Node2 -->
<g id="edge1_Node000001_Node000002" class="edge">
<title>Node1&#45;&gt;Node2</title>
<g id="a_edge1_Node000001_Node000002"><a xlink:title=" ">
<path fill="none" stroke="#63b8ff" d="M68.95,-220.52C50.94,-204.42 15.37,-168.91 2.68,-129.75 0.04,-121.61 -1.36,-118.04 2.68,-110.5 9.88,-97.05 23.13,-86.96 35.95,-79.8"/>
<polygon fill="#63b8ff" stroke="#63b8ff" points="37.25,-82.56 44.56,-74.9 34.07,-76.32 37.25,-82.56"/>
</a>
</g>
</g>
<!-- Node6 -->
<g id="Node000006" class="node">
<title>Node6</title>
<g id="a_Node000006"><a xlink:href="../../d2/dc7/_scheme_8hh.html" target="_top" xlink:title=" ">
<polygon fill="white" stroke="#666666" points="225.05,-129.75 160.3,-129.75 160.3,-110.5 225.05,-110.5 225.05,-129.75"/>
<text text-anchor="middle" x="192.68" y="-116.25" font-family="Helvetica,sans-Serif" font-size="10.00">Scheme.hh</text>
</a>
</g>
</g>
<!-- Node1&#45;&gt;Node6 -->
<g id="edge5_Node000001_Node000006" class="edge">
<title>Node1&#45;&gt;Node6</title>
<g id="a_edge5_Node000001_Node000006"><a xlink:title=" ">
<path fill="none" stroke="#63b8ff" d="M88.93,-220.75C107.88,-202.55 151.39,-160.77 175.61,-137.51"/>
<polygon fill="#63b8ff" stroke="#63b8ff" points="177.51,-140.58 182.3,-131.13 172.67,-135.53 177.51,-140.58"/>
</a>
</g>
</g>
<!-- Node7 -->
<g id="Node000007" class="node">
<title>Node7</title>
<g id="a_Node000007"><a xlink:href="../../db/d8d/_solver_8hh.html" target="_top" xlink:title=" ">
<polygon fill="white" stroke="#666666" points="107.93,-185 51.43,-185 51.43,-165.75 107.93,-165.75 107.93,-185"/>
<text text-anchor="middle" x="79.68" y="-171.5" font-family="Helvetica,sans-Serif" font-size="10.00">Solver.hh</text>
</a>
</g>
</g>
<!-- Node1&#45;&gt;Node7 -->
<g id="edge9_Node000001_Node000007" class="edge">
<title>Node1&#45;&gt;Node7</title>
<g id="a_edge9_Node000001_Node000007"><a xlink:title=" ">
<path fill="none" stroke="#63b8ff" d="M79.68,-220.83C79.68,-214.17 79.68,-204.74 79.68,-196.28"/>
<polygon fill="#63b8ff" stroke="#63b8ff" points="83.18,-196.36 79.68,-186.36 76.18,-196.36 83.18,-196.36"/>
</a>
</g>
</g>
<!-- Node3 -->
<g id="Node000003" class="node">
<title>Node3</title>
<g id="a_Node000003"><a xlink:title=" ">
<polygon fill="#e0e0e0" stroke="#999999" points="94.43,-19.25 40.93,-19.25 40.93,0 94.43,0 94.43,-19.25"/>
<text text-anchor="middle" x="67.68" y="-5.75" font-family="Helvetica,sans-Serif" font-size="10.00">iostream</text>
</a>
</g>
</g>
<!-- Node2&#45;&gt;Node3 -->
<g id="edge2_Node000002_Node000003" class="edge">
<title>Node2&#45;&gt;Node3</title>
<g id="a_edge2_Node000002_Node000003"><a xlink:title=" ">
<path fill="none" stroke="#63b8ff" d="M69.35,-55.08C69.1,-48.42 68.74,-38.99 68.43,-30.53"/>
<polygon fill="#63b8ff" stroke="#63b8ff" points="71.89,-30.47 68.02,-20.61 64.89,-30.73 71.89,-30.47"/>
</a>
</g>
</g>
<!-- Node4 -->
<g id="Node000004" class="node">
<title>Node4</title>
<g id="a_Node000004"><a xlink:title=" ">
<polygon fill="#e0e0e0" stroke="#999999" points="152.68,-19.25 112.68,-19.25 112.68,0 152.68,0 152.68,-19.25"/>
<text text-anchor="middle" x="132.68" y="-5.75" font-family="Helvetica,sans-Serif" font-size="10.00">string</text>
</a>
</g>
</g>
<!-- Node2&#45;&gt;Node4 -->
<g id="edge3_Node000002_Node000004" class="edge">
<title>Node2&#45;&gt;Node4</title>
<g id="a_edge3_Node000002_Node000004"><a xlink:title=" ">
<path fill="none" stroke="#63b8ff" d="M80.37,-54.84C89.56,-47.07 103.04,-35.67 114.02,-26.4"/>
<polygon fill="#63b8ff" stroke="#63b8ff" points="115.77,-28.65 121.15,-19.52 111.25,-23.31 115.77,-28.65"/>
</a>
</g>
</g>
<!-- Node5 -->
<g id="Node000005" class="node">
<title>Node5</title>
<g id="a_Node000005"><a xlink:title=" ">
<polygon fill="#e0e0e0" stroke="#999999" points="214.18,-19.25 171.18,-19.25 171.18,0 214.18,0 214.18,-19.25"/>
<text text-anchor="middle" x="192.68" y="-5.75" font-family="Helvetica,sans-Serif" font-size="10.00">vector</text>
</a>
</g>
</g>
<!-- Node2&#45;&gt;Node5 -->
<g id="edge4_Node000002_Node000005" class="edge">
<title>Node2&#45;&gt;Node5</title>
<g id="a_edge4_Node000002_Node000005"><a xlink:title=" ">
<path fill="none" stroke="#63b8ff" d="M90.54,-54.84C110.07,-46.39 139.49,-33.65 161.74,-24.02"/>
<polygon fill="#63b8ff" stroke="#63b8ff" points="162.92,-26.89 170.71,-19.7 160.14,-20.46 162.92,-26.89"/>
</a>
</g>
</g>
<!-- Node6&#45;&gt;Node2 -->
<g id="edge8_Node000006_Node000002" class="edge">
<title>Node6&#45;&gt;Node2</title>
<g id="a_edge8_Node000006_Node000002"><a xlink:title=" ">
<path fill="none" stroke="#63b8ff" d="M171.81,-110.09C152.29,-101.64 122.87,-88.9 100.61,-79.27"/>
<polygon fill="#63b8ff" stroke="#63b8ff" points="102.21,-75.71 91.65,-74.95 99.43,-82.14 102.21,-75.71"/>
</a>
</g>
</g>
<!-- Node6&#45;&gt;Node4 -->
<g id="edge6_Node000006_Node000004" class="edge">
<title>Node6&#45;&gt;Node4</title>
<g id="a_edge6_Node000006_Node000004"><a xlink:title=" ">
<path fill="none" stroke="#63b8ff" d="M187.77,-110.25C178.01,-92.6 156,-52.8 142.95,-29.2"/>
<polygon fill="#63b8ff" stroke="#63b8ff" points="145.56,-27.68 137.66,-20.63 139.43,-31.07 145.56,-27.68"/>
</a>
</g>
</g>
<!-- Node6&#45;&gt;Node5 -->
<g id="edge7_Node000006_Node000005" class="edge">
<title>Node6&#45;&gt;Node5</title>
<g id="a_edge7_Node000006_Node000005"><a xlink:title=" ">
<path fill="none" stroke="#63b8ff" d="M192.68,-110.25C192.68,-92.92 192.68,-54.23 192.68,-30.49"/>
<polygon fill="#63b8ff" stroke="#63b8ff" points="196.18,-30.63 192.68,-20.63 189.18,-30.63 196.18,-30.63"/>
</a>
</g>
</g>
<!-- Node7&#45;&gt;Node2 -->
<g id="edge10_Node000007_Node000002" class="edge">
<title>Node7&#45;&gt;Node2</title>
<g id="a_edge10_Node000007_Node000002"><a xlink:title=" ">
<path fill="none" stroke="#63b8ff" d="M53.1,-165.26C37.13,-158.25 18.11,-146.83 8.68,-129.75 -2.21,-110.05 19.44,-91.95 39.89,-80.08"/>
<polygon fill="#63b8ff" stroke="#63b8ff" points="41.26,-82.78 48.38,-74.93 37.92,-76.62 41.26,-82.78"/>
</a>
</g>
</g>
<!-- Node7&#45;&gt;Node6 -->
<g id="edge11_Node000007_Node000006" class="edge">
<title>Node7&#45;&gt;Node6</title>
<g id="a_edge11_Node000007_Node000006"><a xlink:title=" ">
<path fill="none" stroke="#63b8ff" d="M98.85,-165.34C116.62,-156.97 143.32,-144.38 163.7,-134.78"/>
<polygon fill="#63b8ff" stroke="#63b8ff" points="164.86,-137.63 172.42,-130.2 161.88,-131.3 164.86,-137.63"/>
</a>
</g>
</g>
<!-- Node8 -->
<g id="Node000008" class="node">
<title>Node8</title>
<g id="a_Node000008"><a xlink:title=" ">
<polygon fill="#e0e0e0" stroke="#999999" points="142.05,-129.75 17.3,-129.75 17.3,-110.5 142.05,-110.5 142.05,-129.75"/>
<text text-anchor="middle" x="79.68" y="-116.25" font-family="Helvetica,sans-Serif" font-size="10.00">boost/numeric/odeint.hpp</text>
</a>
</g>
</g>
<!-- Node7&#45;&gt;Node8 -->
<g id="edge12_Node000007_Node000008" class="edge">
<title>Node7&#45;&gt;Node8</title>
<g id="a_edge12_Node000007_Node000008"><a xlink:title=" ">
<path fill="none" stroke="#63b8ff" d="M79.68,-165.58C79.68,-158.92 79.68,-149.49 79.68,-141.03"/>
<polygon fill="#63b8ff" stroke="#63b8ff" points="83.18,-141.11 79.68,-131.11 76.18,-141.11 83.18,-141.11"/>
</a>
</g>
</g>
</g>
</svg>
</svg>

<style type='text/css'>
<![CDATA[
[data-mouse-over-selected='false'] { opacity: 0.7; }
[data-mouse-over-selected='true']  { opacity: 1.0; }
]]>
</style>
<script type="application/ecmascript"><![CDATA[
document.addEventListener('DOMContentLoaded', (event) => {
  highlightEdges();
  highlightAdjacentNodes();
});
]]></script>
</svg>
