<?xml version="1.0" encoding="UTF-8" standalone="no"?>
<!DOCTYPE svg PUBLIC "-//W3C//DTD SVG 1.1//EN"
 "http://www.w3.org/Graphics/SVG/1.1/DTD/svg11.dtd">
<!-- Generated by graphviz version 12.2.1 (20241206.2353)
 -->
<!-- Title: src/lib/bateman/Solver.cc Pages: 1 -->
<svg width="234pt" height="248pt"
 viewBox="0.00 0.00 234.08 248.25" xmlns="http://www.w3.org/2000/svg" xmlns:xlink="http://www.w3.org/1999/xlink">
<g id="graph0" class="graph" transform="scale(1 1) rotate(0) translate(4 244.25)">
<title>src/lib/bateman/Solver.cc</title>
<!-- Node1 -->
<g id="Node000001" class="node">
<title>Node1</title>
<g id="a_Node000001"><a xlink:title=" ">
<polygon fill="#999999" stroke="#666666" points="143.83,-240.25 17.58,-240.25 17.58,-221 143.83,-221 143.83,-240.25"/>
<text text-anchor="middle" x="80.7" y="-226.75" font-family="Helvetica,sans-Serif" font-size="10.00">src/lib/bateman/Solver.cc</text>
</a>
</g>
</g>
<!-- Node2 -->
<g id="Node000002" class="node">
<title>Node2</title>
<g id="a_Node000002"><a xlink:href="../../d8/dfb/_nucleus_8hh.html" target="_top" xlink:title=" ">
<polygon fill="white" stroke="#666666" points="103.08,-74.5 38.33,-74.5 38.33,-55.25 103.08,-55.25 103.08,-74.5"/>
<text text-anchor="middle" x="70.7" y="-61" font-family="Helvetica,sans-Serif" font-size="10.00">Nucleus.hh</text>
</a>
</g>
</g>
<!-- Node1&#45;&gt;Node2 -->
<g id="edge1_Node000001_Node000002" class="edge">
<title>Node1&#45;&gt;Node2</title>
<g id="a_edge1_Node000001_Node000002"><a xlink:title=" ">
<path fill="none" stroke="#63b8ff" d="M69.86,-220.54C51.66,-204.48 15.68,-169.02 2.7,-129.75 0.02,-121.63 -1.36,-118.03 2.7,-110.5 9.9,-97.17 23.01,-87.17 35.82,-80.06"/>
<polygon fill="#63b8ff" stroke="#63b8ff" points="37.2,-83.28 44.55,-75.64 34.05,-77.03 37.2,-83.28"/>
</a>
</g>
</g>
<!-- Node6 -->
<g id="Node000006" class="node">
<title>Node6</title>
<g id="a_Node000006"><a xlink:href="../../d2/dc7/_scheme_8hh.html" target="_top" xlink:title=" ">
<polygon fill="white" stroke="#666666" points="226.08,-129.75 161.33,-129.75 161.33,-110.5 226.08,-110.5 226.08,-129.75"/>
<text text-anchor="middle" x="193.7" y="-116.25" font-family="Helvetica,sans-Serif" font-size="10.00">Scheme.hh</text>
</a>
</g>
</g>
<!-- Node1&#45;&gt;Node6 -->
<g id="edge5_Node000001_Node000006" class="edge">
<title>Node1&#45;&gt;Node6</title>
<g id="a_edge5_Node000001_Node000006"><a xlink:title=" ">
<path fill="none" stroke="#63b8ff" d="M89.95,-220.75C108.82,-202.63 152.04,-161.13 176.32,-137.82"/>
<polygon fill="#63b8ff" stroke="#63b8ff" points="178.45,-140.63 183.24,-131.17 173.6,-135.58 178.45,-140.63"/>
</a>
</g>
</g>
<!-- Node7 -->
<g id="Node000007" class="node">
<title>Node7</title>
<g id="a_Node000007"><a xlink:href="../../db/d8d/_solver_8hh.html" target="_top" xlink:title=" ">
<polygon fill="white" stroke="#666666" points="108.95,-185 52.45,-185 52.45,-165.75 108.95,-165.75 108.95,-185"/>
<text text-anchor="middle" x="80.7" y="-171.5" font-family="Helvetica,sans-Serif" font-size="10.00">Solver.hh</text>
</a>
</g>
</g>
<!-- Node1&#45;&gt;Node7 -->
<g id="edge9_Node000001_Node000007" class="edge">
<title>Node1&#45;&gt;Node7</title>
<g id="a_edge9_Node000001_Node000007"><a xlink:title=" ">
<path fill="none" stroke="#63b8ff" d="M80.7,-220.83C80.7,-214.32 80.7,-205.17 80.7,-196.87"/>
<polygon fill="#63b8ff" stroke="#63b8ff" points="84.2,-196.87 80.7,-186.87 77.2,-196.87 84.2,-196.87"/>
</a>
</g>
</g>
<!-- Node3 -->
<g id="Node000003" class="node">
<title>Node3</title>
<g id="a_Node000003"><a xlink:title=" ">
<polygon fill="#e0e0e0" stroke="#999999" points="95.45,-19.25 41.95,-19.25 41.95,0 95.45,0 95.45,-19.25"/>
<text text-anchor="middle" x="68.7" y="-5.75" font-family="Helvetica,sans-Serif" font-size="10.00">iostream</text>
</a>
</g>
</g>
<!-- Node2&#45;&gt;Node3 -->
<g id="edge2_Node000002_Node000003" class="edge">
<title>Node2&#45;&gt;Node3</title>
<g id="a_edge2_Node000002_Node000003"><a xlink:title=" ">
<path fill="none" stroke="#63b8ff" d="M70.37,-55.08C70.13,-48.49 69.78,-39.21 69.46,-30.82"/>
<polygon fill="#63b8ff" stroke="#63b8ff" points="72.97,-30.98 69.1,-21.12 65.98,-31.25 72.97,-30.98"/>
</a>
</g>
</g>
<!-- Node4 -->
<g id="Node000004" class="node">
<title>Node4</title>
<g id="a_Node000004"><a xlink:title=" ">
<polygon fill="#e0e0e0" stroke="#999999" points="153.7,-19.25 113.7,-19.25 113.7,0 153.7,0 153.7,-19.25"/>
<text text-anchor="middle" x="133.7" y="-5.75" font-family="Helvetica,sans-Serif" font-size="10.00">string</text>
</a>
</g>
</g>
<!-- Node2&#45;&gt;Node4 -->
<g id="edge3_Node000002_Node000004" class="edge">
<title>Node2&#45;&gt;Node4</title>
<g id="a_edge3_Node000002_Node000004"><a xlink:title=" ">
<path fill="none" stroke="#63b8ff" d="M81.39,-54.84C90.4,-47.22 103.54,-36.12 114.39,-26.95"/>
<polygon fill="#63b8ff" stroke="#63b8ff" points="116.64,-29.63 122.02,-20.5 112.12,-24.28 116.64,-29.63"/>
</a>
</g>
</g>
<!-- Node5 -->
<g id="Node000005" class="node">
<title>Node5</title>
<g id="a_Node000005"><a xlink:title=" ">
<polygon fill="#e0e0e0" stroke="#999999" points="215.2,-19.25 172.2,-19.25 172.2,0 215.2,0 215.2,-19.25"/>
<text text-anchor="middle" x="193.7" y="-5.75" font-family="Helvetica,sans-Serif" font-size="10.00">vector</text>
</a>
</g>
</g>
<!-- Node2&#45;&gt;Node5 -->
<g id="edge4_Node000002_Node000005" class="edge">
<title>Node2&#45;&gt;Node5</title>
<g id="a_edge4_Node000002_Node000005"><a xlink:title=" ">
<path fill="none" stroke="#63b8ff" d="M91.57,-54.84C111.01,-46.43 140.25,-33.77 162.47,-24.15"/>
<polygon fill="#63b8ff" stroke="#63b8ff" points="163.56,-27.49 171.35,-20.3 160.78,-21.06 163.56,-27.49"/>
</a>
</g>
</g>
<!-- Node6&#45;&gt;Node2 -->
<g id="edge8_Node000006_Node000002" class="edge">
<title>Node6&#45;&gt;Node2</title>
<g id="a_edge8_Node000006_Node000002"><a xlink:title=" ">
<path fill="none" stroke="#63b8ff" d="M172.84,-110.09C153.4,-101.68 124.16,-89.02 101.94,-79.4"/>
<polygon fill="#63b8ff" stroke="#63b8ff" points="103.63,-76.31 93.06,-75.55 100.85,-82.74 103.63,-76.31"/>
</a>
</g>
</g>
<!-- Node6&#45;&gt;Node4 -->
<g id="edge6_Node000006_Node000004" class="edge">
<title>Node6&#45;&gt;Node4</title>
<g id="a_edge6_Node000006_Node000004"><a xlink:title=" ">
<path fill="none" stroke="#63b8ff" d="M188.79,-110.25C179.08,-92.68 157.22,-53.16 144.15,-29.52"/>
<polygon fill="#63b8ff" stroke="#63b8ff" points="147.32,-28.01 139.41,-20.95 141.19,-31.4 147.32,-28.01"/>
</a>
</g>
</g>
<!-- Node6&#45;&gt;Node5 -->
<g id="edge7_Node000006_Node000005" class="edge">
<title>Node6&#45;&gt;Node5</title>
<g id="a_edge7_Node000006_Node000005"><a xlink:title=" ">
<path fill="none" stroke="#63b8ff" d="M193.7,-110.25C193.7,-93 193.7,-54.58 193.7,-30.81"/>
<polygon fill="#63b8ff" stroke="#63b8ff" points="197.2,-31.14 193.7,-21.14 190.2,-31.14 197.2,-31.14"/>
</a>
</g>
</g>
<!-- Node7&#45;&gt;Node2 -->
<g id="edge10_Node000007_Node000002" class="edge">
<title>Node7&#45;&gt;Node2</title>
<g id="a_edge10_Node000007_Node000002"><a xlink:title=" ">
<path fill="none" stroke="#63b8ff" d="M54.13,-165.26C38.15,-158.25 19.14,-146.83 9.7,-129.75 -1.08,-110.23 20.07,-92.28 40.36,-80.41"/>
<polygon fill="#63b8ff" stroke="#63b8ff" points="41.97,-83.51 49.08,-75.66 38.62,-77.37 41.97,-83.51"/>
</a>
</g>
</g>
<!-- Node7&#45;&gt;Node6 -->
<g id="edge11_Node000007_Node000006" class="edge">
<title>Node7&#45;&gt;Node6</title>
<g id="a_edge11_Node000007_Node000006"><a xlink:title=" ">
<path fill="none" stroke="#63b8ff" d="M99.87,-165.34C117.49,-157.04 143.86,-144.61 164.17,-135.04"/>
<polygon fill="#63b8ff" stroke="#63b8ff" points="165.52,-138.28 173.07,-130.85 162.53,-131.94 165.52,-138.28"/>
</a>
</g>
</g>
<!-- Node8 -->
<g id="Node000008" class="node">
<title>Node8</title>
<g id="a_Node000008"><a xlink:title=" ">
<polygon fill="#e0e0e0" stroke="#999999" points="143.08,-129.75 18.33,-129.75 18.33,-110.5 143.08,-110.5 143.08,-129.75"/>
<text text-anchor="middle" x="80.7" y="-116.25" font-family="Helvetica,sans-Serif" font-size="10.00">boost/numeric/odeint.hpp</text>
</a>
</g>
</g>
<!-- Node7&#45;&gt;Node8 -->
<g id="edge12_Node000007_Node000008" class="edge">
<title>Node7&#45;&gt;Node8</title>
<g id="a_edge12_Node000007_Node000008"><a xlink:title=" ">
<path fill="none" stroke="#63b8ff" d="M80.7,-165.58C80.7,-159.07 80.7,-149.92 80.7,-141.62"/>
<polygon fill="#63b8ff" stroke="#63b8ff" points="84.2,-141.62 80.7,-131.62 77.2,-141.62 84.2,-141.62"/>
</a>
</g>
</g>
</g>
</svg>
