<?xml version="1.0" encoding="UTF-8" standalone="no"?>
<!DOCTYPE svg PUBLIC "-//W3C//DTD SVG 1.1//EN"
 "http://www.w3.org/Graphics/SVG/1.1/DTD/svg11.dtd">
<!-- Generated by graphviz version 6.0.2 (20221011.1828)
 -->
<!-- Title: src/lib/angdist/TDPAD.cc Pages: 1 -->
<svg width="760pt" height="247pt"
 viewBox="0.00 0.00 759.50 247.00" xmlns="http://www.w3.org/2000/svg" xmlns:xlink="http://www.w3.org/1999/xlink">
<g id="graph0" class="graph" transform="scale(1 1) rotate(0) translate(4 243)">
<title>src/lib/angdist/TDPAD.cc</title>
<!-- Node1 -->
<g id="node1" class="node">
<title>Node1</title>
<g id="a_node1"><a xlink:title=" ">
<polygon fill="#999999" stroke="#666666" points="236.5,-239 110.5,-239 110.5,-220 236.5,-220 236.5,-239"/>
<text text-anchor="middle" x="173.5" y="-227" font-family="Helvetica,sans-Serif" font-size="10.00">src/lib/angdist/TDPAD.cc</text>
</a>
</g>
</g>
<!-- Node2 -->
<g id="node2" class="node">
<title>Node2</title>
<g id="a_node2"><a xlink:title=" ">
<polygon fill="#e0e0e0" stroke="#999999" points="163.5,-184 107.5,-184 107.5,-165 163.5,-165 163.5,-184"/>
<text text-anchor="middle" x="135.5" y="-172" font-family="Helvetica,sans-Serif" font-size="10.00">TMinuit.h</text>
</a>
</g>
</g>
<!-- Node1&#45;&gt;Node2 -->
<g id="edge1" class="edge">
<title>Node1&#45;&gt;Node2</title>
<path fill="none" stroke="#63b8ff" d="M167.23,-219.75C161.91,-212.34 154.14,-201.5 147.62,-192.41"/>
<polygon fill="#63b8ff" stroke="#63b8ff" points="150.33,-190.18 141.66,-184.09 144.64,-194.26 150.33,-190.18"/>
</g>
<!-- Node3 -->
<g id="node3" class="node">
<title>Node3</title>
<g id="a_node3"><a xlink:href="../../d5/d66/_t_d_p_a_d_8hh.html" target="_top" xlink:title=" ">
<polygon fill="white" stroke="#666666" points="243.5,-184 181.5,-184 181.5,-165 243.5,-165 243.5,-184"/>
<text text-anchor="middle" x="212.5" y="-172" font-family="Helvetica,sans-Serif" font-size="10.00">TDPAD.hh</text>
</a>
</g>
</g>
<!-- Node1&#45;&gt;Node3 -->
<g id="edge2" class="edge">
<title>Node1&#45;&gt;Node3</title>
<path fill="none" stroke="#63b8ff" d="M179.94,-219.75C185.39,-212.34 193.36,-201.5 200.06,-192.41"/>
<polygon fill="#63b8ff" stroke="#63b8ff" points="203.07,-194.22 206.18,-184.09 197.43,-190.07 203.07,-194.22"/>
</g>
<!-- Node4 -->
<g id="node4" class="node">
<title>Node4</title>
<g id="a_node4"><a xlink:title=" ">
<polygon fill="#e0e0e0" stroke="#999999" points="41,-19 0,-19 0,0 41,0 41,-19"/>
<text text-anchor="middle" x="20.5" y="-7" font-family="Helvetica,sans-Serif" font-size="10.00">string</text>
</a>
</g>
</g>
<!-- Node3&#45;&gt;Node4 -->
<g id="edge3" class="edge">
<title>Node3&#45;&gt;Node4</title>
<path fill="none" stroke="#63b8ff" d="M181.45,-167.25C156.39,-160.96 121.34,-149.23 96.5,-129 62.52,-101.33 38.86,-54.29 27.73,-28.59"/>
<polygon fill="#63b8ff" stroke="#63b8ff" points="30.93,-27.17 23.85,-19.28 24.47,-29.86 30.93,-27.17"/>
</g>
<!-- Node5 -->
<g id="node5" class="node">
<title>Node5</title>
<g id="a_node5"><a xlink:title=" ">
<polygon fill="#e0e0e0" stroke="#999999" points="149.5,-129 105.5,-129 105.5,-110 149.5,-110 149.5,-129"/>
<text text-anchor="middle" x="127.5" y="-117" font-family="Helvetica,sans-Serif" font-size="10.00">vector</text>
</a>
</g>
</g>
<!-- Node3&#45;&gt;Node5 -->
<g id="edge4" class="edge">
<title>Node3&#45;&gt;Node5</title>
<path fill="none" stroke="#63b8ff" d="M198.84,-164.98C185.66,-156.77 165.47,-144.18 149.93,-134.49"/>
<polygon fill="#63b8ff" stroke="#63b8ff" points="151.74,-131.49 141.41,-129.17 148.04,-137.43 151.74,-131.49"/>
</g>
<!-- Node6 -->
<g id="node6" class="node">
<title>Node6</title>
<g id="a_node6"><a xlink:title=" ">
<polygon fill="#e0e0e0" stroke="#999999" points="209,-129 168,-129 168,-110 209,-110 209,-129"/>
<text text-anchor="middle" x="188.5" y="-117" font-family="Helvetica,sans-Serif" font-size="10.00">TF1.h</text>
</a>
</g>
</g>
<!-- Node3&#45;&gt;Node6 -->
<g id="edge5" class="edge">
<title>Node3&#45;&gt;Node6</title>
<path fill="none" stroke="#63b8ff" d="M208.54,-164.75C205.29,-157.57 200.58,-147.18 196.55,-138.27"/>
<polygon fill="#63b8ff" stroke="#63b8ff" points="199.7,-136.75 192.39,-129.09 193.33,-139.64 199.7,-136.75"/>
</g>
<!-- Node7 -->
<g id="node7" class="node">
<title>Node7</title>
<g id="a_node7"><a xlink:title=" ">
<polygon fill="#e0e0e0" stroke="#999999" points="102,-19 59,-19 59,0 102,0 102,-19"/>
<text text-anchor="middle" x="80.5" y="-7" font-family="Helvetica,sans-Serif" font-size="10.00">TH1.h</text>
</a>
</g>
</g>
<!-- Node3&#45;&gt;Node7 -->
<g id="edge6" class="edge">
<title>Node3&#45;&gt;Node7</title>
<path fill="none" stroke="#63b8ff" d="M215.95,-164.72C220.39,-151.92 226.54,-127.73 217.5,-110 195.39,-66.62 144.53,-37.72 111.39,-22.72"/>
<polygon fill="#63b8ff" stroke="#63b8ff" points="112.7,-19.48 102.13,-18.69 109.9,-25.89 112.7,-19.48"/>
</g>
<!-- Node8 -->
<g id="node8" class="node">
<title>Node8</title>
<g id="a_node8"><a xlink:href="../../dd/d50/_gate_8hh.html" target="_top" xlink:title=" ">
<polygon fill="white" stroke="#666666" points="417.5,-74 337.5,-74 337.5,-55 417.5,-55 417.5,-74"/>
<text text-anchor="middle" x="377.5" y="-62" font-family="Helvetica,sans-Serif" font-size="10.00">toolkit/Gate.hh</text>
</a>
</g>
</g>
<!-- Node3&#45;&gt;Node8 -->
<g id="edge7" class="edge">
<title>Node3&#45;&gt;Node8</title>
<path fill="none" stroke="#63b8ff" d="M225.72,-164.84C254.08,-146.28 320.99,-102.49 355.72,-79.75"/>
<polygon fill="#63b8ff" stroke="#63b8ff" points="357.76,-82.6 364.21,-74.2 353.93,-76.74 357.76,-82.6"/>
</g>
<!-- Node18 -->
<g id="node18" class="node">
<title>Node18</title>
<g id="a_node18"><a xlink:href="../../d3/d2c/_transition_8hh.html" target="_top" xlink:title=" ">
<polygon fill="white" stroke="#666666" points="573,-129 464,-129 464,-110 573,-110 573,-129"/>
<text text-anchor="middle" x="518.5" y="-117" font-family="Helvetica,sans-Serif" font-size="10.00">nucleus/Transition.hh</text>
</a>
</g>
</g>
<!-- Node3&#45;&gt;Node18 -->
<g id="edge19" class="edge">
<title>Node3&#45;&gt;Node18</title>
<path fill="none" stroke="#63b8ff" d="M243.52,-168.13C294,-159.38 394.75,-141.93 459.28,-130.76"/>
<polygon fill="#63b8ff" stroke="#63b8ff" points="460.05,-134.18 469.31,-129.02 458.86,-127.28 460.05,-134.18"/>
</g>
<!-- Node8&#45;&gt;Node4 -->
<g id="edge11" class="edge">
<title>Node8&#45;&gt;Node4</title>
<path fill="none" stroke="#63b8ff" d="M337.4,-58.22C260.72,-48.11 97.36,-26.47 51.43,-18.86"/>
<polygon fill="#63b8ff" stroke="#63b8ff" points="51.78,-15.36 41.31,-17.01 50.52,-22.25 51.78,-15.36"/>
</g>
<!-- Node8&#45;&gt;Node7 -->
<g id="edge16" class="edge">
<title>Node8&#45;&gt;Node7</title>
<path fill="none" stroke="#63b8ff" d="M337.15,-58.06C286.76,-50.97 197.75,-37.51 112.01,-18.9"/>
<polygon fill="#63b8ff" stroke="#63b8ff" points="112.63,-15.46 102.11,-16.73 111.13,-22.29 112.63,-15.46"/>
</g>
<!-- Node9 -->
<g id="node9" class="node">
<title>Node9</title>
<g id="a_node9"><a xlink:title=" ">
<polygon fill="#e0e0e0" stroke="#999999" points="473.5,-19 417.5,-19 417.5,0 473.5,0 473.5,-19"/>
<text text-anchor="middle" x="445.5" y="-7" font-family="Helvetica,sans-Serif" font-size="10.00">algorithm</text>
</a>
</g>
</g>
<!-- Node8&#45;&gt;Node9 -->
<g id="edge8" class="edge">
<title>Node8&#45;&gt;Node9</title>
<path fill="none" stroke="#63b8ff" d="M388.43,-54.98C398.58,-47.07 413.92,-35.11 426.15,-25.58"/>
<polygon fill="#63b8ff" stroke="#63b8ff" points="428.64,-28.08 434.38,-19.17 424.34,-22.56 428.64,-28.08"/>
</g>
<!-- Node10 -->
<g id="node10" class="node">
<title>Node10</title>
<g id="a_node10"><a xlink:title=" ">
<polygon fill="#e0e0e0" stroke="#999999" points="679,-19 644,-19 644,0 679,0 679,-19"/>
<text text-anchor="middle" x="661.5" y="-7" font-family="Helvetica,sans-Serif" font-size="10.00">map</text>
</a>
</g>
</g>
<!-- Node8&#45;&gt;Node10 -->
<g id="edge9" class="edge">
<title>Node8&#45;&gt;Node10</title>
<path fill="none" stroke="#63b8ff" d="M417.91,-58.21C466.88,-51.42 552.02,-38.42 634.14,-18.78"/>
<polygon fill="#63b8ff" stroke="#63b8ff" points="634.98,-22.18 643.88,-16.42 633.33,-15.38 634.98,-22.18"/>
</g>
<!-- Node11 -->
<g id="node11" class="node">
<title>Node11</title>
<g id="a_node11"><a xlink:title=" ">
<polygon fill="#e0e0e0" stroke="#999999" points="172.5,-19 120.5,-19 120.5,0 172.5,0 172.5,-19"/>
<text text-anchor="middle" x="146.5" y="-7" font-family="Helvetica,sans-Serif" font-size="10.00">sstream</text>
</a>
</g>
</g>
<!-- Node8&#45;&gt;Node11 -->
<g id="edge10" class="edge">
<title>Node8&#45;&gt;Node11</title>
<path fill="none" stroke="#63b8ff" d="M339.15,-54.97C301.7,-46.6 242.81,-33.34 182.88,-19.3"/>
<polygon fill="#63b8ff" stroke="#63b8ff" points="183.4,-15.83 172.86,-16.95 181.8,-22.64 183.4,-15.83"/>
</g>
<!-- Node12 -->
<g id="node12" class="node">
<title>Node12</title>
<g id="a_node12"><a xlink:title=" ">
<polygon fill="#e0e0e0" stroke="#999999" points="751.5,-19 697.5,-19 697.5,0 751.5,0 751.5,-19"/>
<text text-anchor="middle" x="724.5" y="-7" font-family="Helvetica,sans-Serif" font-size="10.00">iostream</text>
</a>
</g>
</g>
<!-- Node8&#45;&gt;Node12 -->
<g id="edge12" class="edge">
<title>Node8&#45;&gt;Node12</title>
<path fill="none" stroke="#63b8ff" d="M417.95,-58.89C475.61,-52.06 584.93,-38.16 687.52,-19.03"/>
<polygon fill="#63b8ff" stroke="#63b8ff" points="688.25,-22.46 697.43,-17.17 686.95,-15.58 688.25,-22.46"/>
</g>
<!-- Node13 -->
<g id="node13" class="node">
<title>Node13</title>
<g id="a_node13"><a xlink:title=" ">
<polygon fill="#e0e0e0" stroke="#999999" points="545.5,-19 491.5,-19 491.5,0 545.5,0 545.5,-19"/>
<text text-anchor="middle" x="518.5" y="-7" font-family="Helvetica,sans-Serif" font-size="10.00">Rtypes.h</text>
</a>
</g>
</g>
<!-- Node8&#45;&gt;Node13 -->
<g id="edge13" class="edge">
<title>Node8&#45;&gt;Node13</title>
<path fill="none" stroke="#63b8ff" d="M400.15,-54.98C423.35,-46.27 459.62,-32.63 485.9,-22.75"/>
<polygon fill="#63b8ff" stroke="#63b8ff" points="487.3,-25.97 495.43,-19.17 484.84,-19.41 487.3,-25.97"/>
</g>
<!-- Node14 -->
<g id="node14" class="node">
<title>Node14</title>
<g id="a_node14"><a xlink:title=" ">
<polygon fill="#e0e0e0" stroke="#999999" points="256.5,-19 190.5,-19 190.5,0 256.5,0 256.5,-19"/>
<text text-anchor="middle" x="223.5" y="-7" font-family="Helvetica,sans-Serif" font-size="10.00">TBrowser.h</text>
</a>
</g>
</g>
<!-- Node8&#45;&gt;Node14 -->
<g id="edge14" class="edge">
<title>Node8&#45;&gt;Node14</title>
<path fill="none" stroke="#63b8ff" d="M352.76,-54.98C327.13,-46.16 286.87,-32.31 258.09,-22.41"/>
<polygon fill="#63b8ff" stroke="#63b8ff" points="259.03,-19.03 248.44,-19.08 256.75,-25.65 259.03,-19.03"/>
</g>
<!-- Node15 -->
<g id="node15" class="node">
<title>Node15</title>
<g id="a_node15"><a xlink:title=" ">
<polygon fill="#e0e0e0" stroke="#999999" points="338,-19 275,-19 275,0 338,0 338,-19"/>
<text text-anchor="middle" x="306.5" y="-7" font-family="Helvetica,sans-Serif" font-size="10.00">TCanvas.h</text>
</a>
</g>
</g>
<!-- Node8&#45;&gt;Node15 -->
<g id="edge15" class="edge">
<title>Node8&#45;&gt;Node15</title>
<path fill="none" stroke="#63b8ff" d="M366.09,-54.98C355.39,-47 339.16,-34.88 326.34,-25.31"/>
<polygon fill="#63b8ff" stroke="#63b8ff" points="328.22,-22.35 318.11,-19.17 324.03,-27.96 328.22,-22.35"/>
</g>
<!-- Node16 -->
<g id="node16" class="node">
<title>Node16</title>
<g id="a_node16"><a xlink:title=" ">
<polygon fill="#e0e0e0" stroke="#999999" points="399,-19 356,-19 356,0 399,0 399,-19"/>
<text text-anchor="middle" x="377.5" y="-7" font-family="Helvetica,sans-Serif" font-size="10.00">TH2.h</text>
</a>
</g>
</g>
<!-- Node8&#45;&gt;Node16 -->
<g id="edge17" class="edge">
<title>Node8&#45;&gt;Node16</title>
<path fill="none" stroke="#63b8ff" d="M377.5,-54.75C377.5,-47.8 377.5,-37.85 377.5,-29.13"/>
<polygon fill="#63b8ff" stroke="#63b8ff" points="381,-29.09 377.5,-19.09 374,-29.09 381,-29.09"/>
</g>
<!-- Node17 -->
<g id="node17" class="node">
<title>Node17</title>
<g id="a_node17"><a xlink:title=" ">
<polygon fill="#e0e0e0" stroke="#999999" points="625.5,-19 563.5,-19 563.5,0 625.5,0 625.5,-19"/>
<text text-anchor="middle" x="594.5" y="-7" font-family="Helvetica,sans-Serif" font-size="10.00">TNamed.h</text>
</a>
</g>
</g>
<!-- Node8&#45;&gt;Node17 -->
<g id="edge18" class="edge">
<title>Node8&#45;&gt;Node17</title>
<path fill="none" stroke="#63b8ff" d="M412.36,-54.98C450.8,-45.6 512.58,-30.51 553.36,-20.55"/>
<polygon fill="#63b8ff" stroke="#63b8ff" points="554.36,-23.91 563.24,-18.13 552.7,-17.11 554.36,-23.91"/>
</g>
<!-- Node18&#45;&gt;Node4 -->
<g id="edge22" class="edge">
<title>Node18&#45;&gt;Node4</title>
<path fill="none" stroke="#63b8ff" d="M472.63,-109.97C390.1,-94.36 210.99,-59.31 51.06,-19.25"/>
<polygon fill="#63b8ff" stroke="#63b8ff" points="51.59,-15.78 41.04,-16.73 49.89,-22.57 51.59,-15.78"/>
</g>
<!-- Node18&#45;&gt;Node8 -->
<g id="edge25" class="edge">
<title>Node18&#45;&gt;Node8</title>
<path fill="none" stroke="#63b8ff" d="M495.85,-109.98C472.65,-101.27 436.38,-87.63 410.1,-77.75"/>
<polygon fill="#63b8ff" stroke="#63b8ff" points="411.16,-74.41 400.57,-74.17 408.7,-80.97 411.16,-74.41"/>
</g>
<!-- Node18&#45;&gt;Node10 -->
<g id="edge20" class="edge">
<title>Node18&#45;&gt;Node10</title>
<path fill="none" stroke="#63b8ff" d="M530.2,-109.66C554.73,-91.14 611.75,-48.08 641.94,-25.28"/>
<polygon fill="#63b8ff" stroke="#63b8ff" points="644.17,-27.98 650.04,-19.16 639.95,-22.39 644.17,-27.98"/>
</g>
<!-- Node18&#45;&gt;Node12 -->
<g id="edge21" class="edge">
<title>Node18&#45;&gt;Node12</title>
<path fill="none" stroke="#63b8ff" d="M534.8,-109.97C551.91,-101.02 579.6,-86.53 603.5,-74 636.52,-56.69 674.59,-36.71 699.08,-23.85"/>
<polygon fill="#63b8ff" stroke="#63b8ff" points="700.84,-26.88 708.06,-19.13 697.58,-20.68 700.84,-26.88"/>
</g>
<!-- Node18&#45;&gt;Node13 -->
<g id="edge23" class="edge">
<title>Node18&#45;&gt;Node13</title>
<path fill="none" stroke="#63b8ff" d="M518.5,-109.66C518.5,-92.17 518.5,-52.8 518.5,-29.27"/>
<polygon fill="#63b8ff" stroke="#63b8ff" points="522,-29.16 518.5,-19.16 515,-29.16 522,-29.16"/>
</g>
<!-- Node18&#45;&gt;Node17 -->
<g id="edge24" class="edge">
<title>Node18&#45;&gt;Node17</title>
<path fill="none" stroke="#63b8ff" d="M524.72,-109.66C537.36,-91.69 566.25,-50.64 582.62,-27.38"/>
<polygon fill="#63b8ff" stroke="#63b8ff" points="585.51,-29.35 588.41,-19.16 579.79,-25.32 585.51,-29.35"/>
</g>
</g>
</svg>
