<?xml version="1.0" encoding="UTF-8" standalone="no"?>
<!DOCTYPE svg PUBLIC "-//W3C//DTD SVG 1.1//EN"
 "http://www.w3.org/Graphics/SVG/1.1/DTD/svg11.dtd">
<!-- Generated by graphviz version 2.50.0 (20220203.2022)
 -->
<!-- Title: GamR::AngDist::SolidAttenuation::Get Pages: 1 -->
<!--zoomable 232 -->
<svg id="main" version="1.1" xmlns="http://www.w3.org/2000/svg" xmlns:xlink="http://www.w3.org/1999/xlink" xml:space="preserve" onload="init(evt)">
<style type="text/css"><![CDATA[
.edge:hover path { stroke: red; }
.edge:hover polygon { stroke: red; fill: red; }
]]></style>
<script type="text/javascript"><![CDATA[
var edges = document.getElementsByTagName('g');
if (edges && edges.length) {
  for (var i=0;i<edges.length;i++) {
    if (edges[i].id.substr(0,4)=='edge') {
      edges[i].setAttribute('class','edge');
    }
  }
}
]]></script>
        <defs>
                <circle id="rim" cx="0" cy="0" r="7"/>
                <circle id="rim2" cx="0" cy="0" r="3.5"/>
                <g id="zoomPlus">
                        <use xlink:href="#rim" fill="#404040">
                                <set attributeName="fill" to="#808080" begin="zoomplus.mouseover" end="zoomplus.mouseout"/>
                        </use>
                        <path d="M-4,0h8M0,-4v8" fill="none" stroke="white" stroke-width="1.5" pointer-events="none"/>
                </g>
                <g id="zoomMin">
                        <use xlink:href="#rim" fill="#404040">
                                <set attributeName="fill" to="#808080" begin="zoomminus.mouseover" end="zoomminus.mouseout"/>
                        </use>
                        <path d="M-4,0h8" fill="none" stroke="white" stroke-width="1.5" pointer-events="none"/>
                </g>
                <g id="dirArrow">
                        <path fill="none" stroke="white" stroke-width="1.5" d="M0,-3.0v7 M-2.5,-0.5L0,-3.0L2.5,-0.5"/>
                </g>
               <g id="resetDef">
                       <use xlink:href="#rim2" fill="#404040">
                               <set attributeName="fill" to="#808080" begin="reset.mouseover" end="reset.mouseout"/>
                       </use>
               </g>
        </defs>

<script type="text/javascript">
var viewWidth = 505;
var viewHeight = 232;
var sectionId = 'dynsection-2';
</script>
<script xlink:href="../../svgpan.js"/>
<svg id="graph" class="graph">
<g id="viewport">
<title>GamR::AngDist::SolidAttenuation::Get</title>
<polygon fill="white" stroke="transparent" points="-4,4 -4,-227.5 501,-227.5 501,4 -4,4"/>
<!-- Node1 -->
<g id="node1" class="node">
<title>Node1</title>
<g id="a_node1"><a xlink:title=" ">
<polygon fill="#bfbfbf" stroke="black" points="318,-100.5 318,-119.5 497,-119.5 497,-100.5 318,-100.5"/>
<text text-anchor="middle" x="407.5" y="-107.5" font-family="Helvetica,sans-Serif" font-size="10.00">GamR::AngDist::SolidAttenuation::Get</text>
</a>
</g>
</g>
<!-- Node2 -->
<g id="node2" class="node">
<title>Node2</title>
<g id="a_node2"><a xlink:href="../../da/dfc/class_gam_r_1_1_ang_dist_1_1_stat_tensor.html#aff931e179fa69b6b1d8c9d16d4812613" target="_top" xlink:title=" ">
<polygon fill="white" stroke="black" points="139.5,-193 139.5,-223 275.5,-223 275.5,-193 139.5,-193"/>
<text text-anchor="start" x="147.5" y="-211" font-family="Helvetica,sans-Serif" font-size="10.00">GamR::AngDist::StatTensor</text>
<text text-anchor="middle" x="207.5" y="-200" font-family="Helvetica,sans-Serif" font-size="10.00">::ObservedProp</text>
</a>
</g>
</g>
<!-- Node1&#45;&gt;Node2 -->
<g id="edge1" class="edge">
<title>Node1&#45;&gt;Node2</title>
<path fill="none" stroke="midnightblue" d="M383.99,-125.45C359.67,-141.65 319.36,-167.05 282,-184 274.91,-187.22 267.26,-190.21 259.67,-192.91"/>
<polygon fill="midnightblue" stroke="midnightblue" points="386.15,-128.22 392.49,-119.73 382.24,-122.41 386.15,-128.22"/>
</g>
<!-- Node3 -->
<g id="node3" class="node">
<title>Node3</title>
<g id="a_node3"><a xlink:href="../../da/d73/class_gam_r_1_1_ang_dist_1_1_ang_corr.html#ab736c46e109d3b9c91d984576886d861" target="_top" xlink:title=" ">
<polygon fill="white" stroke="black" points="146,-144 146,-174 269,-174 269,-144 146,-144"/>
<text text-anchor="start" x="154" y="-162" font-family="Helvetica,sans-Serif" font-size="10.00">GamR::AngDist::AngCorr</text>
<text text-anchor="middle" x="207.5" y="-151" font-family="Helvetica,sans-Serif" font-size="10.00">::operator()</text>
</a>
</g>
</g>
<!-- Node1&#45;&gt;Node3 -->
<g id="edge2" class="edge">
<title>Node1&#45;&gt;Node3</title>
<path fill="none" stroke="midnightblue" d="M357.95,-122.01C331.2,-128.64 297.74,-136.92 269.26,-143.96"/>
<polygon fill="midnightblue" stroke="midnightblue" points="358.99,-125.36 367.85,-119.56 357.31,-118.57 358.99,-125.36"/>
</g>
<!-- Node4 -->
<g id="node4" class="node">
<title>Node4</title>
<g id="a_node4"><a xlink:href="../../da/dfc/class_gam_r_1_1_ang_dist_1_1_stat_tensor.html#a46af4656457f9e9731c2fbee2c2a27b7" target="_top" xlink:title=" ">
<polygon fill="white" stroke="black" points="139.5,-95 139.5,-125 275.5,-125 275.5,-95 139.5,-95"/>
<text text-anchor="start" x="147.5" y="-113" font-family="Helvetica,sans-Serif" font-size="10.00">GamR::AngDist::StatTensor</text>
<text text-anchor="middle" x="207.5" y="-102" font-family="Helvetica,sans-Serif" font-size="10.00">::UnobservedProp</text>
</a>
</g>
</g>
<!-- Node1&#45;&gt;Node4 -->
<g id="edge3" class="edge">
<title>Node1&#45;&gt;Node4</title>
<path fill="none" stroke="midnightblue" d="M307.9,-110C296.97,-110 286.03,-110 275.62,-110"/>
<polygon fill="midnightblue" stroke="midnightblue" points="307.92,-113.5 317.92,-110 307.92,-106.5 307.92,-113.5"/>
</g>
<!-- Node5 -->
<g id="node5" class="node">
<title>Node5</title>
<g id="a_node5"><a xlink:href="../../da/dfc/class_gam_r_1_1_ang_dist_1_1_stat_tensor.html#ad2b2d77bf8d7c0f4d159c5e0011e1b78" target="_top" xlink:title=" ">
<polygon fill="white" stroke="black" points="133,-38.5 133,-57.5 282,-57.5 282,-38.5 133,-38.5"/>
<text text-anchor="middle" x="207.5" y="-45.5" font-family="Helvetica,sans-Serif" font-size="10.00">GamR::AngDist::StatTensor::W</text>
</a>
</g>
</g>
<!-- Node1&#45;&gt;Node5 -->
<g id="edge4" class="edge">
<title>Node1&#45;&gt;Node5</title>
<path fill="none" stroke="midnightblue" d="M366.36,-97.43C328.7,-85.64 273.21,-68.26 239.04,-57.56"/>
<polygon fill="midnightblue" stroke="midnightblue" points="365.41,-100.8 376,-100.45 367.5,-94.12 365.41,-100.8"/>
</g>
<!-- Node6 -->
<g id="node6" class="node">
<title>Node6</title>
<g id="a_node6"><a xlink:href="../../d1/dab/namespace_gam_r_1_1_ang_dist.html#a86706e3a9cf18220393e8bed727f8e3e" target="_top" xlink:title=" ">
<polygon fill="white" stroke="black" points="159,-0.5 159,-19.5 256,-19.5 256,-0.5 159,-0.5"/>
<text text-anchor="middle" x="207.5" y="-7.5" font-family="Helvetica,sans-Serif" font-size="10.00">GamR::AngDist::W</text>
</a>
</g>
</g>
<!-- Node1&#45;&gt;Node6 -->
<g id="edge6" class="edge">
<title>Node1&#45;&gt;Node6</title>
<path fill="none" stroke="midnightblue" d="M386.36,-93.92C362.67,-75.75 321.55,-46.42 282,-29 273.44,-25.23 263.97,-22.09 254.76,-19.52"/>
<polygon fill="midnightblue" stroke="midnightblue" points="384.5,-96.91 394.55,-100.3 388.81,-91.39 384.5,-96.91"/>
</g>
<!-- Node5&#45;&gt;Node5 -->
<g id="edge5" class="edge">
<title>Node5&#45;&gt;Node5</title>
<path fill="none" stroke="midnightblue" d="M236.99,-66.65C235.76,-71.94 225.93,-76 207.5,-76 179.42,-76 171.3,-66.57 183.15,-57.76"/>
<polygon fill="midnightblue" stroke="midnightblue" points="239.89,-64.66 231.85,-57.76 233.82,-68.17 239.89,-64.66"/>
</g>
<!-- Node7 -->
<g id="node7" class="node">
<title>Node7</title>
<g id="a_node7"><a xlink:href="../../d1/dab/namespace_gam_r_1_1_ang_dist.html#acb8013df6dcb1d7635f67a7371bb0eb5" target="_top" xlink:title=" ">
<polygon fill="white" stroke="black" points="0,-0.5 0,-19.5 97,-19.5 97,-0.5 0,-0.5"/>
<text text-anchor="middle" x="48.5" y="-7.5" font-family="Helvetica,sans-Serif" font-size="10.00">GamR::AngDist::W</text>
</a>
</g>
</g>
<!-- Node6&#45;&gt;Node7 -->
<g id="edge7" class="edge">
<title>Node6&#45;&gt;Node7</title>
<path fill="none" stroke="midnightblue" d="M148.63,-10C131.69,-10 113.37,-10 97.14,-10"/>
<polygon fill="midnightblue" stroke="midnightblue" points="148.97,-13.5 158.97,-10 148.97,-6.5 148.97,-13.5"/>
</g>
</g>
</svg>
        <g id="navigator" transform="translate(0 0)" fill="#404254">
                <rect fill="#f2f5e9" fill-opacity="0.5" stroke="#606060" stroke-width=".5" x="0" y="0" width="60" height="60"/>
                <use id="zoomplus" xlink:href="#zoomPlus" x="17" y="9" onmousedown="handleZoom(evt,'in')"/>
                <use id="zoomminus" xlink:href="#zoomMin" x="42" y="9" onmousedown="handleZoom(evt,'out')"/>
                <use id="reset" xlink:href="#resetDef" x="30" y="36" onmousedown="handleReset()"/>
                <g id="arrowUp" xlink:href="#dirArrow" transform="translate(30 24)" onmousedown="handlePan(0,-1)">
                  <use xlink:href="#rim" fill="#404040">
                        <set attributeName="fill" to="#808080" begin="arrowUp.mouseover" end="arrowUp.mouseout"/>
                  </use>
                  <path fill="none" stroke="white" stroke-width="1.5" d="M0,-3.0v7 M-2.5,-0.5L0,-3.0L2.5,-0.5"/>
                </g>
                <g id="arrowRight" xlink:href="#dirArrow" transform="rotate(90) translate(36 -43)" onmousedown="handlePan(1,0)">
                  <use xlink:href="#rim" fill="#404040">
                        <set attributeName="fill" to="#808080" begin="arrowRight.mouseover" end="arrowRight.mouseout"/>
                  </use>
                  <path fill="none" stroke="white" stroke-width="1.5" d="M0,-3.0v7 M-2.5,-0.5L0,-3.0L2.5,-0.5"/>
                </g>
                <g id="arrowDown" xlink:href="#dirArrow" transform="rotate(180) translate(-30 -48)" onmousedown="handlePan(0,1)">
                  <use xlink:href="#rim" fill="#404040">
                        <set attributeName="fill" to="#808080" begin="arrowDown.mouseover" end="arrowDown.mouseout"/>
                  </use>
                  <path fill="none" stroke="white" stroke-width="1.5" d="M0,-3.0v7 M-2.5,-0.5L0,-3.0L2.5,-0.5"/>
                </g>
                <g id="arrowLeft" xlink:href="#dirArrow" transform="rotate(270) translate(-36 17)" onmousedown="handlePan(-1,0)">
                  <use xlink:href="#rim" fill="#404040">
                        <set attributeName="fill" to="#808080" begin="arrowLeft.mouseover" end="arrowLeft.mouseout"/>
                  </use>
                  <path fill="none" stroke="white" stroke-width="1.5" d="M0,-3.0v7 M-2.5,-0.5L0,-3.0L2.5,-0.5"/>
                </g>
        </g>
        <svg viewBox="0 0 15 15" width="100%" height="30px" preserveAspectRatio="xMaxYMin meet">
         <g id="arrow_out" transform="scale(0.3 0.3)">
          <a xlink:href="class_gam_r_1_1_ang_dist_1_1_solid_attenuation_a00f8c011eba761ff461e3d603493a4a9_icgraph_org.svg" target="_base">
           <rect id="button" ry="5" rx="5" y="6" x="6" height="38" width="38"
                fill="#f2f5e9" fill-opacity="0.5" stroke="#606060" stroke-width="1.0"/>
           <path id="arrow"
             d="M 11.500037,31.436501 C 11.940474,20.09759 22.043105,11.32322 32.158766,21.979434 L 37.068811,17.246167 C 37.068811,17.246167 37.088388,32 37.088388,32 L 22.160133,31.978069 C 22.160133,31.978069 26.997745,27.140456 26.997745,27.140456 C 18.528582,18.264221 13.291696,25.230495 11.500037,31.436501 z"
             style="fill:#404040;"/>
          </a>
         </g>
        </svg>
</svg>
