<?xml version="1.0" encoding="UTF-8" standalone="no"?>
<!DOCTYPE svg PUBLIC "-//W3C//DTD SVG 1.1//EN"
 "http://www.w3.org/Graphics/SVG/1.1/DTD/svg11.dtd">
<!-- Generated by graphviz version 8.1.0 (20230707.0739)
 -->
<!-- Title: GamR::Efficiency::EffFit::Draw Pages: 1 -->
<svg width="291pt" height="76pt"
 viewBox="0.00 0.00 291.25 75.88" xmlns="http://www.w3.org/2000/svg" xmlns:xlink="http://www.w3.org/1999/xlink">
<g id="graph0" class="graph" transform="scale(1 1) rotate(0) translate(4 71.88)">
<title>GamR::Efficiency::EffFit::Draw</title>
<!-- Node1 -->
<g id="Node000001" class="node">
<title>Node1</title>
<g id="a_Node000001"><a xlink:title=" ">
<polygon fill="#999999" stroke="#666666" points="283.25,-45.88 167.5,-45.88 167.5,-15.37 283.25,-15.37 283.25,-45.88"/>
<text text-anchor="start" x="175.5" y="-32.38" font-family="Helvetica,sans-Serif" font-size="10.00">GamR::Efficiency::EffFit</text>
<text text-anchor="middle" x="225.38" y="-21.12" font-family="Helvetica,sans-Serif" font-size="10.00">::Draw</text>
</a>
</g>
</g>
<!-- Node2 -->
<g id="Node000002" class="node">
<title>Node2</title>
<g id="a_Node000002"><a xlink:href="../../dc/d61/class_gam_r_1_1_efficiency_1_1_eff_fit.html#a93c2443872b4c644fe95120c27da51ea" target="_top" xlink:title=" ">
<polygon fill="white" stroke="#666666" points="123.62,-67.88 7.88,-67.88 7.88,-37.38 123.62,-37.38 123.62,-67.88"/>
<text text-anchor="start" x="15.88" y="-54.38" font-family="Helvetica,sans-Serif" font-size="10.00">GamR::Efficiency::EffFit</text>
<text text-anchor="middle" x="65.75" y="-43.12" font-family="Helvetica,sans-Serif" font-size="10.00">::Draw</text>
</a>
</g>
</g>
<!-- Node1&#45;&gt;Node2 -->
<g id="edge1_Node000001_Node000002" class="edge">
<title>Node1&#45;&gt;Node2</title>
<g id="a_edge1_Node000001_Node000002"><a xlink:title=" ">
<path fill="none" stroke="#63b8ff" d="M156.37,-40.12C145.6,-41.62 134.55,-43.16 124.06,-44.63"/>
<polygon fill="#63b8ff" stroke="#63b8ff" points="156.6,-43.48 166.02,-38.63 155.64,-36.55 156.6,-43.48"/>
</a>
</g>
</g>
<!-- Node3 -->
<g id="Node000003" class="node">
<title>Node3</title>
<g id="a_Node000003"><a xlink:href="../../dc/d61/class_gam_r_1_1_efficiency_1_1_eff_fit.html#a5737e643d04001de514eb77ba7e010eb" target="_top" xlink:title=" ">
<polygon fill="white" stroke="#666666" points="131.5,-19.25 0,-19.25 0,0 131.5,0 131.5,-19.25"/>
<text text-anchor="middle" x="65.75" y="-5.75" font-family="Helvetica,sans-Serif" font-size="10.00">GamR::Efficiency::EffFit::Fit</text>
</a>
</g>
</g>
<!-- Node1&#45;&gt;Node3 -->
<g id="edge2_Node000001_Node000003" class="edge">
<title>Node1&#45;&gt;Node3</title>
<g id="a_edge2_Node000001_Node000003"><a xlink:title=" ">
<path fill="none" stroke="#63b8ff" d="M156.14,-21.53C148.06,-20.46 139.83,-19.36 131.8,-18.29"/>
<polygon fill="#63b8ff" stroke="#63b8ff" points="155.65,-25.13 166.02,-22.98 156.57,-18.19 155.65,-25.13"/>
</a>
</g>
</g>
</g>
</svg>
