<?xml version="1.0" encoding="UTF-8" standalone="no"?>
<!DOCTYPE svg PUBLIC "-//W3C//DTD SVG 1.1//EN"
 "http://www.w3.org/Graphics/SVG/1.1/DTD/svg11.dtd">
<!-- Generated by graphviz version 5.0.0 (20220708.1001)
 -->
<!-- Title: GamR::Efficiency::EffFit::Draw Pages: 1 -->
<svg width="292pt" height="78pt"
 viewBox="0.00 0.00 292.00 77.50" xmlns="http://www.w3.org/2000/svg" xmlns:xlink="http://www.w3.org/1999/xlink">
<g id="graph0" class="graph" transform="scale(1 1) rotate(0) translate(4 73.5)">
<title>GamR::Efficiency::EffFit::Draw</title>
<polygon fill="white" stroke="transparent" points="-4,4 -4,-73.5 288,-73.5 288,4 -4,4"/>
<!-- Node1 -->
<g id="node1" class="node">
<title>Node1</title>
<g id="a_node1"><a xlink:title=" ">
<polygon fill="#bfbfbf" stroke="black" points="168,-17 168,-47 284,-47 284,-17 168,-17"/>
<text text-anchor="start" x="176" y="-35" font-family="Helvetica,sans-Serif" font-size="10.00">GamR::Efficiency::EffFit</text>
<text text-anchor="middle" x="226" y="-24" font-family="Helvetica,sans-Serif" font-size="10.00">::Draw</text>
</a>
</g>
</g>
<!-- Node2 -->
<g id="node2" class="node">
<title>Node2</title>
<g id="a_node2"><a xlink:href="../../dc/d61/class_gam_r_1_1_efficiency_1_1_eff_fit.html#a93c2443872b4c644fe95120c27da51ea" target="_top" xlink:title=" ">
<polygon fill="white" stroke="black" points="8,-39 8,-69 124,-69 124,-39 8,-39"/>
<text text-anchor="start" x="16" y="-57" font-family="Helvetica,sans-Serif" font-size="10.00">GamR::Efficiency::EffFit</text>
<text text-anchor="middle" x="66" y="-46" font-family="Helvetica,sans-Serif" font-size="10.00">::Draw</text>
</a>
</g>
</g>
<!-- Node1&#45;&gt;Node2 -->
<g id="edge1" class="edge">
<title>Node1&#45;&gt;Node2</title>
<path fill="none" stroke="midnightblue" d="M157.81,-41.36C146.63,-42.91 135.13,-44.51 124.22,-46.03"/>
<polygon fill="midnightblue" stroke="midnightblue" points="158.54,-44.79 167.96,-39.94 157.57,-37.86 158.54,-44.79"/>
</g>
<!-- Node3 -->
<g id="node3" class="node">
<title>Node3</title>
<g id="a_node3"><a xlink:href="../../dc/d61/class_gam_r_1_1_efficiency_1_1_eff_fit.html#a5737e643d04001de514eb77ba7e010eb" target="_top" xlink:title=" ">
<polygon fill="white" stroke="black" points="0,-0.5 0,-19.5 132,-19.5 132,-0.5 0,-0.5"/>
<text text-anchor="middle" x="66" y="-7.5" font-family="Helvetica,sans-Serif" font-size="10.00">GamR::Efficiency::EffFit::Fit</text>
</a>
</g>
</g>
<!-- Node1&#45;&gt;Node3 -->
<g id="edge2" class="edge">
<title>Node1&#45;&gt;Node3</title>
<path fill="none" stroke="midnightblue" d="M157.97,-22.67C149.37,-21.47 140.58,-20.24 132.01,-19.05"/>
<polygon fill="midnightblue" stroke="midnightblue" points="157.57,-26.14 167.96,-24.06 158.54,-19.21 157.57,-26.14"/>
</g>
</g>
</svg>
