<?xml version="1.0" encoding="UTF-8" standalone="no"?>
<!DOCTYPE svg PUBLIC "-//W3C//DTD SVG 1.1//EN"
 "http://www.w3.org/Graphics/SVG/1.1/DTD/svg11.dtd">
<!-- Generated by graphviz version 12.2.1 (20241206.2353)
 -->
<!-- Title: GamR::Efficiency::EffFit::EffFit Pages: 1 -->
<svg width="654pt" height="51pt"
 viewBox="0.00 0.00 654.30 50.88" xmlns="http://www.w3.org/2000/svg" xmlns:xlink="http://www.w3.org/1999/xlink">
<g id="graph0" class="graph" transform="scale(1 1) rotate(0) translate(4 46.88)">
<title>GamR::Efficiency::EffFit::EffFit</title>
<!-- Node1 -->
<g id="Node000001" class="node">
<title>Node1</title>
<g id="a_Node000001"><a xlink:title=" ">
<polygon fill="#999999" stroke="#666666" points="115.75,-30.5 0,-30.5 0,0 115.75,0 115.75,-30.5"/>
<text text-anchor="start" x="8" y="-17" font-family="Helvetica,sans-Serif" font-size="10.00">GamR::Efficiency::EffFit</text>
<text text-anchor="middle" x="57.88" y="-5.75" font-family="Helvetica,sans-Serif" font-size="10.00">::EffFit</text>
</a>
</g>
</g>
<!-- Node2 -->
<g id="Node000002" class="node">
<title>Node2</title>
<g id="a_Node000002"><a xlink:href="../../d7/dd8/namespace_gam_r_1_1_efficiency.html#a427d0e741996ac1982ee55180be3ecdf" target="_top" xlink:title=" ">
<polygon fill="white" stroke="#666666" points="284.75,-24.88 151.75,-24.88 151.75,-5.63 284.75,-5.63 284.75,-24.88"/>
<text text-anchor="middle" x="218.25" y="-11.38" font-family="Helvetica,sans-Serif" font-size="10.00">GamR::Efficiency::EffCFunc</text>
</a>
</g>
</g>
<!-- Node1&#45;&gt;Node2 -->
<g id="edge1_Node000001_Node000002" class="edge">
<title>Node1&#45;&gt;Node2</title>
<g id="a_edge1_Node000001_Node000002"><a xlink:title=" ">
<path fill="none" stroke="#63b8ff" d="M116.05,-15.25C123.82,-15.25 131.9,-15.25 139.95,-15.25"/>
<polygon fill="#63b8ff" stroke="#63b8ff" points="139.76,-18.75 149.76,-15.25 139.76,-11.75 139.76,-18.75"/>
</a>
</g>
</g>
<!-- Node3 -->
<g id="Node000003" class="node">
<title>Node3</title>
<g id="a_Node000003"><a xlink:href="../../d0/d17/_abbreviations_8cc.html#aac6b7f4e4bdca0828a1553bfe8a0bca5" target="_top" xlink:title=" ">
<polygon fill="white" stroke="#666666" points="349.55,-24.88 320.75,-24.88 320.75,-5.63 349.55,-5.63 349.55,-24.88"/>
<text text-anchor="middle" x="335.15" y="-11.38" font-family="Helvetica,sans-Serif" font-size="10.00">log</text>
</a>
</g>
</g>
<!-- Node2&#45;&gt;Node3 -->
<g id="edge2_Node000002_Node000003" class="edge">
<title>Node2&#45;&gt;Node3</title>
<g id="a_edge2_Node000002_Node000003"><a xlink:title=" ">
<path fill="none" stroke="#63b8ff" d="M285.09,-15.25C293.59,-15.25 301.85,-15.25 309.08,-15.25"/>
<polygon fill="#63b8ff" stroke="#63b8ff" points="308.99,-18.75 318.99,-15.25 308.99,-11.75 308.99,-18.75"/>
</a>
</g>
</g>
<!-- Node4 -->
<g id="Node000004" class="node">
<title>Node4</title>
<g id="a_Node000004"><a xlink:href="../../dc/d89/namespace_gam_r_1_1_spect.html#aa3a93f8152a5a49fd88de42c1eb4f97f" target="_top" xlink:title=" ">
<polygon fill="white" stroke="#666666" points="491.55,-24.88 385.55,-24.88 385.55,-5.63 491.55,-5.63 491.55,-24.88"/>
<text text-anchor="middle" x="438.55" y="-11.38" font-family="Helvetica,sans-Serif" font-size="10.00">GamR::Spect::LogAll</text>
</a>
</g>
</g>
<!-- Node3&#45;&gt;Node4 -->
<g id="edge3_Node000003_Node000004" class="edge">
<title>Node3&#45;&gt;Node4</title>
<g id="a_edge3_Node000003_Node000004"><a xlink:title=" ">
<path fill="none" stroke="#63b8ff" d="M349.83,-15.25C356.44,-15.25 364.89,-15.25 373.94,-15.25"/>
<polygon fill="#63b8ff" stroke="#63b8ff" points="373.66,-18.75 383.66,-15.25 373.66,-11.75 373.66,-18.75"/>
</a>
</g>
</g>
<!-- Node4&#45;&gt;Node4 -->
<g id="edge5_Node000004_Node000004" class="edge">
<title>Node4&#45;&gt;Node4</title>
<g id="a_edge5_Node000004_Node000004"><a xlink:title=" ">
<path fill="none" stroke="#63b8ff" d="M422.36,-25.16C414.98,-33.77 420.37,-42.88 438.55,-42.88 448.49,-42.88 454.61,-40.15 456.9,-36.28"/>
<polygon fill="#63b8ff" stroke="#63b8ff" points="460.38,-35.79 455.03,-26.65 453.5,-37.13 460.38,-35.79"/>
</a>
</g>
</g>
<!-- Node5 -->
<g id="Node000005" class="node">
<title>Node5</title>
<g id="a_Node000005"><a xlink:href="../../d0/db7/namespace_gam_r_1_1_utils.html#a0adbf2bb55ef0a9adfc45b00210c92c0" target="_top" xlink:title=" ">
<polygon fill="white" stroke="#666666" points="646.3,-24.88 527.55,-24.88 527.55,-5.63 646.3,-5.63 646.3,-24.88"/>
<text text-anchor="middle" x="586.92" y="-11.38" font-family="Helvetica,sans-Serif" font-size="10.00">GamR::Utils::GetNPads</text>
</a>
</g>
</g>
<!-- Node4&#45;&gt;Node5 -->
<g id="edge4_Node000004_Node000005" class="edge">
<title>Node4&#45;&gt;Node5</title>
<g id="a_edge4_Node000004_Node000005"><a xlink:title=" ">
<path fill="none" stroke="#63b8ff" d="M491.98,-15.25C499.73,-15.25 507.82,-15.25 515.86,-15.25"/>
<polygon fill="#63b8ff" stroke="#63b8ff" points="515.64,-18.75 525.64,-15.25 515.64,-11.75 515.64,-18.75"/>
</a>
</g>
</g>
</g>
</svg>
