<?xml version="1.0" encoding="UTF-8" standalone="no"?>
<!DOCTYPE svg PUBLIC "-//W3C//DTD SVG 1.1//EN"
 "http://www.w3.org/Graphics/SVG/1.1/DTD/svg11.dtd">
<!-- Generated by graphviz version 2.49.3 (20211023.0002)
 -->
<!-- Title: GamR::Coulex::LevelScheme::SetIndices Pages: 1 -->
<!--zoomable 186 -->
<svg id="main" version="1.1" xmlns="http://www.w3.org/2000/svg" xmlns:xlink="http://www.w3.org/1999/xlink" xml:space="preserve" onload="init(evt)">
<style type="text/css"><![CDATA[
.edge:hover path { stroke: red; }
.edge:hover polygon { stroke: red; fill: red; }
]]></style>
<script type="text/javascript"><![CDATA[
var edges = document.getElementsByTagName('g');
if (edges && edges.length) {
  for (var i=0;i<edges.length;i++) {
    if (edges[i].id.substr(0,4)=='edge') {
      edges[i].setAttribute('class','edge');
    }
  }
}
]]></script>
        <defs>
                <circle id="rim" cx="0" cy="0" r="7"/>
                <circle id="rim2" cx="0" cy="0" r="3.5"/>
                <g id="zoomPlus">
                        <use xlink:href="#rim" fill="#404040">
                                <set attributeName="fill" to="#808080" begin="zoomplus.mouseover" end="zoomplus.mouseout"/>
                        </use>
                        <path d="M-4,0h8M0,-4v8" fill="none" stroke="white" stroke-width="1.5" pointer-events="none"/>
                </g>
                <g id="zoomMin">
                        <use xlink:href="#rim" fill="#404040">
                                <set attributeName="fill" to="#808080" begin="zoomminus.mouseover" end="zoomminus.mouseout"/>
                        </use>
                        <path d="M-4,0h8" fill="none" stroke="white" stroke-width="1.5" pointer-events="none"/>
                </g>
                <g id="dirArrow">
                        <path fill="none" stroke="white" stroke-width="1.5" d="M0,-3.0v7 M-2.5,-0.5L0,-3.0L2.5,-0.5"/>
                </g>
               <g id="resetDef">
                       <use xlink:href="#rim2" fill="#404040">
                               <set attributeName="fill" to="#808080" begin="reset.mouseover" end="reset.mouseout"/>
                       </use>
               </g>
        </defs>

<script type="text/javascript">
var viewWidth = 930;
var viewHeight = 186;
var sectionId = 'dynsection-16';
</script>
<script xlink:href="../../svgpan.js"/>
<svg id="graph" class="graph">
<g id="viewport">
<title>GamR::Coulex::LevelScheme::SetIndices</title>
<polygon fill="white" stroke="transparent" points="-4,4 -4,-182 926,-182 926,4 -4,4"/>
<!-- Node1 -->
<g id="node1" class="node">
<title>Node1</title>
<g id="a_node1"><a xlink:title=" ">
<polygon fill="#bfbfbf" stroke="black" points="774,-72.5 774,-102.5 922,-102.5 922,-72.5 774,-72.5"/>
<text text-anchor="start" x="782" y="-90.5" font-family="Helvetica,sans-Serif" font-size="10.00">GamR::Coulex::LevelScheme</text>
<text text-anchor="middle" x="848" y="-79.5" font-family="Helvetica,sans-Serif" font-size="10.00">::SetIndices</text>
</a>
</g>
</g>
<!-- Node2 -->
<g id="node2" class="node">
<title>Node2</title>
<g id="a_node2"><a xlink:href="../../db/d16/class_gam_r_1_1_coulex_1_1_level_scheme.html#a4b86aa22b5d902bb4bd3a0103744e423" target="_top" xlink:title=" ">
<polygon fill="white" stroke="black" points="590,-96.5 590,-126.5 738,-126.5 738,-96.5 590,-96.5"/>
<text text-anchor="start" x="598" y="-114.5" font-family="Helvetica,sans-Serif" font-size="10.00">GamR::Coulex::LevelScheme</text>
<text text-anchor="middle" x="664" y="-103.5" font-family="Helvetica,sans-Serif" font-size="10.00">::PrintLevels</text>
</a>
</g>
</g>
<!-- Node1&#45;&gt;Node2 -->
<g id="edge1" class="edge">
<title>Node1&#45;&gt;Node2</title>
<path fill="none" stroke="midnightblue" d="M763.76,-98.48C755.2,-99.61 746.54,-100.75 738.09,-101.86"/>
<polygon fill="midnightblue" stroke="midnightblue" points="764.3,-101.94 773.76,-97.16 763.39,-95 764.3,-101.94"/>
</g>
<!-- Node9 -->
<g id="node9" class="node">
<title>Node9</title>
<g id="a_node9"><a xlink:href="../../db/d16/class_gam_r_1_1_coulex_1_1_level_scheme.html#aec7be097855daffdbd46cf158993ed67" target="_top" xlink:title=" ">
<polygon fill="white" stroke="black" points="590,-145.5 590,-175.5 738,-175.5 738,-145.5 590,-145.5"/>
<text text-anchor="start" x="598" y="-163.5" font-family="Helvetica,sans-Serif" font-size="10.00">GamR::Coulex::LevelScheme</text>
<text text-anchor="middle" x="664" y="-152.5" font-family="Helvetica,sans-Serif" font-size="10.00">::PrintTransitions</text>
</a>
</g>
</g>
<!-- Node1&#45;&gt;Node9 -->
<g id="edge10" class="edge">
<title>Node1&#45;&gt;Node9</title>
<path fill="none" stroke="midnightblue" d="M806.61,-106.88C786.25,-116.33 761.04,-127.56 738,-136.5 730.04,-139.59 721.5,-142.63 713.16,-145.46"/>
<polygon fill="midnightblue" stroke="midnightblue" points="808.31,-109.94 815.89,-102.53 805.35,-103.6 808.31,-109.94"/>
</g>
<!-- Node10 -->
<g id="node10" class="node">
<title>Node10</title>
<g id="a_node10"><a xlink:href="../../dd/d3e/class_gam_r_1_1_coulex_1_1_coulex_calculation.html#a79a4ea8f06954b1cf8b8431010fedbf3" target="_top" xlink:title=" ">
<polygon fill="white" stroke="black" points="182,-49.5 182,-79.5 350,-79.5 350,-49.5 182,-49.5"/>
<text text-anchor="start" x="190" y="-67.5" font-family="Helvetica,sans-Serif" font-size="10.00">GamR::Coulex::CoulexCalculation</text>
<text text-anchor="middle" x="266" y="-56.5" font-family="Helvetica,sans-Serif" font-size="10.00">::ReadFromFile</text>
</a>
</g>
</g>
<!-- Node1&#45;&gt;Node10 -->
<g id="edge12" class="edge">
<title>Node1&#45;&gt;Node10</title>
<path fill="none" stroke="midnightblue" d="M763.77,-84.2C653.58,-79.83 460.43,-72.17 350.25,-67.8"/>
<polygon fill="midnightblue" stroke="midnightblue" points="763.71,-87.7 773.84,-84.6 763.98,-80.71 763.71,-87.7"/>
</g>
<!-- Node11 -->
<g id="node11" class="node">
<title>Node11</title>
<g id="a_node11"><a xlink:href="../../dd/d3e/class_gam_r_1_1_coulex_1_1_coulex_calculation.html#a73b102e9bab00f6460caf510c0acb1d1" target="_top" xlink:title=" ">
<polygon fill="white" stroke="black" points="182,-0.5 182,-30.5 350,-30.5 350,-0.5 182,-0.5"/>
<text text-anchor="start" x="190" y="-18.5" font-family="Helvetica,sans-Serif" font-size="10.00">GamR::Coulex::CoulexCalculation</text>
<text text-anchor="middle" x="266" y="-7.5" font-family="Helvetica,sans-Serif" font-size="10.00">::SaveToFile</text>
</a>
</g>
</g>
<!-- Node1&#45;&gt;Node11 -->
<g id="edge15" class="edge">
<title>Node1&#45;&gt;Node11</title>
<path fill="none" stroke="midnightblue" d="M763.6,-76.74C754.95,-75.64 746.3,-74.54 738,-73.5 602.3,-56.43 444.55,-37.11 350.4,-25.64"/>
<polygon fill="midnightblue" stroke="midnightblue" points="763.35,-80.24 773.72,-78.03 764.24,-73.3 763.35,-80.24"/>
</g>
<!-- Node3 -->
<g id="node3" class="node">
<title>Node3</title>
<g id="a_node3"><a xlink:href="../../db/d16/class_gam_r_1_1_coulex_1_1_level_scheme.html#a43e42d464d621adff7a959aeeef6b690" target="_top" xlink:title=" ">
<polygon fill="white" stroke="black" points="396,-145.5 396,-175.5 544,-175.5 544,-145.5 396,-145.5"/>
<text text-anchor="start" x="404" y="-163.5" font-family="Helvetica,sans-Serif" font-size="10.00">GamR::Coulex::LevelScheme</text>
<text text-anchor="middle" x="470" y="-152.5" font-family="Helvetica,sans-Serif" font-size="10.00">::Print</text>
</a>
</g>
</g>
<!-- Node2&#45;&gt;Node3 -->
<g id="edge2" class="edge">
<title>Node2&#45;&gt;Node3</title>
<path fill="none" stroke="midnightblue" d="M594.23,-129.05C573.15,-134.43 550.15,-140.3 529.8,-145.49"/>
<polygon fill="midnightblue" stroke="midnightblue" points="595.26,-132.4 604.09,-126.53 593.53,-125.62 595.26,-132.4"/>
</g>
<!-- Node7 -->
<g id="node7" class="node">
<title>Node7</title>
<g id="a_node7"><a xlink:href="../../dd/d3e/class_gam_r_1_1_coulex_1_1_coulex_calculation.html#a46d4f1bd67b5c6c438efd93b9f1e4838" target="_top" xlink:title=" ">
<polygon fill="white" stroke="black" points="386,-96.5 386,-126.5 554,-126.5 554,-96.5 386,-96.5"/>
<text text-anchor="start" x="394" y="-114.5" font-family="Helvetica,sans-Serif" font-size="10.00">GamR::Coulex::CoulexCalculation</text>
<text text-anchor="middle" x="470" y="-103.5" font-family="Helvetica,sans-Serif" font-size="10.00">::SetLevelScheme</text>
</a>
</g>
</g>
<!-- Node2&#45;&gt;Node7 -->
<g id="edge6" class="edge">
<title>Node2&#45;&gt;Node7</title>
<path fill="none" stroke="midnightblue" d="M579.65,-111.5C571.21,-111.5 562.64,-111.5 554.2,-111.5"/>
<polygon fill="midnightblue" stroke="midnightblue" points="579.87,-115 589.87,-111.5 579.87,-108 579.87,-115"/>
</g>
<!-- Node4 -->
<g id="node4" class="node">
<title>Node4</title>
<g id="a_node4"><a xlink:href="../../dd/d3e/class_gam_r_1_1_coulex_1_1_coulex_calculation.html#ada06a036781b741ca462ac5b17347cf6" target="_top" xlink:title=" ">
<polygon fill="white" stroke="black" points="182,-147.5 182,-177.5 350,-177.5 350,-147.5 182,-147.5"/>
<text text-anchor="start" x="190" y="-165.5" font-family="Helvetica,sans-Serif" font-size="10.00">GamR::Coulex::CoulexCalculation</text>
<text text-anchor="middle" x="266" y="-154.5" font-family="Helvetica,sans-Serif" font-size="10.00">::Print</text>
</a>
</g>
</g>
<!-- Node3&#45;&gt;Node4 -->
<g id="edge3" class="edge">
<title>Node3&#45;&gt;Node4</title>
<path fill="none" stroke="midnightblue" d="M385.62,-161.33C373.93,-161.44 361.92,-161.56 350.24,-161.68"/>
<polygon fill="midnightblue" stroke="midnightblue" points="385.82,-164.82 395.79,-161.22 385.75,-157.82 385.82,-164.82"/>
</g>
<!-- Node5 -->
<g id="node5" class="node">
<title>Node5</title>
<g id="a_node5"><a xlink:href="../../d6/d76/namespace_gam_r_1_1_coulex.html#a41b07b0aa204c45d637b7c5a4e57d989" target="_top" xlink:title=" ">
<polygon fill="white" stroke="black" points="7,-102 7,-121 139,-121 139,-102 7,-102"/>
<text text-anchor="middle" x="73" y="-109" font-family="Helvetica,sans-Serif" font-size="10.00">GamR::Coulex::DoCoulex</text>
</a>
</g>
</g>
<!-- Node4&#45;&gt;Node5 -->
<g id="edge4" class="edge">
<title>Node4&#45;&gt;Node5</title>
<path fill="none" stroke="midnightblue" d="M198.77,-144.82C168.87,-136.83 134.74,-127.72 109.74,-121.04"/>
<polygon fill="midnightblue" stroke="midnightblue" points="198.16,-148.28 208.73,-147.47 199.97,-141.51 198.16,-148.28"/>
</g>
<!-- Node6 -->
<g id="node6" class="node">
<title>Node6</title>
<g id="a_node6"><a xlink:href="../../d6/d76/namespace_gam_r_1_1_coulex.html#a2551a0108b265de32e08ef2042a02212" target="_top" xlink:title=" ">
<polygon fill="white" stroke="black" points="0,-51.5 0,-81.5 146,-81.5 146,-51.5 0,-51.5"/>
<text text-anchor="start" x="8" y="-69.5" font-family="Helvetica,sans-Serif" font-size="10.00">GamR::Coulex::Experimental</text>
<text text-anchor="middle" x="73" y="-58.5" font-family="Helvetica,sans-Serif" font-size="10.00">Setup</text>
</a>
</g>
</g>
<!-- Node4&#45;&gt;Node6 -->
<g id="edge5" class="edge">
<title>Node4&#45;&gt;Node6</title>
<path fill="none" stroke="midnightblue" d="M189.46,-143.03C186.89,-141.62 184.39,-140.11 182,-138.5 160.49,-123.97 167.03,-107.72 146,-92.5 140.19,-88.29 133.62,-84.7 126.88,-81.66"/>
<polygon fill="midnightblue" stroke="midnightblue" points="187.97,-146.19 198.49,-147.43 191.04,-139.9 187.97,-146.19"/>
</g>
<!-- Node8 -->
<g id="node8" class="node">
<title>Node8</title>
<g id="a_node8"><a xlink:href="../../dd/d3e/class_gam_r_1_1_coulex_1_1_coulex_calculation.html#ae8ce7427467c968c1a44f74a06ce4a30" target="_top" xlink:title=" ">
<polygon fill="white" stroke="black" points="182,-98.5 182,-128.5 350,-128.5 350,-98.5 182,-98.5"/>
<text text-anchor="start" x="190" y="-116.5" font-family="Helvetica,sans-Serif" font-size="10.00">GamR::Coulex::CoulexCalculation</text>
<text text-anchor="middle" x="266" y="-105.5" font-family="Helvetica,sans-Serif" font-size="10.00">::ExperimentalSetup</text>
</a>
</g>
</g>
<!-- Node7&#45;&gt;Node8 -->
<g id="edge7" class="edge">
<title>Node7&#45;&gt;Node8</title>
<path fill="none" stroke="midnightblue" d="M375.89,-112.42C367.27,-112.51 358.56,-112.59 350.04,-112.68"/>
<polygon fill="midnightblue" stroke="midnightblue" points="376,-115.92 385.96,-112.32 375.93,-108.92 376,-115.92"/>
</g>
<!-- Node8&#45;&gt;Node5 -->
<g id="edge8" class="edge">
<title>Node8&#45;&gt;Node5</title>
<path fill="none" stroke="midnightblue" d="M171.7,-112.52C160.69,-112.41 149.64,-112.29 139.14,-112.18"/>
<polygon fill="midnightblue" stroke="midnightblue" points="171.74,-116.02 181.78,-112.63 171.82,-109.02 171.74,-116.02"/>
</g>
<!-- Node8&#45;&gt;Node6 -->
<g id="edge9" class="edge">
<title>Node8&#45;&gt;Node6</title>
<path fill="none" stroke="midnightblue" d="M194.32,-96.11C174.85,-91.32 153.91,-86.16 135.03,-81.52"/>
<polygon fill="midnightblue" stroke="midnightblue" points="193.49,-99.51 204.04,-98.5 195.17,-92.71 193.49,-99.51"/>
</g>
<!-- Node9&#45;&gt;Node3 -->
<g id="edge11" class="edge">
<title>Node9&#45;&gt;Node3</title>
<path fill="none" stroke="midnightblue" d="M579.61,-160.5C567.84,-160.5 555.81,-160.5 544.25,-160.5"/>
<polygon fill="midnightblue" stroke="midnightblue" points="579.87,-164 589.87,-160.5 579.87,-157 579.87,-164"/>
</g>
<!-- Node10&#45;&gt;Node5 -->
<g id="edge13" class="edge">
<title>Node10&#45;&gt;Node5</title>
<path fill="none" stroke="midnightblue" d="M194.06,-81.96C166.55,-88.73 136.12,-96.21 112.78,-101.96"/>
<polygon fill="midnightblue" stroke="midnightblue" points="195.17,-85.29 204.04,-79.5 193.49,-78.49 195.17,-85.29"/>
</g>
<!-- Node10&#45;&gt;Node6 -->
<g id="edge14" class="edge">
<title>Node10&#45;&gt;Node6</title>
<path fill="none" stroke="midnightblue" d="M171.73,-65.48C163.14,-65.57 154.53,-65.66 146.17,-65.74"/>
<polygon fill="midnightblue" stroke="midnightblue" points="171.82,-68.98 181.78,-65.37 171.74,-61.98 171.82,-68.98"/>
</g>
<!-- Node11&#45;&gt;Node5 -->
<g id="edge16" class="edge">
<title>Node11&#45;&gt;Node5</title>
<path fill="none" stroke="midnightblue" d="M188.51,-35.31C186.26,-36.62 184.08,-38.02 182,-39.5 159.4,-55.59 168.58,-74.38 146,-90.5 139.22,-95.34 131.33,-99.08 123.3,-101.95"/>
<polygon fill="midnightblue" stroke="midnightblue" points="190.19,-38.39 197.46,-30.68 186.97,-32.17 190.19,-38.39"/>
</g>
<!-- Node11&#45;&gt;Node6 -->
<g id="edge17" class="edge">
<title>Node11&#45;&gt;Node6</title>
<path fill="none" stroke="midnightblue" d="M198.96,-33.13C176.56,-39.12 151.76,-45.74 130.2,-51.49"/>
<polygon fill="midnightblue" stroke="midnightblue" points="199.97,-36.49 208.73,-30.53 198.16,-29.72 199.97,-36.49"/>
</g>
</g>
</svg>
        <g id="navigator" transform="translate(0 0)" fill="#404254">
                <rect fill="#f2f5e9" fill-opacity="0.5" stroke="#606060" stroke-width=".5" x="0" y="0" width="60" height="60"/>
                <use id="zoomplus" xlink:href="#zoomPlus" x="17" y="9" onmousedown="handleZoom(evt,'in')"/>
                <use id="zoomminus" xlink:href="#zoomMin" x="42" y="9" onmousedown="handleZoom(evt,'out')"/>
                <use id="reset" xlink:href="#resetDef" x="30" y="36" onmousedown="handleReset()"/>
                <g id="arrowUp" xlink:href="#dirArrow" transform="translate(30 24)" onmousedown="handlePan(0,-1)">
                  <use xlink:href="#rim" fill="#404040">
                        <set attributeName="fill" to="#808080" begin="arrowUp.mouseover" end="arrowUp.mouseout"/>
                  </use>
                  <path fill="none" stroke="white" stroke-width="1.5" d="M0,-3.0v7 M-2.5,-0.5L0,-3.0L2.5,-0.5"/>
                </g>
                <g id="arrowRight" xlink:href="#dirArrow" transform="rotate(90) translate(36 -43)" onmousedown="handlePan(1,0)">
                  <use xlink:href="#rim" fill="#404040">
                        <set attributeName="fill" to="#808080" begin="arrowRight.mouseover" end="arrowRight.mouseout"/>
                  </use>
                  <path fill="none" stroke="white" stroke-width="1.5" d="M0,-3.0v7 M-2.5,-0.5L0,-3.0L2.5,-0.5"/>
                </g>
                <g id="arrowDown" xlink:href="#dirArrow" transform="rotate(180) translate(-30 -48)" onmousedown="handlePan(0,1)">
                  <use xlink:href="#rim" fill="#404040">
                        <set attributeName="fill" to="#808080" begin="arrowDown.mouseover" end="arrowDown.mouseout"/>
                  </use>
                  <path fill="none" stroke="white" stroke-width="1.5" d="M0,-3.0v7 M-2.5,-0.5L0,-3.0L2.5,-0.5"/>
                </g>
                <g id="arrowLeft" xlink:href="#dirArrow" transform="rotate(270) translate(-36 17)" onmousedown="handlePan(-1,0)">
                  <use xlink:href="#rim" fill="#404040">
                        <set attributeName="fill" to="#808080" begin="arrowLeft.mouseover" end="arrowLeft.mouseout"/>
                  </use>
                  <path fill="none" stroke="white" stroke-width="1.5" d="M0,-3.0v7 M-2.5,-0.5L0,-3.0L2.5,-0.5"/>
                </g>
        </g>
        <svg viewBox="0 0 15 15" width="100%" height="30px" preserveAspectRatio="xMaxYMin meet">
         <g id="arrow_out" transform="scale(0.3 0.3)">
          <a xlink:href="class_gam_r_1_1_coulex_1_1_level_scheme_a807279006620a7c5d147431f72ed5be6_icgraph_org.svg" target="_base">
           <rect id="button" ry="5" rx="5" y="6" x="6" height="38" width="38"
                fill="#f2f5e9" fill-opacity="0.5" stroke="#606060" stroke-width="1.0"/>
           <path id="arrow"
             d="M 11.500037,31.436501 C 11.940474,20.09759 22.043105,11.32322 32.158766,21.979434 L 37.068811,17.246167 C 37.068811,17.246167 37.088388,32 37.088388,32 L 22.160133,31.978069 C 22.160133,31.978069 26.997745,27.140456 26.997745,27.140456 C 18.528582,18.264221 13.291696,25.230495 11.500037,31.436501 z"
             style="fill:#404040;"/>
          </a>
         </g>
        </svg>
</svg>
