<?xml version="1.0" encoding="UTF-8" standalone="no"?>
<!DOCTYPE svg PUBLIC "-//W3C//DTD SVG 1.1//EN"
 "http://www.w3.org/Graphics/SVG/1.1/DTD/svg11.dtd">
<!-- Generated by graphviz version 5.0.0 (20220708.1001)
 -->
<!-- Title: src/bin/gamrcal/gamrcal.cc Pages: 1 -->
<svg width="830pt" height="140pt"
 viewBox="0.00 0.00 830.00 140.00" xmlns="http://www.w3.org/2000/svg" xmlns:xlink="http://www.w3.org/1999/xlink">
<g id="graph0" class="graph" transform="scale(1 1) rotate(0) translate(4 136)">
<title>src/bin/gamrcal/gamrcal.cc</title>
<polygon fill="white" stroke="transparent" points="-4,4 -4,-136 826,-136 826,4 -4,4"/>
<!-- Node1 -->
<g id="node1" class="node">
<title>Node1</title>
<g id="a_node1"><a xlink:title=" ">
<polygon fill="#bfbfbf" stroke="black" points="267,-112.5 267,-131.5 401,-131.5 401,-112.5 267,-112.5"/>
<text text-anchor="middle" x="334" y="-119.5" font-family="Helvetica,sans-Serif" font-size="10.00">src/bin/gamrcal/gamrcal.cc</text>
</a>
</g>
</g>
<!-- Node2 -->
<g id="node2" class="node">
<title>Node2</title>
<g id="a_node2"><a xlink:title=" ">
<polygon fill="white" stroke="#bfbfbf" points="0,-56.5 0,-75.5 54,-75.5 54,-56.5 0,-56.5"/>
<text text-anchor="middle" x="27" y="-63.5" font-family="Helvetica,sans-Serif" font-size="10.00">iostream</text>
</a>
</g>
</g>
<!-- Node1&#45;&gt;Node2 -->
<g id="edge1" class="edge">
<title>Node1&#45;&gt;Node2</title>
<path fill="none" stroke="midnightblue" d="M274.27,-112.49C221.45,-104.65 142.1,-92.09 64.07,-76.09"/>
<polygon fill="midnightblue" stroke="midnightblue" points="64.58,-72.62 54.07,-74.02 63.16,-79.47 64.58,-72.62"/>
</g>
<!-- Node3 -->
<g id="node3" class="node">
<title>Node3</title>
<g id="a_node3"><a xlink:title=" ">
<polygon fill="white" stroke="#bfbfbf" points="72,-56.5 72,-75.5 124,-75.5 124,-56.5 72,-56.5"/>
<text text-anchor="middle" x="98" y="-63.5" font-family="Helvetica,sans-Serif" font-size="10.00">sstream</text>
</a>
</g>
</g>
<!-- Node1&#45;&gt;Node3 -->
<g id="edge2" class="edge">
<title>Node1&#45;&gt;Node3</title>
<path fill="none" stroke="midnightblue" d="M296.61,-112.44C252.08,-102.26 178.24,-85.36 134.24,-75.29"/>
<polygon fill="midnightblue" stroke="midnightblue" points="134.79,-71.83 124.26,-73.01 133.23,-78.65 134.79,-71.83"/>
</g>
<!-- Node4 -->
<g id="node4" class="node">
<title>Node4</title>
<g id="a_node4"><a xlink:title=" ">
<polygon fill="white" stroke="#bfbfbf" points="100.5,-0.5 100.5,-19.5 141.5,-19.5 141.5,-0.5 100.5,-0.5"/>
<text text-anchor="middle" x="121" y="-7.5" font-family="Helvetica,sans-Serif" font-size="10.00">string</text>
</a>
</g>
</g>
<!-- Node1&#45;&gt;Node4 -->
<g id="edge3" class="edge">
<title>Node1&#45;&gt;Node4</title>
<path fill="none" stroke="midnightblue" d="M290.68,-112.44C261.47,-105.46 222.79,-93.79 192,-76 169.75,-63.14 148.6,-42.27 135.27,-27.65"/>
<polygon fill="midnightblue" stroke="midnightblue" points="137.63,-25.04 128.37,-19.88 132.39,-29.68 137.63,-25.04"/>
</g>
<!-- Node5 -->
<g id="node5" class="node">
<title>Node5</title>
<g id="a_node5"><a xlink:title=" ">
<polygon fill="white" stroke="#bfbfbf" points="160,-0.5 160,-19.5 204,-19.5 204,-0.5 160,-0.5"/>
<text text-anchor="middle" x="182" y="-7.5" font-family="Helvetica,sans-Serif" font-size="10.00">vector</text>
</a>
</g>
</g>
<!-- Node1&#45;&gt;Node5 -->
<g id="edge4" class="edge">
<title>Node1&#45;&gt;Node5</title>
<path fill="none" stroke="midnightblue" d="M282.3,-112.48C257.52,-106.08 228.95,-95.01 209,-76 196.03,-63.64 189.06,-44.11 185.47,-29.69"/>
<polygon fill="midnightblue" stroke="midnightblue" points="188.88,-28.89 183.34,-19.85 182.04,-30.37 188.88,-28.89"/>
</g>
<!-- Node6 -->
<g id="node6" class="node">
<title>Node6</title>
<g id="a_node6"><a xlink:title=" ">
<polygon fill="white" stroke="#bfbfbf" points="362,-56.5 362,-75.5 440,-75.5 440,-56.5 362,-56.5"/>
<text text-anchor="middle" x="401" y="-63.5" font-family="Helvetica,sans-Serif" font-size="10.00">TApplication.h</text>
</a>
</g>
</g>
<!-- Node1&#45;&gt;Node6 -->
<g id="edge5" class="edge">
<title>Node1&#45;&gt;Node6</title>
<path fill="none" stroke="midnightblue" d="M344.76,-112.32C354.77,-104.26 369.89,-92.08 381.93,-82.37"/>
<polygon fill="midnightblue" stroke="midnightblue" points="384.45,-84.83 390.04,-75.83 380.06,-79.38 384.45,-84.83"/>
</g>
<!-- Node7 -->
<g id="node7" class="node">
<title>Node7</title>
<g id="a_node7"><a xlink:title=" ">
<polygon fill="white" stroke="#bfbfbf" points="281.5,-0.5 281.5,-19.5 344.5,-19.5 344.5,-0.5 281.5,-0.5"/>
<text text-anchor="middle" x="313" y="-7.5" font-family="Helvetica,sans-Serif" font-size="10.00">TCanvas.h</text>
</a>
</g>
</g>
<!-- Node1&#45;&gt;Node7 -->
<g id="edge6" class="edge">
<title>Node1&#45;&gt;Node7</title>
<path fill="none" stroke="midnightblue" d="M330.69,-112.17C327.46,-103.19 322.66,-88.82 320,-76 316.83,-60.7 315.04,-43.06 314.07,-30.02"/>
<polygon fill="midnightblue" stroke="midnightblue" points="317.56,-29.67 313.41,-19.92 310.57,-30.12 317.56,-29.67"/>
</g>
<!-- Node8 -->
<g id="node8" class="node">
<title>Node8</title>
<g id="a_node8"><a xlink:title=" ">
<polygon fill="white" stroke="#bfbfbf" points="458,-56.5 458,-75.5 504,-75.5 504,-56.5 458,-56.5"/>
<text text-anchor="middle" x="481" y="-63.5" font-family="Helvetica,sans-Serif" font-size="10.00">TFile.h</text>
</a>
</g>
</g>
<!-- Node1&#45;&gt;Node8 -->
<g id="edge7" class="edge">
<title>Node1&#45;&gt;Node8</title>
<path fill="none" stroke="midnightblue" d="M357.29,-112.44C381.81,-103.44 420.6,-89.19 448.2,-79.05"/>
<polygon fill="midnightblue" stroke="midnightblue" points="449.64,-82.25 457.82,-75.52 447.22,-75.68 449.64,-82.25"/>
</g>
<!-- Node9 -->
<g id="node9" class="node">
<title>Node9</title>
<g id="a_node9"><a xlink:title=" ">
<polygon fill="white" stroke="#bfbfbf" points="362.5,-0.5 362.5,-19.5 405.5,-19.5 405.5,-0.5 362.5,-0.5"/>
<text text-anchor="middle" x="384" y="-7.5" font-family="Helvetica,sans-Serif" font-size="10.00">TH1.h</text>
</a>
</g>
</g>
<!-- Node1&#45;&gt;Node9 -->
<g id="edge8" class="edge">
<title>Node1&#45;&gt;Node9</title>
<path fill="none" stroke="midnightblue" d="M335.63,-112.27C338.21,-99.48 343.91,-75.11 353,-56 357.73,-46.06 364.54,-35.88 370.57,-27.73"/>
<polygon fill="midnightblue" stroke="midnightblue" points="373.36,-29.85 376.68,-19.78 367.81,-25.58 373.36,-29.85"/>
</g>
<!-- Node10 -->
<g id="node10" class="node">
<title>Node10</title>
<g id="a_node10"><a xlink:title=" ">
<polygon fill="white" stroke="#bfbfbf" points="522,-56.5 522,-75.5 580,-75.5 580,-56.5 522,-56.5"/>
<text text-anchor="middle" x="551" y="-63.5" font-family="Helvetica,sans-Serif" font-size="10.00">TROOT.h</text>
</a>
</g>
</g>
<!-- Node1&#45;&gt;Node10 -->
<g id="edge9" class="edge">
<title>Node1&#45;&gt;Node10</title>
<path fill="none" stroke="midnightblue" d="M368.38,-112.44C407.5,-102.71 471.22,-86.85 512.11,-76.68"/>
<polygon fill="midnightblue" stroke="midnightblue" points="513.13,-80.03 521.99,-74.22 511.44,-73.24 513.13,-80.03"/>
</g>
<!-- Node11 -->
<g id="node11" class="node">
<title>Node11</title>
<g id="a_node11"><a xlink:title=" ">
<polygon fill="white" stroke="#bfbfbf" points="598.5,-56.5 598.5,-75.5 661.5,-75.5 661.5,-56.5 598.5,-56.5"/>
<text text-anchor="middle" x="630" y="-63.5" font-family="Helvetica,sans-Serif" font-size="10.00">TSystem.h</text>
</a>
</g>
</g>
<!-- Node1&#45;&gt;Node11 -->
<g id="edge10" class="edge">
<title>Node1&#45;&gt;Node11</title>
<path fill="none" stroke="midnightblue" d="M385.89,-112.49C435.28,-104.25 511.94,-91.07 588,-76.13"/>
<polygon fill="midnightblue" stroke="midnightblue" points="589.11,-79.48 598.24,-74.11 587.75,-72.61 589.11,-79.48"/>
</g>
<!-- Node12 -->
<g id="node12" class="node">
<title>Node12</title>
<g id="a_node12"><a xlink:title=" ">
<polygon fill="white" stroke="#bfbfbf" points="680,-56.5 680,-75.5 730,-75.5 730,-56.5 680,-56.5"/>
<text text-anchor="middle" x="705" y="-63.5" font-family="Helvetica,sans-Serif" font-size="10.00">TTree.h</text>
</a>
</g>
</g>
<!-- Node1&#45;&gt;Node12 -->
<g id="edge11" class="edge">
<title>Node1&#45;&gt;Node12</title>
<path fill="none" stroke="midnightblue" d="M401.23,-114.55C467.34,-107.63 571.25,-95.23 669.99,-75.99"/>
<polygon fill="midnightblue" stroke="midnightblue" points="670.7,-79.41 679.83,-74.04 669.34,-72.55 670.7,-79.41"/>
</g>
<!-- Node13 -->
<g id="node13" class="node">
<title>Node13</title>
<g id="a_node13"><a xlink:title=" ">
<polygon fill="white" stroke="#bfbfbf" points="748,-56.5 748,-75.5 822,-75.5 822,-56.5 748,-56.5"/>
<text text-anchor="middle" x="785" y="-63.5" font-family="Helvetica,sans-Serif" font-size="10.00">args/args.hxx</text>
</a>
</g>
</g>
<!-- Node1&#45;&gt;Node13 -->
<g id="edge12" class="edge">
<title>Node1&#45;&gt;Node13</title>
<path fill="none" stroke="midnightblue" d="M401.23,-115.24C479.64,-108.14 613.36,-94.85 737.8,-76.07"/>
<polygon fill="midnightblue" stroke="midnightblue" points="738.53,-79.5 747.89,-74.53 737.48,-72.58 738.53,-79.5"/>
</g>
<!-- Node14 -->
<g id="node14" class="node">
<title>Node14</title>
<g id="a_node14"><a xlink:href="../../d7/d7a/_gain_8hh.html" target="_top" xlink:title=" ">
<polygon fill="white" stroke="black" points="218,-56.5 218,-75.5 268,-75.5 268,-56.5 218,-56.5"/>
<text text-anchor="middle" x="243" y="-63.5" font-family="Helvetica,sans-Serif" font-size="10.00">Gain.hh</text>
</a>
</g>
</g>
<!-- Node1&#45;&gt;Node14 -->
<g id="edge13" class="edge">
<title>Node1&#45;&gt;Node14</title>
<path fill="none" stroke="midnightblue" d="M319.38,-112.32C305.05,-103.82 282.99,-90.73 266.25,-80.8"/>
<polygon fill="midnightblue" stroke="midnightblue" points="267.97,-77.75 257.58,-75.65 264.4,-83.77 267.97,-77.75"/>
</g>
<!-- Node14&#45;&gt;Node4 -->
<g id="edge14" class="edge">
<title>Node14&#45;&gt;Node4</title>
<path fill="none" stroke="midnightblue" d="M223.67,-56.44C203.68,-47.6 172.26,-33.69 149.44,-23.59"/>
<polygon fill="midnightblue" stroke="midnightblue" points="150.8,-20.36 140.24,-19.52 147.97,-26.76 150.8,-20.36"/>
</g>
<!-- Node14&#45;&gt;Node5 -->
<g id="edge15" class="edge">
<title>Node14&#45;&gt;Node5</title>
<path fill="none" stroke="midnightblue" d="M233.2,-56.32C224.18,-48.34 210.59,-36.31 199.68,-26.65"/>
<polygon fill="midnightblue" stroke="midnightblue" points="201.79,-23.84 191.98,-19.83 197.15,-29.08 201.79,-23.84"/>
</g>
<!-- Node14&#45;&gt;Node7 -->
<g id="edge16" class="edge">
<title>Node14&#45;&gt;Node7</title>
<path fill="none" stroke="midnightblue" d="M254.25,-56.32C264.8,-48.18 280.8,-35.84 293.44,-26.09"/>
<polygon fill="midnightblue" stroke="midnightblue" points="295.77,-28.71 301.55,-19.83 291.49,-23.17 295.77,-28.71"/>
</g>
<!-- Node14&#45;&gt;Node9 -->
<g id="edge18" class="edge">
<title>Node14&#45;&gt;Node9</title>
<path fill="none" stroke="midnightblue" d="M265.34,-56.44C288.89,-47.42 326.17,-33.15 352.66,-23"/>
<polygon fill="midnightblue" stroke="midnightblue" points="354.14,-26.18 362.23,-19.34 351.64,-19.65 354.14,-26.18"/>
</g>
<!-- Node15 -->
<g id="node15" class="node">
<title>Node15</title>
<g id="a_node15"><a xlink:title=" ">
<polygon fill="white" stroke="#bfbfbf" points="222.5,-0.5 222.5,-19.5 263.5,-19.5 263.5,-0.5 222.5,-0.5"/>
<text text-anchor="middle" x="243" y="-7.5" font-family="Helvetica,sans-Serif" font-size="10.00">TF1.h</text>
</a>
</g>
</g>
<!-- Node14&#45;&gt;Node15 -->
<g id="edge17" class="edge">
<title>Node14&#45;&gt;Node15</title>
<path fill="none" stroke="midnightblue" d="M243,-56.08C243,-49.01 243,-38.86 243,-29.99"/>
<polygon fill="midnightblue" stroke="midnightblue" points="246.5,-29.75 243,-19.75 239.5,-29.75 246.5,-29.75"/>
</g>
</g>
</svg>
