<?xml version="1.0" encoding="UTF-8" standalone="no"?>
<!DOCTYPE svg PUBLIC "-//W3C//DTD SVG 1.1//EN"
 "http://www.w3.org/Graphics/SVG/1.1/DTD/svg11.dtd">
<!-- Generated by graphviz version 2.49.3 (20211023.0002)
 -->
<!-- Title: GamR::AngDist::RatioFunction Pages: 1 -->
<svg width="350pt" height="127pt"
 viewBox="0.00 0.00 350.00 126.50" xmlns="http://www.w3.org/2000/svg" xmlns:xlink="http://www.w3.org/1999/xlink">
<g id="graph0" class="graph" transform="scale(1 1) rotate(0) translate(4 122.5)">
<title>GamR::AngDist::RatioFunction</title>
<polygon fill="white" stroke="transparent" points="-4,4 -4,-122.5 346,-122.5 346,4 -4,4"/>
<!-- Node1 -->
<g id="node1" class="node">
<title>Node1</title>
<g id="a_node1"><a xlink:title=" ">
<polygon fill="#bfbfbf" stroke="black" points="0,-44.5 0,-63.5 153,-63.5 153,-44.5 0,-44.5"/>
<text text-anchor="middle" x="76.5" y="-51.5" font-family="Helvetica,sans-Serif" font-size="10.00">GamR::AngDist::RatioFunction</text>
</a>
</g>
</g>
<!-- Node2 -->
<g id="node2" class="node">
<title>Node2</title>
<g id="a_node2"><a xlink:href="../../df/d6f/class_gam_r_1_1_nucleus_1_1_transition.html#a3eacef62898caaaff029fd33931ad1bb" target="_top" xlink:title=" ">
<polygon fill="white" stroke="black" points="197.5,-88 197.5,-118 333.5,-118 333.5,-88 197.5,-88"/>
<text text-anchor="start" x="205.5" y="-106" font-family="Helvetica,sans-Serif" font-size="10.00">GamR::Nucleus::Transition</text>
<text text-anchor="middle" x="265.5" y="-95" font-family="Helvetica,sans-Serif" font-size="10.00">::GetGate</text>
</a>
</g>
</g>
<!-- Node1&#45;&gt;Node2 -->
<g id="edge1" class="edge">
<title>Node1&#45;&gt;Node2</title>
<path fill="none" stroke="midnightblue" d="M114,-63.56C137.67,-69.77 169.23,-78.04 197.34,-85.4"/>
<polygon fill="midnightblue" stroke="midnightblue" points="196.55,-88.81 207.11,-87.96 198.33,-82.04 196.55,-88.81"/>
</g>
<!-- Node3 -->
<g id="node3" class="node">
<title>Node3</title>
<g id="a_node3"><a xlink:href="../../df/d6f/class_gam_r_1_1_nucleus_1_1_transition.html#ac5be2345b951980c46ad6df7ac0254ab" target="_top" xlink:title=" ">
<polygon fill="white" stroke="black" points="197.5,-39 197.5,-69 333.5,-69 333.5,-39 197.5,-39"/>
<text text-anchor="start" x="205.5" y="-57" font-family="Helvetica,sans-Serif" font-size="10.00">GamR::Nucleus::Transition</text>
<text text-anchor="middle" x="265.5" y="-46" font-family="Helvetica,sans-Serif" font-size="10.00">::GetGateBG</text>
</a>
</g>
</g>
<!-- Node1&#45;&gt;Node3 -->
<g id="edge2" class="edge">
<title>Node1&#45;&gt;Node3</title>
<path fill="none" stroke="midnightblue" d="M153.02,-54C164.27,-54 175.89,-54 187.18,-54"/>
<polygon fill="midnightblue" stroke="midnightblue" points="187.44,-57.5 197.44,-54 187.44,-50.5 187.44,-57.5"/>
</g>
<!-- Node4 -->
<g id="node4" class="node">
<title>Node4</title>
<g id="a_node4"><a xlink:href="../../d1/dab/namespace_gam_r_1_1_ang_dist.html#a3d351aa26df98579aa5eea3c0d3bbb39" target="_top" xlink:title=" ">
<polygon fill="white" stroke="black" points="189,-0.5 189,-19.5 342,-19.5 342,-0.5 189,-0.5"/>
<text text-anchor="middle" x="265.5" y="-7.5" font-family="Helvetica,sans-Serif" font-size="10.00">GamR::AngDist::RatioFunction</text>
</a>
</g>
</g>
<!-- Node1&#45;&gt;Node4 -->
<g id="edge3" class="edge">
<title>Node1&#45;&gt;Node4</title>
<path fill="none" stroke="midnightblue" d="M118.08,-44.45C146.26,-37.82 184,-28.94 214.11,-21.86"/>
<polygon fill="midnightblue" stroke="midnightblue" points="215.07,-25.23 224,-19.53 213.47,-18.41 215.07,-25.23"/>
</g>
</g>
</svg>
