<?xml version="1.0" encoding="UTF-8" standalone="no"?>
<!DOCTYPE svg PUBLIC "-//W3C//DTD SVG 1.1//EN"
 "http://www.w3.org/Graphics/SVG/1.1/DTD/svg11.dtd">
<!-- Generated by graphviz version 2.49.3 (20211023.0002)
 -->
<!-- Title: GamR::AngDist::W Pages: 1 -->
<svg width="470pt" height="116pt"
 viewBox="0.00 0.00 470.00 115.50" xmlns="http://www.w3.org/2000/svg" xmlns:xlink="http://www.w3.org/1999/xlink">
<g id="graph0" class="graph" transform="scale(1 1) rotate(0) translate(4 111.5)">
<title>GamR::AngDist::W</title>
<polygon fill="white" stroke="transparent" points="-4,4 -4,-111.5 466,-111.5 466,4 -4,4"/>
<!-- Node1 -->
<g id="node1" class="node">
<title>Node1</title>
<g id="a_node1"><a xlink:title=" ">
<polygon fill="#bfbfbf" stroke="black" points="0,-50 0,-69 101,-69 101,-50 0,-50"/>
<text text-anchor="middle" x="50.5" y="-57" font-family="Helvetica,sans-Serif" font-size="10.00">GamR::AngDist::W</text>
</a>
</g>
</g>
<!-- Node2 -->
<g id="node2" class="node">
<title>Node2</title>
<g id="a_node2"><a xlink:href="../../d1/dab/namespace_gam_r_1_1_ang_dist.html#a89a9c2f80ccb6db585b8de73129aefdd" target="_top" xlink:title=" ">
<polygon fill="white" stroke="black" points="178.5,-88 178.5,-107 281.5,-107 281.5,-88 178.5,-88"/>
<text text-anchor="middle" x="230" y="-95" font-family="Helvetica,sans-Serif" font-size="10.00">GamR::AngDist::Ak</text>
</a>
</g>
</g>
<!-- Node1&#45;&gt;Node2 -->
<g id="edge1" class="edge">
<title>Node1&#45;&gt;Node2</title>
<path fill="none" stroke="midnightblue" d="M94.09,-69.1C107.78,-72.15 123.02,-75.5 137,-78.5 148.35,-80.93 160.49,-83.48 172.12,-85.89"/>
<polygon fill="midnightblue" stroke="midnightblue" points="171.67,-89.37 182.17,-87.97 173.08,-82.52 171.67,-89.37"/>
</g>
<!-- Node4 -->
<g id="node4" class="node">
<title>Node4</title>
<g id="a_node4"><a xlink:href="../../d2/dbb/class_gam_r_1_1_ang_dist_1_1_solid_attenuation.html#a00f8c011eba761ff461e3d603493a4a9" target="_top" xlink:title=" ">
<polygon fill="white" stroke="black" points="137,-50 137,-69 323,-69 323,-50 137,-50"/>
<text text-anchor="middle" x="230" y="-57" font-family="Helvetica,sans-Serif" font-size="10.00">GamR::AngDist::SolidAttenuation::Get</text>
</a>
</g>
</g>
<!-- Node1&#45;&gt;Node4 -->
<g id="edge3" class="edge">
<title>Node1&#45;&gt;Node4</title>
<path fill="none" stroke="midnightblue" d="M101.42,-59.5C109.38,-59.5 117.85,-59.5 126.51,-59.5"/>
<polygon fill="midnightblue" stroke="midnightblue" points="126.74,-63 136.74,-59.5 126.74,-56 126.74,-63"/>
</g>
<!-- Node5 -->
<g id="node5" class="node">
<title>Node5</title>
<g id="a_node5"><a xlink:href="../../da/dfc/class_gam_r_1_1_ang_dist_1_1_stat_tensor.html#ad168a84f080bfe78322c7973ee3337cc" target="_top" xlink:title=" ">
<polygon fill="white" stroke="black" points="160.5,-0.5 160.5,-30.5 299.5,-30.5 299.5,-0.5 160.5,-0.5"/>
<text text-anchor="start" x="168.5" y="-18.5" font-family="Helvetica,sans-Serif" font-size="10.00">GamR::AngDist::StatTensor</text>
<text text-anchor="middle" x="230" y="-7.5" font-family="Helvetica,sans-Serif" font-size="10.00">::GetBk</text>
</a>
</g>
</g>
<!-- Node1&#45;&gt;Node5 -->
<g id="edge4" class="edge">
<title>Node1&#45;&gt;Node5</title>
<path fill="none" stroke="midnightblue" d="M90.01,-49.95C110,-45 135.05,-38.79 158.36,-33.01"/>
<polygon fill="midnightblue" stroke="midnightblue" points="159.36,-36.37 168.22,-30.57 157.68,-29.57 159.36,-36.37"/>
</g>
<!-- Node3 -->
<g id="node3" class="node">
<title>Node3</title>
<g id="a_node3"><a xlink:href="../../d1/dab/namespace_gam_r_1_1_ang_dist.html#adfb2b629389730b25f867d1e51922438" target="_top" xlink:title=" ">
<polygon fill="white" stroke="black" points="359,-88 359,-107 462,-107 462,-88 359,-88"/>
<text text-anchor="middle" x="410.5" y="-95" font-family="Helvetica,sans-Serif" font-size="10.00">GamR::AngDist::Fk</text>
</a>
</g>
</g>
<!-- Node2&#45;&gt;Node3 -->
<g id="edge2" class="edge">
<title>Node2&#45;&gt;Node3</title>
<path fill="none" stroke="midnightblue" d="M281.67,-97.5C302.49,-97.5 326.78,-97.5 348.56,-97.5"/>
<polygon fill="midnightblue" stroke="midnightblue" points="348.7,-101 358.7,-97.5 348.7,-94 348.7,-101"/>
</g>
</g>
</svg>
