<?xml version="1.0" encoding="UTF-8" standalone="no"?>
<!DOCTYPE svg PUBLIC "-//W3C//DTD SVG 1.1//EN"
 "http://www.w3.org/Graphics/SVG/1.1/DTD/svg11.dtd">
<!-- Generated by graphviz version 2.49.3 (20211023.0002)
 -->
<!-- Title: GamR::AngDist::W Pages: 1 -->
<svg width="607pt" height="128pt"
 viewBox="0.00 0.00 607.00 127.50" xmlns="http://www.w3.org/2000/svg" xmlns:xlink="http://www.w3.org/1999/xlink">
<g id="graph0" class="graph" transform="scale(1 1) rotate(0) translate(4 123.5)">
<title>GamR::AngDist::W</title>
<polygon fill="white" stroke="transparent" points="-4,4 -4,-123.5 603,-123.5 603,4 -4,4"/>
<!-- Node1 -->
<g id="node1" class="node">
<title>Node1</title>
<g id="a_node1"><a xlink:title=" ">
<polygon fill="#bfbfbf" stroke="black" points="0,-47 0,-66 101,-66 101,-47 0,-47"/>
<text text-anchor="middle" x="50.5" y="-54" font-family="Helvetica,sans-Serif" font-size="10.00">GamR::AngDist::W</text>
</a>
</g>
</g>
<!-- Node2 -->
<g id="node2" class="node">
<title>Node2</title>
<g id="a_node2"><a xlink:href="../../d1/dab/namespace_gam_r_1_1_ang_dist.html#a89a9c2f80ccb6db585b8de73129aefdd" target="_top" xlink:title=" ">
<polygon fill="white" stroke="black" points="315.5,-100 315.5,-119 418.5,-119 418.5,-100 315.5,-100"/>
<text text-anchor="middle" x="367" y="-107" font-family="Helvetica,sans-Serif" font-size="10.00">GamR::AngDist::Ak</text>
</a>
</g>
</g>
<!-- Node1&#45;&gt;Node2 -->
<g id="edge1" class="edge">
<title>Node1&#45;&gt;Node2</title>
<path fill="none" stroke="midnightblue" d="M68.22,-66.07C85.01,-75.15 111.92,-88.32 137,-94.5 192.74,-108.25 258.29,-111.27 304.94,-111.29"/>
<polygon fill="midnightblue" stroke="midnightblue" points="305.21,-114.79 315.19,-111.24 305.17,-107.79 305.21,-114.79"/>
</g>
<!-- Node4 -->
<g id="node4" class="node">
<title>Node4</title>
<g id="a_node4"><a xlink:href="../../d2/dbb/class_gam_r_1_1_ang_dist_1_1_solid_attenuation.html#a00f8c011eba761ff461e3d603493a4a9" target="_top" xlink:title=" ">
<polygon fill="white" stroke="black" points="274,-58 274,-77 460,-77 460,-58 274,-58"/>
<text text-anchor="middle" x="367" y="-65" font-family="Helvetica,sans-Serif" font-size="10.00">GamR::AngDist::SolidAttenuation::Get</text>
</a>
</g>
</g>
<!-- Node1&#45;&gt;Node4 -->
<g id="edge3" class="edge">
<title>Node1&#45;&gt;Node4</title>
<path fill="none" stroke="midnightblue" d="M101,-55.35C138.6,-54.75 191.58,-54.51 238,-56.5 246.33,-56.86 254.95,-57.34 263.61,-57.92"/>
<polygon fill="midnightblue" stroke="midnightblue" points="263.55,-61.42 273.77,-58.62 264.04,-54.44 263.55,-61.42"/>
</g>
<!-- Node5 -->
<g id="node5" class="node">
<title>Node5</title>
<g id="a_node5"><a xlink:href="../../da/dfc/class_gam_r_1_1_ang_dist_1_1_stat_tensor.html#ad168a84f080bfe78322c7973ee3337cc" target="_top" xlink:title=" ">
<polygon fill="white" stroke="black" points="297.5,-0.5 297.5,-30.5 436.5,-30.5 436.5,-0.5 297.5,-0.5"/>
<text text-anchor="start" x="305.5" y="-18.5" font-family="Helvetica,sans-Serif" font-size="10.00">GamR::AngDist::StatTensor</text>
<text text-anchor="middle" x="367" y="-7.5" font-family="Helvetica,sans-Serif" font-size="10.00">::GetBk</text>
</a>
</g>
</g>
<!-- Node1&#45;&gt;Node5 -->
<g id="edge4" class="edge">
<title>Node1&#45;&gt;Node5</title>
<path fill="none" stroke="midnightblue" d="M101.33,-50C151.35,-43.48 229.15,-33.34 287.47,-25.74"/>
<polygon fill="midnightblue" stroke="midnightblue" points="287.93,-29.21 297.39,-24.44 287.02,-22.27 287.93,-29.21"/>
</g>
<!-- Node6 -->
<g id="node6" class="node">
<title>Node6</title>
<g id="a_node6"><a xlink:href="../../d1/dab/namespace_gam_r_1_1_ang_dist.html#a86706e3a9cf18220393e8bed727f8e3e" target="_top" xlink:title=" ">
<polygon fill="white" stroke="black" points="137,-66 137,-85 238,-85 238,-66 137,-66"/>
<text text-anchor="middle" x="187.5" y="-73" font-family="Helvetica,sans-Serif" font-size="10.00">GamR::AngDist::W</text>
</a>
</g>
</g>
<!-- Node1&#45;&gt;Node6 -->
<g id="edge5" class="edge">
<title>Node1&#45;&gt;Node6</title>
<path fill="none" stroke="midnightblue" d="M101,-63.47C109.33,-64.64 118.06,-65.87 126.61,-67.07"/>
<polygon fill="midnightblue" stroke="midnightblue" points="126.16,-70.54 136.55,-68.47 127.14,-63.61 126.16,-70.54"/>
</g>
<!-- Node3 -->
<g id="node3" class="node">
<title>Node3</title>
<g id="a_node3"><a xlink:href="../../d1/dab/namespace_gam_r_1_1_ang_dist.html#adfb2b629389730b25f867d1e51922438" target="_top" xlink:title=" ">
<polygon fill="white" stroke="black" points="496,-100 496,-119 599,-119 599,-100 496,-100"/>
<text text-anchor="middle" x="547.5" y="-107" font-family="Helvetica,sans-Serif" font-size="10.00">GamR::AngDist::Fk</text>
</a>
</g>
</g>
<!-- Node2&#45;&gt;Node3 -->
<g id="edge2" class="edge">
<title>Node2&#45;&gt;Node3</title>
<path fill="none" stroke="midnightblue" d="M418.67,-109.5C439.49,-109.5 463.78,-109.5 485.56,-109.5"/>
<polygon fill="midnightblue" stroke="midnightblue" points="485.7,-113 495.7,-109.5 485.7,-106 485.7,-113"/>
</g>
<!-- Node6&#45;&gt;Node2 -->
<g id="edge6" class="edge">
<title>Node6&#45;&gt;Node2</title>
<path fill="none" stroke="midnightblue" d="M238.42,-85.06C259.49,-89.1 284.2,-93.83 306.24,-98.05"/>
<polygon fill="midnightblue" stroke="midnightblue" points="305.67,-101.51 316.15,-99.95 306.99,-94.63 305.67,-101.51"/>
</g>
<!-- Node6&#45;&gt;Node4 -->
<g id="edge7" class="edge">
<title>Node6&#45;&gt;Node4</title>
<path fill="none" stroke="midnightblue" d="M238.42,-73.25C246.38,-72.89 254.85,-72.51 263.51,-72.12"/>
<polygon fill="midnightblue" stroke="midnightblue" points="263.9,-75.61 273.74,-71.66 263.59,-68.61 263.9,-75.61"/>
</g>
<!-- Node6&#45;&gt;Node5 -->
<g id="edge8" class="edge">
<title>Node6&#45;&gt;Node5</title>
<path fill="none" stroke="midnightblue" d="M216.63,-65.99C242.14,-57.37 280.46,-44.42 311.9,-33.79"/>
<polygon fill="midnightblue" stroke="midnightblue" points="313.06,-37.09 321.41,-30.57 310.82,-30.46 313.06,-37.09"/>
</g>
</g>
</svg>
