<?xml version="1.0" encoding="UTF-8" standalone="no"?>
<!DOCTYPE svg PUBLIC "-//W3C//DTD SVG 1.1//EN"
 "http://www.w3.org/Graphics/SVG/1.1/DTD/svg11.dtd">
<!-- Generated by graphviz version 9.0.0 (20230911.1827)
 -->
<!-- Title: GamR::AngDist::StatTensor::GetBk Pages: 1 -->
<svg width="276pt" height="64pt"
 viewBox="0.00 0.00 275.50 64.25" xmlns="http://www.w3.org/2000/svg" xmlns:xlink="http://www.w3.org/1999/xlink">
<g id="graph0" class="graph" transform="scale(1 1) rotate(0) translate(4 60.25)">
<title>GamR::AngDist::StatTensor::GetBk</title>
<!-- Node1 -->
<g id="Node000001" class="node">
<title>Node1</title>
<g id="a_Node000001"><a xlink:title=" ">
<polygon fill="#999999" stroke="#666666" points="267.5,-42.88 132.25,-42.88 132.25,-12.37 267.5,-12.37 267.5,-42.88"/>
<text text-anchor="start" x="140.25" y="-29.38" font-family="Helvetica,sans-Serif" font-size="10.00">GamR::AngDist::StatTensor</text>
<text text-anchor="middle" x="199.88" y="-18.12" font-family="Helvetica,sans-Serif" font-size="10.00">::GetBk</text>
</a>
</g>
</g>
<!-- Node2 -->
<g id="Node000002" class="node">
<title>Node2</title>
<g id="a_Node000002"><a xlink:href="../../d1/dab/namespace_gam_r_1_1_ang_dist.html#a86706e3a9cf18220393e8bed727f8e3e" target="_top" xlink:title=" ">
<polygon fill="white" stroke="#666666" points="96.25,-56.25 0,-56.25 0,-37 96.25,-37 96.25,-56.25"/>
<text text-anchor="middle" x="48.12" y="-42.75" font-family="Helvetica,sans-Serif" font-size="10.00">GamR::AngDist::W</text>
</a>
</g>
</g>
<!-- Node1&#45;&gt;Node2 -->
<g id="edge1_Node000001_Node000002" class="edge">
<title>Node1&#45;&gt;Node2</title>
<g id="a_edge1_Node000001_Node000002"><a xlink:title=" ">
<path fill="none" stroke="#63b8ff" d="M120.6,-37.56C112.32,-38.61 104.1,-39.65 96.34,-40.63"/>
<polygon fill="#63b8ff" stroke="#63b8ff" points="120.9,-41.05 130.38,-36.32 120.02,-34.1 120.9,-41.05"/>
</a>
</g>
</g>
<!-- Node3 -->
<g id="Node000003" class="node">
<title>Node3</title>
<g id="a_Node000003"><a xlink:href="../../d1/dab/namespace_gam_r_1_1_ang_dist.html#acb8013df6dcb1d7635f67a7371bb0eb5" target="_top" xlink:title=" ">
<polygon fill="white" stroke="#666666" points="96.25,-19.25 0,-19.25 0,0 96.25,0 96.25,-19.25"/>
<text text-anchor="middle" x="48.12" y="-5.75" font-family="Helvetica,sans-Serif" font-size="10.00">GamR::AngDist::W</text>
</a>
</g>
</g>
<!-- Node1&#45;&gt;Node3 -->
<g id="edge2_Node000001_Node000003" class="edge">
<title>Node1&#45;&gt;Node3</title>
<g id="a_edge2_Node000001_Node000003"><a xlink:title=" ">
<path fill="none" stroke="#63b8ff" d="M120.6,-18.22C112.32,-17.22 104.1,-16.23 96.34,-15.3"/>
<polygon fill="#63b8ff" stroke="#63b8ff" points="120.03,-21.67 130.38,-19.39 120.87,-14.72 120.03,-21.67"/>
</a>
</g>
</g>
</g>
</svg>
