<?xml version="1.0" encoding="UTF-8" standalone="no"?>
<!DOCTYPE svg PUBLIC "-//W3C//DTD SVG 1.1//EN"
 "http://www.w3.org/Graphics/SVG/1.1/DTD/svg11.dtd">
<!-- Generated by graphviz version 5.0.0 (20220708.1001)
 -->
<!-- Title: GamR::AngDist::StatTensor::Perturbation Pages: 1 -->
<svg width="508pt" height="116pt"
 viewBox="0.00 0.00 508.00 115.50" xmlns="http://www.w3.org/2000/svg" xmlns:xlink="http://www.w3.org/1999/xlink">
<g id="graph0" class="graph" transform="scale(1 1) rotate(0) translate(4 111.5)">
<title>GamR::AngDist::StatTensor::Perturbation</title>
<polygon fill="white" stroke="transparent" points="-4,4 -4,-111.5 504,-111.5 504,4 -4,4"/>
<!-- Node1 -->
<g id="node1" class="node">
<title>Node1</title>
<g id="a_node1"><a xlink:title=" ">
<polygon fill="#bfbfbf" stroke="black" points="0,-33 0,-63 136,-63 136,-33 0,-33"/>
<text text-anchor="start" x="8" y="-51" font-family="Helvetica,sans-Serif" font-size="10.00">GamR::AngDist::StatTensor</text>
<text text-anchor="middle" x="68" y="-40" font-family="Helvetica,sans-Serif" font-size="10.00">::Perturbation</text>
</a>
</g>
</g>
<!-- Node2 -->
<g id="node2" class="node">
<title>Node2</title>
<g id="a_node2"><a xlink:href="../../da/dfc/class_gam_r_1_1_ang_dist_1_1_stat_tensor.html#ab8ab2c0b8998e4ad7fff5443e221b903" target="_top" xlink:title=" ">
<polygon fill="white" stroke="black" points="182,-77 182,-107 318,-107 318,-77 182,-77"/>
<text text-anchor="start" x="190" y="-95" font-family="Helvetica,sans-Serif" font-size="10.00">GamR::AngDist::StatTensor</text>
<text text-anchor="middle" x="250" y="-84" font-family="Helvetica,sans-Serif" font-size="10.00">::StatTensor</text>
</a>
</g>
</g>
<!-- Node1&#45;&gt;Node2 -->
<g id="edge1" class="edge">
<title>Node1&#45;&gt;Node2</title>
<path fill="none" stroke="midnightblue" d="M130.44,-63.02C145.56,-66.72 161.89,-70.71 177.44,-74.51"/>
<polygon fill="midnightblue" stroke="midnightblue" points="176.98,-78 187.53,-76.97 178.65,-71.2 176.98,-78"/>
</g>
<!-- Node4 -->
<g id="node4" class="node">
<title>Node4</title>
<g id="a_node4"><a xlink:href="../../da/dfc/class_gam_r_1_1_ang_dist_1_1_stat_tensor.html#af8a856cc5021ee7cd1b451ff185def49" target="_top" xlink:title=" ">
<polygon fill="white" stroke="black" points="172,-38.5 172,-57.5 328,-57.5 328,-38.5 172,-38.5"/>
<text text-anchor="middle" x="250" y="-45.5" font-family="Helvetica,sans-Serif" font-size="10.00">GamR::AngDist::StatTensor::Get</text>
</a>
</g>
</g>
<!-- Node1&#45;&gt;Node4 -->
<g id="edge3" class="edge">
<title>Node1&#45;&gt;Node4</title>
<path fill="none" stroke="midnightblue" d="M136.03,-48C144.43,-48 153.12,-48 161.78,-48"/>
<polygon fill="midnightblue" stroke="midnightblue" points="161.91,-51.5 171.91,-48 161.91,-44.5 161.91,-51.5"/>
</g>
<!-- Node5 -->
<g id="node5" class="node">
<title>Node5</title>
<g id="a_node5"><a xlink:href="../../da/dfc/class_gam_r_1_1_ang_dist_1_1_stat_tensor.html#a601edccee805ff4cf763bd8c8b7a6c6f" target="_top" xlink:title=" ">
<polygon fill="white" stroke="black" points="172.5,-0.5 172.5,-19.5 327.5,-19.5 327.5,-0.5 172.5,-0.5"/>
<text text-anchor="middle" x="250" y="-7.5" font-family="Helvetica,sans-Serif" font-size="10.00">GamR::AngDist::StatTensor::Set</text>
</a>
</g>
</g>
<!-- Node1&#45;&gt;Node5 -->
<g id="edge4" class="edge">
<title>Node1&#45;&gt;Node5</title>
<path fill="none" stroke="midnightblue" d="M136.03,-33.85C155.09,-29.83 175.62,-25.49 193.88,-21.64"/>
<polygon fill="midnightblue" stroke="midnightblue" points="194.71,-25.04 203.77,-19.55 193.27,-18.19 194.71,-25.04"/>
</g>
<!-- Node3 -->
<g id="node3" class="node">
<title>Node3</title>
<g id="a_node3"><a xlink:href="../../da/dfc/class_gam_r_1_1_ang_dist_1_1_stat_tensor.html#a15d393265279fbd8d68f641adcab86ff" target="_top" xlink:title=" ">
<polygon fill="white" stroke="black" points="364,-77 364,-107 500,-107 500,-77 364,-77"/>
<text text-anchor="start" x="372" y="-95" font-family="Helvetica,sans-Serif" font-size="10.00">GamR::AngDist::StatTensor</text>
<text text-anchor="middle" x="432" y="-84" font-family="Helvetica,sans-Serif" font-size="10.00">::Clear</text>
</a>
</g>
</g>
<!-- Node2&#45;&gt;Node3 -->
<g id="edge2" class="edge">
<title>Node2&#45;&gt;Node3</title>
<path fill="none" stroke="midnightblue" d="M318.03,-92C329.62,-92 341.76,-92 353.61,-92"/>
<polygon fill="midnightblue" stroke="midnightblue" points="353.92,-95.5 363.92,-92 353.92,-88.5 353.92,-95.5"/>
</g>
</g>
</svg>
