<?xml version="1.0" encoding="UTF-8" standalone="no"?>
<!DOCTYPE svg PUBLIC "-//W3C//DTD SVG 1.1//EN"
 "http://www.w3.org/Graphics/SVG/1.1/DTD/svg11.dtd">
<!-- Generated by graphviz version 12.0.0 (20240704.0754)
 -->
<!-- Title: src/lib/spect/Display.cc Pages: 1 -->
<!--zoomable 138 -->

<svg id="main" version="1.1" xmlns="http://www.w3.org/2000/svg" xmlns:xlink="http://www.w3.org/1999/xlink" xml:space="preserve" onload="init(evt)">
<style type="text/css"><![CDATA[
.node, .edge {opacity: 0.7;}
.node.selected, .edge.selected {opacity: 1;}
.edge:hover path { stroke: red; }
.edge:hover polygon { stroke: red; fill: red; }
]]></style>

<defs>
  <circle id="rim" cx="0" cy="0" r="7"/>
  <circle id="rim2" cx="0" cy="0" r="3.5"/>
  <g id="zoomPlus">
    <use xlink:href="#rim" fill="#404040"><set attributeName="fill" to="#808080" begin="zoomplus.mouseover" end="zoomplus.mouseout"/></use>
    <path d="M-4,0h8M0,-4v8" fill="none" stroke="white" stroke-width="1.5" pointer-events="none"/>
  </g>
  <g id="zoomMin">
    <use xlink:href="#rim" fill="#404040"><set attributeName="fill" to="#808080" begin="zoomminus.mouseover" end="zoomminus.mouseout"/></use>
    <path d="M-4,0h8" fill="none" stroke="white" stroke-width="1.5" pointer-events="none"/>
  </g>
  <g id="arrowUp" transform="translate(30 24)">
    <use xlink:href="#rim"/>
    <path pointer-events="none" fill="none" stroke="white" stroke-width="1.5" d="M0,-3.0v7 M-2.5,-0.5L0,-3.0L2.5,-0.5"/>
  </g>
  <g id="arrowRight" transform="rotate(90) translate(36 -43)">
    <use xlink:href="#rim"/>
    <path pointer-events="none" fill="none" stroke="white" stroke-width="1.5" d="M0,-3.0v7 M-2.5,-0.5L0,-3.0L2.5,-0.5"/>
  </g>
  <g id="arrowDown" transform="rotate(180) translate(-30 -48)">
    <use xlink:href="#rim"/>
    <path pointer-events="none" fill="none" stroke="white" stroke-width="1.5" d="M0,-3.0v7 M-2.5,-0.5L0,-3.0L2.5,-0.5"/>
  </g>
  <g id="arrowLeft" transform="rotate(270) translate(-36 17)">
    <use xlink:href="#rim"/>
    <path pointer-events="none" fill="none" stroke="white" stroke-width="1.5" d="M0,-3.0v7 M-2.5,-0.5L0,-3.0L2.5,-0.5"/>
  </g>
  <g id="resetDef">
    <use xlink:href="#rim2" fill="#404040"><set attributeName="fill" to="#808080" begin="reset.mouseover" end="reset.mouseout"/></use>
  </g>
</defs>
<script type="application/ecmascript">
var viewWidth = 948;
var viewHeight = 138;
var sectionId = 'dynsection-0';
</script>
<script type="application/ecmascript" xlink:href="../../svg.min.js"/>
<svg id="graph" class="graph">
<g id="viewport">
<title>src/lib/spect/Display.cc</title>
<!-- Node1 -->
<g id="Node000001" class="node">
<title>Node1</title>
<g id="a_Node000001"><a xlink:title=" ">
<polygon fill="#999999" stroke="#666666" points="631.75,-129.75 515.25,-129.75 515.25,-110.5 631.75,-110.5 631.75,-129.75"/>
<text text-anchor="middle" x="573.5" y="-116.25" font-family="Helvetica,sans-Serif" font-size="10.00">src/lib/spect/Display.cc</text>
</a>
</g>
</g>
<!-- Node2 -->
<g id="Node000002" class="node">
<title>Node2</title>
<g id="a_Node000002"><a xlink:title=" ">
<polygon fill="#e0e0e0" stroke="#999999" points="114.25,-19.25 60.75,-19.25 60.75,0 114.25,0 114.25,-19.25"/>
<text text-anchor="middle" x="87.5" y="-5.75" font-family="Helvetica,sans-Serif" font-size="10.00">iostream</text>
</a>
</g>
</g>
<!-- Node1&#45;&gt;Node2 -->
<g id="edge1_Node000001_Node000002" class="edge">
<title>Node1&#45;&gt;Node2</title>
<g id="a_edge1_Node000001_Node000002"><a xlink:title=" ">
<path fill="none" stroke="#63b8ff" d="M514.81,-114.92C450.22,-109.37 343.72,-97.49 254.5,-74.5 204.94,-61.73 149.95,-38.92 117.08,-24.29"/>
<polygon fill="#63b8ff" stroke="#63b8ff" points="118.76,-21.21 108.2,-20.29 115.88,-27.59 118.76,-21.21"/>
</a>
</g>
</g>
<!-- Node3 -->
<g id="Node000003" class="node">
<title>Node3</title>
<g id="a_Node000003"><a xlink:title=" ">
<polygon fill="#e0e0e0" stroke="#999999" points="602.12,-74.5 544.88,-74.5 544.88,-55.25 602.12,-55.25 602.12,-74.5"/>
<text text-anchor="middle" x="573.5" y="-61" font-family="Helvetica,sans-Serif" font-size="10.00">TROOT.h</text>
</a>
</g>
</g>
<!-- Node1&#45;&gt;Node3 -->
<g id="edge2_Node000001_Node000003" class="edge">
<title>Node1&#45;&gt;Node3</title>
<g id="a_edge2_Node000001_Node000003"><a xlink:title=" ">
<path fill="none" stroke="#63b8ff" d="M573.5,-110.33C573.5,-103.82 573.5,-94.67 573.5,-86.37"/>
<polygon fill="#63b8ff" stroke="#63b8ff" points="577,-86.37 573.5,-76.37 570,-86.37 577,-86.37"/>
</a>
</g>
</g>
<!-- Node4 -->
<g id="Node000004" class="node">
<title>Node4</title>
<g id="a_Node000004"><a xlink:title=" ">
<polygon fill="#e0e0e0" stroke="#999999" points="672.5,-74.5 620.5,-74.5 620.5,-55.25 672.5,-55.25 672.5,-74.5"/>
<text text-anchor="middle" x="646.5" y="-61" font-family="Helvetica,sans-Serif" font-size="10.00">TColor.h</text>
</a>
</g>
</g>
<!-- Node1&#45;&gt;Node4 -->
<g id="edge3_Node000001_Node000004" class="edge">
<title>Node1&#45;&gt;Node4</title>
<g id="a_edge3_Node000001_Node000004"><a xlink:title=" ">
<path fill="none" stroke="#63b8ff" d="M585.88,-110.09C596.65,-102.24 612.47,-90.7 625.25,-81.37"/>
<polygon fill="#63b8ff" stroke="#63b8ff" points="627.06,-84.39 633.08,-75.67 622.94,-78.73 627.06,-84.39"/>
</a>
</g>
</g>
<!-- Node5 -->
<g id="Node000005" class="node">
<title>Node5</title>
<g id="a_Node000005"><a xlink:title=" ">
<polygon fill="#e0e0e0" stroke="#999999" points="736.12,-74.5 690.88,-74.5 690.88,-55.25 736.12,-55.25 736.12,-74.5"/>
<text text-anchor="middle" x="713.5" y="-61" font-family="Helvetica,sans-Serif" font-size="10.00">TFile.h</text>
</a>
</g>
</g>
<!-- Node1&#45;&gt;Node5 -->
<g id="edge4_Node000001_Node000005" class="edge">
<title>Node1&#45;&gt;Node5</title>
<g id="a_edge4_Node000001_Node000005"><a xlink:title=" ">
<path fill="none" stroke="#63b8ff" d="M597.25,-110.09C619.95,-101.46 654.39,-88.36 679.9,-78.66"/>
<polygon fill="#63b8ff" stroke="#63b8ff" points="681.05,-81.96 689.15,-75.14 678.56,-75.42 681.05,-81.96"/>
</a>
</g>
</g>
<!-- Node6 -->
<g id="Node000006" class="node">
<title>Node6</title>
<g id="a_Node000006"><a xlink:title=" ">
<polygon fill="#e0e0e0" stroke="#999999" points="800.5,-74.5 754.5,-74.5 754.5,-55.25 800.5,-55.25 800.5,-74.5"/>
<text text-anchor="middle" x="777.5" y="-61" font-family="Helvetica,sans-Serif" font-size="10.00">TKey.h</text>
</a>
</g>
</g>
<!-- Node1&#45;&gt;Node6 -->
<g id="edge5_Node000001_Node000006" class="edge">
<title>Node1&#45;&gt;Node6</title>
<g id="a_edge5_Node000001_Node000006"><a xlink:title=" ">
<path fill="none" stroke="#63b8ff" d="M608.77,-110.08C641.25,-101.72 691.06,-88.86 742.98,-75.15"/>
<polygon fill="#63b8ff" stroke="#63b8ff" points="743.85,-78.54 752.62,-72.6 742.06,-71.77 743.85,-78.54"/>
</a>
</g>
</g>
<!-- Node7 -->
<g id="Node000007" class="node">
<title>Node7</title>
<g id="a_Node000007"><a xlink:title=" ">
<polygon fill="#e0e0e0" stroke="#999999" points="880.38,-74.5 818.62,-74.5 818.62,-55.25 880.38,-55.25 880.38,-74.5"/>
<text text-anchor="middle" x="849.5" y="-61" font-family="Helvetica,sans-Serif" font-size="10.00">TLegend.h</text>
</a>
</g>
</g>
<!-- Node1&#45;&gt;Node7 -->
<g id="edge6_Node000001_Node000007" class="edge">
<title>Node1&#45;&gt;Node7</title>
<g id="a_edge6_Node000001_Node000007"><a xlink:title=" ">
<path fill="none" stroke="#63b8ff" d="M623.75,-110.01C669.15,-101.68 738.09,-88.83 807.39,-74.89"/>
<polygon fill="#63b8ff" stroke="#63b8ff" points="807.92,-78.35 817.02,-72.94 806.53,-71.49 807.92,-78.35"/>
</a>
</g>
</g>
<!-- Node8 -->
<g id="Node000008" class="node">
<title>Node8</title>
<g id="a_Node000008"><a xlink:href="../../d9/db7/_display_8hh.html" target="_top" xlink:title=" ">
<polygon fill="white" stroke="#666666" points="323.62,-74.5 263.38,-74.5 263.38,-55.25 323.62,-55.25 323.62,-74.5"/>
<text text-anchor="middle" x="293.5" y="-61" font-family="Helvetica,sans-Serif" font-size="10.00">Display.hh</text>
</a>
</g>
</g>
<!-- Node1&#45;&gt;Node8 -->
<g id="edge7_Node000001_Node000008" class="edge">
<title>Node1&#45;&gt;Node8</title>
<g id="a_edge7_Node000001_Node000008"><a xlink:title=" ">
<path fill="none" stroke="#63b8ff" d="M522.39,-110.06C476.12,-101.75 405.81,-88.89 334.97,-74.75"/>
<polygon fill="#63b8ff" stroke="#63b8ff" points="336.03,-71.39 325.54,-72.86 334.66,-78.25 336.03,-71.39"/>
</a>
</g>
</g>
<!-- Node13 -->
<g id="Node000013" class="node">
<title>Node13</title>
<g id="a_Node000013"><a xlink:href="../../dd/d50/_gate_8hh.html" target="_top" xlink:title=" ">
<polygon fill="white" stroke="#666666" points="527,-74.5 448,-74.5 448,-55.25 527,-55.25 527,-74.5"/>
<text text-anchor="middle" x="487.5" y="-61" font-family="Helvetica,sans-Serif" font-size="10.00">toolkit/Gate.hh</text>
</a>
</g>
</g>
<!-- Node1&#45;&gt;Node13 -->
<g id="edge12_Node000001_Node000013" class="edge">
<title>Node1&#45;&gt;Node13</title>
<g id="a_edge12_Node000001_Node000013"><a xlink:title=" ">
<path fill="none" stroke="#63b8ff" d="M558.91,-110.09C546.06,-102.14 527.09,-90.39 511.93,-81"/>
<polygon fill="#63b8ff" stroke="#63b8ff" points="513.79,-78.04 503.45,-75.75 510.11,-83.99 513.79,-78.04"/>
</a>
</g>
</g>
<!-- Node21 -->
<g id="Node000021" class="node">
<title>Node21</title>
<g id="a_Node000021"><a xlink:href="../../d7/db9/_utilities_8hh.html" target="_top" xlink:title=" ">
<polygon fill="white" stroke="#666666" points="424.88,-74.5 342.12,-74.5 342.12,-55.25 424.88,-55.25 424.88,-74.5"/>
<text text-anchor="middle" x="383.5" y="-61" font-family="Helvetica,sans-Serif" font-size="10.00">utils/Utilities.hh</text>
</a>
</g>
</g>
<!-- Node1&#45;&gt;Node21 -->
<g id="edge24_Node000001_Node000021" class="edge">
<title>Node1&#45;&gt;Node21</title>
<g id="a_edge24_Node000001_Node000021"><a xlink:title=" ">
<path fill="none" stroke="#63b8ff" d="M541.27,-110.09C509.74,-101.26 461.52,-87.74 426.69,-77.98"/>
<polygon fill="#63b8ff" stroke="#63b8ff" points="427.92,-74.69 417.35,-75.36 426.03,-81.43 427.92,-74.69"/>
</a>
</g>
</g>
<!-- Node9 -->
<g id="Node000009" class="node">
<title>Node9</title>
<g id="a_Node000009"><a xlink:title=" ">
<polygon fill="#e0e0e0" stroke="#999999" points="43,-19.25 0,-19.25 0,0 43,0 43,-19.25"/>
<text text-anchor="middle" x="21.5" y="-5.75" font-family="Helvetica,sans-Serif" font-size="10.00">vector</text>
</a>
</g>
</g>
<!-- Node8&#45;&gt;Node9 -->
<g id="edge8_Node000008_Node000009" class="edge">
<title>Node8&#45;&gt;Node9</title>
<g id="a_edge8_Node000008_Node000009"><a xlink:title=" ">
<path fill="none" stroke="#63b8ff" d="M263.12,-59.25C219.05,-52.33 134.64,-38.29 54.2,-19.71"/>
<polygon fill="#63b8ff" stroke="#63b8ff" points="55.4,-16.4 44.86,-17.53 53.8,-23.22 55.4,-16.4"/>
</a>
</g>
</g>
<!-- Node10 -->
<g id="Node000010" class="node">
<title>Node10</title>
<g id="a_Node000010"><a xlink:title=" ">
<polygon fill="#e0e0e0" stroke="#999999" points="312.62,-19.25 270.38,-19.25 270.38,0 312.62,0 312.62,-19.25"/>
<text text-anchor="middle" x="291.5" y="-5.75" font-family="Helvetica,sans-Serif" font-size="10.00">TH1.h</text>
</a>
</g>
</g>
<!-- Node8&#45;&gt;Node10 -->
<g id="edge9_Node000008_Node000010" class="edge">
<title>Node8&#45;&gt;Node10</title>
<g id="a_edge9_Node000008_Node000010"><a xlink:title=" ">
<path fill="none" stroke="#63b8ff" d="M293.17,-55.08C292.92,-48.49 292.57,-39.21 292.26,-30.82"/>
<polygon fill="#63b8ff" stroke="#63b8ff" points="295.77,-30.98 291.89,-21.12 288.77,-31.25 295.77,-30.98"/>
</a>
</g>
</g>
<!-- Node11 -->
<g id="Node000011" class="node">
<title>Node11</title>
<g id="a_Node000011"><a xlink:title=" ">
<polygon fill="#e0e0e0" stroke="#999999" points="372.62,-19.25 330.38,-19.25 330.38,0 372.62,0 372.62,-19.25"/>
<text text-anchor="middle" x="351.5" y="-5.75" font-family="Helvetica,sans-Serif" font-size="10.00">TH2.h</text>
</a>
</g>
</g>
<!-- Node8&#45;&gt;Node11 -->
<g id="edge10_Node000008_Node000011" class="edge">
<title>Node8&#45;&gt;Node11</title>
<g id="a_edge10_Node000008_Node000011"><a xlink:title=" ">
<path fill="none" stroke="#63b8ff" d="M303.34,-54.84C311.55,-47.3 323.48,-36.35 333.41,-27.23"/>
<polygon fill="#63b8ff" stroke="#63b8ff" points="335.69,-29.89 340.69,-20.55 330.96,-24.73 335.69,-29.89"/>
</a>
</g>
</g>
<!-- Node12 -->
<g id="Node000012" class="node">
<title>Node12</title>
<g id="a_Node000012"><a xlink:title=" ">
<polygon fill="#e0e0e0" stroke="#999999" points="452.75,-19.25 390.25,-19.25 390.25,0 452.75,0 452.75,-19.25"/>
<text text-anchor="middle" x="421.5" y="-5.75" font-family="Helvetica,sans-Serif" font-size="10.00">TCanvas.h</text>
</a>
</g>
</g>
<!-- Node8&#45;&gt;Node12 -->
<g id="edge11_Node000008_Node000012" class="edge">
<title>Node8&#45;&gt;Node12</title>
<g id="a_edge11_Node000008_Node000012"><a xlink:title=" ">
<path fill="none" stroke="#63b8ff" d="M315.21,-54.84C335.53,-46.39 366.15,-33.65 389.31,-24.02"/>
<polygon fill="#63b8ff" stroke="#63b8ff" points="390.39,-27.36 398.28,-20.28 387.71,-20.89 390.39,-27.36"/>
</a>
</g>
</g>
<!-- Node13&#45;&gt;Node2 -->
<g id="edge17_Node000013_Node000002" class="edge">
<title>Node13&#45;&gt;Node2</title>
<g id="a_edge17_Node000013_Node000002"><a xlink:title=" ">
<path fill="none" stroke="#63b8ff" d="M447.72,-57.32C442.93,-56.59 438.11,-55.89 433.5,-55.25 299.72,-36.81 262.05,-43.09 125.84,-19.46"/>
<polygon fill="#63b8ff" stroke="#63b8ff" points="126.5,-16.02 116.04,-17.74 125.29,-22.92 126.5,-16.02"/>
</a>
</g>
</g>
<!-- Node13&#45;&gt;Node10 -->
<g id="edge21_Node000013_Node000010" class="edge">
<title>Node13&#45;&gt;Node10</title>
<g id="a_edge21_Node000013_Node000010"><a xlink:title=" ">
<path fill="none" stroke="#63b8ff" d="M453.12,-54.82C421.81,-46.53 374.03,-33.78 324.13,-19.95"/>
<polygon fill="#63b8ff" stroke="#63b8ff" points="325.15,-16.6 314.58,-17.29 323.27,-23.34 325.15,-16.6"/>
</a>
</g>
</g>
<!-- Node13&#45;&gt;Node11 -->
<g id="edge22_Node000013_Node000011" class="edge">
<title>Node13&#45;&gt;Node11</title>
<g id="a_edge22_Node000013_Node000011"><a xlink:title=" ">
<path fill="none" stroke="#63b8ff" d="M464.43,-54.84C442.22,-46.14 408.43,-32.91 383.59,-23.19"/>
<polygon fill="#63b8ff" stroke="#63b8ff" points="384.89,-19.94 374.3,-19.55 382.33,-26.46 384.89,-19.94"/>
</a>
</g>
</g>
<!-- Node13&#45;&gt;Node12 -->
<g id="edge20_Node000013_Node000012" class="edge">
<title>Node13&#45;&gt;Node12</title>
<g id="a_edge20_Node000013_Node000012"><a xlink:title=" ">
<path fill="none" stroke="#63b8ff" d="M476.3,-54.84C466.76,-47.15 452.83,-35.9 441.39,-26.68"/>
<polygon fill="#63b8ff" stroke="#63b8ff" points="443.69,-24.03 433.71,-20.48 439.29,-29.48 443.69,-24.03"/>
</a>
</g>
</g>
<!-- Node14 -->
<g id="Node000014" class="node">
<title>Node14</title>
<g id="a_Node000014"><a xlink:title=" ">
<polygon fill="#e0e0e0" stroke="#999999" points="584.38,-19.25 528.62,-19.25 528.62,0 584.38,0 584.38,-19.25"/>
<text text-anchor="middle" x="556.5" y="-5.75" font-family="Helvetica,sans-Serif" font-size="10.00">algorithm</text>
</a>
</g>
</g>
<!-- Node13&#45;&gt;Node14 -->
<g id="edge13_Node000013_Node000014" class="edge">
<title>Node13&#45;&gt;Node14</title>
<g id="a_edge13_Node000013_Node000014"><a xlink:title=" ">
<path fill="none" stroke="#63b8ff" d="M499.2,-54.84C509.28,-47.07 524.04,-35.67 536.06,-26.4"/>
<polygon fill="#63b8ff" stroke="#63b8ff" points="537.99,-29.33 543.77,-20.45 533.71,-23.79 537.99,-29.33"/>
</a>
</g>
</g>
<!-- Node15 -->
<g id="Node000015" class="node">
<title>Node15</title>
<g id="a_Node000015"><a xlink:title=" ">
<polygon fill="#e0e0e0" stroke="#999999" points="636.88,-19.25 602.12,-19.25 602.12,0 636.88,0 636.88,-19.25"/>
<text text-anchor="middle" x="619.5" y="-5.75" font-family="Helvetica,sans-Serif" font-size="10.00">map</text>
</a>
</g>
</g>
<!-- Node13&#45;&gt;Node15 -->
<g id="edge14_Node000013_Node000015" class="edge">
<title>Node13&#45;&gt;Node15</title>
<g id="a_edge14_Node000013_Node000015"><a xlink:title=" ">
<path fill="none" stroke="#63b8ff" d="M509.89,-54.84C532.34,-45.78 566.98,-31.81 591.3,-22"/>
<polygon fill="#63b8ff" stroke="#63b8ff" points="592.3,-25.37 600.26,-18.39 589.68,-18.88 592.3,-25.37"/>
</a>
</g>
</g>
<!-- Node16 -->
<g id="Node000016" class="node">
<title>Node16</title>
<g id="a_Node000016"><a xlink:title=" ">
<polygon fill="#e0e0e0" stroke="#999999" points="706.12,-19.25 654.88,-19.25 654.88,0 706.12,0 706.12,-19.25"/>
<text text-anchor="middle" x="680.5" y="-5.75" font-family="Helvetica,sans-Serif" font-size="10.00">sstream</text>
</a>
</g>
</g>
<!-- Node13&#45;&gt;Node16 -->
<g id="edge15_Node000013_Node000016" class="edge">
<title>Node13&#45;&gt;Node16</title>
<g id="a_edge15_Node000013_Node000016"><a xlink:title=" ">
<path fill="none" stroke="#63b8ff" d="M520.24,-54.84C554.4,-45.42 607.85,-30.67 643.51,-20.83"/>
<polygon fill="#63b8ff" stroke="#63b8ff" points="644.25,-24.26 652.96,-18.22 642.39,-17.51 644.25,-24.26"/>
</a>
</g>
</g>
<!-- Node17 -->
<g id="Node000017" class="node">
<title>Node17</title>
<g id="a_Node000017"><a xlink:title=" ">
<polygon fill="#e0e0e0" stroke="#999999" points="510.5,-19.25 470.5,-19.25 470.5,0 510.5,0 510.5,-19.25"/>
<text text-anchor="middle" x="490.5" y="-5.75" font-family="Helvetica,sans-Serif" font-size="10.00">string</text>
</a>
</g>
</g>
<!-- Node13&#45;&gt;Node17 -->
<g id="edge16_Node000013_Node000017" class="edge">
<title>Node13&#45;&gt;Node17</title>
<g id="a_edge16_Node000013_Node000017"><a xlink:title=" ">
<path fill="none" stroke="#63b8ff" d="M488,-55.08C488.37,-48.49 488.89,-39.21 489.36,-30.82"/>
<polygon fill="#63b8ff" stroke="#63b8ff" points="492.84,-31.3 489.91,-21.12 485.85,-30.91 492.84,-31.3"/>
</a>
</g>
</g>
<!-- Node18 -->
<g id="Node000018" class="node">
<title>Node18</title>
<g id="a_Node000018"><a xlink:title=" ">
<polygon fill="#e0e0e0" stroke="#999999" points="777.25,-19.25 723.75,-19.25 723.75,0 777.25,0 777.25,-19.25"/>
<text text-anchor="middle" x="750.5" y="-5.75" font-family="Helvetica,sans-Serif" font-size="10.00">Rtypes.h</text>
</a>
</g>
</g>
<!-- Node13&#45;&gt;Node18 -->
<g id="edge18_Node000013_Node000018" class="edge">
<title>Node13&#45;&gt;Node18</title>
<g id="a_edge18_Node000013_Node000018"><a xlink:title=" ">
<path fill="none" stroke="#63b8ff" d="M527.16,-56.71C570.43,-48.77 641.99,-35.24 712.15,-19.92"/>
<polygon fill="#63b8ff" stroke="#63b8ff" points="712.91,-23.33 721.92,-17.77 711.4,-16.5 712.91,-23.33"/>
</a>
</g>
</g>
<!-- Node19 -->
<g id="Node000019" class="node">
<title>Node19</title>
<g id="a_Node000019"><a xlink:title=" ">
<polygon fill="#e0e0e0" stroke="#999999" points="861.25,-19.25 795.75,-19.25 795.75,0 861.25,0 861.25,-19.25"/>
<text text-anchor="middle" x="828.5" y="-5.75" font-family="Helvetica,sans-Serif" font-size="10.00">TBrowser.h</text>
</a>
</g>
</g>
<!-- Node13&#45;&gt;Node19 -->
<g id="edge19_Node000013_Node000019" class="edge">
<title>Node13&#45;&gt;Node19</title>
<g id="a_edge19_Node000013_Node000019"><a xlink:title=" ">
<path fill="none" stroke="#63b8ff" d="M527.29,-56.61C530.07,-56.14 532.83,-55.68 535.5,-55.25 643.17,-37.86 673.54,-38.53 784.19,-19.55"/>
<polygon fill="#63b8ff" stroke="#63b8ff" points="784.77,-23.01 794.03,-17.85 783.58,-16.11 784.77,-23.01"/>
</a>
</g>
</g>
<!-- Node20 -->
<g id="Node000020" class="node">
<title>Node20</title>
<g id="a_Node000020"><a xlink:title=" ">
<polygon fill="#e0e0e0" stroke="#999999" points="940,-19.25 879,-19.25 879,0 940,0 940,-19.25"/>
<text text-anchor="middle" x="909.5" y="-5.75" font-family="Helvetica,sans-Serif" font-size="10.00">TNamed.h</text>
</a>
</g>
</g>
<!-- Node13&#45;&gt;Node20 -->
<g id="edge23_Node000013_Node000020" class="edge">
<title>Node13&#45;&gt;Node20</title>
<g id="a_edge23_Node000013_Node000020"><a xlink:title=" ">
<path fill="none" stroke="#63b8ff" d="M527.28,-56.5C530.06,-56.06 532.82,-55.63 535.5,-55.25 680.11,-34.51 720.75,-43.01 867.67,-19.55"/>
<polygon fill="#63b8ff" stroke="#63b8ff" points="868.1,-23.03 877.41,-17.97 866.98,-16.12 868.1,-23.03"/>
</a>
</g>
</g>
<!-- Node21&#45;&gt;Node10 -->
<g id="edge29_Node000021_Node000010" class="edge">
<title>Node21&#45;&gt;Node10</title>
<g id="a_edge29_Node000021_Node000010"><a xlink:title=" ">
<path fill="none" stroke="#63b8ff" d="M367.89,-54.84C353.88,-46.73 333.07,-34.68 316.7,-25.21"/>
<polygon fill="#63b8ff" stroke="#63b8ff" points="318.9,-22.44 308.49,-20.46 315.39,-28.5 318.9,-22.44"/>
</a>
</g>
</g>
<!-- Node21&#45;&gt;Node11 -->
<g id="edge30_Node000021_Node000011" class="edge">
<title>Node21&#45;&gt;Node11</title>
<g id="a_edge30_Node000021_Node000011"><a xlink:title=" ">
<path fill="none" stroke="#63b8ff" d="M378.22,-55.08C374.03,-48.11 368.02,-38.12 362.77,-29.37"/>
<polygon fill="#63b8ff" stroke="#63b8ff" points="365.83,-27.68 357.68,-20.91 359.83,-31.28 365.83,-27.68"/>
</a>
</g>
</g>
<!-- Node21&#45;&gt;Node12 -->
<g id="edge28_Node000021_Node000012" class="edge">
<title>Node21&#45;&gt;Node12</title>
<g id="a_edge28_Node000021_Node000012"><a xlink:title=" ">
<path fill="none" stroke="#63b8ff" d="M389.77,-55.08C394.86,-47.96 402.2,-37.68 408.53,-28.8"/>
<polygon fill="#63b8ff" stroke="#63b8ff" points="411.25,-31.01 414.21,-20.84 405.55,-26.95 411.25,-31.01"/>
</a>
</g>
</g>
<!-- Node21&#45;&gt;Node17 -->
<g id="edge25_Node000021_Node000017" class="edge">
<title>Node21&#45;&gt;Node17</title>
<g id="a_edge25_Node000021_Node000017"><a xlink:title=" ">
<path fill="none" stroke="#63b8ff" d="M401.65,-54.84C418.18,-46.62 442.84,-34.34 462,-24.81"/>
<polygon fill="#63b8ff" stroke="#63b8ff" points="463.51,-27.97 470.9,-20.38 460.39,-21.7 463.51,-27.97"/>
</a>
</g>
</g>
<!-- Node22 -->
<g id="Node000022" class="node">
<title>Node22</title>
<g id="a_Node000022"><a xlink:title=" ">
<polygon fill="#e0e0e0" stroke="#999999" points="252,-19.25 203,-19.25 203,0 252,0 252,-19.25"/>
<text text-anchor="middle" x="227.5" y="-5.75" font-family="Helvetica,sans-Serif" font-size="10.00">fstream</text>
</a>
</g>
</g>
<!-- Node21&#45;&gt;Node22 -->
<g id="edge26_Node000021_Node000022" class="edge">
<title>Node21&#45;&gt;Node22</title>
<g id="a_edge26_Node000021_Node000022"><a xlink:title=" ">
<path fill="none" stroke="#63b8ff" d="M357.04,-54.84C331.17,-46.01 291.63,-32.52 263.04,-22.76"/>
<polygon fill="#63b8ff" stroke="#63b8ff" points="264.31,-19.49 253.72,-19.58 262.05,-26.12 264.31,-19.49"/>
</a>
</g>
</g>
<!-- Node23 -->
<g id="Node000023" class="node">
<title>Node23</title>
<g id="a_Node000023"><a xlink:title=" ">
<polygon fill="#e0e0e0" stroke="#999999" points="184.5,-19.25 132.5,-19.25 132.5,0 184.5,0 184.5,-19.25"/>
<text text-anchor="middle" x="158.5" y="-5.75" font-family="Helvetica,sans-Serif" font-size="10.00">complex</text>
</a>
</g>
</g>
<!-- Node21&#45;&gt;Node23 -->
<g id="edge27_Node000021_Node000023" class="edge">
<title>Node21&#45;&gt;Node23</title>
<g id="a_edge27_Node000021_Node000023"><a xlink:title=" ">
<path fill="none" stroke="#63b8ff" d="M344.76,-54.77C308.86,-46.32 253.68,-33.31 196.02,-19.6"/>
<polygon fill="#63b8ff" stroke="#63b8ff" points="196.85,-16.21 186.32,-17.3 195.23,-23.02 196.85,-16.21"/>
</a>
</g>
</g>
</g>
</svg>

<g id="navigator" transform="translate(0 0)" fill="#404254">
  <rect fill="#f2f5e9" fill-opacity="0.5" stroke="#606060" stroke-width=".5" x="0" y="0" width="60" height="60"/>
  <use id="zoomplus" xlink:href="#zoomPlus" x="17" y="9" onmousedown="handleZoom(evt,'in')"/>
  <use id="zoomminus" xlink:href="#zoomMin" x="42" y="9" onmousedown="handleZoom(evt,'out')"/>
  <use id="reset" xlink:href="#resetDef" x="30" y="36" onmousedown="handleReset()"/>
   <use id="arrowup" xlink:href="#arrowUp" x="0" y="0" onmousedown="handlePan(0,-1)"/>
  <use id="arrowright" xlink:href="#arrowRight" x="0" y="0" onmousedown="handlePan(1,0)"/>
  <use id="arrowdown" xlink:href="#arrowDown" x="0" y="0" onmousedown="handlePan(0,1)"/>
  <use id="arrowleft" xlink:href="#arrowLeft" x="0" y="0" onmousedown="handlePan(-1,0)"/>
</g>
<svg viewBox="0 0 15 15" width="100%" height="30px" preserveAspectRatio="xMaxYMin meet">
 <g id="arrow_out" transform="scale(0.3 0.3)">
  <a xlink:href="_display_8cc__incl_org.svg" target="_base">
   <rect id="button" ry="5" rx="5" y="6" x="6" height="38" width="38"
        fill="#f2f5e9" fill-opacity="0.5" stroke="#606060" stroke-width="1.0"/>
   <path id="arrow"
     d="M 11.500037,31.436501 C 11.940474,20.09759 22.043105,11.32322 32.158766,21.979434 L 37.068811,17.246167 C 37.068811,17.246167 37.088388,32 37.088388,32 L 22.160133,31.978069 C 22.160133,31.978069 26.997745,27.140456 26.997745,27.140456 C 18.528582,18.264221 13.291696,25.230495 11.500037,31.436501 z"
     style="fill:#404040;"/>
  </a>
 </g>
</svg>

<style type='text/css'>
<![CDATA[
[data-mouse-over-selected='false'] { opacity: 0.7; }
[data-mouse-over-selected='true']  { opacity: 1.0; }
]]>
</style>
<script type="application/ecmascript"><![CDATA[
document.addEventListener('DOMContentLoaded', (event) => {
  highlightEdges();
  highlightAdjacentNodes();
});
]]></script>
</svg>
