<?xml version="1.0" encoding="UTF-8" standalone="no"?>
<!DOCTYPE svg PUBLIC "-//W3C//DTD SVG 1.1//EN"
 "http://www.w3.org/Graphics/SVG/1.1/DTD/svg11.dtd">
<!-- Generated by graphviz version 9.0.0 (20230911.1827)
 -->
<!-- Title: main Pages: 1 -->
<svg width="178pt" height="419pt"
 viewBox="0.00 0.00 178.00 418.50" xmlns="http://www.w3.org/2000/svg" xmlns:xlink="http://www.w3.org/1999/xlink">
<g id="graph0" class="graph" transform="scale(1 1) rotate(0) translate(4 414.5)">
<title>main</title>
<!-- Node1 -->
<g id="Node000001" class="node">
<title>Node1</title>
<g id="a_Node000001"><a xlink:title=" ">
<polygon fill="#999999" stroke="#666666" points="37,-220.88 0,-220.88 0,-201.62 37,-201.62 37,-220.88"/>
<text text-anchor="middle" x="18.5" y="-207.38" font-family="Helvetica,sans-Serif" font-size="10.00">main</text>
</a>
</g>
</g>
<!-- Node2 -->
<g id="Node000002" class="node">
<title>Node2</title>
<g id="a_Node000002"><a xlink:href="../../d3/d27/class_gam_r_1_1_sort_1_1_sorter.html#ad7e35ff82283dd168d4dc556e38b3f05" target="_top" xlink:title=" ">
<polygon fill="white" stroke="#666666" points="170,-410.5 73,-410.5 73,-380 170,-380 170,-410.5"/>
<text text-anchor="start" x="81" y="-397" font-family="Helvetica,sans-Serif" font-size="10.00">GamR::Sort::Sorter</text>
<text text-anchor="middle" x="121.5" y="-385.75" font-family="Helvetica,sans-Serif" font-size="10.00">::Done</text>
</a>
</g>
</g>
<!-- Node1&#45;&gt;Node2 -->
<g id="edge1_Node000001_Node000002" class="edge">
<title>Node1&#45;&gt;Node2</title>
<g id="a_edge1_Node000001_Node000002"><a xlink:title=" ">
<path fill="none" stroke="#63b8ff" d="M20.29,-221.06C22.95,-247.99 33.72,-324.13 73,-370.25 73.66,-371.03 74.35,-371.78 75.07,-372.52"/>
<polygon fill="#63b8ff" stroke="#63b8ff" points="72.51,-374.94 82.43,-378.66 77,-369.57 72.51,-374.94"/>
</a>
</g>
</g>
<!-- Node3 -->
<g id="Node000003" class="node">
<title>Node3</title>
<g id="a_Node000003"><a xlink:href="../../d3/d27/class_gam_r_1_1_sort_1_1_sorter.html#adfc027ffd2f8a07e15058e48c59e56b4" target="_top" xlink:title=" ">
<polygon fill="white" stroke="#666666" points="170,-361.5 73,-361.5 73,-331 170,-331 170,-361.5"/>
<text text-anchor="start" x="81" y="-348" font-family="Helvetica,sans-Serif" font-size="10.00">GamR::Sort::Sorter</text>
<text text-anchor="middle" x="121.5" y="-336.75" font-family="Helvetica,sans-Serif" font-size="10.00">::Halt</text>
</a>
</g>
</g>
<!-- Node1&#45;&gt;Node3 -->
<g id="edge2_Node000001_Node000003" class="edge">
<title>Node1&#45;&gt;Node3</title>
<g id="a_edge2_Node000001_Node000003"><a xlink:title=" ">
<path fill="none" stroke="#63b8ff" d="M21.93,-221.11C27.55,-242.15 43.33,-292.02 73,-322.25 73.49,-322.74 73.98,-323.23 74.49,-323.71"/>
<polygon fill="#63b8ff" stroke="#63b8ff" points="72.3,-326.43 82.34,-329.8 76.59,-320.91 72.3,-326.43"/>
</a>
</g>
</g>
<!-- Node4 -->
<g id="Node000004" class="node">
<title>Node4</title>
<g id="a_Node000004"><a xlink:href="../../d0/d17/_abbreviations_8cc.html#a959e7ce47553e78b1634f02c3824985c" target="_top" xlink:title=" ">
<polygon fill="white" stroke="#666666" points="138.5,-312.88 104.5,-312.88 104.5,-293.62 138.5,-293.62 138.5,-312.88"/>
<text text-anchor="middle" x="121.5" y="-299.38" font-family="Helvetica,sans-Serif" font-size="10.00">help</text>
</a>
</g>
</g>
<!-- Node1&#45;&gt;Node4 -->
<g id="edge3_Node000001_Node000004" class="edge">
<title>Node1&#45;&gt;Node4</title>
<g id="a_edge3_Node000001_Node000004"><a xlink:title=" ">
<path fill="none" stroke="#63b8ff" d="M24.53,-221.37C32.7,-236.9 50.27,-266.63 73,-284.25 79.08,-288.96 86.49,-292.66 93.62,-295.49"/>
<polygon fill="#63b8ff" stroke="#63b8ff" points="92.36,-298.76 102.96,-298.75 94.67,-292.15 92.36,-298.76"/>
</a>
</g>
</g>
<!-- Node5 -->
<g id="Node000005" class="node">
<title>Node5</title>
<g id="a_Node000005"><a xlink:href="../../d3/d27/class_gam_r_1_1_sort_1_1_sorter.html#a2a7f90ed2e3b90d57e97f1bbc72f4704" target="_top" xlink:title=" ">
<polygon fill="white" stroke="#666666" points="170,-275.5 73,-275.5 73,-245 170,-245 170,-275.5"/>
<text text-anchor="start" x="81" y="-262" font-family="Helvetica,sans-Serif" font-size="10.00">GamR::Sort::Sorter</text>
<text text-anchor="middle" x="121.5" y="-250.75" font-family="Helvetica,sans-Serif" font-size="10.00">::PrintStatus</text>
</a>
</g>
</g>
<!-- Node1&#45;&gt;Node5 -->
<g id="edge4_Node000001_Node000005" class="edge">
<title>Node1&#45;&gt;Node5</title>
<g id="a_edge4_Node000001_Node000005"><a xlink:title=" ">
<path fill="none" stroke="#63b8ff" d="M37.09,-219.79C48.46,-225.3 63.77,-232.73 78.17,-239.72"/>
<polygon fill="#63b8ff" stroke="#63b8ff" points="76.54,-242.81 87.07,-244.03 79.6,-236.52 76.54,-242.81"/>
</a>
</g>
</g>
<!-- Node6 -->
<g id="Node000006" class="node">
<title>Node6</title>
<g id="a_Node000006"><a xlink:href="../../d3/d27/class_gam_r_1_1_sort_1_1_sorter.html#ad2da82c796e71c8f9a7041405393f2d8" target="_top" xlink:title=" ">
<polygon fill="white" stroke="#666666" points="170,-226.5 73,-226.5 73,-196 170,-196 170,-226.5"/>
<text text-anchor="start" x="81" y="-213" font-family="Helvetica,sans-Serif" font-size="10.00">GamR::Sort::Sorter</text>
<text text-anchor="middle" x="121.5" y="-201.75" font-family="Helvetica,sans-Serif" font-size="10.00">::Process</text>
</a>
</g>
</g>
<!-- Node1&#45;&gt;Node6 -->
<g id="edge5_Node000001_Node000006" class="edge">
<title>Node1&#45;&gt;Node6</title>
<g id="a_edge5_Node000001_Node000006"><a xlink:title=" ">
<path fill="none" stroke="#63b8ff" d="M37.09,-211.25C44.09,-211.25 52.57,-211.25 61.42,-211.25"/>
<polygon fill="#63b8ff" stroke="#63b8ff" points="61.22,-214.75 71.22,-211.25 61.22,-207.75 61.22,-214.75"/>
</a>
</g>
</g>
<!-- Node7 -->
<g id="Node000007" class="node">
<title>Node7</title>
<g id="a_Node000007"><a xlink:href="../../d3/d27/class_gam_r_1_1_sort_1_1_sorter.html#a7b6f275a64940fe5704f85f2a7ce3837" target="_top" xlink:title=" ">
<polygon fill="white" stroke="#666666" points="170,-177.5 73,-177.5 73,-147 170,-147 170,-177.5"/>
<text text-anchor="start" x="81" y="-164" font-family="Helvetica,sans-Serif" font-size="10.00">GamR::Sort::Sorter</text>
<text text-anchor="middle" x="121.5" y="-152.75" font-family="Helvetica,sans-Serif" font-size="10.00">::SetXsize</text>
</a>
</g>
</g>
<!-- Node1&#45;&gt;Node7 -->
<g id="edge6_Node000001_Node000007" class="edge">
<title>Node1&#45;&gt;Node7</title>
<g id="a_edge6_Node000001_Node000007"><a xlink:title=" ">
<path fill="none" stroke="#63b8ff" d="M37.09,-202.71C48.46,-197.2 63.77,-189.77 78.17,-182.78"/>
<polygon fill="#63b8ff" stroke="#63b8ff" points="79.6,-185.98 87.07,-178.47 76.54,-179.69 79.6,-185.98"/>
</a>
</g>
</g>
<!-- Node8 -->
<g id="Node000008" class="node">
<title>Node8</title>
<g id="a_Node000008"><a xlink:href="../../d3/d27/class_gam_r_1_1_sort_1_1_sorter.html#af97adfbc42ffff40f141aceaee89a221" target="_top" xlink:title=" ">
<polygon fill="white" stroke="#666666" points="170,-128.5 73,-128.5 73,-98 170,-98 170,-128.5"/>
<text text-anchor="start" x="81" y="-115" font-family="Helvetica,sans-Serif" font-size="10.00">GamR::Sort::Sorter</text>
<text text-anchor="middle" x="121.5" y="-103.75" font-family="Helvetica,sans-Serif" font-size="10.00">::SetYsize</text>
</a>
</g>
</g>
<!-- Node1&#45;&gt;Node8 -->
<g id="edge7_Node000001_Node000008" class="edge">
<title>Node1&#45;&gt;Node8</title>
<g id="a_edge7_Node000001_Node000008"><a xlink:title=" ">
<path fill="none" stroke="#63b8ff" d="M24.9,-201.16C33.44,-185.94 51.34,-156.92 73,-138.25 74.24,-137.19 75.52,-136.15 76.85,-135.14"/>
<polygon fill="#63b8ff" stroke="#63b8ff" points="78.46,-138.28 84.81,-129.79 74.56,-132.47 78.46,-138.28"/>
</a>
</g>
</g>
<!-- Node9 -->
<g id="Node000009" class="node">
<title>Node9</title>
<g id="a_Node000009"><a xlink:href="../../d3/d27/class_gam_r_1_1_sort_1_1_sorter.html#a2876da342eb34a3c9202830fe765ef51" target="_top" xlink:title=" ">
<polygon fill="white" stroke="#666666" points="170,-79.5 73,-79.5 73,-49 170,-49 170,-79.5"/>
<text text-anchor="start" x="81" y="-66" font-family="Helvetica,sans-Serif" font-size="10.00">GamR::Sort::Sorter</text>
<text text-anchor="middle" x="121.5" y="-54.75" font-family="Helvetica,sans-Serif" font-size="10.00">::SetZsize</text>
</a>
</g>
</g>
<!-- Node1&#45;&gt;Node9 -->
<g id="edge8_Node000001_Node000009" class="edge">
<title>Node1&#45;&gt;Node9</title>
<g id="a_edge8_Node000001_Node000009"><a xlink:title=" ">
<path fill="none" stroke="#63b8ff" d="M21.53,-201.15C26.56,-178.52 41.48,-123.1 73,-89.25 73.83,-88.36 74.69,-87.5 75.59,-86.67"/>
<polygon fill="#63b8ff" stroke="#63b8ff" points="77.44,-89.66 83.18,-80.75 73.14,-84.13 77.44,-89.66"/>
</a>
</g>
</g>
<!-- Node10 -->
<g id="Node000010" class="node">
<title>Node10</title>
<g id="a_Node000010"><a xlink:href="../../d3/d27/class_gam_r_1_1_sort_1_1_sorter.html#abc8fca1999cdbc1accb52933c3d0fcd1" target="_top" xlink:title=" ">
<polygon fill="white" stroke="#666666" points="170,-30.5 73,-30.5 73,0 170,0 170,-30.5"/>
<text text-anchor="start" x="81" y="-17" font-family="Helvetica,sans-Serif" font-size="10.00">GamR::Sort::Sorter</text>
<text text-anchor="middle" x="121.5" y="-5.75" font-family="Helvetica,sans-Serif" font-size="10.00">::Write</text>
</a>
</g>
</g>
<!-- Node1&#45;&gt;Node10 -->
<g id="edge9_Node000001_Node000010" class="edge">
<title>Node1&#45;&gt;Node10</title>
<g id="a_edge9_Node000001_Node000010"><a xlink:title=" ">
<path fill="none" stroke="#63b8ff" d="M20.04,-201.13C22.06,-172.56 31.38,-90.19 73,-40.25 73.65,-39.47 74.34,-38.71 75.05,-37.96"/>
<polygon fill="#63b8ff" stroke="#63b8ff" points="76.98,-40.91 82.37,-31.78 72.47,-35.56 76.98,-40.91"/>
</a>
</g>
</g>
</g>
</svg>
