<?xml version="1.0" encoding="UTF-8" standalone="no"?>
<!DOCTYPE svg PUBLIC "-//W3C//DTD SVG 1.1//EN"
 "http://www.w3.org/Graphics/SVG/1.1/DTD/svg11.dtd">
<!-- Generated by graphviz version 8.1.0 (20230707.0739)
 -->
<!-- Title: src/lib/coulex/Coulex.hh Pages: 1 -->
<svg width="940pt" height="248pt"
 viewBox="0.00 0.00 939.58 248.25" xmlns="http://www.w3.org/2000/svg" xmlns:xlink="http://www.w3.org/1999/xlink">
<g id="graph0" class="graph" transform="scale(1 1) rotate(0) translate(4 244.25)">
<title>src/lib/coulex/Coulex.hh</title>
<!-- Node1 -->
<g id="Node000001" class="node">
<title>Node1</title>
<g id="a_Node000001"><a xlink:title=" ">
<polygon fill="#999999" stroke="#666666" points="593.7,-240.25 475.7,-240.25 475.7,-221 593.7,-221 593.7,-240.25"/>
<text text-anchor="middle" x="534.7" y="-226.75" font-family="Helvetica,sans-Serif" font-size="10.00">src/lib/coulex/Coulex.hh</text>
</a>
</g>
</g>
<!-- Node2 -->
<g id="Node000002" class="node">
<title>Node2</title>
<g id="a_Node000002"><a xlink:title=" ">
<polygon fill="#e0e0e0" stroke="#999999" points="66.45,-129.75 12.95,-129.75 12.95,-110.5 66.45,-110.5 66.45,-129.75"/>
<text text-anchor="middle" x="39.7" y="-116.25" font-family="Helvetica,sans-Serif" font-size="10.00">iostream</text>
</a>
</g>
</g>
<!-- Node1&#45;&gt;Node2 -->
<g id="edge1_Node000001_Node000002" class="edge">
<title>Node1&#45;&gt;Node2</title>
<g id="a_edge1_Node000001_Node000002"><a xlink:title=" ">
<path fill="none" stroke="#63b8ff" d="M475.22,-226.16C380.75,-220.1 200.93,-206.19 140.7,-185 109.59,-174.05 78.16,-152.07 58.82,-136.98"/>
<polygon fill="#63b8ff" stroke="#63b8ff" points="61.34,-133.71 51.34,-130.2 56.97,-139.18 61.34,-133.71"/>
</a>
</g>
</g>
<!-- Node3 -->
<g id="Node000003" class="node">
<title>Node3</title>
<g id="a_Node000003"><a xlink:title=" ">
<polygon fill="#e0e0e0" stroke="#999999" points="241.2,-129.75 192.2,-129.75 192.2,-110.5 241.2,-110.5 241.2,-129.75"/>
<text text-anchor="middle" x="216.7" y="-116.25" font-family="Helvetica,sans-Serif" font-size="10.00">fstream</text>
</a>
</g>
</g>
<!-- Node1&#45;&gt;Node3 -->
<g id="edge2_Node000001_Node000003" class="edge">
<title>Node1&#45;&gt;Node3</title>
<g id="a_edge2_Node000001_Node000003"><a xlink:title=" ">
<path fill="none" stroke="#63b8ff" d="M492.09,-220.55C456.94,-212.6 405.99,-199.98 362.7,-185 320.55,-170.42 273.59,-148.87 244.6,-134.91"/>
<polygon fill="#63b8ff" stroke="#63b8ff" points="246.29,-131.36 235.77,-130.14 243.23,-137.66 246.29,-131.36"/>
</a>
</g>
</g>
<!-- Node4 -->
<g id="Node000004" class="node">
<title>Node4</title>
<g id="a_Node000004"><a xlink:title=" ">
<polygon fill="#e0e0e0" stroke="#999999" points="119.2,-74.5 76.2,-74.5 76.2,-55.25 119.2,-55.25 119.2,-74.5"/>
<text text-anchor="middle" x="97.7" y="-61" font-family="Helvetica,sans-Serif" font-size="10.00">cmath</text>
</a>
</g>
</g>
<!-- Node1&#45;&gt;Node4 -->
<g id="edge3_Node000001_Node000004" class="edge">
<title>Node1&#45;&gt;Node4</title>
<g id="a_edge3_Node000001_Node000004"><a xlink:title=" ">
<path fill="none" stroke="#63b8ff" d="M475.34,-229.03C346.77,-226.21 50.36,-210.86 3.7,-129.75 -12.72,-101.2 32.24,-82.72 65.52,-73.32"/>
<polygon fill="#63b8ff" stroke="#63b8ff" points="66.05,-76.54 74.82,-70.59 64.26,-69.77 66.05,-76.54"/>
</a>
</g>
</g>
<!-- Node5 -->
<g id="Node000005" class="node">
<title>Node5</title>
<g id="a_Node000005"><a xlink:title=" ">
<polygon fill="#e0e0e0" stroke="#999999" points="375.2,-19.25 332.2,-19.25 332.2,0 375.2,0 375.2,-19.25"/>
<text text-anchor="middle" x="353.7" y="-5.75" font-family="Helvetica,sans-Serif" font-size="10.00">vector</text>
</a>
</g>
</g>
<!-- Node1&#45;&gt;Node5 -->
<g id="edge4_Node000001_Node000005" class="edge">
<title>Node1&#45;&gt;Node5</title>
<g id="a_edge4_Node000001_Node000005"><a xlink:title=" ">
<path fill="none" stroke="#63b8ff" d="M544.31,-220.66C572.67,-193.12 651.33,-108.44 606.7,-55.25 578.9,-22.12 448.03,-13.58 386.21,-11.38"/>
<polygon fill="#63b8ff" stroke="#63b8ff" points="386.61,-7.86 376.51,-11.04 386.39,-14.86 386.61,-7.86"/>
</a>
</g>
</g>
<!-- Node6 -->
<g id="Node000006" class="node">
<title>Node6</title>
<g id="a_Node000006"><a xlink:title=" ">
<polygon fill="#e0e0e0" stroke="#999999" points="674.08,-185 639.33,-185 639.33,-165.75 674.08,-165.75 674.08,-185"/>
<text text-anchor="middle" x="656.7" y="-171.5" font-family="Helvetica,sans-Serif" font-size="10.00">map</text>
</a>
</g>
</g>
<!-- Node1&#45;&gt;Node6 -->
<g id="edge5_Node000001_Node000006" class="edge">
<title>Node1&#45;&gt;Node6</title>
<g id="a_edge5_Node000001_Node000006"><a xlink:title=" ">
<path fill="none" stroke="#63b8ff" d="M555.4,-220.59C575.7,-211.73 606.79,-198.16 629.18,-188.39"/>
<polygon fill="#63b8ff" stroke="#63b8ff" points="630.31,-191.28 638.08,-184.07 627.51,-184.86 630.31,-191.28"/>
</a>
</g>
</g>
<!-- Node7 -->
<g id="Node000007" class="node">
<title>Node7</title>
<g id="a_Node000007"><a xlink:title=" ">
<polygon fill="#e0e0e0" stroke="#999999" points="299.7,-129.75 259.7,-129.75 259.7,-110.5 299.7,-110.5 299.7,-129.75"/>
<text text-anchor="middle" x="279.7" y="-116.25" font-family="Helvetica,sans-Serif" font-size="10.00">string</text>
</a>
</g>
</g>
<!-- Node1&#45;&gt;Node7 -->
<g id="edge6_Node000001_Node000007" class="edge">
<title>Node1&#45;&gt;Node7</title>
<g id="a_edge6_Node000001_Node000007"><a xlink:title=" ">
<path fill="none" stroke="#63b8ff" d="M504.81,-220.56C478.38,-212.25 438.97,-199.11 405.7,-185 369.98,-169.85 330.29,-149.03 305.18,-135.34"/>
<polygon fill="#63b8ff" stroke="#63b8ff" points="307.13,-131.86 296.68,-130.11 303.75,-138 307.13,-131.86"/>
</a>
</g>
</g>
<!-- Node8 -->
<g id="Node000008" class="node">
<title>Node8</title>
<g id="a_Node000008"><a xlink:title=" ">
<polygon fill="#e0e0e0" stroke="#999999" points="597.7,-74.5 545.7,-74.5 545.7,-55.25 597.7,-55.25 597.7,-74.5"/>
<text text-anchor="middle" x="571.7" y="-61" font-family="Helvetica,sans-Serif" font-size="10.00">complex</text>
</a>
</g>
</g>
<!-- Node1&#45;&gt;Node8 -->
<g id="edge7_Node000001_Node000008" class="edge">
<title>Node1&#45;&gt;Node8</title>
<g id="a_edge7_Node000001_Node000008"><a xlink:title=" ">
<path fill="none" stroke="#63b8ff" d="M536.69,-220.82C542.46,-195.28 559.31,-120.7 567.34,-85.15"/>
<polygon fill="#63b8ff" stroke="#63b8ff" points="570.91,-86.25 569.7,-75.72 564.08,-84.71 570.91,-86.25"/>
</a>
</g>
</g>
<!-- Node9 -->
<g id="Node000009" class="node">
<title>Node9</title>
<g id="a_Node000009"><a xlink:title=" ">
<polygon fill="#e0e0e0" stroke="#999999" points="743.33,-185 692.08,-185 692.08,-165.75 743.33,-165.75 743.33,-185"/>
<text text-anchor="middle" x="717.7" y="-171.5" font-family="Helvetica,sans-Serif" font-size="10.00">TMath.h</text>
</a>
</g>
</g>
<!-- Node1&#45;&gt;Node9 -->
<g id="edge8_Node000001_Node000009" class="edge">
<title>Node1&#45;&gt;Node9</title>
<g id="a_edge8_Node000001_Node000009"><a xlink:title=" ">
<path fill="none" stroke="#63b8ff" d="M565.74,-220.59C597.77,-211.27 647.67,-196.75 681.47,-186.92"/>
<polygon fill="#63b8ff" stroke="#63b8ff" points="682.22,-190.05 690.84,-183.9 680.26,-183.33 682.22,-190.05"/>
</a>
</g>
</g>
<!-- Node10 -->
<g id="Node000010" class="node">
<title>Node10</title>
<g id="a_Node000010"><a xlink:href="../../df/d32/_misc_8hh.html" target="_top" xlink:title=" ">
<polygon fill="white" stroke="#666666" points="840.2,-185 761.2,-185 761.2,-165.75 840.2,-165.75 840.2,-185"/>
<text text-anchor="middle" x="800.7" y="-171.5" font-family="Helvetica,sans-Serif" font-size="10.00">toolkit/Misc.hh</text>
</a>
</g>
</g>
<!-- Node1&#45;&gt;Node10 -->
<g id="edge9_Node000001_Node000010" class="edge">
<title>Node1&#45;&gt;Node10</title>
<g id="a_edge9_Node000001_Node000010"><a xlink:title=" ">
<path fill="none" stroke="#63b8ff" d="M580.13,-220.53C627.44,-211.06 701.38,-196.26 750.43,-186.44"/>
<polygon fill="#63b8ff" stroke="#63b8ff" points="750.99,-189.7 760.11,-184.3 749.61,-182.83 750.99,-189.7"/>
</a>
</g>
</g>
<!-- Node11 -->
<g id="Node000011" class="node">
<title>Node11</title>
<g id="a_Node000011"><a xlink:href="../../da/da2/_ang_dist_8hh.html" target="_top" xlink:title=" ">
<polygon fill="white" stroke="#666666" points="512.58,-185 414.83,-185 414.83,-165.75 512.58,-165.75 512.58,-185"/>
<text text-anchor="middle" x="463.7" y="-171.5" font-family="Helvetica,sans-Serif" font-size="10.00">angdist/AngDist.hh</text>
</a>
</g>
</g>
<!-- Node1&#45;&gt;Node11 -->
<g id="edge10_Node000001_Node000011" class="edge">
<title>Node1&#45;&gt;Node11</title>
<g id="a_edge10_Node000001_Node000011"><a xlink:title=" ">
<path fill="none" stroke="#63b8ff" d="M522.66,-220.59C512.19,-212.74 496.8,-201.2 484.37,-191.87"/>
<polygon fill="#63b8ff" stroke="#63b8ff" points="486.67,-188.47 476.57,-185.27 482.47,-194.07 486.67,-188.47"/>
</a>
</g>
</g>
<!-- Node16 -->
<g id="Node000016" class="node">
<title>Node16</title>
<g id="a_Node000016"><a xlink:href="../../d5/d35/_eloss_8hh.html" target="_top" xlink:title=" ">
<polygon fill="white" stroke="#666666" points="202.08,-185 149.33,-185 149.33,-165.75 202.08,-165.75 202.08,-185"/>
<text text-anchor="middle" x="175.7" y="-171.5" font-family="Helvetica,sans-Serif" font-size="10.00">Eloss.hh</text>
</a>
</g>
</g>
<!-- Node1&#45;&gt;Node16 -->
<g id="edge24_Node000001_Node000016" class="edge">
<title>Node1&#45;&gt;Node16</title>
<g id="a_edge24_Node000001_Node000016"><a xlink:title=" ">
<path fill="none" stroke="#63b8ff" d="M475.42,-220.83C400.99,-209.79 275.52,-191.18 213.18,-181.93"/>
<polygon fill="#63b8ff" stroke="#63b8ff" points="213.71,-178.33 203.3,-180.32 212.68,-185.25 213.71,-178.33"/>
</a>
</g>
</g>
<!-- Node18 -->
<g id="Node000018" class="node">
<title>Node18</title>
<g id="a_Node000018"><a xlink:href="../../db/d0f/_w_d_b_subs_8hh.html" target="_top" xlink:title=" ">
<polygon fill="white" stroke="#666666" points="931.58,-185 857.83,-185 857.83,-165.75 931.58,-165.75 931.58,-185"/>
<text text-anchor="middle" x="894.7" y="-171.5" font-family="Helvetica,sans-Serif" font-size="10.00">WDBSubs.hh</text>
</a>
</g>
</g>
<!-- Node1&#45;&gt;Node18 -->
<g id="edge30_Node000001_Node000018" class="edge">
<title>Node1&#45;&gt;Node18</title>
<g id="a_edge30_Node000001_Node000018"><a xlink:title=" ">
<path fill="none" stroke="#63b8ff" d="M594.05,-222.09C655.12,-214.15 753.27,-200.83 846.63,-185.45"/>
<polygon fill="#63b8ff" stroke="#63b8ff" points="847.11,-188.76 856.4,-183.67 845.96,-181.85 847.11,-188.76"/>
</a>
</g>
</g>
<!-- Node11&#45;&gt;Node5 -->
<g id="edge11_Node000011_Node000005" class="edge">
<title>Node11&#45;&gt;Node5</title>
<g id="a_edge11_Node000011_Node000005"><a xlink:title=" ">
<path fill="none" stroke="#63b8ff" d="M434.52,-165.32C409.43,-157.16 372.52,-144.24 341.7,-129.75 326.33,-122.53 324.42,-116.93 308.7,-110.5 248.44,-85.86 206.68,-125.88 166.7,-74.5 125.36,-21.37 257.25,-12.16 321.11,-10.76"/>
<polygon fill="#63b8ff" stroke="#63b8ff" points="320.88,-14.24 330.82,-10.58 320.77,-7.25 320.88,-14.24"/>
</a>
</g>
</g>
<!-- Node11&#45;&gt;Node8 -->
<g id="edge12_Node000011_Node000008" class="edge">
<title>Node11&#45;&gt;Node8</title>
<g id="a_edge12_Node000011_Node000008"><a xlink:title=" ">
<path fill="none" stroke="#63b8ff" d="M472.54,-165.5C490.58,-147.38 531.88,-105.88 555.09,-82.57"/>
<polygon fill="#63b8ff" stroke="#63b8ff" points="557.17,-85.43 561.74,-75.88 552.21,-80.49 557.17,-85.43"/>
</a>
</g>
</g>
<!-- Node12 -->
<g id="Node000012" class="node">
<title>Node12</title>
<g id="a_Node000012"><a xlink:title=" ">
<polygon fill="#e0e0e0" stroke="#999999" points="527.7,-74.5 469.7,-74.5 469.7,-55.25 527.7,-55.25 527.7,-74.5"/>
<text text-anchor="middle" x="498.7" y="-61" font-family="Helvetica,sans-Serif" font-size="10.00">functional</text>
</a>
</g>
</g>
<!-- Node11&#45;&gt;Node12 -->
<g id="edge13_Node000011_Node000012" class="edge">
<title>Node11&#45;&gt;Node12</title>
<g id="a_edge13_Node000011_Node000012"><a xlink:title=" ">
<path fill="none" stroke="#63b8ff" d="M466.74,-165.5C469.81,-156.51 474.66,-142.19 478.7,-129.75 483.54,-114.86 488.82,-97.94 492.74,-85.27"/>
<polygon fill="#63b8ff" stroke="#63b8ff" points="496.31,-86.58 495.91,-75.99 489.62,-84.52 496.31,-86.58"/>
</a>
</g>
</g>
<!-- Node13 -->
<g id="Node000013" class="node">
<title>Node13</title>
<g id="a_Node000013"><a xlink:href="../../de/dcb/_solid_attenuation_8hh.html" target="_top" xlink:title=" ">
<polygon fill="white" stroke="#666666" points="275.7,-74.5 175.7,-74.5 175.7,-55.25 275.7,-55.25 275.7,-74.5"/>
<text text-anchor="middle" x="225.7" y="-61" font-family="Helvetica,sans-Serif" font-size="10.00">SolidAttenuation.hh</text>
</a>
</g>
</g>
<!-- Node11&#45;&gt;Node13 -->
<g id="edge14_Node000011_Node000013" class="edge">
<title>Node11&#45;&gt;Node13</title>
<g id="a_edge14_Node000011_Node000013"><a xlink:title=" ">
<path fill="none" stroke="#63b8ff" d="M447.81,-165.3C424.8,-152.34 380.69,-128.14 341.7,-110.5 315.45,-98.62 285.02,-86.99 261.91,-78.59"/>
<polygon fill="#63b8ff" stroke="#63b8ff" points="263.45,-75.06 252.85,-74.96 261.07,-81.64 263.45,-75.06"/>
</a>
</g>
</g>
<!-- Node14 -->
<g id="Node000014" class="node">
<title>Node14</title>
<g id="a_Node000014"><a xlink:href="../../da/da6/_stat_tensor_8hh.html" target="_top" xlink:title=" ">
<polygon fill="white" stroke="#666666" points="470.08,-129.75 393.33,-129.75 393.33,-110.5 470.08,-110.5 470.08,-129.75"/>
<text text-anchor="middle" x="431.7" y="-116.25" font-family="Helvetica,sans-Serif" font-size="10.00">StatTensor.hh</text>
</a>
</g>
</g>
<!-- Node11&#45;&gt;Node14 -->
<g id="edge16_Node000011_Node000014" class="edge">
<title>Node11&#45;&gt;Node14</title>
<g id="a_edge16_Node000011_Node000014"><a xlink:title=" ">
<path fill="none" stroke="#63b8ff" d="M458.42,-165.58C454.13,-158.46 447.96,-148.18 442.62,-139.3"/>
<polygon fill="#63b8ff" stroke="#63b8ff" points="445.25,-137.88 437.1,-131.11 439.25,-141.48 445.25,-137.88"/>
</a>
</g>
</g>
<!-- Node13&#45;&gt;Node5 -->
<g id="edge15_Node000013_Node000005" class="edge">
<title>Node13&#45;&gt;Node5</title>
<g id="a_edge15_Node000013_Node000005"><a xlink:title=" ">
<path fill="none" stroke="#63b8ff" d="M247.41,-54.84C267.83,-46.35 298.62,-33.54 321.82,-23.89"/>
<polygon fill="#63b8ff" stroke="#63b8ff" points="322.99,-26.78 330.88,-19.7 320.3,-20.31 322.99,-26.78"/>
</a>
</g>
</g>
<!-- Node14&#45;&gt;Node4 -->
<g id="edge17_Node000014_Node000004" class="edge">
<title>Node14&#45;&gt;Node4</title>
<g id="a_edge17_Node000014_Node000004"><a xlink:title=" ">
<path fill="none" stroke="#63b8ff" d="M393.06,-112.96C326.62,-102.37 191.92,-80.9 130.08,-71.04"/>
<polygon fill="#63b8ff" stroke="#63b8ff" points="130.83,-67.45 120.41,-69.34 129.73,-74.37 130.83,-67.45"/>
</a>
</g>
</g>
<!-- Node14&#45;&gt;Node5 -->
<g id="edge19_Node000014_Node000005" class="edge">
<title>Node14&#45;&gt;Node5</title>
<g id="a_edge19_Node000014_Node000005"><a xlink:title=" ">
<path fill="none" stroke="#63b8ff" d="M432.66,-110.07C433.59,-96.92 433.55,-72.24 422.7,-55.25 413.8,-41.32 398.82,-30.86 385.09,-23.58"/>
<polygon fill="#63b8ff" stroke="#63b8ff" points="386.94,-20.09 376.42,-18.83 383.86,-26.38 386.94,-20.09"/>
</a>
</g>
</g>
<!-- Node14&#45;&gt;Node8 -->
<g id="edge18_Node000014_Node000008" class="edge">
<title>Node14&#45;&gt;Node8</title>
<g id="a_edge18_Node000014_Node000008"><a xlink:title=" ">
<path fill="none" stroke="#63b8ff" d="M455.45,-110.09C478.08,-101.49 512.37,-88.44 537.86,-78.75"/>
<polygon fill="#63b8ff" stroke="#63b8ff" points="538.73,-81.78 546.84,-74.95 536.24,-75.24 538.73,-81.78"/>
</a>
</g>
</g>
<!-- Node14&#45;&gt;Node12 -->
<g id="edge20_Node000014_Node000012" class="edge">
<title>Node14&#45;&gt;Node12</title>
<g id="a_edge20_Node000014_Node000012"><a xlink:title=" ">
<path fill="none" stroke="#63b8ff" d="M443.07,-110.09C452.94,-102.24 467.47,-90.7 479.2,-81.37"/>
<polygon fill="#63b8ff" stroke="#63b8ff" points="480.85,-83.74 486.5,-74.77 476.5,-78.26 480.85,-83.74"/>
</a>
</g>
</g>
<!-- Node14&#45;&gt;Node13 -->
<g id="edge23_Node000014_Node000013" class="edge">
<title>Node14&#45;&gt;Node13</title>
<g id="a_edge23_Node000014_Node000013"><a xlink:title=" ">
<path fill="none" stroke="#63b8ff" d="M396.76,-110.09C362.13,-101.14 308.93,-87.39 271.06,-77.6"/>
<polygon fill="#63b8ff" stroke="#63b8ff" points="272.38,-74.07 261.82,-74.95 270.62,-80.84 272.38,-74.07"/>
</a>
</g>
</g>
<!-- Node15 -->
<g id="Node000015" class="node">
<title>Node15</title>
<g id="a_Node000015"><a xlink:href="../../d0/d3d/_population_parameter_8hh.html" target="_top" xlink:title=" ">
<polygon fill="white" stroke="#666666" points="413.45,-74.5 293.95,-74.5 293.95,-55.25 413.45,-55.25 413.45,-74.5"/>
<text text-anchor="middle" x="353.7" y="-61" font-family="Helvetica,sans-Serif" font-size="10.00">PopulationParameter.hh</text>
</a>
</g>
</g>
<!-- Node14&#45;&gt;Node15 -->
<g id="edge21_Node000014_Node000015" class="edge">
<title>Node14&#45;&gt;Node15</title>
<g id="a_edge21_Node000014_Node000015"><a xlink:title=" ">
<path fill="none" stroke="#63b8ff" d="M418.47,-110.09C406.82,-102.14 389.61,-90.39 375.85,-81"/>
<polygon fill="#63b8ff" stroke="#63b8ff" points="378.23,-77.7 368,-74.95 374.28,-83.48 378.23,-77.7"/>
</a>
</g>
</g>
<!-- Node15&#45;&gt;Node5 -->
<g id="edge22_Node000015_Node000005" class="edge">
<title>Node15&#45;&gt;Node5</title>
<g id="a_edge22_Node000015_Node000005"><a xlink:title=" ">
<path fill="none" stroke="#63b8ff" d="M353.7,-55.08C353.7,-48.42 353.7,-38.99 353.7,-30.53"/>
<polygon fill="#63b8ff" stroke="#63b8ff" points="357.2,-30.61 353.7,-20.61 350.2,-30.61 357.2,-30.61"/>
</a>
</g>
</g>
<!-- Node16&#45;&gt;Node2 -->
<g id="edge25_Node000016_Node000002" class="edge">
<title>Node16&#45;&gt;Node2</title>
<g id="a_edge25_Node000016_Node000002"><a xlink:title=" ">
<path fill="none" stroke="#63b8ff" d="M152.63,-165.34C130.75,-156.77 97.63,-143.81 72.91,-134.13"/>
<polygon fill="#63b8ff" stroke="#63b8ff" points="74.47,-130.59 63.88,-130.2 71.92,-137.11 74.47,-130.59"/>
</a>
</g>
</g>
<!-- Node16&#45;&gt;Node3 -->
<g id="edge27_Node000016_Node000003" class="edge">
<title>Node16&#45;&gt;Node3</title>
<g id="a_edge27_Node000016_Node000003"><a xlink:title=" ">
<path fill="none" stroke="#63b8ff" d="M182.47,-165.58C188.08,-158.3 196.21,-147.73 203.15,-138.73"/>
<polygon fill="#63b8ff" stroke="#63b8ff" points="206.46,-141.17 209.78,-131.11 200.91,-136.9 206.46,-141.17"/>
</a>
</g>
</g>
<!-- Node16&#45;&gt;Node4 -->
<g id="edge28_Node000016_Node000004" class="edge">
<title>Node16&#45;&gt;Node4</title>
<g id="a_edge28_Node000016_Node000004"><a xlink:title=" ">
<path fill="none" stroke="#63b8ff" d="M172.59,-165.56C167.81,-152.71 157.8,-128.41 144.7,-110.5 136.95,-99.9 126.5,-89.69 117.42,-81.72"/>
<polygon fill="#63b8ff" stroke="#63b8ff" points="120.16,-78.61 110.27,-74.82 115.64,-83.95 120.16,-78.61"/>
</a>
</g>
</g>
<!-- Node16&#45;&gt;Node7 -->
<g id="edge26_Node000016_Node000007" class="edge">
<title>Node16&#45;&gt;Node7</title>
<g id="a_edge26_Node000016_Node000007"><a xlink:title=" ">
<path fill="none" stroke="#63b8ff" d="M193.34,-165.34C209.48,-157.08 233.6,-144.73 252.26,-135.18"/>
<polygon fill="#63b8ff" stroke="#63b8ff" points="253.67,-137.88 260.97,-130.2 250.48,-131.64 253.67,-137.88"/>
</a>
</g>
</g>
<!-- Node17 -->
<g id="Node000017" class="node">
<title>Node17</title>
<g id="a_Node000017"><a xlink:title=" ">
<polygon fill="#e0e0e0" stroke="#999999" points="135.33,-129.75 84.08,-129.75 84.08,-110.5 135.33,-110.5 135.33,-129.75"/>
<text text-anchor="middle" x="109.7" y="-116.25" font-family="Helvetica,sans-Serif" font-size="10.00">sstream</text>
</a>
</g>
</g>
<!-- Node16&#45;&gt;Node17 -->
<g id="edge29_Node000016_Node000017" class="edge">
<title>Node16&#45;&gt;Node17</title>
<g id="a_edge29_Node000016_Node000017"><a xlink:title=" ">
<path fill="none" stroke="#63b8ff" d="M164.51,-165.34C154.87,-157.57 140.75,-146.17 129.25,-136.9"/>
<polygon fill="#63b8ff" stroke="#63b8ff" points="131.71,-133.58 121.73,-130.02 127.32,-139.03 131.71,-133.58"/>
</a>
</g>
</g>
</g>
</svg>
