<?xml version="1.0" encoding="UTF-8" standalone="no"?>
<!DOCTYPE svg PUBLIC "-//W3C//DTD SVG 1.1//EN"
 "http://www.w3.org/Graphics/SVG/1.1/DTD/svg11.dtd">
<!-- Generated by graphviz version 12.0.0 (20240704.0754)
 -->
<!-- Title: src/lib/coulex/Coulex.hh Pages: 1 -->
<svg width="940pt" height="248pt"
 viewBox="0.00 0.00 939.55 248.25" xmlns="http://www.w3.org/2000/svg" xmlns:xlink="http://www.w3.org/1999/xlink">
<g id="graph0" class="graph" transform="scale(1 1) rotate(0) translate(4 244.25)">
<title>src/lib/coulex/Coulex.hh</title>
<!-- Node1 -->
<g id="Node000001" class="node">
<title>Node1</title>
<g id="a_Node000001"><a xlink:title=" ">
<polygon fill="#999999" stroke="#666666" points="593.68,-240.25 475.68,-240.25 475.68,-221 593.68,-221 593.68,-240.25"/>
<text text-anchor="middle" x="534.68" y="-226.75" font-family="Helvetica,sans-Serif" font-size="10.00">src/lib/coulex/Coulex.hh</text>
</a>
</g>
</g>
<!-- Node2 -->
<g id="Node000002" class="node">
<title>Node2</title>
<g id="a_Node000002"><a xlink:title=" ">
<polygon fill="#e0e0e0" stroke="#999999" points="66.43,-129.75 12.93,-129.75 12.93,-110.5 66.43,-110.5 66.43,-129.75"/>
<text text-anchor="middle" x="39.68" y="-116.25" font-family="Helvetica,sans-Serif" font-size="10.00">iostream</text>
</a>
</g>
</g>
<!-- Node1&#45;&gt;Node2 -->
<g id="edge1_Node000001_Node000002" class="edge">
<title>Node1&#45;&gt;Node2</title>
<g id="a_edge1_Node000001_Node000002"><a xlink:title=" ">
<path fill="none" stroke="#63b8ff" d="M475.2,-226.16C380.72,-220.1 200.91,-206.19 140.68,-185 109.7,-174.1 78.43,-152.27 59.06,-137.18"/>
<polygon fill="#63b8ff" stroke="#63b8ff" points="61.5,-134.65 51.5,-131.14 57.13,-140.12 61.5,-134.65"/>
</a>
</g>
</g>
<!-- Node3 -->
<g id="Node000003" class="node">
<title>Node3</title>
<g id="a_Node000003"><a xlink:title=" ">
<polygon fill="#e0e0e0" stroke="#999999" points="241.18,-129.75 192.18,-129.75 192.18,-110.5 241.18,-110.5 241.18,-129.75"/>
<text text-anchor="middle" x="216.68" y="-116.25" font-family="Helvetica,sans-Serif" font-size="10.00">fstream</text>
</a>
</g>
</g>
<!-- Node1&#45;&gt;Node3 -->
<g id="edge2_Node000001_Node000003" class="edge">
<title>Node1&#45;&gt;Node3</title>
<g id="a_edge2_Node000001_Node000003"><a xlink:title=" ">
<path fill="none" stroke="#63b8ff" d="M492.06,-220.55C456.91,-212.6 405.97,-199.98 362.68,-185 320.71,-170.48 273.98,-149.06 244.95,-135.1"/>
<polygon fill="#63b8ff" stroke="#63b8ff" points="246.63,-132.02 236.1,-130.8 243.57,-138.32 246.63,-132.02"/>
</a>
</g>
</g>
<!-- Node4 -->
<g id="Node000004" class="node">
<title>Node4</title>
<g id="a_Node000004"><a xlink:title=" ">
<polygon fill="#e0e0e0" stroke="#999999" points="119.18,-74.5 76.18,-74.5 76.18,-55.25 119.18,-55.25 119.18,-74.5"/>
<text text-anchor="middle" x="97.68" y="-61" font-family="Helvetica,sans-Serif" font-size="10.00">cmath</text>
</a>
</g>
</g>
<!-- Node1&#45;&gt;Node4 -->
<g id="edge3_Node000001_Node000004" class="edge">
<title>Node1&#45;&gt;Node4</title>
<g id="a_edge3_Node000001_Node000004"><a xlink:title=" ">
<path fill="none" stroke="#63b8ff" d="M475.29,-229.05C346.67,-226.25 50.15,-210.96 3.68,-129.75 -12.61,-101.29 31.88,-82.86 65.09,-73.43"/>
<polygon fill="#63b8ff" stroke="#63b8ff" points="65.59,-76.92 74.35,-70.97 63.79,-70.16 65.59,-76.92"/>
</a>
</g>
</g>
<!-- Node5 -->
<g id="Node000005" class="node">
<title>Node5</title>
<g id="a_Node000005"><a xlink:title=" ">
<polygon fill="#e0e0e0" stroke="#999999" points="375.18,-19.25 332.18,-19.25 332.18,0 375.18,0 375.18,-19.25"/>
<text text-anchor="middle" x="353.68" y="-5.75" font-family="Helvetica,sans-Serif" font-size="10.00">vector</text>
</a>
</g>
</g>
<!-- Node1&#45;&gt;Node5 -->
<g id="edge4_Node000001_Node000005" class="edge">
<title>Node1&#45;&gt;Node5</title>
<g id="a_edge4_Node000001_Node000005"><a xlink:title=" ">
<path fill="none" stroke="#63b8ff" d="M544.28,-220.66C572.64,-193.12 651.31,-108.44 606.68,-55.25 578.99,-22.26 449.09,-13.65 386.96,-11.41"/>
<polygon fill="#63b8ff" stroke="#63b8ff" points="387.1,-7.91 376.99,-11.09 386.88,-14.91 387.1,-7.91"/>
</a>
</g>
</g>
<!-- Node6 -->
<g id="Node000006" class="node">
<title>Node6</title>
<g id="a_Node000006"><a xlink:title=" ">
<polygon fill="#e0e0e0" stroke="#999999" points="674.05,-185 639.3,-185 639.3,-165.75 674.05,-165.75 674.05,-185"/>
<text text-anchor="middle" x="656.68" y="-171.5" font-family="Helvetica,sans-Serif" font-size="10.00">map</text>
</a>
</g>
</g>
<!-- Node1&#45;&gt;Node6 -->
<g id="edge5_Node000001_Node000006" class="edge">
<title>Node1&#45;&gt;Node6</title>
<g id="a_edge5_Node000001_Node000006"><a xlink:title=" ">
<path fill="none" stroke="#63b8ff" d="M555.37,-220.59C575.49,-211.81 606.21,-198.4 628.54,-188.66"/>
<polygon fill="#63b8ff" stroke="#63b8ff" points="629.9,-191.88 637.67,-184.67 627.1,-185.47 629.9,-191.88"/>
</a>
</g>
</g>
<!-- Node7 -->
<g id="Node000007" class="node">
<title>Node7</title>
<g id="a_Node000007"><a xlink:title=" ">
<polygon fill="#e0e0e0" stroke="#999999" points="299.68,-129.75 259.68,-129.75 259.68,-110.5 299.68,-110.5 299.68,-129.75"/>
<text text-anchor="middle" x="279.68" y="-116.25" font-family="Helvetica,sans-Serif" font-size="10.00">string</text>
</a>
</g>
</g>
<!-- Node1&#45;&gt;Node7 -->
<g id="edge6_Node000001_Node000007" class="edge">
<title>Node1&#45;&gt;Node7</title>
<g id="a_edge6_Node000001_Node000007"><a xlink:title=" ">
<path fill="none" stroke="#63b8ff" d="M504.78,-220.56C478.36,-212.25 438.95,-199.11 405.68,-185 370.12,-169.92 330.62,-149.22 305.49,-135.52"/>
<polygon fill="#63b8ff" stroke="#63b8ff" points="307.43,-132.59 296.98,-130.84 304.06,-138.73 307.43,-132.59"/>
</a>
</g>
</g>
<!-- Node8 -->
<g id="Node000008" class="node">
<title>Node8</title>
<g id="a_Node000008"><a xlink:title=" ">
<polygon fill="#e0e0e0" stroke="#999999" points="597.68,-74.5 545.68,-74.5 545.68,-55.25 597.68,-55.25 597.68,-74.5"/>
<text text-anchor="middle" x="571.68" y="-61" font-family="Helvetica,sans-Serif" font-size="10.00">complex</text>
</a>
</g>
</g>
<!-- Node1&#45;&gt;Node8 -->
<g id="edge7_Node000001_Node000008" class="edge">
<title>Node1&#45;&gt;Node8</title>
<g id="a_edge7_Node000001_Node000008"><a xlink:title=" ">
<path fill="none" stroke="#63b8ff" d="M536.67,-220.82C542.41,-195.39 559.14,-121.35 567.22,-85.62"/>
<polygon fill="#63b8ff" stroke="#63b8ff" points="570.55,-86.72 569.34,-76.2 563.73,-85.18 570.55,-86.72"/>
</a>
</g>
</g>
<!-- Node9 -->
<g id="Node000009" class="node">
<title>Node9</title>
<g id="a_Node000009"><a xlink:title=" ">
<polygon fill="#e0e0e0" stroke="#999999" points="743.3,-185 692.05,-185 692.05,-165.75 743.3,-165.75 743.3,-185"/>
<text text-anchor="middle" x="717.68" y="-171.5" font-family="Helvetica,sans-Serif" font-size="10.00">TMath.h</text>
</a>
</g>
</g>
<!-- Node1&#45;&gt;Node9 -->
<g id="edge8_Node000001_Node000009" class="edge">
<title>Node1&#45;&gt;Node9</title>
<g id="a_edge8_Node000001_Node000009"><a xlink:title=" ">
<path fill="none" stroke="#63b8ff" d="M565.72,-220.59C597.6,-211.31 647.21,-196.88 681.01,-187.04"/>
<polygon fill="#63b8ff" stroke="#63b8ff" points="681.74,-190.48 690.36,-184.32 679.78,-183.76 681.74,-190.48"/>
</a>
</g>
</g>
<!-- Node10 -->
<g id="Node000010" class="node">
<title>Node10</title>
<g id="a_Node000010"><a xlink:href="../../df/d32/_misc_8hh.html" target="_top" xlink:title=" ">
<polygon fill="white" stroke="#666666" points="840.18,-185 761.18,-185 761.18,-165.75 840.18,-165.75 840.18,-185"/>
<text text-anchor="middle" x="800.68" y="-171.5" font-family="Helvetica,sans-Serif" font-size="10.00">toolkit/Misc.hh</text>
</a>
</g>
</g>
<!-- Node1&#45;&gt;Node10 -->
<g id="edge9_Node000001_Node000010" class="edge">
<title>Node1&#45;&gt;Node10</title>
<g id="a_edge9_Node000001_Node000010"><a xlink:title=" ">
<path fill="none" stroke="#63b8ff" d="M580.1,-220.53C627.32,-211.08 701.05,-196.32 750.09,-186.5"/>
<polygon fill="#63b8ff" stroke="#63b8ff" points="750.48,-189.99 759.6,-184.6 749.1,-183.13 750.48,-189.99"/>
</a>
</g>
</g>
<!-- Node11 -->
<g id="Node000011" class="node">
<title>Node11</title>
<g id="a_Node000011"><a xlink:href="../../da/da2/_ang_dist_8hh.html" target="_top" xlink:title=" ">
<polygon fill="white" stroke="#666666" points="512.55,-185 414.8,-185 414.8,-165.75 512.55,-165.75 512.55,-185"/>
<text text-anchor="middle" x="463.68" y="-171.5" font-family="Helvetica,sans-Serif" font-size="10.00">angdist/AngDist.hh</text>
</a>
</g>
</g>
<!-- Node1&#45;&gt;Node11 -->
<g id="edge10_Node000001_Node000011" class="edge">
<title>Node1&#45;&gt;Node11</title>
<g id="a_edge10_Node000001_Node000011"><a xlink:title=" ">
<path fill="none" stroke="#63b8ff" d="M522.63,-220.59C512.27,-212.82 497.08,-201.42 484.71,-192.15"/>
<polygon fill="#63b8ff" stroke="#63b8ff" points="486.85,-189.38 476.75,-186.18 482.65,-194.98 486.85,-189.38"/>
</a>
</g>
</g>
<!-- Node16 -->
<g id="Node000016" class="node">
<title>Node16</title>
<g id="a_Node000016"><a xlink:href="../../d5/d35/_eloss_8hh.html" target="_top" xlink:title=" ">
<polygon fill="white" stroke="#666666" points="202.05,-185 149.3,-185 149.3,-165.75 202.05,-165.75 202.05,-185"/>
<text text-anchor="middle" x="175.68" y="-171.5" font-family="Helvetica,sans-Serif" font-size="10.00">Eloss.hh</text>
</a>
</g>
</g>
<!-- Node1&#45;&gt;Node16 -->
<g id="edge24_Node000001_Node000016" class="edge">
<title>Node1&#45;&gt;Node16</title>
<g id="a_edge24_Node000001_Node000016"><a xlink:title=" ">
<path fill="none" stroke="#63b8ff" d="M475.4,-220.83C401.12,-209.81 276.02,-191.26 213.55,-181.99"/>
<polygon fill="#63b8ff" stroke="#63b8ff" points="214.18,-178.55 203.78,-180.54 213.16,-185.47 214.18,-178.55"/>
</a>
</g>
</g>
<!-- Node18 -->
<g id="Node000018" class="node">
<title>Node18</title>
<g id="a_Node000018"><a xlink:href="../../db/d0f/_w_d_b_subs_8hh.html" target="_top" xlink:title=" ">
<polygon fill="white" stroke="#666666" points="931.55,-185 857.8,-185 857.8,-165.75 931.55,-165.75 931.55,-185"/>
<text text-anchor="middle" x="894.68" y="-171.5" font-family="Helvetica,sans-Serif" font-size="10.00">WDBSubs.hh</text>
</a>
</g>
</g>
<!-- Node1&#45;&gt;Node18 -->
<g id="edge30_Node000001_Node000018" class="edge">
<title>Node1&#45;&gt;Node18</title>
<g id="a_edge30_Node000001_Node000018"><a xlink:title=" ">
<path fill="none" stroke="#63b8ff" d="M594.03,-222.09C654.97,-214.16 752.85,-200.88 846.04,-185.55"/>
<polygon fill="#63b8ff" stroke="#63b8ff" points="846.59,-189 855.88,-183.92 845.45,-182.1 846.59,-189"/>
</a>
</g>
</g>
<!-- Node11&#45;&gt;Node5 -->
<g id="edge11_Node000011_Node000005" class="edge">
<title>Node11&#45;&gt;Node5</title>
<g id="a_edge11_Node000011_Node000005"><a xlink:title=" ">
<path fill="none" stroke="#63b8ff" d="M434.5,-165.32C409.41,-157.16 372.5,-144.24 341.68,-129.75 326.31,-122.53 324.39,-116.93 308.68,-110.5 248.41,-85.86 206.66,-125.88 166.68,-74.5 125.51,-21.59 256.14,-12.24 320.29,-10.77"/>
<polygon fill="#63b8ff" stroke="#63b8ff" points="320.34,-14.27 330.28,-10.61 320.23,-7.27 320.34,-14.27"/>
</a>
</g>
</g>
<!-- Node11&#45;&gt;Node8 -->
<g id="edge12_Node000011_Node000008" class="edge">
<title>Node11&#45;&gt;Node8</title>
<g id="a_edge12_Node000011_Node000008"><a xlink:title=" ">
<path fill="none" stroke="#63b8ff" d="M472.51,-165.5C490.47,-147.46 531.49,-106.25 554.75,-82.88"/>
<polygon fill="#63b8ff" stroke="#63b8ff" points="557.07,-85.51 561.65,-75.95 552.11,-80.57 557.07,-85.51"/>
</a>
</g>
</g>
<!-- Node12 -->
<g id="Node000012" class="node">
<title>Node12</title>
<g id="a_Node000012"><a xlink:title=" ">
<polygon fill="#e0e0e0" stroke="#999999" points="527.68,-74.5 469.68,-74.5 469.68,-55.25 527.68,-55.25 527.68,-74.5"/>
<text text-anchor="middle" x="498.68" y="-61" font-family="Helvetica,sans-Serif" font-size="10.00">functional</text>
</a>
</g>
</g>
<!-- Node11&#45;&gt;Node12 -->
<g id="edge13_Node000011_Node000012" class="edge">
<title>Node11&#45;&gt;Node12</title>
<g id="a_edge13_Node000011_Node000012"><a xlink:title=" ">
<path fill="none" stroke="#63b8ff" d="M466.72,-165.5C469.79,-156.51 474.64,-142.19 478.68,-129.75 483.46,-115.01 488.69,-98.29 492.6,-85.65"/>
<polygon fill="#63b8ff" stroke="#63b8ff" points="495.84,-87.02 495.44,-76.44 489.15,-84.96 495.84,-87.02"/>
</a>
</g>
</g>
<!-- Node13 -->
<g id="Node000013" class="node">
<title>Node13</title>
<g id="a_Node000013"><a xlink:href="../../de/dcb/_solid_attenuation_8hh.html" target="_top" xlink:title=" ">
<polygon fill="white" stroke="#666666" points="275.68,-74.5 175.68,-74.5 175.68,-55.25 275.68,-55.25 275.68,-74.5"/>
<text text-anchor="middle" x="225.68" y="-61" font-family="Helvetica,sans-Serif" font-size="10.00">SolidAttenuation.hh</text>
</a>
</g>
</g>
<!-- Node11&#45;&gt;Node13 -->
<g id="edge14_Node000011_Node000013" class="edge">
<title>Node11&#45;&gt;Node13</title>
<g id="a_edge14_Node000011_Node000013"><a xlink:title=" ">
<path fill="none" stroke="#63b8ff" d="M447.79,-165.3C424.78,-152.34 380.67,-128.14 341.68,-110.5 315.66,-98.73 285.54,-87.2 262.51,-78.81"/>
<polygon fill="#63b8ff" stroke="#63b8ff" points="263.85,-75.57 253.25,-75.47 261.47,-82.16 263.85,-75.57"/>
</a>
</g>
</g>
<!-- Node14 -->
<g id="Node000014" class="node">
<title>Node14</title>
<g id="a_Node000014"><a xlink:href="../../da/da6/_stat_tensor_8hh.html" target="_top" xlink:title=" ">
<polygon fill="white" stroke="#666666" points="470.05,-129.75 393.3,-129.75 393.3,-110.5 470.05,-110.5 470.05,-129.75"/>
<text text-anchor="middle" x="431.68" y="-116.25" font-family="Helvetica,sans-Serif" font-size="10.00">StatTensor.hh</text>
</a>
</g>
</g>
<!-- Node11&#45;&gt;Node14 -->
<g id="edge16_Node000011_Node000014" class="edge">
<title>Node11&#45;&gt;Node14</title>
<g id="a_edge16_Node000011_Node000014"><a xlink:title=" ">
<path fill="none" stroke="#63b8ff" d="M458.39,-165.58C454.2,-158.61 448.2,-148.62 442.94,-139.87"/>
<polygon fill="#63b8ff" stroke="#63b8ff" points="446.01,-138.18 437.86,-131.41 440.01,-141.78 446.01,-138.18"/>
</a>
</g>
</g>
<!-- Node13&#45;&gt;Node5 -->
<g id="edge15_Node000013_Node000005" class="edge">
<title>Node13&#45;&gt;Node5</title>
<g id="a_edge15_Node000013_Node000005"><a xlink:title=" ">
<path fill="none" stroke="#63b8ff" d="M247.39,-54.84C267.71,-46.39 298.32,-33.65 321.48,-24.02"/>
<polygon fill="#63b8ff" stroke="#63b8ff" points="322.57,-27.36 330.46,-20.28 319.88,-20.89 322.57,-27.36"/>
</a>
</g>
</g>
<!-- Node14&#45;&gt;Node4 -->
<g id="edge17_Node000014_Node000004" class="edge">
<title>Node14&#45;&gt;Node4</title>
<g id="a_edge17_Node000014_Node000004"><a xlink:title=" ">
<path fill="none" stroke="#63b8ff" d="M393.04,-112.96C326.73,-102.39 192.46,-80.99 130.44,-71.1"/>
<polygon fill="#63b8ff" stroke="#63b8ff" points="131.3,-67.69 120.88,-69.57 130.2,-74.6 131.3,-67.69"/>
</a>
</g>
</g>
<!-- Node14&#45;&gt;Node5 -->
<g id="edge19_Node000014_Node000005" class="edge">
<title>Node14&#45;&gt;Node5</title>
<g id="a_edge19_Node000014_Node000005"><a xlink:title=" ">
<path fill="none" stroke="#63b8ff" d="M432.64,-110.07C433.57,-96.92 433.53,-72.24 422.68,-55.25 413.87,-41.45 399.09,-31.06 385.47,-23.79"/>
<polygon fill="#63b8ff" stroke="#63b8ff" points="387.27,-20.77 376.75,-19.5 384.18,-27.06 387.27,-20.77"/>
</a>
</g>
</g>
<!-- Node14&#45;&gt;Node8 -->
<g id="edge18_Node000014_Node000008" class="edge">
<title>Node14&#45;&gt;Node8</title>
<g id="a_edge18_Node000014_Node000008"><a xlink:title=" ">
<path fill="none" stroke="#63b8ff" d="M455.43,-110.09C477.85,-101.56 511.74,-88.67 537.15,-79.01"/>
<polygon fill="#63b8ff" stroke="#63b8ff" points="538.29,-82.32 546.4,-75.49 535.81,-75.77 538.29,-82.32"/>
</a>
</g>
</g>
<!-- Node14&#45;&gt;Node12 -->
<g id="edge20_Node000014_Node000012" class="edge">
<title>Node14&#45;&gt;Node12</title>
<g id="a_edge20_Node000014_Node000012"><a xlink:title=" ">
<path fill="none" stroke="#63b8ff" d="M443.04,-110.09C452.73,-102.4 466.88,-91.15 478.48,-81.93"/>
<polygon fill="#63b8ff" stroke="#63b8ff" points="480.64,-84.68 486.29,-75.72 476.29,-79.2 480.64,-84.68"/>
</a>
</g>
</g>
<!-- Node14&#45;&gt;Node13 -->
<g id="edge23_Node000014_Node000013" class="edge">
<title>Node14&#45;&gt;Node13</title>
<g id="a_edge23_Node000014_Node000013"><a xlink:title=" ">
<path fill="none" stroke="#63b8ff" d="M396.73,-110.09C362.25,-101.18 309.36,-87.51 271.53,-77.73"/>
<polygon fill="#63b8ff" stroke="#63b8ff" points="272.82,-74.45 262.26,-75.33 271.06,-81.22 272.82,-74.45"/>
</a>
</g>
</g>
<!-- Node15 -->
<g id="Node000015" class="node">
<title>Node15</title>
<g id="a_Node000015"><a xlink:href="../../d0/d3d/_population_parameter_8hh.html" target="_top" xlink:title=" ">
<polygon fill="white" stroke="#666666" points="413.43,-74.5 293.93,-74.5 293.93,-55.25 413.43,-55.25 413.43,-74.5"/>
<text text-anchor="middle" x="353.68" y="-61" font-family="Helvetica,sans-Serif" font-size="10.00">PopulationParameter.hh</text>
</a>
</g>
</g>
<!-- Node14&#45;&gt;Node15 -->
<g id="edge21_Node000014_Node000015" class="edge">
<title>Node14&#45;&gt;Node15</title>
<g id="a_edge21_Node000014_Node000015"><a xlink:title=" ">
<path fill="none" stroke="#63b8ff" d="M418.45,-110.09C406.9,-102.21 389.91,-90.61 376.23,-81.27"/>
<polygon fill="#63b8ff" stroke="#63b8ff" points="378.46,-78.55 368.22,-75.81 374.51,-84.33 378.46,-78.55"/>
</a>
</g>
</g>
<!-- Node15&#45;&gt;Node5 -->
<g id="edge22_Node000015_Node000005" class="edge">
<title>Node15&#45;&gt;Node5</title>
<g id="a_edge22_Node000015_Node000005"><a xlink:title=" ">
<path fill="none" stroke="#63b8ff" d="M353.68,-55.08C353.68,-48.57 353.68,-39.42 353.68,-31.12"/>
<polygon fill="#63b8ff" stroke="#63b8ff" points="357.18,-31.12 353.68,-21.12 350.18,-31.12 357.18,-31.12"/>
</a>
</g>
</g>
<!-- Node16&#45;&gt;Node2 -->
<g id="edge25_Node000016_Node000002" class="edge">
<title>Node16&#45;&gt;Node2</title>
<g id="a_edge25_Node000016_Node000002"><a xlink:title=" ">
<path fill="none" stroke="#63b8ff" d="M152.61,-165.34C130.92,-156.85 98.2,-144.04 73.55,-134.39"/>
<polygon fill="#63b8ff" stroke="#63b8ff" points="74.86,-131.14 64.27,-130.75 72.31,-137.66 74.86,-131.14"/>
</a>
</g>
</g>
<!-- Node16&#45;&gt;Node3 -->
<g id="edge27_Node000016_Node000003" class="edge">
<title>Node16&#45;&gt;Node3</title>
<g id="a_edge27_Node000016_Node000003"><a xlink:title=" ">
<path fill="none" stroke="#63b8ff" d="M182.45,-165.58C187.99,-158.38 196.02,-147.96 202.91,-139.01"/>
<polygon fill="#63b8ff" stroke="#63b8ff" points="205.51,-141.37 208.84,-131.31 199.96,-137.1 205.51,-141.37"/>
</a>
</g>
</g>
<!-- Node16&#45;&gt;Node4 -->
<g id="edge28_Node000016_Node000004" class="edge">
<title>Node16&#45;&gt;Node4</title>
<g id="a_edge28_Node000016_Node000004"><a xlink:title=" ">
<path fill="none" stroke="#63b8ff" d="M172.57,-165.56C167.78,-152.71 157.78,-128.41 144.68,-110.5 137.08,-100.12 126.9,-90.11 117.96,-82.22"/>
<polygon fill="#63b8ff" stroke="#63b8ff" points="120.29,-79.6 110.4,-75.8 115.76,-84.94 120.29,-79.6"/>
</a>
</g>
</g>
<!-- Node16&#45;&gt;Node7 -->
<g id="edge26_Node000016_Node000007" class="edge">
<title>Node16&#45;&gt;Node7</title>
<g id="a_edge26_Node000016_Node000007"><a xlink:title=" ">
<path fill="none" stroke="#63b8ff" d="M193.32,-165.34C209.31,-157.16 233.13,-144.96 251.71,-135.44"/>
<polygon fill="#63b8ff" stroke="#63b8ff" points="253.3,-138.57 260.6,-130.89 250.1,-132.33 253.3,-138.57"/>
</a>
</g>
</g>
<!-- Node17 -->
<g id="Node000017" class="node">
<title>Node17</title>
<g id="a_Node000017"><a xlink:title=" ">
<polygon fill="#e0e0e0" stroke="#999999" points="135.3,-129.75 84.05,-129.75 84.05,-110.5 135.3,-110.5 135.3,-129.75"/>
<text text-anchor="middle" x="109.68" y="-116.25" font-family="Helvetica,sans-Serif" font-size="10.00">sstream</text>
</a>
</g>
</g>
<!-- Node16&#45;&gt;Node17 -->
<g id="edge29_Node000016_Node000017" class="edge">
<title>Node16&#45;&gt;Node17</title>
<g id="a_edge29_Node000016_Node000017"><a xlink:title=" ">
<path fill="none" stroke="#63b8ff" d="M164.48,-165.34C154.94,-157.65 141,-146.4 129.57,-137.18"/>
<polygon fill="#63b8ff" stroke="#63b8ff" points="131.87,-134.53 121.89,-130.98 127.47,-139.98 131.87,-134.53"/>
</a>
</g>
</g>
</g>
</svg>
