<?xml version="1.0" encoding="UTF-8" standalone="no"?>
<!DOCTYPE svg PUBLIC "-//W3C//DTD SVG 1.1//EN"
 "http://www.w3.org/Graphics/SVG/1.1/DTD/svg11.dtd">
<!-- Generated by graphviz version 12.0.0 (20240704.0754)
 -->
<!-- Title: src/lib/utils/Tuples.hh Pages: 1 -->
<!--zoomable 193 -->

<svg id="main" version="1.1" xmlns="http://www.w3.org/2000/svg" xmlns:xlink="http://www.w3.org/1999/xlink" xml:space="preserve" onload="init(evt)">
<style type="text/css"><![CDATA[
.node, .edge {opacity: 0.7;}
.node.selected, .edge.selected {opacity: 1;}
.edge:hover path { stroke: red; }
.edge:hover polygon { stroke: red; fill: red; }
]]></style>

<defs>
  <circle id="rim" cx="0" cy="0" r="7"/>
  <circle id="rim2" cx="0" cy="0" r="3.5"/>
  <g id="zoomPlus">
    <use xlink:href="#rim" fill="#404040"><set attributeName="fill" to="#808080" begin="zoomplus.mouseover" end="zoomplus.mouseout"/></use>
    <path d="M-4,0h8M0,-4v8" fill="none" stroke="white" stroke-width="1.5" pointer-events="none"/>
  </g>
  <g id="zoomMin">
    <use xlink:href="#rim" fill="#404040"><set attributeName="fill" to="#808080" begin="zoomminus.mouseover" end="zoomminus.mouseout"/></use>
    <path d="M-4,0h8" fill="none" stroke="white" stroke-width="1.5" pointer-events="none"/>
  </g>
  <g id="arrowUp" transform="translate(30 24)">
    <use xlink:href="#rim"/>
    <path pointer-events="none" fill="none" stroke="white" stroke-width="1.5" d="M0,-3.0v7 M-2.5,-0.5L0,-3.0L2.5,-0.5"/>
  </g>
  <g id="arrowRight" transform="rotate(90) translate(36 -43)">
    <use xlink:href="#rim"/>
    <path pointer-events="none" fill="none" stroke="white" stroke-width="1.5" d="M0,-3.0v7 M-2.5,-0.5L0,-3.0L2.5,-0.5"/>
  </g>
  <g id="arrowDown" transform="rotate(180) translate(-30 -48)">
    <use xlink:href="#rim"/>
    <path pointer-events="none" fill="none" stroke="white" stroke-width="1.5" d="M0,-3.0v7 M-2.5,-0.5L0,-3.0L2.5,-0.5"/>
  </g>
  <g id="arrowLeft" transform="rotate(270) translate(-36 17)">
    <use xlink:href="#rim"/>
    <path pointer-events="none" fill="none" stroke="white" stroke-width="1.5" d="M0,-3.0v7 M-2.5,-0.5L0,-3.0L2.5,-0.5"/>
  </g>
  <g id="resetDef">
    <use xlink:href="#rim2" fill="#404040"><set attributeName="fill" to="#808080" begin="reset.mouseover" end="reset.mouseout"/></use>
  </g>
</defs>
<script type="application/ecmascript">
var viewWidth = 505;
var viewHeight = 193;
var sectionId = 'dynsection-1';
</script>
<script type="application/ecmascript" xlink:href="../../svg.min.js"/>
<svg id="graph" class="graph">
<g id="viewport">
<title>src/lib/utils/Tuples.hh</title>
<!-- Node1 -->
<g id="Node000001" class="node">
<title>Node1</title>
<g id="a_Node000001"><a xlink:title=" ">
<polygon fill="#999999" stroke="#666666" points="368.5,-185 260.25,-185 260.25,-165.75 368.5,-165.75 368.5,-185"/>
<text text-anchor="middle" x="314.38" y="-171.5" font-family="Helvetica,sans-Serif" font-size="10.00">src/lib/utils/Tuples.hh</text>
</a>
</g>
</g>
<!-- Node2 -->
<g id="Node000002" class="node">
<title>Node2</title>
<g id="a_Node000002"><a xlink:href="../../d5/d83/_det_defn_8hh.html" target="_top" xlink:title=" ">
<polygon fill="white" stroke="#666666" points="244.75,-129.75 132,-129.75 132,-110.5 244.75,-110.5 244.75,-129.75"/>
<text text-anchor="middle" x="188.38" y="-116.25" font-family="Helvetica,sans-Serif" font-size="10.00">src/lib/tree/DetDefn.hh</text>
</a>
</g>
</g>
<!-- Node1&#45;&gt;Node2 -->
<g id="edge1_Node000001_Node000002" class="edge">
<title>Node1&#45;&gt;Node2</title>
<g id="a_edge1_Node000001_Node000002"><a xlink:title=" ">
<path fill="none" stroke="#63b8ff" d="M282.49,-160.9C259.76,-151.29 229.8,-138.63 209.85,-130.2"/>
<polygon fill="#63b8ff" stroke="#63b8ff" points="281.03,-164.08 291.61,-164.75 283.76,-157.64 281.03,-164.08"/>
</a>
</g>
</g>
<!-- Node6 -->
<g id="Node000006" class="node">
<title>Node6</title>
<g id="a_Node000006"><a xlink:href="../../dc/d53/_event_8hh.html" target="_top" xlink:title=" ">
<polygon fill="white" stroke="#666666" points="365.5,-129.75 263.25,-129.75 263.25,-110.5 365.5,-110.5 365.5,-129.75"/>
<text text-anchor="middle" x="314.38" y="-116.25" font-family="Helvetica,sans-Serif" font-size="10.00">src/lib/tree/Event.hh</text>
</a>
</g>
</g>
<!-- Node1&#45;&gt;Node6 -->
<g id="edge5_Node000001_Node000006" class="edge">
<title>Node1&#45;&gt;Node6</title>
<g id="a_edge5_Node000001_Node000006"><a xlink:title=" ">
<path fill="none" stroke="#63b8ff" d="M314.38,-154.13C314.38,-145.84 314.38,-136.67 314.38,-130.11"/>
<polygon fill="#63b8ff" stroke="#63b8ff" points="310.88,-154.07 314.38,-164.07 317.88,-154.07 310.88,-154.07"/>
</a>
</g>
</g>
<!-- Node8 -->
<g id="Node000008" class="node">
<title>Node8</title>
<g id="a_Node000008"><a xlink:href="../../d2/d9e/_exp_defn_8tt.html" target="_top" xlink:title=" ">
<polygon fill="white" stroke="#666666" points="493.88,-129.75 384.88,-129.75 384.88,-110.5 493.88,-110.5 493.88,-129.75"/>
<text text-anchor="middle" x="439.38" y="-116.25" font-family="Helvetica,sans-Serif" font-size="10.00">src/lib/tree/ExpDefn.tt</text>
</a>
</g>
</g>
<!-- Node1&#45;&gt;Node8 -->
<g id="edge7_Node000001_Node000008" class="edge">
<title>Node1&#45;&gt;Node8</title>
<g id="a_edge7_Node000001_Node000008"><a xlink:title=" ">
<path fill="none" stroke="#63b8ff" d="M346,-160.9C368.56,-151.29 398.28,-138.63 418.07,-130.2"/>
<polygon fill="#63b8ff" stroke="#63b8ff" points="344.8,-157.61 336.97,-164.75 347.54,-164.05 344.8,-157.61"/>
</a>
</g>
</g>
<!-- Node3 -->
<g id="Node000003" class="node">
<title>Node3</title>
<g id="a_Node000003"><a xlink:href="../../db/d79/_det_defn_8cc.html" target="_top" xlink:title=" ">
<polygon fill="white" stroke="#666666" points="112.75,-74.5 0,-74.5 0,-55.25 112.75,-55.25 112.75,-74.5"/>
<text text-anchor="middle" x="56.38" y="-61" font-family="Helvetica,sans-Serif" font-size="10.00">src/lib/tree/DetDefn.cc</text>
</a>
</g>
</g>
<!-- Node2&#45;&gt;Node3 -->
<g id="edge2_Node000002_Node000003" class="edge">
<title>Node2&#45;&gt;Node3</title>
<g id="a_edge2_Node000002_Node000003"><a xlink:title=" ">
<path fill="none" stroke="#63b8ff" d="M155.62,-105.91C131.73,-96.27 99.96,-83.46 78.88,-74.95"/>
<polygon fill="#63b8ff" stroke="#63b8ff" points="154,-109.03 164.58,-109.53 156.61,-102.54 154,-109.03"/>
</a>
</g>
</g>
<!-- Node4 -->
<g id="Node000004" class="node">
<title>Node4</title>
<g id="a_Node000004"><a xlink:href="../../db/db2/_detector_8hh.html" target="_top" xlink:title=" ">
<polygon fill="white" stroke="#666666" points="245.5,-74.5 131.25,-74.5 131.25,-55.25 245.5,-55.25 245.5,-74.5"/>
<text text-anchor="middle" x="188.38" y="-61" font-family="Helvetica,sans-Serif" font-size="10.00">src/lib/tree/Detector.hh</text>
</a>
</g>
</g>
<!-- Node2&#45;&gt;Node4 -->
<g id="edge3_Node000002_Node000004" class="edge">
<title>Node2&#45;&gt;Node4</title>
<g id="a_edge3_Node000002_Node000004"><a xlink:title=" ">
<path fill="none" stroke="#63b8ff" d="M188.38,-98.88C188.38,-90.59 188.38,-81.42 188.38,-74.86"/>
<polygon fill="#63b8ff" stroke="#63b8ff" points="184.88,-98.82 188.38,-108.82 191.88,-98.82 184.88,-98.82"/>
</a>
</g>
</g>
<!-- Node5 -->
<g id="Node000005" class="node">
<title>Node5</title>
<g id="a_Node000005"><a xlink:href="../../df/d54/_detector_8cc.html" target="_top" xlink:title=" ">
<polygon fill="white" stroke="#666666" points="245.5,-19.25 131.25,-19.25 131.25,0 245.5,0 245.5,-19.25"/>
<text text-anchor="middle" x="188.38" y="-5.75" font-family="Helvetica,sans-Serif" font-size="10.00">src/lib/tree/Detector.cc</text>
</a>
</g>
</g>
<!-- Node4&#45;&gt;Node5 -->
<g id="edge4_Node000004_Node000005" class="edge">
<title>Node4&#45;&gt;Node5</title>
<g id="a_edge4_Node000004_Node000005"><a xlink:title=" ">
<path fill="none" stroke="#63b8ff" d="M188.38,-43.63C188.38,-35.34 188.38,-26.17 188.38,-19.61"/>
<polygon fill="#63b8ff" stroke="#63b8ff" points="184.88,-43.57 188.38,-53.57 191.88,-43.57 184.88,-43.57"/>
</a>
</g>
</g>
<!-- Node7 -->
<g id="Node000007" class="node">
<title>Node7</title>
<g id="a_Node000007"><a xlink:href="../../dc/dba/_event_8cc.html" target="_top" xlink:title=" ">
<polygon fill="white" stroke="#666666" points="365.5,-74.5 263.25,-74.5 263.25,-55.25 365.5,-55.25 365.5,-74.5"/>
<text text-anchor="middle" x="314.38" y="-61" font-family="Helvetica,sans-Serif" font-size="10.00">src/lib/tree/Event.cc</text>
</a>
</g>
</g>
<!-- Node6&#45;&gt;Node7 -->
<g id="edge6_Node000006_Node000007" class="edge">
<title>Node6&#45;&gt;Node7</title>
<g id="a_edge6_Node000006_Node000007"><a xlink:title=" ">
<path fill="none" stroke="#63b8ff" d="M314.38,-98.88C314.38,-90.59 314.38,-81.42 314.38,-74.86"/>
<polygon fill="#63b8ff" stroke="#63b8ff" points="310.88,-98.82 314.38,-108.82 317.88,-98.82 310.88,-98.82"/>
</a>
</g>
</g>
<!-- Node9 -->
<g id="Node000009" class="node">
<title>Node9</title>
<g id="a_Node000009"><a xlink:href="../../dc/d02/_exp_defn_8hh.html" target="_top" xlink:title=" ">
<polygon fill="white" stroke="#666666" points="497.12,-74.5 383.62,-74.5 383.62,-55.25 497.12,-55.25 497.12,-74.5"/>
<text text-anchor="middle" x="440.38" y="-61" font-family="Helvetica,sans-Serif" font-size="10.00">src/lib/tree/ExpDefn.hh</text>
</a>
</g>
</g>
<!-- Node8&#45;&gt;Node9 -->
<g id="edge8_Node000008_Node000009" class="edge">
<title>Node8&#45;&gt;Node9</title>
<g id="a_edge8_Node000008_Node000009"><a xlink:title=" ">
<path fill="none" stroke="#63b8ff" d="M439.76,-98.88C439.91,-90.59 440.08,-81.42 440.21,-74.86"/>
<polygon fill="#63b8ff" stroke="#63b8ff" points="436.26,-98.75 439.57,-108.82 443.26,-98.89 436.26,-98.75"/>
</a>
</g>
</g>
<!-- Node10 -->
<g id="Node000010" class="node">
<title>Node10</title>
<g id="a_Node000010"><a xlink:href="../../df/de5/_exp_defn_8cc.html" target="_top" xlink:title=" ">
<polygon fill="white" stroke="#666666" points="497.12,-19.25 383.62,-19.25 383.62,0 497.12,0 497.12,-19.25"/>
<text text-anchor="middle" x="440.38" y="-5.75" font-family="Helvetica,sans-Serif" font-size="10.00">src/lib/tree/ExpDefn.cc</text>
</a>
</g>
</g>
<!-- Node9&#45;&gt;Node10 -->
<g id="edge9_Node000009_Node000010" class="edge">
<title>Node9&#45;&gt;Node10</title>
<g id="a_edge9_Node000009_Node000010"><a xlink:title=" ">
<path fill="none" stroke="#63b8ff" d="M440.38,-43.63C440.38,-35.34 440.38,-26.17 440.38,-19.61"/>
<polygon fill="#63b8ff" stroke="#63b8ff" points="436.88,-43.57 440.38,-53.57 443.88,-43.57 436.88,-43.57"/>
</a>
</g>
</g>
</g>
</svg>

<g id="navigator" transform="translate(0 0)" fill="#404254">
  <rect fill="#f2f5e9" fill-opacity="0.5" stroke="#606060" stroke-width=".5" x="0" y="0" width="60" height="60"/>
  <use id="zoomplus" xlink:href="#zoomPlus" x="17" y="9" onmousedown="handleZoom(evt,'in')"/>
  <use id="zoomminus" xlink:href="#zoomMin" x="42" y="9" onmousedown="handleZoom(evt,'out')"/>
  <use id="reset" xlink:href="#resetDef" x="30" y="36" onmousedown="handleReset()"/>
   <use id="arrowup" xlink:href="#arrowUp" x="0" y="0" onmousedown="handlePan(0,-1)"/>
  <use id="arrowright" xlink:href="#arrowRight" x="0" y="0" onmousedown="handlePan(1,0)"/>
  <use id="arrowdown" xlink:href="#arrowDown" x="0" y="0" onmousedown="handlePan(0,1)"/>
  <use id="arrowleft" xlink:href="#arrowLeft" x="0" y="0" onmousedown="handlePan(-1,0)"/>
</g>
<svg viewBox="0 0 15 15" width="100%" height="30px" preserveAspectRatio="xMaxYMin meet">
 <g id="arrow_out" transform="scale(0.3 0.3)">
  <a xlink:href="_tuples_8hh__dep__incl_org.svg" target="_base">
   <rect id="button" ry="5" rx="5" y="6" x="6" height="38" width="38"
        fill="#f2f5e9" fill-opacity="0.5" stroke="#606060" stroke-width="1.0"/>
   <path id="arrow"
     d="M 11.500037,31.436501 C 11.940474,20.09759 22.043105,11.32322 32.158766,21.979434 L 37.068811,17.246167 C 37.068811,17.246167 37.088388,32 37.088388,32 L 22.160133,31.978069 C 22.160133,31.978069 26.997745,27.140456 26.997745,27.140456 C 18.528582,18.264221 13.291696,25.230495 11.500037,31.436501 z"
     style="fill:#404040;"/>
  </a>
 </g>
</svg>

<style type='text/css'>
<![CDATA[
[data-mouse-over-selected='false'] { opacity: 0.7; }
[data-mouse-over-selected='true']  { opacity: 1.0; }
]]>
</style>
<script type="application/ecmascript"><![CDATA[
document.addEventListener('DOMContentLoaded', (event) => {
  highlightEdges();
  highlightAdjacentNodes();
});
]]></script>
</svg>
