<?xml version="1.0" encoding="UTF-8" standalone="no"?>
<!DOCTYPE svg PUBLIC "-//W3C//DTD SVG 1.1//EN"
 "http://www.w3.org/Graphics/SVG/1.1/DTD/svg11.dtd">
<!-- Generated by graphviz version 2.49.3 (20211023.0002)
 -->
<!-- Title: /Users/99j/git/gamma&#45;root/src/lib/angdist/AngDist.hh Pages: 1 -->
<!--zoomable 284 -->
<svg id="main" version="1.1" xmlns="http://www.w3.org/2000/svg" xmlns:xlink="http://www.w3.org/1999/xlink" xml:space="preserve" onload="init(evt)">
<style type="text/css"><![CDATA[
.edge:hover path { stroke: red; }
.edge:hover polygon { stroke: red; fill: red; }
]]></style>
<script type="text/javascript"><![CDATA[
var edges = document.getElementsByTagName('g');
if (edges && edges.length) {
  for (var i=0;i<edges.length;i++) {
    if (edges[i].id.substr(0,4)=='edge') {
      edges[i].setAttribute('class','edge');
    }
  }
}
]]></script>
        <defs>
                <circle id="rim" cx="0" cy="0" r="7"/>
                <circle id="rim2" cx="0" cy="0" r="3.5"/>
                <g id="zoomPlus">
                        <use xlink:href="#rim" fill="#404040">
                                <set attributeName="fill" to="#808080" begin="zoomplus.mouseover" end="zoomplus.mouseout"/>
                        </use>
                        <path d="M-4,0h8M0,-4v8" fill="none" stroke="white" stroke-width="1.5" pointer-events="none"/>
                </g>
                <g id="zoomMin">
                        <use xlink:href="#rim" fill="#404040">
                                <set attributeName="fill" to="#808080" begin="zoomminus.mouseover" end="zoomminus.mouseout"/>
                        </use>
                        <path d="M-4,0h8" fill="none" stroke="white" stroke-width="1.5" pointer-events="none"/>
                </g>
                <g id="dirArrow">
                        <path fill="none" stroke="white" stroke-width="1.5" d="M0,-3.0v7 M-2.5,-0.5L0,-3.0L2.5,-0.5"/>
                </g>
               <g id="resetDef">
                       <use xlink:href="#rim2" fill="#404040">
                               <set attributeName="fill" to="#808080" begin="reset.mouseover" end="reset.mouseout"/>
                       </use>
               </g>
        </defs>

<script type="text/javascript">
var viewWidth = 645;
var viewHeight = 284;
var sectionId = 'dynsection-1';
</script>
<script xlink:href="../../svgpan.js"/>
<svg id="graph" class="graph">
<g id="viewport">
<title>/Users/99j/git/gamma&#45;root/src/lib/angdist/AngDist.hh</title>
<polygon fill="white" stroke="transparent" points="-4,4 -4,-280 640.98,-280 640.98,4 -4,4"/>
<!-- Node1 -->
<g id="node1" class="node">
<title>Node1</title>
<g id="a_node1"><a xlink:title=" ">
<polygon fill="#bfbfbf" stroke="black" points="342,-234.5 342,-275.5 453,-275.5 453,-234.5 342,-234.5"/>
<text text-anchor="start" x="350" y="-263.5" font-family="Helvetica,sans-Serif" font-size="10.00">/Users/99j/git/gamma</text>
<text text-anchor="start" x="350" y="-252.5" font-family="Helvetica,sans-Serif" font-size="10.00">&#45;root/src/lib/angdist</text>
<text text-anchor="middle" x="397.5" y="-241.5" font-family="Helvetica,sans-Serif" font-size="10.00">/AngDist.hh</text>
</a>
</g>
</g>
<!-- Node2 -->
<g id="node2" class="node">
<title>Node2</title>
<g id="a_node2"><a xlink:href="../../db/db9/_ang_corr_8hh.html" target="_top" xlink:title=" ">
<polygon fill="white" stroke="black" points="0,-156.5 0,-197.5 111,-197.5 111,-156.5 0,-156.5"/>
<text text-anchor="start" x="8" y="-185.5" font-family="Helvetica,sans-Serif" font-size="10.00">/Users/99j/git/gamma</text>
<text text-anchor="start" x="8" y="-174.5" font-family="Helvetica,sans-Serif" font-size="10.00">&#45;root/src/lib/angdist</text>
<text text-anchor="middle" x="55.5" y="-163.5" font-family="Helvetica,sans-Serif" font-size="10.00">/AngCorr.hh</text>
</a>
</g>
</g>
<!-- Node1&#45;&gt;Node2 -->
<g id="edge1" class="edge">
<title>Node1&#45;&gt;Node2</title>
<path fill="none" stroke="midnightblue" d="M332.1,-242.81C275.49,-232.66 191.6,-216.47 119.5,-198 116.79,-197.31 114.03,-196.57 111.25,-195.8"/>
<polygon fill="midnightblue" stroke="midnightblue" points="331.54,-246.27 342,-244.58 332.77,-239.38 331.54,-246.27"/>
</g>
<!-- Node4 -->
<g id="node4" class="node">
<title>Node4</title>
<g id="a_node4"><a xlink:href="../../df/dbd/_ang_dist_8cc.html" target="_top" xlink:title=" ">
<polygon fill="white" stroke="black" points="129,-156.5 129,-197.5 240,-197.5 240,-156.5 129,-156.5"/>
<text text-anchor="start" x="137" y="-185.5" font-family="Helvetica,sans-Serif" font-size="10.00">/Users/99j/git/gamma</text>
<text text-anchor="start" x="137" y="-174.5" font-family="Helvetica,sans-Serif" font-size="10.00">&#45;root/src/lib/angdist</text>
<text text-anchor="middle" x="184.5" y="-163.5" font-family="Helvetica,sans-Serif" font-size="10.00">/AngDist.cc</text>
</a>
</g>
</g>
<!-- Node1&#45;&gt;Node4 -->
<g id="edge3" class="edge">
<title>Node1&#45;&gt;Node4</title>
<path fill="none" stroke="midnightblue" d="M333.11,-231.03C303.13,-220.33 267.83,-207.73 239.17,-197.51"/>
<polygon fill="midnightblue" stroke="midnightblue" points="332.05,-234.36 342.65,-234.43 334.41,-227.77 332.05,-234.36"/>
</g>
<!-- Node5 -->
<g id="node5" class="node">
<title>Node5</title>
<g id="a_node5"><a xlink:href="../../dd/dbc/_stat_tensor_8cc.html" target="_top" xlink:title=" ">
<polygon fill="white" stroke="black" points="258,-156.5 258,-197.5 369,-197.5 369,-156.5 258,-156.5"/>
<text text-anchor="start" x="266" y="-185.5" font-family="Helvetica,sans-Serif" font-size="10.00">/Users/99j/git/gamma</text>
<text text-anchor="start" x="266" y="-174.5" font-family="Helvetica,sans-Serif" font-size="10.00">&#45;root/src/lib/angdist</text>
<text text-anchor="middle" x="313.5" y="-163.5" font-family="Helvetica,sans-Serif" font-size="10.00">/StatTensor.cc</text>
</a>
</g>
</g>
<!-- Node1&#45;&gt;Node5 -->
<g id="edge4" class="edge">
<title>Node1&#45;&gt;Node5</title>
<path fill="none" stroke="midnightblue" d="M368.2,-227.49C357.3,-217.63 345.14,-206.63 335.06,-197.51"/>
<polygon fill="midnightblue" stroke="midnightblue" points="366.1,-230.31 375.87,-234.43 370.8,-225.12 366.1,-230.31"/>
</g>
<!-- Node6 -->
<g id="node6" class="node">
<title>Node6</title>
<g id="a_node6"><a xlink:href="../../d2/d58/_coulex_8cc.html" target="_top" xlink:title=" ">
<polygon fill="white" stroke="black" points="341,-78.5 341,-119.5 452,-119.5 452,-78.5 341,-78.5"/>
<text text-anchor="start" x="349" y="-107.5" font-family="Helvetica,sans-Serif" font-size="10.00">/Users/99j/git/gamma</text>
<text text-anchor="start" x="349" y="-96.5" font-family="Helvetica,sans-Serif" font-size="10.00">&#45;root/src/lib/coulex</text>
<text text-anchor="middle" x="396.5" y="-85.5" font-family="Helvetica,sans-Serif" font-size="10.00">/Coulex.cc</text>
</a>
</g>
</g>
<!-- Node1&#45;&gt;Node6 -->
<g id="edge5" class="edge">
<title>Node1&#45;&gt;Node6</title>
<path fill="none" stroke="midnightblue" d="M397.31,-224.36C397.11,-193.61 396.8,-146.36 396.63,-119.83"/>
<polygon fill="midnightblue" stroke="midnightblue" points="393.81,-224.52 397.37,-234.5 400.81,-224.47 393.81,-224.52"/>
</g>
<!-- Node7 -->
<g id="node7" class="node">
<title>Node7</title>
<g id="a_node7"><a xlink:href="../../df/d7f/_coulex_8hh.html" target="_top" xlink:title=" ">
<polygon fill="white" stroke="black" points="426,-156.5 426,-197.5 537,-197.5 537,-156.5 426,-156.5"/>
<text text-anchor="start" x="434" y="-185.5" font-family="Helvetica,sans-Serif" font-size="10.00">/Users/99j/git/gamma</text>
<text text-anchor="start" x="434" y="-174.5" font-family="Helvetica,sans-Serif" font-size="10.00">&#45;root/src/lib/coulex</text>
<text text-anchor="middle" x="481.5" y="-163.5" font-family="Helvetica,sans-Serif" font-size="10.00">/Coulex.hh</text>
</a>
</g>
</g>
<!-- Node1&#45;&gt;Node7 -->
<g id="edge6" class="edge">
<title>Node1&#45;&gt;Node7</title>
<path fill="none" stroke="midnightblue" d="M426.8,-227.49C437.7,-217.63 449.86,-206.63 459.94,-197.51"/>
<polygon fill="midnightblue" stroke="midnightblue" points="424.2,-225.12 419.13,-234.43 428.9,-230.31 424.2,-225.12"/>
</g>
<!-- Node8 -->
<g id="node8" class="node">
<title>Node8</title>
<g id="a_node8"><a xlink:href="../../dc/d19/_coulex_calculation_8cc.html" target="_top" xlink:title=" ">
<polygon fill="white" stroke="black" points="509,-0.5 509,-41.5 622,-41.5 622,-0.5 509,-0.5"/>
<text text-anchor="start" x="517" y="-29.5" font-family="Helvetica,sans-Serif" font-size="10.00">/Users/99j/git/gamma</text>
<text text-anchor="start" x="517" y="-18.5" font-family="Helvetica,sans-Serif" font-size="10.00">&#45;root/src/lib/coulex</text>
<text text-anchor="middle" x="565.5" y="-7.5" font-family="Helvetica,sans-Serif" font-size="10.00">/CoulexCalculation.cc</text>
</a>
</g>
</g>
<!-- Node1&#45;&gt;Node8 -->
<g id="edge11" class="edge">
<title>Node1&#45;&gt;Node8</title>
<path fill="none" stroke="midnightblue" d="M462.88,-241.91C496.55,-233.47 537.02,-219.72 568.5,-198 605.18,-172.69 616.65,-162.02 631.5,-120 637.72,-102.4 639.34,-94.94 631.5,-78 624.68,-63.27 611.87,-51 599.33,-41.74"/>
<polygon fill="midnightblue" stroke="midnightblue" points="462.03,-238.51 453.12,-244.25 463.66,-245.32 462.03,-238.51"/>
</g>
<!-- Node9 -->
<g id="node9" class="node">
<title>Node9</title>
<g id="a_node9"><a xlink:href="../../db/dba/_coulex_calculation_8hh.html" target="_top" xlink:title=" ">
<polygon fill="white" stroke="black" points="508.5,-78.5 508.5,-119.5 622.5,-119.5 622.5,-78.5 508.5,-78.5"/>
<text text-anchor="start" x="516.5" y="-107.5" font-family="Helvetica,sans-Serif" font-size="10.00">/Users/99j/git/gamma</text>
<text text-anchor="start" x="516.5" y="-96.5" font-family="Helvetica,sans-Serif" font-size="10.00">&#45;root/src/lib/coulex</text>
<text text-anchor="middle" x="565.5" y="-85.5" font-family="Helvetica,sans-Serif" font-size="10.00">/CoulexCalculation.hh</text>
</a>
</g>
</g>
<!-- Node1&#45;&gt;Node9 -->
<g id="edge12" class="edge">
<title>Node1&#45;&gt;Node9</title>
<path fill="none" stroke="midnightblue" d="M462.94,-244.29C492.58,-236.58 525.59,-222.75 546.5,-198 565.06,-176.02 567.54,-141.34 566.99,-119.67"/>
<polygon fill="midnightblue" stroke="midnightblue" points="461.94,-240.94 453.04,-246.68 463.58,-247.74 461.94,-240.94"/>
</g>
<!-- Node3 -->
<g id="node3" class="node">
<title>Node3</title>
<g id="a_node3"><a xlink:href="../../dd/d67/_ang_corr_8cc.html" target="_top" xlink:title=" ">
<polygon fill="white" stroke="black" points="0,-78.5 0,-119.5 111,-119.5 111,-78.5 0,-78.5"/>
<text text-anchor="start" x="8" y="-107.5" font-family="Helvetica,sans-Serif" font-size="10.00">/Users/99j/git/gamma</text>
<text text-anchor="start" x="8" y="-96.5" font-family="Helvetica,sans-Serif" font-size="10.00">&#45;root/src/lib/angdist</text>
<text text-anchor="middle" x="55.5" y="-85.5" font-family="Helvetica,sans-Serif" font-size="10.00">/AngCorr.cc</text>
</a>
</g>
</g>
<!-- Node2&#45;&gt;Node3 -->
<g id="edge2" class="edge">
<title>Node2&#45;&gt;Node3</title>
<path fill="none" stroke="midnightblue" d="M55.5,-146.3C55.5,-137.3 55.5,-127.65 55.5,-119.51"/>
<polygon fill="midnightblue" stroke="midnightblue" points="52,-146.43 55.5,-156.43 59,-146.43 52,-146.43"/>
</g>
<!-- Node7&#45;&gt;Node6 -->
<g id="edge7" class="edge">
<title>Node7&#45;&gt;Node6</title>
<path fill="none" stroke="midnightblue" d="M451.85,-149.49C440.82,-139.63 428.52,-128.63 418.32,-119.51"/>
<polygon fill="midnightblue" stroke="midnightblue" points="449.82,-152.37 459.61,-156.43 454.49,-147.15 449.82,-152.37"/>
</g>
<!-- Node7&#45;&gt;Node8 -->
<g id="edge8" class="edge">
<title>Node7&#45;&gt;Node8</title>
<path fill="none" stroke="midnightblue" d="M481.8,-146.26C483.2,-125.84 487.48,-98.78 499.5,-78 507.85,-63.56 521.37,-51.12 534,-41.65"/>
<polygon fill="midnightblue" stroke="midnightblue" points="478.31,-146.1 481.31,-156.26 485.3,-146.44 478.31,-146.1"/>
</g>
<!-- Node7&#45;&gt;Node9 -->
<g id="edge9" class="edge">
<title>Node7&#45;&gt;Node9</title>
<path fill="none" stroke="midnightblue" d="M510.8,-149.49C521.7,-139.63 533.86,-128.63 543.94,-119.51"/>
<polygon fill="midnightblue" stroke="midnightblue" points="508.2,-147.12 503.13,-156.43 512.9,-152.31 508.2,-147.12"/>
</g>
<!-- Node9&#45;&gt;Node8 -->
<g id="edge10" class="edge">
<title>Node9&#45;&gt;Node8</title>
<path fill="none" stroke="midnightblue" d="M565.5,-68.3C565.5,-59.3 565.5,-49.65 565.5,-41.51"/>
<polygon fill="midnightblue" stroke="midnightblue" points="562,-68.43 565.5,-78.43 569,-68.43 562,-68.43"/>
</g>
</g>
</svg>
        <g id="navigator" transform="translate(0 0)" fill="#404254">
                <rect fill="#f2f5e9" fill-opacity="0.5" stroke="#606060" stroke-width=".5" x="0" y="0" width="60" height="60"/>
                <use id="zoomplus" xlink:href="#zoomPlus" x="17" y="9" onmousedown="handleZoom(evt,'in')"/>
                <use id="zoomminus" xlink:href="#zoomMin" x="42" y="9" onmousedown="handleZoom(evt,'out')"/>
                <use id="reset" xlink:href="#resetDef" x="30" y="36" onmousedown="handleReset()"/>
                <g id="arrowUp" xlink:href="#dirArrow" transform="translate(30 24)" onmousedown="handlePan(0,-1)">
                  <use xlink:href="#rim" fill="#404040">
                        <set attributeName="fill" to="#808080" begin="arrowUp.mouseover" end="arrowUp.mouseout"/>
                  </use>
                  <path fill="none" stroke="white" stroke-width="1.5" d="M0,-3.0v7 M-2.5,-0.5L0,-3.0L2.5,-0.5"/>
                </g>
                <g id="arrowRight" xlink:href="#dirArrow" transform="rotate(90) translate(36 -43)" onmousedown="handlePan(1,0)">
                  <use xlink:href="#rim" fill="#404040">
                        <set attributeName="fill" to="#808080" begin="arrowRight.mouseover" end="arrowRight.mouseout"/>
                  </use>
                  <path fill="none" stroke="white" stroke-width="1.5" d="M0,-3.0v7 M-2.5,-0.5L0,-3.0L2.5,-0.5"/>
                </g>
                <g id="arrowDown" xlink:href="#dirArrow" transform="rotate(180) translate(-30 -48)" onmousedown="handlePan(0,1)">
                  <use xlink:href="#rim" fill="#404040">
                        <set attributeName="fill" to="#808080" begin="arrowDown.mouseover" end="arrowDown.mouseout"/>
                  </use>
                  <path fill="none" stroke="white" stroke-width="1.5" d="M0,-3.0v7 M-2.5,-0.5L0,-3.0L2.5,-0.5"/>
                </g>
                <g id="arrowLeft" xlink:href="#dirArrow" transform="rotate(270) translate(-36 17)" onmousedown="handlePan(-1,0)">
                  <use xlink:href="#rim" fill="#404040">
                        <set attributeName="fill" to="#808080" begin="arrowLeft.mouseover" end="arrowLeft.mouseout"/>
                  </use>
                  <path fill="none" stroke="white" stroke-width="1.5" d="M0,-3.0v7 M-2.5,-0.5L0,-3.0L2.5,-0.5"/>
                </g>
        </g>
        <svg viewBox="0 0 15 15" width="100%" height="30px" preserveAspectRatio="xMaxYMin meet">
         <g id="arrow_out" transform="scale(0.3 0.3)">
          <a xlink:href="_ang_dist_8hh__dep__incl_org.svg" target="_base">
           <rect id="button" ry="5" rx="5" y="6" x="6" height="38" width="38"
                fill="#f2f5e9" fill-opacity="0.5" stroke="#606060" stroke-width="1.0"/>
           <path id="arrow"
             d="M 11.500037,31.436501 C 11.940474,20.09759 22.043105,11.32322 32.158766,21.979434 L 37.068811,17.246167 C 37.068811,17.246167 37.088388,32 37.088388,32 L 22.160133,31.978069 C 22.160133,31.978069 26.997745,27.140456 26.997745,27.140456 C 18.528582,18.264221 13.291696,25.230495 11.500037,31.436501 z"
             style="fill:#404040;"/>
          </a>
         </g>
        </svg>
</svg>
