<?xml version="1.0" encoding="UTF-8" standalone="no"?>
<!DOCTYPE svg PUBLIC "-//W3C//DTD SVG 1.1//EN"
 "http://www.w3.org/Graphics/SVG/1.1/DTD/svg11.dtd">
<!-- Generated by graphviz version 6.0.2 (20221011.1828)
 -->
<!-- Title: GamR::AngDist::GaussianDistr::Fit Pages: 1 -->
<!--zoomable 326 -->
<svg id="main" version="1.1" xmlns="http://www.w3.org/2000/svg" xmlns:xlink="http://www.w3.org/1999/xlink" xml:space="preserve" onload="init(evt)">
<style type="text/css"><![CDATA[
.edge:hover path { stroke: red; }
.edge:hover polygon { stroke: red; fill: red; }
]]></style>
<script type="text/javascript"><![CDATA[
var edges = document.getElementsByTagName('g');
if (edges && edges.length) {
  for (var i=0;i<edges.length;i++) {
    if (edges[i].id.substr(0,4)=='edge') {
      edges[i].setAttribute('class','edge');
    }
  }
}
]]></script>
        <defs>
                <circle id="rim" cx="0" cy="0" r="7"/>
                <circle id="rim2" cx="0" cy="0" r="3.5"/>
                <g id="zoomPlus">
                        <use xlink:href="#rim" fill="#404040">
                                <set attributeName="fill" to="#808080" begin="zoomplus.mouseover" end="zoomplus.mouseout"/>
                        </use>
                        <path d="M-4,0h8M0,-4v8" fill="none" stroke="white" stroke-width="1.5" pointer-events="none"/>
                </g>
                <g id="zoomMin">
                        <use xlink:href="#rim" fill="#404040">
                                <set attributeName="fill" to="#808080" begin="zoomminus.mouseover" end="zoomminus.mouseout"/>
                        </use>
                        <path d="M-4,0h8" fill="none" stroke="white" stroke-width="1.5" pointer-events="none"/>
                </g>
                <g id="dirArrow">
                        <path fill="none" stroke="white" stroke-width="1.5" d="M0,-3.0v7 M-2.5,-0.5L0,-3.0L2.5,-0.5"/>
                </g>
               <g id="resetDef">
                       <use xlink:href="#rim2" fill="#404040">
                               <set attributeName="fill" to="#808080" begin="reset.mouseover" end="reset.mouseout"/>
                       </use>
               </g>
        </defs>

<script type="text/javascript">
var viewWidth = 728;
var viewHeight = 326;
var sectionId = 'dynsection-2';
</script>
<script xlink:href="../../svgpan.js"/>
<svg id="graph" class="graph">
<g id="viewport">
<title>GamR::AngDist::GaussianDistr::Fit</title>
<!-- Node1 -->
<g id="node1" class="node">
<title>Node1</title>
<g id="a_node1"><a xlink:title=" ">
<polygon fill="#999999" stroke="#666666" points="165,-213.5 0,-213.5 0,-194.5 165,-194.5 165,-213.5"/>
<text text-anchor="middle" x="82.5" y="-201.5" font-family="Helvetica,sans-Serif" font-size="10.00">GamR::AngDist::GaussianDistr::Fit</text>
</a>
</g>
</g>
<!-- Node2 -->
<g id="node2" class="node">
<title>Node2</title>
<g id="a_node2"><a xlink:href="../../d0/d66/class_gam_r_1_1_ang_dist_1_1_gaussian_distr.html#a83f21e40c202039c64d10adffb27521e" target="_top" xlink:title=" ">
<polygon fill="white" stroke="#666666" points="350,-284 201,-284 201,-254 350,-254 350,-284"/>
<text text-anchor="start" x="209" y="-272" font-family="Helvetica,sans-Serif" font-size="10.00">GamR::AngDist::GaussianDistr</text>
<text text-anchor="middle" x="275.5" y="-261" font-family="Helvetica,sans-Serif" font-size="10.00">::GetPars</text>
</a>
</g>
</g>
<!-- Node1&#45;&gt;Node2 -->
<g id="edge1" class="edge">
<title>Node1&#45;&gt;Node2</title>
<path fill="none" stroke="#63b8ff" d="M111.68,-213.59C140.23,-223.31 185.12,-238.58 220.53,-250.63"/>
<polygon fill="#63b8ff" stroke="#63b8ff" points="219.66,-254.03 230.25,-253.94 221.91,-247.41 219.66,-254.03"/>
</g>
<!-- Node3 -->
<g id="node3" class="node">
<title>Node3</title>
<g id="a_node3"><a xlink:href="../../da/d5e/class_gam_r_1_1_ang_dist_1_1_gaussian_distr_1_1_global_chi_square.html#a25963f6a31ae06ee8718430f4f920ba5" target="_top" xlink:title=" ">
<polygon fill="white" stroke="#666666" points="350,-198 201,-198 201,-168 350,-168 350,-198"/>
<text text-anchor="start" x="209" y="-186" font-family="Helvetica,sans-Serif" font-size="10.00">GamR::AngDist::GaussianDistr</text>
<text text-anchor="middle" x="275.5" y="-175" font-family="Helvetica,sans-Serif" font-size="10.00">::GlobalChiSquare::minuit</text>
</a>
</g>
</g>
<!-- Node1&#45;&gt;Node3 -->
<g id="edge2" class="edge">
<title>Node1&#45;&gt;Node3</title>
<path fill="none" stroke="#63b8ff" d="M165.06,-195.03C173.58,-194.1 182.26,-193.14 190.81,-192.2"/>
<polygon fill="#63b8ff" stroke="#63b8ff" points="191.21,-195.68 200.77,-191.11 190.45,-188.72 191.21,-195.68"/>
</g>
<!-- Node6 -->
<g id="node6" class="node">
<title>Node6</title>
<g id="a_node6"><a xlink:href="../../d0/d66/class_gam_r_1_1_ang_dist_1_1_gaussian_distr.html#adf997e0aeab4bc362c60b72f01b33bd9" target="_top" xlink:title=" ">
<polygon fill="white" stroke="#666666" points="535,-318 386,-318 386,-288 535,-288 535,-318"/>
<text text-anchor="start" x="394" y="-306" font-family="Helvetica,sans-Serif" font-size="10.00">GamR::AngDist::GaussianDistr</text>
<text text-anchor="middle" x="460.5" y="-295" font-family="Helvetica,sans-Serif" font-size="10.00">::SetField</text>
</a>
</g>
</g>
<!-- Node1&#45;&gt;Node6 -->
<g id="edge11" class="edge">
<title>Node1&#45;&gt;Node6</title>
<path fill="none" stroke="#63b8ff" d="M165.2,-211.2C231.23,-218 318.25,-229.48 350,-245 369.77,-254.67 367.08,-267.76 386,-279 388.83,-280.68 391.79,-282.26 394.83,-283.74"/>
<polygon fill="#63b8ff" stroke="#63b8ff" points="393.58,-287.02 404.14,-287.89 396.43,-280.62 393.58,-287.02"/>
</g>
<!-- Node12 -->
<g id="node12" class="node">
<title>Node12</title>
<g id="a_node12"><a xlink:href="../../d0/d66/class_gam_r_1_1_ang_dist_1_1_gaussian_distr.html#a1ce4601cff334d3d161ccb03e3447114" target="_top" xlink:title=" ">
<polygon fill="white" stroke="#666666" points="350,-132 201,-132 201,-102 350,-102 350,-132"/>
<text text-anchor="start" x="209" y="-120" font-family="Helvetica,sans-Serif" font-size="10.00">GamR::AngDist::GaussianDistr</text>
<text text-anchor="middle" x="275.5" y="-109" font-family="Helvetica,sans-Serif" font-size="10.00">::SetPars</text>
</a>
</g>
</g>
<!-- Node1&#45;&gt;Node12 -->
<g id="edge12" class="edge">
<title>Node1&#45;&gt;Node12</title>
<path fill="none" stroke="#63b8ff" d="M104.67,-194.36C135.33,-180.39 192.75,-154.24 232.27,-136.24"/>
<polygon fill="#63b8ff" stroke="#63b8ff" points="233.76,-139.4 241.41,-132.07 230.85,-133.03 233.76,-139.4"/>
</g>
<!-- Node4 -->
<g id="node4" class="node">
<title>Node4</title>
<g id="a_node4"><a xlink:href="../../d0/d66/class_gam_r_1_1_ang_dist_1_1_gaussian_distr.html#a0a71e5a8f2c68571713f8e8fd71e9b9e" target="_top" xlink:title=" ">
<polygon fill="white" stroke="#666666" points="535,-270 386,-270 386,-240 535,-240 535,-270"/>
<text text-anchor="start" x="394" y="-258" font-family="Helvetica,sans-Serif" font-size="10.00">GamR::AngDist::GaussianDistr</text>
<text text-anchor="middle" x="460.5" y="-247" font-family="Helvetica,sans-Serif" font-size="10.00">::GetFunc</text>
</a>
</g>
</g>
<!-- Node3&#45;&gt;Node4 -->
<g id="edge3" class="edge">
<title>Node3&#45;&gt;Node4</title>
<path fill="none" stroke="#63b8ff" d="M316.89,-198.02C327.74,-202.3 339.4,-207.13 350,-212 366.44,-219.55 369.34,-223.94 386,-231 390.48,-232.9 395.16,-234.74 399.9,-236.5"/>
<polygon fill="#63b8ff" stroke="#63b8ff" points="399.06,-239.92 409.66,-240 401.42,-233.33 399.06,-239.92"/>
</g>
<!-- Node5 -->
<g id="node5" class="node">
<title>Node5</title>
<g id="a_node5"><a xlink:href="../../d0/d66/class_gam_r_1_1_ang_dist_1_1_gaussian_distr.html#a95b77d306e541c4f6cf4c633e29c3d33" target="_top" xlink:title=" ">
<polygon fill="white" stroke="#666666" points="535,-222 386,-222 386,-192 535,-192 535,-222"/>
<text text-anchor="start" x="394" y="-210" font-family="Helvetica,sans-Serif" font-size="10.00">GamR::AngDist::GaussianDistr</text>
<text text-anchor="middle" x="460.5" y="-199" font-family="Helvetica,sans-Serif" font-size="10.00">::SetAmp</text>
</a>
</g>
</g>
<!-- Node3&#45;&gt;Node5 -->
<g id="edge4" class="edge">
<title>Node3&#45;&gt;Node5</title>
<path fill="none" stroke="#63b8ff" d="M350.14,-192.66C358.57,-193.76 367.2,-194.89 375.74,-196.02"/>
<polygon fill="#63b8ff" stroke="#63b8ff" points="375.34,-199.49 385.71,-197.32 376.25,-192.55 375.34,-199.49"/>
</g>
<!-- Node3&#45;&gt;Node6 -->
<g id="edge5" class="edge">
<title>Node3&#45;&gt;Node6</title>
<path fill="none" stroke="#63b8ff" d="M328.58,-198.17C336.3,-201.88 343.75,-206.44 350,-212 375.26,-234.46 360.07,-257.31 386,-279 387.54,-280.29 389.16,-281.52 390.83,-282.67"/>
<polygon fill="#63b8ff" stroke="#63b8ff" points="389.24,-285.8 399.62,-287.93 392.84,-279.79 389.24,-285.8"/>
</g>
<!-- Node8 -->
<g id="node8" class="node">
<title>Node8</title>
<g id="a_node8"><a xlink:href="../../d0/d66/class_gam_r_1_1_ang_dist_1_1_gaussian_distr.html#a03348cf6737958c2c453c04505979214" target="_top" xlink:title=" ">
<polygon fill="white" stroke="#666666" points="535,-174 386,-174 386,-144 535,-144 535,-174"/>
<text text-anchor="start" x="394" y="-162" font-family="Helvetica,sans-Serif" font-size="10.00">GamR::AngDist::GaussianDistr</text>
<text text-anchor="middle" x="460.5" y="-151" font-family="Helvetica,sans-Serif" font-size="10.00">::SetFWHM</text>
</a>
</g>
</g>
<!-- Node3&#45;&gt;Node8 -->
<g id="edge7" class="edge">
<title>Node3&#45;&gt;Node8</title>
<path fill="none" stroke="#63b8ff" d="M350.14,-173.34C358.57,-172.24 367.2,-171.11 375.74,-169.98"/>
<polygon fill="#63b8ff" stroke="#63b8ff" points="376.25,-173.45 385.71,-168.68 375.34,-166.51 376.25,-173.45"/>
</g>
<!-- Node9 -->
<g id="node9" class="node">
<title>Node9</title>
<g id="a_node9"><a xlink:href="../../d0/d66/class_gam_r_1_1_ang_dist_1_1_gaussian_distr.html#a33cb5cb42ce83331d7a95fadcc8f0b3f" target="_top" xlink:title=" ">
<polygon fill="white" stroke="#666666" points="535,-126 386,-126 386,-96 535,-96 535,-126"/>
<text text-anchor="start" x="394" y="-114" font-family="Helvetica,sans-Serif" font-size="10.00">GamR::AngDist::GaussianDistr</text>
<text text-anchor="middle" x="460.5" y="-103" font-family="Helvetica,sans-Serif" font-size="10.00">::SetG</text>
</a>
</g>
</g>
<!-- Node3&#45;&gt;Node9 -->
<g id="edge8" class="edge">
<title>Node3&#45;&gt;Node9</title>
<path fill="none" stroke="#63b8ff" d="M328.6,-167.95C335.92,-165.28 343.24,-162.28 350,-159 367.3,-150.6 368.7,-143.4 386,-135 389.8,-133.15 393.78,-131.4 397.84,-129.74"/>
<polygon fill="#63b8ff" stroke="#63b8ff" points="399.33,-132.92 407.4,-126.05 396.81,-126.39 399.33,-132.92"/>
</g>
<!-- Node10 -->
<g id="node10" class="node">
<title>Node10</title>
<g id="a_node10"><a xlink:href="../../d0/d66/class_gam_r_1_1_ang_dist_1_1_gaussian_distr.html#a5576b603deb4001d2bf7d7b383565a77" target="_top" xlink:title=" ">
<polygon fill="white" stroke="#666666" points="535,-78 386,-78 386,-48 535,-48 535,-78"/>
<text text-anchor="start" x="394" y="-66" font-family="Helvetica,sans-Serif" font-size="10.00">GamR::AngDist::GaussianDistr</text>
<text text-anchor="middle" x="460.5" y="-55" font-family="Helvetica,sans-Serif" font-size="10.00">::SetMean</text>
</a>
</g>
</g>
<!-- Node3&#45;&gt;Node10 -->
<g id="edge9" class="edge">
<title>Node3&#45;&gt;Node10</title>
<path fill="none" stroke="#63b8ff" d="M336.85,-167.87C341.57,-165.35 346.03,-162.42 350,-159 377.1,-135.64 358.9,-110.36 386,-87 387.36,-85.83 388.79,-84.71 390.26,-83.64"/>
<polygon fill="#63b8ff" stroke="#63b8ff" points="392.49,-86.38 399.15,-78.13 388.8,-80.43 392.49,-86.38"/>
</g>
<!-- Node11 -->
<g id="node11" class="node">
<title>Node11</title>
<g id="a_node11"><a xlink:href="../../d0/d66/class_gam_r_1_1_ang_dist_1_1_gaussian_distr.html#ad596ff728506fa481997c4514d6b15f6" target="_top" xlink:title=" ">
<polygon fill="white" stroke="#666666" points="535,-30 386,-30 386,0 535,0 535,-30"/>
<text text-anchor="start" x="394" y="-18" font-family="Helvetica,sans-Serif" font-size="10.00">GamR::AngDist::GaussianDistr</text>
<text text-anchor="middle" x="460.5" y="-7" font-family="Helvetica,sans-Serif" font-size="10.00">::SetOffset</text>
</a>
</g>
</g>
<!-- Node3&#45;&gt;Node11 -->
<g id="edge10" class="edge">
<title>Node3&#45;&gt;Node11</title>
<path fill="none" stroke="#63b8ff" d="M338.57,-167.95C342.74,-165.42 346.62,-162.46 350,-159 388.89,-119.15 347.11,-78.85 386,-39 387.05,-37.92 388.16,-36.89 389.31,-35.9"/>
<polygon fill="#63b8ff" stroke="#63b8ff" points="391.36,-38.73 397.43,-30.05 387.27,-33.05 391.36,-38.73"/>
</g>
<!-- Node7 -->
<g id="node7" class="node">
<title>Node7</title>
<g id="a_node7"><a xlink:href="../../d0/d66/class_gam_r_1_1_ang_dist_1_1_gaussian_distr.html#a881a3b0bcf6d61d2f6da05f43a103b4f" target="_top" xlink:title=" ">
<polygon fill="white" stroke="#666666" points="720,-318 571,-318 571,-288 720,-288 720,-318"/>
<text text-anchor="start" x="579" y="-306" font-family="Helvetica,sans-Serif" font-size="10.00">GamR::AngDist::GaussianDistr</text>
<text text-anchor="middle" x="645.5" y="-295" font-family="Helvetica,sans-Serif" font-size="10.00">::Normalise</text>
</a>
</g>
</g>
<!-- Node6&#45;&gt;Node7 -->
<g id="edge6" class="edge">
<title>Node6&#45;&gt;Node7</title>
<path fill="none" stroke="#63b8ff" d="M535.14,-303C543.47,-303 552.01,-303 560.46,-303"/>
<polygon fill="#63b8ff" stroke="#63b8ff" points="560.71,-306.5 570.71,-303 560.71,-299.5 560.71,-306.5"/>
</g>
<!-- Node12&#45;&gt;Node12 -->
<g id="edge13" class="edge">
<title>Node12&#45;&gt;Node12</title>
<path fill="none" stroke="#63b8ff" d="M242.98,-132.28C235.75,-141.41 246.59,-150 275.5,-150 292.66,-150 303.46,-146.97 307.88,-142.6"/>
<polygon fill="#63b8ff" stroke="#63b8ff" points="311.39,-142.32 308.02,-132.28 304.39,-142.23 311.39,-142.32"/>
</g>
</g>
</svg>
        <g id="navigator" transform="translate(0 0)" fill="#404254">
                <rect fill="#f2f5e9" fill-opacity="0.5" stroke="#606060" stroke-width=".5" x="0" y="0" width="60" height="60"/>
                <use id="zoomplus" xlink:href="#zoomPlus" x="17" y="9" onmousedown="handleZoom(evt,'in')"/>
                <use id="zoomminus" xlink:href="#zoomMin" x="42" y="9" onmousedown="handleZoom(evt,'out')"/>
                <use id="reset" xlink:href="#resetDef" x="30" y="36" onmousedown="handleReset()"/>
                <g id="arrowUp" xlink:href="#dirArrow" transform="translate(30 24)" onmousedown="handlePan(0,-1)">
                  <use xlink:href="#rim" fill="#404040">
                        <set attributeName="fill" to="#808080" begin="arrowUp.mouseover" end="arrowUp.mouseout"/>
                  </use>
                  <path fill="none" stroke="white" stroke-width="1.5" d="M0,-3.0v7 M-2.5,-0.5L0,-3.0L2.5,-0.5"/>
                </g>
                <g id="arrowRight" xlink:href="#dirArrow" transform="rotate(90) translate(36 -43)" onmousedown="handlePan(1,0)">
                  <use xlink:href="#rim" fill="#404040">
                        <set attributeName="fill" to="#808080" begin="arrowRight.mouseover" end="arrowRight.mouseout"/>
                  </use>
                  <path fill="none" stroke="white" stroke-width="1.5" d="M0,-3.0v7 M-2.5,-0.5L0,-3.0L2.5,-0.5"/>
                </g>
                <g id="arrowDown" xlink:href="#dirArrow" transform="rotate(180) translate(-30 -48)" onmousedown="handlePan(0,1)">
                  <use xlink:href="#rim" fill="#404040">
                        <set attributeName="fill" to="#808080" begin="arrowDown.mouseover" end="arrowDown.mouseout"/>
                  </use>
                  <path fill="none" stroke="white" stroke-width="1.5" d="M0,-3.0v7 M-2.5,-0.5L0,-3.0L2.5,-0.5"/>
                </g>
                <g id="arrowLeft" xlink:href="#dirArrow" transform="rotate(270) translate(-36 17)" onmousedown="handlePan(-1,0)">
                  <use xlink:href="#rim" fill="#404040">
                        <set attributeName="fill" to="#808080" begin="arrowLeft.mouseover" end="arrowLeft.mouseout"/>
                  </use>
                  <path fill="none" stroke="white" stroke-width="1.5" d="M0,-3.0v7 M-2.5,-0.5L0,-3.0L2.5,-0.5"/>
                </g>
        </g>
        <svg viewBox="0 0 15 15" width="100%" height="30px" preserveAspectRatio="xMaxYMin meet">
         <g id="arrow_out" transform="scale(0.3 0.3)">
          <a xlink:href="class_gam_r_1_1_ang_dist_1_1_gaussian_distr_afb32915f9ebb1709208a0df45d89ced1_cgraph_org.svg" target="_base">
           <rect id="button" ry="5" rx="5" y="6" x="6" height="38" width="38"
                fill="#f2f5e9" fill-opacity="0.5" stroke="#606060" stroke-width="1.0"/>
           <path id="arrow"
             d="M 11.500037,31.436501 C 11.940474,20.09759 22.043105,11.32322 32.158766,21.979434 L 37.068811,17.246167 C 37.068811,17.246167 37.088388,32 37.088388,32 L 22.160133,31.978069 C 22.160133,31.978069 26.997745,27.140456 26.997745,27.140456 C 18.528582,18.264221 13.291696,25.230495 11.500037,31.436501 z"
             style="fill:#404040;"/>
          </a>
         </g>
        </svg>
</svg>
