<?xml version="1.0" encoding="UTF-8" standalone="no"?>
<!DOCTYPE svg PUBLIC "-//W3C//DTD SVG 1.1//EN"
 "http://www.w3.org/Graphics/SVG/1.1/DTD/svg11.dtd">
<!-- Generated by graphviz version 12.2.1 (20241206.2353)
 -->
<!-- Title: GamR::AngDist::GaussianDistr::Fit Pages: 1 -->
<!--zoomable 204 -->

<svg id="main" version="1.1" xmlns="http://www.w3.org/2000/svg" xmlns:xlink="http://www.w3.org/1999/xlink" xml:space="preserve" onload="init(evt)">

<style type="text/css"><![CDATA[
.node, .edge {opacity: 0.7;}
.node.selected, .edge.selected {opacity: 1;}
.edge:hover path { stroke: red; }
.edge:hover polygon { stroke: red; fill: red; }
]]></style>

<defs>
  <circle id="rim" cx="0" cy="0" r="7"/>
  <circle id="rim2" cx="0" cy="0" r="3.5"/>
  <g id="zoomPlus">
    <use xlink:href="#rim" fill="#404040"><set attributeName="fill" to="#808080" begin="zoomplus.mouseover" end="zoomplus.mouseout"/></use>
    <path d="M-4,0h8M0,-4v8" fill="none" stroke="white" stroke-width="1.5" pointer-events="none"/>
  </g>
  <g id="zoomMin">
    <use xlink:href="#rim" fill="#404040"><set attributeName="fill" to="#808080" begin="zoomminus.mouseover" end="zoomminus.mouseout"/></use>
    <path d="M-4,0h8" fill="none" stroke="white" stroke-width="1.5" pointer-events="none"/>
  </g>
  <g id="arrowUp" transform="translate(30 24)">
    <use xlink:href="#rim"/>
    <path pointer-events="none" fill="none" stroke="white" stroke-width="1.5" d="M0,-3.0v7 M-2.5,-0.5L0,-3.0L2.5,-0.5"/>
  </g>
  <g id="arrowRight" transform="rotate(90) translate(36 -43)">
    <use xlink:href="#rim"/>
    <path pointer-events="none" fill="none" stroke="white" stroke-width="1.5" d="M0,-3.0v7 M-2.5,-0.5L0,-3.0L2.5,-0.5"/>
  </g>
  <g id="arrowDown" transform="rotate(180) translate(-30 -48)">
    <use xlink:href="#rim"/>
    <path pointer-events="none" fill="none" stroke="white" stroke-width="1.5" d="M0,-3.0v7 M-2.5,-0.5L0,-3.0L2.5,-0.5"/>
  </g>
  <g id="arrowLeft" transform="rotate(270) translate(-36 17)">
    <use xlink:href="#rim"/>
    <path pointer-events="none" fill="none" stroke="white" stroke-width="1.5" d="M0,-3.0v7 M-2.5,-0.5L0,-3.0L2.5,-0.5"/>
  </g>
  <g id="resetDef">
    <use xlink:href="#rim2" fill="#404040"><set attributeName="fill" to="#808080" begin="reset.mouseover" end="reset.mouseout"/></use>
  </g>
</defs>
<script type="application/ecmascript">
var viewWidth = 542;
var viewHeight = 204;
var sectionId = 'dynsection-3';
</script>
<script type="application/ecmascript" xlink:href="../../svg.min.js"/>
<svg id="graph" class="graph">
<g id="viewport">
<title>GamR::AngDist::GaussianDistr::Fit</title>
<!-- Node1 -->
<g id="Node000001" class="node">
<title>Node1</title>
<g id="a_Node000001"><a xlink:title=" ">
<polygon fill="#999999" stroke="#666666" points="164.5,-115.88 0,-115.88 0,-96.62 164.5,-96.62 164.5,-115.88"/>
<text text-anchor="middle" x="82.25" y="-102.38" font-family="Helvetica,sans-Serif" font-size="10.00">GamR::AngDist::GaussianDistr::Fit</text>
</a>
</g>
</g>
<!-- Node2 -->
<g id="Node000002" class="node">
<title>Node2</title>
<g id="a_Node000002"><a xlink:href="../../d0/d66/class_gam_r_1_1_ang_dist_1_1_gaussian_distr.html#a83f21e40c202039c64d10adffb27521e" target="_top" xlink:title=" ">
<polygon fill="white" stroke="#666666" points="349.25,-195.5 200.5,-195.5 200.5,-165 349.25,-165 349.25,-195.5"/>
<text text-anchor="start" x="208.5" y="-182" font-family="Helvetica,sans-Serif" font-size="10.00">GamR::AngDist::GaussianDistr</text>
<text text-anchor="middle" x="274.88" y="-170.75" font-family="Helvetica,sans-Serif" font-size="10.00">::GetPars</text>
</a>
</g>
</g>
<!-- Node1&#45;&gt;Node2 -->
<g id="edge1_Node000001_Node000002" class="edge">
<title>Node1&#45;&gt;Node2</title>
<g id="a_edge1_Node000001_Node000002"><a xlink:title=" ">
<path fill="none" stroke="#63b8ff" d="M105.98,-116.29C129.47,-126.53 167.28,-142.67 200.5,-155.25 205.43,-157.12 210.57,-159 215.74,-160.85"/>
<polygon fill="#63b8ff" stroke="#63b8ff" points="214.32,-164.06 224.91,-164.08 216.64,-157.45 214.32,-164.06"/>
</a>
</g>
</g>
<!-- Node3 -->
<g id="Node000003" class="node">
<title>Node3</title>
<g id="a_Node000003"><a xlink:href="../../da/d5e/class_gam_r_1_1_ang_dist_1_1_gaussian_distr_1_1_global_chi_square.html#a25963f6a31ae06ee8718430f4f920ba5" target="_top" xlink:title=" ">
<polygon fill="white" stroke="#666666" points="349.25,-146.5 200.5,-146.5 200.5,-116 349.25,-116 349.25,-146.5"/>
<text text-anchor="start" x="208.5" y="-133" font-family="Helvetica,sans-Serif" font-size="10.00">GamR::AngDist::GaussianDistr</text>
<text text-anchor="middle" x="274.88" y="-121.75" font-family="Helvetica,sans-Serif" font-size="10.00">::GlobalChiSquare::minuit</text>
</a>
</g>
</g>
<!-- Node1&#45;&gt;Node3 -->
<g id="edge2_Node000001_Node000003" class="edge">
<title>Node1&#45;&gt;Node3</title>
<g id="a_edge2_Node000001_Node000003"><a xlink:title=" ">
<path fill="none" stroke="#63b8ff" d="M160.24,-116.35C169.67,-117.58 179.35,-118.85 188.89,-120.1"/>
<polygon fill="#63b8ff" stroke="#63b8ff" points="188.13,-123.53 198.5,-121.37 189.04,-116.59 188.13,-123.53"/>
</a>
</g>
</g>
<!-- Node4 -->
<g id="Node000004" class="node">
<title>Node4</title>
<g id="a_Node000004"><a xlink:href="../../d0/d66/class_gam_r_1_1_ang_dist_1_1_gaussian_distr.html#adf997e0aeab4bc362c60b72f01b33bd9" target="_top" xlink:title=" ">
<polygon fill="white" stroke="#666666" points="349.25,-97.5 200.5,-97.5 200.5,-67 349.25,-67 349.25,-97.5"/>
<text text-anchor="start" x="208.5" y="-84" font-family="Helvetica,sans-Serif" font-size="10.00">GamR::AngDist::GaussianDistr</text>
<text text-anchor="middle" x="274.88" y="-72.75" font-family="Helvetica,sans-Serif" font-size="10.00">::SetField</text>
</a>
</g>
</g>
<!-- Node1&#45;&gt;Node4 -->
<g id="edge3_Node000001_Node000004" class="edge">
<title>Node1&#45;&gt;Node4</title>
<g id="a_edge3_Node000001_Node000004"><a xlink:title=" ">
<path fill="none" stroke="#63b8ff" d="M163.54,-96.14C171.86,-95.09 180.35,-94.03 188.72,-92.97"/>
<polygon fill="#63b8ff" stroke="#63b8ff" points="189.07,-96.46 198.55,-91.73 188.19,-89.51 189.07,-96.46"/>
</a>
</g>
</g>
<!-- Node6 -->
<g id="Node000006" class="node">
<title>Node6</title>
<g id="a_Node000006"><a xlink:href="../../d0/d66/class_gam_r_1_1_ang_dist_1_1_gaussian_distr.html#a1ce4601cff334d3d161ccb03e3447114" target="_top" xlink:title=" ">
<polygon fill="white" stroke="#666666" points="349.25,-30.5 200.5,-30.5 200.5,0 349.25,0 349.25,-30.5"/>
<text text-anchor="start" x="208.5" y="-17" font-family="Helvetica,sans-Serif" font-size="10.00">GamR::AngDist::GaussianDistr</text>
<text text-anchor="middle" x="274.88" y="-5.75" font-family="Helvetica,sans-Serif" font-size="10.00">::SetPars</text>
</a>
</g>
</g>
<!-- Node1&#45;&gt;Node6 -->
<g id="edge5_Node000001_Node000006" class="edge">
<title>Node1&#45;&gt;Node6</title>
<g id="a_edge5_Node000001_Node000006"><a xlink:title=" ">
<path fill="none" stroke="#63b8ff" d="M104.38,-96.16C134.75,-81.67 191.41,-54.62 230.82,-35.8"/>
<polygon fill="#63b8ff" stroke="#63b8ff" points="232.31,-38.97 239.82,-31.51 229.29,-32.65 232.31,-38.97"/>
</a>
</g>
</g>
<!-- Node5 -->
<g id="Node000005" class="node">
<title>Node5</title>
<g id="a_Node000005"><a xlink:href="../../d0/d66/class_gam_r_1_1_ang_dist_1_1_gaussian_distr.html#a881a3b0bcf6d61d2f6da05f43a103b4f" target="_top" xlink:title=" ">
<polygon fill="white" stroke="#666666" points="534,-97.5 385.25,-97.5 385.25,-67 534,-67 534,-97.5"/>
<text text-anchor="start" x="393.25" y="-84" font-family="Helvetica,sans-Serif" font-size="10.00">GamR::AngDist::GaussianDistr</text>
<text text-anchor="middle" x="459.62" y="-72.75" font-family="Helvetica,sans-Serif" font-size="10.00">::Normalise</text>
</a>
</g>
</g>
<!-- Node4&#45;&gt;Node5 -->
<g id="edge4_Node000004_Node000005" class="edge">
<title>Node4&#45;&gt;Node5</title>
<g id="a_edge4_Node000004_Node000005"><a xlink:title=" ">
<path fill="none" stroke="#63b8ff" d="M349.68,-82.25C357.47,-82.25 365.43,-82.25 373.33,-82.25"/>
<polygon fill="#63b8ff" stroke="#63b8ff" points="373.33,-85.75 383.33,-82.25 373.33,-78.75 373.33,-85.75"/>
</a>
</g>
</g>
<!-- Node6&#45;&gt;Node6 -->
<g id="edge6_Node000006_Node000006" class="edge">
<title>Node6&#45;&gt;Node6</title>
<g id="a_edge6_Node000006_Node000006"><a xlink:title=" ">
<path fill="none" stroke="#63b8ff" d="M242.14,-30.99C235.46,-40.06 246.37,-48.5 274.88,-48.5 290.46,-48.5 300.79,-45.97 305.86,-42.2"/>
<polygon fill="#63b8ff" stroke="#63b8ff" points="309.29,-42.9 307.38,-32.48 302.38,-41.82 309.29,-42.9"/>
</a>
</g>
</g>
</g>
</svg>

<g id="navigator" transform="translate(0 0)" fill="#404254">
  <rect fill="#f2f5e9" fill-opacity="0.5" stroke="#606060" stroke-width=".5" x="0" y="0" width="60" height="60"/>
  <use id="zoomplus" xlink:href="#zoomPlus" x="17" y="9" onmousedown="handleZoom(evt,'in')"/>
  <use id="zoomminus" xlink:href="#zoomMin" x="42" y="9" onmousedown="handleZoom(evt,'out')"/>
  <use id="reset" xlink:href="#resetDef" x="30" y="36" onmousedown="handleReset()"/>
   <use id="arrowup" xlink:href="#arrowUp" x="0" y="0" onmousedown="handlePan(0,-1)"/>
  <use id="arrowright" xlink:href="#arrowRight" x="0" y="0" onmousedown="handlePan(1,0)"/>
  <use id="arrowdown" xlink:href="#arrowDown" x="0" y="0" onmousedown="handlePan(0,1)"/>
  <use id="arrowleft" xlink:href="#arrowLeft" x="0" y="0" onmousedown="handlePan(-1,0)"/>
</g>
<svg viewBox="0 0 15 15" width="100%" height="30px" preserveAspectRatio="xMaxYMin meet">
 <g id="arrow_out" transform="scale(0.3 0.3)">
  <a xlink:href="class_gam_r_1_1_ang_dist_1_1_gaussian_distr_afb32915f9ebb1709208a0df45d89ced1_cgraph_org.svg" target="_base">
   <rect id="button" ry="5" rx="5" y="6" x="6" height="38" width="38"
        fill="#f2f5e9" fill-opacity="0.5" stroke="#606060" stroke-width="1.0"/>
   <path id="arrow"
     d="M 11.500037,31.436501 C 11.940474,20.09759 22.043105,11.32322 32.158766,21.979434 L 37.068811,17.246167 C 37.068811,17.246167 37.088388,32 37.088388,32 L 22.160133,31.978069 C 22.160133,31.978069 26.997745,27.140456 26.997745,27.140456 C 18.528582,18.264221 13.291696,25.230495 11.500037,31.436501 z"
     style="fill:#404040;"/>
  </a>
 </g>
</svg>

<style type='text/css'>
<![CDATA[
[data-mouse-over-selected='false'] { opacity: 0.7; }
[data-mouse-over-selected='true']  { opacity: 1.0; }
]]>
</style>
<script type="application/ecmascript"><![CDATA[
document.addEventListener('DOMContentLoaded', (event) => {
  highlightEdges();
  highlightAdjacentNodes();
});
]]></script>
</svg>
