<?xml version="1.0" encoding="UTF-8" standalone="no"?>
<!DOCTYPE svg PUBLIC "-//W3C//DTD SVG 1.1//EN"
 "http://www.w3.org/Graphics/SVG/1.1/DTD/svg11.dtd">
<!-- Generated by graphviz version 5.0.0 (20220708.1001)
 -->
<!-- Title: src/lib/efficiency/Efficiency.cc Pages: 1 -->
<!--zoomable 263 -->
<svg id="main" version="1.1" xmlns="http://www.w3.org/2000/svg" xmlns:xlink="http://www.w3.org/1999/xlink" xml:space="preserve" onload="init(evt)">
<style type="text/css"><![CDATA[
.edge:hover path { stroke: red; }
.edge:hover polygon { stroke: red; fill: red; }
]]></style>
<script type="text/javascript"><![CDATA[
var edges = document.getElementsByTagName('g');
if (edges && edges.length) {
  for (var i=0;i<edges.length;i++) {
    if (edges[i].id.substr(0,4)=='edge') {
      edges[i].setAttribute('class','edge');
    }
  }
}
]]></script>
        <defs>
                <circle id="rim" cx="0" cy="0" r="7"/>
                <circle id="rim2" cx="0" cy="0" r="3.5"/>
                <g id="zoomPlus">
                        <use xlink:href="#rim" fill="#404040">
                                <set attributeName="fill" to="#808080" begin="zoomplus.mouseover" end="zoomplus.mouseout"/>
                        </use>
                        <path d="M-4,0h8M0,-4v8" fill="none" stroke="white" stroke-width="1.5" pointer-events="none"/>
                </g>
                <g id="zoomMin">
                        <use xlink:href="#rim" fill="#404040">
                                <set attributeName="fill" to="#808080" begin="zoomminus.mouseover" end="zoomminus.mouseout"/>
                        </use>
                        <path d="M-4,0h8" fill="none" stroke="white" stroke-width="1.5" pointer-events="none"/>
                </g>
                <g id="dirArrow">
                        <path fill="none" stroke="white" stroke-width="1.5" d="M0,-3.0v7 M-2.5,-0.5L0,-3.0L2.5,-0.5"/>
                </g>
               <g id="resetDef">
                       <use xlink:href="#rim2" fill="#404040">
                               <set attributeName="fill" to="#808080" begin="reset.mouseover" end="reset.mouseout"/>
                       </use>
               </g>
        </defs>

<script type="text/javascript">
var viewWidth = 929;
var viewHeight = 263;
var sectionId = 'dynsection-0';
</script>
<script xlink:href="../../svgpan.js"/>
<svg id="graph" class="graph">
<g id="viewport">
<title>src/lib/efficiency/Efficiency.cc</title>
<polygon fill="white" stroke="transparent" points="-4,4 -4,-259 924.5,-259 924.5,4 -4,4"/>
<!-- Node1 -->
<g id="node1" class="node">
<title>Node1</title>
<g id="a_node1"><a xlink:title=" ">
<polygon fill="#bfbfbf" stroke="black" points="458.5,-224.5 458.5,-254.5 544.5,-254.5 544.5,-224.5 458.5,-224.5"/>
<text text-anchor="start" x="466.5" y="-242.5" font-family="Helvetica,sans-Serif" font-size="10.00">src/lib/efficiency</text>
<text text-anchor="middle" x="501.5" y="-231.5" font-family="Helvetica,sans-Serif" font-size="10.00">/Efficiency.cc</text>
</a>
</g>
</g>
<!-- Node2 -->
<g id="node2" class="node">
<title>Node2</title>
<g id="a_node2"><a xlink:title=" ">
<polygon fill="white" stroke="#bfbfbf" points="59.5,-0.5 59.5,-19.5 111.5,-19.5 111.5,-0.5 59.5,-0.5"/>
<text text-anchor="middle" x="85.5" y="-7.5" font-family="Helvetica,sans-Serif" font-size="10.00">sstream</text>
</a>
</g>
</g>
<!-- Node1&#45;&gt;Node2 -->
<g id="edge1" class="edge">
<title>Node1&#45;&gt;Node2</title>
<path fill="none" stroke="midnightblue" d="M458.27,-235.78C373.04,-229.91 186.58,-214.4 128.5,-188 94.09,-172.36 80.12,-166.42 64.5,-132 48.93,-97.68 64.87,-53.07 76.23,-28.74"/>
<polygon fill="midnightblue" stroke="midnightblue" points="79.43,-30.16 80.72,-19.65 73.15,-27.07 79.43,-30.16"/>
</g>
<!-- Node3 -->
<g id="node3" class="node">
<title>Node3</title>
<g id="a_node3"><a xlink:title=" ">
<polygon fill="white" stroke="#bfbfbf" points="130,-0.5 130,-19.5 165,-19.5 165,-0.5 130,-0.5"/>
<text text-anchor="middle" x="147.5" y="-7.5" font-family="Helvetica,sans-Serif" font-size="10.00">map</text>
</a>
</g>
</g>
<!-- Node1&#45;&gt;Node3 -->
<g id="edge2" class="edge">
<title>Node1&#45;&gt;Node3</title>
<path fill="none" stroke="midnightblue" d="M458.32,-234.55C359.27,-224.49 120.79,-194.15 75.5,-132 49.03,-95.68 97.72,-49.12 127.26,-25.76"/>
<polygon fill="midnightblue" stroke="midnightblue" points="129.55,-28.41 135.36,-19.55 125.29,-22.86 129.55,-28.41"/>
</g>
<!-- Node4 -->
<g id="node4" class="node">
<title>Node4</title>
<g id="a_node4"><a xlink:title=" ">
<polygon fill="white" stroke="#bfbfbf" points="0,-0.5 0,-19.5 41,-19.5 41,-0.5 0,-0.5"/>
<text text-anchor="middle" x="20.5" y="-7.5" font-family="Helvetica,sans-Serif" font-size="10.00">string</text>
</a>
</g>
</g>
<!-- Node1&#45;&gt;Node4 -->
<g id="edge3" class="edge">
<title>Node1&#45;&gt;Node4</title>
<path fill="none" stroke="midnightblue" d="M458.34,-238.04C364.93,-236.29 147.58,-227.92 87.5,-188 33.93,-152.4 23.11,-67.75 20.99,-29.88"/>
<polygon fill="midnightblue" stroke="midnightblue" points="24.48,-29.58 20.57,-19.74 17.48,-29.87 24.48,-29.58"/>
</g>
<!-- Node5 -->
<g id="node5" class="node">
<title>Node5</title>
<g id="a_node5"><a xlink:title=" ">
<polygon fill="white" stroke="#bfbfbf" points="586.5,-168.5 586.5,-187.5 636.5,-187.5 636.5,-168.5 586.5,-168.5"/>
<text text-anchor="middle" x="611.5" y="-175.5" font-family="Helvetica,sans-Serif" font-size="10.00">fstream</text>
</a>
</g>
</g>
<!-- Node1&#45;&gt;Node5 -->
<g id="edge4" class="edge">
<title>Node1&#45;&gt;Node5</title>
<path fill="none" stroke="midnightblue" d="M527.57,-224.4C545.37,-214.77 568.81,-202.09 586.4,-192.58"/>
<polygon fill="midnightblue" stroke="midnightblue" points="588.36,-195.49 595.49,-187.66 585.03,-189.34 588.36,-195.49"/>
</g>
<!-- Node6 -->
<g id="node6" class="node">
<title>Node6</title>
<g id="a_node6"><a xlink:title=" ">
<polygon fill="white" stroke="#bfbfbf" points="84.5,-112.5 84.5,-131.5 128.5,-131.5 128.5,-112.5 84.5,-112.5"/>
<text text-anchor="middle" x="106.5" y="-119.5" font-family="Helvetica,sans-Serif" font-size="10.00">vector</text>
</a>
</g>
</g>
<!-- Node1&#45;&gt;Node6 -->
<g id="edge5" class="edge">
<title>Node1&#45;&gt;Node6</title>
<path fill="none" stroke="midnightblue" d="M458.4,-227.17C420.83,-217.2 364.93,-202.1 316.5,-188 253.16,-169.56 179.62,-146.39 138.52,-133.28"/>
<polygon fill="midnightblue" stroke="midnightblue" points="139.39,-129.88 128.8,-130.17 137.26,-136.55 139.39,-129.88"/>
</g>
<!-- Node7 -->
<g id="node7" class="node">
<title>Node7</title>
<g id="a_node7"><a xlink:title=" ">
<polygon fill="white" stroke="#bfbfbf" points="709,-0.5 709,-19.5 752,-19.5 752,-0.5 709,-0.5"/>
<text text-anchor="middle" x="730.5" y="-7.5" font-family="Helvetica,sans-Serif" font-size="10.00">TH1.h</text>
</a>
</g>
</g>
<!-- Node1&#45;&gt;Node7 -->
<g id="edge6" class="edge">
<title>Node1&#45;&gt;Node7</title>
<path fill="none" stroke="midnightblue" d="M515.07,-224.39C529.74,-209.51 554.18,-185.79 577.5,-168 601.62,-149.6 612.9,-152.24 635.5,-132 671.16,-100.07 703.45,-53.55 719.61,-28.51"/>
<polygon fill="midnightblue" stroke="midnightblue" points="722.76,-30.08 725.16,-19.76 716.85,-26.33 722.76,-30.08"/>
</g>
<!-- Node8 -->
<g id="node8" class="node">
<title>Node8</title>
<g id="a_node8"><a xlink:title=" ">
<polygon fill="white" stroke="#bfbfbf" points="389,-112.5 389,-131.5 430,-131.5 430,-112.5 389,-112.5"/>
<text text-anchor="middle" x="409.5" y="-119.5" font-family="Helvetica,sans-Serif" font-size="10.00">TF1.h</text>
</a>
</g>
</g>
<!-- Node1&#45;&gt;Node8 -->
<g id="edge7" class="edge">
<title>Node1&#45;&gt;Node8</title>
<path fill="none" stroke="midnightblue" d="M490.22,-224.34C473.19,-202.96 440.99,-162.53 422.83,-139.73"/>
<polygon fill="midnightblue" stroke="midnightblue" points="425.37,-137.31 416.41,-131.67 419.9,-141.67 425.37,-137.31"/>
</g>
<!-- Node9 -->
<g id="node9" class="node">
<title>Node9</title>
<g id="a_node9"><a xlink:title=" ">
<polygon fill="white" stroke="#bfbfbf" points="654.5,-168.5 654.5,-187.5 710.5,-187.5 710.5,-168.5 654.5,-168.5"/>
<text text-anchor="middle" x="682.5" y="-175.5" font-family="Helvetica,sans-Serif" font-size="10.00">TGraph.h</text>
</a>
</g>
</g>
<!-- Node1&#45;&gt;Node9 -->
<g id="edge8" class="edge">
<title>Node1&#45;&gt;Node9</title>
<path fill="none" stroke="midnightblue" d="M544.39,-224.4C575.53,-214.16 617.19,-200.47 646.58,-190.81"/>
<polygon fill="midnightblue" stroke="midnightblue" points="648.02,-194.02 656.43,-187.57 645.83,-187.37 648.02,-194.02"/>
</g>
<!-- Node10 -->
<g id="node10" class="node">
<title>Node10</title>
<g id="a_node10"><a xlink:title=" ">
<polygon fill="white" stroke="#bfbfbf" points="448.5,-112.5 448.5,-131.5 530.5,-131.5 530.5,-112.5 448.5,-112.5"/>
<text text-anchor="middle" x="489.5" y="-119.5" font-family="Helvetica,sans-Serif" font-size="10.00">TGraphErrors.h</text>
</a>
</g>
</g>
<!-- Node1&#45;&gt;Node10 -->
<g id="edge9" class="edge">
<title>Node1&#45;&gt;Node10</title>
<path fill="none" stroke="midnightblue" d="M500.03,-224.34C497.88,-203.62 493.87,-165.02 491.46,-141.9"/>
<polygon fill="midnightblue" stroke="midnightblue" points="494.92,-141.25 490.4,-131.67 487.95,-141.98 494.92,-141.25"/>
</g>
<!-- Node11 -->
<g id="node11" class="node">
<title>Node11</title>
<g id="a_node11"><a xlink:title=" ">
<polygon fill="white" stroke="#bfbfbf" points="549,-112.5 549,-131.5 626,-131.5 626,-112.5 549,-112.5"/>
<text text-anchor="middle" x="587.5" y="-119.5" font-family="Helvetica,sans-Serif" font-size="10.00">TMultiGraph.h</text>
</a>
</g>
</g>
<!-- Node1&#45;&gt;Node11 -->
<g id="edge10" class="edge">
<title>Node1&#45;&gt;Node11</title>
<path fill="none" stroke="midnightblue" d="M508.91,-224.41C516.89,-209.76 530.35,-186.42 544.5,-168 552.38,-157.74 562.3,-147.23 570.62,-138.96"/>
<polygon fill="midnightblue" stroke="midnightblue" points="573.27,-141.27 577.99,-131.78 568.39,-136.25 573.27,-141.27"/>
</g>
<!-- Node12 -->
<g id="node12" class="node">
<title>Node12</title>
<g id="a_node12"><a xlink:title=" ">
<polygon fill="white" stroke="#bfbfbf" points="728.5,-168.5 728.5,-187.5 774.5,-187.5 774.5,-168.5 728.5,-168.5"/>
<text text-anchor="middle" x="751.5" y="-175.5" font-family="Helvetica,sans-Serif" font-size="10.00">TFile.h</text>
</a>
</g>
</g>
<!-- Node1&#45;&gt;Node12 -->
<g id="edge11" class="edge">
<title>Node1&#45;&gt;Node12</title>
<path fill="none" stroke="midnightblue" d="M544.66,-229.12C586.68,-219.86 652.56,-204.96 718.7,-188.12"/>
<polygon fill="midnightblue" stroke="midnightblue" points="719.64,-191.49 728.46,-185.62 717.91,-184.71 719.64,-191.49"/>
</g>
<!-- Node13 -->
<g id="node13" class="node">
<title>Node13</title>
<g id="a_node13"><a xlink:title=" ">
<polygon fill="white" stroke="#bfbfbf" points="793,-168.5 793,-187.5 846,-187.5 846,-168.5 793,-168.5"/>
<text text-anchor="middle" x="819.5" y="-175.5" font-family="Helvetica,sans-Serif" font-size="10.00">TColor.h</text>
</a>
</g>
</g>
<!-- Node1&#45;&gt;Node13 -->
<g id="edge12" class="edge">
<title>Node1&#45;&gt;Node13</title>
<path fill="none" stroke="midnightblue" d="M544.68,-231.7C598.21,-223.07 692.44,-207.19 782.94,-188"/>
<polygon fill="midnightblue" stroke="midnightblue" points="783.76,-191.4 792.81,-185.89 782.3,-184.55 783.76,-191.4"/>
</g>
<!-- Node14 -->
<g id="node14" class="node">
<title>Node14</title>
<g id="a_node14"><a xlink:title=" ">
<polygon fill="white" stroke="#bfbfbf" points="864.5,-168.5 864.5,-187.5 920.5,-187.5 920.5,-168.5 864.5,-168.5"/>
<text text-anchor="middle" x="892.5" y="-175.5" font-family="Helvetica,sans-Serif" font-size="10.00">TMinuit.h</text>
</a>
</g>
</g>
<!-- Node1&#45;&gt;Node14 -->
<g id="edge13" class="edge">
<title>Node1&#45;&gt;Node14</title>
<path fill="none" stroke="midnightblue" d="M544.77,-233.7C609.88,-226.17 737.05,-210.31 854.41,-188.05"/>
<polygon fill="midnightblue" stroke="midnightblue" points="855.12,-191.48 864.28,-186.16 853.8,-184.61 855.12,-191.48"/>
</g>
<!-- Node15 -->
<g id="node15" class="node">
<title>Node15</title>
<g id="a_node15"><a xlink:href="../../da/df3/_efficiency_8hh.html" target="_top" xlink:title=" ">
<polygon fill="white" stroke="black" points="325.5,-168.5 325.5,-187.5 395.5,-187.5 395.5,-168.5 325.5,-168.5"/>
<text text-anchor="middle" x="360.5" y="-175.5" font-family="Helvetica,sans-Serif" font-size="10.00">Efficiency.hh</text>
</a>
</g>
</g>
<!-- Node1&#45;&gt;Node15 -->
<g id="edge14" class="edge">
<title>Node1&#45;&gt;Node15</title>
<path fill="none" stroke="midnightblue" d="M468.08,-224.4C444.53,-214.46 413.26,-201.26 390.51,-191.66"/>
<polygon fill="midnightblue" stroke="midnightblue" points="391.59,-188.32 381.02,-187.66 388.87,-194.77 391.59,-188.32"/>
</g>
<!-- Node15&#45;&gt;Node3 -->
<g id="edge16" class="edge">
<title>Node15&#45;&gt;Node3</title>
<path fill="none" stroke="midnightblue" d="M325.47,-169.5C287.72,-160.86 230.72,-146.04 213.5,-132 180.09,-104.75 161.02,-55.92 152.65,-29.38"/>
<polygon fill="midnightblue" stroke="midnightblue" points="156,-28.38 149.79,-19.8 149.29,-30.38 156,-28.38"/>
</g>
<!-- Node15&#45;&gt;Node4 -->
<g id="edge17" class="edge">
<title>Node15&#45;&gt;Node4</title>
<path fill="none" stroke="midnightblue" d="M325.26,-171.39C290.17,-164.95 235.36,-152.54 191.5,-132 130.05,-103.22 67.34,-52.12 37.85,-26.52"/>
<polygon fill="midnightblue" stroke="midnightblue" points="39.94,-23.7 30.12,-19.73 35.32,-28.96 39.94,-23.7"/>
</g>
<!-- Node15&#45;&gt;Node6 -->
<g id="edge15" class="edge">
<title>Node15&#45;&gt;Node6</title>
<path fill="none" stroke="midnightblue" d="M325.29,-170.2C282.11,-161.75 206.74,-146.65 142.5,-132 141.23,-131.71 139.93,-131.41 138.62,-131.1"/>
<polygon fill="midnightblue" stroke="midnightblue" points="139.09,-127.61 128.55,-128.67 137.45,-134.42 139.09,-127.61"/>
</g>
<!-- Node15&#45;&gt;Node7 -->
<g id="edge18" class="edge">
<title>Node15&#45;&gt;Node7</title>
<path fill="none" stroke="midnightblue" d="M360.53,-168.09C361.06,-154.16 364.17,-127.26 379.5,-112 404.18,-87.43 634.49,-36.69 698.83,-20.01"/>
<polygon fill="midnightblue" stroke="midnightblue" points="700.08,-23.29 708.82,-17.3 698.25,-16.53 700.08,-23.29"/>
</g>
<!-- Node15&#45;&gt;Node8 -->
<g id="edge19" class="edge">
<title>Node15&#45;&gt;Node8</title>
<path fill="none" stroke="midnightblue" d="M368.59,-168.08C375.66,-160.3 386.09,-148.8 394.65,-139.37"/>
<polygon fill="midnightblue" stroke="midnightblue" points="397.43,-141.51 401.56,-131.75 392.25,-136.8 397.43,-141.51"/>
</g>
<!-- Node15&#45;&gt;Node10 -->
<g id="edge20" class="edge">
<title>Node15&#45;&gt;Node10</title>
<path fill="none" stroke="midnightblue" d="M380.94,-168.44C402.17,-159.56 435.6,-145.56 459.75,-135.45"/>
<polygon fill="midnightblue" stroke="midnightblue" points="461.28,-138.61 469.16,-131.52 458.58,-132.15 461.28,-138.61"/>
</g>
<!-- Node15&#45;&gt;Node11 -->
<g id="edge21" class="edge">
<title>Node15&#45;&gt;Node11</title>
<path fill="none" stroke="midnightblue" d="M395.97,-168.56C435.22,-159.23 498.6,-144.15 541.6,-133.92"/>
<polygon fill="midnightblue" stroke="midnightblue" points="542.61,-137.28 551.53,-131.56 540.99,-130.47 542.61,-137.28"/>
</g>
<!-- Node16 -->
<g id="node16" class="node">
<title>Node16</title>
<g id="a_node16"><a xlink:href="../../d3/d2c/_transition_8hh.html" target="_top" xlink:title=" ">
<polygon fill="white" stroke="black" points="223,-112.5 223,-131.5 332,-131.5 332,-112.5 223,-112.5"/>
<text text-anchor="middle" x="277.5" y="-119.5" font-family="Helvetica,sans-Serif" font-size="10.00">nucleus/Transition.hh</text>
</a>
</g>
</g>
<!-- Node15&#45;&gt;Node16 -->
<g id="edge22" class="edge">
<title>Node15&#45;&gt;Node16</title>
<path fill="none" stroke="midnightblue" d="M347.16,-168.32C334.34,-159.98 314.72,-147.21 299.56,-137.35"/>
<polygon fill="midnightblue" stroke="midnightblue" points="301.09,-134.17 290.8,-131.65 297.28,-140.04 301.09,-134.17"/>
</g>
<!-- Node16&#45;&gt;Node3 -->
<g id="edge23" class="edge">
<title>Node16&#45;&gt;Node3</title>
<path fill="none" stroke="midnightblue" d="M267.3,-112.37C245.28,-93.73 193.04,-49.53 165.39,-26.13"/>
<polygon fill="midnightblue" stroke="midnightblue" points="167.55,-23.38 157.65,-19.59 163.03,-28.72 167.55,-23.38"/>
</g>
<!-- Node16&#45;&gt;Node4 -->
<g id="edge25" class="edge">
<title>Node16&#45;&gt;Node4</title>
<path fill="none" stroke="midnightblue" d="M257.33,-112.37C212.2,-93.05 102.88,-46.26 50.05,-23.65"/>
<polygon fill="midnightblue" stroke="midnightblue" points="51.14,-20.31 40.57,-19.59 48.39,-26.74 51.14,-20.31"/>
</g>
<!-- Node17 -->
<g id="node17" class="node">
<title>Node17</title>
<g id="a_node17"><a xlink:title=" ">
<polygon fill="white" stroke="#bfbfbf" points="183.5,-0.5 183.5,-19.5 237.5,-19.5 237.5,-0.5 183.5,-0.5"/>
<text text-anchor="middle" x="210.5" y="-7.5" font-family="Helvetica,sans-Serif" font-size="10.00">iostream</text>
</a>
</g>
</g>
<!-- Node16&#45;&gt;Node17 -->
<g id="edge24" class="edge">
<title>Node16&#45;&gt;Node17</title>
<path fill="none" stroke="midnightblue" d="M272.24,-112.37C261.23,-94.3 235.58,-52.18 221.04,-28.31"/>
<polygon fill="midnightblue" stroke="midnightblue" points="223.92,-26.31 215.73,-19.59 217.95,-29.95 223.92,-26.31"/>
</g>
<!-- Node18 -->
<g id="node18" class="node">
<title>Node18</title>
<g id="a_node18"><a xlink:title=" ">
<polygon fill="white" stroke="#bfbfbf" points="255.5,-0.5 255.5,-19.5 309.5,-19.5 309.5,-0.5 255.5,-0.5"/>
<text text-anchor="middle" x="282.5" y="-7.5" font-family="Helvetica,sans-Serif" font-size="10.00">Rtypes.h</text>
</a>
</g>
</g>
<!-- Node16&#45;&gt;Node18 -->
<g id="edge26" class="edge">
<title>Node16&#45;&gt;Node18</title>
<path fill="none" stroke="midnightblue" d="M277.89,-112.37C278.7,-94.62 280.56,-53.67 281.65,-29.6"/>
<polygon fill="midnightblue" stroke="midnightblue" points="285.15,-29.74 282.11,-19.59 278.16,-29.42 285.15,-29.74"/>
</g>
<!-- Node19 -->
<g id="node19" class="node">
<title>Node19</title>
<g id="a_node19"><a xlink:title=" ">
<polygon fill="white" stroke="#bfbfbf" points="628.5,-0.5 628.5,-19.5 690.5,-19.5 690.5,-0.5 628.5,-0.5"/>
<text text-anchor="middle" x="659.5" y="-7.5" font-family="Helvetica,sans-Serif" font-size="10.00">TNamed.h</text>
</a>
</g>
</g>
<!-- Node16&#45;&gt;Node19 -->
<g id="edge27" class="edge">
<title>Node16&#45;&gt;Node19</title>
<path fill="none" stroke="midnightblue" d="M307.43,-112.47C335.83,-104.1 379.55,-90.51 416.5,-76 436.12,-68.3 439.55,-62.8 459.5,-56 459.74,-55.92 559.76,-33.43 618.24,-20.28"/>
<polygon fill="midnightblue" stroke="midnightblue" points="619.31,-23.62 628.3,-18.02 617.77,-16.79 619.31,-23.62"/>
</g>
<!-- Node20 -->
<g id="node20" class="node">
<title>Node20</title>
<g id="a_node20"><a xlink:href="../../dd/d50/_gate_8hh.html" target="_top" xlink:title=" ">
<polygon fill="white" stroke="black" points="327.5,-56.5 327.5,-75.5 407.5,-75.5 407.5,-56.5 327.5,-56.5"/>
<text text-anchor="middle" x="367.5" y="-63.5" font-family="Helvetica,sans-Serif" font-size="10.00">toolkit/Gate.hh</text>
</a>
</g>
</g>
<!-- Node16&#45;&gt;Node20 -->
<g id="edge28" class="edge">
<title>Node16&#45;&gt;Node20</title>
<path fill="none" stroke="midnightblue" d="M291.96,-112.32C306,-103.9 327.55,-90.97 344.04,-81.07"/>
<polygon fill="midnightblue" stroke="midnightblue" points="346.3,-83.8 353.08,-75.65 342.7,-77.8 346.3,-83.8"/>
</g>
<!-- Node20&#45;&gt;Node2 -->
<g id="edge31" class="edge">
<title>Node20&#45;&gt;Node2</title>
<path fill="none" stroke="midnightblue" d="M327.11,-58.55C280.06,-50.84 199.8,-37.07 121.82,-20.17"/>
<polygon fill="midnightblue" stroke="midnightblue" points="122.34,-16.7 111.83,-17.98 120.85,-23.54 122.34,-16.7"/>
</g>
<!-- Node20&#45;&gt;Node3 -->
<g id="edge30" class="edge">
<title>Node20&#45;&gt;Node3</title>
<path fill="none" stroke="midnightblue" d="M327.3,-56.76C290.14,-48.9 233.21,-36.21 174.9,-19.9"/>
<polygon fill="midnightblue" stroke="midnightblue" points="175.72,-16.5 165.15,-17.14 173.82,-23.23 175.72,-16.5"/>
</g>
<!-- Node20&#45;&gt;Node4 -->
<g id="edge32" class="edge">
<title>Node20&#45;&gt;Node4</title>
<path fill="none" stroke="midnightblue" d="M327.37,-61.26C268.7,-55.37 155.99,-42.43 50.87,-19.76"/>
<polygon fill="midnightblue" stroke="midnightblue" points="51.57,-16.33 41.05,-17.61 50.07,-23.17 51.57,-16.33"/>
</g>
<!-- Node20&#45;&gt;Node7 -->
<g id="edge37" class="edge">
<title>Node20&#45;&gt;Node7</title>
<path fill="none" stroke="midnightblue" d="M407.65,-60.31C479.66,-51.79 628.98,-33.54 698.82,-19.79"/>
<polygon fill="midnightblue" stroke="midnightblue" points="699.83,-23.15 708.92,-17.71 698.42,-16.29 699.83,-23.15"/>
</g>
<!-- Node20&#45;&gt;Node17 -->
<g id="edge33" class="edge">
<title>Node20&#45;&gt;Node17</title>
<path fill="none" stroke="midnightblue" d="M342.62,-56.44C316.21,-47.36 274.28,-32.94 244.76,-22.78"/>
<polygon fill="midnightblue" stroke="midnightblue" points="245.86,-19.46 235.26,-19.52 243.58,-26.08 245.86,-19.46"/>
</g>
<!-- Node20&#45;&gt;Node18 -->
<g id="edge34" class="edge">
<title>Node20&#45;&gt;Node18</title>
<path fill="none" stroke="midnightblue" d="M353.84,-56.32C340.58,-47.9 320.23,-34.97 304.65,-25.07"/>
<polygon fill="midnightblue" stroke="midnightblue" points="306.44,-22.06 296.12,-19.65 302.69,-27.97 306.44,-22.06"/>
</g>
<!-- Node20&#45;&gt;Node19 -->
<g id="edge39" class="edge">
<title>Node20&#45;&gt;Node19</title>
<path fill="none" stroke="midnightblue" d="M407.56,-58.07C464.1,-48.26 565.46,-30.52 617.96,-20.22"/>
<polygon fill="midnightblue" stroke="midnightblue" points="618.96,-23.59 628.09,-18.21 617.59,-16.73 618.96,-23.59"/>
</g>
<!-- Node21 -->
<g id="node21" class="node">
<title>Node21</title>
<g id="a_node21"><a xlink:title=" ">
<polygon fill="white" stroke="#bfbfbf" points="470.5,-0.5 470.5,-19.5 526.5,-19.5 526.5,-0.5 470.5,-0.5"/>
<text text-anchor="middle" x="498.5" y="-7.5" font-family="Helvetica,sans-Serif" font-size="10.00">algorithm</text>
</a>
</g>
</g>
<!-- Node20&#45;&gt;Node21 -->
<g id="edge29" class="edge">
<title>Node20&#45;&gt;Node21</title>
<path fill="none" stroke="midnightblue" d="M388.26,-56.44C409.82,-47.56 443.76,-33.56 468.29,-23.45"/>
<polygon fill="midnightblue" stroke="midnightblue" points="469.93,-26.56 477.84,-19.52 467.26,-20.09 469.93,-26.56"/>
</g>
<!-- Node22 -->
<g id="node22" class="node">
<title>Node22</title>
<g id="a_node22"><a xlink:title=" ">
<polygon fill="white" stroke="#bfbfbf" points="544.5,-0.5 544.5,-19.5 610.5,-19.5 610.5,-0.5 544.5,-0.5"/>
<text text-anchor="middle" x="577.5" y="-7.5" font-family="Helvetica,sans-Serif" font-size="10.00">TBrowser.h</text>
</a>
</g>
</g>
<!-- Node20&#45;&gt;Node22 -->
<g id="edge35" class="edge">
<title>Node20&#45;&gt;Node22</title>
<path fill="none" stroke="midnightblue" d="M400.78,-56.44C436.95,-47.14 494.88,-32.25 534.48,-22.06"/>
<polygon fill="midnightblue" stroke="midnightblue" points="535.57,-25.4 544.38,-19.52 533.82,-18.62 535.57,-25.4"/>
</g>
<!-- Node23 -->
<g id="node23" class="node">
<title>Node23</title>
<g id="a_node23"><a xlink:title=" ">
<polygon fill="white" stroke="#bfbfbf" points="328,-0.5 328,-19.5 391,-19.5 391,-0.5 328,-0.5"/>
<text text-anchor="middle" x="359.5" y="-7.5" font-family="Helvetica,sans-Serif" font-size="10.00">TCanvas.h</text>
</a>
</g>
</g>
<!-- Node20&#45;&gt;Node23 -->
<g id="edge36" class="edge">
<title>Node20&#45;&gt;Node23</title>
<path fill="none" stroke="midnightblue" d="M366.18,-56.08C365.12,-48.93 363.59,-38.64 362.27,-29.69"/>
<polygon fill="midnightblue" stroke="midnightblue" points="365.72,-29.13 360.8,-19.75 358.8,-30.16 365.72,-29.13"/>
</g>
<!-- Node24 -->
<g id="node24" class="node">
<title>Node24</title>
<g id="a_node24"><a xlink:title=" ">
<polygon fill="white" stroke="#bfbfbf" points="409,-0.5 409,-19.5 452,-19.5 452,-0.5 409,-0.5"/>
<text text-anchor="middle" x="430.5" y="-7.5" font-family="Helvetica,sans-Serif" font-size="10.00">TH2.h</text>
</a>
</g>
</g>
<!-- Node20&#45;&gt;Node24 -->
<g id="edge38" class="edge">
<title>Node20&#45;&gt;Node24</title>
<path fill="none" stroke="midnightblue" d="M377.62,-56.32C387.03,-48.26 401.24,-36.08 412.57,-26.37"/>
<polygon fill="midnightblue" stroke="midnightblue" points="414.88,-29 420.19,-19.83 410.32,-23.68 414.88,-29"/>
</g>
</g>
</svg>
        <g id="navigator" transform="translate(0 0)" fill="#404254">
                <rect fill="#f2f5e9" fill-opacity="0.5" stroke="#606060" stroke-width=".5" x="0" y="0" width="60" height="60"/>
                <use id="zoomplus" xlink:href="#zoomPlus" x="17" y="9" onmousedown="handleZoom(evt,'in')"/>
                <use id="zoomminus" xlink:href="#zoomMin" x="42" y="9" onmousedown="handleZoom(evt,'out')"/>
                <use id="reset" xlink:href="#resetDef" x="30" y="36" onmousedown="handleReset()"/>
                <g id="arrowUp" xlink:href="#dirArrow" transform="translate(30 24)" onmousedown="handlePan(0,-1)">
                  <use xlink:href="#rim" fill="#404040">
                        <set attributeName="fill" to="#808080" begin="arrowUp.mouseover" end="arrowUp.mouseout"/>
                  </use>
                  <path fill="none" stroke="white" stroke-width="1.5" d="M0,-3.0v7 M-2.5,-0.5L0,-3.0L2.5,-0.5"/>
                </g>
                <g id="arrowRight" xlink:href="#dirArrow" transform="rotate(90) translate(36 -43)" onmousedown="handlePan(1,0)">
                  <use xlink:href="#rim" fill="#404040">
                        <set attributeName="fill" to="#808080" begin="arrowRight.mouseover" end="arrowRight.mouseout"/>
                  </use>
                  <path fill="none" stroke="white" stroke-width="1.5" d="M0,-3.0v7 M-2.5,-0.5L0,-3.0L2.5,-0.5"/>
                </g>
                <g id="arrowDown" xlink:href="#dirArrow" transform="rotate(180) translate(-30 -48)" onmousedown="handlePan(0,1)">
                  <use xlink:href="#rim" fill="#404040">
                        <set attributeName="fill" to="#808080" begin="arrowDown.mouseover" end="arrowDown.mouseout"/>
                  </use>
                  <path fill="none" stroke="white" stroke-width="1.5" d="M0,-3.0v7 M-2.5,-0.5L0,-3.0L2.5,-0.5"/>
                </g>
                <g id="arrowLeft" xlink:href="#dirArrow" transform="rotate(270) translate(-36 17)" onmousedown="handlePan(-1,0)">
                  <use xlink:href="#rim" fill="#404040">
                        <set attributeName="fill" to="#808080" begin="arrowLeft.mouseover" end="arrowLeft.mouseout"/>
                  </use>
                  <path fill="none" stroke="white" stroke-width="1.5" d="M0,-3.0v7 M-2.5,-0.5L0,-3.0L2.5,-0.5"/>
                </g>
        </g>
        <svg viewBox="0 0 15 15" width="100%" height="30px" preserveAspectRatio="xMaxYMin meet">
         <g id="arrow_out" transform="scale(0.3 0.3)">
          <a xlink:href="_efficiency_8cc__incl_org.svg" target="_base">
           <rect id="button" ry="5" rx="5" y="6" x="6" height="38" width="38"
                fill="#f2f5e9" fill-opacity="0.5" stroke="#606060" stroke-width="1.0"/>
           <path id="arrow"
             d="M 11.500037,31.436501 C 11.940474,20.09759 22.043105,11.32322 32.158766,21.979434 L 37.068811,17.246167 C 37.068811,17.246167 37.088388,32 37.088388,32 L 22.160133,31.978069 C 22.160133,31.978069 26.997745,27.140456 26.997745,27.140456 C 18.528582,18.264221 13.291696,25.230495 11.500037,31.436501 z"
             style="fill:#404040;"/>
          </a>
         </g>
        </svg>
</svg>
