<?xml version="1.0" encoding="UTF-8" standalone="no"?>
<!DOCTYPE svg PUBLIC "-//W3C//DTD SVG 1.1//EN"
 "http://www.w3.org/Graphics/SVG/1.1/DTD/svg11.dtd">
<!-- Generated by graphviz version 2.49.3 (20211023.0002)
 -->
<!-- Title: GamR::AngDist::AngCorrFit::GetNCombs Pages: 1 -->
<svg width="500pt" height="176pt"
 viewBox="0.00 0.00 500.00 176.00" xmlns="http://www.w3.org/2000/svg" xmlns:xlink="http://www.w3.org/1999/xlink">
<g id="graph0" class="graph" transform="scale(1 1) rotate(0) translate(4 172)">
<title>GamR::AngDist::AngCorrFit::GetNCombs</title>
<polygon fill="white" stroke="transparent" points="-4,4 -4,-172 496,-172 496,4 -4,4"/>
<!-- Node1 -->
<g id="node1" class="node">
<title>Node1</title>
<g id="a_node1"><a xlink:title=" ">
<polygon fill="#bfbfbf" stroke="black" points="352,-71.5 352,-101.5 492,-101.5 492,-71.5 352,-71.5"/>
<text text-anchor="start" x="360" y="-89.5" font-family="Helvetica,sans-Serif" font-size="10.00">GamR::AngDist::AngCorrFit</text>
<text text-anchor="middle" x="422" y="-78.5" font-family="Helvetica,sans-Serif" font-size="10.00">::GetNCombs</text>
</a>
</g>
</g>
<!-- Node2 -->
<g id="node2" class="node">
<title>Node2</title>
<g id="a_node2"><a xlink:href="../../d2/da9/class_gam_r_1_1_ang_dist_1_1_ang_corr_fit.html#a030a9df7c30731fbeb7337688a28e6c7" target="_top" xlink:title=" ">
<polygon fill="white" stroke="black" points="176,-137.5 176,-167.5 316,-167.5 316,-137.5 176,-137.5"/>
<text text-anchor="start" x="184" y="-155.5" font-family="Helvetica,sans-Serif" font-size="10.00">GamR::AngDist::AngCorrFit</text>
<text text-anchor="middle" x="246" y="-144.5" font-family="Helvetica,sans-Serif" font-size="10.00">::DrawAngCorr</text>
</a>
</g>
</g>
<!-- Node1&#45;&gt;Node2 -->
<g id="edge1" class="edge">
<title>Node1&#45;&gt;Node2</title>
<path fill="none" stroke="midnightblue" d="M371.48,-105.28C344.63,-115.47 311.9,-127.88 286.73,-137.43"/>
<polygon fill="midnightblue" stroke="midnightblue" points="372.97,-108.46 381.08,-101.64 370.49,-101.92 372.97,-108.46"/>
</g>
<!-- Node3 -->
<g id="node3" class="node">
<title>Node3</title>
<g id="a_node3"><a xlink:href="../../d2/da9/class_gam_r_1_1_ang_dist_1_1_ang_corr_fit.html#ae0d8c505c6272e84a35125c118d04237" target="_top" xlink:title=" ">
<polygon fill="white" stroke="black" points="0,-71.5 0,-101.5 140,-101.5 140,-71.5 0,-71.5"/>
<text text-anchor="start" x="8" y="-89.5" font-family="Helvetica,sans-Serif" font-size="10.00">GamR::AngDist::AngCorrFit</text>
<text text-anchor="middle" x="70" y="-78.5" font-family="Helvetica,sans-Serif" font-size="10.00">::DrawChiGraph</text>
</a>
</g>
</g>
<!-- Node1&#45;&gt;Node3 -->
<g id="edge2" class="edge">
<title>Node1&#45;&gt;Node3</title>
<path fill="none" stroke="midnightblue" d="M341.68,-89.01C333.01,-89.21 324.32,-89.38 316,-89.5 253.78,-90.39 238.22,-90.39 176,-89.5 164.42,-89.33 152.13,-89.07 140.18,-88.76"/>
<polygon fill="midnightblue" stroke="midnightblue" points="341.91,-92.5 351.82,-88.76 341.73,-85.5 341.91,-92.5"/>
</g>
<!-- Node4 -->
<g id="node4" class="node">
<title>Node4</title>
<g id="a_node4"><a xlink:href="../../d2/da9/class_gam_r_1_1_ang_dist_1_1_ang_corr_fit.html#a97a615ac3eee64961d103fe9629a5c19" target="_top" xlink:title=" ">
<polygon fill="white" stroke="black" points="176,-49.5 176,-79.5 316,-79.5 316,-49.5 176,-49.5"/>
<text text-anchor="start" x="184" y="-67.5" font-family="Helvetica,sans-Serif" font-size="10.00">GamR::AngDist::AngCorrFit</text>
<text text-anchor="middle" x="246" y="-56.5" font-family="Helvetica,sans-Serif" font-size="10.00">::GetChiGraph</text>
</a>
</g>
</g>
<!-- Node1&#45;&gt;Node4 -->
<g id="edge3" class="edge">
<title>Node1&#45;&gt;Node4</title>
<path fill="none" stroke="midnightblue" d="M341.97,-76.51C333.38,-75.42 324.68,-74.32 316.22,-73.25"/>
<polygon fill="midnightblue" stroke="midnightblue" points="341.62,-79.99 351.98,-77.77 342.5,-73.05 341.62,-79.99"/>
</g>
<!-- Node5 -->
<g id="node5" class="node">
<title>Node5</title>
<g id="a_node5"><a xlink:href="../../d2/da9/class_gam_r_1_1_ang_dist_1_1_ang_corr_fit.html#ad9334d18a5aa340cc0de938e0301c61f" target="_top" xlink:title=" ">
<polygon fill="white" stroke="black" points="176,-0.5 176,-30.5 316,-30.5 316,-0.5 176,-0.5"/>
<text text-anchor="start" x="184" y="-18.5" font-family="Helvetica,sans-Serif" font-size="10.00">GamR::AngDist::AngCorrFit</text>
<text text-anchor="middle" x="246" y="-7.5" font-family="Helvetica,sans-Serif" font-size="10.00">::Save</text>
</a>
</g>
</g>
<!-- Node1&#45;&gt;Node5 -->
<g id="edge5" class="edge">
<title>Node1&#45;&gt;Node5</title>
<path fill="none" stroke="midnightblue" d="M378.82,-67.27C359.76,-58.77 336.87,-48.84 316,-40.5 307.6,-37.14 298.55,-33.72 289.86,-30.54"/>
<polygon fill="midnightblue" stroke="midnightblue" points="377.57,-70.55 388.13,-71.44 380.43,-64.16 377.57,-70.55"/>
</g>
<!-- Node4&#45;&gt;Node3 -->
<g id="edge4" class="edge">
<title>Node4&#45;&gt;Node3</title>
<path fill="none" stroke="midnightblue" d="M165.97,-74.49C157.38,-75.58 148.68,-76.68 140.22,-77.75"/>
<polygon fill="midnightblue" stroke="midnightblue" points="166.5,-77.95 175.98,-73.23 165.62,-71.01 166.5,-77.95"/>
</g>
</g>
</svg>
