<?xml version="1.0" encoding="UTF-8" standalone="no"?>
<!DOCTYPE svg PUBLIC "-//W3C//DTD SVG 1.1//EN"
 "http://www.w3.org/Graphics/SVG/1.1/DTD/svg11.dtd">
<!-- Generated by graphviz version 2.49.3 (20211023.0002)
 -->
<!-- Title: GamR::AngDist::AngCorrFit::Fit Pages: 1 -->
<!--zoomable 263 -->
<svg id="main" version="1.1" xmlns="http://www.w3.org/2000/svg" xmlns:xlink="http://www.w3.org/1999/xlink" xml:space="preserve" onload="init(evt)">
<style type="text/css"><![CDATA[
.edge:hover path { stroke: red; }
.edge:hover polygon { stroke: red; fill: red; }
]]></style>
<script type="text/javascript"><![CDATA[
var edges = document.getElementsByTagName('g');
if (edges && edges.length) {
  for (var i=0;i<edges.length;i++) {
    if (edges[i].id.substr(0,4)=='edge') {
      edges[i].setAttribute('class','edge');
    }
  }
}
]]></script>
        <defs>
                <circle id="rim" cx="0" cy="0" r="7"/>
                <circle id="rim2" cx="0" cy="0" r="3.5"/>
                <g id="zoomPlus">
                        <use xlink:href="#rim" fill="#404040">
                                <set attributeName="fill" to="#808080" begin="zoomplus.mouseover" end="zoomplus.mouseout"/>
                        </use>
                        <path d="M-4,0h8M0,-4v8" fill="none" stroke="white" stroke-width="1.5" pointer-events="none"/>
                </g>
                <g id="zoomMin">
                        <use xlink:href="#rim" fill="#404040">
                                <set attributeName="fill" to="#808080" begin="zoomminus.mouseover" end="zoomminus.mouseout"/>
                        </use>
                        <path d="M-4,0h8" fill="none" stroke="white" stroke-width="1.5" pointer-events="none"/>
                </g>
                <g id="dirArrow">
                        <path fill="none" stroke="white" stroke-width="1.5" d="M0,-3.0v7 M-2.5,-0.5L0,-3.0L2.5,-0.5"/>
                </g>
               <g id="resetDef">
                       <use xlink:href="#rim2" fill="#404040">
                               <set attributeName="fill" to="#808080" begin="reset.mouseover" end="reset.mouseout"/>
                       </use>
               </g>
        </defs>

<script type="text/javascript">
var viewWidth = 699;
var viewHeight = 263;
var sectionId = 'dynsection-9';
</script>
<script xlink:href="../../svgpan.js"/>
<svg id="graph" class="graph">
<g id="viewport">
<title>GamR::AngDist::AngCorrFit::Fit</title>
<polygon fill="white" stroke="transparent" points="-4,4 -4,-259 695,-259 695,4 -4,4"/>
<!-- Node1 -->
<g id="node1" class="node">
<title>Node1</title>
<g id="a_node1"><a xlink:title=" ">
<polygon fill="#bfbfbf" stroke="black" points="0,-118 0,-137 157,-137 157,-118 0,-118"/>
<text text-anchor="middle" x="78.5" y="-125" font-family="Helvetica,sans-Serif" font-size="10.00">GamR::AngDist::AngCorrFit::Fit</text>
</a>
</g>
</g>
<!-- Node2 -->
<g id="node2" class="node">
<title>Node2</title>
<g id="a_node2"><a xlink:href="../../d2/da9/class_gam_r_1_1_ang_dist_1_1_ang_corr_fit.html#aea5839b405c7bdc201f23fb609acad5a" target="_top" xlink:title=" ">
<polygon fill="white" stroke="black" points="193,-224.5 193,-254.5 333,-254.5 333,-224.5 193,-224.5"/>
<text text-anchor="start" x="201" y="-242.5" font-family="Helvetica,sans-Serif" font-size="10.00">GamR::AngDist::AngCorrFit</text>
<text text-anchor="middle" x="263" y="-231.5" font-family="Helvetica,sans-Serif" font-size="10.00">::Average</text>
</a>
</g>
</g>
<!-- Node1&#45;&gt;Node2 -->
<g id="edge1" class="edge">
<title>Node1&#45;&gt;Node2</title>
<path fill="none" stroke="midnightblue" d="M89.64,-137.25C108.56,-154.98 151.14,-192.79 193,-215.5 196.26,-217.27 199.67,-218.94 203.16,-220.53"/>
<polygon fill="midnightblue" stroke="midnightblue" points="201.95,-223.82 212.53,-224.5 204.69,-217.37 201.95,-223.82"/>
</g>
<!-- Node4 -->
<g id="node4" class="node">
<title>Node4</title>
<g id="a_node4"><a xlink:href="../../d2/da9/class_gam_r_1_1_ang_dist_1_1_ang_corr_fit.html#ae8da376a3b1939de1ca2df5a88c830c6" target="_top" xlink:title=" ">
<polygon fill="white" stroke="black" points="193,-175.5 193,-205.5 333,-205.5 333,-175.5 193,-175.5"/>
<text text-anchor="start" x="201" y="-193.5" font-family="Helvetica,sans-Serif" font-size="10.00">GamR::AngDist::AngCorrFit</text>
<text text-anchor="middle" x="263" y="-182.5" font-family="Helvetica,sans-Serif" font-size="10.00">::GetGraph</text>
</a>
</g>
</g>
<!-- Node1&#45;&gt;Node4 -->
<g id="edge3" class="edge">
<title>Node1&#45;&gt;Node4</title>
<path fill="none" stroke="midnightblue" d="M107.22,-137.07C134.08,-146.34 175.53,-160.65 208.78,-172.13"/>
<polygon fill="midnightblue" stroke="midnightblue" points="207.76,-175.48 218.36,-175.43 210.05,-168.86 207.76,-175.48"/>
</g>
<!-- Node5 -->
<g id="node5" class="node">
<title>Node5</title>
<g id="a_node5"><a xlink:href="../../d0/d17/_abbreviations_8cc.html#abfd2dbc0c115ba48ef99c0b72edfce7a" target="_top" xlink:title=" ">
<polygon fill="white" stroke="black" points="248.5,-137 248.5,-156 277.5,-156 277.5,-137 248.5,-137"/>
<text text-anchor="middle" x="263" y="-144" font-family="Helvetica,sans-Serif" font-size="10.00">ig</text>
</a>
</g>
</g>
<!-- Node1&#45;&gt;Node5 -->
<g id="edge5" class="edge">
<title>Node1&#45;&gt;Node5</title>
<path fill="none" stroke="midnightblue" d="M157.16,-135.59C186.44,-138.63 217.62,-141.88 238.3,-144.03"/>
<polygon fill="midnightblue" stroke="midnightblue" points="238.04,-147.52 248.35,-145.08 238.77,-140.56 238.04,-147.52"/>
</g>
<!-- Node9 -->
<g id="node9" class="node">
<title>Node9</title>
<g id="a_node9"><a xlink:href="../../da/d73/class_gam_r_1_1_ang_dist_1_1_ang_corr.html#a5820aca3c27eca5ac487a83c958076f7" target="_top" xlink:title=" ">
<polygon fill="white" stroke="black" points="374.5,-49.5 374.5,-79.5 503.5,-79.5 503.5,-49.5 374.5,-49.5"/>
<text text-anchor="start" x="382.5" y="-67.5" font-family="Helvetica,sans-Serif" font-size="10.00">GamR::AngDist::AngCorr</text>
<text text-anchor="middle" x="439" y="-56.5" font-family="Helvetica,sans-Serif" font-size="10.00">::Mixed</text>
</a>
</g>
</g>
<!-- Node1&#45;&gt;Node9 -->
<g id="edge9" class="edge">
<title>Node1&#45;&gt;Node9</title>
<path fill="none" stroke="midnightblue" d="M154.38,-117.98C205,-111.12 273.25,-101.07 333,-89.5 344.64,-87.25 356.94,-84.58 368.87,-81.84"/>
<polygon fill="midnightblue" stroke="midnightblue" points="369.83,-85.21 378.77,-79.53 368.24,-78.39 369.83,-85.21"/>
</g>
<!-- Node10 -->
<g id="node10" class="node">
<title>Node10</title>
<g id="a_node10"><a xlink:href="../../da/d73/class_gam_r_1_1_ang_dist_1_1_ang_corr.html#ad883a52cf63a6ee2b4bfbdd133c6d145" target="_top" xlink:title=" ">
<polygon fill="white" stroke="black" points="198.5,-49.5 198.5,-79.5 327.5,-79.5 327.5,-49.5 198.5,-49.5"/>
<text text-anchor="start" x="206.5" y="-67.5" font-family="Helvetica,sans-Serif" font-size="10.00">GamR::AngDist::AngCorr</text>
<text text-anchor="middle" x="263" y="-56.5" font-family="Helvetica,sans-Serif" font-size="10.00">::Mixed1</text>
</a>
</g>
</g>
<!-- Node1&#45;&gt;Node10 -->
<g id="edge10" class="edge">
<title>Node1&#45;&gt;Node10</title>
<path fill="none" stroke="midnightblue" d="M107.22,-117.93C134.08,-108.66 175.53,-94.35 208.78,-82.87"/>
<polygon fill="midnightblue" stroke="midnightblue" points="210.05,-86.14 218.36,-79.57 207.76,-79.52 210.05,-86.14"/>
</g>
<!-- Node11 -->
<g id="node11" class="node">
<title>Node11</title>
<g id="a_node11"><a xlink:href="../../da/d73/class_gam_r_1_1_ang_dist_1_1_ang_corr.html#a2ce08f5274d4e7b9467b7dfd65831a73" target="_top" xlink:title=" ">
<polygon fill="white" stroke="black" points="198.5,-0.5 198.5,-30.5 327.5,-30.5 327.5,-0.5 198.5,-0.5"/>
<text text-anchor="start" x="206.5" y="-18.5" font-family="Helvetica,sans-Serif" font-size="10.00">GamR::AngDist::AngCorr</text>
<text text-anchor="middle" x="263" y="-7.5" font-family="Helvetica,sans-Serif" font-size="10.00">::Mixed2</text>
</a>
</g>
</g>
<!-- Node1&#45;&gt;Node11 -->
<g id="edge12" class="edge">
<title>Node1&#45;&gt;Node11</title>
<path fill="none" stroke="midnightblue" d="M89.69,-117.93C108.7,-100.49 151.4,-63.27 193,-40.5 196.88,-38.38 200.97,-36.37 205.15,-34.49"/>
<polygon fill="midnightblue" stroke="midnightblue" points="206.55,-37.7 214.39,-30.57 203.81,-31.25 206.55,-37.7"/>
</g>
<!-- Node3 -->
<g id="node3" class="node">
<title>Node3</title>
<g id="a_node3"><a xlink:href="../../d2/da9/class_gam_r_1_1_ang_dist_1_1_ang_corr_fit.html#a4d81cebc9b14541b49741fdc1e705345" target="_top" xlink:title=" ">
<polygon fill="white" stroke="black" points="369,-199.5 369,-229.5 509,-229.5 509,-199.5 369,-199.5"/>
<text text-anchor="start" x="377" y="-217.5" font-family="Helvetica,sans-Serif" font-size="10.00">GamR::AngDist::AngCorrFit</text>
<text text-anchor="middle" x="439" y="-206.5" font-family="Helvetica,sans-Serif" font-size="10.00">::GetNPoints</text>
</a>
</g>
</g>
<!-- Node2&#45;&gt;Node3 -->
<g id="edge2" class="edge">
<title>Node2&#45;&gt;Node3</title>
<path fill="none" stroke="midnightblue" d="M333.02,-229.58C341.48,-228.37 350.17,-227.12 358.76,-225.88"/>
<polygon fill="midnightblue" stroke="midnightblue" points="359.38,-229.33 368.78,-224.45 358.38,-222.4 359.38,-229.33"/>
</g>
<!-- Node4&#45;&gt;Node3 -->
<g id="edge4" class="edge">
<title>Node4&#45;&gt;Node3</title>
<path fill="none" stroke="midnightblue" d="M333.02,-200.02C341.48,-201.19 350.17,-202.39 358.76,-203.57"/>
<polygon fill="midnightblue" stroke="midnightblue" points="358.4,-207.05 368.78,-204.95 359.35,-200.12 358.4,-207.05"/>
</g>
<!-- Node6 -->
<g id="node6" class="node">
<title>Node6</title>
<g id="a_node6"><a xlink:href="../../dc/d89/namespace_gam_r_1_1_spect.html#afbcb55a2fec43bce818cc083d4ce1a67" target="_top" xlink:title=" ">
<polygon fill="white" stroke="black" points="381.5,-137 381.5,-156 496.5,-156 496.5,-137 381.5,-137"/>
<text text-anchor="middle" x="439" y="-144" font-family="Helvetica,sans-Serif" font-size="10.00">GamR::Spect::Integral</text>
</a>
</g>
</g>
<!-- Node5&#45;&gt;Node6 -->
<g id="edge6" class="edge">
<title>Node5&#45;&gt;Node6</title>
<path fill="none" stroke="midnightblue" d="M277.65,-146.5C297.78,-146.5 336.75,-146.5 371.24,-146.5"/>
<polygon fill="midnightblue" stroke="midnightblue" points="371.3,-150 381.3,-146.5 371.3,-143 371.3,-150"/>
</g>
<!-- Node7 -->
<g id="node7" class="node">
<title>Node7</title>
<g id="a_node7"><a xlink:href="../../d0/d74/group___t_k.html#gaae543a7d595e5faacbfb4da05718e3f3" target="_top" xlink:title=" ">
<polygon fill="white" stroke="black" points="545,-159 545,-178 691,-178 691,-159 545,-159"/>
<text text-anchor="middle" x="618" y="-166" font-family="Helvetica,sans-Serif" font-size="10.00">GamR::TK::Gate::GetIntegral</text>
</a>
</g>
</g>
<!-- Node6&#45;&gt;Node7 -->
<g id="edge7" class="edge">
<title>Node6&#45;&gt;Node7</title>
<path fill="none" stroke="midnightblue" d="M496.98,-153.58C509.02,-155.08 521.96,-156.69 534.72,-158.27"/>
<polygon fill="midnightblue" stroke="midnightblue" points="534.54,-161.78 544.9,-159.54 535.41,-154.83 534.54,-161.78"/>
</g>
<!-- Node8 -->
<g id="node8" class="node">
<title>Node8</title>
<g id="a_node8"><a xlink:href="../../d0/d74/group___t_k.html#gaa69e554368ffbdbf2a5aa6cb6828e52b" target="_top" xlink:title=" ">
<polygon fill="white" stroke="black" points="545,-109.5 545,-139.5 691,-139.5 691,-109.5 545,-109.5"/>
<text text-anchor="start" x="553" y="-127.5" font-family="Helvetica,sans-Serif" font-size="10.00">GamR::TK::Gate::GetIntegral</text>
<text text-anchor="middle" x="618" y="-116.5" font-family="Helvetica,sans-Serif" font-size="10.00">Error</text>
</a>
</g>
</g>
<!-- Node6&#45;&gt;Node8 -->
<g id="edge8" class="edge">
<title>Node6&#45;&gt;Node8</title>
<path fill="none" stroke="midnightblue" d="M496.98,-139.42C509.02,-137.92 521.96,-136.31 534.72,-134.73"/>
<polygon fill="midnightblue" stroke="midnightblue" points="535.41,-138.17 544.9,-133.46 534.54,-131.22 535.41,-138.17"/>
</g>
<!-- Node10&#45;&gt;Node9 -->
<g id="edge11" class="edge">
<title>Node10&#45;&gt;Node9</title>
<path fill="none" stroke="midnightblue" d="M327.8,-64.5C339.7,-64.5 352.22,-64.5 364.38,-64.5"/>
<polygon fill="midnightblue" stroke="midnightblue" points="364.5,-68 374.5,-64.5 364.5,-61 364.5,-68"/>
</g>
<!-- Node11&#45;&gt;Node9 -->
<g id="edge13" class="edge">
<title>Node11&#45;&gt;Node9</title>
<path fill="none" stroke="midnightblue" d="M317.63,-30.6C335.74,-35.7 356.12,-41.44 374.9,-46.73"/>
<polygon fill="midnightblue" stroke="midnightblue" points="373.98,-50.11 384.55,-49.45 375.87,-43.37 373.98,-50.11"/>
</g>
</g>
</svg>
        <g id="navigator" transform="translate(0 0)" fill="#404254">
                <rect fill="#f2f5e9" fill-opacity="0.5" stroke="#606060" stroke-width=".5" x="0" y="0" width="60" height="60"/>
                <use id="zoomplus" xlink:href="#zoomPlus" x="17" y="9" onmousedown="handleZoom(evt,'in')"/>
                <use id="zoomminus" xlink:href="#zoomMin" x="42" y="9" onmousedown="handleZoom(evt,'out')"/>
                <use id="reset" xlink:href="#resetDef" x="30" y="36" onmousedown="handleReset()"/>
                <g id="arrowUp" xlink:href="#dirArrow" transform="translate(30 24)" onmousedown="handlePan(0,-1)">
                  <use xlink:href="#rim" fill="#404040">
                        <set attributeName="fill" to="#808080" begin="arrowUp.mouseover" end="arrowUp.mouseout"/>
                  </use>
                  <path fill="none" stroke="white" stroke-width="1.5" d="M0,-3.0v7 M-2.5,-0.5L0,-3.0L2.5,-0.5"/>
                </g>
                <g id="arrowRight" xlink:href="#dirArrow" transform="rotate(90) translate(36 -43)" onmousedown="handlePan(1,0)">
                  <use xlink:href="#rim" fill="#404040">
                        <set attributeName="fill" to="#808080" begin="arrowRight.mouseover" end="arrowRight.mouseout"/>
                  </use>
                  <path fill="none" stroke="white" stroke-width="1.5" d="M0,-3.0v7 M-2.5,-0.5L0,-3.0L2.5,-0.5"/>
                </g>
                <g id="arrowDown" xlink:href="#dirArrow" transform="rotate(180) translate(-30 -48)" onmousedown="handlePan(0,1)">
                  <use xlink:href="#rim" fill="#404040">
                        <set attributeName="fill" to="#808080" begin="arrowDown.mouseover" end="arrowDown.mouseout"/>
                  </use>
                  <path fill="none" stroke="white" stroke-width="1.5" d="M0,-3.0v7 M-2.5,-0.5L0,-3.0L2.5,-0.5"/>
                </g>
                <g id="arrowLeft" xlink:href="#dirArrow" transform="rotate(270) translate(-36 17)" onmousedown="handlePan(-1,0)">
                  <use xlink:href="#rim" fill="#404040">
                        <set attributeName="fill" to="#808080" begin="arrowLeft.mouseover" end="arrowLeft.mouseout"/>
                  </use>
                  <path fill="none" stroke="white" stroke-width="1.5" d="M0,-3.0v7 M-2.5,-0.5L0,-3.0L2.5,-0.5"/>
                </g>
        </g>
        <svg viewBox="0 0 15 15" width="100%" height="30px" preserveAspectRatio="xMaxYMin meet">
         <g id="arrow_out" transform="scale(0.3 0.3)">
          <a xlink:href="class_gam_r_1_1_ang_dist_1_1_ang_corr_fit_afb40b46c8473166d5449b680a03eed79_cgraph_org.svg" target="_base">
           <rect id="button" ry="5" rx="5" y="6" x="6" height="38" width="38"
                fill="#f2f5e9" fill-opacity="0.5" stroke="#606060" stroke-width="1.0"/>
           <path id="arrow"
             d="M 11.500037,31.436501 C 11.940474,20.09759 22.043105,11.32322 32.158766,21.979434 L 37.068811,17.246167 C 37.068811,17.246167 37.088388,32 37.088388,32 L 22.160133,31.978069 C 22.160133,31.978069 26.997745,27.140456 26.997745,27.140456 C 18.528582,18.264221 13.291696,25.230495 11.500037,31.436501 z"
             style="fill:#404040;"/>
          </a>
         </g>
        </svg>
</svg>
