<?xml version="1.0" encoding="UTF-8" standalone="no"?>
<!DOCTYPE svg PUBLIC "-//W3C//DTD SVG 1.1//EN"
 "http://www.w3.org/Graphics/SVG/1.1/DTD/svg11.dtd">
<!-- Generated by graphviz version 8.1.0 (20230707.0739)
 -->
<!-- Title: src/bin/his2root/his2root.cc Pages: 1 -->
<svg width="440pt" height="83pt"
 viewBox="0.00 0.00 439.62 82.50" xmlns="http://www.w3.org/2000/svg" xmlns:xlink="http://www.w3.org/1999/xlink">
<g id="graph0" class="graph" transform="scale(1 1) rotate(0) translate(4 78.5)">
<title>src/bin/his2root/his2root.cc</title>
<!-- Node1 -->
<g id="Node000001" class="node">
<title>Node1</title>
<g id="a_Node000001"><a xlink:title=" ">
<polygon fill="#999999" stroke="#666666" points="294,-74.5 161,-74.5 161,-55.25 294,-55.25 294,-74.5"/>
<text text-anchor="middle" x="227.5" y="-61" font-family="Helvetica,sans-Serif" font-size="10.00">src/bin/his2root/his2root.cc</text>
</a>
</g>
</g>
<!-- Node2 -->
<g id="Node000002" class="node">
<title>Node2</title>
<g id="a_Node000002"><a xlink:title=" ">
<polygon fill="#e0e0e0" stroke="#999999" points="49,-19.25 0,-19.25 0,0 49,0 49,-19.25"/>
<text text-anchor="middle" x="24.5" y="-5.75" font-family="Helvetica,sans-Serif" font-size="10.00">fstream</text>
</a>
</g>
</g>
<!-- Node1&#45;&gt;Node2 -->
<g id="edge1_Node000001_Node000002" class="edge">
<title>Node1&#45;&gt;Node2</title>
<g id="a_edge1_Node000001_Node000002"><a xlink:title=" ">
<path fill="none" stroke="#63b8ff" d="M193.06,-54.84C156,-45.12 97.34,-29.73 59.91,-19.91"/>
<polygon fill="#63b8ff" stroke="#63b8ff" points="61.04,-16.33 50.48,-17.18 59.27,-23.1 61.04,-16.33"/>
</a>
</g>
</g>
<!-- Node3 -->
<g id="Node000003" class="node">
<title>Node3</title>
<g id="a_Node000003"><a xlink:title=" ">
<polygon fill="#e0e0e0" stroke="#999999" points="120.25,-19.25 66.75,-19.25 66.75,0 120.25,0 120.25,-19.25"/>
<text text-anchor="middle" x="93.5" y="-5.75" font-family="Helvetica,sans-Serif" font-size="10.00">iostream</text>
</a>
</g>
</g>
<!-- Node1&#45;&gt;Node3 -->
<g id="edge2_Node000001_Node000003" class="edge">
<title>Node1&#45;&gt;Node3</title>
<g id="a_edge2_Node000001_Node000003"><a xlink:title=" ">
<path fill="none" stroke="#63b8ff" d="M204.77,-54.84C183.3,-46.31 150.87,-33.42 126.55,-23.76"/>
<polygon fill="#63b8ff" stroke="#63b8ff" points="127.93,-20.14 117.34,-19.7 125.34,-26.65 127.93,-20.14"/>
</a>
</g>
</g>
<!-- Node4 -->
<g id="Node000004" class="node">
<title>Node4</title>
<g id="a_Node000004"><a xlink:title=" ">
<polygon fill="#e0e0e0" stroke="#999999" points="189.12,-19.25 137.88,-19.25 137.88,0 189.12,0 189.12,-19.25"/>
<text text-anchor="middle" x="163.5" y="-5.75" font-family="Helvetica,sans-Serif" font-size="10.00">sstream</text>
</a>
</g>
</g>
<!-- Node1&#45;&gt;Node4 -->
<g id="edge3_Node000001_Node000004" class="edge">
<title>Node1&#45;&gt;Node4</title>
<g id="a_edge3_Node000001_Node000004"><a xlink:title=" ">
<path fill="none" stroke="#63b8ff" d="M216.64,-54.84C207.3,-47.07 193.61,-35.67 182.46,-26.4"/>
<polygon fill="#63b8ff" stroke="#63b8ff" points="185.12,-23.23 175.2,-19.52 180.64,-28.61 185.12,-23.23"/>
</a>
</g>
</g>
<!-- Node5 -->
<g id="Node000005" class="node">
<title>Node5</title>
<g id="a_Node000005"><a xlink:title=" ">
<polygon fill="#e0e0e0" stroke="#999999" points="247.5,-19.25 207.5,-19.25 207.5,0 247.5,0 247.5,-19.25"/>
<text text-anchor="middle" x="227.5" y="-5.75" font-family="Helvetica,sans-Serif" font-size="10.00">string</text>
</a>
</g>
</g>
<!-- Node1&#45;&gt;Node5 -->
<g id="edge4_Node000001_Node000005" class="edge">
<title>Node1&#45;&gt;Node5</title>
<g id="a_edge4_Node000001_Node000005"><a xlink:title=" ">
<path fill="none" stroke="#63b8ff" d="M227.5,-55.08C227.5,-48.42 227.5,-38.99 227.5,-30.53"/>
<polygon fill="#63b8ff" stroke="#63b8ff" points="231,-30.61 227.5,-20.61 224,-30.61 231,-30.61"/>
</a>
</g>
</g>
<!-- Node6 -->
<g id="Node000006" class="node">
<title>Node6</title>
<g id="a_Node000006"><a xlink:title=" ">
<polygon fill="#e0e0e0" stroke="#999999" points="311.12,-19.25 265.88,-19.25 265.88,0 311.12,0 311.12,-19.25"/>
<text text-anchor="middle" x="288.5" y="-5.75" font-family="Helvetica,sans-Serif" font-size="10.00">TFile.h</text>
</a>
</g>
</g>
<!-- Node1&#45;&gt;Node6 -->
<g id="edge5_Node000001_Node000006" class="edge">
<title>Node1&#45;&gt;Node6</title>
<g id="a_edge5_Node000001_Node000006"><a xlink:title=" ">
<path fill="none" stroke="#63b8ff" d="M237.85,-54.84C246.66,-47.15 259.55,-35.9 270.11,-26.68"/>
<polygon fill="#63b8ff" stroke="#63b8ff" points="272.07,-28.74 277.31,-19.52 267.47,-23.46 272.07,-28.74"/>
</a>
</g>
</g>
<!-- Node7 -->
<g id="Node000007" class="node">
<title>Node7</title>
<g id="a_Node000007"><a xlink:title=" ">
<polygon fill="#e0e0e0" stroke="#999999" points="371.62,-19.25 329.38,-19.25 329.38,0 371.62,0 371.62,-19.25"/>
<text text-anchor="middle" x="350.5" y="-5.75" font-family="Helvetica,sans-Serif" font-size="10.00">TH1.h</text>
</a>
</g>
</g>
<!-- Node1&#45;&gt;Node7 -->
<g id="edge6_Node000001_Node000007" class="edge">
<title>Node1&#45;&gt;Node7</title>
<g id="a_edge6_Node000001_Node000007"><a xlink:title=" ">
<path fill="none" stroke="#63b8ff" d="M248.37,-54.84C267.89,-46.39 297.31,-33.65 319.56,-24.02"/>
<polygon fill="#63b8ff" stroke="#63b8ff" points="320.75,-26.89 328.53,-19.7 317.96,-20.46 320.75,-26.89"/>
</a>
</g>
</g>
<!-- Node8 -->
<g id="Node000008" class="node">
<title>Node8</title>
<g id="a_Node000008"><a xlink:title=" ">
<polygon fill="#e0e0e0" stroke="#999999" points="431.62,-19.25 389.38,-19.25 389.38,0 431.62,0 431.62,-19.25"/>
<text text-anchor="middle" x="410.5" y="-5.75" font-family="Helvetica,sans-Serif" font-size="10.00">TH2.h</text>
</a>
</g>
</g>
<!-- Node1&#45;&gt;Node8 -->
<g id="edge7_Node000001_Node000008" class="edge">
<title>Node1&#45;&gt;Node8</title>
<g id="a_edge7_Node000001_Node000008"><a xlink:title=" ">
<path fill="none" stroke="#63b8ff" d="M258.54,-54.84C292.04,-45.1 345.09,-29.66 378.83,-19.84"/>
<polygon fill="#63b8ff" stroke="#63b8ff" points="379.43,-23.02 388.05,-16.87 377.47,-16.3 379.43,-23.02"/>
</a>
</g>
</g>
</g>
</svg>
