<?xml version="1.0" encoding="UTF-8" standalone="no"?>
<!DOCTYPE svg PUBLIC "-//W3C//DTD SVG 1.1//EN"
 "http://www.w3.org/Graphics/SVG/1.1/DTD/svg11.dtd">
<!-- Generated by graphviz version 6.0.2 (20221011.1828)
 -->
<!-- Title: src/lib/nucleus/LevelSchemeFitter.hh Pages: 1 -->
<svg width="258pt" height="93pt"
 viewBox="0.00 0.00 258.00 93.00" xmlns="http://www.w3.org/2000/svg" xmlns:xlink="http://www.w3.org/1999/xlink">
<g id="graph0" class="graph" transform="scale(1 1) rotate(0) translate(4 89)">
<title>src/lib/nucleus/LevelSchemeFitter.hh</title>
<!-- Node1 -->
<g id="node1" class="node">
<title>Node1</title>
<g id="a_node1"><a xlink:title=" ">
<polygon fill="#999999" stroke="#666666" points="188,-85 45,-85 45,-55 188,-55 188,-85"/>
<text text-anchor="start" x="53" y="-73" font-family="Helvetica,sans-Serif" font-size="10.00">src/lib/nucleus/LevelScheme</text>
<text text-anchor="middle" x="116.5" y="-62" font-family="Helvetica,sans-Serif" font-size="10.00">Fitter.hh</text>
</a>
</g>
</g>
<!-- Node2 -->
<g id="node2" class="node">
<title>Node2</title>
<g id="a_node2"><a xlink:title=" ">
<polygon fill="#e0e0e0" stroke="#999999" points="35,-19 0,-19 0,0 35,0 35,-19"/>
<text text-anchor="middle" x="17.5" y="-7" font-family="Helvetica,sans-Serif" font-size="10.00">map</text>
</a>
</g>
</g>
<!-- Node1&#45;&gt;Node2 -->
<g id="edge1" class="edge">
<title>Node1&#45;&gt;Node2</title>
<path fill="none" stroke="#63b8ff" d="M92.79,-54.99C77.15,-45.75 56.76,-33.7 41.14,-24.47"/>
<polygon fill="#63b8ff" stroke="#63b8ff" points="42.51,-21.21 32.12,-19.14 38.95,-27.24 42.51,-21.21"/>
</g>
<!-- Node3 -->
<g id="node3" class="node">
<title>Node3</title>
<g id="a_node3"><a xlink:title=" ">
<polygon fill="#e0e0e0" stroke="#999999" points="109.5,-19 53.5,-19 53.5,0 109.5,0 109.5,-19"/>
<text text-anchor="middle" x="81.5" y="-7" font-family="Helvetica,sans-Serif" font-size="10.00">TArrow.h</text>
</a>
</g>
</g>
<!-- Node1&#45;&gt;Node3 -->
<g id="edge2" class="edge">
<title>Node1&#45;&gt;Node3</title>
<path fill="none" stroke="#63b8ff" d="M108.03,-54.84C103.21,-46.78 97.13,-36.62 92,-28.06"/>
<polygon fill="#63b8ff" stroke="#63b8ff" points="94.88,-26.05 86.74,-19.27 88.88,-29.64 94.88,-26.05"/>
</g>
<!-- Node4 -->
<g id="node4" class="node">
<title>Node4</title>
<g id="a_node4"><a xlink:title=" ">
<polygon fill="#e0e0e0" stroke="#999999" points="177,-19 128,-19 128,0 177,0 177,-19"/>
<text text-anchor="middle" x="152.5" y="-7" font-family="Helvetica,sans-Serif" font-size="10.00">TText.h</text>
</a>
</g>
</g>
<!-- Node1&#45;&gt;Node4 -->
<g id="edge3" class="edge">
<title>Node1&#45;&gt;Node4</title>
<path fill="none" stroke="#63b8ff" d="M125.21,-54.84C130.17,-46.78 136.43,-36.62 141.7,-28.06"/>
<polygon fill="#63b8ff" stroke="#63b8ff" points="144.85,-29.62 147.11,-19.27 138.88,-25.95 144.85,-29.62"/>
</g>
<!-- Node5 -->
<g id="node5" class="node">
<title>Node5</title>
<g id="a_node5"><a xlink:title=" ">
<polygon fill="#e0e0e0" stroke="#999999" points="250,-19 195,-19 195,0 250,0 250,-19"/>
<text text-anchor="middle" x="222.5" y="-7" font-family="Helvetica,sans-Serif" font-size="10.00">TGaxis.h</text>
</a>
</g>
</g>
<!-- Node1&#45;&gt;Node5 -->
<g id="edge4" class="edge">
<title>Node1&#45;&gt;Node5</title>
<path fill="none" stroke="#63b8ff" d="M141.89,-54.99C158.79,-45.66 180.88,-33.47 197.66,-24.21"/>
<polygon fill="#63b8ff" stroke="#63b8ff" points="199.78,-27.04 206.85,-19.14 196.4,-20.91 199.78,-27.04"/>
</g>
</g>
</svg>
