<?xml version="1.0" encoding="UTF-8" standalone="no"?>
<!DOCTYPE svg PUBLIC "-//W3C//DTD SVG 1.1//EN"
 "http://www.w3.org/Graphics/SVG/1.1/DTD/svg11.dtd">
<!-- Generated by graphviz version 5.0.0 (20220708.1001)
 -->
<!-- Title: GamR::AngDist::AngCorr::Mixed Pages: 1 -->
<svg width="476pt" height="102pt"
 viewBox="0.00 0.00 476.00 102.48" xmlns="http://www.w3.org/2000/svg" xmlns:xlink="http://www.w3.org/1999/xlink">
<g id="graph0" class="graph" transform="scale(1 1) rotate(0) translate(4 98.48)">
<title>GamR::AngDist::AngCorr::Mixed</title>
<polygon fill="white" stroke="transparent" points="-4,4 -4,-98.48 472,-98.48 472,4 -4,4"/>
<!-- Node1 -->
<g id="node1" class="node">
<title>Node1</title>
<g id="a_node1"><a xlink:title=" ">
<polygon fill="#bfbfbf" stroke="black" points="345,-49.5 345,-79.5 468,-79.5 468,-49.5 345,-49.5"/>
<text text-anchor="start" x="353" y="-67.5" font-family="Helvetica,sans-Serif" font-size="10.00">GamR::AngDist::AngCorr</text>
<text text-anchor="middle" x="406.5" y="-56.5" font-family="Helvetica,sans-Serif" font-size="10.00">::Mixed</text>
</a>
</g>
</g>
<!-- Node2 -->
<g id="node2" class="node">
<title>Node2</title>
<g id="a_node2"><a xlink:href="../../d2/da9/class_gam_r_1_1_ang_dist_1_1_ang_corr_fit.html#afb40b46c8473166d5449b680a03eed79" target="_top" xlink:title=" ">
<polygon fill="white" stroke="black" points="0,-55 0,-74 150,-74 150,-55 0,-55"/>
<text text-anchor="middle" x="75" y="-62" font-family="Helvetica,sans-Serif" font-size="10.00">GamR::AngDist::AngCorrFit::Fit</text>
</a>
</g>
</g>
<!-- Node1&#45;&gt;Node2 -->
<g id="edge1" class="edge">
<title>Node1&#45;&gt;Node2</title>
<path fill="none" stroke="midnightblue" d="M347.47,-82.06C334.9,-85.16 321.6,-87.89 309,-89.5 254.77,-96.41 240.33,-95.6 186,-89.5 159.92,-86.57 131,-79.86 109.37,-74.13"/>
<polygon fill="midnightblue" stroke="midnightblue" points="348.56,-85.4 357.37,-79.52 346.82,-78.62 348.56,-85.4"/>
</g>
<!-- Node3 -->
<g id="node3" class="node">
<title>Node3</title>
<g id="a_node3"><a xlink:href="../../da/d73/class_gam_r_1_1_ang_dist_1_1_ang_corr.html#ad883a52cf63a6ee2b4bfbdd133c6d145" target="_top" xlink:title=" ">
<polygon fill="white" stroke="black" points="186,-0.5 186,-30.5 309,-30.5 309,-0.5 186,-0.5"/>
<text text-anchor="start" x="194" y="-18.5" font-family="Helvetica,sans-Serif" font-size="10.00">GamR::AngDist::AngCorr</text>
<text text-anchor="middle" x="247.5" y="-7.5" font-family="Helvetica,sans-Serif" font-size="10.00">::Mixed1</text>
</a>
</g>
</g>
<!-- Node1&#45;&gt;Node3 -->
<g id="edge2" class="edge">
<title>Node1&#45;&gt;Node3</title>
<path fill="none" stroke="midnightblue" d="M347.46,-46.39C330.77,-41.18 312.76,-35.55 296.73,-30.55"/>
<polygon fill="midnightblue" stroke="midnightblue" points="346.53,-49.76 357.11,-49.4 348.61,-43.08 346.53,-49.76"/>
</g>
<!-- Node5 -->
<g id="node5" class="node">
<title>Node5</title>
<g id="a_node5"><a xlink:href="../../da/d73/class_gam_r_1_1_ang_dist_1_1_ang_corr.html#a2ce08f5274d4e7b9467b7dfd65831a73" target="_top" xlink:title=" ">
<polygon fill="white" stroke="black" points="186,-49.5 186,-79.5 309,-79.5 309,-49.5 186,-49.5"/>
<text text-anchor="start" x="194" y="-67.5" font-family="Helvetica,sans-Serif" font-size="10.00">GamR::AngDist::AngCorr</text>
<text text-anchor="middle" x="247.5" y="-56.5" font-family="Helvetica,sans-Serif" font-size="10.00">::Mixed2</text>
</a>
</g>
</g>
<!-- Node1&#45;&gt;Node5 -->
<g id="edge5" class="edge">
<title>Node1&#45;&gt;Node5</title>
<path fill="none" stroke="midnightblue" d="M334.79,-64.5C326.19,-64.5 317.47,-64.5 309.04,-64.5"/>
<polygon fill="midnightblue" stroke="midnightblue" points="334.8,-68 344.8,-64.5 334.8,-61 334.8,-68"/>
</g>
<!-- Node3&#45;&gt;Node2 -->
<g id="edge3" class="edge">
<title>Node3&#45;&gt;Node2</title>
<path fill="none" stroke="midnightblue" d="M184.02,-33.46C158.63,-40.75 130.32,-48.89 109.06,-55"/>
<polygon fill="midnightblue" stroke="midnightblue" points="185.31,-36.73 193.95,-30.6 183.38,-30 185.31,-36.73"/>
</g>
<!-- Node4 -->
<g id="node4" class="node">
<title>Node4</title>
<g id="a_node4"><a xlink:href="../../da/d73/class_gam_r_1_1_ang_dist_1_1_ang_corr.html#aac03ddec85553ac5a0b523acc6210e02" target="_top" xlink:title=" ">
<polygon fill="white" stroke="black" points="13.5,-3.5 13.5,-33.5 136.5,-33.5 136.5,-3.5 13.5,-3.5"/>
<text text-anchor="start" x="21.5" y="-21.5" font-family="Helvetica,sans-Serif" font-size="10.00">GamR::AngDist::AngCorr</text>
<text text-anchor="middle" x="75" y="-10.5" font-family="Helvetica,sans-Serif" font-size="10.00">::Mixed</text>
</a>
</g>
</g>
<!-- Node3&#45;&gt;Node4 -->
<g id="edge4" class="edge">
<title>Node3&#45;&gt;Node4</title>
<path fill="none" stroke="midnightblue" d="M175.65,-16.75C162.7,-16.97 149.3,-17.21 136.68,-17.43"/>
<polygon fill="midnightblue" stroke="midnightblue" points="175.97,-20.24 185.91,-16.57 175.85,-13.24 175.97,-20.24"/>
</g>
<!-- Node5&#45;&gt;Node2 -->
<g id="edge6" class="edge">
<title>Node5&#45;&gt;Node2</title>
<path fill="none" stroke="midnightblue" d="M175.72,-64.5C167.27,-64.5 158.63,-64.5 150.13,-64.5"/>
<polygon fill="midnightblue" stroke="midnightblue" points="175.91,-68 185.91,-64.5 175.91,-61 175.91,-68"/>
</g>
<!-- Node5&#45;&gt;Node4 -->
<g id="edge7" class="edge">
<title>Node5&#45;&gt;Node4</title>
<path fill="none" stroke="midnightblue" d="M180.73,-46.76C164.53,-42.39 147.33,-37.75 131.66,-33.52"/>
<polygon fill="midnightblue" stroke="midnightblue" points="180.11,-50.21 190.67,-49.44 181.93,-43.45 180.11,-50.21"/>
</g>
</g>
</svg>
