<?xml version="1.0" encoding="UTF-8" standalone="no"?>
<!DOCTYPE svg PUBLIC "-//W3C//DTD SVG 1.1//EN"
 "http://www.w3.org/Graphics/SVG/1.1/DTD/svg11.dtd">
<!-- Generated by graphviz version 8.1.0 (20230707.0739)
 -->
<!-- Title: GamR::AngDist::AngCorr::Mixed Pages: 1 -->
<svg width="475pt" height="101pt"
 viewBox="0.00 0.00 474.50 101.03" xmlns="http://www.w3.org/2000/svg" xmlns:xlink="http://www.w3.org/1999/xlink">
<g id="graph0" class="graph" transform="scale(1 1) rotate(0) translate(4 97.03)">
<title>GamR::AngDist::AngCorr::Mixed</title>
<!-- Node1 -->
<g id="Node000001" class="node">
<title>Node1</title>
<g id="a_Node000001"><a xlink:title=" ">
<polygon fill="#999999" stroke="#666666" points="466.5,-79.5 344,-79.5 344,-49 466.5,-49 466.5,-79.5"/>
<text text-anchor="start" x="352" y="-66" font-family="Helvetica,sans-Serif" font-size="10.00">GamR::AngDist::AngCorr</text>
<text text-anchor="middle" x="405.25" y="-54.75" font-family="Helvetica,sans-Serif" font-size="10.00">::Mixed</text>
</a>
</g>
</g>
<!-- Node2 -->
<g id="Node000002" class="node">
<title>Node2</title>
<g id="a_Node000002"><a xlink:href="../../d2/da9/class_gam_r_1_1_ang_dist_1_1_ang_corr_fit.html#afb40b46c8473166d5449b680a03eed79" target="_top" xlink:title=" ">
<polygon fill="white" stroke="#666666" points="149.5,-73.88 0,-73.88 0,-54.62 149.5,-54.62 149.5,-73.88"/>
<text text-anchor="middle" x="74.75" y="-60.38" font-family="Helvetica,sans-Serif" font-size="10.00">GamR::AngDist::AngCorrFit::Fit</text>
</a>
</g>
</g>
<!-- Node1&#45;&gt;Node2 -->
<g id="edge1_Node000001_Node000002" class="edge">
<title>Node1&#45;&gt;Node2</title>
<g id="a_edge1_Node000001_Node000002"><a xlink:title=" ">
<path fill="none" stroke="#63b8ff" d="M340.4,-82.48C329.66,-84.88 318.58,-86.95 308,-88.25 253.96,-94.89 239.63,-94.1 185.5,-88.25 160.87,-85.59 133.67,-79.66 112.51,-74.36"/>
<polygon fill="#63b8ff" stroke="#63b8ff" points="341.04,-85.69 349.98,-79.99 339.44,-78.87 341.04,-85.69"/>
</a>
</g>
</g>
<!-- Node3 -->
<g id="Node000003" class="node">
<title>Node3</title>
<g id="a_Node000003"><a xlink:href="../../da/d73/class_gam_r_1_1_ang_dist_1_1_ang_corr.html#ad883a52cf63a6ee2b4bfbdd133c6d145" target="_top" xlink:title=" ">
<polygon fill="white" stroke="#666666" points="308,-30.5 185.5,-30.5 185.5,0 308,0 308,-30.5"/>
<text text-anchor="start" x="193.5" y="-17" font-family="Helvetica,sans-Serif" font-size="10.00">GamR::AngDist::AngCorr</text>
<text text-anchor="middle" x="246.75" y="-5.75" font-family="Helvetica,sans-Serif" font-size="10.00">::Mixed1</text>
</a>
</g>
</g>
<!-- Node1&#45;&gt;Node3 -->
<g id="edge2_Node000001_Node000003" class="edge">
<title>Node1&#45;&gt;Node3</title>
<g id="a_edge2_Node000001_Node000003"><a xlink:title=" ">
<path fill="none" stroke="#63b8ff" d="M343.98,-45.38C328.8,-40.63 312.66,-35.57 298.03,-30.99"/>
<polygon fill="#63b8ff" stroke="#63b8ff" points="342.71,-48.96 353.3,-48.61 344.8,-42.28 342.71,-48.96"/>
</a>
</g>
</g>
<!-- Node5 -->
<g id="Node000005" class="node">
<title>Node5</title>
<g id="a_Node000005"><a xlink:href="../../da/d73/class_gam_r_1_1_ang_dist_1_1_ang_corr.html#a2ce08f5274d4e7b9467b7dfd65831a73" target="_top" xlink:title=" ">
<polygon fill="white" stroke="#666666" points="308,-79.5 185.5,-79.5 185.5,-49 308,-49 308,-79.5"/>
<text text-anchor="start" x="193.5" y="-66" font-family="Helvetica,sans-Serif" font-size="10.00">GamR::AngDist::AngCorr</text>
<text text-anchor="middle" x="246.75" y="-54.75" font-family="Helvetica,sans-Serif" font-size="10.00">::Mixed2</text>
</a>
</g>
</g>
<!-- Node1&#45;&gt;Node5 -->
<g id="edge5_Node000001_Node000005" class="edge">
<title>Node1&#45;&gt;Node5</title>
<g id="a_edge5_Node000001_Node000005"><a xlink:title=" ">
<path fill="none" stroke="#63b8ff" d="M333.01,-64.25C324.77,-64.25 316.43,-64.25 308.35,-64.25"/>
<polygon fill="#63b8ff" stroke="#63b8ff" points="332.74,-67.75 342.74,-64.25 332.74,-60.75 332.74,-67.75"/>
</a>
</g>
</g>
<!-- Node3&#45;&gt;Node2 -->
<g id="edge3_Node000003_Node000002" class="edge">
<title>Node3&#45;&gt;Node2</title>
<g id="a_edge3_Node000003_Node000002"><a xlink:title=" ">
<path fill="none" stroke="#63b8ff" d="M181.07,-33.89C157.2,-40.77 131.05,-48.31 110.78,-54.15"/>
<polygon fill="#63b8ff" stroke="#63b8ff" points="181.85,-37.02 190.49,-30.89 179.92,-30.3 181.85,-37.02"/>
</a>
</g>
</g>
<!-- Node4 -->
<g id="Node000004" class="node">
<title>Node4</title>
<g id="a_Node000004"><a xlink:href="../../da/d73/class_gam_r_1_1_ang_dist_1_1_ang_corr.html#aac03ddec85553ac5a0b523acc6210e02" target="_top" xlink:title=" ">
<polygon fill="white" stroke="#666666" points="136,-33.5 13.5,-33.5 13.5,-3 136,-3 136,-33.5"/>
<text text-anchor="start" x="21.5" y="-20" font-family="Helvetica,sans-Serif" font-size="10.00">GamR::AngDist::AngCorr</text>
<text text-anchor="middle" x="74.75" y="-8.75" font-family="Helvetica,sans-Serif" font-size="10.00">::Mixed</text>
</a>
</g>
</g>
<!-- Node3&#45;&gt;Node4 -->
<g id="edge4_Node000003_Node000004" class="edge">
<title>Node3&#45;&gt;Node4</title>
<g id="a_edge4_Node000003_Node000004"><a xlink:title=" ">
<path fill="none" stroke="#63b8ff" d="M174.34,-16.51C161.67,-16.73 148.59,-16.96 136.26,-17.18"/>
<polygon fill="#63b8ff" stroke="#63b8ff" points="174.4,-19.99 184.34,-16.32 174.28,-12.99 174.4,-19.99"/>
</a>
</g>
</g>
<!-- Node5&#45;&gt;Node2 -->
<g id="edge6_Node000005_Node000002" class="edge">
<title>Node5&#45;&gt;Node2</title>
<g id="a_edge6_Node000005_Node000002"><a xlink:title=" ">
<path fill="none" stroke="#63b8ff" d="M174.44,-64.25C166.35,-64.25 158.09,-64.25 149.96,-64.25"/>
<polygon fill="#63b8ff" stroke="#63b8ff" points="174.34,-67.75 184.34,-64.25 174.34,-60.75 174.34,-67.75"/>
</a>
</g>
</g>
<!-- Node5&#45;&gt;Node4 -->
<g id="edge7_Node000005_Node000004" class="edge">
<title>Node5&#45;&gt;Node4</title>
<g id="a_edge7_Node000005_Node000004"><a xlink:title=" ">
<path fill="none" stroke="#63b8ff" d="M177.35,-45.74C162.92,-41.84 147.82,-37.75 133.81,-33.96"/>
<polygon fill="#63b8ff" stroke="#63b8ff" points="176.15,-49.31 186.72,-48.55 177.98,-42.56 176.15,-49.31"/>
</a>
</g>
</g>
</g>
</svg>
