<?xml version="1.0" encoding="UTF-8" standalone="no"?>
<!DOCTYPE svg PUBLIC "-//W3C//DTD SVG 1.1//EN"
 "http://www.w3.org/Graphics/SVG/1.1/DTD/svg11.dtd">
<!-- Generated by graphviz version 12.2.1 (20241206.2353)
 -->
<!-- Title: GamR::Nucleus::LevelSchemeDraw::Transition Pages: 1 -->
<!--zoomable 1692 -->

<svg id="main" version="1.1" xmlns="http://www.w3.org/2000/svg" xmlns:xlink="http://www.w3.org/1999/xlink" xml:space="preserve" onload="init(evt)">

<style type="text/css"><![CDATA[
.node, .edge {opacity: 0.7;}
.node.selected, .edge.selected {opacity: 1;}
.edge:hover path { stroke: red; }
.edge:hover polygon { stroke: red; fill: red; }
]]></style>

<defs>
  <circle id="rim" cx="0" cy="0" r="7"/>
  <circle id="rim2" cx="0" cy="0" r="3.5"/>
  <g id="zoomPlus">
    <use xlink:href="#rim" fill="#404040"><set attributeName="fill" to="#808080" begin="zoomplus.mouseover" end="zoomplus.mouseout"/></use>
    <path d="M-4,0h8M0,-4v8" fill="none" stroke="white" stroke-width="1.5" pointer-events="none"/>
  </g>
  <g id="zoomMin">
    <use xlink:href="#rim" fill="#404040"><set attributeName="fill" to="#808080" begin="zoomminus.mouseover" end="zoomminus.mouseout"/></use>
    <path d="M-4,0h8" fill="none" stroke="white" stroke-width="1.5" pointer-events="none"/>
  </g>
  <g id="arrowUp" transform="translate(30 24)">
    <use xlink:href="#rim"/>
    <path pointer-events="none" fill="none" stroke="white" stroke-width="1.5" d="M0,-3.0v7 M-2.5,-0.5L0,-3.0L2.5,-0.5"/>
  </g>
  <g id="arrowRight" transform="rotate(90) translate(36 -43)">
    <use xlink:href="#rim"/>
    <path pointer-events="none" fill="none" stroke="white" stroke-width="1.5" d="M0,-3.0v7 M-2.5,-0.5L0,-3.0L2.5,-0.5"/>
  </g>
  <g id="arrowDown" transform="rotate(180) translate(-30 -48)">
    <use xlink:href="#rim"/>
    <path pointer-events="none" fill="none" stroke="white" stroke-width="1.5" d="M0,-3.0v7 M-2.5,-0.5L0,-3.0L2.5,-0.5"/>
  </g>
  <g id="arrowLeft" transform="rotate(270) translate(-36 17)">
    <use xlink:href="#rim"/>
    <path pointer-events="none" fill="none" stroke="white" stroke-width="1.5" d="M0,-3.0v7 M-2.5,-0.5L0,-3.0L2.5,-0.5"/>
  </g>
  <g id="resetDef">
    <use xlink:href="#rim2" fill="#404040"><set attributeName="fill" to="#808080" begin="reset.mouseover" end="reset.mouseout"/></use>
  </g>
</defs>
<script type="application/ecmascript">
var viewWidth = 557;
var viewHeight = 1692;
var sectionId = 'dynsection-1';
</script>
<script type="application/ecmascript" xlink:href="../../svg.min.js"/>
<svg id="graph" class="graph">
<g id="viewport">
<title>GamR::Nucleus::LevelSchemeDraw::Transition</title>
<!-- Node1 -->
<g id="Node000001" class="node">
<title>Node1</title>
<g id="a_Node000001"><a xlink:title=" ">
<polygon fill="#999999" stroke="none" points="345.38,-1587.25 204.62,-1587.25 204.62,-1114.5 345.38,-1114.5 345.38,-1587.25"/>
<text text-anchor="start" x="208.62" y="-1573.75" font-family="Helvetica,sans-Serif" font-size="10.00">GamR::Nucleus::LevelScheme</text>
<text text-anchor="start" x="240.12" y="-1562.5" font-family="Helvetica,sans-Serif" font-size="10.00">Draw::Transition</text>
<text text-anchor="start" x="216.62" y="-1547.25" font-family="Helvetica,sans-Serif" font-size="10.00">+</text>
<text text-anchor="start" x="234.62" y="-1547.25" font-family="Helvetica,sans-Serif" font-size="10.00">fStart</text>
<text text-anchor="start" x="216.62" y="-1532" font-family="Helvetica,sans-Serif" font-size="10.00">+</text>
<text text-anchor="start" x="234.62" y="-1532" font-family="Helvetica,sans-Serif" font-size="10.00">fStop</text>
<text text-anchor="start" x="216.62" y="-1516.75" font-family="Helvetica,sans-Serif" font-size="10.00">+</text>
<text text-anchor="start" x="234.62" y="-1516.75" font-family="Helvetica,sans-Serif" font-size="10.00">fWidth</text>
<text text-anchor="start" x="216.62" y="-1501.5" font-family="Helvetica,sans-Serif" font-size="10.00">+</text>
<text text-anchor="start" x="234.62" y="-1501.5" font-family="Helvetica,sans-Serif" font-size="10.00">fLabelPos</text>
<text text-anchor="start" x="216.62" y="-1486.25" font-family="Helvetica,sans-Serif" font-size="10.00">+</text>
<text text-anchor="start" x="234.62" y="-1486.25" font-family="Helvetica,sans-Serif" font-size="10.00">fLabel</text>
<text text-anchor="start" x="216.62" y="-1471" font-family="Helvetica,sans-Serif" font-size="10.00">+</text>
<text text-anchor="start" x="234.62" y="-1471" font-family="Helvetica,sans-Serif" font-size="10.00">fLabelBox</text>
<text text-anchor="start" x="216.62" y="-1455.75" font-family="Helvetica,sans-Serif" font-size="10.00">+</text>
<text text-anchor="start" x="234.62" y="-1455.75" font-family="Helvetica,sans-Serif" font-size="10.00">textsize</text>
<text text-anchor="start" x="216.62" y="-1440.5" font-family="Helvetica,sans-Serif" font-size="10.00">+</text>
<text text-anchor="start" x="234.62" y="-1440.5" font-family="Helvetica,sans-Serif" font-size="10.00">Transition()</text>
<text text-anchor="start" x="216.62" y="-1425.25" font-family="Helvetica,sans-Serif" font-size="10.00">+</text>
<text text-anchor="start" x="234.62" y="-1425.25" font-family="Helvetica,sans-Serif" font-size="10.00">Transition()</text>
<text text-anchor="start" x="216.62" y="-1410" font-family="Helvetica,sans-Serif" font-size="10.00">+</text>
<text text-anchor="start" x="234.62" y="-1410" font-family="Helvetica,sans-Serif" font-size="10.00">~Transition()</text>
<text text-anchor="start" x="216.62" y="-1394.75" font-family="Helvetica,sans-Serif" font-size="10.00">+</text>
<text text-anchor="start" x="234.62" y="-1394.75" font-family="Helvetica,sans-Serif" font-size="10.00">SetStartStop()</text>
<text text-anchor="start" x="216.62" y="-1379.5" font-family="Helvetica,sans-Serif" font-size="10.00">+</text>
<text text-anchor="start" x="234.62" y="-1379.5" font-family="Helvetica,sans-Serif" font-size="10.00">Paint()</text>
<text text-anchor="start" x="216.62" y="-1364.25" font-family="Helvetica,sans-Serif" font-size="10.00">+</text>
<text text-anchor="start" x="234.62" y="-1364.25" font-family="Helvetica,sans-Serif" font-size="10.00">DistancetoPrimitive()</text>
<text text-anchor="start" x="216.62" y="-1349" font-family="Helvetica,sans-Serif" font-size="10.00">+</text>
<text text-anchor="start" x="234.62" y="-1349" font-family="Helvetica,sans-Serif" font-size="10.00">ExecuteEvent()</text>
<text text-anchor="start" x="216.62" y="-1333.75" font-family="Helvetica,sans-Serif" font-size="10.00">+</text>
<text text-anchor="start" x="234.62" y="-1333.75" font-family="Helvetica,sans-Serif" font-size="10.00">Draw()</text>
<text text-anchor="start" x="216.62" y="-1318.5" font-family="Helvetica,sans-Serif" font-size="10.00">+</text>
<text text-anchor="start" x="234.62" y="-1318.5" font-family="Helvetica,sans-Serif" font-size="10.00">GetX1()</text>
<text text-anchor="start" x="216.62" y="-1303.25" font-family="Helvetica,sans-Serif" font-size="10.00">+</text>
<text text-anchor="start" x="234.62" y="-1303.25" font-family="Helvetica,sans-Serif" font-size="10.00">GetX2()</text>
<text text-anchor="start" x="216.62" y="-1288" font-family="Helvetica,sans-Serif" font-size="10.00">+</text>
<text text-anchor="start" x="234.62" y="-1288" font-family="Helvetica,sans-Serif" font-size="10.00">GetY1()</text>
<text text-anchor="start" x="216.62" y="-1272.75" font-family="Helvetica,sans-Serif" font-size="10.00">+</text>
<text text-anchor="start" x="234.62" y="-1272.75" font-family="Helvetica,sans-Serif" font-size="10.00">GetY2()</text>
<text text-anchor="start" x="216.62" y="-1257.5" font-family="Helvetica,sans-Serif" font-size="10.00">+</text>
<text text-anchor="start" x="234.62" y="-1257.5" font-family="Helvetica,sans-Serif" font-size="10.00">GetPerpTheta()</text>
<text text-anchor="start" x="216.62" y="-1242.25" font-family="Helvetica,sans-Serif" font-size="10.00">+</text>
<text text-anchor="start" x="234.62" y="-1242.25" font-family="Helvetica,sans-Serif" font-size="10.00">GetLength()</text>
<text text-anchor="start" x="216.62" y="-1227" font-family="Helvetica,sans-Serif" font-size="10.00">+</text>
<text text-anchor="start" x="234.62" y="-1227" font-family="Helvetica,sans-Serif" font-size="10.00">GetWidth()</text>
<text text-anchor="start" x="216.62" y="-1211.75" font-family="Helvetica,sans-Serif" font-size="10.00">+</text>
<text text-anchor="start" x="234.62" y="-1211.75" font-family="Helvetica,sans-Serif" font-size="10.00">GetWidthX()</text>
<text text-anchor="start" x="216.62" y="-1196.5" font-family="Helvetica,sans-Serif" font-size="10.00">+</text>
<text text-anchor="start" x="234.62" y="-1196.5" font-family="Helvetica,sans-Serif" font-size="10.00">GetWidthY()</text>
<text text-anchor="start" x="216.62" y="-1181.25" font-family="Helvetica,sans-Serif" font-size="10.00">+</text>
<text text-anchor="start" x="234.62" y="-1181.25" font-family="Helvetica,sans-Serif" font-size="10.00">GetHeadWidth()</text>
<text text-anchor="start" x="216.62" y="-1166" font-family="Helvetica,sans-Serif" font-size="10.00">+</text>
<text text-anchor="start" x="234.62" y="-1166" font-family="Helvetica,sans-Serif" font-size="10.00">GetHeadWidthX()</text>
<text text-anchor="start" x="216.62" y="-1150.75" font-family="Helvetica,sans-Serif" font-size="10.00">+</text>
<text text-anchor="start" x="234.62" y="-1150.75" font-family="Helvetica,sans-Serif" font-size="10.00">GetHeadWidthY()</text>
<text text-anchor="start" x="216.62" y="-1135.5" font-family="Helvetica,sans-Serif" font-size="10.00">+</text>
<text text-anchor="start" x="234.62" y="-1135.5" font-family="Helvetica,sans-Serif" font-size="10.00">GetHeadLength()</text>
<text text-anchor="start" x="216.62" y="-1120.25" font-family="Helvetica,sans-Serif" font-size="10.00">+</text>
<text text-anchor="start" x="234.62" y="-1120.25" font-family="Helvetica,sans-Serif" font-size="10.00">PaintArrow()</text>
<polygon fill="#666666" stroke="#666666" points="204.62,-1558.75 204.62,-1558.75 345.38,-1558.75 345.38,-1558.75 204.62,-1558.75"/>
<polygon fill="#666666" stroke="#666666" points="204.62,-1452 204.62,-1452 232.62,-1452 232.62,-1452 204.62,-1452"/>
<polygon fill="#666666" stroke="#666666" points="232.62,-1452 232.62,-1452 345.38,-1452 345.38,-1452 232.62,-1452"/>
<polygon fill="none" stroke="#666666" points="204.62,-1114.5 204.62,-1587.25 345.38,-1587.25 345.38,-1114.5 204.62,-1114.5"/>
</a>
</g>
</g>
<!-- Node13 -->
<g id="Node000013" class="node">
<title>Node13</title>
<g id="a_Node000013"><a xlink:title=" ">
<polygon fill="white" stroke="none" points="471.5,-1056 340.5,-1056 340.5,-983.75 471.5,-983.75 471.5,-1056"/>
<text text-anchor="start" x="344.5" y="-1042.5" font-family="Helvetica,sans-Serif" font-size="10.00">std::vector&lt; GamR::</text>
<text text-anchor="start" x="344.5" y="-1031.25" font-family="Helvetica,sans-Serif" font-size="10.00">Nucleus::LevelSchemeDraw</text>
<text text-anchor="start" x="378.25" y="-1020" font-family="Helvetica,sans-Serif" font-size="10.00">::Transition &gt;</text>
<text text-anchor="start" x="404.5" y="-1004.75" font-family="Helvetica,sans-Serif" font-size="10.00"> </text>
<text text-anchor="start" x="404.5" y="-989.5" font-family="Helvetica,sans-Serif" font-size="10.00"> </text>
<polygon fill="#666666" stroke="#666666" points="340.5,-1016.25 340.5,-1016.25 471.5,-1016.25 471.5,-1016.25 340.5,-1016.25"/>
<polygon fill="#666666" stroke="#666666" points="340.5,-1001 340.5,-1001 471.5,-1001 471.5,-1001 340.5,-1001"/>
<polygon fill="none" stroke="#666666" points="340.5,-983.75 340.5,-1056 471.5,-1056 471.5,-983.75 340.5,-983.75"/>
</a>
</g>
</g>
<!-- Node1&#45;&gt;Node13 -->
<g id="edge16_Node000013_Node000001" class="edge">
<title>Node1&#45;&gt;Node13</title>
<g id="a_edge16_Node000013_Node000001"><a xlink:title=" ">
<path fill="none" stroke="#63b8ff" d="M332.39,-1114.6C338.6,-1100.54 345.45,-1086.88 353,-1074 354.56,-1071.34 356.28,-1068.73 358.12,-1066.16"/>
<polygon fill="none" stroke="#63b8ff" points="358.21,-1066.05 358.82,-1058.86 365.69,-1056.66 365.08,-1063.85 358.21,-1066.05"/>
</a>
</g>
<text text-anchor="middle" x="377" y="-1081.38" font-family="Helvetica,sans-Serif" font-size="10.00" fill="grey"> +elements</text>
</g>
<!-- Node2 -->
<g id="Node000002" class="node">
<title>Node2</title>
<g id="a_Node000002"><a xlink:title=" ">
<polygon fill="white" stroke="none" points="300.75,-1684.25 249.25,-1684.25 249.25,-1634.5 300.75,-1634.5 300.75,-1684.25"/>
<text text-anchor="start" x="253.25" y="-1670.75" font-family="Helvetica,sans-Serif" font-size="10.00">TPolyLine</text>
<text text-anchor="start" x="273.5" y="-1655.5" font-family="Helvetica,sans-Serif" font-size="10.00"> </text>
<text text-anchor="start" x="273.5" y="-1640.25" font-family="Helvetica,sans-Serif" font-size="10.00"> </text>
<polygon fill="#666666" stroke="#666666" points="249.25,-1667 249.25,-1667 300.75,-1667 300.75,-1667 249.25,-1667"/>
<polygon fill="#666666" stroke="#666666" points="249.25,-1651.75 249.25,-1651.75 300.75,-1651.75 300.75,-1651.75 249.25,-1651.75"/>
<polygon fill="none" stroke="#666666" points="249.25,-1634.5 249.25,-1684.25 300.75,-1684.25 300.75,-1634.5 249.25,-1634.5"/>
</a>
</g>
</g>
<!-- Node2&#45;&gt;Node1 -->
<g id="edge1_Node000001_Node000002" class="edge">
<title>Node2&#45;&gt;Node1</title>
<g id="a_edge1_Node000001_Node000002"><a xlink:title=" ">
<path fill="none" stroke="#63b8ff" d="M275,-1623.2C275,-1612.75 275,-1600.44 275,-1586.93"/>
<polygon fill="none" stroke="#63b8ff" points="271.5,-1623.07 275,-1633.07 278.5,-1623.07 271.5,-1623.07"/>
</a>
</g>
</g>
<!-- Node3 -->
<g id="Node000003" class="node">
<title>Node3</title>
<g id="a_Node000003"><a xlink:href="../../d3/ddb/class_gam_r_1_1_nucleus_1_1_level_scheme_draw_1_1_scheme.html" target="_top" xlink:title=" ">
<polygon fill="white" stroke="none" points="461.38,-925.25 320.62,-925.25 320.62,-605 461.38,-605 461.38,-925.25"/>
<text text-anchor="start" x="324.62" y="-911.75" font-family="Helvetica,sans-Serif" font-size="10.00">GamR::Nucleus::LevelScheme</text>
<text text-anchor="start" x="359.5" y="-900.5" font-family="Helvetica,sans-Serif" font-size="10.00">Draw::Scheme</text>
<text text-anchor="start" x="337.5" y="-885.25" font-family="Helvetica,sans-Serif" font-size="10.00">+</text>
<text text-anchor="start" x="360.38" y="-885.25" font-family="Helvetica,sans-Serif" font-size="10.00">ylo</text>
<text text-anchor="start" x="337.5" y="-870" font-family="Helvetica,sans-Serif" font-size="10.00">+</text>
<text text-anchor="start" x="360.38" y="-870" font-family="Helvetica,sans-Serif" font-size="10.00">yhi</text>
<text text-anchor="start" x="337.5" y="-854.75" font-family="Helvetica,sans-Serif" font-size="10.00">+</text>
<text text-anchor="start" x="360.38" y="-854.75" font-family="Helvetica,sans-Serif" font-size="10.00">xlo</text>
<text text-anchor="start" x="337.5" y="-839.5" font-family="Helvetica,sans-Serif" font-size="10.00">+</text>
<text text-anchor="start" x="360.38" y="-839.5" font-family="Helvetica,sans-Serif" font-size="10.00">xhi</text>
<text text-anchor="start" x="337.5" y="-824.25" font-family="Helvetica,sans-Serif" font-size="10.00">+</text>
<text text-anchor="start" x="360.38" y="-824.25" font-family="Helvetica,sans-Serif" font-size="10.00">textsize</text>
<text text-anchor="start" x="337.5" y="-809" font-family="Helvetica,sans-Serif" font-size="10.00">+</text>
<text text-anchor="start" x="360.38" y="-809" font-family="Helvetica,sans-Serif" font-size="10.00">fWidthScale</text>
<text text-anchor="start" x="337.5" y="-793.75" font-family="Helvetica,sans-Serif" font-size="10.00">+</text>
<text text-anchor="start" x="360.38" y="-793.75" font-family="Helvetica,sans-Serif" font-size="10.00">fDrawHist</text>
<text text-anchor="start" x="337.5" y="-778.5" font-family="Helvetica,sans-Serif" font-size="10.00">+</text>
<text text-anchor="start" x="360.38" y="-778.5" font-family="Helvetica,sans-Serif" font-size="10.00">fAxis</text>
<text text-anchor="start" x="337.5" y="-763.25" font-family="Helvetica,sans-Serif" font-size="10.00">+</text>
<text text-anchor="start" x="360.38" y="-763.25" font-family="Helvetica,sans-Serif" font-size="10.00">Scheme()</text>
<text text-anchor="start" x="337.5" y="-748" font-family="Helvetica,sans-Serif" font-size="10.00">+</text>
<text text-anchor="start" x="360.38" y="-748" font-family="Helvetica,sans-Serif" font-size="10.00">Scheme()</text>
<text text-anchor="start" x="337.5" y="-732.75" font-family="Helvetica,sans-Serif" font-size="10.00">+</text>
<text text-anchor="start" x="360.38" y="-732.75" font-family="Helvetica,sans-Serif" font-size="10.00">AddState()</text>
<text text-anchor="start" x="337.5" y="-717.5" font-family="Helvetica,sans-Serif" font-size="10.00">+</text>
<text text-anchor="start" x="360.38" y="-717.5" font-family="Helvetica,sans-Serif" font-size="10.00">AddTransition()</text>
<text text-anchor="start" x="337.5" y="-702.25" font-family="Helvetica,sans-Serif" font-size="10.00">+</text>
<text text-anchor="start" x="360.38" y="-702.25" font-family="Helvetica,sans-Serif" font-size="10.00">SetDrawRange()</text>
<text text-anchor="start" x="337.5" y="-687" font-family="Helvetica,sans-Serif" font-size="10.00">+</text>
<text text-anchor="start" x="360.38" y="-687" font-family="Helvetica,sans-Serif" font-size="10.00">SetTextSize()</text>
<text text-anchor="start" x="337.5" y="-671.75" font-family="Helvetica,sans-Serif" font-size="10.00">+</text>
<text text-anchor="start" x="360.38" y="-671.75" font-family="Helvetica,sans-Serif" font-size="10.00">PaintArrow()</text>
<text text-anchor="start" x="337.5" y="-656.5" font-family="Helvetica,sans-Serif" font-size="10.00">+</text>
<text text-anchor="start" x="360.38" y="-656.5" font-family="Helvetica,sans-Serif" font-size="10.00">Paint()</text>
<text text-anchor="start" x="337.5" y="-641.25" font-family="Helvetica,sans-Serif" font-size="10.00">+</text>
<text text-anchor="start" x="360.38" y="-641.25" font-family="Helvetica,sans-Serif" font-size="10.00">ReadScheme()</text>
<text text-anchor="start" x="337.5" y="-626" font-family="Helvetica,sans-Serif" font-size="10.00">+</text>
<text text-anchor="start" x="360.38" y="-626" font-family="Helvetica,sans-Serif" font-size="10.00">WriteScheme()</text>
<text text-anchor="start" x="337.5" y="-610.75" font-family="Helvetica,sans-Serif" font-size="10.00">+</text>
<text text-anchor="start" x="360.38" y="-610.75" font-family="Helvetica,sans-Serif" font-size="10.00">ClassDef()</text>
<polygon fill="#666666" stroke="#666666" points="320.62,-896.75 320.62,-896.75 461.38,-896.75 461.38,-896.75 320.62,-896.75"/>
<polygon fill="#666666" stroke="#666666" points="320.62,-774.75 320.62,-774.75 358.38,-774.75 358.38,-774.75 320.62,-774.75"/>
<polygon fill="#666666" stroke="#666666" points="358.38,-774.75 358.38,-774.75 461.38,-774.75 461.38,-774.75 358.38,-774.75"/>
<polygon fill="none" stroke="#666666" points="320.62,-605 320.62,-925.25 461.38,-925.25 461.38,-605 320.62,-605"/>
</a>
</g>
</g>
<!-- Node3&#45;&gt;Node1 -->
<g id="edge2_Node000001_Node000003" class="edge">
<title>Node3&#45;&gt;Node1</title>
<g id="a_edge2_Node000001_Node000003"><a xlink:title=" ">
<path fill="none" stroke="#63b8ff" d="M320.68,-908.73C301.32,-948.27 285.37,-981.23 284.75,-983.75 275.49,-1021.5 270.1,-1062.11 267.26,-1102.04"/>
<polygon fill="none" stroke="#63b8ff" points="267.26,-1102.11 270.86,-1108.35 266.48,-1114.08 262.88,-1107.84 267.26,-1102.11"/>
</a>
</g>
<text text-anchor="middle" x="308.38" y="-1016" font-family="Helvetica,sans-Serif" font-size="10.00" fill="grey"> +fScheme</text>
</g>
<!-- Node8 -->
<g id="Node000008" class="node">
<title>Node8</title>
<g id="a_Node000008"><a xlink:href="../../d0/d50/class_gam_r_1_1_nucleus_1_1_level_scheme_draw_1_1_state.html" target="_top" xlink:title=" ">
<polygon fill="white" stroke="none" points="340.38,-546.5 199.62,-546.5 199.62,-119.5 340.38,-119.5 340.38,-546.5"/>
<text text-anchor="start" x="203.62" y="-533" font-family="Helvetica,sans-Serif" font-size="10.00">GamR::Nucleus::LevelScheme</text>
<text text-anchor="start" x="244.88" y="-521.75" font-family="Helvetica,sans-Serif" font-size="10.00">Draw::State</text>
<text text-anchor="start" x="211.62" y="-506.5" font-family="Helvetica,sans-Serif" font-size="10.00">+</text>
<text text-anchor="start" x="229.62" y="-506.5" font-family="Helvetica,sans-Serif" font-size="10.00">index</text>
<text text-anchor="start" x="211.62" y="-491.25" font-family="Helvetica,sans-Serif" font-size="10.00">+</text>
<text text-anchor="start" x="229.62" y="-491.25" font-family="Helvetica,sans-Serif" font-size="10.00">fEnergy</text>
<text text-anchor="start" x="211.62" y="-476" font-family="Helvetica,sans-Serif" font-size="10.00">+</text>
<text text-anchor="start" x="229.62" y="-476" font-family="Helvetica,sans-Serif" font-size="10.00">fDrawPos</text>
<text text-anchor="start" x="211.62" y="-460.75" font-family="Helvetica,sans-Serif" font-size="10.00">+</text>
<text text-anchor="start" x="229.62" y="-460.75" font-family="Helvetica,sans-Serif" font-size="10.00">fLabelPos</text>
<text text-anchor="start" x="211.62" y="-445.5" font-family="Helvetica,sans-Serif" font-size="10.00">+</text>
<text text-anchor="start" x="229.62" y="-445.5" font-family="Helvetica,sans-Serif" font-size="10.00">fLeft</text>
<text text-anchor="start" x="211.62" y="-430.25" font-family="Helvetica,sans-Serif" font-size="10.00">+</text>
<text text-anchor="start" x="229.62" y="-430.25" font-family="Helvetica,sans-Serif" font-size="10.00">fRight</text>
<text text-anchor="start" x="211.62" y="-415" font-family="Helvetica,sans-Serif" font-size="10.00">+</text>
<text text-anchor="start" x="229.62" y="-415" font-family="Helvetica,sans-Serif" font-size="10.00">fExtLeft</text>
<text text-anchor="start" x="211.62" y="-399.75" font-family="Helvetica,sans-Serif" font-size="10.00">+</text>
<text text-anchor="start" x="229.62" y="-399.75" font-family="Helvetica,sans-Serif" font-size="10.00">fExtRight</text>
<text text-anchor="start" x="211.62" y="-384.5" font-family="Helvetica,sans-Serif" font-size="10.00">+</text>
<text text-anchor="start" x="229.62" y="-384.5" font-family="Helvetica,sans-Serif" font-size="10.00">textsize</text>
<text text-anchor="start" x="211.62" y="-369.25" font-family="Helvetica,sans-Serif" font-size="10.00">+</text>
<text text-anchor="start" x="229.62" y="-369.25" font-family="Helvetica,sans-Serif" font-size="10.00">extension</text>
<text text-anchor="start" x="211.62" y="-354" font-family="Helvetica,sans-Serif" font-size="10.00">+</text>
<text text-anchor="start" x="229.62" y="-354" font-family="Helvetica,sans-Serif" font-size="10.00">extline</text>
<text text-anchor="start" x="211.62" y="-338.75" font-family="Helvetica,sans-Serif" font-size="10.00">+</text>
<text text-anchor="start" x="229.62" y="-338.75" font-family="Helvetica,sans-Serif" font-size="10.00">fLeftLabel</text>
<text text-anchor="start" x="211.62" y="-323.5" font-family="Helvetica,sans-Serif" font-size="10.00">+</text>
<text text-anchor="start" x="229.62" y="-323.5" font-family="Helvetica,sans-Serif" font-size="10.00">fRightLabel</text>
<text text-anchor="start" x="211.62" y="-308.25" font-family="Helvetica,sans-Serif" font-size="10.00">+</text>
<text text-anchor="start" x="229.62" y="-308.25" font-family="Helvetica,sans-Serif" font-size="10.00">State()</text>
<text text-anchor="start" x="211.62" y="-293" font-family="Helvetica,sans-Serif" font-size="10.00">+</text>
<text text-anchor="start" x="229.62" y="-293" font-family="Helvetica,sans-Serif" font-size="10.00">State()</text>
<text text-anchor="start" x="211.62" y="-277.75" font-family="Helvetica,sans-Serif" font-size="10.00">+</text>
<text text-anchor="start" x="229.62" y="-277.75" font-family="Helvetica,sans-Serif" font-size="10.00">~State()</text>
<text text-anchor="start" x="211.62" y="-262.5" font-family="Helvetica,sans-Serif" font-size="10.00">+</text>
<text text-anchor="start" x="229.62" y="-262.5" font-family="Helvetica,sans-Serif" font-size="10.00">SetLeftRight()</text>
<text text-anchor="start" x="211.62" y="-247.25" font-family="Helvetica,sans-Serif" font-size="10.00">+</text>
<text text-anchor="start" x="229.62" y="-247.25" font-family="Helvetica,sans-Serif" font-size="10.00">SetWidth()</text>
<text text-anchor="start" x="211.62" y="-232" font-family="Helvetica,sans-Serif" font-size="10.00">+</text>
<text text-anchor="start" x="229.62" y="-232" font-family="Helvetica,sans-Serif" font-size="10.00">SetLabels()</text>
<text text-anchor="start" x="211.62" y="-216.75" font-family="Helvetica,sans-Serif" font-size="10.00">+</text>
<text text-anchor="start" x="229.62" y="-216.75" font-family="Helvetica,sans-Serif" font-size="10.00">SetExtension()</text>
<text text-anchor="start" x="211.62" y="-201.5" font-family="Helvetica,sans-Serif" font-size="10.00">+</text>
<text text-anchor="start" x="229.62" y="-201.5" font-family="Helvetica,sans-Serif" font-size="10.00">AddTransition()</text>
<text text-anchor="start" x="211.62" y="-186.25" font-family="Helvetica,sans-Serif" font-size="10.00">+</text>
<text text-anchor="start" x="229.62" y="-186.25" font-family="Helvetica,sans-Serif" font-size="10.00">DistancetoPrimitive()</text>
<text text-anchor="start" x="211.62" y="-171" font-family="Helvetica,sans-Serif" font-size="10.00">+</text>
<text text-anchor="start" x="229.62" y="-171" font-family="Helvetica,sans-Serif" font-size="10.00">ExecuteEvent()</text>
<text text-anchor="start" x="211.62" y="-155.75" font-family="Helvetica,sans-Serif" font-size="10.00">+</text>
<text text-anchor="start" x="229.62" y="-155.75" font-family="Helvetica,sans-Serif" font-size="10.00">Paint()</text>
<text text-anchor="start" x="211.62" y="-140.5" font-family="Helvetica,sans-Serif" font-size="10.00">+</text>
<text text-anchor="start" x="229.62" y="-140.5" font-family="Helvetica,sans-Serif" font-size="10.00">operator&lt;()</text>
<text text-anchor="start" x="211.62" y="-125.25" font-family="Helvetica,sans-Serif" font-size="10.00">+</text>
<text text-anchor="start" x="229.62" y="-125.25" font-family="Helvetica,sans-Serif" font-size="10.00">operator==()</text>
<polygon fill="#666666" stroke="#666666" points="199.62,-518 199.62,-518 340.38,-518 340.38,-518 199.62,-518"/>
<polygon fill="#666666" stroke="#666666" points="199.62,-319.75 199.62,-319.75 227.62,-319.75 227.62,-319.75 199.62,-319.75"/>
<polygon fill="#666666" stroke="#666666" points="227.62,-319.75 227.62,-319.75 340.38,-319.75 340.38,-319.75 227.62,-319.75"/>
<polygon fill="none" stroke="#666666" points="199.62,-119.5 199.62,-546.5 340.38,-546.5 340.38,-119.5 199.62,-119.5"/>
</a>
</g>
</g>
<!-- Node3&#45;&gt;Node8 -->
<g id="edge10_Node000008_Node000003" class="edge">
<title>Node3&#45;&gt;Node8</title>
<g id="a_edge10_Node000008_Node000003"><a xlink:title=" ">
<path fill="none" stroke="#63b8ff" d="M333.21,-605.1C331.31,-599 329.49,-592.96 327.75,-587 325.08,-577.83 322.45,-568.44 319.88,-558.93"/>
<polygon fill="none" stroke="#63b8ff" points="319.85,-558.84 314.44,-554.07 316.77,-547.25 322.17,-552.01 319.85,-558.84"/>
</a>
</g>
<text text-anchor="middle" x="351.38" y="-571.88" font-family="Helvetica,sans-Serif" font-size="10.00" fill="grey"> +fScheme</text>
</g>
<!-- Node4 -->
<g id="Node000004" class="node">
<title>Node4</title>
<g id="a_Node000004"><a xlink:title=" ">
<polygon fill="white" stroke="none" points="534.75,-1044.75 489.25,-1044.75 489.25,-995 534.75,-995 534.75,-1044.75"/>
<text text-anchor="start" x="493.25" y="-1031.25" font-family="Helvetica,sans-Serif" font-size="10.00">TNamed</text>
<text text-anchor="start" x="510.5" y="-1016" font-family="Helvetica,sans-Serif" font-size="10.00"> </text>
<text text-anchor="start" x="510.5" y="-1000.75" font-family="Helvetica,sans-Serif" font-size="10.00"> </text>
<polygon fill="#666666" stroke="#666666" points="489.25,-1027.5 489.25,-1027.5 534.75,-1027.5 534.75,-1027.5 489.25,-1027.5"/>
<polygon fill="#666666" stroke="#666666" points="489.25,-1012.25 489.25,-1012.25 534.75,-1012.25 534.75,-1012.25 489.25,-1012.25"/>
<polygon fill="none" stroke="#666666" points="489.25,-995 489.25,-1044.75 534.75,-1044.75 534.75,-995 489.25,-995"/>
</a>
</g>
</g>
<!-- Node4&#45;&gt;Node3 -->
<g id="edge3_Node000003_Node000004" class="edge">
<title>Node4&#45;&gt;Node3</title>
<g id="a_edge3_Node000003_Node000004"><a xlink:title=" ">
<path fill="none" stroke="#63b8ff" d="M495.67,-984.77C486.43,-965.46 474.16,-939.83 461.28,-912.92"/>
<polygon fill="none" stroke="#63b8ff" points="492.49,-986.22 499.96,-993.73 498.8,-983.2 492.49,-986.22"/>
</a>
</g>
</g>
<!-- Node4&#45;&gt;Node8 -->
<g id="edge8_Node000008_Node000004" class="edge">
<title>Node4&#45;&gt;Node8</title>
<g id="a_edge8_Node000008_Node000004"><a xlink:title=" ">
<path fill="none" stroke="#63b8ff" d="M519,-984.2C532.36,-907.79 553.28,-722.37 470,-605 461.13,-592.49 355.3,-557.86 345,-546.5 343.42,-544.76 341.88,-542.99 340.37,-541.18"/>
<polygon fill="none" stroke="#63b8ff" points="515.63,-983.13 517.28,-993.6 522.52,-984.38 515.63,-983.13"/>
</a>
</g>
</g>
<!-- Node5 -->
<g id="Node000005" class="node">
<title>Node5</title>
<g id="a_Node000005"><a xlink:title=" ">
<polygon fill="white" stroke="none" points="277.5,-72.25 134.5,-72.25 134.5,0 277.5,0 277.5,-72.25"/>
<text text-anchor="start" x="138.5" y="-58.75" font-family="Helvetica,sans-Serif" font-size="10.00">std::map&lt; std::string,</text>
<text text-anchor="start" x="138.5" y="-47.5" font-family="Helvetica,sans-Serif" font-size="10.00"> GamR::Nucleus::LevelScheme</text>
<text text-anchor="start" x="176.75" y="-36.25" font-family="Helvetica,sans-Serif" font-size="10.00">Draw::State &gt;</text>
<text text-anchor="start" x="204.5" y="-21" font-family="Helvetica,sans-Serif" font-size="10.00"> </text>
<text text-anchor="start" x="204.5" y="-5.75" font-family="Helvetica,sans-Serif" font-size="10.00"> </text>
<polygon fill="#666666" stroke="#666666" points="134.5,-32.5 134.5,-32.5 277.5,-32.5 277.5,-32.5 134.5,-32.5"/>
<polygon fill="#666666" stroke="#666666" points="134.5,-17.25 134.5,-17.25 277.5,-17.25 277.5,-17.25 134.5,-17.25"/>
<polygon fill="none" stroke="#666666" points="134.5,0 134.5,-72.25 277.5,-72.25 277.5,0 134.5,0"/>
</a>
</g>
</g>
<!-- Node5&#45;&gt;Node3 -->
<g id="edge4_Node000003_Node000005" class="edge">
<title>Node5&#45;&gt;Node3</title>
<g id="a_edge4_Node000003_Node000005"><a xlink:title=" ">
<path fill="none" stroke="#63b8ff" d="M277.36,-61.37C304.39,-74.29 332.58,-93.11 349,-119.5 436.77,-260.55 437.03,-454.19 421.66,-592.34"/>
<polygon fill="none" stroke="#63b8ff" points="421.67,-592.3 424.95,-598.72 420.29,-604.22 417,-597.79 421.67,-592.3"/>
</a>
</g>
<text text-anchor="middle" x="449.21" y="-329.12" font-family="Helvetica,sans-Serif" font-size="10.00" fill="grey"> +fStates</text>
</g>
<!-- Node6 -->
<g id="Node000006" class="node">
<title>Node6</title>
<g id="a_Node000006"><a xlink:title=" ">
<polygon fill="white" stroke="none" points="196,-790 146,-790 146,-740.25 196,-740.25 196,-790"/>
<text text-anchor="start" x="150" y="-776.5" font-family="Helvetica,sans-Serif" font-size="10.00">std::string</text>
<text text-anchor="start" x="169.5" y="-761.25" font-family="Helvetica,sans-Serif" font-size="10.00"> </text>
<text text-anchor="start" x="169.5" y="-746" font-family="Helvetica,sans-Serif" font-size="10.00"> </text>
<polygon fill="#666666" stroke="#666666" points="146,-772.75 146,-772.75 196,-772.75 196,-772.75 146,-772.75"/>
<polygon fill="#666666" stroke="#666666" points="146,-757.5 146,-757.5 196,-757.5 196,-757.5 146,-757.5"/>
<polygon fill="none" stroke="#666666" points="146,-740.25 146,-790 196,-790 196,-740.25 146,-740.25"/>
</a>
</g>
</g>
<!-- Node6&#45;&gt;Node5 -->
<g id="edge5_Node000005_Node000006" class="edge">
<title>Node6&#45;&gt;Node5</title>
<g id="a_edge5_Node000005_Node000006"><a xlink:title=" ">
<path fill="none" stroke="#63b8ff" d="M170.04,-740.35C168.68,-706.35 166.1,-641.89 164,-587 156.05,-379.37 112.52,-321.18 162.5,-119.5 165.53,-107.27 170.75,-94.85 176.54,-83.49"/>
<polygon fill="none" stroke="#63b8ff" points="176.57,-83.43 175.91,-76.25 182.28,-72.88 182.94,-80.06 176.57,-83.43"/>
</a>
</g>
<text text-anchor="middle" x="176.75" y="-329.12" font-family="Helvetica,sans-Serif" font-size="10.00" fill="grey"> +keys</text>
</g>
<!-- Node6&#45;&gt;Node8 -->
<g id="edge11_Node000008_Node000006" class="edge">
<title>Node6&#45;&gt;Node8</title>
<g id="a_edge11_Node000008_Node000006"><a xlink:title=" ">
<path fill="none" stroke="#63b8ff" d="M168.13,-740.46C164.23,-702.76 159.11,-626.95 172,-564.5 177.31,-538.77 185.58,-512.34 195.1,-486.97"/>
<polygon fill="none" stroke="#63b8ff" points="195.07,-487.05 193.5,-480.01 199.39,-475.85 200.97,-482.89 195.07,-487.05"/>
</a>
</g>
<text text-anchor="middle" x="196" y="-577.5" font-family="Helvetica,sans-Serif" font-size="10.00" fill="grey"> +fLeftLab</text>
<text text-anchor="middle" x="196" y="-566.25" font-family="Helvetica,sans-Serif" font-size="10.00" fill="grey">+fRightLab</text>
</g>
<!-- Node7 -->
<g id="Node000007" class="node">
<title>Node7</title>
<g id="a_Node000007"><a xlink:title=" ">
<polygon fill="white" stroke="none" points="201.25,-1050.38 116.75,-1050.38 116.75,-989.38 201.25,-989.38 201.25,-1050.38"/>
<text text-anchor="start" x="120.75" y="-1036.88" font-family="Helvetica,sans-Serif" font-size="10.00">std::basic_string&lt;</text>
<text text-anchor="start" x="143.62" y="-1025.62" font-family="Helvetica,sans-Serif" font-size="10.00"> Char &gt;</text>
<text text-anchor="start" x="157.5" y="-1010.38" font-family="Helvetica,sans-Serif" font-size="10.00"> </text>
<text text-anchor="start" x="157.5" y="-995.12" font-family="Helvetica,sans-Serif" font-size="10.00"> </text>
<polygon fill="#666666" stroke="#666666" points="116.75,-1021.88 116.75,-1021.88 201.25,-1021.88 201.25,-1021.88 116.75,-1021.88"/>
<polygon fill="#666666" stroke="#666666" points="116.75,-1006.62 116.75,-1006.62 201.25,-1006.62 201.25,-1006.62 116.75,-1006.62"/>
<polygon fill="none" stroke="#666666" points="116.75,-989.38 116.75,-1050.38 201.25,-1050.38 201.25,-989.38 116.75,-989.38"/>
</a>
</g>
</g>
<!-- Node7&#45;&gt;Node6 -->
<g id="edge6_Node000006_Node000007" class="edge">
<title>Node7&#45;&gt;Node6</title>
<g id="a_edge6_Node000006_Node000007"><a xlink:title=" ">
<path fill="none" stroke="#63b8ff" d="M160.94,-977.97C163.48,-924.59 167.83,-832.91 169.88,-789.82"/>
<polygon fill="none" stroke="#63b8ff" points="157.45,-977.72 160.47,-987.87 164.44,-978.05 157.45,-977.72"/>
</a>
</g>
</g>
<!-- Node8&#45;&gt;Node1 -->
<g id="edge19_Node000001_Node000008" class="edge">
<title>Node8&#45;&gt;Node1</title>
<g id="a_edge19_Node000001_Node000008"><a xlink:title=" ">
<path fill="none" stroke="#63b8ff" d="M251.12,-546.19C249.85,-566.06 248.77,-585.9 248,-605 242.24,-747.22 243.48,-782.99 248,-925.25 249.82,-982.51 253.01,-1044.05 256.58,-1102.02"/>
<polygon fill="none" stroke="#63b8ff" points="256.57,-1101.85 260.94,-1107.59 257.32,-1113.83 252.95,-1108.09 256.57,-1101.85"/>
</a>
</g>
<text text-anchor="middle" x="265.58" y="-956.25" font-family="Helvetica,sans-Serif" font-size="10.00" fill="grey"> +fFinal</text>
<text text-anchor="middle" x="265.58" y="-945" font-family="Helvetica,sans-Serif" font-size="10.00" fill="grey">+fInitial</text>
</g>
<!-- Node8&#45;&gt;Node5 -->
<g id="edge7_Node000005_Node000008" class="edge">
<title>Node8&#45;&gt;Node5</title>
<g id="a_edge7_Node000005_Node000008"><a xlink:title=" ">
<path fill="none" stroke="#63b8ff" d="M223.91,-119.66C221.19,-107.09 218.63,-95.31 216.35,-84.8"/>
<polygon fill="none" stroke="#63b8ff" points="216.35,-84.81 211.17,-79.8 213.81,-73.09 218.99,-78.1 216.35,-84.81"/>
</a>
</g>
<text text-anchor="middle" x="243.82" y="-92" font-family="Helvetica,sans-Serif" font-size="10.00" fill="grey"> +elements</text>
</g>
<!-- Node9 -->
<g id="Node000009" class="node">
<title>Node9</title>
<g id="a_Node000009"><a xlink:title=" ">
<polygon fill="white" stroke="none" points="302.75,-790 257.25,-790 257.25,-740.25 302.75,-740.25 302.75,-790"/>
<text text-anchor="start" x="261.25" y="-776.5" font-family="Helvetica,sans-Serif" font-size="10.00">TAttLine</text>
<text text-anchor="start" x="278.5" y="-761.25" font-family="Helvetica,sans-Serif" font-size="10.00"> </text>
<text text-anchor="start" x="278.5" y="-746" font-family="Helvetica,sans-Serif" font-size="10.00"> </text>
<polygon fill="#666666" stroke="#666666" points="257.25,-772.75 257.25,-772.75 302.75,-772.75 302.75,-772.75 257.25,-772.75"/>
<polygon fill="#666666" stroke="#666666" points="257.25,-757.5 257.25,-757.5 302.75,-757.5 302.75,-757.5 257.25,-757.5"/>
<polygon fill="none" stroke="#666666" points="257.25,-740.25 257.25,-790 302.75,-790 302.75,-740.25 257.25,-740.25"/>
</a>
</g>
</g>
<!-- Node9&#45;&gt;Node8 -->
<g id="edge9_Node000008_Node000009" class="edge">
<title>Node9&#45;&gt;Node8</title>
<g id="a_edge9_Node000008_Node000009"><a xlink:title=" ">
<path fill="none" stroke="#63b8ff" d="M279.18,-728.93C278.23,-687.98 276.58,-616.93 274.94,-546.29"/>
<polygon fill="none" stroke="#63b8ff" points="275.68,-728.96 279.41,-738.87 282.68,-728.8 275.68,-728.96"/>
</a>
</g>
</g>
<!-- Node10 -->
<g id="Node000010" class="node">
<title>Node10</title>
<g id="a_Node000010"><a xlink:title=" ">
<polygon fill="white" stroke="none" points="113.62,-1375.75 34.38,-1375.75 34.38,-1326 113.62,-1326 113.62,-1375.75"/>
<text text-anchor="start" x="38.38" y="-1362.25" font-family="Helvetica,sans-Serif" font-size="10.00">std::map&lt; K, T &gt;</text>
<text text-anchor="start" x="72.5" y="-1347" font-family="Helvetica,sans-Serif" font-size="10.00"> </text>
<text text-anchor="start" x="72.5" y="-1331.75" font-family="Helvetica,sans-Serif" font-size="10.00"> </text>
<polygon fill="#666666" stroke="#666666" points="34.38,-1358.5 34.38,-1358.5 113.62,-1358.5 113.62,-1358.5 34.38,-1358.5"/>
<polygon fill="#666666" stroke="#666666" points="34.38,-1343.25 34.38,-1343.25 113.62,-1343.25 113.62,-1343.25 34.38,-1343.25"/>
<polygon fill="none" stroke="#666666" points="34.38,-1326 34.38,-1375.75 113.62,-1375.75 113.62,-1326 34.38,-1326"/>
</a>
</g>
</g>
<!-- Node10&#45;&gt;Node5 -->
<g id="edge12_Node000005_Node000010" class="edge">
<title>Node10&#45;&gt;Node5</title>
<g id="a_edge12_Node000005_Node000010"><a xlink:title=" ">
<path fill="none" stroke="orange" d="M61.07,-1315.76C39.86,-1256.63 0,-1130.88 0,-1020.88 0,-1020.88 0,-1020.88 0,-332 0,-221.31 98.76,-122.54 159.51,-72.25"/>
<polygon fill="orange" stroke="orange" points="57.7,-1316.72 64.41,-1324.92 64.28,-1314.33 57.7,-1316.72"/>
</a>
</g>
<text text-anchor="start" x="0" y="-772.5" font-family="Helvetica,sans-Serif" font-size="10.00" fill="grey"> &lt; std::string, GamR</text>
<text text-anchor="start" x="0" y="-761.25" font-family="Helvetica,sans-Serif" font-size="10.00" fill="grey">::Nucleus::LevelSchemeDraw</text>
<text text-anchor="middle" x="63.75" y="-750" font-family="Helvetica,sans-Serif" font-size="10.00" fill="grey">::State &gt;</text>
</g>
<!-- Node11 -->
<g id="Node000011" class="node">
<title>Node11</title>
<g id="a_Node000011"><a xlink:title=" ">
<polygon fill="white" stroke="none" points="81.38,-1684.25 66.62,-1684.25 66.62,-1634.5 81.38,-1634.5 81.38,-1684.25"/>
<text text-anchor="start" x="70.62" y="-1670.75" font-family="Helvetica,sans-Serif" font-size="10.00">K</text>
<text text-anchor="start" x="72.5" y="-1655.5" font-family="Helvetica,sans-Serif" font-size="10.00"> </text>
<text text-anchor="start" x="72.5" y="-1640.25" font-family="Helvetica,sans-Serif" font-size="10.00"> </text>
<polygon fill="#666666" stroke="#666666" points="66.62,-1667 66.62,-1667 81.38,-1667 81.38,-1667 66.62,-1667"/>
<polygon fill="#666666" stroke="#666666" points="66.62,-1651.75 66.62,-1651.75 81.38,-1651.75 81.38,-1651.75 66.62,-1651.75"/>
<polygon fill="none" stroke="#666666" points="66.62,-1634.5 66.62,-1684.25 81.38,-1684.25 81.38,-1634.5 66.62,-1634.5"/>
</a>
</g>
</g>
<!-- Node11&#45;&gt;Node10 -->
<g id="edge13_Node000010_Node000011" class="edge">
<title>Node11&#45;&gt;Node10</title>
<g id="a_edge13_Node000010_Node000011"><a xlink:title=" ">
<path fill="none" stroke="#63b8ff" d="M74,-1634.58C74,-1581.25 74,-1451.86 74,-1388.31"/>
<polygon fill="none" stroke="#63b8ff" points="74,-1388.35 70,-1382.35 74,-1376.35 78,-1382.35 74,-1388.35"/>
</a>
</g>
<text text-anchor="middle" x="88.25" y="-1607" font-family="Helvetica,sans-Serif" font-size="10.00" fill="grey"> +keys</text>
</g>
<!-- Node12 -->
<g id="Node000012" class="node">
<title>Node12</title>
<g id="a_Node000012"><a xlink:title=" ">
<polygon fill="white" stroke="none" points="359,-1684.25 345,-1684.25 345,-1634.5 359,-1634.5 359,-1684.25"/>
<text text-anchor="start" x="349" y="-1670.75" font-family="Helvetica,sans-Serif" font-size="10.00">T</text>
<text text-anchor="start" x="350.5" y="-1655.5" font-family="Helvetica,sans-Serif" font-size="10.00"> </text>
<text text-anchor="start" x="350.5" y="-1640.25" font-family="Helvetica,sans-Serif" font-size="10.00"> </text>
<polygon fill="#666666" stroke="#666666" points="345,-1667 345,-1667 359,-1667 359,-1667 345,-1667"/>
<polygon fill="#666666" stroke="#666666" points="345,-1651.75 345,-1651.75 359,-1651.75 359,-1651.75 345,-1651.75"/>
<polygon fill="none" stroke="#666666" points="345,-1634.5 345,-1684.25 359,-1684.25 359,-1634.5 345,-1634.5"/>
</a>
</g>
</g>
<!-- Node12&#45;&gt;Node10 -->
<g id="edge14_Node000010_Node000012" class="edge">
<title>Node12&#45;&gt;Node10</title>
<g id="a_edge14_Node000010_Node000012"><a xlink:title=" ">
<path fill="none" stroke="#63b8ff" d="M345.01,-1654.05C336.79,-1649.04 322.66,-1640.69 310,-1634.5 260.73,-1610.4 236.4,-1624.34 196,-1587.25 135.34,-1531.55 99.88,-1438.73 84.02,-1387.89"/>
<polygon fill="none" stroke="#63b8ff" points="84.05,-1387.97 78.48,-1383.38 80.58,-1376.48 86.14,-1381.07 84.05,-1387.97"/>
</a>
</g>
<text text-anchor="middle" x="275.75" y="-1607" font-family="Helvetica,sans-Serif" font-size="10.00" fill="grey"> +elements</text>
</g>
<!-- Node14 -->
<g id="Node000014" class="node">
<title>Node14</title>
<g id="a_Node000014"><a xlink:title=" ">
<polygon fill="white" stroke="none" points="440.75,-1375.75 365.25,-1375.75 365.25,-1326 440.75,-1326 440.75,-1375.75"/>
<text text-anchor="start" x="369.25" y="-1362.25" font-family="Helvetica,sans-Serif" font-size="10.00">std::vector&lt; T &gt;</text>
<text text-anchor="start" x="401.5" y="-1347" font-family="Helvetica,sans-Serif" font-size="10.00"> </text>
<text text-anchor="start" x="401.5" y="-1331.75" font-family="Helvetica,sans-Serif" font-size="10.00"> </text>
<polygon fill="#666666" stroke="#666666" points="365.25,-1358.5 365.25,-1358.5 440.75,-1358.5 440.75,-1358.5 365.25,-1358.5"/>
<polygon fill="#666666" stroke="#666666" points="365.25,-1343.25 365.25,-1343.25 440.75,-1343.25 440.75,-1343.25 365.25,-1343.25"/>
<polygon fill="none" stroke="#666666" points="365.25,-1326 365.25,-1375.75 440.75,-1375.75 440.75,-1326 365.25,-1326"/>
</a>
</g>
</g>
<!-- Node12&#45;&gt;Node14 -->
<g id="edge18_Node000014_Node000012" class="edge">
<title>Node12&#45;&gt;Node14</title>
<g id="a_edge18_Node000014_Node000012"><a xlink:title=" ">
<path fill="none" stroke="#63b8ff" d="M358.87,-1645.93C363.04,-1637.79 368.11,-1626.8 371,-1616.5 393.23,-1537.14 400.02,-1440.14 402.09,-1388.44"/>
<polygon fill="none" stroke="#63b8ff" points="402.08,-1388.6 398.3,-1382.47 402.51,-1376.61 406.29,-1382.75 402.08,-1388.6"/>
</a>
</g>
<text text-anchor="middle" x="396.88" y="-1607" font-family="Helvetica,sans-Serif" font-size="10.00" fill="grey"> +elements</text>
</g>
<!-- Node13&#45;&gt;Node3 -->
<g id="edge15_Node000003_Node000013" class="edge">
<title>Node13&#45;&gt;Node3</title>
<g id="a_edge15_Node000003_Node000013"><a xlink:title=" ">
<path fill="none" stroke="#63b8ff" d="M403.93,-984C403.16,-970.98 402.22,-955.18 401.21,-938.09"/>
<polygon fill="none" stroke="#63b8ff" points="401.2,-938 396.85,-932.25 400.49,-926.02 404.84,-931.78 401.2,-938"/>
</a>
</g>
<text text-anchor="middle" x="432.38" y="-950.62" font-family="Helvetica,sans-Serif" font-size="10.00" fill="grey"> +fTransitions</text>
</g>
<!-- Node14&#45;&gt;Node13 -->
<g id="edge17_Node000013_Node000014" class="edge">
<title>Node14&#45;&gt;Node13</title>
<g id="a_edge17_Node000013_Node000014"><a xlink:title=" ">
<path fill="none" stroke="orange" d="M403.32,-1314.89C403.9,-1251.67 405.1,-1119.1 405.68,-1055.87"/>
<polygon fill="orange" stroke="orange" points="399.82,-1314.67 403.23,-1324.7 406.82,-1314.73 399.82,-1314.67"/>
</a>
</g>
<text text-anchor="start" x="405.5" y="-1087" font-family="Helvetica,sans-Serif" font-size="10.00" fill="grey"> &lt; GamR::Nucleus::LevelScheme</text>
<text text-anchor="middle" x="477.12" y="-1075.75" font-family="Helvetica,sans-Serif" font-size="10.00" fill="grey">Draw::Transition &gt;</text>
</g>
</g>
</svg>

<g id="navigator" transform="translate(0 0)" fill="#404254">
  <rect fill="#f2f5e9" fill-opacity="0.5" stroke="#606060" stroke-width=".5" x="0" y="0" width="60" height="60"/>
  <use id="zoomplus" xlink:href="#zoomPlus" x="17" y="9" onmousedown="handleZoom(evt,'in')"/>
  <use id="zoomminus" xlink:href="#zoomMin" x="42" y="9" onmousedown="handleZoom(evt,'out')"/>
  <use id="reset" xlink:href="#resetDef" x="30" y="36" onmousedown="handleReset()"/>
   <use id="arrowup" xlink:href="#arrowUp" x="0" y="0" onmousedown="handlePan(0,-1)"/>
  <use id="arrowright" xlink:href="#arrowRight" x="0" y="0" onmousedown="handlePan(1,0)"/>
  <use id="arrowdown" xlink:href="#arrowDown" x="0" y="0" onmousedown="handlePan(0,1)"/>
  <use id="arrowleft" xlink:href="#arrowLeft" x="0" y="0" onmousedown="handlePan(-1,0)"/>
</g>
<svg viewBox="0 0 15 15" width="100%" height="30px" preserveAspectRatio="xMaxYMin meet">
 <g id="arrow_out" transform="scale(0.3 0.3)">
  <a xlink:href="class_gam_r_1_1_nucleus_1_1_level_scheme_draw_1_1_transition__coll__graph_org.svg" target="_base">
   <rect id="button" ry="5" rx="5" y="6" x="6" height="38" width="38"
        fill="#f2f5e9" fill-opacity="0.5" stroke="#606060" stroke-width="1.0"/>
   <path id="arrow"
     d="M 11.500037,31.436501 C 11.940474,20.09759 22.043105,11.32322 32.158766,21.979434 L 37.068811,17.246167 C 37.068811,17.246167 37.088388,32 37.088388,32 L 22.160133,31.978069 C 22.160133,31.978069 26.997745,27.140456 26.997745,27.140456 C 18.528582,18.264221 13.291696,25.230495 11.500037,31.436501 z"
     style="fill:#404040;"/>
  </a>
 </g>
</svg>

<style type='text/css'>
<![CDATA[
[data-mouse-over-selected='false'] { opacity: 0.7; }
[data-mouse-over-selected='true']  { opacity: 1.0; }
]]>
</style>
<script type="application/ecmascript"><![CDATA[
document.addEventListener('DOMContentLoaded', (event) => {
  highlightEdges();
  highlightAdjacentNodes();
});
]]></script>
</svg>
