<?xml version="1.0" encoding="UTF-8" standalone="no"?>
<!DOCTYPE svg PUBLIC "-//W3C//DTD SVG 1.1//EN"
 "http://www.w3.org/Graphics/SVG/1.1/DTD/svg11.dtd">
<!-- Generated by graphviz version 2.49.3 (20211023.0002)
 -->
<!-- Title: /Users/99j/git/gamma&#45;root/src/lib/utils/Tuples.hh Pages: 1 -->
<svg width="609pt" height="240pt"
 viewBox="0.00 0.00 608.50 240.00" xmlns="http://www.w3.org/2000/svg" xmlns:xlink="http://www.w3.org/1999/xlink">
<g id="graph0" class="graph" transform="scale(1 1) rotate(0) translate(4 236)">
<title>/Users/99j/git/gamma&#45;root/src/lib/utils/Tuples.hh</title>
<polygon fill="white" stroke="transparent" points="-4,4 -4,-236 604.5,-236 604.5,4 -4,4"/>
<!-- Node1 -->
<g id="node1" class="node">
<title>Node1</title>
<g id="a_node1"><a xlink:title=" ">
<polygon fill="#bfbfbf" stroke="black" points="311.5,-201.5 311.5,-231.5 444.5,-231.5 444.5,-201.5 311.5,-201.5"/>
<text text-anchor="start" x="319.5" y="-219.5" font-family="Helvetica,sans-Serif" font-size="10.00">/Users/99j/git/gamma</text>
<text text-anchor="middle" x="378" y="-208.5" font-family="Helvetica,sans-Serif" font-size="10.00">&#45;root/src/lib/utils/Tuples.hh</text>
</a>
</g>
</g>
<!-- Node2 -->
<g id="node2" class="node">
<title>Node2</title>
<g id="a_node2"><a xlink:href="../../d5/d83/_det_defn_8hh.html" target="_top" xlink:title=" ">
<polygon fill="white" stroke="black" points="156.5,-134.5 156.5,-164.5 295.5,-164.5 295.5,-134.5 156.5,-134.5"/>
<text text-anchor="start" x="164.5" y="-152.5" font-family="Helvetica,sans-Serif" font-size="10.00">/Users/99j/git/gamma</text>
<text text-anchor="middle" x="226" y="-141.5" font-family="Helvetica,sans-Serif" font-size="10.00">&#45;root/src/lib/tree/DetDefn.hh</text>
</a>
</g>
</g>
<!-- Node1&#45;&gt;Node2 -->
<g id="edge1" class="edge">
<title>Node1&#45;&gt;Node2</title>
<path fill="none" stroke="midnightblue" d="M335.69,-197.41C311.42,-187.03 281.41,-174.2 258.92,-164.58"/>
<polygon fill="midnightblue" stroke="midnightblue" points="334.45,-200.68 345.02,-201.4 337.2,-194.25 334.45,-200.68"/>
</g>
<!-- Node6 -->
<g id="node6" class="node">
<title>Node6</title>
<g id="a_node6"><a xlink:href="../../dc/d53/_event_8hh.html" target="_top" xlink:title=" ">
<polygon fill="white" stroke="black" points="314,-134.5 314,-164.5 442,-164.5 442,-134.5 314,-134.5"/>
<text text-anchor="start" x="322" y="-152.5" font-family="Helvetica,sans-Serif" font-size="10.00">/Users/99j/git/gamma</text>
<text text-anchor="middle" x="378" y="-141.5" font-family="Helvetica,sans-Serif" font-size="10.00">&#45;root/src/lib/tree/Event.hh</text>
</a>
</g>
</g>
<!-- Node1&#45;&gt;Node6 -->
<g id="edge5" class="edge">
<title>Node1&#45;&gt;Node6</title>
<path fill="none" stroke="midnightblue" d="M378,-191.11C378,-182.15 378,-172.32 378,-164.58"/>
<polygon fill="midnightblue" stroke="midnightblue" points="374.5,-191.4 378,-201.4 381.5,-191.4 374.5,-191.4"/>
</g>
<!-- Node8 -->
<g id="node8" class="node">
<title>Node8</title>
<g id="a_node8"><a xlink:href="../../d2/d9e/_exp_defn_8tt.html" target="_top" xlink:title=" ">
<polygon fill="white" stroke="black" points="461.5,-134.5 461.5,-164.5 596.5,-164.5 596.5,-134.5 461.5,-134.5"/>
<text text-anchor="start" x="469.5" y="-152.5" font-family="Helvetica,sans-Serif" font-size="10.00">/Users/99j/git/gamma</text>
<text text-anchor="middle" x="529" y="-141.5" font-family="Helvetica,sans-Serif" font-size="10.00">&#45;root/src/lib/tree/ExpDefn.tt</text>
</a>
</g>
</g>
<!-- Node1&#45;&gt;Node8 -->
<g id="edge7" class="edge">
<title>Node1&#45;&gt;Node8</title>
<path fill="none" stroke="midnightblue" d="M420.03,-197.41C444.14,-187.03 473.95,-174.2 496.3,-164.58"/>
<polygon fill="midnightblue" stroke="midnightblue" points="418.57,-194.23 410.76,-201.4 421.33,-200.66 418.57,-194.23"/>
</g>
<!-- Node3 -->
<g id="node3" class="node">
<title>Node3</title>
<g id="a_node3"><a xlink:href="../../db/d79/_det_defn_8cc.html" target="_top" xlink:title=" ">
<polygon fill="white" stroke="black" points="0,-67.5 0,-97.5 138,-97.5 138,-67.5 0,-67.5"/>
<text text-anchor="start" x="8" y="-85.5" font-family="Helvetica,sans-Serif" font-size="10.00">/Users/99j/git/gamma</text>
<text text-anchor="middle" x="69" y="-74.5" font-family="Helvetica,sans-Serif" font-size="10.00">&#45;root/src/lib/tree/DetDefn.cc</text>
</a>
</g>
</g>
<!-- Node2&#45;&gt;Node3 -->
<g id="edge2" class="edge">
<title>Node2&#45;&gt;Node3</title>
<path fill="none" stroke="midnightblue" d="M182.63,-130.54C157.51,-120.14 126.34,-107.24 103,-97.58"/>
<polygon fill="midnightblue" stroke="midnightblue" points="181.36,-133.8 191.93,-134.4 184.03,-127.34 181.36,-133.8"/>
</g>
<!-- Node4 -->
<g id="node4" class="node">
<title>Node4</title>
<g id="a_node4"><a xlink:href="../../db/db2/_detector_8hh.html" target="_top" xlink:title=" ">
<polygon fill="white" stroke="black" points="156,-67.5 156,-97.5 296,-97.5 296,-67.5 156,-67.5"/>
<text text-anchor="start" x="164" y="-85.5" font-family="Helvetica,sans-Serif" font-size="10.00">/Users/99j/git/gamma</text>
<text text-anchor="middle" x="226" y="-74.5" font-family="Helvetica,sans-Serif" font-size="10.00">&#45;root/src/lib/tree/Detector.hh</text>
</a>
</g>
</g>
<!-- Node2&#45;&gt;Node4 -->
<g id="edge3" class="edge">
<title>Node2&#45;&gt;Node4</title>
<path fill="none" stroke="midnightblue" d="M226,-124.11C226,-115.15 226,-105.32 226,-97.58"/>
<polygon fill="midnightblue" stroke="midnightblue" points="222.5,-124.4 226,-134.4 229.5,-124.4 222.5,-124.4"/>
</g>
<!-- Node5 -->
<g id="node5" class="node">
<title>Node5</title>
<g id="a_node5"><a xlink:href="../../df/d54/_detector_8cc.html" target="_top" xlink:title=" ">
<polygon fill="white" stroke="black" points="156.5,-0.5 156.5,-30.5 295.5,-30.5 295.5,-0.5 156.5,-0.5"/>
<text text-anchor="start" x="164.5" y="-18.5" font-family="Helvetica,sans-Serif" font-size="10.00">/Users/99j/git/gamma</text>
<text text-anchor="middle" x="226" y="-7.5" font-family="Helvetica,sans-Serif" font-size="10.00">&#45;root/src/lib/tree/Detector.cc</text>
</a>
</g>
</g>
<!-- Node4&#45;&gt;Node5 -->
<g id="edge4" class="edge">
<title>Node4&#45;&gt;Node5</title>
<path fill="none" stroke="midnightblue" d="M226,-57.11C226,-48.15 226,-38.32 226,-30.58"/>
<polygon fill="midnightblue" stroke="midnightblue" points="222.5,-57.4 226,-67.4 229.5,-57.4 222.5,-57.4"/>
</g>
<!-- Node7 -->
<g id="node7" class="node">
<title>Node7</title>
<g id="a_node7"><a xlink:href="../../dc/dba/_event_8cc.html" target="_top" xlink:title=" ">
<polygon fill="white" stroke="black" points="314.5,-67.5 314.5,-97.5 441.5,-97.5 441.5,-67.5 314.5,-67.5"/>
<text text-anchor="start" x="322.5" y="-85.5" font-family="Helvetica,sans-Serif" font-size="10.00">/Users/99j/git/gamma</text>
<text text-anchor="middle" x="378" y="-74.5" font-family="Helvetica,sans-Serif" font-size="10.00">&#45;root/src/lib/tree/Event.cc</text>
</a>
</g>
</g>
<!-- Node6&#45;&gt;Node7 -->
<g id="edge6" class="edge">
<title>Node6&#45;&gt;Node7</title>
<path fill="none" stroke="midnightblue" d="M378,-124.11C378,-115.15 378,-105.32 378,-97.58"/>
<polygon fill="midnightblue" stroke="midnightblue" points="374.5,-124.4 378,-134.4 381.5,-124.4 374.5,-124.4"/>
</g>
<!-- Node9 -->
<g id="node9" class="node">
<title>Node9</title>
<g id="a_node9"><a xlink:href="../../dc/d02/_exp_defn_8hh.html" target="_top" xlink:title=" ">
<polygon fill="white" stroke="black" points="459.5,-67.5 459.5,-97.5 600.5,-97.5 600.5,-67.5 459.5,-67.5"/>
<text text-anchor="start" x="467.5" y="-85.5" font-family="Helvetica,sans-Serif" font-size="10.00">/Users/99j/git/gamma</text>
<text text-anchor="middle" x="530" y="-74.5" font-family="Helvetica,sans-Serif" font-size="10.00">&#45;root/src/lib/tree/ExpDefn.hh</text>
</a>
</g>
</g>
<!-- Node8&#45;&gt;Node9 -->
<g id="edge8" class="edge">
<title>Node8&#45;&gt;Node9</title>
<path fill="none" stroke="midnightblue" d="M529.38,-124.11C529.51,-115.15 529.66,-105.32 529.78,-97.58"/>
<polygon fill="midnightblue" stroke="midnightblue" points="525.87,-124.34 529.22,-134.4 532.87,-124.45 525.87,-124.34"/>
</g>
<!-- Node10 -->
<g id="node10" class="node">
<title>Node10</title>
<g id="a_node10"><a xlink:href="../../df/de5/_exp_defn_8cc.html" target="_top" xlink:title=" ">
<polygon fill="white" stroke="black" points="460,-0.5 460,-30.5 600,-30.5 600,-0.5 460,-0.5"/>
<text text-anchor="start" x="468" y="-18.5" font-family="Helvetica,sans-Serif" font-size="10.00">/Users/99j/git/gamma</text>
<text text-anchor="middle" x="530" y="-7.5" font-family="Helvetica,sans-Serif" font-size="10.00">&#45;root/src/lib/tree/ExpDefn.cc</text>
</a>
</g>
</g>
<!-- Node9&#45;&gt;Node10 -->
<g id="edge9" class="edge">
<title>Node9&#45;&gt;Node10</title>
<path fill="none" stroke="midnightblue" d="M530,-57.11C530,-48.15 530,-38.32 530,-30.58"/>
<polygon fill="midnightblue" stroke="midnightblue" points="526.5,-57.4 530,-67.4 533.5,-57.4 526.5,-57.4"/>
</g>
</g>
</svg>
