<?xml version="1.0" encoding="UTF-8" standalone="no"?>
<!DOCTYPE svg PUBLIC "-//W3C//DTD SVG 1.1//EN"
 "http://www.w3.org/Graphics/SVG/1.1/DTD/svg11.dtd">
<!-- Generated by graphviz version 6.0.2 (20221011.1828)
 -->
<!-- Title: src/lib/tree/ExpDefn.hh Pages: 1 -->
<!--zoomable 192 -->
<svg id="main" version="1.1" xmlns="http://www.w3.org/2000/svg" xmlns:xlink="http://www.w3.org/1999/xlink" xml:space="preserve" onload="init(evt)">
<style type="text/css"><![CDATA[
.edge:hover path { stroke: red; }
.edge:hover polygon { stroke: red; fill: red; }
]]></style>
<script type="text/javascript"><![CDATA[
var edges = document.getElementsByTagName('g');
if (edges && edges.length) {
  for (var i=0;i<edges.length;i++) {
    if (edges[i].id.substr(0,4)=='edge') {
      edges[i].setAttribute('class','edge');
    }
  }
}
]]></script>
        <defs>
                <circle id="rim" cx="0" cy="0" r="7"/>
                <circle id="rim2" cx="0" cy="0" r="3.5"/>
                <g id="zoomPlus">
                        <use xlink:href="#rim" fill="#404040">
                                <set attributeName="fill" to="#808080" begin="zoomplus.mouseover" end="zoomplus.mouseout"/>
                        </use>
                        <path d="M-4,0h8M0,-4v8" fill="none" stroke="white" stroke-width="1.5" pointer-events="none"/>
                </g>
                <g id="zoomMin">
                        <use xlink:href="#rim" fill="#404040">
                                <set attributeName="fill" to="#808080" begin="zoomminus.mouseover" end="zoomminus.mouseout"/>
                        </use>
                        <path d="M-4,0h8" fill="none" stroke="white" stroke-width="1.5" pointer-events="none"/>
                </g>
                <g id="dirArrow">
                        <path fill="none" stroke="white" stroke-width="1.5" d="M0,-3.0v7 M-2.5,-0.5L0,-3.0L2.5,-0.5"/>
                </g>
               <g id="resetDef">
                       <use xlink:href="#rim2" fill="#404040">
                               <set attributeName="fill" to="#808080" begin="reset.mouseover" end="reset.mouseout"/>
                       </use>
               </g>
        </defs>

<script type="text/javascript">
var viewWidth = 1252;
var viewHeight = 192;
var sectionId = 'dynsection-0';
</script>
<script xlink:href="../../svgpan.js"/>
<svg id="graph" class="graph">
<g id="viewport">
<title>src/lib/tree/ExpDefn.hh</title>
<!-- Node1 -->
<g id="node1" class="node">
<title>Node1</title>
<g id="a_node1"><a xlink:title=" ">
<polygon fill="#999999" stroke="#666666" points="429.5,-184 315.5,-184 315.5,-165 429.5,-165 429.5,-184"/>
<text text-anchor="middle" x="372.5" y="-172" font-family="Helvetica,sans-Serif" font-size="10.00">src/lib/tree/ExpDefn.hh</text>
</a>
</g>
</g>
<!-- Node2 -->
<g id="node2" class="node">
<title>Node2</title>
<g id="a_node2"><a xlink:title=" ">
<polygon fill="#e0e0e0" stroke="#999999" points="51,-129 0,-129 0,-110 51,-110 51,-129"/>
<text text-anchor="middle" x="25.5" y="-117" font-family="Helvetica,sans-Serif" font-size="10.00">memory</text>
</a>
</g>
</g>
<!-- Node1&#45;&gt;Node2 -->
<g id="edge1" class="edge">
<title>Node1&#45;&gt;Node2</title>
<path fill="none" stroke="#63b8ff" d="M315.37,-167.18C254.55,-160.05 155.32,-147.27 61.04,-129.14"/>
<polygon fill="#63b8ff" stroke="#63b8ff" points="61.54,-125.67 51.06,-127.19 60.2,-132.54 61.54,-125.67"/>
</g>
<!-- Node3 -->
<g id="node3" class="node">
<title>Node3</title>
<g id="a_node3"><a xlink:title=" ">
<polygon fill="#e0e0e0" stroke="#999999" points="110,-129 69,-129 69,-110 110,-110 110,-129"/>
<text text-anchor="middle" x="89.5" y="-117" font-family="Helvetica,sans-Serif" font-size="10.00">string</text>
</a>
</g>
</g>
<!-- Node1&#45;&gt;Node3 -->
<g id="edge2" class="edge">
<title>Node1&#45;&gt;Node3</title>
<path fill="none" stroke="#63b8ff" d="M315.39,-165.16C266.11,-157.58 192.86,-145.38 119.91,-128.88"/>
<polygon fill="#63b8ff" stroke="#63b8ff" points="120.61,-125.45 110.09,-126.63 119.05,-132.27 120.61,-125.45"/>
</g>
<!-- Node4 -->
<g id="node4" class="node">
<title>Node4</title>
<g id="a_node4"><a xlink:title=" ">
<polygon fill="#e0e0e0" stroke="#999999" points="172.5,-129 128.5,-129 128.5,-110 172.5,-110 172.5,-129"/>
<text text-anchor="middle" x="150.5" y="-117" font-family="Helvetica,sans-Serif" font-size="10.00">thread</text>
</a>
</g>
</g>
<!-- Node1&#45;&gt;Node4 -->
<g id="edge3" class="edge">
<title>Node1&#45;&gt;Node4</title>
<path fill="none" stroke="#63b8ff" d="M333.98,-164.99C297.37,-156.79 240.53,-143.8 182.52,-129.19"/>
<polygon fill="#63b8ff" stroke="#63b8ff" points="183.38,-125.79 172.82,-126.73 181.66,-132.58 183.38,-125.79"/>
</g>
<!-- Node5 -->
<g id="node5" class="node">
<title>Node5</title>
<g id="a_node5"><a xlink:title=" ">
<polygon fill="#e0e0e0" stroke="#999999" points="226,-129 191,-129 191,-110 226,-110 226,-129"/>
<text text-anchor="middle" x="208.5" y="-117" font-family="Helvetica,sans-Serif" font-size="10.00">map</text>
</a>
</g>
</g>
<!-- Node1&#45;&gt;Node5 -->
<g id="edge4" class="edge">
<title>Node1&#45;&gt;Node5</title>
<path fill="none" stroke="#63b8ff" d="M346.15,-164.98C315.89,-155.2 266.48,-139.24 235.82,-129.33"/>
<polygon fill="#63b8ff" stroke="#63b8ff" points="236.78,-125.96 226.19,-126.22 234.63,-132.62 236.78,-125.96"/>
</g>
<!-- Node6 -->
<g id="node6" class="node">
<title>Node6</title>
<g id="a_node6"><a xlink:title=" ">
<polygon fill="#e0e0e0" stroke="#999999" points="703.5,-19 665.5,-19 665.5,0 703.5,0 703.5,-19"/>
<text text-anchor="middle" x="684.5" y="-7" font-family="Helvetica,sans-Serif" font-size="10.00">tuple</text>
</a>
</g>
</g>
<!-- Node1&#45;&gt;Node6 -->
<g id="edge5" class="edge">
<title>Node1&#45;&gt;Node6</title>
<path fill="none" stroke="#63b8ff" d="M334.67,-164.98C299.05,-155.13 253.87,-136.75 273.5,-110 319.37,-47.5 569.33,-20.4 655.38,-12.83"/>
<polygon fill="#63b8ff" stroke="#63b8ff" points="655.83,-16.31 665.49,-11.97 655.23,-9.33 655.83,-16.31"/>
</g>
<!-- Node7 -->
<g id="node7" class="node">
<title>Node7</title>
<g id="a_node7"><a xlink:title=" ">
<polygon fill="#e0e0e0" stroke="#999999" points="326.5,-129 282.5,-129 282.5,-110 326.5,-110 326.5,-129"/>
<text text-anchor="middle" x="304.5" y="-117" font-family="Helvetica,sans-Serif" font-size="10.00">vector</text>
</a>
</g>
</g>
<!-- Node1&#45;&gt;Node7 -->
<g id="edge6" class="edge">
<title>Node1&#45;&gt;Node7</title>
<path fill="none" stroke="#63b8ff" d="M361.57,-164.98C351.42,-157.07 336.08,-145.11 323.85,-135.58"/>
<polygon fill="#63b8ff" stroke="#63b8ff" points="325.66,-132.56 315.62,-129.17 321.36,-138.08 325.66,-132.56"/>
</g>
<!-- Node8 -->
<g id="node8" class="node">
<title>Node8</title>
<g id="a_node8"><a xlink:title=" ">
<polygon fill="#e0e0e0" stroke="#999999" points="400,-129 345,-129 345,-110 400,-110 400,-129"/>
<text text-anchor="middle" x="372.5" y="-117" font-family="Helvetica,sans-Serif" font-size="10.00">TChain.h</text>
</a>
</g>
</g>
<!-- Node1&#45;&gt;Node8 -->
<g id="edge7" class="edge">
<title>Node1&#45;&gt;Node8</title>
<path fill="none" stroke="#63b8ff" d="M372.5,-164.75C372.5,-157.8 372.5,-147.85 372.5,-139.13"/>
<polygon fill="#63b8ff" stroke="#63b8ff" points="376,-139.09 372.5,-129.09 369,-139.09 376,-139.09"/>
</g>
<!-- Node9 -->
<g id="node9" class="node">
<title>Node9</title>
<g id="a_node9"><a xlink:title=" ">
<polygon fill="#e0e0e0" stroke="#999999" points="464.5,-129 418.5,-129 418.5,-110 464.5,-110 464.5,-129"/>
<text text-anchor="middle" x="441.5" y="-117" font-family="Helvetica,sans-Serif" font-size="10.00">TFile.h</text>
</a>
</g>
</g>
<!-- Node1&#45;&gt;Node9 -->
<g id="edge8" class="edge">
<title>Node1&#45;&gt;Node9</title>
<path fill="none" stroke="#63b8ff" d="M383.59,-164.98C393.99,-157 409.76,-144.88 422.22,-135.31"/>
<polygon fill="#63b8ff" stroke="#63b8ff" points="424.41,-138.04 430.21,-129.17 420.15,-132.49 424.41,-138.04"/>
</g>
<!-- Node10 -->
<g id="node10" class="node">
<title>Node10</title>
<g id="a_node10"><a xlink:title=" ">
<polygon fill="#e0e0e0" stroke="#999999" points="542,-129 483,-129 483,-110 542,-110 542,-129"/>
<text text-anchor="middle" x="512.5" y="-117" font-family="Helvetica,sans-Serif" font-size="10.00">TObject.h</text>
</a>
</g>
</g>
<!-- Node1&#45;&gt;Node10 -->
<g id="edge9" class="edge">
<title>Node1&#45;&gt;Node10</title>
<path fill="none" stroke="#63b8ff" d="M394.99,-164.98C418.02,-156.27 454.04,-142.63 480.13,-132.75"/>
<polygon fill="#63b8ff" stroke="#63b8ff" points="481.48,-135.98 489.6,-129.17 479.01,-129.44 481.48,-135.98"/>
</g>
<!-- Node11 -->
<g id="node11" class="node">
<title>Node11</title>
<g id="a_node11"><a xlink:title=" ">
<polygon fill="#e0e0e0" stroke="#999999" points="618.5,-129 560.5,-129 560.5,-110 618.5,-110 618.5,-129"/>
<text text-anchor="middle" x="589.5" y="-117" font-family="Helvetica,sans-Serif" font-size="10.00">TROOT.h</text>
</a>
</g>
</g>
<!-- Node1&#45;&gt;Node11 -->
<g id="edge10" class="edge">
<title>Node1&#45;&gt;Node11</title>
<path fill="none" stroke="#63b8ff" d="M407.36,-164.98C446.46,-155.44 509.71,-139.99 550.45,-130.04"/>
<polygon fill="#63b8ff" stroke="#63b8ff" points="551.4,-133.41 560.29,-127.63 549.74,-126.61 551.4,-133.41"/>
</g>
<!-- Node12 -->
<g id="node12" class="node">
<title>Node12</title>
<g id="a_node12"><a xlink:title=" ">
<polygon fill="#e0e0e0" stroke="#999999" points="686.5,-129 636.5,-129 636.5,-110 686.5,-110 686.5,-129"/>
<text text-anchor="middle" x="661.5" y="-117" font-family="Helvetica,sans-Serif" font-size="10.00">TTree.h</text>
</a>
</g>
</g>
<!-- Node1&#45;&gt;Node12 -->
<g id="edge11" class="edge">
<title>Node1&#45;&gt;Node12</title>
<path fill="none" stroke="#63b8ff" d="M428.19,-164.97C477.77,-157.11 552.49,-144.6 626.35,-129.12"/>
<polygon fill="#63b8ff" stroke="#63b8ff" points="627.24,-132.51 636.3,-127.02 625.79,-125.66 627.24,-132.51"/>
</g>
<!-- Node13 -->
<g id="node13" class="node">
<title>Node13</title>
<g id="a_node13"><a xlink:title=" ">
<polygon fill="#e0e0e0" stroke="#999999" points="790.5,-129 704.5,-129 704.5,-110 790.5,-110 790.5,-129"/>
<text text-anchor="middle" x="747.5" y="-117" font-family="Helvetica,sans-Serif" font-size="10.00">inih/INIReader.h</text>
</a>
</g>
</g>
<!-- Node1&#45;&gt;Node13 -->
<g id="edge12" class="edge">
<title>Node1&#45;&gt;Node13</title>
<path fill="none" stroke="#63b8ff" d="M429.74,-166.06C492.21,-157.83 595.44,-143.95 694.22,-129.16"/>
<polygon fill="#63b8ff" stroke="#63b8ff" points="695.01,-132.58 704.38,-127.63 693.97,-125.66 695.01,-132.58"/>
</g>
<!-- Node14 -->
<g id="node14" class="node">
<title>Node14</title>
<g id="a_node14"><a xlink:href="../../d2/d9e/_exp_defn_8tt.html" target="_top" xlink:title=" ">
<polygon fill="white" stroke="#666666" points="870,-129 809,-129 809,-110 870,-110 870,-129"/>
<text text-anchor="middle" x="839.5" y="-117" font-family="Helvetica,sans-Serif" font-size="10.00">ExpDefn.tt</text>
</a>
</g>
</g>
<!-- Node1&#45;&gt;Node14 -->
<g id="edge13" class="edge">
<title>Node1&#45;&gt;Node14</title>
<path fill="none" stroke="#63b8ff" d="M429.73,-169.47C509.97,-163.38 660.63,-150.41 799.04,-128.89"/>
<polygon fill="#63b8ff" stroke="#63b8ff" points="799.65,-132.34 808.99,-127.33 798.56,-125.43 799.65,-132.34"/>
</g>
<!-- Node15 -->
<g id="node15" class="node">
<title>Node15</title>
<g id="a_node15"><a xlink:title=" ">
<polygon fill="#e0e0e0" stroke="#999999" points="503.5,-74 457.5,-74 457.5,-55 503.5,-55 503.5,-74"/>
<text text-anchor="middle" x="480.5" y="-62" font-family="Helvetica,sans-Serif" font-size="10.00">cstring</text>
</a>
</g>
</g>
<!-- Node14&#45;&gt;Node15 -->
<g id="edge14" class="edge">
<title>Node14&#45;&gt;Node15</title>
<path fill="none" stroke="#63b8ff" d="M808.98,-111.74C805.78,-111.11 802.58,-110.52 799.5,-110 675.95,-89.16 640.48,-98.07 513.91,-74.03"/>
<polygon fill="#63b8ff" stroke="#63b8ff" points="514.32,-70.55 503.83,-72.09 512.99,-77.42 514.32,-70.55"/>
</g>
<!-- Node16 -->
<g id="node16" class="node">
<title>Node16</title>
<g id="a_node16"><a xlink:title=" ">
<polygon fill="#e0e0e0" stroke="#999999" points="571.5,-74 521.5,-74 521.5,-55 571.5,-55 571.5,-74"/>
<text text-anchor="middle" x="546.5" y="-62" font-family="Helvetica,sans-Serif" font-size="10.00">fstream</text>
</a>
</g>
</g>
<!-- Node14&#45;&gt;Node16 -->
<g id="edge15" class="edge">
<title>Node14&#45;&gt;Node16</title>
<path fill="none" stroke="#63b8ff" d="M808.95,-111.86C805.77,-111.21 802.57,-110.58 799.5,-110 705.69,-92.33 678.81,-93.86 581.64,-74.09"/>
<polygon fill="#63b8ff" stroke="#63b8ff" points="582.2,-70.63 571.7,-72.04 580.79,-77.49 582.2,-70.63"/>
</g>
<!-- Node17 -->
<g id="node17" class="node">
<title>Node17</title>
<g id="a_node17"><a xlink:title=" ">
<polygon fill="#e0e0e0" stroke="#999999" points="643.5,-74 589.5,-74 589.5,-55 643.5,-55 643.5,-74"/>
<text text-anchor="middle" x="616.5" y="-62" font-family="Helvetica,sans-Serif" font-size="10.00">iostream</text>
</a>
</g>
</g>
<!-- Node14&#45;&gt;Node17 -->
<g id="edge16" class="edge">
<title>Node14&#45;&gt;Node17</title>
<path fill="none" stroke="#63b8ff" d="M808.96,-111.24C768.43,-101.61 696.94,-84.62 653.43,-74.28"/>
<polygon fill="#63b8ff" stroke="#63b8ff" points="654.07,-70.83 643.53,-71.92 652.45,-77.64 654.07,-70.83"/>
</g>
<!-- Node18 -->
<g id="node18" class="node">
<title>Node18</title>
<g id="a_node18"><a xlink:title=" ">
<polygon fill="#e0e0e0" stroke="#999999" points="713.5,-74 661.5,-74 661.5,-55 713.5,-55 713.5,-74"/>
<text text-anchor="middle" x="687.5" y="-62" font-family="Helvetica,sans-Serif" font-size="10.00">sstream</text>
</a>
</g>
</g>
<!-- Node14&#45;&gt;Node18 -->
<g id="edge17" class="edge">
<title>Node14&#45;&gt;Node18</title>
<path fill="none" stroke="#63b8ff" d="M815.08,-109.98C789.78,-101.16 750.05,-87.31 721.64,-77.41"/>
<polygon fill="#63b8ff" stroke="#63b8ff" points="722.71,-74.07 712.11,-74.08 720.4,-80.68 722.71,-74.07"/>
</g>
<!-- Node19 -->
<g id="node19" class="node">
<title>Node19</title>
<g id="a_node19"><a xlink:title=" ">
<polygon fill="#e0e0e0" stroke="#999999" points="791,-74 732,-74 732,-55 791,-55 791,-74"/>
<text text-anchor="middle" x="761.5" y="-62" font-family="Helvetica,sans-Serif" font-size="10.00">stdexcept</text>
</a>
</g>
</g>
<!-- Node14&#45;&gt;Node19 -->
<g id="edge18" class="edge">
<title>Node14&#45;&gt;Node19</title>
<path fill="none" stroke="#63b8ff" d="M826.97,-109.98C815.1,-101.92 797.04,-89.65 782.89,-80.03"/>
<polygon fill="#63b8ff" stroke="#63b8ff" points="784.5,-76.9 774.26,-74.17 780.56,-82.69 784.5,-76.9"/>
</g>
<!-- Node20 -->
<g id="node20" class="node">
<title>Node20</title>
<g id="a_node20"><a xlink:title=" ">
<polygon fill="#e0e0e0" stroke="#999999" points="869.5,-74 809.5,-74 809.5,-55 869.5,-55 869.5,-74"/>
<text text-anchor="middle" x="839.5" y="-62" font-family="Helvetica,sans-Serif" font-size="10.00">streambuf</text>
</a>
</g>
</g>
<!-- Node14&#45;&gt;Node20 -->
<g id="edge19" class="edge">
<title>Node14&#45;&gt;Node20</title>
<path fill="none" stroke="#63b8ff" d="M839.5,-109.75C839.5,-102.8 839.5,-92.85 839.5,-84.13"/>
<polygon fill="#63b8ff" stroke="#63b8ff" points="843,-84.09 839.5,-74.09 836,-84.09 843,-84.09"/>
</g>
<!-- Node21 -->
<g id="node21" class="node">
<title>Node21</title>
<g id="a_node21"><a xlink:title=" ">
<polygon fill="#e0e0e0" stroke="#999999" points="975,-74 888,-74 888,-55 975,-55 975,-74"/>
<text text-anchor="middle" x="931.5" y="-62" font-family="Helvetica,sans-Serif" font-size="10.00">ROOT/TSeq.hxx</text>
</a>
</g>
</g>
<!-- Node14&#45;&gt;Node21 -->
<g id="edge20" class="edge">
<title>Node14&#45;&gt;Node21</title>
<path fill="none" stroke="#63b8ff" d="M854.28,-109.98C868.68,-101.69 890.81,-88.94 907.69,-79.22"/>
<polygon fill="#63b8ff" stroke="#63b8ff" points="909.53,-82.19 916.45,-74.17 906.04,-76.13 909.53,-82.19"/>
</g>
<!-- Node22 -->
<g id="node22" class="node">
<title>Node22</title>
<g id="a_node22"><a xlink:title=" ">
<polygon fill="#e0e0e0" stroke="#999999" points="1055.5,-74 993.5,-74 993.5,-55 1055.5,-55 1055.5,-74"/>
<text text-anchor="middle" x="1024.5" y="-62" font-family="Helvetica,sans-Serif" font-size="10.00">TNamed.h</text>
</a>
</g>
</g>
<!-- Node14&#45;&gt;Node22 -->
<g id="edge21" class="edge">
<title>Node14&#45;&gt;Node22</title>
<path fill="none" stroke="#63b8ff" d="M869.22,-109.98C900.55,-101.01 950.07,-86.82 984.74,-76.89"/>
<polygon fill="#63b8ff" stroke="#63b8ff" points="985.89,-80.2 994.54,-74.08 983.97,-73.47 985.89,-80.2"/>
</g>
<!-- Node23 -->
<g id="node23" class="node">
<title>Node23</title>
<g id="a_node23"><a xlink:href="../../d6/def/_r_t_t_i_8hh.html" target="_top" xlink:title=" ">
<polygon fill="white" stroke="#666666" points="1243.5,-74 1171.5,-74 1171.5,-55 1243.5,-55 1243.5,-74"/>
<text text-anchor="middle" x="1207.5" y="-62" font-family="Helvetica,sans-Serif" font-size="10.00">utils/RTTI.hh</text>
</a>
</g>
</g>
<!-- Node14&#45;&gt;Node23 -->
<g id="edge22" class="edge">
<title>Node14&#45;&gt;Node23</title>
<path fill="none" stroke="#63b8ff" d="M870.31,-114.77C926.16,-107.91 1048.09,-92.41 1160.98,-74.18"/>
<polygon fill="#63b8ff" stroke="#63b8ff" points="1161.87,-77.58 1171.18,-72.52 1160.75,-70.67 1161.87,-77.58"/>
</g>
<!-- Node25 -->
<g id="node25" class="node">
<title>Node25</title>
<g id="a_node25"><a xlink:href="../../d8/dfe/_tuples_8hh.html" target="_top" xlink:title=" ">
<polygon fill="white" stroke="#666666" points="1153.5,-74 1073.5,-74 1073.5,-55 1153.5,-55 1153.5,-74"/>
<text text-anchor="middle" x="1113.5" y="-62" font-family="Helvetica,sans-Serif" font-size="10.00">utils/Tuples.hh</text>
</a>
</g>
</g>
<!-- Node14&#45;&gt;Node25 -->
<g id="edge24" class="edge">
<title>Node14&#45;&gt;Node25</title>
<path fill="none" stroke="#63b8ff" d="M870.13,-112.57C916.94,-103.52 1006.74,-86.15 1063.2,-75.23"/>
<polygon fill="#63b8ff" stroke="#63b8ff" points="1064.18,-78.6 1073.33,-73.27 1062.85,-71.73 1064.18,-78.6"/>
</g>
<!-- Node24 -->
<g id="node24" class="node">
<title>Node24</title>
<g id="a_node24"><a xlink:title=" ">
<polygon fill="#e0e0e0" stroke="#999999" points="1233,-19 1182,-19 1182,0 1233,0 1233,-19"/>
<text text-anchor="middle" x="1207.5" y="-7" font-family="Helvetica,sans-Serif" font-size="10.00">cxxabi.h</text>
</a>
</g>
</g>
<!-- Node23&#45;&gt;Node24 -->
<g id="edge23" class="edge">
<title>Node23&#45;&gt;Node24</title>
<path fill="none" stroke="#63b8ff" d="M1207.5,-54.75C1207.5,-47.8 1207.5,-37.85 1207.5,-29.13"/>
<polygon fill="#63b8ff" stroke="#63b8ff" points="1211,-29.09 1207.5,-19.09 1204,-29.09 1211,-29.09"/>
</g>
<!-- Node25&#45;&gt;Node6 -->
<g id="edge25" class="edge">
<title>Node25&#45;&gt;Node6</title>
<path fill="none" stroke="#63b8ff" d="M1073.42,-56.36C1070.4,-55.88 1067.41,-55.42 1064.5,-55 934.01,-36.06 777.39,-19.73 713.64,-13.36"/>
<polygon fill="#63b8ff" stroke="#63b8ff" points="713.82,-9.86 703.53,-12.35 713.13,-16.83 713.82,-9.86"/>
</g>
</g>
</svg>
        <g id="navigator" transform="translate(0 0)" fill="#404254">
                <rect fill="#f2f5e9" fill-opacity="0.5" stroke="#606060" stroke-width=".5" x="0" y="0" width="60" height="60"/>
                <use id="zoomplus" xlink:href="#zoomPlus" x="17" y="9" onmousedown="handleZoom(evt,'in')"/>
                <use id="zoomminus" xlink:href="#zoomMin" x="42" y="9" onmousedown="handleZoom(evt,'out')"/>
                <use id="reset" xlink:href="#resetDef" x="30" y="36" onmousedown="handleReset()"/>
                <g id="arrowUp" xlink:href="#dirArrow" transform="translate(30 24)" onmousedown="handlePan(0,-1)">
                  <use xlink:href="#rim" fill="#404040">
                        <set attributeName="fill" to="#808080" begin="arrowUp.mouseover" end="arrowUp.mouseout"/>
                  </use>
                  <path fill="none" stroke="white" stroke-width="1.5" d="M0,-3.0v7 M-2.5,-0.5L0,-3.0L2.5,-0.5"/>
                </g>
                <g id="arrowRight" xlink:href="#dirArrow" transform="rotate(90) translate(36 -43)" onmousedown="handlePan(1,0)">
                  <use xlink:href="#rim" fill="#404040">
                        <set attributeName="fill" to="#808080" begin="arrowRight.mouseover" end="arrowRight.mouseout"/>
                  </use>
                  <path fill="none" stroke="white" stroke-width="1.5" d="M0,-3.0v7 M-2.5,-0.5L0,-3.0L2.5,-0.5"/>
                </g>
                <g id="arrowDown" xlink:href="#dirArrow" transform="rotate(180) translate(-30 -48)" onmousedown="handlePan(0,1)">
                  <use xlink:href="#rim" fill="#404040">
                        <set attributeName="fill" to="#808080" begin="arrowDown.mouseover" end="arrowDown.mouseout"/>
                  </use>
                  <path fill="none" stroke="white" stroke-width="1.5" d="M0,-3.0v7 M-2.5,-0.5L0,-3.0L2.5,-0.5"/>
                </g>
                <g id="arrowLeft" xlink:href="#dirArrow" transform="rotate(270) translate(-36 17)" onmousedown="handlePan(-1,0)">
                  <use xlink:href="#rim" fill="#404040">
                        <set attributeName="fill" to="#808080" begin="arrowLeft.mouseover" end="arrowLeft.mouseout"/>
                  </use>
                  <path fill="none" stroke="white" stroke-width="1.5" d="M0,-3.0v7 M-2.5,-0.5L0,-3.0L2.5,-0.5"/>
                </g>
        </g>
        <svg viewBox="0 0 15 15" width="100%" height="30px" preserveAspectRatio="xMaxYMin meet">
         <g id="arrow_out" transform="scale(0.3 0.3)">
          <a xlink:href="_exp_defn_8hh__incl_org.svg" target="_base">
           <rect id="button" ry="5" rx="5" y="6" x="6" height="38" width="38"
                fill="#f2f5e9" fill-opacity="0.5" stroke="#606060" stroke-width="1.0"/>
           <path id="arrow"
             d="M 11.500037,31.436501 C 11.940474,20.09759 22.043105,11.32322 32.158766,21.979434 L 37.068811,17.246167 C 37.068811,17.246167 37.088388,32 37.088388,32 L 22.160133,31.978069 C 22.160133,31.978069 26.997745,27.140456 26.997745,27.140456 C 18.528582,18.264221 13.291696,25.230495 11.500037,31.436501 z"
             style="fill:#404040;"/>
          </a>
         </g>
        </svg>
</svg>
