<?xml version="1.0" encoding="UTF-8" standalone="no"?>
<!DOCTYPE svg PUBLIC "-//W3C//DTD SVG 1.1//EN"
 "http://www.w3.org/Graphics/SVG/1.1/DTD/svg11.dtd">
<!-- Generated by graphviz version 12.2.1 (20241206.2353)
 -->
<!-- Title: GamR::Utils::Clicker Pages: 1 -->
<svg width="106pt" height="467pt"
 viewBox="0.00 0.00 106.00 466.75" xmlns="http://www.w3.org/2000/svg" xmlns:xlink="http://www.w3.org/1999/xlink">
<g id="graph0" class="graph" transform="scale(1 1) rotate(0) translate(4 462.75)">
<title>GamR::Utils::Clicker</title>
<!-- Node1 -->
<g id="Node000001" class="node">
<title>Node1</title>
<g id="a_Node000001"><a xlink:title=" ">
<polygon fill="#999999" stroke="none" points="96.5,-156.5 1.5,-156.5 1.5,0 96.5,0 96.5,-156.5"/>
<text text-anchor="start" x="5.5" y="-143" font-family="Helvetica,sans-Serif" font-size="10.00">GamR::Utils::Clicker</text>
<text text-anchor="start" x="8.25" y="-127.75" font-family="Helvetica,sans-Serif" font-size="10.00">+</text>
<text text-anchor="start" x="21" y="-127.75" font-family="Helvetica,sans-Serif" font-size="10.00">px</text>
<text text-anchor="start" x="8.25" y="-112.5" font-family="Helvetica,sans-Serif" font-size="10.00">+</text>
<text text-anchor="start" x="21" y="-112.5" font-family="Helvetica,sans-Serif" font-size="10.00">py</text>
<text text-anchor="start" x="8.25" y="-97.25" font-family="Helvetica,sans-Serif" font-size="10.00">+</text>
<text text-anchor="start" x="21" y="-97.25" font-family="Helvetica,sans-Serif" font-size="10.00">cx</text>
<text text-anchor="start" x="8.25" y="-82" font-family="Helvetica,sans-Serif" font-size="10.00">+</text>
<text text-anchor="start" x="21" y="-82" font-family="Helvetica,sans-Serif" font-size="10.00">cy</text>
<text text-anchor="start" x="8.25" y="-66.75" font-family="Helvetica,sans-Serif" font-size="10.00">+</text>
<text text-anchor="start" x="21" y="-66.75" font-family="Helvetica,sans-Serif" font-size="10.00">waiting</text>
<text text-anchor="start" x="8.25" y="-51.5" font-family="Helvetica,sans-Serif" font-size="10.00">+</text>
<text text-anchor="start" x="21" y="-51.5" font-family="Helvetica,sans-Serif" font-size="10.00">line</text>
<text text-anchor="start" x="8.25" y="-36.25" font-family="Helvetica,sans-Serif" font-size="10.00">+</text>
<text text-anchor="start" x="21" y="-36.25" font-family="Helvetica,sans-Serif" font-size="10.00">GetClick()</text>
<text text-anchor="start" x="8.25" y="-21" font-family="Helvetica,sans-Serif" font-size="10.00">+</text>
<text text-anchor="start" x="21" y="-21" font-family="Helvetica,sans-Serif" font-size="10.00">GetDrawClick()</text>
<text text-anchor="start" x="8.25" y="-5.75" font-family="Helvetica,sans-Serif" font-size="10.00">+</text>
<text text-anchor="start" x="21" y="-5.75" font-family="Helvetica,sans-Serif" font-size="10.00">GetClicks()</text>
<polygon fill="#666666" stroke="#666666" points="1.5,-139.25 1.5,-139.25 96.5,-139.25 96.5,-139.25 1.5,-139.25"/>
<polygon fill="#666666" stroke="#666666" points="1.5,-47.75 1.5,-47.75 19,-47.75 19,-47.75 1.5,-47.75"/>
<polygon fill="#666666" stroke="#666666" points="19,-47.75 19,-47.75 96.5,-47.75 96.5,-47.75 19,-47.75"/>
<polygon fill="none" stroke="#666666" points="1.5,0 1.5,-156.5 96.5,-156.5 96.5,0 1.5,0"/>
</a>
</g>
</g>
<!-- Node2 -->
<g id="Node000002" class="node">
<title>Node2</title>
<g id="a_Node000002"><a xlink:title=" ">
<polygon fill="white" stroke="none" points="98,-264.75 0,-264.75 0,-215 98,-215 98,-264.75"/>
<text text-anchor="start" x="4" y="-251.25" font-family="Helvetica,sans-Serif" font-size="10.00">std::vector&lt; double &gt;</text>
<text text-anchor="start" x="14.06" y="-236" font-family="Helvetica,sans-Serif" font-size="10.00">+</text>
<text text-anchor="start" x="34.12" y="-236" font-family="Helvetica,sans-Serif" font-size="10.00">elements</text>
<text text-anchor="start" x="47.5" y="-220.75" font-family="Helvetica,sans-Serif" font-size="10.00"> </text>
<polygon fill="#666666" stroke="#666666" points="0,-247.5 0,-247.5 98,-247.5 98,-247.5 0,-247.5"/>
<polygon fill="#666666" stroke="#666666" points="0,-232.25 0,-232.25 32.12,-232.25 32.12,-232.25 0,-232.25"/>
<polygon fill="#666666" stroke="#666666" points="32.12,-232.25 32.12,-232.25 98,-232.25 98,-232.25 32.12,-232.25"/>
<polygon fill="none" stroke="#666666" points="0,-215 0,-264.75 98,-264.75 98,-215 0,-215"/>
</a>
</g>
</g>
<!-- Node2&#45;&gt;Node1 -->
<g id="edge1_Node000001_Node000002" class="edge">
<title>Node2&#45;&gt;Node1</title>
<g id="a_edge1_Node000001_Node000002"><a xlink:title=" ">
<path fill="none" stroke="#63b8ff" d="M49,-215.32C49,-202.68 49,-186.21 49,-169.12"/>
<polygon fill="none" stroke="#63b8ff" points="49,-169.2 45,-163.2 49,-157.2 53,-163.19 49,-169.2"/>
</a>
</g>
<text text-anchor="middle" x="58" y="-187.5" font-family="Helvetica,sans-Serif" font-size="10.00" fill="grey"> +xs</text>
<text text-anchor="middle" x="58" y="-176.25" font-family="Helvetica,sans-Serif" font-size="10.00" fill="grey">+ys</text>
</g>
<!-- Node3 -->
<g id="Node000003" class="node">
<title>Node3</title>
<g id="a_Node000003"><a xlink:title=" ">
<polygon fill="white" stroke="none" points="86.75,-361.75 11.25,-361.75 11.25,-312 86.75,-312 86.75,-361.75"/>
<text text-anchor="start" x="15.25" y="-348.25" font-family="Helvetica,sans-Serif" font-size="10.00">std::vector&lt; T &gt;</text>
<text text-anchor="start" x="47.5" y="-333" font-family="Helvetica,sans-Serif" font-size="10.00"> </text>
<text text-anchor="start" x="47.5" y="-317.75" font-family="Helvetica,sans-Serif" font-size="10.00"> </text>
<polygon fill="#666666" stroke="#666666" points="11.25,-344.5 11.25,-344.5 86.75,-344.5 86.75,-344.5 11.25,-344.5"/>
<polygon fill="#666666" stroke="#666666" points="11.25,-329.25 11.25,-329.25 86.75,-329.25 86.75,-329.25 11.25,-329.25"/>
<polygon fill="none" stroke="#666666" points="11.25,-312 11.25,-361.75 86.75,-361.75 86.75,-312 11.25,-312"/>
</a>
</g>
</g>
<!-- Node3&#45;&gt;Node2 -->
<g id="edge2_Node000002_Node000003" class="edge">
<title>Node3&#45;&gt;Node2</title>
<g id="a_edge2_Node000002_Node000003"><a xlink:title=" ">
<path fill="none" stroke="orange" d="M49,-301.25C49,-289.13 49,-275.79 49,-264.75"/>
<polygon fill="orange" stroke="orange" points="45.5,-300.88 49,-310.88 52.5,-300.88 45.5,-300.88"/>
</a>
</g>
<text text-anchor="middle" x="72.62" y="-284.5" font-family="Helvetica,sans-Serif" font-size="10.00" fill="grey"> &lt; double &gt;</text>
</g>
<!-- Node4 -->
<g id="Node000004" class="node">
<title>Node4</title>
<g id="a_Node000004"><a xlink:title=" ">
<polygon fill="white" stroke="none" points="56,-458.75 42,-458.75 42,-409 56,-409 56,-458.75"/>
<text text-anchor="start" x="46" y="-445.25" font-family="Helvetica,sans-Serif" font-size="10.00">T</text>
<text text-anchor="start" x="47.5" y="-430" font-family="Helvetica,sans-Serif" font-size="10.00"> </text>
<text text-anchor="start" x="47.5" y="-414.75" font-family="Helvetica,sans-Serif" font-size="10.00"> </text>
<polygon fill="#666666" stroke="#666666" points="42,-441.5 42,-441.5 56,-441.5 56,-441.5 42,-441.5"/>
<polygon fill="#666666" stroke="#666666" points="42,-426.25 42,-426.25 56,-426.25 56,-426.25 42,-426.25"/>
<polygon fill="none" stroke="#666666" points="42,-409 42,-458.75 56,-458.75 56,-409 42,-409"/>
</a>
</g>
</g>
<!-- Node4&#45;&gt;Node3 -->
<g id="edge3_Node000003_Node000004" class="edge">
<title>Node4&#45;&gt;Node3</title>
<g id="a_edge3_Node000003_Node000004"><a xlink:title=" ">
<path fill="none" stroke="#63b8ff" d="M49,-409.39C49,-398.85 49,-386.17 49,-374.44"/>
<polygon fill="none" stroke="#63b8ff" points="49,-374.65 45,-368.65 49,-362.65 53,-368.65 49,-374.65"/>
</a>
</g>
<text text-anchor="middle" x="73" y="-381.5" font-family="Helvetica,sans-Serif" font-size="10.00" fill="grey"> +elements</text>
</g>
</g>
</svg>
