<?xml version="1.0" encoding="UTF-8" standalone="no"?>
<!DOCTYPE svg PUBLIC "-//W3C//DTD SVG 1.1//EN"
 "http://www.w3.org/Graphics/SVG/1.1/DTD/svg11.dtd">
<!-- Generated by graphviz version 12.2.1 (20241206.2353)
 -->
<!-- Title: src/lib/spect/Calibrate.cc Pages: 1 -->
<svg width="921pt" height="138pt"
 viewBox="0.00 0.00 921.12 137.75" xmlns="http://www.w3.org/2000/svg" xmlns:xlink="http://www.w3.org/1999/xlink">
<g id="graph0" class="graph" transform="scale(1 1) rotate(0) translate(4 133.75)">
<title>src/lib/spect/Calibrate.cc</title>
<!-- Node1 -->
<g id="Node000001" class="node">
<title>Node1</title>
<g id="a_Node000001"><a xlink:title=" ">
<polygon fill="#999999" stroke="#666666" points="661.62,-129.75 538.38,-129.75 538.38,-110.5 661.62,-110.5 661.62,-129.75"/>
<text text-anchor="middle" x="600" y="-116.25" font-family="Helvetica,sans-Serif" font-size="10.00">src/lib/spect/Calibrate.cc</text>
</a>
</g>
</g>
<!-- Node2 -->
<g id="Node000002" class="node">
<title>Node2</title>
<g id="a_Node000002"><a xlink:title=" ">
<polygon fill="#e0e0e0" stroke="#999999" points="258.75,-74.5 205.25,-74.5 205.25,-55.25 258.75,-55.25 258.75,-74.5"/>
<text text-anchor="middle" x="232" y="-61" font-family="Helvetica,sans-Serif" font-size="10.00">iostream</text>
</a>
</g>
</g>
<!-- Node1&#45;&gt;Node2 -->
<g id="edge1_Node000001_Node000002" class="edge">
<title>Node1&#45;&gt;Node2</title>
<g id="a_edge1_Node000001_Node000002"><a xlink:title=" ">
<path fill="none" stroke="#63b8ff" d="M537.9,-112.68C473.39,-105.57 369.33,-92.89 270.19,-74.74"/>
<polygon fill="#63b8ff" stroke="#63b8ff" points="271.02,-71.33 260.55,-72.95 269.75,-78.21 271.02,-71.33"/>
</a>
</g>
</g>
<!-- Node3 -->
<g id="Node000003" class="node">
<title>Node3</title>
<g id="a_Node000003"><a xlink:href="../../d7/db9/_utilities_8hh.html" target="_top" xlink:title=" ">
<polygon fill="white" stroke="#666666" points="487.38,-74.5 404.62,-74.5 404.62,-55.25 487.38,-55.25 487.38,-74.5"/>
<text text-anchor="middle" x="446" y="-61" font-family="Helvetica,sans-Serif" font-size="10.00">utils/Utilities.hh</text>
</a>
</g>
</g>
<!-- Node1&#45;&gt;Node3 -->
<g id="edge2_Node000001_Node000003" class="edge">
<title>Node1&#45;&gt;Node3</title>
<g id="a_edge2_Node000001_Node000003"><a xlink:title=" ">
<path fill="none" stroke="#63b8ff" d="M573.88,-110.09C548.88,-101.45 510.92,-88.32 482.85,-78.62"/>
<polygon fill="#63b8ff" stroke="#63b8ff" points="484.28,-75.41 473.68,-75.45 481.99,-82.02 484.28,-75.41"/>
</a>
</g>
</g>
<!-- Node11 -->
<g id="Node000011" class="node">
<title>Node11</title>
<g id="a_Node000011"><a xlink:href="../../db/d24/_calibrate_8hh.html" target="_top" xlink:title=" ">
<polygon fill="white" stroke="#666666" points="599,-74.5 505,-74.5 505,-55.25 599,-55.25 599,-74.5"/>
<text text-anchor="middle" x="552" y="-61" font-family="Helvetica,sans-Serif" font-size="10.00">spect/Calibrate.hh</text>
</a>
</g>
</g>
<!-- Node1&#45;&gt;Node11 -->
<g id="edge10_Node000001_Node000011" class="edge">
<title>Node1&#45;&gt;Node11</title>
<g id="a_edge10_Node000001_Node000011"><a xlink:title=" ">
<path fill="none" stroke="#63b8ff" d="M592.07,-110.33C585.44,-102.98 575.78,-92.26 567.61,-83.19"/>
<polygon fill="#63b8ff" stroke="#63b8ff" points="570.41,-81.07 561.11,-75.98 565.21,-85.75 570.41,-81.07"/>
</a>
</g>
</g>
<!-- Node12 -->
<g id="Node000012" class="node">
<title>Node12</title>
<g id="a_Node000012"><a xlink:href="../../dc/d1a/_transform_8hh.html" target="_top" xlink:title=" ">
<polygon fill="white" stroke="#666666" points="377,-74.5 277,-74.5 277,-55.25 377,-55.25 377,-74.5"/>
<text text-anchor="middle" x="327" y="-61" font-family="Helvetica,sans-Serif" font-size="10.00">spect/Transform.hh</text>
</a>
</g>
</g>
<!-- Node1&#45;&gt;Node12 -->
<g id="edge11_Node000001_Node000012" class="edge">
<title>Node1&#45;&gt;Node12</title>
<g id="a_edge11_Node000001_Node000012"><a xlink:title=" ">
<path fill="none" stroke="#63b8ff" d="M553.38,-110.03C506.66,-100.92 434.65,-86.87 384.43,-77.08"/>
<polygon fill="#63b8ff" stroke="#63b8ff" points="385.4,-73.7 374.91,-75.22 384.06,-80.57 385.4,-73.7"/>
</a>
</g>
</g>
<!-- Node17 -->
<g id="Node000017" class="node">
<title>Node17</title>
<g id="a_Node000017"><a xlink:title=" ">
<polygon fill="#e0e0e0" stroke="#999999" points="679.25,-74.5 616.75,-74.5 616.75,-55.25 679.25,-55.25 679.25,-74.5"/>
<text text-anchor="middle" x="648" y="-61" font-family="Helvetica,sans-Serif" font-size="10.00">TSystem.h</text>
</a>
</g>
</g>
<!-- Node1&#45;&gt;Node17 -->
<g id="edge19_Node000001_Node000017" class="edge">
<title>Node1&#45;&gt;Node17</title>
<g id="a_edge19_Node000001_Node000017"><a xlink:title=" ">
<path fill="none" stroke="#63b8ff" d="M607.93,-110.33C614.56,-102.98 624.22,-92.26 632.39,-83.19"/>
<polygon fill="#63b8ff" stroke="#63b8ff" points="634.79,-85.75 638.89,-75.98 629.59,-81.07 634.79,-85.75"/>
</a>
</g>
</g>
<!-- Node18 -->
<g id="Node000018" class="node">
<title>Node18</title>
<g id="a_Node000018"><a xlink:title=" ">
<polygon fill="#e0e0e0" stroke="#999999" points="768.75,-74.5 697.25,-74.5 697.25,-55.25 768.75,-55.25 768.75,-74.5"/>
<text text-anchor="middle" x="733" y="-61" font-family="Helvetica,sans-Serif" font-size="10.00">TSpectrum.h</text>
</a>
</g>
</g>
<!-- Node1&#45;&gt;Node18 -->
<g id="edge20_Node000001_Node000018" class="edge">
<title>Node1&#45;&gt;Node18</title>
<g id="a_edge20_Node000001_Node000018"><a xlink:title=" ">
<path fill="none" stroke="#63b8ff" d="M622.56,-110.09C643.77,-101.6 675.77,-88.79 699.88,-79.14"/>
<polygon fill="#63b8ff" stroke="#63b8ff" points="700.94,-82.48 708.92,-75.52 698.34,-75.98 700.94,-82.48"/>
</a>
</g>
</g>
<!-- Node19 -->
<g id="Node000019" class="node">
<title>Node19</title>
<g id="a_Node000019"><a xlink:title=" ">
<polygon fill="#e0e0e0" stroke="#999999" points="846.75,-74.5 787.25,-74.5 787.25,-55.25 846.75,-55.25 846.75,-74.5"/>
<text text-anchor="middle" x="817" y="-61" font-family="Helvetica,sans-Serif" font-size="10.00">TMarker.h</text>
</a>
</g>
</g>
<!-- Node1&#45;&gt;Node19 -->
<g id="edge21_Node000001_Node000019" class="edge">
<title>Node1&#45;&gt;Node19</title>
<g id="a_edge21_Node000001_Node000019"><a xlink:title=" ">
<path fill="none" stroke="#63b8ff" d="M636.81,-110.09C675.41,-100.62 735.93,-85.77 776.02,-75.93"/>
<polygon fill="#63b8ff" stroke="#63b8ff" points="776.66,-79.38 785.54,-73.6 774.99,-72.58 776.66,-79.38"/>
</a>
</g>
</g>
<!-- Node20 -->
<g id="Node000020" class="node">
<title>Node20</title>
<g id="a_Node000020"><a xlink:title=" ">
<polygon fill="#e0e0e0" stroke="#999999" points="913.12,-74.5 864.88,-74.5 864.88,-55.25 913.12,-55.25 913.12,-74.5"/>
<text text-anchor="middle" x="889" y="-61" font-family="Helvetica,sans-Serif" font-size="10.00">TLine.h</text>
</a>
</g>
</g>
<!-- Node1&#45;&gt;Node20 -->
<g id="edge22_Node000001_Node000020" class="edge">
<title>Node1&#45;&gt;Node20</title>
<g id="a_edge22_Node000001_Node000020"><a xlink:title=" ">
<path fill="none" stroke="#63b8ff" d="M660.53,-110.03C710.04,-102.26 782.09,-90.2 853.55,-74.89"/>
<polygon fill="#63b8ff" stroke="#63b8ff" points="854.04,-78.37 863.07,-72.83 852.55,-71.53 854.04,-78.37"/>
</a>
</g>
</g>
<!-- Node4 -->
<g id="Node000004" class="node">
<title>Node4</title>
<g id="a_Node000004"><a xlink:title=" ">
<polygon fill="#e0e0e0" stroke="#999999" points="347,-19.25 307,-19.25 307,0 347,0 347,-19.25"/>
<text text-anchor="middle" x="327" y="-5.75" font-family="Helvetica,sans-Serif" font-size="10.00">string</text>
</a>
</g>
</g>
<!-- Node3&#45;&gt;Node4 -->
<g id="edge3_Node000003_Node000004" class="edge">
<title>Node3&#45;&gt;Node4</title>
<g id="a_edge3_Node000003_Node000004"><a xlink:title=" ">
<path fill="none" stroke="#63b8ff" d="M425.81,-54.84C407.09,-46.47 378.98,-33.88 357.52,-24.28"/>
<polygon fill="#63b8ff" stroke="#63b8ff" points="359.22,-21.21 348.67,-20.32 356.37,-27.6 359.22,-21.21"/>
</a>
</g>
</g>
<!-- Node5 -->
<g id="Node000005" class="node">
<title>Node5</title>
<g id="a_Node000005"><a xlink:title=" ">
<polygon fill="#e0e0e0" stroke="#999999" points="757.5,-19.25 708.5,-19.25 708.5,0 757.5,0 757.5,-19.25"/>
<text text-anchor="middle" x="733" y="-5.75" font-family="Helvetica,sans-Serif" font-size="10.00">fstream</text>
</a>
</g>
</g>
<!-- Node3&#45;&gt;Node5 -->
<g id="edge4_Node000003_Node000005" class="edge">
<title>Node3&#45;&gt;Node5</title>
<g id="a_edge4_Node000003_Node000005"><a xlink:title=" ">
<path fill="none" stroke="#63b8ff" d="M487.79,-56.62C548.93,-46.01 659.03,-26.84 697.03,-19.58"/>
<polygon fill="#63b8ff" stroke="#63b8ff" points="697.59,-23.04 706.7,-17.64 696.21,-16.18 697.59,-23.04"/>
</a>
</g>
</g>
<!-- Node6 -->
<g id="Node000006" class="node">
<title>Node6</title>
<g id="a_Node000006"><a xlink:title=" ">
<polygon fill="#e0e0e0" stroke="#999999" points="537,-19.25 485,-19.25 485,0 537,0 537,-19.25"/>
<text text-anchor="middle" x="511" y="-5.75" font-family="Helvetica,sans-Serif" font-size="10.00">complex</text>
</a>
</g>
</g>
<!-- Node3&#45;&gt;Node6 -->
<g id="edge5_Node000003_Node000006" class="edge">
<title>Node3&#45;&gt;Node6</title>
<g id="a_edge5_Node000003_Node000006"><a xlink:title=" ">
<path fill="none" stroke="#63b8ff" d="M457.03,-54.84C466.42,-47.15 480.15,-35.9 491.41,-26.68"/>
<polygon fill="#63b8ff" stroke="#63b8ff" points="493.45,-29.53 498.97,-20.48 489.01,-24.11 493.45,-29.53"/>
</a>
</g>
</g>
<!-- Node7 -->
<g id="Node000007" class="node">
<title>Node7</title>
<g id="a_Node000007"><a xlink:title=" ">
<polygon fill="#e0e0e0" stroke="#999999" points="617.25,-19.25 554.75,-19.25 554.75,0 617.25,0 617.25,-19.25"/>
<text text-anchor="middle" x="586" y="-5.75" font-family="Helvetica,sans-Serif" font-size="10.00">TCanvas.h</text>
</a>
</g>
</g>
<!-- Node3&#45;&gt;Node7 -->
<g id="edge6_Node000003_Node000007" class="edge">
<title>Node3&#45;&gt;Node7</title>
<g id="a_edge6_Node000003_Node000007"><a xlink:title=" ">
<path fill="none" stroke="#63b8ff" d="M469.75,-54.84C492.17,-46.31 526.06,-33.42 551.47,-23.76"/>
<polygon fill="#63b8ff" stroke="#63b8ff" points="552.62,-27.07 560.72,-20.24 550.13,-20.52 552.62,-27.07"/>
</a>
</g>
</g>
<!-- Node8 -->
<g id="Node000008" class="node">
<title>Node8</title>
<g id="a_Node000008"><a xlink:title=" ">
<polygon fill="#e0e0e0" stroke="#999999" points="407.12,-19.25 364.88,-19.25 364.88,0 407.12,0 407.12,-19.25"/>
<text text-anchor="middle" x="386" y="-5.75" font-family="Helvetica,sans-Serif" font-size="10.00">TH1.h</text>
</a>
</g>
</g>
<!-- Node3&#45;&gt;Node8 -->
<g id="edge7_Node000003_Node000008" class="edge">
<title>Node3&#45;&gt;Node8</title>
<g id="a_edge7_Node000003_Node000008"><a xlink:title=" ">
<path fill="none" stroke="#63b8ff" d="M435.82,-54.84C427.24,-47.22 414.73,-36.12 404.4,-26.95"/>
<polygon fill="#63b8ff" stroke="#63b8ff" points="406.96,-24.55 397.16,-20.53 402.32,-29.79 406.96,-24.55"/>
</a>
</g>
</g>
<!-- Node9 -->
<g id="Node000009" class="node">
<title>Node9</title>
<g id="a_Node000009"><a xlink:title=" ">
<polygon fill="#e0e0e0" stroke="#999999" points="467.12,-19.25 424.88,-19.25 424.88,0 467.12,0 467.12,-19.25"/>
<text text-anchor="middle" x="446" y="-5.75" font-family="Helvetica,sans-Serif" font-size="10.00">TH2.h</text>
</a>
</g>
</g>
<!-- Node3&#45;&gt;Node9 -->
<g id="edge8_Node000003_Node000009" class="edge">
<title>Node3&#45;&gt;Node9</title>
<g id="a_edge8_Node000003_Node000009"><a xlink:title=" ">
<path fill="none" stroke="#63b8ff" d="M446,-55.08C446,-48.57 446,-39.42 446,-31.12"/>
<polygon fill="#63b8ff" stroke="#63b8ff" points="449.5,-31.12 446,-21.12 442.5,-31.12 449.5,-31.12"/>
</a>
</g>
</g>
<!-- Node10 -->
<g id="Node000010" class="node">
<title>Node10</title>
<g id="a_Node000010"><a xlink:title=" ">
<polygon fill="#e0e0e0" stroke="#999999" points="690.88,-19.25 635.12,-19.25 635.12,0 690.88,0 690.88,-19.25"/>
<text text-anchor="middle" x="663" y="-5.75" font-family="Helvetica,sans-Serif" font-size="10.00">TGraph.h</text>
</a>
</g>
</g>
<!-- Node3&#45;&gt;Node10 -->
<g id="edge9_Node000003_Node000010" class="edge">
<title>Node3&#45;&gt;Node10</title>
<g id="a_edge9_Node000003_Node000010"><a xlink:title=" ">
<path fill="none" stroke="#63b8ff" d="M482.81,-54.84C521.96,-45.23 583.66,-30.09 623.73,-20.26"/>
<polygon fill="#63b8ff" stroke="#63b8ff" points="624.32,-23.72 633.2,-17.94 622.66,-16.92 624.32,-23.72"/>
</a>
</g>
</g>
<!-- Node12&#45;&gt;Node4 -->
<g id="edge12_Node000012_Node000004" class="edge">
<title>Node12&#45;&gt;Node4</title>
<g id="a_edge12_Node000012_Node000004"><a xlink:title=" ">
<path fill="none" stroke="#63b8ff" d="M327,-55.08C327,-48.57 327,-39.42 327,-31.12"/>
<polygon fill="#63b8ff" stroke="#63b8ff" points="330.5,-31.12 327,-21.12 323.5,-31.12 330.5,-31.12"/>
</a>
</g>
</g>
<!-- Node12&#45;&gt;Node8 -->
<g id="edge16_Node000012_Node000008" class="edge">
<title>Node12&#45;&gt;Node8</title>
<g id="a_edge16_Node000012_Node000008"><a xlink:title=" ">
<path fill="none" stroke="#63b8ff" d="M337.01,-54.84C345.37,-47.3 357.5,-36.35 367.6,-27.23"/>
<polygon fill="#63b8ff" stroke="#63b8ff" points="369.94,-29.84 375.02,-20.54 365.25,-24.64 369.94,-29.84"/>
</a>
</g>
</g>
<!-- Node12&#45;&gt;Node9 -->
<g id="edge17_Node000012_Node000009" class="edge">
<title>Node12&#45;&gt;Node9</title>
<g id="a_edge17_Node000012_Node000009"><a xlink:title=" ">
<path fill="none" stroke="#63b8ff" d="M347.19,-54.84C365.91,-46.47 394.02,-33.88 415.48,-24.28"/>
<polygon fill="#63b8ff" stroke="#63b8ff" points="416.63,-27.6 424.33,-20.32 413.78,-21.21 416.63,-27.6"/>
</a>
</g>
</g>
<!-- Node13 -->
<g id="Node000013" class="node">
<title>Node13</title>
<g id="a_Node000013"><a xlink:title=" ">
<polygon fill="#e0e0e0" stroke="#999999" points="288.5,-19.25 245.5,-19.25 245.5,0 288.5,0 288.5,-19.25"/>
<text text-anchor="middle" x="267" y="-5.75" font-family="Helvetica,sans-Serif" font-size="10.00">vector</text>
</a>
</g>
</g>
<!-- Node12&#45;&gt;Node13 -->
<g id="edge13_Node000012_Node000013" class="edge">
<title>Node12&#45;&gt;Node13</title>
<g id="a_edge13_Node000012_Node000013"><a xlink:title=" ">
<path fill="none" stroke="#63b8ff" d="M316.82,-54.84C308.24,-47.22 295.73,-36.12 285.4,-26.95"/>
<polygon fill="#63b8ff" stroke="#63b8ff" points="287.96,-24.55 278.16,-20.53 283.32,-29.79 287.96,-24.55"/>
</a>
</g>
</g>
<!-- Node14 -->
<g id="Node000014" class="node">
<title>Node14</title>
<g id="a_Node000014"><a xlink:title=" ">
<polygon fill="#e0e0e0" stroke="#999999" points="52,-19.25 0,-19.25 0,0 52,0 52,-19.25"/>
<text text-anchor="middle" x="26" y="-5.75" font-family="Helvetica,sans-Serif" font-size="10.00">TCutG.h</text>
</a>
</g>
</g>
<!-- Node12&#45;&gt;Node14 -->
<g id="edge14_Node000012_Node000014" class="edge">
<title>Node12&#45;&gt;Node14</title>
<g id="a_edge14_Node000012_Node000014"><a xlink:title=" ">
<path fill="none" stroke="#63b8ff" d="M276.57,-55.88C215.91,-46.19 116.5,-30.05 63.51,-19.6"/>
<polygon fill="#63b8ff" stroke="#63b8ff" points="64.3,-16.19 53.81,-17.64 62.91,-23.05 64.3,-16.19"/>
</a>
</g>
</g>
<!-- Node15 -->
<g id="Node000015" class="node">
<title>Node15</title>
<g id="a_Node000015"><a xlink:title=" ">
<polygon fill="#e0e0e0" stroke="#999999" points="134.38,-19.25 69.62,-19.25 69.62,0 134.38,0 134.38,-19.25"/>
<text text-anchor="middle" x="102" y="-5.75" font-family="Helvetica,sans-Serif" font-size="10.00">TFormula.h</text>
</a>
</g>
</g>
<!-- Node12&#45;&gt;Node15 -->
<g id="edge15_Node000012_Node000015" class="edge">
<title>Node12&#45;&gt;Node15</title>
<g id="a_edge15_Node000012_Node000015"><a xlink:title=" ">
<path fill="none" stroke="#63b8ff" d="M288.58,-54.78C249,-45.41 187.39,-30.83 145.91,-21.02"/>
<polygon fill="#63b8ff" stroke="#63b8ff" points="146.79,-17.63 136.25,-18.73 145.18,-24.44 146.79,-17.63"/>
</a>
</g>
</g>
<!-- Node16 -->
<g id="Node000016" class="node">
<title>Node16</title>
<g id="a_Node000016"><a xlink:title=" ">
<polygon fill="#e0e0e0" stroke="#999999" points="227.25,-19.25 152.75,-19.25 152.75,0 227.25,0 227.25,-19.25"/>
<text text-anchor="middle" x="190" y="-5.75" font-family="Helvetica,sans-Serif" font-size="10.00">TVirtualPad.h</text>
</a>
</g>
</g>
<!-- Node12&#45;&gt;Node16 -->
<g id="edge18_Node000012_Node000016" class="edge">
<title>Node12&#45;&gt;Node16</title>
<g id="a_edge18_Node000012_Node000016"><a xlink:title=" ">
<path fill="none" stroke="#63b8ff" d="M303.76,-54.84C281.81,-46.31 248.65,-33.42 223.79,-23.76"/>
<polygon fill="#63b8ff" stroke="#63b8ff" points="225.35,-20.61 214.76,-20.25 222.82,-27.14 225.35,-20.61"/>
</a>
</g>
</g>
</g>
</svg>
