<?xml version="1.0" encoding="UTF-8" standalone="no"?>
<!DOCTYPE svg PUBLIC "-//W3C//DTD SVG 1.1//EN"
 "http://www.w3.org/Graphics/SVG/1.1/DTD/svg11.dtd">
<!-- Generated by graphviz version 8.1.0 (20230707.0739)
 -->
<!-- Title: src/lib/angdist/StatTensor.hh Pages: 1 -->
<svg width="755pt" height="248pt"
 viewBox="0.00 0.00 755.20 248.25" xmlns="http://www.w3.org/2000/svg" xmlns:xlink="http://www.w3.org/1999/xlink">
<g id="graph0" class="graph" transform="scale(1 1) rotate(0) translate(4 244.25)">
<title>src/lib/angdist/StatTensor.hh</title>
<!-- Node1 -->
<g id="Node000001" class="node">
<title>Node1</title>
<g id="a_Node000001"><a xlink:title=" ">
<polygon fill="#999999" stroke="#666666" points="335.5,-240.25 195,-240.25 195,-221 335.5,-221 335.5,-240.25"/>
<text text-anchor="middle" x="265.25" y="-226.75" font-family="Helvetica,sans-Serif" font-size="10.00">src/lib/angdist/StatTensor.hh</text>
</a>
</g>
</g>
<!-- Node2 -->
<g id="Node000002" class="node">
<title>Node2</title>
<g id="a_Node000002"><a xlink:href="../../da/da2/_ang_dist_8hh.html" target="_top" xlink:title=" ">
<polygon fill="white" stroke="#666666" points="476.75,-185 349.75,-185 349.75,-165.75 476.75,-165.75 476.75,-185"/>
<text text-anchor="middle" x="413.25" y="-171.5" font-family="Helvetica,sans-Serif" font-size="10.00">src/lib/angdist/AngDist.hh</text>
</a>
</g>
</g>
<!-- Node1&#45;&gt;Node2 -->
<g id="edge1_Node000001_Node000002" class="edge">
<title>Node1&#45;&gt;Node2</title>
<g id="a_edge1_Node000001_Node000002"><a xlink:title=" ">
<path fill="none" stroke="#63b8ff" d="M300.53,-216.93C327.47,-207.24 363.95,-194.11 388.02,-185.45"/>
<polygon fill="#63b8ff" stroke="#63b8ff" points="299.58,-213.91 291.36,-220.59 301.95,-220.5 299.58,-213.91"/>
</a>
</g>
</g>
<!-- Node6 -->
<g id="Node000006" class="node">
<title>Node6</title>
<g id="a_Node000006"><a xlink:href="../../dd/dbc/_stat_tensor_8cc.html" target="_top" xlink:title=" ">
<polygon fill="white" stroke="#666666" points="140.5,-129.75 0,-129.75 0,-110.5 140.5,-110.5 140.5,-129.75"/>
<text text-anchor="middle" x="70.25" y="-116.25" font-family="Helvetica,sans-Serif" font-size="10.00">src/lib/angdist/StatTensor.cc</text>
</a>
</g>
</g>
<!-- Node1&#45;&gt;Node6 -->
<g id="edge14_Node000001_Node000006" class="edge">
<title>Node1&#45;&gt;Node6</title>
<g id="a_edge14_Node000001_Node000006"><a xlink:title=" ">
<path fill="none" stroke="#63b8ff" d="M239.45,-215.27C198.69,-192.59 120.55,-149.11 86.63,-130.24"/>
<polygon fill="#63b8ff" stroke="#63b8ff" points="237.52,-218.76 247.96,-220.56 240.92,-212.64 237.52,-218.76"/>
</a>
</g>
</g>
<!-- Node3 -->
<g id="Node000003" class="node">
<title>Node3</title>
<g id="a_Node000003"><a xlink:href="../../db/db9/_ang_corr_8hh.html" target="_top" xlink:title=" ">
<polygon fill="white" stroke="#666666" points="286.12,-129.75 158.38,-129.75 158.38,-110.5 286.12,-110.5 286.12,-129.75"/>
<text text-anchor="middle" x="222.25" y="-116.25" font-family="Helvetica,sans-Serif" font-size="10.00">src/lib/angdist/AngCorr.hh</text>
</a>
</g>
</g>
<!-- Node2&#45;&gt;Node3 -->
<g id="edge2_Node000002_Node000003" class="edge">
<title>Node2&#45;&gt;Node3</title>
<g id="a_edge2_Node000002_Node000003"><a xlink:title=" ">
<path fill="none" stroke="#63b8ff" d="M370.46,-162.45C335.46,-152.69 286.7,-139.09 254.81,-130.2"/>
<polygon fill="#63b8ff" stroke="#63b8ff" points="369.28,-166.03 379.85,-165.34 371.16,-159.28 369.28,-166.03"/>
</a>
</g>
</g>
<!-- Node5 -->
<g id="Node000005" class="node">
<title>Node5</title>
<g id="a_Node000005"><a xlink:href="../../df/dbd/_ang_dist_8cc.html" target="_top" xlink:title=" ">
<polygon fill="white" stroke="#666666" points="430.75,-129.75 303.75,-129.75 303.75,-110.5 430.75,-110.5 430.75,-129.75"/>
<text text-anchor="middle" x="367.25" y="-116.25" font-family="Helvetica,sans-Serif" font-size="10.00">src/lib/angdist/AngDist.cc</text>
</a>
</g>
</g>
<!-- Node2&#45;&gt;Node5 -->
<g id="edge4_Node000002_Node000005" class="edge">
<title>Node2&#45;&gt;Node5</title>
<g id="a_edge4_Node000002_Node000005"><a xlink:title=" ">
<path fill="none" stroke="#63b8ff" d="M398.49,-157.29C390.68,-148.25 381.41,-137.52 375.01,-130.11"/>
<polygon fill="#63b8ff" stroke="#63b8ff" points="396.47,-159.3 405.65,-164.58 401.77,-154.73 396.47,-159.3"/>
</a>
</g>
</g>
<!-- Node2&#45;&gt;Node6 -->
<g id="edge5_Node000002_Node000006" class="edge">
<title>Node2&#45;&gt;Node6</title>
<g id="a_edge5_Node000002_Node000006"><a xlink:title=" ">
<path fill="none" stroke="#63b8ff" d="M344.02,-163.63C280.84,-153.82 188.48,-139.48 128.87,-130.23"/>
<polygon fill="#63b8ff" stroke="#63b8ff" points="343.26,-167.21 353.68,-165.28 344.33,-160.29 343.26,-167.21"/>
</a>
</g>
</g>
<!-- Node7 -->
<g id="Node000007" class="node">
<title>Node7</title>
<g id="a_Node000007"><a xlink:href="../../d2/d58/_coulex_8cc.html" target="_top" xlink:title=" ">
<polygon fill="white" stroke="#666666" points="512.25,-74.5 394.25,-74.5 394.25,-55.25 512.25,-55.25 512.25,-74.5"/>
<text text-anchor="middle" x="453.25" y="-61" font-family="Helvetica,sans-Serif" font-size="10.00">src/lib/coulex/Coulex.cc</text>
</a>
</g>
</g>
<!-- Node2&#45;&gt;Node7 -->
<g id="edge6_Node000002_Node000007" class="edge">
<title>Node2&#45;&gt;Node7</title>
<g id="a_edge6_Node000002_Node000007"><a xlink:title=" ">
<path fill="none" stroke="#63b8ff" d="M425.33,-156.59C430.26,-148.66 435.63,-139.03 439.25,-129.75 446.59,-110.92 450.49,-87.4 452.19,-74.81"/>
<polygon fill="#63b8ff" stroke="#63b8ff" points="422.01,-154.27 419.5,-164.57 427.88,-158.09 422.01,-154.27"/>
</a>
</g>
</g>
<!-- Node8 -->
<g id="Node000008" class="node">
<title>Node8</title>
<g id="a_Node000008"><a xlink:href="../../df/d7f/_coulex_8hh.html" target="_top" xlink:title=" ">
<polygon fill="white" stroke="#666666" points="605.25,-129.75 487.25,-129.75 487.25,-110.5 605.25,-110.5 605.25,-129.75"/>
<text text-anchor="middle" x="546.25" y="-116.25" font-family="Helvetica,sans-Serif" font-size="10.00">src/lib/coulex/Coulex.hh</text>
</a>
</g>
</g>
<!-- Node2&#45;&gt;Node8 -->
<g id="edge7_Node000002_Node000008" class="edge">
<title>Node2&#45;&gt;Node8</title>
<g id="a_edge7_Node000002_Node000008"><a xlink:title=" ">
<path fill="none" stroke="#63b8ff" d="M445.92,-161.29C470.04,-151.64 502.24,-138.75 523.58,-130.2"/>
<polygon fill="#63b8ff" stroke="#63b8ff" points="444.79,-158.38 436.81,-165.34 447.4,-164.87 444.79,-158.38"/>
</a>
</g>
</g>
<!-- Node9 -->
<g id="Node000009" class="node">
<title>Node9</title>
<g id="a_Node000009"><a xlink:href="../../dc/d19/_coulex_calculation_8cc.html" target="_top" xlink:title=" ">
<polygon fill="white" stroke="#666666" points="734.25,-19.25 568.25,-19.25 568.25,0 734.25,0 734.25,-19.25"/>
<text text-anchor="middle" x="651.25" y="-5.75" font-family="Helvetica,sans-Serif" font-size="10.00">src/lib/coulex/CoulexCalculation.cc</text>
</a>
</g>
</g>
<!-- Node2&#45;&gt;Node9 -->
<g id="edge12_Node000002_Node000009" class="edge">
<title>Node2&#45;&gt;Node9</title>
<g id="a_edge12_Node000002_Node000009"><a xlink:title=" ">
<path fill="none" stroke="#63b8ff" d="M487.02,-163.52C575.81,-148.63 716.39,-118.61 743.25,-74.5 759.38,-48.01 719.7,-29.74 687.49,-19.72"/>
<polygon fill="#63b8ff" stroke="#63b8ff" points="486.49,-160.22 477.19,-165.3 487.63,-167.13 486.49,-160.22"/>
</a>
</g>
</g>
<!-- Node10 -->
<g id="Node000010" class="node">
<title>Node10</title>
<g id="a_Node000010"><a xlink:href="../../db/dba/_coulex_calculation_8hh.html" target="_top" xlink:title=" ">
<polygon fill="white" stroke="#666666" points="734.25,-74.5 568.25,-74.5 568.25,-55.25 734.25,-55.25 734.25,-74.5"/>
<text text-anchor="middle" x="651.25" y="-61" font-family="Helvetica,sans-Serif" font-size="10.00">src/lib/coulex/CoulexCalculation.hh</text>
</a>
</g>
</g>
<!-- Node2&#45;&gt;Node10 -->
<g id="edge13_Node000002_Node000010" class="edge">
<title>Node2&#45;&gt;Node10</title>
<g id="a_edge13_Node000002_Node000010"><a xlink:title=" ">
<path fill="none" stroke="#63b8ff" d="M487.78,-172.15C528.48,-167.63 577.85,-156.41 614.25,-129.75 633.27,-115.82 644.07,-88.91 648.63,-74.88"/>
<polygon fill="#63b8ff" stroke="#63b8ff" points="487.7,-168.74 478.09,-173.21 488.39,-175.71 487.7,-168.74"/>
</a>
</g>
</g>
<!-- Node4 -->
<g id="Node000004" class="node">
<title>Node4</title>
<g id="a_Node000004"><a xlink:href="../../dd/d67/_ang_corr_8cc.html" target="_top" xlink:title=" ">
<polygon fill="white" stroke="#666666" points="286.12,-74.5 158.38,-74.5 158.38,-55.25 286.12,-55.25 286.12,-74.5"/>
<text text-anchor="middle" x="222.25" y="-61" font-family="Helvetica,sans-Serif" font-size="10.00">src/lib/angdist/AngCorr.cc</text>
</a>
</g>
</g>
<!-- Node3&#45;&gt;Node4 -->
<g id="edge3_Node000003_Node000004" class="edge">
<title>Node3&#45;&gt;Node4</title>
<g id="a_edge3_Node000003_Node000004"><a xlink:title=" ">
<path fill="none" stroke="#63b8ff" d="M222.25,-99.46C222.25,-91.02 222.25,-81.58 222.25,-74.86"/>
<polygon fill="#63b8ff" stroke="#63b8ff" points="218.75,-99.33 222.25,-109.33 225.75,-99.33 218.75,-99.33"/>
</a>
</g>
</g>
<!-- Node8&#45;&gt;Node7 -->
<g id="edge8_Node000008_Node000007" class="edge">
<title>Node8&#45;&gt;Node7</title>
<g id="a_edge8_Node000008_Node000007"><a xlink:title=" ">
<path fill="none" stroke="#63b8ff" d="M521.33,-104.86C504.74,-95.36 483.42,-83.15 469.1,-74.95"/>
<polygon fill="#63b8ff" stroke="#63b8ff" points="519.06,-108.16 529.47,-110.09 522.53,-102.09 519.06,-108.16"/>
</a>
</g>
</g>
<!-- Node8&#45;&gt;Node9 -->
<g id="edge9_Node000008_Node000009" class="edge">
<title>Node8&#45;&gt;Node9</title>
<g id="a_edge9_Node000008_Node000009"><a xlink:title=" ">
<path fill="none" stroke="#63b8ff" d="M545.84,-99.6C546.53,-85.89 549.48,-67.83 559.25,-55.25 573.07,-37.44 595.82,-26.32 615.24,-19.63"/>
<polygon fill="#63b8ff" stroke="#63b8ff" points="542.34,-99.24 545.72,-109.28 549.34,-99.32 542.34,-99.24"/>
</a>
</g>
</g>
<!-- Node8&#45;&gt;Node10 -->
<g id="edge10_Node000008_Node000010" class="edge">
<title>Node8&#45;&gt;Node10</title>
<g id="a_edge10_Node000008_Node000010"><a xlink:title=" ">
<path fill="none" stroke="#63b8ff" d="M573.86,-105.12C592.67,-95.58 617.03,-83.23 633.35,-74.95"/>
<polygon fill="#63b8ff" stroke="#63b8ff" points="572.4,-102.45 565.06,-110.09 575.56,-108.69 572.4,-102.45"/>
</a>
</g>
</g>
<!-- Node10&#45;&gt;Node9 -->
<g id="edge11_Node000010_Node000009" class="edge">
<title>Node10&#45;&gt;Node9</title>
<g id="a_edge11_Node000010_Node000009"><a xlink:title=" ">
<path fill="none" stroke="#63b8ff" d="M651.25,-44.21C651.25,-35.77 651.25,-26.33 651.25,-19.61"/>
<polygon fill="#63b8ff" stroke="#63b8ff" points="647.75,-44.08 651.25,-54.08 654.75,-44.08 647.75,-44.08"/>
</a>
</g>
</g>
</g>
</svg>
