<?xml version="1.0" encoding="UTF-8" standalone="no"?>
<!DOCTYPE svg PUBLIC "-//W3C//DTD SVG 1.1//EN"
 "http://www.w3.org/Graphics/SVG/1.1/DTD/svg11.dtd">
<!-- Generated by graphviz version 2.49.3 (20211023.0002)
 -->
<!-- Title: /Users/99j/git/gamma&#45;root/src/lib/angdist/PopulationParameter.cc Pages: 1 -->
<svg width="198pt" height="162pt"
 viewBox="0.00 0.00 197.50 162.00" xmlns="http://www.w3.org/2000/svg" xmlns:xlink="http://www.w3.org/1999/xlink">
<g id="graph0" class="graph" transform="scale(1 1) rotate(0) translate(4 158)">
<title>/Users/99j/git/gamma&#45;root/src/lib/angdist/PopulationParameter.cc</title>
<polygon fill="white" stroke="transparent" points="-4,4 -4,-158 193.5,-158 193.5,4 -4,4"/>
<!-- Node1 -->
<g id="node1" class="node">
<title>Node1</title>
<g id="a_node1"><a xlink:title=" ">
<polygon fill="#bfbfbf" stroke="black" points="13,-112.5 13,-153.5 138,-153.5 138,-112.5 13,-112.5"/>
<text text-anchor="start" x="21" y="-141.5" font-family="Helvetica,sans-Serif" font-size="10.00">/Users/99j/git/gamma</text>
<text text-anchor="start" x="21" y="-130.5" font-family="Helvetica,sans-Serif" font-size="10.00">&#45;root/src/lib/angdist</text>
<text text-anchor="middle" x="75.5" y="-119.5" font-family="Helvetica,sans-Serif" font-size="10.00">/PopulationParameter.cc</text>
</a>
</g>
</g>
<!-- Node2 -->
<g id="node2" class="node">
<title>Node2</title>
<g id="a_node2"><a xlink:title=" ">
<polygon fill="white" stroke="#bfbfbf" points="0,-56.5 0,-75.5 47,-75.5 47,-56.5 0,-56.5"/>
<text text-anchor="middle" x="23.5" y="-63.5" font-family="Helvetica,sans-Serif" font-size="10.00">math.h</text>
</a>
</g>
</g>
<!-- Node1&#45;&gt;Node2 -->
<g id="edge1" class="edge">
<title>Node1&#45;&gt;Node2</title>
<path fill="none" stroke="midnightblue" d="M59.9,-112.5C52.54,-103.3 43.85,-92.44 36.81,-83.63"/>
<polygon fill="midnightblue" stroke="midnightblue" points="39.4,-81.27 30.42,-75.65 33.94,-85.65 39.4,-81.27"/>
</g>
<!-- Node3 -->
<g id="node3" class="node">
<title>Node3</title>
<g id="a_node3"><a xlink:href="../../d0/d3d/_population_parameter_8hh.html" target="_top" xlink:title=" ">
<polygon fill="white" stroke="black" points="65.5,-56.5 65.5,-75.5 189.5,-75.5 189.5,-56.5 65.5,-56.5"/>
<text text-anchor="middle" x="127.5" y="-63.5" font-family="Helvetica,sans-Serif" font-size="10.00">PopulationParameter.hh</text>
</a>
</g>
</g>
<!-- Node1&#45;&gt;Node3 -->
<g id="edge2" class="edge">
<title>Node1&#45;&gt;Node3</title>
<path fill="none" stroke="midnightblue" d="M91.1,-112.5C98.46,-103.3 107.15,-92.44 114.19,-83.63"/>
<polygon fill="midnightblue" stroke="midnightblue" points="117.06,-85.65 120.58,-75.65 111.6,-81.27 117.06,-85.65"/>
</g>
<!-- Node4 -->
<g id="node4" class="node">
<title>Node4</title>
<g id="a_node4"><a xlink:title=" ">
<polygon fill="white" stroke="#bfbfbf" points="105.5,-0.5 105.5,-19.5 149.5,-19.5 149.5,-0.5 105.5,-0.5"/>
<text text-anchor="middle" x="127.5" y="-7.5" font-family="Helvetica,sans-Serif" font-size="10.00">vector</text>
</a>
</g>
</g>
<!-- Node3&#45;&gt;Node4 -->
<g id="edge3" class="edge">
<title>Node3&#45;&gt;Node4</title>
<path fill="none" stroke="midnightblue" d="M127.5,-56.08C127.5,-49.01 127.5,-38.86 127.5,-29.99"/>
<polygon fill="midnightblue" stroke="midnightblue" points="131,-29.75 127.5,-19.75 124,-29.75 131,-29.75"/>
</g>
</g>
</svg>
