<?xml version="1.0" encoding="UTF-8" standalone="no"?>
<!DOCTYPE svg PUBLIC "-//W3C//DTD SVG 1.1//EN"
 "http://www.w3.org/Graphics/SVG/1.1/DTD/svg11.dtd">
<!-- Generated by graphviz version 12.0.0 (20240704.0754)
 -->
<!-- Title: GamR::Tree::TDetDefn::GetAllDatums Pages: 1 -->
<svg width="415pt" height="39pt"
 viewBox="0.00 0.00 415.25 38.50" xmlns="http://www.w3.org/2000/svg" xmlns:xlink="http://www.w3.org/1999/xlink">
<g id="graph0" class="graph" transform="scale(1 1) rotate(0) translate(4 34.5)">
<title>GamR::Tree::TDetDefn::GetAllDatums</title>
<!-- Node1 -->
<g id="Node000001" class="node">
<title>Node1</title>
<g id="a_Node000001"><a xlink:title=" ">
<polygon fill="#999999" stroke="#666666" points="113.5,-30.5 0,-30.5 0,0 113.5,0 113.5,-30.5"/>
<text text-anchor="start" x="8" y="-17" font-family="Helvetica,sans-Serif" font-size="10.00">GamR::Tree::TDetDefn</text>
<text text-anchor="middle" x="56.75" y="-5.75" font-family="Helvetica,sans-Serif" font-size="10.00">::GetAllDatums</text>
</a>
</g>
</g>
<!-- Node2 -->
<g id="Node000002" class="node">
<title>Node2</title>
<g id="a_Node000002"><a xlink:href="../../d4/d79/class_gam_r_1_1_tree_1_1_t_det_defn.html#ab07152fb360c8aed5fa35ef70a253ba1" target="_top" xlink:title=" ">
<polygon fill="white" stroke="#666666" points="263,-30.5 149.5,-30.5 149.5,0 263,0 263,-30.5"/>
<text text-anchor="start" x="157.5" y="-17" font-family="Helvetica,sans-Serif" font-size="10.00">GamR::Tree::TDetDefn</text>
<text text-anchor="middle" x="206.25" y="-5.75" font-family="Helvetica,sans-Serif" font-size="10.00">::Calibrate</text>
</a>
</g>
</g>
<!-- Node1&#45;&gt;Node2 -->
<g id="edge1_Node000001_Node000002" class="edge">
<title>Node1&#45;&gt;Node2</title>
<g id="a_edge1_Node000001_Node000002"><a xlink:title=" ">
<path fill="none" stroke="#63b8ff" d="M113.93,-15.25C121.79,-15.25 129.93,-15.25 137.97,-15.25"/>
<polygon fill="#63b8ff" stroke="#63b8ff" points="137.71,-18.75 147.71,-15.25 137.71,-11.75 137.71,-18.75"/>
</a>
</g>
</g>
<!-- Node3 -->
<g id="Node000003" class="node">
<title>Node3</title>
<g id="a_Node000003"><a xlink:href="../../d0/db7/namespace_gam_r_1_1_utils.html#a6a625e83f7fe144617cb2d4ab7acb6f8" target="_top" xlink:title="Applies function taking both elements of tuple as arguments.">
<polygon fill="white" stroke="#666666" points="407.25,-30.5 299,-30.5 299,0 407.25,0 407.25,-30.5"/>
<text text-anchor="start" x="307" y="-17" font-family="Helvetica,sans-Serif" font-size="10.00">GamR::Utils::for_both</text>
<text text-anchor="middle" x="353.12" y="-5.75" font-family="Helvetica,sans-Serif" font-size="10.00">_in_tuple</text>
</a>
</g>
</g>
<!-- Node2&#45;&gt;Node3 -->
<g id="edge2_Node000002_Node000003" class="edge">
<title>Node2&#45;&gt;Node3</title>
<g id="a_edge2_Node000002_Node000003"><a xlink:title=" ">
<path fill="none" stroke="#63b8ff" d="M263.26,-15.25C271.16,-15.25 279.34,-15.25 287.39,-15.25"/>
<polygon fill="#63b8ff" stroke="#63b8ff" points="287.13,-18.75 297.13,-15.25 287.13,-11.75 287.13,-18.75"/>
</a>
</g>
</g>
</g>
</svg>
