<?xml version="1.0" encoding="UTF-8" standalone="no"?>
<!DOCTYPE svg PUBLIC "-//W3C//DTD SVG 1.1//EN"
 "http://www.w3.org/Graphics/SVG/1.1/DTD/svg11.dtd">
<!-- Generated by graphviz version 8.1.0 (20230707.0739)
 -->
<!-- Title: GamR::Tree::TDetDefn::SetPtrs Pages: 1 -->
<svg width="618pt" height="76pt"
 viewBox="0.00 0.00 618.00 75.88" xmlns="http://www.w3.org/2000/svg" xmlns:xlink="http://www.w3.org/1999/xlink">
<g id="graph0" class="graph" transform="scale(1 1) rotate(0) translate(4 71.88)">
<title>GamR::Tree::TDetDefn::SetPtrs</title>
<!-- Node1 -->
<g id="Node000001" class="node">
<title>Node1</title>
<g id="a_Node000001"><a xlink:title=" ">
<polygon fill="#999999" stroke="#666666" points="113.5,-45.88 0,-45.88 0,-15.37 113.5,-15.37 113.5,-45.88"/>
<text text-anchor="start" x="8" y="-32.38" font-family="Helvetica,sans-Serif" font-size="10.00">GamR::Tree::TDetDefn</text>
<text text-anchor="middle" x="56.75" y="-21.12" font-family="Helvetica,sans-Serif" font-size="10.00">::SetPtrs</text>
</a>
</g>
</g>
<!-- Node2 -->
<g id="Node000002" class="node">
<title>Node2</title>
<g id="a_Node000002"><a xlink:href="../../d0/db7/namespace_gam_r_1_1_utils.html#a6751af789290ad0a5f984de34a0ce481" target="_top" xlink:title="Applies function on each element of tuple.">
<polygon fill="white" stroke="#666666" points="260,-67.88 149.5,-67.88 149.5,-37.38 260,-37.38 260,-67.88"/>
<text text-anchor="start" x="157.5" y="-54.38" font-family="Helvetica,sans-Serif" font-size="10.00">GamR::Utils::for_each</text>
<text text-anchor="middle" x="204.75" y="-43.12" font-family="Helvetica,sans-Serif" font-size="10.00">_in_tuple</text>
</a>
</g>
</g>
<!-- Node1&#45;&gt;Node2 -->
<g id="edge1_Node000001_Node000002" class="edge">
<title>Node1&#45;&gt;Node2</title>
<g id="a_edge1_Node000001_Node000002"><a xlink:title=" ">
<path fill="none" stroke="#63b8ff" d="M113.78,-39.07C121.83,-40.28 130.17,-41.54 138.39,-42.78"/>
<polygon fill="#63b8ff" stroke="#63b8ff" points="137.66,-46.36 148.07,-44.39 138.71,-39.44 137.66,-46.36"/>
</a>
</g>
</g>
<!-- Node3 -->
<g id="Node000003" class="node">
<title>Node3</title>
<g id="a_Node000003"><a xlink:href="../../d0/d17/_abbreviations_8cc.html#a5d1794b612bdcca3f4f4baa3d2e38a0b" target="_top" xlink:title=" ">
<polygon fill="white" stroke="#666666" points="219.15,-19.25 190.35,-19.25 190.35,0 219.15,0 219.15,-19.25"/>
<text text-anchor="middle" x="204.75" y="-5.75" font-family="Helvetica,sans-Serif" font-size="10.00">ss</text>
</a>
</g>
</g>
<!-- Node1&#45;&gt;Node3 -->
<g id="edge2_Node000001_Node000003" class="edge">
<title>Node1&#45;&gt;Node3</title>
<g id="a_edge2_Node000001_Node000003"><a xlink:title=" ">
<path fill="none" stroke="#63b8ff" d="M113.78,-22.57C136.36,-19.32 161.24,-15.74 179.1,-13.17"/>
<polygon fill="#63b8ff" stroke="#63b8ff" points="179.58,-16.49 188.98,-11.61 178.59,-9.56 179.58,-16.49"/>
</a>
</g>
</g>
<!-- Node4 -->
<g id="Node000004" class="node">
<title>Node4</title>
<g id="a_Node000004"><a xlink:href="../../dc/d89/namespace_gam_r_1_1_spect.html#ab983da62eb972889ea13491189e13913" target="_top" xlink:title=" ">
<polygon fill="white" stroke="#666666" points="433.5,-19.25 296,-19.25 296,0 433.5,0 433.5,-19.25"/>
<text text-anchor="middle" x="364.75" y="-5.75" font-family="Helvetica,sans-Serif" font-size="10.00">GamR::Spect::StackSpectra</text>
</a>
</g>
</g>
<!-- Node3&#45;&gt;Node4 -->
<g id="edge3_Node000003_Node000004" class="edge">
<title>Node3&#45;&gt;Node4</title>
<g id="a_edge3_Node000003_Node000004"><a xlink:title=" ">
<path fill="none" stroke="#63b8ff" d="M219.5,-9.62C234.47,-9.62 259.68,-9.62 284.87,-9.62"/>
<polygon fill="#63b8ff" stroke="#63b8ff" points="284.64,-13.13 294.64,-9.62 284.64,-6.13 284.64,-13.13"/>
</a>
</g>
</g>
<!-- Node4&#45;&gt;Node4 -->
<g id="edge5_Node000004_Node000004" class="edge">
<title>Node4&#45;&gt;Node4</title>
<g id="a_edge5_Node000004_Node000004"><a xlink:title=" ">
<path fill="none" stroke="#63b8ff" d="M339.7,-19.54C328.28,-28.15 336.62,-37.25 364.75,-37.25 381.45,-37.25 391.18,-34.04 393.93,-29.63"/>
<polygon fill="#63b8ff" stroke="#63b8ff" points="396.83,-28.47 389.8,-20.54 390.35,-31.12 396.83,-28.47"/>
</a>
</g>
</g>
<!-- Node5 -->
<g id="Node000005" class="node">
<title>Node5</title>
<g id="a_Node000005"><a xlink:href="../../dc/d89/namespace_gam_r_1_1_spect.html#a56e80bce5bf691212c8b7dfb76c2d2b4" target="_top" xlink:title=" ">
<polygon fill="white" stroke="#666666" points="610,-19.25 469.5,-19.25 469.5,0 610,0 610,-19.25"/>
<text text-anchor="middle" x="539.75" y="-5.75" font-family="Helvetica,sans-Serif" font-size="10.00">GamR::Spect::List1DSpectra</text>
</a>
</g>
</g>
<!-- Node4&#45;&gt;Node5 -->
<g id="edge4_Node000004_Node000005" class="edge">
<title>Node4&#45;&gt;Node5</title>
<g id="a_edge4_Node000004_Node000005"><a xlink:title=" ">
<path fill="none" stroke="#63b8ff" d="M433.63,-9.62C441.72,-9.62 450.05,-9.62 458.3,-9.62"/>
<polygon fill="#63b8ff" stroke="#63b8ff" points="458.08,-13.13 468.08,-9.62 458.08,-6.13 458.08,-13.13"/>
</a>
</g>
</g>
</g>
</svg>
