<?xml version="1.0" encoding="UTF-8" standalone="no"?>
<!DOCTYPE svg PUBLIC "-//W3C//DTD SVG 1.1//EN"
 "http://www.w3.org/Graphics/SVG/1.1/DTD/svg11.dtd">
<!-- Generated by graphviz version 12.2.1 (20241206.2353)
 -->
<!-- Title: GamR::Tree::TDetDefn::TDetDefn Pages: 1 -->
<svg width="511pt" height="234pt"
 viewBox="0.00 0.00 511.25 233.50" xmlns="http://www.w3.org/2000/svg" xmlns:xlink="http://www.w3.org/1999/xlink">
<g id="page0,1_graph0" class="graph" transform="scale(1 1) rotate(0) translate(4 229.5)">
<title>GamR::Tree::TDetDefn::TDetDefn</title>
<!-- Node1 -->
<g id="Node000001" class="node">
<title>Node1</title>
<g id="a_Node000001"><a xlink:title=" ">
<polygon fill="#999999" stroke="#666666" points="503.25,-133.5 389.75,-133.5 389.75,-103 503.25,-103 503.25,-133.5"/>
<text text-anchor="start" x="397.75" y="-120" font-family="Helvetica,sans-Serif" font-size="10.00">GamR::Tree::TDetDefn</text>
<text text-anchor="middle" x="446.5" y="-108.75" font-family="Helvetica,sans-Serif" font-size="10.00">::TDetDefn</text>
</a>
</g>
</g>
<!-- Node2 -->
<g id="Node000002" class="node">
<title>Node2</title>
<g id="a_Node000002"><a xlink:href="../../d1/de2/struct_gam_r_1_1_tree_1_1_t_det_defn_1_1_cal_functor.html#aa46dd1ad5cbd231132c8f658b7783dd0" target="_top" xlink:title=" ">
<polygon fill="white" stroke="#666666" points="325.25,-225.5 205.75,-225.5 205.75,-195 325.25,-195 325.25,-225.5"/>
<text text-anchor="start" x="213.75" y="-212" font-family="Helvetica,sans-Serif" font-size="10.00">GamR::Tree::TDetDefn</text>
<text text-anchor="middle" x="265.5" y="-200.75" font-family="Helvetica,sans-Serif" font-size="10.00">::CalFunctor::CalFunctor</text>
</a>
</g>
</g>
<!-- Node1&#45;&gt;Node2 -->
<g id="edge1_Node000001_Node000002" class="edge">
<title>Node1&#45;&gt;Node2</title>
<g id="a_edge1_Node000001_Node000002"><a xlink:title=" ">
<path fill="none" stroke="#63b8ff" d="M417.02,-140.91C399.53,-154.01 376.23,-170.07 353.75,-181.25 343.6,-186.29 332.37,-190.77 321.44,-194.61"/>
<polygon fill="#63b8ff" stroke="#63b8ff" points="419.07,-143.74 424.9,-134.89 414.82,-138.18 419.07,-143.74"/>
</a>
</g>
</g>
<!-- Node3 -->
<g id="Node000003" class="node">
<title>Node3</title>
<g id="a_Node000003"><a xlink:href="../../d9/df7/struct_gam_r_1_1_tree_1_1_t_det_defn_1_1_cal_functor_1_1_cal_functor_inner.html#a163628b6fb7f9c7ec5cd951fe278088e" target="_top" xlink:title=" ">
<polygon fill="white" stroke="#666666" points="141.25,-209.12 0,-209.12 0,-167.38 141.25,-167.38 141.25,-209.12"/>
<text text-anchor="start" x="8" y="-195.62" font-family="Helvetica,sans-Serif" font-size="10.00">GamR::Tree::TDetDefn</text>
<text text-anchor="start" x="8" y="-184.38" font-family="Helvetica,sans-Serif" font-size="10.00">::CalFunctor::CalFunctorInner</text>
<text text-anchor="middle" x="70.62" y="-173.12" font-family="Helvetica,sans-Serif" font-size="10.00">::CalFunctorInner</text>
</a>
</g>
</g>
<!-- Node1&#45;&gt;Node3 -->
<g id="edge3_Node000001_Node000003" class="edge">
<title>Node1&#45;&gt;Node3</title>
<g id="a_edge3_Node000001_Node000003"><a xlink:title=" ">
<path fill="none" stroke="#63b8ff" d="M392.26,-137.4C379.75,-141.41 366.38,-145.31 353.75,-148.25 282.32,-164.86 199,-175.64 141.53,-181.78"/>
<polygon fill="#63b8ff" stroke="#63b8ff" points="393.16,-140.79 401.56,-134.34 390.97,-134.14 393.16,-140.79"/>
</a>
</g>
</g>
<!-- Node4 -->
<g id="Node000004" class="node">
<title>Node4</title>
<g id="a_Node000004"><a xlink:href="../../dd/d9c/struct_gam_r_1_1_tree_1_1_t_det_defn_1_1_interpret_pointers.html#a88f3bedbbc7580b1d8cfe7e7d2087e50" target="_top" xlink:title=" ">
<polygon fill="white" stroke="#666666" points="322.25,-139.12 208.75,-139.12 208.75,-97.38 322.25,-97.38 322.25,-139.12"/>
<text text-anchor="start" x="216.75" y="-125.62" font-family="Helvetica,sans-Serif" font-size="10.00">GamR::Tree::TDetDefn</text>
<text text-anchor="start" x="216.75" y="-114.38" font-family="Helvetica,sans-Serif" font-size="10.00">::InterpretPointers::</text>
<text text-anchor="middle" x="265.5" y="-103.12" font-family="Helvetica,sans-Serif" font-size="10.00">InterpretPointers</text>
</a>
</g>
</g>
<!-- Node1&#45;&gt;Node4 -->
<g id="edge4_Node000001_Node000004" class="edge">
<title>Node1&#45;&gt;Node4</title>
<g id="a_edge4_Node000001_Node000004"><a xlink:title=" ">
<path fill="none" stroke="#63b8ff" d="M377.87,-118.25C359.59,-118.25 340.01,-118.25 322.45,-118.25"/>
<polygon fill="#63b8ff" stroke="#63b8ff" points="377.84,-121.75 387.84,-118.25 377.84,-114.75 377.84,-121.75"/>
</a>
</g>
</g>
<!-- Node5 -->
<g id="Node000005" class="node">
<title>Node5</title>
<g id="a_Node000005"><a xlink:href="../../d1/d3d/struct_gam_r_1_1_tree_1_1_t_det_defn_1_1_update_goodness.html#ae35e1e8f45e06d9c1ee19587f46d3e47" target="_top" xlink:title=" ">
<polygon fill="white" stroke="#666666" points="353.75,-79.5 177.25,-79.5 177.25,-49 353.75,-49 353.75,-79.5"/>
<text text-anchor="start" x="185.25" y="-66" font-family="Helvetica,sans-Serif" font-size="10.00">GamR::Tree::TDetDefn</text>
<text text-anchor="middle" x="265.5" y="-54.75" font-family="Helvetica,sans-Serif" font-size="10.00">::UpdateGoodness::UpdateGoodness</text>
</a>
</g>
</g>
<!-- Node1&#45;&gt;Node5 -->
<g id="edge5_Node000001_Node000005" class="edge">
<title>Node1&#45;&gt;Node5</title>
<g id="a_edge5_Node000001_Node000005"><a xlink:title=" ">
<path fill="none" stroke="#63b8ff" d="M388.23,-99.06C376.84,-95.37 364.94,-91.62 353.75,-88.25 344.42,-85.44 334.5,-82.59 324.81,-79.87"/>
<polygon fill="#63b8ff" stroke="#63b8ff" points="386.93,-102.32 397.52,-102.09 389.1,-95.66 386.93,-102.32"/>
</a>
</g>
</g>
<!-- Node6 -->
<g id="Node000006" class="node">
<title>Node6</title>
<g id="a_Node000006"><a xlink:href="../../d4/d79/class_gam_r_1_1_tree_1_1_t_det_defn.html#acff400b71d824140889b696739b8911e" target="_top" xlink:title=" ">
<polygon fill="white" stroke="#666666" points="322.25,-30.5 208.75,-30.5 208.75,0 322.25,0 322.25,-30.5"/>
<text text-anchor="start" x="216.75" y="-17" font-family="Helvetica,sans-Serif" font-size="10.00">GamR::Tree::TDetDefn</text>
<text text-anchor="middle" x="265.5" y="-5.75" font-family="Helvetica,sans-Serif" font-size="10.00">::ClassDef</text>
</a>
</g>
</g>
<!-- Node1&#45;&gt;Node6 -->
<g id="edge6_Node000001_Node000006" class="edge">
<title>Node1&#45;&gt;Node6</title>
<g id="a_edge6_Node000001_Node000006"><a xlink:title=" ">
<path fill="none" stroke="#63b8ff" d="M423.24,-94.51C405.83,-77.22 380.2,-54.42 353.75,-40.25 344.03,-35.04 333.1,-30.81 322.35,-27.42"/>
<polygon fill="#63b8ff" stroke="#63b8ff" points="420.53,-96.75 430.04,-101.42 425.52,-91.84 420.53,-96.75"/>
</a>
</g>
</g>
<!-- Node2&#45;&gt;Node3 -->
<g id="edge2_Node000002_Node000003" class="edge">
<title>Node2&#45;&gt;Node3</title>
<g id="a_edge2_Node000002_Node000003"><a xlink:title=" ">
<path fill="none" stroke="#63b8ff" d="M194.23,-202.24C177.06,-200.28 158.69,-198.18 141.53,-196.22"/>
<polygon fill="#63b8ff" stroke="#63b8ff" points="193.48,-205.67 203.82,-203.33 194.28,-198.72 193.48,-205.67"/>
</a>
</g>
</g>
</g>
</svg>
