<?xml version="1.0" encoding="UTF-8" standalone="no"?>
<!DOCTYPE svg PUBLIC "-//W3C//DTD SVG 1.1//EN"
 "http://www.w3.org/Graphics/SVG/1.1/DTD/svg11.dtd">
<!-- Generated by graphviz version 12.2.1 (20241206.2353)
 -->
<!-- Title: src/lib/tree/ExpDefn.cc Pages: 1 -->
<svg width="1236pt" height="248pt"
 viewBox="0.00 0.00 1236.00 248.25" xmlns="http://www.w3.org/2000/svg" xmlns:xlink="http://www.w3.org/1999/xlink">
<g id="graph0" class="graph" transform="scale(1 1) rotate(0) translate(4 244.25)">
<title>src/lib/tree/ExpDefn.cc</title>
<!-- Node1 -->
<g id="Node000001" class="node">
<title>Node1</title>
<g id="a_Node000001"><a xlink:title=" ">
<polygon fill="#999999" stroke="#666666" points="424,-240.25 310.5,-240.25 310.5,-221 424,-221 424,-240.25"/>
<text text-anchor="middle" x="367.25" y="-226.75" font-family="Helvetica,sans-Serif" font-size="10.00">src/lib/tree/ExpDefn.cc</text>
</a>
</g>
</g>
<!-- Node2 -->
<g id="Node000002" class="node">
<title>Node2</title>
<g id="a_Node000002"><a xlink:href="../../dc/d02/_exp_defn_8hh.html" target="_top" xlink:title=" ">
<polygon fill="white" stroke="#666666" points="399.62,-185 334.88,-185 334.88,-165.75 399.62,-165.75 399.62,-185"/>
<text text-anchor="middle" x="367.25" y="-171.5" font-family="Helvetica,sans-Serif" font-size="10.00">ExpDefn.hh</text>
</a>
</g>
</g>
<!-- Node1&#45;&gt;Node2 -->
<g id="edge1_Node000001_Node000002" class="edge">
<title>Node1&#45;&gt;Node2</title>
<g id="a_edge1_Node000001_Node000002"><a xlink:title=" ">
<path fill="none" stroke="#63b8ff" d="M367.25,-220.83C367.25,-214.32 367.25,-205.17 367.25,-196.87"/>
<polygon fill="#63b8ff" stroke="#63b8ff" points="370.75,-196.87 367.25,-186.87 363.75,-196.87 370.75,-196.87"/>
</a>
</g>
</g>
<!-- Node3 -->
<g id="Node000003" class="node">
<title>Node3</title>
<g id="a_Node000003"><a xlink:title=" ">
<polygon fill="#e0e0e0" stroke="#999999" points="50.5,-129.75 0,-129.75 0,-110.5 50.5,-110.5 50.5,-129.75"/>
<text text-anchor="middle" x="25.25" y="-116.25" font-family="Helvetica,sans-Serif" font-size="10.00">memory</text>
</a>
</g>
</g>
<!-- Node2&#45;&gt;Node3 -->
<g id="edge2_Node000002_Node000003" class="edge">
<title>Node2&#45;&gt;Node3</title>
<g id="a_edge2_Node000002_Node000003"><a xlink:title=" ">
<path fill="none" stroke="#63b8ff" d="M334.69,-170.79C280.21,-164.55 166.97,-150.55 61.92,-130.11"/>
<polygon fill="#63b8ff" stroke="#63b8ff" points="62.78,-126.71 52.29,-128.21 61.42,-133.58 62.78,-126.71"/>
</a>
</g>
</g>
<!-- Node4 -->
<g id="Node000004" class="node">
<title>Node4</title>
<g id="a_Node000004"><a xlink:title=" ">
<polygon fill="#e0e0e0" stroke="#999999" points="108.25,-129.75 68.25,-129.75 68.25,-110.5 108.25,-110.5 108.25,-129.75"/>
<text text-anchor="middle" x="88.25" y="-116.25" font-family="Helvetica,sans-Serif" font-size="10.00">string</text>
</a>
</g>
</g>
<!-- Node2&#45;&gt;Node4 -->
<g id="edge3_Node000002_Node000004" class="edge">
<title>Node2&#45;&gt;Node4</title>
<g id="a_edge3_Node000002_Node000004"><a xlink:title=" ">
<path fill="none" stroke="#63b8ff" d="M334.65,-169.75C288.75,-162.99 202.31,-149.31 119.57,-130.07"/>
<polygon fill="#63b8ff" stroke="#63b8ff" points="120.46,-126.69 109.93,-127.8 118.86,-133.5 120.46,-126.69"/>
</a>
</g>
</g>
<!-- Node5 -->
<g id="Node000005" class="node">
<title>Node5</title>
<g id="a_Node000005"><a xlink:title=" ">
<polygon fill="#e0e0e0" stroke="#999999" points="169.75,-129.75 126.75,-129.75 126.75,-110.5 169.75,-110.5 169.75,-129.75"/>
<text text-anchor="middle" x="148.25" y="-116.25" font-family="Helvetica,sans-Serif" font-size="10.00">thread</text>
</a>
</g>
</g>
<!-- Node2&#45;&gt;Node5 -->
<g id="edge4_Node000002_Node000005" class="edge">
<title>Node2&#45;&gt;Node5</title>
<g id="a_edge4_Node000002_Node000005"><a xlink:title=" ">
<path fill="none" stroke="#63b8ff" d="M334.55,-167.01C299.18,-158.96 240.85,-145.43 181.35,-130.22"/>
<polygon fill="#63b8ff" stroke="#63b8ff" points="182.26,-126.83 171.7,-127.73 180.52,-133.61 182.26,-126.83"/>
</a>
</g>
</g>
<!-- Node6 -->
<g id="Node000006" class="node">
<title>Node6</title>
<g id="a_Node000006"><a xlink:title=" ">
<polygon fill="#e0e0e0" stroke="#999999" points="222.62,-129.75 187.88,-129.75 187.88,-110.5 222.62,-110.5 222.62,-129.75"/>
<text text-anchor="middle" x="205.25" y="-116.25" font-family="Helvetica,sans-Serif" font-size="10.00">map</text>
</a>
</g>
</g>
<!-- Node2&#45;&gt;Node6 -->
<g id="edge5_Node000002_Node000006" class="edge">
<title>Node2&#45;&gt;Node6</title>
<g id="a_edge5_Node000002_Node000006"><a xlink:title=" ">
<path fill="none" stroke="#63b8ff" d="M339.77,-165.34C310.15,-155.61 263.26,-140.19 233.39,-130.37"/>
<polygon fill="#63b8ff" stroke="#63b8ff" points="234.88,-127.18 224.28,-127.38 232.69,-133.83 234.88,-127.18"/>
</a>
</g>
</g>
<!-- Node7 -->
<g id="Node000007" class="node">
<title>Node7</title>
<g id="a_Node000007"><a xlink:title=" ">
<polygon fill="#e0e0e0" stroke="#999999" points="693.75,-19.25 656.75,-19.25 656.75,0 693.75,0 693.75,-19.25"/>
<text text-anchor="middle" x="675.25" y="-5.75" font-family="Helvetica,sans-Serif" font-size="10.00">tuple</text>
</a>
</g>
</g>
<!-- Node2&#45;&gt;Node7 -->
<g id="edge6_Node000002_Node000007" class="edge">
<title>Node2&#45;&gt;Node7</title>
<g id="a_edge6_Node000002_Node000007"><a xlink:title=" ">
<path fill="none" stroke="#63b8ff" d="M334.61,-167.03C298.78,-157.4 248.89,-138.38 269.25,-110.5 314.29,-48.84 559.49,-21.07 645.46,-13.14"/>
<polygon fill="#63b8ff" stroke="#63b8ff" points="645.56,-16.64 655.21,-12.26 644.94,-9.67 645.56,-16.64"/>
</a>
</g>
</g>
<!-- Node8 -->
<g id="Node000008" class="node">
<title>Node8</title>
<g id="a_Node000008"><a xlink:title=" ">
<polygon fill="#e0e0e0" stroke="#999999" points="321.75,-129.75 278.75,-129.75 278.75,-110.5 321.75,-110.5 321.75,-129.75"/>
<text text-anchor="middle" x="300.25" y="-116.25" font-family="Helvetica,sans-Serif" font-size="10.00">vector</text>
</a>
</g>
</g>
<!-- Node2&#45;&gt;Node8 -->
<g id="edge7_Node000002_Node000008" class="edge">
<title>Node2&#45;&gt;Node8</title>
<g id="a_edge7_Node000002_Node000008"><a xlink:title=" ">
<path fill="none" stroke="#63b8ff" d="M355.88,-165.34C346.2,-157.65 332.05,-146.4 320.44,-137.18"/>
<polygon fill="#63b8ff" stroke="#63b8ff" points="322.64,-134.45 312.63,-130.97 318.28,-139.93 322.64,-134.45"/>
</a>
</g>
</g>
<!-- Node9 -->
<g id="Node000009" class="node">
<title>Node9</title>
<g id="a_Node000009"><a xlink:title=" ">
<polygon fill="#e0e0e0" stroke="#999999" points="394.38,-129.75 340.12,-129.75 340.12,-110.5 394.38,-110.5 394.38,-129.75"/>
<text text-anchor="middle" x="367.25" y="-116.25" font-family="Helvetica,sans-Serif" font-size="10.00">TChain.h</text>
</a>
</g>
</g>
<!-- Node2&#45;&gt;Node9 -->
<g id="edge8_Node000002_Node000009" class="edge">
<title>Node2&#45;&gt;Node9</title>
<g id="a_edge8_Node000002_Node000009"><a xlink:title=" ">
<path fill="none" stroke="#63b8ff" d="M367.25,-165.58C367.25,-159.07 367.25,-149.92 367.25,-141.62"/>
<polygon fill="#63b8ff" stroke="#63b8ff" points="370.75,-141.62 367.25,-131.62 363.75,-141.62 370.75,-141.62"/>
</a>
</g>
</g>
<!-- Node10 -->
<g id="Node000010" class="node">
<title>Node10</title>
<g id="a_Node000010"><a xlink:title=" ">
<polygon fill="#e0e0e0" stroke="#999999" points="457.88,-129.75 412.62,-129.75 412.62,-110.5 457.88,-110.5 457.88,-129.75"/>
<text text-anchor="middle" x="435.25" y="-116.25" font-family="Helvetica,sans-Serif" font-size="10.00">TFile.h</text>
</a>
</g>
</g>
<!-- Node2&#45;&gt;Node10 -->
<g id="edge9_Node000002_Node000010" class="edge">
<title>Node2&#45;&gt;Node10</title>
<g id="a_edge9_Node000002_Node000010"><a xlink:title=" ">
<path fill="none" stroke="#63b8ff" d="M378.79,-165.34C388.71,-157.57 403.26,-146.17 415.11,-136.9"/>
<polygon fill="#63b8ff" stroke="#63b8ff" points="416.98,-139.88 422.69,-130.96 412.66,-134.37 416.98,-139.88"/>
</a>
</g>
</g>
<!-- Node11 -->
<g id="Node000011" class="node">
<title>Node11</title>
<g id="a_Node000011"><a xlink:title=" ">
<polygon fill="#e0e0e0" stroke="#999999" points="534.25,-129.75 476.25,-129.75 476.25,-110.5 534.25,-110.5 534.25,-129.75"/>
<text text-anchor="middle" x="505.25" y="-116.25" font-family="Helvetica,sans-Serif" font-size="10.00">TObject.h</text>
</a>
</g>
</g>
<!-- Node2&#45;&gt;Node11 -->
<g id="edge10_Node000002_Node000011" class="edge">
<title>Node2&#45;&gt;Node11</title>
<g id="a_edge10_Node000002_Node000011"><a xlink:title=" ">
<path fill="none" stroke="#63b8ff" d="M390.66,-165.34C412.77,-156.81 446.17,-143.92 471.22,-134.26"/>
<polygon fill="#63b8ff" stroke="#63b8ff" points="472.24,-137.61 480.31,-130.75 469.72,-131.08 472.24,-137.61"/>
</a>
</g>
</g>
<!-- Node12 -->
<g id="Node000012" class="node">
<title>Node12</title>
<g id="a_Node000012"><a xlink:title=" ">
<polygon fill="#e0e0e0" stroke="#999999" points="609.88,-129.75 552.62,-129.75 552.62,-110.5 609.88,-110.5 609.88,-129.75"/>
<text text-anchor="middle" x="581.25" y="-116.25" font-family="Helvetica,sans-Serif" font-size="10.00">TROOT.h</text>
</a>
</g>
</g>
<!-- Node2&#45;&gt;Node12 -->
<g id="edge11_Node000002_Node000012" class="edge">
<title>Node2&#45;&gt;Node12</title>
<g id="a_edge11_Node000002_Node000012"><a xlink:title=" ">
<path fill="none" stroke="#63b8ff" d="M399.75,-166.29C437.61,-156.87 500.18,-141.3 541.06,-131.13"/>
<polygon fill="#63b8ff" stroke="#63b8ff" points="541.9,-134.52 550.76,-128.71 540.21,-127.73 541.9,-134.52"/>
</a>
</g>
</g>
<!-- Node13 -->
<g id="Node000013" class="node">
<title>Node13</title>
<g id="a_Node000013"><a xlink:title=" ">
<polygon fill="#e0e0e0" stroke="#999999" points="676.75,-129.75 627.75,-129.75 627.75,-110.5 676.75,-110.5 676.75,-129.75"/>
<text text-anchor="middle" x="652.25" y="-116.25" font-family="Helvetica,sans-Serif" font-size="10.00">TTree.h</text>
</a>
</g>
</g>
<!-- Node2&#45;&gt;Node13 -->
<g id="edge12_Node000002_Node000013" class="edge">
<title>Node2&#45;&gt;Node13</title>
<g id="a_edge12_Node000002_Node000013"><a xlink:title=" ">
<path fill="none" stroke="#63b8ff" d="M400.04,-169.43C446.2,-162.28 533.23,-148.13 616.28,-130.27"/>
<polygon fill="#63b8ff" stroke="#63b8ff" points="616.93,-133.71 625.96,-128.16 615.44,-126.87 616.93,-133.71"/>
</a>
</g>
</g>
<!-- Node14 -->
<g id="Node000014" class="node">
<title>Node14</title>
<g id="a_Node000014"><a xlink:title=" ">
<polygon fill="#e0e0e0" stroke="#999999" points="780.12,-129.75 694.38,-129.75 694.38,-110.5 780.12,-110.5 780.12,-129.75"/>
<text text-anchor="middle" x="737.25" y="-116.25" font-family="Helvetica,sans-Serif" font-size="10.00">inih/INIReader.h</text>
</a>
</g>
</g>
<!-- Node2&#45;&gt;Node14 -->
<g id="edge13_Node000002_Node000014" class="edge">
<title>Node2&#45;&gt;Node14</title>
<g id="a_edge13_Node000002_Node000014"><a xlink:title=" ">
<path fill="none" stroke="#63b8ff" d="M399.79,-170.08C455.49,-162.67 572.96,-146.79 682.84,-130.09"/>
<polygon fill="#63b8ff" stroke="#63b8ff" points="683.28,-133.56 692.64,-128.59 682.22,-126.64 683.28,-133.56"/>
</a>
</g>
</g>
<!-- Node15 -->
<g id="Node000015" class="node">
<title>Node15</title>
<g id="a_Node000015"><a xlink:href="../../d2/d9e/_exp_defn_8tt.html" target="_top" xlink:title=" ">
<polygon fill="white" stroke="#666666" points="858.38,-129.75 798.12,-129.75 798.12,-110.5 858.38,-110.5 858.38,-129.75"/>
<text text-anchor="middle" x="828.25" y="-116.25" font-family="Helvetica,sans-Serif" font-size="10.00">ExpDefn.tt</text>
</a>
</g>
</g>
<!-- Node2&#45;&gt;Node15 -->
<g id="edge14_Node000002_Node000015" class="edge">
<title>Node2&#45;&gt;Node15</title>
<g id="a_edge14_Node000002_Node000015"><a xlink:title=" ">
<path fill="none" stroke="#63b8ff" d="M399.98,-172.17C469.39,-167.23 636.66,-153.91 786.45,-130.04"/>
<polygon fill="#63b8ff" stroke="#63b8ff" points="786.85,-133.52 796.16,-128.47 785.73,-126.61 786.85,-133.52"/>
</a>
</g>
</g>
<!-- Node16 -->
<g id="Node000016" class="node">
<title>Node16</title>
<g id="a_Node000016"><a xlink:title=" ">
<polygon fill="#e0e0e0" stroke="#999999" points="496.88,-74.5 451.62,-74.5 451.62,-55.25 496.88,-55.25 496.88,-74.5"/>
<text text-anchor="middle" x="474.25" y="-61" font-family="Helvetica,sans-Serif" font-size="10.00">cstring</text>
</a>
</g>
</g>
<!-- Node15&#45;&gt;Node16 -->
<g id="edge15_Node000015_Node000016" class="edge">
<title>Node15&#45;&gt;Node16</title>
<g id="a_edge15_Node000015_Node000016"><a xlink:title=" ">
<path fill="none" stroke="#63b8ff" d="M797.65,-112.08C794.81,-111.51 791.98,-110.97 789.25,-110.5 667.44,-89.36 631.97,-99.03 508.23,-74.86"/>
<polygon fill="#63b8ff" stroke="#63b8ff" points="509.16,-71.47 498.67,-72.95 507.79,-78.34 509.16,-71.47"/>
</a>
</g>
</g>
<!-- Node17 -->
<g id="Node000017" class="node">
<title>Node17</title>
<g id="a_Node000017"><a xlink:title=" ">
<polygon fill="#e0e0e0" stroke="#999999" points="563.75,-74.5 514.75,-74.5 514.75,-55.25 563.75,-55.25 563.75,-74.5"/>
<text text-anchor="middle" x="539.25" y="-61" font-family="Helvetica,sans-Serif" font-size="10.00">fstream</text>
</a>
</g>
</g>
<!-- Node15&#45;&gt;Node17 -->
<g id="edge16_Node000015_Node000017" class="edge">
<title>Node15&#45;&gt;Node17</title>
<g id="a_edge16_Node000015_Node000017"><a xlink:title=" ">
<path fill="none" stroke="#63b8ff" d="M797.63,-112.19C794.8,-111.6 791.97,-111.03 789.25,-110.5 696.83,-92.63 669.85,-94.69 575.3,-75"/>
<polygon fill="#63b8ff" stroke="#63b8ff" points="576.05,-71.58 565.54,-72.93 574.6,-78.42 576.05,-71.58"/>
</a>
</g>
</g>
<!-- Node18 -->
<g id="Node000018" class="node">
<title>Node18</title>
<g id="a_Node000018"><a xlink:title=" ">
<polygon fill="#e0e0e0" stroke="#999999" points="635,-74.5 581.5,-74.5 581.5,-55.25 635,-55.25 635,-74.5"/>
<text text-anchor="middle" x="608.25" y="-61" font-family="Helvetica,sans-Serif" font-size="10.00">iostream</text>
</a>
</g>
</g>
<!-- Node15&#45;&gt;Node18 -->
<g id="edge17_Node000015_Node000018" class="edge">
<title>Node15&#45;&gt;Node18</title>
<g id="a_edge17_Node000015_Node000018"><a xlink:title=" ">
<path fill="none" stroke="#63b8ff" d="M797.79,-111.83C763.27,-103.54 705,-89.53 646.33,-75.24"/>
<polygon fill="#63b8ff" stroke="#63b8ff" points="647.39,-71.9 636.85,-72.93 645.74,-78.7 647.39,-71.9"/>
</a>
</g>
</g>
<!-- Node19 -->
<g id="Node000019" class="node">
<title>Node19</title>
<g id="a_Node000019"><a xlink:title=" ">
<polygon fill="#e0e0e0" stroke="#999999" points="703.88,-74.5 652.62,-74.5 652.62,-55.25 703.88,-55.25 703.88,-74.5"/>
<text text-anchor="middle" x="678.25" y="-61" font-family="Helvetica,sans-Serif" font-size="10.00">sstream</text>
</a>
</g>
</g>
<!-- Node15&#45;&gt;Node19 -->
<g id="edge18_Node000015_Node000019" class="edge">
<title>Node15&#45;&gt;Node19</title>
<g id="a_edge18_Node000015_Node000019"><a xlink:title=" ">
<path fill="none" stroke="#63b8ff" d="M802.8,-110.09C778.56,-101.49 741.82,-88.44 714.51,-78.75"/>
<polygon fill="#63b8ff" stroke="#63b8ff" points="715.84,-75.51 705.25,-75.46 713.5,-82.1 715.84,-75.51"/>
</a>
</g>
</g>
<!-- Node20 -->
<g id="Node000020" class="node">
<title>Node20</title>
<g id="a_Node000020"><a xlink:title=" ">
<polygon fill="#e0e0e0" stroke="#999999" points="780.25,-74.5 722.25,-74.5 722.25,-55.25 780.25,-55.25 780.25,-74.5"/>
<text text-anchor="middle" x="751.25" y="-61" font-family="Helvetica,sans-Serif" font-size="10.00">stdexcept</text>
</a>
</g>
</g>
<!-- Node15&#45;&gt;Node20 -->
<g id="edge19_Node000015_Node000020" class="edge">
<title>Node15&#45;&gt;Node20</title>
<g id="a_edge19_Node000015_Node000020"><a xlink:title=" ">
<path fill="none" stroke="#63b8ff" d="M815.19,-110.09C803.79,-102.21 787.02,-90.61 773.51,-81.27"/>
<polygon fill="#63b8ff" stroke="#63b8ff" points="775.84,-78.62 765.62,-75.81 771.85,-84.38 775.84,-78.62"/>
</a>
</g>
</g>
<!-- Node21 -->
<g id="Node000021" class="node">
<title>Node21</title>
<g id="a_Node000021"><a xlink:title=" ">
<polygon fill="#e0e0e0" stroke="#999999" points="858,-74.5 798.5,-74.5 798.5,-55.25 858,-55.25 858,-74.5"/>
<text text-anchor="middle" x="828.25" y="-61" font-family="Helvetica,sans-Serif" font-size="10.00">streambuf</text>
</a>
</g>
</g>
<!-- Node15&#45;&gt;Node21 -->
<g id="edge20_Node000015_Node000021" class="edge">
<title>Node15&#45;&gt;Node21</title>
<g id="a_edge20_Node000015_Node000021"><a xlink:title=" ">
<path fill="none" stroke="#63b8ff" d="M828.25,-110.33C828.25,-103.82 828.25,-94.67 828.25,-86.37"/>
<polygon fill="#63b8ff" stroke="#63b8ff" points="831.75,-86.37 828.25,-76.37 824.75,-86.37 831.75,-86.37"/>
</a>
</g>
</g>
<!-- Node22 -->
<g id="Node000022" class="node">
<title>Node22</title>
<g id="a_Node000022"><a xlink:title=" ">
<polygon fill="#e0e0e0" stroke="#999999" points="962.5,-74.5 876,-74.5 876,-55.25 962.5,-55.25 962.5,-74.5"/>
<text text-anchor="middle" x="919.25" y="-61" font-family="Helvetica,sans-Serif" font-size="10.00">ROOT/TSeq.hxx</text>
</a>
</g>
</g>
<!-- Node15&#45;&gt;Node22 -->
<g id="edge21_Node000015_Node000022" class="edge">
<title>Node15&#45;&gt;Node22</title>
<g id="a_edge21_Node000015_Node000022"><a xlink:title=" ">
<path fill="none" stroke="#63b8ff" d="M843.69,-110.09C857.41,-102.06 877.75,-90.16 893.87,-80.73"/>
<polygon fill="#63b8ff" stroke="#63b8ff" points="895.57,-83.79 902.43,-75.72 892.03,-77.75 895.57,-83.79"/>
</a>
</g>
</g>
<!-- Node23 -->
<g id="Node000023" class="node">
<title>Node23</title>
<g id="a_Node000023"><a xlink:title=" ">
<polygon fill="#e0e0e0" stroke="#999999" points="1041.75,-74.5 980.75,-74.5 980.75,-55.25 1041.75,-55.25 1041.75,-74.5"/>
<text text-anchor="middle" x="1011.25" y="-61" font-family="Helvetica,sans-Serif" font-size="10.00">TNamed.h</text>
</a>
</g>
</g>
<!-- Node15&#45;&gt;Node23 -->
<g id="edge22_Node000015_Node000023" class="edge">
<title>Node15&#45;&gt;Node23</title>
<g id="a_edge22_Node000015_Node000023"><a xlink:title=" ">
<path fill="none" stroke="#63b8ff" d="M858.47,-110.33C888.75,-101.52 935.6,-87.89 969.44,-78.04"/>
<polygon fill="#63b8ff" stroke="#63b8ff" points="970.3,-81.44 978.92,-75.28 968.34,-74.72 970.3,-81.44"/>
</a>
</g>
</g>
<!-- Node24 -->
<g id="Node000024" class="node">
<title>Node24</title>
<g id="a_Node000024"><a xlink:href="../../d6/def/_r_t_t_i_8hh.html" target="_top" xlink:title=" ">
<polygon fill="white" stroke="#666666" points="1228,-74.5 1156.5,-74.5 1156.5,-55.25 1228,-55.25 1228,-74.5"/>
<text text-anchor="middle" x="1192.25" y="-61" font-family="Helvetica,sans-Serif" font-size="10.00">utils/RTTI.hh</text>
</a>
</g>
</g>
<!-- Node15&#45;&gt;Node24 -->
<g id="edge23_Node000015_Node000024" class="edge">
<title>Node15&#45;&gt;Node24</title>
<g id="a_edge23_Node000015_Node000024"><a xlink:title=" ">
<path fill="none" stroke="#63b8ff" d="M858.78,-115.44C913.96,-108.64 1034.23,-93.29 1145.21,-74.94"/>
<polygon fill="#63b8ff" stroke="#63b8ff" points="1145.48,-78.44 1154.77,-73.35 1144.33,-71.54 1145.48,-78.44"/>
</a>
</g>
</g>
<!-- Node26 -->
<g id="Node000026" class="node">
<title>Node26</title>
<g id="a_Node000026"><a xlink:href="../../d8/dfe/_tuples_8hh.html" target="_top" xlink:title=" ">
<polygon fill="white" stroke="#666666" points="1138.75,-74.5 1059.75,-74.5 1059.75,-55.25 1138.75,-55.25 1138.75,-74.5"/>
<text text-anchor="middle" x="1099.25" y="-61" font-family="Helvetica,sans-Serif" font-size="10.00">utils/Tuples.hh</text>
</a>
</g>
</g>
<!-- Node15&#45;&gt;Node26 -->
<g id="edge25_Node000015_Node000026" class="edge">
<title>Node15&#45;&gt;Node26</title>
<g id="a_edge25_Node000015_Node000026"><a xlink:title=" ">
<path fill="none" stroke="#63b8ff" d="M858.81,-113.12C904.91,-104.06 992.78,-86.8 1048.56,-75.83"/>
<polygon fill="#63b8ff" stroke="#63b8ff" points="1048.99,-79.32 1058.13,-73.96 1047.64,-72.45 1048.99,-79.32"/>
</a>
</g>
</g>
<!-- Node25 -->
<g id="Node000025" class="node">
<title>Node25</title>
<g id="a_Node000025"><a xlink:title=" ">
<polygon fill="#e0e0e0" stroke="#999999" points="1217.5,-19.25 1167,-19.25 1167,0 1217.5,0 1217.5,-19.25"/>
<text text-anchor="middle" x="1192.25" y="-5.75" font-family="Helvetica,sans-Serif" font-size="10.00">cxxabi.h</text>
</a>
</g>
</g>
<!-- Node24&#45;&gt;Node25 -->
<g id="edge24_Node000024_Node000025" class="edge">
<title>Node24&#45;&gt;Node25</title>
<g id="a_edge24_Node000024_Node000025"><a xlink:title=" ">
<path fill="none" stroke="#63b8ff" d="M1192.25,-55.08C1192.25,-48.57 1192.25,-39.42 1192.25,-31.12"/>
<polygon fill="#63b8ff" stroke="#63b8ff" points="1195.75,-31.12 1192.25,-21.12 1188.75,-31.12 1195.75,-31.12"/>
</a>
</g>
</g>
<!-- Node26&#45;&gt;Node7 -->
<g id="edge26_Node000026_Node000007" class="edge">
<title>Node26&#45;&gt;Node7</title>
<g id="a_edge26_Node000026_Node000007"><a xlink:title=" ">
<path fill="none" stroke="#63b8ff" d="M1059.43,-56.68C1056.33,-56.17 1053.24,-55.69 1050.25,-55.25 922.29,-36.39 768.84,-20.1 705.19,-13.61"/>
<polygon fill="#63b8ff" stroke="#63b8ff" points="705.84,-10.16 695.53,-12.64 705.13,-17.13 705.84,-10.16"/>
</a>
</g>
</g>
</g>
</svg>
