<?xml version="1.0" encoding="UTF-8" standalone="no"?>
<!DOCTYPE svg PUBLIC "-//W3C//DTD SVG 1.1//EN"
 "http://www.w3.org/Graphics/SVG/1.1/DTD/svg11.dtd">
<!-- Generated by graphviz version 6.0.2 (20221011.1828)
 -->
<!-- Title: gx Pages: 1 -->
<svg width="338pt" height="27pt"
 viewBox="0.00 0.00 338.00 27.00" xmlns="http://www.w3.org/2000/svg" xmlns:xlink="http://www.w3.org/1999/xlink">
<g id="graph0" class="graph" transform="scale(1 1) rotate(0) translate(4 23)">
<title>gx</title>
<!-- Node1 -->
<g id="node1" class="node">
<title>Node1</title>
<g id="a_node1"><a xlink:title=" ">
<polygon fill="#999999" stroke="#666666" points="29,-19 0,-19 0,0 29,0 29,-19"/>
<text text-anchor="middle" x="14.5" y="-7" font-family="Helvetica,sans-Serif" font-size="10.00">gx</text>
</a>
</g>
</g>
<!-- Node2 -->
<g id="node2" class="node">
<title>Node2</title>
<g id="a_node2"><a xlink:href="../../dc/d89/namespace_gam_r_1_1_spect.html#afc1d3c98f1aa4fdc052b238ab931a9f9" target="_top" xlink:title=" ">
<polygon fill="white" stroke="#666666" points="172,-19 65,-19 65,0 172,0 172,-19"/>
<text text-anchor="middle" x="118.5" y="-7" font-family="Helvetica,sans-Serif" font-size="10.00">GamR::Spect::GateX</text>
</a>
</g>
</g>
<!-- Node1&#45;&gt;Node2 -->
<g id="edge1" class="edge">
<title>Node1&#45;&gt;Node2</title>
<path fill="none" stroke="#63b8ff" d="M29.26,-9.5C36.2,-9.5 45.16,-9.5 54.71,-9.5"/>
<polygon fill="#63b8ff" stroke="#63b8ff" points="54.81,-13 64.81,-9.5 54.81,-6 54.81,-13"/>
</g>
<!-- Node3 -->
<g id="node3" class="node">
<title>Node3</title>
<g id="a_node3"><a xlink:href="../../d0/d74/group___t_k.html#ga6a034a8dfa2c1699aabb9e4111d79cbf" target="_top" xlink:title=" ">
<polygon fill="white" stroke="#666666" points="330,-19 208,-19 208,0 330,0 330,-19"/>
<text text-anchor="middle" x="269" y="-7" font-family="Helvetica,sans-Serif" font-size="10.00">GamR::TK::Gate::ApplyX</text>
</a>
</g>
</g>
<!-- Node2&#45;&gt;Node3 -->
<g id="edge2" class="edge">
<title>Node2&#45;&gt;Node3</title>
<path fill="none" stroke="#63b8ff" d="M172.27,-9.5C180.54,-9.5 189.2,-9.5 197.79,-9.5"/>
<polygon fill="#63b8ff" stroke="#63b8ff" points="197.8,-13 207.8,-9.5 197.8,-6 197.8,-13"/>
</g>
</g>
</svg>
