<?xml version="1.0" encoding="UTF-8" standalone="no"?>
<!DOCTYPE svg PUBLIC "-//W3C//DTD SVG 1.1//EN"
 "http://www.w3.org/Graphics/SVG/1.1/DTD/svg11.dtd">
<!-- Generated by graphviz version 12.2.1 (20241206.2353)
 -->
<!-- Title: ss Pages: 1 -->
<svg width="500pt" height="1519pt"
 viewBox="0.00 0.00 499.55 1518.88" xmlns="http://www.w3.org/2000/svg" xmlns:xlink="http://www.w3.org/1999/xlink">
<g id="page0,1_graph0" class="graph" transform="scale(1 1) rotate(0) translate(4 1514.88)">
<title>ss</title>
<!-- Node1 -->
<g id="Node000001" class="node">
<title>Node1</title>
<g id="a_Node000001"><a xlink:title=" ">
<polygon fill="#999999" stroke="#666666" points="491.55,-763.25 462.75,-763.25 462.75,-744 491.55,-744 491.55,-763.25"/>
<text text-anchor="middle" x="477.15" y="-749.75" font-family="Helvetica,sans-Serif" font-size="10.00">ss</text>
</a>
</g>
</g>
<!-- Node2 -->
<g id="Node000002" class="node">
<title>Node2</title>
<g id="a_Node000002"><a xlink:href="../../d3/d6c/class_gam_r_1_1_sort_1_1_type_1_1_gated_time_difference.html#a044c4c6493ecba6989b7e92b36da6ddc" target="_top" xlink:title=" ">
<polygon fill="white" stroke="#666666" points="423.75,-1510.88 268.25,-1510.88 268.25,-1480.38 423.75,-1480.38 423.75,-1510.88"/>
<text text-anchor="start" x="276.25" y="-1497.38" font-family="Helvetica,sans-Serif" font-size="10.00">GamR::Sort::Type::GatedTime</text>
<text text-anchor="middle" x="346" y="-1486.12" font-family="Helvetica,sans-Serif" font-size="10.00">Difference::GatedTimeDifference</text>
</a>
</g>
</g>
<!-- Node1&#45;&gt;Node2 -->
<g id="edge1_Node000001_Node000002" class="edge">
<title>Node1&#45;&gt;Node2</title>
<g id="a_edge1_Node000001_Node000002"><a xlink:title=" ">
<path fill="none" stroke="#63b8ff" d="M476.09,-775.16C475.58,-888.69 470.84,-1414.73 426.75,-1470.62 423.87,-1474.27 420.47,-1477.4 416.72,-1480.07"/>
<polygon fill="#63b8ff" stroke="#63b8ff" points="479.59,-775.19 476.13,-765.18 472.59,-775.17 479.59,-775.19"/>
</a>
</g>
</g>
<!-- Node3 -->
<g id="Node000003" class="node">
<title>Node3</title>
<g id="a_Node000003"><a xlink:href="../../d1/da3/class_gam_r_1_1_sort_1_1_type_1_1_matrix.html#a00e6aa66c1c3b6a8a75dba762085c610" target="_top" xlink:title=" ">
<polygon fill="white" stroke="#666666" points="407.25,-1461.88 284.75,-1461.88 284.75,-1431.38 407.25,-1431.38 407.25,-1461.88"/>
<text text-anchor="start" x="292.75" y="-1448.38" font-family="Helvetica,sans-Serif" font-size="10.00">GamR::Sort::Type::Matrix</text>
<text text-anchor="middle" x="346" y="-1437.12" font-family="Helvetica,sans-Serif" font-size="10.00">::Matrix</text>
</a>
</g>
</g>
<!-- Node1&#45;&gt;Node3 -->
<g id="edge2_Node000001_Node000003" class="edge">
<title>Node1&#45;&gt;Node3</title>
<g id="a_edge2_Node000001_Node000003"><a xlink:title=" ">
<path fill="none" stroke="#63b8ff" d="M475.97,-775.03C474.9,-883.56 467.8,-1369.86 426.75,-1421.62 421.7,-1427.99 415.05,-1432.77 407.73,-1436.35"/>
<polygon fill="#63b8ff" stroke="#63b8ff" points="479.47,-775.27 476.06,-765.24 472.47,-775.21 479.47,-775.27"/>
</a>
</g>
</g>
<!-- Node4 -->
<g id="Node000004" class="node">
<title>Node4</title>
<g id="a_Node000004"><a xlink:href="../../db/d1b/class_gam_r_1_1_sort_1_1_type_1_1_time_difference.html#a7cf59bfec4ee14f850901a3d1fbe7103" target="_top" xlink:title=" ">
<polygon fill="white" stroke="#666666" points="426.75,-1412.88 265.25,-1412.88 265.25,-1382.38 426.75,-1382.38 426.75,-1412.88"/>
<text text-anchor="start" x="273.25" y="-1399.38" font-family="Helvetica,sans-Serif" font-size="10.00">GamR::Sort::Type::TimeDifference</text>
<text text-anchor="middle" x="346" y="-1388.12" font-family="Helvetica,sans-Serif" font-size="10.00">::TimeDifference</text>
</a>
</g>
</g>
<!-- Node1&#45;&gt;Node4 -->
<g id="edge3_Node000001_Node000004" class="edge">
<title>Node1&#45;&gt;Node4</title>
<g id="a_edge3_Node000001_Node000004"><a xlink:title=" ">
<path fill="none" stroke="#63b8ff" d="M475.85,-774.73C474.18,-877.78 464.79,-1324.94 426.75,-1372.62 423.85,-1376.25 420.44,-1379.37 416.67,-1382.04"/>
<polygon fill="#63b8ff" stroke="#63b8ff" points="479.34,-775.02 476,-764.97 472.34,-774.92 479.34,-775.02"/>
</a>
</g>
</g>
<!-- Node5 -->
<g id="Node000005" class="node">
<title>Node5</title>
<g id="a_Node000005"><a xlink:href="../../d7/d5f/class_gam_r_1_1_sort_1_1_type_1_1_time_difference_pairs.html#af4ef18d212f6e817fc857b1b460b7e1a" target="_top" xlink:title=" ">
<polygon fill="white" stroke="#666666" points="426.75,-1363.88 265.25,-1363.88 265.25,-1333.38 426.75,-1333.38 426.75,-1363.88"/>
<text text-anchor="start" x="273.25" y="-1350.38" font-family="Helvetica,sans-Serif" font-size="10.00">GamR::Sort::Type::TimeDifference</text>
<text text-anchor="middle" x="346" y="-1339.12" font-family="Helvetica,sans-Serif" font-size="10.00">Pairs::TimeDifferencePairs</text>
</a>
</g>
</g>
<!-- Node1&#45;&gt;Node5 -->
<g id="edge4_Node000001_Node000005" class="edge">
<title>Node1&#45;&gt;Node5</title>
<g id="a_edge4_Node000001_Node000005"><a xlink:title=" ">
<path fill="none" stroke="#63b8ff" d="M475.69,-774.89C473.37,-873.12 461.73,-1280.08 426.75,-1323.62 423.84,-1327.24 420.42,-1330.35 416.64,-1333.01"/>
<polygon fill="#63b8ff" stroke="#63b8ff" points="479.18,-775.17 475.91,-765.1 472.18,-775.02 479.18,-775.17"/>
</a>
</g>
</g>
<!-- Node6 -->
<g id="Node000006" class="node">
<title>Node6</title>
<g id="a_Node000006"><a xlink:href="../../df/d01/class_gam_r_1_1_sort_1_1_type_1_1_time_walk_cal.html#a178824712e938d37a02d75e23ceae6c9" target="_top" xlink:title=" ">
<polygon fill="white" stroke="#666666" points="415.88,-1314.88 276.12,-1314.88 276.12,-1284.38 415.88,-1284.38 415.88,-1314.88"/>
<text text-anchor="start" x="284.12" y="-1301.38" font-family="Helvetica,sans-Serif" font-size="10.00">GamR::Sort::Type::TimeWalk</text>
<text text-anchor="middle" x="346" y="-1290.12" font-family="Helvetica,sans-Serif" font-size="10.00">Cal::TimeWalkCal</text>
</a>
</g>
</g>
<!-- Node1&#45;&gt;Node6 -->
<g id="edge5_Node000001_Node000006" class="edge">
<title>Node1&#45;&gt;Node6</title>
<g id="a_edge5_Node000001_Node000006"><a xlink:title=" ">
<path fill="none" stroke="#63b8ff" d="M475.52,-774.84C472.59,-867.8 458.98,-1236.28 426.75,-1275.62 423.73,-1279.32 420.16,-1282.45 416.23,-1285.12"/>
<polygon fill="#63b8ff" stroke="#63b8ff" points="479.01,-775.23 475.82,-765.13 472.01,-775.02 479.01,-775.23"/>
</a>
</g>
</g>
<!-- Node7 -->
<g id="Node000007" class="node">
<title>Node7</title>
<g id="a_Node000007"><a xlink:href="../../dc/d89/namespace_gam_r_1_1_spect.html#ae54298fd5ef07073ff03ad06e3d4febe" target="_top" xlink:title=" ">
<polygon fill="white" stroke="#666666" points="413.25,-1266.25 278.75,-1266.25 278.75,-1247 413.25,-1247 413.25,-1266.25"/>
<text text-anchor="middle" x="346" y="-1252.75" font-family="Helvetica,sans-Serif" font-size="10.00">GamR::Spect::CutFromText</text>
</a>
</g>
</g>
<!-- Node1&#45;&gt;Node7 -->
<g id="edge6_Node000001_Node000007" class="edge">
<title>Node1&#45;&gt;Node7</title>
<g id="a_edge6_Node000001_Node000007"><a xlink:title=" ">
<path fill="none" stroke="#63b8ff" d="M475.32,-775.01C471.73,-863.36 456.29,-1196.88 426.75,-1232.62 421.78,-1238.64 415.35,-1243.19 408.31,-1246.62"/>
<polygon fill="#63b8ff" stroke="#63b8ff" points="478.82,-775.26 475.72,-765.13 471.82,-774.99 478.82,-775.26"/>
</a>
</g>
</g>
<!-- Node8 -->
<g id="Node000008" class="node">
<title>Node8</title>
<g id="a_Node000008"><a xlink:href="../../d3/d48/class_gam_r_1_1_processor_1_1_time_walk.html#a0b862c355e247c0e71d9e40e821c7cfe" target="_top" xlink:title="Draws Time Walk graphs.">
<polygon fill="white" stroke="#666666" points="416.25,-1190.88 275.75,-1190.88 275.75,-1160.38 416.25,-1160.38 416.25,-1190.88"/>
<text text-anchor="start" x="283.75" y="-1177.38" font-family="Helvetica,sans-Serif" font-size="10.00">GamR::Processor::TimeWalk</text>
<text text-anchor="middle" x="346" y="-1166.12" font-family="Helvetica,sans-Serif" font-size="10.00">::Draw</text>
</a>
</g>
</g>
<!-- Node1&#45;&gt;Node8 -->
<g id="edge7_Node000001_Node000008" class="edge">
<title>Node1&#45;&gt;Node8</title>
<g id="a_edge7_Node000001_Node000008"><a xlink:title=" ">
<path fill="none" stroke="#63b8ff" d="M476.3,-774.65C476.41,-847.59 473.18,-1088.44 426.75,-1146.62 422.43,-1152.04 417.01,-1156.44 411.04,-1160.02"/>
<polygon fill="#63b8ff" stroke="#63b8ff" points="479.8,-774.9 476.26,-764.92 472.8,-774.93 479.8,-774.9"/>
</a>
</g>
</g>
<!-- Node9 -->
<g id="Node000009" class="node">
<title>Node9</title>
<g id="a_Node000009"><a xlink:href="../../d3/d48/class_gam_r_1_1_processor_1_1_time_walk.html#aebfe1c01514fb6b756ca8362eed61dbb" target="_top" xlink:title="Conducts a global &#160;fit to solve for an absolute time calibration for each detector.">
<polygon fill="white" stroke="#666666" points="229.25,-1217.25 73,-1217.25 73,-1198 229.25,-1198 229.25,-1217.25"/>
<text text-anchor="middle" x="151.12" y="-1203.75" font-family="Helvetica,sans-Serif" font-size="10.00">GamR::Processor::TimeWalk::Fit</text>
</a>
</g>
</g>
<!-- Node1&#45;&gt;Node9 -->
<g id="edge11_Node000001_Node000009" class="edge">
<title>Node1&#45;&gt;Node9</title>
<g id="a_edge11_Node000001_Node000009"><a xlink:title=" ">
<path fill="none" stroke="#63b8ff" d="M475.4,-774.81C472.21,-859.49 458.38,-1170.46 426.75,-1199.62 399,-1225.21 300.62,-1222.22 229.53,-1216.21"/>
<polygon fill="#63b8ff" stroke="#63b8ff" points="478.9,-775.07 475.76,-764.95 471.9,-774.81 478.9,-775.07"/>
</a>
</g>
</g>
<!-- Node10 -->
<g id="Node000010" class="node">
<title>Node10</title>
<g id="a_Node000010"><a xlink:href="../../d3/d48/class_gam_r_1_1_processor_1_1_time_walk.html#a10cdc74a1e9f4a14e1c449c9712ba085" target="_top" xlink:title="Iterating through calibration peaks for each detector pair: calculate the time difference spectrum (w...">
<polygon fill="white" stroke="#666666" points="221.38,-1158.88 80.88,-1158.88 80.88,-1128.38 221.38,-1128.38 221.38,-1158.88"/>
<text text-anchor="start" x="88.88" y="-1145.38" font-family="Helvetica,sans-Serif" font-size="10.00">GamR::Processor::TimeWalk</text>
<text text-anchor="middle" x="151.12" y="-1134.12" font-family="Helvetica,sans-Serif" font-size="10.00">::MakeGraphs</text>
</a>
</g>
</g>
<!-- Node1&#45;&gt;Node10 -->
<g id="edge22_Node000001_Node000010" class="edge">
<title>Node1&#45;&gt;Node10</title>
<g id="a_edge22_Node000001_Node000010"><a xlink:title=" ">
<path fill="none" stroke="#63b8ff" d="M476.49,-774.62C477.17,-844.33 475.39,-1066.31 426.75,-1113.62 398.52,-1141.09 293.46,-1145.66 221.79,-1145.41"/>
<polygon fill="#63b8ff" stroke="#63b8ff" points="480,-774.92 476.37,-764.97 473,-775.01 480,-774.92"/>
</a>
</g>
</g>
<!-- Node11 -->
<g id="Node000011" class="node">
<title>Node11</title>
<g id="a_Node000011"><a xlink:href="../../dc/d89/namespace_gam_r_1_1_spect.html#a54c8602ace7191262719e2ca5dd8b8d6" target="_top" xlink:title=" ">
<polygon fill="white" stroke="#666666" points="403.88,-1104.25 288.12,-1104.25 288.12,-1085 403.88,-1085 403.88,-1104.25"/>
<text text-anchor="middle" x="346" y="-1090.75" font-family="Helvetica,sans-Serif" font-size="10.00">GamR::Spect::DrawCut</text>
</a>
</g>
</g>
<!-- Node1&#45;&gt;Node11 -->
<g id="edge10_Node000001_Node000011" class="edge">
<title>Node1&#45;&gt;Node11</title>
<g id="a_edge10_Node000001_Node000011"><a xlink:title=" ">
<path fill="none" stroke="#63b8ff" d="M475.91,-774.76C474.74,-839.37 467.82,-1032.57 426.75,-1076.62 420.65,-1083.17 412.73,-1087.58 404.24,-1090.51"/>
<polygon fill="#63b8ff" stroke="#63b8ff" points="479.41,-775.2 476.06,-765.15 472.41,-775.09 479.41,-775.2"/>
</a>
</g>
</g>
<!-- Node12 -->
<g id="Node000012" class="node">
<title>Node12</title>
<g id="a_Node000012"><a xlink:href="../../df/d69/class_gam_r_1_1_spect_1_1_peak_fit.html#ae142801510bb9c2c3717dbd4e568ea48" target="_top" xlink:title=" ">
<polygon fill="white" stroke="#666666" points="409.88,-1067.25 282.12,-1067.25 282.12,-1048 409.88,-1048 409.88,-1067.25"/>
<text text-anchor="middle" x="346" y="-1053.75" font-family="Helvetica,sans-Serif" font-size="10.00">GamR::Spect::PeakFit::Fit</text>
</a>
</g>
</g>
<!-- Node1&#45;&gt;Node12 -->
<g id="edge12_Node000001_Node000012" class="edge">
<title>Node1&#45;&gt;Node12</title>
<g id="a_edge12_Node000001_Node000012"><a xlink:title=" ">
<path fill="none" stroke="#63b8ff" d="M475.44,-775.01C473.01,-834.74 463.05,-1001.43 426.75,-1039.62 422.06,-1044.56 416.32,-1048.28 410.1,-1051.07"/>
<polygon fill="#63b8ff" stroke="#63b8ff" points="478.93,-775.32 475.8,-765.2 471.93,-775.06 478.93,-775.32"/>
</a>
</g>
</g>
<!-- Node14 -->
<g id="Node000014" class="node">
<title>Node14</title>
<g id="a_Node000014"><a xlink:href="../../dc/d89/namespace_gam_r_1_1_spect.html#ab6376882b1b259ab8ae15200fa9ce7c3" target="_top" xlink:title=" ">
<polygon fill="white" stroke="#666666" points="404.62,-1030.25 287.38,-1030.25 287.38,-1011 404.62,-1011 404.62,-1030.25"/>
<text text-anchor="middle" x="346" y="-1016.75" font-family="Helvetica,sans-Serif" font-size="10.00">GamR::Spect::FitPeaks</text>
</a>
</g>
</g>
<!-- Node1&#45;&gt;Node14 -->
<g id="edge14_Node000001_Node000014" class="edge">
<title>Node1&#45;&gt;Node14</title>
<g id="a_edge14_Node000001_Node000014"><a xlink:title=" ">
<path fill="none" stroke="#63b8ff" d="M474.86,-774.7C471.11,-828.71 458.42,-970.11 426.75,-1002.62 420.71,-1008.83 413.02,-1013.09 404.81,-1016"/>
<polygon fill="#63b8ff" stroke="#63b8ff" points="478.33,-775.21 475.49,-765.01 471.35,-774.76 478.33,-775.21"/>
</a>
</g>
</g>
<!-- Node15 -->
<g id="Node000015" class="node">
<title>Node15</title>
<g id="a_Node000015"><a xlink:href="../../dc/d89/namespace_gam_r_1_1_spect.html#a1c7d73831364f7c8ef9c9bbea6dd21e1" target="_top" xlink:title=" ">
<polygon fill="white" stroke="#666666" points="405.75,-993.25 286.25,-993.25 286.25,-974 405.75,-974 405.75,-993.25"/>
<text text-anchor="middle" x="346" y="-979.75" font-family="Helvetica,sans-Serif" font-size="10.00">GamR::Spect::FromText</text>
</a>
</g>
</g>
<!-- Node1&#45;&gt;Node15 -->
<g id="edge15_Node000001_Node000015" class="edge">
<title>Node1&#45;&gt;Node15</title>
<g id="a_edge15_Node000001_Node000015"><a xlink:title=" ">
<path fill="none" stroke="#63b8ff" d="M474.06,-774.72C468.86,-822.87 453.77,-938.8 426.75,-965.62 421.01,-971.33 413.87,-975.38 406.24,-978.24"/>
<polygon fill="#63b8ff" stroke="#63b8ff" points="477.51,-775.36 475.06,-765.05 470.55,-774.63 477.51,-775.36"/>
</a>
</g>
</g>
<!-- Node16 -->
<g id="Node000016" class="node">
<title>Node16</title>
<g id="a_Node000016"><a xlink:href="../../d2/d80/namespace_gam_r_1_1_t_k.html#a48505adddc15725fea02cfa4876b6783" target="_top" xlink:title=" ">
<polygon fill="white" stroke="#666666" points="417,-956.25 275,-956.25 275,-937 417,-937 417,-956.25"/>
<text text-anchor="middle" x="346" y="-942.75" font-family="Helvetica,sans-Serif" font-size="10.00">GamR::TK::GainMatchEnergy</text>
</a>
</g>
</g>
<!-- Node1&#45;&gt;Node16 -->
<g id="edge16_Node000001_Node000016" class="edge">
<title>Node1&#45;&gt;Node16</title>
<g id="a_edge16_Node000001_Node000016"><a xlink:title=" ">
<path fill="none" stroke="#63b8ff" d="M476.09,-774.98C474.81,-810.55 467.02,-882.04 426.75,-922.62 420.74,-928.68 413.27,-933.22 405.32,-936.62"/>
<polygon fill="#63b8ff" stroke="#63b8ff" points="479.59,-775.2 476.29,-765.13 472.59,-775.06 479.59,-775.2"/>
</a>
</g>
</g>
<!-- Node17 -->
<g id="Node000017" class="node">
<title>Node17</title>
<g id="a_Node000017"><a xlink:href="../../df/d34/gamrcal_8cc.html#a0ddf1224851353fc92bfbff6f499fa97" target="_top" xlink:title=" ">
<polygon fill="white" stroke="#666666" points="169.62,-937.25 132.62,-937.25 132.62,-918 169.62,-918 169.62,-937.25"/>
<text text-anchor="middle" x="151.12" y="-923.75" font-family="Helvetica,sans-Serif" font-size="10.00">main</text>
</a>
</g>
</g>
<!-- Node1&#45;&gt;Node17 -->
<g id="edge21_Node000001_Node000017" class="edge">
<title>Node1&#45;&gt;Node17</title>
<g id="a_edge21_Node000001_Node000017"><a xlink:title=" ">
<path fill="none" stroke="#63b8ff" d="M474.98,-774.82C472.08,-805.35 461.96,-861.16 426.75,-889.62 386.98,-921.78 224.01,-926.74 169.77,-927.49"/>
<polygon fill="#63b8ff" stroke="#63b8ff" points="478.47,-775.18 475.72,-764.95 471.48,-774.66 478.47,-775.18"/>
</a>
</g>
</g>
<!-- Node18 -->
<g id="Node000018" class="node">
<title>Node18</title>
<g id="a_Node000018"><a xlink:href="../../d6/dc2/namespace_gam_r_1_1_o_r_n_l.html#aa025a5ef5e8093613423856223cdd3c0" target="_top" xlink:title=" ">
<polygon fill="white" stroke="#666666" points="403.5,-880.25 288.5,-880.25 288.5,-861 403.5,-861 403.5,-880.25"/>
<text text-anchor="middle" x="346" y="-866.75" font-family="Helvetica,sans-Serif" font-size="10.00">GamR::ORNL::his2root</text>
</a>
</g>
</g>
<!-- Node1&#45;&gt;Node18 -->
<g id="edge18_Node000001_Node000018" class="edge">
<title>Node1&#45;&gt;Node18</title>
<g id="a_edge18_Node000001_Node000018"><a xlink:title=" ">
<path fill="none" stroke="#63b8ff" d="M471.16,-774.77C464.73,-797.25 451.34,-832.19 426.75,-851.62 420.05,-856.92 412.11,-860.78 403.88,-863.58"/>
<polygon fill="#63b8ff" stroke="#63b8ff" points="474.51,-775.77 473.65,-765.21 467.74,-774 474.51,-775.77"/>
</a>
</g>
</g>
<!-- Node19 -->
<g id="Node000019" class="node">
<title>Node19</title>
<g id="a_Node000019"><a xlink:href="../../d1/d1e/class_gam_r_1_1_tree_1_1_t_exp_defn.html#a1fbfc310eec282ac4ff33b6117de967f" target="_top" xlink:title=" ">
<polygon fill="white" stroke="#666666" points="403.12,-842.88 288.88,-842.88 288.88,-812.38 403.12,-812.38 403.12,-842.88"/>
<text text-anchor="start" x="296.88" y="-829.38" font-family="Helvetica,sans-Serif" font-size="10.00">GamR::Tree::TExpDefn</text>
<text text-anchor="middle" x="346" y="-818.12" font-family="Helvetica,sans-Serif" font-size="10.00">::Load</text>
</a>
</g>
</g>
<!-- Node1&#45;&gt;Node19 -->
<g id="edge19_Node000001_Node000019" class="edge">
<title>Node1&#45;&gt;Node19</title>
<g id="a_edge19_Node000001_Node000019"><a xlink:title=" ">
<path fill="none" stroke="#63b8ff" d="M461.19,-772.36C452.17,-782.56 439.9,-794.7 426.75,-802.62 419.54,-806.97 411.51,-810.63 403.39,-813.69"/>
<polygon fill="#63b8ff" stroke="#63b8ff" points="463.74,-774.75 467.52,-764.85 458.39,-770.24 463.74,-774.75"/>
</a>
</g>
</g>
<!-- Node20 -->
<g id="Node000020" class="node">
<title>Node20</title>
<g id="a_Node000020"><a xlink:href="../../d1/d1e/class_gam_r_1_1_tree_1_1_t_exp_defn.html#ad18875e3efcf669c9f8e90a8446da366" target="_top" xlink:title=" ">
<polygon fill="white" stroke="#666666" points="403.12,-793.88 288.88,-793.88 288.88,-763.38 403.12,-763.38 403.12,-793.88"/>
<text text-anchor="start" x="296.88" y="-780.38" font-family="Helvetica,sans-Serif" font-size="10.00">GamR::Tree::TExpDefn</text>
<text text-anchor="middle" x="346" y="-769.12" font-family="Helvetica,sans-Serif" font-size="10.00">::LoadRaw</text>
</a>
</g>
</g>
<!-- Node1&#45;&gt;Node20 -->
<g id="edge20_Node000001_Node000020" class="edge">
<title>Node1&#45;&gt;Node20</title>
<g id="a_edge20_Node000001_Node000020"><a xlink:title=" ">
<path fill="none" stroke="#63b8ff" d="M451.03,-758.49C437.42,-761.12 420.03,-764.49 403.38,-767.71"/>
<polygon fill="#63b8ff" stroke="#63b8ff" points="451.69,-761.92 460.84,-756.59 450.36,-755.05 451.69,-761.92"/>
</a>
</g>
</g>
<!-- Node21 -->
<g id="Node000021" class="node">
<title>Node21</title>
<g id="a_Node000021"><a xlink:href="../../dd/dff/struct_gam_r_1_1_tree_1_1_t_exp_defn_1_1_fill_det_defns.html#aea024937d7259d74710f12d60575cac4" target="_top" xlink:title=" ">
<polygon fill="white" stroke="#666666" points="405.75,-744.88 286.25,-744.88 286.25,-714.38 405.75,-714.38 405.75,-744.88"/>
<text text-anchor="start" x="294.25" y="-731.38" font-family="Helvetica,sans-Serif" font-size="10.00">GamR::Tree::TExpDefn</text>
<text text-anchor="middle" x="346" y="-720.12" font-family="Helvetica,sans-Serif" font-size="10.00">::FillDetDefns::operator()</text>
</a>
</g>
</g>
<!-- Node1&#45;&gt;Node21 -->
<g id="edge23_Node000001_Node000021" class="edge">
<title>Node1&#45;&gt;Node21</title>
<g id="a_edge23_Node000001_Node000021"><a xlink:title=" ">
<path fill="none" stroke="#63b8ff" d="M451.15,-748.98C438.26,-746.58 421.94,-743.55 406.08,-740.6"/>
<polygon fill="#63b8ff" stroke="#63b8ff" points="450.37,-752.39 460.84,-750.78 451.65,-745.51 450.37,-752.39"/>
</a>
</g>
</g>
<!-- Node22 -->
<g id="Node000022" class="node">
<title>Node22</title>
<g id="a_Node000022"><a xlink:href="../../d1/d06/group___o_r_n_l.html#ga8dadacfbdfaeef91b856b23b906ac4e2" target="_top" xlink:title=" ">
<polygon fill="white" stroke="#666666" points="225.5,-677.25 76.75,-677.25 76.75,-658 225.5,-658 225.5,-677.25"/>
<text text-anchor="middle" x="151.12" y="-663.75" font-family="Helvetica,sans-Serif" font-size="10.00">GamR::ORNL::readAllBananas</text>
</a>
</g>
</g>
<!-- Node1&#45;&gt;Node22 -->
<g id="edge24_Node000001_Node000022" class="edge">
<title>Node1&#45;&gt;Node22</title>
<g id="a_edge24_Node000001_Node000022"><a xlink:title=" ">
<path fill="none" stroke="#63b8ff" d="M461.9,-734.81C452.97,-724.46 440.57,-712.37 426.75,-705.62 392.37,-688.83 294.75,-678.24 225.72,-672.63"/>
<polygon fill="#63b8ff" stroke="#63b8ff" points="459.08,-736.9 468.1,-742.46 464.52,-732.49 459.08,-736.9"/>
</a>
</g>
</g>
<!-- Node24 -->
<g id="Node000024" class="node">
<title>Node24</title>
<g id="a_Node000024"><a xlink:href="../../d1/d06/group___o_r_n_l.html#gadf516cfb4c9ea542a49beb4a7c8b3abd" target="_top" xlink:title=" ">
<polygon fill="white" stroke="#666666" points="412.12,-658.25 279.88,-658.25 279.88,-639 412.12,-639 412.12,-658.25"/>
<text text-anchor="middle" x="346" y="-644.75" font-family="Helvetica,sans-Serif" font-size="10.00">GamR::ORNL::readBanana</text>
</a>
</g>
</g>
<!-- Node1&#45;&gt;Node24 -->
<g id="edge26_Node000001_Node000024" class="edge">
<title>Node1&#45;&gt;Node24</title>
<g id="a_edge26_Node000001_Node000024"><a xlink:title=" ">
<path fill="none" stroke="#63b8ff" d="M468.58,-733.02C460.79,-714.62 446.95,-688.23 426.75,-672.62 418.97,-666.61 409.69,-662.1 400.27,-658.72"/>
<polygon fill="#63b8ff" stroke="#63b8ff" points="465.24,-734.1 472.18,-742.12 471.75,-731.53 465.24,-734.1"/>
</a>
</g>
</g>
<!-- Node25 -->
<g id="Node000025" class="node">
<title>Node25</title>
<g id="a_Node000025"><a xlink:href="../../dc/d89/namespace_gam_r_1_1_spect.html#a8ccc2b947ae46055001a8790f0aeb2f4" target="_top" xlink:title=" ">
<polygon fill="white" stroke="#666666" points="406.5,-621.25 285.5,-621.25 285.5,-602 406.5,-602 406.5,-621.25"/>
<text text-anchor="middle" x="346" y="-607.75" font-family="Helvetica,sans-Serif" font-size="10.00">GamR::Spect::ReadCuts</text>
</a>
</g>
</g>
<!-- Node1&#45;&gt;Node25 -->
<g id="edge28_Node000001_Node000025" class="edge">
<title>Node1&#45;&gt;Node25</title>
<g id="a_edge28_Node000001_Node000025"><a xlink:title=" ">
<path fill="none" stroke="#63b8ff" d="M473.78,-732.64C469.49,-704.81 457.77,-656.12 426.75,-629.62 420.92,-624.65 414,-620.97 406.72,-618.26"/>
<polygon fill="#63b8ff" stroke="#63b8ff" points="470.28,-732.86 475.07,-742.31 477.22,-731.93 470.28,-732.86"/>
</a>
</g>
</g>
<!-- Node27 -->
<g id="Node000027" class="node">
<title>Node27</title>
<g id="a_Node000027"><a xlink:href="../../d9/d72/class_gam_r_1_1_bateman_1_1_scheme.html#a5211e5a32f089ea8ccec29ad033c4ca9" target="_top" xlink:title=" ">
<polygon fill="white" stroke="#666666" points="409.88,-583.88 282.12,-583.88 282.12,-553.38 409.88,-553.38 409.88,-583.88"/>
<text text-anchor="start" x="290.12" y="-570.38" font-family="Helvetica,sans-Serif" font-size="10.00">GamR::Bateman::Scheme</text>
<text text-anchor="middle" x="346" y="-559.12" font-family="Helvetica,sans-Serif" font-size="10.00">::ReadScheme</text>
</a>
</g>
</g>
<!-- Node1&#45;&gt;Node27 -->
<g id="edge30_Node000001_Node000027" class="edge">
<title>Node1&#45;&gt;Node27</title>
<g id="a_edge30_Node000001_Node000027"><a xlink:title=" ">
<path fill="none" stroke="#63b8ff" d="M475.72,-732.32C473.85,-698.1 465.17,-630.84 426.75,-592.62 421.93,-587.83 416.19,-583.99 410.04,-580.91"/>
<polygon fill="#63b8ff" stroke="#63b8ff" points="472.22,-732.32 476.09,-742.18 479.21,-732.06 472.22,-732.32"/>
</a>
</g>
</g>
<!-- Node28 -->
<g id="Node000028" class="node">
<title>Node28</title>
<g id="a_Node000028"><a xlink:href="../../d3/ddb/class_gam_r_1_1_nucleus_1_1_level_scheme_draw_1_1_scheme.html#ab938e7f1c7cba45783402692e0192909" target="_top" xlink:title=" ">
<polygon fill="white" stroke="#666666" points="420.38,-534.88 271.62,-534.88 271.62,-504.38 420.38,-504.38 420.38,-534.88"/>
<text text-anchor="start" x="279.62" y="-521.38" font-family="Helvetica,sans-Serif" font-size="10.00">GamR::Nucleus::LevelScheme</text>
<text text-anchor="middle" x="346" y="-510.12" font-family="Helvetica,sans-Serif" font-size="10.00">Draw::Scheme::ReadScheme</text>
</a>
</g>
</g>
<!-- Node1&#45;&gt;Node28 -->
<g id="edge31_Node000001_Node000028" class="edge">
<title>Node1&#45;&gt;Node28</title>
<g id="a_edge31_Node000001_Node000028"><a xlink:title=" ">
<path fill="none" stroke="#63b8ff" d="M473.79,-732.35C468.11,-684.81 452.23,-572 426.75,-544.62 423.39,-541.01 419.51,-537.92 415.32,-535.27"/>
<polygon fill="#63b8ff" stroke="#63b8ff" points="470.3,-732.63 474.92,-742.16 477.25,-731.82 470.3,-732.63"/>
</a>
</g>
</g>
<!-- Node29 -->
<g id="Node000029" class="node">
<title>Node29</title>
<g id="a_Node000029"><a xlink:href="../../d4/d79/class_gam_r_1_1_tree_1_1_t_det_defn.html#ac188013ec5e52bf16f2edc2305eac784" target="_top" xlink:title=" ">
<polygon fill="white" stroke="#666666" points="402.75,-485.88 289.25,-485.88 289.25,-455.38 402.75,-455.38 402.75,-485.88"/>
<text text-anchor="start" x="297.25" y="-472.38" font-family="Helvetica,sans-Serif" font-size="10.00">GamR::Tree::TDetDefn</text>
<text text-anchor="middle" x="346" y="-461.12" font-family="Helvetica,sans-Serif" font-size="10.00">::SetCalFuncs</text>
</a>
</g>
</g>
<!-- Node1&#45;&gt;Node29 -->
<g id="edge32_Node000001_Node000029" class="edge">
<title>Node1&#45;&gt;Node29</title>
<g id="a_edge32_Node000001_Node000029"><a xlink:title=" ">
<path fill="none" stroke="#63b8ff" d="M474.84,-732.32C471,-677.02 458.08,-530.76 426.75,-495.62 420.38,-488.48 411.99,-483.35 403.05,-479.68"/>
<polygon fill="#63b8ff" stroke="#63b8ff" points="471.34,-732.5 475.49,-742.25 478.32,-732.04 471.34,-732.5"/>
</a>
</g>
</g>
<!-- Node30 -->
<g id="Node000030" class="node">
<title>Node30</title>
<g id="a_Node000030"><a xlink:href="../../d5/d72/class_gam_r_1_1_efficiency_1_1_data_set.html#a83f1325eba075f277b03e7250456dd18" target="_top" xlink:title=" ">
<polygon fill="white" stroke="#666666" points="410.25,-436.88 281.75,-436.88 281.75,-406.38 410.25,-406.38 410.25,-436.88"/>
<text text-anchor="start" x="289.75" y="-423.38" font-family="Helvetica,sans-Serif" font-size="10.00">GamR::Efficiency::DataSet</text>
<text text-anchor="middle" x="346" y="-412.12" font-family="Helvetica,sans-Serif" font-size="10.00">::SetData</text>
</a>
</g>
</g>
<!-- Node1&#45;&gt;Node30 -->
<g id="edge33_Node000001_Node000030" class="edge">
<title>Node1&#45;&gt;Node30</title>
<g id="a_edge33_Node000001_Node000030"><a xlink:title=" ">
<path fill="none" stroke="#63b8ff" d="M475.55,-732.07C473.37,-669.51 463.93,-489.6 426.75,-446.62 422.19,-441.36 416.54,-437.19 410.36,-433.89"/>
<polygon fill="#63b8ff" stroke="#63b8ff" points="472.05,-732.15 475.86,-742.04 479.04,-731.93 472.05,-732.15"/>
</a>
</g>
</g>
<!-- Node35 -->
<g id="Node000035" class="node">
<title>Node35</title>
<g id="a_Node000035"><a xlink:href="../../d4/d79/class_gam_r_1_1_tree_1_1_t_det_defn.html#a329c7691b25de23668b020a1ca8c37ad" target="_top" xlink:title=" ">
<polygon fill="white" stroke="#666666" points="402.75,-387.88 289.25,-387.88 289.25,-357.38 402.75,-357.38 402.75,-387.88"/>
<text text-anchor="start" x="297.25" y="-374.38" font-family="Helvetica,sans-Serif" font-size="10.00">GamR::Tree::TDetDefn</text>
<text text-anchor="middle" x="346" y="-363.12" font-family="Helvetica,sans-Serif" font-size="10.00">::SetEffFunc</text>
</a>
</g>
</g>
<!-- Node1&#45;&gt;Node35 -->
<g id="edge38_Node000001_Node000035" class="edge">
<title>Node1&#45;&gt;Node35</title>
<g id="a_edge38_Node000001_Node000035"><a xlink:title=" ">
<path fill="none" stroke="#63b8ff" d="M476.08,-732.33C475.43,-663.51 469.93,-448.63 426.75,-397.62 420.47,-390.2 412.01,-384.96 402.95,-381.25"/>
<polygon fill="#63b8ff" stroke="#63b8ff" points="472.58,-732.24 476.15,-742.22 479.58,-732.19 472.58,-732.24"/>
</a>
</g>
</g>
<!-- Node36 -->
<g id="Node000036" class="node">
<title>Node36</title>
<g id="a_Node000036"><a xlink:href="../../d4/d79/class_gam_r_1_1_tree_1_1_t_det_defn.html#ad064c76b8660012e93eb3aea55e4b1b8" target="_top" xlink:title=" ">
<polygon fill="white" stroke="#666666" points="402.75,-338.88 289.25,-338.88 289.25,-308.38 402.75,-308.38 402.75,-338.88"/>
<text text-anchor="start" x="297.25" y="-325.38" font-family="Helvetica,sans-Serif" font-size="10.00">GamR::Tree::TDetDefn</text>
<text text-anchor="middle" x="346" y="-314.12" font-family="Helvetica,sans-Serif" font-size="10.00">::SetPollGates</text>
</a>
</g>
</g>
<!-- Node1&#45;&gt;Node36 -->
<g id="edge39_Node000001_Node000036" class="edge">
<title>Node1&#45;&gt;Node36</title>
<g id="a_edge39_Node000001_Node000036"><a xlink:title=" ">
<path fill="none" stroke="#63b8ff" d="M476.48,-732.35C477.23,-657.51 475.91,-407.68 426.75,-348.62 420.53,-341.15 412.1,-335.88 403.05,-332.17"/>
<polygon fill="#63b8ff" stroke="#63b8ff" points="472.99,-731.96 476.36,-742 479.99,-732.04 472.99,-731.96"/>
</a>
</g>
</g>
<!-- Node37 -->
<g id="Node000037" class="node">
<title>Node37</title>
<g id="a_Node000037"><a xlink:href="../../d4/d79/class_gam_r_1_1_tree_1_1_t_det_defn.html#ab3fe3b5f44d3eb6695d75c9cdc2211f3" target="_top" xlink:title=" ">
<polygon fill="white" stroke="#666666" points="402.75,-289.88 289.25,-289.88 289.25,-259.38 402.75,-259.38 402.75,-289.88"/>
<text text-anchor="start" x="297.25" y="-276.38" font-family="Helvetica,sans-Serif" font-size="10.00">GamR::Tree::TDetDefn</text>
<text text-anchor="middle" x="346" y="-265.12" font-family="Helvetica,sans-Serif" font-size="10.00">::SetPtrs</text>
</a>
</g>
</g>
<!-- Node1&#45;&gt;Node37 -->
<g id="edge40_Node000001_Node000037" class="edge">
<title>Node1&#45;&gt;Node37</title>
<g id="a_edge40_Node000001_Node000037"><a xlink:title=" ">
<path fill="none" stroke="#63b8ff" d="M475.19,-732.29C471.16,-647 454.55,-333.46 426.75,-299.62 420.58,-292.11 412.18,-286.82 403.13,-283.1"/>
<polygon fill="#63b8ff" stroke="#63b8ff" points="471.69,-732.41 475.65,-742.24 478.68,-732.09 471.69,-732.41"/>
</a>
</g>
</g>
<!-- Node38 -->
<g id="Node000038" class="node">
<title>Node38</title>
<g id="a_Node000038"><a xlink:href="../../dc/d89/namespace_gam_r_1_1_spect.html#afbdb537b10809077958d79f5505a2b8e" target="_top" xlink:title=" ">
<polygon fill="white" stroke="#666666" points="400.12,-241.25 291.88,-241.25 291.88,-222 400.12,-222 400.12,-241.25"/>
<text text-anchor="middle" x="346" y="-227.75" font-family="Helvetica,sans-Serif" font-size="10.00">GamR::Spect::ToText</text>
</a>
</g>
</g>
<!-- Node1&#45;&gt;Node38 -->
<g id="edge41_Node000001_Node000038" class="edge">
<title>Node1&#45;&gt;Node38</title>
<g id="a_edge41_Node000001_Node000038"><a xlink:title=" ">
<path fill="none" stroke="#63b8ff" d="M475.49,-732.28C472.5,-641.12 458.88,-287.45 426.75,-250.62 419.92,-242.8 410.5,-237.89 400.52,-234.87"/>
<polygon fill="#63b8ff" stroke="#63b8ff" points="471.99,-732.15 475.8,-742.03 478.98,-731.93 471.99,-732.15"/>
</a>
</g>
</g>
<!-- Node39 -->
<g id="Node000039" class="node">
<title>Node39</title>
<g id="a_Node000039"><a xlink:href="../../dc/d89/namespace_gam_r_1_1_spect.html#a612093cf55c5c41a047cbb48dae0cd7e" target="_top" xlink:title=" ">
<polygon fill="white" stroke="#666666" points="400.12,-204.25 291.88,-204.25 291.88,-185 400.12,-185 400.12,-204.25"/>
<text text-anchor="middle" x="346" y="-190.75" font-family="Helvetica,sans-Serif" font-size="10.00">GamR::Spect::ToText</text>
</a>
</g>
</g>
<!-- Node1&#45;&gt;Node39 -->
<g id="edge42_Node000001_Node000039" class="edge">
<title>Node1&#45;&gt;Node39</title>
<g id="a_edge42_Node000001_Node000039"><a xlink:title=" ">
<path fill="none" stroke="#63b8ff" d="M475.66,-732.2C473.27,-636.64 461.57,-252.33 426.75,-212.62 419.92,-204.83 410.5,-200.02 400.52,-197.13"/>
<polygon fill="#63b8ff" stroke="#63b8ff" points="472.16,-732.27 475.9,-742.18 479.16,-732.1 472.16,-732.27"/>
</a>
</g>
</g>
<!-- Node40 -->
<g id="Node000040" class="node">
<title>Node40</title>
<g id="a_Node000040"><a xlink:href="../../dc/d89/namespace_gam_r_1_1_spect.html#ab7b9dcab15bf0ce1e18050e31e279074" target="_top" xlink:title=" ">
<polygon fill="white" stroke="#666666" points="400.12,-167.25 291.88,-167.25 291.88,-148 400.12,-148 400.12,-167.25"/>
<text text-anchor="middle" x="346" y="-153.75" font-family="Helvetica,sans-Serif" font-size="10.00">GamR::Spect::ToText</text>
</a>
</g>
</g>
<!-- Node1&#45;&gt;Node40 -->
<g id="edge43_Node000001_Node000040" class="edge">
<title>Node1&#45;&gt;Node40</title>
<g id="a_edge43_Node000001_Node000040"><a xlink:title=" ">
<path fill="none" stroke="#63b8ff" d="M475.8,-732.63C473.96,-633.86 464.04,-218.4 426.75,-175.62 419.94,-167.81 410.53,-163 400.56,-160.1"/>
<polygon fill="#63b8ff" stroke="#63b8ff" points="472.3,-732.51 475.97,-742.45 479.3,-732.39 472.3,-732.51"/>
</a>
</g>
</g>
<!-- Node41 -->
<g id="Node000041" class="node">
<title>Node41</title>
<g id="a_Node000041"><a xlink:href="../../dc/d89/namespace_gam_r_1_1_spect.html#a28c7c6f46602455d22e51d065a448178" target="_top" xlink:title=" ">
<polygon fill="white" stroke="#666666" points="400.12,-130.25 291.88,-130.25 291.88,-111 400.12,-111 400.12,-130.25"/>
<text text-anchor="middle" x="346" y="-116.75" font-family="Helvetica,sans-Serif" font-size="10.00">GamR::Spect::ToText</text>
</a>
</g>
</g>
<!-- Node1&#45;&gt;Node41 -->
<g id="edge44_Node000001_Node000041" class="edge">
<title>Node1&#45;&gt;Node41</title>
<g id="a_edge44_Node000001_Node000041"><a xlink:title=" ">
<path fill="none" stroke="#63b8ff" d="M475.91,-732.59C474.57,-629.91 466.46,-184.41 426.75,-138.62 419.96,-130.8 410.56,-125.97 400.59,-123.07"/>
<polygon fill="#63b8ff" stroke="#63b8ff" points="472.41,-732.35 476.03,-742.31 479.41,-732.27 472.41,-732.35"/>
</a>
</g>
</g>
<!-- Node42 -->
<g id="Node000042" class="node">
<title>Node42</title>
<g id="a_Node000042"><a xlink:href="../../dc/d89/namespace_gam_r_1_1_spect.html#a1e4888dc63be16208f6f93c90c4928f7" target="_top" xlink:title=" ">
<polygon fill="white" stroke="#666666" points="400.12,-93.25 291.88,-93.25 291.88,-74 400.12,-74 400.12,-93.25"/>
<text text-anchor="middle" x="346" y="-79.75" font-family="Helvetica,sans-Serif" font-size="10.00">GamR::Spect::ToText</text>
</a>
</g>
</g>
<!-- Node1&#45;&gt;Node42 -->
<g id="edge45_Node000001_Node000042" class="edge">
<title>Node1&#45;&gt;Node42</title>
<g id="a_edge45_Node000001_Node000042"><a xlink:title=" ">
<path fill="none" stroke="#63b8ff" d="M476.01,-732.34C475.13,-625.45 468.86,-150.39 426.75,-101.62 419.98,-93.78 410.58,-88.95 400.61,-86.05"/>
<polygon fill="#63b8ff" stroke="#63b8ff" points="472.51,-732.25 476.09,-742.22 479.51,-732.2 472.51,-732.25"/>
</a>
</g>
</g>
<!-- Node43 -->
<g id="Node000043" class="node">
<title>Node43</title>
<g id="a_Node000043"><a xlink:href="../../dc/d89/namespace_gam_r_1_1_spect.html#a0dd01005b3fe204d006858acf8d290f7" target="_top" xlink:title=" ">
<polygon fill="white" stroke="#666666" points="400.12,-56.25 291.88,-56.25 291.88,-37 400.12,-37 400.12,-56.25"/>
<text text-anchor="middle" x="346" y="-42.75" font-family="Helvetica,sans-Serif" font-size="10.00">GamR::Spect::ToText</text>
</a>
</g>
</g>
<!-- Node1&#45;&gt;Node43 -->
<g id="edge46_Node000001_Node000043" class="edge">
<title>Node1&#45;&gt;Node43</title>
<g id="a_edge46_Node000001_Node000043"><a xlink:title=" ">
<path fill="none" stroke="#63b8ff" d="M476.1,-732.19C475.67,-621.34 471.27,-116.4 426.75,-64.62 419.9,-56.66 410.35,-51.8 400.23,-48.91"/>
<polygon fill="#63b8ff" stroke="#63b8ff" points="472.6,-732.19 476.13,-742.18 479.6,-732.17 472.6,-732.19"/>
</a>
</g>
</g>
<!-- Node44 -->
<g id="Node000044" class="node">
<title>Node44</title>
<g id="a_Node000044"><a xlink:href="../../dc/d89/namespace_gam_r_1_1_spect.html#ac70e8231530c82d24684865a74aa79a1" target="_top" xlink:title=" ">
<polygon fill="white" stroke="#666666" points="400.12,-19.25 291.88,-19.25 291.88,0 400.12,0 400.12,-19.25"/>
<text text-anchor="middle" x="346" y="-5.75" font-family="Helvetica,sans-Serif" font-size="10.00">GamR::Spect::ToText</text>
</a>
</g>
</g>
<!-- Node1&#45;&gt;Node44 -->
<g id="edge47_Node000001_Node000044" class="edge">
<title>Node1&#45;&gt;Node44</title>
<g id="a_edge47_Node000001_Node000044"><a xlink:title=" ">
<path fill="none" stroke="#63b8ff" d="M476.19,-732.47C476.2,-618.68 473.74,-82.48 426.75,-27.62 419.92,-19.65 410.37,-14.78 400.25,-11.89"/>
<polygon fill="#63b8ff" stroke="#63b8ff" points="472.69,-732.17 476.18,-742.18 479.69,-732.18 472.69,-732.17"/>
</a>
</g>
</g>
<!-- Node8&#45;&gt;Node9 -->
<g id="edge8_Node000008_Node000009" class="edge">
<title>Node8&#45;&gt;Node9</title>
<g id="a_edge8_Node000008_Node000009"><a xlink:title=" ">
<path fill="none" stroke="#63b8ff" d="M264.23,-1189.03C247.1,-1191.87 229.28,-1194.82 213.04,-1197.52"/>
<polygon fill="#63b8ff" stroke="#63b8ff" points="264.58,-1192.52 273.87,-1187.43 263.44,-1185.61 264.58,-1192.52"/>
</a>
</g>
</g>
<!-- Node8&#45;&gt;Node10 -->
<g id="edge9_Node000008_Node000010" class="edge">
<title>Node8&#45;&gt;Node10</title>
<g id="a_edge9_Node000008_Node000010"><a xlink:title=" ">
<path fill="none" stroke="#63b8ff" d="M264.16,-1162.21C250.03,-1159.87 235.44,-1157.45 221.66,-1155.16"/>
<polygon fill="#63b8ff" stroke="#63b8ff" points="263.44,-1165.64 273.87,-1163.82 264.58,-1158.73 263.44,-1165.64"/>
</a>
</g>
</g>
<!-- Node13 -->
<g id="Node000013" class="node">
<title>Node13</title>
<g id="a_Node000013"><a xlink:href="../../dc/d89/namespace_gam_r_1_1_spect.html#a509e9d3432c6d23f1db25ab0363497b8" target="_top" xlink:title=" ">
<polygon fill="white" stroke="#666666" points="209.75,-1067.25 92.5,-1067.25 92.5,-1048 209.75,-1048 209.75,-1067.25"/>
<text text-anchor="middle" x="151.12" y="-1053.75" font-family="Helvetica,sans-Serif" font-size="10.00">GamR::Spect::FitPeaks</text>
</a>
</g>
</g>
<!-- Node12&#45;&gt;Node13 -->
<g id="edge13_Node000012_Node000013" class="edge">
<title>Node12&#45;&gt;Node13</title>
<g id="a_edge13_Node000012_Node000013"><a xlink:title=" ">
<path fill="none" stroke="#63b8ff" d="M270.56,-1057.62C250.54,-1057.62 229.18,-1057.62 210.2,-1057.62"/>
<polygon fill="#63b8ff" stroke="#63b8ff" points="270.33,-1061.13 280.33,-1057.63 270.33,-1054.13 270.33,-1061.13"/>
</a>
</g>
</g>
<!-- Node16&#45;&gt;Node17 -->
<g id="edge17_Node000016_Node000017" class="edge">
<title>Node16&#45;&gt;Node17</title>
<g id="a_edge17_Node000016_Node000017"><a xlink:title=" ">
<path fill="none" stroke="#63b8ff" d="M263.37,-938.58C228.6,-935.16 191.19,-931.47 169.83,-929.37"/>
<polygon fill="#63b8ff" stroke="#63b8ff" points="262.75,-942.04 273.04,-939.54 263.43,-935.07 262.75,-942.04"/>
</a>
</g>
</g>
<!-- Node23 -->
<g id="Node000023" class="node">
<title>Node23</title>
<g id="a_Node000023"><a xlink:href="../../dd/de2/ban2root_8cc.html#a0ddf1224851353fc92bfbff6f499fa97" target="_top" xlink:title=" ">
<polygon fill="white" stroke="#666666" points="37,-677.25 0,-677.25 0,-658 37,-658 37,-677.25"/>
<text text-anchor="middle" x="18.5" y="-663.75" font-family="Helvetica,sans-Serif" font-size="10.00">main</text>
</a>
</g>
</g>
<!-- Node22&#45;&gt;Node23 -->
<g id="edge25_Node000022_Node000023" class="edge">
<title>Node22&#45;&gt;Node23</title>
<g id="a_edge25_Node000022_Node000023"><a xlink:title=" ">
<path fill="none" stroke="#63b8ff" d="M64.97,-667.62C54.64,-667.62 45.03,-667.62 37.34,-667.62"/>
<polygon fill="#63b8ff" stroke="#63b8ff" points="64.9,-671.13 74.9,-667.63 64.9,-664.13 64.9,-671.13"/>
</a>
</g>
</g>
<!-- Node24&#45;&gt;Node22 -->
<g id="edge27_Node000024_Node000022" class="edge">
<title>Node24&#45;&gt;Node22</title>
<g id="a_edge27_Node000024_Node000022"><a xlink:title=" ">
<path fill="none" stroke="#63b8ff" d="M268.34,-656.18C254.32,-657.56 239.73,-659 225.8,-660.37"/>
<polygon fill="#63b8ff" stroke="#63b8ff" points="268.32,-659.7 277.93,-655.23 267.63,-652.73 268.32,-659.7"/>
</a>
</g>
</g>
<!-- Node26 -->
<g id="Node000026" class="node">
<title>Node26</title>
<g id="a_Node000026"><a xlink:href="../../dc/d89/namespace_gam_r_1_1_spect.html#adc1d9a2cd30179649118e53af5943f2e" target="_top" xlink:title=" ">
<polygon fill="white" stroke="#666666" points="219.5,-621.25 82.75,-621.25 82.75,-602 219.5,-602 219.5,-621.25"/>
<text text-anchor="middle" x="151.12" y="-607.75" font-family="Helvetica,sans-Serif" font-size="10.00">GamR::Spect::IntegrateCuts</text>
</a>
</g>
</g>
<!-- Node25&#45;&gt;Node26 -->
<g id="edge29_Node000025_Node000026" class="edge">
<title>Node25&#45;&gt;Node26</title>
<g id="a_edge29_Node000025_Node000026"><a xlink:title=" ">
<path fill="none" stroke="#63b8ff" d="M273.66,-611.62C256.04,-611.62 237.23,-611.62 219.8,-611.62"/>
<polygon fill="#63b8ff" stroke="#63b8ff" points="273.52,-615.13 283.52,-611.63 273.52,-608.13 273.52,-615.13"/>
</a>
</g>
</g>
<!-- Node31 -->
<g id="Node000031" class="node">
<title>Node31</title>
<g id="a_Node000031"><a xlink:href="../../d5/d72/class_gam_r_1_1_efficiency_1_1_data_set.html#a160a7abdbe646b3a1924226e1a16edb5" target="_top" xlink:title=" ">
<polygon fill="white" stroke="#666666" points="215.38,-509.88 86.88,-509.88 86.88,-479.38 215.38,-479.38 215.38,-509.88"/>
<text text-anchor="start" x="94.88" y="-496.38" font-family="Helvetica,sans-Serif" font-size="10.00">GamR::Efficiency::DataSet</text>
<text text-anchor="middle" x="151.12" y="-485.12" font-family="Helvetica,sans-Serif" font-size="10.00">::DataSet</text>
</a>
</g>
</g>
<!-- Node30&#45;&gt;Node31 -->
<g id="edge34_Node000030_Node000031" class="edge">
<title>Node30&#45;&gt;Node31</title>
<g id="a_edge34_Node000030_Node000031"><a xlink:title=" ">
<path fill="none" stroke="#63b8ff" d="M277.77,-441.27C273.48,-442.96 269.28,-444.75 265.25,-446.62 248.04,-454.65 246.42,-461.52 229.25,-469.62 221.99,-473.05 214.15,-476.19 206.33,-479"/>
<polygon fill="#63b8ff" stroke="#63b8ff" points="278.94,-444.57 287.1,-437.8 276.5,-438.01 278.94,-444.57"/>
</a>
</g>
</g>
<!-- Node32 -->
<g id="Node000032" class="node">
<title>Node32</title>
<g id="a_Node000032"><a xlink:href="../../d5/d72/class_gam_r_1_1_efficiency_1_1_data_set.html#a31d411565fb0b39645563a760f941893" target="_top" xlink:title=" ">
<polygon fill="white" stroke="#666666" points="215.38,-460.88 86.88,-460.88 86.88,-430.38 215.38,-430.38 215.38,-460.88"/>
<text text-anchor="start" x="94.88" y="-447.38" font-family="Helvetica,sans-Serif" font-size="10.00">GamR::Efficiency::DataSet</text>
<text text-anchor="middle" x="151.12" y="-436.12" font-family="Helvetica,sans-Serif" font-size="10.00">::DataSet</text>
</a>
</g>
</g>
<!-- Node30&#45;&gt;Node32 -->
<g id="edge35_Node000030_Node000032" class="edge">
<title>Node30&#45;&gt;Node32</title>
<g id="a_edge35_Node000030_Node000032"><a xlink:title=" ">
<path fill="none" stroke="#63b8ff" d="M270.01,-430.96C252.08,-433.19 233.11,-435.55 215.75,-437.71"/>
<polygon fill="#63b8ff" stroke="#63b8ff" points="270.32,-434.45 279.81,-429.74 269.45,-427.5 270.32,-434.45"/>
</a>
</g>
</g>
<!-- Node33 -->
<g id="Node000033" class="node">
<title>Node33</title>
<g id="a_Node000033"><a xlink:href="../../d5/d72/class_gam_r_1_1_efficiency_1_1_data_set.html#a5d5e495b98d73c0e072f27e869934816" target="_top" xlink:title=" ">
<polygon fill="white" stroke="#666666" points="215.38,-411.88 86.88,-411.88 86.88,-381.38 215.38,-381.38 215.38,-411.88"/>
<text text-anchor="start" x="94.88" y="-398.38" font-family="Helvetica,sans-Serif" font-size="10.00">GamR::Efficiency::DataSet</text>
<text text-anchor="middle" x="151.12" y="-387.12" font-family="Helvetica,sans-Serif" font-size="10.00">::DataSet</text>
</a>
</g>
</g>
<!-- Node30&#45;&gt;Node33 -->
<g id="edge36_Node000030_Node000033" class="edge">
<title>Node30&#45;&gt;Node33</title>
<g id="a_edge36_Node000030_Node000033"><a xlink:title=" ">
<path fill="none" stroke="#63b8ff" d="M270.01,-411.9C252.08,-409.58 233.11,-407.12 215.75,-404.87"/>
<polygon fill="#63b8ff" stroke="#63b8ff" points="269.44,-415.36 279.81,-413.18 270.34,-408.42 269.44,-415.36"/>
</a>
</g>
</g>
<!-- Node34 -->
<g id="Node000034" class="node">
<title>Node34</title>
<g id="a_Node000034"><a xlink:href="../../d5/d72/class_gam_r_1_1_efficiency_1_1_data_set.html#a0bddea5b2df9e498e25394dcd27794f3" target="_top" xlink:title=" ">
<polygon fill="white" stroke="#666666" points="215.38,-362.88 86.88,-362.88 86.88,-332.38 215.38,-332.38 215.38,-362.88"/>
<text text-anchor="start" x="94.88" y="-349.38" font-family="Helvetica,sans-Serif" font-size="10.00">GamR::Efficiency::DataSet</text>
<text text-anchor="middle" x="151.12" y="-338.12" font-family="Helvetica,sans-Serif" font-size="10.00">::DataSet</text>
</a>
</g>
</g>
<!-- Node30&#45;&gt;Node34 -->
<g id="edge37_Node000030_Node000034" class="edge">
<title>Node30&#45;&gt;Node34</title>
<g id="a_edge37_Node000030_Node000034"><a xlink:title=" ">
<path fill="none" stroke="#63b8ff" d="M277.49,-401.98C273.3,-400.29 269.19,-398.51 265.25,-396.62 247.9,-388.33 246.56,-381 229.25,-372.62 222.15,-369.19 214.47,-366.06 206.8,-363.27"/>
<polygon fill="#63b8ff" stroke="#63b8ff" points="276.02,-405.16 286.61,-405.42 278.49,-398.61 276.02,-405.16"/>
</a>
</g>
</g>
</g>
</svg>
