<?xml version="1.0" encoding="UTF-8" standalone="no"?>
<!DOCTYPE svg PUBLIC "-//W3C//DTD SVG 1.1//EN"
 "http://www.w3.org/Graphics/SVG/1.1/DTD/svg11.dtd">
<!-- Generated by graphviz version 2.50.0 (20220203.2022)
 -->
<!-- Title: cbp Pages: 1 -->
<svg width="541pt" height="456pt"
 viewBox="0.00 0.00 541.00 456.00" xmlns="http://www.w3.org/2000/svg" xmlns:xlink="http://www.w3.org/1999/xlink">
<g id="graph0" class="graph" transform="scale(1 1) rotate(0) translate(4 452)">
<title>cbp</title>
<polygon fill="white" stroke="transparent" points="-4,4 -4,-452 537,-452 537,4 -4,4"/>
<!-- Node1 -->
<g id="node1" class="node">
<title>Node1</title>
<g id="a_node1"><a xlink:title=" ">
<polygon fill="#bfbfbf" stroke="black" points="0,-239.5 0,-258.5 32,-258.5 32,-239.5 0,-239.5"/>
<text text-anchor="middle" x="16" y="-246.5" font-family="Helvetica,sans-Serif" font-size="10.00">cbp</text>
</a>
</g>
</g>
<!-- Node2 -->
<g id="node2" class="node">
<title>Node2</title>
<g id="a_node2"><a xlink:href="../../d0/d74/group___t_k.html#gab9295d2a9e654d7540ee264d036590cd" target="_top" xlink:title=" ">
<polygon fill="white" stroke="black" points="68,-239.5 68,-258.5 185,-258.5 185,-239.5 68,-239.5"/>
<text text-anchor="middle" x="126.5" y="-246.5" font-family="Helvetica,sans-Serif" font-size="10.00">GamR::TK::ClickBPeak</text>
</a>
</g>
</g>
<!-- Node1&#45;&gt;Node2 -->
<g id="edge1" class="edge">
<title>Node1&#45;&gt;Node2</title>
<path fill="none" stroke="midnightblue" d="M32.09,-249C39.17,-249 48.17,-249 57.77,-249"/>
<polygon fill="midnightblue" stroke="midnightblue" points="57.93,-252.5 67.93,-249 57.93,-245.5 57.93,-252.5"/>
</g>
<!-- Node3 -->
<g id="node3" class="node">
<title>Node3</title>
<g id="a_node3"><a xlink:href="../../d0/db7/namespace_gam_r_1_1_utils.html#a31f74a9ca644d560dc14e19c4dbd773b" target="_top" xlink:title=" ">
<polygon fill="white" stroke="black" points="221.5,-258.5 221.5,-277.5 340.5,-277.5 340.5,-258.5 221.5,-258.5"/>
<text text-anchor="middle" x="281" y="-265.5" font-family="Helvetica,sans-Serif" font-size="10.00">GamR::Utils::GetHist1D</text>
</a>
</g>
</g>
<!-- Node2&#45;&gt;Node3 -->
<g id="edge2" class="edge">
<title>Node2&#45;&gt;Node3</title>
<path fill="none" stroke="midnightblue" d="M185.15,-256.18C193.64,-257.24 202.46,-258.34 211.14,-259.42"/>
<polygon fill="midnightblue" stroke="midnightblue" points="210.89,-262.92 221.25,-260.68 211.76,-255.97 210.89,-262.92"/>
</g>
<!-- Node4 -->
<g id="node4" class="node">
<title>Node4</title>
<g id="a_node4"><a xlink:href="../../d0/d74/group___t_k.html#gaa496d15cf9600fa5790ff50c9392b0fd" target="_top" xlink:title=" ">
<polygon fill="white" stroke="black" points="221,-220.5 221,-239.5 341,-239.5 341,-220.5 221,-220.5"/>
<text text-anchor="middle" x="281" y="-227.5" font-family="Helvetica,sans-Serif" font-size="10.00">GamR::TK::BPeak::Print</text>
</a>
</g>
</g>
<!-- Node2&#45;&gt;Node4 -->
<g id="edge3" class="edge">
<title>Node2&#45;&gt;Node4</title>
<path fill="none" stroke="midnightblue" d="M185.15,-241.82C193.58,-240.77 202.33,-239.68 210.96,-238.6"/>
<polygon fill="midnightblue" stroke="midnightblue" points="211.51,-242.06 221,-237.35 210.64,-235.11 211.51,-242.06"/>
</g>
<!-- Node5 -->
<g id="node5" class="node">
<title>Node5</title>
<g id="a_node5"><a xlink:href="../../d0/d74/group___t_k.html#ga0133d6b49ae4051d478518e61ae0c8a5" target="_top" xlink:title=" ">
<polygon fill="white" stroke="black" points="387,-428.5 387,-447.5 523,-447.5 523,-428.5 387,-428.5"/>
<text text-anchor="middle" x="455" y="-435.5" font-family="Helvetica,sans-Serif" font-size="10.00">GamR::TK::BPeak::GetAmp</text>
</a>
</g>
</g>
<!-- Node4&#45;&gt;Node5 -->
<g id="edge4" class="edge">
<title>Node4&#45;&gt;Node5</title>
<path fill="none" stroke="midnightblue" d="M328.7,-239.65C333.3,-242.1 337.54,-245.16 341,-249 392.73,-306.35 323.3,-363.49 377,-419 378.25,-420.29 379.57,-421.5 380.96,-422.64"/>
<polygon fill="midnightblue" stroke="midnightblue" points="379.23,-425.69 389.5,-428.31 383.11,-419.86 379.23,-425.69"/>
</g>
<!-- Node6 -->
<g id="node6" class="node">
<title>Node6</title>
<g id="a_node6"><a xlink:href="../../d0/d74/group___t_k.html#gaa14fdc374518d186c18b0aabeb91898f" target="_top" xlink:title=" ">
<polygon fill="white" stroke="black" points="377,-390.5 377,-409.5 533,-409.5 533,-390.5 377,-390.5"/>
<text text-anchor="middle" x="455" y="-397.5" font-family="Helvetica,sans-Serif" font-size="10.00">GamR::TK::BPeak::GetAmpError</text>
</a>
</g>
</g>
<!-- Node4&#45;&gt;Node6 -->
<g id="edge5" class="edge">
<title>Node4&#45;&gt;Node6</title>
<path fill="none" stroke="midnightblue" d="M327.91,-239.55C332.77,-242.02 337.28,-245.11 341,-249 383.01,-292.96 333.48,-338.53 377,-381 378.48,-382.44 380.05,-383.78 381.69,-385.02"/>
<polygon fill="midnightblue" stroke="midnightblue" points="380.13,-388.17 390.47,-390.46 383.81,-382.22 380.13,-388.17"/>
</g>
<!-- Node7 -->
<g id="node7" class="node">
<title>Node7</title>
<g id="a_node7"><a xlink:href="../../d0/d74/group___t_k.html#gad927a2d29f50b92c440bc6ece786ef72" target="_top" xlink:title=" ">
<polygon fill="white" stroke="black" points="387,-352.5 387,-371.5 523,-371.5 523,-352.5 387,-352.5"/>
<text text-anchor="middle" x="455" y="-359.5" font-family="Helvetica,sans-Serif" font-size="10.00">GamR::TK::BPeak::GetArea</text>
</a>
</g>
</g>
<!-- Node4&#45;&gt;Node7 -->
<g id="edge6" class="edge">
<title>Node4&#45;&gt;Node7</title>
<path fill="none" stroke="midnightblue" d="M326.95,-239.64C332.09,-242.08 336.94,-245.15 341,-249 373.48,-279.76 343.47,-313.38 377,-343 378.76,-344.56 380.63,-345.99 382.58,-347.31"/>
<polygon fill="midnightblue" stroke="midnightblue" points="381.19,-350.54 391.62,-352.39 384.62,-344.44 381.19,-350.54"/>
</g>
<!-- Node8 -->
<g id="node8" class="node">
<title>Node8</title>
<g id="a_node8"><a xlink:href="../../d0/d74/group___t_k.html#ga4aaec131e418c8788ab191a4eb6a7fa9" target="_top" xlink:title=" ">
<polygon fill="white" stroke="black" points="387,-303 387,-333 523,-333 523,-303 387,-303"/>
<text text-anchor="start" x="395" y="-321" font-family="Helvetica,sans-Serif" font-size="10.00">GamR::TK::BPeak::GetArea</text>
<text text-anchor="middle" x="455" y="-310" font-family="Helvetica,sans-Serif" font-size="10.00">Error</text>
</a>
</g>
</g>
<!-- Node4&#45;&gt;Node8 -->
<g id="edge7" class="edge">
<title>Node4&#45;&gt;Node8</title>
<path fill="none" stroke="midnightblue" d="M322.49,-239.6C328.98,-242.09 335.4,-245.18 341,-249 361.88,-263.23 356.14,-278.74 377,-293 379.87,-294.96 382.91,-296.78 386.05,-298.46"/>
<polygon fill="midnightblue" stroke="midnightblue" points="384.61,-301.65 395.14,-302.85 387.65,-295.35 384.61,-301.65"/>
</g>
<!-- Node9 -->
<g id="node9" class="node">
<title>Node9</title>
<g id="a_node9"><a xlink:href="../../d0/d74/group___t_k.html#ga2bc60e269306be300511aa630417506d" target="_top" xlink:title=" ">
<polygon fill="white" stroke="black" points="387,-264.5 387,-283.5 523,-283.5 523,-264.5 387,-264.5"/>
<text text-anchor="middle" x="455" y="-271.5" font-family="Helvetica,sans-Serif" font-size="10.00">GamR::TK::BPeak::GetCent</text>
</a>
</g>
</g>
<!-- Node4&#45;&gt;Node9 -->
<g id="edge8" class="edge">
<title>Node4&#45;&gt;Node9</title>
<path fill="none" stroke="midnightblue" d="M317.61,-239.51C335.42,-244.23 357.33,-249.99 377,-255 386.01,-257.3 395.63,-259.71 404.91,-262.01"/>
<polygon fill="midnightblue" stroke="midnightblue" points="404.25,-265.45 414.8,-264.45 405.93,-258.65 404.25,-265.45"/>
</g>
<!-- Node10 -->
<g id="node10" class="node">
<title>Node10</title>
<g id="a_node10"><a xlink:href="../../d0/d74/group___t_k.html#ga32d918b4d80ea9e892c18f5936ae1c49" target="_top" xlink:title=" ">
<polygon fill="white" stroke="black" points="387,-215 387,-245 523,-245 523,-215 387,-215"/>
<text text-anchor="start" x="395" y="-233" font-family="Helvetica,sans-Serif" font-size="10.00">GamR::TK::BPeak::GetCent</text>
<text text-anchor="middle" x="455" y="-222" font-family="Helvetica,sans-Serif" font-size="10.00">Error</text>
</a>
</g>
</g>
<!-- Node4&#45;&gt;Node10 -->
<g id="edge9" class="edge">
<title>Node4&#45;&gt;Node10</title>
<path fill="none" stroke="midnightblue" d="M341.19,-230C352.54,-230 364.58,-230 376.41,-230"/>
<polygon fill="midnightblue" stroke="midnightblue" points="376.72,-233.5 386.72,-230 376.72,-226.5 376.72,-233.5"/>
</g>
<!-- Node11 -->
<g id="node11" class="node">
<title>Node11</title>
<g id="a_node11"><a xlink:href="../../d0/d74/group___t_k.html#ga86fb9a62fe918832b4fb6f6ae42f1965" target="_top" xlink:title=" ">
<polygon fill="white" stroke="black" points="382,-176.5 382,-195.5 528,-195.5 528,-176.5 382,-176.5"/>
<text text-anchor="middle" x="455" y="-183.5" font-family="Helvetica,sans-Serif" font-size="10.00">GamR::TK::BPeak::GetCounts</text>
</a>
</g>
</g>
<!-- Node4&#45;&gt;Node11 -->
<g id="edge10" class="edge">
<title>Node4&#45;&gt;Node11</title>
<path fill="none" stroke="midnightblue" d="M319.32,-220.45C345.02,-213.88 379.36,-205.1 406.93,-198.04"/>
<polygon fill="midnightblue" stroke="midnightblue" points="407.93,-201.4 416.75,-195.53 406.2,-194.62 407.93,-201.4"/>
</g>
<!-- Node12 -->
<g id="node12" class="node">
<title>Node12</title>
<g id="a_node12"><a xlink:href="../../d0/d74/group___t_k.html#gac083ac86c150085adae965936f41bb49" target="_top" xlink:title=" ">
<polygon fill="white" stroke="black" points="382,-127 382,-157 528,-157 528,-127 382,-127"/>
<text text-anchor="start" x="390" y="-145" font-family="Helvetica,sans-Serif" font-size="10.00">GamR::TK::BPeak::GetCounts</text>
<text text-anchor="middle" x="455" y="-134" font-family="Helvetica,sans-Serif" font-size="10.00">Error</text>
</a>
</g>
</g>
<!-- Node4&#45;&gt;Node12 -->
<g id="edge11" class="edge">
<title>Node4&#45;&gt;Node12</title>
<path fill="none" stroke="midnightblue" d="M294.25,-220.28C311.74,-206.79 345.28,-182.31 377,-167 381.63,-164.77 386.5,-162.66 391.46,-160.69"/>
<polygon fill="midnightblue" stroke="midnightblue" points="392.94,-163.88 401.06,-157.08 390.47,-157.33 392.94,-163.88"/>
</g>
<!-- Node13 -->
<g id="node13" class="node">
<title>Node13</title>
<g id="a_node13"><a xlink:href="../../d0/d74/group___t_k.html#gaa2200a38a3956d5e129aeeca03b2952a" target="_top" xlink:title=" ">
<polygon fill="white" stroke="black" points="385,-88.5 385,-107.5 525,-107.5 525,-88.5 385,-88.5"/>
<text text-anchor="middle" x="455" y="-95.5" font-family="Helvetica,sans-Serif" font-size="10.00">GamR::TK::BPeak::GetWidth</text>
</a>
</g>
</g>
<!-- Node4&#45;&gt;Node13 -->
<g id="edge12" class="edge">
<title>Node4&#45;&gt;Node13</title>
<path fill="none" stroke="midnightblue" d="M287.26,-220.49C299.79,-198.76 333.6,-145.25 377,-118 381.1,-115.43 385.52,-113.18 390.09,-111.23"/>
<polygon fill="midnightblue" stroke="midnightblue" points="391.54,-114.42 399.64,-107.6 389.05,-107.88 391.54,-114.42"/>
</g>
<!-- Node14 -->
<g id="node14" class="node">
<title>Node14</title>
<g id="a_node14"><a xlink:href="../../d0/d74/group___t_k.html#ga7673c2803d0941563430bf8ef217da80" target="_top" xlink:title=" ">
<polygon fill="white" stroke="black" points="385,-39 385,-69 525,-69 525,-39 385,-39"/>
<text text-anchor="start" x="393" y="-57" font-family="Helvetica,sans-Serif" font-size="10.00">GamR::TK::BPeak::GetWidth</text>
<text text-anchor="middle" x="455" y="-46" font-family="Helvetica,sans-Serif" font-size="10.00">Error</text>
</a>
</g>
</g>
<!-- Node4&#45;&gt;Node14 -->
<g id="edge13" class="edge">
<title>Node4&#45;&gt;Node14</title>
<path fill="none" stroke="midnightblue" d="M285.41,-220.24C295.22,-193.53 326.17,-118.58 377,-79 379.42,-77.12 381.98,-75.37 384.65,-73.76"/>
<polygon fill="midnightblue" stroke="midnightblue" points="386.31,-76.84 393.47,-69.04 383,-70.67 386.31,-76.84"/>
</g>
<!-- Node15 -->
<g id="node15" class="node">
<title>Node15</title>
<g id="a_node15"><a xlink:href="../../d0/db7/namespace_gam_r_1_1_utils.html#a80bc6c0c1ecd5d28cd4f9e3ae38f92ed" target="_top" xlink:title=" ">
<polygon fill="white" stroke="black" points="401,-0.5 401,-19.5 509,-19.5 509,-0.5 401,-0.5"/>
<text text-anchor="middle" x="455" y="-7.5" font-family="Helvetica,sans-Serif" font-size="10.00">GamR::Utils::wrresult</text>
</a>
</g>
</g>
<!-- Node4&#45;&gt;Node15 -->
<g id="edge14" class="edge">
<title>Node4&#45;&gt;Node15</title>
<path fill="none" stroke="midnightblue" d="M283.63,-220.3C289.59,-187.93 313.3,-82.65 377,-30 381.32,-26.43 386.22,-23.48 391.39,-21.06"/>
<polygon fill="midnightblue" stroke="midnightblue" points="392.95,-24.2 400.93,-17.24 390.34,-17.71 392.95,-24.2"/>
</g>
</g>
</svg>
