<?xml version="1.0" encoding="UTF-8" standalone="no"?>
<!DOCTYPE svg PUBLIC "-//W3C//DTD SVG 1.1//EN"
 "http://www.w3.org/Graphics/SVG/1.1/DTD/svg11.dtd">
<!-- Generated by graphviz version 6.0.2 (20221011.1828)
 -->
<!-- Title: os Pages: 1 -->
<svg width="396pt" height="45pt"
 viewBox="0.00 0.00 396.00 45.00" xmlns="http://www.w3.org/2000/svg" xmlns:xlink="http://www.w3.org/1999/xlink">
<g id="graph0" class="graph" transform="scale(1 1) rotate(0) translate(4 41)">
<title>os</title>
<!-- Node1 -->
<g id="node1" class="node">
<title>Node1</title>
<g id="a_node1"><a xlink:title=" ">
<polygon fill="#999999" stroke="#666666" points="29,-19 0,-19 0,0 29,0 29,-19"/>
<text text-anchor="middle" x="14.5" y="-7" font-family="Helvetica,sans-Serif" font-size="10.00">os</text>
</a>
</g>
</g>
<!-- Node2 -->
<g id="node2" class="node">
<title>Node2</title>
<g id="a_node2"><a xlink:href="../../dc/d89/namespace_gam_r_1_1_spect.html#a9baa566867cd3f57cd8b1e5c0137ef3e" target="_top" xlink:title=" ">
<polygon fill="white" stroke="#666666" points="211,-19 65,-19 65,0 211,0 211,-19"/>
<text text-anchor="middle" x="138" y="-7" font-family="Helvetica,sans-Serif" font-size="10.00">GamR::Spect::OverlaySpectra</text>
</a>
</g>
</g>
<!-- Node1&#45;&gt;Node2 -->
<g id="edge1" class="edge">
<title>Node1&#45;&gt;Node2</title>
<path fill="none" stroke="#63b8ff" d="M29.44,-9.5C36.24,-9.5 45.02,-9.5 54.64,-9.5"/>
<polygon fill="#63b8ff" stroke="#63b8ff" points="54.92,-13 64.92,-9.5 54.92,-6 54.92,-13"/>
</g>
<!-- Node2&#45;&gt;Node2 -->
<g id="edge3" class="edge">
<title>Node2&#45;&gt;Node2</title>
<path fill="none" stroke="#63b8ff" d="M118.97,-19.08C109.7,-27.73 116.05,-37 138,-37 151.72,-37 159.34,-33.38 160.87,-28.55"/>
<polygon fill="#63b8ff" stroke="#63b8ff" points="164.03,-27.04 157.03,-19.08 157.54,-29.67 164.03,-27.04"/>
</g>
<!-- Node3 -->
<g id="node3" class="node">
<title>Node3</title>
<g id="a_node3"><a xlink:href="../../dc/d89/namespace_gam_r_1_1_spect.html#a56e80bce5bf691212c8b7dfb76c2d2b4" target="_top" xlink:title=" ">
<polygon fill="white" stroke="#666666" points="388,-19 247,-19 247,0 388,0 388,-19"/>
<text text-anchor="middle" x="317.5" y="-7" font-family="Helvetica,sans-Serif" font-size="10.00">GamR::Spect::List1DSpectra</text>
</a>
</g>
</g>
<!-- Node2&#45;&gt;Node3 -->
<g id="edge2" class="edge">
<title>Node2&#45;&gt;Node3</title>
<path fill="none" stroke="#63b8ff" d="M211.2,-9.5C219.59,-9.5 228.19,-9.5 236.67,-9.5"/>
<polygon fill="#63b8ff" stroke="#63b8ff" points="236.95,-13 246.95,-9.5 236.95,-6 236.95,-13"/>
</g>
</g>
</svg>
