<?xml version="1.0" encoding="UTF-8" standalone="no"?>
<!DOCTYPE svg PUBLIC "-//W3C//DTD SVG 1.1//EN"
 "http://www.w3.org/Graphics/SVG/1.1/DTD/svg11.dtd">
<!-- Generated by graphviz version 12.2.1 (20241206.2353)
 -->
<!-- Title: log Pages: 1 -->
<svg width="334pt" height="45pt"
 viewBox="0.00 0.00 333.55 45.25" xmlns="http://www.w3.org/2000/svg" xmlns:xlink="http://www.w3.org/1999/xlink">
<g id="graph0" class="graph" transform="scale(1 1) rotate(0) translate(4 41.25)">
<title>log</title>
<!-- Node1 -->
<g id="Node000001" class="node">
<title>Node1</title>
<g id="a_Node000001"><a xlink:title=" ">
<polygon fill="#999999" stroke="#666666" points="28.8,-19.25 0,-19.25 0,0 28.8,0 28.8,-19.25"/>
<text text-anchor="middle" x="14.4" y="-5.75" font-family="Helvetica,sans-Serif" font-size="10.00">log</text>
</a>
</g>
</g>
<!-- Node2 -->
<g id="Node000002" class="node">
<title>Node2</title>
<g id="a_Node000002"><a xlink:href="../../dc/d89/namespace_gam_r_1_1_spect.html#aa3a93f8152a5a49fd88de42c1eb4f97f" target="_top" xlink:title=" ">
<polygon fill="white" stroke="#666666" points="170.8,-19.25 64.8,-19.25 64.8,0 170.8,0 170.8,-19.25"/>
<text text-anchor="middle" x="117.8" y="-5.75" font-family="Helvetica,sans-Serif" font-size="10.00">GamR::Spect::LogAll</text>
</a>
</g>
</g>
<!-- Node1&#45;&gt;Node2 -->
<g id="edge1_Node000001_Node000002" class="edge">
<title>Node1&#45;&gt;Node2</title>
<g id="a_edge1_Node000001_Node000002"><a xlink:title=" ">
<path fill="none" stroke="#63b8ff" d="M29.08,-9.62C35.69,-9.62 44.14,-9.62 53.19,-9.62"/>
<polygon fill="#63b8ff" stroke="#63b8ff" points="52.91,-13.13 62.91,-9.63 52.91,-6.13 52.91,-13.13"/>
</a>
</g>
</g>
<!-- Node2&#45;&gt;Node2 -->
<g id="edge3_Node000002_Node000002" class="edge">
<title>Node2&#45;&gt;Node2</title>
<g id="a_edge3_Node000002_Node000002"><a xlink:title=" ">
<path fill="none" stroke="#63b8ff" d="M101.61,-19.54C94.23,-28.15 99.62,-37.25 117.8,-37.25 127.74,-37.25 133.86,-34.53 136.15,-30.65"/>
<polygon fill="#63b8ff" stroke="#63b8ff" points="139.63,-30.17 134.28,-21.02 132.75,-31.51 139.63,-30.17"/>
</a>
</g>
</g>
<!-- Node3 -->
<g id="Node000003" class="node">
<title>Node3</title>
<g id="a_Node000003"><a xlink:href="../../d0/db7/namespace_gam_r_1_1_utils.html#a0adbf2bb55ef0a9adfc45b00210c92c0" target="_top" xlink:title=" ">
<polygon fill="white" stroke="#666666" points="325.55,-19.25 206.8,-19.25 206.8,0 325.55,0 325.55,-19.25"/>
<text text-anchor="middle" x="266.17" y="-5.75" font-family="Helvetica,sans-Serif" font-size="10.00">GamR::Utils::GetNPads</text>
</a>
</g>
</g>
<!-- Node2&#45;&gt;Node3 -->
<g id="edge2_Node000002_Node000003" class="edge">
<title>Node2&#45;&gt;Node3</title>
<g id="a_edge2_Node000002_Node000003"><a xlink:title=" ">
<path fill="none" stroke="#63b8ff" d="M171.23,-9.62C178.98,-9.62 187.07,-9.62 195.11,-9.62"/>
<polygon fill="#63b8ff" stroke="#63b8ff" points="194.89,-13.13 204.89,-9.63 194.89,-6.13 194.89,-13.13"/>
</a>
</g>
</g>
</g>
</svg>
