<?xml version="1.0" encoding="UTF-8" standalone="no"?>
<!DOCTYPE svg PUBLIC "-//W3C//DTD SVG 1.1//EN"
 "http://www.w3.org/Graphics/SVG/1.1/DTD/svg11.dtd">
<!-- Generated by graphviz version 8.1.0 (20230707.0739)
 -->
<!-- Title: GamR::Nucleus::Photon Pages: 1 -->
<svg width="133pt" height="677pt"
 viewBox="0.00 0.00 133.00 677.00" xmlns="http://www.w3.org/2000/svg" xmlns:xlink="http://www.w3.org/1999/xlink">
<g id="graph0" class="graph" transform="scale(1 1) rotate(0) translate(4 673)">
<title>GamR::Nucleus::Photon</title>
<!-- Node1 -->
<g id="Node000001" class="node">
<title>Node1</title>
<g id="a_Node000001"><a xlink:title=" ">
<polygon fill="#999999" stroke="none" points="119,-214 6,-214 6,0 119,0 119,-214"/>
<text text-anchor="start" x="10.75" y="-200.5" font-family="Helvetica,sans-Serif" font-size="10.00">GamR::Nucleus::Photon</text>
<text text-anchor="start" x="61" y="-185.5" font-family="Helvetica,sans-Serif" font-size="10.00"> </text>
<text text-anchor="start" x="18.5" y="-170.5" font-family="Helvetica,sans-Serif" font-size="10.00">+</text>
<text text-anchor="start" x="37" y="-170.5" font-family="Helvetica,sans-Serif" font-size="10.00">SetElectric()</text>
<text text-anchor="start" x="18.5" y="-155.5" font-family="Helvetica,sans-Serif" font-size="10.00">+</text>
<text text-anchor="start" x="37" y="-155.5" font-family="Helvetica,sans-Serif" font-size="10.00">SetMagnetic()</text>
<text text-anchor="start" x="18.5" y="-140.5" font-family="Helvetica,sans-Serif" font-size="10.00">+</text>
<text text-anchor="start" x="37" y="-140.5" font-family="Helvetica,sans-Serif" font-size="10.00">SetSpin()</text>
<text text-anchor="start" x="18.5" y="-125.5" font-family="Helvetica,sans-Serif" font-size="10.00">+</text>
<text text-anchor="start" x="37" y="-125.5" font-family="Helvetica,sans-Serif" font-size="10.00">GetSpin()</text>
<text text-anchor="start" x="18.5" y="-110.5" font-family="Helvetica,sans-Serif" font-size="10.00">+</text>
<text text-anchor="start" x="37" y="-110.5" font-family="Helvetica,sans-Serif" font-size="10.00">IsElectric()</text>
<text text-anchor="start" x="18.5" y="-95.5" font-family="Helvetica,sans-Serif" font-size="10.00">+</text>
<text text-anchor="start" x="37" y="-95.5" font-family="Helvetica,sans-Serif" font-size="10.00">IsMagnetic()</text>
<text text-anchor="start" x="18.5" y="-80.5" font-family="Helvetica,sans-Serif" font-size="10.00">+</text>
<text text-anchor="start" x="37" y="-80.5" font-family="Helvetica,sans-Serif" font-size="10.00">operator==()</text>
<text text-anchor="start" x="18.5" y="-65.5" font-family="Helvetica,sans-Serif" font-size="10.00">+</text>
<text text-anchor="start" x="37" y="-65.5" font-family="Helvetica,sans-Serif" font-size="10.00">operator!=()</text>
<text text-anchor="start" x="18.5" y="-50.5" font-family="Helvetica,sans-Serif" font-size="10.00">+</text>
<text text-anchor="start" x="37" y="-50.5" font-family="Helvetica,sans-Serif" font-size="10.00">operator&lt;()</text>
<text text-anchor="start" x="18.5" y="-35.5" font-family="Helvetica,sans-Serif" font-size="10.00">+</text>
<text text-anchor="start" x="37" y="-35.5" font-family="Helvetica,sans-Serif" font-size="10.00">operator&gt;()</text>
<text text-anchor="start" x="18.5" y="-20.5" font-family="Helvetica,sans-Serif" font-size="10.00">+</text>
<text text-anchor="start" x="37" y="-20.5" font-family="Helvetica,sans-Serif" font-size="10.00">ClassDef()</text>
<text text-anchor="start" x="18.5" y="-5.5" font-family="Helvetica,sans-Serif" font-size="10.00">+</text>
<text text-anchor="start" x="37" y="-5.5" font-family="Helvetica,sans-Serif" font-size="10.00">Transition()</text>
<polygon fill="#666666" stroke="#666666" points="6,-197 6,-197 119,-197 119,-197 6,-197"/>
<polygon fill="#666666" stroke="#666666" points="6,-182 6,-182 119,-182 119,-182 6,-182"/>
<polygon fill="none" stroke="#666666" points="6,0 6,-214 119,-214 119,0 6,0"/>
</a>
</g>
</g>
<!-- Node2 -->
<g id="Node000002" class="node">
<title>Node2</title>
<g id="a_Node000002"><a xlink:href="../../df/d6f/class_gam_r_1_1_nucleus_1_1_transition.html" target="_top" xlink:title=" ">
<polygon fill="white" stroke="none" points="125,-584 0,-584 0,-250 125,-250 125,-584"/>
<text text-anchor="start" x="4.75" y="-570.5" font-family="Helvetica,sans-Serif" font-size="10.00">GamR::Nucleus::Transition</text>
<text text-anchor="start" x="10.88" y="-555.5" font-family="Helvetica,sans-Serif" font-size="10.00">#</text>
<text text-anchor="start" x="27" y="-555.5" font-family="Helvetica,sans-Serif" font-size="10.00">fPeak</text>
<text text-anchor="start" x="10.88" y="-540.5" font-family="Helvetica,sans-Serif" font-size="10.00">#</text>
<text text-anchor="start" x="27" y="-540.5" font-family="Helvetica,sans-Serif" font-size="10.00">fBackground</text>
<text text-anchor="start" x="10.88" y="-525.5" font-family="Helvetica,sans-Serif" font-size="10.00">#</text>
<text text-anchor="start" x="27" y="-525.5" font-family="Helvetica,sans-Serif" font-size="10.00">fEnergy</text>
<text text-anchor="start" x="10.5" y="-510.5" font-family="Helvetica,sans-Serif" font-size="10.00">+</text>
<text text-anchor="start" x="27" y="-510.5" font-family="Helvetica,sans-Serif" font-size="10.00">Transition()</text>
<text text-anchor="start" x="10.5" y="-495.5" font-family="Helvetica,sans-Serif" font-size="10.00">+</text>
<text text-anchor="start" x="27" y="-495.5" font-family="Helvetica,sans-Serif" font-size="10.00">SetEnergy()</text>
<text text-anchor="start" x="10.5" y="-480.5" font-family="Helvetica,sans-Serif" font-size="10.00">+</text>
<text text-anchor="start" x="27" y="-480.5" font-family="Helvetica,sans-Serif" font-size="10.00">SetPeak()</text>
<text text-anchor="start" x="10.5" y="-465.5" font-family="Helvetica,sans-Serif" font-size="10.00">+</text>
<text text-anchor="start" x="27" y="-465.5" font-family="Helvetica,sans-Serif" font-size="10.00">SetPeak()</text>
<text text-anchor="start" x="10.5" y="-450.5" font-family="Helvetica,sans-Serif" font-size="10.00">+</text>
<text text-anchor="start" x="27" y="-450.5" font-family="Helvetica,sans-Serif" font-size="10.00">SetBackground()</text>
<text text-anchor="start" x="10.5" y="-435.5" font-family="Helvetica,sans-Serif" font-size="10.00">+</text>
<text text-anchor="start" x="27" y="-435.5" font-family="Helvetica,sans-Serif" font-size="10.00">SetBackground()</text>
<text text-anchor="start" x="10.5" y="-420.5" font-family="Helvetica,sans-Serif" font-size="10.00">+</text>
<text text-anchor="start" x="27" y="-420.5" font-family="Helvetica,sans-Serif" font-size="10.00">AddBackground()</text>
<text text-anchor="start" x="10.5" y="-405.5" font-family="Helvetica,sans-Serif" font-size="10.00">+</text>
<text text-anchor="start" x="27" y="-405.5" font-family="Helvetica,sans-Serif" font-size="10.00">AddBackground()</text>
<text text-anchor="start" x="10.5" y="-390.5" font-family="Helvetica,sans-Serif" font-size="10.00">+</text>
<text text-anchor="start" x="27" y="-390.5" font-family="Helvetica,sans-Serif" font-size="10.00">SetTransition()</text>
<text text-anchor="start" x="10.5" y="-375.5" font-family="Helvetica,sans-Serif" font-size="10.00">+</text>
<text text-anchor="start" x="27" y="-375.5" font-family="Helvetica,sans-Serif" font-size="10.00">Apply()</text>
<text text-anchor="start" x="10.5" y="-360.5" font-family="Helvetica,sans-Serif" font-size="10.00">+</text>
<text text-anchor="start" x="27" y="-360.5" font-family="Helvetica,sans-Serif" font-size="10.00">ApplyError()</text>
<text text-anchor="start" x="10.5" y="-345.5" font-family="Helvetica,sans-Serif" font-size="10.00">+</text>
<text text-anchor="start" x="27" y="-345.5" font-family="Helvetica,sans-Serif" font-size="10.00">ApplyCounts()</text>
<text text-anchor="start" x="10.5" y="-330.5" font-family="Helvetica,sans-Serif" font-size="10.00">+</text>
<text text-anchor="start" x="27" y="-330.5" font-family="Helvetica,sans-Serif" font-size="10.00">ApplyCountsError()</text>
<text text-anchor="start" x="10.5" y="-315.5" font-family="Helvetica,sans-Serif" font-size="10.00">+</text>
<text text-anchor="start" x="27" y="-315.5" font-family="Helvetica,sans-Serif" font-size="10.00">GetEnergy()</text>
<text text-anchor="start" x="10.5" y="-300.5" font-family="Helvetica,sans-Serif" font-size="10.00">+</text>
<text text-anchor="start" x="27" y="-300.5" font-family="Helvetica,sans-Serif" font-size="10.00">GetGate()</text>
<text text-anchor="start" x="10.5" y="-285.5" font-family="Helvetica,sans-Serif" font-size="10.00">+</text>
<text text-anchor="start" x="27" y="-285.5" font-family="Helvetica,sans-Serif" font-size="10.00">GetGateBG()</text>
<text text-anchor="start" x="10.5" y="-270.5" font-family="Helvetica,sans-Serif" font-size="10.00">+</text>
<text text-anchor="start" x="27" y="-270.5" font-family="Helvetica,sans-Serif" font-size="10.00">GetGateBGs()</text>
<text text-anchor="start" x="10.5" y="-255.5" font-family="Helvetica,sans-Serif" font-size="10.00">+</text>
<text text-anchor="start" x="27" y="-255.5" font-family="Helvetica,sans-Serif" font-size="10.00">ClassDef()</text>
<polygon fill="#666666" stroke="#666666" points="0,-567 0,-567 125,-567 125,-567 0,-567"/>
<polygon fill="#666666" stroke="#666666" points="0,-522 0,-522 25,-522 25,-522 0,-522"/>
<polygon fill="#666666" stroke="#666666" points="25,-522 25,-522 125,-522 125,-522 25,-522"/>
<polygon fill="none" stroke="#666666" points="0,-250 0,-584 125,-584 125,-250 0,-250"/>
</a>
</g>
</g>
<!-- Node2&#45;&gt;Node1 -->
<g id="edge1_Node000001_Node000002" class="edge">
<title>Node2&#45;&gt;Node1</title>
<g id="a_edge1_Node000001_Node000002"><a xlink:title=" ">
<path fill="none" stroke="#63b8ff" d="M62.5,-239.28C62.5,-230.63 62.5,-222.09 62.5,-213.75"/>
<polygon fill="none" stroke="#63b8ff" points="59,-239.28 62.5,-249.28 66,-239.28 59,-239.28"/>
</a>
</g>
</g>
<!-- Node3 -->
<g id="Node000003" class="node">
<title>Node3</title>
<g id="a_Node000003"><a xlink:title=" ">
<polygon fill="white" stroke="none" points="86,-669 39,-669 39,-620 86,-620 86,-669"/>
<text text-anchor="start" x="43.75" y="-655.5" font-family="Helvetica,sans-Serif" font-size="10.00">TNamed</text>
<text text-anchor="start" x="61" y="-640.5" font-family="Helvetica,sans-Serif" font-size="10.00"> </text>
<text text-anchor="start" x="61" y="-625.5" font-family="Helvetica,sans-Serif" font-size="10.00"> </text>
<polygon fill="#666666" stroke="#666666" points="39,-652 39,-652 86,-652 86,-652 39,-652"/>
<polygon fill="#666666" stroke="#666666" points="39,-637 39,-637 86,-637 86,-637 39,-637"/>
<polygon fill="none" stroke="#666666" points="39,-620 39,-669 86,-669 86,-620 39,-620"/>
</a>
</g>
</g>
<!-- Node3&#45;&gt;Node2 -->
<g id="edge2_Node000002_Node000003" class="edge">
<title>Node3&#45;&gt;Node2</title>
<g id="a_edge2_Node000002_Node000003"><a xlink:title=" ">
<path fill="none" stroke="#63b8ff" d="M62.5,-609.41C62.5,-601.78 62.5,-593.18 62.5,-583.98"/>
<polygon fill="none" stroke="#63b8ff" points="59,-609.22 62.5,-619.22 66,-609.22 59,-609.22"/>
</a>
</g>
</g>
</g>
</svg>
