<?xml version="1.0" encoding="UTF-8" standalone="no"?>
<!DOCTYPE svg PUBLIC "-//W3C//DTD SVG 1.1//EN"
 "http://www.w3.org/Graphics/SVG/1.1/DTD/svg11.dtd">
<!-- Generated by graphviz version 2.50.0 (20220203.2022)
 -->
<!-- Title: GamR::AngDist::GaussianDistr::GlobalChiSquare::minuit Pages: 1 -->
<svg width="527pt" height="333pt"
 viewBox="0.00 0.00 527.00 333.00" xmlns="http://www.w3.org/2000/svg" xmlns:xlink="http://www.w3.org/1999/xlink">
<g id="graph0" class="graph" transform="scale(1 1) rotate(0) translate(4 329)">
<title>GamR::AngDist::GaussianDistr::GlobalChiSquare::minuit</title>
<polygon fill="white" stroke="transparent" points="-4,4 -4,-329 523,-329 523,4 -4,4"/>
<!-- Node1 -->
<g id="node1" class="node">
<title>Node1</title>
<g id="a_node1"><a xlink:title=" ">
<polygon fill="#bfbfbf" stroke="black" points="0,-147.5 0,-177.5 149,-177.5 149,-147.5 0,-147.5"/>
<text text-anchor="start" x="8" y="-165.5" font-family="Helvetica,sans-Serif" font-size="10.00">GamR::AngDist::GaussianDistr</text>
<text text-anchor="middle" x="74.5" y="-154.5" font-family="Helvetica,sans-Serif" font-size="10.00">::GlobalChiSquare::minuit</text>
</a>
</g>
</g>
<!-- Node2 -->
<g id="node2" class="node">
<title>Node2</title>
<g id="a_node2"><a xlink:href="../../d0/d66/class_gam_r_1_1_ang_dist_1_1_gaussian_distr.html#a0a71e5a8f2c68571713f8e8fd71e9b9e" target="_top" xlink:title=" ">
<polygon fill="white" stroke="black" points="185,-294.5 185,-324.5 334,-324.5 334,-294.5 185,-294.5"/>
<text text-anchor="start" x="193" y="-312.5" font-family="Helvetica,sans-Serif" font-size="10.00">GamR::AngDist::GaussianDistr</text>
<text text-anchor="middle" x="259.5" y="-301.5" font-family="Helvetica,sans-Serif" font-size="10.00">::GetFunc</text>
</a>
</g>
</g>
<!-- Node1&#45;&gt;Node2 -->
<g id="edge1" class="edge">
<title>Node1&#45;&gt;Node2</title>
<path fill="none" stroke="midnightblue" d="M85.05,-177.69C102.05,-203.53 140.03,-256.07 185,-285.5 187.42,-287.09 189.96,-288.57 192.57,-289.97"/>
<polygon fill="midnightblue" stroke="midnightblue" points="191.17,-293.18 201.7,-294.37 194.21,-286.88 191.17,-293.18"/>
</g>
<!-- Node3 -->
<g id="node3" class="node">
<title>Node3</title>
<g id="a_node3"><a xlink:href="../../d0/d66/class_gam_r_1_1_ang_dist_1_1_gaussian_distr.html#a95b77d306e541c4f6cf4c633e29c3d33" target="_top" xlink:title=" ">
<polygon fill="white" stroke="black" points="185,-245.5 185,-275.5 334,-275.5 334,-245.5 185,-245.5"/>
<text text-anchor="start" x="193" y="-263.5" font-family="Helvetica,sans-Serif" font-size="10.00">GamR::AngDist::GaussianDistr</text>
<text text-anchor="middle" x="259.5" y="-252.5" font-family="Helvetica,sans-Serif" font-size="10.00">::SetAmp</text>
</a>
</g>
</g>
<!-- Node1&#45;&gt;Node3 -->
<g id="edge2" class="edge">
<title>Node1&#45;&gt;Node3</title>
<path fill="none" stroke="midnightblue" d="M94.28,-177.6C115.33,-193.93 150.99,-219.86 185,-236.5 188.8,-238.36 192.77,-240.12 196.83,-241.79"/>
<polygon fill="midnightblue" stroke="midnightblue" points="195.79,-245.14 206.38,-245.49 198.32,-238.61 195.79,-245.14"/>
</g>
<!-- Node4 -->
<g id="node4" class="node">
<title>Node4</title>
<g id="a_node4"><a xlink:href="../../d0/d66/class_gam_r_1_1_ang_dist_1_1_gaussian_distr.html#adf997e0aeab4bc362c60b72f01b33bd9" target="_top" xlink:title=" ">
<polygon fill="white" stroke="black" points="185,-196.5 185,-226.5 334,-226.5 334,-196.5 185,-196.5"/>
<text text-anchor="start" x="193" y="-214.5" font-family="Helvetica,sans-Serif" font-size="10.00">GamR::AngDist::GaussianDistr</text>
<text text-anchor="middle" x="259.5" y="-203.5" font-family="Helvetica,sans-Serif" font-size="10.00">::SetField</text>
</a>
</g>
</g>
<!-- Node1&#45;&gt;Node4 -->
<g id="edge3" class="edge">
<title>Node1&#45;&gt;Node4</title>
<path fill="none" stroke="midnightblue" d="M131.9,-177.6C151.04,-182.73 172.59,-188.5 192.41,-193.8"/>
<polygon fill="midnightblue" stroke="midnightblue" points="191.72,-197.24 202.29,-196.45 193.53,-190.48 191.72,-197.24"/>
</g>
<!-- Node6 -->
<g id="node6" class="node">
<title>Node6</title>
<g id="a_node6"><a xlink:href="../../d0/d66/class_gam_r_1_1_ang_dist_1_1_gaussian_distr.html#a03348cf6737958c2c453c04505979214" target="_top" xlink:title=" ">
<polygon fill="white" stroke="black" points="185,-147.5 185,-177.5 334,-177.5 334,-147.5 185,-147.5"/>
<text text-anchor="start" x="193" y="-165.5" font-family="Helvetica,sans-Serif" font-size="10.00">GamR::AngDist::GaussianDistr</text>
<text text-anchor="middle" x="259.5" y="-154.5" font-family="Helvetica,sans-Serif" font-size="10.00">::SetFWHM</text>
</a>
</g>
</g>
<!-- Node1&#45;&gt;Node6 -->
<g id="edge5" class="edge">
<title>Node1&#45;&gt;Node6</title>
<path fill="none" stroke="midnightblue" d="M149.14,-162.5C157.47,-162.5 166.01,-162.5 174.46,-162.5"/>
<polygon fill="midnightblue" stroke="midnightblue" points="174.71,-166 184.71,-162.5 174.71,-159 174.71,-166"/>
</g>
<!-- Node7 -->
<g id="node7" class="node">
<title>Node7</title>
<g id="a_node7"><a xlink:href="../../d0/d66/class_gam_r_1_1_ang_dist_1_1_gaussian_distr.html#a33cb5cb42ce83331d7a95fadcc8f0b3f" target="_top" xlink:title=" ">
<polygon fill="white" stroke="black" points="185,-98.5 185,-128.5 334,-128.5 334,-98.5 185,-98.5"/>
<text text-anchor="start" x="193" y="-116.5" font-family="Helvetica,sans-Serif" font-size="10.00">GamR::AngDist::GaussianDistr</text>
<text text-anchor="middle" x="259.5" y="-105.5" font-family="Helvetica,sans-Serif" font-size="10.00">::SetG</text>
</a>
</g>
</g>
<!-- Node1&#45;&gt;Node7 -->
<g id="edge6" class="edge">
<title>Node1&#45;&gt;Node7</title>
<path fill="none" stroke="midnightblue" d="M131.9,-147.4C151.04,-142.27 172.59,-136.5 192.41,-131.2"/>
<polygon fill="midnightblue" stroke="midnightblue" points="193.53,-134.52 202.29,-128.55 191.72,-127.76 193.53,-134.52"/>
</g>
<!-- Node8 -->
<g id="node8" class="node">
<title>Node8</title>
<g id="a_node8"><a xlink:href="../../d0/d66/class_gam_r_1_1_ang_dist_1_1_gaussian_distr.html#a5576b603deb4001d2bf7d7b383565a77" target="_top" xlink:title=" ">
<polygon fill="white" stroke="black" points="185,-49.5 185,-79.5 334,-79.5 334,-49.5 185,-49.5"/>
<text text-anchor="start" x="193" y="-67.5" font-family="Helvetica,sans-Serif" font-size="10.00">GamR::AngDist::GaussianDistr</text>
<text text-anchor="middle" x="259.5" y="-56.5" font-family="Helvetica,sans-Serif" font-size="10.00">::SetMean</text>
</a>
</g>
</g>
<!-- Node1&#45;&gt;Node8 -->
<g id="edge7" class="edge">
<title>Node1&#45;&gt;Node8</title>
<path fill="none" stroke="midnightblue" d="M94.74,-147.41C115.9,-131.37 151.39,-106.07 185,-89.5 189.38,-87.34 193.99,-85.29 198.68,-83.37"/>
<polygon fill="midnightblue" stroke="midnightblue" points="200.32,-86.48 208.37,-79.59 197.78,-79.96 200.32,-86.48"/>
</g>
<!-- Node9 -->
<g id="node9" class="node">
<title>Node9</title>
<g id="a_node9"><a xlink:href="../../d0/d66/class_gam_r_1_1_ang_dist_1_1_gaussian_distr.html#ad596ff728506fa481997c4514d6b15f6" target="_top" xlink:title=" ">
<polygon fill="white" stroke="black" points="185,-0.5 185,-30.5 334,-30.5 334,-0.5 185,-0.5"/>
<text text-anchor="start" x="193" y="-18.5" font-family="Helvetica,sans-Serif" font-size="10.00">GamR::AngDist::GaussianDistr</text>
<text text-anchor="middle" x="259.5" y="-7.5" font-family="Helvetica,sans-Serif" font-size="10.00">::SetOffset</text>
</a>
</g>
</g>
<!-- Node1&#45;&gt;Node9 -->
<g id="edge8" class="edge">
<title>Node1&#45;&gt;Node9</title>
<path fill="none" stroke="midnightblue" d="M85.12,-147.49C102.23,-121.96 140.35,-69.98 185,-40.5 187.96,-38.55 191.08,-36.73 194.31,-35.05"/>
<polygon fill="midnightblue" stroke="midnightblue" points="196.09,-38.08 203.62,-30.63 193.09,-31.75 196.09,-38.08"/>
</g>
<!-- Node5 -->
<g id="node5" class="node">
<title>Node5</title>
<g id="a_node5"><a xlink:href="../../d0/d66/class_gam_r_1_1_ang_dist_1_1_gaussian_distr.html#a881a3b0bcf6d61d2f6da05f43a103b4f" target="_top" xlink:title=" ">
<polygon fill="white" stroke="black" points="370,-196.5 370,-226.5 519,-226.5 519,-196.5 370,-196.5"/>
<text text-anchor="start" x="378" y="-214.5" font-family="Helvetica,sans-Serif" font-size="10.00">GamR::AngDist::GaussianDistr</text>
<text text-anchor="middle" x="444.5" y="-203.5" font-family="Helvetica,sans-Serif" font-size="10.00">::Normalise</text>
</a>
</g>
</g>
<!-- Node4&#45;&gt;Node5 -->
<g id="edge4" class="edge">
<title>Node4&#45;&gt;Node5</title>
<path fill="none" stroke="midnightblue" d="M334.14,-211.5C342.47,-211.5 351.01,-211.5 359.46,-211.5"/>
<polygon fill="midnightblue" stroke="midnightblue" points="359.71,-215 369.71,-211.5 359.71,-208 359.71,-215"/>
</g>
</g>
</svg>
