<?xml version="1.0" encoding="UTF-8" standalone="no"?>
<!DOCTYPE svg PUBLIC "-//W3C//DTD SVG 1.1//EN"
 "http://www.w3.org/Graphics/SVG/1.1/DTD/svg11.dtd">
<!-- Generated by graphviz version 9.0.0 (20230911.1827)
 -->
<!-- Title: GamR::AngDist::PopulationParameter Pages: 1 -->
<svg width="135pt" height="98pt"
 viewBox="0.00 0.00 135.00 98.00" xmlns="http://www.w3.org/2000/svg" xmlns:xlink="http://www.w3.org/1999/xlink">
<g id="graph0" class="graph" transform="scale(1 1) rotate(0) translate(4 94)">
<title>GamR::AngDist::PopulationParameter</title>
<!-- Node1 -->
<g id="Node000001" class="node">
<title>Node1</title>
<g id="a_Node000001"><a xlink:title=" ">
<polygon fill="#999999" stroke="none" points="127,-90 0,-90 0,0 127,0 127,-90"/>
<text text-anchor="start" x="5" y="-76.5" font-family="Helvetica,sans-Serif" font-size="10.00">GamR::AngDist::Population</text>
<text text-anchor="start" x="41" y="-65.25" font-family="Helvetica,sans-Serif" font-size="10.00">Parameter</text>
<text text-anchor="start" x="62" y="-50.5" font-family="Helvetica,sans-Serif" font-size="10.00"> </text>
<text text-anchor="start" x="7" y="-35.5" font-family="Helvetica,sans-Serif" font-size="10.00">+</text>
<text text-anchor="start" x="20" y="-35.5" font-family="Helvetica,sans-Serif" font-size="10.00">PopulationParameter()</text>
<text text-anchor="start" x="7" y="-20.5" font-family="Helvetica,sans-Serif" font-size="10.00">+</text>
<text text-anchor="start" x="20" y="-20.5" font-family="Helvetica,sans-Serif" font-size="10.00">PopulationParameter()</text>
<text text-anchor="start" x="7" y="-5.5" font-family="Helvetica,sans-Serif" font-size="10.00">+</text>
<text text-anchor="start" x="20" y="-5.5" font-family="Helvetica,sans-Serif" font-size="10.00">GetPm()</text>
<polygon fill="#666666" stroke="#666666" points="0,-62 0,-62 127,-62 127,-62 0,-62"/>
<polygon fill="#666666" stroke="#666666" points="0,-47 0,-47 127,-47 127,-47 0,-47"/>
<polygon fill="none" stroke="#666666" points="0,0 0,-90 127,-90 127,0 0,0"/>
</a>
</g>
</g>
</g>
</svg>
