<?xml version="1.0" encoding="UTF-8" standalone="no"?>
<!DOCTYPE svg PUBLIC "-//W3C//DTD SVG 1.1//EN"
 "http://www.w3.org/Graphics/SVG/1.1/DTD/svg11.dtd">
<!-- Generated by graphviz version 9.0.0 (20230911.1827)
 -->
<!-- Title: GamR::Nucleus::LevelSchemeFitter::Scheme Pages: 1 -->
<!--zoomable 1136 -->

<svg id="main" version="1.1" xmlns="http://www.w3.org/2000/svg" xmlns:xlink="http://www.w3.org/1999/xlink" xml:space="preserve" onload="init(evt)">
<style type="text/css"><![CDATA[
.node, .edge {opacity: 0.7;}
.node.selected, .edge.selected {opacity: 1;}
.edge:hover path { stroke: red; }
.edge:hover polygon { stroke: red; fill: red; }
]]></style>

<defs>
  <circle id="rim" cx="0" cy="0" r="7"/>
  <circle id="rim2" cx="0" cy="0" r="3.5"/>
  <g id="zoomPlus">
    <use xlink:href="#rim" fill="#404040"><set attributeName="fill" to="#808080" begin="zoomplus.mouseover" end="zoomplus.mouseout"/></use>
    <path d="M-4,0h8M0,-4v8" fill="none" stroke="white" stroke-width="1.5" pointer-events="none"/>
  </g>
  <g id="zoomMin">
    <use xlink:href="#rim" fill="#404040"><set attributeName="fill" to="#808080" begin="zoomminus.mouseover" end="zoomminus.mouseout"/></use>
    <path d="M-4,0h8" fill="none" stroke="white" stroke-width="1.5" pointer-events="none"/>
  </g>
  <g id="arrowUp" transform="translate(30 24)">
    <use xlink:href="#rim"/>
    <path pointer-events="none" fill="none" stroke="white" stroke-width="1.5" d="M0,-3.0v7 M-2.5,-0.5L0,-3.0L2.5,-0.5"/>
  </g>
  <g id="arrowRight" transform="rotate(90) translate(36 -43)">
    <use xlink:href="#rim"/>
    <path pointer-events="none" fill="none" stroke="white" stroke-width="1.5" d="M0,-3.0v7 M-2.5,-0.5L0,-3.0L2.5,-0.5"/>
  </g>
  <g id="arrowDown" transform="rotate(180) translate(-30 -48)">
    <use xlink:href="#rim"/>
    <path pointer-events="none" fill="none" stroke="white" stroke-width="1.5" d="M0,-3.0v7 M-2.5,-0.5L0,-3.0L2.5,-0.5"/>
  </g>
  <g id="arrowLeft" transform="rotate(270) translate(-36 17)">
    <use xlink:href="#rim"/>
    <path pointer-events="none" fill="none" stroke="white" stroke-width="1.5" d="M0,-3.0v7 M-2.5,-0.5L0,-3.0L2.5,-0.5"/>
  </g>
  <g id="resetDef">
    <use xlink:href="#rim2" fill="#404040"><set attributeName="fill" to="#808080" begin="reset.mouseover" end="reset.mouseout"/></use>
  </g>
</defs>
<script type="application/ecmascript">
var viewWidth = 610;
var viewHeight = 1136;
var sectionId = 'dynsection-1';
</script>
<script type="application/ecmascript" xlink:href="../../svg.min.js"/>
<svg id="graph" class="graph">
<g id="viewport">
<title>GamR::Nucleus::LevelSchemeFitter::Scheme</title>
<!-- Node1 -->
<g id="Node000001" class="node">
<title>Node1</title>
<g id="a_Node000001"><a xlink:title=" ">
<polygon fill="#999999" stroke="none" points="213,-330 71,-330 71,0 213,0 213,-330"/>
<text text-anchor="start" x="75.62" y="-316.5" font-family="Helvetica,sans-Serif" font-size="10.00">GamR::Nucleus::LevelScheme</text>
<text text-anchor="start" x="110.5" y="-305.25" font-family="Helvetica,sans-Serif" font-size="10.00">Fitter::Scheme</text>
<text text-anchor="start" x="86" y="-290.5" font-family="Helvetica,sans-Serif" font-size="10.00">+</text>
<text text-anchor="start" x="107" y="-290.5" font-family="Helvetica,sans-Serif" font-size="10.00">drawLow</text>
<text text-anchor="start" x="86" y="-275.5" font-family="Helvetica,sans-Serif" font-size="10.00">+</text>
<text text-anchor="start" x="107" y="-275.5" font-family="Helvetica,sans-Serif" font-size="10.00">drawHigh</text>
<text text-anchor="start" x="86" y="-260.5" font-family="Helvetica,sans-Serif" font-size="10.00">+</text>
<text text-anchor="start" x="107" y="-260.5" font-family="Helvetica,sans-Serif" font-size="10.00">fDrawHist</text>
<text text-anchor="start" x="86" y="-245.5" font-family="Helvetica,sans-Serif" font-size="10.00">+</text>
<text text-anchor="start" x="107" y="-245.5" font-family="Helvetica,sans-Serif" font-size="10.00">fAxis</text>
<text text-anchor="start" x="86" y="-230.5" font-family="Helvetica,sans-Serif" font-size="10.00">+</text>
<text text-anchor="start" x="107" y="-230.5" font-family="Helvetica,sans-Serif" font-size="10.00">Scheme()</text>
<text text-anchor="start" x="86" y="-215.5" font-family="Helvetica,sans-Serif" font-size="10.00">+</text>
<text text-anchor="start" x="107" y="-215.5" font-family="Helvetica,sans-Serif" font-size="10.00">Scheme()</text>
<text text-anchor="start" x="86" y="-200.5" font-family="Helvetica,sans-Serif" font-size="10.00">+</text>
<text text-anchor="start" x="107" y="-200.5" font-family="Helvetica,sans-Serif" font-size="10.00">GetStateByIndex()</text>
<text text-anchor="start" x="86" y="-185.5" font-family="Helvetica,sans-Serif" font-size="10.00">+</text>
<text text-anchor="start" x="107" y="-185.5" font-family="Helvetica,sans-Serif" font-size="10.00">AddState()</text>
<text text-anchor="start" x="86" y="-170.5" font-family="Helvetica,sans-Serif" font-size="10.00">+</text>
<text text-anchor="start" x="107" y="-170.5" font-family="Helvetica,sans-Serif" font-size="10.00">SetIndices()</text>
<text text-anchor="start" x="86" y="-155.5" font-family="Helvetica,sans-Serif" font-size="10.00">+</text>
<text text-anchor="start" x="107" y="-155.5" font-family="Helvetica,sans-Serif" font-size="10.00">AddTransition()</text>
<text text-anchor="start" x="86" y="-140.5" font-family="Helvetica,sans-Serif" font-size="10.00">+</text>
<text text-anchor="start" x="107" y="-140.5" font-family="Helvetica,sans-Serif" font-size="10.00">SetDrawRange()</text>
<text text-anchor="start" x="86" y="-125.5" font-family="Helvetica,sans-Serif" font-size="10.00">+</text>
<text text-anchor="start" x="107" y="-125.5" font-family="Helvetica,sans-Serif" font-size="10.00">GetChiSquared()</text>
<text text-anchor="start" x="86" y="-110.5" font-family="Helvetica,sans-Serif" font-size="10.00">+</text>
<text text-anchor="start" x="107" y="-110.5" font-family="Helvetica,sans-Serif" font-size="10.00">Fit()</text>
<text text-anchor="start" x="86" y="-95.5" font-family="Helvetica,sans-Serif" font-size="10.00">+</text>
<text text-anchor="start" x="107" y="-95.5" font-family="Helvetica,sans-Serif" font-size="10.00">PrintStates()</text>
<text text-anchor="start" x="86" y="-80.5" font-family="Helvetica,sans-Serif" font-size="10.00">+</text>
<text text-anchor="start" x="107" y="-80.5" font-family="Helvetica,sans-Serif" font-size="10.00">PrintTransitions()</text>
<text text-anchor="start" x="86" y="-65.5" font-family="Helvetica,sans-Serif" font-size="10.00">+</text>
<text text-anchor="start" x="107" y="-65.5" font-family="Helvetica,sans-Serif" font-size="10.00">Print()</text>
<text text-anchor="start" x="86" y="-50.5" font-family="Helvetica,sans-Serif" font-size="10.00">+</text>
<text text-anchor="start" x="107" y="-50.5" font-family="Helvetica,sans-Serif" font-size="10.00">SaveTable()</text>
<text text-anchor="start" x="86" y="-35.5" font-family="Helvetica,sans-Serif" font-size="10.00">+</text>
<text text-anchor="start" x="107" y="-35.5" font-family="Helvetica,sans-Serif" font-size="10.00">PrintState()</text>
<text text-anchor="start" x="86" y="-20.5" font-family="Helvetica,sans-Serif" font-size="10.00">+</text>
<text text-anchor="start" x="107" y="-20.5" font-family="Helvetica,sans-Serif" font-size="10.00">Paint()</text>
<text text-anchor="start" x="86" y="-5.5" font-family="Helvetica,sans-Serif" font-size="10.00">+</text>
<text text-anchor="start" x="107" y="-5.5" font-family="Helvetica,sans-Serif" font-size="10.00">ClassDef()</text>
<polygon fill="#666666" stroke="#666666" points="71,-302 71,-302 213,-302 213,-302 71,-302"/>
<polygon fill="#666666" stroke="#666666" points="71,-242 71,-242 105,-242 105,-242 71,-242"/>
<polygon fill="#666666" stroke="#666666" points="105,-242 105,-242 213,-242 213,-242 105,-242"/>
<polygon fill="none" stroke="#666666" points="71,0 71,-330 213,-330 213,0 71,0"/>
</a>
</g>
</g>
<!-- Node2 -->
<g id="Node000002" class="node">
<title>Node2</title>
<g id="a_Node000002"><a xlink:title=" ">
<polygon fill="white" stroke="none" points="188.5,-1127.5 141.5,-1127.5 141.5,-1078.5 188.5,-1078.5 188.5,-1127.5"/>
<text text-anchor="start" x="146.25" y="-1114" font-family="Helvetica,sans-Serif" font-size="10.00">TNamed</text>
<text text-anchor="start" x="163.5" y="-1099" font-family="Helvetica,sans-Serif" font-size="10.00"> </text>
<text text-anchor="start" x="163.5" y="-1084" font-family="Helvetica,sans-Serif" font-size="10.00"> </text>
<polygon fill="#666666" stroke="#666666" points="141.5,-1110.5 141.5,-1110.5 188.5,-1110.5 188.5,-1110.5 141.5,-1110.5"/>
<polygon fill="#666666" stroke="#666666" points="141.5,-1095.5 141.5,-1095.5 188.5,-1095.5 188.5,-1095.5 141.5,-1095.5"/>
<polygon fill="none" stroke="#666666" points="141.5,-1078.5 141.5,-1127.5 188.5,-1127.5 188.5,-1078.5 141.5,-1078.5"/>
</a>
</g>
</g>
<!-- Node2&#45;&gt;Node1 -->
<g id="edge1_Node000001_Node000002" class="edge">
<title>Node2&#45;&gt;Node1</title>
<g id="a_edge1_Node000001_Node000002"><a xlink:title=" ">
<path fill="none" stroke="#63b8ff" d="M130.94,-1093.21C103.36,-1084.42 65.37,-1068.3 42,-1041.5 3.07,-996.85 0,-974.24 0,-915 0,-915 0,-915 0,-411.75 0,-348.68 35.5,-287.24 71,-241.57"/>
<polygon fill="none" stroke="#63b8ff" points="129.65,-1096.47 140.24,-1095.99 131.66,-1089.77 129.65,-1096.47"/>
</a>
</g>
</g>
<!-- Node6 -->
<g id="Node000006" class="node">
<title>Node6</title>
<g id="a_Node000006"><a xlink:href="../../d3/d4b/class_gam_r_1_1_nucleus_1_1_level_scheme_fitter_1_1_state.html" target="_top" xlink:title=" ">
<polygon fill="white" stroke="none" points="465,-1041.5 323,-1041.5 323,-786.5 465,-786.5 465,-1041.5"/>
<text text-anchor="start" x="327.62" y="-1028" font-family="Helvetica,sans-Serif" font-size="10.00">GamR::Nucleus::LevelScheme</text>
<text text-anchor="start" x="368.88" y="-1016.75" font-family="Helvetica,sans-Serif" font-size="10.00">Fitter::State</text>
<text text-anchor="start" x="335.5" y="-1002" font-family="Helvetica,sans-Serif" font-size="10.00">+</text>
<text text-anchor="start" x="354" y="-1002" font-family="Helvetica,sans-Serif" font-size="10.00">index</text>
<text text-anchor="start" x="335.5" y="-987" font-family="Helvetica,sans-Serif" font-size="10.00">+</text>
<text text-anchor="start" x="354" y="-987" font-family="Helvetica,sans-Serif" font-size="10.00">fEnergy</text>
<text text-anchor="start" x="335.5" y="-972" font-family="Helvetica,sans-Serif" font-size="10.00">+</text>
<text text-anchor="start" x="354" y="-972" font-family="Helvetica,sans-Serif" font-size="10.00">fUncertainty</text>
<text text-anchor="start" x="335.5" y="-957" font-family="Helvetica,sans-Serif" font-size="10.00">+</text>
<text text-anchor="start" x="354" y="-957" font-family="Helvetica,sans-Serif" font-size="10.00">fDrawPos</text>
<text text-anchor="start" x="335.5" y="-942" font-family="Helvetica,sans-Serif" font-size="10.00">+</text>
<text text-anchor="start" x="354" y="-942" font-family="Helvetica,sans-Serif" font-size="10.00">fLabelPos</text>
<text text-anchor="start" x="335.5" y="-927" font-family="Helvetica,sans-Serif" font-size="10.00">+</text>
<text text-anchor="start" x="354" y="-927" font-family="Helvetica,sans-Serif" font-size="10.00">fLabel</text>
<text text-anchor="start" x="335.5" y="-912" font-family="Helvetica,sans-Serif" font-size="10.00">+</text>
<text text-anchor="start" x="354" y="-912" font-family="Helvetica,sans-Serif" font-size="10.00">State()</text>
<text text-anchor="start" x="335.5" y="-897" font-family="Helvetica,sans-Serif" font-size="10.00">+</text>
<text text-anchor="start" x="354" y="-897" font-family="Helvetica,sans-Serif" font-size="10.00">State()</text>
<text text-anchor="start" x="335.5" y="-882" font-family="Helvetica,sans-Serif" font-size="10.00">+</text>
<text text-anchor="start" x="354" y="-882" font-family="Helvetica,sans-Serif" font-size="10.00">~State()</text>
<text text-anchor="start" x="335.5" y="-867" font-family="Helvetica,sans-Serif" font-size="10.00">+</text>
<text text-anchor="start" x="354" y="-867" font-family="Helvetica,sans-Serif" font-size="10.00">DistancetoPrimitive()</text>
<text text-anchor="start" x="335.5" y="-852" font-family="Helvetica,sans-Serif" font-size="10.00">+</text>
<text text-anchor="start" x="354" y="-852" font-family="Helvetica,sans-Serif" font-size="10.00">ExecuteEvent()</text>
<text text-anchor="start" x="335.5" y="-837" font-family="Helvetica,sans-Serif" font-size="10.00">+</text>
<text text-anchor="start" x="354" y="-837" font-family="Helvetica,sans-Serif" font-size="10.00">Paint()</text>
<text text-anchor="start" x="335.5" y="-822" font-family="Helvetica,sans-Serif" font-size="10.00">+</text>
<text text-anchor="start" x="354" y="-822" font-family="Helvetica,sans-Serif" font-size="10.00">operator&lt;()</text>
<text text-anchor="start" x="335.5" y="-807" font-family="Helvetica,sans-Serif" font-size="10.00">+</text>
<text text-anchor="start" x="354" y="-807" font-family="Helvetica,sans-Serif" font-size="10.00">operator==()</text>
<text text-anchor="start" x="335.5" y="-792" font-family="Helvetica,sans-Serif" font-size="10.00">+</text>
<text text-anchor="start" x="354" y="-792" font-family="Helvetica,sans-Serif" font-size="10.00">ClassDef()</text>
<polygon fill="#666666" stroke="#666666" points="323,-1013.5 323,-1013.5 465,-1013.5 465,-1013.5 323,-1013.5"/>
<polygon fill="#666666" stroke="#666666" points="323,-923.5 323,-923.5 352,-923.5 352,-923.5 323,-923.5"/>
<polygon fill="#666666" stroke="#666666" points="352,-923.5 352,-923.5 465,-923.5 465,-923.5 352,-923.5"/>
<polygon fill="none" stroke="#666666" points="323,-786.5 323,-1041.5 465,-1041.5 465,-786.5 323,-786.5"/>
</a>
</g>
</g>
<!-- Node2&#45;&gt;Node6 -->
<g id="edge6_Node000006_Node000002" class="edge">
<title>Node2&#45;&gt;Node6</title>
<g id="a_edge6_Node000006_Node000002"><a xlink:title=" ">
<path fill="none" stroke="#63b8ff" d="M196.86,-1075.98C229.38,-1049.43 280.92,-1007.34 323.15,-972.86"/>
<polygon fill="none" stroke="#63b8ff" points="194.92,-1073.05 189.39,-1082.08 199.35,-1078.47 194.92,-1073.05"/>
</a>
</g>
</g>
<!-- Node3 -->
<g id="Node000003" class="node">
<title>Node3</title>
<g id="a_Node000003"><a xlink:title=" ">
<polygon fill="white" stroke="none" points="214.5,-448.25 69.5,-448.25 69.5,-377.25 214.5,-377.25 214.5,-448.25"/>
<text text-anchor="start" x="74.5" y="-434.75" font-family="Helvetica,sans-Serif" font-size="10.00">std::map&lt; std::string,</text>
<text text-anchor="start" x="74.5" y="-423.5" font-family="Helvetica,sans-Serif" font-size="10.00"> GamR::Nucleus::LevelScheme</text>
<text text-anchor="start" x="112.75" y="-412.25" font-family="Helvetica,sans-Serif" font-size="10.00">Fitter::State &gt;</text>
<text text-anchor="start" x="140.5" y="-397.75" font-family="Helvetica,sans-Serif" font-size="10.00"> </text>
<text text-anchor="start" x="140.5" y="-382.75" font-family="Helvetica,sans-Serif" font-size="10.00"> </text>
<polygon fill="#666666" stroke="#666666" points="69.5,-409.25 69.5,-409.25 214.5,-409.25 214.5,-409.25 69.5,-409.25"/>
<polygon fill="#666666" stroke="#666666" points="69.5,-394.25 69.5,-394.25 214.5,-394.25 214.5,-394.25 69.5,-394.25"/>
<polygon fill="none" stroke="#666666" points="69.5,-377.25 69.5,-448.25 214.5,-448.25 214.5,-377.25 69.5,-377.25"/>
</a>
</g>
</g>
<!-- Node3&#45;&gt;Node1 -->
<g id="edge2_Node000001_Node000003" class="edge">
<title>Node3&#45;&gt;Node1</title>
<g id="a_edge2_Node000001_Node000003"><a xlink:title=" ">
<path fill="none" stroke="#63b8ff" d="M142,-377.32C142,-367.26 142,-355.53 142,-342.83"/>
<polygon fill="none" stroke="#63b8ff" points="142,-342.74 138,-336.74 142,-330.74 146,-336.74 142,-342.74"/>
</a>
</g>
<text text-anchor="middle" x="161.88" y="-349.75" font-family="Helvetica,sans-Serif" font-size="10.00" fill="grey"> +fStates</text>
</g>
<!-- Node4 -->
<g id="Node000004" class="node">
<title>Node4</title>
<g id="a_Node000004"><a xlink:title=" ">
<polygon fill="white" stroke="none" points="197,-647.5 145,-647.5 145,-598.5 197,-598.5 197,-647.5"/>
<text text-anchor="start" x="150" y="-634" font-family="Helvetica,sans-Serif" font-size="10.00">std::string</text>
<text text-anchor="start" x="169.5" y="-619" font-family="Helvetica,sans-Serif" font-size="10.00"> </text>
<text text-anchor="start" x="169.5" y="-604" font-family="Helvetica,sans-Serif" font-size="10.00"> </text>
<polygon fill="#666666" stroke="#666666" points="145,-630.5 145,-630.5 197,-630.5 197,-630.5 145,-630.5"/>
<polygon fill="#666666" stroke="#666666" points="145,-615.5 145,-615.5 197,-615.5 197,-615.5 145,-615.5"/>
<polygon fill="none" stroke="#666666" points="145,-598.5 145,-647.5 197,-647.5 197,-598.5 145,-598.5"/>
</a>
</g>
</g>
<!-- Node4&#45;&gt;Node3 -->
<g id="edge3_Node000003_Node000004" class="edge">
<title>Node4&#45;&gt;Node3</title>
<g id="a_edge3_Node000003_Node000004"><a xlink:title=" ">
<path fill="none" stroke="#63b8ff" d="M171.85,-598.75C172.48,-568.04 171.89,-512.47 162,-466.25 161.58,-464.28 161.09,-462.28 160.56,-460.28"/>
<polygon fill="none" stroke="#63b8ff" points="160.58,-460.36 154.99,-455.81 157.04,-448.89 162.63,-453.44 160.58,-460.36"/>
</a>
</g>
<text text-anchor="middle" x="182.25" y="-479.25" font-family="Helvetica,sans-Serif" font-size="10.00" fill="grey"> +keys</text>
</g>
<!-- Node5 -->
<g id="Node000005" class="node">
<title>Node5</title>
<g id="a_Node000005"><a xlink:title=" ">
<polygon fill="white" stroke="none" points="223,-944 137,-944 137,-884 223,-884 223,-944"/>
<text text-anchor="start" x="141.75" y="-930.5" font-family="Helvetica,sans-Serif" font-size="10.00">std::basic_string&lt;</text>
<text text-anchor="start" x="164.62" y="-919.25" font-family="Helvetica,sans-Serif" font-size="10.00"> Char &gt;</text>
<text text-anchor="start" x="178.5" y="-904.5" font-family="Helvetica,sans-Serif" font-size="10.00"> </text>
<text text-anchor="start" x="178.5" y="-889.5" font-family="Helvetica,sans-Serif" font-size="10.00"> </text>
<polygon fill="#666666" stroke="#666666" points="137,-916 137,-916 223,-916 223,-916 137,-916"/>
<polygon fill="#666666" stroke="#666666" points="137,-901 137,-901 223,-901 223,-901 137,-901"/>
<polygon fill="none" stroke="#666666" points="137,-884 137,-944 223,-944 223,-884 137,-884"/>
</a>
</g>
</g>
<!-- Node5&#45;&gt;Node4 -->
<g id="edge4_Node000004_Node000005" class="edge">
<title>Node5&#45;&gt;Node4</title>
<g id="a_edge4_Node000004_Node000005"><a xlink:title=" ">
<path fill="none" stroke="#63b8ff" d="M178.76,-873.1C176.85,-811.85 173.26,-696.6 171.73,-647.32"/>
<polygon fill="none" stroke="#63b8ff" points="175.25,-872.83 179.06,-882.72 182.24,-872.62 175.25,-872.83"/>
</a>
</g>
</g>
<!-- Node6&#45;&gt;Node3 -->
<g id="edge5_Node000003_Node000006" class="edge">
<title>Node6&#45;&gt;Node3</title>
<g id="a_edge5_Node000003_Node000006"><a xlink:title=" ">
<path fill="none" stroke="#63b8ff" d="M398.31,-786.74C401.24,-662.93 401.33,-489.43 380,-466.25 358.31,-442.68 273.82,-454.6 226.59,-448.1"/>
<polygon fill="none" stroke="#63b8ff" points="226.72,-448.13 220.07,-450.91 214.94,-445.83 221.6,-443.05 226.72,-448.13"/>
</a>
</g>
<text text-anchor="middle" x="423" y="-619.12" font-family="Helvetica,sans-Serif" font-size="10.00" fill="grey"> +elements</text>
</g>
<!-- Node12 -->
<g id="Node000012" class="node">
<title>Node12</title>
<g id="a_Node000012"><a xlink:href="../../d7/df7/class_gam_r_1_1_nucleus_1_1_level_scheme_fitter_1_1_transition.html" target="_top" xlink:title=" ">
<polygon fill="white" stroke="none" points="602,-728 460,-728 460,-518 602,-518 602,-728"/>
<text text-anchor="start" x="464.62" y="-714.5" font-family="Helvetica,sans-Serif" font-size="10.00">GamR::Nucleus::LevelScheme</text>
<text text-anchor="start" x="496.12" y="-703.25" font-family="Helvetica,sans-Serif" font-size="10.00">Fitter::Transition</text>
<text text-anchor="start" x="472.5" y="-688.5" font-family="Helvetica,sans-Serif" font-size="10.00">+</text>
<text text-anchor="start" x="491" y="-688.5" font-family="Helvetica,sans-Serif" font-size="10.00">fEnergy</text>
<text text-anchor="start" x="472.5" y="-673.5" font-family="Helvetica,sans-Serif" font-size="10.00">+</text>
<text text-anchor="start" x="491" y="-673.5" font-family="Helvetica,sans-Serif" font-size="10.00">fUncertainty</text>
<text text-anchor="start" x="472.5" y="-658.5" font-family="Helvetica,sans-Serif" font-size="10.00">+</text>
<text text-anchor="start" x="491" y="-658.5" font-family="Helvetica,sans-Serif" font-size="10.00">fLabel</text>
<text text-anchor="start" x="472.5" y="-643.5" font-family="Helvetica,sans-Serif" font-size="10.00">+</text>
<text text-anchor="start" x="491" y="-643.5" font-family="Helvetica,sans-Serif" font-size="10.00">Transition()</text>
<text text-anchor="start" x="472.5" y="-628.5" font-family="Helvetica,sans-Serif" font-size="10.00">+</text>
<text text-anchor="start" x="491" y="-628.5" font-family="Helvetica,sans-Serif" font-size="10.00">Transition()</text>
<text text-anchor="start" x="472.5" y="-613.5" font-family="Helvetica,sans-Serif" font-size="10.00">+</text>
<text text-anchor="start" x="491" y="-613.5" font-family="Helvetica,sans-Serif" font-size="10.00">~Transition()</text>
<text text-anchor="start" x="472.5" y="-598.5" font-family="Helvetica,sans-Serif" font-size="10.00">+</text>
<text text-anchor="start" x="491" y="-598.5" font-family="Helvetica,sans-Serif" font-size="10.00">Paint()</text>
<text text-anchor="start" x="472.5" y="-583.5" font-family="Helvetica,sans-Serif" font-size="10.00">+</text>
<text text-anchor="start" x="491" y="-583.5" font-family="Helvetica,sans-Serif" font-size="10.00">DistancetoPrimitive()</text>
<text text-anchor="start" x="472.5" y="-568.5" font-family="Helvetica,sans-Serif" font-size="10.00">+</text>
<text text-anchor="start" x="491" y="-568.5" font-family="Helvetica,sans-Serif" font-size="10.00">ExecuteEvent()</text>
<text text-anchor="start" x="472.5" y="-553.5" font-family="Helvetica,sans-Serif" font-size="10.00">+</text>
<text text-anchor="start" x="491" y="-553.5" font-family="Helvetica,sans-Serif" font-size="10.00">Draw()</text>
<text text-anchor="start" x="472.5" y="-538.5" font-family="Helvetica,sans-Serif" font-size="10.00">+</text>
<text text-anchor="start" x="491" y="-538.5" font-family="Helvetica,sans-Serif" font-size="10.00">operator&lt;()</text>
<text text-anchor="start" x="472.5" y="-523.5" font-family="Helvetica,sans-Serif" font-size="10.00">+</text>
<text text-anchor="start" x="491" y="-523.5" font-family="Helvetica,sans-Serif" font-size="10.00">ClassDef()</text>
<polygon fill="#666666" stroke="#666666" points="460,-700 460,-700 602,-700 602,-700 460,-700"/>
<polygon fill="#666666" stroke="#666666" points="460,-655 460,-655 489,-655 489,-655 460,-655"/>
<polygon fill="#666666" stroke="#666666" points="489,-655 489,-655 602,-655 602,-655 489,-655"/>
<polygon fill="none" stroke="#666666" points="460,-518 460,-728 602,-728 602,-518 460,-518"/>
</a>
</g>
</g>
<!-- Node6&#45;&gt;Node12 -->
<g id="edge14_Node000012_Node000006" class="edge">
<title>Node6&#45;&gt;Node12</title>
<g id="a_edge14_Node000012_Node000006"><a xlink:title=" ">
<path fill="none" stroke="#63b8ff" d="M453.89,-786.66C461.29,-771.05 468.83,-755.15 476.15,-739.7"/>
<polygon fill="none" stroke="#63b8ff" points="476.17,-739.65 475.13,-732.52 481.32,-728.81 482.36,-735.94 476.17,-739.65"/>
</a>
</g>
<text text-anchor="middle" x="486.12" y="-759" font-family="Helvetica,sans-Serif" font-size="10.00" fill="grey"> +fFinal</text>
<text text-anchor="middle" x="486.12" y="-747.75" font-family="Helvetica,sans-Serif" font-size="10.00" fill="grey">+fInitial</text>
</g>
<!-- Node7 -->
<g id="Node000007" class="node">
<title>Node7</title>
<g id="a_Node000007"><a xlink:title=" ">
<polygon fill="white" stroke="none" points="417.5,-1127.5 370.5,-1127.5 370.5,-1078.5 417.5,-1078.5 417.5,-1127.5"/>
<text text-anchor="start" x="375.25" y="-1114" font-family="Helvetica,sans-Serif" font-size="10.00">TAttLine</text>
<text text-anchor="start" x="392.5" y="-1099" font-family="Helvetica,sans-Serif" font-size="10.00"> </text>
<text text-anchor="start" x="392.5" y="-1084" font-family="Helvetica,sans-Serif" font-size="10.00"> </text>
<polygon fill="#666666" stroke="#666666" points="370.5,-1110.5 370.5,-1110.5 417.5,-1110.5 417.5,-1110.5 370.5,-1110.5"/>
<polygon fill="#666666" stroke="#666666" points="370.5,-1095.5 370.5,-1095.5 417.5,-1095.5 417.5,-1095.5 370.5,-1095.5"/>
<polygon fill="none" stroke="#666666" points="370.5,-1078.5 370.5,-1127.5 417.5,-1127.5 417.5,-1078.5 370.5,-1078.5"/>
</a>
</g>
</g>
<!-- Node7&#45;&gt;Node6 -->
<g id="edge7_Node000006_Node000007" class="edge">
<title>Node7&#45;&gt;Node6</title>
<g id="a_edge7_Node000006_Node000007"><a xlink:title=" ">
<path fill="none" stroke="#63b8ff" d="M394,-1067.21C394,-1059.38 394,-1050.62 394,-1041.38"/>
<polygon fill="none" stroke="#63b8ff" points="390.5,-1067.18 394,-1077.18 397.5,-1067.18 390.5,-1067.18"/>
</a>
</g>
</g>
<!-- Node8 -->
<g id="Node000008" class="node">
<title>Node8</title>
<g id="a_Node000008"><a xlink:title=" ">
<polygon fill="white" stroke="none" points="109.5,-647.5 28.5,-647.5 28.5,-598.5 109.5,-598.5 109.5,-647.5"/>
<text text-anchor="start" x="33.38" y="-634" font-family="Helvetica,sans-Serif" font-size="10.00">std::map&lt; K, T &gt;</text>
<text text-anchor="start" x="67.5" y="-619" font-family="Helvetica,sans-Serif" font-size="10.00"> </text>
<text text-anchor="start" x="67.5" y="-604" font-family="Helvetica,sans-Serif" font-size="10.00"> </text>
<polygon fill="#666666" stroke="#666666" points="28.5,-630.5 28.5,-630.5 109.5,-630.5 109.5,-630.5 28.5,-630.5"/>
<polygon fill="#666666" stroke="#666666" points="28.5,-615.5 28.5,-615.5 109.5,-615.5 109.5,-615.5 28.5,-615.5"/>
<polygon fill="none" stroke="#666666" points="28.5,-598.5 28.5,-647.5 109.5,-647.5 109.5,-598.5 28.5,-598.5"/>
</a>
</g>
</g>
<!-- Node8&#45;&gt;Node3 -->
<g id="edge8_Node000003_Node000008" class="edge">
<title>Node8&#45;&gt;Node3</title>
<g id="a_edge8_Node000003_Node000008"><a xlink:title=" ">
<path fill="none" stroke="orange" d="M46.89,-588.85C27.74,-555.57 6.56,-503.98 30.5,-466.25 39.73,-451.71 54.18,-441.12 69.65,-433.44"/>
<polygon fill="orange" stroke="orange" points="43.79,-590.48 51.94,-597.25 49.79,-586.88 43.79,-590.48"/>
</a>
</g>
<text text-anchor="start" x="31" y="-490.5" font-family="Helvetica,sans-Serif" font-size="10.00" fill="grey"> &lt; std::string, GamR</text>
<text text-anchor="start" x="31" y="-479.25" font-family="Helvetica,sans-Serif" font-size="10.00" fill="grey">::Nucleus::LevelSchemeFitter</text>
<text text-anchor="middle" x="94.75" y="-468" font-family="Helvetica,sans-Serif" font-size="10.00" fill="grey">::State &gt;</text>
</g>
<!-- Node9 -->
<g id="Node000009" class="node">
<title>Node9</title>
<g id="a_Node000009"><a xlink:title=" ">
<polygon fill="white" stroke="none" points="67,-938.5 51,-938.5 51,-889.5 67,-889.5 67,-938.5"/>
<text text-anchor="start" x="55.62" y="-925" font-family="Helvetica,sans-Serif" font-size="10.00">K</text>
<text text-anchor="start" x="57.5" y="-910" font-family="Helvetica,sans-Serif" font-size="10.00"> </text>
<text text-anchor="start" x="57.5" y="-895" font-family="Helvetica,sans-Serif" font-size="10.00"> </text>
<polygon fill="#666666" stroke="#666666" points="51,-921.5 51,-921.5 67,-921.5 67,-921.5 51,-921.5"/>
<polygon fill="#666666" stroke="#666666" points="51,-906.5 51,-906.5 67,-906.5 67,-906.5 51,-906.5"/>
<polygon fill="none" stroke="#666666" points="51,-889.5 51,-938.5 67,-938.5 67,-889.5 51,-889.5"/>
</a>
</g>
</g>
<!-- Node9&#45;&gt;Node8 -->
<g id="edge9_Node000008_Node000009" class="edge">
<title>Node9&#45;&gt;Node8</title>
<g id="a_edge9_Node000008_Node000009"><a xlink:title=" ">
<path fill="none" stroke="#63b8ff" d="M58.76,-889.76C58.54,-857.48 58.49,-797.28 60.5,-746 61.63,-717.14 63.96,-684.49 65.9,-660.24"/>
<polygon fill="none" stroke="#63b8ff" points="65.9,-660.22 62.4,-653.92 66.88,-648.26 70.37,-654.57 65.9,-660.22"/>
</a>
</g>
<text text-anchor="middle" x="75.25" y="-753.38" font-family="Helvetica,sans-Serif" font-size="10.00" fill="grey"> +keys</text>
</g>
<!-- Node10 -->
<g id="Node000010" class="node">
<title>Node10</title>
<g id="a_Node000010"><a xlink:title=" ">
<polygon fill="white" stroke="none" points="119,-938.5 103,-938.5 103,-889.5 119,-889.5 119,-938.5"/>
<text text-anchor="start" x="108" y="-925" font-family="Helvetica,sans-Serif" font-size="10.00">T</text>
<text text-anchor="start" x="109.5" y="-910" font-family="Helvetica,sans-Serif" font-size="10.00"> </text>
<text text-anchor="start" x="109.5" y="-895" font-family="Helvetica,sans-Serif" font-size="10.00"> </text>
<polygon fill="#666666" stroke="#666666" points="103,-921.5 103,-921.5 119,-921.5 119,-921.5 103,-921.5"/>
<polygon fill="#666666" stroke="#666666" points="103,-906.5 103,-906.5 119,-906.5 119,-906.5 103,-906.5"/>
<polygon fill="none" stroke="#666666" points="103,-889.5 103,-938.5 119,-938.5 119,-889.5 103,-889.5"/>
</a>
</g>
</g>
<!-- Node10&#45;&gt;Node8 -->
<g id="edge10_Node000008_Node000010" class="edge">
<title>Node10&#45;&gt;Node8</title>
<g id="a_edge10_Node000008_Node000010"><a xlink:title=" ">
<path fill="none" stroke="#63b8ff" d="M108.17,-889.73C104.19,-857.44 96.57,-797.2 89,-746 84.71,-716.98 79.3,-684.17 75.19,-659.89"/>
<polygon fill="none" stroke="#63b8ff" points="75.22,-660.07 70.27,-654.83 73.2,-648.24 78.16,-653.49 75.22,-660.07"/>
</a>
</g>
<text text-anchor="middle" x="116" y="-753.38" font-family="Helvetica,sans-Serif" font-size="10.00" fill="grey"> +elements</text>
</g>
<!-- Node14 -->
<g id="Node000014" class="node">
<title>Node14</title>
<g id="a_Node000014"><a xlink:title=" ">
<polygon fill="white" stroke="none" points="292.5,-647.5 215.5,-647.5 215.5,-598.5 292.5,-598.5 292.5,-647.5"/>
<text text-anchor="start" x="220.25" y="-634" font-family="Helvetica,sans-Serif" font-size="10.00">std::vector&lt; T &gt;</text>
<text text-anchor="start" x="252.5" y="-619" font-family="Helvetica,sans-Serif" font-size="10.00"> </text>
<text text-anchor="start" x="252.5" y="-604" font-family="Helvetica,sans-Serif" font-size="10.00"> </text>
<polygon fill="#666666" stroke="#666666" points="215.5,-630.5 215.5,-630.5 292.5,-630.5 292.5,-630.5 215.5,-630.5"/>
<polygon fill="#666666" stroke="#666666" points="215.5,-615.5 215.5,-615.5 292.5,-615.5 292.5,-615.5 215.5,-615.5"/>
<polygon fill="none" stroke="#666666" points="215.5,-598.5 215.5,-647.5 292.5,-647.5 292.5,-598.5 215.5,-598.5"/>
</a>
</g>
</g>
<!-- Node10&#45;&gt;Node14 -->
<g id="edge16_Node000014_Node000010" class="edge">
<title>Node10&#45;&gt;Node14</title>
<g id="a_edge16_Node000014_Node000010"><a xlink:title=" ">
<path fill="none" stroke="#63b8ff" d="M108.97,-889.82C107.73,-863.06 109.17,-818.61 128,-786.5 138.96,-767.81 192.38,-744.85 206,-728 222.43,-707.67 234.65,-680.79 242.64,-659.46"/>
<polygon fill="none" stroke="#63b8ff" points="242.64,-659.47 240.88,-652.47 246.66,-648.16 248.42,-655.15 242.64,-659.47"/>
</a>
</g>
<text text-anchor="middle" x="206" y="-753.38" font-family="Helvetica,sans-Serif" font-size="10.00" fill="grey"> +elements</text>
</g>
<!-- Node11 -->
<g id="Node000011" class="node">
<title>Node11</title>
<g id="a_Node000011"><a xlink:title=" ">
<polygon fill="white" stroke="none" points="365.5,-448.25 232.5,-448.25 232.5,-377.25 365.5,-377.25 365.5,-448.25"/>
<text text-anchor="start" x="237.5" y="-434.75" font-family="Helvetica,sans-Serif" font-size="10.00">std::vector&lt; GamR::</text>
<text text-anchor="start" x="237.5" y="-423.5" font-family="Helvetica,sans-Serif" font-size="10.00">Nucleus::LevelSchemeFitter</text>
<text text-anchor="start" x="271.25" y="-412.25" font-family="Helvetica,sans-Serif" font-size="10.00">::Transition &gt;</text>
<text text-anchor="start" x="297.5" y="-397.75" font-family="Helvetica,sans-Serif" font-size="10.00"> </text>
<text text-anchor="start" x="297.5" y="-382.75" font-family="Helvetica,sans-Serif" font-size="10.00"> </text>
<polygon fill="#666666" stroke="#666666" points="232.5,-409.25 232.5,-409.25 365.5,-409.25 365.5,-409.25 232.5,-409.25"/>
<polygon fill="#666666" stroke="#666666" points="232.5,-394.25 232.5,-394.25 365.5,-394.25 365.5,-394.25 232.5,-394.25"/>
<polygon fill="none" stroke="#666666" points="232.5,-377.25 232.5,-448.25 365.5,-448.25 365.5,-377.25 232.5,-377.25"/>
</a>
</g>
</g>
<!-- Node11&#45;&gt;Node1 -->
<g id="edge11_Node000001_Node000011" class="edge">
<title>Node11&#45;&gt;Node1</title>
<g id="a_edge11_Node000001_Node000011"><a xlink:title=" ">
<path fill="none" stroke="#63b8ff" d="M277,-377.32C261.85,-353.6 240.72,-320.53 219.67,-287.58"/>
<polygon fill="none" stroke="#63b8ff" points="219.79,-287.77 213.19,-284.86 213.33,-277.65 219.93,-280.56 219.79,-287.77"/>
</a>
</g>
<text text-anchor="middle" x="295.62" y="-349.75" font-family="Helvetica,sans-Serif" font-size="10.00" fill="grey"> +fTransitions</text>
</g>
<!-- Node12&#45;&gt;Node11 -->
<g id="edge12_Node000011_Node000012" class="edge">
<title>Node12&#45;&gt;Node11</title>
<g id="a_edge12_Node000011_Node000012"><a xlink:title=" ">
<path fill="none" stroke="#63b8ff" d="M460.03,-518.3C444.29,-499.55 426.69,-481.23 408,-466.25 398.51,-458.65 387.74,-451.8 376.75,-445.75"/>
<polygon fill="none" stroke="#63b8ff" points="376.7,-445.72 369.53,-446.48 366.07,-440.16 373.24,-439.39 376.7,-445.72"/>
</a>
</g>
<text text-anchor="middle" x="467" y="-479.25" font-family="Helvetica,sans-Serif" font-size="10.00" fill="grey"> +elements</text>
</g>
<!-- Node13 -->
<g id="Node000013" class="node">
<title>Node13</title>
<g id="a_Node000013"><a xlink:title=" ">
<polygon fill="white" stroke="none" points="551.5,-938.5 510.5,-938.5 510.5,-889.5 551.5,-889.5 551.5,-938.5"/>
<text text-anchor="start" x="515.25" y="-925" font-family="Helvetica,sans-Serif" font-size="10.00">TArrow</text>
<text text-anchor="start" x="529.5" y="-910" font-family="Helvetica,sans-Serif" font-size="10.00"> </text>
<text text-anchor="start" x="529.5" y="-895" font-family="Helvetica,sans-Serif" font-size="10.00"> </text>
<polygon fill="#666666" stroke="#666666" points="510.5,-921.5 510.5,-921.5 551.5,-921.5 551.5,-921.5 510.5,-921.5"/>
<polygon fill="#666666" stroke="#666666" points="510.5,-906.5 510.5,-906.5 551.5,-906.5 551.5,-906.5 510.5,-906.5"/>
<polygon fill="none" stroke="#666666" points="510.5,-889.5 510.5,-938.5 551.5,-938.5 551.5,-889.5 510.5,-889.5"/>
</a>
</g>
</g>
<!-- Node13&#45;&gt;Node12 -->
<g id="edge13_Node000012_Node000013" class="edge">
<title>Node13&#45;&gt;Node12</title>
<g id="a_edge13_Node000012_Node000013"><a xlink:title=" ">
<path fill="none" stroke="#63b8ff" d="M531,-878.68C531,-841.61 531,-780.75 531,-727.82"/>
<polygon fill="none" stroke="#63b8ff" points="527.5,-878.32 531,-888.32 534.5,-878.32 527.5,-878.32"/>
</a>
</g>
</g>
<!-- Node14&#45;&gt;Node11 -->
<g id="edge15_Node000011_Node000014" class="edge">
<title>Node14&#45;&gt;Node11</title>
<g id="a_edge15_Node000011_Node000014"><a xlink:title=" ">
<path fill="none" stroke="orange" d="M261.49,-587.34C269.83,-548.73 283.24,-486.7 291.56,-448.18"/>
<polygon fill="orange" stroke="orange" points="258.09,-586.52 259.39,-597.04 264.93,-588 258.09,-586.52"/>
</a>
</g>
<text text-anchor="start" x="287" y="-484.88" font-family="Helvetica,sans-Serif" font-size="10.00" fill="grey"> &lt; GamR::Nucleus::LevelScheme</text>
<text text-anchor="middle" x="358.62" y="-473.62" font-family="Helvetica,sans-Serif" font-size="10.00" fill="grey">Fitter::Transition &gt;</text>
</g>
</g>
</svg>

<g id="navigator" transform="translate(0 0)" fill="#404254">
  <rect fill="#f2f5e9" fill-opacity="0.5" stroke="#606060" stroke-width=".5" x="0" y="0" width="60" height="60"/>
  <use id="zoomplus" xlink:href="#zoomPlus" x="17" y="9" onmousedown="handleZoom(evt,'in')"/>
  <use id="zoomminus" xlink:href="#zoomMin" x="42" y="9" onmousedown="handleZoom(evt,'out')"/>
  <use id="reset" xlink:href="#resetDef" x="30" y="36" onmousedown="handleReset()"/>
   <use id="arrowup" xlink:href="#arrowUp" x="0" y="0" onmousedown="handlePan(0,-1)"/>
  <use id="arrowright" xlink:href="#arrowRight" x="0" y="0" onmousedown="handlePan(1,0)"/>
  <use id="arrowdown" xlink:href="#arrowDown" x="0" y="0" onmousedown="handlePan(0,1)"/>
  <use id="arrowleft" xlink:href="#arrowLeft" x="0" y="0" onmousedown="handlePan(-1,0)"/>
</g>
<svg viewBox="0 0 15 15" width="100%" height="30px" preserveAspectRatio="xMaxYMin meet">
 <g id="arrow_out" transform="scale(0.3 0.3)">
  <a xlink:href="class_gam_r_1_1_nucleus_1_1_level_scheme_fitter_1_1_scheme__coll__graph_org.svg" target="_base">
   <rect id="button" ry="5" rx="5" y="6" x="6" height="38" width="38"
        fill="#f2f5e9" fill-opacity="0.5" stroke="#606060" stroke-width="1.0"/>
   <path id="arrow"
     d="M 11.500037,31.436501 C 11.940474,20.09759 22.043105,11.32322 32.158766,21.979434 L 37.068811,17.246167 C 37.068811,17.246167 37.088388,32 37.088388,32 L 22.160133,31.978069 C 22.160133,31.978069 26.997745,27.140456 26.997745,27.140456 C 18.528582,18.264221 13.291696,25.230495 11.500037,31.436501 z"
     style="fill:#404040;"/>
  </a>
 </g>
</svg>

<style type='text/css'>
<![CDATA[
[data-mouse-over-selected='false'] { opacity: 0.7; }
[data-mouse-over-selected='true']  { opacity: 1.0; }
]]>
</style>
<script type="application/ecmascript"><![CDATA[
document.addEventListener('DOMContentLoaded', (event) => {
  highlightEdges();
  highlightAdjacentNodes();
});
]]></script>
</svg>
