<?xml version="1.0" encoding="UTF-8" standalone="no"?>
<!DOCTYPE svg PUBLIC "-//W3C//DTD SVG 1.1//EN"
 "http://www.w3.org/Graphics/SVG/1.1/DTD/svg11.dtd">
<!-- Generated by graphviz version 2.49.3 (20211023.0002)
 -->
<!-- Title: os Pages: 1 -->
<svg width="405pt" height="46pt"
 viewBox="0.00 0.00 405.00 46.00" xmlns="http://www.w3.org/2000/svg" xmlns:xlink="http://www.w3.org/1999/xlink">
<g id="graph0" class="graph" transform="scale(1 1) rotate(0) translate(4 42)">
<title>os</title>
<polygon fill="white" stroke="transparent" points="-4,4 -4,-42 401,-42 401,4 -4,4"/>
<!-- Node1 -->
<g id="node1" class="node">
<title>Node1</title>
<g id="a_node1"><a xlink:title=" ">
<polygon fill="#bfbfbf" stroke="black" points="0,-0.5 0,-19.5 29,-19.5 29,-0.5 0,-0.5"/>
<text text-anchor="middle" x="14.5" y="-7.5" font-family="Helvetica,sans-Serif" font-size="10.00">os</text>
</a>
</g>
</g>
<!-- Node2 -->
<g id="node2" class="node">
<title>Node2</title>
<g id="a_node2"><a xlink:href="../../dc/d89/namespace_gam_r_1_1_spect.html#a9baa566867cd3f57cd8b1e5c0137ef3e" target="_top" xlink:title=" ">
<polygon fill="white" stroke="black" points="65,-0.5 65,-19.5 216,-19.5 216,-0.5 65,-0.5"/>
<text text-anchor="middle" x="140.5" y="-7.5" font-family="Helvetica,sans-Serif" font-size="10.00">GamR::Spect::OverlaySpectra</text>
</a>
</g>
</g>
<!-- Node1&#45;&gt;Node2 -->
<g id="edge1" class="edge">
<title>Node1&#45;&gt;Node2</title>
<path fill="none" stroke="midnightblue" d="M29.24,-10C36.1,-10 45.02,-10 54.81,-10"/>
<polygon fill="midnightblue" stroke="midnightblue" points="54.86,-13.5 64.86,-10 54.86,-6.5 54.86,-13.5"/>
</g>
<!-- Node2&#45;&gt;Node2 -->
<g id="edge3" class="edge">
<title>Node2&#45;&gt;Node2</title>
<path fill="none" stroke="midnightblue" d="M121.08,-19.76C111.63,-28.57 118.11,-38 140.5,-38 154.85,-38 162.66,-34.13 163.94,-29.03"/>
<polygon fill="midnightblue" stroke="midnightblue" points="167.11,-27.54 159.92,-19.76 160.68,-30.32 167.11,-27.54"/>
</g>
<!-- Node3 -->
<g id="node3" class="node">
<title>Node3</title>
<g id="a_node3"><a xlink:href="../../dc/d89/namespace_gam_r_1_1_spect.html#a56e80bce5bf691212c8b7dfb76c2d2b4" target="_top" xlink:title=" ">
<polygon fill="white" stroke="black" points="252,-0.5 252,-19.5 397,-19.5 397,-0.5 252,-0.5"/>
<text text-anchor="middle" x="324.5" y="-7.5" font-family="Helvetica,sans-Serif" font-size="10.00">GamR::Spect::List1DSpectra</text>
</a>
</g>
</g>
<!-- Node2&#45;&gt;Node3 -->
<g id="edge2" class="edge">
<title>Node2&#45;&gt;Node3</title>
<path fill="none" stroke="midnightblue" d="M216.05,-10C224.43,-10 232.99,-10 241.46,-10"/>
<polygon fill="midnightblue" stroke="midnightblue" points="241.71,-13.5 251.71,-10 241.71,-6.5 241.71,-13.5"/>
</g>
</g>
</svg>
