<?xml version="1.0" encoding="UTF-8" standalone="no"?>
<!DOCTYPE svg PUBLIC "-//W3C//DTD SVG 1.1//EN"
 "http://www.w3.org/Graphics/SVG/1.1/DTD/svg11.dtd">
<!-- Generated by graphviz version 2.49.3 (20211023.0002)
 -->
<!-- Title: igbs Pages: 1 -->
<svg width="380pt" height="88pt"
 viewBox="0.00 0.00 380.00 88.00" xmlns="http://www.w3.org/2000/svg" xmlns:xlink="http://www.w3.org/1999/xlink">
<g id="graph0" class="graph" transform="scale(1 1) rotate(0) translate(4 84)">
<title>igbs</title>
<polygon fill="white" stroke="transparent" points="-4,4 -4,-84 376,-84 376,4 -4,4"/>
<!-- Node1 -->
<g id="node1" class="node">
<title>Node1</title>
<g id="a_node1"><a xlink:title=" ">
<polygon fill="#bfbfbf" stroke="black" points="0,-30 0,-49 35,-49 35,-30 0,-30"/>
<text text-anchor="middle" x="17.5" y="-37" font-family="Helvetica,sans-Serif" font-size="10.00">igbs</text>
</a>
</g>
</g>
<!-- Node2 -->
<g id="node2" class="node">
<title>Node2</title>
<g id="a_node2"><a xlink:href="../../dc/d89/namespace_gam_r_1_1_spect.html#a96b06b9b004342fbf0f54cd3d6a308a8" target="_top" xlink:title=" ">
<polygon fill="white" stroke="black" points="71,-30 71,-49 200,-49 200,-30 71,-30"/>
<text text-anchor="middle" x="135.5" y="-37" font-family="Helvetica,sans-Serif" font-size="10.00">GamR::Spect::IntegralBS</text>
</a>
</g>
</g>
<!-- Node1&#45;&gt;Node2 -->
<g id="edge1" class="edge">
<title>Node1&#45;&gt;Node2</title>
<path fill="none" stroke="midnightblue" d="M35.12,-39.5C42.28,-39.5 51.2,-39.5 60.73,-39.5"/>
<polygon fill="midnightblue" stroke="midnightblue" points="60.83,-43 70.83,-39.5 60.83,-36 60.83,-43"/>
</g>
<!-- Node3 -->
<g id="node3" class="node">
<title>Node3</title>
<g id="a_node3"><a xlink:href="../../df/d6f/class_gam_r_1_1_nucleus_1_1_transition.html#a3565d6396e4ff99984e83a27e2ab35ce" target="_top" xlink:title=" ">
<polygon fill="white" stroke="black" points="236,-49.5 236,-79.5 372,-79.5 372,-49.5 236,-49.5"/>
<text text-anchor="start" x="244" y="-67.5" font-family="Helvetica,sans-Serif" font-size="10.00">GamR::Nucleus::Transition</text>
<text text-anchor="middle" x="304" y="-56.5" font-family="Helvetica,sans-Serif" font-size="10.00">::Apply</text>
</a>
</g>
</g>
<!-- Node2&#45;&gt;Node3 -->
<g id="edge2" class="edge">
<title>Node2&#45;&gt;Node3</title>
<path fill="none" stroke="midnightblue" d="M199.92,-49.02C208.38,-50.29 217.12,-51.61 225.78,-52.91"/>
<polygon fill="midnightblue" stroke="midnightblue" points="225.47,-56.4 235.88,-54.42 226.51,-49.48 225.47,-56.4"/>
</g>
<!-- Node4 -->
<g id="node4" class="node">
<title>Node4</title>
<g id="a_node4"><a xlink:href="../../df/d6f/class_gam_r_1_1_nucleus_1_1_transition.html#a8054df5976ecd1f68768286918001af5" target="_top" xlink:title=" ">
<polygon fill="white" stroke="black" points="236,-0.5 236,-30.5 372,-30.5 372,-0.5 236,-0.5"/>
<text text-anchor="start" x="244" y="-18.5" font-family="Helvetica,sans-Serif" font-size="10.00">GamR::Nucleus::Transition</text>
<text text-anchor="middle" x="304" y="-7.5" font-family="Helvetica,sans-Serif" font-size="10.00">::ApplyError</text>
</a>
</g>
</g>
<!-- Node2&#45;&gt;Node4 -->
<g id="edge3" class="edge">
<title>Node2&#45;&gt;Node4</title>
<path fill="none" stroke="midnightblue" d="M200.4,-30.29C208.77,-29.08 217.42,-27.84 225.97,-26.6"/>
<polygon fill="midnightblue" stroke="midnightblue" points="226.56,-30.05 235.96,-25.16 225.56,-23.13 226.56,-30.05"/>
</g>
</g>
</svg>
