<?xml version="1.0" encoding="UTF-8" standalone="no"?>
<!DOCTYPE svg PUBLIC "-//W3C//DTD SVG 1.1//EN"
 "http://www.w3.org/Graphics/SVG/1.1/DTD/svg11.dtd">
<!-- Generated by graphviz version 8.1.0 (20230707.0739)
 -->
<!-- Title: src/lib/angdist/WignerD.hh Pages: 1 -->
<svg width="441pt" height="83pt"
 viewBox="0.00 0.00 441.12 82.50" xmlns="http://www.w3.org/2000/svg" xmlns:xlink="http://www.w3.org/1999/xlink">
<g id="graph0" class="graph" transform="scale(1 1) rotate(0) translate(4 78.5)">
<title>src/lib/angdist/WignerD.hh</title>
<!-- Node1 -->
<g id="Node000001" class="node">
<title>Node1</title>
<g id="a_Node000001"><a xlink:title=" ">
<polygon fill="#999999" stroke="#666666" points="280.12,-74.5 150.88,-74.5 150.88,-55.25 280.12,-55.25 280.12,-74.5"/>
<text text-anchor="middle" x="215.5" y="-61" font-family="Helvetica,sans-Serif" font-size="10.00">src/lib/angdist/WignerD.hh</text>
</a>
</g>
</g>
<!-- Node2 -->
<g id="Node000002" class="node">
<title>Node2</title>
<g id="a_Node000002"><a xlink:href="../../df/dbd/_ang_dist_8cc.html" target="_top" xlink:title=" ">
<polygon fill="white" stroke="#666666" points="127,-19.25 0,-19.25 0,0 127,0 127,-19.25"/>
<text text-anchor="middle" x="63.5" y="-5.75" font-family="Helvetica,sans-Serif" font-size="10.00">src/lib/angdist/AngDist.cc</text>
</a>
</g>
</g>
<!-- Node1&#45;&gt;Node2 -->
<g id="edge1_Node000001_Node000002" class="edge">
<title>Node1&#45;&gt;Node2</title>
<g id="a_edge1_Node000001_Node000002"><a xlink:title=" ">
<path fill="none" stroke="#63b8ff" d="M179.63,-51.31C151.93,-41.6 114.24,-28.4 89.41,-19.7"/>
<polygon fill="#63b8ff" stroke="#63b8ff" points="178.12,-54.84 188.72,-54.84 180.43,-48.23 178.12,-54.84"/>
</a>
</g>
</g>
<!-- Node3 -->
<g id="Node000003" class="node">
<title>Node3</title>
<g id="a_Node000003"><a xlink:href="../../dd/dbc/_stat_tensor_8cc.html" target="_top" xlink:title=" ">
<polygon fill="white" stroke="#666666" points="285.75,-19.25 145.25,-19.25 145.25,0 285.75,0 285.75,-19.25"/>
<text text-anchor="middle" x="215.5" y="-5.75" font-family="Helvetica,sans-Serif" font-size="10.00">src/lib/angdist/StatTensor.cc</text>
</a>
</g>
</g>
<!-- Node1&#45;&gt;Node3 -->
<g id="edge2_Node000001_Node000003" class="edge">
<title>Node1&#45;&gt;Node3</title>
<g id="a_edge2_Node000001_Node000003"><a xlink:title=" ">
<path fill="none" stroke="#63b8ff" d="M215.5,-44.21C215.5,-35.77 215.5,-26.33 215.5,-19.61"/>
<polygon fill="#63b8ff" stroke="#63b8ff" points="212,-44.08 215.5,-54.08 219,-44.08 212,-44.08"/>
</a>
</g>
</g>
<!-- Node4 -->
<g id="Node000004" class="node">
<title>Node4</title>
<g id="a_Node000004"><a xlink:href="../../d1/db4/_wigner_d_8cc.html" target="_top" xlink:title=" ">
<polygon fill="white" stroke="#666666" points="433.12,-19.25 303.88,-19.25 303.88,0 433.12,0 433.12,-19.25"/>
<text text-anchor="middle" x="368.5" y="-5.75" font-family="Helvetica,sans-Serif" font-size="10.00">src/lib/angdist/WignerD.cc</text>
</a>
</g>
</g>
<!-- Node1&#45;&gt;Node4 -->
<g id="edge3_Node000001_Node000004" class="edge">
<title>Node1&#45;&gt;Node4</title>
<g id="a_edge3_Node000001_Node000004"><a xlink:title=" ">
<path fill="none" stroke="#63b8ff" d="M251.6,-51.31C279.49,-41.6 317.43,-28.4 342.42,-19.7"/>
<polygon fill="#63b8ff" stroke="#63b8ff" points="250.75,-48.25 242.45,-54.84 253.05,-54.86 250.75,-48.25"/>
</a>
</g>
</g>
</g>
</svg>
