<?xml version="1.0" encoding="UTF-8" standalone="no"?>
<!DOCTYPE svg PUBLIC "-//W3C//DTD SVG 1.1//EN"
 "http://www.w3.org/Graphics/SVG/1.1/DTD/svg11.dtd">
<!-- Generated by graphviz version 8.1.0 (20230707.0739)
 -->
<!-- Title: ns Pages: 1 -->
<svg width="547pt" height="119pt"
 viewBox="0.00 0.00 546.80 119.25" xmlns="http://www.w3.org/2000/svg" xmlns:xlink="http://www.w3.org/1999/xlink">
<g id="graph0" class="graph" transform="scale(1 1) rotate(0) translate(4 115.25)">
<title>ns</title>
<!-- Node1 -->
<g id="Node000001" class="node">
<title>Node1</title>
<g id="a_Node000001"><a xlink:title=" ">
<polygon fill="#999999" stroke="#666666" points="28.8,-74.25 0,-74.25 0,-55 28.8,-55 28.8,-74.25"/>
<text text-anchor="middle" x="14.4" y="-60.75" font-family="Helvetica,sans-Serif" font-size="10.00">ns</text>
</a>
</g>
</g>
<!-- Node2 -->
<g id="Node000002" class="node">
<title>Node2</title>
<g id="a_Node000002"><a xlink:href="../../dc/d89/namespace_gam_r_1_1_spect.html#a65d31e04d30d9c24dc657bef81f251bb" target="_top" xlink:title=" ">
<polygon fill="white" stroke="#666666" points="200.8,-74.25 64.8,-74.25 64.8,-55 200.8,-55 200.8,-74.25"/>
<text text-anchor="middle" x="132.8" y="-60.75" font-family="Helvetica,sans-Serif" font-size="10.00">GamR::Spect::NormSpectra</text>
</a>
</g>
</g>
<!-- Node1&#45;&gt;Node2 -->
<g id="edge1_Node000001_Node000002" class="edge">
<title>Node1&#45;&gt;Node2</title>
<g id="a_edge1_Node000001_Node000002"><a xlink:title=" ">
<path fill="none" stroke="#63b8ff" d="M29.21,-64.62C35.86,-64.62 44.42,-64.62 53.74,-64.62"/>
<polygon fill="#63b8ff" stroke="#63b8ff" points="53.54,-68.13 63.54,-64.62 53.54,-61.13 53.54,-68.13"/>
</a>
</g>
</g>
<!-- Node3 -->
<g id="Node000003" class="node">
<title>Node3</title>
<g id="a_Node000003"><a xlink:href="../../d0/db7/namespace_gam_r_1_1_utils.html#a80902df5d8d695b20de04c64ed685df2" target="_top" xlink:title=" ">
<polygon fill="white" stroke="#666666" points="362.3,-111.25 238.3,-111.25 238.3,-92 362.3,-92 362.3,-111.25"/>
<text text-anchor="middle" x="300.3" y="-97.75" font-family="Helvetica,sans-Serif" font-size="10.00">GamR::Utils::GetHists1D</text>
</a>
</g>
</g>
<!-- Node2&#45;&gt;Node3 -->
<g id="edge2_Node000002_Node000003" class="edge">
<title>Node2&#45;&gt;Node3</title>
<g id="a_edge2_Node000002_Node000003"><a xlink:title=" ">
<path fill="none" stroke="#63b8ff" d="M179.02,-74.74C198.91,-79.18 222.46,-84.45 243.43,-89.14"/>
<polygon fill="#63b8ff" stroke="#63b8ff" points="242.61,-92.76 253.13,-91.53 244.14,-85.93 242.61,-92.76"/>
</a>
</g>
</g>
<!-- Node4 -->
<g id="Node000004" class="node">
<title>Node4</title>
<g id="a_Node000004"><a xlink:href="../../d0/d74/group___t_k.html#gab5b438142cc5953f3d17e77e81ec7f2e" target="_top" xlink:title=" ">
<polygon fill="white" stroke="#666666" points="357.8,-74.25 242.8,-74.25 242.8,-55 357.8,-55 357.8,-74.25"/>
<text text-anchor="middle" x="300.3" y="-60.75" font-family="Helvetica,sans-Serif" font-size="10.00">GamR::TK::Gate::Norm</text>
</a>
</g>
</g>
<!-- Node2&#45;&gt;Node4 -->
<g id="edge3_Node000002_Node000004" class="edge">
<title>Node2&#45;&gt;Node4</title>
<g id="a_edge3_Node000002_Node000004"><a xlink:title=" ">
<path fill="none" stroke="#63b8ff" d="M201.12,-64.62C211.17,-64.62 221.54,-64.62 231.6,-64.62"/>
<polygon fill="#63b8ff" stroke="#63b8ff" points="231.37,-68.13 241.37,-64.62 231.37,-61.13 231.37,-68.13"/>
</a>
</g>
</g>
<!-- Node6 -->
<g id="Node000006" class="node">
<title>Node6</title>
<g id="a_Node000006"><a xlink:href="../../d0/d74/group___t_k.html#ga78f4477af7c95058e8a572065086f68a" target="_top" xlink:title=" ">
<polygon fill="white" stroke="#666666" points="363.8,-19.25 236.8,-19.25 236.8,0 363.8,0 363.8,-19.25"/>
<text text-anchor="middle" x="300.3" y="-5.75" font-family="Helvetica,sans-Serif" font-size="10.00">GamR::TK::Gate::SetGate</text>
</a>
</g>
</g>
<!-- Node2&#45;&gt;Node6 -->
<g id="edge5_Node000002_Node000006" class="edge">
<title>Node2&#45;&gt;Node6</title>
<g id="a_edge5_Node000002_Node000006"><a xlink:title=" ">
<path fill="none" stroke="#63b8ff" d="M164.16,-54.54C190.67,-45.73 229.37,-32.86 258.57,-23.16"/>
<polygon fill="#63b8ff" stroke="#63b8ff" points="259.47,-26.22 267.86,-19.74 257.26,-19.57 259.47,-26.22"/>
</a>
</g>
</g>
<!-- Node5 -->
<g id="Node000005" class="node">
<title>Node5</title>
<g id="a_Node000005"><a xlink:href="../../d0/d74/group___t_k.html#gaae543a7d595e5faacbfb4da05718e3f3" target="_top" xlink:title=" ">
<polygon fill="white" stroke="#666666" points="538.8,-74.25 399.8,-74.25 399.8,-55 538.8,-55 538.8,-74.25"/>
<text text-anchor="middle" x="469.3" y="-60.75" font-family="Helvetica,sans-Serif" font-size="10.00">GamR::TK::Gate::GetIntegral</text>
</a>
</g>
</g>
<!-- Node4&#45;&gt;Node5 -->
<g id="edge4_Node000004_Node000005" class="edge">
<title>Node4&#45;&gt;Node5</title>
<g id="a_edge4_Node000004_Node000005"><a xlink:title=" ">
<path fill="none" stroke="#63b8ff" d="M357.84,-64.62C367.74,-64.62 378.21,-64.62 388.6,-64.62"/>
<polygon fill="#63b8ff" stroke="#63b8ff" points="388.37,-68.13 398.37,-64.62 388.37,-61.13 388.37,-68.13"/>
</a>
</g>
</g>
<!-- Node6&#45;&gt;Node6 -->
<g id="edge6_Node000006_Node000006" class="edge">
<title>Node6&#45;&gt;Node6</title>
<g id="a_edge6_Node000006_Node000006"><a xlink:title=" ">
<path fill="none" stroke="#63b8ff" d="M274.08,-19.54C262.12,-28.15 270.86,-37.25 300.3,-37.25 317.78,-37.25 327.97,-34.04 330.85,-29.63"/>
<polygon fill="#63b8ff" stroke="#63b8ff" points="333.68,-28.35 326.52,-20.54 327.25,-31.11 333.68,-28.35"/>
</a>
</g>
</g>
</g>
</svg>
