<?xml version="1.0" encoding="UTF-8" standalone="no"?>
<!DOCTYPE svg PUBLIC "-//W3C//DTD SVG 1.1//EN"
 "http://www.w3.org/Graphics/SVG/1.1/DTD/svg11.dtd">
<!-- Generated by graphviz version 6.0.2 (20221011.1828)
 -->
<!-- Title: ct Pages: 1 -->
<svg width="357pt" height="76pt"
 viewBox="0.00 0.00 357.00 75.50" xmlns="http://www.w3.org/2000/svg" xmlns:xlink="http://www.w3.org/1999/xlink">
<g id="graph0" class="graph" transform="scale(1 1) rotate(0) translate(4 71.5)">
<title>ct</title>
<!-- Node1 -->
<g id="node1" class="node">
<title>Node1</title>
<g id="a_node1"><a xlink:title=" ">
<polygon fill="#999999" stroke="#666666" points="29,-45.5 0,-45.5 0,-26.5 29,-26.5 29,-45.5"/>
<text text-anchor="middle" x="14.5" y="-33.5" font-family="Helvetica,sans-Serif" font-size="10.00">ct</text>
</a>
</g>
</g>
<!-- Node2 -->
<g id="node2" class="node">
<title>Node2</title>
<g id="a_node2"><a xlink:href="../../dc/d89/namespace_gam_r_1_1_spect.html#a100c7a24b9e9670a79f4707d985bd259" target="_top" xlink:title=" ">
<polygon fill="white" stroke="#666666" points="175,-45.5 65,-45.5 65,-26.5 175,-26.5 175,-45.5"/>
<text text-anchor="middle" x="120" y="-33.5" font-family="Helvetica,sans-Serif" font-size="10.00">GamR::Spect::Counts</text>
</a>
</g>
</g>
<!-- Node1&#45;&gt;Node2 -->
<g id="edge1" class="edge">
<title>Node1&#45;&gt;Node2</title>
<path fill="none" stroke="#63b8ff" d="M29.03,-36C35.94,-36 44.91,-36 54.51,-36"/>
<polygon fill="#63b8ff" stroke="#63b8ff" points="54.67,-39.5 64.67,-36 54.67,-32.5 54.67,-39.5"/>
</g>
<!-- Node3 -->
<g id="node3" class="node">
<title>Node3</title>
<g id="a_node3"><a xlink:href="../../d0/d74/group___t_k.html#ga4607d5e3d8f5d83d75f4ca038572a7f8" target="_top" xlink:title=" ">
<polygon fill="white" stroke="#666666" points="349,-67.5 211,-67.5 211,-48.5 349,-48.5 349,-67.5"/>
<text text-anchor="middle" x="280" y="-55.5" font-family="Helvetica,sans-Serif" font-size="10.00">GamR::TK::Gate::GetCounts</text>
</a>
</g>
</g>
<!-- Node2&#45;&gt;Node3 -->
<g id="edge2" class="edge">
<title>Node2&#45;&gt;Node3</title>
<path fill="none" stroke="#63b8ff" d="M175.37,-43.57C183.59,-44.71 192.19,-45.91 200.79,-47.11"/>
<polygon fill="#63b8ff" stroke="#63b8ff" points="200.46,-50.6 210.85,-48.51 201.43,-43.66 200.46,-50.6"/>
</g>
<!-- Node4 -->
<g id="node4" class="node">
<title>Node4</title>
<g id="a_node4"><a xlink:href="../../d0/d74/group___t_k.html#ga0073e987a24adc053cfbf2c833d41749" target="_top" xlink:title=" ">
<polygon fill="white" stroke="#666666" points="349,-30 211,-30 211,0 349,0 349,-30"/>
<text text-anchor="start" x="219" y="-18" font-family="Helvetica,sans-Serif" font-size="10.00">GamR::TK::Gate::GetCounts</text>
<text text-anchor="middle" x="280" y="-7" font-family="Helvetica,sans-Serif" font-size="10.00">Error</text>
</a>
</g>
</g>
<!-- Node2&#45;&gt;Node4 -->
<g id="edge3" class="edge">
<title>Node2&#45;&gt;Node4</title>
<path fill="none" stroke="#63b8ff" d="M175.37,-28.77C183.59,-27.68 192.19,-26.54 200.79,-25.4"/>
<polygon fill="#63b8ff" stroke="#63b8ff" points="201.4,-28.85 210.85,-24.06 200.47,-21.91 201.4,-28.85"/>
</g>
</g>
</svg>
