<?xml version="1.0" encoding="UTF-8" standalone="no"?>
<!DOCTYPE svg PUBLIC "-//W3C//DTD SVG 1.1//EN"
 "http://www.w3.org/Graphics/SVG/1.1/DTD/svg11.dtd">
<!-- Generated by graphviz version 12.0.0 (20240704.0754)
 -->
<!-- Title: lin Pages: 1 -->
<svg width="331pt" height="45pt"
 viewBox="0.00 0.00 330.55 45.25" xmlns="http://www.w3.org/2000/svg" xmlns:xlink="http://www.w3.org/1999/xlink">
<g id="graph0" class="graph" transform="scale(1 1) rotate(0) translate(4 41.25)">
<title>lin</title>
<!-- Node1 -->
<g id="Node000001" class="node">
<title>Node1</title>
<g id="a_Node000001"><a xlink:title=" ">
<polygon fill="#999999" stroke="#666666" points="28.8,-19.25 0,-19.25 0,0 28.8,0 28.8,-19.25"/>
<text text-anchor="middle" x="14.4" y="-5.75" font-family="Helvetica,sans-Serif" font-size="10.00">lin</text>
</a>
</g>
</g>
<!-- Node2 -->
<g id="Node000002" class="node">
<title>Node2</title>
<g id="a_Node000002"><a xlink:href="../../dc/d89/namespace_gam_r_1_1_spect.html#a7c014b37fef6c9127b7d862a977e4e36" target="_top" xlink:title=" ">
<polygon fill="white" stroke="#666666" points="167.8,-19.25 64.8,-19.25 64.8,0 167.8,0 167.8,-19.25"/>
<text text-anchor="middle" x="116.3" y="-5.75" font-family="Helvetica,sans-Serif" font-size="10.00">GamR::Spect::LinAll</text>
</a>
</g>
</g>
<!-- Node1&#45;&gt;Node2 -->
<g id="edge1_Node000001_Node000002" class="edge">
<title>Node1&#45;&gt;Node2</title>
<g id="a_edge1_Node000001_Node000002"><a xlink:title=" ">
<path fill="none" stroke="#63b8ff" d="M29.29,-9.62C35.85,-9.62 44.19,-9.62 53.07,-9.62"/>
<polygon fill="#63b8ff" stroke="#63b8ff" points="53.02,-13.13 63.02,-9.63 53.02,-6.13 53.02,-13.13"/>
</a>
</g>
</g>
<!-- Node2&#45;&gt;Node2 -->
<g id="edge3_Node000002_Node000002" class="edge">
<title>Node2&#45;&gt;Node2</title>
<g id="a_edge3_Node000002_Node000002"><a xlink:title=" ">
<path fill="none" stroke="#63b8ff" d="M100.35,-19.54C93.07,-28.15 98.39,-37.25 116.3,-37.25 126.1,-37.25 132.12,-34.53 134.39,-30.65"/>
<polygon fill="#63b8ff" stroke="#63b8ff" points="137.86,-30.18 132.54,-21.02 130.99,-31.51 137.86,-30.18"/>
</a>
</g>
</g>
<!-- Node3 -->
<g id="Node000003" class="node">
<title>Node3</title>
<g id="a_Node000003"><a xlink:href="../../d0/db7/namespace_gam_r_1_1_utils.html#a0adbf2bb55ef0a9adfc45b00210c92c0" target="_top" xlink:title=" ">
<polygon fill="white" stroke="#666666" points="322.55,-19.25 203.8,-19.25 203.8,0 322.55,0 322.55,-19.25"/>
<text text-anchor="middle" x="263.17" y="-5.75" font-family="Helvetica,sans-Serif" font-size="10.00">GamR::Utils::GetNPads</text>
</a>
</g>
</g>
<!-- Node2&#45;&gt;Node3 -->
<g id="edge2_Node000002_Node000003" class="edge">
<title>Node2&#45;&gt;Node3</title>
<g id="a_edge2_Node000002_Node000003"><a xlink:title=" ">
<path fill="none" stroke="#63b8ff" d="M167.97,-9.62C175.73,-9.62 183.87,-9.62 191.96,-9.62"/>
<polygon fill="#63b8ff" stroke="#63b8ff" points="191.83,-13.13 201.83,-9.63 191.83,-6.13 191.83,-13.13"/>
</a>
</g>
</g>
</g>
</svg>
