<?xml version="1.0" encoding="UTF-8" standalone="no"?>
<!DOCTYPE svg PUBLIC "-//W3C//DTD SVG 1.1//EN"
 "http://www.w3.org/Graphics/SVG/1.1/DTD/svg11.dtd">
<!-- Generated by graphviz version 9.0.0 (20230911.1827)
 -->
<!-- Title: py Pages: 1 -->
<svg width="433pt" height="432pt"
 viewBox="0.00 0.00 433.30 431.88" xmlns="http://www.w3.org/2000/svg" xmlns:xlink="http://www.w3.org/1999/xlink">
<g id="graph0" class="graph" transform="scale(1 1) rotate(0) translate(4 427.88)">
<title>py</title>
<!-- Node1 -->
<g id="Node000001" class="node">
<title>Node1</title>
<g id="a_Node000001"><a xlink:title=" ">
<polygon fill="#999999" stroke="#666666" points="425.3,-224.25 396.5,-224.25 396.5,-205 425.3,-205 425.3,-224.25"/>
<text text-anchor="middle" x="410.9" y="-210.75" font-family="Helvetica,sans-Serif" font-size="10.00">py</text>
</a>
</g>
</g>
<!-- Node2 -->
<g id="Node000002" class="node">
<title>Node2</title>
<g id="a_Node000002"><a xlink:href="../../d0/d50/class_gam_r_1_1_nucleus_1_1_level_scheme_draw_1_1_state.html#af62fe8b89fb5ee032bbecf5eaa6fe18f" target="_top" xlink:title=" ">
<polygon fill="white" stroke="#666666" points="350.75,-423.88 195.25,-423.88 195.25,-393.38 350.75,-393.38 350.75,-423.88"/>
<text text-anchor="start" x="203.25" y="-410.38" font-family="Helvetica,sans-Serif" font-size="10.00">GamR::Nucleus::LevelScheme</text>
<text text-anchor="middle" x="273" y="-399.12" font-family="Helvetica,sans-Serif" font-size="10.00">Draw::State::DistancetoPrimitive</text>
</a>
</g>
</g>
<!-- Node1&#45;&gt;Node2 -->
<g id="edge1_Node000001_Node000002" class="edge">
<title>Node1&#45;&gt;Node2</title>
<g id="a_edge1_Node000001_Node000002"><a xlink:title=" ">
<path fill="none" stroke="#63b8ff" d="M409.52,-235.85C407.75,-270.56 399.21,-339.63 360.5,-379.62 355.32,-384.97 349.13,-389.34 342.47,-392.89"/>
<polygon fill="#63b8ff" stroke="#63b8ff" points="413,-236.36 409.86,-226.24 406.01,-236.11 413,-236.36"/>
</a>
</g>
</g>
<!-- Node3 -->
<g id="Node000003" class="node">
<title>Node3</title>
<g id="a_Node000003"><a xlink:href="../../d0/d50/class_gam_r_1_1_nucleus_1_1_level_scheme_draw_1_1_state.html#a735a9cb53adadb0de1ac1414d57b716a" target="_top" xlink:title=" ">
<polygon fill="white" stroke="#666666" points="149.12,-401.88 0.38,-401.88 0.38,-371.38 149.12,-371.38 149.12,-401.88"/>
<text text-anchor="start" x="8.38" y="-388.38" font-family="Helvetica,sans-Serif" font-size="10.00">GamR::Nucleus::LevelScheme</text>
<text text-anchor="middle" x="74.75" y="-377.12" font-family="Helvetica,sans-Serif" font-size="10.00">Draw::State::ExecuteEvent</text>
</a>
</g>
</g>
<!-- Node1&#45;&gt;Node3 -->
<g id="edge10_Node000001_Node000003" class="edge">
<title>Node1&#45;&gt;Node3</title>
<g id="a_edge10_Node000001_Node000003"><a xlink:title=" ">
<path fill="none" stroke="#63b8ff" d="M408.47,-235.64C405.25,-265.38 394.74,-319.16 360.5,-346.62 328.86,-372.01 222.66,-381.28 149.3,-384.67"/>
<polygon fill="#63b8ff" stroke="#63b8ff" points="411.93,-236.29 409.32,-226.02 404.96,-235.68 411.93,-236.29"/>
</a>
</g>
</g>
<!-- Node4 -->
<g id="Node000004" class="node">
<title>Node4</title>
<g id="a_Node000004"><a xlink:href="../../d9/d6a/class_gam_r_1_1_nucleus_1_1_level_scheme_draw_1_1_transition.html#ab2488df573a655a860d1aad03120041f" target="_top" xlink:title=" ">
<polygon fill="white" stroke="#666666" points="360.5,-337.88 185.5,-337.88 185.5,-307.38 360.5,-307.38 360.5,-337.88"/>
<text text-anchor="start" x="193.5" y="-324.38" font-family="Helvetica,sans-Serif" font-size="10.00">GamR::Nucleus::LevelScheme</text>
<text text-anchor="middle" x="273" y="-313.12" font-family="Helvetica,sans-Serif" font-size="10.00">Draw::Transition::DistancetoPrimitive</text>
</a>
</g>
</g>
<!-- Node1&#45;&gt;Node4 -->
<g id="edge3_Node000001_Node000004" class="edge">
<title>Node1&#45;&gt;Node4</title>
<g id="a_edge3_Node000001_Node000004"><a xlink:title=" ">
<path fill="none" stroke="#63b8ff" d="M401.84,-235.12C393.86,-252.94 379.98,-278.26 360.5,-293.62 353.66,-299.02 345.77,-303.43 337.59,-307.04"/>
<polygon fill="#63b8ff" stroke="#63b8ff" points="405,-236.64 405.66,-226.06 398.55,-233.92 405,-236.64"/>
</a>
</g>
</g>
<!-- Node5 -->
<g id="Node000005" class="node">
<title>Node5</title>
<g id="a_Node000005"><a xlink:href="../../d9/d6a/class_gam_r_1_1_nucleus_1_1_level_scheme_draw_1_1_transition.html#ac6affc8cf9d5a8c89d3e5be46b53128b" target="_top" xlink:title=" ">
<polygon fill="white" stroke="#666666" points="149.5,-315.88 0,-315.88 0,-285.38 149.5,-285.38 149.5,-315.88"/>
<text text-anchor="start" x="8" y="-302.38" font-family="Helvetica,sans-Serif" font-size="10.00">GamR::Nucleus::LevelScheme</text>
<text text-anchor="middle" x="74.75" y="-291.12" font-family="Helvetica,sans-Serif" font-size="10.00">Draw::Transition::ExecuteEvent</text>
</a>
</g>
</g>
<!-- Node1&#45;&gt;Node5 -->
<g id="edge11_Node000001_Node000005" class="edge">
<title>Node1&#45;&gt;Node5</title>
<g id="a_edge11_Node000001_Node000005"><a xlink:title=" ">
<path fill="none" stroke="#63b8ff" d="M394.89,-233.3C385.97,-243.07 373.81,-254.28 360.5,-260.62 324.33,-277.86 221.59,-289.21 149.97,-295.27"/>
<polygon fill="#63b8ff" stroke="#63b8ff" points="397.53,-235.59 401.4,-225.73 392.23,-231.03 397.53,-235.59"/>
</a>
</g>
</g>
<!-- Node6 -->
<g id="Node000006" class="node">
<title>Node6</title>
<g id="a_Node000006"><a xlink:href="../../d3/d4b/class_gam_r_1_1_nucleus_1_1_level_scheme_fitter_1_1_state.html#a062dd0dec8beb4be1b22ac0cba205a10" target="_top" xlink:title=" ">
<polygon fill="white" stroke="#666666" points="350.75,-251.88 195.25,-251.88 195.25,-221.38 350.75,-221.38 350.75,-251.88"/>
<text text-anchor="start" x="203.25" y="-238.38" font-family="Helvetica,sans-Serif" font-size="10.00">GamR::Nucleus::LevelScheme</text>
<text text-anchor="middle" x="273" y="-227.12" font-family="Helvetica,sans-Serif" font-size="10.00">Fitter::State::DistancetoPrimitive</text>
</a>
</g>
</g>
<!-- Node1&#45;&gt;Node6 -->
<g id="edge5_Node000001_Node000006" class="edge">
<title>Node1&#45;&gt;Node6</title>
<g id="a_edge5_Node000001_Node000006"><a xlink:title=" ">
<path fill="none" stroke="#63b8ff" d="M384.95,-218.66C375.18,-220.25 363.4,-222.15 351.22,-224.12"/>
<polygon fill="#63b8ff" stroke="#63b8ff" points="385.32,-222.15 394.63,-217.1 384.2,-215.24 385.32,-222.15"/>
</a>
</g>
</g>
<!-- Node7 -->
<g id="Node000007" class="node">
<title>Node7</title>
<g id="a_Node000007"><a xlink:href="../../d3/d4b/class_gam_r_1_1_nucleus_1_1_level_scheme_fitter_1_1_state.html#a47895fed67a142b63c6b3dc76ef62200" target="_top" xlink:title=" ">
<polygon fill="white" stroke="#666666" points="149.12,-220.88 0.38,-220.88 0.38,-190.38 149.12,-190.38 149.12,-220.88"/>
<text text-anchor="start" x="8.38" y="-207.38" font-family="Helvetica,sans-Serif" font-size="10.00">GamR::Nucleus::LevelScheme</text>
<text text-anchor="middle" x="74.75" y="-196.12" font-family="Helvetica,sans-Serif" font-size="10.00">Fitter::State::ExecuteEvent</text>
</a>
</g>
</g>
<!-- Node1&#45;&gt;Node7 -->
<g id="edge12_Node000001_Node000007" class="edge">
<title>Node1&#45;&gt;Node7</title>
<g id="a_edge12_Node000001_Node000007"><a xlink:title=" ">
<path fill="none" stroke="#63b8ff" d="M384.74,-213.53C376.97,-213.21 368.38,-212.88 360.5,-212.62 288.83,-210.29 207,-208.36 149.51,-207.12"/>
<polygon fill="#63b8ff" stroke="#63b8ff" points="384.41,-217.02 394.55,-213.94 384.71,-210.02 384.41,-217.02"/>
</a>
</g>
</g>
<!-- Node8 -->
<g id="Node000008" class="node">
<title>Node8</title>
<g id="a_Node000008"><a xlink:href="../../d7/df7/class_gam_r_1_1_nucleus_1_1_level_scheme_fitter_1_1_transition.html#aeaafdf1c58b91dbd0bae610717c0f338" target="_top" xlink:title=" ">
<polygon fill="white" stroke="#666666" points="347.38,-165.5 198.62,-165.5 198.62,-123.75 347.38,-123.75 347.38,-165.5"/>
<text text-anchor="start" x="206.62" y="-152" font-family="Helvetica,sans-Serif" font-size="10.00">GamR::Nucleus::LevelScheme</text>
<text text-anchor="start" x="206.62" y="-140.75" font-family="Helvetica,sans-Serif" font-size="10.00">Fitter::Transition::Distanceto</text>
<text text-anchor="middle" x="273" y="-129.5" font-family="Helvetica,sans-Serif" font-size="10.00">Primitive</text>
</a>
</g>
</g>
<!-- Node1&#45;&gt;Node8 -->
<g id="edge7_Node000001_Node000008" class="edge">
<title>Node1&#45;&gt;Node8</title>
<g id="a_edge7_Node000001_Node000008"><a xlink:title=" ">
<path fill="none" stroke="#63b8ff" d="M388.36,-197.72C379.95,-191.56 370.04,-184.84 360.5,-179.62 351.55,-174.73 341.76,-170.12 332.09,-165.96"/>
<polygon fill="#63b8ff" stroke="#63b8ff" points="386.13,-200.42 396.22,-203.65 390.34,-194.83 386.13,-200.42"/>
</a>
</g>
</g>
<!-- Node9 -->
<g id="Node000009" class="node">
<title>Node9</title>
<g id="a_Node000009"><a xlink:href="../../d7/df7/class_gam_r_1_1_nucleus_1_1_level_scheme_fitter_1_1_transition.html#a3139667cf8be002fcb2285bde985dc68" target="_top" xlink:title=" ">
<polygon fill="white" stroke="#666666" points="149.5,-147.88 0,-147.88 0,-117.38 149.5,-117.38 149.5,-147.88"/>
<text text-anchor="start" x="8" y="-134.38" font-family="Helvetica,sans-Serif" font-size="10.00">GamR::Nucleus::LevelScheme</text>
<text text-anchor="middle" x="74.75" y="-123.12" font-family="Helvetica,sans-Serif" font-size="10.00">Fitter::Transition::ExecuteEvent</text>
</a>
</g>
</g>
<!-- Node1&#45;&gt;Node9 -->
<g id="edge13_Node000001_Node000009" class="edge">
<title>Node1&#45;&gt;Node9</title>
<g id="a_edge13_Node000001_Node000009"><a xlink:title=" ">
<path fill="none" stroke="#63b8ff" d="M406.26,-193.65C400.86,-169.77 388.23,-131.86 360.5,-114.62 284.14,-67.18 172.92,-96.06 114.66,-116.88"/>
<polygon fill="#63b8ff" stroke="#63b8ff" points="402.77,-194.06 408.16,-203.18 409.63,-192.69 402.77,-194.06"/>
</a>
</g>
</g>
<!-- Node10 -->
<g id="Node000010" class="node">
<title>Node10</title>
<g id="a_Node000010"><a xlink:href="../../d0/d74/group___t_k.html#gac731f3c9e019bc69f52732bcfddab7fd" target="_top" xlink:title=" ">
<polygon fill="white" stroke="#666666" points="341.75,-67.88 204.25,-67.88 204.25,-37.38 341.75,-37.38 341.75,-67.88"/>
<text text-anchor="start" x="212.25" y="-54.38" font-family="Helvetica,sans-Serif" font-size="10.00">GamR::TK::Gate::Distanceto</text>
<text text-anchor="middle" x="273" y="-43.12" font-family="Helvetica,sans-Serif" font-size="10.00">Primitive</text>
</a>
</g>
</g>
<!-- Node1&#45;&gt;Node10 -->
<g id="edge9_Node000001_Node000010" class="edge">
<title>Node1&#45;&gt;Node10</title>
<g id="a_edge9_Node000001_Node000010"><a xlink:title=" ">
<path fill="none" stroke="#63b8ff" d="M407.69,-193.46C403.54,-164.34 391.94,-112.07 360.5,-81.62 354.92,-76.23 348.31,-71.83 341.27,-68.25"/>
<polygon fill="#63b8ff" stroke="#63b8ff" points="404.19,-193.72 408.9,-203.22 411.14,-192.86 404.19,-193.72"/>
</a>
</g>
</g>
<!-- Node11 -->
<g id="Node000011" class="node">
<title>Node11</title>
<g id="a_Node000011"><a xlink:href="../../d0/d74/group___t_k.html#gaaa4358ac4e22aea13191978c5dcc846e" target="_top" xlink:title=" ">
<polygon fill="white" stroke="#666666" points="348.12,-19.25 197.88,-19.25 197.88,0 348.12,0 348.12,-19.25"/>
<text text-anchor="middle" x="273" y="-5.75" font-family="Helvetica,sans-Serif" font-size="10.00">GamR::TK::Gate::ExecuteEvent</text>
</a>
</g>
</g>
<!-- Node1&#45;&gt;Node11 -->
<g id="edge14_Node000001_Node000011" class="edge">
<title>Node1&#45;&gt;Node11</title>
<g id="a_edge14_Node000001_Node000011"><a xlink:title=" ">
<path fill="none" stroke="#63b8ff" d="M407.07,-193.5C400.79,-149.76 384.33,-51.44 360.5,-28.62 356.72,-25.01 352.43,-22.02 347.81,-19.55"/>
<polygon fill="#63b8ff" stroke="#63b8ff" points="403.58,-193.81 408.42,-203.24 410.52,-192.85 403.58,-193.81"/>
</a>
</g>
</g>
<!-- Node2&#45;&gt;Node3 -->
<g id="edge2_Node000002_Node000003" class="edge">
<title>Node2&#45;&gt;Node3</title>
<g id="a_edge2_Node000002_Node000003"><a xlink:title=" ">
<path fill="none" stroke="#63b8ff" d="M183.62,-398.72C172.15,-397.43 160.51,-396.13 149.32,-394.87"/>
<polygon fill="#63b8ff" stroke="#63b8ff" points="183.17,-402.19 193.5,-399.82 183.95,-395.23 183.17,-402.19"/>
</a>
</g>
</g>
<!-- Node4&#45;&gt;Node5 -->
<g id="edge4_Node000004_Node000005" class="edge">
<title>Node4&#45;&gt;Node5</title>
<g id="a_edge4_Node000004_Node000005"><a xlink:title=" ">
<path fill="none" stroke="#63b8ff" d="M173.69,-311.6C165.63,-310.7 157.57,-309.8 149.73,-308.92"/>
<polygon fill="#63b8ff" stroke="#63b8ff" points="173.23,-315.07 183.56,-312.71 174.01,-308.12 173.23,-315.07"/>
</a>
</g>
</g>
<!-- Node6&#45;&gt;Node7 -->
<g id="edge6_Node000006_Node000007" class="edge">
<title>Node6&#45;&gt;Node7</title>
<g id="a_edge6_Node000006_Node000007"><a xlink:title=" ">
<path fill="none" stroke="#63b8ff" d="M183.98,-222.72C172.4,-220.89 160.62,-219.03 149.32,-217.25"/>
<polygon fill="#63b8ff" stroke="#63b8ff" points="183.08,-226.12 193.51,-224.23 184.17,-219.21 183.08,-226.12"/>
</a>
</g>
</g>
<!-- Node8&#45;&gt;Node9 -->
<g id="edge8_Node000008_Node000009" class="edge">
<title>Node8&#45;&gt;Node9</title>
<g id="a_edge8_Node000008_Node000009"><a xlink:title=" ">
<path fill="none" stroke="#63b8ff" d="M187.07,-139.43C174.66,-138.67 161.97,-137.9 149.8,-137.15"/>
<polygon fill="#63b8ff" stroke="#63b8ff" points="186.66,-142.91 196.85,-140.03 187.09,-135.93 186.66,-142.91"/>
</a>
</g>
</g>
</g>
</svg>
