<?xml version="1.0" encoding="UTF-8" standalone="no"?>
<!DOCTYPE svg PUBLIC "-//W3C//DTD SVG 1.1//EN"
 "http://www.w3.org/Graphics/SVG/1.1/DTD/svg11.dtd">
<!-- Generated by graphviz version 9.0.0 (20230911.1827)
 -->
<!-- Title: ss Pages: 1 -->
<!--zoomable 1358 -->

<svg id="main" version="1.1" xmlns="http://www.w3.org/2000/svg" xmlns:xlink="http://www.w3.org/1999/xlink" xml:space="preserve" onload="init(evt)">
<style type="text/css"><![CDATA[
.node, .edge {opacity: 0.7;}
.node.selected, .edge.selected {opacity: 1;}
.edge:hover path { stroke: red; }
.edge:hover polygon { stroke: red; fill: red; }
]]></style>

<defs>
  <circle id="rim" cx="0" cy="0" r="7"/>
  <circle id="rim2" cx="0" cy="0" r="3.5"/>
  <g id="zoomPlus">
    <use xlink:href="#rim" fill="#404040"><set attributeName="fill" to="#808080" begin="zoomplus.mouseover" end="zoomplus.mouseout"/></use>
    <path d="M-4,0h8M0,-4v8" fill="none" stroke="white" stroke-width="1.5" pointer-events="none"/>
  </g>
  <g id="zoomMin">
    <use xlink:href="#rim" fill="#404040"><set attributeName="fill" to="#808080" begin="zoomminus.mouseover" end="zoomminus.mouseout"/></use>
    <path d="M-4,0h8" fill="none" stroke="white" stroke-width="1.5" pointer-events="none"/>
  </g>
  <g id="arrowUp" transform="translate(30 24)">
    <use xlink:href="#rim"/>
    <path pointer-events="none" fill="none" stroke="white" stroke-width="1.5" d="M0,-3.0v7 M-2.5,-0.5L0,-3.0L2.5,-0.5"/>
  </g>
  <g id="arrowRight" transform="rotate(90) translate(36 -43)">
    <use xlink:href="#rim"/>
    <path pointer-events="none" fill="none" stroke="white" stroke-width="1.5" d="M0,-3.0v7 M-2.5,-0.5L0,-3.0L2.5,-0.5"/>
  </g>
  <g id="arrowDown" transform="rotate(180) translate(-30 -48)">
    <use xlink:href="#rim"/>
    <path pointer-events="none" fill="none" stroke="white" stroke-width="1.5" d="M0,-3.0v7 M-2.5,-0.5L0,-3.0L2.5,-0.5"/>
  </g>
  <g id="arrowLeft" transform="rotate(270) translate(-36 17)">
    <use xlink:href="#rim"/>
    <path pointer-events="none" fill="none" stroke="white" stroke-width="1.5" d="M0,-3.0v7 M-2.5,-0.5L0,-3.0L2.5,-0.5"/>
  </g>
  <g id="resetDef">
    <use xlink:href="#rim2" fill="#404040"><set attributeName="fill" to="#808080" begin="reset.mouseover" end="reset.mouseout"/></use>
  </g>
</defs>
<script type="application/ecmascript">
var viewWidth = 492;
var viewHeight = 1358;
var sectionId = 'dynsection-61';
</script>
<script type="application/ecmascript" xlink:href="../../svg.min.js"/>
<svg id="graph" class="graph">
<g id="viewport">
<title>ss</title>
<!-- Node1 -->
<g id="Node000001" class="node">
<title>Node1</title>
<g id="a_Node000001"><a xlink:title=" ">
<polygon fill="#999999" stroke="#666666" points="484.05,-689.25 455.25,-689.25 455.25,-670 484.05,-670 484.05,-689.25"/>
<text text-anchor="middle" x="469.65" y="-675.75" font-family="Helvetica,sans-Serif" font-size="10.00">ss</text>
</a>
</g>
</g>
<!-- Node2 -->
<g id="Node000002" class="node">
<title>Node2</title>
<g id="a_Node000002"><a xlink:href="../../d3/d6c/class_gam_r_1_1_sort_1_1_type_1_1_gated_time_difference.html#a044c4c6493ecba6989b7e92b36da6ddc" target="_top" xlink:title=" ">
<polygon fill="white" stroke="#666666" points="416.25,-1349.88 260.75,-1349.88 260.75,-1319.38 416.25,-1319.38 416.25,-1349.88"/>
<text text-anchor="start" x="268.75" y="-1336.38" font-family="Helvetica,sans-Serif" font-size="10.00">GamR::Sort::Type::GatedTime</text>
<text text-anchor="middle" x="338.5" y="-1325.12" font-family="Helvetica,sans-Serif" font-size="10.00">Difference::GatedTimeDifference</text>
</a>
</g>
</g>
<!-- Node1&#45;&gt;Node2 -->
<g id="edge1_Node000001_Node000002" class="edge">
<title>Node1&#45;&gt;Node2</title>
<g id="a_edge1_Node000001_Node000002"><a xlink:title=" ">
<path fill="none" stroke="#63b8ff" d="M468.37,-701.11C466.83,-805.98 457.93,-1261.07 419.25,-1309.62 416.36,-1313.26 412.94,-1316.37 409.18,-1319.04"/>
<polygon fill="#63b8ff" stroke="#63b8ff" points="471.87,-701.19 468.51,-691.15 464.87,-701.1 471.87,-701.19"/>
</a>
</g>
</g>
<!-- Node3 -->
<g id="Node000003" class="node">
<title>Node3</title>
<g id="a_Node000003"><a xlink:href="../../d1/da3/class_gam_r_1_1_sort_1_1_type_1_1_matrix.html#a00e6aa66c1c3b6a8a75dba762085c610" target="_top" xlink:title=" ">
<polygon fill="white" stroke="#666666" points="399.75,-1300.88 277.25,-1300.88 277.25,-1270.38 399.75,-1270.38 399.75,-1300.88"/>
<text text-anchor="start" x="285.25" y="-1287.38" font-family="Helvetica,sans-Serif" font-size="10.00">GamR::Sort::Type::Matrix</text>
<text text-anchor="middle" x="338.5" y="-1276.12" font-family="Helvetica,sans-Serif" font-size="10.00">::Matrix</text>
</a>
</g>
</g>
<!-- Node1&#45;&gt;Node3 -->
<g id="edge2_Node000001_Node000003" class="edge">
<title>Node1&#45;&gt;Node3</title>
<g id="a_edge2_Node000001_Node000003"><a xlink:title=" ">
<path fill="none" stroke="#63b8ff" d="M468.23,-700.66C466.08,-799.65 454.93,-1216.13 419.25,-1260.62 414.17,-1266.96 407.49,-1271.73 400.16,-1275.3"/>
<polygon fill="#63b8ff" stroke="#63b8ff" points="471.73,-700.9 468.44,-690.82 464.73,-700.75 471.73,-700.9"/>
</a>
</g>
</g>
<!-- Node4 -->
<g id="Node000004" class="node">
<title>Node4</title>
<g id="a_Node000004"><a xlink:href="../../db/d1b/class_gam_r_1_1_sort_1_1_type_1_1_time_difference.html#a7cf59bfec4ee14f850901a3d1fbe7103" target="_top" xlink:title=" ">
<polygon fill="white" stroke="#666666" points="419.25,-1251.88 257.75,-1251.88 257.75,-1221.38 419.25,-1221.38 419.25,-1251.88"/>
<text text-anchor="start" x="265.75" y="-1238.38" font-family="Helvetica,sans-Serif" font-size="10.00">GamR::Sort::Type::TimeDifference</text>
<text text-anchor="middle" x="338.5" y="-1227.12" font-family="Helvetica,sans-Serif" font-size="10.00">::TimeDifference</text>
</a>
</g>
</g>
<!-- Node1&#45;&gt;Node4 -->
<g id="edge3_Node000001_Node000004" class="edge">
<title>Node1&#45;&gt;Node4</title>
<g id="a_edge3_Node000001_Node000004"><a xlink:title=" ">
<path fill="none" stroke="#63b8ff" d="M468.06,-700.63C465.23,-794.33 451.9,-1171.23 419.25,-1211.62 416.33,-1215.24 412.9,-1218.33 409.12,-1220.99"/>
<polygon fill="#63b8ff" stroke="#63b8ff" points="471.55,-700.97 468.34,-690.87 464.55,-700.76 471.55,-700.97"/>
</a>
</g>
</g>
<!-- Node5 -->
<g id="Node000005" class="node">
<title>Node5</title>
<g id="a_Node000005"><a xlink:href="../../d7/d5f/class_gam_r_1_1_sort_1_1_type_1_1_time_difference_pairs.html#af4ef18d212f6e817fc857b1b460b7e1a" target="_top" xlink:title=" ">
<polygon fill="white" stroke="#666666" points="419.25,-1202.88 257.75,-1202.88 257.75,-1172.38 419.25,-1172.38 419.25,-1202.88"/>
<text text-anchor="start" x="265.75" y="-1189.38" font-family="Helvetica,sans-Serif" font-size="10.00">GamR::Sort::Type::TimeDifference</text>
<text text-anchor="middle" x="338.5" y="-1178.12" font-family="Helvetica,sans-Serif" font-size="10.00">Pairs::TimeDifferencePairs</text>
</a>
</g>
</g>
<!-- Node1&#45;&gt;Node5 -->
<g id="edge4_Node000001_Node000005" class="edge">
<title>Node1&#45;&gt;Node5</title>
<g id="a_edge4_Node000001_Node000005"><a xlink:title=" ">
<path fill="none" stroke="#63b8ff" d="M467.83,-701.18C464.24,-790.23 448.81,-1126.4 419.25,-1162.62 416.31,-1166.22 412.87,-1169.31 409.08,-1171.96"/>
<polygon fill="#63b8ff" stroke="#63b8ff" points="471.32,-701.34 468.22,-691.21 464.33,-701.07 471.32,-701.34"/>
</a>
</g>
</g>
<!-- Node6 -->
<g id="Node000006" class="node">
<title>Node6</title>
<g id="a_Node000006"><a xlink:href="../../df/d01/class_gam_r_1_1_sort_1_1_type_1_1_time_walk_cal.html#a178824712e938d37a02d75e23ceae6c9" target="_top" xlink:title=" ">
<polygon fill="white" stroke="#666666" points="408.38,-1153.88 268.62,-1153.88 268.62,-1123.38 408.38,-1123.38 408.38,-1153.88"/>
<text text-anchor="start" x="276.62" y="-1140.38" font-family="Helvetica,sans-Serif" font-size="10.00">GamR::Sort::Type::TimeWalk</text>
<text text-anchor="middle" x="338.5" y="-1129.12" font-family="Helvetica,sans-Serif" font-size="10.00">Cal::TimeWalkCal</text>
</a>
</g>
</g>
<!-- Node1&#45;&gt;Node6 -->
<g id="edge5_Node000001_Node000006" class="edge">
<title>Node1&#45;&gt;Node6</title>
<g id="a_edge5_Node000001_Node000006"><a xlink:title=" ">
<path fill="none" stroke="#63b8ff" d="M467.6,-700.86C463.3,-783.75 446.07,-1082.51 419.25,-1114.62 416.19,-1118.29 412.6,-1121.4 408.65,-1124.06"/>
<polygon fill="#63b8ff" stroke="#63b8ff" points="471.09,-701.16 468.1,-691 464.09,-700.81 471.09,-701.16"/>
</a>
</g>
</g>
<!-- Node7 -->
<g id="Node000007" class="node">
<title>Node7</title>
<g id="a_Node000007"><a xlink:href="../../dc/d89/namespace_gam_r_1_1_spect.html#ae54298fd5ef07073ff03ad06e3d4febe" target="_top" xlink:title=" ">
<polygon fill="white" stroke="#666666" points="405.75,-1105.25 271.25,-1105.25 271.25,-1086 405.75,-1086 405.75,-1105.25"/>
<text text-anchor="middle" x="338.5" y="-1091.75" font-family="Helvetica,sans-Serif" font-size="10.00">GamR::Spect::CutFromText</text>
</a>
</g>
</g>
<!-- Node1&#45;&gt;Node7 -->
<g id="edge6_Node000001_Node000007" class="edge">
<title>Node1&#45;&gt;Node7</title>
<g id="a_edge6_Node000001_Node000007"><a xlink:title=" ">
<path fill="none" stroke="#63b8ff" d="M469.07,-701.06C470.06,-775.4 469.41,-1020.62 419.25,-1076.62 415.45,-1080.87 410.89,-1084.25 405.91,-1086.93"/>
<polygon fill="#63b8ff" stroke="#63b8ff" points="472.57,-701.05 468.91,-691.11 465.57,-701.17 472.57,-701.05"/>
</a>
</g>
</g>
<!-- Node8 -->
<g id="Node000008" class="node">
<title>Node8</title>
<g id="a_Node000008"><a xlink:href="../../d3/d48/class_gam_r_1_1_processor_1_1_time_walk.html#a0b862c355e247c0e71d9e40e821c7cfe" target="_top" xlink:title="Draws Time Walk graphs.">
<polygon fill="white" stroke="#666666" points="408.75,-1067.88 268.25,-1067.88 268.25,-1037.38 408.75,-1037.38 408.75,-1067.88"/>
<text text-anchor="start" x="276.25" y="-1054.38" font-family="Helvetica,sans-Serif" font-size="10.00">GamR::Processor::TimeWalk</text>
<text text-anchor="middle" x="338.5" y="-1043.12" font-family="Helvetica,sans-Serif" font-size="10.00">::Draw</text>
</a>
</g>
</g>
<!-- Node1&#45;&gt;Node8 -->
<g id="edge7_Node000001_Node000008" class="edge">
<title>Node1&#45;&gt;Node8</title>
<g id="a_edge7_Node000001_Node000008"><a xlink:title=" ">
<path fill="none" stroke="#63b8ff" d="M468.37,-700.99C467.08,-768.19 459.82,-973.69 419.25,-1023.62 414.88,-1029 409.43,-1033.38 403.44,-1036.94"/>
<polygon fill="#63b8ff" stroke="#63b8ff" points="471.87,-701.05 468.53,-691 464.87,-700.94 471.87,-701.05"/>
</a>
</g>
</g>
<!-- Node9 -->
<g id="Node000009" class="node">
<title>Node9</title>
<g id="a_Node000009"><a xlink:href="../../d3/d48/class_gam_r_1_1_processor_1_1_time_walk.html#a10cdc74a1e9f4a14e1c449c9712ba085" target="_top" xlink:title="Iterating through calibration peaks for each detector pair: calculate the time difference spectrum (w...">
<polygon fill="white" stroke="#666666" points="217.62,-1045.88 77.12,-1045.88 77.12,-1015.38 217.62,-1015.38 217.62,-1045.88"/>
<text text-anchor="start" x="85.12" y="-1032.38" font-family="Helvetica,sans-Serif" font-size="10.00">GamR::Processor::TimeWalk</text>
<text text-anchor="middle" x="147.38" y="-1021.12" font-family="Helvetica,sans-Serif" font-size="10.00">::MakeGraphs</text>
</a>
</g>
</g>
<!-- Node1&#45;&gt;Node9 -->
<g id="edge20_Node000001_Node000009" class="edge">
<title>Node1&#45;&gt;Node9</title>
<g id="a_edge20_Node000001_Node000009"><a xlink:title=" ">
<path fill="none" stroke="#63b8ff" d="M468.42,-700.92C467.25,-764.33 460.34,-949.98 419.25,-990.62 391.62,-1017.95 288.79,-1026.69 218.09,-1029.44"/>
<polygon fill="#63b8ff" stroke="#63b8ff" points="471.91,-701.21 468.56,-691.16 464.91,-701.11 471.91,-701.21"/>
</a>
</g>
</g>
<!-- Node10 -->
<g id="Node000010" class="node">
<title>Node10</title>
<g id="a_Node000010"><a xlink:href="../../d3/d48/class_gam_r_1_1_processor_1_1_time_walk.html#aebfe1c01514fb6b756ca8362eed61dbb" target="_top" xlink:title="Conducts a global &#160;fit to solve for an absolute time calibration for each detector.">
<polygon fill="white" stroke="#666666" points="416.62,-981.25 260.38,-981.25 260.38,-962 416.62,-962 416.62,-981.25"/>
<text text-anchor="middle" x="338.5" y="-967.75" font-family="Helvetica,sans-Serif" font-size="10.00">GamR::Processor::TimeWalk::Fit</text>
</a>
</g>
</g>
<!-- Node1&#45;&gt;Node10 -->
<g id="edge9_Node000001_Node000010" class="edge">
<title>Node1&#45;&gt;Node10</title>
<g id="a_edge9_Node000001_Node000010"><a xlink:title=" ">
<path fill="none" stroke="#63b8ff" d="M467.77,-700.87C464.92,-758.74 454.05,-917.27 419.25,-953.62 416.31,-956.7 412.96,-959.3 409.34,-961.5"/>
<polygon fill="#63b8ff" stroke="#63b8ff" points="471.26,-701.23 468.21,-691.08 464.26,-700.91 471.26,-701.23"/>
</a>
</g>
</g>
<!-- Node11 -->
<g id="Node000011" class="node">
<title>Node11</title>
<g id="a_Node000011"><a xlink:href="../../df/d69/class_gam_r_1_1_spect_1_1_peak_fit.html#ae142801510bb9c2c3717dbd4e568ea48" target="_top" xlink:title=" ">
<polygon fill="white" stroke="#666666" points="402.38,-944.25 274.62,-944.25 274.62,-925 402.38,-925 402.38,-944.25"/>
<text text-anchor="middle" x="338.5" y="-930.75" font-family="Helvetica,sans-Serif" font-size="10.00">GamR::Spect::PeakFit::Fit</text>
</a>
</g>
</g>
<!-- Node1&#45;&gt;Node11 -->
<g id="edge10_Node000001_Node000011" class="edge">
<title>Node1&#45;&gt;Node11</title>
<g id="a_edge10_Node000001_Node000011"><a xlink:title=" ">
<path fill="none" stroke="#63b8ff" d="M467.12,-700.72C462.92,-752.9 449.41,-885.97 419.25,-916.62 414.57,-921.38 408.92,-925 402.82,-927.73"/>
<polygon fill="#63b8ff" stroke="#63b8ff" points="470.59,-701.32 467.86,-691.08 463.61,-700.78 470.59,-701.32"/>
</a>
</g>
</g>
<!-- Node13 -->
<g id="Node000013" class="node">
<title>Node13</title>
<g id="a_Node000013"><a xlink:href="../../dc/d89/namespace_gam_r_1_1_spect.html#ab6376882b1b259ab8ae15200fa9ce7c3" target="_top" xlink:title=" ">
<polygon fill="white" stroke="#666666" points="397.12,-907.25 279.88,-907.25 279.88,-888 397.12,-888 397.12,-907.25"/>
<text text-anchor="middle" x="338.5" y="-893.75" font-family="Helvetica,sans-Serif" font-size="10.00">GamR::Spect::FitPeaks</text>
</a>
</g>
</g>
<!-- Node1&#45;&gt;Node13 -->
<g id="edge12_Node000001_Node000013" class="edge">
<title>Node1&#45;&gt;Node13</title>
<g id="a_edge12_Node000001_Node000013"><a xlink:title=" ">
<path fill="none" stroke="#63b8ff" d="M466.2,-701.06C460.46,-747.39 444.7,-854.68 419.25,-879.62 413.17,-885.59 405.56,-889.74 397.47,-892.61"/>
<polygon fill="#63b8ff" stroke="#63b8ff" points="469.66,-701.58 467.37,-691.24 462.71,-700.75 469.66,-701.58"/>
</a>
</g>
</g>
<!-- Node14 -->
<g id="Node000014" class="node">
<title>Node14</title>
<g id="a_Node000014"><a xlink:href="../../dc/d89/namespace_gam_r_1_1_spect.html#ad6a0035bfb10cc820b2212cca17819d6" target="_top" xlink:title=" ">
<polygon fill="white" stroke="#666666" points="398.25,-870.25 278.75,-870.25 278.75,-851 398.25,-851 398.25,-870.25"/>
<text text-anchor="middle" x="338.5" y="-856.75" font-family="Helvetica,sans-Serif" font-size="10.00">GamR::Spect::FromText</text>
</a>
</g>
</g>
<!-- Node1&#45;&gt;Node14 -->
<g id="edge13_Node000001_Node000014" class="edge">
<title>Node1&#45;&gt;Node14</title>
<g id="a_edge13_Node000001_Node000014"><a xlink:title=" ">
<path fill="none" stroke="#63b8ff" d="M468.64,-700.54C467.44,-735.33 459.74,-804.96 419.25,-842.62 413.33,-848.14 406.09,-852.08 398.41,-854.89"/>
<polygon fill="#63b8ff" stroke="#63b8ff" points="472.13,-701 468.82,-690.94 465.14,-700.87 472.13,-701"/>
</a>
</g>
</g>
<!-- Node15 -->
<g id="Node000015" class="node">
<title>Node15</title>
<g id="a_Node000015"><a xlink:href="../../d2/d80/namespace_gam_r_1_1_t_k.html#a48505adddc15725fea02cfa4876b6783" target="_top" xlink:title=" ">
<polygon fill="white" stroke="#666666" points="409.5,-833.25 267.5,-833.25 267.5,-814 409.5,-814 409.5,-833.25"/>
<text text-anchor="middle" x="338.5" y="-819.75" font-family="Helvetica,sans-Serif" font-size="10.00">GamR::TK::GainMatchEnergy</text>
</a>
</g>
</g>
<!-- Node1&#45;&gt;Node15 -->
<g id="edge14_Node000001_Node000015" class="edge">
<title>Node1&#45;&gt;Node15</title>
<g id="a_edge14_Node000001_Node000015"><a xlink:title=" ">
<path fill="none" stroke="#63b8ff" d="M465.59,-700.79C460.61,-727.58 448.22,-773.37 419.25,-799.62 412.61,-805.65 404.5,-810.16 396.04,-813.54"/>
<polygon fill="#63b8ff" stroke="#63b8ff" points="469.01,-701.58 467.19,-691.14 462.1,-700.44 469.01,-701.58"/>
</a>
</g>
</g>
<!-- Node16 -->
<g id="Node000016" class="node">
<title>Node16</title>
<g id="a_Node000016"><a xlink:href="../../df/d34/gamrcal_8cc.html#a0ddf1224851353fc92bfbff6f499fa97" target="_top" xlink:title=" ">
<polygon fill="white" stroke="#666666" points="165.88,-814.25 128.88,-814.25 128.88,-795 165.88,-795 165.88,-814.25"/>
<text text-anchor="middle" x="147.38" y="-800.75" font-family="Helvetica,sans-Serif" font-size="10.00">main</text>
</a>
</g>
</g>
<!-- Node1&#45;&gt;Node16 -->
<g id="edge19_Node000001_Node000016" class="edge">
<title>Node1&#45;&gt;Node16</title>
<g id="a_edge19_Node000001_Node000016"><a xlink:title=" ">
<path fill="none" stroke="#63b8ff" d="M462.68,-700.66C455.74,-721.02 442.2,-751.03 419.25,-766.62 377.72,-794.85 219.92,-802.38 166.32,-804.14"/>
<polygon fill="#63b8ff" stroke="#63b8ff" points="466.01,-701.74 465.65,-691.15 459.33,-699.65 466.01,-701.74"/>
</a>
</g>
</g>
<!-- Node17 -->
<g id="Node000017" class="node">
<title>Node17</title>
<g id="a_Node000017"><a xlink:href="../../d6/dc2/namespace_gam_r_1_1_o_r_n_l.html#aa025a5ef5e8093613423856223cdd3c0" target="_top" xlink:title=" ">
<polygon fill="white" stroke="#666666" points="396,-757.25 281,-757.25 281,-738 396,-738 396,-757.25"/>
<text text-anchor="middle" x="338.5" y="-743.75" font-family="Helvetica,sans-Serif" font-size="10.00">GamR::ORNL::his2root</text>
</a>
</g>
</g>
<!-- Node1&#45;&gt;Node17 -->
<g id="edge16_Node000001_Node000017" class="edge">
<title>Node1&#45;&gt;Node17</title>
<g id="a_edge16_Node000001_Node000017"><a xlink:title=" ">
<path fill="none" stroke="#63b8ff" d="M454.22,-698.34C445.23,-708.74 432.83,-721.07 419.25,-728.62 412.16,-732.57 404.27,-735.7 396.3,-738.18"/>
<polygon fill="#63b8ff" stroke="#63b8ff" points="456.85,-700.64 460.48,-690.69 451.44,-696.21 456.85,-700.64"/>
</a>
</g>
</g>
<!-- Node18 -->
<g id="Node000018" class="node">
<title>Node18</title>
<g id="a_Node000018"><a xlink:href="../../d1/d1e/class_gam_r_1_1_tree_1_1_t_exp_defn.html#a1fbfc310eec282ac4ff33b6117de967f" target="_top" xlink:title=" ">
<polygon fill="white" stroke="#666666" points="395.62,-719.88 281.38,-719.88 281.38,-689.38 395.62,-689.38 395.62,-719.88"/>
<text text-anchor="start" x="289.38" y="-706.38" font-family="Helvetica,sans-Serif" font-size="10.00">GamR::Tree::TExpDefn</text>
<text text-anchor="middle" x="338.5" y="-695.12" font-family="Helvetica,sans-Serif" font-size="10.00">::Load</text>
</a>
</g>
</g>
<!-- Node1&#45;&gt;Node18 -->
<g id="edge17_Node000001_Node000018" class="edge">
<title>Node1&#45;&gt;Node18</title>
<g id="a_edge17_Node000001_Node000018"><a xlink:title=" ">
<path fill="none" stroke="#63b8ff" d="M443.53,-684.49C429.92,-687.12 412.53,-690.49 395.88,-693.71"/>
<polygon fill="#63b8ff" stroke="#63b8ff" points="444.19,-687.92 453.34,-682.59 442.86,-681.05 444.19,-687.92"/>
</a>
</g>
</g>
<!-- Node19 -->
<g id="Node000019" class="node">
<title>Node19</title>
<g id="a_Node000019"><a xlink:href="../../d1/d1e/class_gam_r_1_1_tree_1_1_t_exp_defn.html#ad18875e3efcf669c9f8e90a8446da366" target="_top" xlink:title=" ">
<polygon fill="white" stroke="#666666" points="395.62,-670.88 281.38,-670.88 281.38,-640.38 395.62,-640.38 395.62,-670.88"/>
<text text-anchor="start" x="289.38" y="-657.38" font-family="Helvetica,sans-Serif" font-size="10.00">GamR::Tree::TExpDefn</text>
<text text-anchor="middle" x="338.5" y="-646.12" font-family="Helvetica,sans-Serif" font-size="10.00">::LoadRaw</text>
</a>
</g>
</g>
<!-- Node1&#45;&gt;Node19 -->
<g id="edge18_Node000001_Node000019" class="edge">
<title>Node1&#45;&gt;Node19</title>
<g id="a_edge18_Node000001_Node000019"><a xlink:title=" ">
<path fill="none" stroke="#63b8ff" d="M443.53,-674.96C429.92,-672.43 412.53,-669.2 395.88,-666.1"/>
<polygon fill="#63b8ff" stroke="#63b8ff" points="442.87,-678.39 453.34,-676.78 444.15,-671.51 442.87,-678.39"/>
</a>
</g>
</g>
<!-- Node20 -->
<g id="Node000020" class="node">
<title>Node20</title>
<g id="a_Node000020"><a xlink:href="../../dd/dff/struct_gam_r_1_1_tree_1_1_t_exp_defn_1_1_fill_det_defns.html#aea024937d7259d74710f12d60575cac4" target="_top" xlink:title=" ">
<polygon fill="white" stroke="#666666" points="398.25,-621.88 278.75,-621.88 278.75,-591.38 398.25,-591.38 398.25,-621.88"/>
<text text-anchor="start" x="286.75" y="-608.38" font-family="Helvetica,sans-Serif" font-size="10.00">GamR::Tree::TExpDefn</text>
<text text-anchor="middle" x="338.5" y="-597.12" font-family="Helvetica,sans-Serif" font-size="10.00">::FillDetDefns::operator()</text>
</a>
</g>
</g>
<!-- Node1&#45;&gt;Node20 -->
<g id="edge21_Node000001_Node000020" class="edge">
<title>Node1&#45;&gt;Node20</title>
<g id="a_edge21_Node000001_Node000020"><a xlink:title=" ">
<path fill="none" stroke="#63b8ff" d="M453.62,-661.29C444.57,-651.29 432.31,-639.41 419.25,-631.62 412.77,-627.76 405.63,-624.44 398.37,-621.59"/>
<polygon fill="#63b8ff" stroke="#63b8ff" points="450.77,-663.35 459.96,-668.62 456.07,-658.77 450.77,-663.35"/>
</a>
</g>
</g>
<!-- Node21 -->
<g id="Node000021" class="node">
<title>Node21</title>
<g id="a_Node000021"><a xlink:href="../../d1/d06/group___o_r_n_l.html#ga8dadacfbdfaeef91b856b23b906ac4e2" target="_top" xlink:title=" ">
<polygon fill="white" stroke="#666666" points="221.75,-554.25 73,-554.25 73,-535 221.75,-535 221.75,-554.25"/>
<text text-anchor="middle" x="147.38" y="-540.75" font-family="Helvetica,sans-Serif" font-size="10.00">GamR::ORNL::readAllBananas</text>
</a>
</g>
</g>
<!-- Node1&#45;&gt;Node21 -->
<g id="edge22_Node000001_Node000021" class="edge">
<title>Node1&#45;&gt;Node21</title>
<g id="a_edge22_Node000001_Node000021"><a xlink:title=" ">
<path fill="none" stroke="#63b8ff" d="M464.03,-658.59C457.88,-635.95 444.69,-600.77 419.25,-582.62 388.47,-560.67 291.16,-551.32 222.01,-547.4"/>
<polygon fill="#63b8ff" stroke="#63b8ff" points="460.61,-659.34 466.39,-668.21 467.4,-657.67 460.61,-659.34"/>
</a>
</g>
</g>
<!-- Node23 -->
<g id="Node000023" class="node">
<title>Node23</title>
<g id="a_Node000023"><a xlink:href="../../d1/d06/group___o_r_n_l.html#gadf516cfb4c9ea542a49beb4a7c8b3abd" target="_top" xlink:title=" ">
<polygon fill="white" stroke="#666666" points="404.62,-535.25 272.38,-535.25 272.38,-516 404.62,-516 404.62,-535.25"/>
<text text-anchor="middle" x="338.5" y="-521.75" font-family="Helvetica,sans-Serif" font-size="10.00">GamR::ORNL::readBanana</text>
</a>
</g>
</g>
<!-- Node1&#45;&gt;Node23 -->
<g id="edge24_Node000001_Node000023" class="edge">
<title>Node1&#45;&gt;Node23</title>
<g id="a_edge24_Node000001_Node000023"><a xlink:title=" ">
<path fill="none" stroke="#63b8ff" d="M466.36,-658.37C462.14,-629.65 450.49,-578.73 419.25,-549.62 412.8,-543.61 404.89,-539.1 396.59,-535.72"/>
<polygon fill="#63b8ff" stroke="#63b8ff" points="462.85,-658.53 467.59,-668.01 469.8,-657.65 462.85,-658.53"/>
</a>
</g>
</g>
<!-- Node24 -->
<g id="Node000024" class="node">
<title>Node24</title>
<g id="a_Node000024"><a xlink:href="../../d9/d72/class_gam_r_1_1_bateman_1_1_scheme.html#a5211e5a32f089ea8ccec29ad033c4ca9" target="_top" xlink:title=" ">
<polygon fill="white" stroke="#666666" points="402.38,-497.88 274.62,-497.88 274.62,-467.38 402.38,-467.38 402.38,-497.88"/>
<text text-anchor="start" x="282.62" y="-484.38" font-family="Helvetica,sans-Serif" font-size="10.00">GamR::Bateman::Scheme</text>
<text text-anchor="middle" x="338.5" y="-473.12" font-family="Helvetica,sans-Serif" font-size="10.00">::ReadScheme</text>
</a>
</g>
</g>
<!-- Node1&#45;&gt;Node24 -->
<g id="edge26_Node000001_Node000024" class="edge">
<title>Node1&#45;&gt;Node24</title>
<g id="a_edge26_Node000001_Node000024"><a xlink:title=" ">
<path fill="none" stroke="#63b8ff" d="M468.78,-658.77C467.85,-622.73 460.64,-548.61 419.25,-506.62 414.48,-501.79 408.77,-497.91 402.63,-494.82"/>
<polygon fill="#63b8ff" stroke="#63b8ff" points="465.28,-658.34 468.88,-668.3 472.28,-658.27 465.28,-658.34"/>
</a>
</g>
</g>
<!-- Node25 -->
<g id="Node000025" class="node">
<title>Node25</title>
<g id="a_Node000025"><a xlink:href="../../d3/ddb/class_gam_r_1_1_nucleus_1_1_level_scheme_draw_1_1_scheme.html#ab938e7f1c7cba45783402692e0192909" target="_top" xlink:title=" ">
<polygon fill="white" stroke="#666666" points="412.88,-448.88 264.12,-448.88 264.12,-418.38 412.88,-418.38 412.88,-448.88"/>
<text text-anchor="start" x="272.12" y="-435.38" font-family="Helvetica,sans-Serif" font-size="10.00">GamR::Nucleus::LevelScheme</text>
<text text-anchor="middle" x="338.5" y="-424.12" font-family="Helvetica,sans-Serif" font-size="10.00">Draw::Scheme::ReadScheme</text>
</a>
</g>
</g>
<!-- Node1&#45;&gt;Node25 -->
<g id="edge27_Node000001_Node000025" class="edge">
<title>Node1&#45;&gt;Node25</title>
<g id="a_edge27_Node000001_Node000025"><a xlink:title=" ">
<path fill="none" stroke="#63b8ff" d="M466.6,-658.46C461.4,-609.01 446.18,-487.91 419.25,-458.62 415.91,-454.99 412.05,-451.89 407.87,-449.23"/>
<polygon fill="#63b8ff" stroke="#63b8ff" points="463.09,-658.53 467.58,-668.13 470.05,-657.82 463.09,-658.53"/>
</a>
</g>
</g>
<!-- Node26 -->
<g id="Node000026" class="node">
<title>Node26</title>
<g id="a_Node000026"><a xlink:href="../../d4/d79/class_gam_r_1_1_tree_1_1_t_det_defn.html#ac188013ec5e52bf16f2edc2305eac784" target="_top" xlink:title=" ">
<polygon fill="white" stroke="#666666" points="395.25,-399.88 281.75,-399.88 281.75,-369.38 395.25,-369.38 395.25,-399.88"/>
<text text-anchor="start" x="289.75" y="-386.38" font-family="Helvetica,sans-Serif" font-size="10.00">GamR::Tree::TDetDefn</text>
<text text-anchor="middle" x="338.5" y="-375.12" font-family="Helvetica,sans-Serif" font-size="10.00">::SetCalFuncs</text>
</a>
</g>
</g>
<!-- Node1&#45;&gt;Node26 -->
<g id="edge28_Node000001_Node000026" class="edge">
<title>Node1&#45;&gt;Node26</title>
<g id="a_edge28_Node000001_Node000026"><a xlink:title=" ">
<path fill="none" stroke="#63b8ff" d="M467.54,-658.45C464.15,-601.47 452.04,-446.71 419.25,-409.62 412.91,-402.45 404.53,-397.31 395.6,-393.64"/>
<polygon fill="#63b8ff" stroke="#63b8ff" points="464.03,-658.3 468.08,-668.09 471.02,-657.91 464.03,-658.3"/>
</a>
</g>
</g>
<!-- Node27 -->
<g id="Node000027" class="node">
<title>Node27</title>
<g id="a_Node000027"><a xlink:href="../../d4/d79/class_gam_r_1_1_tree_1_1_t_det_defn.html#a329c7691b25de23668b020a1ca8c37ad" target="_top" xlink:title=" ">
<polygon fill="white" stroke="#666666" points="395.25,-350.88 281.75,-350.88 281.75,-320.38 395.25,-320.38 395.25,-350.88"/>
<text text-anchor="start" x="289.75" y="-337.38" font-family="Helvetica,sans-Serif" font-size="10.00">GamR::Tree::TDetDefn</text>
<text text-anchor="middle" x="338.5" y="-326.12" font-family="Helvetica,sans-Serif" font-size="10.00">::SetEffFunc</text>
</a>
</g>
</g>
<!-- Node1&#45;&gt;Node27 -->
<g id="edge29_Node000001_Node000027" class="edge">
<title>Node1&#45;&gt;Node27</title>
<g id="a_edge29_Node000001_Node000027"><a xlink:title=" ">
<path fill="none" stroke="#63b8ff" d="M468.2,-658.5C466.44,-594.7 457.97,-405.64 419.25,-360.62 412.91,-353.25 404.43,-348.03 395.36,-344.33"/>
<polygon fill="#63b8ff" stroke="#63b8ff" points="464.7,-658.39 468.44,-668.3 471.7,-658.21 464.7,-658.39"/>
</a>
</g>
</g>
<!-- Node28 -->
<g id="Node000028" class="node">
<title>Node28</title>
<g id="a_Node000028"><a xlink:href="../../d4/d79/class_gam_r_1_1_tree_1_1_t_det_defn.html#ad064c76b8660012e93eb3aea55e4b1b8" target="_top" xlink:title=" ">
<polygon fill="white" stroke="#666666" points="395.25,-301.88 281.75,-301.88 281.75,-271.38 395.25,-271.38 395.25,-301.88"/>
<text text-anchor="start" x="289.75" y="-288.38" font-family="Helvetica,sans-Serif" font-size="10.00">GamR::Tree::TDetDefn</text>
<text text-anchor="middle" x="338.5" y="-277.12" font-family="Helvetica,sans-Serif" font-size="10.00">::SetPollGates</text>
</a>
</g>
</g>
<!-- Node1&#45;&gt;Node28 -->
<g id="edge30_Node000001_Node000028" class="edge">
<title>Node1&#45;&gt;Node28</title>
<g id="a_edge30_Node000001_Node000028"><a xlink:title=" ">
<path fill="none" stroke="#63b8ff" d="M468.69,-658.52C468.4,-588.39 463.93,-364.64 419.25,-311.62 412.99,-304.19 404.54,-298.94 395.48,-295.23"/>
<polygon fill="#63b8ff" stroke="#63b8ff" points="465.19,-658.24 468.7,-668.23 472.19,-658.23 465.19,-658.24"/>
</a>
</g>
</g>
<!-- Node29 -->
<g id="Node000029" class="node">
<title>Node29</title>
<g id="a_Node000029"><a xlink:href="../../d4/d79/class_gam_r_1_1_tree_1_1_t_det_defn.html#ab3fe3b5f44d3eb6695d75c9cdc2211f3" target="_top" xlink:title=" ">
<polygon fill="white" stroke="#666666" points="395.25,-252.88 281.75,-252.88 281.75,-222.38 395.25,-222.38 395.25,-252.88"/>
<text text-anchor="start" x="289.75" y="-239.38" font-family="Helvetica,sans-Serif" font-size="10.00">GamR::Tree::TDetDefn</text>
<text text-anchor="middle" x="338.5" y="-228.12" font-family="Helvetica,sans-Serif" font-size="10.00">::SetPtrs</text>
</a>
</g>
</g>
<!-- Node1&#45;&gt;Node29 -->
<g id="edge31_Node000001_Node000029" class="edge">
<title>Node1&#45;&gt;Node29</title>
<g id="a_edge31_Node000001_Node000029"><a xlink:title=" ">
<path fill="none" stroke="#63b8ff" d="M469.07,-658.23C470.13,-581.8 469.85,-323.62 419.25,-262.62 413.04,-255.14 404.62,-249.86 395.57,-246.15"/>
<polygon fill="#63b8ff" stroke="#63b8ff" points="465.57,-658.02 468.91,-668.08 472.57,-658.14 465.57,-658.02"/>
</a>
</g>
</g>
<!-- Node30 -->
<g id="Node000030" class="node">
<title>Node30</title>
<g id="a_Node000030"><a xlink:href="../../dc/d89/namespace_gam_r_1_1_spect.html#afbdb537b10809077958d79f5505a2b8e" target="_top" xlink:title=" ">
<polygon fill="white" stroke="#666666" points="392.62,-204.25 284.38,-204.25 284.38,-185 392.62,-185 392.62,-204.25"/>
<text text-anchor="middle" x="338.5" y="-190.75" font-family="Helvetica,sans-Serif" font-size="10.00">GamR::Spect::ToText</text>
</a>
</g>
</g>
<!-- Node1&#45;&gt;Node30 -->
<g id="edge32_Node000001_Node000030" class="edge">
<title>Node1&#45;&gt;Node30</title>
<g id="a_edge32_Node000001_Node000030"><a xlink:title=" ">
<path fill="none" stroke="#63b8ff" d="M467.83,-658.5C464.27,-571.97 449.02,-247.48 419.25,-213.62 412.39,-205.82 402.96,-200.92 392.98,-197.91"/>
<polygon fill="#63b8ff" stroke="#63b8ff" points="464.32,-658.51 468.22,-668.37 471.32,-658.23 464.32,-658.51"/>
</a>
</g>
</g>
<!-- Node31 -->
<g id="Node000031" class="node">
<title>Node31</title>
<g id="a_Node000031"><a xlink:href="../../dc/d89/namespace_gam_r_1_1_spect.html#a612093cf55c5c41a047cbb48dae0cd7e" target="_top" xlink:title=" ">
<polygon fill="white" stroke="#666666" points="392.62,-167.25 284.38,-167.25 284.38,-148 392.62,-148 392.62,-167.25"/>
<text text-anchor="middle" x="338.5" y="-153.75" font-family="Helvetica,sans-Serif" font-size="10.00">GamR::Spect::ToText</text>
</a>
</g>
</g>
<!-- Node1&#45;&gt;Node31 -->
<g id="edge33_Node000001_Node000031" class="edge">
<title>Node1&#45;&gt;Node31</title>
<g id="a_edge33_Node000001_Node000031"><a xlink:title=" ">
<path fill="none" stroke="#63b8ff" d="M468.01,-658.22C465.07,-566.84 451.66,-212.33 419.25,-175.62 412.39,-167.86 402.96,-163.06 392.98,-160.16"/>
<polygon fill="#63b8ff" stroke="#63b8ff" points="464.5,-658.12 468.31,-668.01 471.5,-657.9 464.5,-658.12"/>
</a>
</g>
</g>
<!-- Node32 -->
<g id="Node000032" class="node">
<title>Node32</title>
<g id="a_Node000032"><a xlink:href="../../dc/d89/namespace_gam_r_1_1_spect.html#ab7b9dcab15bf0ce1e18050e31e279074" target="_top" xlink:title=" ">
<polygon fill="white" stroke="#666666" points="392.62,-130.25 284.38,-130.25 284.38,-111 392.62,-111 392.62,-130.25"/>
<text text-anchor="middle" x="338.5" y="-116.75" font-family="Helvetica,sans-Serif" font-size="10.00">GamR::Spect::ToText</text>
</a>
</g>
</g>
<!-- Node1&#45;&gt;Node32 -->
<g id="edge34_Node000001_Node000032" class="edge">
<title>Node1&#45;&gt;Node32</title>
<g id="a_edge34_Node000001_Node000032"><a xlink:title=" ">
<path fill="none" stroke="#63b8ff" d="M468.16,-658.2C465.77,-562.64 454.07,-178.33 419.25,-138.62 412.42,-130.83 403,-126.02 393.02,-123.13"/>
<polygon fill="#63b8ff" stroke="#63b8ff" points="464.66,-658.27 468.4,-668.18 471.66,-658.1 464.66,-658.27"/>
</a>
</g>
</g>
<!-- Node33 -->
<g id="Node000033" class="node">
<title>Node33</title>
<g id="a_Node000033"><a xlink:href="../../dc/d89/namespace_gam_r_1_1_spect.html#a1e4888dc63be16208f6f93c90c4928f7" target="_top" xlink:title=" ">
<polygon fill="white" stroke="#666666" points="392.62,-93.25 284.38,-93.25 284.38,-74 392.62,-74 392.62,-93.25"/>
<text text-anchor="middle" x="338.5" y="-79.75" font-family="Helvetica,sans-Serif" font-size="10.00">GamR::Spect::ToText</text>
</a>
</g>
</g>
<!-- Node1&#45;&gt;Node33 -->
<g id="edge35_Node000001_Node000033" class="edge">
<title>Node1&#45;&gt;Node33</title>
<g id="a_edge35_Node000001_Node000033"><a xlink:title=" ">
<path fill="none" stroke="#63b8ff" d="M468.3,-658.63C466.46,-559.86 456.54,-144.4 419.25,-101.62 412.44,-93.81 403.03,-89 393.06,-86.1"/>
<polygon fill="#63b8ff" stroke="#63b8ff" points="464.8,-658.51 468.47,-668.45 471.8,-658.39 464.8,-658.51"/>
</a>
</g>
</g>
<!-- Node34 -->
<g id="Node000034" class="node">
<title>Node34</title>
<g id="a_Node000034"><a xlink:href="../../dc/d89/namespace_gam_r_1_1_spect.html#a0dd01005b3fe204d006858acf8d290f7" target="_top" xlink:title=" ">
<polygon fill="white" stroke="#666666" points="392.62,-56.25 284.38,-56.25 284.38,-37 392.62,-37 392.62,-56.25"/>
<text text-anchor="middle" x="338.5" y="-42.75" font-family="Helvetica,sans-Serif" font-size="10.00">GamR::Spect::ToText</text>
</a>
</g>
</g>
<!-- Node1&#45;&gt;Node34 -->
<g id="edge36_Node000001_Node000034" class="edge">
<title>Node1&#45;&gt;Node34</title>
<g id="a_edge36_Node000001_Node000034"><a xlink:title=" ">
<path fill="none" stroke="#63b8ff" d="M468.41,-658.59C467.07,-555.91 458.96,-110.41 419.25,-64.62 412.46,-56.8 403.06,-51.97 393.09,-49.07"/>
<polygon fill="#63b8ff" stroke="#63b8ff" points="464.91,-658.35 468.53,-668.31 471.91,-658.27 464.91,-658.35"/>
</a>
</g>
</g>
<!-- Node35 -->
<g id="Node000035" class="node">
<title>Node35</title>
<g id="a_Node000035"><a xlink:href="../../dc/d89/namespace_gam_r_1_1_spect.html#af6364097911fd3287bf4a97d98e920db" target="_top" xlink:title=" ">
<polygon fill="white" stroke="#666666" points="392.62,-19.25 284.38,-19.25 284.38,0 392.62,0 392.62,-19.25"/>
<text text-anchor="middle" x="338.5" y="-5.75" font-family="Helvetica,sans-Serif" font-size="10.00">GamR::Spect::ToText</text>
</a>
</g>
</g>
<!-- Node1&#45;&gt;Node35 -->
<g id="edge37_Node000001_Node000035" class="edge">
<title>Node1&#45;&gt;Node35</title>
<g id="a_edge37_Node000001_Node000035"><a xlink:title=" ">
<path fill="none" stroke="#63b8ff" d="M468.51,-658.34C467.63,-551.45 461.36,-76.39 419.25,-27.62 412.48,-19.78 403.08,-14.95 393.11,-12.05"/>
<polygon fill="#63b8ff" stroke="#63b8ff" points="465.01,-658.25 468.59,-668.22 472.01,-658.2 465.01,-658.25"/>
</a>
</g>
</g>
<!-- Node8&#45;&gt;Node9 -->
<g id="edge8_Node000008_Node000009" class="edge">
<title>Node8&#45;&gt;Node9</title>
<g id="a_edge8_Node000008_Node000009"><a xlink:title=" ">
<path fill="none" stroke="#63b8ff" d="M256.65,-1043.22C243.73,-1041.72 230.47,-1040.17 217.85,-1038.71"/>
<polygon fill="#63b8ff" stroke="#63b8ff" points="256.04,-1046.67 266.38,-1044.35 256.85,-1039.72 256.04,-1046.67"/>
</a>
</g>
</g>
<!-- Node12 -->
<g id="Node000012" class="node">
<title>Node12</title>
<g id="a_Node000012"><a xlink:href="../../dc/d89/namespace_gam_r_1_1_spect.html#a509e9d3432c6d23f1db25ab0363497b8" target="_top" xlink:title=" ">
<polygon fill="white" stroke="#666666" points="206,-944.25 88.75,-944.25 88.75,-925 206,-925 206,-944.25"/>
<text text-anchor="middle" x="147.38" y="-930.75" font-family="Helvetica,sans-Serif" font-size="10.00">GamR::Spect::FitPeaks</text>
</a>
</g>
</g>
<!-- Node11&#45;&gt;Node12 -->
<g id="edge11_Node000011_Node000012" class="edge">
<title>Node11&#45;&gt;Node12</title>
<g id="a_edge11_Node000011_Node000012"><a xlink:title=" ">
<path fill="none" stroke="#63b8ff" d="M262.77,-934.62C244.04,-934.62 224.23,-934.62 206.45,-934.62"/>
<polygon fill="#63b8ff" stroke="#63b8ff" points="262.75,-938.13 272.75,-934.63 262.75,-931.13 262.75,-938.13"/>
</a>
</g>
</g>
<!-- Node15&#45;&gt;Node16 -->
<g id="edge15_Node000015_Node000016" class="edge">
<title>Node15&#45;&gt;Node16</title>
<g id="a_edge15_Node000015_Node000016"><a xlink:title=" ">
<path fill="none" stroke="#63b8ff" d="M255.87,-815.42C222.51,-812.07 186.96,-808.5 166.26,-806.42"/>
<polygon fill="#63b8ff" stroke="#63b8ff" points="255.27,-818.88 265.57,-816.4 255.97,-811.92 255.27,-818.88"/>
</a>
</g>
</g>
<!-- Node22 -->
<g id="Node000022" class="node">
<title>Node22</title>
<g id="a_Node000022"><a xlink:href="../../dd/de2/ban2root_8cc.html#a0ddf1224851353fc92bfbff6f499fa97" target="_top" xlink:title=" ">
<polygon fill="white" stroke="#666666" points="37,-554.25 0,-554.25 0,-535 37,-535 37,-554.25"/>
<text text-anchor="middle" x="18.5" y="-540.75" font-family="Helvetica,sans-Serif" font-size="10.00">main</text>
</a>
</g>
</g>
<!-- Node21&#45;&gt;Node22 -->
<g id="edge23_Node000021_Node000022" class="edge">
<title>Node21&#45;&gt;Node22</title>
<g id="a_edge23_Node000021_Node000022"><a xlink:title=" ">
<path fill="none" stroke="#63b8ff" d="M61.14,-544.62C52.34,-544.62 44.17,-544.62 37.44,-544.62"/>
<polygon fill="#63b8ff" stroke="#63b8ff" points="61.06,-548.13 71.06,-544.63 61.06,-541.13 61.06,-548.13"/>
</a>
</g>
</g>
<!-- Node23&#45;&gt;Node21 -->
<g id="edge25_Node000023_Node000021" class="edge">
<title>Node23&#45;&gt;Node21</title>
<g id="a_edge25_Node000023_Node000021"><a xlink:title=" ">
<path fill="none" stroke="#63b8ff" d="M260.77,-533.33C247.96,-534.62 234.7,-535.95 221.97,-537.23"/>
<polygon fill="#63b8ff" stroke="#63b8ff" points="260.78,-536.85 270.38,-532.37 260.08,-529.89 260.78,-536.85"/>
</a>
</g>
</g>
</g>
</svg>

<g id="navigator" transform="translate(0 0)" fill="#404254">
  <rect fill="#f2f5e9" fill-opacity="0.5" stroke="#606060" stroke-width=".5" x="0" y="0" width="60" height="60"/>
  <use id="zoomplus" xlink:href="#zoomPlus" x="17" y="9" onmousedown="handleZoom(evt,'in')"/>
  <use id="zoomminus" xlink:href="#zoomMin" x="42" y="9" onmousedown="handleZoom(evt,'out')"/>
  <use id="reset" xlink:href="#resetDef" x="30" y="36" onmousedown="handleReset()"/>
   <use id="arrowup" xlink:href="#arrowUp" x="0" y="0" onmousedown="handlePan(0,-1)"/>
  <use id="arrowright" xlink:href="#arrowRight" x="0" y="0" onmousedown="handlePan(1,0)"/>
  <use id="arrowdown" xlink:href="#arrowDown" x="0" y="0" onmousedown="handlePan(0,1)"/>
  <use id="arrowleft" xlink:href="#arrowLeft" x="0" y="0" onmousedown="handlePan(-1,0)"/>
</g>
<svg viewBox="0 0 15 15" width="100%" height="30px" preserveAspectRatio="xMaxYMin meet">
 <g id="arrow_out" transform="scale(0.3 0.3)">
  <a xlink:href="_abbreviations_8cc_a5d1794b612bdcca3f4f4baa3d2e38a0b_icgraph_org.svg" target="_base">
   <rect id="button" ry="5" rx="5" y="6" x="6" height="38" width="38"
        fill="#f2f5e9" fill-opacity="0.5" stroke="#606060" stroke-width="1.0"/>
   <path id="arrow"
     d="M 11.500037,31.436501 C 11.940474,20.09759 22.043105,11.32322 32.158766,21.979434 L 37.068811,17.246167 C 37.068811,17.246167 37.088388,32 37.088388,32 L 22.160133,31.978069 C 22.160133,31.978069 26.997745,27.140456 26.997745,27.140456 C 18.528582,18.264221 13.291696,25.230495 11.500037,31.436501 z"
     style="fill:#404040;"/>
  </a>
 </g>
</svg>

<style type='text/css'>
<![CDATA[
[data-mouse-over-selected='false'] { opacity: 0.7; }
[data-mouse-over-selected='true']  { opacity: 1.0; }
]]>
</style>
<script type="application/ecmascript"><![CDATA[
document.addEventListener('DOMContentLoaded', (event) => {
  highlightEdges();
  highlightAdjacentNodes();
});
]]></script>
</svg>
