<?xml version="1.0" encoding="UTF-8" standalone="no"?>
<!DOCTYPE svg PUBLIC "-//W3C//DTD SVG 1.1//EN"
 "http://www.w3.org/Graphics/SVG/1.1/DTD/svg11.dtd">
<!-- Generated by graphviz version 12.0.0 (20240704.0754)
 -->
<!-- Title: cbp Pages: 1 -->
<svg width="539pt" height="445pt"
 viewBox="0.00 0.00 539.25 445.25" xmlns="http://www.w3.org/2000/svg" xmlns:xlink="http://www.w3.org/1999/xlink">
<g id="graph0" class="graph" transform="scale(1 1) rotate(0) translate(4 441.25)">
<title>cbp</title>
<!-- Node1 -->
<g id="Node000001" class="node">
<title>Node1</title>
<g id="a_Node000001"><a xlink:title=" ">
<polygon fill="#999999" stroke="#666666" points="31.75,-252.25 0,-252.25 0,-233 31.75,-233 31.75,-252.25"/>
<text text-anchor="middle" x="15.88" y="-238.75" font-family="Helvetica,sans-Serif" font-size="10.00">cbp</text>
</a>
</g>
</g>
<!-- Node2 -->
<g id="Node000002" class="node">
<title>Node2</title>
<g id="a_Node000002"><a xlink:href="../../d0/d74/group___t_k.html#gab9295d2a9e654d7540ee264d036590cd" target="_top" xlink:title=" ">
<polygon fill="white" stroke="#666666" points="184.25,-252.25 67.75,-252.25 67.75,-233 184.25,-233 184.25,-252.25"/>
<text text-anchor="middle" x="126" y="-238.75" font-family="Helvetica,sans-Serif" font-size="10.00">GamR::TK::ClickBPeak</text>
</a>
</g>
</g>
<!-- Node1&#45;&gt;Node2 -->
<g id="edge1_Node000001_Node000002" class="edge">
<title>Node1&#45;&gt;Node2</title>
<g id="a_edge1_Node000001_Node000002"><a xlink:title=" ">
<path fill="none" stroke="#63b8ff" d="M31.91,-242.62C38.67,-242.62 47.19,-242.62 56.3,-242.62"/>
<polygon fill="#63b8ff" stroke="#63b8ff" points="56.12,-246.13 66.12,-242.63 56.12,-239.13 56.12,-246.13"/>
</a>
</g>
</g>
<!-- Node3 -->
<g id="Node000003" class="node">
<title>Node3</title>
<g id="a_Node000003"><a xlink:href="../../d0/db7/namespace_gam_r_1_1_utils.html#a31f74a9ca644d560dc14e19c4dbd773b" target="_top" xlink:title=" ">
<polygon fill="white" stroke="#666666" points="339.38,-271.25 220.62,-271.25 220.62,-252 339.38,-252 339.38,-271.25"/>
<text text-anchor="middle" x="280" y="-257.75" font-family="Helvetica,sans-Serif" font-size="10.00">GamR::Utils::GetHist1D</text>
</a>
</g>
</g>
<!-- Node2&#45;&gt;Node3 -->
<g id="edge2_Node000002_Node000003" class="edge">
<title>Node2&#45;&gt;Node3</title>
<g id="a_edge2_Node000002_Node000003"><a xlink:title=" ">
<path fill="none" stroke="#63b8ff" d="M184.46,-249.81C192.41,-250.8 200.64,-251.83 208.78,-252.85"/>
<polygon fill="#63b8ff" stroke="#63b8ff" points="208.33,-256.32 218.69,-254.09 209.2,-249.37 208.33,-256.32"/>
</a>
</g>
</g>
<!-- Node4 -->
<g id="Node000004" class="node">
<title>Node4</title>
<g id="a_Node000004"><a xlink:href="../../d0/d74/group___t_k.html#gaa496d15cf9600fa5790ff50c9392b0fd" target="_top" xlink:title=" ">
<polygon fill="white" stroke="#666666" points="339.75,-234.25 220.25,-234.25 220.25,-215 339.75,-215 339.75,-234.25"/>
<text text-anchor="middle" x="280" y="-220.75" font-family="Helvetica,sans-Serif" font-size="10.00">GamR::TK::BPeak::Print</text>
</a>
</g>
</g>
<!-- Node2&#45;&gt;Node4 -->
<g id="edge3_Node000002_Node000004" class="edge">
<title>Node2&#45;&gt;Node4</title>
<g id="a_edge3_Node000002_Node000004"><a xlink:title=" ">
<path fill="none" stroke="#63b8ff" d="M184.46,-235.82C192.35,-234.89 200.52,-233.92 208.6,-232.96"/>
<polygon fill="#63b8ff" stroke="#63b8ff" points="208.92,-236.45 218.43,-231.8 208.09,-229.5 208.92,-236.45"/>
</a>
</g>
</g>
<!-- Node5 -->
<g id="Node000005" class="node">
<title>Node5</title>
<g id="a_Node000005"><a xlink:href="../../d0/d74/group___t_k.html#ga0133d6b49ae4051d478518e61ae0c8a5" target="_top" xlink:title=" ">
<polygon fill="white" stroke="#666666" points="521.12,-437.25 385.88,-437.25 385.88,-418 521.12,-418 521.12,-437.25"/>
<text text-anchor="middle" x="453.5" y="-423.75" font-family="Helvetica,sans-Serif" font-size="10.00">GamR::TK::BPeak::GetAmp</text>
</a>
</g>
</g>
<!-- Node4&#45;&gt;Node5 -->
<g id="edge4_Node000004_Node000005" class="edge">
<title>Node4&#45;&gt;Node5</title>
<g id="a_edge4_Node000004_Node000005"><a xlink:title=" ">
<path fill="none" stroke="#63b8ff" d="M329.73,-234.73C333.44,-236.88 336.86,-239.48 339.75,-242.62 391.11,-298.55 322.55,-355.45 375.75,-409.62 376.13,-410.02 376.52,-410.4 376.92,-410.77"/>
<polygon fill="#63b8ff" stroke="#63b8ff" points="374.76,-413.53 384.88,-416.67 378.93,-407.91 374.76,-413.53"/>
</a>
</g>
</g>
<!-- Node6 -->
<g id="Node000006" class="node">
<title>Node6</title>
<g id="a_Node000006"><a xlink:href="../../d0/d74/group___t_k.html#gaa14fdc374518d186c18b0aabeb91898f" target="_top" xlink:title=" ">
<polygon fill="white" stroke="#666666" points="531.25,-400.25 375.75,-400.25 375.75,-381 531.25,-381 531.25,-400.25"/>
<text text-anchor="middle" x="453.5" y="-386.75" font-family="Helvetica,sans-Serif" font-size="10.00">GamR::TK::BPeak::GetAmpError</text>
</a>
</g>
</g>
<!-- Node4&#45;&gt;Node6 -->
<g id="edge5_Node000004_Node000006" class="edge">
<title>Node4&#45;&gt;Node6</title>
<g id="a_edge5_Node000004_Node000006"><a xlink:title=" ">
<path fill="none" stroke="#63b8ff" d="M328.97,-234.6C332.94,-236.77 336.63,-239.41 339.75,-242.62 381.56,-285.59 332.52,-331.08 375.75,-372.62 376.26,-373.11 376.78,-373.59 377.31,-374.06"/>
<polygon fill="#63b8ff" stroke="#63b8ff" points="375.21,-376.86 385.42,-379.7 379.21,-371.12 375.21,-376.86"/>
</a>
</g>
</g>
<!-- Node7 -->
<g id="Node000007" class="node">
<title>Node7</title>
<g id="a_Node000007"><a xlink:href="../../d0/d74/group___t_k.html#gad927a2d29f50b92c440bc6ece786ef72" target="_top" xlink:title=" ">
<polygon fill="white" stroke="#666666" points="521.12,-363.25 385.88,-363.25 385.88,-344 521.12,-344 521.12,-363.25"/>
<text text-anchor="middle" x="453.5" y="-349.75" font-family="Helvetica,sans-Serif" font-size="10.00">GamR::TK::BPeak::GetArea</text>
</a>
</g>
</g>
<!-- Node4&#45;&gt;Node7 -->
<g id="edge6_Node000004_Node000007" class="edge">
<title>Node4&#45;&gt;Node7</title>
<g id="a_edge6_Node000004_Node000007"><a xlink:title=" ">
<path fill="none" stroke="#63b8ff" d="M328.06,-234.65C332.31,-236.81 336.31,-239.43 339.75,-242.62 371.95,-272.48 342.75,-305.66 375.75,-334.62 377.04,-335.76 378.39,-336.82 379.78,-337.83"/>
<polygon fill="#63b8ff" stroke="#63b8ff" points="377.9,-340.78 388.3,-342.84 381.45,-334.75 377.9,-340.78"/>
</a>
</g>
</g>
<!-- Node8 -->
<g id="Node000008" class="node">
<title>Node8</title>
<g id="a_Node000008"><a xlink:href="../../d0/d74/group___t_k.html#ga4aaec131e418c8788ab191a4eb6a7fa9" target="_top" xlink:title=" ">
<polygon fill="white" stroke="#666666" points="521.12,-325.88 385.88,-325.88 385.88,-295.38 521.12,-295.38 521.12,-325.88"/>
<text text-anchor="start" x="393.88" y="-312.38" font-family="Helvetica,sans-Serif" font-size="10.00">GamR::TK::BPeak::GetArea</text>
<text text-anchor="middle" x="453.5" y="-301.12" font-family="Helvetica,sans-Serif" font-size="10.00">Error</text>
</a>
</g>
</g>
<!-- Node4&#45;&gt;Node8 -->
<g id="edge7_Node000004_Node000008" class="edge">
<title>Node4&#45;&gt;Node8</title>
<g id="a_edge7_Node000004_Node000008"><a xlink:title=" ">
<path fill="none" stroke="#63b8ff" d="M324.38,-234.69C329.79,-236.86 335.06,-239.47 339.75,-242.62 360.73,-256.71 354.81,-272.48 375.75,-286.62 377.34,-287.7 378.98,-288.73 380.66,-289.71"/>
<polygon fill="#63b8ff" stroke="#63b8ff" points="378.83,-292.71 389.32,-294.18 382.04,-286.48 378.83,-292.71"/>
</a>
</g>
</g>
<!-- Node9 -->
<g id="Node000009" class="node">
<title>Node9</title>
<g id="a_Node000009"><a xlink:href="../../d0/d74/group___t_k.html#ga2bc60e269306be300511aa630417506d" target="_top" xlink:title=" ">
<polygon fill="white" stroke="#666666" points="521.12,-277.25 385.88,-277.25 385.88,-258 521.12,-258 521.12,-277.25"/>
<text text-anchor="middle" x="453.5" y="-263.75" font-family="Helvetica,sans-Serif" font-size="10.00">GamR::TK::BPeak::GetCent</text>
</a>
</g>
</g>
<!-- Node4&#45;&gt;Node9 -->
<g id="edge8_Node000004_Node000009" class="edge">
<title>Node4&#45;&gt;Node9</title>
<g id="a_edge8_Node000004_Node000009"><a xlink:title=" ">
<path fill="none" stroke="#63b8ff" d="M320.63,-234.71C337.6,-239.02 357.64,-244.09 375.75,-248.62 383.71,-250.62 392.15,-252.72 400.39,-254.77"/>
<polygon fill="#63b8ff" stroke="#63b8ff" points="399.45,-258.14 409.99,-257.15 401.13,-251.34 399.45,-258.14"/>
</a>
</g>
</g>
<!-- Node10 -->
<g id="Node000010" class="node">
<title>Node10</title>
<g id="a_Node000010"><a xlink:href="../../d0/d74/group___t_k.html#ga32d918b4d80ea9e892c18f5936ae1c49" target="_top" xlink:title=" ">
<polygon fill="white" stroke="#666666" points="521.12,-239.88 385.88,-239.88 385.88,-209.38 521.12,-209.38 521.12,-239.88"/>
<text text-anchor="start" x="393.88" y="-226.38" font-family="Helvetica,sans-Serif" font-size="10.00">GamR::TK::BPeak::GetCent</text>
<text text-anchor="middle" x="453.5" y="-215.12" font-family="Helvetica,sans-Serif" font-size="10.00">Error</text>
</a>
</g>
</g>
<!-- Node4&#45;&gt;Node10 -->
<g id="edge9_Node000004_Node000010" class="edge">
<title>Node4&#45;&gt;Node10</title>
<g id="a_edge9_Node000004_Node000010"><a xlink:title=" ">
<path fill="none" stroke="#63b8ff" d="M340.02,-224.62C350.99,-224.62 362.62,-224.62 374.06,-224.62"/>
<polygon fill="#63b8ff" stroke="#63b8ff" points="373.91,-228.13 383.91,-224.63 373.91,-221.13 373.91,-228.13"/>
</a>
</g>
</g>
<!-- Node11 -->
<g id="Node000011" class="node">
<title>Node11</title>
<g id="a_Node000011"><a xlink:href="../../d0/d74/group___t_k.html#ga86fb9a62fe918832b4fb6f6ae42f1965" target="_top" xlink:title=" ">
<polygon fill="white" stroke="#666666" points="526.38,-191.25 380.62,-191.25 380.62,-172 526.38,-172 526.38,-191.25"/>
<text text-anchor="middle" x="453.5" y="-177.75" font-family="Helvetica,sans-Serif" font-size="10.00">GamR::TK::BPeak::GetCounts</text>
</a>
</g>
</g>
<!-- Node4&#45;&gt;Node11 -->
<g id="edge10_Node000004_Node000011" class="edge">
<title>Node4&#45;&gt;Node11</title>
<g id="a_edge10_Node000004_Node000011"><a xlink:title=" ">
<path fill="none" stroke="#63b8ff" d="M320.63,-214.54C337.6,-210.23 357.64,-205.16 375.75,-200.62 383.71,-198.63 392.15,-196.53 400.39,-194.48"/>
<polygon fill="#63b8ff" stroke="#63b8ff" points="401.13,-197.91 409.99,-192.1 399.45,-191.11 401.13,-197.91"/>
</a>
</g>
</g>
<!-- Node12 -->
<g id="Node000012" class="node">
<title>Node12</title>
<g id="a_Node000012"><a xlink:href="../../d0/d74/group___t_k.html#gac083ac86c150085adae965936f41bb49" target="_top" xlink:title=" ">
<polygon fill="white" stroke="#666666" points="526.38,-153.88 380.62,-153.88 380.62,-123.38 526.38,-123.38 526.38,-153.88"/>
<text text-anchor="start" x="388.62" y="-140.38" font-family="Helvetica,sans-Serif" font-size="10.00">GamR::TK::BPeak::GetCounts</text>
<text text-anchor="middle" x="453.5" y="-129.12" font-family="Helvetica,sans-Serif" font-size="10.00">Error</text>
</a>
</g>
</g>
<!-- Node4&#45;&gt;Node12 -->
<g id="edge11_Node000004_Node000012" class="edge">
<title>Node4&#45;&gt;Node12</title>
<g id="a_edge11_Node000004_Node000012"><a xlink:title=" ">
<path fill="none" stroke="#63b8ff" d="M293.81,-214.57C311.41,-201.16 344.47,-177.4 375.75,-162.62 378.87,-161.15 382.1,-159.74 385.39,-158.39"/>
<polygon fill="#63b8ff" stroke="#63b8ff" points="386.56,-161.69 394.65,-154.84 384.06,-155.15 386.56,-161.69"/>
</a>
</g>
</g>
<!-- Node13 -->
<g id="Node000013" class="node">
<title>Node13</title>
<g id="a_Node000013"><a xlink:href="../../d0/d74/group___t_k.html#gaa2200a38a3956d5e129aeeca03b2952a" target="_top" xlink:title=" ">
<polygon fill="white" stroke="#666666" points="523.38,-105.25 383.62,-105.25 383.62,-86 523.38,-86 523.38,-105.25"/>
<text text-anchor="middle" x="453.5" y="-91.75" font-family="Helvetica,sans-Serif" font-size="10.00">GamR::TK::BPeak::GetWidth</text>
</a>
</g>
</g>
<!-- Node4&#45;&gt;Node13 -->
<g id="edge12_Node000004_Node000013" class="edge">
<title>Node4&#45;&gt;Node13</title>
<g id="a_edge12_Node000004_Node000013"><a xlink:title=" ">
<path fill="none" stroke="#63b8ff" d="M286.65,-214.6C299.47,-192.79 333.02,-140.89 375.75,-114.62 378.55,-112.91 381.49,-111.34 384.53,-109.92"/>
<polygon fill="#63b8ff" stroke="#63b8ff" points="385.8,-113.18 393.75,-106.18 383.16,-106.7 385.8,-113.18"/>
</a>
</g>
</g>
<!-- Node14 -->
<g id="Node000014" class="node">
<title>Node14</title>
<g id="a_Node000014"><a xlink:href="../../d0/d74/group___t_k.html#ga7673c2803d0941563430bf8ef217da80" target="_top" xlink:title=" ">
<polygon fill="white" stroke="#666666" points="523.38,-67.88 383.62,-67.88 383.62,-37.38 523.38,-37.38 523.38,-67.88"/>
<text text-anchor="start" x="391.62" y="-54.38" font-family="Helvetica,sans-Serif" font-size="10.00">GamR::TK::BPeak::GetWidth</text>
<text text-anchor="middle" x="453.5" y="-43.12" font-family="Helvetica,sans-Serif" font-size="10.00">Error</text>
</a>
</g>
</g>
<!-- Node4&#45;&gt;Node14 -->
<g id="edge13_Node000004_Node000014" class="edge">
<title>Node4&#45;&gt;Node14</title>
<g id="a_edge13_Node000004_Node000014"><a xlink:title=" ">
<path fill="none" stroke="#63b8ff" d="M284.57,-214.65C294.59,-188.06 325.56,-114.96 375.75,-76.62 377.07,-75.62 378.43,-74.65 379.82,-73.73"/>
<polygon fill="#63b8ff" stroke="#63b8ff" points="381.24,-76.95 388.18,-68.94 377.76,-70.88 381.24,-76.95"/>
</a>
</g>
</g>
<!-- Node15 -->
<g id="Node000015" class="node">
<title>Node15</title>
<g id="a_Node000015"><a xlink:href="../../d0/db7/namespace_gam_r_1_1_utils.html#a80bc6c0c1ecd5d28cd4f9e3ae38f92ed" target="_top" xlink:title=" ">
<polygon fill="white" stroke="#666666" points="507.25,-19.25 399.75,-19.25 399.75,0 507.25,0 507.25,-19.25"/>
<text text-anchor="middle" x="453.5" y="-5.75" font-family="Helvetica,sans-Serif" font-size="10.00">GamR::Utils::wrresult</text>
</a>
</g>
</g>
<!-- Node4&#45;&gt;Node15 -->
<g id="edge14_Node000004_Node000015" class="edge">
<title>Node4&#45;&gt;Node15</title>
<g id="a_edge14_Node000004_Node000015"><a xlink:title=" ">
<path fill="none" stroke="#63b8ff" d="M282.74,-214.64C288.93,-182.31 312.94,-79.58 375.75,-28.62 379.69,-25.43 384.1,-22.75 388.76,-20.52"/>
<polygon fill="#63b8ff" stroke="#63b8ff" points="389.87,-23.85 397.85,-16.88 387.27,-17.35 389.87,-23.85"/>
</a>
</g>
</g>
</g>
</svg>
