<?xml version="1.0" encoding="UTF-8" standalone="no"?>
<!DOCTYPE svg PUBLIC "-//W3C//DTD SVG 1.1//EN"
 "http://www.w3.org/Graphics/SVG/1.1/DTD/svg11.dtd">
<!-- Generated by graphviz version 9.0.0 (20230911.1827)
 -->
<!-- Title: GamR::Spect::BackSub2D Pages: 1 -->
<svg width="282pt" height="1508pt"
 viewBox="0.00 0.00 281.80 1508.00" xmlns="http://www.w3.org/2000/svg" xmlns:xlink="http://www.w3.org/1999/xlink">
<g id="graph0" class="graph" transform="scale(1 1) rotate(0) translate(4 1504)">
<title>GamR::Spect::BackSub2D</title>
<!-- Node1 -->
<g id="Node000001" class="node">
<title>Node1</title>
<g id="a_Node000001"><a xlink:title=" ">
<polygon fill="#999999" stroke="none" points="235.3,-394 111.3,-394 111.3,0 235.3,0 235.3,-394"/>
<text text-anchor="start" x="116.3" y="-380.5" font-family="Helvetica,sans-Serif" font-size="10.00">GamR::Spect::BackSub2D</text>
<text text-anchor="start" x="117.8" y="-365.5" font-family="Helvetica,sans-Serif" font-size="10.00">+</text>
<text text-anchor="start" x="130.3" y="-365.5" font-family="Helvetica,sans-Serif" font-size="10.00">y_sub</text>
<text text-anchor="start" x="117.8" y="-350.5" font-family="Helvetica,sans-Serif" font-size="10.00">+</text>
<text text-anchor="start" x="130.3" y="-350.5" font-family="Helvetica,sans-Serif" font-size="10.00">x_sub</text>
<text text-anchor="start" x="117.8" y="-335.5" font-family="Helvetica,sans-Serif" font-size="10.00">+</text>
<text text-anchor="start" x="130.3" y="-335.5" font-family="Helvetica,sans-Serif" font-size="10.00">unsubtracted</text>
<text text-anchor="start" x="117.8" y="-320.5" font-family="Helvetica,sans-Serif" font-size="10.00">+</text>
<text text-anchor="start" x="130.3" y="-320.5" font-family="Helvetica,sans-Serif" font-size="10.00">subtracted</text>
<text text-anchor="start" x="117.8" y="-305.5" font-family="Helvetica,sans-Serif" font-size="10.00">+</text>
<text text-anchor="start" x="130.3" y="-305.5" font-family="Helvetica,sans-Serif" font-size="10.00">SetPeak()</text>
<text text-anchor="start" x="117.8" y="-290.5" font-family="Helvetica,sans-Serif" font-size="10.00">+</text>
<text text-anchor="start" x="130.3" y="-290.5" font-family="Helvetica,sans-Serif" font-size="10.00">SetPeak()</text>
<text text-anchor="start" x="117.8" y="-275.5" font-family="Helvetica,sans-Serif" font-size="10.00">+</text>
<text text-anchor="start" x="130.3" y="-275.5" font-family="Helvetica,sans-Serif" font-size="10.00">AddBackX()</text>
<text text-anchor="start" x="117.8" y="-260.5" font-family="Helvetica,sans-Serif" font-size="10.00">+</text>
<text text-anchor="start" x="130.3" y="-260.5" font-family="Helvetica,sans-Serif" font-size="10.00">AddBackY()</text>
<text text-anchor="start" x="117.8" y="-245.5" font-family="Helvetica,sans-Serif" font-size="10.00">+</text>
<text text-anchor="start" x="130.3" y="-245.5" font-family="Helvetica,sans-Serif" font-size="10.00">AddBackX()</text>
<text text-anchor="start" x="117.8" y="-230.5" font-family="Helvetica,sans-Serif" font-size="10.00">+</text>
<text text-anchor="start" x="130.3" y="-230.5" font-family="Helvetica,sans-Serif" font-size="10.00">AddBackY()</text>
<text text-anchor="start" x="117.8" y="-215.5" font-family="Helvetica,sans-Serif" font-size="10.00">+</text>
<text text-anchor="start" x="130.3" y="-215.5" font-family="Helvetica,sans-Serif" font-size="10.00">AddBackDiag()</text>
<text text-anchor="start" x="117.8" y="-200.5" font-family="Helvetica,sans-Serif" font-size="10.00">+</text>
<text text-anchor="start" x="130.3" y="-200.5" font-family="Helvetica,sans-Serif" font-size="10.00">AddBackDiag()</text>
<text text-anchor="start" x="117.8" y="-185.5" font-family="Helvetica,sans-Serif" font-size="10.00">+</text>
<text text-anchor="start" x="130.3" y="-185.5" font-family="Helvetica,sans-Serif" font-size="10.00">AddBackBack()</text>
<text text-anchor="start" x="117.8" y="-170.5" font-family="Helvetica,sans-Serif" font-size="10.00">+</text>
<text text-anchor="start" x="130.3" y="-170.5" font-family="Helvetica,sans-Serif" font-size="10.00">AddBackBack()</text>
<text text-anchor="start" x="117.8" y="-155.5" font-family="Helvetica,sans-Serif" font-size="10.00">+</text>
<text text-anchor="start" x="130.3" y="-155.5" font-family="Helvetica,sans-Serif" font-size="10.00">BackSub2D()</text>
<text text-anchor="start" x="117.8" y="-140.5" font-family="Helvetica,sans-Serif" font-size="10.00">+</text>
<text text-anchor="start" x="130.3" y="-140.5" font-family="Helvetica,sans-Serif" font-size="10.00">SetPeak()</text>
<text text-anchor="start" x="117.8" y="-125.5" font-family="Helvetica,sans-Serif" font-size="10.00">+</text>
<text text-anchor="start" x="130.3" y="-125.5" font-family="Helvetica,sans-Serif" font-size="10.00">AddBackX()</text>
<text text-anchor="start" x="117.8" y="-110.5" font-family="Helvetica,sans-Serif" font-size="10.00">+</text>
<text text-anchor="start" x="130.3" y="-110.5" font-family="Helvetica,sans-Serif" font-size="10.00">AddBackY()</text>
<text text-anchor="start" x="117.8" y="-95.5" font-family="Helvetica,sans-Serif" font-size="10.00">+</text>
<text text-anchor="start" x="130.3" y="-95.5" font-family="Helvetica,sans-Serif" font-size="10.00">AddBackBack()</text>
<text text-anchor="start" x="117.8" y="-80.5" font-family="Helvetica,sans-Serif" font-size="10.00">+</text>
<text text-anchor="start" x="130.3" y="-80.5" font-family="Helvetica,sans-Serif" font-size="10.00">AddBackDiag()</text>
<text text-anchor="start" x="117.8" y="-65.5" font-family="Helvetica,sans-Serif" font-size="10.00">+</text>
<text text-anchor="start" x="130.3" y="-65.5" font-family="Helvetica,sans-Serif" font-size="10.00">Subtract()</text>
<text text-anchor="start" x="117.8" y="-50.5" font-family="Helvetica,sans-Serif" font-size="10.00">+</text>
<text text-anchor="start" x="130.3" y="-50.5" font-family="Helvetica,sans-Serif" font-size="10.00">GetPeakArea()</text>
<text text-anchor="start" x="117.8" y="-35.5" font-family="Helvetica,sans-Serif" font-size="10.00">+</text>
<text text-anchor="start" x="130.3" y="-35.5" font-family="Helvetica,sans-Serif" font-size="10.00">GetPeakAreaError()</text>
<text text-anchor="start" x="117.8" y="-20.5" font-family="Helvetica,sans-Serif" font-size="10.00">+</text>
<text text-anchor="start" x="130.3" y="-20.5" font-family="Helvetica,sans-Serif" font-size="10.00">GetPeakCounts()</text>
<text text-anchor="start" x="117.8" y="-5.5" font-family="Helvetica,sans-Serif" font-size="10.00">+</text>
<text text-anchor="start" x="130.3" y="-5.5" font-family="Helvetica,sans-Serif" font-size="10.00">GetPeakCountsError()</text>
<polygon fill="#666666" stroke="#666666" points="111.3,-377 111.3,-377 235.3,-377 235.3,-377 111.3,-377"/>
<polygon fill="#666666" stroke="#666666" points="111.3,-317 111.3,-317 128.3,-317 128.3,-317 111.3,-317"/>
<polygon fill="#666666" stroke="#666666" points="128.3,-317 128.3,-317 235.3,-317 235.3,-317 128.3,-317"/>
<polygon fill="none" stroke="#666666" points="111.3,0 111.3,-394 235.3,-394 235.3,0 111.3,0"/>
</a>
</g>
</g>
<!-- Node2 -->
<g id="Node000002" class="node">
<title>Node2</title>
<g id="a_Node000002"><a xlink:href="../../d0/d79/class_gam_r_1_1_t_k_1_1_gate.html" target="_top" xlink:title=" ">
<polygon fill="white" stroke="none" points="245.3,-1403.75 137.3,-1403.75 137.3,-604.75 245.3,-604.75 245.3,-1403.75"/>
<text text-anchor="start" x="156.05" y="-1390.25" font-family="Helvetica,sans-Serif" font-size="10.00">GamR::TK::Gate</text>
<text text-anchor="start" x="189.8" y="-1375.25" font-family="Helvetica,sans-Serif" font-size="10.00"> </text>
<text text-anchor="start" x="141.3" y="-1360.25" font-family="Helvetica,sans-Serif" font-size="10.00">+</text>
<text text-anchor="start" x="151.3" y="-1360.25" font-family="Helvetica,sans-Serif" font-size="10.00">Gate()</text>
<text text-anchor="start" x="141.3" y="-1345.25" font-family="Helvetica,sans-Serif" font-size="10.00">+</text>
<text text-anchor="start" x="151.3" y="-1345.25" font-family="Helvetica,sans-Serif" font-size="10.00">Gate()</text>
<text text-anchor="start" x="141.3" y="-1330.25" font-family="Helvetica,sans-Serif" font-size="10.00">+</text>
<text text-anchor="start" x="151.3" y="-1330.25" font-family="Helvetica,sans-Serif" font-size="10.00">Gate()</text>
<text text-anchor="start" x="141.3" y="-1315.25" font-family="Helvetica,sans-Serif" font-size="10.00">+</text>
<text text-anchor="start" x="151.3" y="-1315.25" font-family="Helvetica,sans-Serif" font-size="10.00">Gate()</text>
<text text-anchor="start" x="141.3" y="-1300.25" font-family="Helvetica,sans-Serif" font-size="10.00">+</text>
<text text-anchor="start" x="151.3" y="-1300.25" font-family="Helvetica,sans-Serif" font-size="10.00">Gate()</text>
<text text-anchor="start" x="141.3" y="-1285.25" font-family="Helvetica,sans-Serif" font-size="10.00">+</text>
<text text-anchor="start" x="151.3" y="-1285.25" font-family="Helvetica,sans-Serif" font-size="10.00">Gate()</text>
<text text-anchor="start" x="141.3" y="-1270.25" font-family="Helvetica,sans-Serif" font-size="10.00">+</text>
<text text-anchor="start" x="151.3" y="-1270.25" font-family="Helvetica,sans-Serif" font-size="10.00">Gate()</text>
<text text-anchor="start" x="141.3" y="-1255.25" font-family="Helvetica,sans-Serif" font-size="10.00">+</text>
<text text-anchor="start" x="151.3" y="-1255.25" font-family="Helvetica,sans-Serif" font-size="10.00">~Gate()</text>
<text text-anchor="start" x="141.3" y="-1240.25" font-family="Helvetica,sans-Serif" font-size="10.00">+</text>
<text text-anchor="start" x="151.3" y="-1240.25" font-family="Helvetica,sans-Serif" font-size="10.00">SetGate()</text>
<text text-anchor="start" x="141.3" y="-1225.25" font-family="Helvetica,sans-Serif" font-size="10.00">+</text>
<text text-anchor="start" x="151.3" y="-1225.25" font-family="Helvetica,sans-Serif" font-size="10.00">SetGate()</text>
<text text-anchor="start" x="141.3" y="-1210.25" font-family="Helvetica,sans-Serif" font-size="10.00">+</text>
<text text-anchor="start" x="151.3" y="-1210.25" font-family="Helvetica,sans-Serif" font-size="10.00">SetGate()</text>
<text text-anchor="start" x="141.3" y="-1195.25" font-family="Helvetica,sans-Serif" font-size="10.00">+</text>
<text text-anchor="start" x="151.3" y="-1195.25" font-family="Helvetica,sans-Serif" font-size="10.00">SetLow()</text>
<text text-anchor="start" x="141.3" y="-1180.25" font-family="Helvetica,sans-Serif" font-size="10.00">+</text>
<text text-anchor="start" x="151.3" y="-1180.25" font-family="Helvetica,sans-Serif" font-size="10.00">SetLow()</text>
<text text-anchor="start" x="141.3" y="-1165.25" font-family="Helvetica,sans-Serif" font-size="10.00">+</text>
<text text-anchor="start" x="151.3" y="-1165.25" font-family="Helvetica,sans-Serif" font-size="10.00">SetHigh()</text>
<text text-anchor="start" x="141.3" y="-1150.25" font-family="Helvetica,sans-Serif" font-size="10.00">+</text>
<text text-anchor="start" x="151.3" y="-1150.25" font-family="Helvetica,sans-Serif" font-size="10.00">SetHigh()</text>
<text text-anchor="start" x="141.3" y="-1135.25" font-family="Helvetica,sans-Serif" font-size="10.00">+</text>
<text text-anchor="start" x="151.3" y="-1135.25" font-family="Helvetica,sans-Serif" font-size="10.00">GetLow()</text>
<text text-anchor="start" x="141.3" y="-1120.25" font-family="Helvetica,sans-Serif" font-size="10.00">+</text>
<text text-anchor="start" x="151.3" y="-1120.25" font-family="Helvetica,sans-Serif" font-size="10.00">GetHigh()</text>
<text text-anchor="start" x="141.3" y="-1105.25" font-family="Helvetica,sans-Serif" font-size="10.00">+</text>
<text text-anchor="start" x="151.3" y="-1105.25" font-family="Helvetica,sans-Serif" font-size="10.00">GetWidth()</text>
<text text-anchor="start" x="141.3" y="-1090.25" font-family="Helvetica,sans-Serif" font-size="10.00">+</text>
<text text-anchor="start" x="151.3" y="-1090.25" font-family="Helvetica,sans-Serif" font-size="10.00">GetBinLow()</text>
<text text-anchor="start" x="141.3" y="-1075.25" font-family="Helvetica,sans-Serif" font-size="10.00">+</text>
<text text-anchor="start" x="151.3" y="-1075.25" font-family="Helvetica,sans-Serif" font-size="10.00">GetBinHigh()</text>
<text text-anchor="start" x="141.3" y="-1060.25" font-family="Helvetica,sans-Serif" font-size="10.00">+</text>
<text text-anchor="start" x="151.3" y="-1060.25" font-family="Helvetica,sans-Serif" font-size="10.00">GetBinWidth()</text>
<text text-anchor="start" x="141.3" y="-1045.25" font-family="Helvetica,sans-Serif" font-size="10.00">+</text>
<text text-anchor="start" x="151.3" y="-1045.25" font-family="Helvetica,sans-Serif" font-size="10.00">GetTrueWidth()</text>
<text text-anchor="start" x="141.3" y="-1030.25" font-family="Helvetica,sans-Serif" font-size="10.00">+</text>
<text text-anchor="start" x="151.3" y="-1030.25" font-family="Helvetica,sans-Serif" font-size="10.00">GetIntegral()</text>
<text text-anchor="start" x="141.3" y="-1015.25" font-family="Helvetica,sans-Serif" font-size="10.00">+</text>
<text text-anchor="start" x="151.3" y="-1015.25" font-family="Helvetica,sans-Serif" font-size="10.00">GetIntegral()</text>
<text text-anchor="start" x="141.3" y="-1000.25" font-family="Helvetica,sans-Serif" font-size="10.00">+</text>
<text text-anchor="start" x="151.3" y="-1000.25" font-family="Helvetica,sans-Serif" font-size="10.00">GetIntegral()</text>
<text text-anchor="start" x="141.3" y="-985.25" font-family="Helvetica,sans-Serif" font-size="10.00">+</text>
<text text-anchor="start" x="151.3" y="-985.25" font-family="Helvetica,sans-Serif" font-size="10.00">GetIntegral()</text>
<text text-anchor="start" x="141.3" y="-970.25" font-family="Helvetica,sans-Serif" font-size="10.00">+</text>
<text text-anchor="start" x="151.3" y="-970.25" font-family="Helvetica,sans-Serif" font-size="10.00">GetIntegralError()</text>
<text text-anchor="start" x="141.3" y="-955.25" font-family="Helvetica,sans-Serif" font-size="10.00">+</text>
<text text-anchor="start" x="151.3" y="-955.25" font-family="Helvetica,sans-Serif" font-size="10.00">GetIntegralError()</text>
<text text-anchor="start" x="141.3" y="-940.25" font-family="Helvetica,sans-Serif" font-size="10.00">+</text>
<text text-anchor="start" x="151.3" y="-940.25" font-family="Helvetica,sans-Serif" font-size="10.00">GetIntegralError()</text>
<text text-anchor="start" x="141.3" y="-925.25" font-family="Helvetica,sans-Serif" font-size="10.00">+</text>
<text text-anchor="start" x="151.3" y="-925.25" font-family="Helvetica,sans-Serif" font-size="10.00">GetCounts()</text>
<text text-anchor="start" x="141.3" y="-910.25" font-family="Helvetica,sans-Serif" font-size="10.00">+</text>
<text text-anchor="start" x="151.3" y="-910.25" font-family="Helvetica,sans-Serif" font-size="10.00">GetCounts()</text>
<text text-anchor="start" x="141.3" y="-895.25" font-family="Helvetica,sans-Serif" font-size="10.00">+</text>
<text text-anchor="start" x="151.3" y="-895.25" font-family="Helvetica,sans-Serif" font-size="10.00">GetCounts()</text>
<text text-anchor="start" x="141.3" y="-880.25" font-family="Helvetica,sans-Serif" font-size="10.00">+</text>
<text text-anchor="start" x="151.3" y="-880.25" font-family="Helvetica,sans-Serif" font-size="10.00">GetCountsError()</text>
<text text-anchor="start" x="141.3" y="-865.25" font-family="Helvetica,sans-Serif" font-size="10.00">+</text>
<text text-anchor="start" x="151.3" y="-865.25" font-family="Helvetica,sans-Serif" font-size="10.00">GetCountsError()</text>
<text text-anchor="start" x="141.3" y="-850.25" font-family="Helvetica,sans-Serif" font-size="10.00">+</text>
<text text-anchor="start" x="151.3" y="-850.25" font-family="Helvetica,sans-Serif" font-size="10.00">GetCountsError()</text>
<text text-anchor="start" x="141.3" y="-835.25" font-family="Helvetica,sans-Serif" font-size="10.00">+</text>
<text text-anchor="start" x="151.3" y="-835.25" font-family="Helvetica,sans-Serif" font-size="10.00">Browse()</text>
<text text-anchor="start" x="141.3" y="-820.25" font-family="Helvetica,sans-Serif" font-size="10.00">+</text>
<text text-anchor="start" x="151.3" y="-820.25" font-family="Helvetica,sans-Serif" font-size="10.00">Pass()</text>
<text text-anchor="start" x="141.3" y="-805.25" font-family="Helvetica,sans-Serif" font-size="10.00">+</text>
<text text-anchor="start" x="151.3" y="-805.25" font-family="Helvetica,sans-Serif" font-size="10.00">Pass()</text>
<text text-anchor="start" x="141.3" y="-790.25" font-family="Helvetica,sans-Serif" font-size="10.00">+</text>
<text text-anchor="start" x="151.3" y="-790.25" font-family="Helvetica,sans-Serif" font-size="10.00">PassDetector()</text>
<text text-anchor="start" x="141.3" y="-775.25" font-family="Helvetica,sans-Serif" font-size="10.00">+</text>
<text text-anchor="start" x="151.3" y="-775.25" font-family="Helvetica,sans-Serif" font-size="10.00">ApplyX()</text>
<text text-anchor="start" x="141.3" y="-760.25" font-family="Helvetica,sans-Serif" font-size="10.00">+</text>
<text text-anchor="start" x="151.3" y="-760.25" font-family="Helvetica,sans-Serif" font-size="10.00">ApplyX()</text>
<text text-anchor="start" x="141.3" y="-745.25" font-family="Helvetica,sans-Serif" font-size="10.00">+</text>
<text text-anchor="start" x="151.3" y="-745.25" font-family="Helvetica,sans-Serif" font-size="10.00">ApplyY()</text>
<text text-anchor="start" x="141.3" y="-730.25" font-family="Helvetica,sans-Serif" font-size="10.00">+</text>
<text text-anchor="start" x="151.3" y="-730.25" font-family="Helvetica,sans-Serif" font-size="10.00">ApplyY()</text>
<text text-anchor="start" x="141.3" y="-715.25" font-family="Helvetica,sans-Serif" font-size="10.00">+</text>
<text text-anchor="start" x="151.3" y="-715.25" font-family="Helvetica,sans-Serif" font-size="10.00">Norm()</text>
<text text-anchor="start" x="141.3" y="-700.25" font-family="Helvetica,sans-Serif" font-size="10.00">+</text>
<text text-anchor="start" x="151.3" y="-700.25" font-family="Helvetica,sans-Serif" font-size="10.00">NormBackSub()</text>
<text text-anchor="start" x="141.3" y="-685.25" font-family="Helvetica,sans-Serif" font-size="10.00">+</text>
<text text-anchor="start" x="151.3" y="-685.25" font-family="Helvetica,sans-Serif" font-size="10.00">Paint()</text>
<text text-anchor="start" x="141.3" y="-670.25" font-family="Helvetica,sans-Serif" font-size="10.00">+</text>
<text text-anchor="start" x="151.3" y="-670.25" font-family="Helvetica,sans-Serif" font-size="10.00">DistancetoPrimitive()</text>
<text text-anchor="start" x="141.3" y="-655.25" font-family="Helvetica,sans-Serif" font-size="10.00">+</text>
<text text-anchor="start" x="151.3" y="-655.25" font-family="Helvetica,sans-Serif" font-size="10.00">ExecuteEvent()</text>
<text text-anchor="start" x="141.3" y="-640.25" font-family="Helvetica,sans-Serif" font-size="10.00">+</text>
<text text-anchor="start" x="151.3" y="-640.25" font-family="Helvetica,sans-Serif" font-size="10.00">IsFolder()</text>
<text text-anchor="start" x="141.3" y="-625.25" font-family="Helvetica,sans-Serif" font-size="10.00">+</text>
<text text-anchor="start" x="151.3" y="-625.25" font-family="Helvetica,sans-Serif" font-size="10.00">ls()</text>
<text text-anchor="start" x="141.3" y="-610.25" font-family="Helvetica,sans-Serif" font-size="10.00">+</text>
<text text-anchor="start" x="151.3" y="-610.25" font-family="Helvetica,sans-Serif" font-size="10.00">Valid()</text>
<polygon fill="#666666" stroke="#666666" points="137.3,-1386.75 137.3,-1386.75 245.3,-1386.75 245.3,-1386.75 137.3,-1386.75"/>
<polygon fill="#666666" stroke="#666666" points="137.3,-1371.75 137.3,-1371.75 245.3,-1371.75 245.3,-1371.75 137.3,-1371.75"/>
<polygon fill="none" stroke="#666666" points="137.3,-604.75 137.3,-1403.75 245.3,-1403.75 245.3,-604.75 137.3,-604.75"/>
</a>
</g>
</g>
<!-- Node2&#45;&gt;Node1 -->
<g id="edge1_Node000001_Node000002" class="edge">
<title>Node2&#45;&gt;Node1</title>
<g id="a_edge1_Node000001_Node000002"><a xlink:title=" ">
<path fill="none" stroke="#63b8ff" d="M206.96,-605.09C206.93,-540.5 205.37,-474.36 201.3,-412 201.19,-410.22 201.07,-408.44 200.94,-406.65"/>
<polygon fill="none" stroke="#63b8ff" points="200.94,-406.69 196.5,-401.01 200.03,-394.72 204.47,-400.4 200.94,-406.69"/>
</a>
</g>
<text text-anchor="middle" x="227.55" y="-529.25" font-family="Helvetica,sans-Serif" font-size="10.00" fill="grey"> +fPeakX</text>
<text text-anchor="middle" x="227.55" y="-518" font-family="Helvetica,sans-Serif" font-size="10.00" fill="grey">+fPeakY</text>
</g>
<!-- Node6 -->
<g id="Node000006" class="node">
<title>Node6</title>
<g id="a_Node000006"><a xlink:title=" ">
<polygon fill="white" stroke="none" points="178.8,-557.5 83.8,-557.5 83.8,-497.5 178.8,-497.5 178.8,-557.5"/>
<text text-anchor="start" x="88.55" y="-544" font-family="Helvetica,sans-Serif" font-size="10.00">std::vector&lt; GamR::</text>
<text text-anchor="start" x="108.05" y="-532.75" font-family="Helvetica,sans-Serif" font-size="10.00">TK::Gate &gt;</text>
<text text-anchor="start" x="129.8" y="-518" font-family="Helvetica,sans-Serif" font-size="10.00"> </text>
<text text-anchor="start" x="129.8" y="-503" font-family="Helvetica,sans-Serif" font-size="10.00"> </text>
<polygon fill="#666666" stroke="#666666" points="83.8,-529.5 83.8,-529.5 178.8,-529.5 178.8,-529.5 83.8,-529.5"/>
<polygon fill="#666666" stroke="#666666" points="83.8,-514.5 83.8,-514.5 178.8,-514.5 178.8,-514.5 83.8,-514.5"/>
<polygon fill="none" stroke="#666666" points="83.8,-497.5 83.8,-557.5 178.8,-557.5 178.8,-497.5 83.8,-497.5"/>
</a>
</g>
</g>
<!-- Node2&#45;&gt;Node6 -->
<g id="edge6_Node000006_Node000002" class="edge">
<title>Node2&#45;&gt;Node6</title>
<g id="a_edge6_Node000006_Node000002"><a xlink:title=" ">
<path fill="none" stroke="#63b8ff" d="M140.94,-604.78C139.32,-591.9 137.84,-580.22 136.56,-570.08"/>
<polygon fill="none" stroke="#63b8ff" points="136.55,-570.06 131.83,-564.6 135.05,-558.15 139.77,-563.6 136.55,-570.06"/>
</a>
</g>
<text text-anchor="middle" x="162.3" y="-577.25" font-family="Helvetica,sans-Serif" font-size="10.00" fill="grey"> +elements</text>
</g>
<!-- Node3 -->
<g id="Node000003" class="node">
<title>Node3</title>
<g id="a_Node000003"><a xlink:title=" ">
<polygon fill="white" stroke="none" points="149.8,-1500 102.8,-1500 102.8,-1451 149.8,-1451 149.8,-1500"/>
<text text-anchor="start" x="107.55" y="-1486.5" font-family="Helvetica,sans-Serif" font-size="10.00">TNamed</text>
<text text-anchor="start" x="124.8" y="-1471.5" font-family="Helvetica,sans-Serif" font-size="10.00"> </text>
<text text-anchor="start" x="124.8" y="-1456.5" font-family="Helvetica,sans-Serif" font-size="10.00"> </text>
<polygon fill="#666666" stroke="#666666" points="102.8,-1483 102.8,-1483 149.8,-1483 149.8,-1483 102.8,-1483"/>
<polygon fill="#666666" stroke="#666666" points="102.8,-1468 102.8,-1468 149.8,-1468 149.8,-1468 102.8,-1468"/>
<polygon fill="none" stroke="#666666" points="102.8,-1451 102.8,-1500 149.8,-1500 149.8,-1451 102.8,-1451"/>
</a>
</g>
</g>
<!-- Node3&#45;&gt;Node2 -->
<g id="edge2_Node000002_Node000003" class="edge">
<title>Node3&#45;&gt;Node2</title>
<g id="a_edge2_Node000002_Node000003"><a xlink:title=" ">
<path fill="none" stroke="#63b8ff" d="M131.05,-1440.21C132.78,-1427.76 134.9,-1412.42 137.31,-1395.01"/>
<polygon fill="none" stroke="#63b8ff" points="127.64,-1439.34 129.73,-1449.73 134.57,-1440.31 127.64,-1439.34"/>
</a>
</g>
</g>
<!-- Node4 -->
<g id="Node000004" class="node">
<title>Node4</title>
<g id="a_Node000004"><a xlink:title=" ">
<polygon fill="white" stroke="none" points="214.8,-1500 167.8,-1500 167.8,-1451 214.8,-1451 214.8,-1500"/>
<text text-anchor="start" x="172.55" y="-1486.5" font-family="Helvetica,sans-Serif" font-size="10.00">TAttLine</text>
<text text-anchor="start" x="189.8" y="-1471.5" font-family="Helvetica,sans-Serif" font-size="10.00"> </text>
<text text-anchor="start" x="189.8" y="-1456.5" font-family="Helvetica,sans-Serif" font-size="10.00"> </text>
<polygon fill="#666666" stroke="#666666" points="167.8,-1483 167.8,-1483 214.8,-1483 214.8,-1483 167.8,-1483"/>
<polygon fill="#666666" stroke="#666666" points="167.8,-1468 167.8,-1468 214.8,-1468 214.8,-1468 167.8,-1468"/>
<polygon fill="none" stroke="#666666" points="167.8,-1451 167.8,-1500 214.8,-1500 214.8,-1451 167.8,-1451"/>
</a>
</g>
</g>
<!-- Node4&#45;&gt;Node2 -->
<g id="edge3_Node000002_Node000004" class="edge">
<title>Node4&#45;&gt;Node2</title>
<g id="a_edge3_Node000002_Node000004"><a xlink:title=" ">
<path fill="none" stroke="#63b8ff" d="M191.3,-1440.04C191.3,-1429.71 191.3,-1417.39 191.3,-1403.56"/>
<polygon fill="none" stroke="#63b8ff" points="187.8,-1439.72 191.3,-1449.72 194.8,-1439.72 187.8,-1439.72"/>
</a>
</g>
</g>
<!-- Node5 -->
<g id="Node000005" class="node">
<title>Node5</title>
<g id="a_Node000005"><a xlink:title=" ">
<polygon fill="white" stroke="none" points="273.8,-1500 232.8,-1500 232.8,-1451 273.8,-1451 273.8,-1500"/>
<text text-anchor="start" x="237.55" y="-1486.5" font-family="Helvetica,sans-Serif" font-size="10.00">TAttFill</text>
<text text-anchor="start" x="251.8" y="-1471.5" font-family="Helvetica,sans-Serif" font-size="10.00"> </text>
<text text-anchor="start" x="251.8" y="-1456.5" font-family="Helvetica,sans-Serif" font-size="10.00"> </text>
<polygon fill="#666666" stroke="#666666" points="232.8,-1483 232.8,-1483 273.8,-1483 273.8,-1483 232.8,-1483"/>
<polygon fill="#666666" stroke="#666666" points="232.8,-1468 232.8,-1468 273.8,-1468 273.8,-1468 232.8,-1468"/>
<polygon fill="none" stroke="#666666" points="232.8,-1451 232.8,-1500 273.8,-1500 273.8,-1451 232.8,-1451"/>
</a>
</g>
</g>
<!-- Node5&#45;&gt;Node2 -->
<g id="edge4_Node000002_Node000005" class="edge">
<title>Node5&#45;&gt;Node2</title>
<g id="a_edge4_Node000002_Node000005"><a xlink:title=" ">
<path fill="none" stroke="#63b8ff" d="M248.75,-1440.04C247.38,-1429.71 245.76,-1417.39 243.93,-1403.56"/>
<polygon fill="none" stroke="#63b8ff" points="245.25,-1440.27 250.03,-1449.73 252.19,-1439.36 245.25,-1440.27"/>
</a>
</g>
</g>
<!-- Node6&#45;&gt;Node1 -->
<g id="edge5_Node000001_Node000006" class="edge">
<title>Node6&#45;&gt;Node1</title>
<g id="a_edge5_Node000001_Node000006"><a xlink:title=" ">
<path fill="none" stroke="#63b8ff" d="M132.26,-497.73C133.22,-474.53 135.04,-441.09 138.3,-412 138.5,-410.22 138.71,-408.44 138.91,-406.65"/>
<polygon fill="none" stroke="#63b8ff" points="138.92,-406.62 135.67,-400.19 140.36,-394.71 143.61,-401.14 138.92,-406.62"/>
</a>
</g>
<text text-anchor="middle" x="169.8" y="-470" font-family="Helvetica,sans-Serif" font-size="10.00" fill="grey"> +fBackBackX</text>
<text text-anchor="middle" x="169.8" y="-458.75" font-family="Helvetica,sans-Serif" font-size="10.00" fill="grey">+fBackBackY</text>
<text text-anchor="middle" x="169.8" y="-447.5" font-family="Helvetica,sans-Serif" font-size="10.00" fill="grey">+fBackDiagX</text>
<text text-anchor="middle" x="169.8" y="-436.25" font-family="Helvetica,sans-Serif" font-size="10.00" fill="grey">+fBackDiagY</text>
<text text-anchor="middle" x="169.8" y="-425" font-family="Helvetica,sans-Serif" font-size="10.00" fill="grey">+fBackX</text>
<text text-anchor="middle" x="169.8" y="-413.75" font-family="Helvetica,sans-Serif" font-size="10.00" fill="grey">+fBackY</text>
</g>
<!-- Node7 -->
<g id="Node000007" class="node">
<title>Node7</title>
<g id="a_Node000007"><a xlink:title=" ">
<polygon fill="white" stroke="none" points="78.8,-1028.75 1.8,-1028.75 1.8,-979.75 78.8,-979.75 78.8,-1028.75"/>
<text text-anchor="start" x="6.55" y="-1015.25" font-family="Helvetica,sans-Serif" font-size="10.00">std::vector&lt; T &gt;</text>
<text text-anchor="start" x="38.8" y="-1000.25" font-family="Helvetica,sans-Serif" font-size="10.00"> </text>
<text text-anchor="start" x="38.8" y="-985.25" font-family="Helvetica,sans-Serif" font-size="10.00"> </text>
<polygon fill="#666666" stroke="#666666" points="1.8,-1011.75 1.8,-1011.75 78.8,-1011.75 78.8,-1011.75 1.8,-1011.75"/>
<polygon fill="#666666" stroke="#666666" points="1.8,-996.75 1.8,-996.75 78.8,-996.75 78.8,-996.75 1.8,-996.75"/>
<polygon fill="none" stroke="#666666" points="1.8,-979.75 1.8,-1028.75 78.8,-1028.75 78.8,-979.75 1.8,-979.75"/>
</a>
</g>
</g>
<!-- Node7&#45;&gt;Node6 -->
<g id="edge7_Node000006_Node000007" class="edge">
<title>Node7&#45;&gt;Node6</title>
<g id="a_edge7_Node000006_Node000007"><a xlink:title=" ">
<path fill="none" stroke="orange" d="M29.97,-969.33C8.75,-892.69 -31.59,-702.93 45.05,-575.5 53.84,-560.89 68.93,-550.52 84.04,-543.31"/>
<polygon fill="orange" stroke="orange" points="26.55,-970.1 32.65,-978.76 33.28,-968.18 26.55,-970.1"/>
</a>
</g>
<text text-anchor="middle" x="89.93" y="-577.25" font-family="Helvetica,sans-Serif" font-size="10.00" fill="grey"> &lt; GamR::TK::Gate &gt;</text>
</g>
<!-- Node8 -->
<g id="Node000008" class="node">
<title>Node8</title>
<g id="a_Node000008"><a xlink:title=" ">
<polygon fill="white" stroke="none" points="48.3,-1500 32.3,-1500 32.3,-1451 48.3,-1451 48.3,-1500"/>
<text text-anchor="start" x="37.3" y="-1486.5" font-family="Helvetica,sans-Serif" font-size="10.00">T</text>
<text text-anchor="start" x="38.8" y="-1471.5" font-family="Helvetica,sans-Serif" font-size="10.00"> </text>
<text text-anchor="start" x="38.8" y="-1456.5" font-family="Helvetica,sans-Serif" font-size="10.00"> </text>
<polygon fill="#666666" stroke="#666666" points="32.3,-1483 32.3,-1483 48.3,-1483 48.3,-1483 32.3,-1483"/>
<polygon fill="#666666" stroke="#666666" points="32.3,-1468 32.3,-1468 48.3,-1468 48.3,-1468 32.3,-1468"/>
<polygon fill="none" stroke="#666666" points="32.3,-1451 32.3,-1500 48.3,-1500 48.3,-1451 32.3,-1451"/>
</a>
</g>
</g>
<!-- Node8&#45;&gt;Node7 -->
<g id="edge8_Node000007_Node000008" class="edge">
<title>Node8&#45;&gt;Node7</title>
<g id="a_edge8_Node000007_Node000008"><a xlink:title=" ">
<path fill="none" stroke="#63b8ff" d="M40.3,-1451.23C40.3,-1375.24 40.3,-1133.97 40.3,-1041.66"/>
<polygon fill="none" stroke="#63b8ff" points="40.3,-1041.56 36.3,-1035.56 40.3,-1029.56 44.3,-1035.56 40.3,-1041.56"/>
</a>
</g>
<text text-anchor="middle" x="64.3" y="-1423.5" font-family="Helvetica,sans-Serif" font-size="10.00" fill="grey"> +elements</text>
</g>
</g>
</svg>
