<?xml version="1.0" encoding="UTF-8" standalone="no"?>
<!DOCTYPE svg PUBLIC "-//W3C//DTD SVG 1.1//EN"
 "http://www.w3.org/Graphics/SVG/1.1/DTD/svg11.dtd">
<!-- Generated by graphviz version 12.0.0 (20240704.0754)
 -->
<!-- Title: GamR::Sort::Type::TimeDifference::TimeDifference Pages: 1 -->
<svg width="653pt" height="125pt"
 viewBox="0.00 0.00 652.50 124.50" xmlns="http://www.w3.org/2000/svg" xmlns:xlink="http://www.w3.org/1999/xlink">
<g id="graph0" class="graph" transform="scale(1 1) rotate(0) translate(4 120.5)">
<title>GamR::Sort::Type::TimeDifference::TimeDifference</title>
<!-- Node1 -->
<g id="Node000001" class="node">
<title>Node1</title>
<g id="a_Node000001"><a xlink:title=" ">
<polygon fill="#999999" stroke="#666666" points="161.5,-73.5 0,-73.5 0,-43 161.5,-43 161.5,-73.5"/>
<text text-anchor="start" x="8" y="-60" font-family="Helvetica,sans-Serif" font-size="10.00">GamR::Sort::Type::TimeDifference</text>
<text text-anchor="middle" x="80.75" y="-48.75" font-family="Helvetica,sans-Serif" font-size="10.00">::TimeDifference</text>
</a>
</g>
</g>
<!-- Node2 -->
<g id="Node000002" class="node">
<title>Node2</title>
<g id="a_Node000002"><a xlink:href="../../d3/d27/class_gam_r_1_1_sort_1_1_sorter.html#ae6f53503e0c3225df3b5763192a54f0a" target="_top" xlink:title=" ">
<polygon fill="white" stroke="#666666" points="294.5,-116.5 197.5,-116.5 197.5,-86 294.5,-86 294.5,-116.5"/>
<text text-anchor="start" x="205.5" y="-103" font-family="Helvetica,sans-Serif" font-size="10.00">GamR::Sort::Sorter</text>
<text text-anchor="middle" x="246" y="-91.75" font-family="Helvetica,sans-Serif" font-size="10.00">::GetMatrix</text>
</a>
</g>
</g>
<!-- Node1&#45;&gt;Node2 -->
<g id="edge1_Node000001_Node000002" class="edge">
<title>Node1&#45;&gt;Node2</title>
<g id="a_edge1_Node000001_Node000002"><a xlink:title=" ">
<path fill="none" stroke="#63b8ff" d="M141.15,-73.9C155.82,-77.76 171.54,-81.9 186.18,-85.76"/>
<polygon fill="#63b8ff" stroke="#63b8ff" points="185.12,-89.1 195.68,-88.26 186.9,-82.33 185.12,-89.1"/>
</a>
</g>
</g>
<!-- Node3 -->
<g id="Node000003" class="node">
<title>Node3</title>
<g id="a_Node000003"><a xlink:href="../../d0/d17/_abbreviations_8cc.html#a5d1794b612bdcca3f4f4baa3d2e38a0b" target="_top" xlink:title=" ">
<polygon fill="white" stroke="#666666" points="260.4,-67.88 231.6,-67.88 231.6,-48.62 260.4,-48.62 260.4,-67.88"/>
<text text-anchor="middle" x="246" y="-54.38" font-family="Helvetica,sans-Serif" font-size="10.00">ss</text>
</a>
</g>
</g>
<!-- Node1&#45;&gt;Node3 -->
<g id="edge2_Node000001_Node000003" class="edge">
<title>Node1&#45;&gt;Node3</title>
<g id="a_edge2_Node000001_Node000003"><a xlink:title=" ">
<path fill="none" stroke="#63b8ff" d="M161.94,-58.25C183.06,-58.25 204.32,-58.25 220.04,-58.25"/>
<polygon fill="#63b8ff" stroke="#63b8ff" points="219.83,-61.75 229.83,-58.25 219.83,-54.75 219.83,-61.75"/>
</a>
</g>
</g>
<!-- Node6 -->
<g id="Node000006" class="node">
<title>Node6</title>
<g id="a_Node000006"><a xlink:href="../../d3/d27/class_gam_r_1_1_sort_1_1_sorter.html#a51c1581fef56e2b16c8e9a3fc3a4ad4e" target="_top" xlink:title=" ">
<polygon fill="white" stroke="#666666" points="294.5,-30.5 197.5,-30.5 197.5,0 294.5,0 294.5,-30.5"/>
<text text-anchor="start" x="205.5" y="-17" font-family="Helvetica,sans-Serif" font-size="10.00">GamR::Sort::Sorter</text>
<text text-anchor="middle" x="246" y="-5.75" font-family="Helvetica,sans-Serif" font-size="10.00">::WriteObject</text>
</a>
</g>
</g>
<!-- Node1&#45;&gt;Node6 -->
<g id="edge6_Node000001_Node000006" class="edge">
<title>Node1&#45;&gt;Node6</title>
<g id="a_edge6_Node000001_Node000006"><a xlink:title=" ">
<path fill="none" stroke="#63b8ff" d="M141.15,-42.6C155.82,-38.74 171.54,-34.6 186.18,-30.74"/>
<polygon fill="#63b8ff" stroke="#63b8ff" points="186.9,-34.17 195.68,-28.24 185.12,-27.4 186.9,-34.17"/>
</a>
</g>
</g>
<!-- Node4 -->
<g id="Node000004" class="node">
<title>Node4</title>
<g id="a_Node000004"><a xlink:href="../../dc/d89/namespace_gam_r_1_1_spect.html#ab983da62eb972889ea13491189e13913" target="_top" xlink:title=" ">
<polygon fill="white" stroke="#666666" points="468,-67.88 330.5,-67.88 330.5,-48.62 468,-48.62 468,-67.88"/>
<text text-anchor="middle" x="399.25" y="-54.38" font-family="Helvetica,sans-Serif" font-size="10.00">GamR::Spect::StackSpectra</text>
</a>
</g>
</g>
<!-- Node3&#45;&gt;Node4 -->
<g id="edge3_Node000003_Node000004" class="edge">
<title>Node3&#45;&gt;Node4</title>
<g id="a_edge3_Node000003_Node000004"><a xlink:title=" ">
<path fill="none" stroke="#63b8ff" d="M260.69,-58.25C274.31,-58.25 296.38,-58.25 318.9,-58.25"/>
<polygon fill="#63b8ff" stroke="#63b8ff" points="318.79,-61.75 328.79,-58.25 318.79,-54.75 318.79,-61.75"/>
</a>
</g>
</g>
<!-- Node4&#45;&gt;Node4 -->
<g id="edge5_Node000004_Node000004" class="edge">
<title>Node4&#45;&gt;Node4</title>
<g id="a_edge5_Node000004_Node000004"><a xlink:title=" ">
<path fill="none" stroke="#63b8ff" d="M375.26,-68.16C364.31,-76.77 372.31,-85.88 399.25,-85.88 414.4,-85.88 423.56,-82.99 426.73,-78.94"/>
<polygon fill="#63b8ff" stroke="#63b8ff" points="430.12,-78.04 423.71,-69.6 423.46,-80.19 430.12,-78.04"/>
</a>
</g>
</g>
<!-- Node5 -->
<g id="Node000005" class="node">
<title>Node5</title>
<g id="a_Node000005"><a xlink:href="../../dc/d89/namespace_gam_r_1_1_spect.html#a56e80bce5bf691212c8b7dfb76c2d2b4" target="_top" xlink:title=" ">
<polygon fill="white" stroke="#666666" points="644.5,-67.88 504,-67.88 504,-48.62 644.5,-48.62 644.5,-67.88"/>
<text text-anchor="middle" x="574.25" y="-54.38" font-family="Helvetica,sans-Serif" font-size="10.00">GamR::Spect::List1DSpectra</text>
</a>
</g>
</g>
<!-- Node4&#45;&gt;Node5 -->
<g id="edge4_Node000004_Node000005" class="edge">
<title>Node4&#45;&gt;Node5</title>
<g id="a_edge4_Node000004_Node000005"><a xlink:title=" ">
<path fill="none" stroke="#63b8ff" d="M468.13,-58.25C476.04,-58.25 484.17,-58.25 492.24,-58.25"/>
<polygon fill="#63b8ff" stroke="#63b8ff" points="492.06,-61.75 502.06,-58.25 492.06,-54.75 492.06,-61.75"/>
</a>
</g>
</g>
</g>
</svg>
