<?xml version="1.0" encoding="UTF-8" standalone="no"?>
<!DOCTYPE svg PUBLIC "-//W3C//DTD SVG 1.1//EN"
 "http://www.w3.org/Graphics/SVG/1.1/DTD/svg11.dtd">
<!-- Generated by graphviz version 2.49.3 (20211023.0002)
 -->
<!-- Title: GamR::Processor::TimeWalk::Draw Pages: 1 -->
<svg width="351pt" height="78pt"
 viewBox="0.00 0.00 351.00 77.50" xmlns="http://www.w3.org/2000/svg" xmlns:xlink="http://www.w3.org/1999/xlink">
<g id="graph0" class="graph" transform="scale(1 1) rotate(0) translate(4 73.5)">
<title>GamR::Processor::TimeWalk::Draw</title>
<polygon fill="white" stroke="transparent" points="-4,4 -4,-73.5 347,-73.5 347,4 -4,4"/>
<!-- Node1 -->
<g id="node1" class="node">
<title>Node1</title>
<g id="a_node1"><a xlink:title="Draws Time Walk graphs.">
<polygon fill="#bfbfbf" stroke="black" points="198,-22.5 198,-52.5 343,-52.5 343,-22.5 198,-22.5"/>
<text text-anchor="start" x="206" y="-40.5" font-family="Helvetica,sans-Serif" font-size="10.00">GamR::Processor::TimeWalk</text>
<text text-anchor="middle" x="270.5" y="-29.5" font-family="Helvetica,sans-Serif" font-size="10.00">::Draw</text>
</a>
</g>
</g>
<!-- Node2 -->
<g id="node2" class="node">
<title>Node2</title>
<g id="a_node2"><a xlink:href="../../d3/d48/class_gam_r_1_1_processor_1_1_time_walk.html#aebfe1c01514fb6b756ca8362eed61dbb" target="_top" xlink:title="Conducts a global &#160;fit to solve for an absolute time calibration for each detector.">
<polygon fill="white" stroke="black" points="0,-50 0,-69 162,-69 162,-50 0,-50"/>
<text text-anchor="middle" x="81" y="-57" font-family="Helvetica,sans-Serif" font-size="10.00">GamR::Processor::TimeWalk::Fit</text>
</a>
</g>
</g>
<!-- Node1&#45;&gt;Node2 -->
<g id="edge1" class="edge">
<title>Node1&#45;&gt;Node2</title>
<path fill="none" stroke="midnightblue" d="M187.86,-47.08C179.31,-48.08 170.62,-49.1 162.09,-50.1"/>
<polygon fill="midnightblue" stroke="midnightblue" points="188.29,-50.55 197.81,-45.91 187.47,-43.6 188.29,-50.55"/>
</g>
<!-- Node3 -->
<g id="node3" class="node">
<title>Node3</title>
<g id="a_node3"><a xlink:href="../../d3/d48/class_gam_r_1_1_processor_1_1_time_walk.html#a10cdc74a1e9f4a14e1c449c9712ba085" target="_top" xlink:title="Iterating through calibration peaks for each detector pair: calculate the time difference spectrum (w...">
<polygon fill="white" stroke="black" points="8.5,-0.5 8.5,-30.5 153.5,-30.5 153.5,-0.5 8.5,-0.5"/>
<text text-anchor="start" x="16.5" y="-18.5" font-family="Helvetica,sans-Serif" font-size="10.00">GamR::Processor::TimeWalk</text>
<text text-anchor="middle" x="81" y="-7.5" font-family="Helvetica,sans-Serif" font-size="10.00">::MakeGraphs</text>
</a>
</g>
</g>
<!-- Node1&#45;&gt;Node3 -->
<g id="edge2" class="edge">
<title>Node1&#45;&gt;Node3</title>
<path fill="none" stroke="midnightblue" d="M187.88,-27.92C176.48,-26.59 164.84,-25.22 153.65,-23.91"/>
<polygon fill="midnightblue" stroke="midnightblue" points="187.47,-31.4 197.81,-29.09 188.29,-24.45 187.47,-31.4"/>
</g>
</g>
</svg>
