<?xml version="1.0" encoding="UTF-8" standalone="no"?>
<!DOCTYPE svg PUBLIC "-//W3C//DTD SVG 1.1//EN"
 "http://www.w3.org/Graphics/SVG/1.1/DTD/svg11.dtd">
<!-- Generated by graphviz version 8.1.0 (20230707.0739)
 -->
<!-- Title: src/lib/angdist/StatTensor.hh Pages: 1 -->
<svg width="492pt" height="138pt"
 viewBox="0.00 0.00 491.50 137.75" xmlns="http://www.w3.org/2000/svg" xmlns:xlink="http://www.w3.org/1999/xlink">

<svg id="main" version="1.1" xmlns="http://www.w3.org/2000/svg" xmlns:xlink="http://www.w3.org/1999/xlink" xml:space="preserve" onload="init(evt)">
<style type="text/css"><![CDATA[
.node, .edge {opacity: 0.7;}
.node.selected, .edge.selected {opacity: 1;}
.edge:hover path { stroke: red; }
.edge:hover polygon { stroke: red; fill: red; }
]]></style>
<script type="application/ecmascript" xlink:href="../../svg.min.js"/>
<svg id="graph" class="graph">
<g id="graph0" class="graph" transform="scale(1 1) rotate(0) translate(4 133.75)">
<title>src/lib/angdist/StatTensor.hh</title>
<!-- Node1 -->
<g id="Node000001" class="node">
<title>Node1</title>
<g id="a_Node000001"><a xlink:title=" ">
<polygon fill="#999999" stroke="#666666" points="239.75,-129.75 99.25,-129.75 99.25,-110.5 239.75,-110.5 239.75,-129.75"/>
<text text-anchor="middle" x="169.5" y="-116.25" font-family="Helvetica,sans-Serif" font-size="10.00">src/lib/angdist/StatTensor.hh</text>
</a>
</g>
</g>
<!-- Node2 -->
<g id="Node000002" class="node">
<title>Node2</title>
<g id="a_Node000002"><a xlink:title=" ">
<polygon fill="#e0e0e0" stroke="#999999" points="43,-74.5 0,-74.5 0,-55.25 43,-55.25 43,-74.5"/>
<text text-anchor="middle" x="21.5" y="-61" font-family="Helvetica,sans-Serif" font-size="10.00">cmath</text>
</a>
</g>
</g>
<!-- Node1&#45;&gt;Node2 -->
<g id="edge1_Node000001_Node000002" class="edge">
<title>Node1&#45;&gt;Node2</title>
<g id="a_edge1_Node000001_Node000002"><a xlink:title=" ">
<path fill="none" stroke="#63b8ff" d="M144.39,-110.09C119.35,-101.08 80.78,-87.2 53.54,-77.4"/>
<polygon fill="#63b8ff" stroke="#63b8ff" points="54.94,-73.83 44.35,-73.74 52.57,-80.41 54.94,-73.83"/>
</a>
</g>
</g>
<!-- Node3 -->
<g id="Node000003" class="node">
<title>Node3</title>
<g id="a_Node000003"><a xlink:title=" ">
<polygon fill="#e0e0e0" stroke="#999999" points="113.5,-74.5 61.5,-74.5 61.5,-55.25 113.5,-55.25 113.5,-74.5"/>
<text text-anchor="middle" x="87.5" y="-61" font-family="Helvetica,sans-Serif" font-size="10.00">complex</text>
</a>
</g>
</g>
<!-- Node1&#45;&gt;Node3 -->
<g id="edge2_Node000001_Node000003" class="edge">
<title>Node1&#45;&gt;Node3</title>
<g id="a_edge2_Node000001_Node000003"><a xlink:title=" ">
<path fill="none" stroke="#63b8ff" d="M155.59,-110.09C143.22,-102.06 124.9,-90.16 110.37,-80.73"/>
<polygon fill="#63b8ff" stroke="#63b8ff" points="112.77,-77.46 102.48,-74.95 108.96,-83.33 112.77,-77.46"/>
</a>
</g>
</g>
<!-- Node4 -->
<g id="Node000004" class="node">
<title>Node4</title>
<g id="a_Node000004"><a xlink:title=" ">
<polygon fill="#e0e0e0" stroke="#999999" points="327,-19.25 284,-19.25 284,0 327,0 327,-19.25"/>
<text text-anchor="middle" x="305.5" y="-5.75" font-family="Helvetica,sans-Serif" font-size="10.00">vector</text>
</a>
</g>
</g>
<!-- Node1&#45;&gt;Node4 -->
<g id="edge3_Node000001_Node000004" class="edge">
<title>Node1&#45;&gt;Node4</title>
<g id="a_edge3_Node000001_Node000004"><a xlink:title=" ">
<path fill="none" stroke="#63b8ff" d="M164.64,-110.31C158.05,-97.01 148.39,-71.65 160.5,-55.25 186.16,-20.51 238.43,-11.97 272.7,-10.31"/>
<polygon fill="#63b8ff" stroke="#63b8ff" points="272.68,-13.78 282.57,-9.99 272.47,-6.79 272.68,-13.78"/>
</a>
</g>
</g>
<!-- Node5 -->
<g id="Node000005" class="node">
<title>Node5</title>
<g id="a_Node000005"><a xlink:title=" ">
<polygon fill="#e0e0e0" stroke="#999999" points="227.5,-74.5 169.5,-74.5 169.5,-55.25 227.5,-55.25 227.5,-74.5"/>
<text text-anchor="middle" x="198.5" y="-61" font-family="Helvetica,sans-Serif" font-size="10.00">functional</text>
</a>
</g>
</g>
<!-- Node1&#45;&gt;Node5 -->
<g id="edge4_Node000001_Node000005" class="edge">
<title>Node1&#45;&gt;Node5</title>
<g id="a_edge4_Node000001_Node000005"><a xlink:title=" ">
<path fill="none" stroke="#63b8ff" d="M174.29,-110.33C178.13,-103.28 183.65,-93.15 188.45,-84.33"/>
<polygon fill="#63b8ff" stroke="#63b8ff" points="191.9,-86.32 193.61,-75.86 185.75,-82.97 191.9,-86.32"/>
</a>
</g>
</g>
<!-- Node6 -->
<g id="Node000006" class="node">
<title>Node6</title>
<g id="a_Node000006"><a xlink:href="../../d0/d3d/_population_parameter_8hh.html" target="_top" xlink:title=" ">
<polygon fill="white" stroke="#666666" points="365.25,-74.5 245.75,-74.5 245.75,-55.25 365.25,-55.25 365.25,-74.5"/>
<text text-anchor="middle" x="305.5" y="-61" font-family="Helvetica,sans-Serif" font-size="10.00">PopulationParameter.hh</text>
</a>
</g>
</g>
<!-- Node1&#45;&gt;Node6 -->
<g id="edge5_Node000001_Node000006" class="edge">
<title>Node1&#45;&gt;Node6</title>
<g id="a_edge5_Node000001_Node000006"><a xlink:title=" ">
<path fill="none" stroke="#63b8ff" d="M192.57,-110.09C214.45,-101.52 247.57,-88.56 272.29,-78.88"/>
<polygon fill="#63b8ff" stroke="#63b8ff" points="273.28,-81.86 281.32,-74.95 270.73,-75.34 273.28,-81.86"/>
</a>
</g>
</g>
<!-- Node7 -->
<g id="Node000007" class="node">
<title>Node7</title>
<g id="a_Node000007"><a xlink:href="../../de/dcb/_solid_attenuation_8hh.html" target="_top" xlink:title=" ">
<polygon fill="white" stroke="#666666" points="483.5,-74.5 383.5,-74.5 383.5,-55.25 483.5,-55.25 483.5,-74.5"/>
<text text-anchor="middle" x="433.5" y="-61" font-family="Helvetica,sans-Serif" font-size="10.00">SolidAttenuation.hh</text>
</a>
</g>
</g>
<!-- Node1&#45;&gt;Node7 -->
<g id="edge7_Node000001_Node000007" class="edge">
<title>Node1&#45;&gt;Node7</title>
<g id="a_edge7_Node000001_Node000007"><a xlink:title=" ">
<path fill="none" stroke="#63b8ff" d="M214.58,-110.03C259.76,-100.92 329.4,-86.87 377.97,-77.08"/>
<polygon fill="#63b8ff" stroke="#63b8ff" points="378.49,-80.34 387.6,-74.93 377.11,-73.48 378.49,-80.34"/>
</a>
</g>
</g>
<!-- Node6&#45;&gt;Node4 -->
<g id="edge6_Node000006_Node000004" class="edge">
<title>Node6&#45;&gt;Node4</title>
<g id="a_edge6_Node000006_Node000004"><a xlink:title=" ">
<path fill="none" stroke="#63b8ff" d="M305.5,-55.08C305.5,-48.42 305.5,-38.99 305.5,-30.53"/>
<polygon fill="#63b8ff" stroke="#63b8ff" points="309,-30.61 305.5,-20.61 302,-30.61 309,-30.61"/>
</a>
</g>
</g>
<!-- Node7&#45;&gt;Node4 -->
<g id="edge8_Node000007_Node000004" class="edge">
<title>Node7&#45;&gt;Node4</title>
<g id="a_edge8_Node000007_Node000004"><a xlink:title=" ">
<path fill="none" stroke="#63b8ff" d="M411.79,-54.84C391.38,-46.35 360.58,-33.54 337.38,-23.89"/>
<polygon fill="#63b8ff" stroke="#63b8ff" points="338.9,-20.31 328.32,-19.7 336.21,-26.78 338.9,-20.31"/>
</a>
</g>
</g>
</g>
</svg>
</svg>

<style type='text/css'>
<![CDATA[
[data-mouse-over-selected='false'] { opacity: 0.7; }
[data-mouse-over-selected='true']  { opacity: 1.0; }
]]>
</style>
<script type="application/ecmascript"><![CDATA[
document.addEventListener('DOMContentLoaded', (event) => {
  highlightEdges();
  highlightAdjacentNodes();
});
]]></script>
</svg>
