<?xml version="1.0" encoding="UTF-8" standalone="no"?>
<!DOCTYPE svg PUBLIC "-//W3C//DTD SVG 1.1//EN"
 "http://www.w3.org/Graphics/SVG/1.1/DTD/svg11.dtd">
<!-- Generated by graphviz version 12.2.1 (20241206.2353)
 -->
<!-- Title: GamR::Tree::TExpDefn&lt; ADefns &gt;::FillDetDefns Pages: 1 -->
<!--zoomable 813 -->

<svg id="main" version="1.1" xmlns="http://www.w3.org/2000/svg" xmlns:xlink="http://www.w3.org/1999/xlink" xml:space="preserve" onload="init(evt)">

<style type="text/css"><![CDATA[
.node, .edge {opacity: 0.7;}
.node.selected, .edge.selected {opacity: 1;}
.edge:hover path { stroke: red; }
.edge:hover polygon { stroke: red; fill: red; }
]]></style>

<defs>
  <circle id="rim" cx="0" cy="0" r="7"/>
  <circle id="rim2" cx="0" cy="0" r="3.5"/>
  <g id="zoomPlus">
    <use xlink:href="#rim" fill="#404040"><set attributeName="fill" to="#808080" begin="zoomplus.mouseover" end="zoomplus.mouseout"/></use>
    <path d="M-4,0h8M0,-4v8" fill="none" stroke="white" stroke-width="1.5" pointer-events="none"/>
  </g>
  <g id="zoomMin">
    <use xlink:href="#rim" fill="#404040"><set attributeName="fill" to="#808080" begin="zoomminus.mouseover" end="zoomminus.mouseout"/></use>
    <path d="M-4,0h8" fill="none" stroke="white" stroke-width="1.5" pointer-events="none"/>
  </g>
  <g id="arrowUp" transform="translate(30 24)">
    <use xlink:href="#rim"/>
    <path pointer-events="none" fill="none" stroke="white" stroke-width="1.5" d="M0,-3.0v7 M-2.5,-0.5L0,-3.0L2.5,-0.5"/>
  </g>
  <g id="arrowRight" transform="rotate(90) translate(36 -43)">
    <use xlink:href="#rim"/>
    <path pointer-events="none" fill="none" stroke="white" stroke-width="1.5" d="M0,-3.0v7 M-2.5,-0.5L0,-3.0L2.5,-0.5"/>
  </g>
  <g id="arrowDown" transform="rotate(180) translate(-30 -48)">
    <use xlink:href="#rim"/>
    <path pointer-events="none" fill="none" stroke="white" stroke-width="1.5" d="M0,-3.0v7 M-2.5,-0.5L0,-3.0L2.5,-0.5"/>
  </g>
  <g id="arrowLeft" transform="rotate(270) translate(-36 17)">
    <use xlink:href="#rim"/>
    <path pointer-events="none" fill="none" stroke="white" stroke-width="1.5" d="M0,-3.0v7 M-2.5,-0.5L0,-3.0L2.5,-0.5"/>
  </g>
  <g id="resetDef">
    <use xlink:href="#rim2" fill="#404040"><set attributeName="fill" to="#808080" begin="reset.mouseover" end="reset.mouseout"/></use>
  </g>
</defs>
<script type="application/ecmascript">
var viewWidth = 215;
var viewHeight = 813;
var sectionId = 'dynsection-0';
</script>
<script type="application/ecmascript" xlink:href="../../svg.min.js"/>
<svg id="graph" class="graph">
<g id="viewport">
<title>GamR::Tree::TExpDefn&lt; ADefns &gt;::FillDetDefns</title>
<!-- Node1 -->
<g id="Node000001" class="node">
<title>Node1</title>
<g id="a_Node000001"><a xlink:title=" ">
<polygon fill="#999999" stroke="none" points="114.5,-366 0,-366 0,0 114.5,0 114.5,-366"/>
<text text-anchor="start" x="4" y="-352.5" font-family="Helvetica,sans-Serif" font-size="10.00">GamR::Tree::TExpDefn</text>
<text text-anchor="start" x="4" y="-341.25" font-family="Helvetica,sans-Serif" font-size="10.00">&lt; ADefns &gt;::FillDetDefns</text>
<text text-anchor="start" x="9.75" y="-326" font-family="Helvetica,sans-Serif" font-size="10.00">+</text>
<text text-anchor="start" x="25.5" y="-326" font-family="Helvetica,sans-Serif" font-size="10.00">p</text>
<text text-anchor="start" x="9.75" y="-310.75" font-family="Helvetica,sans-Serif" font-size="10.00">+</text>
<text text-anchor="start" x="25.5" y="-310.75" font-family="Helvetica,sans-Serif" font-size="10.00">idxDetGroup</text>
<text text-anchor="start" x="9.75" y="-295.5" font-family="Helvetica,sans-Serif" font-size="10.00">+</text>
<text text-anchor="start" x="25.5" y="-295.5" font-family="Helvetica,sans-Serif" font-size="10.00">fOutFile</text>
<text text-anchor="start" x="9.75" y="-280.25" font-family="Helvetica,sans-Serif" font-size="10.00">+</text>
<text text-anchor="start" x="25.5" y="-280.25" font-family="Helvetica,sans-Serif" font-size="10.00">fRawChain</text>
<text text-anchor="start" x="9.75" y="-265" font-family="Helvetica,sans-Serif" font-size="10.00">+</text>
<text text-anchor="start" x="25.5" y="-265" font-family="Helvetica,sans-Serif" font-size="10.00">fOutTree</text>
<text text-anchor="start" x="9.75" y="-249.75" font-family="Helvetica,sans-Serif" font-size="10.00">+</text>
<text text-anchor="start" x="25.5" y="-249.75" font-family="Helvetica,sans-Serif" font-size="10.00">fDetDefns</text>
<text text-anchor="start" x="9.75" y="-234.5" font-family="Helvetica,sans-Serif" font-size="10.00">+</text>
<text text-anchor="start" x="25.5" y="-234.5" font-family="Helvetica,sans-Serif" font-size="10.00">fBranchMap</text>
<text text-anchor="start" x="9.75" y="-219.25" font-family="Helvetica,sans-Serif" font-size="10.00">+</text>
<text text-anchor="start" x="25.5" y="-219.25" font-family="Helvetica,sans-Serif" font-size="10.00">fDetGroups</text>
<text text-anchor="start" x="9.75" y="-204" font-family="Helvetica,sans-Serif" font-size="10.00">+</text>
<text text-anchor="start" x="25.5" y="-204" font-family="Helvetica,sans-Serif" font-size="10.00">fINIReader</text>
<text text-anchor="start" x="9.75" y="-188.75" font-family="Helvetica,sans-Serif" font-size="10.00">+</text>
<text text-anchor="start" x="25.5" y="-188.75" font-family="Helvetica,sans-Serif" font-size="10.00">fINI</text>
<text text-anchor="start" x="9.75" y="-173.5" font-family="Helvetica,sans-Serif" font-size="10.00">+</text>
<text text-anchor="start" x="25.5" y="-173.5" font-family="Helvetica,sans-Serif" font-size="10.00">FillDetDefns()</text>
<text text-anchor="start" x="9.75" y="-158.25" font-family="Helvetica,sans-Serif" font-size="10.00">+</text>
<text text-anchor="start" x="25.5" y="-158.25" font-family="Helvetica,sans-Serif" font-size="10.00">operator()()</text>
<text text-anchor="start" x="9.75" y="-143" font-family="Helvetica,sans-Serif" font-size="10.00">+</text>
<text text-anchor="start" x="25.5" y="-143" font-family="Helvetica,sans-Serif" font-size="10.00">TExpDefn()</text>
<text text-anchor="start" x="9.75" y="-127.75" font-family="Helvetica,sans-Serif" font-size="10.00">+</text>
<text text-anchor="start" x="25.5" y="-127.75" font-family="Helvetica,sans-Serif" font-size="10.00">~TExpDefn()</text>
<text text-anchor="start" x="9.75" y="-112.5" font-family="Helvetica,sans-Serif" font-size="10.00">+</text>
<text text-anchor="start" x="25.5" y="-112.5" font-family="Helvetica,sans-Serif" font-size="10.00">GetDetDefns()</text>
<text text-anchor="start" x="9.75" y="-97.25" font-family="Helvetica,sans-Serif" font-size="10.00">+</text>
<text text-anchor="start" x="25.5" y="-97.25" font-family="Helvetica,sans-Serif" font-size="10.00">GetAllDetDefns()</text>
<text text-anchor="start" x="9.75" y="-82" font-family="Helvetica,sans-Serif" font-size="10.00">+</text>
<text text-anchor="start" x="25.5" y="-82" font-family="Helvetica,sans-Serif" font-size="10.00">CloseFiles()</text>
<text text-anchor="start" x="9.75" y="-66.75" font-family="Helvetica,sans-Serif" font-size="10.00">+</text>
<text text-anchor="start" x="25.5" y="-66.75" font-family="Helvetica,sans-Serif" font-size="10.00">Load()</text>
<text text-anchor="start" x="9.75" y="-51.5" font-family="Helvetica,sans-Serif" font-size="10.00">+</text>
<text text-anchor="start" x="25.5" y="-51.5" font-family="Helvetica,sans-Serif" font-size="10.00">LoadRaw()</text>
<text text-anchor="start" x="9.75" y="-36.25" font-family="Helvetica,sans-Serif" font-size="10.00">+</text>
<text text-anchor="start" x="25.5" y="-36.25" font-family="Helvetica,sans-Serif" font-size="10.00">ResetBranches()</text>
<text text-anchor="start" x="9.75" y="-21" font-family="Helvetica,sans-Serif" font-size="10.00">+</text>
<text text-anchor="start" x="25.5" y="-21" font-family="Helvetica,sans-Serif" font-size="10.00">Convert()</text>
<text text-anchor="start" x="9.75" y="-5.75" font-family="Helvetica,sans-Serif" font-size="10.00">+</text>
<text text-anchor="start" x="25.5" y="-5.75" font-family="Helvetica,sans-Serif" font-size="10.00">ClassDef()</text>
<polygon fill="#666666" stroke="#666666" points="0,-337.5 0,-337.5 114.5,-337.5 114.5,-337.5 0,-337.5"/>
<polygon fill="#666666" stroke="#666666" points="0,-185 0,-185 23.5,-185 23.5,-185 0,-185"/>
<polygon fill="#666666" stroke="#666666" points="23.5,-185 23.5,-185 114.5,-185 114.5,-185 23.5,-185"/>
<polygon fill="none" stroke="#666666" points="0,0 0,-366 114.5,-366 114.5,0 0,0"/>
</a>
</g>
</g>
<!-- Node2 -->
<g id="Node000002" class="node">
<title>Node2</title>
<g id="a_Node000002"><a xlink:title=" ">
<polygon fill="white" stroke="none" points="74.5,-805 32,-805 32,-755.25 74.5,-755.25 74.5,-805"/>
<text text-anchor="start" x="36" y="-791.5" font-family="Helvetica,sans-Serif" font-size="10.00">TObject</text>
<text text-anchor="start" x="51.75" y="-776.25" font-family="Helvetica,sans-Serif" font-size="10.00"> </text>
<text text-anchor="start" x="51.75" y="-761" font-family="Helvetica,sans-Serif" font-size="10.00"> </text>
<polygon fill="#666666" stroke="#666666" points="32,-787.75 32,-787.75 74.5,-787.75 74.5,-787.75 32,-787.75"/>
<polygon fill="#666666" stroke="#666666" points="32,-772.5 32,-772.5 74.5,-772.5 74.5,-772.5 32,-772.5"/>
<polygon fill="none" stroke="#666666" points="32,-755.25 32,-805 74.5,-805 74.5,-755.25 32,-755.25"/>
</a>
</g>
</g>
<!-- Node2&#45;&gt;Node1 -->
<g id="edge1_Node000001_Node000002" class="edge">
<title>Node2&#45;&gt;Node1</title>
<g id="a_edge1_Node000001_Node000002"><a xlink:title=" ">
<path fill="none" stroke="#63b8ff" d="M53.48,-744.26C53.97,-671.74 55.12,-500.21 56.03,-365.91"/>
<polygon fill="none" stroke="#63b8ff" points="49.99,-743.89 53.42,-753.91 56.99,-743.94 49.99,-743.89"/>
</a>
</g>
</g>
<!-- Node3 -->
<g id="Node000003" class="node">
<title>Node3</title>
<g id="a_Node000003"><a xlink:href="../../d1/d1e/class_gam_r_1_1_tree_1_1_t_exp_defn.html" target="_top" xlink:title=" ">
<polygon fill="white" stroke="none" points="175.38,-718.25 69.12,-718.25 69.12,-413.25 175.38,-413.25 175.38,-718.25"/>
<text text-anchor="start" x="73.12" y="-704.75" font-family="Helvetica,sans-Serif" font-size="10.00">GamR::Tree::TExpDefn</text>
<text text-anchor="start" x="97.88" y="-693.5" font-family="Helvetica,sans-Serif" font-size="10.00">&lt; ADefns &gt;</text>
<text text-anchor="start" x="76.81" y="-678.25" font-family="Helvetica,sans-Serif" font-size="10.00">+</text>
<text text-anchor="start" x="90.5" y="-678.25" font-family="Helvetica,sans-Serif" font-size="10.00">fOutFile</text>
<text text-anchor="start" x="76.81" y="-663" font-family="Helvetica,sans-Serif" font-size="10.00">+</text>
<text text-anchor="start" x="90.5" y="-663" font-family="Helvetica,sans-Serif" font-size="10.00">fRawChain</text>
<text text-anchor="start" x="76.81" y="-647.75" font-family="Helvetica,sans-Serif" font-size="10.00">+</text>
<text text-anchor="start" x="90.5" y="-647.75" font-family="Helvetica,sans-Serif" font-size="10.00">fOutTree</text>
<text text-anchor="start" x="76.81" y="-632.5" font-family="Helvetica,sans-Serif" font-size="10.00">+</text>
<text text-anchor="start" x="90.5" y="-632.5" font-family="Helvetica,sans-Serif" font-size="10.00">fDetDefns</text>
<text text-anchor="start" x="76.81" y="-617.25" font-family="Helvetica,sans-Serif" font-size="10.00">+</text>
<text text-anchor="start" x="90.5" y="-617.25" font-family="Helvetica,sans-Serif" font-size="10.00">fBranchMap</text>
<text text-anchor="start" x="76.81" y="-602" font-family="Helvetica,sans-Serif" font-size="10.00">+</text>
<text text-anchor="start" x="90.5" y="-602" font-family="Helvetica,sans-Serif" font-size="10.00">fDetGroups</text>
<text text-anchor="start" x="76.81" y="-586.75" font-family="Helvetica,sans-Serif" font-size="10.00">+</text>
<text text-anchor="start" x="90.5" y="-586.75" font-family="Helvetica,sans-Serif" font-size="10.00">fINIReader</text>
<text text-anchor="start" x="76.81" y="-571.5" font-family="Helvetica,sans-Serif" font-size="10.00">+</text>
<text text-anchor="start" x="90.5" y="-571.5" font-family="Helvetica,sans-Serif" font-size="10.00">fINI</text>
<text text-anchor="start" x="76.81" y="-556.25" font-family="Helvetica,sans-Serif" font-size="10.00">+</text>
<text text-anchor="start" x="90.5" y="-556.25" font-family="Helvetica,sans-Serif" font-size="10.00">TExpDefn()</text>
<text text-anchor="start" x="76.81" y="-541" font-family="Helvetica,sans-Serif" font-size="10.00">+</text>
<text text-anchor="start" x="90.5" y="-541" font-family="Helvetica,sans-Serif" font-size="10.00">~TExpDefn()</text>
<text text-anchor="start" x="76.81" y="-525.75" font-family="Helvetica,sans-Serif" font-size="10.00">+</text>
<text text-anchor="start" x="90.5" y="-525.75" font-family="Helvetica,sans-Serif" font-size="10.00">GetDetDefns()</text>
<text text-anchor="start" x="76.81" y="-510.5" font-family="Helvetica,sans-Serif" font-size="10.00">+</text>
<text text-anchor="start" x="90.5" y="-510.5" font-family="Helvetica,sans-Serif" font-size="10.00">GetAllDetDefns()</text>
<text text-anchor="start" x="76.81" y="-495.25" font-family="Helvetica,sans-Serif" font-size="10.00">+</text>
<text text-anchor="start" x="90.5" y="-495.25" font-family="Helvetica,sans-Serif" font-size="10.00">CloseFiles()</text>
<text text-anchor="start" x="76.81" y="-480" font-family="Helvetica,sans-Serif" font-size="10.00">+</text>
<text text-anchor="start" x="90.5" y="-480" font-family="Helvetica,sans-Serif" font-size="10.00">Load()</text>
<text text-anchor="start" x="76.81" y="-464.75" font-family="Helvetica,sans-Serif" font-size="10.00">+</text>
<text text-anchor="start" x="90.5" y="-464.75" font-family="Helvetica,sans-Serif" font-size="10.00">LoadRaw()</text>
<text text-anchor="start" x="76.81" y="-449.5" font-family="Helvetica,sans-Serif" font-size="10.00">+</text>
<text text-anchor="start" x="90.5" y="-449.5" font-family="Helvetica,sans-Serif" font-size="10.00">ResetBranches()</text>
<text text-anchor="start" x="76.81" y="-434.25" font-family="Helvetica,sans-Serif" font-size="10.00">+</text>
<text text-anchor="start" x="90.5" y="-434.25" font-family="Helvetica,sans-Serif" font-size="10.00">Convert()</text>
<text text-anchor="start" x="76.81" y="-419" font-family="Helvetica,sans-Serif" font-size="10.00">+</text>
<text text-anchor="start" x="90.5" y="-419" font-family="Helvetica,sans-Serif" font-size="10.00">ClassDef()</text>
<polygon fill="#666666" stroke="#666666" points="69.12,-689.75 69.12,-689.75 175.38,-689.75 175.38,-689.75 69.12,-689.75"/>
<polygon fill="#666666" stroke="#666666" points="69.12,-567.75 69.12,-567.75 88.5,-567.75 88.5,-567.75 69.12,-567.75"/>
<polygon fill="#666666" stroke="#666666" points="88.5,-567.75 88.5,-567.75 175.38,-567.75 175.38,-567.75 88.5,-567.75"/>
<polygon fill="none" stroke="#666666" points="69.12,-413.25 69.12,-718.25 175.38,-718.25 175.38,-413.25 69.12,-413.25"/>
</a>
</g>
</g>
<!-- Node2&#45;&gt;Node3 -->
<g id="edge3_Node000003_Node000002" class="edge">
<title>Node2&#45;&gt;Node3</title>
<g id="a_edge3_Node000003_Node000002"><a xlink:title=" ">
<path fill="none" stroke="#63b8ff" d="M64.45,-744.66C67.04,-736.68 69.96,-727.68 73.08,-718.08"/>
<polygon fill="none" stroke="#63b8ff" points="61.13,-743.55 61.37,-754.15 67.78,-745.72 61.13,-743.55"/>
</a>
</g>
</g>
<!-- Node3&#45;&gt;Node1 -->
<g id="edge2_Node000001_Node000003" class="edge">
<title>Node3&#45;&gt;Node1</title>
<g id="a_edge2_Node000001_Node000003"><a xlink:title=" ">
<path fill="none" stroke="orange" d="M94.53,-402.38C92.46,-390.27 90.37,-378.01 88.28,-365.79"/>
<polygon fill="orange" stroke="orange" points="91.03,-402.69 96.17,-411.96 97.93,-401.51 91.03,-402.69"/>
</a>
</g>
<text text-anchor="middle" x="149.45" y="-385.75" font-family="Helvetica,sans-Serif" font-size="10.00" fill="grey"> &lt; ADefns... &gt;::FillDetDefns</text>
</g>
</g>
</svg>

<g id="navigator" transform="translate(0 0)" fill="#404254">
  <rect fill="#f2f5e9" fill-opacity="0.5" stroke="#606060" stroke-width=".5" x="0" y="0" width="60" height="60"/>
  <use id="zoomplus" xlink:href="#zoomPlus" x="17" y="9" onmousedown="handleZoom(evt,'in')"/>
  <use id="zoomminus" xlink:href="#zoomMin" x="42" y="9" onmousedown="handleZoom(evt,'out')"/>
  <use id="reset" xlink:href="#resetDef" x="30" y="36" onmousedown="handleReset()"/>
   <use id="arrowup" xlink:href="#arrowUp" x="0" y="0" onmousedown="handlePan(0,-1)"/>
  <use id="arrowright" xlink:href="#arrowRight" x="0" y="0" onmousedown="handlePan(1,0)"/>
  <use id="arrowdown" xlink:href="#arrowDown" x="0" y="0" onmousedown="handlePan(0,1)"/>
  <use id="arrowleft" xlink:href="#arrowLeft" x="0" y="0" onmousedown="handlePan(-1,0)"/>
</g>
<svg viewBox="0 0 15 15" width="100%" height="30px" preserveAspectRatio="xMaxYMin meet">
 <g id="arrow_out" transform="scale(0.3 0.3)">
  <a xlink:href="struct_gam_r_1_1_tree_1_1_t_exp_defn_1_1_fill_det_defns__inherit__graph_org.svg" target="_base">
   <rect id="button" ry="5" rx="5" y="6" x="6" height="38" width="38"
        fill="#f2f5e9" fill-opacity="0.5" stroke="#606060" stroke-width="1.0"/>
   <path id="arrow"
     d="M 11.500037,31.436501 C 11.940474,20.09759 22.043105,11.32322 32.158766,21.979434 L 37.068811,17.246167 C 37.068811,17.246167 37.088388,32 37.088388,32 L 22.160133,31.978069 C 22.160133,31.978069 26.997745,27.140456 26.997745,27.140456 C 18.528582,18.264221 13.291696,25.230495 11.500037,31.436501 z"
     style="fill:#404040;"/>
  </a>
 </g>
</svg>

<style type='text/css'>
<![CDATA[
[data-mouse-over-selected='false'] { opacity: 0.7; }
[data-mouse-over-selected='true']  { opacity: 1.0; }
]]>
</style>
<script type="application/ecmascript"><![CDATA[
document.addEventListener('DOMContentLoaded', (event) => {
  highlightEdges();
  highlightAdjacentNodes();
});
]]></script>
</svg>
