<?xml version="1.0" encoding="UTF-8" standalone="no"?>
<!DOCTYPE svg PUBLIC "-//W3C//DTD SVG 1.1//EN"
 "http://www.w3.org/Graphics/SVG/1.1/DTD/svg11.dtd">
<!-- Generated by graphviz version 8.1.0 (20230707.0739)
 -->
<!-- Title: src/lib/nucleus/LevelSchemeDraw.hh Pages: 1 -->
<svg width="543pt" height="94pt"
 viewBox="0.00 0.00 542.50 93.75" xmlns="http://www.w3.org/2000/svg" xmlns:xlink="http://www.w3.org/1999/xlink">
<g id="graph0" class="graph" transform="scale(1 1) rotate(0) translate(4 89.75)">
<title>src/lib/nucleus/LevelSchemeDraw.hh</title>
<!-- Node1 -->
<g id="Node000001" class="node">
<title>Node1</title>
<g id="a_Node000001"><a xlink:title=" ">
<polygon fill="#999999" stroke="#666666" points="324.38,-85.75 182.38,-85.75 182.38,-55.25 324.38,-55.25 324.38,-85.75"/>
<text text-anchor="start" x="190.38" y="-72.25" font-family="Helvetica,sans-Serif" font-size="10.00">src/lib/nucleus/LevelScheme</text>
<text text-anchor="middle" x="253.38" y="-61" font-family="Helvetica,sans-Serif" font-size="10.00">Draw.hh</text>
</a>
</g>
</g>
<!-- Node2 -->
<g id="Node000002" class="node">
<title>Node2</title>
<g id="a_Node000002"><a xlink:title=" ">
<polygon fill="#e0e0e0" stroke="#999999" points="34.75,-19.25 0,-19.25 0,0 34.75,0 34.75,-19.25"/>
<text text-anchor="middle" x="17.38" y="-5.75" font-family="Helvetica,sans-Serif" font-size="10.00">map</text>
</a>
</g>
</g>
<!-- Node1&#45;&gt;Node2 -->
<g id="edge1_Node000001_Node000002" class="edge">
<title>Node1&#45;&gt;Node2</title>
<g id="a_edge1_Node000001_Node000002"><a xlink:title=" ">
<path fill="none" stroke="#63b8ff" d="M185.37,-54.78C146.66,-46.04 97.08,-34.24 45.55,-19.71"/>
<polygon fill="#63b8ff" stroke="#63b8ff" points="46.79,-16.14 36.22,-16.77 44.87,-22.87 46.79,-16.14"/>
</a>
</g>
</g>
<!-- Node3 -->
<g id="Node000003" class="node">
<title>Node3</title>
<g id="a_Node000003"><a xlink:title=" ">
<polygon fill="#e0e0e0" stroke="#999999" points="107.88,-19.25 52.88,-19.25 52.88,0 107.88,0 107.88,-19.25"/>
<text text-anchor="middle" x="80.38" y="-5.75" font-family="Helvetica,sans-Serif" font-size="10.00">TArrow.h</text>
</a>
</g>
</g>
<!-- Node1&#45;&gt;Node3 -->
<g id="edge2_Node000001_Node000003" class="edge">
<title>Node1&#45;&gt;Node3</title>
<g id="a_edge2_Node000001_Node000003"><a xlink:title=" ">
<path fill="none" stroke="#63b8ff" d="M210.17,-54.8C181.63,-45.08 144.62,-32.49 117.43,-23.23"/>
<polygon fill="#63b8ff" stroke="#63b8ff" points="118.76,-19.65 108.16,-19.74 116.5,-26.28 118.76,-19.65"/>
</a>
</g>
</g>
<!-- Node4 -->
<g id="Node000004" class="node">
<title>Node4</title>
<g id="a_Node000004"><a xlink:title=" ">
<polygon fill="#e0e0e0" stroke="#999999" points="174.5,-19.25 126.25,-19.25 126.25,0 174.5,0 174.5,-19.25"/>
<text text-anchor="middle" x="150.38" y="-5.75" font-family="Helvetica,sans-Serif" font-size="10.00">TText.h</text>
</a>
</g>
</g>
<!-- Node1&#45;&gt;Node4 -->
<g id="edge3_Node000001_Node000004" class="edge">
<title>Node1&#45;&gt;Node4</title>
<g id="a_edge3_Node000001_Node000004"><a xlink:title=" ">
<path fill="none" stroke="#63b8ff" d="M227.65,-54.8C211.66,-45.66 191.21,-33.97 175.36,-24.91"/>
<polygon fill="#63b8ff" stroke="#63b8ff" points="177.59,-21.58 167.17,-19.65 174.12,-27.66 177.59,-21.58"/>
</a>
</g>
</g>
<!-- Node5 -->
<g id="Node000005" class="node">
<title>Node5</title>
<g id="a_Node000005"><a xlink:title=" ">
<polygon fill="#e0e0e0" stroke="#999999" points="246.12,-19.25 192.62,-19.25 192.62,0 246.12,0 246.12,-19.25"/>
<text text-anchor="middle" x="219.38" y="-5.75" font-family="Helvetica,sans-Serif" font-size="10.00">TLatex.h</text>
</a>
</g>
</g>
<!-- Node1&#45;&gt;Node5 -->
<g id="edge4_Node000001_Node000005" class="edge">
<title>Node1&#45;&gt;Node5</title>
<g id="a_edge4_Node000001_Node000005"><a xlink:title=" ">
<path fill="none" stroke="#63b8ff" d="M244.97,-54.95C240.44,-47.1 234.81,-37.35 229.98,-28.99"/>
<polygon fill="#63b8ff" stroke="#63b8ff" points="232.65,-27.61 224.62,-20.7 226.59,-31.11 232.65,-27.61"/>
</a>
</g>
</g>
<!-- Node6 -->
<g id="Node000006" class="node">
<title>Node6</title>
<g id="a_Node000006"><a xlink:title=" ">
<polygon fill="#e0e0e0" stroke="#999999" points="310.38,-19.25 264.38,-19.25 264.38,0 310.38,0 310.38,-19.25"/>
<text text-anchor="middle" x="287.38" y="-5.75" font-family="Helvetica,sans-Serif" font-size="10.00">TBox.h</text>
</a>
</g>
</g>
<!-- Node1&#45;&gt;Node6 -->
<g id="edge5_Node000001_Node000006" class="edge">
<title>Node1&#45;&gt;Node6</title>
<g id="a_edge5_Node000001_Node000006"><a xlink:title=" ">
<path fill="none" stroke="#63b8ff" d="M261.78,-54.95C266.31,-47.1 271.94,-37.35 276.77,-28.99"/>
<polygon fill="#63b8ff" stroke="#63b8ff" points="280.16,-31.11 282.13,-20.7 274.1,-27.61 280.16,-31.11"/>
</a>
</g>
</g>
<!-- Node7 -->
<g id="Node000007" class="node">
<title>Node7</title>
<g id="a_Node000007"><a xlink:title=" ">
<polygon fill="#e0e0e0" stroke="#999999" points="382.5,-19.25 328.25,-19.25 328.25,0 382.5,0 382.5,-19.25"/>
<text text-anchor="middle" x="355.38" y="-5.75" font-family="Helvetica,sans-Serif" font-size="10.00">TGaxis.h</text>
</a>
</g>
</g>
<!-- Node1&#45;&gt;Node7 -->
<g id="edge6_Node000001_Node000007" class="edge">
<title>Node1&#45;&gt;Node7</title>
<g id="a_edge6_Node000001_Node000007"><a xlink:title=" ">
<path fill="none" stroke="#63b8ff" d="M278.85,-54.8C294.68,-45.66 314.94,-33.97 330.63,-24.91"/>
<polygon fill="#63b8ff" stroke="#63b8ff" points="331.82,-27.68 338.73,-19.65 328.32,-21.62 331.82,-27.68"/>
</a>
</g>
</g>
<!-- Node8 -->
<g id="Node000008" class="node">
<title>Node8</title>
<g id="a_Node000008"><a xlink:title=" ">
<polygon fill="#e0e0e0" stroke="#999999" points="467.88,-19.25 400.88,-19.25 400.88,0 467.88,0 467.88,-19.25"/>
<text text-anchor="middle" x="434.38" y="-5.75" font-family="Helvetica,sans-Serif" font-size="10.00">TPolyLine.h</text>
</a>
</g>
</g>
<!-- Node1&#45;&gt;Node8 -->
<g id="edge7_Node000001_Node000008" class="edge">
<title>Node1&#45;&gt;Node8</title>
<g id="a_edge7_Node000001_Node000008"><a xlink:title=" ">
<path fill="none" stroke="#63b8ff" d="M298.58,-54.8C328.57,-45.04 367.5,-32.38 395.99,-23.11"/>
<polygon fill="#63b8ff" stroke="#63b8ff" points="396.92,-26.16 405.35,-19.74 394.76,-19.51 396.92,-26.16"/>
</a>
</g>
</g>
<!-- Node9 -->
<g id="Node000009" class="node">
<title>Node9</title>
<g id="a_Node000009"><a xlink:title=" ">
<polygon fill="#e0e0e0" stroke="#999999" points="534.5,-19.25 486.25,-19.25 486.25,0 534.5,0 534.5,-19.25"/>
<text text-anchor="middle" x="510.38" y="-5.75" font-family="Helvetica,sans-Serif" font-size="10.00">TLine.h</text>
</a>
</g>
</g>
<!-- Node1&#45;&gt;Node9 -->
<g id="edge8_Node000001_Node000009" class="edge">
<title>Node1&#45;&gt;Node9</title>
<g id="a_edge8_Node000001_Node000009"><a xlink:title=" ">
<path fill="none" stroke="#63b8ff" d="M321.65,-54.83C363.49,-45.69 418.4,-33.43 475.25,-19.71"/>
<polygon fill="#63b8ff" stroke="#63b8ff" points="476,-22.88 484.89,-17.13 474.35,-16.08 476,-22.88"/>
</a>
</g>
</g>
</g>
</svg>
