<?xml version="1.0" encoding="UTF-8" standalone="no"?>
<!DOCTYPE svg PUBLIC "-//W3C//DTD SVG 1.1//EN"
 "http://www.w3.org/Graphics/SVG/1.1/DTD/svg11.dtd">
<!-- Generated by graphviz version 12.0.0 (20240704.0754)
 -->
<!-- Title: src/lib/bateman/Scheme.cc Pages: 1 -->
<svg width="237pt" height="248pt"
 viewBox="0.00 0.00 236.74 248.25" xmlns="http://www.w3.org/2000/svg" xmlns:xlink="http://www.w3.org/1999/xlink">

<svg id="main" version="1.1" xmlns="http://www.w3.org/2000/svg" xmlns:xlink="http://www.w3.org/1999/xlink" xml:space="preserve" onload="init(evt)">
<style type="text/css"><![CDATA[
.node, .edge {opacity: 0.7;}
.node.selected, .edge.selected {opacity: 1;}
.edge:hover path { stroke: red; }
.edge:hover polygon { stroke: red; fill: red; }
]]></style>
<script type="application/ecmascript" xlink:href="../../svg.min.js"/>
<svg id="graph" class="graph">
<g id="graph0" class="graph" transform="scale(1 1) rotate(0) translate(4 244.25)">
<title>src/lib/bateman/Scheme.cc</title>
<!-- Node1 -->
<g id="Node000001" class="node">
<title>Node1</title>
<g id="a_Node000001"><a xlink:title=" ">
<polygon fill="#999999" stroke="#666666" points="163.75,-240.25 29.25,-240.25 29.25,-221 163.75,-221 163.75,-240.25"/>
<text text-anchor="middle" x="96.5" y="-226.75" font-family="Helvetica,sans-Serif" font-size="10.00">src/lib/bateman/Scheme.cc</text>
</a>
</g>
</g>
<!-- Node2 -->
<g id="Node000002" class="node">
<title>Node2</title>
<g id="a_Node000002"><a xlink:href="../../d2/dc7/_scheme_8hh.html" target="_top" xlink:title=" ">
<polygon fill="white" stroke="#666666" points="72.88,-129.75 8.12,-129.75 8.12,-110.5 72.88,-110.5 72.88,-129.75"/>
<text text-anchor="middle" x="40.5" y="-116.25" font-family="Helvetica,sans-Serif" font-size="10.00">Scheme.hh</text>
</a>
</g>
</g>
<!-- Node1&#45;&gt;Node2 -->
<g id="edge1_Node000001_Node000002" class="edge">
<title>Node1&#45;&gt;Node2</title>
<g id="a_edge1_Node000001_Node000002"><a xlink:title=" ">
<path fill="none" stroke="#63b8ff" d="M91.92,-220.75C82.89,-203.26 62.64,-164.02 50.42,-140.34"/>
<polygon fill="#63b8ff" stroke="#63b8ff" points="53.54,-138.75 45.84,-131.47 47.32,-141.96 53.54,-138.75"/>
</a>
</g>
</g>
<!-- Node7 -->
<g id="Node000007" class="node">
<title>Node7</title>
<g id="a_Node000007"><a xlink:href="../../db/d8d/_solver_8hh.html" target="_top" xlink:title=" ">
<polygon fill="white" stroke="#666666" points="166.75,-185 110.25,-185 110.25,-165.75 166.75,-165.75 166.75,-185"/>
<text text-anchor="middle" x="138.5" y="-171.5" font-family="Helvetica,sans-Serif" font-size="10.00">Solver.hh</text>
</a>
</g>
</g>
<!-- Node1&#45;&gt;Node7 -->
<g id="edge8_Node000001_Node000007" class="edge">
<title>Node1&#45;&gt;Node7</title>
<g id="a_edge8_Node000001_Node000007"><a xlink:title=" ">
<path fill="none" stroke="#63b8ff" d="M103.44,-220.83C109.12,-213.63 117.34,-203.21 124.39,-194.26"/>
<polygon fill="#63b8ff" stroke="#63b8ff" points="127.03,-196.57 130.48,-186.55 121.54,-192.23 127.03,-196.57"/>
</a>
</g>
</g>
<!-- Node3 -->
<g id="Node000003" class="node">
<title>Node3</title>
<g id="a_Node000003"><a xlink:title=" ">
<polygon fill="#e0e0e0" stroke="#999999" points="101.5,-19.25 61.5,-19.25 61.5,0 101.5,0 101.5,-19.25"/>
<text text-anchor="middle" x="81.5" y="-5.75" font-family="Helvetica,sans-Serif" font-size="10.00">string</text>
</a>
</g>
</g>
<!-- Node2&#45;&gt;Node3 -->
<g id="edge2_Node000002_Node000003" class="edge">
<title>Node2&#45;&gt;Node3</title>
<g id="a_edge2_Node000002_Node000003"><a xlink:title=" ">
<path fill="none" stroke="#63b8ff" d="M43.86,-110.25C50.43,-92.84 65.16,-53.87 74.12,-30.16"/>
<polygon fill="#63b8ff" stroke="#63b8ff" points="77.3,-31.63 77.56,-21.04 70.75,-29.16 77.3,-31.63"/>
</a>
</g>
</g>
<!-- Node4 -->
<g id="Node000004" class="node">
<title>Node4</title>
<g id="a_Node000004"><a xlink:title=" ">
<polygon fill="#e0e0e0" stroke="#999999" points="43,-19.25 0,-19.25 0,0 43,0 43,-19.25"/>
<text text-anchor="middle" x="21.5" y="-5.75" font-family="Helvetica,sans-Serif" font-size="10.00">vector</text>
</a>
</g>
</g>
<!-- Node2&#45;&gt;Node4 -->
<g id="edge3_Node000002_Node000004" class="edge">
<title>Node2&#45;&gt;Node4</title>
<g id="a_edge3_Node000002_Node000004"><a xlink:title=" ">
<path fill="none" stroke="#63b8ff" d="M38.95,-110.25C35.93,-93 29.2,-54.58 25.04,-30.81"/>
<polygon fill="#63b8ff" stroke="#63b8ff" points="28.51,-30.36 23.34,-21.12 21.61,-31.57 28.51,-30.36"/>
</a>
</g>
</g>
<!-- Node5 -->
<g id="Node000005" class="node">
<title>Node5</title>
<g id="a_Node000005"><a xlink:href="../../d8/dfb/_nucleus_8hh.html" target="_top" xlink:title=" ">
<polygon fill="white" stroke="#666666" points="151.88,-74.5 87.12,-74.5 87.12,-55.25 151.88,-55.25 151.88,-74.5"/>
<text text-anchor="middle" x="119.5" y="-61" font-family="Helvetica,sans-Serif" font-size="10.00">Nucleus.hh</text>
</a>
</g>
</g>
<!-- Node2&#45;&gt;Node5 -->
<g id="edge4_Node000002_Node000005" class="edge">
<title>Node2&#45;&gt;Node5</title>
<g id="a_edge4_Node000002_Node000005"><a xlink:title=" ">
<path fill="none" stroke="#63b8ff" d="M53.9,-110.09C65.59,-102.21 82.8,-90.61 96.66,-81.27"/>
<polygon fill="#63b8ff" stroke="#63b8ff" points="98.44,-84.29 104.78,-75.8 94.53,-78.49 98.44,-84.29"/>
</a>
</g>
</g>
<!-- Node5&#45;&gt;Node3 -->
<g id="edge6_Node000005_Node000003" class="edge">
<title>Node5&#45;&gt;Node3</title>
<g id="a_edge6_Node000005_Node000003"><a xlink:title=" ">
<path fill="none" stroke="#63b8ff" d="M113.23,-55.08C108.14,-47.96 100.8,-37.68 94.47,-28.8"/>
<polygon fill="#63b8ff" stroke="#63b8ff" points="97.45,-26.95 88.79,-20.84 91.75,-31.01 97.45,-26.95"/>
</a>
</g>
</g>
<!-- Node5&#45;&gt;Node4 -->
<g id="edge7_Node000005_Node000004" class="edge">
<title>Node5&#45;&gt;Node4</title>
<g id="a_edge7_Node000005_Node000004"><a xlink:title=" ">
<path fill="none" stroke="#63b8ff" d="M102.88,-54.84C87.81,-46.66 65.36,-34.46 47.85,-24.94"/>
<polygon fill="#63b8ff" stroke="#63b8ff" points="49.99,-22.12 39.54,-20.43 46.65,-28.27 49.99,-22.12"/>
</a>
</g>
</g>
<!-- Node6 -->
<g id="Node000006" class="node">
<title>Node6</title>
<g id="a_Node000006"><a xlink:title=" ">
<polygon fill="#e0e0e0" stroke="#999999" points="173.25,-19.25 119.75,-19.25 119.75,0 173.25,0 173.25,-19.25"/>
<text text-anchor="middle" x="146.5" y="-5.75" font-family="Helvetica,sans-Serif" font-size="10.00">iostream</text>
</a>
</g>
</g>
<!-- Node5&#45;&gt;Node6 -->
<g id="edge5_Node000005_Node000006" class="edge">
<title>Node5&#45;&gt;Node6</title>
<g id="a_edge5_Node000005_Node000006"><a xlink:title=" ">
<path fill="none" stroke="#63b8ff" d="M123.96,-55.08C127.45,-48.19 132.45,-38.34 136.85,-29.66"/>
<polygon fill="#63b8ff" stroke="#63b8ff" points="139.86,-31.46 141.26,-20.96 133.62,-28.3 139.86,-31.46"/>
</a>
</g>
</g>
<!-- Node7&#45;&gt;Node2 -->
<g id="edge10_Node000007_Node000002" class="edge">
<title>Node7&#45;&gt;Node2</title>
<g id="a_edge10_Node000007_Node000002"><a xlink:title=" ">
<path fill="none" stroke="#63b8ff" d="M121.88,-165.34C106.81,-157.16 84.36,-144.96 66.85,-135.44"/>
<polygon fill="#63b8ff" stroke="#63b8ff" points="68.99,-132.62 58.54,-130.93 65.65,-138.77 68.99,-132.62"/>
</a>
</g>
</g>
<!-- Node7&#45;&gt;Node5 -->
<g id="edge9_Node000007_Node000005" class="edge">
<title>Node7&#45;&gt;Node5</title>
<g id="a_edge9_Node000007_Node000005"><a xlink:title=" ">
<path fill="none" stroke="#63b8ff" d="M167,-166.52C198.3,-156.38 241.94,-136.87 224.5,-110.5 210.85,-89.87 185.53,-78.75 163.17,-72.76"/>
<polygon fill="#63b8ff" stroke="#63b8ff" points="164.17,-69.41 153.63,-70.5 162.56,-76.22 164.17,-69.41"/>
</a>
</g>
</g>
<!-- Node8 -->
<g id="Node000008" class="node">
<title>Node8</title>
<g id="a_Node000008"><a xlink:title=" ">
<polygon fill="#e0e0e0" stroke="#999999" points="215.88,-129.75 91.12,-129.75 91.12,-110.5 215.88,-110.5 215.88,-129.75"/>
<text text-anchor="middle" x="153.5" y="-116.25" font-family="Helvetica,sans-Serif" font-size="10.00">boost/numeric/odeint.hpp</text>
</a>
</g>
</g>
<!-- Node7&#45;&gt;Node8 -->
<g id="edge11_Node000007_Node000008" class="edge">
<title>Node7&#45;&gt;Node8</title>
<g id="a_edge11_Node000007_Node000008"><a xlink:title=" ">
<path fill="none" stroke="#63b8ff" d="M140.98,-165.58C142.85,-158.92 145.51,-149.49 147.89,-141.03"/>
<polygon fill="#63b8ff" stroke="#63b8ff" points="151.22,-142.14 150.56,-131.57 144.48,-140.24 151.22,-142.14"/>
</a>
</g>
</g>
</g>
</svg>
</svg>

<style type='text/css'>
<![CDATA[
[data-mouse-over-selected='false'] { opacity: 0.7; }
[data-mouse-over-selected='true']  { opacity: 1.0; }
]]>
</style>
<script type="application/ecmascript"><![CDATA[
document.addEventListener('DOMContentLoaded', (event) => {
  highlightEdges();
  highlightAdjacentNodes();
});
]]></script>
</svg>
