<?xml version="1.0" encoding="UTF-8" standalone="no"?>
<!DOCTYPE svg PUBLIC "-//W3C//DTD SVG 1.1//EN"
 "http://www.w3.org/Graphics/SVG/1.1/DTD/svg11.dtd">
<!-- Generated by graphviz version 9.0.0 (20230911.1827)
 -->
<!-- Title: GamR::Spect::BackgroundSubtractY Pages: 1 -->
<svg width="573pt" height="143pt"
 viewBox="0.00 0.00 572.75 142.88" xmlns="http://www.w3.org/2000/svg" xmlns:xlink="http://www.w3.org/1999/xlink">
<g id="graph0" class="graph" transform="scale(1 1) rotate(0) translate(4 138.88)">
<title>GamR::Spect::BackgroundSubtractY</title>
<!-- Node1 -->
<g id="Node000001" class="node">
<title>Node1</title>
<g id="a_Node000001"><a xlink:title=" ">
<polygon fill="#999999" stroke="#666666" points="173.5,-73.88 0,-73.88 0,-54.62 173.5,-54.62 173.5,-73.88"/>
<text text-anchor="middle" x="86.75" y="-60.38" font-family="Helvetica,sans-Serif" font-size="10.00">GamR::Spect::BackgroundSubtractY</text>
</a>
</g>
</g>
<!-- Node2 -->
<g id="Node000002" class="node">
<title>Node2</title>
<g id="a_Node000002"><a xlink:href="../../dc/d89/namespace_gam_r_1_1_spect.html#a30e3d5141c8253d594aae4bf21b2ffe8" target="_top" xlink:title=" ">
<polygon fill="white" stroke="#666666" points="383,-116.88 209.5,-116.88 209.5,-97.62 383,-97.62 383,-116.88"/>
<text text-anchor="middle" x="296.25" y="-103.38" font-family="Helvetica,sans-Serif" font-size="10.00">GamR::Spect::BackgroundSubtractY</text>
</a>
</g>
</g>
<!-- Node1&#45;&gt;Node2 -->
<g id="edge1_Node000001_Node000002" class="edge">
<title>Node1&#45;&gt;Node2</title>
<g id="a_edge1_Node000001_Node000002"><a xlink:title=" ">
<path fill="none" stroke="#63b8ff" d="M136.4,-74.33C165.95,-80.46 203.91,-88.32 235.3,-94.83"/>
<polygon fill="#63b8ff" stroke="#63b8ff" points="234.56,-98.25 245.06,-96.85 235.98,-91.39 234.56,-98.25"/>
</a>
</g>
</g>
<!-- Node5 -->
<g id="Node000005" class="node">
<title>Node5</title>
<g id="a_Node000005"><a xlink:href="../../df/d6f/class_gam_r_1_1_nucleus_1_1_transition.html#a3eacef62898caaaff029fd33931ad1bb" target="_top" xlink:title=" ">
<polygon fill="white" stroke="#666666" points="362,-79.5 230.5,-79.5 230.5,-49 362,-49 362,-79.5"/>
<text text-anchor="start" x="238.5" y="-66" font-family="Helvetica,sans-Serif" font-size="10.00">GamR::Nucleus::Transition</text>
<text text-anchor="middle" x="296.25" y="-54.75" font-family="Helvetica,sans-Serif" font-size="10.00">::GetGate</text>
</a>
</g>
</g>
<!-- Node1&#45;&gt;Node5 -->
<g id="edge4_Node000001_Node000005" class="edge">
<title>Node1&#45;&gt;Node5</title>
<g id="a_edge4_Node000001_Node000005"><a xlink:title=" ">
<path fill="none" stroke="#63b8ff" d="M173.95,-64.25C188.79,-64.25 204.14,-64.25 218.71,-64.25"/>
<polygon fill="#63b8ff" stroke="#63b8ff" points="218.69,-67.75 228.69,-64.25 218.69,-60.75 218.69,-67.75"/>
</a>
</g>
</g>
<!-- Node6 -->
<g id="Node000006" class="node">
<title>Node6</title>
<g id="a_Node000006"><a xlink:href="../../df/d6f/class_gam_r_1_1_nucleus_1_1_transition.html#ac5be2345b951980c46ad6df7ac0254ab" target="_top" xlink:title=" ">
<polygon fill="white" stroke="#666666" points="362,-30.5 230.5,-30.5 230.5,0 362,0 362,-30.5"/>
<text text-anchor="start" x="238.5" y="-17" font-family="Helvetica,sans-Serif" font-size="10.00">GamR::Nucleus::Transition</text>
<text text-anchor="middle" x="296.25" y="-5.75" font-family="Helvetica,sans-Serif" font-size="10.00">::GetGateBG</text>
</a>
</g>
</g>
<!-- Node1&#45;&gt;Node6 -->
<g id="edge5_Node000001_Node000006" class="edge">
<title>Node1&#45;&gt;Node6</title>
<g id="a_edge5_Node000001_Node000006"><a xlink:title=" ">
<path fill="none" stroke="#63b8ff" d="M130.49,-54.16C156.06,-48.12 189.3,-40.27 219.22,-33.2"/>
<polygon fill="#63b8ff" stroke="#63b8ff" points="219.67,-36.69 228.6,-30.99 218.06,-29.88 219.67,-36.69"/>
</a>
</g>
</g>
<!-- Node3 -->
<g id="Node000003" class="node">
<title>Node3</title>
<g id="a_Node000003"><a xlink:href="../../d0/d74/group___t_k.html#ga32700ec383e9f60b1a48009bec316606" target="_top" xlink:title=" ">
<polygon fill="white" stroke="#666666" points="552.75,-134.88 431,-134.88 431,-115.62 552.75,-115.62 552.75,-134.88"/>
<text text-anchor="middle" x="491.88" y="-121.38" font-family="Helvetica,sans-Serif" font-size="10.00">GamR::TK::Gate::ApplyY</text>
</a>
</g>
</g>
<!-- Node2&#45;&gt;Node3 -->
<g id="edge2_Node000002_Node000003" class="edge">
<title>Node2&#45;&gt;Node3</title>
<g id="a_edge2_Node000002_Node000003"><a xlink:title=" ">
<path fill="none" stroke="#63b8ff" d="M383.3,-115.25C395.4,-116.37 407.72,-117.52 419.5,-118.61"/>
<polygon fill="#63b8ff" stroke="#63b8ff" points="418.81,-122.07 429.09,-119.51 419.46,-115.1 418.81,-122.07"/>
</a>
</g>
</g>
<!-- Node4 -->
<g id="Node000004" class="node">
<title>Node4</title>
<g id="a_Node000004"><a xlink:href="../../d0/d74/group___t_k.html#ga19210db8af7134007ff4fc26878b5dc2" target="_top" xlink:title=" ">
<polygon fill="white" stroke="#666666" points="564.75,-97.88 419,-97.88 419,-78.62 564.75,-78.62 564.75,-97.88"/>
<text text-anchor="middle" x="491.88" y="-84.38" font-family="Helvetica,sans-Serif" font-size="10.00">GamR::TK::Gate::GetBinWidth</text>
</a>
</g>
</g>
<!-- Node2&#45;&gt;Node4 -->
<g id="edge3_Node000002_Node000004" class="edge">
<title>Node2&#45;&gt;Node4</title>
<g id="a_edge3_Node000002_Node000004"><a xlink:title=" ">
<path fill="none" stroke="#63b8ff" d="M383.3,-98.81C391.34,-98.02 399.47,-97.22 407.48,-96.43"/>
<polygon fill="#63b8ff" stroke="#63b8ff" points="407.57,-99.94 417.18,-95.48 406.89,-92.97 407.57,-99.94"/>
</a>
</g>
</g>
</g>
</svg>
