<?xml version="1.0" encoding="UTF-8" standalone="no"?>
<!DOCTYPE svg PUBLIC "-//W3C//DTD SVG 1.1//EN"
 "http://www.w3.org/Graphics/SVG/1.1/DTD/svg11.dtd">
<!-- Generated by graphviz version 8.1.0 (20230707.0739)
 -->
<!-- Title: GamR::Spect::TwoPointCalibrate Pages: 1 -->
<svg width="231pt" height="64pt"
 viewBox="0.00 0.00 230.55 64.25" xmlns="http://www.w3.org/2000/svg" xmlns:xlink="http://www.w3.org/1999/xlink">
<g id="graph0" class="graph" transform="scale(1 1) rotate(0) translate(4 60.25)">
<title>GamR::Spect::TwoPointCalibrate</title>
<!-- Node1 -->
<g id="Node000001" class="node">
<title>Node1</title>
<g id="a_Node000001"><a xlink:title=" ">
<polygon fill="#999999" stroke="#666666" points="222.55,-37.25 64.8,-37.25 64.8,-18 222.55,-18 222.55,-37.25"/>
<text text-anchor="middle" x="143.68" y="-23.75" font-family="Helvetica,sans-Serif" font-size="10.00">GamR::Spect::TwoPointCalibrate</text>
</a>
</g>
</g>
<!-- Node2 -->
<g id="Node000002" class="node">
<title>Node2</title>
<g id="a_Node000002"><a xlink:href="../../d0/d17/_abbreviations_8cc.html#ae833726892f432d347532036895c56d6" target="_top" xlink:title=" ">
<polygon fill="white" stroke="#666666" points="28.8,-56.25 0,-56.25 0,-37 28.8,-37 28.8,-56.25"/>
<text text-anchor="middle" x="14.4" y="-42.75" font-family="Helvetica,sans-Serif" font-size="10.00">ca</text>
</a>
</g>
</g>
<!-- Node1&#45;&gt;Node2 -->
<g id="edge1_Node000001_Node000002" class="edge">
<title>Node1&#45;&gt;Node2</title>
<g id="a_edge1_Node000001_Node000002"><a xlink:title=" ">
<path fill="none" stroke="#63b8ff" d="M64.33,-39.32C50.64,-41.36 37.91,-43.26 28.87,-44.61"/>
<polygon fill="#63b8ff" stroke="#63b8ff" points="64.56,-42.68 73.94,-37.74 63.53,-35.75 64.56,-42.68"/>
</a>
</g>
</g>
<!-- Node3 -->
<g id="Node000003" class="node">
<title>Node3</title>
<g id="a_Node000003"><a xlink:href="../../d0/d17/_abbreviations_8cc.html#afc0346c4741aa38dbc47cbfdac5363bf" target="_top" xlink:title=" ">
<polygon fill="white" stroke="#666666" points="28.8,-19.25 0,-19.25 0,0 28.8,0 28.8,-19.25"/>
<text text-anchor="middle" x="14.4" y="-5.75" font-family="Helvetica,sans-Serif" font-size="10.00">ca</text>
</a>
</g>
</g>
<!-- Node1&#45;&gt;Node3 -->
<g id="edge2_Node000001_Node000003" class="edge">
<title>Node1&#45;&gt;Node3</title>
<g id="a_edge2_Node000001_Node000003"><a xlink:title=" ">
<path fill="none" stroke="#63b8ff" d="M60.44,-15.99C48.4,-14.29 37.33,-12.73 29.18,-11.57"/>
<polygon fill="#63b8ff" stroke="#63b8ff" points="59.83,-19.59 70.22,-17.52 60.81,-12.65 59.83,-19.59"/>
</a>
</g>
</g>
</g>
</svg>
