<?xml version="1.0" encoding="UTF-8" standalone="no"?>
<!DOCTYPE svg PUBLIC "-//W3C//DTD SVG 1.1//EN"
 "http://www.w3.org/Graphics/SVG/1.1/DTD/svg11.dtd">
<!-- Generated by graphviz version 6.0.2 (20221011.1828)
 -->
<!-- Title: GamR::Spect::BackgroundSubtractY Pages: 1 -->
<svg width="562pt" height="113pt"
 viewBox="0.00 0.00 562.00 112.50" xmlns="http://www.w3.org/2000/svg" xmlns:xlink="http://www.w3.org/1999/xlink">
<g id="graph0" class="graph" transform="scale(1 1) rotate(0) translate(4 108.5)">
<title>GamR::Spect::BackgroundSubtractY</title>
<!-- Node1 -->
<g id="node1" class="node">
<title>Node1</title>
<g id="a_node1"><a xlink:title=" ">
<polygon fill="#999999" stroke="#666666" points="554,-67.5 380,-67.5 380,-48.5 554,-48.5 554,-67.5"/>
<text text-anchor="middle" x="467" y="-55.5" font-family="Helvetica,sans-Serif" font-size="10.00">GamR::Spect::BackgroundSubtractY</text>
</a>
</g>
</g>
<!-- Node2 -->
<g id="node2" class="node">
<title>Node2</title>
<g id="a_node2"><a xlink:href="../../dc/d89/namespace_gam_r_1_1_spect.html#aa46918fe9f40f4f0dcadec10181a1f5f" target="_top" xlink:title=" ">
<polygon fill="white" stroke="#666666" points="344,-104.5 170,-104.5 170,-85.5 344,-85.5 344,-104.5"/>
<text text-anchor="middle" x="257" y="-92.5" font-family="Helvetica,sans-Serif" font-size="10.00">GamR::Spect::BackgroundSubtractY</text>
</a>
</g>
</g>
<!-- Node1&#45;&gt;Node2 -->
<g id="edge1" class="edge">
<title>Node1&#45;&gt;Node2</title>
<path fill="none" stroke="#63b8ff" d="M402.4,-69.31C373.4,-74.47 339.44,-80.51 311.74,-85.44"/>
<polygon fill="#63b8ff" stroke="#63b8ff" points="403.2,-72.73 412.43,-67.53 401.98,-65.83 403.2,-72.73"/>
</g>
<!-- Node3 -->
<g id="node3" class="node">
<title>Node3</title>
<g id="a_node3"><a xlink:href="../../d0/d17/_abbreviations_8cc.html#a4ce2a9b78d35f59e1431d654198b17ae" target="_top" xlink:title=" ">
<polygon fill="white" stroke="#666666" points="273,-67.5 241,-67.5 241,-48.5 273,-48.5 273,-67.5"/>
<text text-anchor="middle" x="257" y="-55.5" font-family="Helvetica,sans-Serif" font-size="10.00">bsy</text>
</a>
</g>
</g>
<!-- Node1&#45;&gt;Node3 -->
<g id="edge2" class="edge">
<title>Node1&#45;&gt;Node3</title>
<path fill="none" stroke="#63b8ff" d="M369.46,-58C332.27,-58 293.81,-58 273.21,-58"/>
<polygon fill="#63b8ff" stroke="#63b8ff" points="369.9,-61.5 379.9,-58 369.9,-54.5 369.9,-61.5"/>
</g>
<!-- Node4 -->
<g id="node4" class="node">
<title>Node4</title>
<g id="a_node4"><a xlink:href="../../d2/da9/class_gam_r_1_1_ang_dist_1_1_ang_corr_fit.html#a7d0d1589078b53be7a8da0372924c349" target="_top" xlink:title=" ">
<polygon fill="white" stroke="#666666" points="324,-30 190,-30 190,0 324,0 324,-30"/>
<text text-anchor="start" x="198" y="-18" font-family="Helvetica,sans-Serif" font-size="10.00">GamR::AngDist::AngCorrFit</text>
<text text-anchor="middle" x="257" y="-7" font-family="Helvetica,sans-Serif" font-size="10.00">::SetData</text>
</a>
</g>
</g>
<!-- Node1&#45;&gt;Node4 -->
<g id="edge3" class="edge">
<title>Node1&#45;&gt;Node4</title>
<path fill="none" stroke="#63b8ff" d="M409.98,-46.42C383.53,-40.95 351.78,-34.39 324.16,-28.68"/>
<polygon fill="#63b8ff" stroke="#63b8ff" points="409.34,-49.86 419.84,-48.46 410.75,-43 409.34,-49.86"/>
</g>
<!-- Node5 -->
<g id="node5" class="node">
<title>Node5</title>
<g id="a_node5"><a xlink:href="../../d2/da9/class_gam_r_1_1_ang_dist_1_1_ang_corr_fit.html#ade67fbd9efac760657e3d1455a2f5592" target="_top" xlink:title=" ">
<polygon fill="white" stroke="#666666" points="134,-30 0,-30 0,0 134,0 134,-30"/>
<text text-anchor="start" x="8" y="-18" font-family="Helvetica,sans-Serif" font-size="10.00">GamR::AngDist::AngCorrFit</text>
<text text-anchor="middle" x="67" y="-7" font-family="Helvetica,sans-Serif" font-size="10.00">::AngCorrFit</text>
</a>
</g>
</g>
<!-- Node4&#45;&gt;Node5 -->
<g id="edge4" class="edge">
<title>Node4&#45;&gt;Node5</title>
<path fill="none" stroke="#63b8ff" d="M179.67,-15C164.59,-15 148.88,-15 134.18,-15"/>
<polygon fill="#63b8ff" stroke="#63b8ff" points="179.98,-18.5 189.98,-15 179.98,-11.5 179.98,-18.5"/>
</g>
</g>
</svg>
