<?xml version="1.0" encoding="UTF-8" standalone="no"?>
<!DOCTYPE svg PUBLIC "-//W3C//DTD SVG 1.1//EN"
 "http://www.w3.org/Graphics/SVG/1.1/DTD/svg11.dtd">
<!-- Generated by graphviz version 9.0.0 (20230911.1827)
 -->
<!-- Title: GamR::Spect::Add2 Pages: 1 -->
<svg width="285pt" height="64pt"
 viewBox="0.00 0.00 285.25 64.25" xmlns="http://www.w3.org/2000/svg" xmlns:xlink="http://www.w3.org/1999/xlink">
<g id="graph0" class="graph" transform="scale(1 1) rotate(0) translate(4 60.25)">
<title>GamR::Spect::Add2</title>
<!-- Node1 -->
<g id="Node000001" class="node">
<title>Node1</title>
<g id="a_Node000001"><a xlink:title=" ">
<polygon fill="#999999" stroke="#666666" points="100.75,-37.25 0,-37.25 0,-18 100.75,-18 100.75,-37.25"/>
<text text-anchor="middle" x="50.38" y="-23.75" font-family="Helvetica,sans-Serif" font-size="10.00">GamR::Spect::Add2</text>
</a>
</g>
</g>
<!-- Node2 -->
<g id="Node000002" class="node">
<title>Node2</title>
<g id="a_Node000002"><a xlink:href="../../dc/d89/namespace_gam_r_1_1_spect.html#af3880c68bdb7330d8a4f8984b0a056a7" target="_top" xlink:title=" ">
<polygon fill="white" stroke="#666666" points="254.75,-56.25 159.25,-56.25 159.25,-37 254.75,-37 254.75,-56.25"/>
<text text-anchor="middle" x="207" y="-42.75" font-family="Helvetica,sans-Serif" font-size="10.00">GamR::Spect::Add</text>
</a>
</g>
</g>
<!-- Node1&#45;&gt;Node2 -->
<g id="edge1_Node000001_Node000002" class="edge">
<title>Node1&#45;&gt;Node2</title>
<g id="a_edge1_Node000001_Node000002"><a xlink:title=" ">
<path fill="none" stroke="#63b8ff" d="M101.15,-33.74C116.07,-35.57 132.56,-37.6 147.96,-39.49"/>
<polygon fill="#63b8ff" stroke="#63b8ff" points="147.09,-42.91 157.45,-40.66 147.95,-35.97 147.09,-42.91"/>
</a>
</g>
</g>
<!-- Node3 -->
<g id="Node000003" class="node">
<title>Node3</title>
<g id="a_Node000003"><a xlink:href="../../dc/d89/namespace_gam_r_1_1_spect.html#a0aad1e3c1b928bb9c61bfa9c20df882e" target="_top" xlink:title=" ">
<polygon fill="white" stroke="#666666" points="277.25,-19.25 136.75,-19.25 136.75,0 277.25,0 277.25,-19.25"/>
<text text-anchor="middle" x="207" y="-5.75" font-family="Helvetica,sans-Serif" font-size="10.00">GamR::Spect::List2DSpectra</text>
</a>
</g>
</g>
<!-- Node1&#45;&gt;Node3 -->
<g id="edge2_Node000001_Node000003" class="edge">
<title>Node1&#45;&gt;Node3</title>
<g id="a_edge2_Node000001_Node000003"><a xlink:title=" ">
<path fill="none" stroke="#63b8ff" d="M101.15,-21.83C108.77,-20.94 116.8,-20.01 124.89,-19.07"/>
<polygon fill="#63b8ff" stroke="#63b8ff" points="125.29,-22.54 134.82,-17.91 124.48,-15.59 125.29,-22.54"/>
</a>
</g>
</g>
</g>
</svg>
