<?xml version="1.0" encoding="UTF-8" standalone="no"?>
<!DOCTYPE svg PUBLIC "-//W3C//DTD SVG 1.1//EN"
 "http://www.w3.org/Graphics/SVG/1.1/DTD/svg11.dtd">
<!-- Generated by graphviz version 12.2.1 (20241206.2353)
 -->
<!-- Title: GamR::Spect::ProjY Pages: 1 -->
<!--zoomable 469 -->

<svg id="main" version="1.1" xmlns="http://www.w3.org/2000/svg" xmlns:xlink="http://www.w3.org/1999/xlink" xml:space="preserve" onload="init(evt)">

<style type="text/css"><![CDATA[
.node, .edge {opacity: 0.7;}
.node.selected, .edge.selected {opacity: 1;}
.edge:hover path { stroke: red; }
.edge:hover polygon { stroke: red; fill: red; }
]]></style>

<defs>
  <circle id="rim" cx="0" cy="0" r="7"/>
  <circle id="rim2" cx="0" cy="0" r="3.5"/>
  <g id="zoomPlus">
    <use xlink:href="#rim" fill="#404040"><set attributeName="fill" to="#808080" begin="zoomplus.mouseover" end="zoomplus.mouseout"/></use>
    <path d="M-4,0h8M0,-4v8" fill="none" stroke="white" stroke-width="1.5" pointer-events="none"/>
  </g>
  <g id="zoomMin">
    <use xlink:href="#rim" fill="#404040"><set attributeName="fill" to="#808080" begin="zoomminus.mouseover" end="zoomminus.mouseout"/></use>
    <path d="M-4,0h8" fill="none" stroke="white" stroke-width="1.5" pointer-events="none"/>
  </g>
  <g id="arrowUp" transform="translate(30 24)">
    <use xlink:href="#rim"/>
    <path pointer-events="none" fill="none" stroke="white" stroke-width="1.5" d="M0,-3.0v7 M-2.5,-0.5L0,-3.0L2.5,-0.5"/>
  </g>
  <g id="arrowRight" transform="rotate(90) translate(36 -43)">
    <use xlink:href="#rim"/>
    <path pointer-events="none" fill="none" stroke="white" stroke-width="1.5" d="M0,-3.0v7 M-2.5,-0.5L0,-3.0L2.5,-0.5"/>
  </g>
  <g id="arrowDown" transform="rotate(180) translate(-30 -48)">
    <use xlink:href="#rim"/>
    <path pointer-events="none" fill="none" stroke="white" stroke-width="1.5" d="M0,-3.0v7 M-2.5,-0.5L0,-3.0L2.5,-0.5"/>
  </g>
  <g id="arrowLeft" transform="rotate(270) translate(-36 17)">
    <use xlink:href="#rim"/>
    <path pointer-events="none" fill="none" stroke="white" stroke-width="1.5" d="M0,-3.0v7 M-2.5,-0.5L0,-3.0L2.5,-0.5"/>
  </g>
  <g id="resetDef">
    <use xlink:href="#rim2" fill="#404040"><set attributeName="fill" to="#808080" begin="reset.mouseover" end="reset.mouseout"/></use>
  </g>
</defs>
<script type="application/ecmascript">
var viewWidth = 645;
var viewHeight = 469;
var sectionId = 'dynsection-100';
</script>
<script type="application/ecmascript" xlink:href="../../svg.min.js"/>
<svg id="graph" class="graph">
<g id="viewport">
<title>GamR::Spect::ProjY</title>
<!-- Node1 -->
<g id="Node000001" class="node">
<title>Node1</title>
<g id="a_Node000001"><a xlink:title=" ">
<polygon fill="#999999" stroke="#666666" points="637,-277.25 534.75,-277.25 534.75,-258 637,-258 637,-277.25"/>
<text text-anchor="middle" x="585.88" y="-263.75" font-family="Helvetica,sans-Serif" font-size="10.00">GamR::Spect::ProjY</text>
</a>
</g>
</g>
<!-- Node2 -->
<g id="Node000002" class="node">
<title>Node2</title>
<g id="a_Node000002"><a xlink:href="../../dc/d89/namespace_gam_r_1_1_spect.html#ab6feb26905959a19a783814bb090c04b" target="_top" xlink:title=" ">
<polygon fill="white" stroke="#666666" points="498.75,-314.25 396.5,-314.25 396.5,-295 498.75,-295 498.75,-314.25"/>
<text text-anchor="middle" x="447.62" y="-300.75" font-family="Helvetica,sans-Serif" font-size="10.00">GamR::Spect::ProjY</text>
</a>
</g>
</g>
<!-- Node1&#45;&gt;Node2 -->
<g id="edge1_Node000001_Node000002" class="edge">
<title>Node1&#45;&gt;Node2</title>
<g id="a_edge1_Node000001_Node000002"><a xlink:title=" ">
<path fill="none" stroke="#63b8ff" d="M536.93,-280.65C520.15,-285.2 501.58,-290.25 485.81,-294.53"/>
<polygon fill="#63b8ff" stroke="#63b8ff" points="537.45,-284.13 546.18,-278.13 535.62,-277.38 537.45,-284.13"/>
</a>
</g>
</g>
<!-- Node3 -->
<g id="Node000003" class="node">
<title>Node3</title>
<g id="a_Node000003"><a xlink:href="../../dc/d89/namespace_gam_r_1_1_spect.html#ae5e6149e08d3a93646d03c8d3839bbe7" target="_top" xlink:title=" ">
<polygon fill="white" stroke="#666666" points="498.75,-277.25 396.5,-277.25 396.5,-258 498.75,-258 498.75,-277.25"/>
<text text-anchor="middle" x="447.62" y="-263.75" font-family="Helvetica,sans-Serif" font-size="10.00">GamR::Spect::ProjY</text>
</a>
</g>
</g>
<!-- Node1&#45;&gt;Node3 -->
<g id="edge2_Node000001_Node000003" class="edge">
<title>Node1&#45;&gt;Node3</title>
<g id="a_edge2_Node000001_Node000003"><a xlink:title=" ">
<path fill="none" stroke="#63b8ff" d="M523.28,-267.62C515.23,-267.62 507.06,-267.62 499.22,-267.62"/>
<polygon fill="#63b8ff" stroke="#63b8ff" points="523.01,-271.13 533.01,-267.63 523.01,-264.13 523.01,-271.13"/>
</a>
</g>
</g>
<!-- Node4 -->
<g id="Node000004" class="node">
<title>Node4</title>
<g id="a_Node000004"><a xlink:href="../../d0/d17/_abbreviations_8cc.html#ada52d00d8b5e1ca20ee1be4110ac3175" target="_top" xlink:title=" ">
<polygon fill="white" stroke="#666666" points="462.02,-240.25 433.23,-240.25 433.23,-221 462.02,-221 462.02,-240.25"/>
<text text-anchor="middle" x="447.62" y="-226.75" font-family="Helvetica,sans-Serif" font-size="10.00">py</text>
</a>
</g>
</g>
<!-- Node1&#45;&gt;Node4 -->
<g id="edge3_Node000001_Node000004" class="edge">
<title>Node1&#45;&gt;Node4</title>
<g id="a_edge3_Node000001_Node000004"><a xlink:title=" ">
<path fill="none" stroke="#63b8ff" d="M536.7,-254.54C510.42,-247.4 479.79,-239.09 462.45,-234.38"/>
<polygon fill="#63b8ff" stroke="#63b8ff" points="535.62,-257.87 546.18,-257.12 537.45,-251.12 535.62,-257.87"/>
</a>
</g>
</g>
<!-- Node5 -->
<g id="Node000005" class="node">
<title>Node5</title>
<g id="a_Node000005"><a xlink:href="../../d0/d50/class_gam_r_1_1_nucleus_1_1_level_scheme_draw_1_1_state.html#af62fe8b89fb5ee032bbecf5eaa6fe18f" target="_top" xlink:title=" ">
<polygon fill="white" stroke="#666666" points="350.75,-460.88 195.25,-460.88 195.25,-430.38 350.75,-430.38 350.75,-460.88"/>
<text text-anchor="start" x="203.25" y="-447.38" font-family="Helvetica,sans-Serif" font-size="10.00">GamR::Nucleus::LevelScheme</text>
<text text-anchor="middle" x="273" y="-436.12" font-family="Helvetica,sans-Serif" font-size="10.00">Draw::State::DistancetoPrimitive</text>
</a>
</g>
</g>
<!-- Node4&#45;&gt;Node5 -->
<g id="edge4_Node000004_Node000005" class="edge">
<title>Node4&#45;&gt;Node5</title>
<g id="a_edge4_Node000004_Node000005"><a xlink:title=" ">
<path fill="none" stroke="#63b8ff" d="M422.04,-234.26C412.82,-236.82 403.01,-241.19 396.5,-248.62 346.23,-306.11 411.38,-359.68 360.5,-416.62 355.65,-422.06 349.74,-426.48 343.33,-430.07"/>
<polygon fill="#63b8ff" stroke="#63b8ff" points="422.59,-237.72 431.63,-232.2 421.12,-230.88 422.59,-237.72"/>
</a>
</g>
</g>
<!-- Node6 -->
<g id="Node000006" class="node">
<title>Node6</title>
<g id="a_Node000006"><a xlink:href="../../d0/d50/class_gam_r_1_1_nucleus_1_1_level_scheme_draw_1_1_state.html#a735a9cb53adadb0de1ac1414d57b716a" target="_top" xlink:title=" ">
<polygon fill="white" stroke="#666666" points="149.12,-438.88 0.38,-438.88 0.38,-408.38 149.12,-408.38 149.12,-438.88"/>
<text text-anchor="start" x="8.38" y="-425.38" font-family="Helvetica,sans-Serif" font-size="10.00">GamR::Nucleus::LevelScheme</text>
<text text-anchor="middle" x="74.75" y="-414.12" font-family="Helvetica,sans-Serif" font-size="10.00">Draw::State::ExecuteEvent</text>
</a>
</g>
</g>
<!-- Node4&#45;&gt;Node6 -->
<g id="edge13_Node000004_Node000006" class="edge">
<title>Node4&#45;&gt;Node6</title>
<g id="a_edge13_Node000004_Node000006"><a xlink:title=" ">
<path fill="none" stroke="#63b8ff" d="M421.86,-234.53C412.77,-237.13 403.1,-241.45 396.5,-248.62 354.48,-294.34 406.98,-342.45 360.5,-383.62 330.09,-410.56 223.26,-419.41 149.47,-422.29"/>
<polygon fill="#63b8ff" stroke="#63b8ff" points="422.32,-238.01 431.31,-232.41 420.79,-231.18 422.32,-238.01"/>
</a>
</g>
</g>
<!-- Node7 -->
<g id="Node000007" class="node">
<title>Node7</title>
<g id="a_Node000007"><a xlink:href="../../d9/d6a/class_gam_r_1_1_nucleus_1_1_level_scheme_draw_1_1_transition.html#ab2488df573a655a860d1aad03120041f" target="_top" xlink:title=" ">
<polygon fill="white" stroke="#666666" points="360.5,-374.88 185.5,-374.88 185.5,-344.38 360.5,-344.38 360.5,-374.88"/>
<text text-anchor="start" x="193.5" y="-361.38" font-family="Helvetica,sans-Serif" font-size="10.00">GamR::Nucleus::LevelScheme</text>
<text text-anchor="middle" x="273" y="-350.12" font-family="Helvetica,sans-Serif" font-size="10.00">Draw::Transition::DistancetoPrimitive</text>
</a>
</g>
</g>
<!-- Node4&#45;&gt;Node7 -->
<g id="edge6_Node000004_Node000007" class="edge">
<title>Node4&#45;&gt;Node7</title>
<g id="a_edge6_Node000004_Node000007"><a xlink:title=" ">
<path fill="none" stroke="#63b8ff" d="M421.75,-235.27C412.92,-237.95 403.46,-242.13 396.5,-248.62 367.4,-275.78 389.88,-303.78 360.5,-330.62 354.65,-335.97 347.79,-340.33 340.53,-343.89"/>
<polygon fill="#63b8ff" stroke="#63b8ff" points="422.4,-238.72 431.26,-232.91 420.71,-231.92 422.4,-238.72"/>
</a>
</g>
</g>
<!-- Node8 -->
<g id="Node000008" class="node">
<title>Node8</title>
<g id="a_Node000008"><a xlink:href="../../d9/d6a/class_gam_r_1_1_nucleus_1_1_level_scheme_draw_1_1_transition.html#ac6affc8cf9d5a8c89d3e5be46b53128b" target="_top" xlink:title=" ">
<polygon fill="white" stroke="#666666" points="149.5,-349.88 0,-349.88 0,-319.38 149.5,-319.38 149.5,-349.88"/>
<text text-anchor="start" x="8" y="-336.38" font-family="Helvetica,sans-Serif" font-size="10.00">GamR::Nucleus::LevelScheme</text>
<text text-anchor="middle" x="74.75" y="-325.12" font-family="Helvetica,sans-Serif" font-size="10.00">Draw::Transition::ExecuteEvent</text>
</a>
</g>
</g>
<!-- Node4&#45;&gt;Node8 -->
<g id="edge14_Node000004_Node000008" class="edge">
<title>Node4&#45;&gt;Node8</title>
<g id="a_edge14_Node000004_Node000008"><a xlink:title=" ">
<path fill="none" stroke="#63b8ff" d="M421.82,-236.34C413.25,-239.11 403.94,-243.08 396.5,-248.62 374.84,-264.78 383.77,-283.89 360.5,-297.62 325.89,-318.05 221.9,-327.43 149.67,-331.57"/>
<polygon fill="#63b8ff" stroke="#63b8ff" points="422.66,-239.74 431.35,-233.68 420.78,-233 422.66,-239.74"/>
</a>
</g>
</g>
<!-- Node9 -->
<g id="Node000009" class="node">
<title>Node9</title>
<g id="a_Node000009"><a xlink:href="../../d3/d4b/class_gam_r_1_1_nucleus_1_1_level_scheme_fitter_1_1_state.html#a062dd0dec8beb4be1b22ac0cba205a10" target="_top" xlink:title=" ">
<polygon fill="white" stroke="#666666" points="350.75,-288.88 195.25,-288.88 195.25,-258.38 350.75,-258.38 350.75,-288.88"/>
<text text-anchor="start" x="203.25" y="-275.38" font-family="Helvetica,sans-Serif" font-size="10.00">GamR::Nucleus::LevelScheme</text>
<text text-anchor="middle" x="273" y="-264.12" font-family="Helvetica,sans-Serif" font-size="10.00">Fitter::State::DistancetoPrimitive</text>
</a>
</g>
</g>
<!-- Node4&#45;&gt;Node9 -->
<g id="edge8_Node000004_Node000009" class="edge">
<title>Node4&#45;&gt;Node9</title>
<g id="a_edge8_Node000004_Node000009"><a xlink:title=" ">
<path fill="none" stroke="#63b8ff" d="M421.78,-236.81C399.73,-242.31 366.56,-250.57 337.22,-257.88"/>
<polygon fill="#63b8ff" stroke="#63b8ff" points="422.46,-240.25 431.32,-234.44 420.77,-233.46 422.46,-240.25"/>
</a>
</g>
</g>
<!-- Node10 -->
<g id="Node000010" class="node">
<title>Node10</title>
<g id="a_Node000010"><a xlink:href="../../d3/d4b/class_gam_r_1_1_nucleus_1_1_level_scheme_fitter_1_1_state.html#a47895fed67a142b63c6b3dc76ef62200" target="_top" xlink:title=" ">
<polygon fill="white" stroke="#666666" points="149.12,-257.88 0.38,-257.88 0.38,-227.38 149.12,-227.38 149.12,-257.88"/>
<text text-anchor="start" x="8.38" y="-244.38" font-family="Helvetica,sans-Serif" font-size="10.00">GamR::Nucleus::LevelScheme</text>
<text text-anchor="middle" x="74.75" y="-233.12" font-family="Helvetica,sans-Serif" font-size="10.00">Fitter::State::ExecuteEvent</text>
</a>
</g>
</g>
<!-- Node4&#45;&gt;Node10 -->
<g id="edge15_Node000004_Node000010" class="edge">
<title>Node4&#45;&gt;Node10</title>
<g id="a_edge15_Node000004_Node000010"><a xlink:title=" ">
<path fill="none" stroke="#63b8ff" d="M421.63,-231.43C366.67,-233.21 233.54,-237.52 149.4,-240.24"/>
<polygon fill="#63b8ff" stroke="#63b8ff" points="421.59,-234.94 431.47,-231.12 421.36,-227.94 421.59,-234.94"/>
</a>
</g>
</g>
<!-- Node11 -->
<g id="Node000011" class="node">
<title>Node11</title>
<g id="a_Node000011"><a xlink:href="../../d7/df7/class_gam_r_1_1_nucleus_1_1_level_scheme_fitter_1_1_transition.html#aeaafdf1c58b91dbd0bae610717c0f338" target="_top" xlink:title=" ">
<polygon fill="white" stroke="#666666" points="347.38,-202.5 198.62,-202.5 198.62,-160.75 347.38,-160.75 347.38,-202.5"/>
<text text-anchor="start" x="206.62" y="-189" font-family="Helvetica,sans-Serif" font-size="10.00">GamR::Nucleus::LevelScheme</text>
<text text-anchor="start" x="206.62" y="-177.75" font-family="Helvetica,sans-Serif" font-size="10.00">Fitter::Transition::Distanceto</text>
<text text-anchor="middle" x="273" y="-166.5" font-family="Helvetica,sans-Serif" font-size="10.00">Primitive</text>
</a>
</g>
</g>
<!-- Node4&#45;&gt;Node11 -->
<g id="edge10_Node000004_Node000011" class="edge">
<title>Node4&#45;&gt;Node11</title>
<g id="a_edge10_Node000004_Node000011"><a xlink:title=" ">
<path fill="none" stroke="#63b8ff" d="M421.91,-223.61C402.49,-218.1 374.38,-210.12 347.87,-202.59"/>
<polygon fill="#63b8ff" stroke="#63b8ff" points="420.76,-226.92 431.33,-226.28 422.67,-220.19 420.76,-226.92"/>
</a>
</g>
</g>
<!-- Node12 -->
<g id="Node000012" class="node">
<title>Node12</title>
<g id="a_Node000012"><a xlink:href="../../d7/df7/class_gam_r_1_1_nucleus_1_1_level_scheme_fitter_1_1_transition.html#a3139667cf8be002fcb2285bde985dc68" target="_top" xlink:title=" ">
<polygon fill="white" stroke="#666666" points="149.5,-184.88 0,-184.88 0,-154.38 149.5,-154.38 149.5,-184.88"/>
<text text-anchor="start" x="8" y="-171.38" font-family="Helvetica,sans-Serif" font-size="10.00">GamR::Nucleus::LevelScheme</text>
<text text-anchor="middle" x="74.75" y="-160.12" font-family="Helvetica,sans-Serif" font-size="10.00">Fitter::Transition::ExecuteEvent</text>
</a>
</g>
</g>
<!-- Node4&#45;&gt;Node12 -->
<g id="edge16_Node000004_Node000012" class="edge">
<title>Node4&#45;&gt;Node12</title>
<g id="a_edge16_Node000004_Node000012"><a xlink:title=" ">
<path fill="none" stroke="#63b8ff" d="M432.89,-211.55C417.69,-192.24 391.25,-163.59 360.5,-151.62 283.06,-121.49 184.84,-138.58 126.33,-153.94"/>
<polygon fill="#63b8ff" stroke="#63b8ff" points="430.04,-213.58 438.86,-219.44 435.62,-209.36 430.04,-213.58"/>
</a>
</g>
</g>
<!-- Node13 -->
<g id="Node000013" class="node">
<title>Node13</title>
<g id="a_Node000013"><a xlink:href="../../d0/d74/group___t_k.html#gac731f3c9e019bc69f52732bcfddab7fd" target="_top" xlink:title=" ">
<polygon fill="white" stroke="#666666" points="341.75,-104.88 204.25,-104.88 204.25,-74.38 341.75,-74.38 341.75,-104.88"/>
<text text-anchor="start" x="212.25" y="-91.38" font-family="Helvetica,sans-Serif" font-size="10.00">GamR::TK::Gate::Distanceto</text>
<text text-anchor="middle" x="273" y="-80.12" font-family="Helvetica,sans-Serif" font-size="10.00">Primitive</text>
</a>
</g>
</g>
<!-- Node4&#45;&gt;Node13 -->
<g id="edge12_Node000004_Node000013" class="edge">
<title>Node4&#45;&gt;Node13</title>
<g id="a_edge12_Node000004_Node000013"><a xlink:title=" ">
<path fill="none" stroke="#63b8ff" d="M436.32,-210.86C422.35,-185.92 395.12,-143.31 360.5,-118.62 353.02,-113.29 344.49,-108.89 335.77,-105.26"/>
<polygon fill="#63b8ff" stroke="#63b8ff" points="433.06,-212.2 440.91,-219.32 439.22,-208.86 433.06,-212.2"/>
</a>
</g>
</g>
<!-- Node14 -->
<g id="Node000014" class="node">
<title>Node14</title>
<g id="a_Node000014"><a xlink:href="../../d0/d74/group___t_k.html#gaaa4358ac4e22aea13191978c5dcc846e" target="_top" xlink:title=" ">
<polygon fill="white" stroke="#666666" points="348.12,-56.25 197.88,-56.25 197.88,-37 348.12,-37 348.12,-56.25"/>
<text text-anchor="middle" x="273" y="-42.75" font-family="Helvetica,sans-Serif" font-size="10.00">GamR::TK::Gate::ExecuteEvent</text>
</a>
</g>
</g>
<!-- Node4&#45;&gt;Node14 -->
<g id="edge17_Node000004_Node000014" class="edge">
<title>Node4&#45;&gt;Node14</title>
<g id="a_edge17_Node000004_Node000014"><a xlink:title=" ">
<path fill="none" stroke="#63b8ff" d="M441.81,-209.61C432.54,-174.1 408.71,-102.5 360.5,-65.62 355.74,-61.98 350.42,-59.01 344.82,-56.58"/>
<polygon fill="#63b8ff" stroke="#63b8ff" points="438.36,-210.21 444.14,-219.08 445.15,-208.53 438.36,-210.21"/>
</a>
</g>
</g>
<!-- Node15 -->
<g id="Node000015" class="node">
<title>Node15</title>
<g id="a_Node000015"><a xlink:href="../../d0/d74/group___t_k.html#gadbfc4f8e9d96d1d77258647e1f537a1e" target="_top" xlink:title=" ">
<polygon fill="white" stroke="#666666" points="348.12,-19.25 197.88,-19.25 197.88,0 348.12,0 348.12,-19.25"/>
<text text-anchor="middle" x="273" y="-5.75" font-family="Helvetica,sans-Serif" font-size="10.00">GamR::TK::Gate::PassDetector</text>
</a>
</g>
</g>
<!-- Node4&#45;&gt;Node15 -->
<g id="edge18_Node000004_Node000015" class="edge">
<title>Node4&#45;&gt;Node15</title>
<g id="a_edge18_Node000004_Node000015"><a xlink:title=" ">
<path fill="none" stroke="#63b8ff" d="M444.1,-209.51C437.94,-167.83 418.16,-74.95 360.5,-27.62 356.71,-24.51 352.51,-21.89 348.07,-19.7"/>
<polygon fill="#63b8ff" stroke="#63b8ff" points="440.6,-209.75 445.4,-219.19 447.54,-208.81 440.6,-209.75"/>
</a>
</g>
</g>
<!-- Node5&#45;&gt;Node6 -->
<g id="edge5_Node000005_Node000006" class="edge">
<title>Node5&#45;&gt;Node6</title>
<g id="a_edge5_Node000005_Node000006"><a xlink:title=" ">
<path fill="none" stroke="#63b8ff" d="M183.62,-435.72C172.15,-434.43 160.51,-433.13 149.32,-431.87"/>
<polygon fill="#63b8ff" stroke="#63b8ff" points="183.17,-439.19 193.5,-436.82 183.95,-432.23 183.17,-439.19"/>
</a>
</g>
</g>
<!-- Node7&#45;&gt;Node8 -->
<g id="edge7_Node000007_Node000008" class="edge">
<title>Node7&#45;&gt;Node8</title>
<g id="a_edge7_Node000007_Node000008"><a xlink:title=" ">
<path fill="none" stroke="#63b8ff" d="M173.69,-347.1C165.63,-346.07 157.57,-345.05 149.73,-344.05"/>
<polygon fill="#63b8ff" stroke="#63b8ff" points="173.2,-350.57 183.56,-348.36 174.09,-343.62 173.2,-350.57"/>
</a>
</g>
</g>
<!-- Node9&#45;&gt;Node10 -->
<g id="edge9_Node000009_Node000010" class="edge">
<title>Node9&#45;&gt;Node10</title>
<g id="a_edge9_Node000009_Node000010"><a xlink:title=" ">
<path fill="none" stroke="#63b8ff" d="M183.98,-259.72C172.4,-257.89 160.62,-256.03 149.32,-254.25"/>
<polygon fill="#63b8ff" stroke="#63b8ff" points="183.08,-263.12 193.51,-261.23 184.17,-256.21 183.08,-263.12"/>
</a>
</g>
</g>
<!-- Node11&#45;&gt;Node12 -->
<g id="edge11_Node000011_Node000012" class="edge">
<title>Node11&#45;&gt;Node12</title>
<g id="a_edge11_Node000011_Node000012"><a xlink:title=" ">
<path fill="none" stroke="#63b8ff" d="M187.07,-176.43C174.66,-175.67 161.97,-174.9 149.8,-174.15"/>
<polygon fill="#63b8ff" stroke="#63b8ff" points="186.66,-179.91 196.85,-177.03 187.09,-172.93 186.66,-179.91"/>
</a>
</g>
</g>
</g>
</svg>

<g id="navigator" transform="translate(0 0)" fill="#404254">
  <rect fill="#f2f5e9" fill-opacity="0.5" stroke="#606060" stroke-width=".5" x="0" y="0" width="60" height="60"/>
  <use id="zoomplus" xlink:href="#zoomPlus" x="17" y="9" onmousedown="handleZoom(evt,'in')"/>
  <use id="zoomminus" xlink:href="#zoomMin" x="42" y="9" onmousedown="handleZoom(evt,'out')"/>
  <use id="reset" xlink:href="#resetDef" x="30" y="36" onmousedown="handleReset()"/>
   <use id="arrowup" xlink:href="#arrowUp" x="0" y="0" onmousedown="handlePan(0,-1)"/>
  <use id="arrowright" xlink:href="#arrowRight" x="0" y="0" onmousedown="handlePan(1,0)"/>
  <use id="arrowdown" xlink:href="#arrowDown" x="0" y="0" onmousedown="handlePan(0,1)"/>
  <use id="arrowleft" xlink:href="#arrowLeft" x="0" y="0" onmousedown="handlePan(-1,0)"/>
</g>
<svg viewBox="0 0 15 15" width="100%" height="30px" preserveAspectRatio="xMaxYMin meet">
 <g id="arrow_out" transform="scale(0.3 0.3)">
  <a xlink:href="namespace_gam_r_1_1_spect_a16ff9da3440d1c99c085b58a70b447b9_icgraph_org.svg" target="_base">
   <rect id="button" ry="5" rx="5" y="6" x="6" height="38" width="38"
        fill="#f2f5e9" fill-opacity="0.5" stroke="#606060" stroke-width="1.0"/>
   <path id="arrow"
     d="M 11.500037,31.436501 C 11.940474,20.09759 22.043105,11.32322 32.158766,21.979434 L 37.068811,17.246167 C 37.068811,17.246167 37.088388,32 37.088388,32 L 22.160133,31.978069 C 22.160133,31.978069 26.997745,27.140456 26.997745,27.140456 C 18.528582,18.264221 13.291696,25.230495 11.500037,31.436501 z"
     style="fill:#404040;"/>
  </a>
 </g>
</svg>

<style type='text/css'>
<![CDATA[
[data-mouse-over-selected='false'] { opacity: 0.7; }
[data-mouse-over-selected='true']  { opacity: 1.0; }
]]>
</style>
<script type="application/ecmascript"><![CDATA[
document.addEventListener('DOMContentLoaded', (event) => {
  highlightEdges();
  highlightAdjacentNodes();
});
]]></script>
</svg>
