<?xml version="1.0" encoding="UTF-8" standalone="no"?>
<!DOCTYPE svg PUBLIC "-//W3C//DTD SVG 1.1//EN"
 "http://www.w3.org/Graphics/SVG/1.1/DTD/svg11.dtd">
<!-- Generated by graphviz version 8.1.0 (20230707.0739)
 -->
<!-- Title: GamR::Spect::Integral Pages: 1 -->
<svg width="451pt" height="101pt"
 viewBox="0.00 0.00 450.50 101.25" xmlns="http://www.w3.org/2000/svg" xmlns:xlink="http://www.w3.org/1999/xlink">

<svg id="main" version="1.1" xmlns="http://www.w3.org/2000/svg" xmlns:xlink="http://www.w3.org/1999/xlink" xml:space="preserve" onload="init(evt)">
<style type="text/css"><![CDATA[
.node, .edge {opacity: 0.7;}
.node.selected, .edge.selected {opacity: 1;}
.edge:hover path { stroke: red; }
.edge:hover polygon { stroke: red; fill: red; }
]]></style>
<script type="application/ecmascript" xlink:href="../../svg.min.js"/>
<svg id="graph" class="graph">
<g id="graph0" class="graph" transform="scale(1 1) rotate(0) translate(4 97.25)">
<title>GamR::Spect::Integral</title>
<!-- Node1 -->
<g id="Node000001" class="node">
<title>Node1</title>
<g id="a_Node000001"><a xlink:title=" ">
<polygon fill="#999999" stroke="#666666" points="442.5,-56.25 332,-56.25 332,-37 442.5,-37 442.5,-56.25"/>
<text text-anchor="middle" x="387.25" y="-42.75" font-family="Helvetica,sans-Serif" font-size="10.00">GamR::Spect::Integral</text>
</a>
</g>
</g>
<!-- Node2 -->
<g id="Node000002" class="node">
<title>Node2</title>
<g id="a_Node000002"><a xlink:href="../../d0/d17/_abbreviations_8cc.html#abfd2dbc0c115ba48ef99c0b72edfce7a" target="_top" xlink:title=" ">
<polygon fill="white" stroke="#666666" points="255.15,-93.25 226.35,-93.25 226.35,-74 255.15,-74 255.15,-93.25"/>
<text text-anchor="middle" x="240.75" y="-79.75" font-family="Helvetica,sans-Serif" font-size="10.00">ig</text>
</a>
</g>
</g>
<!-- Node1&#45;&gt;Node2 -->
<g id="edge1_Node000001_Node000002" class="edge">
<title>Node1&#45;&gt;Node2</title>
<g id="a_edge1_Node000001_Node000002"><a xlink:title=" ">
<path fill="none" stroke="#63b8ff" d="M336.47,-59.37C307.78,-66.72 273.84,-75.41 255.38,-80.14"/>
<polygon fill="#63b8ff" stroke="#63b8ff" points="336.95,-62.61 345.76,-56.74 335.21,-55.83 336.95,-62.61"/>
</a>
</g>
</g>
<!-- Node4 -->
<g id="Node000004" class="node">
<title>Node4</title>
<g id="a_Node000004"><a xlink:href="../../dc/d89/namespace_gam_r_1_1_spect.html#ab9f4f42a73451552ba75545e3d28e352" target="_top" xlink:title=" ">
<polygon fill="white" stroke="#666666" points="296,-56.25 185.5,-56.25 185.5,-37 296,-37 296,-56.25"/>
<text text-anchor="middle" x="240.75" y="-42.75" font-family="Helvetica,sans-Serif" font-size="10.00">GamR::Spect::Integral</text>
</a>
</g>
</g>
<!-- Node1&#45;&gt;Node4 -->
<g id="edge3_Node000001_Node000004" class="edge">
<title>Node1&#45;&gt;Node4</title>
<g id="a_edge3_Node000001_Node000004"><a xlink:title=" ">
<path fill="none" stroke="#63b8ff" d="M320.68,-46.62C312.58,-46.62 304.37,-46.62 296.46,-46.62"/>
<polygon fill="#63b8ff" stroke="#63b8ff" points="320.62,-50.13 330.62,-46.62 320.62,-43.13 320.62,-50.13"/>
</a>
</g>
</g>
<!-- Node5 -->
<g id="Node000005" class="node">
<title>Node5</title>
<g id="a_Node000005"><a xlink:href="../../dc/d89/namespace_gam_r_1_1_spect.html#aee9a643ab7a4a499bf1bb0c5e623406c" target="_top" xlink:title=" ">
<polygon fill="white" stroke="#666666" points="296,-19.25 185.5,-19.25 185.5,0 296,0 296,-19.25"/>
<text text-anchor="middle" x="240.75" y="-5.75" font-family="Helvetica,sans-Serif" font-size="10.00">GamR::Spect::Integral</text>
</a>
</g>
</g>
<!-- Node1&#45;&gt;Node5 -->
<g id="edge4_Node000001_Node000005" class="edge">
<title>Node1&#45;&gt;Node5</title>
<g id="a_edge4_Node000001_Node000005"><a xlink:title=" ">
<path fill="none" stroke="#63b8ff" d="M336.16,-33.8C318.17,-29.19 298.15,-24.07 281.19,-19.72"/>
<polygon fill="#63b8ff" stroke="#63b8ff" points="335.21,-37.42 345.76,-36.51 336.95,-30.64 335.21,-37.42"/>
</a>
</g>
</g>
<!-- Node3 -->
<g id="Node000003" class="node">
<title>Node3</title>
<g id="a_Node000003"><a xlink:href="../../d2/da9/class_gam_r_1_1_ang_dist_1_1_ang_corr_fit.html#afb40b46c8473166d5449b680a03eed79" target="_top" xlink:title=" ">
<polygon fill="white" stroke="#666666" points="149.5,-93.25 0,-93.25 0,-74 149.5,-74 149.5,-93.25"/>
<text text-anchor="middle" x="74.75" y="-79.75" font-family="Helvetica,sans-Serif" font-size="10.00">GamR::AngDist::AngCorrFit::Fit</text>
</a>
</g>
</g>
<!-- Node2&#45;&gt;Node3 -->
<g id="edge2_Node000002_Node000003" class="edge">
<title>Node2&#45;&gt;Node3</title>
<g id="a_edge2_Node000002_Node000003"><a xlink:title=" ">
<path fill="none" stroke="#63b8ff" d="M215.17,-83.62C197.71,-83.62 173.27,-83.62 149.73,-83.62"/>
<polygon fill="#63b8ff" stroke="#63b8ff" points="215.05,-87.13 225.05,-83.62 215.05,-80.13 215.05,-87.13"/>
</a>
</g>
</g>
</g>
</svg>
</svg>

<style type='text/css'>
<![CDATA[
[data-mouse-over-selected='false'] { opacity: 0.7; }
[data-mouse-over-selected='true']  { opacity: 1.0; }
]]>
</style>
<script type="application/ecmascript"><![CDATA[
document.addEventListener('DOMContentLoaded', (event) => {
  highlightEdges();
  highlightAdjacentNodes();
});
]]></script>
</svg>
