<?xml version="1.0" encoding="UTF-8" standalone="no"?>
<!DOCTYPE svg PUBLIC "-//W3C//DTD SVG 1.1//EN"
 "http://www.w3.org/Graphics/SVG/1.1/DTD/svg11.dtd">
<!-- Generated by graphviz version 8.1.0 (20230707.0739)
 -->
<!-- Title: GamR::Spect::List1DSpectra Pages: 1 -->
<svg width="708pt" height="1101pt"
 viewBox="0.00 0.00 708.00 1101.25" xmlns="http://www.w3.org/2000/svg" xmlns:xlink="http://www.w3.org/1999/xlink">
<g id="graph0" class="graph" transform="scale(1 1) rotate(0) translate(4 1097.25)">
<title>GamR::Spect::List1DSpectra</title>
<!-- Node1 -->
<g id="Node000001" class="node">
<title>Node1</title>
<g id="a_Node000001"><a xlink:title=" ">
<polygon fill="#999999" stroke="#666666" points="700,-963.25 559.5,-963.25 559.5,-944 700,-944 700,-963.25"/>
<text text-anchor="middle" x="629.75" y="-949.75" font-family="Helvetica,sans-Serif" font-size="10.00">GamR::Spect::List1DSpectra</text>
</a>
</g>
</g>
<!-- Node2 -->
<g id="Node000002" class="node">
<title>Node2</title>
<g id="a_Node000002"><a xlink:href="../../dc/d89/namespace_gam_r_1_1_spect.html#a609e50eb2a0f45c2e62398f0997df729" target="_top" xlink:title=" ">
<polygon fill="white" stroke="#666666" points="498.75,-1093.25 403.25,-1093.25 403.25,-1074 498.75,-1074 498.75,-1093.25"/>
<text text-anchor="middle" x="451" y="-1079.75" font-family="Helvetica,sans-Serif" font-size="10.00">GamR::Spect::Add</text>
</a>
</g>
</g>
<!-- Node1&#45;&gt;Node2 -->
<g id="edge1_Node000001_Node000002" class="edge">
<title>Node1&#45;&gt;Node2</title>
<g id="a_edge1_Node000001_Node000002"><a xlink:title=" ">
<path fill="none" stroke="#63b8ff" d="M616.37,-972.39C598.77,-997.53 564.11,-1041.75 523.5,-1065.62 516,-1070.04 507.43,-1073.38 498.91,-1075.9"/>
<polygon fill="#63b8ff" stroke="#63b8ff" points="619.7,-974.71 622.45,-964.48 613.92,-970.76 619.7,-974.71"/>
</a>
</g>
</g>
<!-- Node3 -->
<g id="Node000003" class="node">
<title>Node3</title>
<g id="a_Node000003"><a xlink:href="../../dc/d89/namespace_gam_r_1_1_spect.html#a37148e4391500d73c34d5a9cf41700ed" target="_top" xlink:title=" ">
<polygon fill="white" stroke="#666666" points="498.75,-1056.25 403.25,-1056.25 403.25,-1037 498.75,-1037 498.75,-1056.25"/>
<text text-anchor="middle" x="451" y="-1042.75" font-family="Helvetica,sans-Serif" font-size="10.00">GamR::Spect::Add</text>
</a>
</g>
</g>
<!-- Node1&#45;&gt;Node3 -->
<g id="edge2_Node000001_Node000003" class="edge">
<title>Node1&#45;&gt;Node3</title>
<g id="a_edge2_Node000001_Node000003"><a xlink:title=" ">
<path fill="none" stroke="#63b8ff" d="M609.36,-970.87C589.23,-987.9 556.18,-1013.53 523.5,-1028.62 515.83,-1032.17 507.36,-1035.08 499.02,-1037.45"/>
<polygon fill="#63b8ff" stroke="#63b8ff" points="611.36,-972.9 616.65,-963.71 606.79,-967.6 611.36,-972.9"/>
</a>
</g>
</g>
<!-- Node4 -->
<g id="Node000004" class="node">
<title>Node4</title>
<g id="a_Node000004"><a xlink:href="../../dc/d89/namespace_gam_r_1_1_spect.html#a54b953c08bfbe870df0e0c9c6aa23648" target="_top" xlink:title=" ">
<polygon fill="white" stroke="#666666" points="501.38,-1019.25 400.62,-1019.25 400.62,-1000 501.38,-1000 501.38,-1019.25"/>
<text text-anchor="middle" x="451" y="-1005.75" font-family="Helvetica,sans-Serif" font-size="10.00">GamR::Spect::Draw</text>
</a>
</g>
</g>
<!-- Node1&#45;&gt;Node4 -->
<g id="edge3_Node000001_Node000004" class="edge">
<title>Node1&#45;&gt;Node4</title>
<g id="a_edge3_Node000001_Node000004"><a xlink:title=" ">
<path fill="none" stroke="#63b8ff" d="M593.02,-967.53C572.78,-975.15 546.92,-984.47 523.5,-991.62 514.32,-994.43 504.38,-997.14 494.92,-999.56"/>
<polygon fill="#63b8ff" stroke="#63b8ff" points="593.94,-970.55 602.04,-963.72 591.45,-964 593.94,-970.55"/>
</a>
</g>
</g>
<!-- Node10 -->
<g id="Node000010" class="node">
<title>Node10</title>
<g id="a_Node000010"><a xlink:href="../../d0/d17/_abbreviations_8cc.html#a0a4a3cef40cd8acefe8d3913380a814a" target="_top" xlink:title=" ">
<polygon fill="white" stroke="#666666" points="465.4,-982.25 436.6,-982.25 436.6,-963 465.4,-963 465.4,-982.25"/>
<text text-anchor="middle" x="451" y="-968.75" font-family="Helvetica,sans-Serif" font-size="10.00">ls</text>
</a>
</g>
</g>
<!-- Node1&#45;&gt;Node10 -->
<g id="edge6_Node000001_Node000010" class="edge">
<title>Node1&#45;&gt;Node10</title>
<g id="a_edge6_Node000001_Node000010"><a xlink:title=" ">
<path fill="none" stroke="#63b8ff" d="M548.51,-962.25C516.91,-965.65 483.92,-969.19 465.86,-971.13"/>
<polygon fill="#63b8ff" stroke="#63b8ff" points="548.58,-965.66 558.15,-961.11 547.83,-958.7 548.58,-965.66"/>
</a>
</g>
</g>
<!-- Node13 -->
<g id="Node000013" class="node">
<title>Node13</title>
<g id="a_Node000013"><a xlink:href="../../dc/d89/namespace_gam_r_1_1_spect.html#a8473e685bcada4de9429b0525313d014" target="_top" xlink:title=" ">
<polygon fill="white" stroke="#666666" points="342.5,-944.25 197.5,-944.25 197.5,-925 342.5,-925 342.5,-944.25"/>
<text text-anchor="middle" x="270" y="-930.75" font-family="Helvetica,sans-Serif" font-size="10.00">GamR::Spect::OverlaySpectra</text>
</a>
</g>
</g>
<!-- Node1&#45;&gt;Node13 -->
<g id="edge9_Node000001_Node000013" class="edge">
<title>Node1&#45;&gt;Node13</title>
<g id="a_edge9_Node000001_Node000013"><a xlink:title=" ">
<path fill="none" stroke="#63b8ff" d="M548.5,-949.36C486.84,-946.09 402.45,-941.61 342.97,-938.45"/>
<polygon fill="#63b8ff" stroke="#63b8ff" points="548.18,-952.9 558.35,-949.94 548.55,-945.91 548.18,-952.9"/>
</a>
</g>
</g>
<!-- Node14 -->
<g id="Node000014" class="node">
<title>Node14</title>
<g id="a_Node000014"><a xlink:href="../../dc/d89/namespace_gam_r_1_1_spect.html#a9baa566867cd3f57cd8b1e5c0137ef3e" target="_top" xlink:title=" ">
<polygon fill="white" stroke="#666666" points="523.5,-722.25 378.5,-722.25 378.5,-703 523.5,-703 523.5,-722.25"/>
<text text-anchor="middle" x="451" y="-708.75" font-family="Helvetica,sans-Serif" font-size="10.00">GamR::Spect::OverlaySpectra</text>
</a>
</g>
</g>
<!-- Node1&#45;&gt;Node14 -->
<g id="edge10_Node000001_Node000014" class="edge">
<title>Node1&#45;&gt;Node14</title>
<g id="a_edge10_Node000001_Node000014"><a xlink:title=" ">
<path fill="none" stroke="#63b8ff" d="M614.92,-934.77C579.49,-886.45 486.35,-759.46 459.4,-722.72"/>
<polygon fill="#63b8ff" stroke="#63b8ff" points="612.64,-936.58 621.38,-942.58 618.29,-932.44 612.64,-936.58"/>
</a>
</g>
</g>
<!-- Node29 -->
<g id="Node000029" class="node">
<title>Node29</title>
<g id="a_Node000029"><a xlink:href="../../dc/d89/namespace_gam_r_1_1_spect.html#ac29ec26a20579c4881180a7deba05b6b" target="_top" xlink:title=" ">
<polygon fill="white" stroke="#666666" points="338.75,-426.25 201.25,-426.25 201.25,-407 338.75,-407 338.75,-426.25"/>
<text text-anchor="middle" x="270" y="-412.75" font-family="Helvetica,sans-Serif" font-size="10.00">GamR::Spect::StackSpectra</text>
</a>
</g>
</g>
<!-- Node1&#45;&gt;Node29 -->
<g id="edge27_Node000001_Node000029" class="edge">
<title>Node1&#45;&gt;Node29</title>
<g id="a_edge27_Node000001_Node000029"><a xlink:title=" ">
<path fill="none" stroke="#63b8ff" d="M622.34,-933.5C607.76,-888.88 569.78,-778.88 523.5,-693.62 456.51,-570.2 458.11,-514.35 342.5,-434.62 337.86,-431.43 332.71,-428.8 327.35,-426.63"/>
<polygon fill="#63b8ff" stroke="#63b8ff" points="619.27,-934.39 625.68,-942.83 625.93,-932.24 619.27,-934.39"/>
</a>
</g>
</g>
<!-- Node30 -->
<g id="Node000030" class="node">
<title>Node30</title>
<g id="a_Node000030"><a xlink:href="../../dc/d89/namespace_gam_r_1_1_spect.html#ab983da62eb972889ea13491189e13913" target="_top" xlink:title=" ">
<polygon fill="white" stroke="#666666" points="519.75,-241.25 382.25,-241.25 382.25,-222 519.75,-222 519.75,-241.25"/>
<text text-anchor="middle" x="451" y="-227.75" font-family="Helvetica,sans-Serif" font-size="10.00">GamR::Spect::StackSpectra</text>
</a>
</g>
</g>
<!-- Node1&#45;&gt;Node30 -->
<g id="edge28_Node000001_Node000030" class="edge">
<title>Node1&#45;&gt;Node30</title>
<g id="a_edge28_Node000001_Node000030"><a xlink:title=" ">
<path fill="none" stroke="#63b8ff" d="M623.76,-933.24C597.26,-825.01 473.56,-319.7 454.48,-241.74"/>
<polygon fill="#63b8ff" stroke="#63b8ff" points="620.54,-933.81 626.32,-942.69 627.34,-932.15 620.54,-933.81"/>
</a>
</g>
</g>
<!-- Node5 -->
<g id="Node000005" class="node">
<title>Node5</title>
<g id="a_Node000005"><a xlink:href="../../d0/d17/_abbreviations_8cc.html#a33328e0e85d36ff8f7f299bb791c5364" target="_top" xlink:title=" ">
<polygon fill="white" stroke="#666666" points="284.4,-1067.25 255.6,-1067.25 255.6,-1048 284.4,-1048 284.4,-1067.25"/>
<text text-anchor="middle" x="270" y="-1053.75" font-family="Helvetica,sans-Serif" font-size="10.00">sp</text>
</a>
</g>
</g>
<!-- Node4&#45;&gt;Node5 -->
<g id="edge4_Node000004_Node000005" class="edge">
<title>Node4&#45;&gt;Node5</title>
<g id="a_edge4_Node000004_Node000005"><a xlink:title=" ">
<path fill="none" stroke="#63b8ff" d="M397.29,-1022.42C390.94,-1024.1 384.56,-1025.85 378.5,-1027.62 362.31,-1032.35 358.69,-1034.9 342.5,-1039.62 322.59,-1045.44 299.25,-1051.1 284.79,-1054.48"/>
<polygon fill="#63b8ff" stroke="#63b8ff" points="398.09,-1025.57 406.89,-1019.67 396.33,-1018.79 398.09,-1025.57"/>
</a>
</g>
</g>
<!-- Node6 -->
<g id="Node000006" class="node">
<title>Node6</title>
<g id="a_Node000006"><a xlink:href="../../dd/d3e/class_gam_r_1_1_coulex_1_1_coulex_calculation.html#a46d4f1bd67b5c6c438efd93b9f1e4838" target="_top" xlink:title=" ">
<polygon fill="#fff0f0" stroke="red" points="160.38,-1072.88 1.12,-1072.88 1.12,-1042.38 160.38,-1042.38 160.38,-1072.88"/>
<text text-anchor="start" x="9.12" y="-1059.38" font-family="Helvetica,sans-Serif" font-size="10.00">GamR::Coulex::CoulexCalculation</text>
<text text-anchor="middle" x="80.75" y="-1048.12" font-family="Helvetica,sans-Serif" font-size="10.00">::SetLevelScheme</text>
</a>
</g>
</g>
<!-- Node5&#45;&gt;Node6 -->
<g id="edge5_Node000005_Node000006" class="edge">
<title>Node5&#45;&gt;Node6</title>
<g id="a_edge5_Node000005_Node000006"><a xlink:title=" ">
<path fill="none" stroke="#63b8ff" d="M244.27,-1057.62C222.91,-1057.62 190.83,-1057.62 160.81,-1057.62"/>
<polygon fill="#63b8ff" stroke="#63b8ff" points="244.23,-1061.13 254.23,-1057.62 244.23,-1054.13 244.23,-1061.13"/>
</a>
</g>
</g>
<!-- Node11 -->
<g id="Node000011" class="node">
<title>Node11</title>
<g id="a_Node000011"><a xlink:href="../../d0/d74/group___t_k.html#ga25db8df1c59ca26a93a371d97f8b3c08" target="_top" xlink:title=" ">
<polygon fill="white" stroke="#666666" points="332,-1030.25 208,-1030.25 208,-1011 332,-1011 332,-1030.25"/>
<text text-anchor="middle" x="270" y="-1016.75" font-family="Helvetica,sans-Serif" font-size="10.00">GamR::TK::Gate::Browse</text>
</a>
</g>
</g>
<!-- Node10&#45;&gt;Node11 -->
<g id="edge7_Node000010_Node000011" class="edge">
<title>Node10&#45;&gt;Node11</title>
<g id="a_edge7_Node000010_Node000011"><a xlink:title=" ">
<path fill="none" stroke="#63b8ff" d="M425.62,-978.44C411.76,-981.83 394.11,-986.28 378.5,-990.62 362.38,-995.11 358.59,-997.03 342.5,-1001.62 332,-1004.62 320.59,-1007.72 310.04,-1010.53"/>
<polygon fill="#63b8ff" stroke="#63b8ff" points="426.34,-981.63 435.24,-975.87 424.7,-974.82 426.34,-981.63"/>
</a>
</g>
</g>
<!-- Node12 -->
<g id="Node000012" class="node">
<title>Node12</title>
<g id="a_Node000012"><a xlink:href="../../d0/d74/group___t_k.html#ga529d08bc486be61ca867ff0baaf11921" target="_top" xlink:title=" ">
<polygon fill="white" stroke="#666666" points="324.88,-992.88 215.12,-992.88 215.12,-962.38 324.88,-962.38 324.88,-992.88"/>
<text text-anchor="start" x="223.12" y="-979.38" font-family="Helvetica,sans-Serif" font-size="10.00">GamR::TK::GateMap::</text>
<text text-anchor="middle" x="270" y="-968.12" font-family="Helvetica,sans-Serif" font-size="10.00">Browse</text>
</a>
</g>
</g>
<!-- Node10&#45;&gt;Node12 -->
<g id="edge8_Node000010_Node000012" class="edge">
<title>Node10&#45;&gt;Node12</title>
<g id="a_edge8_Node000010_Node000012"><a xlink:title=" ">
<path fill="none" stroke="#63b8ff" d="M425.27,-973.32C399.53,-974.03 358.4,-975.18 325.08,-976.11"/>
<polygon fill="#63b8ff" stroke="#63b8ff" points="425.35,-976.79 435.25,-973.01 425.16,-969.79 425.35,-976.79"/>
</a>
</g>
</g>
<!-- Node14&#45;&gt;Node13 -->
<g id="edge21_Node000014_Node000013" class="edge">
<title>Node14&#45;&gt;Node13</title>
<g id="a_edge21_Node000014_Node000013"><a xlink:title=" ">
<path fill="none" stroke="#63b8ff" d="M445.17,-733.2C434.33,-774.62 404.09,-868.21 342.5,-916.62 338.47,-919.79 333.96,-922.4 329.21,-924.56"/>
<polygon fill="#63b8ff" stroke="#63b8ff" points="448.8,-734.1 447.82,-723.55 442,-732.41 448.8,-734.1"/>
</a>
</g>
</g>
<!-- Node14&#45;&gt;Node14 -->
<g id="edge22_Node000014_Node000014" class="edge">
<title>Node14&#45;&gt;Node14</title>
<g id="a_edge22_Node000014_Node000014"><a xlink:title=" ">
<path fill="none" stroke="#63b8ff" d="M483.83,-732.28C481.09,-736.87 470.15,-740.25 451,-740.25 419.58,-740.25 410.25,-731.15 423.02,-722.54"/>
<polygon fill="#63b8ff" stroke="#63b8ff" points="486.57,-730.93 478.98,-723.54 480.3,-734.05 486.57,-730.93"/>
</a>
</g>
</g>
<!-- Node15 -->
<g id="Node000015" class="node">
<title>Node15</title>
<g id="a_Node000015"><a xlink:href="../../d0/d17/_abbreviations_8cc.html#ab95a51a7dddfd114aa72e57bea341225" target="_top" xlink:title=" ">
<polygon fill="white" stroke="#666666" points="284.4,-907.25 255.6,-907.25 255.6,-888 284.4,-888 284.4,-907.25"/>
<text text-anchor="middle" x="270" y="-893.75" font-family="Helvetica,sans-Serif" font-size="10.00">os</text>
</a>
</g>
</g>
<!-- Node14&#45;&gt;Node15 -->
<g id="edge11_Node000014_Node000015" class="edge">
<title>Node14&#45;&gt;Node15</title>
<g id="a_edge11_Node000014_Node000015"><a xlink:title=" ">
<path fill="none" stroke="#63b8ff" d="M442.94,-732.36C429.29,-767.63 395.83,-841.33 342.5,-879.62 325.24,-892.02 300.3,-895.91 284.9,-897.11"/>
<polygon fill="#63b8ff" stroke="#63b8ff" points="446.46,-733.95 446.68,-723.36 439.9,-731.5 446.46,-733.95"/>
</a>
</g>
</g>
<!-- Node16 -->
<g id="Node000016" class="node">
<title>Node16</title>
<g id="a_Node000016"><a xlink:href="../../d0/d17/_abbreviations_8cc.html#a88564d084aa091a609618b05f3178fa0" target="_top" xlink:title=" ">
<polygon fill="white" stroke="#666666" points="284.4,-870.25 255.6,-870.25 255.6,-851 284.4,-851 284.4,-870.25"/>
<text text-anchor="middle" x="270" y="-856.75" font-family="Helvetica,sans-Serif" font-size="10.00">os</text>
</a>
</g>
</g>
<!-- Node14&#45;&gt;Node16 -->
<g id="edge12_Node000014_Node000016" class="edge">
<title>Node14&#45;&gt;Node16</title>
<g id="a_edge12_Node000014_Node000016"><a xlink:title=" ">
<path fill="none" stroke="#63b8ff" d="M439.46,-731.95C422.77,-760.65 387.49,-814.21 342.5,-842.62 324.53,-853.97 299.8,-858.17 284.64,-859.72"/>
<polygon fill="#63b8ff" stroke="#63b8ff" points="442.87,-734.02 444.75,-723.59 436.78,-730.57 442.87,-734.02"/>
</a>
</g>
</g>
<!-- Node17 -->
<g id="Node000017" class="node">
<title>Node17</title>
<g id="a_Node000017"><a xlink:href="../../d0/d17/_abbreviations_8cc.html#a8b606d712a770338ea74bd251231698d" target="_top" xlink:title=" ">
<polygon fill="white" stroke="#666666" points="284.4,-833.25 255.6,-833.25 255.6,-814 284.4,-814 284.4,-833.25"/>
<text text-anchor="middle" x="270" y="-819.75" font-family="Helvetica,sans-Serif" font-size="10.00">os</text>
</a>
</g>
</g>
<!-- Node14&#45;&gt;Node17 -->
<g id="edge13_Node000014_Node000017" class="edge">
<title>Node14&#45;&gt;Node17</title>
<g id="a_edge13_Node000014_Node000017"><a xlink:title=" ">
<path fill="none" stroke="#63b8ff" d="M434.27,-730.6C414.8,-751.7 379.66,-786.28 342.5,-805.62 323.88,-815.32 299.77,-819.98 284.85,-822.08"/>
<polygon fill="#63b8ff" stroke="#63b8ff" points="436.51,-733.23 440.61,-723.46 431.31,-728.54 436.51,-733.23"/>
</a>
</g>
</g>
<!-- Node19 -->
<g id="Node000019" class="node">
<title>Node19</title>
<g id="a_Node000019"><a xlink:href="../../d0/d17/_abbreviations_8cc.html#aa97be5acb335d97ecdb84df82e18aeee" target="_top" xlink:title=" ">
<polygon fill="white" stroke="#666666" points="284.4,-796.25 255.6,-796.25 255.6,-777 284.4,-777 284.4,-796.25"/>
<text text-anchor="middle" x="270" y="-782.75" font-family="Helvetica,sans-Serif" font-size="10.00">os</text>
</a>
</g>
</g>
<!-- Node14&#45;&gt;Node19 -->
<g id="edge15_Node000014_Node000019" class="edge">
<title>Node14&#45;&gt;Node19</title>
<g id="a_edge15_Node000014_Node000019"><a xlink:title=" ">
<path fill="none" stroke="#63b8ff" d="M424.5,-728.08C403.2,-740.46 371.71,-757.52 342.5,-768.62 323,-776.04 299.34,-781.31 284.73,-784.16"/>
<polygon fill="#63b8ff" stroke="#63b8ff" points="425.96,-730.69 432.8,-722.6 422.41,-724.66 425.96,-730.69"/>
</a>
</g>
</g>
<!-- Node20 -->
<g id="Node000020" class="node">
<title>Node20</title>
<g id="a_Node000020"><a xlink:href="../../d0/d17/_abbreviations_8cc.html#a6bc8d8d9e1d97ddd00d096975958baae" target="_top" xlink:title=" ">
<polygon fill="white" stroke="#666666" points="284.4,-759.25 255.6,-759.25 255.6,-740 284.4,-740 284.4,-759.25"/>
<text text-anchor="middle" x="270" y="-745.75" font-family="Helvetica,sans-Serif" font-size="10.00">os</text>
</a>
</g>
</g>
<!-- Node14&#45;&gt;Node20 -->
<g id="edge16_Node000014_Node000020" class="edge">
<title>Node14&#45;&gt;Node20</title>
<g id="a_edge16_Node000014_Node000020"><a xlink:title=" ">
<path fill="none" stroke="#63b8ff" d="M390.68,-724.89C352.92,-732.69 307.04,-742.18 284.64,-746.81"/>
<polygon fill="#63b8ff" stroke="#63b8ff" points="391,-728.19 400.09,-722.74 389.59,-721.33 391,-728.19"/>
</a>
</g>
</g>
<!-- Node21 -->
<g id="Node000021" class="node">
<title>Node21</title>
<g id="a_Node000021"><a xlink:href="../../d0/d17/_abbreviations_8cc.html#a7407396e99dc55898c2b52688f513613" target="_top" xlink:title=" ">
<polygon fill="white" stroke="#666666" points="284.4,-722.25 255.6,-722.25 255.6,-703 284.4,-703 284.4,-722.25"/>
<text text-anchor="middle" x="270" y="-708.75" font-family="Helvetica,sans-Serif" font-size="10.00">os</text>
</a>
</g>
</g>
<!-- Node14&#45;&gt;Node21 -->
<g id="edge17_Node000014_Node000021" class="edge">
<title>Node14&#45;&gt;Node21</title>
<g id="a_edge17_Node000014_Node000021"><a xlink:title=" ">
<path fill="none" stroke="#63b8ff" d="M367.52,-712.62C335.77,-712.62 302.82,-712.62 284.82,-712.62"/>
<polygon fill="#63b8ff" stroke="#63b8ff" points="367.23,-716.13 377.23,-712.62 367.23,-709.13 367.23,-716.13"/>
</a>
</g>
</g>
<!-- Node22 -->
<g id="Node000022" class="node">
<title>Node22</title>
<g id="a_Node000022"><a xlink:href="../../d0/d17/_abbreviations_8cc.html#ae79b981b2cbf819e5450642235125d97" target="_top" xlink:title=" ">
<polygon fill="white" stroke="#666666" points="284.4,-685.25 255.6,-685.25 255.6,-666 284.4,-666 284.4,-685.25"/>
<text text-anchor="middle" x="270" y="-671.75" font-family="Helvetica,sans-Serif" font-size="10.00">os</text>
</a>
</g>
</g>
<!-- Node14&#45;&gt;Node22 -->
<g id="edge18_Node000014_Node000022" class="edge">
<title>Node14&#45;&gt;Node22</title>
<g id="a_edge18_Node000014_Node000022"><a xlink:title=" ">
<path fill="none" stroke="#63b8ff" d="M390.68,-700.36C352.92,-692.56 307.04,-683.07 284.64,-678.44"/>
<polygon fill="#63b8ff" stroke="#63b8ff" points="389.59,-703.92 400.09,-702.51 391,-697.06 389.59,-703.92"/>
</a>
</g>
</g>
<!-- Node23 -->
<g id="Node000023" class="node">
<title>Node23</title>
<g id="a_Node000023"><a xlink:href="../../d0/d17/_abbreviations_8cc.html#a509aec68f86cd4042dab6a8bd4ee9bf6" target="_top" xlink:title=" ">
<polygon fill="white" stroke="#666666" points="284.4,-648.25 255.6,-648.25 255.6,-629 284.4,-629 284.4,-648.25"/>
<text text-anchor="middle" x="270" y="-634.75" font-family="Helvetica,sans-Serif" font-size="10.00">os</text>
</a>
</g>
</g>
<!-- Node14&#45;&gt;Node23 -->
<g id="edge19_Node000014_Node000023" class="edge">
<title>Node14&#45;&gt;Node23</title>
<g id="a_edge19_Node000014_Node000023"><a xlink:title=" ">
<path fill="none" stroke="#63b8ff" d="M424.5,-697.17C403.2,-684.79 371.71,-667.73 342.5,-656.62 323,-649.21 299.34,-643.94 284.73,-641.09"/>
<polygon fill="#63b8ff" stroke="#63b8ff" points="422.41,-700.59 432.8,-702.65 425.96,-694.56 422.41,-700.59"/>
</a>
</g>
</g>
<!-- Node24 -->
<g id="Node000024" class="node">
<title>Node24</title>
<g id="a_Node000024"><a xlink:href="../../dc/d89/namespace_gam_r_1_1_spect.html#ac7a37d895614b7a5fa79ed8632698ed5" target="_top" xlink:title=" ">
<polygon fill="white" stroke="#666666" points="342.5,-611.25 197.5,-611.25 197.5,-592 342.5,-592 342.5,-611.25"/>
<text text-anchor="middle" x="270" y="-597.75" font-family="Helvetica,sans-Serif" font-size="10.00">GamR::Spect::OverlaySpectra</text>
</a>
</g>
</g>
<!-- Node14&#45;&gt;Node24 -->
<g id="edge20_Node000014_Node000024" class="edge">
<title>Node14&#45;&gt;Node24</title>
<g id="a_edge20_Node000014_Node000024"><a xlink:title=" ">
<path fill="none" stroke="#63b8ff" d="M434.27,-694.65C414.8,-673.55 379.66,-638.97 342.5,-619.62 336.48,-616.49 329.89,-613.89 323.22,-611.72"/>
<polygon fill="#63b8ff" stroke="#63b8ff" points="431.31,-696.71 440.61,-701.79 436.51,-692.02 431.31,-696.71"/>
</a>
</g>
</g>
<!-- Node25 -->
<g id="Node000025" class="node">
<title>Node25</title>
<g id="a_Node000025"><a xlink:href="../../dc/d89/namespace_gam_r_1_1_spect.html#a2cbec42b9f2652975390609ad779759d" target="_top" xlink:title=" ">
<polygon fill="white" stroke="#666666" points="342.5,-574.25 197.5,-574.25 197.5,-555 342.5,-555 342.5,-574.25"/>
<text text-anchor="middle" x="270" y="-560.75" font-family="Helvetica,sans-Serif" font-size="10.00">GamR::Spect::OverlaySpectra</text>
</a>
</g>
</g>
<!-- Node14&#45;&gt;Node25 -->
<g id="edge23_Node000014_Node000025" class="edge">
<title>Node14&#45;&gt;Node25</title>
<g id="a_edge23_Node000014_Node000025"><a xlink:title=" ">
<path fill="none" stroke="#63b8ff" d="M439.46,-693.3C422.77,-664.6 387.49,-611.04 342.5,-582.62 337.52,-579.48 332.02,-576.89 326.35,-574.74"/>
<polygon fill="#63b8ff" stroke="#63b8ff" points="436.78,-694.68 444.75,-701.66 442.87,-691.23 436.78,-694.68"/>
</a>
</g>
</g>
<!-- Node26 -->
<g id="Node000026" class="node">
<title>Node26</title>
<g id="a_Node000026"><a xlink:href="../../dc/d89/namespace_gam_r_1_1_spect.html#adb1720c7b55d7e810611de00200b0093" target="_top" xlink:title=" ">
<polygon fill="white" stroke="#666666" points="342.5,-537.25 197.5,-537.25 197.5,-518 342.5,-518 342.5,-537.25"/>
<text text-anchor="middle" x="270" y="-523.75" font-family="Helvetica,sans-Serif" font-size="10.00">GamR::Spect::OverlaySpectra</text>
</a>
</g>
</g>
<!-- Node14&#45;&gt;Node26 -->
<g id="edge24_Node000014_Node000026" class="edge">
<title>Node14&#45;&gt;Node26</title>
<g id="a_edge24_Node000014_Node000026"><a xlink:title=" ">
<path fill="none" stroke="#63b8ff" d="M442.94,-692.89C429.29,-657.62 395.83,-583.92 342.5,-545.62 338.03,-542.41 333.04,-539.77 327.84,-537.6"/>
<polygon fill="#63b8ff" stroke="#63b8ff" points="439.9,-693.75 446.68,-701.89 446.46,-691.3 439.9,-693.75"/>
</a>
</g>
</g>
<!-- Node27 -->
<g id="Node000027" class="node">
<title>Node27</title>
<g id="a_Node000027"><a xlink:href="../../dc/d89/namespace_gam_r_1_1_spect.html#ad0355c8ed94e9e1b8c5fbe3084bd6156" target="_top" xlink:title=" ">
<polygon fill="white" stroke="#666666" points="342.5,-500.25 197.5,-500.25 197.5,-481 342.5,-481 342.5,-500.25"/>
<text text-anchor="middle" x="270" y="-486.75" font-family="Helvetica,sans-Serif" font-size="10.00">GamR::Spect::OverlaySpectra</text>
</a>
</g>
</g>
<!-- Node14&#45;&gt;Node27 -->
<g id="edge25_Node000014_Node000027" class="edge">
<title>Node14&#45;&gt;Node27</title>
<g id="a_edge25_Node000014_Node000027"><a xlink:title=" ">
<path fill="none" stroke="#63b8ff" d="M440.82,-693.07C417.86,-644.49 358.63,-521.3 342.5,-508.62 338.47,-505.46 333.96,-502.85 329.21,-500.69"/>
<polygon fill="#63b8ff" stroke="#63b8ff" points="437.94,-694.18 445.37,-701.73 444.28,-691.19 437.94,-694.18"/>
</a>
</g>
</g>
<!-- Node28 -->
<g id="Node000028" class="node">
<title>Node28</title>
<g id="a_Node000028"><a xlink:href="../../dc/d89/namespace_gam_r_1_1_spect.html#ac8066f6a336819fe738fb47f3f9402a2" target="_top" xlink:title=" ">
<polygon fill="white" stroke="#666666" points="342.5,-463.25 197.5,-463.25 197.5,-444 342.5,-444 342.5,-463.25"/>
<text text-anchor="middle" x="270" y="-449.75" font-family="Helvetica,sans-Serif" font-size="10.00">GamR::Spect::OverlaySpectra</text>
</a>
</g>
</g>
<!-- Node14&#45;&gt;Node28 -->
<g id="edge26_Node000014_Node000028" class="edge">
<title>Node14&#45;&gt;Node28</title>
<g id="a_edge26_Node000014_Node000028"><a xlink:title=" ">
<path fill="none" stroke="#63b8ff" d="M440.43,-692.96C426.42,-663.97 399.67,-607.97 378.5,-559.62 361.55,-520.92 374.42,-499.32 342.5,-471.62 338.83,-468.44 334.67,-465.8 330.25,-463.62"/>
<polygon fill="#63b8ff" stroke="#63b8ff" points="437.63,-694.21 445.14,-701.68 443.93,-691.15 437.63,-694.21"/>
</a>
</g>
</g>
<!-- Node18 -->
<g id="Node000018" class="node">
<title>Node18</title>
<g id="a_Node000018"><a xlink:href="../../d0/d74/group___t_k.html#gaeb0a298da3a5064e12a51874e877c098" target="_top" xlink:title=" ">
<polygon fill="white" stroke="#666666" points="137.12,-833.25 24.38,-833.25 24.38,-814 137.12,-814 137.12,-833.25"/>
<text text-anchor="middle" x="80.75" y="-819.75" font-family="Helvetica,sans-Serif" font-size="10.00">GamR::TK::operator&lt;&lt;</text>
</a>
</g>
</g>
<!-- Node17&#45;&gt;Node18 -->
<g id="edge14_Node000017_Node000018" class="edge">
<title>Node17&#45;&gt;Node18</title>
<g id="a_edge14_Node000017_Node000018"><a xlink:title=" ">
<path fill="none" stroke="#63b8ff" d="M244.45,-823.62C217.42,-823.62 173.07,-823.62 137.5,-823.62"/>
<polygon fill="#63b8ff" stroke="#63b8ff" points="244.23,-827.13 254.23,-823.62 244.23,-820.13 244.23,-827.13"/>
</a>
</g>
</g>
<!-- Node30&#45;&gt;Node29 -->
<g id="edge49_Node000030_Node000029" class="edge">
<title>Node30&#45;&gt;Node29</title>
<g id="a_edge49_Node000030_Node000029"><a xlink:title=" ">
<path fill="none" stroke="#63b8ff" d="M442.94,-251.36C429.29,-286.63 395.83,-360.33 342.5,-398.62 338.03,-401.84 333.04,-404.48 327.84,-406.65"/>
<polygon fill="#63b8ff" stroke="#63b8ff" points="446.46,-252.95 446.68,-242.36 439.9,-250.5 446.46,-252.95"/>
</a>
</g>
</g>
<!-- Node30&#45;&gt;Node30 -->
<g id="edge50_Node000030_Node000030" class="edge">
<title>Node30&#45;&gt;Node30</title>
<g id="a_edge50_Node000030_Node000030"><a xlink:title=" ">
<path fill="none" stroke="#63b8ff" d="M483.83,-251.28C481.09,-255.87 470.15,-259.25 451,-259.25 419.58,-259.25 410.25,-250.15 423.02,-241.54"/>
<polygon fill="#63b8ff" stroke="#63b8ff" points="486.57,-249.93 478.98,-242.54 480.3,-253.05 486.57,-249.93"/>
</a>
</g>
</g>
<!-- Node31 -->
<g id="Node000031" class="node">
<title>Node31</title>
<g id="a_Node000031"><a xlink:href="../../d0/d17/_abbreviations_8cc.html#ae6adf151873024649819f21ed8dfe4f3" target="_top" xlink:title=" ">
<polygon fill="white" stroke="#666666" points="284.4,-389.25 255.6,-389.25 255.6,-370 284.4,-370 284.4,-389.25"/>
<text text-anchor="middle" x="270" y="-375.75" font-family="Helvetica,sans-Serif" font-size="10.00">ss</text>
</a>
</g>
</g>
<!-- Node30&#45;&gt;Node31 -->
<g id="edge29_Node000030_Node000031" class="edge">
<title>Node30&#45;&gt;Node31</title>
<g id="a_edge29_Node000030_Node000031"><a xlink:title=" ">
<path fill="none" stroke="#63b8ff" d="M439.46,-250.95C422.77,-279.65 387.49,-333.21 342.5,-361.62 324.53,-372.97 299.8,-377.17 284.64,-378.72"/>
<polygon fill="#63b8ff" stroke="#63b8ff" points="442.87,-253.02 444.75,-242.59 436.78,-249.57 442.87,-253.02"/>
</a>
</g>
</g>
<!-- Node32 -->
<g id="Node000032" class="node">
<title>Node32</title>
<g id="a_Node000032"><a xlink:href="../../d0/d17/_abbreviations_8cc.html#abf4b29757c072690c1f3ea5dc48bd8ff" target="_top" xlink:title=" ">
<polygon fill="white" stroke="#666666" points="284.4,-352.25 255.6,-352.25 255.6,-333 284.4,-333 284.4,-352.25"/>
<text text-anchor="middle" x="270" y="-338.75" font-family="Helvetica,sans-Serif" font-size="10.00">ss</text>
</a>
</g>
</g>
<!-- Node30&#45;&gt;Node32 -->
<g id="edge30_Node000030_Node000032" class="edge">
<title>Node30&#45;&gt;Node32</title>
<g id="a_edge30_Node000030_Node000032"><a xlink:title=" ">
<path fill="none" stroke="#63b8ff" d="M434.27,-249.6C414.8,-270.7 379.66,-305.28 342.5,-324.62 323.88,-334.32 299.77,-338.98 284.85,-341.08"/>
<polygon fill="#63b8ff" stroke="#63b8ff" points="436.51,-252.23 440.61,-242.46 431.31,-247.54 436.51,-252.23"/>
</a>
</g>
</g>
<!-- Node33 -->
<g id="Node000033" class="node">
<title>Node33</title>
<g id="a_Node000033"><a xlink:href="../../d0/d17/_abbreviations_8cc.html#a5d1794b612bdcca3f4f4baa3d2e38a0b" target="_top" xlink:title=" ">
<polygon fill="#fff0f0" stroke="red" points="284.4,-315.25 255.6,-315.25 255.6,-296 284.4,-296 284.4,-315.25"/>
<text text-anchor="middle" x="270" y="-301.75" font-family="Helvetica,sans-Serif" font-size="10.00">ss</text>
</a>
</g>
</g>
<!-- Node30&#45;&gt;Node33 -->
<g id="edge31_Node000030_Node000033" class="edge">
<title>Node30&#45;&gt;Node33</title>
<g id="a_edge31_Node000030_Node000033"><a xlink:title=" ">
<path fill="none" stroke="#63b8ff" d="M424.5,-247.08C403.2,-259.46 371.71,-276.52 342.5,-287.62 323,-295.04 299.34,-300.31 284.73,-303.16"/>
<polygon fill="#63b8ff" stroke="#63b8ff" points="425.96,-249.69 432.8,-241.6 422.41,-243.66 425.96,-249.69"/>
</a>
</g>
</g>
<!-- Node66 -->
<g id="Node000066" class="node">
<title>Node66</title>
<g id="a_Node000066"><a xlink:href="../../d0/d17/_abbreviations_8cc.html#ace9e0e6a05765a233977c7ad858435d3" target="_top" xlink:title=" ">
<polygon fill="white" stroke="#666666" points="284.4,-278.25 255.6,-278.25 255.6,-259 284.4,-259 284.4,-278.25"/>
<text text-anchor="middle" x="270" y="-264.75" font-family="Helvetica,sans-Serif" font-size="10.00">ss</text>
</a>
</g>
</g>
<!-- Node30&#45;&gt;Node66 -->
<g id="edge44_Node000030_Node000066" class="edge">
<title>Node30&#45;&gt;Node66</title>
<g id="a_edge44_Node000030_Node000066"><a xlink:title=" ">
<path fill="none" stroke="#63b8ff" d="M390.68,-243.89C352.92,-251.69 307.04,-261.18 284.64,-265.81"/>
<polygon fill="#63b8ff" stroke="#63b8ff" points="391,-247.19 400.09,-241.74 389.59,-240.33 391,-247.19"/>
</a>
</g>
</g>
<!-- Node67 -->
<g id="Node000067" class="node">
<title>Node67</title>
<g id="a_Node000067"><a xlink:href="../../d0/d17/_abbreviations_8cc.html#a6b9b302fbbba1ba11f98375e78dd3bf8" target="_top" xlink:title=" ">
<polygon fill="white" stroke="#666666" points="284.4,-241.25 255.6,-241.25 255.6,-222 284.4,-222 284.4,-241.25"/>
<text text-anchor="middle" x="270" y="-227.75" font-family="Helvetica,sans-Serif" font-size="10.00">ss</text>
</a>
</g>
</g>
<!-- Node30&#45;&gt;Node67 -->
<g id="edge45_Node000030_Node000067" class="edge">
<title>Node30&#45;&gt;Node67</title>
<g id="a_edge45_Node000030_Node000067"><a xlink:title=" ">
<path fill="none" stroke="#63b8ff" d="M371.22,-231.62C338.31,-231.62 303.44,-231.62 284.75,-231.62"/>
<polygon fill="#63b8ff" stroke="#63b8ff" points="370.82,-235.13 380.82,-231.62 370.82,-228.13 370.82,-235.13"/>
</a>
</g>
</g>
<!-- Node68 -->
<g id="Node000068" class="node">
<title>Node68</title>
<g id="a_Node000068"><a xlink:href="../../d0/d17/_abbreviations_8cc.html#a0b29a3ee3205d98e66f5a1dbf182487c" target="_top" xlink:title=" ">
<polygon fill="white" stroke="#666666" points="284.4,-204.25 255.6,-204.25 255.6,-185 284.4,-185 284.4,-204.25"/>
<text text-anchor="middle" x="270" y="-190.75" font-family="Helvetica,sans-Serif" font-size="10.00">ss</text>
</a>
</g>
</g>
<!-- Node30&#45;&gt;Node68 -->
<g id="edge46_Node000030_Node000068" class="edge">
<title>Node30&#45;&gt;Node68</title>
<g id="a_edge46_Node000030_Node000068"><a xlink:title=" ">
<path fill="none" stroke="#63b8ff" d="M390.68,-219.36C352.92,-211.56 307.04,-202.07 284.64,-197.44"/>
<polygon fill="#63b8ff" stroke="#63b8ff" points="389.59,-222.92 400.09,-221.51 391,-216.06 389.59,-222.92"/>
</a>
</g>
</g>
<!-- Node69 -->
<g id="Node000069" class="node">
<title>Node69</title>
<g id="a_Node000069"><a xlink:href="../../d0/d17/_abbreviations_8cc.html#aa278136478d11c553b193d5ca40e18c6" target="_top" xlink:title=" ">
<polygon fill="white" stroke="#666666" points="284.4,-167.25 255.6,-167.25 255.6,-148 284.4,-148 284.4,-167.25"/>
<text text-anchor="middle" x="270" y="-153.75" font-family="Helvetica,sans-Serif" font-size="10.00">ss</text>
</a>
</g>
</g>
<!-- Node30&#45;&gt;Node69 -->
<g id="edge47_Node000030_Node000069" class="edge">
<title>Node30&#45;&gt;Node69</title>
<g id="a_edge47_Node000030_Node000069"><a xlink:title=" ">
<path fill="none" stroke="#63b8ff" d="M424.5,-216.17C403.2,-203.79 371.71,-186.73 342.5,-175.62 323,-168.21 299.34,-162.94 284.73,-160.09"/>
<polygon fill="#63b8ff" stroke="#63b8ff" points="422.41,-219.59 432.8,-221.65 425.96,-213.56 422.41,-219.59"/>
</a>
</g>
</g>
<!-- Node70 -->
<g id="Node000070" class="node">
<title>Node70</title>
<g id="a_Node000070"><a xlink:href="../../dc/d89/namespace_gam_r_1_1_spect.html#ad6336c2a214e9d575dda1e7fb52d1cd1" target="_top" xlink:title=" ">
<polygon fill="white" stroke="#666666" points="338.75,-130.25 201.25,-130.25 201.25,-111 338.75,-111 338.75,-130.25"/>
<text text-anchor="middle" x="270" y="-116.75" font-family="Helvetica,sans-Serif" font-size="10.00">GamR::Spect::StackSpectra</text>
</a>
</g>
</g>
<!-- Node30&#45;&gt;Node70 -->
<g id="edge48_Node000030_Node000070" class="edge">
<title>Node30&#45;&gt;Node70</title>
<g id="a_edge48_Node000030_Node000070"><a xlink:title=" ">
<path fill="none" stroke="#63b8ff" d="M434.27,-213.65C414.8,-192.55 379.66,-157.97 342.5,-138.62 336.48,-135.49 329.89,-132.89 323.22,-130.72"/>
<polygon fill="#63b8ff" stroke="#63b8ff" points="431.31,-215.71 440.61,-220.79 436.51,-211.02 431.31,-215.71"/>
</a>
</g>
</g>
<!-- Node71 -->
<g id="Node000071" class="node">
<title>Node71</title>
<g id="a_Node000071"><a xlink:href="../../dc/d89/namespace_gam_r_1_1_spect.html#a79aa3b2f80e5a59db0680eb7cdd6b20f" target="_top" xlink:title=" ">
<polygon fill="white" stroke="#666666" points="338.75,-93.25 201.25,-93.25 201.25,-74 338.75,-74 338.75,-93.25"/>
<text text-anchor="middle" x="270" y="-79.75" font-family="Helvetica,sans-Serif" font-size="10.00">GamR::Spect::StackSpectra</text>
</a>
</g>
</g>
<!-- Node30&#45;&gt;Node71 -->
<g id="edge51_Node000030_Node000071" class="edge">
<title>Node30&#45;&gt;Node71</title>
<g id="a_edge51_Node000030_Node000071"><a xlink:title=" ">
<path fill="none" stroke="#63b8ff" d="M439.46,-212.3C422.77,-183.6 387.49,-130.04 342.5,-101.62 337.52,-98.48 332.02,-95.89 326.35,-93.74"/>
<polygon fill="#63b8ff" stroke="#63b8ff" points="436.78,-213.68 444.75,-220.66 442.87,-210.23 436.78,-213.68"/>
</a>
</g>
</g>
<!-- Node72 -->
<g id="Node000072" class="node">
<title>Node72</title>
<g id="a_Node000072"><a xlink:href="../../dc/d89/namespace_gam_r_1_1_spect.html#a7fb45903c4b75ec007d205af02d49667" target="_top" xlink:title=" ">
<polygon fill="white" stroke="#666666" points="338.75,-56.25 201.25,-56.25 201.25,-37 338.75,-37 338.75,-56.25"/>
<text text-anchor="middle" x="270" y="-42.75" font-family="Helvetica,sans-Serif" font-size="10.00">GamR::Spect::StackSpectra</text>
</a>
</g>
</g>
<!-- Node30&#45;&gt;Node72 -->
<g id="edge52_Node000030_Node000072" class="edge">
<title>Node30&#45;&gt;Node72</title>
<g id="a_edge52_Node000030_Node000072"><a xlink:title=" ">
<path fill="none" stroke="#63b8ff" d="M442.94,-211.89C429.29,-176.62 395.83,-102.92 342.5,-64.62 338.03,-61.41 333.04,-58.77 327.84,-56.6"/>
<polygon fill="#63b8ff" stroke="#63b8ff" points="439.9,-212.75 446.68,-220.89 446.46,-210.3 439.9,-212.75"/>
</a>
</g>
</g>
<!-- Node73 -->
<g id="Node000073" class="node">
<title>Node73</title>
<g id="a_Node000073"><a xlink:href="../../dc/d89/namespace_gam_r_1_1_spect.html#a1ee08c4dcd78e613fcd6065110ce6a3c" target="_top" xlink:title=" ">
<polygon fill="white" stroke="#666666" points="338.75,-19.25 201.25,-19.25 201.25,0 338.75,0 338.75,-19.25"/>
<text text-anchor="middle" x="270" y="-5.75" font-family="Helvetica,sans-Serif" font-size="10.00">GamR::Spect::StackSpectra</text>
</a>
</g>
</g>
<!-- Node30&#45;&gt;Node73 -->
<g id="edge53_Node000030_Node000073" class="edge">
<title>Node30&#45;&gt;Node73</title>
<g id="a_edge53_Node000030_Node000073"><a xlink:title=" ">
<path fill="none" stroke="#63b8ff" d="M445.17,-211.05C434.33,-169.63 404.09,-76.04 342.5,-27.62 338.47,-24.46 333.96,-21.85 329.21,-19.69"/>
<polygon fill="#63b8ff" stroke="#63b8ff" points="442,-211.84 447.82,-220.7 448.8,-210.15 442,-211.84"/>
</a>
</g>
</g>
<!-- Node34 -->
<g id="Node000034" class="node">
<title>Node34</title>
<g id="a_Node000034"><a xlink:href="../../d3/d6c/class_gam_r_1_1_sort_1_1_type_1_1_gated_time_difference.html#a044c4c6493ecba6989b7e92b36da6ddc" target="_top" xlink:title=" ">
<polygon fill="white" stroke="#666666" points="158.5,-580.88 3,-580.88 3,-550.38 158.5,-550.38 158.5,-580.88"/>
<text text-anchor="start" x="11" y="-567.38" font-family="Helvetica,sans-Serif" font-size="10.00">GamR::Sort::Type::GatedTime</text>
<text text-anchor="middle" x="80.75" y="-556.12" font-family="Helvetica,sans-Serif" font-size="10.00">Difference::GatedTimeDifference</text>
</a>
</g>
</g>
<!-- Node33&#45;&gt;Node34 -->
<g id="edge32_Node000033_Node000034" class="edge">
<title>Node33&#45;&gt;Node34</title>
<g id="a_edge32_Node000033_Node000034"><a xlink:title=" ">
<path fill="none" stroke="#63b8ff" d="M244.65,-305.32C228.96,-306.49 209.36,-310.74 197.5,-323.62 131.27,-395.54 225.65,-466.85 161.5,-540.62 158.36,-544.24 154.7,-547.34 150.71,-549.99"/>
<polygon fill="#63b8ff" stroke="#63b8ff" points="244.34,-308.8 254.21,-304.94 244.08,-301.8 244.34,-308.8"/>
</a>
</g>
</g>
<!-- Node35 -->
<g id="Node000035" class="node">
<title>Node35</title>
<g id="a_Node000035"><a xlink:href="../../d1/da3/class_gam_r_1_1_sort_1_1_type_1_1_matrix.html#a00e6aa66c1c3b6a8a75dba762085c610" target="_top" xlink:title=" ">
<polygon fill="white" stroke="#666666" points="142,-531.88 19.5,-531.88 19.5,-501.38 142,-501.38 142,-531.88"/>
<text text-anchor="start" x="27.5" y="-518.38" font-family="Helvetica,sans-Serif" font-size="10.00">GamR::Sort::Type::Matrix</text>
<text text-anchor="middle" x="80.75" y="-507.12" font-family="Helvetica,sans-Serif" font-size="10.00">::Matrix</text>
</a>
</g>
</g>
<!-- Node33&#45;&gt;Node35 -->
<g id="edge33_Node000033_Node000035" class="edge">
<title>Node33&#45;&gt;Node35</title>
<g id="a_edge33_Node000033_Node000035"><a xlink:title=" ">
<path fill="none" stroke="#63b8ff" d="M244.38,-305.54C228.86,-306.83 209.54,-311.15 197.5,-323.62 144.47,-378.57 212.94,-435.19 161.5,-491.62 156.22,-497.42 149.62,-501.88 142.49,-505.31"/>
<polygon fill="#63b8ff" stroke="#63b8ff" points="244.5,-308.99 254.33,-305.05 244.18,-302 244.5,-308.99"/>
</a>
</g>
</g>
<!-- Node36 -->
<g id="Node000036" class="node">
<title>Node36</title>
<g id="a_Node000036"><a xlink:href="../../db/d1b/class_gam_r_1_1_sort_1_1_type_1_1_time_difference.html#a7cf59bfec4ee14f850901a3d1fbe7103" target="_top" xlink:title=" ">
<polygon fill="white" stroke="#666666" points="161.5,-482.88 0,-482.88 0,-452.38 161.5,-452.38 161.5,-482.88"/>
<text text-anchor="start" x="8" y="-469.38" font-family="Helvetica,sans-Serif" font-size="10.00">GamR::Sort::Type::TimeDifference</text>
<text text-anchor="middle" x="80.75" y="-458.12" font-family="Helvetica,sans-Serif" font-size="10.00">::TimeDifference</text>
</a>
</g>
</g>
<!-- Node33&#45;&gt;Node36 -->
<g id="edge34_Node000033_Node000036" class="edge">
<title>Node33&#45;&gt;Node36</title>
<g id="a_edge34_Node000033_Node000036"><a xlink:title=" ">
<path fill="none" stroke="#63b8ff" d="M244.45,-305.9C229.11,-307.36 209.97,-311.73 197.5,-323.62 157.52,-361.77 200.38,-403.36 161.5,-442.62 157.93,-446.23 153.84,-449.32 149.45,-451.97"/>
<polygon fill="#63b8ff" stroke="#63b8ff" points="244.48,-309.35 254.26,-305.28 244.08,-302.36 244.48,-309.35"/>
</a>
</g>
</g>
<!-- Node37 -->
<g id="Node000037" class="node">
<title>Node37</title>
<g id="a_Node000037"><a xlink:href="../../d7/d5f/class_gam_r_1_1_sort_1_1_type_1_1_time_difference_pairs.html#af4ef18d212f6e817fc857b1b460b7e1a" target="_top" xlink:title=" ">
<polygon fill="white" stroke="#666666" points="161.5,-433.88 0,-433.88 0,-403.38 161.5,-403.38 161.5,-433.88"/>
<text text-anchor="start" x="8" y="-420.38" font-family="Helvetica,sans-Serif" font-size="10.00">GamR::Sort::Type::TimeDifference</text>
<text text-anchor="middle" x="80.75" y="-409.12" font-family="Helvetica,sans-Serif" font-size="10.00">Pairs::TimeDifferencePairs</text>
</a>
</g>
</g>
<!-- Node33&#45;&gt;Node37 -->
<g id="edge35_Node000033_Node000037" class="edge">
<title>Node33&#45;&gt;Node37</title>
<g id="a_edge35_Node000033_Node000037"><a xlink:title=" ">
<path fill="none" stroke="#63b8ff" d="M244.6,-306.76C229.63,-308.59 210.84,-313.03 197.5,-323.62 170.1,-345.38 188.26,-371.09 161.5,-393.62 157.17,-397.27 152.31,-400.38 147.18,-403.04"/>
<polygon fill="#63b8ff" stroke="#63b8ff" points="244.5,-310.2 254.15,-305.82 243.88,-303.22 244.5,-310.2"/>
</a>
</g>
</g>
<!-- Node38 -->
<g id="Node000038" class="node">
<title>Node38</title>
<g id="a_Node000038"><a xlink:href="../../df/d01/class_gam_r_1_1_sort_1_1_type_1_1_time_walk_cal.html#a178824712e938d37a02d75e23ceae6c9" target="_top" xlink:title=" ">
<polygon fill="white" stroke="#666666" points="150.62,-384.88 10.88,-384.88 10.88,-354.38 150.62,-354.38 150.62,-384.88"/>
<text text-anchor="start" x="18.88" y="-371.38" font-family="Helvetica,sans-Serif" font-size="10.00">GamR::Sort::Type::TimeWalk</text>
<text text-anchor="middle" x="80.75" y="-360.12" font-family="Helvetica,sans-Serif" font-size="10.00">Cal::TimeWalkCal</text>
</a>
</g>
</g>
<!-- Node33&#45;&gt;Node38 -->
<g id="edge36_Node000033_Node000038" class="edge">
<title>Node33&#45;&gt;Node38</title>
<g id="a_edge36_Node000033_Node000038"><a xlink:title=" ">
<path fill="none" stroke="#63b8ff" d="M244.78,-309.82C230.65,-312.74 212.68,-317.25 197.5,-323.62 180.21,-330.89 178.62,-337.97 161.5,-345.62 154.77,-348.63 147.55,-351.4 140.32,-353.89"/>
<polygon fill="#63b8ff" stroke="#63b8ff" points="245.01,-313.15 254.16,-307.83 243.68,-306.28 245.01,-313.15"/>
</a>
</g>
</g>
<!-- Node39 -->
<g id="Node000039" class="node">
<title>Node39</title>
<g id="a_Node000039"><a xlink:href="../../dc/d89/namespace_gam_r_1_1_spect.html#ae54298fd5ef07073ff03ad06e3d4febe" target="_top" xlink:title=" ">
<polygon fill="white" stroke="#666666" points="148,-336.25 13.5,-336.25 13.5,-317 148,-317 148,-336.25"/>
<text text-anchor="middle" x="80.75" y="-322.75" font-family="Helvetica,sans-Serif" font-size="10.00">GamR::Spect::CutFromText</text>
</a>
</g>
</g>
<!-- Node33&#45;&gt;Node39 -->
<g id="edge37_Node000033_Node000039" class="edge">
<title>Node33&#45;&gt;Node39</title>
<g id="a_edge37_Node000033_Node000039"><a xlink:title=" ">
<path fill="none" stroke="#63b8ff" d="M244.49,-308.37C220.13,-311.11 181.7,-315.42 148.29,-319.16"/>
<polygon fill="#63b8ff" stroke="#63b8ff" points="244.68,-311.76 254.23,-307.17 243.9,-304.81 244.68,-311.76"/>
</a>
</g>
</g>
<!-- Node40 -->
<g id="Node000040" class="node">
<title>Node40</title>
<g id="a_Node000040"><a xlink:href="../../d3/d48/class_gam_r_1_1_processor_1_1_time_walk.html#a0b862c355e247c0e71d9e40e821c7cfe" target="_top" xlink:title="Draws Time Walk graphs.">
<polygon fill="#fff0f0" stroke="red" points="151,-298.88 10.5,-298.88 10.5,-268.38 151,-268.38 151,-298.88"/>
<text text-anchor="start" x="18.5" y="-285.38" font-family="Helvetica,sans-Serif" font-size="10.00">GamR::Processor::TimeWalk</text>
<text text-anchor="middle" x="80.75" y="-274.12" font-family="Helvetica,sans-Serif" font-size="10.00">::Draw</text>
</a>
</g>
</g>
<!-- Node33&#45;&gt;Node40 -->
<g id="edge38_Node000033_Node000040" class="edge">
<title>Node33&#45;&gt;Node40</title>
<g id="a_edge38_Node000033_Node000040"><a xlink:title=" ">
<path fill="none" stroke="#63b8ff" d="M244.48,-302.74C220.88,-299.97 184.04,-295.64 151.39,-291.81"/>
<polygon fill="#63b8ff" stroke="#63b8ff" points="243.89,-306.32 254.23,-304.01 244.71,-299.36 243.89,-306.32"/>
</a>
</g>
</g>
<!-- Node42 -->
<g id="Node000042" class="node">
<title>Node42</title>
<g id="a_Node000042"><a xlink:href="../../d3/d48/class_gam_r_1_1_processor_1_1_time_walk.html#aebfe1c01514fb6b756ca8362eed61dbb" target="_top" xlink:title="Conducts a global &#160;fit to solve for an absolute time calibration for each detector.">
<polygon fill="white" stroke="#666666" points="158.88,-250.25 2.62,-250.25 2.62,-231 158.88,-231 158.88,-250.25"/>
<text text-anchor="middle" x="80.75" y="-236.75" font-family="Helvetica,sans-Serif" font-size="10.00">GamR::Processor::TimeWalk::Fit</text>
</a>
</g>
</g>
<!-- Node33&#45;&gt;Node42 -->
<g id="edge39_Node000033_Node000042" class="edge">
<title>Node33&#45;&gt;Node42</title>
<g id="a_edge39_Node000033_Node000042"><a xlink:title=" ">
<path fill="none" stroke="#63b8ff" d="M244.76,-302.1C230.49,-299.41 212.39,-294.89 197.5,-287.62 179.28,-278.74 179.77,-268.4 161.5,-259.62 154.06,-256.05 145.89,-253.12 137.72,-250.73"/>
<polygon fill="#63b8ff" stroke="#63b8ff" points="243.8,-305.66 254.24,-303.89 244.97,-298.76 243.8,-305.66"/>
</a>
</g>
</g>
<!-- Node43 -->
<g id="Node000043" class="node">
<title>Node43</title>
<g id="a_Node000043"><a xlink:href="../../dc/d89/namespace_gam_r_1_1_spect.html#ab6376882b1b259ab8ae15200fa9ce7c3" target="_top" xlink:title=" ">
<polygon fill="white" stroke="#666666" points="139.38,-213.25 22.12,-213.25 22.12,-194 139.38,-194 139.38,-213.25"/>
<text text-anchor="middle" x="80.75" y="-199.75" font-family="Helvetica,sans-Serif" font-size="10.00">GamR::Spect::FitPeaks</text>
</a>
</g>
</g>
<!-- Node33&#45;&gt;Node43 -->
<g id="edge40_Node000033_Node000043" class="edge">
<title>Node33&#45;&gt;Node43</title>
<g id="a_edge40_Node000033_Node000043"><a xlink:title=" ">
<path fill="none" stroke="#63b8ff" d="M244.69,-304.38C229.75,-302.51 210.97,-298.06 197.5,-287.62 171.08,-267.16 188.17,-241.76 161.5,-221.62 155.04,-216.75 147.51,-213.15 139.69,-210.51"/>
<polygon fill="#63b8ff" stroke="#63b8ff" points="243.93,-307.91 254.21,-305.36 244.58,-300.94 243.93,-307.91"/>
</a>
</g>
</g>
<!-- Node44 -->
<g id="Node000044" class="node">
<title>Node44</title>
<g id="a_Node000044"><a xlink:href="../../dc/d89/namespace_gam_r_1_1_spect.html#ad6a0035bfb10cc820b2212cca17819d6" target="_top" xlink:title=" ">
<polygon fill="white" stroke="#666666" points="140.5,-176.25 21,-176.25 21,-157 140.5,-157 140.5,-176.25"/>
<text text-anchor="middle" x="80.75" y="-162.75" font-family="Helvetica,sans-Serif" font-size="10.00">GamR::Spect::FromText</text>
</a>
</g>
</g>
<!-- Node33&#45;&gt;Node44 -->
<g id="edge41_Node000033_Node000044" class="edge">
<title>Node33&#45;&gt;Node44</title>
<g id="a_edge41_Node000033_Node000044"><a xlink:title=" ">
<path fill="none" stroke="#63b8ff" d="M244.62,-305.17C229.35,-303.63 210.22,-299.26 197.5,-287.62 161.71,-254.91 197.69,-216.9 161.5,-184.62 155.57,-179.33 148.41,-175.5 140.86,-172.73"/>
<polygon fill="#63b8ff" stroke="#63b8ff" points="244.17,-308.71 254.37,-305.86 244.62,-301.72 244.17,-308.71"/>
</a>
</g>
</g>
<!-- Node45 -->
<g id="Node000045" class="node">
<title>Node45</title>
<g id="a_Node000045"><a xlink:href="../../d2/d80/namespace_gam_r_1_1_t_k.html#a48505adddc15725fea02cfa4876b6783" target="_top" xlink:title=" ">
<polygon fill="#fff0f0" stroke="red" points="151.75,-139.25 9.75,-139.25 9.75,-120 151.75,-120 151.75,-139.25"/>
<text text-anchor="middle" x="80.75" y="-125.75" font-family="Helvetica,sans-Serif" font-size="10.00">GamR::TK::GainMatchEnergy</text>
</a>
</g>
</g>
<!-- Node33&#45;&gt;Node45 -->
<g id="edge42_Node000033_Node000045" class="edge">
<title>Node33&#45;&gt;Node45</title>
<g id="a_edge42_Node000033_Node000045"><a xlink:title=" ">
<path fill="none" stroke="#63b8ff" d="M244.28,-305.52C228.87,-304.13 209.72,-299.78 197.5,-287.62 151.96,-242.31 207.6,-192.37 161.5,-147.62 158.24,-144.46 154.55,-141.81 150.59,-139.59"/>
<polygon fill="#63b8ff" stroke="#63b8ff" points="243.98,-309.06 254.15,-306.09 244.35,-302.07 243.98,-309.06"/>
</a>
</g>
</g>
<!-- Node47 -->
<g id="Node000047" class="node">
<title>Node47</title>
<g id="a_Node000047"><a xlink:href="../../d6/dc2/namespace_gam_r_1_1_o_r_n_l.html#aa025a5ef5e8093613423856223cdd3c0" target="_top" xlink:title=" ">
<polygon fill="white" stroke="#666666" points="138.25,-102.25 23.25,-102.25 23.25,-83 138.25,-83 138.25,-102.25"/>
<text text-anchor="middle" x="80.75" y="-88.75" font-family="Helvetica,sans-Serif" font-size="10.00">GamR::ORNL::his2root</text>
</a>
</g>
</g>
<!-- Node33&#45;&gt;Node47 -->
<g id="edge43_Node000033_Node000047" class="edge">
<title>Node33&#45;&gt;Node47</title>
<g id="a_edge43_Node000033_Node000047"><a xlink:title=" ">
<path fill="none" stroke="#63b8ff" d="M244.34,-305.75C228.8,-304.47 209.48,-300.17 197.5,-287.62 142.06,-229.57 217.66,-167.99 161.5,-110.62 155.24,-104.23 147.24,-99.9 138.72,-97"/>
<polygon fill="#63b8ff" stroke="#63b8ff" points="244.16,-309.29 254.3,-306.22 244.46,-302.3 244.16,-309.29"/>
</a>
</g>
</g>
</g>
</svg>
