<?xml version="1.0" encoding="UTF-8" standalone="no"?>
<!DOCTYPE svg PUBLIC "-//W3C//DTD SVG 1.1//EN"
 "http://www.w3.org/Graphics/SVG/1.1/DTD/svg11.dtd">
<!-- Generated by graphviz version 6.0.2 (20221011.1828)
 -->
<!-- Title: GamR::Spect::NormSpectraBackSub Pages: 1 -->
<svg width="518pt" height="119pt"
 viewBox="0.00 0.00 518.00 119.00" xmlns="http://www.w3.org/2000/svg" xmlns:xlink="http://www.w3.org/1999/xlink">
<g id="graph0" class="graph" transform="scale(1 1) rotate(0) translate(4 115)">
<title>GamR::Spect::NormSpectraBackSub</title>
<!-- Node1 -->
<g id="node1" class="node">
<title>Node1</title>
<g id="a_node1"><a xlink:title=" ">
<polygon fill="#999999" stroke="#666666" points="137,-79.5 0,-79.5 0,-49.5 137,-49.5 137,-79.5"/>
<text text-anchor="start" x="8" y="-67.5" font-family="Helvetica,sans-Serif" font-size="10.00">GamR::Spect::NormSpectra</text>
<text text-anchor="middle" x="68.5" y="-56.5" font-family="Helvetica,sans-Serif" font-size="10.00">BackSub</text>
</a>
</g>
</g>
<!-- Node2 -->
<g id="node2" class="node">
<title>Node2</title>
<g id="a_node2"><a xlink:href="../../d0/db7/namespace_gam_r_1_1_utils.html#a80902df5d8d695b20de04c64ed685df2" target="_top" xlink:title=" ">
<polygon fill="white" stroke="#666666" points="313,-111 188,-111 188,-92 313,-92 313,-111"/>
<text text-anchor="middle" x="250.5" y="-99" font-family="Helvetica,sans-Serif" font-size="10.00">GamR::Utils::GetHists1D</text>
</a>
</g>
</g>
<!-- Node1&#45;&gt;Node2 -->
<g id="edge1" class="edge">
<title>Node1&#45;&gt;Node2</title>
<path fill="none" stroke="#63b8ff" d="M137.04,-78.38C155.47,-82.17 175.24,-86.24 192.98,-89.88"/>
<polygon fill="#63b8ff" stroke="#63b8ff" points="192.67,-93.39 203.17,-91.98 194.08,-86.54 192.67,-93.39"/>
</g>
<!-- Node3 -->
<g id="node3" class="node">
<title>Node3</title>
<g id="a_node3"><a xlink:href="../../d0/d74/group___t_k.html#ga9db1ed9dd4cd4818f5399fbddf5ee388" target="_top" xlink:title=" ">
<polygon fill="white" stroke="#666666" points="328,-74 173,-74 173,-55 328,-55 328,-74"/>
<text text-anchor="middle" x="250.5" y="-62" font-family="Helvetica,sans-Serif" font-size="10.00">GamR::TK::Gate::NormBackSub</text>
</a>
</g>
</g>
<!-- Node1&#45;&gt;Node3 -->
<g id="edge2" class="edge">
<title>Node1&#45;&gt;Node3</title>
<path fill="none" stroke="#63b8ff" d="M137.04,-64.5C145.43,-64.5 154.09,-64.5 162.72,-64.5"/>
<polygon fill="#63b8ff" stroke="#63b8ff" points="162.81,-68 172.81,-64.5 162.81,-61 162.81,-68"/>
</g>
<!-- Node6 -->
<g id="node6" class="node">
<title>Node6</title>
<g id="a_node6"><a xlink:href="../../d0/d74/group___t_k.html#ga78f4477af7c95058e8a572065086f68a" target="_top" xlink:title=" ">
<polygon fill="white" stroke="#666666" points="314.5,-19 186.5,-19 186.5,0 314.5,0 314.5,-19"/>
<text text-anchor="middle" x="250.5" y="-7" font-family="Helvetica,sans-Serif" font-size="10.00">GamR::TK::Gate::SetGate</text>
</a>
</g>
</g>
<!-- Node1&#45;&gt;Node6 -->
<g id="edge5" class="edge">
<title>Node1&#45;&gt;Node6</title>
<path fill="none" stroke="#63b8ff" d="M118.69,-49.47C146.84,-40.87 181.75,-30.2 208.42,-22.05"/>
<polygon fill="#63b8ff" stroke="#63b8ff" points="209.67,-25.33 218.21,-19.06 207.62,-18.64 209.67,-25.33"/>
</g>
<!-- Node4 -->
<g id="node4" class="node">
<title>Node4</title>
<g id="a_node4"><a xlink:href="../../d0/d74/group___t_k.html#ga19210db8af7134007ff4fc26878b5dc2" target="_top" xlink:title=" ">
<polygon fill="white" stroke="#666666" points="510,-92 364,-92 364,-73 510,-73 510,-92"/>
<text text-anchor="middle" x="437" y="-80" font-family="Helvetica,sans-Serif" font-size="10.00">GamR::TK::Gate::GetBinWidth</text>
</a>
</g>
</g>
<!-- Node3&#45;&gt;Node4 -->
<g id="edge3" class="edge">
<title>Node3&#45;&gt;Node4</title>
<path fill="none" stroke="#63b8ff" d="M328.14,-71.98C336.52,-72.79 345.07,-73.63 353.51,-74.45"/>
<polygon fill="#63b8ff" stroke="#63b8ff" points="353.44,-77.96 363.74,-75.45 354.12,-71 353.44,-77.96"/>
</g>
<!-- Node5 -->
<g id="node5" class="node">
<title>Node5</title>
<g id="a_node5"><a xlink:href="../../d0/d74/group___t_k.html#gaae543a7d595e5faacbfb4da05718e3f3" target="_top" xlink:title=" ">
<polygon fill="white" stroke="#666666" points="507,-55 367,-55 367,-36 507,-36 507,-55"/>
<text text-anchor="middle" x="437" y="-43" font-family="Helvetica,sans-Serif" font-size="10.00">GamR::TK::Gate::GetIntegral</text>
</a>
</g>
</g>
<!-- Node3&#45;&gt;Node5 -->
<g id="edge4" class="edge">
<title>Node3&#45;&gt;Node5</title>
<path fill="none" stroke="#63b8ff" d="M328.14,-56.61C337.59,-55.63 347.27,-54.64 356.76,-53.66"/>
<polygon fill="#63b8ff" stroke="#63b8ff" points="357.38,-57.12 366.96,-52.61 356.66,-50.15 357.38,-57.12"/>
</g>
<!-- Node6&#45;&gt;Node6 -->
<g id="edge6" class="edge">
<title>Node6&#45;&gt;Node6</title>
<path fill="none" stroke="#63b8ff" d="M222.45,-19.08C208.8,-27.73 218.15,-37 250.5,-37 272.74,-37 284.11,-32.62 284.61,-27.07"/>
<polygon fill="#63b8ff" stroke="#63b8ff" points="287.38,-24.94 278.55,-19.08 281.8,-29.17 287.38,-24.94"/>
</g>
</g>
</svg>
