<?xml version="1.0" encoding="UTF-8" standalone="no"?>
<!DOCTYPE svg PUBLIC "-//W3C//DTD SVG 1.1//EN"
 "http://www.w3.org/Graphics/SVG/1.1/DTD/svg11.dtd">
<!-- Generated by graphviz version 2.50.0 (20220203.2022)
 -->
<!-- Title: GamR::Spect::CountsBS Pages: 1 -->
<svg width="299pt" height="88pt"
 viewBox="0.00 0.00 299.00 88.00" xmlns="http://www.w3.org/2000/svg" xmlns:xlink="http://www.w3.org/1999/xlink">
<g id="graph0" class="graph" transform="scale(1 1) rotate(0) translate(4 84)">
<title>GamR::Spect::CountsBS</title>
<polygon fill="white" stroke="transparent" points="-4,4 -4,-84 295,-84 295,4 -4,4"/>
<!-- Node1 -->
<g id="node1" class="node">
<title>Node1</title>
<g id="a_node1"><a xlink:title=" ">
<polygon fill="#bfbfbf" stroke="black" points="0,-30 0,-49 123,-49 123,-30 0,-30"/>
<text text-anchor="middle" x="61.5" y="-37" font-family="Helvetica,sans-Serif" font-size="10.00">GamR::Spect::CountsBS</text>
</a>
</g>
</g>
<!-- Node2 -->
<g id="node2" class="node">
<title>Node2</title>
<g id="a_node2"><a xlink:href="../../df/d6f/class_gam_r_1_1_nucleus_1_1_transition.html#afd83986d64ce37818c1d1dade9881e75" target="_top" xlink:title=" ">
<polygon fill="white" stroke="black" points="159,-49.5 159,-79.5 291,-79.5 291,-49.5 159,-49.5"/>
<text text-anchor="start" x="167" y="-67.5" font-family="Helvetica,sans-Serif" font-size="10.00">GamR::Nucleus::Transition</text>
<text text-anchor="middle" x="225" y="-56.5" font-family="Helvetica,sans-Serif" font-size="10.00">::ApplyCounts</text>
</a>
</g>
</g>
<!-- Node1&#45;&gt;Node2 -->
<g id="edge1" class="edge">
<title>Node1&#45;&gt;Node2</title>
<path fill="none" stroke="midnightblue" d="M123.1,-48.88C131.46,-50.17 140.13,-51.52 148.72,-52.85"/>
<polygon fill="midnightblue" stroke="midnightblue" points="148.32,-56.33 158.74,-54.4 149.39,-49.41 148.32,-56.33"/>
</g>
<!-- Node3 -->
<g id="node3" class="node">
<title>Node3</title>
<g id="a_node3"><a xlink:href="../../df/d6f/class_gam_r_1_1_nucleus_1_1_transition.html#a3f8c39fbbcecc2006167727936830ae0" target="_top" xlink:title=" ">
<polygon fill="white" stroke="black" points="159,-0.5 159,-30.5 291,-30.5 291,-0.5 159,-0.5"/>
<text text-anchor="start" x="167" y="-18.5" font-family="Helvetica,sans-Serif" font-size="10.00">GamR::Nucleus::Transition</text>
<text text-anchor="middle" x="225" y="-7.5" font-family="Helvetica,sans-Serif" font-size="10.00">::ApplyCountsError</text>
</a>
</g>
</g>
<!-- Node1&#45;&gt;Node3 -->
<g id="edge2" class="edge">
<title>Node1&#45;&gt;Node3</title>
<path fill="none" stroke="midnightblue" d="M123.1,-30.5C131.46,-29.25 140.13,-27.96 148.72,-26.69"/>
<polygon fill="midnightblue" stroke="midnightblue" points="149.36,-30.13 158.74,-25.2 148.33,-23.21 149.36,-30.13"/>
</g>
</g>
</svg>
