<?xml version="1.0" encoding="UTF-8" standalone="no"?>
<!DOCTYPE svg PUBLIC "-//W3C//DTD SVG 1.1//EN"
 "http://www.w3.org/Graphics/SVG/1.1/DTD/svg11.dtd">
<!-- Generated by graphviz version 12.2.1 (20241206.2353)
 -->
<!-- Title: GamR::Spect::RebinX Pages: 1 -->
<svg width="273pt" height="101pt"
 viewBox="0.00 0.00 272.50 101.25" xmlns="http://www.w3.org/2000/svg" xmlns:xlink="http://www.w3.org/1999/xlink">
<g id="graph0" class="graph" transform="scale(1 1) rotate(0) translate(4 97.25)">
<title>GamR::Spect::RebinX</title>
<!-- Node1 -->
<g id="Node000001" class="node">
<title>Node1</title>
<g id="a_Node000001"><a xlink:title=" ">
<polygon fill="#999999" stroke="#666666" points="109.75,-56.25 0,-56.25 0,-37 109.75,-37 109.75,-56.25"/>
<text text-anchor="middle" x="54.88" y="-42.75" font-family="Helvetica,sans-Serif" font-size="10.00">GamR::Spect::RebinX</text>
</a>
</g>
</g>
<!-- Node2 -->
<g id="Node000002" class="node">
<title>Node2</title>
<g id="a_Node000002"><a xlink:href="../../d0/db7/namespace_gam_r_1_1_utils.html#ae51db26569561ca73c083a6c9276f148" target="_top" xlink:title=" ">
<polygon fill="white" stroke="#666666" points="264.5,-93.25 145.75,-93.25 145.75,-74 264.5,-74 264.5,-93.25"/>
<text text-anchor="middle" x="205.12" y="-79.75" font-family="Helvetica,sans-Serif" font-size="10.00">GamR::Utils::GetHist2D</text>
</a>
</g>
</g>
<!-- Node1&#45;&gt;Node2 -->
<g id="edge1_Node000001_Node000002" class="edge">
<title>Node1&#45;&gt;Node2</title>
<g id="a_edge1_Node000001_Node000002"><a xlink:title=" ">
<path fill="none" stroke="#63b8ff" d="M96.38,-56.74C113.71,-61.06 134.14,-66.16 152.53,-70.75"/>
<polygon fill="#63b8ff" stroke="#63b8ff" points="151.65,-74.13 162.2,-73.16 153.34,-67.34 151.65,-74.13"/>
</a>
</g>
</g>
<!-- Node3 -->
<g id="Node000003" class="node">
<title>Node3</title>
<g id="a_Node000003"><a xlink:href="../../d0/db7/namespace_gam_r_1_1_utils.html#a0adbf2bb55ef0a9adfc45b00210c92c0" target="_top" xlink:title=" ">
<polygon fill="white" stroke="#666666" points="264.5,-56.25 145.75,-56.25 145.75,-37 264.5,-37 264.5,-56.25"/>
<text text-anchor="middle" x="205.12" y="-42.75" font-family="Helvetica,sans-Serif" font-size="10.00">GamR::Utils::GetNPads</text>
</a>
</g>
</g>
<!-- Node1&#45;&gt;Node3 -->
<g id="edge2_Node000001_Node000003" class="edge">
<title>Node1&#45;&gt;Node3</title>
<g id="a_edge2_Node000001_Node000003"><a xlink:title=" ">
<path fill="none" stroke="#63b8ff" d="M110.24,-46.62C117.9,-46.62 125.86,-46.62 133.77,-46.62"/>
<polygon fill="#63b8ff" stroke="#63b8ff" points="133.76,-50.13 143.76,-46.63 133.76,-43.13 133.76,-50.13"/>
</a>
</g>
</g>
<!-- Node4 -->
<g id="Node000004" class="node">
<title>Node4</title>
<g id="a_Node000004"><a xlink:href="../../dc/d89/namespace_gam_r_1_1_spect.html#ae891c382e2f6a919a2f3b41f54945b7a" target="_top" xlink:title=" ">
<polygon fill="white" stroke="#666666" points="260,-19.25 150.25,-19.25 150.25,0 260,0 260,-19.25"/>
<text text-anchor="middle" x="205.12" y="-5.75" font-family="Helvetica,sans-Serif" font-size="10.00">GamR::Spect::RebinX</text>
</a>
</g>
</g>
<!-- Node1&#45;&gt;Node4 -->
<g id="edge3_Node000001_Node000004" class="edge">
<title>Node1&#45;&gt;Node4</title>
<g id="a_edge3_Node000001_Node000004"><a xlink:title=" ">
<path fill="none" stroke="#63b8ff" d="M96.38,-36.51C113.71,-32.19 134.14,-27.09 152.53,-22.5"/>
<polygon fill="#63b8ff" stroke="#63b8ff" points="153.34,-25.91 162.2,-20.09 151.65,-19.12 153.34,-25.91"/>
</a>
</g>
</g>
</g>
</svg>
