<?xml version="1.0" encoding="UTF-8" standalone="no"?>
<!DOCTYPE svg PUBLIC "-//W3C//DTD SVG 1.1//EN"
 "http://www.w3.org/Graphics/SVG/1.1/DTD/svg11.dtd">
<!-- Generated by graphviz version 6.0.2 (20221011.1828)
 -->
<!-- Title: GamR::Spect::Counts Pages: 1 -->
<svg width="292pt" height="76pt"
 viewBox="0.00 0.00 292.00 75.50" xmlns="http://www.w3.org/2000/svg" xmlns:xlink="http://www.w3.org/1999/xlink">
<g id="graph0" class="graph" transform="scale(1 1) rotate(0) translate(4 71.5)">
<title>GamR::Spect::Counts</title>
<!-- Node1 -->
<g id="node1" class="node">
<title>Node1</title>
<g id="a_node1"><a xlink:title=" ">
<polygon fill="#999999" stroke="#666666" points="110,-45.5 0,-45.5 0,-26.5 110,-26.5 110,-45.5"/>
<text text-anchor="middle" x="55" y="-33.5" font-family="Helvetica,sans-Serif" font-size="10.00">GamR::Spect::Counts</text>
</a>
</g>
</g>
<!-- Node2 -->
<g id="node2" class="node">
<title>Node2</title>
<g id="a_node2"><a xlink:href="../../d0/d74/group___t_k.html#ga4607d5e3d8f5d83d75f4ca038572a7f8" target="_top" xlink:title=" ">
<polygon fill="white" stroke="#666666" points="284,-67.5 146,-67.5 146,-48.5 284,-48.5 284,-67.5"/>
<text text-anchor="middle" x="215" y="-55.5" font-family="Helvetica,sans-Serif" font-size="10.00">GamR::TK::Gate::GetCounts</text>
</a>
</g>
</g>
<!-- Node1&#45;&gt;Node2 -->
<g id="edge1" class="edge">
<title>Node1&#45;&gt;Node2</title>
<path fill="none" stroke="#63b8ff" d="M110.37,-43.57C118.59,-44.71 127.19,-45.91 135.79,-47.11"/>
<polygon fill="#63b8ff" stroke="#63b8ff" points="135.46,-50.6 145.85,-48.51 136.43,-43.66 135.46,-50.6"/>
</g>
<!-- Node3 -->
<g id="node3" class="node">
<title>Node3</title>
<g id="a_node3"><a xlink:href="../../d0/d74/group___t_k.html#ga0073e987a24adc053cfbf2c833d41749" target="_top" xlink:title=" ">
<polygon fill="white" stroke="#666666" points="284,-30 146,-30 146,0 284,0 284,-30"/>
<text text-anchor="start" x="154" y="-18" font-family="Helvetica,sans-Serif" font-size="10.00">GamR::TK::Gate::GetCounts</text>
<text text-anchor="middle" x="215" y="-7" font-family="Helvetica,sans-Serif" font-size="10.00">Error</text>
</a>
</g>
</g>
<!-- Node1&#45;&gt;Node3 -->
<g id="edge2" class="edge">
<title>Node1&#45;&gt;Node3</title>
<path fill="none" stroke="#63b8ff" d="M110.37,-28.77C118.59,-27.68 127.19,-26.54 135.79,-25.4"/>
<polygon fill="#63b8ff" stroke="#63b8ff" points="136.4,-28.85 145.85,-24.06 135.47,-21.91 136.4,-28.85"/>
</g>
</g>
</svg>
