<?xml version="1.0" encoding="UTF-8" standalone="no"?>
<!DOCTYPE svg PUBLIC "-//W3C//DTD SVG 1.1//EN"
 "http://www.w3.org/Graphics/SVG/1.1/DTD/svg11.dtd">
<!-- Generated by graphviz version 6.0.2 (20221011.1828)
 -->
<!-- Title: GamR::Spect::ProjX Pages: 1 -->
<!--zoomable 432 -->
<svg id="main" version="1.1" xmlns="http://www.w3.org/2000/svg" xmlns:xlink="http://www.w3.org/1999/xlink" xml:space="preserve" onload="init(evt)">
<style type="text/css"><![CDATA[
.edge:hover path { stroke: red; }
.edge:hover polygon { stroke: red; fill: red; }
]]></style>
<script type="text/javascript"><![CDATA[
var edges = document.getElementsByTagName('g');
if (edges && edges.length) {
  for (var i=0;i<edges.length;i++) {
    if (edges[i].id.substr(0,4)=='edge') {
      edges[i].setAttribute('class','edge');
    }
  }
}
]]></script>
        <defs>
                <circle id="rim" cx="0" cy="0" r="7"/>
                <circle id="rim2" cx="0" cy="0" r="3.5"/>
                <g id="zoomPlus">
                        <use xlink:href="#rim" fill="#404040">
                                <set attributeName="fill" to="#808080" begin="zoomplus.mouseover" end="zoomplus.mouseout"/>
                        </use>
                        <path d="M-4,0h8M0,-4v8" fill="none" stroke="white" stroke-width="1.5" pointer-events="none"/>
                </g>
                <g id="zoomMin">
                        <use xlink:href="#rim" fill="#404040">
                                <set attributeName="fill" to="#808080" begin="zoomminus.mouseover" end="zoomminus.mouseout"/>
                        </use>
                        <path d="M-4,0h8" fill="none" stroke="white" stroke-width="1.5" pointer-events="none"/>
                </g>
                <g id="dirArrow">
                        <path fill="none" stroke="white" stroke-width="1.5" d="M0,-3.0v7 M-2.5,-0.5L0,-3.0L2.5,-0.5"/>
                </g>
               <g id="resetDef">
                       <use xlink:href="#rim2" fill="#404040">
                               <set attributeName="fill" to="#808080" begin="reset.mouseover" end="reset.mouseout"/>
                       </use>
               </g>
        </defs>

<script type="text/javascript">
var viewWidth = 648;
var viewHeight = 432;
var sectionId = 'dynsection-88';
</script>
<script xlink:href="../../svgpan.js"/>
<svg id="graph" class="graph">
<g id="viewport">
<title>GamR::Spect::ProjX</title>
<!-- Node1 -->
<g id="node1" class="node">
<title>Node1</title>
<g id="a_node1"><a xlink:title=" ">
<polygon fill="#999999" stroke="#666666" points="640,-242 537,-242 537,-223 640,-223 640,-242"/>
<text text-anchor="middle" x="588.5" y="-230" font-family="Helvetica,sans-Serif" font-size="10.00">GamR::Spect::ProjX</text>
</a>
</g>
</g>
<!-- Node2 -->
<g id="node2" class="node">
<title>Node2</title>
<g id="a_node2"><a xlink:href="../../dc/d89/namespace_gam_r_1_1_spect.html#aa26a7c7e6e210c64559b7cd14f96a8f3" target="_top" xlink:title=" ">
<polygon fill="white" stroke="#666666" points="501,-261 398,-261 398,-242 501,-242 501,-261"/>
<text text-anchor="middle" x="449.5" y="-249" font-family="Helvetica,sans-Serif" font-size="10.00">GamR::Spect::ProjX</text>
</a>
</g>
</g>
<!-- Node1&#45;&gt;Node2 -->
<g id="edge1" class="edge">
<title>Node1&#45;&gt;Node2</title>
<path fill="none" stroke="#63b8ff" d="M526.96,-240.9C518.42,-242.08 509.71,-243.29 501.37,-244.44"/>
<polygon fill="#63b8ff" stroke="#63b8ff" points="527.45,-244.36 536.88,-239.52 526.49,-237.43 527.45,-244.36"/>
</g>
<!-- Node3 -->
<g id="node3" class="node">
<title>Node3</title>
<g id="a_node3"><a xlink:href="../../d0/d17/_abbreviations_8cc.html#addb21d32acc58c64bf98c616bebe77fc" target="_top" xlink:title=" ">
<polygon fill="white" stroke="#666666" points="464,-224 435,-224 435,-205 464,-205 464,-224"/>
<text text-anchor="middle" x="449.5" y="-212" font-family="Helvetica,sans-Serif" font-size="10.00">px</text>
</a>
</g>
</g>
<!-- Node1&#45;&gt;Node3 -->
<g id="edge2" class="edge">
<title>Node1&#45;&gt;Node3</title>
<path fill="none" stroke="#63b8ff" d="M526.96,-224.55C503.56,-221.47 478.91,-218.23 464.12,-216.29"/>
<polygon fill="#63b8ff" stroke="#63b8ff" points="526.5,-228.02 536.88,-225.85 527.42,-221.08 526.5,-228.02"/>
</g>
<!-- Node4 -->
<g id="node4" class="node">
<title>Node4</title>
<g id="a_node4"><a xlink:href="../../d0/d50/class_gam_r_1_1_nucleus_1_1_level_scheme_draw_1_1_state.html#af62fe8b89fb5ee032bbecf5eaa6fe18f" target="_top" xlink:title=" ">
<polygon fill="white" stroke="#666666" points="352,-423.5 196,-423.5 196,-393.5 352,-393.5 352,-423.5"/>
<text text-anchor="start" x="204" y="-411.5" font-family="Helvetica,sans-Serif" font-size="10.00">GamR::Nucleus::LevelScheme</text>
<text text-anchor="middle" x="274" y="-400.5" font-family="Helvetica,sans-Serif" font-size="10.00">Draw::State::DistancetoPrimitive</text>
</a>
</g>
</g>
<!-- Node3&#45;&gt;Node4 -->
<g id="edge3" class="edge">
<title>Node3&#45;&gt;Node4</title>
<path fill="none" stroke="#63b8ff" d="M425.06,-218.35C415.43,-221.07 404.94,-225.68 398,-233.5 353.61,-283.46 407.33,-330.39 362,-379.5 356.82,-385.12 350.52,-389.64 343.71,-393.3"/>
<polygon fill="#63b8ff" stroke="#63b8ff" points="425.98,-221.73 434.95,-216.09 424.42,-214.91 425.98,-221.73"/>
</g>
<!-- Node5 -->
<g id="node5" class="node">
<title>Node5</title>
<g id="a_node5"><a xlink:href="../../d0/d50/class_gam_r_1_1_nucleus_1_1_level_scheme_draw_1_1_state.html#a735a9cb53adadb0de1ac1414d57b716a" target="_top" xlink:title=" ">
<polygon fill="white" stroke="#666666" points="149.5,-401.5 0.5,-401.5 0.5,-371.5 149.5,-371.5 149.5,-401.5"/>
<text text-anchor="start" x="8.5" y="-389.5" font-family="Helvetica,sans-Serif" font-size="10.00">GamR::Nucleus::LevelScheme</text>
<text text-anchor="middle" x="75" y="-378.5" font-family="Helvetica,sans-Serif" font-size="10.00">Draw::State::ExecuteEvent</text>
</a>
</g>
</g>
<!-- Node3&#45;&gt;Node5 -->
<g id="edge12" class="edge">
<title>Node3&#45;&gt;Node5</title>
<path fill="none" stroke="#63b8ff" d="M424.92,-218.69C415.45,-221.46 405.11,-226.02 398,-233.5 361.7,-271.72 402.29,-312.52 362,-346.5 330.81,-372.8 223.69,-381.83 149.78,-384.91"/>
<polygon fill="#63b8ff" stroke="#63b8ff" points="425.77,-222.08 434.67,-216.33 424.13,-215.28 425.77,-222.08"/>
</g>
<!-- Node6 -->
<g id="node6" class="node">
<title>Node6</title>
<g id="a_node6"><a xlink:href="../../d9/d6a/class_gam_r_1_1_nucleus_1_1_level_scheme_draw_1_1_transition.html#ab2488df573a655a860d1aad03120041f" target="_top" xlink:title=" ">
<polygon fill="white" stroke="#666666" points="362,-337.5 186,-337.5 186,-307.5 362,-307.5 362,-337.5"/>
<text text-anchor="start" x="194" y="-325.5" font-family="Helvetica,sans-Serif" font-size="10.00">GamR::Nucleus::LevelScheme</text>
<text text-anchor="middle" x="274" y="-314.5" font-family="Helvetica,sans-Serif" font-size="10.00">Draw::Transition::DistancetoPrimitive</text>
</a>
</g>
</g>
<!-- Node3&#45;&gt;Node6 -->
<g id="edge5" class="edge">
<title>Node3&#45;&gt;Node6</title>
<path fill="none" stroke="#63b8ff" d="M425.05,-219.75C415.88,-222.66 405.74,-227.05 398,-233.5 374.12,-253.42 386.26,-274.04 362,-293.5 354.92,-299.18 346.68,-303.77 338.15,-307.47"/>
<polygon fill="#63b8ff" stroke="#63b8ff" points="426.1,-223.09 434.8,-217.05 424.23,-216.34 426.1,-223.09"/>
</g>
<!-- Node7 -->
<g id="node7" class="node">
<title>Node7</title>
<g id="a_node7"><a xlink:href="../../d9/d6a/class_gam_r_1_1_nucleus_1_1_level_scheme_draw_1_1_transition.html#ac6affc8cf9d5a8c89d3e5be46b53128b" target="_top" xlink:title=" ">
<polygon fill="white" stroke="#666666" points="150,-315.5 0,-315.5 0,-285.5 150,-285.5 150,-315.5"/>
<text text-anchor="start" x="8" y="-303.5" font-family="Helvetica,sans-Serif" font-size="10.00">GamR::Nucleus::LevelScheme</text>
<text text-anchor="middle" x="75" y="-292.5" font-family="Helvetica,sans-Serif" font-size="10.00">Draw::Transition::ExecuteEvent</text>
</a>
</g>
</g>
<!-- Node3&#45;&gt;Node7 -->
<g id="edge13" class="edge">
<title>Node3&#45;&gt;Node7</title>
<path fill="none" stroke="#63b8ff" d="M425.14,-221.73C416.38,-224.84 406.5,-228.84 398,-233.5 380.46,-243.12 380.49,-252.87 362,-260.5 293.75,-288.65 209.39,-297.65 150.04,-300.22"/>
<polygon fill="#63b8ff" stroke="#63b8ff" points="426.39,-225 434.75,-218.5 424.16,-218.37 426.39,-225"/>
</g>
<!-- Node8 -->
<g id="node8" class="node">
<title>Node8</title>
<g id="a_node8"><a xlink:href="../../d3/d4b/class_gam_r_1_1_nucleus_1_1_level_scheme_fitter_1_1_state.html#a062dd0dec8beb4be1b22ac0cba205a10" target="_top" xlink:title=" ">
<polygon fill="white" stroke="#666666" points="352,-251.5 196,-251.5 196,-221.5 352,-221.5 352,-251.5"/>
<text text-anchor="start" x="204" y="-239.5" font-family="Helvetica,sans-Serif" font-size="10.00">GamR::Nucleus::LevelScheme</text>
<text text-anchor="middle" x="274" y="-228.5" font-family="Helvetica,sans-Serif" font-size="10.00">Fitter::State::DistancetoPrimitive</text>
</a>
</g>
</g>
<!-- Node3&#45;&gt;Node8 -->
<g id="edge7" class="edge">
<title>Node3&#45;&gt;Node8</title>
<path fill="none" stroke="#63b8ff" d="M424.85,-217.5C405.96,-219.89 378.39,-223.39 352.03,-226.73"/>
<polygon fill="#63b8ff" stroke="#63b8ff" points="425.41,-220.96 434.89,-216.23 424.52,-214.01 425.41,-220.96"/>
</g>
<!-- Node9 -->
<g id="node9" class="node">
<title>Node9</title>
<g id="a_node9"><a xlink:href="../../d3/d4b/class_gam_r_1_1_nucleus_1_1_level_scheme_fitter_1_1_state.html#a47895fed67a142b63c6b3dc76ef62200" target="_top" xlink:title=" ">
<polygon fill="white" stroke="#666666" points="149.5,-229.5 0.5,-229.5 0.5,-199.5 149.5,-199.5 149.5,-229.5"/>
<text text-anchor="start" x="8.5" y="-217.5" font-family="Helvetica,sans-Serif" font-size="10.00">GamR::Nucleus::LevelScheme</text>
<text text-anchor="middle" x="75" y="-206.5" font-family="Helvetica,sans-Serif" font-size="10.00">Fitter::State::ExecuteEvent</text>
</a>
</g>
</g>
<!-- Node3&#45;&gt;Node9 -->
<g id="edge14" class="edge">
<title>Node3&#45;&gt;Node9</title>
<path fill="none" stroke="#63b8ff" d="M424.37,-213.79C407.02,-213.32 383.07,-212.74 362,-212.5 283.78,-211.6 264.22,-211.79 186,-212.5 174.25,-212.61 161.8,-212.78 149.66,-212.98"/>
<polygon fill="#63b8ff" stroke="#63b8ff" points="424.62,-217.3 434.72,-214.08 424.82,-210.3 424.62,-217.3"/>
</g>
<!-- Node10 -->
<g id="node10" class="node">
<title>Node10</title>
<g id="a_node10"><a xlink:href="../../d7/df7/class_gam_r_1_1_nucleus_1_1_level_scheme_fitter_1_1_transition.html#aeaafdf1c58b91dbd0bae610717c0f338" target="_top" xlink:title=" ">
<polygon fill="white" stroke="#666666" points="348.5,-165 199.5,-165 199.5,-124 348.5,-124 348.5,-165"/>
<text text-anchor="start" x="207.5" y="-153" font-family="Helvetica,sans-Serif" font-size="10.00">GamR::Nucleus::LevelScheme</text>
<text text-anchor="start" x="207.5" y="-142" font-family="Helvetica,sans-Serif" font-size="10.00">Fitter::Transition::Distanceto</text>
<text text-anchor="middle" x="274" y="-131" font-family="Helvetica,sans-Serif" font-size="10.00">Primitive</text>
</a>
</g>
</g>
<!-- Node3&#45;&gt;Node10 -->
<g id="edge9" class="edge">
<title>Node3&#45;&gt;Node10</title>
<path fill="none" stroke="#63b8ff" d="M425.36,-205.12C407.94,-198.07 383.48,-188.16 362,-179.5 350.37,-174.81 337.87,-169.77 326.07,-165.03"/>
<polygon fill="#63b8ff" stroke="#63b8ff" points="424.14,-208.4 434.72,-208.91 426.77,-201.92 424.14,-208.4"/>
</g>
<!-- Node11 -->
<g id="node11" class="node">
<title>Node11</title>
<g id="a_node11"><a xlink:href="../../d7/df7/class_gam_r_1_1_nucleus_1_1_level_scheme_fitter_1_1_transition.html#a3139667cf8be002fcb2285bde985dc68" target="_top" xlink:title=" ">
<polygon fill="white" stroke="#666666" points="150,-135.5 0,-135.5 0,-105.5 150,-105.5 150,-135.5"/>
<text text-anchor="start" x="8" y="-123.5" font-family="Helvetica,sans-Serif" font-size="10.00">GamR::Nucleus::LevelScheme</text>
<text text-anchor="middle" x="75" y="-112.5" font-family="Helvetica,sans-Serif" font-size="10.00">Fitter::Transition::ExecuteEvent</text>
</a>
</g>
</g>
<!-- Node3&#45;&gt;Node11 -->
<g id="edge15" class="edge">
<title>Node3&#45;&gt;Node11</title>
<path fill="none" stroke="#63b8ff" d="M439.15,-196.14C425.78,-172.16 398.7,-131.28 362,-114.5 288.15,-80.74 191.97,-92.55 132.11,-105.49"/>
<polygon fill="#63b8ff" stroke="#63b8ff" points="436.08,-197.82 443.89,-204.98 442.25,-194.51 436.08,-197.82"/>
</g>
<!-- Node12 -->
<g id="node12" class="node">
<title>Node12</title>
<g id="a_node12"><a xlink:href="../../d0/d74/group___t_k.html#gac731f3c9e019bc69f52732bcfddab7fd" target="_top" xlink:title=" ">
<polygon fill="white" stroke="#666666" points="343,-67.5 205,-67.5 205,-37.5 343,-37.5 343,-67.5"/>
<text text-anchor="start" x="213" y="-55.5" font-family="Helvetica,sans-Serif" font-size="10.00">GamR::TK::Gate::Distanceto</text>
<text text-anchor="middle" x="274" y="-44.5" font-family="Helvetica,sans-Serif" font-size="10.00">Primitive</text>
</a>
</g>
</g>
<!-- Node3&#45;&gt;Node12 -->
<g id="edge11" class="edge">
<title>Node3&#45;&gt;Node12</title>
<path fill="none" stroke="#63b8ff" d="M441.06,-195.54C428.82,-166.79 401.79,-112.25 362,-81.5 354.69,-75.85 346.23,-71.28 337.51,-67.57"/>
<polygon fill="#63b8ff" stroke="#63b8ff" points="437.85,-196.96 444.89,-204.88 444.33,-194.3 437.85,-196.96"/>
</g>
<!-- Node13 -->
<g id="node13" class="node">
<title>Node13</title>
<g id="a_node13"><a xlink:href="../../d0/d74/group___t_k.html#gaaa4358ac4e22aea13191978c5dcc846e" target="_top" xlink:title=" ">
<polygon fill="white" stroke="#666666" points="349.5,-19 198.5,-19 198.5,0 349.5,0 349.5,-19"/>
<text text-anchor="middle" x="274" y="-7" font-family="Helvetica,sans-Serif" font-size="10.00">GamR::TK::Gate::ExecuteEvent</text>
</a>
</g>
</g>
<!-- Node3&#45;&gt;Node13 -->
<g id="edge16" class="edge">
<title>Node3&#45;&gt;Node13</title>
<path fill="none" stroke="#63b8ff" d="M445.31,-195.11C437.97,-156.91 416.14,-71.86 362,-28.5 357.29,-24.73 352,-21.67 346.41,-19.19"/>
<polygon fill="#63b8ff" stroke="#63b8ff" points="441.87,-195.75 447.08,-204.97 448.76,-194.51 441.87,-195.75"/>
</g>
<!-- Node4&#45;&gt;Node5 -->
<g id="edge4" class="edge">
<title>Node4&#45;&gt;Node5</title>
<path fill="none" stroke="#63b8ff" d="M185.92,-398.77C173.84,-397.43 161.53,-396.05 149.73,-394.73"/>
<polygon fill="#63b8ff" stroke="#63b8ff" points="185.66,-402.27 195.99,-399.9 186.44,-395.31 185.66,-402.27"/>
</g>
<!-- Node6&#45;&gt;Node7 -->
<g id="edge6" class="edge">
<title>Node6&#45;&gt;Node7</title>
<path fill="none" stroke="#63b8ff" d="M175.71,-311.64C167.15,-310.68 158.59,-309.72 150.26,-308.79"/>
<polygon fill="#63b8ff" stroke="#63b8ff" points="175.41,-315.12 185.73,-312.75 176.18,-308.17 175.41,-315.12"/>
</g>
<!-- Node8&#45;&gt;Node9 -->
<g id="edge8" class="edge">
<title>Node8&#45;&gt;Node9</title>
<path fill="none" stroke="#63b8ff" d="M185.92,-226.77C173.84,-225.43 161.53,-224.05 149.73,-222.73"/>
<polygon fill="#63b8ff" stroke="#63b8ff" points="185.66,-230.27 195.99,-227.9 186.44,-223.31 185.66,-230.27"/>
</g>
<!-- Node10&#45;&gt;Node11 -->
<g id="edge10" class="edge">
<title>Node10&#45;&gt;Node11</title>
<path fill="none" stroke="#63b8ff" d="M189.09,-134.28C176.16,-132.7 162.9,-131.09 150.2,-129.54"/>
<polygon fill="#63b8ff" stroke="#63b8ff" points="189.01,-137.79 199.36,-135.53 189.86,-130.85 189.01,-137.79"/>
</g>
</g>
</svg>
        <g id="navigator" transform="translate(0 0)" fill="#404254">
                <rect fill="#f2f5e9" fill-opacity="0.5" stroke="#606060" stroke-width=".5" x="0" y="0" width="60" height="60"/>
                <use id="zoomplus" xlink:href="#zoomPlus" x="17" y="9" onmousedown="handleZoom(evt,'in')"/>
                <use id="zoomminus" xlink:href="#zoomMin" x="42" y="9" onmousedown="handleZoom(evt,'out')"/>
                <use id="reset" xlink:href="#resetDef" x="30" y="36" onmousedown="handleReset()"/>
                <g id="arrowUp" xlink:href="#dirArrow" transform="translate(30 24)" onmousedown="handlePan(0,-1)">
                  <use xlink:href="#rim" fill="#404040">
                        <set attributeName="fill" to="#808080" begin="arrowUp.mouseover" end="arrowUp.mouseout"/>
                  </use>
                  <path fill="none" stroke="white" stroke-width="1.5" d="M0,-3.0v7 M-2.5,-0.5L0,-3.0L2.5,-0.5"/>
                </g>
                <g id="arrowRight" xlink:href="#dirArrow" transform="rotate(90) translate(36 -43)" onmousedown="handlePan(1,0)">
                  <use xlink:href="#rim" fill="#404040">
                        <set attributeName="fill" to="#808080" begin="arrowRight.mouseover" end="arrowRight.mouseout"/>
                  </use>
                  <path fill="none" stroke="white" stroke-width="1.5" d="M0,-3.0v7 M-2.5,-0.5L0,-3.0L2.5,-0.5"/>
                </g>
                <g id="arrowDown" xlink:href="#dirArrow" transform="rotate(180) translate(-30 -48)" onmousedown="handlePan(0,1)">
                  <use xlink:href="#rim" fill="#404040">
                        <set attributeName="fill" to="#808080" begin="arrowDown.mouseover" end="arrowDown.mouseout"/>
                  </use>
                  <path fill="none" stroke="white" stroke-width="1.5" d="M0,-3.0v7 M-2.5,-0.5L0,-3.0L2.5,-0.5"/>
                </g>
                <g id="arrowLeft" xlink:href="#dirArrow" transform="rotate(270) translate(-36 17)" onmousedown="handlePan(-1,0)">
                  <use xlink:href="#rim" fill="#404040">
                        <set attributeName="fill" to="#808080" begin="arrowLeft.mouseover" end="arrowLeft.mouseout"/>
                  </use>
                  <path fill="none" stroke="white" stroke-width="1.5" d="M0,-3.0v7 M-2.5,-0.5L0,-3.0L2.5,-0.5"/>
                </g>
        </g>
        <svg viewBox="0 0 15 15" width="100%" height="30px" preserveAspectRatio="xMaxYMin meet">
         <g id="arrow_out" transform="scale(0.3 0.3)">
          <a xlink:href="namespace_gam_r_1_1_spect_aab35a8f2d75f6fd8f3175f37c4f5f0cd_icgraph_org.svg" target="_base">
           <rect id="button" ry="5" rx="5" y="6" x="6" height="38" width="38"
                fill="#f2f5e9" fill-opacity="0.5" stroke="#606060" stroke-width="1.0"/>
           <path id="arrow"
             d="M 11.500037,31.436501 C 11.940474,20.09759 22.043105,11.32322 32.158766,21.979434 L 37.068811,17.246167 C 37.068811,17.246167 37.088388,32 37.088388,32 L 22.160133,31.978069 C 22.160133,31.978069 26.997745,27.140456 26.997745,27.140456 C 18.528582,18.264221 13.291696,25.230495 11.500037,31.436501 z"
             style="fill:#404040;"/>
          </a>
         </g>
        </svg>
</svg>
