<?xml version="1.0" encoding="UTF-8" standalone="no"?>
<!DOCTYPE svg PUBLIC "-//W3C//DTD SVG 1.1//EN"
 "http://www.w3.org/Graphics/SVG/1.1/DTD/svg11.dtd">
<!-- Generated by graphviz version 8.1.0 (20230707.0739)
 -->
<!-- Title: GamR::Spect::CountsBS Pages: 1 -->
<svg width="289pt" height="175pt"
 viewBox="0.00 0.00 289.00 175.25" xmlns="http://www.w3.org/2000/svg" xmlns:xlink="http://www.w3.org/1999/xlink">

<svg id="main" version="1.1" xmlns="http://www.w3.org/2000/svg" xmlns:xlink="http://www.w3.org/1999/xlink" xml:space="preserve" onload="init(evt)">
<style type="text/css"><![CDATA[
.node, .edge {opacity: 0.7;}
.node.selected, .edge.selected {opacity: 1;}
.edge:hover path { stroke: red; }
.edge:hover polygon { stroke: red; fill: red; }
]]></style>
<script type="application/ecmascript" xlink:href="../../svg.min.js"/>
<svg id="graph" class="graph">
<g id="graph0" class="graph" transform="scale(1 1) rotate(0) translate(4 171.25)">
<title>GamR::Spect::CountsBS</title>
<!-- Node1 -->
<g id="Node000001" class="node">
<title>Node1</title>
<g id="a_Node000001"><a xlink:title=" ">
<polygon fill="#999999" stroke="#666666" points="281,-93.25 158.5,-93.25 158.5,-74 281,-74 281,-93.25"/>
<text text-anchor="middle" x="219.75" y="-79.75" font-family="Helvetica,sans-Serif" font-size="10.00">GamR::Spect::CountsBS</text>
</a>
</g>
</g>
<!-- Node2 -->
<g id="Node000002" class="node">
<title>Node2</title>
<g id="a_Node000002"><a xlink:href="../../dc/d89/namespace_gam_r_1_1_spect.html#a504796b948f22b277d3dc82001df407e" target="_top" xlink:title=" ">
<polygon fill="white" stroke="#666666" points="122.5,-167.25 0,-167.25 0,-148 122.5,-148 122.5,-167.25"/>
<text text-anchor="middle" x="61.25" y="-153.75" font-family="Helvetica,sans-Serif" font-size="10.00">GamR::Spect::CountsBS</text>
</a>
</g>
</g>
<!-- Node1&#45;&gt;Node2 -->
<g id="edge1_Node000001_Node000002" class="edge">
<title>Node1&#45;&gt;Node2</title>
<g id="a_edge1_Node000001_Node000002"><a xlink:title=" ">
<path fill="none" stroke="#63b8ff" d="M194.91,-99.64C175.92,-111.86 148.33,-128.44 122.5,-139.62 115.69,-142.57 108.24,-145.23 100.98,-147.53"/>
<polygon fill="#63b8ff" stroke="#63b8ff" points="196.54,-102.1 203,-93.7 192.71,-96.24 196.54,-102.1"/>
</a>
</g>
</g>
<!-- Node3 -->
<g id="Node000003" class="node">
<title>Node3</title>
<g id="a_Node000003"><a xlink:href="../../dc/d89/namespace_gam_r_1_1_spect.html#abc275778bbfd8efb4624ba0d6b5f87f2" target="_top" xlink:title=" ">
<polygon fill="white" stroke="#666666" points="122.5,-130.25 0,-130.25 0,-111 122.5,-111 122.5,-130.25"/>
<text text-anchor="middle" x="61.25" y="-116.75" font-family="Helvetica,sans-Serif" font-size="10.00">GamR::Spect::CountsBS</text>
</a>
</g>
</g>
<!-- Node1&#45;&gt;Node3 -->
<g id="edge2_Node000001_Node000003" class="edge">
<title>Node1&#45;&gt;Node3</title>
<g id="a_edge2_Node000001_Node000003"><a xlink:title=" ">
<path fill="none" stroke="#63b8ff" d="M165.32,-96.26C145.62,-100.91 123.59,-106.12 104.96,-110.53"/>
<polygon fill="#63b8ff" stroke="#63b8ff" points="166.06,-99.44 174.99,-93.74 164.45,-92.63 166.06,-99.44"/>
</a>
</g>
</g>
<!-- Node4 -->
<g id="Node000004" class="node">
<title>Node4</title>
<g id="a_Node000004"><a xlink:href="../../dc/d89/namespace_gam_r_1_1_spect.html#a02f79fc5532999bf21539d9a7cd9b415" target="_top" xlink:title=" ">
<polygon fill="white" stroke="#666666" points="122.5,-93.25 0,-93.25 0,-74 122.5,-74 122.5,-93.25"/>
<text text-anchor="middle" x="61.25" y="-79.75" font-family="Helvetica,sans-Serif" font-size="10.00">GamR::Spect::CountsBS</text>
</a>
</g>
</g>
<!-- Node1&#45;&gt;Node4 -->
<g id="edge3_Node000001_Node000004" class="edge">
<title>Node1&#45;&gt;Node4</title>
<g id="a_edge3_Node000001_Node000004"><a xlink:title=" ">
<path fill="none" stroke="#63b8ff" d="M147.51,-83.62C139.27,-83.62 130.93,-83.62 122.85,-83.62"/>
<polygon fill="#63b8ff" stroke="#63b8ff" points="147.24,-87.13 157.24,-83.62 147.24,-80.13 147.24,-87.13"/>
</a>
</g>
</g>
<!-- Node5 -->
<g id="Node000005" class="node">
<title>Node5</title>
<g id="a_Node000005"><a xlink:href="../../dc/d89/namespace_gam_r_1_1_spect.html#ae4617cc4b723ae8ff59b0521c25ee484" target="_top" xlink:title=" ">
<polygon fill="white" stroke="#666666" points="122.5,-56.25 0,-56.25 0,-37 122.5,-37 122.5,-56.25"/>
<text text-anchor="middle" x="61.25" y="-42.75" font-family="Helvetica,sans-Serif" font-size="10.00">GamR::Spect::CountsBS</text>
</a>
</g>
</g>
<!-- Node1&#45;&gt;Node5 -->
<g id="edge4_Node000001_Node000005" class="edge">
<title>Node1&#45;&gt;Node5</title>
<g id="a_edge4_Node000001_Node000005"><a xlink:title=" ">
<path fill="none" stroke="#63b8ff" d="M165.32,-70.99C145.62,-66.34 123.59,-61.13 104.96,-56.72"/>
<polygon fill="#63b8ff" stroke="#63b8ff" points="164.45,-74.62 174.99,-73.51 166.06,-67.81 164.45,-74.62"/>
</a>
</g>
</g>
<!-- Node6 -->
<g id="Node000006" class="node">
<title>Node6</title>
<g id="a_Node000006"><a xlink:href="../../d0/d17/_abbreviations_8cc.html#a28436370d9b0523ba4046a3ad2faef7e" target="_top" xlink:title=" ">
<polygon fill="white" stroke="#666666" points="78.62,-19.25 43.88,-19.25 43.88,0 78.62,0 78.62,-19.25"/>
<text text-anchor="middle" x="61.25" y="-5.75" font-family="Helvetica,sans-Serif" font-size="10.00">ctbs</text>
</a>
</g>
</g>
<!-- Node1&#45;&gt;Node6 -->
<g id="edge5_Node000001_Node000006" class="edge">
<title>Node1&#45;&gt;Node6</title>
<g id="a_edge5_Node000001_Node000006"><a xlink:title=" ">
<path fill="none" stroke="#63b8ff" d="M194.91,-67.61C175.92,-55.39 148.33,-38.81 122.5,-27.62 108.27,-21.47 91.29,-16.6 78.99,-13.49"/>
<polygon fill="#63b8ff" stroke="#63b8ff" points="192.71,-71.01 203,-73.55 196.54,-65.15 192.71,-71.01"/>
</a>
</g>
</g>
</g>
</svg>
</svg>

<style type='text/css'>
<![CDATA[
[data-mouse-over-selected='false'] { opacity: 0.7; }
[data-mouse-over-selected='true']  { opacity: 1.0; }
]]>
</style>
<script type="application/ecmascript"><![CDATA[
document.addEventListener('DOMContentLoaded', (event) => {
  highlightEdges();
  highlightAdjacentNodes();
});
]]></script>
</svg>
