<?xml version="1.0" encoding="UTF-8" standalone="no"?>
<!DOCTYPE svg PUBLIC "-//W3C//DTD SVG 1.1//EN"
 "http://www.w3.org/Graphics/SVG/1.1/DTD/svg11.dtd">
<!-- Generated by graphviz version 12.0.0 (20240704.0754)
 -->
<!-- Title: GamR::Spect::Norm Pages: 1 -->
<svg width="436pt" height="27pt"
 viewBox="0.00 0.00 436.25 27.25" xmlns="http://www.w3.org/2000/svg" xmlns:xlink="http://www.w3.org/1999/xlink">
<g id="graph0" class="graph" transform="scale(1 1) rotate(0) translate(4 23.25)">
<title>GamR::Spect::Norm</title>
<!-- Node1 -->
<g id="Node000001" class="node">
<title>Node1</title>
<g id="a_Node000001"><a xlink:title=" ">
<polygon fill="#999999" stroke="#666666" points="102.25,-19.25 0,-19.25 0,0 102.25,0 102.25,-19.25"/>
<text text-anchor="middle" x="51.12" y="-5.75" font-family="Helvetica,sans-Serif" font-size="10.00">GamR::Spect::Norm</text>
</a>
</g>
</g>
<!-- Node2 -->
<g id="Node000002" class="node">
<title>Node2</title>
<g id="a_Node000002"><a xlink:href="../../d0/d74/group___t_k.html#gab5b438142cc5953f3d17e77e81ec7f2e" target="_top" xlink:title=" ">
<polygon fill="white" stroke="#666666" points="253.25,-19.25 138.25,-19.25 138.25,0 253.25,0 253.25,-19.25"/>
<text text-anchor="middle" x="195.75" y="-5.75" font-family="Helvetica,sans-Serif" font-size="10.00">GamR::TK::Gate::Norm</text>
</a>
</g>
</g>
<!-- Node1&#45;&gt;Node2 -->
<g id="edge1_Node000001_Node000002" class="edge">
<title>Node1&#45;&gt;Node2</title>
<g id="a_edge1_Node000001_Node000002"><a xlink:title=" ">
<path fill="none" stroke="#63b8ff" d="M102.41,-9.62C110.26,-9.62 118.48,-9.62 126.65,-9.62"/>
<polygon fill="#63b8ff" stroke="#63b8ff" points="126.6,-13.13 136.6,-9.63 126.6,-6.13 126.6,-13.13"/>
</a>
</g>
</g>
<!-- Node3 -->
<g id="Node000003" class="node">
<title>Node3</title>
<g id="a_Node000003"><a xlink:href="../../d0/d74/group___t_k.html#gaae543a7d595e5faacbfb4da05718e3f3" target="_top" xlink:title=" ">
<polygon fill="white" stroke="#666666" points="428.25,-19.25 289.25,-19.25 289.25,0 428.25,0 428.25,-19.25"/>
<text text-anchor="middle" x="358.75" y="-5.75" font-family="Helvetica,sans-Serif" font-size="10.00">GamR::TK::Gate::GetIntegral</text>
</a>
</g>
</g>
<!-- Node2&#45;&gt;Node3 -->
<g id="edge2_Node000002_Node000003" class="edge">
<title>Node2&#45;&gt;Node3</title>
<g id="a_edge2_Node000002_Node000003"><a xlink:title=" ">
<path fill="none" stroke="#63b8ff" d="M253.51,-9.62C261.27,-9.62 269.34,-9.62 277.42,-9.62"/>
<polygon fill="#63b8ff" stroke="#63b8ff" points="277.28,-13.13 287.28,-9.63 277.28,-6.13 277.28,-13.13"/>
</a>
</g>
</g>
</g>
</svg>
