<?xml version="1.0" encoding="UTF-8" standalone="no"?>
<!DOCTYPE svg PUBLIC "-//W3C//DTD SVG 1.1//EN"
 "http://www.w3.org/Graphics/SVG/1.1/DTD/svg11.dtd">
<!-- Generated by graphviz version 9.0.0 (20230911.1827)
 -->
<!-- Title: GamR::Spect::BackgroundSubtractX Pages: 1 -->
<svg width="391pt" height="323pt"
 viewBox="0.00 0.00 391.00 323.25" xmlns="http://www.w3.org/2000/svg" xmlns:xlink="http://www.w3.org/1999/xlink">
<g id="graph0" class="graph" transform="scale(1 1) rotate(0) translate(4 319.25)">
<title>GamR::Spect::BackgroundSubtractX</title>
<!-- Node1 -->
<g id="Node000001" class="node">
<title>Node1</title>
<g id="a_Node000001"><a xlink:title=" ">
<polygon fill="#999999" stroke="#666666" points="383,-167.25 209.5,-167.25 209.5,-148 383,-148 383,-167.25"/>
<text text-anchor="middle" x="296.25" y="-153.75" font-family="Helvetica,sans-Serif" font-size="10.00">GamR::Spect::BackgroundSubtractX</text>
</a>
</g>
</g>
<!-- Node2 -->
<g id="Node000002" class="node">
<title>Node2</title>
<g id="a_Node000002"><a xlink:href="../../dc/d89/namespace_gam_r_1_1_spect.html#a9ca36cc95dbd271270ca12575c69d826" target="_top" xlink:title=" ">
<polygon fill="white" stroke="#666666" points="173.5,-315.25 0,-315.25 0,-296 173.5,-296 173.5,-315.25"/>
<text text-anchor="middle" x="86.75" y="-301.75" font-family="Helvetica,sans-Serif" font-size="10.00">GamR::Spect::BackgroundSubtractX</text>
</a>
</g>
</g>
<!-- Node1&#45;&gt;Node2 -->
<g id="edge1_Node000001_Node000002" class="edge">
<title>Node1&#45;&gt;Node2</title>
<g id="a_edge1_Node000001_Node000002"><a xlink:title=" ">
<path fill="none" stroke="#63b8ff" d="M282.81,-177.16C263.25,-206.15 222.46,-260.07 173.5,-287.62 167.8,-290.83 161.59,-293.47 155.22,-295.64"/>
<polygon fill="#63b8ff" stroke="#63b8ff" points="285.62,-179.25 288.19,-168.97 279.77,-175.4 285.62,-179.25"/>
</a>
</g>
</g>
<!-- Node3 -->
<g id="Node000003" class="node">
<title>Node3</title>
<g id="a_Node000003"><a xlink:href="../../dc/d89/namespace_gam_r_1_1_spect.html#ac28aecfca0ea36bb200357332620c979" target="_top" xlink:title=" ">
<polygon fill="white" stroke="#666666" points="173.5,-278.25 0,-278.25 0,-259 173.5,-259 173.5,-278.25"/>
<text text-anchor="middle" x="86.75" y="-264.75" font-family="Helvetica,sans-Serif" font-size="10.00">GamR::Spect::BackgroundSubtractX</text>
</a>
</g>
</g>
<!-- Node1&#45;&gt;Node3 -->
<g id="edge2_Node000001_Node000003" class="edge">
<title>Node1&#45;&gt;Node3</title>
<g id="a_edge2_Node000001_Node000003"><a xlink:title=" ">
<path fill="none" stroke="#63b8ff" d="M277.38,-175.49C255.05,-196.75 214.73,-231.74 173.5,-250.62 166.59,-253.79 159.1,-256.41 151.53,-258.57"/>
<polygon fill="#63b8ff" stroke="#63b8ff" points="279.72,-178.1 284.45,-168.62 274.84,-173.08 279.72,-178.1"/>
</a>
</g>
</g>
<!-- Node4 -->
<g id="Node000004" class="node">
<title>Node4</title>
<g id="a_Node000004"><a xlink:href="../../dc/d89/namespace_gam_r_1_1_spect.html#a455e119a674e52ef5070c2ff156aed53" target="_top" xlink:title=" ">
<polygon fill="white" stroke="#666666" points="173.5,-241.25 0,-241.25 0,-222 173.5,-222 173.5,-241.25"/>
<text text-anchor="middle" x="86.75" y="-227.75" font-family="Helvetica,sans-Serif" font-size="10.00">GamR::Spect::BackgroundSubtractX</text>
</a>
</g>
</g>
<!-- Node1&#45;&gt;Node4 -->
<g id="edge3_Node000001_Node000004" class="edge">
<title>Node1&#45;&gt;Node4</title>
<g id="a_edge3_Node000001_Node000004"><a xlink:title=" ">
<path fill="none" stroke="#63b8ff" d="M266.88,-172.89C242.66,-185.37 206.6,-202.69 173.5,-213.62 164.26,-216.68 154.27,-219.33 144.5,-221.59"/>
<polygon fill="#63b8ff" stroke="#63b8ff" points="268.22,-176.14 275.46,-168.4 264.98,-169.93 268.22,-176.14"/>
</a>
</g>
</g>
<!-- Node5 -->
<g id="Node000005" class="node">
<title>Node5</title>
<g id="a_Node000005"><a xlink:href="../../dc/d89/namespace_gam_r_1_1_spect.html#a93f3a6a85d6f7ae25c767d3826e29607" target="_top" xlink:title=" ">
<polygon fill="white" stroke="#666666" points="173.5,-204.25 0,-204.25 0,-185 173.5,-185 173.5,-204.25"/>
<text text-anchor="middle" x="86.75" y="-190.75" font-family="Helvetica,sans-Serif" font-size="10.00">GamR::Spect::BackgroundSubtractX</text>
</a>
</g>
</g>
<!-- Node1&#45;&gt;Node5 -->
<g id="edge4_Node000001_Node000005" class="edge">
<title>Node1&#45;&gt;Node5</title>
<g id="a_edge4_Node000001_Node000005"><a xlink:title=" ">
<path fill="none" stroke="#63b8ff" d="M227.3,-169.74C200.47,-174.53 169.99,-179.96 144.38,-184.53"/>
<polygon fill="#63b8ff" stroke="#63b8ff" points="227.83,-173.2 237.06,-168 226.6,-166.31 227.83,-173.2"/>
</a>
</g>
</g>
<!-- Node6 -->
<g id="Node000006" class="node">
<title>Node6</title>
<g id="a_Node000006"><a xlink:href="../../dc/d89/namespace_gam_r_1_1_spect.html#ad69fd1bb182c3425d44c6ed261c3a707" target="_top" xlink:title=" ">
<polygon fill="white" stroke="#666666" points="173.5,-167.25 0,-167.25 0,-148 173.5,-148 173.5,-167.25"/>
<text text-anchor="middle" x="86.75" y="-153.75" font-family="Helvetica,sans-Serif" font-size="10.00">GamR::Spect::BackgroundSubtractX</text>
</a>
</g>
</g>
<!-- Node1&#45;&gt;Node6 -->
<g id="edge5_Node000001_Node000006" class="edge">
<title>Node1&#45;&gt;Node6</title>
<g id="a_edge5_Node000001_Node000006"><a xlink:title=" ">
<path fill="none" stroke="#63b8ff" d="M197.75,-157.62C189.71,-157.62 181.62,-157.62 173.68,-157.62"/>
<polygon fill="#63b8ff" stroke="#63b8ff" points="197.54,-161.13 207.54,-157.63 197.54,-154.13 197.54,-161.13"/>
</a>
</g>
</g>
<!-- Node7 -->
<g id="Node000007" class="node">
<title>Node7</title>
<g id="a_Node000007"><a xlink:href="../../dc/d89/namespace_gam_r_1_1_spect.html#a8f877017aa2ddc563b123091ac4510f5" target="_top" xlink:title=" ">
<polygon fill="white" stroke="#666666" points="173.5,-130.25 0,-130.25 0,-111 173.5,-111 173.5,-130.25"/>
<text text-anchor="middle" x="86.75" y="-116.75" font-family="Helvetica,sans-Serif" font-size="10.00">GamR::Spect::BackgroundSubtractX</text>
</a>
</g>
</g>
<!-- Node1&#45;&gt;Node7 -->
<g id="edge6_Node000001_Node000007" class="edge">
<title>Node1&#45;&gt;Node7</title>
<g id="a_edge6_Node000001_Node000007"><a xlink:title=" ">
<path fill="none" stroke="#63b8ff" d="M227.3,-145.51C200.47,-140.72 169.99,-135.29 144.38,-130.72"/>
<polygon fill="#63b8ff" stroke="#63b8ff" points="226.6,-148.94 237.06,-147.25 227.83,-142.05 226.6,-148.94"/>
</a>
</g>
</g>
<!-- Node8 -->
<g id="Node000008" class="node">
<title>Node8</title>
<g id="a_Node000008"><a xlink:href="../../dc/d89/namespace_gam_r_1_1_spect.html#add80c1be39bf712a6792454b88bba02d" target="_top" xlink:title=" ">
<polygon fill="white" stroke="#666666" points="173.5,-93.25 0,-93.25 0,-74 173.5,-74 173.5,-93.25"/>
<text text-anchor="middle" x="86.75" y="-79.75" font-family="Helvetica,sans-Serif" font-size="10.00">GamR::Spect::BackgroundSubtractX</text>
</a>
</g>
</g>
<!-- Node1&#45;&gt;Node8 -->
<g id="edge7_Node000001_Node000008" class="edge">
<title>Node1&#45;&gt;Node8</title>
<g id="a_edge7_Node000001_Node000008"><a xlink:title=" ">
<path fill="none" stroke="#63b8ff" d="M266.88,-142.36C242.66,-129.88 206.6,-112.56 173.5,-101.62 164.26,-98.57 154.27,-95.92 144.5,-93.66"/>
<polygon fill="#63b8ff" stroke="#63b8ff" points="264.98,-145.32 275.46,-146.85 268.22,-139.11 264.98,-145.32"/>
</a>
</g>
</g>
<!-- Node9 -->
<g id="Node000009" class="node">
<title>Node9</title>
<g id="a_Node000009"><a xlink:href="../../d0/d17/_abbreviations_8cc.html#aef6a8ea45b0f28181d783909d2ba41e9" target="_top" xlink:title=" ">
<polygon fill="white" stroke="#666666" points="102.25,-56.25 71.25,-56.25 71.25,-37 102.25,-37 102.25,-56.25"/>
<text text-anchor="middle" x="86.75" y="-42.75" font-family="Helvetica,sans-Serif" font-size="10.00">bsx</text>
</a>
</g>
</g>
<!-- Node1&#45;&gt;Node9 -->
<g id="edge8_Node000001_Node000009" class="edge">
<title>Node1&#45;&gt;Node9</title>
<g id="a_edge8_Node000001_Node000009"><a xlink:title=" ">
<path fill="none" stroke="#63b8ff" d="M277.38,-139.76C255.05,-118.5 214.73,-83.51 173.5,-64.62 150.13,-53.92 120.24,-49.5 102.63,-47.74"/>
<polygon fill="#63b8ff" stroke="#63b8ff" points="274.84,-142.17 284.45,-146.63 279.72,-137.15 274.84,-142.17"/>
</a>
</g>
</g>
<!-- Node10 -->
<g id="Node000010" class="node">
<title>Node10</title>
<g id="a_Node000010"><a xlink:href="../../d0/d17/_abbreviations_8cc.html#abfc712cfb8b010c872d04159d1865eb8" target="_top" xlink:title=" ">
<polygon fill="white" stroke="#666666" points="102.25,-19.25 71.25,-19.25 71.25,0 102.25,0 102.25,-19.25"/>
<text text-anchor="middle" x="86.75" y="-5.75" font-family="Helvetica,sans-Serif" font-size="10.00">bsx</text>
</a>
</g>
</g>
<!-- Node1&#45;&gt;Node10 -->
<g id="edge9_Node000001_Node000010" class="edge">
<title>Node1&#45;&gt;Node10</title>
<g id="a_edge9_Node000001_Node000010"><a xlink:title=" ">
<path fill="none" stroke="#63b8ff" d="M282.81,-138.09C263.25,-109.1 222.46,-55.18 173.5,-27.62 150.96,-14.94 120.54,-11.17 102.65,-10.06"/>
<polygon fill="#63b8ff" stroke="#63b8ff" points="279.77,-139.85 288.19,-146.28 285.62,-136 279.77,-139.85"/>
</a>
</g>
</g>
</g>
</svg>
