<?xml version="1.0" encoding="UTF-8" standalone="no"?>
<!DOCTYPE svg PUBLIC "-//W3C//DTD SVG 1.1//EN"
 "http://www.w3.org/Graphics/SVG/1.1/DTD/svg11.dtd">
<!-- Generated by graphviz version 9.0.0 (20230911.1827)
 -->
<!-- Title: GamR::Spect::NormBackSub Pages: 1 -->
<svg width="523pt" height="64pt"
 viewBox="0.00 0.00 522.50 64.25" xmlns="http://www.w3.org/2000/svg" xmlns:xlink="http://www.w3.org/1999/xlink">
<g id="graph0" class="graph" transform="scale(1 1) rotate(0) translate(4 60.25)">
<title>GamR::Spect::NormBackSub</title>
<!-- Node1 -->
<g id="Node000001" class="node">
<title>Node1</title>
<g id="a_Node000001"><a xlink:title=" ">
<polygon fill="#999999" stroke="#666666" points="142,-37.25 0,-37.25 0,-18 142,-18 142,-37.25"/>
<text text-anchor="middle" x="71" y="-23.75" font-family="Helvetica,sans-Serif" font-size="10.00">GamR::Spect::NormBackSub</text>
</a>
</g>
</g>
<!-- Node2 -->
<g id="Node000002" class="node">
<title>Node2</title>
<g id="a_Node000002"><a xlink:href="../../d0/d74/group___t_k.html#ga9db1ed9dd4cd4818f5399fbddf5ee388" target="_top" xlink:title=" ">
<polygon fill="white" stroke="#666666" points="332.75,-37.25 178,-37.25 178,-18 332.75,-18 332.75,-37.25"/>
<text text-anchor="middle" x="255.38" y="-23.75" font-family="Helvetica,sans-Serif" font-size="10.00">GamR::TK::Gate::NormBackSub</text>
</a>
</g>
</g>
<!-- Node1&#45;&gt;Node2 -->
<g id="edge1_Node000001_Node000002" class="edge">
<title>Node1&#45;&gt;Node2</title>
<g id="a_edge1_Node000001_Node000002"><a xlink:title=" ">
<path fill="none" stroke="#63b8ff" d="M142.25,-27.62C150.16,-27.62 158.3,-27.62 166.4,-27.62"/>
<polygon fill="#63b8ff" stroke="#63b8ff" points="166.28,-31.13 176.28,-27.63 166.28,-24.13 166.28,-31.13"/>
</a>
</g>
</g>
<!-- Node3 -->
<g id="Node000003" class="node">
<title>Node3</title>
<g id="a_Node000003"><a xlink:href="../../d0/d74/group___t_k.html#ga19210db8af7134007ff4fc26878b5dc2" target="_top" xlink:title=" ">
<polygon fill="white" stroke="#666666" points="514.5,-56.25 368.75,-56.25 368.75,-37 514.5,-37 514.5,-56.25"/>
<text text-anchor="middle" x="441.62" y="-42.75" font-family="Helvetica,sans-Serif" font-size="10.00">GamR::TK::Gate::GetBinWidth</text>
</a>
</g>
</g>
<!-- Node2&#45;&gt;Node3 -->
<g id="edge2_Node000002_Node000003" class="edge">
<title>Node2&#45;&gt;Node3</title>
<g id="a_edge2_Node000002_Node000003"><a xlink:title=" ">
<path fill="none" stroke="#63b8ff" d="M333.18,-35.55C341.1,-36.36 349.17,-37.19 357.16,-38.02"/>
<polygon fill="#63b8ff" stroke="#63b8ff" points="356.56,-41.47 366.86,-39.02 357.28,-34.51 356.56,-41.47"/>
</a>
</g>
</g>
<!-- Node4 -->
<g id="Node000004" class="node">
<title>Node4</title>
<g id="a_Node000004"><a xlink:href="../../d0/d74/group___t_k.html#gaae543a7d595e5faacbfb4da05718e3f3" target="_top" xlink:title=" ">
<polygon fill="white" stroke="#666666" points="511.12,-19.25 372.12,-19.25 372.12,0 511.12,0 511.12,-19.25"/>
<text text-anchor="middle" x="441.62" y="-5.75" font-family="Helvetica,sans-Serif" font-size="10.00">GamR::TK::Gate::GetIntegral</text>
</a>
</g>
</g>
<!-- Node2&#45;&gt;Node4 -->
<g id="edge3_Node000002_Node000004" class="edge">
<title>Node2&#45;&gt;Node4</title>
<g id="a_edge3_Node000002_Node000004"><a xlink:title=" ">
<path fill="none" stroke="#63b8ff" d="M333.18,-20.12C342.21,-19.24 351.43,-18.34 360.5,-17.45"/>
<polygon fill="#63b8ff" stroke="#63b8ff" points="360.76,-20.94 370.37,-16.49 360.08,-13.98 360.76,-20.94"/>
</a>
</g>
</g>
</g>
</svg>
