<?xml version="1.0" encoding="UTF-8" standalone="no"?>
<!DOCTYPE svg PUBLIC "-//W3C//DTD SVG 1.1//EN"
 "http://www.w3.org/Graphics/SVG/1.1/DTD/svg11.dtd">
<!-- Generated by graphviz version 6.0.2 (20221011.1828)
 -->
<!-- Title: GamR::Spect::CountsBS Pages: 1 -->
<svg width="631pt" height="198pt"
 viewBox="0.00 0.00 631.00 198.00" xmlns="http://www.w3.org/2000/svg" xmlns:xlink="http://www.w3.org/1999/xlink">
<g id="graph0" class="graph" transform="scale(1 1) rotate(0) translate(4 194)">
<title>GamR::Spect::CountsBS</title>
<!-- Node1 -->
<g id="node1" class="node">
<title>Node1</title>
<g id="a_node1"><a xlink:title=" ">
<polygon fill="#999999" stroke="#666666" points="123,-107.5 0,-107.5 0,-88.5 123,-88.5 123,-107.5"/>
<text text-anchor="middle" x="61.5" y="-95.5" font-family="Helvetica,sans-Serif" font-size="10.00">GamR::Spect::CountsBS</text>
</a>
</g>
</g>
<!-- Node2 -->
<g id="node2" class="node">
<title>Node2</title>
<g id="a_node2"><a xlink:href="../../dc/d89/namespace_gam_r_1_1_spect.html#a4be92f8a1a93dce88a3536f732eb6080" target="_top" xlink:title=" ">
<polygon fill="white" stroke="#666666" points="286.5,-144.5 163.5,-144.5 163.5,-125.5 286.5,-125.5 286.5,-144.5"/>
<text text-anchor="middle" x="225" y="-132.5" font-family="Helvetica,sans-Serif" font-size="10.00">GamR::Spect::CountsBS</text>
</a>
</g>
</g>
<!-- Node1&#45;&gt;Node2 -->
<g id="edge1" class="edge">
<title>Node1&#45;&gt;Node2</title>
<path fill="none" stroke="#63b8ff" d="M104.09,-107.53C124.92,-112.3 150.34,-118.12 172.4,-123.18"/>
<polygon fill="#63b8ff" stroke="#63b8ff" points="171.74,-126.62 182.27,-125.44 173.3,-119.79 171.74,-126.62"/>
</g>
<!-- Node5 -->
<g id="node5" class="node">
<title>Node5</title>
<g id="a_node5"><a xlink:href="../../d0/db7/namespace_gam_r_1_1_utils.html#a31f74a9ca644d560dc14e19c4dbd773b" target="_top" xlink:title=" ">
<polygon fill="white" stroke="#666666" points="284.5,-107.5 165.5,-107.5 165.5,-88.5 284.5,-88.5 284.5,-107.5"/>
<text text-anchor="middle" x="225" y="-95.5" font-family="Helvetica,sans-Serif" font-size="10.00">GamR::Utils::GetHist1D</text>
</a>
</g>
</g>
<!-- Node1&#45;&gt;Node5 -->
<g id="edge4" class="edge">
<title>Node1&#45;&gt;Node5</title>
<path fill="none" stroke="#63b8ff" d="M123.1,-98C133.61,-98 144.61,-98 155.32,-98"/>
<polygon fill="#63b8ff" stroke="#63b8ff" points="155.47,-101.5 165.47,-98 155.47,-94.5 155.47,-101.5"/>
</g>
<!-- Node6 -->
<g id="node6" class="node">
<title>Node6</title>
<g id="a_node6"><a xlink:href="../../df/d6f/class_gam_r_1_1_nucleus_1_1_transition.html#a8396c7f1f74d0314bf9e4c4cfe07e033" target="_top" xlink:title=" ">
<polygon fill="white" stroke="#666666" points="291,-70 159,-70 159,-40 291,-40 291,-70"/>
<text text-anchor="start" x="167" y="-58" font-family="Helvetica,sans-Serif" font-size="10.00">GamR::Nucleus::Transition</text>
<text text-anchor="middle" x="225" y="-47" font-family="Helvetica,sans-Serif" font-size="10.00">::SetTransition</text>
</a>
</g>
</g>
<!-- Node1&#45;&gt;Node6 -->
<g id="edge5" class="edge">
<title>Node1&#45;&gt;Node6</title>
<path fill="none" stroke="#63b8ff" d="M98.34,-88.46C115.83,-83.8 137.44,-78.05 157.78,-72.63"/>
<polygon fill="#63b8ff" stroke="#63b8ff" points="158.88,-75.96 167.64,-70.01 157.08,-69.2 158.88,-75.96"/>
</g>
<!-- Node3 -->
<g id="node3" class="node">
<title>Node3</title>
<g id="a_node3"><a xlink:href="../../df/d6f/class_gam_r_1_1_nucleus_1_1_transition.html#afd83986d64ce37818c1d1dade9881e75" target="_top" xlink:title=" ">
<polygon fill="white" stroke="#666666" points="459,-190 327,-190 327,-160 459,-160 459,-190"/>
<text text-anchor="start" x="335" y="-178" font-family="Helvetica,sans-Serif" font-size="10.00">GamR::Nucleus::Transition</text>
<text text-anchor="middle" x="393" y="-167" font-family="Helvetica,sans-Serif" font-size="10.00">::ApplyCounts</text>
</a>
</g>
</g>
<!-- Node2&#45;&gt;Node3 -->
<g id="edge2" class="edge">
<title>Node2&#45;&gt;Node3</title>
<path fill="none" stroke="#63b8ff" d="M265.76,-144.58C281.94,-148.48 301.16,-153.11 319.66,-157.57"/>
<polygon fill="#63b8ff" stroke="#63b8ff" points="319.01,-161.01 329.55,-159.95 320.65,-154.21 319.01,-161.01"/>
</g>
<!-- Node4 -->
<g id="node4" class="node">
<title>Node4</title>
<g id="a_node4"><a xlink:href="../../df/d6f/class_gam_r_1_1_nucleus_1_1_transition.html#a3f8c39fbbcecc2006167727936830ae0" target="_top" xlink:title=" ">
<polygon fill="white" stroke="#666666" points="459,-142 327,-142 327,-112 459,-112 459,-142"/>
<text text-anchor="start" x="335" y="-130" font-family="Helvetica,sans-Serif" font-size="10.00">GamR::Nucleus::Transition</text>
<text text-anchor="middle" x="393" y="-119" font-family="Helvetica,sans-Serif" font-size="10.00">::ApplyCountsError</text>
</a>
</g>
</g>
<!-- Node2&#45;&gt;Node4 -->
<g id="edge3" class="edge">
<title>Node2&#45;&gt;Node4</title>
<path fill="none" stroke="#63b8ff" d="M286.87,-132.07C296.65,-131.59 306.88,-131.1 316.95,-130.62"/>
<polygon fill="#63b8ff" stroke="#63b8ff" points="317.13,-134.11 326.95,-130.13 316.79,-127.12 317.13,-134.11"/>
</g>
<!-- Node7 -->
<g id="node7" class="node">
<title>Node7</title>
<g id="a_node7"><a xlink:href="../../df/d6f/class_gam_r_1_1_nucleus_1_1_transition.html#a0bdde1b1141578330beeab42b8b5dbc4" target="_top" xlink:title=" ">
<polygon fill="white" stroke="#666666" points="459,-78 327,-78 327,-48 459,-48 459,-78"/>
<text text-anchor="start" x="335" y="-66" font-family="Helvetica,sans-Serif" font-size="10.00">GamR::Nucleus::Transition</text>
<text text-anchor="middle" x="393" y="-55" font-family="Helvetica,sans-Serif" font-size="10.00">::SetBackground</text>
</a>
</g>
</g>
<!-- Node6&#45;&gt;Node7 -->
<g id="edge6" class="edge">
<title>Node6&#45;&gt;Node7</title>
<path fill="none" stroke="#63b8ff" d="M291.13,-58.14C299.46,-58.54 308.04,-58.95 316.52,-59.36"/>
<polygon fill="#63b8ff" stroke="#63b8ff" points="316.63,-62.87 326.78,-59.86 316.96,-55.88 316.63,-62.87"/>
</g>
<!-- Node9 -->
<g id="node9" class="node">
<title>Node9</title>
<g id="a_node9"><a xlink:href="../../df/d6f/class_gam_r_1_1_nucleus_1_1_transition.html#a55eeee9e8bc166f0ef8cce260b3da59b" target="_top" xlink:title=" ">
<polygon fill="white" stroke="#666666" points="459,-30 327,-30 327,0 459,0 459,-30"/>
<text text-anchor="start" x="335" y="-18" font-family="Helvetica,sans-Serif" font-size="10.00">GamR::Nucleus::Transition</text>
<text text-anchor="middle" x="393" y="-7" font-family="Helvetica,sans-Serif" font-size="10.00">::SetPeak</text>
</a>
</g>
</g>
<!-- Node6&#45;&gt;Node9 -->
<g id="edge9" class="edge">
<title>Node6&#45;&gt;Node9</title>
<path fill="none" stroke="#63b8ff" d="M288.28,-39.99C298.53,-37.52 309.23,-34.94 319.7,-32.42"/>
<polygon fill="#63b8ff" stroke="#63b8ff" points="320.74,-35.77 329.64,-30.03 319.1,-28.97 320.74,-35.77"/>
</g>
<!-- Node8 -->
<g id="node8" class="node">
<title>Node8</title>
<g id="a_node8"><a xlink:href="../../d0/d74/group___t_k.html#ga78f4477af7c95058e8a572065086f68a" target="_top" xlink:title=" ">
<polygon fill="white" stroke="#666666" points="623,-48.5 495,-48.5 495,-29.5 623,-29.5 623,-48.5"/>
<text text-anchor="middle" x="559" y="-36.5" font-family="Helvetica,sans-Serif" font-size="10.00">GamR::TK::Gate::SetGate</text>
</a>
</g>
</g>
<!-- Node7&#45;&gt;Node8 -->
<g id="edge7" class="edge">
<title>Node7&#45;&gt;Node8</title>
<path fill="none" stroke="#63b8ff" d="M459.29,-53.45C467.7,-52.21 476.35,-50.95 484.88,-49.7"/>
<polygon fill="#63b8ff" stroke="#63b8ff" points="485.42,-53.16 494.81,-48.25 484.41,-46.23 485.42,-53.16"/>
</g>
<!-- Node8&#45;&gt;Node8 -->
<g id="edge8" class="edge">
<title>Node8&#45;&gt;Node8</title>
<path fill="none" stroke="#63b8ff" d="M533.41,-48.58C520.97,-57.23 529.5,-66.5 559,-66.5 578.36,-66.5 588.69,-62.51 589.99,-57.32"/>
<polygon fill="#63b8ff" stroke="#63b8ff" points="592.82,-55.25 584.59,-48.58 586.87,-58.93 592.82,-55.25"/>
</g>
<!-- Node9&#45;&gt;Node8 -->
<g id="edge10" class="edge">
<title>Node9&#45;&gt;Node8</title>
<path fill="none" stroke="#63b8ff" d="M459.29,-24.55C467.7,-25.79 476.35,-27.05 484.88,-28.3"/>
<polygon fill="#63b8ff" stroke="#63b8ff" points="484.41,-31.77 494.81,-29.75 485.42,-24.84 484.41,-31.77"/>
</g>
</g>
</svg>
