<?xml version="1.0" encoding="UTF-8" standalone="no"?>
<!DOCTYPE svg PUBLIC "-//W3C//DTD SVG 1.1//EN"
 "http://www.w3.org/Graphics/SVG/1.1/DTD/svg11.dtd">
<!-- Generated by graphviz version 9.0.0 (20230911.1827)
 -->
<!-- Title: GamR::Spect::TwoPointCalibrate Pages: 1 -->
<svg width="334pt" height="76pt"
 viewBox="0.00 0.00 334.00 75.88" xmlns="http://www.w3.org/2000/svg" xmlns:xlink="http://www.w3.org/1999/xlink">
<g id="graph0" class="graph" transform="scale(1 1) rotate(0) translate(4 71.88)">
<title>GamR::Spect::TwoPointCalibrate</title>
<!-- Node1 -->
<g id="Node000001" class="node">
<title>Node1</title>
<g id="a_Node000001"><a xlink:title=" ">
<polygon fill="#999999" stroke="#666666" points="157.75,-45.88 0,-45.88 0,-26.62 157.75,-26.62 157.75,-45.88"/>
<text text-anchor="middle" x="78.88" y="-32.38" font-family="Helvetica,sans-Serif" font-size="10.00">GamR::Spect::TwoPointCalibrate</text>
</a>
</g>
</g>
<!-- Node2 -->
<g id="Node000002" class="node">
<title>Node2</title>
<g id="a_Node000002"><a xlink:href="../../d0/db7/namespace_gam_r_1_1_utils.html#a31f74a9ca644d560dc14e19c4dbd773b" target="_top" xlink:title=" ">
<polygon fill="white" stroke="#666666" points="319.25,-67.88 200.5,-67.88 200.5,-48.62 319.25,-48.62 319.25,-67.88"/>
<text text-anchor="middle" x="259.88" y="-54.38" font-family="Helvetica,sans-Serif" font-size="10.00">GamR::Utils::GetHist1D</text>
</a>
</g>
</g>
<!-- Node1&#45;&gt;Node2 -->
<g id="edge1_Node000001_Node000002" class="edge">
<title>Node1&#45;&gt;Node2</title>
<g id="a_edge1_Node000001_Node000002"><a xlink:title=" ">
<path fill="none" stroke="#63b8ff" d="M158.13,-45.87C168.38,-47.13 178.83,-48.41 188.94,-49.65"/>
<polygon fill="#63b8ff" stroke="#63b8ff" points="188.31,-53.1 198.66,-50.85 189.16,-46.16 188.31,-53.1"/>
</a>
</g>
</g>
<!-- Node3 -->
<g id="Node000003" class="node">
<title>Node3</title>
<g id="a_Node000003"><a xlink:href="../../dc/d89/namespace_gam_r_1_1_spect.html#a0c1c0458051261537a2abe8245fdd877" target="_top" xlink:title="Scales the labels of a histogram. Preferable over GamR::Spect::Scale and GamR::Spect::ScalePoly as it...">
<polygon fill="white" stroke="#666666" points="326,-30.5 193.75,-30.5 193.75,0 326,0 326,-30.5"/>
<text text-anchor="start" x="201.75" y="-17" font-family="Helvetica,sans-Serif" font-size="10.00">GamR::Spect::ScaleLabels</text>
<text text-anchor="middle" x="259.88" y="-5.75" font-family="Helvetica,sans-Serif" font-size="10.00">Linear</text>
</a>
</g>
</g>
<!-- Node1&#45;&gt;Node3 -->
<g id="edge2_Node000001_Node000003" class="edge">
<title>Node1&#45;&gt;Node3</title>
<g id="a_edge2_Node000001_Node000003"><a xlink:title=" ">
<path fill="none" stroke="#63b8ff" d="M158.13,-27.07C166.03,-26.14 174.05,-25.2 181.93,-24.28"/>
<polygon fill="#63b8ff" stroke="#63b8ff" points="182.34,-27.75 191.86,-23.11 181.52,-20.8 182.34,-27.75"/>
</a>
</g>
</g>
</g>
</svg>
