<?xml version="1.0" encoding="UTF-8" standalone="no"?>
<!DOCTYPE svg PUBLIC "-//W3C//DTD SVG 1.1//EN"
 "http://www.w3.org/Graphics/SVG/1.1/DTD/svg11.dtd">
<!-- Generated by graphviz version 12.2.1 (20241206.2353)
 -->
<!-- Title: GamR::Spect::ContourCalc Pages: 1 -->
<svg width="523pt" height="76pt"
 viewBox="0.00 0.00 522.80 75.88" xmlns="http://www.w3.org/2000/svg" xmlns:xlink="http://www.w3.org/1999/xlink">
<g id="graph0" class="graph" transform="scale(1 1) rotate(0) translate(4 71.88)">
<title>GamR::Spect::ContourCalc</title>
<!-- Node1 -->
<g id="Node000001" class="node">
<title>Node1</title>
<g id="a_Node000001"><a xlink:title=" ">
<polygon fill="#999999" stroke="#666666" points="131.5,-45.88 0,-45.88 0,-26.62 131.5,-26.62 131.5,-45.88"/>
<text text-anchor="middle" x="65.75" y="-32.38" font-family="Helvetica,sans-Serif" font-size="10.00">GamR::Spect::ContourCalc</text>
</a>
</g>
</g>
<!-- Node2 -->
<g id="Node000002" class="node">
<title>Node2</title>
<g id="a_Node000002"><a xlink:href="../../d0/d17/_abbreviations_8cc.html#a6d5ec59ed9dad8b1a1d52615652abf81" target="_top" xlink:title=" ">
<polygon fill="white" stroke="#666666" points="196.3,-45.88 167.5,-45.88 167.5,-26.62 196.3,-26.62 196.3,-45.88"/>
<text text-anchor="middle" x="181.9" y="-32.38" font-family="Helvetica,sans-Serif" font-size="10.00">ct</text>
</a>
</g>
</g>
<!-- Node1&#45;&gt;Node2 -->
<g id="edge1_Node000001_Node000002" class="edge">
<title>Node1&#45;&gt;Node2</title>
<g id="a_edge1_Node000001_Node000002"><a xlink:title=" ">
<path fill="none" stroke="#63b8ff" d="M131.83,-36.25C140.32,-36.25 148.57,-36.25 155.81,-36.25"/>
<polygon fill="#63b8ff" stroke="#63b8ff" points="155.72,-39.75 165.72,-36.25 155.72,-32.75 155.72,-39.75"/>
</a>
</g>
</g>
<!-- Node3 -->
<g id="Node000003" class="node">
<title>Node3</title>
<g id="a_Node000003"><a xlink:href="../../dc/d89/namespace_gam_r_1_1_spect.html#a100c7a24b9e9670a79f4707d985bd259" target="_top" xlink:title=" ">
<polygon fill="white" stroke="#666666" points="341.3,-45.88 232.3,-45.88 232.3,-26.62 341.3,-26.62 341.3,-45.88"/>
<text text-anchor="middle" x="286.8" y="-32.38" font-family="Helvetica,sans-Serif" font-size="10.00">GamR::Spect::Counts</text>
</a>
</g>
</g>
<!-- Node2&#45;&gt;Node3 -->
<g id="edge2_Node000002_Node000003" class="edge">
<title>Node2&#45;&gt;Node3</title>
<g id="a_edge2_Node000002_Node000003"><a xlink:title=" ">
<path fill="none" stroke="#63b8ff" d="M196.78,-36.25C203.41,-36.25 211.87,-36.25 220.93,-36.25"/>
<polygon fill="#63b8ff" stroke="#63b8ff" points="220.67,-39.75 230.67,-36.25 220.67,-32.75 220.67,-39.75"/>
</a>
</g>
</g>
<!-- Node4 -->
<g id="Node000004" class="node">
<title>Node4</title>
<g id="a_Node000004"><a xlink:href="../../d0/d74/group___t_k.html#ga4607d5e3d8f5d83d75f4ca038572a7f8" target="_top" xlink:title=" ">
<polygon fill="white" stroke="#666666" points="514.8,-67.88 377.3,-67.88 377.3,-48.62 514.8,-48.62 514.8,-67.88"/>
<text text-anchor="middle" x="446.05" y="-54.38" font-family="Helvetica,sans-Serif" font-size="10.00">GamR::TK::Gate::GetCounts</text>
</a>
</g>
</g>
<!-- Node3&#45;&gt;Node4 -->
<g id="edge3_Node000003_Node000004" class="edge">
<title>Node3&#45;&gt;Node4</title>
<g id="a_edge3_Node000003_Node000004"><a xlink:title=" ">
<path fill="none" stroke="#63b8ff" d="M341.48,-43.76C349.31,-44.86 357.5,-46 365.71,-47.15"/>
<polygon fill="#63b8ff" stroke="#63b8ff" points="364.99,-50.58 375.38,-48.5 365.96,-43.65 364.99,-50.58"/>
</a>
</g>
</g>
<!-- Node5 -->
<g id="Node000005" class="node">
<title>Node5</title>
<g id="a_Node000005"><a xlink:href="../../d0/d74/group___t_k.html#ga0073e987a24adc053cfbf2c833d41749" target="_top" xlink:title=" ">
<polygon fill="white" stroke="#666666" points="514.8,-30.5 377.3,-30.5 377.3,0 514.8,0 514.8,-30.5"/>
<text text-anchor="start" x="385.3" y="-17" font-family="Helvetica,sans-Serif" font-size="10.00">GamR::TK::Gate::GetCounts</text>
<text text-anchor="middle" x="446.05" y="-5.75" font-family="Helvetica,sans-Serif" font-size="10.00">Error</text>
</a>
</g>
</g>
<!-- Node3&#45;&gt;Node5 -->
<g id="edge4_Node000003_Node000005" class="edge">
<title>Node3&#45;&gt;Node5</title>
<g id="a_edge4_Node000003_Node000005"><a xlink:title=" ">
<path fill="none" stroke="#63b8ff" d="M341.48,-29.08C349.31,-28.04 357.5,-26.94 365.71,-25.85"/>
<polygon fill="#63b8ff" stroke="#63b8ff" points="365.93,-29.35 375.38,-24.55 365,-22.41 365.93,-29.35"/>
</a>
</g>
</g>
</g>
</svg>
