<?xml version="1.0" encoding="UTF-8" standalone="no"?>
<!DOCTYPE svg PUBLIC "-//W3C//DTD SVG 1.1//EN"
 "http://www.w3.org/Graphics/SVG/1.1/DTD/svg11.dtd">
<!-- Generated by graphviz version 6.0.2 (20221011.1828)
 -->
<!-- Title: GamR::Spect::BackgroundSubtractX Pages: 1 -->
<svg width="364pt" height="64pt"
 viewBox="0.00 0.00 364.00 64.00" xmlns="http://www.w3.org/2000/svg" xmlns:xlink="http://www.w3.org/1999/xlink">
<g id="graph0" class="graph" transform="scale(1 1) rotate(0) translate(4 60)">
<title>GamR::Spect::BackgroundSubtractX</title>
<!-- Node1 -->
<g id="node1" class="node">
<title>Node1</title>
<g id="a_node1"><a xlink:title=" ">
<polygon fill="#999999" stroke="#666666" points="174,-37 0,-37 0,-18 174,-18 174,-37"/>
<text text-anchor="middle" x="87" y="-25" font-family="Helvetica,sans-Serif" font-size="10.00">GamR::Spect::BackgroundSubtractX</text>
</a>
</g>
</g>
<!-- Node2 -->
<g id="node2" class="node">
<title>Node2</title>
<g id="a_node2"><a xlink:href="../../d0/d74/group___t_k.html#ga6a034a8dfa2c1699aabb9e4111d79cbf" target="_top" xlink:title=" ">
<polygon fill="white" stroke="#666666" points="344,-56 222,-56 222,-37 344,-37 344,-56"/>
<text text-anchor="middle" x="283" y="-44" font-family="Helvetica,sans-Serif" font-size="10.00">GamR::TK::Gate::ApplyX</text>
</a>
</g>
</g>
<!-- Node1&#45;&gt;Node2 -->
<g id="edge1" class="edge">
<title>Node1&#45;&gt;Node2</title>
<path fill="none" stroke="#63b8ff" d="M174.22,-35.94C186.79,-37.18 199.61,-38.43 211.81,-39.63"/>
<polygon fill="#63b8ff" stroke="#63b8ff" points="211.6,-43.12 221.89,-40.61 212.28,-36.16 211.6,-43.12"/>
</g>
<!-- Node3 -->
<g id="node3" class="node">
<title>Node3</title>
<g id="a_node3"><a xlink:href="../../d0/d74/group___t_k.html#ga19210db8af7134007ff4fc26878b5dc2" target="_top" xlink:title=" ">
<polygon fill="white" stroke="#666666" points="356,-19 210,-19 210,0 356,0 356,-19"/>
<text text-anchor="middle" x="283" y="-7" font-family="Helvetica,sans-Serif" font-size="10.00">GamR::TK::Gate::GetBinWidth</text>
</a>
</g>
</g>
<!-- Node1&#45;&gt;Node3 -->
<g id="edge2" class="edge">
<title>Node1&#45;&gt;Node3</title>
<path fill="none" stroke="#63b8ff" d="M174.22,-19.5C182.71,-18.71 191.31,-17.91 199.76,-17.13"/>
<polygon fill="#63b8ff" stroke="#63b8ff" points="200.34,-20.59 209.97,-16.18 199.69,-13.62 200.34,-20.59"/>
</g>
</g>
</svg>
