<?xml version="1.0" encoding="UTF-8" standalone="no"?>
<!DOCTYPE svg PUBLIC "-//W3C//DTD SVG 1.1//EN"
 "http://www.w3.org/Graphics/SVG/1.1/DTD/svg11.dtd">
<!-- Generated by graphviz version 8.1.0 (20230707.0739)
 -->
<!-- Title: GamR::Spect::StackSpectra Pages: 1 -->
<svg width="499pt" height="82pt"
 viewBox="0.00 0.00 498.50 82.25" xmlns="http://www.w3.org/2000/svg" xmlns:xlink="http://www.w3.org/1999/xlink">
<g id="graph0" class="graph" transform="scale(1 1) rotate(0) translate(4 78.25)">
<title>GamR::Spect::StackSpectra</title>
<!-- Node1 -->
<g id="Node000001" class="node">
<title>Node1</title>
<g id="a_Node000001"><a xlink:title=" ">
<polygon fill="#999999" stroke="#666666" points="137.5,-46.25 0,-46.25 0,-27 137.5,-27 137.5,-46.25"/>
<text text-anchor="middle" x="68.75" y="-32.75" font-family="Helvetica,sans-Serif" font-size="10.00">GamR::Spect::StackSpectra</text>
</a>
</g>
</g>
<!-- Node2 -->
<g id="Node000002" class="node">
<title>Node2</title>
<g id="a_Node000002"><a xlink:href="../../dc/d89/namespace_gam_r_1_1_spect.html#a0aad1e3c1b928bb9c61bfa9c20df882e" target="_top" xlink:title=" ">
<polygon fill="white" stroke="#666666" points="314,-74.25 173.5,-74.25 173.5,-55 314,-55 314,-74.25"/>
<text text-anchor="middle" x="243.75" y="-60.75" font-family="Helvetica,sans-Serif" font-size="10.00">GamR::Spect::List2DSpectra</text>
</a>
</g>
</g>
<!-- Node1&#45;&gt;Node2 -->
<g id="edge1_Node000001_Node000002" class="edge">
<title>Node1&#45;&gt;Node2</title>
<g id="a_edge1_Node000001_Node000002"><a xlink:title=" ">
<path fill="none" stroke="#63b8ff" d="M132.21,-46.73C144.33,-48.7 157.15,-50.77 169.58,-52.78"/>
<polygon fill="#63b8ff" stroke="#63b8ff" points="168.95,-56.39 179.38,-54.53 170.07,-49.48 168.95,-56.39"/>
</a>
</g>
</g>
<!-- Node3 -->
<g id="Node000003" class="node">
<title>Node3</title>
<g id="a_Node000003"><a xlink:href="../../dc/d89/namespace_gam_r_1_1_spect.html#ab983da62eb972889ea13491189e13913" target="_top" xlink:title=" ">
<polygon fill="white" stroke="#666666" points="312.5,-19.25 175,-19.25 175,0 312.5,0 312.5,-19.25"/>
<text text-anchor="middle" x="243.75" y="-5.75" font-family="Helvetica,sans-Serif" font-size="10.00">GamR::Spect::StackSpectra</text>
</a>
</g>
</g>
<!-- Node1&#45;&gt;Node3 -->
<g id="edge2_Node000001_Node000003" class="edge">
<title>Node1&#45;&gt;Node3</title>
<g id="a_edge2_Node000001_Node000003"><a xlink:title=" ">
<path fill="none" stroke="#63b8ff" d="M134.17,-26.57C145.02,-24.88 156.36,-23.11 167.45,-21.38"/>
<polygon fill="#63b8ff" stroke="#63b8ff" points="167.65,-24.73 176.99,-19.73 166.57,-17.82 167.65,-24.73"/>
</a>
</g>
</g>
<!-- Node3&#45;&gt;Node3 -->
<g id="edge4_Node000003_Node000003" class="edge">
<title>Node3&#45;&gt;Node3</title>
<g id="a_edge4_Node000003_Node000003"><a xlink:title=" ">
<path fill="none" stroke="#63b8ff" d="M216.35,-19.54C203.86,-28.15 212.99,-37.25 243.75,-37.25 262.5,-37.25 273.21,-33.87 275.89,-29.28"/>
<polygon fill="#63b8ff" stroke="#63b8ff" points="278.67,-28 271.15,-20.54 272.38,-31.06 278.67,-28"/>
</a>
</g>
</g>
<!-- Node4 -->
<g id="Node000004" class="node">
<title>Node4</title>
<g id="a_Node000004"><a xlink:href="../../dc/d89/namespace_gam_r_1_1_spect.html#a56e80bce5bf691212c8b7dfb76c2d2b4" target="_top" xlink:title=" ">
<polygon fill="white" stroke="#666666" points="490.5,-19.25 350,-19.25 350,0 490.5,0 490.5,-19.25"/>
<text text-anchor="middle" x="420.25" y="-5.75" font-family="Helvetica,sans-Serif" font-size="10.00">GamR::Spect::List1DSpectra</text>
</a>
</g>
</g>
<!-- Node3&#45;&gt;Node4 -->
<g id="edge3_Node000003_Node000004" class="edge">
<title>Node3&#45;&gt;Node4</title>
<g id="a_edge3_Node000003_Node000004"><a xlink:title=" ">
<path fill="none" stroke="#63b8ff" d="M312.97,-9.62C321.43,-9.62 330.15,-9.62 338.79,-9.62"/>
<polygon fill="#63b8ff" stroke="#63b8ff" points="338.65,-13.13 348.65,-9.62 338.65,-6.13 338.65,-13.13"/>
</a>
</g>
</g>
</g>
</svg>
