<?xml version="1.0" encoding="UTF-8" standalone="no"?>
<!DOCTYPE svg PUBLIC "-//W3C//DTD SVG 1.1//EN"
 "http://www.w3.org/Graphics/SVG/1.1/DTD/svg11.dtd">
<!-- Generated by graphviz version 5.0.0 (20220708.1001)
 -->
<!-- Title: GamR::Spect::Counts Pages: 1 -->
<svg width="456pt" height="144pt"
 viewBox="0.00 0.00 456.00 144.00" xmlns="http://www.w3.org/2000/svg" xmlns:xlink="http://www.w3.org/1999/xlink">
<g id="graph0" class="graph" transform="scale(1 1) rotate(0) translate(4 140)">
<title>GamR::Spect::Counts</title>
<polygon fill="white" stroke="transparent" points="-4,4 -4,-140 452,-140 452,4 -4,4"/>
<!-- Node1 -->
<g id="node1" class="node">
<title>Node1</title>
<g id="a_node1"><a xlink:title=" ">
<polygon fill="#bfbfbf" stroke="black" points="0,-56.5 0,-75.5 110,-75.5 110,-56.5 0,-56.5"/>
<text text-anchor="middle" x="55" y="-63.5" font-family="Helvetica,sans-Serif" font-size="10.00">GamR::Spect::Counts</text>
</a>
</g>
</g>
<!-- Node2 -->
<g id="node2" class="node">
<title>Node2</title>
<g id="a_node2"><a xlink:href="../../dc/d89/namespace_gam_r_1_1_spect.html#a100c7a24b9e9670a79f4707d985bd259" target="_top" xlink:title=" ">
<polygon fill="white" stroke="black" points="155,-94.5 155,-113.5 265,-113.5 265,-94.5 155,-94.5"/>
<text text-anchor="middle" x="210" y="-101.5" font-family="Helvetica,sans-Serif" font-size="10.00">GamR::Spect::Counts</text>
</a>
</g>
</g>
<!-- Node1&#45;&gt;Node2 -->
<g id="edge1" class="edge">
<title>Node1&#45;&gt;Node2</title>
<path fill="none" stroke="midnightblue" d="M94.61,-75.59C114.71,-80.58 139.48,-86.73 160.82,-92.03"/>
<polygon fill="midnightblue" stroke="midnightblue" points="160.12,-95.47 170.67,-94.48 161.81,-88.67 160.12,-95.47"/>
</g>
<!-- Node5 -->
<g id="node5" class="node">
<title>Node5</title>
<g id="a_node5"><a xlink:href="../../d0/db7/namespace_gam_r_1_1_utils.html#a31f74a9ca644d560dc14e19c4dbd773b" target="_top" xlink:title=" ">
<polygon fill="white" stroke="black" points="150.5,-56.5 150.5,-75.5 269.5,-75.5 269.5,-56.5 150.5,-56.5"/>
<text text-anchor="middle" x="210" y="-63.5" font-family="Helvetica,sans-Serif" font-size="10.00">GamR::Utils::GetHist1D</text>
</a>
</g>
</g>
<!-- Node1&#45;&gt;Node5 -->
<g id="edge4" class="edge">
<title>Node1&#45;&gt;Node5</title>
<path fill="none" stroke="midnightblue" d="M110.37,-66C120,-66 130.14,-66 140.1,-66"/>
<polygon fill="midnightblue" stroke="midnightblue" points="140.39,-69.5 150.39,-66 140.39,-62.5 140.39,-69.5"/>
</g>
<!-- Node6 -->
<g id="node6" class="node">
<title>Node6</title>
<g id="a_node6"><a xlink:href="../../d0/d74/group___t_k.html#ga78f4477af7c95058e8a572065086f68a" target="_top" xlink:title=" ">
<polygon fill="white" stroke="black" points="146,-0.5 146,-19.5 274,-19.5 274,-0.5 146,-0.5"/>
<text text-anchor="middle" x="210" y="-7.5" font-family="Helvetica,sans-Serif" font-size="10.00">GamR::TK::Gate::SetGate</text>
</a>
</g>
</g>
<!-- Node1&#45;&gt;Node6 -->
<g id="edge5" class="edge">
<title>Node1&#45;&gt;Node6</title>
<path fill="none" stroke="midnightblue" d="M82.3,-56.37C107.41,-47.18 145.44,-33.26 173.29,-23.07"/>
<polygon fill="midnightblue" stroke="midnightblue" points="174.85,-26.23 183.04,-19.5 172.45,-19.65 174.85,-26.23"/>
</g>
<!-- Node3 -->
<g id="node3" class="node">
<title>Node3</title>
<g id="a_node3"><a xlink:href="../../d0/d74/group___t_k.html#ga4607d5e3d8f5d83d75f4ca038572a7f8" target="_top" xlink:title=" ">
<polygon fill="white" stroke="black" points="310,-116.5 310,-135.5 448,-135.5 448,-116.5 310,-116.5"/>
<text text-anchor="middle" x="379" y="-123.5" font-family="Helvetica,sans-Serif" font-size="10.00">GamR::TK::Gate::GetCounts</text>
</a>
</g>
</g>
<!-- Node2&#45;&gt;Node3 -->
<g id="edge2" class="edge">
<title>Node2&#45;&gt;Node3</title>
<path fill="none" stroke="midnightblue" d="M265.22,-111.14C276.2,-112.59 287.94,-114.14 299.56,-115.67"/>
<polygon fill="midnightblue" stroke="midnightblue" points="299.34,-119.17 309.71,-117 300.26,-112.23 299.34,-119.17"/>
</g>
<!-- Node4 -->
<g id="node4" class="node">
<title>Node4</title>
<g id="a_node4"><a xlink:href="../../d0/d74/group___t_k.html#ga0073e987a24adc053cfbf2c833d41749" target="_top" xlink:title=" ">
<polygon fill="white" stroke="black" points="310,-67 310,-97 448,-97 448,-67 310,-67"/>
<text text-anchor="start" x="318" y="-85" font-family="Helvetica,sans-Serif" font-size="10.00">GamR::TK::Gate::GetCounts</text>
<text text-anchor="middle" x="379" y="-74" font-family="Helvetica,sans-Serif" font-size="10.00">Error</text>
</a>
</g>
</g>
<!-- Node2&#45;&gt;Node4 -->
<g id="edge3" class="edge">
<title>Node2&#45;&gt;Node4</title>
<path fill="none" stroke="midnightblue" d="M265.22,-96.86C276.2,-95.41 287.94,-93.86 299.56,-92.33"/>
<polygon fill="midnightblue" stroke="midnightblue" points="300.26,-95.77 309.71,-91 299.34,-88.83 300.26,-95.77"/>
</g>
<!-- Node6&#45;&gt;Node6 -->
<g id="edge6" class="edge">
<title>Node6&#45;&gt;Node6</title>
<path fill="none" stroke="midnightblue" d="M186.26,-19.76C174.72,-28.57 182.63,-38 210,-38 227.96,-38 237.54,-33.94 238.75,-28.65"/>
<polygon fill="midnightblue" stroke="midnightblue" points="241.69,-26.75 233.74,-19.76 235.59,-30.19 241.69,-26.75"/>
</g>
</g>
</svg>
