<?xml version="1.0" encoding="UTF-8" standalone="no"?>
<!DOCTYPE svg PUBLIC "-//W3C//DTD SVG 1.1//EN"
 "http://www.w3.org/Graphics/SVG/1.1/DTD/svg11.dtd">
<!-- Generated by graphviz version 6.0.2 (20221011.1828)
 -->
<!-- Title: GamR::Spect::NormSpectra Pages: 1 -->
<svg width="485pt" height="119pt"
 viewBox="0.00 0.00 485.00 119.00" xmlns="http://www.w3.org/2000/svg" xmlns:xlink="http://www.w3.org/1999/xlink">
<g id="graph0" class="graph" transform="scale(1 1) rotate(0) translate(4 115)">
<title>GamR::Spect::NormSpectra</title>
<!-- Node1 -->
<g id="node1" class="node">
<title>Node1</title>
<g id="a_node1"><a xlink:title=" ">
<polygon fill="#999999" stroke="#666666" points="137,-74 0,-74 0,-55 137,-55 137,-74"/>
<text text-anchor="middle" x="68.5" y="-62" font-family="Helvetica,sans-Serif" font-size="10.00">GamR::Spect::NormSpectra</text>
</a>
</g>
</g>
<!-- Node2 -->
<g id="node2" class="node">
<title>Node2</title>
<g id="a_node2"><a xlink:href="../../d0/db7/namespace_gam_r_1_1_utils.html#a80902df5d8d695b20de04c64ed685df2" target="_top" xlink:title=" ">
<polygon fill="white" stroke="#666666" points="299.5,-111 174.5,-111 174.5,-92 299.5,-92 299.5,-111"/>
<text text-anchor="middle" x="237" y="-99" font-family="Helvetica,sans-Serif" font-size="10.00">GamR::Utils::GetHists1D</text>
</a>
</g>
</g>
<!-- Node1&#45;&gt;Node2 -->
<g id="edge1" class="edge">
<title>Node1&#45;&gt;Node2</title>
<path fill="none" stroke="#63b8ff" d="M112.38,-74.03C133.95,-78.82 160.29,-84.68 183.11,-89.75"/>
<polygon fill="#63b8ff" stroke="#63b8ff" points="182.46,-93.19 192.98,-91.94 183.98,-86.35 182.46,-93.19"/>
</g>
<!-- Node3 -->
<g id="node3" class="node">
<title>Node3</title>
<g id="a_node3"><a xlink:href="../../d0/d74/group___t_k.html#gab5b438142cc5953f3d17e77e81ec7f2e" target="_top" xlink:title=" ">
<polygon fill="white" stroke="#666666" points="295,-74 179,-74 179,-55 295,-55 295,-74"/>
<text text-anchor="middle" x="237" y="-62" font-family="Helvetica,sans-Serif" font-size="10.00">GamR::TK::Gate::Norm</text>
</a>
</g>
</g>
<!-- Node1&#45;&gt;Node3 -->
<g id="edge2" class="edge">
<title>Node1&#45;&gt;Node3</title>
<path fill="none" stroke="#63b8ff" d="M137.22,-64.5C147.62,-64.5 158.35,-64.5 168.74,-64.5"/>
<polygon fill="#63b8ff" stroke="#63b8ff" points="168.99,-68 178.99,-64.5 168.99,-61 168.99,-68"/>
</g>
<!-- Node5 -->
<g id="node5" class="node">
<title>Node5</title>
<g id="a_node5"><a xlink:href="../../d0/d74/group___t_k.html#ga78f4477af7c95058e8a572065086f68a" target="_top" xlink:title=" ">
<polygon fill="white" stroke="#666666" points="301,-19 173,-19 173,0 301,0 301,-19"/>
<text text-anchor="middle" x="237" y="-7" font-family="Helvetica,sans-Serif" font-size="10.00">GamR::TK::Gate::SetGate</text>
</a>
</g>
</g>
<!-- Node1&#45;&gt;Node5 -->
<g id="edge4" class="edge">
<title>Node1&#45;&gt;Node5</title>
<path fill="none" stroke="#63b8ff" d="M98.5,-54.92C125.87,-45.88 167.11,-32.26 197.28,-22.29"/>
<polygon fill="#63b8ff" stroke="#63b8ff" points="198.65,-25.52 207.05,-19.06 196.46,-18.88 198.65,-25.52"/>
</g>
<!-- Node4 -->
<g id="node4" class="node">
<title>Node4</title>
<g id="a_node4"><a xlink:href="../../d0/d74/group___t_k.html#gaae543a7d595e5faacbfb4da05718e3f3" target="_top" xlink:title=" ">
<polygon fill="white" stroke="#666666" points="477,-74 337,-74 337,-55 477,-55 477,-74"/>
<text text-anchor="middle" x="407" y="-62" font-family="Helvetica,sans-Serif" font-size="10.00">GamR::TK::Gate::GetIntegral</text>
</a>
</g>
</g>
<!-- Node3&#45;&gt;Node4 -->
<g id="edge3" class="edge">
<title>Node3&#45;&gt;Node4</title>
<path fill="none" stroke="#63b8ff" d="M295.35,-64.5C305.43,-64.5 316.09,-64.5 326.65,-64.5"/>
<polygon fill="#63b8ff" stroke="#63b8ff" points="326.72,-68 336.72,-64.5 326.72,-61 326.72,-68"/>
</g>
<!-- Node5&#45;&gt;Node5 -->
<g id="edge5" class="edge">
<title>Node5&#45;&gt;Node5</title>
<path fill="none" stroke="#63b8ff" d="M211.03,-19.08C198.39,-27.73 207.05,-37 237,-37 257.12,-37 267.63,-32.82 268.53,-27.45"/>
<polygon fill="#63b8ff" stroke="#63b8ff" points="271.42,-25.47 262.97,-19.08 265.59,-29.35 271.42,-25.47"/>
</g>
</g>
</svg>
