<?xml version="1.0" encoding="UTF-8" standalone="no"?>
<!DOCTYPE svg PUBLIC "-//W3C//DTD SVG 1.1//EN"
 "http://www.w3.org/Graphics/SVG/1.1/DTD/svg11.dtd">
<!-- Generated by graphviz version 2.50.0 (20220203.2022)
 -->
<!-- Title: GamR::Spect::CountsBS Pages: 1 -->
<svg width="463pt" height="134pt"
 viewBox="0.00 0.00 463.00 133.50" xmlns="http://www.w3.org/2000/svg" xmlns:xlink="http://www.w3.org/1999/xlink">
<g id="graph0" class="graph" transform="scale(1 1) rotate(0) translate(4 129.5)">
<title>GamR::Spect::CountsBS</title>
<polygon fill="white" stroke="transparent" points="-4,4 -4,-129.5 459,-129.5 459,4 -4,4"/>
<!-- Node1 -->
<g id="node1" class="node">
<title>Node1</title>
<g id="a_node1"><a xlink:title=" ">
<polygon fill="#bfbfbf" stroke="black" points="0,-38.5 0,-57.5 123,-57.5 123,-38.5 0,-38.5"/>
<text text-anchor="middle" x="61.5" y="-45.5" font-family="Helvetica,sans-Serif" font-size="10.00">GamR::Spect::CountsBS</text>
</a>
</g>
</g>
<!-- Node2 -->
<g id="node2" class="node">
<title>Node2</title>
<g id="a_node2"><a xlink:href="../../dc/d89/namespace_gam_r_1_1_spect.html#a4be92f8a1a93dce88a3536f732eb6080" target="_top" xlink:title=" ">
<polygon fill="white" stroke="black" points="161.5,-76.5 161.5,-95.5 284.5,-95.5 284.5,-76.5 161.5,-76.5"/>
<text text-anchor="middle" x="223" y="-83.5" font-family="Helvetica,sans-Serif" font-size="10.00">GamR::Spect::CountsBS</text>
</a>
</g>
</g>
<!-- Node1&#45;&gt;Node2 -->
<g id="edge1" class="edge">
<title>Node1&#45;&gt;Node2</title>
<path fill="none" stroke="midnightblue" d="M102.75,-57.59C123.8,-62.6 149.76,-68.79 172.07,-74.11"/>
<polygon fill="midnightblue" stroke="midnightblue" points="171.5,-77.57 182.04,-76.48 173.12,-70.76 171.5,-77.57"/>
</g>
<!-- Node5 -->
<g id="node5" class="node">
<title>Node5</title>
<g id="a_node5"><a xlink:href="../../d0/d74/group___t_k.html#gac1c2149596c0bc3ee71f38a871d0aa98" target="_top" xlink:title=" ">
<polygon fill="white" stroke="black" points="159,-38.5 159,-57.5 287,-57.5 287,-38.5 159,-38.5"/>
<text text-anchor="middle" x="223" y="-45.5" font-family="Helvetica,sans-Serif" font-size="10.00">GamR::TK::Gate::GetHigh</text>
</a>
</g>
</g>
<!-- Node1&#45;&gt;Node5 -->
<g id="edge4" class="edge">
<title>Node1&#45;&gt;Node5</title>
<path fill="none" stroke="midnightblue" d="M123.26,-48C131.52,-48 140.07,-48 148.52,-48"/>
<polygon fill="midnightblue" stroke="midnightblue" points="148.76,-51.5 158.76,-48 148.76,-44.5 148.76,-51.5"/>
</g>
<!-- Node6 -->
<g id="node6" class="node">
<title>Node6</title>
<g id="a_node6"><a xlink:href="../../d0/d74/group___t_k.html#ga0c870043965f984b34e65455819d47cf" target="_top" xlink:title=" ">
<polygon fill="white" stroke="black" points="160,-0.5 160,-19.5 286,-19.5 286,-0.5 160,-0.5"/>
<text text-anchor="middle" x="223" y="-7.5" font-family="Helvetica,sans-Serif" font-size="10.00">GamR::TK::Gate::GetLow</text>
</a>
</g>
</g>
<!-- Node1&#45;&gt;Node6 -->
<g id="edge5" class="edge">
<title>Node1&#45;&gt;Node6</title>
<path fill="none" stroke="midnightblue" d="M102.75,-38.41C123.8,-33.4 149.76,-27.21 172.07,-21.89"/>
<polygon fill="midnightblue" stroke="midnightblue" points="173.12,-25.24 182.04,-19.52 171.5,-18.43 173.12,-25.24"/>
</g>
<!-- Node3 -->
<g id="node3" class="node">
<title>Node3</title>
<g id="a_node3"><a xlink:href="../../df/d6f/class_gam_r_1_1_nucleus_1_1_transition.html#afd83986d64ce37818c1d1dade9881e75" target="_top" xlink:title=" ">
<polygon fill="white" stroke="black" points="323,-95 323,-125 455,-125 455,-95 323,-95"/>
<text text-anchor="start" x="331" y="-113" font-family="Helvetica,sans-Serif" font-size="10.00">GamR::Nucleus::Transition</text>
<text text-anchor="middle" x="389" y="-102" font-family="Helvetica,sans-Serif" font-size="10.00">::ApplyCounts</text>
</a>
</g>
</g>
<!-- Node2&#45;&gt;Node3 -->
<g id="edge2" class="edge">
<title>Node2&#45;&gt;Node3</title>
<path fill="none" stroke="midnightblue" d="M284.6,-94.87C293.78,-96.21 303.35,-97.61 312.79,-98.99"/>
<polygon fill="midnightblue" stroke="midnightblue" points="312.57,-102.5 322.97,-100.48 313.58,-95.57 312.57,-102.5"/>
</g>
<!-- Node4 -->
<g id="node4" class="node">
<title>Node4</title>
<g id="a_node4"><a xlink:href="../../df/d6f/class_gam_r_1_1_nucleus_1_1_transition.html#a3f8c39fbbcecc2006167727936830ae0" target="_top" xlink:title=" ">
<polygon fill="white" stroke="black" points="323,-46 323,-76 455,-76 455,-46 323,-46"/>
<text text-anchor="start" x="331" y="-64" font-family="Helvetica,sans-Serif" font-size="10.00">GamR::Nucleus::Transition</text>
<text text-anchor="middle" x="389" y="-53" font-family="Helvetica,sans-Serif" font-size="10.00">::ApplyCountsError</text>
</a>
</g>
</g>
<!-- Node2&#45;&gt;Node4 -->
<g id="edge3" class="edge">
<title>Node2&#45;&gt;Node4</title>
<path fill="none" stroke="midnightblue" d="M284.6,-76.76C293.78,-75.36 303.35,-73.9 312.79,-72.46"/>
<polygon fill="midnightblue" stroke="midnightblue" points="313.61,-75.88 322.97,-70.91 312.55,-68.96 313.61,-75.88"/>
</g>
</g>
</svg>
