<?xml version="1.0" encoding="UTF-8" standalone="no"?>
<!DOCTYPE svg PUBLIC "-//W3C//DTD SVG 1.1//EN"
 "http://www.w3.org/Graphics/SVG/1.1/DTD/svg11.dtd">
<!-- Generated by graphviz version 6.0.2 (20221011.1828)
 -->
<!-- Title: GamR::Spect::CountsBS Pages: 1 -->
<svg width="458pt" height="86pt"
 viewBox="0.00 0.00 458.00 86.00" xmlns="http://www.w3.org/2000/svg" xmlns:xlink="http://www.w3.org/1999/xlink">
<g id="graph0" class="graph" transform="scale(1 1) rotate(0) translate(4 82)">
<title>GamR::Spect::CountsBS</title>
<!-- Node1 -->
<g id="node1" class="node">
<title>Node1</title>
<g id="a_node1"><a xlink:title=" ">
<polygon fill="#999999" stroke="#666666" points="123,-48.5 0,-48.5 0,-29.5 123,-29.5 123,-48.5"/>
<text text-anchor="middle" x="61.5" y="-36.5" font-family="Helvetica,sans-Serif" font-size="10.00">GamR::Spect::CountsBS</text>
</a>
</g>
</g>
<!-- Node2 -->
<g id="node2" class="node">
<title>Node2</title>
<g id="a_node2"><a xlink:href="../../dc/d89/namespace_gam_r_1_1_spect.html#a4be92f8a1a93dce88a3536f732eb6080" target="_top" xlink:title=" ">
<polygon fill="white" stroke="#666666" points="282,-48.5 159,-48.5 159,-29.5 282,-29.5 282,-48.5"/>
<text text-anchor="middle" x="220.5" y="-36.5" font-family="Helvetica,sans-Serif" font-size="10.00">GamR::Spect::CountsBS</text>
</a>
</g>
</g>
<!-- Node1&#45;&gt;Node2 -->
<g id="edge1" class="edge">
<title>Node1&#45;&gt;Node2</title>
<path fill="none" stroke="#63b8ff" d="M123.2,-39C131.64,-39 140.36,-39 148.95,-39"/>
<polygon fill="#63b8ff" stroke="#63b8ff" points="148.96,-42.5 158.96,-39 148.96,-35.5 148.96,-42.5"/>
</g>
<!-- Node3 -->
<g id="node3" class="node">
<title>Node3</title>
<g id="a_node3"><a xlink:href="../../df/d6f/class_gam_r_1_1_nucleus_1_1_transition.html#afd83986d64ce37818c1d1dade9881e75" target="_top" xlink:title=" ">
<polygon fill="white" stroke="#666666" points="450,-78 318,-78 318,-48 450,-48 450,-78"/>
<text text-anchor="start" x="326" y="-66" font-family="Helvetica,sans-Serif" font-size="10.00">GamR::Nucleus::Transition</text>
<text text-anchor="middle" x="384" y="-55" font-family="Helvetica,sans-Serif" font-size="10.00">::ApplyCounts</text>
</a>
</g>
</g>
<!-- Node2&#45;&gt;Node3 -->
<g id="edge2" class="edge">
<title>Node2&#45;&gt;Node3</title>
<path fill="none" stroke="#63b8ff" d="M282.1,-48C290.46,-49.25 299.13,-50.54 307.72,-51.81"/>
<polygon fill="#63b8ff" stroke="#63b8ff" points="307.33,-55.29 317.74,-53.3 308.36,-48.37 307.33,-55.29"/>
</g>
<!-- Node4 -->
<g id="node4" class="node">
<title>Node4</title>
<g id="a_node4"><a xlink:href="../../df/d6f/class_gam_r_1_1_nucleus_1_1_transition.html#a3f8c39fbbcecc2006167727936830ae0" target="_top" xlink:title=" ">
<polygon fill="white" stroke="#666666" points="450,-30 318,-30 318,0 450,0 450,-30"/>
<text text-anchor="start" x="326" y="-18" font-family="Helvetica,sans-Serif" font-size="10.00">GamR::Nucleus::Transition</text>
<text text-anchor="middle" x="384" y="-7" font-family="Helvetica,sans-Serif" font-size="10.00">::ApplyCountsError</text>
</a>
</g>
</g>
<!-- Node2&#45;&gt;Node4 -->
<g id="edge3" class="edge">
<title>Node2&#45;&gt;Node4</title>
<path fill="none" stroke="#63b8ff" d="M282.1,-30C290.46,-28.75 299.13,-27.46 307.72,-26.19"/>
<polygon fill="#63b8ff" stroke="#63b8ff" points="308.36,-29.63 317.74,-24.7 307.33,-22.71 308.36,-29.63"/>
</g>
</g>
</svg>
