<?xml version="1.0" encoding="UTF-8" standalone="no"?>
<!DOCTYPE svg PUBLIC "-//W3C//DTD SVG 1.1//EN"
 "http://www.w3.org/Graphics/SVG/1.1/DTD/svg11.dtd">
<!-- Generated by graphviz version 8.1.0 (20230707.0739)
 -->
<!-- Title: GamR::Spect::Integral Pages: 1 -->
<svg width="294pt" height="76pt"
 viewBox="0.00 0.00 293.50 75.88" xmlns="http://www.w3.org/2000/svg" xmlns:xlink="http://www.w3.org/1999/xlink">
<g id="graph0" class="graph" transform="scale(1 1) rotate(0) translate(4 71.88)">
<title>GamR::Spect::Integral</title>
<!-- Node1 -->
<g id="Node000001" class="node">
<title>Node1</title>
<g id="a_Node000001"><a xlink:title=" ">
<polygon fill="#999999" stroke="#666666" points="110.5,-45.88 0,-45.88 0,-26.62 110.5,-26.62 110.5,-45.88"/>
<text text-anchor="middle" x="55.25" y="-32.38" font-family="Helvetica,sans-Serif" font-size="10.00">GamR::Spect::Integral</text>
</a>
</g>
</g>
<!-- Node2 -->
<g id="Node000002" class="node">
<title>Node2</title>
<g id="a_Node000002"><a xlink:href="../../d0/d74/group___t_k.html#gaae543a7d595e5faacbfb4da05718e3f3" target="_top" xlink:title=" ">
<polygon fill="white" stroke="#666666" points="285.5,-67.88 146.5,-67.88 146.5,-48.62 285.5,-48.62 285.5,-67.88"/>
<text text-anchor="middle" x="216" y="-54.38" font-family="Helvetica,sans-Serif" font-size="10.00">GamR::TK::Gate::GetIntegral</text>
</a>
</g>
</g>
<!-- Node1&#45;&gt;Node2 -->
<g id="edge1_Node000001_Node000002" class="edge">
<title>Node1&#45;&gt;Node2</title>
<g id="a_edge1_Node000001_Node000002"><a xlink:title=" ">
<path fill="none" stroke="#63b8ff" d="M110.88,-43.82C118.8,-44.92 127.09,-46.07 135.38,-47.22"/>
<polygon fill="#63b8ff" stroke="#63b8ff" points="134.86,-50.82 145.24,-48.72 135.82,-43.88 134.86,-50.82"/>
</a>
</g>
</g>
<!-- Node3 -->
<g id="Node000003" class="node">
<title>Node3</title>
<g id="a_Node000003"><a xlink:href="../../d0/d74/group___t_k.html#gaa69e554368ffbdbf2a5aa6cb6828e52b" target="_top" xlink:title=" ">
<polygon fill="white" stroke="#666666" points="285.5,-30.5 146.5,-30.5 146.5,0 285.5,0 285.5,-30.5"/>
<text text-anchor="start" x="154.5" y="-17" font-family="Helvetica,sans-Serif" font-size="10.00">GamR::TK::Gate::GetIntegral</text>
<text text-anchor="middle" x="216" y="-5.75" font-family="Helvetica,sans-Serif" font-size="10.00">Error</text>
</a>
</g>
</g>
<!-- Node1&#45;&gt;Node3 -->
<g id="edge2_Node000001_Node000003" class="edge">
<title>Node1&#45;&gt;Node3</title>
<g id="a_edge2_Node000001_Node000003"><a xlink:title=" ">
<path fill="none" stroke="#63b8ff" d="M110.88,-29.02C118.8,-27.98 127.09,-26.88 135.38,-25.78"/>
<polygon fill="#63b8ff" stroke="#63b8ff" points="135.79,-29.13 145.24,-24.35 134.87,-22.19 135.79,-29.13"/>
</a>
</g>
</g>
</g>
</svg>
