<?xml version="1.0" encoding="UTF-8" standalone="no"?>
<!DOCTYPE svg PUBLIC "-//W3C//DTD SVG 1.1//EN"
 "http://www.w3.org/Graphics/SVG/1.1/DTD/svg11.dtd">
<!-- Generated by graphviz version 9.0.0 (20230911.1827)
 -->
<!-- Title: GamR::Spect::Counts Pages: 1 -->
<svg width="436pt" height="76pt"
 viewBox="0.00 0.00 435.50 75.88" xmlns="http://www.w3.org/2000/svg" xmlns:xlink="http://www.w3.org/1999/xlink">
<g id="graph0" class="graph" transform="scale(1 1) rotate(0) translate(4 71.88)">
<title>GamR::Spect::Counts</title>
<!-- Node1 -->
<g id="Node000001" class="node">
<title>Node1</title>
<g id="a_Node000001"><a xlink:title=" ">
<polygon fill="#999999" stroke="#666666" points="109,-45.88 0,-45.88 0,-26.62 109,-26.62 109,-45.88"/>
<text text-anchor="middle" x="54.5" y="-32.38" font-family="Helvetica,sans-Serif" font-size="10.00">GamR::Spect::Counts</text>
</a>
</g>
</g>
<!-- Node2 -->
<g id="Node000002" class="node">
<title>Node2</title>
<g id="a_Node000002"><a xlink:href="../../dc/d89/namespace_gam_r_1_1_spect.html#a100c7a24b9e9670a79f4707d985bd259" target="_top" xlink:title=" ">
<polygon fill="white" stroke="#666666" points="254,-45.88 145,-45.88 145,-26.62 254,-26.62 254,-45.88"/>
<text text-anchor="middle" x="199.5" y="-32.38" font-family="Helvetica,sans-Serif" font-size="10.00">GamR::Spect::Counts</text>
</a>
</g>
</g>
<!-- Node1&#45;&gt;Node2 -->
<g id="edge1_Node000001_Node000002" class="edge">
<title>Node1&#45;&gt;Node2</title>
<g id="a_edge1_Node000001_Node000002"><a xlink:title=" ">
<path fill="none" stroke="#63b8ff" d="M109.15,-36.25C117.02,-36.25 125.19,-36.25 133.26,-36.25"/>
<polygon fill="#63b8ff" stroke="#63b8ff" points="133.03,-39.75 143.03,-36.25 133.03,-32.75 133.03,-39.75"/>
</a>
</g>
</g>
<!-- Node3 -->
<g id="Node000003" class="node">
<title>Node3</title>
<g id="a_Node000003"><a xlink:href="../../d0/d74/group___t_k.html#ga4607d5e3d8f5d83d75f4ca038572a7f8" target="_top" xlink:title=" ">
<polygon fill="white" stroke="#666666" points="427.5,-67.88 290,-67.88 290,-48.62 427.5,-48.62 427.5,-67.88"/>
<text text-anchor="middle" x="358.75" y="-54.38" font-family="Helvetica,sans-Serif" font-size="10.00">GamR::TK::Gate::GetCounts</text>
</a>
</g>
</g>
<!-- Node2&#45;&gt;Node3 -->
<g id="edge2_Node000002_Node000003" class="edge">
<title>Node2&#45;&gt;Node3</title>
<g id="a_edge2_Node000002_Node000003"><a xlink:title=" ">
<path fill="none" stroke="#63b8ff" d="M254.18,-43.76C262.01,-44.86 270.2,-46 278.41,-47.15"/>
<polygon fill="#63b8ff" stroke="#63b8ff" points="277.69,-50.58 288.08,-48.5 278.66,-43.65 277.69,-50.58"/>
</a>
</g>
</g>
<!-- Node4 -->
<g id="Node000004" class="node">
<title>Node4</title>
<g id="a_Node000004"><a xlink:href="../../d0/d74/group___t_k.html#ga0073e987a24adc053cfbf2c833d41749" target="_top" xlink:title=" ">
<polygon fill="white" stroke="#666666" points="427.5,-30.5 290,-30.5 290,0 427.5,0 427.5,-30.5"/>
<text text-anchor="start" x="298" y="-17" font-family="Helvetica,sans-Serif" font-size="10.00">GamR::TK::Gate::GetCounts</text>
<text text-anchor="middle" x="358.75" y="-5.75" font-family="Helvetica,sans-Serif" font-size="10.00">Error</text>
</a>
</g>
</g>
<!-- Node2&#45;&gt;Node4 -->
<g id="edge3_Node000002_Node000004" class="edge">
<title>Node2&#45;&gt;Node4</title>
<g id="a_edge3_Node000002_Node000004"><a xlink:title=" ">
<path fill="none" stroke="#63b8ff" d="M254.18,-29.08C262.01,-28.04 270.2,-26.94 278.41,-25.85"/>
<polygon fill="#63b8ff" stroke="#63b8ff" points="278.63,-29.35 288.08,-24.55 277.7,-22.41 278.63,-29.35"/>
</a>
</g>
</g>
</g>
</svg>
