<?xml version="1.0" encoding="UTF-8" standalone="no"?>
<!DOCTYPE svg PUBLIC "-//W3C//DTD SVG 1.1//EN"
 "http://www.w3.org/Graphics/SVG/1.1/DTD/svg11.dtd">
<!-- Generated by graphviz version 12.2.1 (20241206.2353)
 -->
<!-- Title: GamR::Bateman::Nucleus Pages: 1 -->
<svg width="293pt" height="660pt"
 viewBox="0.00 0.00 293.36 660.00" xmlns="http://www.w3.org/2000/svg" xmlns:xlink="http://www.w3.org/1999/xlink">
<g id="page0,1_graph0" class="graph" transform="scale(1 1) rotate(0) translate(4 656)">
<title>GamR::Bateman::Nucleus</title>
<!-- Node1 -->
<g id="Node000001" class="node">
<title>Node1</title>
<g id="a_Node000001"><a xlink:title=" ">
<polygon fill="#999999" stroke="none" points="216.98,-316.5 97.23,-316.5 97.23,-114.25 216.98,-114.25 216.98,-316.5"/>
<text text-anchor="start" x="101.23" y="-303" font-family="Helvetica,sans-Serif" font-size="10.00">GamR::Bateman::Nucleus</text>
<text text-anchor="start" x="112.61" y="-287.75" font-family="Helvetica,sans-Serif" font-size="10.00">+</text>
<text text-anchor="start" x="133.98" y="-287.75" font-family="Helvetica,sans-Serif" font-size="10.00">index</text>
<text text-anchor="start" x="112.61" y="-272.5" font-family="Helvetica,sans-Serif" font-size="10.00">+</text>
<text text-anchor="start" x="133.98" y="-272.5" font-family="Helvetica,sans-Serif" font-size="10.00">lifetime</text>
<text text-anchor="start" x="112.61" y="-257.25" font-family="Helvetica,sans-Serif" font-size="10.00">+</text>
<text text-anchor="start" x="133.98" y="-257.25" font-family="Helvetica,sans-Serif" font-size="10.00">lifetime_err</text>
<text text-anchor="start" x="112.61" y="-242" font-family="Helvetica,sans-Serif" font-size="10.00">+</text>
<text text-anchor="start" x="133.98" y="-242" font-family="Helvetica,sans-Serif" font-size="10.00">efficiency</text>
<text text-anchor="start" x="112.61" y="-226.75" font-family="Helvetica,sans-Serif" font-size="10.00">+</text>
<text text-anchor="start" x="133.98" y="-226.75" font-family="Helvetica,sans-Serif" font-size="10.00">efficiency_err</text>
<text text-anchor="start" x="112.61" y="-211.5" font-family="Helvetica,sans-Serif" font-size="10.00">+</text>
<text text-anchor="start" x="133.98" y="-211.5" font-family="Helvetica,sans-Serif" font-size="10.00">N0</text>
<text text-anchor="start" x="112.61" y="-196.25" font-family="Helvetica,sans-Serif" font-size="10.00">+</text>
<text text-anchor="start" x="133.98" y="-196.25" font-family="Helvetica,sans-Serif" font-size="10.00">population</text>
<text text-anchor="start" x="112.61" y="-181" font-family="Helvetica,sans-Serif" font-size="10.00">+</text>
<text text-anchor="start" x="133.98" y="-181" font-family="Helvetica,sans-Serif" font-size="10.00">Nucleus()</text>
<text text-anchor="start" x="112.61" y="-165.75" font-family="Helvetica,sans-Serif" font-size="10.00">+</text>
<text text-anchor="start" x="133.98" y="-165.75" font-family="Helvetica,sans-Serif" font-size="10.00">Nucleus()</text>
<text text-anchor="start" x="112.61" y="-150.5" font-family="Helvetica,sans-Serif" font-size="10.00">+</text>
<text text-anchor="start" x="133.98" y="-150.5" font-family="Helvetica,sans-Serif" font-size="10.00">GetDC()</text>
<text text-anchor="start" x="112.61" y="-135.25" font-family="Helvetica,sans-Serif" font-size="10.00">+</text>
<text text-anchor="start" x="133.98" y="-135.25" font-family="Helvetica,sans-Serif" font-size="10.00">AddFeeder()</text>
<text text-anchor="start" x="112.61" y="-120" font-family="Helvetica,sans-Serif" font-size="10.00">+</text>
<text text-anchor="start" x="133.98" y="-120" font-family="Helvetica,sans-Serif" font-size="10.00">Print()</text>
<polygon fill="#666666" stroke="#666666" points="97.23,-299.25 97.23,-299.25 216.98,-299.25 216.98,-299.25 97.23,-299.25"/>
<polygon fill="#666666" stroke="#666666" points="97.23,-192.5 97.23,-192.5 131.98,-192.5 131.98,-192.5 97.23,-192.5"/>
<polygon fill="#666666" stroke="#666666" points="131.98,-192.5 131.98,-192.5 216.98,-192.5 216.98,-192.5 131.98,-192.5"/>
<polygon fill="none" stroke="#666666" points="97.23,-114.25 97.23,-316.5 216.98,-316.5 216.98,-114.25 97.23,-114.25"/>
</a>
</g>
</g>
<!-- Node4 -->
<g id="Node000004" class="node">
<title>Node4</title>
<g id="a_Node000004"><a xlink:title=" ">
<polygon fill="white" stroke="none" points="132.98,-61 31.23,-61 31.23,0 132.98,0 132.98,-61"/>
<text text-anchor="start" x="35.23" y="-47.5" font-family="Helvetica,sans-Serif" font-size="10.00">std::vector&lt; GamR::</text>
<text text-anchor="start" x="35.23" y="-36.25" font-family="Helvetica,sans-Serif" font-size="10.00">Bateman::Nucleus * &gt;</text>
<text text-anchor="start" x="80.61" y="-21" font-family="Helvetica,sans-Serif" font-size="10.00"> </text>
<text text-anchor="start" x="80.61" y="-5.75" font-family="Helvetica,sans-Serif" font-size="10.00"> </text>
<polygon fill="#666666" stroke="#666666" points="31.23,-32.5 31.23,-32.5 132.98,-32.5 132.98,-32.5 31.23,-32.5"/>
<polygon fill="#666666" stroke="#666666" points="31.23,-17.25 31.23,-17.25 132.98,-17.25 132.98,-17.25 31.23,-17.25"/>
<polygon fill="none" stroke="#666666" points="31.23,0 31.23,-61 132.98,-61 132.98,0 31.23,0"/>
</a>
</g>
</g>
<!-- Node1&#45;&gt;Node4 -->
<g id="edge4_Node000004_Node000001" class="edge">
<title>Node1&#45;&gt;Node4</title>
<g id="a_edge4_Node000004_Node000001"><a xlink:title=" ">
<path fill="none" stroke="#63b8ff" d="M97.41,-137.16C89.99,-124.11 83.55,-110.24 79.36,-96.25 77.21,-89.09 76.36,-81.28 76.29,-73.65"/>
<polygon fill="none" stroke="#63b8ff" points="76.29,-73.59 72.54,-67.42 76.79,-61.6 80.54,-67.76 76.29,-73.59"/>
</a>
</g>
<text text-anchor="start" x="82.36" y="-83.75" font-family="Helvetica,sans-Serif" font-size="10.00" fill="grey">+elements</text>
</g>
<!-- Node2 -->
<g id="Node000002" class="node">
<title>Node2</title>
<g id="a_Node000002"><a xlink:title=" ">
<polygon fill="white" stroke="none" points="268.11,-434.75 218.11,-434.75 218.11,-385 268.11,-385 268.11,-434.75"/>
<text text-anchor="start" x="222.11" y="-421.25" font-family="Helvetica,sans-Serif" font-size="10.00">std::string</text>
<text text-anchor="start" x="241.61" y="-406" font-family="Helvetica,sans-Serif" font-size="10.00"> </text>
<text text-anchor="start" x="241.61" y="-390.75" font-family="Helvetica,sans-Serif" font-size="10.00"> </text>
<polygon fill="#666666" stroke="#666666" points="218.11,-417.5 218.11,-417.5 268.11,-417.5 268.11,-417.5 218.11,-417.5"/>
<polygon fill="#666666" stroke="#666666" points="218.11,-402.25 218.11,-402.25 268.11,-402.25 268.11,-402.25 218.11,-402.25"/>
<polygon fill="none" stroke="#666666" points="218.11,-385 218.11,-434.75 268.11,-434.75 268.11,-385 218.11,-385"/>
</a>
</g>
</g>
<!-- Node2&#45;&gt;Node1 -->
<g id="edge1_Node000001_Node000002" class="edge">
<title>Node2&#45;&gt;Node1</title>
<g id="a_edge1_Node000001_Node000002"><a xlink:title=" ">
<path fill="none" stroke="#63b8ff" d="M236.13,-385.09C231.54,-370.32 225.12,-351.06 218.11,-334.5 217.2,-332.36 216.27,-330.21 215.32,-328.05"/>
<polygon fill="none" stroke="#63b8ff" points="215.38,-328.17 209.27,-324.34 210.45,-317.23 216.56,-321.06 215.38,-328.17"/>
</a>
</g>
<text text-anchor="start" x="233.18" y="-346.88" font-family="Helvetica,sans-Serif" font-size="10.00" fill="grey">+name</text>
</g>
<!-- Node3 -->
<g id="Node000003" class="node">
<title>Node3</title>
<g id="a_Node000003"><a xlink:title=" ">
<polygon fill="white" stroke="none" points="285.36,-549 200.86,-549 200.86,-488 285.36,-488 285.36,-549"/>
<text text-anchor="start" x="204.86" y="-535.5" font-family="Helvetica,sans-Serif" font-size="10.00">std::basic_string&lt;</text>
<text text-anchor="start" x="227.73" y="-524.25" font-family="Helvetica,sans-Serif" font-size="10.00"> Char &gt;</text>
<text text-anchor="start" x="241.61" y="-509" font-family="Helvetica,sans-Serif" font-size="10.00"> </text>
<text text-anchor="start" x="241.61" y="-493.75" font-family="Helvetica,sans-Serif" font-size="10.00"> </text>
<polygon fill="#666666" stroke="#666666" points="200.86,-520.5 200.86,-520.5 285.36,-520.5 285.36,-520.5 200.86,-520.5"/>
<polygon fill="#666666" stroke="#666666" points="200.86,-505.25 200.86,-505.25 285.36,-505.25 285.36,-505.25 200.86,-505.25"/>
<polygon fill="none" stroke="#666666" points="200.86,-488 200.86,-549 285.36,-549 285.36,-488 200.86,-488"/>
</a>
</g>
</g>
<!-- Node3&#45;&gt;Node2 -->
<g id="edge2_Node000002_Node000003" class="edge">
<title>Node3&#45;&gt;Node2</title>
<g id="a_edge2_Node000002_Node000003"><a xlink:title=" ">
<path fill="none" stroke="#63b8ff" d="M243.11,-476.94C243.11,-462.59 243.11,-446.93 243.11,-434.47"/>
<polygon fill="none" stroke="#63b8ff" points="239.61,-476.57 243.11,-486.57 246.61,-476.57 239.61,-476.57"/>
</a>
</g>
</g>
<!-- Node4&#45;&gt;Node1 -->
<g id="edge3_Node000001_Node000004" class="edge">
<title>Node4&#45;&gt;Node1</title>
<g id="a_edge3_Node000001_Node000004"><a xlink:title=" ">
<path fill="none" stroke="#63b8ff" d="M121.48,-60.96C126.75,-66.43 131.55,-72.5 135.11,-79 139.09,-86.28 142.4,-94.09 145.14,-102.15"/>
<polygon fill="none" stroke="#63b8ff" points="145.15,-102.18 150.71,-106.77 148.62,-113.67 143.05,-109.08 145.15,-102.18"/>
</a>
</g>
<text text-anchor="start" x="145.83" y="-83.75" font-family="Helvetica,sans-Serif" font-size="10.00" fill="grey">+feeders</text>
</g>
<!-- Node5 -->
<g id="Node000005" class="node">
<title>Node5</title>
<g id="a_Node000005"><a xlink:title=" ">
<polygon fill="white" stroke="none" points="107.86,-543.38 32.36,-543.38 32.36,-493.62 107.86,-493.62 107.86,-543.38"/>
<text text-anchor="start" x="36.36" y="-529.88" font-family="Helvetica,sans-Serif" font-size="10.00">std::vector&lt; T &gt;</text>
<text text-anchor="start" x="68.61" y="-514.62" font-family="Helvetica,sans-Serif" font-size="10.00"> </text>
<text text-anchor="start" x="68.61" y="-499.38" font-family="Helvetica,sans-Serif" font-size="10.00"> </text>
<polygon fill="#666666" stroke="#666666" points="32.36,-526.12 32.36,-526.12 107.86,-526.12 107.86,-526.12 32.36,-526.12"/>
<polygon fill="#666666" stroke="#666666" points="32.36,-510.88 32.36,-510.88 107.86,-510.88 107.86,-510.88 32.36,-510.88"/>
<polygon fill="none" stroke="#666666" points="32.36,-493.62 32.36,-543.38 107.86,-543.38 107.86,-493.62 32.36,-493.62"/>
</a>
</g>
</g>
<!-- Node5&#45;&gt;Node4 -->
<g id="edge5_Node000004_Node000005" class="edge">
<title>Node5&#45;&gt;Node4</title>
<g id="a_edge5_Node000004_Node000005"><a xlink:title=" ">
<path fill="none" stroke="orange" d="M51.08,-483.89C35.43,-454.21 14.49,-409.2 5.86,-367 -17.42,-253.18 38.69,-118.65 66.99,-60.58"/>
<polygon fill="orange" stroke="orange" points="47.83,-485.24 55.65,-492.39 53.99,-481.92 47.83,-485.24"/>
</a>
</g>
<text text-anchor="start" x="8.86" y="-346.88" font-family="Helvetica,sans-Serif" font-size="10.00" fill="grey">&lt; GamR::Bateman::Nucleus * &gt;</text>
</g>
<!-- Node7 -->
<g id="Node000007" class="node">
<title>Node7</title>
<g id="a_Node000007"><a xlink:title=" ">
<polygon fill="white" stroke="none" points="197.11,-434.75 99.11,-434.75 99.11,-385 197.11,-385 197.11,-434.75"/>
<text text-anchor="start" x="103.11" y="-421.25" font-family="Helvetica,sans-Serif" font-size="10.00">std::vector&lt; double &gt;</text>
<text text-anchor="start" x="113.17" y="-406" font-family="Helvetica,sans-Serif" font-size="10.00">+</text>
<text text-anchor="start" x="133.23" y="-406" font-family="Helvetica,sans-Serif" font-size="10.00">elements</text>
<text text-anchor="start" x="146.61" y="-390.75" font-family="Helvetica,sans-Serif" font-size="10.00"> </text>
<polygon fill="#666666" stroke="#666666" points="99.11,-417.5 99.11,-417.5 197.11,-417.5 197.11,-417.5 99.11,-417.5"/>
<polygon fill="#666666" stroke="#666666" points="99.11,-402.25 99.11,-402.25 131.23,-402.25 131.23,-402.25 99.11,-402.25"/>
<polygon fill="#666666" stroke="#666666" points="131.23,-402.25 131.23,-402.25 197.11,-402.25 197.11,-402.25 131.23,-402.25"/>
<polygon fill="none" stroke="#666666" points="99.11,-385 99.11,-434.75 197.11,-434.75 197.11,-385 99.11,-385"/>
</a>
</g>
</g>
<!-- Node5&#45;&gt;Node7 -->
<g id="edge8_Node000007_Node000005" class="edge">
<title>Node5&#45;&gt;Node7</title>
<g id="a_edge8_Node000007_Node000005"><a xlink:title=" ">
<path fill="none" stroke="orange" d="M94.11,-484.68C105.99,-468.45 120.05,-449.23 130.84,-434.47"/>
<polygon fill="orange" stroke="orange" points="91.39,-482.48 88.31,-492.61 97.04,-486.61 91.39,-482.48"/>
</a>
</g>
<text text-anchor="start" x="119.09" y="-457.5" font-family="Helvetica,sans-Serif" font-size="10.00" fill="grey">&lt; double &gt;</text>
</g>
<!-- Node6 -->
<g id="Node000006" class="node">
<title>Node6</title>
<g id="a_Node000006"><a xlink:title=" ">
<polygon fill="white" stroke="none" points="77.11,-652 63.11,-652 63.11,-602.25 77.11,-602.25 77.11,-652"/>
<text text-anchor="start" x="67.11" y="-638.5" font-family="Helvetica,sans-Serif" font-size="10.00">T</text>
<text text-anchor="start" x="68.61" y="-623.25" font-family="Helvetica,sans-Serif" font-size="10.00"> </text>
<text text-anchor="start" x="68.61" y="-608" font-family="Helvetica,sans-Serif" font-size="10.00"> </text>
<polygon fill="#666666" stroke="#666666" points="63.11,-634.75 63.11,-634.75 77.11,-634.75 77.11,-634.75 63.11,-634.75"/>
<polygon fill="#666666" stroke="#666666" points="63.11,-619.5 63.11,-619.5 77.11,-619.5 77.11,-619.5 63.11,-619.5"/>
<polygon fill="none" stroke="#666666" points="63.11,-602.25 63.11,-652 77.11,-652 77.11,-602.25 63.11,-602.25"/>
</a>
</g>
</g>
<!-- Node6&#45;&gt;Node5 -->
<g id="edge6_Node000005_Node000006" class="edge">
<title>Node6&#45;&gt;Node5</title>
<g id="a_edge6_Node000005_Node000006"><a xlink:title=" ">
<path fill="none" stroke="#63b8ff" d="M70.11,-602.46C70.11,-588.8 70.11,-571.32 70.11,-555.93"/>
<polygon fill="none" stroke="#63b8ff" points="70.11,-556 66.11,-550 70.11,-544 74.11,-550 70.11,-556"/>
</a>
</g>
<text text-anchor="start" x="73.11" y="-571.75" font-family="Helvetica,sans-Serif" font-size="10.00" fill="grey">+elements</text>
</g>
<!-- Node7&#45;&gt;Node1 -->
<g id="edge7_Node000001_Node000007" class="edge">
<title>Node7&#45;&gt;Node1</title>
<g id="a_edge7_Node000001_Node000007"><a xlink:title=" ">
<path fill="none" stroke="#63b8ff" d="M149.21,-385.27C149.9,-370.57 150.84,-350.46 151.83,-329.24"/>
<polygon fill="none" stroke="#63b8ff" points="151.83,-329.18 148.12,-323 152.39,-317.19 156.11,-323.37 151.83,-329.18"/>
</a>
</g>
<text text-anchor="start" x="154.54" y="-354.5" font-family="Helvetica,sans-Serif" font-size="10.00" fill="grey">+branch_errs</text>
<text text-anchor="start" x="154.54" y="-339.25" font-family="Helvetica,sans-Serif" font-size="10.00" fill="grey">+branches</text>
</g>
</g>
</svg>
