<?xml version="1.0" encoding="UTF-8" standalone="no"?>
<!DOCTYPE svg PUBLIC "-//W3C//DTD SVG 1.1//EN"
 "http://www.w3.org/Graphics/SVG/1.1/DTD/svg11.dtd">
<!-- Generated by graphviz version 8.1.0 (20230707.0739)
 -->
<!-- Title: GamR::Viewer::Viewer&lt; TExpDefn, TEvent &gt; Pages: 1 -->
<svg width="114pt" height="128pt"
 viewBox="0.00 0.00 114.00 128.00" xmlns="http://www.w3.org/2000/svg" xmlns:xlink="http://www.w3.org/1999/xlink">
<g id="graph0" class="graph" transform="scale(1 1) rotate(0) translate(4 124)">
<title>GamR::Viewer::Viewer&lt; TExpDefn, TEvent &gt;</title>
<!-- Node1 -->
<g id="Node000001" class="node">
<title>Node1</title>
<g id="a_Node000001"><a xlink:title=" ">
<polygon fill="#999999" stroke="none" points="106,-120 0,-120 0,0 106,0 106,-120"/>
<text text-anchor="start" x="4.62" y="-106.5" font-family="Helvetica,sans-Serif" font-size="10.00">GamR::Viewer::Viewer</text>
<text text-anchor="start" x="5.75" y="-95.25" font-family="Helvetica,sans-Serif" font-size="10.00">&lt; TExpDefn, TEvent &gt;</text>
<text text-anchor="start" x="12.5" y="-80.5" font-family="Helvetica,sans-Serif" font-size="10.00">+</text>
<text text-anchor="start" x="31" y="-80.5" font-family="Helvetica,sans-Serif" font-size="10.00">fExpDefn</text>
<text text-anchor="start" x="12.5" y="-65.5" font-family="Helvetica,sans-Serif" font-size="10.00">+</text>
<text text-anchor="start" x="31" y="-65.5" font-family="Helvetica,sans-Serif" font-size="10.00">nRawEntries</text>
<text text-anchor="start" x="12.5" y="-50.5" font-family="Helvetica,sans-Serif" font-size="10.00">+</text>
<text text-anchor="start" x="31" y="-50.5" font-family="Helvetica,sans-Serif" font-size="10.00">ixEventNum</text>
<text text-anchor="start" x="12.5" y="-35.5" font-family="Helvetica,sans-Serif" font-size="10.00">+</text>
<text text-anchor="start" x="31" y="-35.5" font-family="Helvetica,sans-Serif" font-size="10.00">fEvent</text>
<text text-anchor="start" x="12.5" y="-20.5" font-family="Helvetica,sans-Serif" font-size="10.00">+</text>
<text text-anchor="start" x="31" y="-20.5" font-family="Helvetica,sans-Serif" font-size="10.00">Viewer()</text>
<text text-anchor="start" x="12.5" y="-5.5" font-family="Helvetica,sans-Serif" font-size="10.00">+</text>
<text text-anchor="start" x="31" y="-5.5" font-family="Helvetica,sans-Serif" font-size="10.00">Next()</text>
<polygon fill="#666666" stroke="#666666" points="0,-92 0,-92 106,-92 106,-92 0,-92"/>
<polygon fill="#666666" stroke="#666666" points="0,-32 0,-32 29,-32 29,-32 0,-32"/>
<polygon fill="#666666" stroke="#666666" points="29,-32 29,-32 106,-32 106,-32 29,-32"/>
<polygon fill="none" stroke="#666666" points="0,0 0,-120 106,-120 106,0 0,0"/>
</a>
</g>
</g>
</g>
</svg>
