<?xml version="1.0" encoding="UTF-8" standalone="no"?>
<!DOCTYPE svg PUBLIC "-//W3C//DTD SVG 1.1//EN"
 "http://www.w3.org/Graphics/SVG/1.1/DTD/svg11.dtd">
<!-- Generated by graphviz version 5.0.0 (20220708.1001)
 -->
<!-- Title: GamR::Nucleus::Transition Pages: 1 -->
<!--zoomable 1129 -->
<svg id="main" version="1.1" xmlns="http://www.w3.org/2000/svg" xmlns:xlink="http://www.w3.org/1999/xlink" xml:space="preserve" onload="init(evt)">
<style type="text/css"><![CDATA[
.edge:hover path { stroke: red; }
.edge:hover polygon { stroke: red; fill: red; }
]]></style>
<script type="text/javascript"><![CDATA[
var edges = document.getElementsByTagName('g');
if (edges && edges.length) {
  for (var i=0;i<edges.length;i++) {
    if (edges[i].id.substr(0,4)=='edge') {
      edges[i].setAttribute('class','edge');
    }
  }
}
]]></script>
        <defs>
                <circle id="rim" cx="0" cy="0" r="7"/>
                <circle id="rim2" cx="0" cy="0" r="3.5"/>
                <g id="zoomPlus">
                        <use xlink:href="#rim" fill="#404040">
                                <set attributeName="fill" to="#808080" begin="zoomplus.mouseover" end="zoomplus.mouseout"/>
                        </use>
                        <path d="M-4,0h8M0,-4v8" fill="none" stroke="white" stroke-width="1.5" pointer-events="none"/>
                </g>
                <g id="zoomMin">
                        <use xlink:href="#rim" fill="#404040">
                                <set attributeName="fill" to="#808080" begin="zoomminus.mouseover" end="zoomminus.mouseout"/>
                        </use>
                        <path d="M-4,0h8" fill="none" stroke="white" stroke-width="1.5" pointer-events="none"/>
                </g>
                <g id="dirArrow">
                        <path fill="none" stroke="white" stroke-width="1.5" d="M0,-3.0v7 M-2.5,-0.5L0,-3.0L2.5,-0.5"/>
                </g>
               <g id="resetDef">
                       <use xlink:href="#rim2" fill="#404040">
                               <set attributeName="fill" to="#808080" begin="reset.mouseover" end="reset.mouseout"/>
                       </use>
               </g>
        </defs>

<script type="text/javascript">
var viewWidth = 286;
var viewHeight = 1129;
var sectionId = 'dynsection-1';
</script>
<script xlink:href="../../svgpan.js"/>
<svg id="graph" class="graph">
<g id="viewport">
<title>GamR::Nucleus::Transition</title>
<polygon fill="white" stroke="transparent" points="-4,4 -4,-1125 282,-1125 282,4 -4,4"/>
<!-- Node1 -->
<g id="node1" class="node">
<title>Node1</title>
<g id="a_node1"><a xlink:title=" ">
<polygon fill="#bfbfbf" stroke="black" points="8,-0.5 8,-244.5 140,-244.5 140,-0.5 8,-0.5"/>
<text text-anchor="middle" x="74" y="-232.5" font-family="Helvetica,sans-Serif" font-size="10.00">GamR::Nucleus::Transition</text>
<polyline fill="none" stroke="black" points="8,-225.5 140,-225.5 "/>
<text text-anchor="start" x="16" y="-213.5" font-family="Helvetica,sans-Serif" font-size="10.00"># fEnergy</text>
<polyline fill="none" stroke="black" points="8,-206.5 140,-206.5 "/>
<text text-anchor="start" x="16" y="-194.5" font-family="Helvetica,sans-Serif" font-size="10.00">+ Transition()</text>
<text text-anchor="start" x="16" y="-183.5" font-family="Helvetica,sans-Serif" font-size="10.00">+ SetEnergy()</text>
<text text-anchor="start" x="16" y="-172.5" font-family="Helvetica,sans-Serif" font-size="10.00">+ SetPeak()</text>
<text text-anchor="start" x="16" y="-161.5" font-family="Helvetica,sans-Serif" font-size="10.00">+ SetPeak()</text>
<text text-anchor="start" x="16" y="-150.5" font-family="Helvetica,sans-Serif" font-size="10.00">+ SetBackground()</text>
<text text-anchor="start" x="16" y="-139.5" font-family="Helvetica,sans-Serif" font-size="10.00">+ SetBackground()</text>
<text text-anchor="start" x="16" y="-128.5" font-family="Helvetica,sans-Serif" font-size="10.00">+ AddBackground()</text>
<text text-anchor="start" x="16" y="-117.5" font-family="Helvetica,sans-Serif" font-size="10.00">+ AddBackground()</text>
<text text-anchor="start" x="16" y="-106.5" font-family="Helvetica,sans-Serif" font-size="10.00">+ SetTransition()</text>
<text text-anchor="start" x="16" y="-95.5" font-family="Helvetica,sans-Serif" font-size="10.00">+ Apply()</text>
<text text-anchor="start" x="16" y="-84.5" font-family="Helvetica,sans-Serif" font-size="10.00">+ ApplyError()</text>
<text text-anchor="start" x="16" y="-73.5" font-family="Helvetica,sans-Serif" font-size="10.00">+ ApplyCounts()</text>
<text text-anchor="start" x="16" y="-62.5" font-family="Helvetica,sans-Serif" font-size="10.00">+ ApplyCountsError()</text>
<text text-anchor="start" x="16" y="-51.5" font-family="Helvetica,sans-Serif" font-size="10.00">+ GetEnergy()</text>
<text text-anchor="start" x="16" y="-40.5" font-family="Helvetica,sans-Serif" font-size="10.00">+ GetGate()</text>
<text text-anchor="start" x="16" y="-29.5" font-family="Helvetica,sans-Serif" font-size="10.00">+ GetGateBG()</text>
<text text-anchor="start" x="16" y="-18.5" font-family="Helvetica,sans-Serif" font-size="10.00">+ GetGateBGs()</text>
<text text-anchor="start" x="16" y="-7.5" font-family="Helvetica,sans-Serif" font-size="10.00">+ ClassDef()</text>
</a>
</g>
</g>
<!-- Node2 -->
<g id="node2" class="node">
<title>Node2</title>
<g id="a_node2"><a xlink:title=" ">
<polygon fill="white" stroke="black" points="0,-1063.5 0,-1120.5 54,-1120.5 54,-1063.5 0,-1063.5"/>
<text text-anchor="middle" x="27" y="-1108.5" font-family="Helvetica,sans-Serif" font-size="10.00">TNamed</text>
<polyline fill="none" stroke="black" points="0,-1101.5 54,-1101.5 "/>
<text text-anchor="middle" x="27" y="-1089.5" font-family="Helvetica,sans-Serif" font-size="10.00"> </text>
<polyline fill="none" stroke="black" points="0,-1082.5 54,-1082.5 "/>
<text text-anchor="middle" x="27" y="-1070.5" font-family="Helvetica,sans-Serif" font-size="10.00"> </text>
</a>
</g>
</g>
<!-- Node2&#45;&gt;Node1 -->
<g id="edge1" class="edge">
<title>Node2&#45;&gt;Node1</title>
<path fill="none" stroke="midnightblue" d="M26.88,-1053.06C26.78,-949.52 28.03,-653.5 44,-408 47.49,-354.35 53.39,-295.2 59.04,-244.8"/>
<polygon fill="none" stroke="midnightblue" points="23.38,-1053.32 26.89,-1063.31 30.38,-1053.31 23.38,-1053.32"/>
</g>
<!-- Node3 -->
<g id="node3" class="node">
<title>Node3</title>
<g id="a_node3"><a xlink:href="../../d0/d79/class_gam_r_1_1_t_k_1_1_gate.html" target="_top" xlink:title=" ">
<polygon fill="white" stroke="black" points="53,-408.5 53,-1015.5 169,-1015.5 169,-408.5 53,-408.5"/>
<text text-anchor="middle" x="111" y="-1003.5" font-family="Helvetica,sans-Serif" font-size="10.00">GamR::TK::Gate</text>
<polyline fill="none" stroke="black" points="53,-996.5 169,-996.5 "/>
<text text-anchor="middle" x="111" y="-984.5" font-family="Helvetica,sans-Serif" font-size="10.00"> </text>
<polyline fill="none" stroke="black" points="53,-977.5 169,-977.5 "/>
<text text-anchor="start" x="61" y="-965.5" font-family="Helvetica,sans-Serif" font-size="10.00">+ Gate()</text>
<text text-anchor="start" x="61" y="-954.5" font-family="Helvetica,sans-Serif" font-size="10.00">+ Gate()</text>
<text text-anchor="start" x="61" y="-943.5" font-family="Helvetica,sans-Serif" font-size="10.00">+ Gate()</text>
<text text-anchor="start" x="61" y="-932.5" font-family="Helvetica,sans-Serif" font-size="10.00">+ Gate()</text>
<text text-anchor="start" x="61" y="-921.5" font-family="Helvetica,sans-Serif" font-size="10.00">+ Gate()</text>
<text text-anchor="start" x="61" y="-910.5" font-family="Helvetica,sans-Serif" font-size="10.00">+ Gate()</text>
<text text-anchor="start" x="61" y="-899.5" font-family="Helvetica,sans-Serif" font-size="10.00">+ Gate()</text>
<text text-anchor="start" x="61" y="-888.5" font-family="Helvetica,sans-Serif" font-size="10.00">+ ~Gate()</text>
<text text-anchor="start" x="61" y="-877.5" font-family="Helvetica,sans-Serif" font-size="10.00">+ SetGate()</text>
<text text-anchor="start" x="61" y="-866.5" font-family="Helvetica,sans-Serif" font-size="10.00">+ SetGate()</text>
<text text-anchor="start" x="61" y="-855.5" font-family="Helvetica,sans-Serif" font-size="10.00">+ SetGate()</text>
<text text-anchor="start" x="61" y="-844.5" font-family="Helvetica,sans-Serif" font-size="10.00">+ SetLow()</text>
<text text-anchor="start" x="61" y="-833.5" font-family="Helvetica,sans-Serif" font-size="10.00">+ SetLow()</text>
<text text-anchor="start" x="61" y="-822.5" font-family="Helvetica,sans-Serif" font-size="10.00">+ SetHigh()</text>
<text text-anchor="start" x="61" y="-811.5" font-family="Helvetica,sans-Serif" font-size="10.00">+ SetHigh()</text>
<text text-anchor="start" x="61" y="-800.5" font-family="Helvetica,sans-Serif" font-size="10.00">+ GetLow()</text>
<text text-anchor="start" x="61" y="-789.5" font-family="Helvetica,sans-Serif" font-size="10.00">+ GetHigh()</text>
<text text-anchor="start" x="61" y="-778.5" font-family="Helvetica,sans-Serif" font-size="10.00">+ GetWidth()</text>
<text text-anchor="start" x="61" y="-767.5" font-family="Helvetica,sans-Serif" font-size="10.00">+ GetBinLow()</text>
<text text-anchor="start" x="61" y="-756.5" font-family="Helvetica,sans-Serif" font-size="10.00">+ GetBinHigh()</text>
<text text-anchor="start" x="61" y="-745.5" font-family="Helvetica,sans-Serif" font-size="10.00">+ GetBinWidth()</text>
<text text-anchor="start" x="61" y="-734.5" font-family="Helvetica,sans-Serif" font-size="10.00">+ GetTrueWidth()</text>
<text text-anchor="start" x="61" y="-723.5" font-family="Helvetica,sans-Serif" font-size="10.00">+ GetIntegral()</text>
<text text-anchor="start" x="61" y="-712.5" font-family="Helvetica,sans-Serif" font-size="10.00">+ GetIntegral()</text>
<text text-anchor="start" x="61" y="-701.5" font-family="Helvetica,sans-Serif" font-size="10.00">+ GetIntegral()</text>
<text text-anchor="start" x="61" y="-690.5" font-family="Helvetica,sans-Serif" font-size="10.00">+ GetIntegral()</text>
<text text-anchor="start" x="61" y="-679.5" font-family="Helvetica,sans-Serif" font-size="10.00">+ GetIntegralError()</text>
<text text-anchor="start" x="61" y="-668.5" font-family="Helvetica,sans-Serif" font-size="10.00">+ GetIntegralError()</text>
<text text-anchor="start" x="61" y="-657.5" font-family="Helvetica,sans-Serif" font-size="10.00">+ GetIntegralError()</text>
<text text-anchor="start" x="61" y="-646.5" font-family="Helvetica,sans-Serif" font-size="10.00">+ GetCounts()</text>
<text text-anchor="start" x="61" y="-635.5" font-family="Helvetica,sans-Serif" font-size="10.00">+ GetCounts()</text>
<text text-anchor="start" x="61" y="-624.5" font-family="Helvetica,sans-Serif" font-size="10.00">+ GetCounts()</text>
<text text-anchor="start" x="61" y="-613.5" font-family="Helvetica,sans-Serif" font-size="10.00">+ GetCountsError()</text>
<text text-anchor="start" x="61" y="-602.5" font-family="Helvetica,sans-Serif" font-size="10.00">+ GetCountsError()</text>
<text text-anchor="start" x="61" y="-591.5" font-family="Helvetica,sans-Serif" font-size="10.00">+ GetCountsError()</text>
<text text-anchor="start" x="61" y="-580.5" font-family="Helvetica,sans-Serif" font-size="10.00">+ Browse()</text>
<text text-anchor="start" x="61" y="-569.5" font-family="Helvetica,sans-Serif" font-size="10.00">+ Pass()</text>
<text text-anchor="start" x="61" y="-558.5" font-family="Helvetica,sans-Serif" font-size="10.00">+ Pass()</text>
<text text-anchor="start" x="61" y="-547.5" font-family="Helvetica,sans-Serif" font-size="10.00">+ PassDetector()</text>
<text text-anchor="start" x="61" y="-536.5" font-family="Helvetica,sans-Serif" font-size="10.00">+ ApplyX()</text>
<text text-anchor="start" x="61" y="-525.5" font-family="Helvetica,sans-Serif" font-size="10.00">+ ApplyX()</text>
<text text-anchor="start" x="61" y="-514.5" font-family="Helvetica,sans-Serif" font-size="10.00">+ ApplyY()</text>
<text text-anchor="start" x="61" y="-503.5" font-family="Helvetica,sans-Serif" font-size="10.00">+ ApplyY()</text>
<text text-anchor="start" x="61" y="-492.5" font-family="Helvetica,sans-Serif" font-size="10.00">+ Norm()</text>
<text text-anchor="start" x="61" y="-481.5" font-family="Helvetica,sans-Serif" font-size="10.00">+ NormBackSub()</text>
<text text-anchor="start" x="61" y="-470.5" font-family="Helvetica,sans-Serif" font-size="10.00">+ Paint()</text>
<text text-anchor="start" x="61" y="-459.5" font-family="Helvetica,sans-Serif" font-size="10.00">+ DistancetoPrimitive()</text>
<text text-anchor="start" x="61" y="-448.5" font-family="Helvetica,sans-Serif" font-size="10.00">+ ExecuteEvent()</text>
<text text-anchor="start" x="61" y="-437.5" font-family="Helvetica,sans-Serif" font-size="10.00">+ IsFolder()</text>
<text text-anchor="start" x="61" y="-426.5" font-family="Helvetica,sans-Serif" font-size="10.00">+ ls()</text>
<text text-anchor="start" x="61" y="-415.5" font-family="Helvetica,sans-Serif" font-size="10.00">+ Valid()</text>
</a>
</g>
</g>
<!-- Node2&#45;&gt;Node3 -->
<g id="edge3" class="edge">
<title>Node2&#45;&gt;Node3</title>
<path fill="none" stroke="midnightblue" d="M36.91,-1053.55C37.63,-1050.66 38.34,-1047.78 39,-1045 43.66,-1025.5 48.35,-1005.32 52.98,-984.98"/>
<polygon fill="none" stroke="midnightblue" points="33.5,-1052.76 34.42,-1063.32 40.28,-1054.49 33.5,-1052.76"/>
</g>
<!-- Node3&#45;&gt;Node1 -->
<g id="edge2" class="edge">
<title>Node3&#45;&gt;Node1</title>
<path fill="none" stroke="#404040" d="M86,-408.47C84.92,-392.42 83.91,-376.52 83,-361 81.02,-327.34 79.38,-290.97 78.08,-257.05"/>
<polygon fill="none" stroke="#404040" points="78.06,-256.67 73.84,-250.82 77.61,-244.67 81.83,-250.52 78.06,-256.67"/>
<text text-anchor="middle" x="100" y="-324" font-family="Helvetica,sans-Serif" font-size="10.00"> #fPeak</text>
</g>
<!-- Node6 -->
<g id="node6" class="node">
<title>Node6</title>
<g id="a_node6"><a xlink:title=" ">
<polygon fill="white" stroke="black" points="126,-292.5 126,-360.5 228,-360.5 228,-292.5 126,-292.5"/>
<text text-anchor="start" x="134" y="-348.5" font-family="Helvetica,sans-Serif" font-size="10.00">std::vector&lt; GamR::</text>
<text text-anchor="middle" x="177" y="-337.5" font-family="Helvetica,sans-Serif" font-size="10.00">TK::Gate &gt;</text>
<polyline fill="none" stroke="black" points="126,-330.5 228,-330.5 "/>
<text text-anchor="middle" x="177" y="-318.5" font-family="Helvetica,sans-Serif" font-size="10.00"> </text>
<polyline fill="none" stroke="black" points="126,-311.5 228,-311.5 "/>
<text text-anchor="middle" x="177" y="-299.5" font-family="Helvetica,sans-Serif" font-size="10.00"> </text>
</a>
</g>
</g>
<!-- Node3&#45;&gt;Node6 -->
<g id="edge7" class="edge">
<title>Node3&#45;&gt;Node6</title>
<path fill="none" stroke="#404040" d="M120.49,-408.15C123.57,-398.21 127.06,-388.46 131,-379 132.17,-376.19 133.56,-373.43 135.11,-370.74"/>
<polygon fill="none" stroke="#404040" points="135.13,-370.72 135.15,-363.51 141.81,-360.75 141.79,-367.96 135.13,-370.72"/>
<text text-anchor="middle" x="155.5" y="-382" font-family="Helvetica,sans-Serif" font-size="10.00"> +elements</text>
</g>
<!-- Node4 -->
<g id="node4" class="node">
<title>Node4</title>
<g id="a_node4"><a xlink:title=" ">
<polygon fill="white" stroke="black" points="75,-1063.5 75,-1120.5 129,-1120.5 129,-1063.5 75,-1063.5"/>
<text text-anchor="middle" x="102" y="-1108.5" font-family="Helvetica,sans-Serif" font-size="10.00">TAttLine</text>
<polyline fill="none" stroke="black" points="75,-1101.5 129,-1101.5 "/>
<text text-anchor="middle" x="102" y="-1089.5" font-family="Helvetica,sans-Serif" font-size="10.00"> </text>
<polyline fill="none" stroke="black" points="75,-1082.5 129,-1082.5 "/>
<text text-anchor="middle" x="102" y="-1070.5" font-family="Helvetica,sans-Serif" font-size="10.00"> </text>
</a>
</g>
</g>
<!-- Node4&#45;&gt;Node3 -->
<g id="edge4" class="edge">
<title>Node4&#45;&gt;Node3</title>
<path fill="none" stroke="midnightblue" d="M102.9,-1053.08C103.16,-1042.3 103.46,-1029.65 103.79,-1015.67"/>
<polygon fill="none" stroke="midnightblue" points="99.4,-1053.12 102.66,-1063.2 106.4,-1053.29 99.4,-1053.12"/>
</g>
<!-- Node5 -->
<g id="node5" class="node">
<title>Node5</title>
<g id="a_node5"><a xlink:title=" ">
<polygon fill="white" stroke="black" points="147,-1063.5 147,-1120.5 195,-1120.5 195,-1063.5 147,-1063.5"/>
<text text-anchor="middle" x="171" y="-1108.5" font-family="Helvetica,sans-Serif" font-size="10.00">TAttFill</text>
<polyline fill="none" stroke="black" points="147,-1101.5 195,-1101.5 "/>
<text text-anchor="middle" x="171" y="-1089.5" font-family="Helvetica,sans-Serif" font-size="10.00"> </text>
<polyline fill="none" stroke="black" points="147,-1082.5 195,-1082.5 "/>
<text text-anchor="middle" x="171" y="-1070.5" font-family="Helvetica,sans-Serif" font-size="10.00"> </text>
</a>
</g>
</g>
<!-- Node5&#45;&gt;Node3 -->
<g id="edge5" class="edge">
<title>Node5&#45;&gt;Node3</title>
<path fill="none" stroke="midnightblue" d="M164.98,-1053.08C163.27,-1042.3 161.26,-1029.65 159.04,-1015.67"/>
<polygon fill="none" stroke="midnightblue" points="161.56,-1053.88 166.59,-1063.2 168.48,-1052.78 161.56,-1053.88"/>
</g>
<!-- Node6&#45;&gt;Node1 -->
<g id="edge6" class="edge">
<title>Node6&#45;&gt;Node1</title>
<path fill="none" stroke="#404040" d="M159.99,-292.14C154.54,-281.44 148.13,-268.87 141.3,-255.5"/>
<polygon fill="none" stroke="#404040" points="141.21,-255.31 134.92,-251.78 135.76,-244.62 142.05,-248.14 141.21,-255.31"/>
<text text-anchor="middle" x="181.5" y="-266" font-family="Helvetica,sans-Serif" font-size="10.00"> #fBackground</text>
</g>
<!-- Node7 -->
<g id="node7" class="node">
<title>Node7</title>
<g id="a_node7"><a xlink:title=" ">
<polygon fill="white" stroke="black" points="187,-683.5 187,-740.5 271,-740.5 271,-683.5 187,-683.5"/>
<text text-anchor="middle" x="229" y="-728.5" font-family="Helvetica,sans-Serif" font-size="10.00">std::vector&lt; T &gt;</text>
<polyline fill="none" stroke="black" points="187,-721.5 271,-721.5 "/>
<text text-anchor="middle" x="229" y="-709.5" font-family="Helvetica,sans-Serif" font-size="10.00"> </text>
<polyline fill="none" stroke="black" points="187,-702.5 271,-702.5 "/>
<text text-anchor="middle" x="229" y="-690.5" font-family="Helvetica,sans-Serif" font-size="10.00"> </text>
</a>
</g>
</g>
<!-- Node7&#45;&gt;Node6 -->
<g id="edge8" class="edge">
<title>Node7&#45;&gt;Node6</title>
<path fill="none" stroke="orange" d="M223.91,-673.49C213.77,-598.65 191.15,-431.89 181.5,-360.72"/>
<polygon fill="orange" stroke="orange" points="220.45,-673.98 225.26,-683.42 227.38,-673.04 220.45,-673.98"/>
<text text-anchor="middle" x="229" y="-382" font-family="Helvetica,sans-Serif" font-size="10.00"> &lt; GamR::TK::Gate &gt;</text>
</g>
<!-- Node8 -->
<g id="node8" class="node">
<title>Node8</title>
<g id="a_node8"><a xlink:title=" ">
<polygon fill="white" stroke="black" points="214.5,-1063.5 214.5,-1120.5 243.5,-1120.5 243.5,-1063.5 214.5,-1063.5"/>
<text text-anchor="middle" x="229" y="-1108.5" font-family="Helvetica,sans-Serif" font-size="10.00">T</text>
<polyline fill="none" stroke="black" points="214.5,-1101.5 243.5,-1101.5 "/>
<text text-anchor="middle" x="229" y="-1089.5" font-family="Helvetica,sans-Serif" font-size="10.00"> </text>
<polyline fill="none" stroke="black" points="214.5,-1082.5 243.5,-1082.5 "/>
<text text-anchor="middle" x="229" y="-1070.5" font-family="Helvetica,sans-Serif" font-size="10.00"> </text>
</a>
</g>
</g>
<!-- Node8&#45;&gt;Node7 -->
<g id="edge9" class="edge">
<title>Node8&#45;&gt;Node7</title>
<path fill="none" stroke="#404040" d="M229,-1063.2C229,-997.04 229,-830 229,-753"/>
<polygon fill="none" stroke="#404040" points="229,-752.58 225,-746.58 229,-740.58 233,-746.58 229,-752.58"/>
<text text-anchor="middle" x="253.5" y="-1037" font-family="Helvetica,sans-Serif" font-size="10.00"> +elements</text>
</g>
</g>
</svg>
        <g id="navigator" transform="translate(0 0)" fill="#404254">
                <rect fill="#f2f5e9" fill-opacity="0.5" stroke="#606060" stroke-width=".5" x="0" y="0" width="60" height="60"/>
                <use id="zoomplus" xlink:href="#zoomPlus" x="17" y="9" onmousedown="handleZoom(evt,'in')"/>
                <use id="zoomminus" xlink:href="#zoomMin" x="42" y="9" onmousedown="handleZoom(evt,'out')"/>
                <use id="reset" xlink:href="#resetDef" x="30" y="36" onmousedown="handleReset()"/>
                <g id="arrowUp" xlink:href="#dirArrow" transform="translate(30 24)" onmousedown="handlePan(0,-1)">
                  <use xlink:href="#rim" fill="#404040">
                        <set attributeName="fill" to="#808080" begin="arrowUp.mouseover" end="arrowUp.mouseout"/>
                  </use>
                  <path fill="none" stroke="white" stroke-width="1.5" d="M0,-3.0v7 M-2.5,-0.5L0,-3.0L2.5,-0.5"/>
                </g>
                <g id="arrowRight" xlink:href="#dirArrow" transform="rotate(90) translate(36 -43)" onmousedown="handlePan(1,0)">
                  <use xlink:href="#rim" fill="#404040">
                        <set attributeName="fill" to="#808080" begin="arrowRight.mouseover" end="arrowRight.mouseout"/>
                  </use>
                  <path fill="none" stroke="white" stroke-width="1.5" d="M0,-3.0v7 M-2.5,-0.5L0,-3.0L2.5,-0.5"/>
                </g>
                <g id="arrowDown" xlink:href="#dirArrow" transform="rotate(180) translate(-30 -48)" onmousedown="handlePan(0,1)">
                  <use xlink:href="#rim" fill="#404040">
                        <set attributeName="fill" to="#808080" begin="arrowDown.mouseover" end="arrowDown.mouseout"/>
                  </use>
                  <path fill="none" stroke="white" stroke-width="1.5" d="M0,-3.0v7 M-2.5,-0.5L0,-3.0L2.5,-0.5"/>
                </g>
                <g id="arrowLeft" xlink:href="#dirArrow" transform="rotate(270) translate(-36 17)" onmousedown="handlePan(-1,0)">
                  <use xlink:href="#rim" fill="#404040">
                        <set attributeName="fill" to="#808080" begin="arrowLeft.mouseover" end="arrowLeft.mouseout"/>
                  </use>
                  <path fill="none" stroke="white" stroke-width="1.5" d="M0,-3.0v7 M-2.5,-0.5L0,-3.0L2.5,-0.5"/>
                </g>
        </g>
        <svg viewBox="0 0 15 15" width="100%" height="30px" preserveAspectRatio="xMaxYMin meet">
         <g id="arrow_out" transform="scale(0.3 0.3)">
          <a xlink:href="class_gam_r_1_1_nucleus_1_1_transition__coll__graph_org.svg" target="_base">
           <rect id="button" ry="5" rx="5" y="6" x="6" height="38" width="38"
                fill="#f2f5e9" fill-opacity="0.5" stroke="#606060" stroke-width="1.0"/>
           <path id="arrow"
             d="M 11.500037,31.436501 C 11.940474,20.09759 22.043105,11.32322 32.158766,21.979434 L 37.068811,17.246167 C 37.068811,17.246167 37.088388,32 37.088388,32 L 22.160133,31.978069 C 22.160133,31.978069 26.997745,27.140456 26.997745,27.140456 C 18.528582,18.264221 13.291696,25.230495 11.500037,31.436501 z"
             style="fill:#404040;"/>
          </a>
         </g>
        </svg>
</svg>
