<?xml version="1.0" encoding="UTF-8" standalone="no"?>
<!DOCTYPE svg PUBLIC "-//W3C//DTD SVG 1.1//EN"
 "http://www.w3.org/Graphics/SVG/1.1/DTD/svg11.dtd">
<!-- Generated by graphviz version 2.50.0 (20220203.2022)
 -->
<!-- Title: src/lib/sort/CoincidenceCubeDiff.hh Pages: 1 -->
<svg width="1220pt" height="151pt"
 viewBox="0.00 0.00 1220.00 151.00" xmlns="http://www.w3.org/2000/svg" xmlns:xlink="http://www.w3.org/1999/xlink">
<g id="graph0" class="graph" transform="scale(1 1) rotate(0) translate(4 147)">
<title>src/lib/sort/CoincidenceCubeDiff.hh</title>
<polygon fill="white" stroke="transparent" points="-4,4 -4,-147 1216,-147 1216,4 -4,4"/>
<!-- Node1 -->
<g id="node1" class="node">
<title>Node1</title>
<g id="a_node1"><a xlink:title=" ">
<polygon fill="#bfbfbf" stroke="black" points="442.5,-112.5 442.5,-142.5 561.5,-142.5 561.5,-112.5 442.5,-112.5"/>
<text text-anchor="start" x="450.5" y="-130.5" font-family="Helvetica,sans-Serif" font-size="10.00">src/lib/sort/Coincidence</text>
<text text-anchor="middle" x="502" y="-119.5" font-family="Helvetica,sans-Serif" font-size="10.00">CubeDiff.hh</text>
</a>
</g>
</g>
<!-- Node2 -->
<g id="node2" class="node">
<title>Node2</title>
<g id="a_node2"><a xlink:href="../../db/dea/_sorter_8hh.html" target="_top" xlink:title=" ">
<polygon fill="white" stroke="black" points="474,-56.5 474,-75.5 530,-75.5 530,-56.5 474,-56.5"/>
<text text-anchor="middle" x="502" y="-63.5" font-family="Helvetica,sans-Serif" font-size="10.00">Sorter.hh</text>
</a>
</g>
</g>
<!-- Node1&#45;&gt;Node2 -->
<g id="edge1" class="edge">
<title>Node1&#45;&gt;Node2</title>
<path fill="none" stroke="midnightblue" d="M502,-112.4C502,-104.47 502,-94.46 502,-85.86"/>
<polygon fill="midnightblue" stroke="midnightblue" points="505.5,-85.66 502,-75.66 498.5,-85.66 505.5,-85.66"/>
</g>
<!-- Node3 -->
<g id="node3" class="node">
<title>Node3</title>
<g id="a_node3"><a xlink:title=" ">
<polygon fill="white" stroke="#bfbfbf" points="0,-0.5 0,-19.5 46,-19.5 46,-0.5 0,-0.5"/>
<text text-anchor="middle" x="23" y="-7.5" font-family="Helvetica,sans-Serif" font-size="10.00">atomic</text>
</a>
</g>
</g>
<!-- Node2&#45;&gt;Node3 -->
<g id="edge2" class="edge">
<title>Node2&#45;&gt;Node3</title>
<path fill="none" stroke="midnightblue" d="M473.77,-63.86C404.28,-60.7 219.32,-50.1 56.5,-19.98"/>
<polygon fill="midnightblue" stroke="midnightblue" points="56.78,-16.47 46.31,-18.06 55.49,-23.35 56.78,-16.47"/>
</g>
<!-- Node4 -->
<g id="node4" class="node">
<title>Node4</title>
<g id="a_node4"><a xlink:title=" ">
<polygon fill="white" stroke="#bfbfbf" points="64.5,-0.5 64.5,-19.5 99.5,-19.5 99.5,-0.5 64.5,-0.5"/>
<text text-anchor="middle" x="82" y="-7.5" font-family="Helvetica,sans-Serif" font-size="10.00">map</text>
</a>
</g>
</g>
<!-- Node2&#45;&gt;Node4 -->
<g id="edge3" class="edge">
<title>Node2&#45;&gt;Node4</title>
<path fill="none" stroke="midnightblue" d="M473.94,-63.91C410.4,-60.99 250.66,-51.15 109.86,-20"/>
<polygon fill="midnightblue" stroke="midnightblue" points="110.28,-16.51 99.75,-17.72 108.74,-23.34 110.28,-16.51"/>
</g>
<!-- Node5 -->
<g id="node5" class="node">
<title>Node5</title>
<g id="a_node5"><a xlink:title=" ">
<polygon fill="white" stroke="#bfbfbf" points="117.5,-0.5 117.5,-19.5 168.5,-19.5 168.5,-0.5 117.5,-0.5"/>
<text text-anchor="middle" x="143" y="-7.5" font-family="Helvetica,sans-Serif" font-size="10.00">memory</text>
</a>
</g>
</g>
<!-- Node2&#45;&gt;Node5 -->
<g id="edge4" class="edge">
<title>Node2&#45;&gt;Node5</title>
<path fill="none" stroke="midnightblue" d="M473.99,-62.28C419.07,-56.69 293.29,-42.69 178.55,-20.11"/>
<polygon fill="midnightblue" stroke="midnightblue" points="179.03,-16.64 168.54,-18.12 177.66,-23.51 179.03,-16.64"/>
</g>
<!-- Node6 -->
<g id="node6" class="node">
<title>Node6</title>
<g id="a_node6"><a xlink:title=" ">
<polygon fill="white" stroke="#bfbfbf" points="186.5,-0.5 186.5,-19.5 229.5,-19.5 229.5,-0.5 186.5,-0.5"/>
<text text-anchor="middle" x="208" y="-7.5" font-family="Helvetica,sans-Serif" font-size="10.00">mutex</text>
</a>
</g>
</g>
<!-- Node2&#45;&gt;Node6 -->
<g id="edge5" class="edge">
<title>Node2&#45;&gt;Node6</title>
<path fill="none" stroke="midnightblue" d="M473.64,-61.33C426.75,-55.01 330,-40.92 239.42,-20.11"/>
<polygon fill="midnightblue" stroke="midnightblue" points="240.08,-16.67 229.54,-17.81 238.49,-23.49 240.08,-16.67"/>
</g>
<!-- Node7 -->
<g id="node7" class="node">
<title>Node7</title>
<g id="a_node7"><a xlink:title=" ">
<polygon fill="white" stroke="#bfbfbf" points="247.5,-0.5 247.5,-19.5 306.5,-19.5 306.5,-0.5 247.5,-0.5"/>
<text text-anchor="middle" x="277" y="-7.5" font-family="Helvetica,sans-Serif" font-size="10.00">stdexcept</text>
</a>
</g>
</g>
<!-- Node2&#45;&gt;Node7 -->
<g id="edge6" class="edge">
<title>Node2&#45;&gt;Node7</title>
<path fill="none" stroke="midnightblue" d="M473.96,-58.27C434.31,-48.75 361.69,-31.32 316.57,-20.5"/>
<polygon fill="midnightblue" stroke="midnightblue" points="317.37,-17.09 306.83,-18.16 315.74,-23.9 317.37,-17.09"/>
</g>
<!-- Node8 -->
<g id="node8" class="node">
<title>Node8</title>
<g id="a_node8"><a xlink:title=" ">
<polygon fill="white" stroke="#bfbfbf" points="324.5,-0.5 324.5,-19.5 365.5,-19.5 365.5,-0.5 324.5,-0.5"/>
<text text-anchor="middle" x="345" y="-7.5" font-family="Helvetica,sans-Serif" font-size="10.00">string</text>
</a>
</g>
</g>
<!-- Node2&#45;&gt;Node8 -->
<g id="edge7" class="edge">
<title>Node2&#45;&gt;Node8</title>
<path fill="none" stroke="midnightblue" d="M477.12,-56.44C449.59,-46.97 405.19,-31.7 375.56,-21.51"/>
<polygon fill="midnightblue" stroke="midnightblue" points="376.34,-18.08 365.75,-18.14 374.07,-24.7 376.34,-18.08"/>
</g>
<!-- Node9 -->
<g id="node9" class="node">
<title>Node9</title>
<g id="a_node9"><a xlink:title=" ">
<polygon fill="white" stroke="#bfbfbf" points="384,-0.5 384,-19.5 428,-19.5 428,-0.5 384,-0.5"/>
<text text-anchor="middle" x="406" y="-7.5" font-family="Helvetica,sans-Serif" font-size="10.00">thread</text>
</a>
</g>
</g>
<!-- Node2&#45;&gt;Node9 -->
<g id="edge8" class="edge">
<title>Node2&#45;&gt;Node9</title>
<path fill="none" stroke="midnightblue" d="M486.58,-56.32C471.46,-47.82 448.18,-34.73 430.53,-24.8"/>
<polygon fill="midnightblue" stroke="midnightblue" points="431.82,-21.51 421.39,-19.65 428.39,-27.61 431.82,-21.51"/>
</g>
<!-- Node10 -->
<g id="node10" class="node">
<title>Node10</title>
<g id="a_node10"><a xlink:title=" ">
<polygon fill="white" stroke="#bfbfbf" points="446,-0.5 446,-19.5 490,-19.5 490,-0.5 446,-0.5"/>
<text text-anchor="middle" x="468" y="-7.5" font-family="Helvetica,sans-Serif" font-size="10.00">vector</text>
</a>
</g>
</g>
<!-- Node2&#45;&gt;Node10 -->
<g id="edge9" class="edge">
<title>Node2&#45;&gt;Node10</title>
<path fill="none" stroke="midnightblue" d="M496.39,-56.08C491.63,-48.53 484.68,-37.49 478.85,-28.23"/>
<polygon fill="midnightblue" stroke="midnightblue" points="481.8,-26.35 473.51,-19.75 475.88,-30.08 481.8,-26.35"/>
</g>
<!-- Node11 -->
<g id="node11" class="node">
<title>Node11</title>
<g id="a_node11"><a xlink:title=" ">
<polygon fill="white" stroke="#bfbfbf" points="508.5,-0.5 508.5,-19.5 563.5,-19.5 563.5,-0.5 508.5,-0.5"/>
<text text-anchor="middle" x="536" y="-7.5" font-family="Helvetica,sans-Serif" font-size="10.00">TChain.h</text>
</a>
</g>
</g>
<!-- Node2&#45;&gt;Node11 -->
<g id="edge10" class="edge">
<title>Node2&#45;&gt;Node11</title>
<path fill="none" stroke="midnightblue" d="M507.61,-56.08C512.37,-48.53 519.32,-37.49 525.15,-28.23"/>
<polygon fill="midnightblue" stroke="midnightblue" points="528.12,-30.08 530.49,-19.75 522.2,-26.35 528.12,-30.08"/>
</g>
<!-- Node12 -->
<g id="node12" class="node">
<title>Node12</title>
<g id="a_node12"><a xlink:title=" ">
<polygon fill="white" stroke="#bfbfbf" points="582,-0.5 582,-19.5 628,-19.5 628,-0.5 582,-0.5"/>
<text text-anchor="middle" x="605" y="-7.5" font-family="Helvetica,sans-Serif" font-size="10.00">TFile.h</text>
</a>
</g>
</g>
<!-- Node2&#45;&gt;Node12 -->
<g id="edge11" class="edge">
<title>Node2&#45;&gt;Node12</title>
<path fill="none" stroke="midnightblue" d="M518.55,-56.32C534.99,-47.7 560.43,-34.36 579.47,-24.39"/>
<polygon fill="midnightblue" stroke="midnightblue" points="581.26,-27.4 588.49,-19.65 578.01,-21.2 581.26,-27.4"/>
</g>
<!-- Node13 -->
<g id="node13" class="node">
<title>Node13</title>
<g id="a_node13"><a xlink:title=" ">
<polygon fill="white" stroke="#bfbfbf" points="646.5,-0.5 646.5,-19.5 689.5,-19.5 689.5,-0.5 646.5,-0.5"/>
<text text-anchor="middle" x="668" y="-7.5" font-family="Helvetica,sans-Serif" font-size="10.00">TH1.h</text>
</a>
</g>
</g>
<!-- Node2&#45;&gt;Node13 -->
<g id="edge12" class="edge">
<title>Node2&#45;&gt;Node13</title>
<path fill="none" stroke="midnightblue" d="M528.3,-56.44C557.75,-46.86 605.45,-31.35 636.77,-21.16"/>
<polygon fill="midnightblue" stroke="midnightblue" points="637.89,-24.48 646.32,-18.05 635.72,-17.82 637.89,-24.48"/>
</g>
<!-- Node14 -->
<g id="node14" class="node">
<title>Node14</title>
<g id="a_node14"><a xlink:title=" ">
<polygon fill="white" stroke="#bfbfbf" points="707.5,-0.5 707.5,-19.5 750.5,-19.5 750.5,-0.5 707.5,-0.5"/>
<text text-anchor="middle" x="729" y="-7.5" font-family="Helvetica,sans-Serif" font-size="10.00">TH2.h</text>
</a>
</g>
</g>
<!-- Node2&#45;&gt;Node14 -->
<g id="edge13" class="edge">
<title>Node2&#45;&gt;Node14</title>
<path fill="none" stroke="midnightblue" d="M530.2,-59.18C566.7,-51.51 632.47,-37.24 697.43,-20.29"/>
<polygon fill="midnightblue" stroke="midnightblue" points="698.64,-23.59 707.42,-17.66 696.86,-16.82 698.64,-23.59"/>
</g>
<!-- Node15 -->
<g id="node15" class="node">
<title>Node15</title>
<g id="a_node15"><a xlink:title=" ">
<polygon fill="white" stroke="#bfbfbf" points="768.5,-0.5 768.5,-19.5 811.5,-19.5 811.5,-0.5 768.5,-0.5"/>
<text text-anchor="middle" x="790" y="-7.5" font-family="Helvetica,sans-Serif" font-size="10.00">TH3.h</text>
</a>
</g>
</g>
<!-- Node2&#45;&gt;Node15 -->
<g id="edge14" class="edge">
<title>Node2&#45;&gt;Node15</title>
<path fill="none" stroke="midnightblue" d="M530.09,-61.22C576.01,-54.79 670.13,-40.63 758.54,-20.13"/>
<polygon fill="midnightblue" stroke="midnightblue" points="759.52,-23.49 768.45,-17.8 757.92,-16.68 759.52,-23.49"/>
</g>
<!-- Node16 -->
<g id="node16" class="node">
<title>Node16</title>
<g id="a_node16"><a xlink:title=" ">
<polygon fill="white" stroke="#bfbfbf" points="829.5,-0.5 829.5,-19.5 888.5,-19.5 888.5,-0.5 829.5,-0.5"/>
<text text-anchor="middle" x="859" y="-7.5" font-family="Helvetica,sans-Serif" font-size="10.00">TObject.h</text>
</a>
</g>
</g>
<!-- Node2&#45;&gt;Node16 -->
<g id="edge15" class="edge">
<title>Node2&#45;&gt;Node16</title>
<path fill="none" stroke="midnightblue" d="M530.31,-61.9C584.52,-55.77 706.92,-41 819.06,-20.23"/>
<polygon fill="midnightblue" stroke="midnightblue" points="820,-23.62 829.18,-18.34 818.71,-16.74 820,-23.62"/>
</g>
<!-- Node17 -->
<g id="node17" class="node">
<title>Node17</title>
<g id="a_node17"><a xlink:title=" ">
<polygon fill="white" stroke="#bfbfbf" points="906.5,-0.5 906.5,-19.5 1045.5,-19.5 1045.5,-0.5 906.5,-0.5"/>
<text text-anchor="middle" x="976" y="-7.5" font-family="Helvetica,sans-Serif" font-size="10.00">ROOT/TThreadedObject.hxx</text>
</a>
</g>
</g>
<!-- Node2&#45;&gt;Node17 -->
<g id="edge16" class="edge">
<title>Node2&#45;&gt;Node17</title>
<path fill="none" stroke="midnightblue" d="M530.33,-61.8C593.81,-54.62 752.5,-36.65 895.96,-20.23"/>
<polygon fill="midnightblue" stroke="midnightblue" points="896.72,-23.67 906.26,-19.05 895.93,-16.71 896.72,-23.67"/>
</g>
<!-- Node18 -->
<g id="node18" class="node">
<title>Node18</title>
<g id="a_node18"><a xlink:title=" ">
<polygon fill="white" stroke="#bfbfbf" points="1064,-0.5 1064,-19.5 1212,-19.5 1212,-0.5 1064,-0.5"/>
<text text-anchor="middle" x="1138" y="-7.5" font-family="Helvetica,sans-Serif" font-size="10.00">ROOT/TTreeProcessorMT.hxx</text>
</a>
</g>
</g>
<!-- Node2&#45;&gt;Node18 -->
<g id="edge17" class="edge">
<title>Node2&#45;&gt;Node18</title>
<path fill="none" stroke="midnightblue" d="M530.22,-62.97C610.35,-57.16 846.33,-39.64 1053.64,-20.11"/>
<polygon fill="midnightblue" stroke="midnightblue" points="1054.17,-23.57 1063.8,-19.15 1053.51,-16.6 1054.17,-23.57"/>
</g>
</g>
</svg>
