<?xml version="1.0" encoding="UTF-8" standalone="no"?>
<!DOCTYPE svg PUBLIC "-//W3C//DTD SVG 1.1//EN"
 "http://www.w3.org/Graphics/SVG/1.1/DTD/svg11.dtd">
<!-- Generated by graphviz version 2.50.0 (20220203.2022)
 -->
<!-- Title: GamR::Utils::getline Pages: 1 -->
<!--zoomable 601 -->
<svg id="main" version="1.1" xmlns="http://www.w3.org/2000/svg" xmlns:xlink="http://www.w3.org/1999/xlink" xml:space="preserve" onload="init(evt)">
<style type="text/css"><![CDATA[
.edge:hover path { stroke: red; }
.edge:hover polygon { stroke: red; fill: red; }
]]></style>
<script type="text/javascript"><![CDATA[
var edges = document.getElementsByTagName('g');
if (edges && edges.length) {
  for (var i=0;i<edges.length;i++) {
    if (edges[i].id.substr(0,4)=='edge') {
      edges[i].setAttribute('class','edge');
    }
  }
}
]]></script>
        <defs>
                <circle id="rim" cx="0" cy="0" r="7"/>
                <circle id="rim2" cx="0" cy="0" r="3.5"/>
                <g id="zoomPlus">
                        <use xlink:href="#rim" fill="#404040">
                                <set attributeName="fill" to="#808080" begin="zoomplus.mouseover" end="zoomplus.mouseout"/>
                        </use>
                        <path d="M-4,0h8M0,-4v8" fill="none" stroke="white" stroke-width="1.5" pointer-events="none"/>
                </g>
                <g id="zoomMin">
                        <use xlink:href="#rim" fill="#404040">
                                <set attributeName="fill" to="#808080" begin="zoomminus.mouseover" end="zoomminus.mouseout"/>
                        </use>
                        <path d="M-4,0h8" fill="none" stroke="white" stroke-width="1.5" pointer-events="none"/>
                </g>
                <g id="dirArrow">
                        <path fill="none" stroke="white" stroke-width="1.5" d="M0,-3.0v7 M-2.5,-0.5L0,-3.0L2.5,-0.5"/>
                </g>
               <g id="resetDef">
                       <use xlink:href="#rim2" fill="#404040">
                               <set attributeName="fill" to="#808080" begin="reset.mouseover" end="reset.mouseout"/>
                       </use>
               </g>
        </defs>

<script type="text/javascript">
var viewWidth = 872;
var viewHeight = 601;
var sectionId = 'dynsection-12';
</script>
<script xlink:href="../../svgpan.js"/>
<svg id="graph" class="graph">
<g id="viewport">
<title>GamR::Utils::getline</title>
<polygon fill="white" stroke="transparent" points="-4,4 -4,-597 868,-597 868,4 -4,4"/>
<!-- Node1 -->
<g id="node1" class="node">
<title>Node1</title>
<g id="a_node1"><a xlink:title=" ">
<polygon fill="#bfbfbf" stroke="black" points="762,-278 762,-297 864,-297 864,-278 762,-278"/>
<text text-anchor="middle" x="813" y="-285" font-family="Helvetica,sans-Serif" font-size="10.00">GamR::Utils::getline</text>
</a>
</g>
</g>
<!-- Node2 -->
<g id="node2" class="node">
<title>Node2</title>
<g id="a_node2"><a xlink:href="../../d1/da3/class_gam_r_1_1_sort_1_1_type_1_1_matrix.html#a00e6aa66c1c3b6a8a75dba762085c610" target="_top" xlink:title=" ">
<polygon fill="white" stroke="black" points="584.5,-562.5 584.5,-592.5 707.5,-592.5 707.5,-562.5 584.5,-562.5"/>
<text text-anchor="start" x="592.5" y="-580.5" font-family="Helvetica,sans-Serif" font-size="10.00">GamR::Sort::Type::Matrix</text>
<text text-anchor="middle" x="646" y="-569.5" font-family="Helvetica,sans-Serif" font-size="10.00">::Matrix</text>
</a>
</g>
</g>
<!-- Node1&#45;&gt;Node2 -->
<g id="edge1" class="edge">
<title>Node1&#45;&gt;Node2</title>
<path fill="none" stroke="midnightblue" d="M811.47,-307.16C809.08,-355.81 796.07,-482.94 726,-552.5 720.79,-557.67 714.53,-561.77 707.83,-565.02"/>
<polygon fill="midnightblue" stroke="midnightblue" points="814.97,-307.17 811.86,-297.04 807.98,-306.9 814.97,-307.17"/>
</g>
<!-- Node3 -->
<g id="node3" class="node">
<title>Node3</title>
<g id="a_node3"><a xlink:href="../../dc/d89/namespace_gam_r_1_1_spect.html#ab6376882b1b259ab8ae15200fa9ce7c3" target="_top" xlink:title=" ">
<polygon fill="white" stroke="black" points="587,-524 587,-543 705,-543 705,-524 587,-524"/>
<text text-anchor="middle" x="646" y="-531" font-family="Helvetica,sans-Serif" font-size="10.00">GamR::Spect::FitPeaks</text>
</a>
</g>
</g>
<!-- Node1&#45;&gt;Node3 -->
<g id="edge2" class="edge">
<title>Node1&#45;&gt;Node3</title>
<path fill="none" stroke="midnightblue" d="M810.57,-306.98C806.25,-350.99 789.41,-458.62 726,-514.5 719.97,-519.82 712.7,-523.71 705.06,-526.54"/>
<polygon fill="midnightblue" stroke="midnightblue" points="814.06,-307.27 811.43,-297.01 807.08,-306.66 814.06,-307.27"/>
</g>
<!-- Node4 -->
<g id="node4" class="node">
<title>Node4</title>
<g id="a_node4"><a xlink:href="../../d2/d80/namespace_gam_r_1_1_t_k.html#a48505adddc15725fea02cfa4876b6783" target="_top" xlink:title=" ">
<polygon fill="white" stroke="black" points="574.5,-486 574.5,-505 717.5,-505 717.5,-486 574.5,-486"/>
<text text-anchor="middle" x="646" y="-493" font-family="Helvetica,sans-Serif" font-size="10.00">GamR::TK::GainMatchEnergy</text>
</a>
</g>
</g>
<!-- Node1&#45;&gt;Node4 -->
<g id="edge3" class="edge">
<title>Node1&#45;&gt;Node4</title>
<path fill="none" stroke="midnightblue" d="M808.28,-307.33C800.2,-344.95 777.43,-426.91 726,-471.5 718.74,-477.79 709.87,-482.43 700.73,-485.86"/>
<polygon fill="midnightblue" stroke="midnightblue" points="811.79,-307.66 810.34,-297.17 804.93,-306.27 811.79,-307.66"/>
</g>
<!-- Node6 -->
<g id="node6" class="node">
<title>Node6</title>
<g id="a_node6"><a xlink:href="../../d0/db7/namespace_gam_r_1_1_utils.html#aed2bea4374da5416077fee90a1ebf9e4" target="_top" xlink:title=" ">
<polygon fill="white" stroke="black" points="590.5,-240 590.5,-259 701.5,-259 701.5,-240 590.5,-240"/>
<text text-anchor="middle" x="646" y="-247" font-family="Helvetica,sans-Serif" font-size="10.00">GamR::Utils::GetInput</text>
</a>
</g>
</g>
<!-- Node1&#45;&gt;Node6 -->
<g id="edge5" class="edge">
<title>Node1&#45;&gt;Node6</title>
<path fill="none" stroke="midnightblue" d="M760.35,-275.6C737.15,-270.26 710.16,-264.05 688.34,-259.02"/>
<polygon fill="midnightblue" stroke="midnightblue" points="759.83,-279.08 770.36,-277.91 761.4,-272.26 759.83,-279.08"/>
</g>
<!-- Node7 -->
<g id="node7" class="node">
<title>Node7</title>
<g id="a_node7"><a xlink:href="../../dd/d3e/class_gam_r_1_1_coulex_1_1_coulex_calculation.html#acb08f0024d9a247dd0b03169bc5561fd" target="_top" xlink:title=" ">
<polygon fill="white" stroke="black" points="370,-261.5 370,-291.5 530,-291.5 530,-261.5 370,-261.5"/>
<text text-anchor="start" x="378" y="-279.5" font-family="Helvetica,sans-Serif" font-size="10.00">GamR::Coulex::CoulexCalculation</text>
<text text-anchor="middle" x="450" y="-268.5" font-family="Helvetica,sans-Serif" font-size="10.00">::SetBeam</text>
</a>
</g>
</g>
<!-- Node1&#45;&gt;Node7 -->
<g id="edge27" class="edge">
<title>Node1&#45;&gt;Node7</title>
<path fill="none" stroke="midnightblue" d="M751.61,-285.66C690.88,-283.81 596.94,-280.95 530.26,-278.92"/>
<polygon fill="midnightblue" stroke="midnightblue" points="751.7,-289.16 761.8,-285.97 751.92,-282.17 751.7,-289.16"/>
</g>
<!-- Node12 -->
<g id="node12" class="node">
<title>Node12</title>
<g id="a_node12"><a xlink:href="../../dd/d3e/class_gam_r_1_1_coulex_1_1_coulex_calculation.html#a46d4f1bd67b5c6c438efd93b9f1e4838" target="_top" xlink:title=" ">
<polygon fill="white" stroke="black" points="370,-114.5 370,-144.5 530,-144.5 530,-114.5 370,-114.5"/>
<text text-anchor="start" x="378" y="-132.5" font-family="Helvetica,sans-Serif" font-size="10.00">GamR::Coulex::CoulexCalculation</text>
<text text-anchor="middle" x="450" y="-121.5" font-family="Helvetica,sans-Serif" font-size="10.00">::SetLevelScheme</text>
</a>
</g>
</g>
<!-- Node1&#45;&gt;Node12 -->
<g id="edge34" class="edge">
<title>Node1&#45;&gt;Node12</title>
<path fill="none" stroke="midnightblue" d="M792.61,-271.74C775.9,-258.89 750.63,-241.18 726,-230.5 658.95,-201.42 629.33,-228.99 566,-192.5 545.84,-180.88 549.72,-166.85 530,-154.5 523.9,-150.68 517.18,-147.4 510.29,-144.6"/>
<polygon fill="midnightblue" stroke="midnightblue" points="790.5,-274.53 800.53,-277.95 794.82,-269.03 790.5,-274.53"/>
</g>
<!-- Node14 -->
<g id="node14" class="node">
<title>Node14</title>
<g id="a_node14"><a xlink:href="../../dd/d3e/class_gam_r_1_1_coulex_1_1_coulex_calculation.html#a2a7d4ff2433572678844223f385bba86" target="_top" xlink:title=" ">
<polygon fill="white" stroke="black" points="370,-310.5 370,-340.5 530,-340.5 530,-310.5 370,-310.5"/>
<text text-anchor="start" x="378" y="-328.5" font-family="Helvetica,sans-Serif" font-size="10.00">GamR::Coulex::CoulexCalculation</text>
<text text-anchor="middle" x="450" y="-317.5" font-family="Helvetica,sans-Serif" font-size="10.00">::SetTarget</text>
</a>
</g>
</g>
<!-- Node1&#45;&gt;Node14 -->
<g id="edge35" class="edge">
<title>Node1&#45;&gt;Node14</title>
<path fill="none" stroke="midnightblue" d="M751.61,-293.86C690.88,-300.25 596.94,-310.14 530.26,-317.16"/>
<polygon fill="midnightblue" stroke="midnightblue" points="752.23,-297.31 761.8,-292.78 751.49,-290.35 752.23,-297.31"/>
</g>
<!-- Node15 -->
<g id="node15" class="node">
<title>Node15</title>
<g id="a_node15"><a xlink:href="../../d6/dc2/namespace_gam_r_1_1_o_r_n_l.html#aa025a5ef5e8093613423856223cdd3c0" target="_top" xlink:title=" ">
<polygon fill="white" stroke="black" points="588,-164 588,-183 704,-183 704,-164 588,-164"/>
<text text-anchor="middle" x="646" y="-171" font-family="Helvetica,sans-Serif" font-size="10.00">GamR::ORNL::his2root</text>
</a>
</g>
</g>
<!-- Node1&#45;&gt;Node15 -->
<g id="edge18" class="edge">
<title>Node1&#45;&gt;Node15</title>
<path fill="none" stroke="midnightblue" d="M799.5,-269.7C784.34,-249.39 756.95,-216.54 726,-197.5 715.87,-191.27 704,-186.55 692.59,-183.03"/>
<polygon fill="midnightblue" stroke="midnightblue" points="796.68,-271.77 805.39,-277.8 802.34,-267.66 796.68,-271.77"/>
</g>
<!-- Node16 -->
<g id="node16" class="node">
<title>Node16</title>
<g id="a_node16"><a xlink:href="../../d4/d49/his2root_8cc.html#a0ddf1224851353fc92bfbff6f499fa97" target="_top" xlink:title=" ">
<polygon fill="white" stroke="black" points="627,-126 627,-145 665,-145 665,-126 627,-126"/>
<text text-anchor="middle" x="646" y="-133" font-family="Helvetica,sans-Serif" font-size="10.00">main</text>
</a>
</g>
</g>
<!-- Node1&#45;&gt;Node16 -->
<g id="edge19" class="edge">
<title>Node1&#45;&gt;Node16</title>
<path fill="none" stroke="midnightblue" d="M804.94,-268.12C793.24,-238.8 766.96,-183.52 726,-154.5 707.93,-141.7 682.31,-137.45 665.2,-136.08"/>
<polygon fill="midnightblue" stroke="midnightblue" points="801.75,-269.56 808.6,-277.65 808.29,-267.06 801.75,-269.56"/>
</g>
<!-- Node17 -->
<g id="node17" class="node">
<title>Node17</title>
<g id="a_node17"><a xlink:href="../../d1/d06/group___o_r_n_l.html#ga8dadacfbdfaeef91b856b23b906ac4e2" target="_top" xlink:title=" ">
<polygon fill="white" stroke="black" points="375.5,-63 375.5,-82 524.5,-82 524.5,-63 375.5,-63"/>
<text text-anchor="middle" x="450" y="-70" font-family="Helvetica,sans-Serif" font-size="10.00">GamR::ORNL::readAllBananas</text>
</a>
</g>
</g>
<!-- Node1&#45;&gt;Node17 -->
<g id="edge20" class="edge">
<title>Node1&#45;&gt;Node17</title>
<path fill="none" stroke="midnightblue" d="M810.7,-267.73C806.67,-224.66 790.46,-122.7 726,-78.5 651.76,-27.59 537.75,-48.4 482.79,-62.91"/>
<polygon fill="midnightblue" stroke="midnightblue" points="807.22,-268.09 811.51,-277.78 814.19,-267.53 807.22,-268.09"/>
</g>
<!-- Node19 -->
<g id="node19" class="node">
<title>Node19</title>
<g id="a_node19"><a xlink:href="../../d1/d06/group___o_r_n_l.html#gadf516cfb4c9ea542a49beb4a7c8b3abd" target="_top" xlink:title=" ">
<polygon fill="white" stroke="black" points="579.5,-88 579.5,-107 712.5,-107 712.5,-88 579.5,-88"/>
<text text-anchor="middle" x="646" y="-95" font-family="Helvetica,sans-Serif" font-size="10.00">GamR::ORNL::readBanana</text>
</a>
</g>
</g>
<!-- Node1&#45;&gt;Node19 -->
<g id="edge22" class="edge">
<title>Node1&#45;&gt;Node19</title>
<path fill="none" stroke="midnightblue" d="M807.84,-267.82C799.2,-231.95 775.81,-156 726,-116.5 721.14,-112.64 715.61,-109.55 709.8,-107.08"/>
<polygon fill="midnightblue" stroke="midnightblue" points="804.52,-268.98 810.14,-277.96 811.34,-267.43 804.52,-268.98"/>
</g>
<!-- Node20 -->
<g id="node20" class="node">
<title>Node20</title>
<g id="a_node20"><a xlink:href="../../dd/d3e/class_gam_r_1_1_coulex_1_1_coulex_calculation.html#a79a4ea8f06954b1cf8b8431010fedbf3" target="_top" xlink:title=" ">
<polygon fill="white" stroke="black" points="174,-334.5 174,-364.5 334,-364.5 334,-334.5 174,-334.5"/>
<text text-anchor="start" x="182" y="-352.5" font-family="Helvetica,sans-Serif" font-size="10.00">GamR::Coulex::CoulexCalculation</text>
<text text-anchor="middle" x="254" y="-341.5" font-family="Helvetica,sans-Serif" font-size="10.00">::ReadFromFile</text>
</a>
</g>
</g>
<!-- Node1&#45;&gt;Node20 -->
<g id="edge24" class="edge">
<title>Node1&#45;&gt;Node20</title>
<path fill="none" stroke="midnightblue" d="M806.07,-306.85C795.52,-337.59 770.32,-396.83 726,-423.5 658.15,-464.32 444.93,-464.11 370,-438.5 327.24,-423.89 288.05,-386.2 268.35,-364.85"/>
<polygon fill="midnightblue" stroke="midnightblue" points="809.42,-307.86 809.2,-297.26 802.77,-305.68 809.42,-307.86"/>
</g>
<!-- Node21 -->
<g id="node21" class="node">
<title>Node21</title>
<g id="a_node21"><a xlink:href="../../d5/d72/class_gam_r_1_1_efficiency_1_1_data_set.html#a83f1325eba075f277b03e7250456dd18" target="_top" xlink:title=" ">
<polygon fill="white" stroke="black" points="581.5,-0.5 581.5,-30.5 710.5,-30.5 710.5,-0.5 581.5,-0.5"/>
<text text-anchor="start" x="589.5" y="-18.5" font-family="Helvetica,sans-Serif" font-size="10.00">GamR::Efficiency::DataSet</text>
<text text-anchor="middle" x="646" y="-7.5" font-family="Helvetica,sans-Serif" font-size="10.00">::SetData</text>
</a>
</g>
</g>
<!-- Node1&#45;&gt;Node21 -->
<g id="edge28" class="edge">
<title>Node1&#45;&gt;Node21</title>
<path fill="none" stroke="midnightblue" d="M810.48,-267.64C805.95,-222.17 788.68,-109.54 726,-45.5 720.05,-39.42 712.74,-34.55 704.99,-30.66"/>
<polygon fill="midnightblue" stroke="midnightblue" points="807,-268.03 811.37,-277.68 813.97,-267.41 807,-268.03"/>
</g>
<!-- Node23 -->
<g id="node23" class="node">
<title>Node23</title>
<g id="a_node23"><a xlink:href="../../dd/d3e/class_gam_r_1_1_coulex_1_1_coulex_calculation.html#acae80ed0264d745708394f63dad5a28f" target="_top" xlink:title=" ">
<polygon fill="white" stroke="black" points="370,-398.5 370,-428.5 530,-428.5 530,-398.5 370,-398.5"/>
<text text-anchor="start" x="378" y="-416.5" font-family="Helvetica,sans-Serif" font-size="10.00">GamR::Coulex::CoulexCalculation</text>
<text text-anchor="middle" x="450" y="-405.5" font-family="Helvetica,sans-Serif" font-size="10.00">::SetDetected</text>
</a>
</g>
</g>
<!-- Node1&#45;&gt;Node23 -->
<g id="edge30" class="edge">
<title>Node1&#45;&gt;Node23</title>
<path fill="none" stroke="midnightblue" d="M803.09,-306.34C790.09,-331.46 763.32,-375.01 726,-394.5 665.77,-425.96 587.74,-428.37 530.2,-424.27"/>
<polygon fill="midnightblue" stroke="midnightblue" points="806.36,-307.64 807.68,-297.12 800.09,-304.52 806.36,-307.64"/>
</g>
<!-- Node24 -->
<g id="node24" class="node">
<title>Node24</title>
<g id="a_node24"><a xlink:href="../../dd/d3e/class_gam_r_1_1_coulex_1_1_coulex_calculation.html#ac1a600b3ea06c9c5c6317482a2ea2a30" target="_top" xlink:title=" ">
<polygon fill="white" stroke="black" points="566,-354.5 566,-384.5 726,-384.5 726,-354.5 566,-354.5"/>
<text text-anchor="start" x="574" y="-372.5" font-family="Helvetica,sans-Serif" font-size="10.00">GamR::Coulex::CoulexCalculation</text>
<text text-anchor="middle" x="646" y="-361.5" font-family="Helvetica,sans-Serif" font-size="10.00">::SetExcited</text>
</a>
</g>
</g>
<!-- Node1&#45;&gt;Node24 -->
<g id="edge32" class="edge">
<title>Node1&#45;&gt;Node24</title>
<path fill="none" stroke="midnightblue" d="M789.19,-302.85C772.21,-313.89 748.23,-328.67 726,-339.5 714.92,-344.9 702.61,-349.98 691.06,-354.38"/>
<polygon fill="midnightblue" stroke="midnightblue" points="791.41,-305.58 797.84,-297.16 787.56,-299.73 791.41,-305.58"/>
</g>
<!-- Node5 -->
<g id="node5" class="node">
<title>Node5</title>
<g id="a_node5"><a xlink:href="../../df/d34/gamrcal_8cc.html#a0ddf1224851353fc92bfbff6f499fa97" target="_top" xlink:title=" ">
<polygon fill="white" stroke="black" points="431,-486 431,-505 469,-505 469,-486 431,-486"/>
<text text-anchor="middle" x="450" y="-493" font-family="Helvetica,sans-Serif" font-size="10.00">main</text>
</a>
</g>
</g>
<!-- Node4&#45;&gt;Node5 -->
<g id="edge4" class="edge">
<title>Node4&#45;&gt;Node5</title>
<path fill="none" stroke="midnightblue" d="M564.13,-495.5C529.06,-495.5 491.09,-495.5 469.27,-495.5"/>
<polygon fill="midnightblue" stroke="midnightblue" points="564.41,-499 574.41,-495.5 564.41,-492 564.41,-499"/>
</g>
<!-- Node6&#45;&gt;Node7 -->
<g id="edge6" class="edge">
<title>Node6&#45;&gt;Node7</title>
<path fill="none" stroke="midnightblue" d="M580.12,-258.53C564.09,-260.76 546.75,-263.17 530.12,-265.49"/>
<polygon fill="midnightblue" stroke="midnightblue" points="581.02,-261.94 590.44,-257.09 580.06,-255 581.02,-261.94"/>
</g>
<!-- Node11 -->
<g id="node11" class="node">
<title>Node11</title>
<g id="a_node11"><a xlink:href="../../dd/d3e/class_gam_r_1_1_coulex_1_1_coulex_calculation.html#ad04858b6cf6ac528e6e56915fe7da556" target="_top" xlink:title=" ">
<polygon fill="white" stroke="black" points="370,-163.5 370,-193.5 530,-193.5 530,-163.5 370,-163.5"/>
<text text-anchor="start" x="378" y="-181.5" font-family="Helvetica,sans-Serif" font-size="10.00">GamR::Coulex::CoulexCalculation</text>
<text text-anchor="middle" x="450" y="-170.5" font-family="Helvetica,sans-Serif" font-size="10.00">::SetInterests</text>
</a>
</g>
</g>
<!-- Node6&#45;&gt;Node11 -->
<g id="edge10" class="edge">
<title>Node6&#45;&gt;Node11</title>
<path fill="none" stroke="midnightblue" d="M596.77,-236.98C586.44,-233.71 575.71,-229.86 566,-225.5 548.89,-217.82 547.06,-211.27 530,-203.5 522.01,-199.86 513.35,-196.54 504.78,-193.59"/>
<polygon fill="midnightblue" stroke="midnightblue" points="595.93,-240.38 606.51,-239.93 597.96,-233.68 595.93,-240.38"/>
</g>
<!-- Node6&#45;&gt;Node12 -->
<g id="edge12" class="edge">
<title>Node6&#45;&gt;Node12</title>
<path fill="none" stroke="midnightblue" d="M582.65,-235.97C576.66,-233.12 570.97,-229.67 566,-225.5 538.9,-202.76 556.97,-177.4 530,-154.5 525.39,-150.59 520.17,-147.29 514.66,-144.5"/>
<polygon fill="midnightblue" stroke="midnightblue" points="581.67,-239.35 592.25,-239.97 584.37,-232.89 581.67,-239.35"/>
</g>
<!-- Node13 -->
<g id="node13" class="node">
<title>Node13</title>
<g id="a_node13"><a xlink:href="../../dd/d3e/class_gam_r_1_1_coulex_1_1_coulex_calculation.html#a6c9d40e4bda6ae80b19bfbfd46a0b8fb" target="_top" xlink:title=" ">
<polygon fill="white" stroke="black" points="370,-212.5 370,-242.5 530,-242.5 530,-212.5 370,-212.5"/>
<text text-anchor="start" x="378" y="-230.5" font-family="Helvetica,sans-Serif" font-size="10.00">GamR::Coulex::CoulexCalculation</text>
<text text-anchor="middle" x="450" y="-219.5" font-family="Helvetica,sans-Serif" font-size="10.00">::SetParticleDet</text>
</a>
</g>
</g>
<!-- Node6&#45;&gt;Node13 -->
<g id="edge14" class="edge">
<title>Node6&#45;&gt;Node13</title>
<path fill="none" stroke="midnightblue" d="M580.12,-242.14C564.09,-240.32 546.75,-238.36 530.12,-236.47"/>
<polygon fill="midnightblue" stroke="midnightblue" points="580.11,-245.66 590.44,-243.31 580.9,-238.71 580.11,-245.66"/>
</g>
<!-- Node6&#45;&gt;Node14 -->
<g id="edge16" class="edge">
<title>Node6&#45;&gt;Node14</title>
<path fill="none" stroke="midnightblue" d="M616.6,-263.59C593.59,-274.7 560.15,-290.16 530,-301.5 521.68,-304.63 512.76,-307.65 504.01,-310.43"/>
<polygon fill="midnightblue" stroke="midnightblue" points="618.33,-266.64 625.79,-259.11 615.27,-260.34 618.33,-266.64"/>
</g>
<!-- Node8 -->
<g id="node8" class="node">
<title>Node8</title>
<g id="a_node8"><a xlink:href="../../dd/d3e/class_gam_r_1_1_coulex_1_1_coulex_calculation.html#ae8ce7427467c968c1a44f74a06ce4a30" target="_top" xlink:title=" ">
<polygon fill="white" stroke="black" points="174,-285.5 174,-315.5 334,-315.5 334,-285.5 174,-285.5"/>
<text text-anchor="start" x="182" y="-303.5" font-family="Helvetica,sans-Serif" font-size="10.00">GamR::Coulex::CoulexCalculation</text>
<text text-anchor="middle" x="254" y="-292.5" font-family="Helvetica,sans-Serif" font-size="10.00">::ExperimentalSetup</text>
</a>
</g>
</g>
<!-- Node7&#45;&gt;Node8 -->
<g id="edge7" class="edge">
<title>Node7&#45;&gt;Node8</title>
<path fill="none" stroke="midnightblue" d="M359.84,-287.53C351.3,-288.59 342.68,-289.65 334.25,-290.7"/>
<polygon fill="midnightblue" stroke="midnightblue" points="360.32,-291 369.81,-286.3 359.46,-284.05 360.32,-291"/>
</g>
<!-- Node9 -->
<g id="node9" class="node">
<title>Node9</title>
<g id="a_node9"><a xlink:href="../../d6/d76/namespace_gam_r_1_1_coulex.html#a41b07b0aa204c45d637b7c5a4e57d989" target="_top" xlink:title=" ">
<polygon fill="white" stroke="black" points="7,-338 7,-357 131,-357 131,-338 7,-338"/>
<text text-anchor="middle" x="69" y="-345" font-family="Helvetica,sans-Serif" font-size="10.00">GamR::Coulex::DoCoulex</text>
</a>
</g>
</g>
<!-- Node8&#45;&gt;Node9 -->
<g id="edge8" class="edge">
<title>Node8&#45;&gt;Node9</title>
<path fill="none" stroke="midnightblue" d="M184.68,-318.05C158.42,-324.79 129.42,-332.24 107.16,-337.96"/>
<polygon fill="midnightblue" stroke="midnightblue" points="185.78,-321.38 194.59,-315.5 184.04,-314.6 185.78,-321.38"/>
</g>
<!-- Node10 -->
<g id="node10" class="node">
<title>Node10</title>
<g id="a_node10"><a xlink:href="../../d6/d76/namespace_gam_r_1_1_coulex.html#a2551a0108b265de32e08ef2042a02212" target="_top" xlink:title=" ">
<polygon fill="white" stroke="black" points="0,-287.5 0,-317.5 138,-317.5 138,-287.5 0,-287.5"/>
<text text-anchor="start" x="8" y="-305.5" font-family="Helvetica,sans-Serif" font-size="10.00">GamR::Coulex::Experimental</text>
<text text-anchor="middle" x="69" y="-294.5" font-family="Helvetica,sans-Serif" font-size="10.00">Setup</text>
</a>
</g>
</g>
<!-- Node8&#45;&gt;Node10 -->
<g id="edge9" class="edge">
<title>Node8&#45;&gt;Node10</title>
<path fill="none" stroke="midnightblue" d="M163.72,-301.48C155.12,-301.57 146.48,-301.66 138.13,-301.76"/>
<polygon fill="midnightblue" stroke="midnightblue" points="163.84,-304.97 173.8,-301.37 163.76,-297.98 163.84,-304.97"/>
</g>
<!-- Node11&#45;&gt;Node8 -->
<g id="edge11" class="edge">
<title>Node11&#45;&gt;Node8</title>
<path fill="none" stroke="midnightblue" d="M382.34,-197.46C378.08,-199.32 373.93,-201.33 370,-203.5 329.28,-225.94 289.59,-264.07 269.18,-285.22"/>
<polygon fill="midnightblue" stroke="midnightblue" points="383.82,-200.64 391.77,-193.63 381.19,-194.15 383.82,-200.64"/>
</g>
<!-- Node12&#45;&gt;Node8 -->
<g id="edge13" class="edge">
<title>Node12&#45;&gt;Node8</title>
<path fill="none" stroke="midnightblue" d="M379.04,-148.99C375.9,-150.69 372.87,-152.52 370,-154.5 318.52,-190.1 279.02,-255.59 262.91,-285.22"/>
<polygon fill="midnightblue" stroke="midnightblue" points="380.66,-152.1 388.13,-144.59 377.6,-145.8 380.66,-152.1"/>
</g>
<!-- Node13&#45;&gt;Node8 -->
<g id="edge15" class="edge">
<title>Node13&#45;&gt;Node8</title>
<path fill="none" stroke="midnightblue" d="M389.43,-245.72C382.85,-247.93 376.26,-250.21 370,-252.5 342.37,-262.62 311.64,-275.53 288.9,-285.41"/>
<polygon fill="midnightblue" stroke="midnightblue" points="390.64,-249.01 399.04,-242.57 388.45,-242.36 390.64,-249.01"/>
</g>
<!-- Node14&#45;&gt;Node8 -->
<g id="edge17" class="edge">
<title>Node14&#45;&gt;Node8</title>
<path fill="none" stroke="midnightblue" d="M359.84,-314.01C351.3,-312.91 342.68,-311.8 334.25,-310.71"/>
<polygon fill="midnightblue" stroke="midnightblue" points="359.45,-317.49 369.81,-315.3 360.34,-310.55 359.45,-317.49"/>
</g>
<!-- Node18 -->
<g id="node18" class="node">
<title>Node18</title>
<g id="a_node18"><a xlink:href="../../dd/de2/ban2root_8cc.html#a0ddf1224851353fc92bfbff6f499fa97" target="_top" xlink:title=" ">
<polygon fill="white" stroke="black" points="235,-63 235,-82 273,-82 273,-63 235,-63"/>
<text text-anchor="middle" x="254" y="-70" font-family="Helvetica,sans-Serif" font-size="10.00">main</text>
</a>
</g>
</g>
<!-- Node17&#45;&gt;Node18 -->
<g id="edge21" class="edge">
<title>Node17&#45;&gt;Node18</title>
<path fill="none" stroke="midnightblue" d="M365.28,-72.5C330.91,-72.5 294.26,-72.5 273.06,-72.5"/>
<polygon fill="midnightblue" stroke="midnightblue" points="365.38,-76 375.38,-72.5 365.38,-69 365.38,-76"/>
</g>
<!-- Node19&#45;&gt;Node17 -->
<g id="edge23" class="edge">
<title>Node19&#45;&gt;Node17</title>
<path fill="none" stroke="midnightblue" d="M569.28,-87.74C554.6,-85.85 539.23,-83.87 524.62,-81.99"/>
<polygon fill="midnightblue" stroke="midnightblue" points="568.96,-91.23 579.32,-89.04 569.85,-84.29 568.96,-91.23"/>
</g>
<!-- Node20&#45;&gt;Node9 -->
<g id="edge25" class="edge">
<title>Node20&#45;&gt;Node9</title>
<path fill="none" stroke="midnightblue" d="M163.7,-348.52C152.66,-348.4 141.59,-348.28 131.12,-348.17"/>
<polygon fill="midnightblue" stroke="midnightblue" points="163.76,-352.02 173.8,-348.63 163.84,-345.03 163.76,-352.02"/>
</g>
<!-- Node20&#45;&gt;Node10 -->
<g id="edge26" class="edge">
<title>Node20&#45;&gt;Node10</title>
<path fill="none" stroke="midnightblue" d="M184.77,-331.98C166.26,-327.22 146.39,-322.12 128.48,-317.52"/>
<polygon fill="midnightblue" stroke="midnightblue" points="184.04,-335.4 194.59,-334.5 185.78,-328.62 184.04,-335.4"/>
</g>
<!-- Node22 -->
<g id="node22" class="node">
<title>Node22</title>
<g id="a_node22"><a xlink:href="../../d5/d72/class_gam_r_1_1_efficiency_1_1_data_set.html#a0bddea5b2df9e498e25394dcd27794f3" target="_top" xlink:title=" ">
<polygon fill="white" stroke="black" points="385.5,-0.5 385.5,-30.5 514.5,-30.5 514.5,-0.5 385.5,-0.5"/>
<text text-anchor="start" x="393.5" y="-18.5" font-family="Helvetica,sans-Serif" font-size="10.00">GamR::Efficiency::DataSet</text>
<text text-anchor="middle" x="450" y="-7.5" font-family="Helvetica,sans-Serif" font-size="10.00">::DataSet</text>
</a>
</g>
</g>
<!-- Node21&#45;&gt;Node22 -->
<g id="edge29" class="edge">
<title>Node21&#45;&gt;Node22</title>
<path fill="none" stroke="midnightblue" d="M571.26,-15.5C552.62,-15.5 532.76,-15.5 514.67,-15.5"/>
<polygon fill="midnightblue" stroke="midnightblue" points="571.48,-19 581.48,-15.5 571.48,-12 571.48,-19"/>
</g>
<!-- Node23&#45;&gt;Node8 -->
<g id="edge31" class="edge">
<title>Node23&#45;&gt;Node8</title>
<path fill="none" stroke="midnightblue" d="M385.91,-394.01C380.24,-390.97 374.83,-387.48 370,-383.5 346.58,-364.21 357.95,-344.12 334,-325.5 329,-321.61 323.39,-318.33 317.52,-315.54"/>
<polygon fill="midnightblue" stroke="midnightblue" points="384.46,-397.2 394.98,-398.45 387.54,-390.91 384.46,-397.2"/>
</g>
<!-- Node24&#45;&gt;Node8 -->
<g id="edge33" class="edge">
<title>Node24&#45;&gt;Node8</title>
<path fill="none" stroke="midnightblue" d="M555.64,-375.19C500.63,-375.83 429.51,-371.41 370,-350.5 351.62,-344.04 351.48,-334.09 334,-325.5 326.51,-321.82 318.36,-318.52 310.23,-315.63"/>
<polygon fill="midnightblue" stroke="midnightblue" points="555.78,-378.69 565.71,-375.02 555.65,-371.69 555.78,-378.69"/>
</g>
</g>
</svg>
        <g id="navigator" transform="translate(0 0)" fill="#404254">
                <rect fill="#f2f5e9" fill-opacity="0.5" stroke="#606060" stroke-width=".5" x="0" y="0" width="60" height="60"/>
                <use id="zoomplus" xlink:href="#zoomPlus" x="17" y="9" onmousedown="handleZoom(evt,'in')"/>
                <use id="zoomminus" xlink:href="#zoomMin" x="42" y="9" onmousedown="handleZoom(evt,'out')"/>
                <use id="reset" xlink:href="#resetDef" x="30" y="36" onmousedown="handleReset()"/>
                <g id="arrowUp" xlink:href="#dirArrow" transform="translate(30 24)" onmousedown="handlePan(0,-1)">
                  <use xlink:href="#rim" fill="#404040">
                        <set attributeName="fill" to="#808080" begin="arrowUp.mouseover" end="arrowUp.mouseout"/>
                  </use>
                  <path fill="none" stroke="white" stroke-width="1.5" d="M0,-3.0v7 M-2.5,-0.5L0,-3.0L2.5,-0.5"/>
                </g>
                <g id="arrowRight" xlink:href="#dirArrow" transform="rotate(90) translate(36 -43)" onmousedown="handlePan(1,0)">
                  <use xlink:href="#rim" fill="#404040">
                        <set attributeName="fill" to="#808080" begin="arrowRight.mouseover" end="arrowRight.mouseout"/>
                  </use>
                  <path fill="none" stroke="white" stroke-width="1.5" d="M0,-3.0v7 M-2.5,-0.5L0,-3.0L2.5,-0.5"/>
                </g>
                <g id="arrowDown" xlink:href="#dirArrow" transform="rotate(180) translate(-30 -48)" onmousedown="handlePan(0,1)">
                  <use xlink:href="#rim" fill="#404040">
                        <set attributeName="fill" to="#808080" begin="arrowDown.mouseover" end="arrowDown.mouseout"/>
                  </use>
                  <path fill="none" stroke="white" stroke-width="1.5" d="M0,-3.0v7 M-2.5,-0.5L0,-3.0L2.5,-0.5"/>
                </g>
                <g id="arrowLeft" xlink:href="#dirArrow" transform="rotate(270) translate(-36 17)" onmousedown="handlePan(-1,0)">
                  <use xlink:href="#rim" fill="#404040">
                        <set attributeName="fill" to="#808080" begin="arrowLeft.mouseover" end="arrowLeft.mouseout"/>
                  </use>
                  <path fill="none" stroke="white" stroke-width="1.5" d="M0,-3.0v7 M-2.5,-0.5L0,-3.0L2.5,-0.5"/>
                </g>
        </g>
        <svg viewBox="0 0 15 15" width="100%" height="30px" preserveAspectRatio="xMaxYMin meet">
         <g id="arrow_out" transform="scale(0.3 0.3)">
          <a xlink:href="namespace_gam_r_1_1_utils_a0a7aaf911b057208b84e3b98d071c5c0_icgraph_org.svg" target="_base">
           <rect id="button" ry="5" rx="5" y="6" x="6" height="38" width="38"
                fill="#f2f5e9" fill-opacity="0.5" stroke="#606060" stroke-width="1.0"/>
           <path id="arrow"
             d="M 11.500037,31.436501 C 11.940474,20.09759 22.043105,11.32322 32.158766,21.979434 L 37.068811,17.246167 C 37.068811,17.246167 37.088388,32 37.088388,32 L 22.160133,31.978069 C 22.160133,31.978069 26.997745,27.140456 26.997745,27.140456 C 18.528582,18.264221 13.291696,25.230495 11.500037,31.436501 z"
             style="fill:#404040;"/>
          </a>
         </g>
        </svg>
</svg>
