<?xml version="1.0" encoding="UTF-8" standalone="no"?>
<!DOCTYPE svg PUBLIC "-//W3C//DTD SVG 1.1//EN"
 "http://www.w3.org/Graphics/SVG/1.1/DTD/svg11.dtd">
<!-- Generated by graphviz version 9.0.0 (20230911.1827)
 -->
<!-- Title: GamR::Utils::GetNPads Pages: 1 -->
<svg width="684pt" height="357pt"
 viewBox="0.00 0.00 683.50 357.25" xmlns="http://www.w3.org/2000/svg" xmlns:xlink="http://www.w3.org/1999/xlink">
<g id="graph0" class="graph" transform="scale(1 1) rotate(0) translate(4 353.25)">
<title>GamR::Utils::GetNPads</title>
<!-- Node1 -->
<g id="Node000001" class="node">
<title>Node1</title>
<g id="a_Node000001"><a xlink:title=" ">
<polygon fill="#999999" stroke="#666666" points="675.5,-184.25 556.75,-184.25 556.75,-165 675.5,-165 675.5,-184.25"/>
<text text-anchor="middle" x="616.12" y="-170.75" font-family="Helvetica,sans-Serif" font-size="10.00">GamR::Utils::GetNPads</text>
</a>
</g>
</g>
<!-- Node2 -->
<g id="Node000002" class="node">
<title>Node2</title>
<g id="a_Node000002"><a xlink:href="../../dc/d89/namespace_gam_r_1_1_spect.html#a7c014b37fef6c9127b7d862a977e4e36" target="_top" xlink:title=" ">
<polygon fill="white" stroke="#666666" points="505.38,-331.25 402.38,-331.25 402.38,-312 505.38,-312 505.38,-331.25"/>
<text text-anchor="middle" x="453.88" y="-317.75" font-family="Helvetica,sans-Serif" font-size="10.00">GamR::Spect::LinAll</text>
</a>
</g>
</g>
<!-- Node1&#45;&gt;Node2 -->
<g id="edge1_Node000001_Node000002" class="edge">
<title>Node1&#45;&gt;Node2</title>
<g id="a_edge1_Node000001_Node000002"><a xlink:title=" ">
<path fill="none" stroke="#63b8ff" d="M605.82,-194.83C591.6,-223.44 561.73,-275.41 520.75,-303.62 516.16,-306.78 511.04,-309.39 505.73,-311.54"/>
<polygon fill="#63b8ff" stroke="#63b8ff" points="608.97,-196.35 610.14,-185.82 602.66,-193.32 608.97,-196.35"/>
</a>
</g>
</g>
<!-- Node4 -->
<g id="Node000004" class="node">
<title>Node4</title>
<g id="a_Node000004"><a xlink:href="../../dc/d89/namespace_gam_r_1_1_spect.html#aa3a93f8152a5a49fd88de42c1eb4f97f" target="_top" xlink:title=" ">
<polygon fill="white" stroke="#666666" points="506.88,-276.25 400.88,-276.25 400.88,-257 506.88,-257 506.88,-276.25"/>
<text text-anchor="middle" x="453.88" y="-262.75" font-family="Helvetica,sans-Serif" font-size="10.00">GamR::Spect::LogAll</text>
</a>
</g>
</g>
<!-- Node1&#45;&gt;Node4 -->
<g id="edge4_Node000001_Node000004" class="edge">
<title>Node1&#45;&gt;Node4</title>
<g id="a_edge4_Node000001_Node000004"><a xlink:title=" ">
<path fill="none" stroke="#63b8ff" d="M597.48,-192.05C579.56,-208.81 550.32,-233.76 520.75,-248.62 514.61,-251.71 507.87,-254.33 501.11,-256.52"/>
<polygon fill="#63b8ff" stroke="#63b8ff" points="599.41,-195.04 604.22,-185.6 594.58,-189.98 599.41,-195.04"/>
</a>
</g>
</g>
<!-- Node8 -->
<g id="Node000008" class="node">
<title>Node8</title>
<g id="a_Node000008"><a xlink:href="../../dc/d89/namespace_gam_r_1_1_spect.html#ab6884a6323a0b4f61d4e3e5a47ce60ae" target="_top" xlink:title=" ">
<polygon fill="white" stroke="#666666" points="505.38,-239.25 402.38,-239.25 402.38,-220 505.38,-220 505.38,-239.25"/>
<text text-anchor="middle" x="453.88" y="-225.75" font-family="Helvetica,sans-Serif" font-size="10.00">GamR::Spect::Rebin</text>
</a>
</g>
</g>
<!-- Node1&#45;&gt;Node8 -->
<g id="edge9_Node000001_Node000008" class="edge">
<title>Node1&#45;&gt;Node8</title>
<g id="a_edge9_Node000001_Node000008"><a xlink:title=" ">
<path fill="none" stroke="#63b8ff" d="M581.26,-188.92C563.42,-196.19 541.08,-204.88 520.75,-211.62 512.31,-214.42 503.16,-217.13 494.44,-219.55"/>
<polygon fill="#63b8ff" stroke="#63b8ff" points="582.41,-192.23 590.32,-185.18 579.74,-185.76 582.41,-192.23"/>
</a>
</g>
</g>
<!-- Node9 -->
<g id="Node000009" class="node">
<title>Node9</title>
<g id="a_Node000009"><a xlink:href="../../dc/d89/namespace_gam_r_1_1_spect.html#ad7a41599ba436c77756f7554f814ac6a" target="_top" xlink:title=" ">
<polygon fill="white" stroke="#666666" points="520.75,-184.25 387,-184.25 387,-165 520.75,-165 520.75,-184.25"/>
<text text-anchor="middle" x="453.88" y="-170.75" font-family="Helvetica,sans-Serif" font-size="10.00">GamR::Spect::UnZoomAllX</text>
</a>
</g>
</g>
<!-- Node1&#45;&gt;Node9 -->
<g id="edge10_Node000001_Node000009" class="edge">
<title>Node1&#45;&gt;Node9</title>
<g id="a_edge10_Node000001_Node000009"><a xlink:title=" ">
<path fill="none" stroke="#63b8ff" d="M544.94,-174.62C537.06,-174.62 529.04,-174.62 521.21,-174.62"/>
<polygon fill="#63b8ff" stroke="#63b8ff" points="544.85,-178.13 554.85,-174.63 544.85,-171.13 544.85,-178.13"/>
</a>
</g>
</g>
<!-- Node12 -->
<g id="Node000012" class="node">
<title>Node12</title>
<g id="a_Node000012"><a xlink:href="../../dc/d89/namespace_gam_r_1_1_spect.html#a90aeaeedf126cc4509bf93387bba317c" target="_top" xlink:title=" ">
<polygon fill="white" stroke="#666666" points="520.75,-129.25 387,-129.25 387,-110 520.75,-110 520.75,-129.25"/>
<text text-anchor="middle" x="453.88" y="-115.75" font-family="Helvetica,sans-Serif" font-size="10.00">GamR::Spect::UnZoomAllY</text>
</a>
</g>
</g>
<!-- Node1&#45;&gt;Node12 -->
<g id="edge14_Node000001_Node000012" class="edge">
<title>Node1&#45;&gt;Node12</title>
<g id="a_edge14_Node000001_Node000012"><a xlink:title=" ">
<path fill="none" stroke="#63b8ff" d="M575.03,-160.87C546.87,-151.2 509.82,-138.48 484.35,-129.74"/>
<polygon fill="#63b8ff" stroke="#63b8ff" points="573.71,-164.11 584.3,-164.05 575.98,-157.49 573.71,-164.11"/>
</a>
</g>
</g>
<!-- Node14 -->
<g id="Node000014" class="node">
<title>Node14</title>
<g id="a_Node000014"><a xlink:href="../../dc/d89/namespace_gam_r_1_1_spect.html#abe46121593366b3882e103c9464393cd" target="_top" xlink:title=" ">
<polygon fill="white" stroke="#666666" points="514.38,-74.25 393.38,-74.25 393.38,-55 514.38,-55 514.38,-74.25"/>
<text text-anchor="middle" x="453.88" y="-60.75" font-family="Helvetica,sans-Serif" font-size="10.00">GamR::Spect::ZoomAllX</text>
</a>
</g>
</g>
<!-- Node1&#45;&gt;Node14 -->
<g id="edge18_Node000001_Node000014" class="edge">
<title>Node1&#45;&gt;Node14</title>
<g id="a_edge18_Node000001_Node000014"><a xlink:title=" ">
<path fill="none" stroke="#63b8ff" d="M594.92,-157.19C576.29,-141.5 547.55,-118.28 520.75,-100.62 506.06,-90.95 488.54,-81.46 475.27,-74.66"/>
<polygon fill="#63b8ff" stroke="#63b8ff" points="592.64,-159.84 602.52,-163.65 597.17,-154.51 592.64,-159.84"/>
</a>
</g>
</g>
<!-- Node16 -->
<g id="Node000016" class="node">
<title>Node16</title>
<g id="a_Node000016"><a xlink:href="../../dc/d89/namespace_gam_r_1_1_spect.html#ac7c5ded7212a1f4eda1decea284eb2b6" target="_top" xlink:title=" ">
<polygon fill="white" stroke="#666666" points="514.38,-19.25 393.38,-19.25 393.38,0 514.38,0 514.38,-19.25"/>
<text text-anchor="middle" x="453.88" y="-5.75" font-family="Helvetica,sans-Serif" font-size="10.00">GamR::Spect::ZoomAllY</text>
</a>
</g>
</g>
<!-- Node1&#45;&gt;Node16 -->
<g id="edge21_Node000001_Node000016" class="edge">
<title>Node1&#45;&gt;Node16</title>
<g id="a_edge21_Node000001_Node000016"><a xlink:title=" ">
<path fill="none" stroke="#63b8ff" d="M604.4,-154.85C588.85,-127.57 557.8,-78.1 520.75,-45.62 508.4,-34.8 492.25,-25.91 479.03,-19.67"/>
<polygon fill="#63b8ff" stroke="#63b8ff" points="601.26,-156.41 609.19,-163.44 607.38,-153 601.26,-156.41"/>
</a>
</g>
</g>
<!-- Node2&#45;&gt;Node2 -->
<g id="edge3_Node000002_Node000002" class="edge">
<title>Node2&#45;&gt;Node2</title>
<g id="a_edge3_Node000002_Node000002"><a xlink:title=" ">
<path fill="none" stroke="#63b8ff" d="M474.82,-342.65C472.2,-346.53 465.22,-349.25 453.88,-349.25 433.13,-349.25 426.97,-340.15 435.4,-331.54"/>
<polygon fill="#63b8ff" stroke="#63b8ff" points="478.26,-342.02 472.68,-333.02 471.43,-343.54 478.26,-342.02"/>
</a>
</g>
</g>
<!-- Node3 -->
<g id="Node000003" class="node">
<title>Node3</title>
<g id="a_Node000003"><a xlink:href="../../d0/d17/_abbreviations_8cc.html#ace2c85354ca9c7a9aaa944e3964e030f" target="_top" xlink:title=" ">
<polygon fill="white" stroke="#666666" points="350.27,-331.25 321.48,-331.25 321.48,-312 350.27,-312 350.27,-331.25"/>
<text text-anchor="middle" x="335.88" y="-317.75" font-family="Helvetica,sans-Serif" font-size="10.00">lin</text>
</a>
</g>
</g>
<!-- Node2&#45;&gt;Node3 -->
<g id="edge2_Node000002_Node000003" class="edge">
<title>Node2&#45;&gt;Node3</title>
<g id="a_edge2_Node000002_Node000003"><a xlink:title=" ">
<path fill="none" stroke="#63b8ff" d="M390.51,-321.62C375.51,-321.62 360.9,-321.62 350.72,-321.62"/>
<polygon fill="#63b8ff" stroke="#63b8ff" points="390.48,-325.13 400.48,-321.63 390.48,-318.13 390.48,-325.13"/>
</a>
</g>
</g>
<!-- Node4&#45;&gt;Node4 -->
<g id="edge8_Node000004_Node000004" class="edge">
<title>Node4&#45;&gt;Node4</title>
<g id="a_edge8_Node000004_Node000004"><a xlink:title=" ">
<path fill="none" stroke="#63b8ff" d="M474.82,-287.65C472.2,-291.53 465.22,-294.25 453.88,-294.25 433.13,-294.25 426.97,-285.15 435.4,-276.54"/>
<polygon fill="#63b8ff" stroke="#63b8ff" points="478.26,-287.02 472.68,-278.02 471.43,-288.54 478.26,-287.02"/>
</a>
</g>
</g>
<!-- Node5 -->
<g id="Node000005" class="node">
<title>Node5</title>
<g id="a_Node000005"><a xlink:href="../../d0/d17/_abbreviations_8cc.html#aac6b7f4e4bdca0828a1553bfe8a0bca5" target="_top" xlink:title=" ">
<polygon fill="white" stroke="#666666" points="350.27,-276.25 321.48,-276.25 321.48,-257 350.27,-257 350.27,-276.25"/>
<text text-anchor="middle" x="335.88" y="-262.75" font-family="Helvetica,sans-Serif" font-size="10.00">log</text>
</a>
</g>
</g>
<!-- Node4&#45;&gt;Node5 -->
<g id="edge5_Node000004_Node000005" class="edge">
<title>Node4&#45;&gt;Node5</title>
<g id="a_edge5_Node000004_Node000005"><a xlink:title=" ">
<path fill="none" stroke="#63b8ff" d="M389.32,-266.62C374.56,-266.62 360.28,-266.62 350.36,-266.62"/>
<polygon fill="#63b8ff" stroke="#63b8ff" points="389.13,-270.13 399.13,-266.63 389.13,-263.13 389.13,-270.13"/>
</a>
</g>
</g>
<!-- Node6 -->
<g id="Node000006" class="node">
<title>Node6</title>
<g id="a_Node000006"><a xlink:href="../../d7/dd8/namespace_gam_r_1_1_efficiency.html#a427d0e741996ac1982ee55180be3ecdf" target="_top" xlink:title=" ">
<polygon fill="white" stroke="#666666" points="284.75,-276.25 151.75,-276.25 151.75,-257 284.75,-257 284.75,-276.25"/>
<text text-anchor="middle" x="218.25" y="-262.75" font-family="Helvetica,sans-Serif" font-size="10.00">GamR::Efficiency::EffCFunc</text>
</a>
</g>
</g>
<!-- Node5&#45;&gt;Node6 -->
<g id="edge6_Node000005_Node000006" class="edge">
<title>Node5&#45;&gt;Node6</title>
<g id="a_edge6_Node000005_Node000006"><a xlink:title=" ">
<path fill="none" stroke="#63b8ff" d="M309.78,-266.62C302.33,-266.62 293.79,-266.62 285.01,-266.62"/>
<polygon fill="#63b8ff" stroke="#63b8ff" points="309.64,-270.13 319.64,-266.63 309.64,-263.13 309.64,-270.13"/>
</a>
</g>
</g>
<!-- Node7 -->
<g id="Node000007" class="node">
<title>Node7</title>
<g id="a_Node000007"><a xlink:href="../../dc/d61/class_gam_r_1_1_efficiency_1_1_eff_fit.html#a253378c895d2ac0ba1d8ada6c5ae8f4b" target="_top" xlink:title=" ">
<polygon fill="white" stroke="#666666" points="115.75,-281.88 0,-281.88 0,-251.38 115.75,-251.38 115.75,-281.88"/>
<text text-anchor="start" x="8" y="-268.38" font-family="Helvetica,sans-Serif" font-size="10.00">GamR::Efficiency::EffFit</text>
<text text-anchor="middle" x="57.88" y="-257.12" font-family="Helvetica,sans-Serif" font-size="10.00">::EffFit</text>
</a>
</g>
</g>
<!-- Node6&#45;&gt;Node7 -->
<g id="edge7_Node000006_Node000007" class="edge">
<title>Node6&#45;&gt;Node7</title>
<g id="a_edge7_Node000006_Node000007"><a xlink:title=" ">
<path fill="none" stroke="#63b8ff" d="M140.1,-266.62C132.03,-266.62 123.93,-266.62 116.13,-266.62"/>
<polygon fill="#63b8ff" stroke="#63b8ff" points="139.95,-270.13 149.95,-266.63 139.95,-263.13 139.95,-270.13"/>
</a>
</g>
</g>
<!-- Node9&#45;&gt;Node9 -->
<g id="edge11_Node000009_Node000009" class="edge">
<title>Node9&#45;&gt;Node9</title>
<g id="a_edge11_Node000009_Node000009"><a xlink:title=" ">
<path fill="none" stroke="#63b8ff" d="M474.82,-195.65C472.2,-199.53 465.22,-202.25 453.88,-202.25 433.13,-202.25 426.97,-193.15 435.4,-184.54"/>
<polygon fill="#63b8ff" stroke="#63b8ff" points="478.26,-195.02 472.68,-186.02 471.43,-196.54 478.26,-195.02"/>
</a>
</g>
</g>
<!-- Node10 -->
<g id="Node000010" class="node">
<title>Node10</title>
<g id="a_Node000010"><a xlink:href="../../d0/d17/_abbreviations_8cc.html#ad6c1348cf4b30587f643d7c5477ce373" target="_top" xlink:title=" ">
<polygon fill="white" stroke="#666666" points="350.27,-157.25 321.48,-157.25 321.48,-138 350.27,-138 350.27,-157.25"/>
<text text-anchor="middle" x="335.88" y="-143.75" font-family="Helvetica,sans-Serif" font-size="10.00">uz</text>
</a>
</g>
</g>
<!-- Node9&#45;&gt;Node10 -->
<g id="edge12_Node000009_Node000010" class="edge">
<title>Node9&#45;&gt;Node10</title>
<g id="a_edge12_Node000009_Node000010"><a xlink:title=" ">
<path fill="none" stroke="#63b8ff" d="M398.49,-161.97C380.79,-157.85 362.65,-153.62 350.67,-150.84"/>
<polygon fill="#63b8ff" stroke="#63b8ff" points="397.67,-165.37 408.21,-164.23 399.26,-158.55 397.67,-165.37"/>
</a>
</g>
</g>
<!-- Node11 -->
<g id="Node000011" class="node">
<title>Node11</title>
<g id="a_Node000011"><a xlink:href="../../d0/d17/_abbreviations_8cc.html#acb4a8fa6e9a9ea43a10001e01e3764ab" target="_top" xlink:title=" ">
<polygon fill="white" stroke="#666666" points="351,-194.25 320.75,-194.25 320.75,-175 351,-175 351,-194.25"/>
<text text-anchor="middle" x="335.88" y="-180.75" font-family="Helvetica,sans-Serif" font-size="10.00">uzx</text>
</a>
</g>
</g>
<!-- Node9&#45;&gt;Node11 -->
<g id="edge13_Node000009_Node000011" class="edge">
<title>Node9&#45;&gt;Node11</title>
<g id="a_edge13_Node000009_Node000011"><a xlink:title=" ">
<path fill="none" stroke="#63b8ff" d="M375.31,-181.31C366.19,-182.1 357.79,-182.82 351.19,-183.39"/>
<polygon fill="#63b8ff" stroke="#63b8ff" points="375.57,-184.8 385.23,-180.46 374.97,-177.83 375.57,-184.8"/>
</a>
</g>
</g>
<!-- Node12&#45;&gt;Node10 -->
<g id="edge16_Node000012_Node000010" class="edge">
<title>Node12&#45;&gt;Node10</title>
<g id="a_edge16_Node000012_Node000010"><a xlink:title=" ">
<path fill="none" stroke="#63b8ff" d="M399.88,-132.42C381.78,-136.79 363.03,-141.31 350.74,-144.28"/>
<polygon fill="#63b8ff" stroke="#63b8ff" points="400.63,-135.84 409.53,-130.09 398.98,-129.03 400.63,-135.84"/>
</a>
</g>
</g>
<!-- Node12&#45;&gt;Node12 -->
<g id="edge15_Node000012_Node000012" class="edge">
<title>Node12&#45;&gt;Node12</title>
<g id="a_edge15_Node000012_Node000012"><a xlink:title=" ">
<path fill="none" stroke="#63b8ff" d="M474.82,-140.65C472.2,-144.53 465.22,-147.25 453.88,-147.25 433.13,-147.25 426.97,-138.15 435.4,-129.54"/>
<polygon fill="#63b8ff" stroke="#63b8ff" points="478.26,-140.02 472.68,-131.02 471.43,-141.54 478.26,-140.02"/>
</a>
</g>
</g>
<!-- Node13 -->
<g id="Node000013" class="node">
<title>Node13</title>
<g id="a_Node000013"><a xlink:href="../../d0/d17/_abbreviations_8cc.html#a3eb86ecf22dfbb5cdf5cc95f542a8077" target="_top" xlink:title=" ">
<polygon fill="white" stroke="#666666" points="351,-120.25 320.75,-120.25 320.75,-101 351,-101 351,-120.25"/>
<text text-anchor="middle" x="335.88" y="-106.75" font-family="Helvetica,sans-Serif" font-size="10.00">uzy</text>
</a>
</g>
</g>
<!-- Node12&#45;&gt;Node13 -->
<g id="edge17_Node000012_Node000013" class="edge">
<title>Node12&#45;&gt;Node13</title>
<g id="a_edge17_Node000012_Node000013"><a xlink:title=" ">
<path fill="none" stroke="#63b8ff" d="M375.31,-113.61C366.19,-112.9 357.79,-112.25 351.19,-111.74"/>
<polygon fill="#63b8ff" stroke="#63b8ff" points="374.99,-117.09 385.23,-114.38 375.53,-110.11 374.99,-117.09"/>
</a>
</g>
</g>
<!-- Node14&#45;&gt;Node14 -->
<g id="edge19_Node000014_Node000014" class="edge">
<title>Node14&#45;&gt;Node14</title>
<g id="a_edge19_Node000014_Node000014"><a xlink:title=" ">
<path fill="none" stroke="#63b8ff" d="M474.82,-85.65C472.2,-89.53 465.22,-92.25 453.88,-92.25 433.13,-92.25 426.97,-83.15 435.4,-74.54"/>
<polygon fill="#63b8ff" stroke="#63b8ff" points="478.26,-85.02 472.68,-76.02 471.43,-86.54 478.26,-85.02"/>
</a>
</g>
</g>
<!-- Node15 -->
<g id="Node000015" class="node">
<title>Node15</title>
<g id="a_Node000015"><a xlink:href="../../d0/d17/_abbreviations_8cc.html#a2823fe79e773b96fe2f77605c85323ca" target="_top" xlink:title=" ">
<polygon fill="white" stroke="#666666" points="350.27,-74.25 321.48,-74.25 321.48,-55 350.27,-55 350.27,-74.25"/>
<text text-anchor="middle" x="335.88" y="-60.75" font-family="Helvetica,sans-Serif" font-size="10.00">zx</text>
</a>
</g>
</g>
<!-- Node14&#45;&gt;Node15 -->
<g id="edge20_Node000014_Node000015" class="edge">
<title>Node14&#45;&gt;Node15</title>
<g id="a_edge20_Node000014_Node000015"><a xlink:title=" ">
<path fill="none" stroke="#63b8ff" d="M382.03,-64.62C370.05,-64.62 358.85,-64.62 350.59,-64.62"/>
<polygon fill="#63b8ff" stroke="#63b8ff" points="381.66,-68.13 391.66,-64.63 381.66,-61.13 381.66,-68.13"/>
</a>
</g>
</g>
<!-- Node16&#45;&gt;Node16 -->
<g id="edge22_Node000016_Node000016" class="edge">
<title>Node16&#45;&gt;Node16</title>
<g id="a_edge22_Node000016_Node000016"><a xlink:title=" ">
<path fill="none" stroke="#63b8ff" d="M474.82,-30.65C472.2,-34.53 465.22,-37.25 453.88,-37.25 433.13,-37.25 426.97,-28.15 435.4,-19.54"/>
<polygon fill="#63b8ff" stroke="#63b8ff" points="478.26,-30.02 472.68,-21.02 471.43,-31.54 478.26,-30.02"/>
</a>
</g>
</g>
<!-- Node17 -->
<g id="Node000017" class="node">
<title>Node17</title>
<g id="a_Node000017"><a xlink:href="../../d0/d17/_abbreviations_8cc.html#addeede0b6b898db76793d554ec8e3418" target="_top" xlink:title=" ">
<polygon fill="white" stroke="#666666" points="350.27,-19.25 321.48,-19.25 321.48,0 350.27,0 350.27,-19.25"/>
<text text-anchor="middle" x="335.88" y="-5.75" font-family="Helvetica,sans-Serif" font-size="10.00">zy</text>
</a>
</g>
</g>
<!-- Node16&#45;&gt;Node17 -->
<g id="edge23_Node000016_Node000017" class="edge">
<title>Node16&#45;&gt;Node17</title>
<g id="a_edge23_Node000016_Node000017"><a xlink:title=" ">
<path fill="none" stroke="#63b8ff" d="M382.03,-9.62C370.05,-9.62 358.85,-9.62 350.59,-9.62"/>
<polygon fill="#63b8ff" stroke="#63b8ff" points="381.66,-13.13 391.66,-9.63 381.66,-6.13 381.66,-13.13"/>
</a>
</g>
</g>
</g>
</svg>
