<?xml version="1.0" encoding="UTF-8" standalone="no"?>
<!DOCTYPE svg PUBLIC "-//W3C//DTD SVG 1.1//EN"
 "http://www.w3.org/Graphics/SVG/1.1/DTD/svg11.dtd">
<!-- Generated by graphviz version 9.0.0 (20230911.1827)
 -->
<!-- Title: GamR::Utils::for_both_in_tuple Pages: 1 -->
<!--zoomable 161 -->

<svg id="main" version="1.1" xmlns="http://www.w3.org/2000/svg" xmlns:xlink="http://www.w3.org/1999/xlink" xml:space="preserve" onload="init(evt)">
<style type="text/css"><![CDATA[
.node, .edge {opacity: 0.7;}
.node.selected, .edge.selected {opacity: 1;}
.edge:hover path { stroke: red; }
.edge:hover polygon { stroke: red; fill: red; }
]]></style>

<defs>
  <circle id="rim" cx="0" cy="0" r="7"/>
  <circle id="rim2" cx="0" cy="0" r="3.5"/>
  <g id="zoomPlus">
    <use xlink:href="#rim" fill="#404040"><set attributeName="fill" to="#808080" begin="zoomplus.mouseover" end="zoomplus.mouseout"/></use>
    <path d="M-4,0h8M0,-4v8" fill="none" stroke="white" stroke-width="1.5" pointer-events="none"/>
  </g>
  <g id="zoomMin">
    <use xlink:href="#rim" fill="#404040"><set attributeName="fill" to="#808080" begin="zoomminus.mouseover" end="zoomminus.mouseout"/></use>
    <path d="M-4,0h8" fill="none" stroke="white" stroke-width="1.5" pointer-events="none"/>
  </g>
  <g id="arrowUp" transform="translate(30 24)">
    <use xlink:href="#rim"/>
    <path pointer-events="none" fill="none" stroke="white" stroke-width="1.5" d="M0,-3.0v7 M-2.5,-0.5L0,-3.0L2.5,-0.5"/>
  </g>
  <g id="arrowRight" transform="rotate(90) translate(36 -43)">
    <use xlink:href="#rim"/>
    <path pointer-events="none" fill="none" stroke="white" stroke-width="1.5" d="M0,-3.0v7 M-2.5,-0.5L0,-3.0L2.5,-0.5"/>
  </g>
  <g id="arrowDown" transform="rotate(180) translate(-30 -48)">
    <use xlink:href="#rim"/>
    <path pointer-events="none" fill="none" stroke="white" stroke-width="1.5" d="M0,-3.0v7 M-2.5,-0.5L0,-3.0L2.5,-0.5"/>
  </g>
  <g id="arrowLeft" transform="rotate(270) translate(-36 17)">
    <use xlink:href="#rim"/>
    <path pointer-events="none" fill="none" stroke="white" stroke-width="1.5" d="M0,-3.0v7 M-2.5,-0.5L0,-3.0L2.5,-0.5"/>
  </g>
  <g id="resetDef">
    <use xlink:href="#rim2" fill="#404040"><set attributeName="fill" to="#808080" begin="reset.mouseover" end="reset.mouseout"/></use>
  </g>
</defs>
<script type="application/ecmascript">
var viewWidth = 566;
var viewHeight = 161;
var sectionId = 'dynsection-3';
</script>
<script type="application/ecmascript" xlink:href="../../svg.min.js"/>
<svg id="graph" class="graph">
<g id="viewport">
<title>GamR::Utils::for_both_in_tuple</title>
<!-- Node1 -->
<g id="Node000001" class="node">
<title>Node1</title>
<g id="a_Node000001"><a xlink:title="Applies function taking both elements of tuple as arguments.">
<polygon fill="#999999" stroke="#666666" points="558.25,-79.5 450,-79.5 450,-49 558.25,-49 558.25,-79.5"/>
<text text-anchor="start" x="458" y="-66" font-family="Helvetica,sans-Serif" font-size="10.00">GamR::Utils::for_both</text>
<text text-anchor="middle" x="504.12" y="-54.75" font-family="Helvetica,sans-Serif" font-size="10.00">_in_tuple</text>
</a>
</g>
</g>
<!-- Node2 -->
<g id="Node000002" class="node">
<title>Node2</title>
<g id="a_Node000002"><a xlink:href="../../d4/d79/class_gam_r_1_1_tree_1_1_t_det_defn.html#ab07152fb360c8aed5fa35ef70a253ba1" target="_top" xlink:title=" ">
<polygon fill="white" stroke="#666666" points="414,-128.5 300.5,-128.5 300.5,-98 414,-98 414,-128.5"/>
<text text-anchor="start" x="308.5" y="-115" font-family="Helvetica,sans-Serif" font-size="10.00">GamR::Tree::TDetDefn</text>
<text text-anchor="middle" x="357.25" y="-103.75" font-family="Helvetica,sans-Serif" font-size="10.00">::Calibrate</text>
</a>
</g>
</g>
<!-- Node1&#45;&gt;Node2 -->
<g id="edge1_Node000001_Node000002" class="edge">
<title>Node1&#45;&gt;Node2</title>
<g id="a_edge1_Node000001_Node000002"><a xlink:title=" ">
<path fill="none" stroke="#63b8ff" d="M446.05,-83.55C432.29,-88.21 417.75,-93.13 404.55,-97.59"/>
<polygon fill="#63b8ff" stroke="#63b8ff" points="447.1,-86.89 455.45,-80.37 444.86,-80.26 447.1,-86.89"/>
</a>
</g>
</g>
<!-- Node6 -->
<g id="Node000006" class="node">
<title>Node6</title>
<g id="a_Node000006"><a xlink:href="../../da/d95/class_gam_r_1_1_tree_1_1_t_event.html#ab2423d2c884f5f8d79c970fbee53caa8" target="_top" xlink:title=" ">
<polygon fill="white" stroke="#666666" points="408.75,-79.5 305.75,-79.5 305.75,-49 408.75,-49 408.75,-79.5"/>
<text text-anchor="start" x="313.75" y="-66" font-family="Helvetica,sans-Serif" font-size="10.00">GamR::Tree::TEvent</text>
<text text-anchor="middle" x="357.25" y="-54.75" font-family="Helvetica,sans-Serif" font-size="10.00">::FillEvent</text>
</a>
</g>
</g>
<!-- Node1&#45;&gt;Node6 -->
<g id="edge5_Node000001_Node000006" class="edge">
<title>Node1&#45;&gt;Node6</title>
<g id="a_edge5_Node000001_Node000006"><a xlink:title=" ">
<path fill="none" stroke="#63b8ff" d="M438.27,-64.25C428.51,-64.25 418.57,-64.25 409.16,-64.25"/>
<polygon fill="#63b8ff" stroke="#63b8ff" points="438.08,-67.75 448.08,-64.25 438.08,-60.75 438.08,-67.75"/>
</a>
</g>
</g>
<!-- Node7 -->
<g id="Node000007" class="node">
<title>Node7</title>
<g id="a_Node000007"><a xlink:href="../../d4/d79/class_gam_r_1_1_tree_1_1_t_det_defn.html#a24e334f3a0ed59b61698aebc80f7419c" target="_top" xlink:title=" ">
<polygon fill="white" stroke="#666666" points="414,-30.5 300.5,-30.5 300.5,0 414,0 414,-30.5"/>
<text text-anchor="start" x="308.5" y="-17" font-family="Helvetica,sans-Serif" font-size="10.00">GamR::Tree::TDetDefn</text>
<text text-anchor="middle" x="357.25" y="-5.75" font-family="Helvetica,sans-Serif" font-size="10.00">::IsGood</text>
</a>
</g>
</g>
<!-- Node1&#45;&gt;Node7 -->
<g id="edge6_Node000001_Node000007" class="edge">
<title>Node1&#45;&gt;Node7</title>
<g id="a_edge6_Node000001_Node000007"><a xlink:title=" ">
<path fill="none" stroke="#63b8ff" d="M446.05,-44.95C432.29,-40.29 417.75,-35.37 404.55,-30.91"/>
<polygon fill="#63b8ff" stroke="#63b8ff" points="444.86,-48.24 455.45,-48.13 447.1,-41.61 444.86,-48.24"/>
</a>
</g>
</g>
<!-- Node3 -->
<g id="Node000003" class="node">
<title>Node3</title>
<g id="a_Node000003"><a xlink:href="../../d4/d79/class_gam_r_1_1_tree_1_1_t_det_defn.html#a70d0e35cffd2b1eee9b2313a5ce5f35b" target="_top" xlink:title=" ">
<polygon fill="white" stroke="#666666" points="264.5,-152.5 151,-152.5 151,-122 264.5,-122 264.5,-152.5"/>
<text text-anchor="start" x="159" y="-139" font-family="Helvetica,sans-Serif" font-size="10.00">GamR::Tree::TDetDefn</text>
<text text-anchor="middle" x="207.75" y="-127.75" font-family="Helvetica,sans-Serif" font-size="10.00">::GetAllDatums</text>
</a>
</g>
</g>
<!-- Node2&#45;&gt;Node3 -->
<g id="edge2_Node000002_Node000003" class="edge">
<title>Node2&#45;&gt;Node3</title>
<g id="a_edge2_Node000002_Node000003"><a xlink:title=" ">
<path fill="none" stroke="#63b8ff" d="M288.81,-124.22C280.77,-125.53 272.63,-126.86 264.78,-128.13"/>
<polygon fill="#63b8ff" stroke="#63b8ff" points="289.26,-127.7 298.57,-122.63 288.14,-120.79 289.26,-127.7"/>
</a>
</g>
</g>
<!-- Node5 -->
<g id="Node000005" class="node">
<title>Node5</title>
<g id="a_Node000005"><a xlink:href="../../d4/d79/class_gam_r_1_1_tree_1_1_t_det_defn.html#acafb707e753a944c720f24084fa3042d" target="_top" xlink:title=" ">
<polygon fill="white" stroke="#666666" points="264.5,-103.5 151,-103.5 151,-73 264.5,-73 264.5,-103.5"/>
<text text-anchor="start" x="159" y="-90" font-family="Helvetica,sans-Serif" font-size="10.00">GamR::Tree::TDetDefn</text>
<text text-anchor="middle" x="207.75" y="-78.75" font-family="Helvetica,sans-Serif" font-size="10.00">::GetDatum</text>
</a>
</g>
</g>
<!-- Node2&#45;&gt;Node5 -->
<g id="edge4_Node000002_Node000005" class="edge">
<title>Node2&#45;&gt;Node5</title>
<g id="a_edge4_Node000002_Node000005"><a xlink:title=" ">
<path fill="none" stroke="#63b8ff" d="M288.81,-101.82C280.77,-100.46 272.63,-99.08 264.78,-97.75"/>
<polygon fill="#63b8ff" stroke="#63b8ff" points="288.13,-105.25 298.57,-103.47 289.3,-98.35 288.13,-105.25"/>
</a>
</g>
</g>
<!-- Node4 -->
<g id="Node000004" class="node">
<title>Node4</title>
<g id="a_Node000004"><a xlink:href="../../dd/d16/class_gam_r_1_1_tree_1_1_t_detector.html#a6225e05e399f2b30913ae6074d9db7cf" target="_top" xlink:title=" ">
<polygon fill="white" stroke="#666666" points="115,-152.5 0,-152.5 0,-122 115,-122 115,-152.5"/>
<text text-anchor="start" x="8" y="-139" font-family="Helvetica,sans-Serif" font-size="10.00">GamR::Tree::TDetector</text>
<text text-anchor="middle" x="57.5" y="-127.75" font-family="Helvetica,sans-Serif" font-size="10.00">::TDetector</text>
</a>
</g>
</g>
<!-- Node3&#45;&gt;Node4 -->
<g id="edge3_Node000003_Node000004" class="edge">
<title>Node3&#45;&gt;Node4</title>
<g id="a_edge3_Node000003_Node000004"><a xlink:title=" ">
<path fill="none" stroke="#63b8ff" d="M139.36,-137.25C131.26,-137.25 123.05,-137.25 115.12,-137.25"/>
<polygon fill="#63b8ff" stroke="#63b8ff" points="139.19,-140.75 149.19,-137.25 139.19,-133.75 139.19,-140.75"/>
</a>
</g>
</g>
</g>
</svg>

<g id="navigator" transform="translate(0 0)" fill="#404254">
  <rect fill="#f2f5e9" fill-opacity="0.5" stroke="#606060" stroke-width=".5" x="0" y="0" width="60" height="60"/>
  <use id="zoomplus" xlink:href="#zoomPlus" x="17" y="9" onmousedown="handleZoom(evt,'in')"/>
  <use id="zoomminus" xlink:href="#zoomMin" x="42" y="9" onmousedown="handleZoom(evt,'out')"/>
  <use id="reset" xlink:href="#resetDef" x="30" y="36" onmousedown="handleReset()"/>
   <use id="arrowup" xlink:href="#arrowUp" x="0" y="0" onmousedown="handlePan(0,-1)"/>
  <use id="arrowright" xlink:href="#arrowRight" x="0" y="0" onmousedown="handlePan(1,0)"/>
  <use id="arrowdown" xlink:href="#arrowDown" x="0" y="0" onmousedown="handlePan(0,1)"/>
  <use id="arrowleft" xlink:href="#arrowLeft" x="0" y="0" onmousedown="handlePan(-1,0)"/>
</g>
<svg viewBox="0 0 15 15" width="100%" height="30px" preserveAspectRatio="xMaxYMin meet">
 <g id="arrow_out" transform="scale(0.3 0.3)">
  <a xlink:href="namespace_gam_r_1_1_utils_a6a625e83f7fe144617cb2d4ab7acb6f8_icgraph_org.svg" target="_base">
   <rect id="button" ry="5" rx="5" y="6" x="6" height="38" width="38"
        fill="#f2f5e9" fill-opacity="0.5" stroke="#606060" stroke-width="1.0"/>
   <path id="arrow"
     d="M 11.500037,31.436501 C 11.940474,20.09759 22.043105,11.32322 32.158766,21.979434 L 37.068811,17.246167 C 37.068811,17.246167 37.088388,32 37.088388,32 L 22.160133,31.978069 C 22.160133,31.978069 26.997745,27.140456 26.997745,27.140456 C 18.528582,18.264221 13.291696,25.230495 11.500037,31.436501 z"
     style="fill:#404040;"/>
  </a>
 </g>
</svg>

<style type='text/css'>
<![CDATA[
[data-mouse-over-selected='false'] { opacity: 0.7; }
[data-mouse-over-selected='true']  { opacity: 1.0; }
]]>
</style>
<script type="application/ecmascript"><![CDATA[
document.addEventListener('DOMContentLoaded', (event) => {
  highlightEdges();
  highlightAdjacentNodes();
});
]]></script>
</svg>
