<?xml version="1.0" encoding="UTF-8" standalone="no"?>
<!DOCTYPE svg PUBLIC "-//W3C//DTD SVG 1.1//EN"
 "http://www.w3.org/Graphics/SVG/1.1/DTD/svg11.dtd">
<!-- Generated by graphviz version 12.2.1 (20241206.2353)
 -->
<!-- Title: GamR::Utils::GetHists1D Pages: 1 -->
<svg width="377pt" height="150pt"
 viewBox="0.00 0.00 377.00 150.25" xmlns="http://www.w3.org/2000/svg" xmlns:xlink="http://www.w3.org/1999/xlink">
<g id="graph0" class="graph" transform="scale(1 1) rotate(0) translate(4 146.25)">
<title>GamR::Utils::GetHists1D</title>
<!-- Node1 -->
<g id="Node000001" class="node">
<title>Node1</title>
<g id="a_Node000001"><a xlink:title=" ">
<polygon fill="#999999" stroke="#666666" points="369,-77.25 245,-77.25 245,-58 369,-58 369,-77.25"/>
<text text-anchor="middle" x="307" y="-63.75" font-family="Helvetica,sans-Serif" font-size="10.00">GamR::Utils::GetHists1D</text>
</a>
</g>
</g>
<!-- Node2 -->
<g id="Node000002" class="node">
<title>Node2</title>
<g id="a_Node000002"><a xlink:href="../../dc/d89/namespace_gam_r_1_1_spect.html#a65d31e04d30d9c24dc657bef81f251bb" target="_top" xlink:title=" ">
<polygon fill="white" stroke="#666666" points="209,-142.25 73,-142.25 73,-123 209,-123 209,-142.25"/>
<text text-anchor="middle" x="141" y="-128.75" font-family="Helvetica,sans-Serif" font-size="10.00">GamR::Spect::NormSpectra</text>
</a>
</g>
</g>
<!-- Node1&#45;&gt;Node2 -->
<g id="edge1_Node000001_Node000002" class="edge">
<title>Node1&#45;&gt;Node2</title>
<g id="a_edge1_Node000001_Node000002"><a xlink:title=" ">
<path fill="none" stroke="#63b8ff" d="M277.35,-82.76C258.32,-92.42 232.59,-104.76 209,-113.62 200.29,-116.9 190.75,-119.93 181.68,-122.55"/>
<polygon fill="#63b8ff" stroke="#63b8ff" points="278.81,-85.95 286.1,-78.26 275.61,-79.72 278.81,-85.95"/>
</a>
</g>
</g>
<!-- Node4 -->
<g id="Node000004" class="node">
<title>Node4</title>
<g id="a_Node000004"><a xlink:href="../../dc/d89/namespace_gam_r_1_1_spect.html#aa4da6909a49d9510105c06b27cd4bffc" target="_top" xlink:title=" ">
<polygon fill="white" stroke="#666666" points="209,-104.88 73,-104.88 73,-74.38 209,-74.38 209,-104.88"/>
<text text-anchor="start" x="81" y="-91.38" font-family="Helvetica,sans-Serif" font-size="10.00">GamR::Spect::NormSpectra</text>
<text text-anchor="middle" x="141" y="-80.12" font-family="Helvetica,sans-Serif" font-size="10.00">BackSub</text>
</a>
</g>
</g>
<!-- Node1&#45;&gt;Node4 -->
<g id="edge3_Node000001_Node000004" class="edge">
<title>Node1&#45;&gt;Node4</title>
<g id="a_edge3_Node000001_Node000004"><a xlink:title=" ">
<path fill="none" stroke="#63b8ff" d="M233.67,-77.33C225.62,-78.41 217.44,-79.5 209.46,-80.58"/>
<polygon fill="#63b8ff" stroke="#63b8ff" points="233.99,-80.82 243.43,-76.02 233.06,-73.88 233.99,-80.82"/>
</a>
</g>
</g>
<!-- Node6 -->
<g id="Node000006" class="node">
<title>Node6</title>
<g id="a_Node000006"><a xlink:href="../../dc/d89/namespace_gam_r_1_1_spect.html#ab6884a6323a0b4f61d4e3e5a47ce60ae" target="_top" xlink:title=" ">
<polygon fill="white" stroke="#666666" points="192.5,-56.25 89.5,-56.25 89.5,-37 192.5,-37 192.5,-56.25"/>
<text text-anchor="middle" x="141" y="-42.75" font-family="Helvetica,sans-Serif" font-size="10.00">GamR::Spect::Rebin</text>
</a>
</g>
</g>
<!-- Node1&#45;&gt;Node6 -->
<g id="edge5_Node000001_Node000006" class="edge">
<title>Node1&#45;&gt;Node6</title>
<g id="a_edge5_Node000001_Node000006"><a xlink:title=" ">
<path fill="none" stroke="#63b8ff" d="M233.54,-58.35C219.84,-56.59 205.78,-54.79 192.92,-53.15"/>
<polygon fill="#63b8ff" stroke="#63b8ff" points="233.07,-61.81 243.43,-59.61 233.96,-54.87 233.07,-61.81"/>
</a>
</g>
</g>
<!-- Node7 -->
<g id="Node000007" class="node">
<title>Node7</title>
<g id="a_Node000007"><a xlink:href="../../dc/d89/namespace_gam_r_1_1_spect.html#a61cee306e7922e8ac4fa42229ed51467" target="_top" xlink:title=" ">
<polygon fill="white" stroke="#666666" points="198.12,-19.25 83.88,-19.25 83.88,0 198.12,0 198.12,-19.25"/>
<text text-anchor="middle" x="141" y="-5.75" font-family="Helvetica,sans-Serif" font-size="10.00">GamR::Spect::Rename</text>
</a>
</g>
</g>
<!-- Node1&#45;&gt;Node7 -->
<g id="edge6_Node000001_Node000007" class="edge">
<title>Node1&#45;&gt;Node7</title>
<g id="a_edge6_Node000001_Node000007"><a xlink:title=" ">
<path fill="none" stroke="#63b8ff" d="M273.65,-53.06C254.98,-44.96 230.92,-35.05 209,-27.62 200.67,-24.8 191.65,-22.13 183,-19.74"/>
<polygon fill="#63b8ff" stroke="#63b8ff" points="272.01,-56.16 282.58,-56.98 274.83,-49.75 272.01,-56.16"/>
</a>
</g>
</g>
<!-- Node3 -->
<g id="Node000003" class="node">
<title>Node3</title>
<g id="a_Node000003"><a xlink:href="../../d0/d17/_abbreviations_8cc.html#a8150489ebcfa245dd4ea5c051de4181d" target="_top" xlink:title=" ">
<polygon fill="white" stroke="#666666" points="32.9,-142.25 4.1,-142.25 4.1,-123 32.9,-123 32.9,-142.25"/>
<text text-anchor="middle" x="18.5" y="-128.75" font-family="Helvetica,sans-Serif" font-size="10.00">ns</text>
</a>
</g>
</g>
<!-- Node2&#45;&gt;Node3 -->
<g id="edge2_Node000002_Node000003" class="edge">
<title>Node2&#45;&gt;Node3</title>
<g id="a_edge2_Node000002_Node000003"><a xlink:title=" ">
<path fill="none" stroke="#63b8ff" d="M61.21,-132.62C50.43,-132.62 40.52,-132.62 33.07,-132.62"/>
<polygon fill="#63b8ff" stroke="#63b8ff" points="61.19,-136.13 71.19,-132.63 61.19,-129.13 61.19,-136.13"/>
</a>
</g>
</g>
<!-- Node5 -->
<g id="Node000005" class="node">
<title>Node5</title>
<g id="a_Node000005"><a xlink:href="../../d0/d17/_abbreviations_8cc.html#ae47533f48063bc9ba85ff0be37004a05" target="_top" xlink:title=" ">
<polygon fill="white" stroke="#666666" points="37,-99.25 0,-99.25 0,-80 37,-80 37,-99.25"/>
<text text-anchor="middle" x="18.5" y="-85.75" font-family="Helvetica,sans-Serif" font-size="10.00">nsbs</text>
</a>
</g>
</g>
<!-- Node4&#45;&gt;Node5 -->
<g id="edge4_Node000004_Node000005" class="edge">
<title>Node4&#45;&gt;Node5</title>
<g id="a_edge4_Node000004_Node000005"><a xlink:title=" ">
<path fill="none" stroke="#63b8ff" d="M61.47,-89.62C52.46,-89.62 44.05,-89.62 37.16,-89.62"/>
<polygon fill="#63b8ff" stroke="#63b8ff" points="61.19,-93.13 71.19,-89.63 61.19,-86.13 61.19,-93.13"/>
</a>
</g>
</g>
<!-- Node8 -->
<g id="Node000008" class="node">
<title>Node8</title>
<g id="a_Node000008"><a xlink:href="../../d0/d17/_abbreviations_8cc.html#abf87b4b011d6e9811628e5109928e22a" target="_top" xlink:title=" ">
<polygon fill="white" stroke="#666666" points="32.9,-19.25 4.1,-19.25 4.1,0 32.9,0 32.9,-19.25"/>
<text text-anchor="middle" x="18.5" y="-5.75" font-family="Helvetica,sans-Serif" font-size="10.00">rn</text>
</a>
</g>
</g>
<!-- Node7&#45;&gt;Node8 -->
<g id="edge7_Node000007_Node000008" class="edge">
<title>Node7&#45;&gt;Node8</title>
<g id="a_edge7_Node000007_Node000008"><a xlink:title=" ">
<path fill="none" stroke="#63b8ff" d="M72.13,-9.62C57.18,-9.62 42.86,-9.62 32.94,-9.62"/>
<polygon fill="#63b8ff" stroke="#63b8ff" points="72.12,-13.13 82.12,-9.63 72.12,-6.13 72.12,-13.13"/>
</a>
</g>
</g>
</g>
</svg>
