<?xml version="1.0" encoding="UTF-8" standalone="no"?>
<!DOCTYPE svg PUBLIC "-//W3C//DTD SVG 1.1//EN"
 "http://www.w3.org/Graphics/SVG/1.1/DTD/svg11.dtd">
<!-- Generated by graphviz version 2.50.0 (20220203.2022)
 -->
<!-- Title: GamR::Utils::for_each_in_tuple Pages: 1 -->
<svg width="270pt" height="284pt"
 viewBox="0.00 0.00 270.00 284.00" xmlns="http://www.w3.org/2000/svg" xmlns:xlink="http://www.w3.org/1999/xlink">
<g id="graph0" class="graph" transform="scale(1 1) rotate(0) translate(4 280)">
<title>GamR::Utils::for_each_in_tuple</title>
<polygon fill="white" stroke="transparent" points="-4,4 -4,-280 266,-280 266,4 -4,4"/>
<!-- Node1 -->
<g id="node1" class="node">
<title>Node1</title>
<g id="a_node1"><a xlink:title="Applies function on each element of tuple.">
<polygon fill="#bfbfbf" stroke="black" points="151,-122.5 151,-152.5 262,-152.5 262,-122.5 151,-122.5"/>
<text text-anchor="start" x="159" y="-140.5" font-family="Helvetica,sans-Serif" font-size="10.00">GamR::Utils::for_each</text>
<text text-anchor="middle" x="206.5" y="-129.5" font-family="Helvetica,sans-Serif" font-size="10.00">_in_tuple</text>
</a>
</g>
</g>
<!-- Node2 -->
<g id="node2" class="node">
<title>Node2</title>
<g id="a_node2"><a xlink:href="../../da/d95/class_gam_r_1_1_tree_1_1_t_event.html#a31e52e525bfb0c2383fc0b02ed0329a7" target="_top" xlink:title=" ">
<polygon fill="white" stroke="black" points="5.5,-245.5 5.5,-275.5 109.5,-275.5 109.5,-245.5 5.5,-245.5"/>
<text text-anchor="start" x="13.5" y="-263.5" font-family="Helvetica,sans-Serif" font-size="10.00">GamR::Tree::TEvent</text>
<text text-anchor="middle" x="57.5" y="-252.5" font-family="Helvetica,sans-Serif" font-size="10.00">::TEvent</text>
</a>
</g>
</g>
<!-- Node1&#45;&gt;Node2 -->
<g id="edge1" class="edge">
<title>Node1&#45;&gt;Node2</title>
<path fill="none" stroke="midnightblue" d="M188.8,-160.93C172.17,-182.87 144.87,-215.36 115,-236.5 110.3,-239.82 105.07,-242.81 99.74,-245.46"/>
<polygon fill="midnightblue" stroke="midnightblue" points="191.68,-162.92 194.84,-152.8 186.06,-158.74 191.68,-162.92"/>
</g>
<!-- Node3 -->
<g id="node3" class="node">
<title>Node3</title>
<g id="a_node3"><a xlink:href="../../d1/d1e/class_gam_r_1_1_tree_1_1_t_exp_defn.html#a1fbfc310eec282ac4ff33b6117de967f" target="_top" xlink:title=" ">
<polygon fill="white" stroke="black" points="0,-196.5 0,-226.5 115,-226.5 115,-196.5 0,-196.5"/>
<text text-anchor="start" x="8" y="-214.5" font-family="Helvetica,sans-Serif" font-size="10.00">GamR::Tree::TExpDefn</text>
<text text-anchor="middle" x="57.5" y="-203.5" font-family="Helvetica,sans-Serif" font-size="10.00">::Load</text>
</a>
</g>
</g>
<!-- Node1&#45;&gt;Node3 -->
<g id="edge2" class="edge">
<title>Node1&#45;&gt;Node3</title>
<path fill="none" stroke="midnightblue" d="M170.89,-157.72C154.21,-167.18 133.79,-178.35 115,-187.5 108.77,-190.53 102.06,-193.57 95.52,-196.42"/>
<polygon fill="midnightblue" stroke="midnightblue" points="172.79,-160.66 179.74,-152.66 169.32,-154.59 172.79,-160.66"/>
</g>
<!-- Node4 -->
<g id="node4" class="node">
<title>Node4</title>
<g id="a_node4"><a xlink:href="../../d1/d1e/class_gam_r_1_1_tree_1_1_t_exp_defn.html#ad18875e3efcf669c9f8e90a8446da366" target="_top" xlink:title=" ">
<polygon fill="white" stroke="black" points="0,-147.5 0,-177.5 115,-177.5 115,-147.5 0,-147.5"/>
<text text-anchor="start" x="8" y="-165.5" font-family="Helvetica,sans-Serif" font-size="10.00">GamR::Tree::TExpDefn</text>
<text text-anchor="middle" x="57.5" y="-154.5" font-family="Helvetica,sans-Serif" font-size="10.00">::LoadRaw</text>
</a>
</g>
</g>
<!-- Node1&#45;&gt;Node4 -->
<g id="edge3" class="edge">
<title>Node1&#45;&gt;Node4</title>
<path fill="none" stroke="midnightblue" d="M140.85,-148.49C132.32,-149.95 123.63,-151.42 115.25,-152.85"/>
<polygon fill="midnightblue" stroke="midnightblue" points="141.49,-151.94 150.76,-146.81 140.32,-145.04 141.49,-151.94"/>
</g>
<!-- Node5 -->
<g id="node5" class="node">
<title>Node5</title>
<g id="a_node5"><a xlink:href="../../d1/de2/struct_gam_r_1_1_tree_1_1_t_det_defn_1_1_cal_functor.html#acda77d1eeb18c9a0b52f9622c88ff3c1" target="_top" xlink:title=" ">
<polygon fill="white" stroke="black" points="0.5,-98.5 0.5,-128.5 114.5,-128.5 114.5,-98.5 0.5,-98.5"/>
<text text-anchor="start" x="8.5" y="-116.5" font-family="Helvetica,sans-Serif" font-size="10.00">GamR::Tree::TDetDefn</text>
<text text-anchor="middle" x="57.5" y="-105.5" font-family="Helvetica,sans-Serif" font-size="10.00">::CalFunctor::operator()</text>
</a>
</g>
</g>
<!-- Node1&#45;&gt;Node5 -->
<g id="edge4" class="edge">
<title>Node1&#45;&gt;Node5</title>
<path fill="none" stroke="midnightblue" d="M140.71,-126.92C132.06,-125.51 123.25,-124.07 114.76,-122.68"/>
<polygon fill="midnightblue" stroke="midnightblue" points="140.33,-130.41 150.76,-128.56 141.46,-123.5 140.33,-130.41"/>
</g>
<!-- Node6 -->
<g id="node6" class="node">
<title>Node6</title>
<g id="a_node6"><a xlink:href="../../da/d95/class_gam_r_1_1_tree_1_1_t_event.html#acc785c7176fa8db1b39703bebb7e4ae0" target="_top" xlink:title=" ">
<polygon fill="white" stroke="black" points="5.5,-49.5 5.5,-79.5 109.5,-79.5 109.5,-49.5 5.5,-49.5"/>
<text text-anchor="start" x="13.5" y="-67.5" font-family="Helvetica,sans-Serif" font-size="10.00">GamR::Tree::TEvent</text>
<text text-anchor="middle" x="57.5" y="-56.5" font-family="Helvetica,sans-Serif" font-size="10.00">::Reset</text>
</a>
</g>
</g>
<!-- Node1&#45;&gt;Node6 -->
<g id="edge5" class="edge">
<title>Node1&#45;&gt;Node6</title>
<path fill="none" stroke="midnightblue" d="M169.19,-117.48C152.78,-108.63 133.05,-98.27 115,-89.5 108.15,-86.17 100.75,-82.77 93.64,-79.59"/>
<polygon fill="midnightblue" stroke="midnightblue" points="167.97,-120.81 178.43,-122.5 171.31,-114.65 167.97,-120.81"/>
</g>
<!-- Node7 -->
<g id="node7" class="node">
<title>Node7</title>
<g id="a_node7"><a xlink:href="../../d4/d79/class_gam_r_1_1_tree_1_1_t_det_defn.html#ab3fe3b5f44d3eb6695d75c9cdc2211f3" target="_top" xlink:title=" ">
<polygon fill="white" stroke="black" points="0.5,-0.5 0.5,-30.5 114.5,-30.5 114.5,-0.5 0.5,-0.5"/>
<text text-anchor="start" x="8.5" y="-18.5" font-family="Helvetica,sans-Serif" font-size="10.00">GamR::Tree::TDetDefn</text>
<text text-anchor="middle" x="57.5" y="-7.5" font-family="Helvetica,sans-Serif" font-size="10.00">::SetPtrs</text>
</a>
</g>
</g>
<!-- Node1&#45;&gt;Node7 -->
<g id="edge6" class="edge">
<title>Node1&#45;&gt;Node7</title>
<path fill="none" stroke="midnightblue" d="M188.35,-114.3C171.57,-92.89 144.33,-61.36 115,-40.5 109.84,-36.83 104.06,-33.53 98.22,-30.61"/>
<polygon fill="midnightblue" stroke="midnightblue" points="185.58,-116.45 194.45,-122.24 191.13,-112.18 185.58,-116.45"/>
</g>
</g>
</svg>
