<?xml version="1.0" encoding="UTF-8" standalone="no"?>
<!DOCTYPE svg PUBLIC "-//W3C//DTD SVG 1.1//EN"
 "http://www.w3.org/Graphics/SVG/1.1/DTD/svg11.dtd">
<!-- Generated by graphviz version 2.50.0 (20220203.2022)
 -->
<!-- Title: GamR::Utils::GetInput Pages: 1 -->
<svg width="685pt" height="235pt"
 viewBox="0.00 0.00 685.00 235.00" xmlns="http://www.w3.org/2000/svg" xmlns:xlink="http://www.w3.org/1999/xlink">
<g id="graph0" class="graph" transform="scale(1 1) rotate(0) translate(4 231)">
<title>GamR::Utils::GetInput</title>
<polygon fill="white" stroke="transparent" points="-4,4 -4,-231 681,-231 681,4 -4,4"/>
<!-- Node1 -->
<g id="node1" class="node">
<title>Node1</title>
<g id="a_node1"><a xlink:title=" ">
<polygon fill="#bfbfbf" stroke="black" points="566,-104 566,-123 677,-123 677,-104 566,-104"/>
<text text-anchor="middle" x="621.5" y="-111" font-family="Helvetica,sans-Serif" font-size="10.00">GamR::Utils::GetInput</text>
</a>
</g>
</g>
<!-- Node2 -->
<g id="node2" class="node">
<title>Node2</title>
<g id="a_node2"><a xlink:href="../../dd/d3e/class_gam_r_1_1_coulex_1_1_coulex_calculation.html#acb08f0024d9a247dd0b03169bc5561fd" target="_top" xlink:title=" ">
<polygon fill="white" stroke="black" points="370,-196.5 370,-226.5 530,-226.5 530,-196.5 370,-196.5"/>
<text text-anchor="start" x="378" y="-214.5" font-family="Helvetica,sans-Serif" font-size="10.00">GamR::Coulex::CoulexCalculation</text>
<text text-anchor="middle" x="450" y="-203.5" font-family="Helvetica,sans-Serif" font-size="10.00">::SetBeam</text>
</a>
</g>
</g>
<!-- Node1&#45;&gt;Node2 -->
<g id="edge1" class="edge">
<title>Node1&#45;&gt;Node2</title>
<path fill="none" stroke="midnightblue" d="M603.9,-130.51C586.78,-147.18 558.62,-172.23 530,-187.5 523.68,-190.87 516.81,-193.85 509.85,-196.44"/>
<polygon fill="midnightblue" stroke="midnightblue" points="606.75,-132.62 611.37,-123.09 601.81,-127.66 606.75,-132.62"/>
</g>
<!-- Node6 -->
<g id="node6" class="node">
<title>Node6</title>
<g id="a_node6"><a xlink:href="../../dd/d3e/class_gam_r_1_1_coulex_1_1_coulex_calculation.html#ad04858b6cf6ac528e6e56915fe7da556" target="_top" xlink:title=" ">
<polygon fill="white" stroke="black" points="370,-147.5 370,-177.5 530,-177.5 530,-147.5 370,-147.5"/>
<text text-anchor="start" x="378" y="-165.5" font-family="Helvetica,sans-Serif" font-size="10.00">GamR::Coulex::CoulexCalculation</text>
<text text-anchor="middle" x="450" y="-154.5" font-family="Helvetica,sans-Serif" font-size="10.00">::SetInterests</text>
</a>
</g>
</g>
<!-- Node1&#45;&gt;Node6 -->
<g id="edge5" class="edge">
<title>Node1&#45;&gt;Node6</title>
<path fill="none" stroke="midnightblue" d="M577.72,-125.87C555.03,-132.43 526.96,-140.54 503.02,-147.46"/>
<polygon fill="midnightblue" stroke="midnightblue" points="578.78,-129.2 587.42,-123.06 576.84,-122.48 578.78,-129.2"/>
</g>
<!-- Node7 -->
<g id="node7" class="node">
<title>Node7</title>
<g id="a_node7"><a xlink:href="../../dd/d3e/class_gam_r_1_1_coulex_1_1_coulex_calculation.html#a46d4f1bd67b5c6c438efd93b9f1e4838" target="_top" xlink:title=" ">
<polygon fill="white" stroke="black" points="370,-98.5 370,-128.5 530,-128.5 530,-98.5 370,-98.5"/>
<text text-anchor="start" x="378" y="-116.5" font-family="Helvetica,sans-Serif" font-size="10.00">GamR::Coulex::CoulexCalculation</text>
<text text-anchor="middle" x="450" y="-105.5" font-family="Helvetica,sans-Serif" font-size="10.00">::SetLevelScheme</text>
</a>
</g>
</g>
<!-- Node1&#45;&gt;Node7 -->
<g id="edge7" class="edge">
<title>Node1&#45;&gt;Node7</title>
<path fill="none" stroke="midnightblue" d="M555.85,-113.5C547.44,-113.5 538.76,-113.5 530.15,-113.5"/>
<polygon fill="midnightblue" stroke="midnightblue" points="555.94,-117 565.94,-113.5 555.94,-110 555.94,-117"/>
</g>
<!-- Node8 -->
<g id="node8" class="node">
<title>Node8</title>
<g id="a_node8"><a xlink:href="../../dd/d3e/class_gam_r_1_1_coulex_1_1_coulex_calculation.html#a6c9d40e4bda6ae80b19bfbfd46a0b8fb" target="_top" xlink:title=" ">
<polygon fill="white" stroke="black" points="370,-49.5 370,-79.5 530,-79.5 530,-49.5 370,-49.5"/>
<text text-anchor="start" x="378" y="-67.5" font-family="Helvetica,sans-Serif" font-size="10.00">GamR::Coulex::CoulexCalculation</text>
<text text-anchor="middle" x="450" y="-56.5" font-family="Helvetica,sans-Serif" font-size="10.00">::SetParticleDet</text>
</a>
</g>
</g>
<!-- Node1&#45;&gt;Node8 -->
<g id="edge9" class="edge">
<title>Node1&#45;&gt;Node8</title>
<path fill="none" stroke="midnightblue" d="M577.72,-101.13C555.03,-94.57 526.96,-86.46 503.02,-79.54"/>
<polygon fill="midnightblue" stroke="midnightblue" points="576.84,-104.52 587.42,-103.94 578.78,-97.8 576.84,-104.52"/>
</g>
<!-- Node9 -->
<g id="node9" class="node">
<title>Node9</title>
<g id="a_node9"><a xlink:href="../../dd/d3e/class_gam_r_1_1_coulex_1_1_coulex_calculation.html#a2a7d4ff2433572678844223f385bba86" target="_top" xlink:title=" ">
<polygon fill="white" stroke="black" points="370,-0.5 370,-30.5 530,-30.5 530,-0.5 370,-0.5"/>
<text text-anchor="start" x="378" y="-18.5" font-family="Helvetica,sans-Serif" font-size="10.00">GamR::Coulex::CoulexCalculation</text>
<text text-anchor="middle" x="450" y="-7.5" font-family="Helvetica,sans-Serif" font-size="10.00">::SetTarget</text>
</a>
</g>
</g>
<!-- Node1&#45;&gt;Node9 -->
<g id="edge11" class="edge">
<title>Node1&#45;&gt;Node9</title>
<path fill="none" stroke="midnightblue" d="M603.26,-96.27C586.03,-79.89 558.12,-55.6 530,-40.5 523.03,-36.76 515.41,-33.47 507.73,-30.61"/>
<polygon fill="midnightblue" stroke="midnightblue" points="601.2,-99.14 610.82,-103.59 606.07,-94.12 601.2,-99.14"/>
</g>
<!-- Node3 -->
<g id="node3" class="node">
<title>Node3</title>
<g id="a_node3"><a xlink:href="../../dd/d3e/class_gam_r_1_1_coulex_1_1_coulex_calculation.html#ae8ce7427467c968c1a44f74a06ce4a30" target="_top" xlink:title=" ">
<polygon fill="white" stroke="black" points="174,-98.5 174,-128.5 334,-128.5 334,-98.5 174,-98.5"/>
<text text-anchor="start" x="182" y="-116.5" font-family="Helvetica,sans-Serif" font-size="10.00">GamR::Coulex::CoulexCalculation</text>
<text text-anchor="middle" x="254" y="-105.5" font-family="Helvetica,sans-Serif" font-size="10.00">::ExperimentalSetup</text>
</a>
</g>
</g>
<!-- Node2&#45;&gt;Node3 -->
<g id="edge2" class="edge">
<title>Node2&#45;&gt;Node3</title>
<path fill="none" stroke="midnightblue" d="M382.87,-192.92C378.46,-191.22 374.14,-189.41 370,-187.5 334.45,-171.05 296.95,-145.06 274.79,-128.67"/>
<polygon fill="midnightblue" stroke="midnightblue" points="382.01,-196.33 392.61,-196.47 384.41,-189.76 382.01,-196.33"/>
</g>
<!-- Node4 -->
<g id="node4" class="node">
<title>Node4</title>
<g id="a_node4"><a xlink:href="../../d6/d76/namespace_gam_r_1_1_coulex.html#a41b07b0aa204c45d637b7c5a4e57d989" target="_top" xlink:title=" ">
<polygon fill="white" stroke="black" points="7,-126 7,-145 131,-145 131,-126 7,-126"/>
<text text-anchor="middle" x="69" y="-133" font-family="Helvetica,sans-Serif" font-size="10.00">GamR::Coulex::DoCoulex</text>
</a>
</g>
</g>
<!-- Node3&#45;&gt;Node4 -->
<g id="edge3" class="edge">
<title>Node3&#45;&gt;Node4</title>
<path fill="none" stroke="midnightblue" d="M163.7,-124.24C152.66,-125.56 141.59,-126.89 131.12,-128.15"/>
<polygon fill="midnightblue" stroke="midnightblue" points="164.29,-127.69 173.8,-123.02 163.45,-120.74 164.29,-127.69"/>
</g>
<!-- Node5 -->
<g id="node5" class="node">
<title>Node5</title>
<g id="a_node5"><a xlink:href="../../d6/d76/namespace_gam_r_1_1_coulex.html#a2551a0108b265de32e08ef2042a02212" target="_top" xlink:title=" ">
<polygon fill="white" stroke="black" points="0,-76.5 0,-106.5 138,-106.5 138,-76.5 0,-76.5"/>
<text text-anchor="start" x="8" y="-94.5" font-family="Helvetica,sans-Serif" font-size="10.00">GamR::Coulex::Experimental</text>
<text text-anchor="middle" x="69" y="-83.5" font-family="Helvetica,sans-Serif" font-size="10.00">Setup</text>
</a>
</g>
</g>
<!-- Node3&#45;&gt;Node5 -->
<g id="edge4" class="edge">
<title>Node3&#45;&gt;Node5</title>
<path fill="none" stroke="midnightblue" d="M163.72,-102.77C155.12,-101.73 146.48,-100.69 138.13,-99.69"/>
<polygon fill="midnightblue" stroke="midnightblue" points="163.45,-106.26 173.8,-103.98 164.29,-99.31 163.45,-106.26"/>
</g>
<!-- Node6&#45;&gt;Node3 -->
<g id="edge6" class="edge">
<title>Node6&#45;&gt;Node3</title>
<path fill="none" stroke="midnightblue" d="M379.52,-144.95C358.21,-139.57 334.98,-133.7 314.41,-128.51"/>
<polygon fill="midnightblue" stroke="midnightblue" points="378.92,-148.41 389.48,-147.47 380.64,-141.62 378.92,-148.41"/>
</g>
<!-- Node7&#45;&gt;Node3 -->
<g id="edge8" class="edge">
<title>Node7&#45;&gt;Node3</title>
<path fill="none" stroke="midnightblue" d="M359.56,-113.5C351.12,-113.5 342.59,-113.5 334.25,-113.5"/>
<polygon fill="midnightblue" stroke="midnightblue" points="359.81,-117 369.81,-113.5 359.81,-110 359.81,-117"/>
</g>
<!-- Node8&#45;&gt;Node3 -->
<g id="edge10" class="edge">
<title>Node8&#45;&gt;Node3</title>
<path fill="none" stroke="midnightblue" d="M379.52,-82.05C358.21,-87.43 334.98,-93.3 314.41,-98.49"/>
<polygon fill="midnightblue" stroke="midnightblue" points="380.64,-85.38 389.48,-79.53 378.92,-78.59 380.64,-85.38"/>
</g>
<!-- Node9&#45;&gt;Node3 -->
<g id="edge12" class="edge">
<title>Node9&#45;&gt;Node3</title>
<path fill="none" stroke="midnightblue" d="M385.28,-34.07C380.04,-36.07 374.89,-38.22 370,-40.5 334.85,-56.88 297.54,-82.23 275.26,-98.34"/>
<polygon fill="midnightblue" stroke="midnightblue" points="386.55,-37.33 394.74,-30.61 384.15,-30.75 386.55,-37.33"/>
</g>
</g>
</svg>
