<?xml version="1.0" encoding="UTF-8" standalone="no"?>
<!DOCTYPE svg PUBLIC "-//W3C//DTD SVG 1.1//EN"
 "http://www.w3.org/Graphics/SVG/1.1/DTD/svg11.dtd">
<!-- Generated by graphviz version 9.0.0 (20230911.1827)
 -->
<!-- Title: GamR::Utils::GetHist2D Pages: 1 -->
<svg width="403pt" height="654pt"
 viewBox="0.00 0.00 402.50 654.25" xmlns="http://www.w3.org/2000/svg" xmlns:xlink="http://www.w3.org/1999/xlink">
<g id="graph0" class="graph" transform="scale(1 1) rotate(0) translate(4 650.25)">
<title>GamR::Utils::GetHist2D</title>
<!-- Node1 -->
<g id="Node000001" class="node">
<title>Node1</title>
<g id="a_Node000001"><a xlink:title=" ">
<polygon fill="#999999" stroke="#666666" points="394.5,-368.25 275.75,-368.25 275.75,-349 394.5,-349 394.5,-368.25"/>
<text text-anchor="middle" x="335.12" y="-354.75" font-family="Helvetica,sans-Serif" font-size="10.00">GamR::Utils::GetHist2D</text>
</a>
</g>
</g>
<!-- Node2 -->
<g id="Node000002" class="node">
<title>Node2</title>
<g id="a_Node000002"><a xlink:href="../../dc/d89/namespace_gam_r_1_1_spect.html#a9ca36cc95dbd271270ca12575c69d826" target="_top" xlink:title=" ">
<polygon fill="white" stroke="#666666" points="239.75,-646.25 66.25,-646.25 66.25,-627 239.75,-627 239.75,-646.25"/>
<text text-anchor="middle" x="153" y="-632.75" font-family="Helvetica,sans-Serif" font-size="10.00">GamR::Spect::BackgroundSubtractX</text>
</a>
</g>
</g>
<!-- Node1&#45;&gt;Node2 -->
<g id="edge1_Node000001_Node000002" class="edge">
<title>Node1&#45;&gt;Node2</title>
<g id="a_edge1_Node000001_Node000002"><a xlink:title=" ">
<path fill="none" stroke="#63b8ff" d="M333.1,-379.68C329.48,-429.45 313.15,-554.93 239.75,-618.62 236.19,-621.72 232.23,-624.32 228.03,-626.52"/>
<polygon fill="#63b8ff" stroke="#63b8ff" points="336.57,-380.2 333.69,-370.01 329.59,-379.77 336.57,-380.2"/>
</a>
</g>
</g>
<!-- Node3 -->
<g id="Node000003" class="node">
<title>Node3</title>
<g id="a_Node000003"><a xlink:href="../../dc/d89/namespace_gam_r_1_1_spect.html#ac28aecfca0ea36bb200357332620c979" target="_top" xlink:title=" ">
<polygon fill="white" stroke="#666666" points="239.75,-609.25 66.25,-609.25 66.25,-590 239.75,-590 239.75,-609.25"/>
<text text-anchor="middle" x="153" y="-595.75" font-family="Helvetica,sans-Serif" font-size="10.00">GamR::Spect::BackgroundSubtractX</text>
</a>
</g>
</g>
<!-- Node1&#45;&gt;Node3 -->
<g id="edge2_Node000001_Node000003" class="edge">
<title>Node1&#45;&gt;Node3</title>
<g id="a_edge2_Node000001_Node000003"><a xlink:title=" ">
<path fill="none" stroke="#63b8ff" d="M331.68,-379.68C325.31,-424.33 303.99,-528.74 239.75,-581.62 235.99,-584.72 231.83,-587.32 227.43,-589.5"/>
<polygon fill="#63b8ff" stroke="#63b8ff" points="335.11,-380.41 332.93,-370.04 328.17,-379.5 335.11,-380.41"/>
</a>
</g>
</g>
<!-- Node4 -->
<g id="Node000004" class="node">
<title>Node4</title>
<g id="a_Node000004"><a xlink:href="../../dc/d89/namespace_gam_r_1_1_spect.html#a53fe10f1093af796bb59a75a3f2b77d8" target="_top" xlink:title=" ">
<polygon fill="white" stroke="#666666" points="239.75,-572.25 66.25,-572.25 66.25,-553 239.75,-553 239.75,-572.25"/>
<text text-anchor="middle" x="153" y="-558.75" font-family="Helvetica,sans-Serif" font-size="10.00">GamR::Spect::BackgroundSubtractY</text>
</a>
</g>
</g>
<!-- Node1&#45;&gt;Node4 -->
<g id="edge3_Node000001_Node000004" class="edge">
<title>Node1&#45;&gt;Node4</title>
<g id="a_edge3_Node000001_Node000004"><a xlink:title=" ">
<path fill="none" stroke="#63b8ff" d="M329.75,-379.63C320.48,-418.68 294.98,-502.28 239.75,-544.62 235.65,-547.77 231.12,-550.4 226.35,-552.59"/>
<polygon fill="#63b8ff" stroke="#63b8ff" points="333.12,-380.63 331.88,-370.11 326.28,-379.11 333.12,-380.63"/>
</a>
</g>
</g>
<!-- Node5 -->
<g id="Node000005" class="node">
<title>Node5</title>
<g id="a_Node000005"><a xlink:href="../../dc/d89/namespace_gam_r_1_1_spect.html#a9f57e2825e847c472a276c5f021c6923" target="_top" xlink:title=" ">
<polygon fill="white" stroke="#666666" points="239.75,-535.25 66.25,-535.25 66.25,-516 239.75,-516 239.75,-535.25"/>
<text text-anchor="middle" x="153" y="-521.75" font-family="Helvetica,sans-Serif" font-size="10.00">GamR::Spect::BackgroundSubtractY</text>
</a>
</g>
</g>
<!-- Node1&#45;&gt;Node5 -->
<g id="edge4_Node000001_Node000005" class="edge">
<title>Node1&#45;&gt;Node5</title>
<g id="a_edge4_Node000001_Node000005"><a xlink:title=" ">
<path fill="none" stroke="#63b8ff" d="M327.16,-379.07C314.93,-411.73 286.36,-475.29 239.75,-507.62 235.25,-510.75 230.32,-513.35 225.17,-515.51"/>
<polygon fill="#63b8ff" stroke="#63b8ff" points="330.34,-380.57 330.42,-369.97 323.75,-378.2 330.34,-380.57"/>
</a>
</g>
</g>
<!-- Node6 -->
<g id="Node000006" class="node">
<title>Node6</title>
<g id="a_Node000006"><a xlink:href="../../dc/d89/namespace_gam_r_1_1_spect.html#a7bdcd7f945fa81ab5c0afcbcfcfacbc1" target="_top" xlink:title=" ">
<polygon fill="white" stroke="#666666" points="206,-498.25 100,-498.25 100,-479 206,-479 206,-498.25"/>
<text text-anchor="middle" x="153" y="-484.75" font-family="Helvetica,sans-Serif" font-size="10.00">GamR::Spect::GateX</text>
</a>
</g>
</g>
<!-- Node1&#45;&gt;Node6 -->
<g id="edge5_Node000001_Node000006" class="edge">
<title>Node1&#45;&gt;Node6</title>
<g id="a_edge5_Node000001_Node000006"><a xlink:title=" ">
<path fill="none" stroke="#63b8ff" d="M323.23,-378.31C308.02,-403.84 277.94,-447.79 239.75,-470.62 229.7,-476.63 217.93,-480.66 206.4,-483.34"/>
<polygon fill="#63b8ff" stroke="#63b8ff" points="326.1,-380.34 328.06,-369.92 320.04,-376.84 326.1,-380.34"/>
</a>
</g>
</g>
<!-- Node7 -->
<g id="Node000007" class="node">
<title>Node7</title>
<g id="a_Node000007"><a xlink:href="../../dc/d89/namespace_gam_r_1_1_spect.html#a85ffe93e2637ab66c5e1ce47f3af0eb3" target="_top" xlink:title=" ">
<polygon fill="white" stroke="#666666" points="206,-461.25 100,-461.25 100,-442 206,-442 206,-461.25"/>
<text text-anchor="middle" x="153" y="-447.75" font-family="Helvetica,sans-Serif" font-size="10.00">GamR::Spect::GateX</text>
</a>
</g>
</g>
<!-- Node1&#45;&gt;Node7 -->
<g id="edge6_Node000001_Node000007" class="edge">
<title>Node1&#45;&gt;Node7</title>
<g id="a_edge6_Node000001_Node000007"><a xlink:title=" ">
<path fill="none" stroke="#63b8ff" d="M317,-376.4C299.29,-393.7 270.03,-419.4 239.75,-433.62 229.42,-438.48 217.79,-442.03 206.5,-444.63"/>
<polygon fill="#63b8ff" stroke="#63b8ff" points="319.06,-379.29 323.65,-369.74 314.11,-374.34 319.06,-379.29"/>
</a>
</g>
</g>
<!-- Node8 -->
<g id="Node000008" class="node">
<title>Node8</title>
<g id="a_Node000008"><a xlink:href="../../dc/d89/namespace_gam_r_1_1_spect.html#a3f7906492da100d0d0f89b71ec32f0fe" target="_top" xlink:title=" ">
<polygon fill="white" stroke="#666666" points="206,-424.25 100,-424.25 100,-405 206,-405 206,-424.25"/>
<text text-anchor="middle" x="153" y="-410.75" font-family="Helvetica,sans-Serif" font-size="10.00">GamR::Spect::GateY</text>
</a>
</g>
</g>
<!-- Node1&#45;&gt;Node8 -->
<g id="edge7_Node000001_Node000008" class="edge">
<title>Node1&#45;&gt;Node8</title>
<g id="a_edge7_Node000001_Node000008"><a xlink:title=" ">
<path fill="none" stroke="#63b8ff" d="M301.89,-373.24C283.89,-380.99 260.88,-390.21 239.75,-396.62 228.98,-399.9 217.27,-402.78 206.07,-405.23"/>
<polygon fill="#63b8ff" stroke="#63b8ff" points="303.25,-376.47 311.01,-369.25 300.45,-370.06 303.25,-376.47"/>
</a>
</g>
</g>
<!-- Node9 -->
<g id="Node000009" class="node">
<title>Node9</title>
<g id="a_Node000009"><a xlink:href="../../dc/d89/namespace_gam_r_1_1_spect.html#adfd6d65e3a90168271a324c5b4b316c3" target="_top" xlink:title=" ">
<polygon fill="white" stroke="#666666" points="206,-387.25 100,-387.25 100,-368 206,-368 206,-387.25"/>
<text text-anchor="middle" x="153" y="-373.75" font-family="Helvetica,sans-Serif" font-size="10.00">GamR::Spect::GateY</text>
</a>
</g>
</g>
<!-- Node1&#45;&gt;Node9 -->
<g id="edge8_Node000001_Node000009" class="edge">
<title>Node1&#45;&gt;Node9</title>
<g id="a_edge8_Node000001_Node000009"><a xlink:title=" ">
<path fill="none" stroke="#63b8ff" d="M264.46,-365.97C245.16,-368.01 224.55,-370.18 206.41,-372.1"/>
<polygon fill="#63b8ff" stroke="#63b8ff" points="264.56,-369.48 274.14,-364.95 263.83,-362.52 264.56,-369.48"/>
</a>
</g>
</g>
<!-- Node10 -->
<g id="Node000010" class="node">
<title>Node10</title>
<g id="a_Node000010"><a xlink:href="../../dc/d89/namespace_gam_r_1_1_spect.html#a9c8f7d128fd04b25ddcdf07e340f1c1d" target="_top" xlink:title=" ">
<polygon fill="white" stroke="#666666" points="204.12,-350.25 101.88,-350.25 101.88,-331 204.12,-331 204.12,-350.25"/>
<text text-anchor="middle" x="153" y="-336.75" font-family="Helvetica,sans-Serif" font-size="10.00">GamR::Spect::ProjX</text>
</a>
</g>
</g>
<!-- Node1&#45;&gt;Node10 -->
<g id="edge9_Node000001_Node000010" class="edge">
<title>Node1&#45;&gt;Node10</title>
<g id="a_edge9_Node000001_Node000010"><a xlink:title=" ">
<path fill="none" stroke="#63b8ff" d="M264.43,-351.66C244.5,-349.67 223.17,-347.54 204.62,-345.68"/>
<polygon fill="#63b8ff" stroke="#63b8ff" points="263.84,-355.12 274.14,-352.63 264.54,-348.15 263.84,-355.12"/>
</a>
</g>
</g>
<!-- Node11 -->
<g id="Node000011" class="node">
<title>Node11</title>
<g id="a_Node000011"><a xlink:href="../../dc/d89/namespace_gam_r_1_1_spect.html#aa26a7c7e6e210c64559b7cd14f96a8f3" target="_top" xlink:title=" ">
<polygon fill="white" stroke="#666666" points="204.12,-313.25 101.88,-313.25 101.88,-294 204.12,-294 204.12,-313.25"/>
<text text-anchor="middle" x="153" y="-299.75" font-family="Helvetica,sans-Serif" font-size="10.00">GamR::Spect::ProjX</text>
</a>
</g>
</g>
<!-- Node1&#45;&gt;Node11 -->
<g id="edge10_Node000001_Node000011" class="edge">
<title>Node1&#45;&gt;Node11</title>
<g id="a_edge10_Node000001_Node000011"><a xlink:title=" ">
<path fill="none" stroke="#63b8ff" d="M301.14,-344.13C283.23,-336.66 260.56,-327.84 239.75,-321.62 228.38,-318.23 215.98,-315.23 204.23,-312.7"/>
<polygon fill="#63b8ff" stroke="#63b8ff" points="299.65,-347.3 310.22,-347.98 302.38,-340.85 299.65,-347.3"/>
</a>
</g>
</g>
<!-- Node12 -->
<g id="Node000012" class="node">
<title>Node12</title>
<g id="a_Node000012"><a xlink:href="../../dc/d89/namespace_gam_r_1_1_spect.html#ab6feb26905959a19a783814bb090c04b" target="_top" xlink:title=" ">
<polygon fill="white" stroke="#666666" points="204.12,-276.25 101.88,-276.25 101.88,-257 204.12,-257 204.12,-276.25"/>
<text text-anchor="middle" x="153" y="-262.75" font-family="Helvetica,sans-Serif" font-size="10.00">GamR::Spect::ProjY</text>
</a>
</g>
</g>
<!-- Node1&#45;&gt;Node12 -->
<g id="edge11_Node000001_Node000012" class="edge">
<title>Node1&#45;&gt;Node12</title>
<g id="a_edge11_Node000001_Node000012"><a xlink:title=" ">
<path fill="none" stroke="#63b8ff" d="M316.95,-341.1C299.21,-324.03 269.92,-298.68 239.75,-284.62 228.72,-279.49 216.21,-275.8 204.22,-273.16"/>
<polygon fill="#63b8ff" stroke="#63b8ff" points="314.03,-343.13 323.61,-347.66 318.95,-338.15 314.03,-343.13"/>
</a>
</g>
</g>
<!-- Node13 -->
<g id="Node000013" class="node">
<title>Node13</title>
<g id="a_Node000013"><a xlink:href="../../dc/d89/namespace_gam_r_1_1_spect.html#ae5e6149e08d3a93646d03c8d3839bbe7" target="_top" xlink:title=" ">
<polygon fill="white" stroke="#666666" points="204.12,-239.25 101.88,-239.25 101.88,-220 204.12,-220 204.12,-239.25"/>
<text text-anchor="middle" x="153" y="-225.75" font-family="Helvetica,sans-Serif" font-size="10.00">GamR::Spect::ProjY</text>
</a>
</g>
</g>
<!-- Node1&#45;&gt;Node13 -->
<g id="edge12_Node000001_Node000013" class="edge">
<title>Node1&#45;&gt;Node13</title>
<g id="a_edge12_Node000001_Node000013"><a xlink:title=" ">
<path fill="none" stroke="#63b8ff" d="M323.19,-339.12C307.93,-313.81 277.8,-270.25 239.75,-247.62 229.16,-241.33 216.69,-237.21 204.58,-234.53"/>
<polygon fill="#63b8ff" stroke="#63b8ff" points="319.97,-340.55 328.03,-347.42 326.01,-337.02 319.97,-340.55"/>
</a>
</g>
</g>
<!-- Node14 -->
<g id="Node000014" class="node">
<title>Node14</title>
<g id="a_Node000014"><a xlink:href="../../dc/d89/namespace_gam_r_1_1_spect.html#ad7a41599ba436c77756f7554f814ac6a" target="_top" xlink:title=" ">
<polygon fill="white" stroke="#666666" points="219.88,-184.25 86.12,-184.25 86.12,-165 219.88,-165 219.88,-184.25"/>
<text text-anchor="middle" x="153" y="-170.75" font-family="Helvetica,sans-Serif" font-size="10.00">GamR::Spect::UnZoomAllX</text>
</a>
</g>
</g>
<!-- Node1&#45;&gt;Node14 -->
<g id="edge13_Node000001_Node000014" class="edge">
<title>Node1&#45;&gt;Node14</title>
<g id="a_edge13_Node000001_Node000014"><a xlink:title=" ">
<path fill="none" stroke="#63b8ff" d="M325.81,-337.98C312.19,-306.53 282.31,-246.5 239.75,-210.62 225.68,-198.76 207.13,-190.33 190.89,-184.62"/>
<polygon fill="#63b8ff" stroke="#63b8ff" points="322.55,-339.26 329.64,-347.13 329,-336.55 322.55,-339.26"/>
</a>
</g>
</g>
<!-- Node17 -->
<g id="Node000017" class="node">
<title>Node17</title>
<g id="a_Node000017"><a xlink:href="../../dc/d89/namespace_gam_r_1_1_spect.html#a90aeaeedf126cc4509bf93387bba317c" target="_top" xlink:title=" ">
<polygon fill="white" stroke="#666666" points="219.88,-129.25 86.12,-129.25 86.12,-110 219.88,-110 219.88,-129.25"/>
<text text-anchor="middle" x="153" y="-115.75" font-family="Helvetica,sans-Serif" font-size="10.00">GamR::Spect::UnZoomAllY</text>
</a>
</g>
</g>
<!-- Node1&#45;&gt;Node17 -->
<g id="edge17_Node000001_Node000017" class="edge">
<title>Node1&#45;&gt;Node17</title>
<g id="a_edge17_Node000001_Node000017"><a xlink:title=" ">
<path fill="none" stroke="#63b8ff" d="M329.69,-337.57C320.12,-297.09 293.93,-207.8 239.75,-155.62 227.19,-143.53 209.97,-135.23 194.25,-129.68"/>
<polygon fill="#63b8ff" stroke="#63b8ff" points="326.24,-338.21 331.84,-347.21 333.07,-336.68 326.24,-338.21"/>
</a>
</g>
</g>
<!-- Node19 -->
<g id="Node000019" class="node">
<title>Node19</title>
<g id="a_Node000019"><a xlink:href="../../dc/d89/namespace_gam_r_1_1_spect.html#abe46121593366b3882e103c9464393cd" target="_top" xlink:title=" ">
<polygon fill="white" stroke="#666666" points="213.5,-74.25 92.5,-74.25 92.5,-55 213.5,-55 213.5,-74.25"/>
<text text-anchor="middle" x="153" y="-60.75" font-family="Helvetica,sans-Serif" font-size="10.00">GamR::Spect::ZoomAllX</text>
</a>
</g>
</g>
<!-- Node1&#45;&gt;Node19 -->
<g id="edge21_Node000001_Node000019" class="edge">
<title>Node1&#45;&gt;Node19</title>
<g id="a_edge21_Node000001_Node000019"><a xlink:title=" ">
<path fill="none" stroke="#63b8ff" d="M332.06,-337.34C326.29,-289.01 305.8,-169.84 239.75,-100.62 228.05,-88.36 211.52,-80.1 196.09,-74.62"/>
<polygon fill="#63b8ff" stroke="#63b8ff" points="328.58,-337.68 333.14,-347.25 335.53,-336.93 328.58,-337.68"/>
</a>
</g>
</g>
<!-- Node21 -->
<g id="Node000021" class="node">
<title>Node21</title>
<g id="a_Node000021"><a xlink:href="../../dc/d89/namespace_gam_r_1_1_spect.html#ac7c5ded7212a1f4eda1decea284eb2b6" target="_top" xlink:title=" ">
<polygon fill="white" stroke="#666666" points="213.5,-19.25 92.5,-19.25 92.5,0 213.5,0 213.5,-19.25"/>
<text text-anchor="middle" x="153" y="-5.75" font-family="Helvetica,sans-Serif" font-size="10.00">GamR::Spect::ZoomAllY</text>
</a>
</g>
</g>
<!-- Node1&#45;&gt;Node21 -->
<g id="edge24_Node000001_Node000021" class="edge">
<title>Node1&#45;&gt;Node21</title>
<g id="a_edge24_Node000001_Node000021"><a xlink:title=" ">
<path fill="none" stroke="#63b8ff" d="M333.68,-337.4C331.42,-282.22 317.98,-132.5 239.75,-45.62 228.73,-33.39 212.88,-25.19 197.79,-19.75"/>
<polygon fill="#63b8ff" stroke="#63b8ff" points="330.18,-337.37 333.99,-347.26 337.18,-337.15 330.18,-337.37"/>
</a>
</g>
</g>
<!-- Node14&#45;&gt;Node14 -->
<g id="edge14_Node000014_Node000014" class="edge">
<title>Node14&#45;&gt;Node14</title>
<g id="a_edge14_Node000014_Node000014"><a xlink:title=" ">
<path fill="none" stroke="#63b8ff" d="M177.47,-195.65C174.41,-199.53 166.25,-202.25 153,-202.25 128.76,-202.25 121.57,-193.15 131.41,-184.54"/>
<polygon fill="#63b8ff" stroke="#63b8ff" points="180.87,-194.8 174.97,-186 174.09,-196.56 180.87,-194.8"/>
</a>
</g>
</g>
<!-- Node15 -->
<g id="Node000015" class="node">
<title>Node15</title>
<g id="a_Node000015"><a xlink:href="../../d0/d17/_abbreviations_8cc.html#ad6c1348cf4b30587f643d7c5477ce373" target="_top" xlink:title=" ">
<polygon fill="white" stroke="#666666" points="29.52,-157.25 0.72,-157.25 0.72,-138 29.52,-138 29.52,-157.25"/>
<text text-anchor="middle" x="15.12" y="-143.75" font-family="Helvetica,sans-Serif" font-size="10.00">uz</text>
</a>
</g>
</g>
<!-- Node14&#45;&gt;Node15 -->
<g id="edge15_Node000014_Node000015" class="edge">
<title>Node14&#45;&gt;Node15</title>
<g id="a_edge15_Node000014_Node000015"><a xlink:title=" ">
<path fill="none" stroke="#63b8ff" d="M90.42,-162.39C67.79,-157.89 44.21,-153.21 29.85,-150.35"/>
<polygon fill="#63b8ff" stroke="#63b8ff" points="89.43,-165.76 99.92,-164.28 90.79,-158.89 89.43,-165.76"/>
</a>
</g>
</g>
<!-- Node16 -->
<g id="Node000016" class="node">
<title>Node16</title>
<g id="a_Node000016"><a xlink:href="../../d0/d17/_abbreviations_8cc.html#acb4a8fa6e9a9ea43a10001e01e3764ab" target="_top" xlink:title=" ">
<polygon fill="white" stroke="#666666" points="30.25,-194.25 0,-194.25 0,-175 30.25,-175 30.25,-194.25"/>
<text text-anchor="middle" x="15.12" y="-180.75" font-family="Helvetica,sans-Serif" font-size="10.00">uzx</text>
</a>
</g>
</g>
<!-- Node14&#45;&gt;Node16 -->
<g id="edge16_Node000014_Node000016" class="edge">
<title>Node14&#45;&gt;Node16</title>
<g id="a_edge16_Node000014_Node000016"><a xlink:title=" ">
<path fill="none" stroke="#63b8ff" d="M74.5,-180.33C57.62,-181.57 41.55,-182.75 30.56,-183.56"/>
<polygon fill="#63b8ff" stroke="#63b8ff" points="74.43,-183.84 84.15,-179.62 73.92,-176.86 74.43,-183.84"/>
</a>
</g>
</g>
<!-- Node17&#45;&gt;Node15 -->
<g id="edge19_Node000017_Node000015" class="edge">
<title>Node17&#45;&gt;Node15</title>
<g id="a_edge19_Node000017_Node000015"><a xlink:title=" ">
<path fill="none" stroke="#63b8ff" d="M91.79,-132.03C68.77,-136.78 44.55,-141.77 29.89,-144.79"/>
<polygon fill="#63b8ff" stroke="#63b8ff" points="92.38,-135.49 101.46,-130.04 90.96,-128.63 92.38,-135.49"/>
</a>
</g>
</g>
<!-- Node17&#45;&gt;Node17 -->
<g id="edge18_Node000017_Node000017" class="edge">
<title>Node17&#45;&gt;Node17</title>
<g id="a_edge18_Node000017_Node000017"><a xlink:title=" ">
<path fill="none" stroke="#63b8ff" d="M177.47,-140.65C174.41,-144.53 166.25,-147.25 153,-147.25 128.76,-147.25 121.57,-138.15 131.41,-129.54"/>
<polygon fill="#63b8ff" stroke="#63b8ff" points="180.87,-139.8 174.97,-131 174.09,-141.56 180.87,-139.8"/>
</a>
</g>
</g>
<!-- Node18 -->
<g id="Node000018" class="node">
<title>Node18</title>
<g id="a_Node000018"><a xlink:href="../../d0/d17/_abbreviations_8cc.html#a3eb86ecf22dfbb5cdf5cc95f542a8077" target="_top" xlink:title=" ">
<polygon fill="white" stroke="#666666" points="30.25,-120.25 0,-120.25 0,-101 30.25,-101 30.25,-120.25"/>
<text text-anchor="middle" x="15.12" y="-106.75" font-family="Helvetica,sans-Serif" font-size="10.00">uzy</text>
</a>
</g>
</g>
<!-- Node17&#45;&gt;Node18 -->
<g id="edge20_Node000017_Node000018" class="edge">
<title>Node17&#45;&gt;Node18</title>
<g id="a_edge20_Node000017_Node000018"><a xlink:title=" ">
<path fill="none" stroke="#63b8ff" d="M74.5,-114.49C57.62,-113.37 41.55,-112.31 30.56,-111.58"/>
<polygon fill="#63b8ff" stroke="#63b8ff" points="73.93,-117.96 84.14,-115.13 74.4,-110.98 73.93,-117.96"/>
</a>
</g>
</g>
<!-- Node19&#45;&gt;Node19 -->
<g id="edge22_Node000019_Node000019" class="edge">
<title>Node19&#45;&gt;Node19</title>
<g id="a_edge22_Node000019_Node000019"><a xlink:title=" ">
<path fill="none" stroke="#63b8ff" d="M177.47,-85.65C174.41,-89.53 166.25,-92.25 153,-92.25 128.76,-92.25 121.57,-83.15 131.41,-74.54"/>
<polygon fill="#63b8ff" stroke="#63b8ff" points="180.87,-84.8 174.97,-76 174.09,-86.56 180.87,-84.8"/>
</a>
</g>
</g>
<!-- Node20 -->
<g id="Node000020" class="node">
<title>Node20</title>
<g id="a_Node000020"><a xlink:href="../../d0/d17/_abbreviations_8cc.html#a2823fe79e773b96fe2f77605c85323ca" target="_top" xlink:title=" ">
<polygon fill="white" stroke="#666666" points="29.52,-74.25 0.72,-74.25 0.72,-55 29.52,-55 29.52,-74.25"/>
<text text-anchor="middle" x="15.12" y="-60.75" font-family="Helvetica,sans-Serif" font-size="10.00">zx</text>
</a>
</g>
</g>
<!-- Node19&#45;&gt;Node20 -->
<g id="edge23_Node000019_Node000020" class="edge">
<title>Node19&#45;&gt;Node20</title>
<g id="a_edge23_Node000019_Node000020"><a xlink:title=" ">
<path fill="none" stroke="#63b8ff" d="M80.62,-64.62C61.27,-64.62 42.29,-64.62 29.99,-64.62"/>
<polygon fill="#63b8ff" stroke="#63b8ff" points="80.49,-68.13 90.49,-64.63 80.49,-61.13 80.49,-68.13"/>
</a>
</g>
</g>
<!-- Node21&#45;&gt;Node21 -->
<g id="edge25_Node000021_Node000021" class="edge">
<title>Node21&#45;&gt;Node21</title>
<g id="a_edge25_Node000021_Node000021"><a xlink:title=" ">
<path fill="none" stroke="#63b8ff" d="M177.47,-30.65C174.41,-34.53 166.25,-37.25 153,-37.25 128.76,-37.25 121.57,-28.15 131.41,-19.54"/>
<polygon fill="#63b8ff" stroke="#63b8ff" points="180.87,-29.8 174.97,-21 174.09,-31.56 180.87,-29.8"/>
</a>
</g>
</g>
<!-- Node22 -->
<g id="Node000022" class="node">
<title>Node22</title>
<g id="a_Node000022"><a xlink:href="../../d0/d17/_abbreviations_8cc.html#addeede0b6b898db76793d554ec8e3418" target="_top" xlink:title=" ">
<polygon fill="white" stroke="#666666" points="29.52,-19.25 0.72,-19.25 0.72,0 29.52,0 29.52,-19.25"/>
<text text-anchor="middle" x="15.12" y="-5.75" font-family="Helvetica,sans-Serif" font-size="10.00">zy</text>
</a>
</g>
</g>
<!-- Node21&#45;&gt;Node22 -->
<g id="edge26_Node000021_Node000022" class="edge">
<title>Node21&#45;&gt;Node22</title>
<g id="a_edge26_Node000021_Node000022"><a xlink:title=" ">
<path fill="none" stroke="#63b8ff" d="M80.62,-9.62C61.27,-9.62 42.29,-9.62 29.99,-9.62"/>
<polygon fill="#63b8ff" stroke="#63b8ff" points="80.49,-13.13 90.49,-9.63 80.49,-6.13 80.49,-13.13"/>
</a>
</g>
</g>
</g>
</svg>
