<?xml version="1.0" encoding="UTF-8" standalone="no"?>
<!DOCTYPE svg PUBLIC "-//W3C//DTD SVG 1.1//EN"
 "http://www.w3.org/Graphics/SVG/1.1/DTD/svg11.dtd">
<!-- Generated by graphviz version 8.1.0 (20230707.0739)
 -->
<!-- Title: GamR::Utils::GetNPads Pages: 1 -->
<svg width="684pt" height="357pt"
 viewBox="0.00 0.00 683.50 357.25" xmlns="http://www.w3.org/2000/svg" xmlns:xlink="http://www.w3.org/1999/xlink">
<g id="graph0" class="graph" transform="scale(1 1) rotate(0) translate(4 353.25)">
<title>GamR::Utils::GetNPads</title>
<!-- Node1 -->
<g id="Node000001" class="node">
<title>Node1</title>
<g id="a_Node000001"><a xlink:title=" ">
<polygon fill="#999999" stroke="#666666" points="675.5,-184.25 556.75,-184.25 556.75,-165 675.5,-165 675.5,-184.25"/>
<text text-anchor="middle" x="616.12" y="-170.75" font-family="Helvetica,sans-Serif" font-size="10.00">GamR::Utils::GetNPads</text>
</a>
</g>
</g>
<!-- Node2 -->
<g id="Node000002" class="node">
<title>Node2</title>
<g id="a_Node000002"><a xlink:href="../../dc/d89/namespace_gam_r_1_1_spect.html#a7c014b37fef6c9127b7d862a977e4e36" target="_top" xlink:title=" ">
<polygon fill="white" stroke="#666666" points="505.38,-331.25 402.38,-331.25 402.38,-312 505.38,-312 505.38,-331.25"/>
<text text-anchor="middle" x="453.88" y="-317.75" font-family="Helvetica,sans-Serif" font-size="10.00">GamR::Spect::LinAll</text>
</a>
</g>
</g>
<!-- Node1&#45;&gt;Node2 -->
<g id="edge1_Node000001_Node000002" class="edge">
<title>Node1&#45;&gt;Node2</title>
<g id="a_edge1_Node000001_Node000002"><a xlink:title=" ">
<path fill="none" stroke="#63b8ff" d="M606.2,-194.07C592.13,-222.51 562.09,-275.16 520.75,-303.62 516.16,-306.78 511.04,-309.39 505.73,-311.54"/>
<polygon fill="#63b8ff" stroke="#63b8ff" points="609.64,-195.99 610.8,-185.46 603.32,-192.97 609.64,-195.99"/>
</a>
</g>
</g>
<!-- Node4 -->
<g id="Node000004" class="node">
<title>Node4</title>
<g id="a_Node000004"><a xlink:href="../../dc/d89/namespace_gam_r_1_1_spect.html#aa3a93f8152a5a49fd88de42c1eb4f97f" target="_top" xlink:title=" ">
<polygon fill="white" stroke="#666666" points="506.88,-276.25 400.88,-276.25 400.88,-257 506.88,-257 506.88,-276.25"/>
<text text-anchor="middle" x="453.88" y="-262.75" font-family="Helvetica,sans-Serif" font-size="10.00">GamR::Spect::LogAll</text>
</a>
</g>
</g>
<!-- Node1&#45;&gt;Node4 -->
<g id="edge4_Node000001_Node000004" class="edge">
<title>Node1&#45;&gt;Node4</title>
<g id="a_edge4_Node000001_Node000004"><a xlink:title=" ">
<path fill="none" stroke="#63b8ff" d="M597.48,-192.05C579.56,-208.81 550.32,-233.76 520.75,-248.62 514.61,-251.71 507.87,-254.33 501.11,-256.52"/>
<polygon fill="#63b8ff" stroke="#63b8ff" points="599.51,-194.99 604.32,-185.55 594.67,-189.93 599.51,-194.99"/>
</a>
</g>
</g>
<!-- Node8 -->
<g id="Node000008" class="node">
<title>Node8</title>
<g id="a_Node000008"><a xlink:href="../../dc/d89/namespace_gam_r_1_1_spect.html#ab6884a6323a0b4f61d4e3e5a47ce60ae" target="_top" xlink:title=" ">
<polygon fill="white" stroke="#666666" points="505.38,-239.25 402.38,-239.25 402.38,-220 505.38,-220 505.38,-239.25"/>
<text text-anchor="middle" x="453.88" y="-225.75" font-family="Helvetica,sans-Serif" font-size="10.00">GamR::Spect::Rebin</text>
</a>
</g>
</g>
<!-- Node1&#45;&gt;Node8 -->
<g id="edge9_Node000001_Node000008" class="edge">
<title>Node1&#45;&gt;Node8</title>
<g id="a_edge9_Node000001_Node000008"><a xlink:title=" ">
<path fill="none" stroke="#63b8ff" d="M581.76,-188.71C563.84,-196.02 541.28,-204.82 520.75,-211.62 512.31,-214.42 503.16,-217.13 494.44,-219.55"/>
<polygon fill="#63b8ff" stroke="#63b8ff" points="582.81,-191.65 590.72,-184.61 580.14,-185.18 582.81,-191.65"/>
</a>
</g>
</g>
<!-- Node9 -->
<g id="Node000009" class="node">
<title>Node9</title>
<g id="a_Node000009"><a xlink:href="../../dc/d89/namespace_gam_r_1_1_spect.html#ad7a41599ba436c77756f7554f814ac6a" target="_top" xlink:title=" ">
<polygon fill="white" stroke="#666666" points="520.75,-184.25 387,-184.25 387,-165 520.75,-165 520.75,-184.25"/>
<text text-anchor="middle" x="453.88" y="-170.75" font-family="Helvetica,sans-Serif" font-size="10.00">GamR::Spect::UnZoomAllX</text>
</a>
</g>
</g>
<!-- Node1&#45;&gt;Node9 -->
<g id="edge10_Node000001_Node000009" class="edge">
<title>Node1&#45;&gt;Node9</title>
<g id="a_edge10_Node000001_Node000009"><a xlink:title=" ">
<path fill="none" stroke="#63b8ff" d="M545.49,-174.62C537.43,-174.62 529.23,-174.62 521.21,-174.62"/>
<polygon fill="#63b8ff" stroke="#63b8ff" points="545.36,-178.13 555.36,-174.62 545.36,-171.13 545.36,-178.13"/>
</a>
</g>
</g>
<!-- Node12 -->
<g id="Node000012" class="node">
<title>Node12</title>
<g id="a_Node000012"><a xlink:href="../../dc/d89/namespace_gam_r_1_1_spect.html#a90aeaeedf126cc4509bf93387bba317c" target="_top" xlink:title=" ">
<polygon fill="white" stroke="#666666" points="520.75,-129.25 387,-129.25 387,-110 520.75,-110 520.75,-129.25"/>
<text text-anchor="middle" x="453.88" y="-115.75" font-family="Helvetica,sans-Serif" font-size="10.00">GamR::Spect::UnZoomAllY</text>
</a>
</g>
</g>
<!-- Node1&#45;&gt;Node12 -->
<g id="edge14_Node000001_Node000012" class="edge">
<title>Node1&#45;&gt;Node12</title>
<g id="a_edge14_Node000001_Node000012"><a xlink:title=" ">
<path fill="none" stroke="#63b8ff" d="M575.41,-160.99C547.2,-151.31 509.94,-138.52 484.35,-129.74"/>
<polygon fill="#63b8ff" stroke="#63b8ff" points="574.14,-164.6 584.73,-164.54 576.41,-157.98 574.14,-164.6"/>
</a>
</g>
</g>
<!-- Node14 -->
<g id="Node000014" class="node">
<title>Node14</title>
<g id="a_Node000014"><a xlink:href="../../dc/d89/namespace_gam_r_1_1_spect.html#abe46121593366b3882e103c9464393cd" target="_top" xlink:title=" ">
<polygon fill="white" stroke="#666666" points="514.38,-74.25 393.38,-74.25 393.38,-55 514.38,-55 514.38,-74.25"/>
<text text-anchor="middle" x="453.88" y="-60.75" font-family="Helvetica,sans-Serif" font-size="10.00">GamR::Spect::ZoomAllX</text>
</a>
</g>
</g>
<!-- Node1&#45;&gt;Node14 -->
<g id="edge18_Node000001_Node000014" class="edge">
<title>Node1&#45;&gt;Node14</title>
<g id="a_edge18_Node000001_Node000014"><a xlink:title=" ">
<path fill="none" stroke="#63b8ff" d="M595.43,-157.62C576.82,-141.93 547.79,-118.44 520.75,-100.62 506.06,-90.95 488.54,-81.46 475.27,-74.66"/>
<polygon fill="#63b8ff" stroke="#63b8ff" points="592.79,-160.82 602.67,-164.63 597.33,-155.49 592.79,-160.82"/>
</a>
</g>
</g>
<!-- Node16 -->
<g id="Node000016" class="node">
<title>Node16</title>
<g id="a_Node000016"><a xlink:href="../../dc/d89/namespace_gam_r_1_1_spect.html#ac7c5ded7212a1f4eda1decea284eb2b6" target="_top" xlink:title=" ">
<polygon fill="white" stroke="#666666" points="514.38,-19.25 393.38,-19.25 393.38,0 514.38,0 514.38,-19.25"/>
<text text-anchor="middle" x="453.88" y="-5.75" font-family="Helvetica,sans-Serif" font-size="10.00">GamR::Spect::ZoomAllY</text>
</a>
</g>
</g>
<!-- Node1&#45;&gt;Node16 -->
<g id="edge21_Node000001_Node000016" class="edge">
<title>Node1&#45;&gt;Node16</title>
<g id="a_edge21_Node000001_Node000016"><a xlink:title=" ">
<path fill="none" stroke="#63b8ff" d="M604.61,-155.21C589.13,-128.01 557.96,-78.24 520.75,-45.62 508.4,-34.8 492.25,-25.91 479.03,-19.67"/>
<polygon fill="#63b8ff" stroke="#63b8ff" points="602,-156.72 609.93,-163.76 608.12,-153.32 602,-156.72"/>
</a>
</g>
</g>
<!-- Node2&#45;&gt;Node2 -->
<g id="edge3_Node000002_Node000002" class="edge">
<title>Node2&#45;&gt;Node2</title>
<g id="a_edge3_Node000002_Node000002"><a xlink:title=" ">
<path fill="none" stroke="#63b8ff" d="M475.23,-341.98C472.98,-346.21 465.87,-349.25 453.88,-349.25 433.13,-349.25 426.97,-340.15 435.4,-331.54"/>
<polygon fill="#63b8ff" stroke="#63b8ff" points="478.38,-341.25 472.35,-332.54 471.63,-343.11 478.38,-341.25"/>
</a>
</g>
</g>
<!-- Node3 -->
<g id="Node000003" class="node">
<title>Node3</title>
<g id="a_Node000003"><a xlink:href="../../d0/d17/_abbreviations_8cc.html#ace2c85354ca9c7a9aaa944e3964e030f" target="_top" xlink:title=" ">
<polygon fill="white" stroke="#666666" points="350.27,-331.25 321.48,-331.25 321.48,-312 350.27,-312 350.27,-331.25"/>
<text text-anchor="middle" x="335.88" y="-317.75" font-family="Helvetica,sans-Serif" font-size="10.00">lin</text>
</a>
</g>
</g>
<!-- Node2&#45;&gt;Node3 -->
<g id="edge2_Node000002_Node000003" class="edge">
<title>Node2&#45;&gt;Node3</title>
<g id="a_edge2_Node000002_Node000003"><a xlink:title=" ">
<path fill="none" stroke="#63b8ff" d="M391.4,-321.62C376.08,-321.62 361.1,-321.62 350.72,-321.62"/>
<polygon fill="#63b8ff" stroke="#63b8ff" points="391,-325.13 401,-321.62 391,-318.13 391,-325.13"/>
</a>
</g>
</g>
<!-- Node4&#45;&gt;Node4 -->
<g id="edge8_Node000004_Node000004" class="edge">
<title>Node4&#45;&gt;Node4</title>
<g id="a_edge8_Node000004_Node000004"><a xlink:title=" ">
<path fill="none" stroke="#63b8ff" d="M475.23,-286.98C472.98,-291.21 465.87,-294.25 453.88,-294.25 433.13,-294.25 426.97,-285.15 435.4,-276.54"/>
<polygon fill="#63b8ff" stroke="#63b8ff" points="478.38,-286.25 472.35,-277.54 471.63,-288.11 478.38,-286.25"/>
</a>
</g>
</g>
<!-- Node5 -->
<g id="Node000005" class="node">
<title>Node5</title>
<g id="a_Node000005"><a xlink:href="../../d0/d17/_abbreviations_8cc.html#aac6b7f4e4bdca0828a1553bfe8a0bca5" target="_top" xlink:title=" ">
<polygon fill="white" stroke="#666666" points="350.27,-276.25 321.48,-276.25 321.48,-257 350.27,-257 350.27,-276.25"/>
<text text-anchor="middle" x="335.88" y="-262.75" font-family="Helvetica,sans-Serif" font-size="10.00">log</text>
</a>
</g>
</g>
<!-- Node4&#45;&gt;Node5 -->
<g id="edge5_Node000004_Node000005" class="edge">
<title>Node4&#45;&gt;Node5</title>
<g id="a_edge5_Node000004_Node000005"><a xlink:title=" ">
<path fill="none" stroke="#63b8ff" d="M389.76,-266.62C374.84,-266.62 360.38,-266.62 350.36,-266.62"/>
<polygon fill="#63b8ff" stroke="#63b8ff" points="389.64,-270.13 399.64,-266.62 389.64,-263.13 389.64,-270.13"/>
</a>
</g>
</g>
<!-- Node6 -->
<g id="Node000006" class="node">
<title>Node6</title>
<g id="a_Node000006"><a xlink:href="../../d7/dd8/namespace_gam_r_1_1_efficiency.html#a427d0e741996ac1982ee55180be3ecdf" target="_top" xlink:title=" ">
<polygon fill="white" stroke="#666666" points="284.75,-276.25 151.75,-276.25 151.75,-257 284.75,-257 284.75,-276.25"/>
<text text-anchor="middle" x="218.25" y="-262.75" font-family="Helvetica,sans-Serif" font-size="10.00">GamR::Efficiency::EffCFunc</text>
</a>
</g>
</g>
<!-- Node5&#45;&gt;Node6 -->
<g id="edge6_Node000005_Node000006" class="edge">
<title>Node5&#45;&gt;Node6</title>
<g id="a_edge6_Node000005_Node000006"><a xlink:title=" ">
<path fill="none" stroke="#63b8ff" d="M310.32,-266.62C302.74,-266.62 294.01,-266.62 285.01,-266.62"/>
<polygon fill="#63b8ff" stroke="#63b8ff" points="310.16,-270.13 320.16,-266.62 310.16,-263.13 310.16,-270.13"/>
</a>
</g>
</g>
<!-- Node7 -->
<g id="Node000007" class="node">
<title>Node7</title>
<g id="a_Node000007"><a xlink:href="../../dc/d61/class_gam_r_1_1_efficiency_1_1_eff_fit.html#a253378c895d2ac0ba1d8ada6c5ae8f4b" target="_top" xlink:title=" ">
<polygon fill="white" stroke="#666666" points="115.75,-281.88 0,-281.88 0,-251.38 115.75,-251.38 115.75,-281.88"/>
<text text-anchor="start" x="8" y="-268.38" font-family="Helvetica,sans-Serif" font-size="10.00">GamR::Efficiency::EffFit</text>
<text text-anchor="middle" x="57.88" y="-257.12" font-family="Helvetica,sans-Serif" font-size="10.00">::EffFit</text>
</a>
</g>
</g>
<!-- Node6&#45;&gt;Node7 -->
<g id="edge7_Node000006_Node000007" class="edge">
<title>Node6&#45;&gt;Node7</title>
<g id="a_edge7_Node000006_Node000007"><a xlink:title=" ">
<path fill="none" stroke="#63b8ff" d="M140.66,-266.62C132.4,-266.62 124.11,-266.62 116.13,-266.62"/>
<polygon fill="#63b8ff" stroke="#63b8ff" points="140.46,-270.13 150.46,-266.62 140.46,-263.13 140.46,-270.13"/>
</a>
</g>
</g>
<!-- Node9&#45;&gt;Node9 -->
<g id="edge11_Node000009_Node000009" class="edge">
<title>Node9&#45;&gt;Node9</title>
<g id="a_edge11_Node000009_Node000009"><a xlink:title=" ">
<path fill="none" stroke="#63b8ff" d="M475.23,-194.98C472.98,-199.21 465.87,-202.25 453.88,-202.25 433.13,-202.25 426.97,-193.15 435.4,-184.54"/>
<polygon fill="#63b8ff" stroke="#63b8ff" points="478.38,-194.25 472.35,-185.54 471.63,-196.11 478.38,-194.25"/>
</a>
</g>
</g>
<!-- Node10 -->
<g id="Node000010" class="node">
<title>Node10</title>
<g id="a_Node000010"><a xlink:href="../../d0/d17/_abbreviations_8cc.html#ad6c1348cf4b30587f643d7c5477ce373" target="_top" xlink:title=" ">
<polygon fill="white" stroke="#666666" points="350.27,-157.25 321.48,-157.25 321.48,-138 350.27,-138 350.27,-157.25"/>
<text text-anchor="middle" x="335.88" y="-143.75" font-family="Helvetica,sans-Serif" font-size="10.00">uz</text>
</a>
</g>
</g>
<!-- Node9&#45;&gt;Node10 -->
<g id="edge12_Node000009_Node000010" class="edge">
<title>Node9&#45;&gt;Node10</title>
<g id="a_edge12_Node000009_Node000010"><a xlink:title=" ">
<path fill="none" stroke="#63b8ff" d="M398.99,-162.08C381.13,-157.93 362.76,-153.65 350.67,-150.84"/>
<polygon fill="#63b8ff" stroke="#63b8ff" points="398.15,-165.71 408.68,-164.57 399.73,-158.9 398.15,-165.71"/>
</a>
</g>
</g>
<!-- Node11 -->
<g id="Node000011" class="node">
<title>Node11</title>
<g id="a_Node000011"><a xlink:href="../../d0/d17/_abbreviations_8cc.html#acb4a8fa6e9a9ea43a10001e01e3764ab" target="_top" xlink:title=" ">
<polygon fill="white" stroke="#666666" points="351,-194.25 320.75,-194.25 320.75,-175 351,-175 351,-194.25"/>
<text text-anchor="middle" x="335.88" y="-180.75" font-family="Helvetica,sans-Serif" font-size="10.00">uzx</text>
</a>
</g>
</g>
<!-- Node9&#45;&gt;Node11 -->
<g id="edge13_Node000009_Node000011" class="edge">
<title>Node9&#45;&gt;Node11</title>
<g id="a_edge13_Node000009_Node000011"><a xlink:title=" ">
<path fill="none" stroke="#63b8ff" d="M375.92,-181.26C366.56,-182.07 357.93,-182.81 351.19,-183.39"/>
<polygon fill="#63b8ff" stroke="#63b8ff" points="376.08,-184.67 385.74,-180.33 375.48,-177.7 376.08,-184.67"/>
</a>
</g>
</g>
<!-- Node12&#45;&gt;Node10 -->
<g id="edge16_Node000012_Node000010" class="edge">
<title>Node12&#45;&gt;Node10</title>
<g id="a_edge16_Node000012_Node000010"><a xlink:title=" ">
<path fill="none" stroke="#63b8ff" d="M400.39,-132.29C382.13,-136.7 363.14,-141.28 350.74,-144.28"/>
<polygon fill="#63b8ff" stroke="#63b8ff" points="401.1,-135.48 410,-129.73 399.45,-128.68 401.1,-135.48"/>
</a>
</g>
</g>
<!-- Node12&#45;&gt;Node12 -->
<g id="edge15_Node000012_Node000012" class="edge">
<title>Node12&#45;&gt;Node12</title>
<g id="a_edge15_Node000012_Node000012"><a xlink:title=" ">
<path fill="none" stroke="#63b8ff" d="M475.23,-139.98C472.98,-144.21 465.87,-147.25 453.88,-147.25 433.13,-147.25 426.97,-138.15 435.4,-129.54"/>
<polygon fill="#63b8ff" stroke="#63b8ff" points="478.38,-139.25 472.35,-130.54 471.63,-141.11 478.38,-139.25"/>
</a>
</g>
</g>
<!-- Node13 -->
<g id="Node000013" class="node">
<title>Node13</title>
<g id="a_Node000013"><a xlink:href="../../d0/d17/_abbreviations_8cc.html#a3eb86ecf22dfbb5cdf5cc95f542a8077" target="_top" xlink:title=" ">
<polygon fill="white" stroke="#666666" points="351,-120.25 320.75,-120.25 320.75,-101 351,-101 351,-120.25"/>
<text text-anchor="middle" x="335.88" y="-106.75" font-family="Helvetica,sans-Serif" font-size="10.00">uzy</text>
</a>
</g>
</g>
<!-- Node12&#45;&gt;Node13 -->
<g id="edge17_Node000012_Node000013" class="edge">
<title>Node12&#45;&gt;Node13</title>
<g id="a_edge17_Node000012_Node000013"><a xlink:title=" ">
<path fill="none" stroke="#63b8ff" d="M375.92,-113.65C366.56,-112.93 357.93,-112.26 351.19,-111.74"/>
<polygon fill="#63b8ff" stroke="#63b8ff" points="375.5,-117.21 385.74,-114.49 376.04,-110.23 375.5,-117.21"/>
</a>
</g>
</g>
<!-- Node14&#45;&gt;Node14 -->
<g id="edge19_Node000014_Node000014" class="edge">
<title>Node14&#45;&gt;Node14</title>
<g id="a_edge19_Node000014_Node000014"><a xlink:title=" ">
<path fill="none" stroke="#63b8ff" d="M475.23,-84.98C472.98,-89.21 465.87,-92.25 453.88,-92.25 433.13,-92.25 426.97,-83.15 435.4,-74.54"/>
<polygon fill="#63b8ff" stroke="#63b8ff" points="478.38,-84.25 472.35,-75.54 471.63,-86.11 478.38,-84.25"/>
</a>
</g>
</g>
<!-- Node15 -->
<g id="Node000015" class="node">
<title>Node15</title>
<g id="a_Node000015"><a xlink:href="../../d0/d17/_abbreviations_8cc.html#a2823fe79e773b96fe2f77605c85323ca" target="_top" xlink:title=" ">
<polygon fill="white" stroke="#666666" points="350.27,-74.25 321.48,-74.25 321.48,-55 350.27,-55 350.27,-74.25"/>
<text text-anchor="middle" x="335.88" y="-60.75" font-family="Helvetica,sans-Serif" font-size="10.00">zx</text>
</a>
</g>
</g>
<!-- Node14&#45;&gt;Node15 -->
<g id="edge20_Node000014_Node000015" class="edge">
<title>Node14&#45;&gt;Node15</title>
<g id="a_edge20_Node000014_Node000015"><a xlink:title=" ">
<path fill="none" stroke="#63b8ff" d="M382.39,-64.62C370.28,-64.62 358.93,-64.62 350.59,-64.62"/>
<polygon fill="#63b8ff" stroke="#63b8ff" points="382.18,-68.13 392.18,-64.62 382.18,-61.13 382.18,-68.13"/>
</a>
</g>
</g>
<!-- Node16&#45;&gt;Node16 -->
<g id="edge22_Node000016_Node000016" class="edge">
<title>Node16&#45;&gt;Node16</title>
<g id="a_edge22_Node000016_Node000016"><a xlink:title=" ">
<path fill="none" stroke="#63b8ff" d="M475.23,-29.98C472.98,-34.21 465.87,-37.25 453.88,-37.25 433.13,-37.25 426.97,-28.15 435.4,-19.54"/>
<polygon fill="#63b8ff" stroke="#63b8ff" points="478.38,-29.25 472.35,-20.54 471.63,-31.11 478.38,-29.25"/>
</a>
</g>
</g>
<!-- Node17 -->
<g id="Node000017" class="node">
<title>Node17</title>
<g id="a_Node000017"><a xlink:href="../../d0/d17/_abbreviations_8cc.html#addeede0b6b898db76793d554ec8e3418" target="_top" xlink:title=" ">
<polygon fill="white" stroke="#666666" points="350.27,-19.25 321.48,-19.25 321.48,0 350.27,0 350.27,-19.25"/>
<text text-anchor="middle" x="335.88" y="-5.75" font-family="Helvetica,sans-Serif" font-size="10.00">zy</text>
</a>
</g>
</g>
<!-- Node16&#45;&gt;Node17 -->
<g id="edge23_Node000016_Node000017" class="edge">
<title>Node16&#45;&gt;Node17</title>
<g id="a_edge23_Node000016_Node000017"><a xlink:title=" ">
<path fill="none" stroke="#63b8ff" d="M382.39,-9.62C370.28,-9.62 358.93,-9.62 350.59,-9.62"/>
<polygon fill="#63b8ff" stroke="#63b8ff" points="382.18,-13.13 392.18,-9.62 382.18,-6.13 382.18,-13.13"/>
</a>
</g>
</g>
</g>
</svg>
