<?xml version="1.0" encoding="UTF-8" standalone="no"?>
<!DOCTYPE svg PUBLIC "-//W3C//DTD SVG 1.1//EN"
 "http://www.w3.org/Graphics/SVG/1.1/DTD/svg11.dtd">
<!-- Generated by graphviz version 8.1.0 (20230707.0739)
 -->
<!-- Title: GamR::ORNL::his2root Pages: 1 -->
<svg width="538pt" height="45pt"
 viewBox="0.00 0.00 537.80 45.25" xmlns="http://www.w3.org/2000/svg" xmlns:xlink="http://www.w3.org/1999/xlink">
<g id="graph0" class="graph" transform="scale(1 1) rotate(0) translate(4 41.25)">
<title>GamR::ORNL::his2root</title>
<!-- Node1 -->
<g id="Node000001" class="node">
<title>Node1</title>
<g id="a_Node000001"><a xlink:title=" ">
<polygon fill="#999999" stroke="#666666" points="115,-19.25 0,-19.25 0,0 115,0 115,-19.25"/>
<text text-anchor="middle" x="57.5" y="-5.75" font-family="Helvetica,sans-Serif" font-size="10.00">GamR::ORNL::his2root</text>
</a>
</g>
</g>
<!-- Node2 -->
<g id="Node000002" class="node">
<title>Node2</title>
<g id="a_Node000002"><a xlink:href="../../d0/d17/_abbreviations_8cc.html#a5d1794b612bdcca3f4f4baa3d2e38a0b" target="_top" xlink:title=" ">
<polygon fill="white" stroke="#666666" points="179.8,-19.25 151,-19.25 151,0 179.8,0 179.8,-19.25"/>
<text text-anchor="middle" x="165.4" y="-5.75" font-family="Helvetica,sans-Serif" font-size="10.00">ss</text>
</a>
</g>
</g>
<!-- Node1&#45;&gt;Node2 -->
<g id="edge1_Node000001_Node000002" class="edge">
<title>Node1&#45;&gt;Node2</title>
<g id="a_edge1_Node000001_Node000002"><a xlink:title=" ">
<path fill="none" stroke="#63b8ff" d="M115.48,-9.62C123.99,-9.62 132.36,-9.62 139.7,-9.62"/>
<polygon fill="#63b8ff" stroke="#63b8ff" points="139.6,-13.13 149.6,-9.62 139.6,-6.13 139.6,-13.13"/>
</a>
</g>
</g>
<!-- Node3 -->
<g id="Node000003" class="node">
<title>Node3</title>
<g id="a_Node000003"><a xlink:href="../../dc/d89/namespace_gam_r_1_1_spect.html#ab983da62eb972889ea13491189e13913" target="_top" xlink:title=" ">
<polygon fill="white" stroke="#666666" points="353.3,-19.25 215.8,-19.25 215.8,0 353.3,0 353.3,-19.25"/>
<text text-anchor="middle" x="284.55" y="-5.75" font-family="Helvetica,sans-Serif" font-size="10.00">GamR::Spect::StackSpectra</text>
</a>
</g>
</g>
<!-- Node2&#45;&gt;Node3 -->
<g id="edge2_Node000002_Node000003" class="edge">
<title>Node2&#45;&gt;Node3</title>
<g id="a_edge2_Node000002_Node000003"><a xlink:title=" ">
<path fill="none" stroke="#63b8ff" d="M180.3,-9.62C186.9,-9.62 195.38,-9.62 204.62,-9.62"/>
<polygon fill="#63b8ff" stroke="#63b8ff" points="204.33,-13.13 214.33,-9.62 204.33,-6.13 204.33,-13.13"/>
</a>
</g>
</g>
<!-- Node3&#45;&gt;Node3 -->
<g id="edge4_Node000003_Node000003" class="edge">
<title>Node3&#45;&gt;Node3</title>
<g id="a_edge4_Node000003_Node000003"><a xlink:title=" ">
<path fill="none" stroke="#63b8ff" d="M265.9,-19.54C257.39,-28.15 263.61,-37.25 284.55,-37.25 296.66,-37.25 303.84,-34.21 306.11,-29.98"/>
<polygon fill="#63b8ff" stroke="#63b8ff" points="309.26,-29.23 303.2,-20.54 302.51,-31.11 309.26,-29.23"/>
</a>
</g>
</g>
<!-- Node4 -->
<g id="Node000004" class="node">
<title>Node4</title>
<g id="a_Node000004"><a xlink:href="../../dc/d89/namespace_gam_r_1_1_spect.html#a56e80bce5bf691212c8b7dfb76c2d2b4" target="_top" xlink:title=" ">
<polygon fill="white" stroke="#666666" points="529.8,-19.25 389.3,-19.25 389.3,0 529.8,0 529.8,-19.25"/>
<text text-anchor="middle" x="459.55" y="-5.75" font-family="Helvetica,sans-Serif" font-size="10.00">GamR::Spect::List1DSpectra</text>
</a>
</g>
</g>
<!-- Node3&#45;&gt;Node4 -->
<g id="edge3_Node000003_Node000004" class="edge">
<title>Node3&#45;&gt;Node4</title>
<g id="a_edge3_Node000003_Node000004"><a xlink:title=" ">
<path fill="none" stroke="#63b8ff" d="M353.43,-9.62C361.52,-9.62 369.85,-9.62 378.1,-9.62"/>
<polygon fill="#63b8ff" stroke="#63b8ff" points="377.88,-13.13 387.88,-9.62 377.88,-6.13 377.88,-13.13"/>
</a>
</g>
</g>
</g>
</svg>
