<?xml version="1.0" encoding="UTF-8" standalone="no"?>
<!DOCTYPE svg PUBLIC "-//W3C//DTD SVG 1.1//EN"
 "http://www.w3.org/Graphics/SVG/1.1/DTD/svg11.dtd">
<!-- Generated by graphviz version 5.0.0 (20220708.1001)
 -->
<!-- Title: GamR::Tree::TEvent&lt; ADets &gt; Pages: 1 -->
<svg width="112pt" height="270pt"
 viewBox="0.00 0.00 112.00 270.00" xmlns="http://www.w3.org/2000/svg" xmlns:xlink="http://www.w3.org/1999/xlink">
<g id="graph0" class="graph" transform="scale(1 1) rotate(0) translate(4 266)">
<title>GamR::Tree::TEvent&lt; ADets &gt;</title>
<polygon fill="white" stroke="transparent" points="-4,4 -4,-266 108,-266 108,4 -4,4"/>
<!-- Node1 -->
<g id="node1" class="node">
<title>Node1</title>
<g id="a_node1"><a xlink:title=" ">
<polygon fill="#bfbfbf" stroke="black" points="0,-0.5 0,-167.5 104,-167.5 104,-0.5 0,-0.5"/>
<text text-anchor="start" x="8" y="-155.5" font-family="Helvetica,sans-Serif" font-size="10.00">GamR::Tree::TEvent</text>
<text text-anchor="middle" x="52" y="-144.5" font-family="Helvetica,sans-Serif" font-size="10.00">&lt; ADets &gt;</text>
<polyline fill="none" stroke="black" points="0,-137.5 104,-137.5 "/>
<text text-anchor="start" x="8" y="-125.5" font-family="Helvetica,sans-Serif" font-size="10.00">+ DetGroup</text>
<text text-anchor="start" x="8" y="-114.5" font-family="Helvetica,sans-Serif" font-size="10.00">+ EventNum</text>
<polyline fill="none" stroke="black" points="0,-107.5 104,-107.5 "/>
<text text-anchor="start" x="8" y="-95.5" font-family="Helvetica,sans-Serif" font-size="10.00">+ TEvent()</text>
<text text-anchor="start" x="8" y="-84.5" font-family="Helvetica,sans-Serif" font-size="10.00">+ ~TEvent()</text>
<text text-anchor="start" x="8" y="-73.5" font-family="Helvetica,sans-Serif" font-size="10.00">+ SetEventNum()</text>
<text text-anchor="start" x="8" y="-62.5" font-family="Helvetica,sans-Serif" font-size="10.00">+ GetNumGroups()</text>
<text text-anchor="start" x="8" y="-51.5" font-family="Helvetica,sans-Serif" font-size="10.00">+ GetGroup()</text>
<text text-anchor="start" x="8" y="-40.5" font-family="Helvetica,sans-Serif" font-size="10.00">+ GetGroups()</text>
<text text-anchor="start" x="8" y="-29.5" font-family="Helvetica,sans-Serif" font-size="10.00">+ FillEvent()</text>
<text text-anchor="start" x="8" y="-18.5" font-family="Helvetica,sans-Serif" font-size="10.00">+ Reset()</text>
<text text-anchor="start" x="8" y="-7.5" font-family="Helvetica,sans-Serif" font-size="10.00">+ ClassDef()</text>
</a>
</g>
</g>
<!-- Node2 -->
<g id="node2" class="node">
<title>Node2</title>
<g id="a_node2"><a xlink:title=" ">
<polygon fill="white" stroke="black" points="26.5,-204.5 26.5,-261.5 77.5,-261.5 77.5,-204.5 26.5,-204.5"/>
<text text-anchor="middle" x="52" y="-249.5" font-family="Helvetica,sans-Serif" font-size="10.00">TObject</text>
<polyline fill="none" stroke="black" points="26.5,-242.5 77.5,-242.5 "/>
<text text-anchor="middle" x="52" y="-230.5" font-family="Helvetica,sans-Serif" font-size="10.00"> </text>
<polyline fill="none" stroke="black" points="26.5,-223.5 77.5,-223.5 "/>
<text text-anchor="middle" x="52" y="-211.5" font-family="Helvetica,sans-Serif" font-size="10.00"> </text>
</a>
</g>
</g>
<!-- Node2&#45;&gt;Node1 -->
<g id="edge1" class="edge">
<title>Node2&#45;&gt;Node1</title>
<path fill="none" stroke="midnightblue" d="M52,-194.35C52,-186.08 52,-177.01 52,-167.74"/>
<polygon fill="none" stroke="midnightblue" points="48.5,-194.35 52,-204.35 55.5,-194.35 48.5,-194.35"/>
</g>
</g>
</svg>
