<?xml version="1.0" encoding="UTF-8" standalone="no"?>
<!DOCTYPE svg PUBLIC "-//W3C//DTD SVG 1.1//EN"
 "http://www.w3.org/Graphics/SVG/1.1/DTD/svg11.dtd">
<!-- Generated by graphviz version 6.0.2 (20221011.1828)
 -->
<!-- Title: main Pages: 1 -->
<svg width="427pt" height="27pt"
 viewBox="0.00 0.00 427.00 27.00" xmlns="http://www.w3.org/2000/svg" xmlns:xlink="http://www.w3.org/1999/xlink">
<g id="graph0" class="graph" transform="scale(1 1) rotate(0) translate(4 23)">
<title>main</title>
<!-- Node1 -->
<g id="node1" class="node">
<title>Node1</title>
<g id="a_node1"><a xlink:title=" ">
<polygon fill="#999999" stroke="#666666" points="38,-19 0,-19 0,0 38,0 38,-19"/>
<text text-anchor="middle" x="19" y="-7" font-family="Helvetica,sans-Serif" font-size="10.00">main</text>
</a>
</g>
</g>
<!-- Node2 -->
<g id="node2" class="node">
<title>Node2</title>
<g id="a_node2"><a xlink:href="../../d0/d17/_abbreviations_8cc.html#a3e7a5c76c7867b28613e7189fe27c9ca" target="_top" xlink:title=" ">
<polygon fill="white" stroke="#666666" points="103,-19 74,-19 74,0 103,0 103,-19"/>
<text text-anchor="middle" x="88.5" y="-7" font-family="Helvetica,sans-Serif" font-size="10.00">fp</text>
</a>
</g>
</g>
<!-- Node1&#45;&gt;Node2 -->
<g id="edge1" class="edge">
<title>Node1&#45;&gt;Node2</title>
<path fill="none" stroke="#63b8ff" d="M38.09,-9.5C46,-9.5 55.38,-9.5 63.83,-9.5"/>
<polygon fill="#63b8ff" stroke="#63b8ff" points="63.86,-13 73.86,-9.5 63.86,-6 63.86,-13"/>
</g>
<!-- Node3 -->
<g id="node3" class="node">
<title>Node3</title>
<g id="a_node3"><a xlink:href="../../dc/d89/namespace_gam_r_1_1_spect.html#a5d1177ee62cbb3de0add142be11a0f2a" target="_top" xlink:title=" ">
<polygon fill="white" stroke="#666666" points="264,-19 139,-19 139,0 264,0 264,-19"/>
<text text-anchor="middle" x="201.5" y="-7" font-family="Helvetica,sans-Serif" font-size="10.00">GamR::Spect::FindPeaks</text>
</a>
</g>
</g>
<!-- Node2&#45;&gt;Node3 -->
<g id="edge2" class="edge">
<title>Node2&#45;&gt;Node3</title>
<path fill="none" stroke="#63b8ff" d="M103.11,-9.5C109.99,-9.5 118.91,-9.5 128.56,-9.5"/>
<polygon fill="#63b8ff" stroke="#63b8ff" points="128.83,-13 138.83,-9.5 128.83,-6 128.83,-13"/>
</g>
<!-- Node4 -->
<g id="node4" class="node">
<title>Node4</title>
<g id="a_node4"><a xlink:href="../../d0/db7/namespace_gam_r_1_1_utils.html#a31f74a9ca644d560dc14e19c4dbd773b" target="_top" xlink:title=" ">
<polygon fill="white" stroke="#666666" points="419,-19 300,-19 300,0 419,0 419,-19"/>
<text text-anchor="middle" x="359.5" y="-7" font-family="Helvetica,sans-Serif" font-size="10.00">GamR::Utils::GetHist1D</text>
</a>
</g>
</g>
<!-- Node3&#45;&gt;Node4 -->
<g id="edge3" class="edge">
<title>Node3&#45;&gt;Node4</title>
<path fill="none" stroke="#63b8ff" d="M264.16,-9.5C272.51,-9.5 281.13,-9.5 289.6,-9.5"/>
<polygon fill="#63b8ff" stroke="#63b8ff" points="289.84,-13 299.84,-9.5 289.84,-6 289.84,-13"/>
</g>
</g>
</svg>
