<?xml version="1.0" encoding="UTF-8" standalone="no"?>
<!DOCTYPE svg PUBLIC "-//W3C//DTD SVG 1.1//EN"
 "http://www.w3.org/Graphics/SVG/1.1/DTD/svg11.dtd">
<!-- Generated by graphviz version 2.49.3 (20211023.0002)
 -->
<!-- Title: /Users/99j/git/gamma&#45;root/src/lib/efficiency/Efficiency.hh Pages: 1 -->
<!--zoomable 218 -->
<svg id="main" version="1.1" xmlns="http://www.w3.org/2000/svg" xmlns:xlink="http://www.w3.org/1999/xlink" xml:space="preserve" onload="init(evt)">
<style type="text/css"><![CDATA[
.edge:hover path { stroke: red; }
.edge:hover polygon { stroke: red; fill: red; }
]]></style>
<script type="text/javascript"><![CDATA[
var edges = document.getElementsByTagName('g');
if (edges && edges.length) {
  for (var i=0;i<edges.length;i++) {
    if (edges[i].id.substr(0,4)=='edge') {
      edges[i].setAttribute('class','edge');
    }
  }
}
]]></script>
        <defs>
                <circle id="rim" cx="0" cy="0" r="7"/>
                <circle id="rim2" cx="0" cy="0" r="3.5"/>
                <g id="zoomPlus">
                        <use xlink:href="#rim" fill="#404040">
                                <set attributeName="fill" to="#808080" begin="zoomplus.mouseover" end="zoomplus.mouseout"/>
                        </use>
                        <path d="M-4,0h8M0,-4v8" fill="none" stroke="white" stroke-width="1.5" pointer-events="none"/>
                </g>
                <g id="zoomMin">
                        <use xlink:href="#rim" fill="#404040">
                                <set attributeName="fill" to="#808080" begin="zoomminus.mouseover" end="zoomminus.mouseout"/>
                        </use>
                        <path d="M-4,0h8" fill="none" stroke="white" stroke-width="1.5" pointer-events="none"/>
                </g>
                <g id="dirArrow">
                        <path fill="none" stroke="white" stroke-width="1.5" d="M0,-3.0v7 M-2.5,-0.5L0,-3.0L2.5,-0.5"/>
                </g>
               <g id="resetDef">
                       <use xlink:href="#rim2" fill="#404040">
                               <set attributeName="fill" to="#808080" begin="reset.mouseover" end="reset.mouseout"/>
                       </use>
               </g>
        </defs>

<script type="text/javascript">
var viewWidth = 874;
var viewHeight = 218;
var sectionId = 'dynsection-0';
</script>
<script xlink:href="../../svgpan.js"/>
<svg id="graph" class="graph">
<g id="viewport">
<title>/Users/99j/git/gamma&#45;root/src/lib/efficiency/Efficiency.hh</title>
<polygon fill="white" stroke="transparent" points="-4,4 -4,-214 869.83,-214 869.83,4 -4,4"/>
<!-- Node1 -->
<g id="node1" class="node">
<title>Node1</title>
<g id="a_node1"><a xlink:title=" ">
<polygon fill="#bfbfbf" stroke="black" points="543.5,-168.5 543.5,-209.5 654.5,-209.5 654.5,-168.5 543.5,-168.5"/>
<text text-anchor="start" x="551.5" y="-197.5" font-family="Helvetica,sans-Serif" font-size="10.00">/Users/99j/git/gamma</text>
<text text-anchor="start" x="551.5" y="-186.5" font-family="Helvetica,sans-Serif" font-size="10.00">&#45;root/src/lib/efficiency</text>
<text text-anchor="middle" x="599" y="-175.5" font-family="Helvetica,sans-Serif" font-size="10.00">/Efficiency.hh</text>
</a>
</g>
</g>
<!-- Node2 -->
<g id="node2" class="node">
<title>Node2</title>
<g id="a_node2"><a xlink:title=" ">
<polygon fill="white" stroke="#bfbfbf" points="189,-112.5 189,-131.5 233,-131.5 233,-112.5 189,-112.5"/>
<text text-anchor="middle" x="211" y="-119.5" font-family="Helvetica,sans-Serif" font-size="10.00">vector</text>
</a>
</g>
</g>
<!-- Node1&#45;&gt;Node2 -->
<g id="edge1" class="edge">
<title>Node1&#45;&gt;Node2</title>
<path fill="none" stroke="midnightblue" d="M543.25,-180.66C473.62,-171.15 350.98,-153.23 247,-132 245.72,-131.74 244.42,-131.46 243.11,-131.18"/>
<polygon fill="midnightblue" stroke="midnightblue" points="243.55,-127.69 233.02,-128.83 241.96,-134.5 243.55,-127.69"/>
</g>
<!-- Node3 -->
<g id="node3" class="node">
<title>Node3</title>
<g id="a_node3"><a xlink:title=" ">
<polygon fill="white" stroke="#bfbfbf" points="728,-0.5 728,-19.5 764,-19.5 764,-0.5 728,-0.5"/>
<text text-anchor="middle" x="746" y="-7.5" font-family="Helvetica,sans-Serif" font-size="10.00">map</text>
</a>
</g>
</g>
<!-- Node1&#45;&gt;Node3 -->
<g id="edge2" class="edge">
<title>Node1&#45;&gt;Node3</title>
<path fill="none" stroke="midnightblue" d="M654.63,-183.92C722.73,-177.63 832.08,-162.91 857,-132 890.44,-90.53 815.91,-45.13 773.23,-23.63"/>
<polygon fill="midnightblue" stroke="midnightblue" points="774.67,-20.44 764.15,-19.18 771.58,-26.73 774.67,-20.44"/>
</g>
<!-- Node4 -->
<g id="node4" class="node">
<title>Node4</title>
<g id="a_node4"><a xlink:title=" ">
<polygon fill="white" stroke="#bfbfbf" points="668.5,-0.5 668.5,-19.5 709.5,-19.5 709.5,-0.5 668.5,-0.5"/>
<text text-anchor="middle" x="689" y="-7.5" font-family="Helvetica,sans-Serif" font-size="10.00">string</text>
</a>
</g>
</g>
<!-- Node1&#45;&gt;Node4 -->
<g id="edge3" class="edge">
<title>Node1&#45;&gt;Node4</title>
<path fill="none" stroke="midnightblue" d="M593.16,-168.23C589.55,-152.45 586.84,-130.07 594,-112 608.79,-74.69 644.6,-43.15 667.79,-25.68"/>
<polygon fill="midnightblue" stroke="midnightblue" points="669.97,-28.41 675.98,-19.69 665.84,-22.76 669.97,-28.41"/>
</g>
<!-- Node5 -->
<g id="node5" class="node">
<title>Node5</title>
<g id="a_node5"><a xlink:title=" ">
<polygon fill="white" stroke="#bfbfbf" points="0,-0.5 0,-19.5 44,-19.5 44,-0.5 0,-0.5"/>
<text text-anchor="middle" x="22" y="-7.5" font-family="Helvetica,sans-Serif" font-size="10.00">TH1.h</text>
</a>
</g>
</g>
<!-- Node1&#45;&gt;Node5 -->
<g id="edge4" class="edge">
<title>Node1&#45;&gt;Node5</title>
<path fill="none" stroke="midnightblue" d="M543.42,-171.64C505.97,-160.56 455.47,-145.54 411,-132 278.38,-91.62 120.79,-42.14 54.22,-21.17"/>
<polygon fill="midnightblue" stroke="midnightblue" points="54.93,-17.72 44.34,-18.05 52.82,-24.4 54.93,-17.72"/>
</g>
<!-- Node6 -->
<g id="node6" class="node">
<title>Node6</title>
<g id="a_node6"><a xlink:title=" ">
<polygon fill="white" stroke="#bfbfbf" points="602.5,-112.5 602.5,-131.5 645.5,-131.5 645.5,-112.5 602.5,-112.5"/>
<text text-anchor="middle" x="624" y="-119.5" font-family="Helvetica,sans-Serif" font-size="10.00">TF1.h</text>
</a>
</g>
</g>
<!-- Node1&#45;&gt;Node6 -->
<g id="edge5" class="edge">
<title>Node1&#45;&gt;Node6</title>
<path fill="none" stroke="midnightblue" d="M606.5,-168.5C609.85,-159.78 613.78,-149.56 617.07,-141.02"/>
<polygon fill="midnightblue" stroke="midnightblue" points="620.35,-142.24 620.67,-131.65 613.82,-139.73 620.35,-142.24"/>
</g>
<!-- Node7 -->
<g id="node7" class="node">
<title>Node7</title>
<g id="a_node7"><a xlink:title=" ">
<polygon fill="white" stroke="#bfbfbf" points="664,-112.5 664,-131.5 750,-131.5 750,-112.5 664,-112.5"/>
<text text-anchor="middle" x="707" y="-119.5" font-family="Helvetica,sans-Serif" font-size="10.00">TGraphErrors.h</text>
</a>
</g>
</g>
<!-- Node1&#45;&gt;Node7 -->
<g id="edge6" class="edge">
<title>Node1&#45;&gt;Node7</title>
<path fill="none" stroke="midnightblue" d="M631.4,-168.5C648.28,-158.34 668.53,-146.16 683.82,-136.95"/>
<polygon fill="midnightblue" stroke="midnightblue" points="685.86,-139.81 692.62,-131.65 682.25,-133.81 685.86,-139.81"/>
</g>
<!-- Node8 -->
<g id="node8" class="node">
<title>Node8</title>
<g id="a_node8"><a xlink:title=" ">
<polygon fill="white" stroke="#bfbfbf" points="768,-112.5 768,-131.5 848,-131.5 848,-112.5 768,-112.5"/>
<text text-anchor="middle" x="808" y="-119.5" font-family="Helvetica,sans-Serif" font-size="10.00">TMultiGraph.h</text>
</a>
</g>
</g>
<!-- Node1&#45;&gt;Node8 -->
<g id="edge7" class="edge">
<title>Node1&#45;&gt;Node8</title>
<path fill="none" stroke="midnightblue" d="M654.73,-170.67C691.4,-159.26 738.38,-144.65 770.61,-134.63"/>
<polygon fill="midnightblue" stroke="midnightblue" points="772.01,-137.86 780.52,-131.55 769.93,-131.17 772.01,-137.86"/>
</g>
<!-- Node9 -->
<g id="node9" class="node">
<title>Node9</title>
<g id="a_node9"><a xlink:href="../../d3/d2c/_transition_8hh.html" target="_top" xlink:title=" ">
<polygon fill="white" stroke="black" points="419.5,-112.5 419.5,-131.5 530.5,-131.5 530.5,-112.5 419.5,-112.5"/>
<text text-anchor="middle" x="475" y="-119.5" font-family="Helvetica,sans-Serif" font-size="10.00">nucleus/Transition.hh</text>
</a>
</g>
</g>
<!-- Node1&#45;&gt;Node9 -->
<g id="edge8" class="edge">
<title>Node1&#45;&gt;Node9</title>
<path fill="none" stroke="midnightblue" d="M561.8,-168.5C542.05,-158.15 518.29,-145.69 500.63,-136.43"/>
<polygon fill="midnightblue" stroke="midnightblue" points="501.99,-133.2 491.51,-131.65 498.74,-139.4 501.99,-133.2"/>
</g>
<!-- Node9&#45;&gt;Node3 -->
<g id="edge9" class="edge">
<title>Node9&#45;&gt;Node3</title>
<path fill="none" stroke="midnightblue" d="M496.26,-112.37C544.9,-92.63 664.2,-44.2 718.4,-22.2"/>
<polygon fill="midnightblue" stroke="midnightblue" points="719.78,-25.42 727.73,-18.42 717.15,-18.93 719.78,-25.42"/>
</g>
<!-- Node9&#45;&gt;Node4 -->
<g id="edge11" class="edge">
<title>Node9&#45;&gt;Node4</title>
<path fill="none" stroke="midnightblue" d="M480.81,-112.46C490.72,-98.56 512.22,-71.08 537,-56 583.09,-27.94 603.29,-35.49 658.81,-20.21"/>
<polygon fill="midnightblue" stroke="midnightblue" points="659.78,-23.57 668.42,-17.43 657.84,-16.84 659.78,-23.57"/>
</g>
<!-- Node10 -->
<g id="node10" class="node">
<title>Node10</title>
<g id="a_node10"><a xlink:title=" ">
<polygon fill="white" stroke="#bfbfbf" points="595.5,-0.5 595.5,-19.5 650.5,-19.5 650.5,-0.5 595.5,-0.5"/>
<text text-anchor="middle" x="623" y="-7.5" font-family="Helvetica,sans-Serif" font-size="10.00">iostream</text>
</a>
</g>
</g>
<!-- Node9&#45;&gt;Node10 -->
<g id="edge10" class="edge">
<title>Node9&#45;&gt;Node10</title>
<path fill="none" stroke="midnightblue" d="M475.9,-112.17C477.77,-98.36 483.31,-71.61 499,-56 511.49,-43.58 553.75,-29.83 585.49,-20.84"/>
<polygon fill="midnightblue" stroke="midnightblue" points="586.68,-24.15 595.38,-18.1 584.8,-17.4 586.68,-24.15"/>
</g>
<!-- Node11 -->
<g id="node11" class="node">
<title>Node11</title>
<g id="a_node11"><a xlink:title=" ">
<polygon fill="white" stroke="#bfbfbf" points="62,-0.5 62,-19.5 118,-19.5 118,-0.5 62,-0.5"/>
<text text-anchor="middle" x="90" y="-7.5" font-family="Helvetica,sans-Serif" font-size="10.00">Rtypes.h</text>
</a>
</g>
</g>
<!-- Node9&#45;&gt;Node11 -->
<g id="edge12" class="edge">
<title>Node9&#45;&gt;Node11</title>
<path fill="none" stroke="midnightblue" d="M435.28,-112.47C402,-104.74 353.56,-92.09 313,-76 295.26,-68.96 292.85,-62.75 275,-56 274.78,-55.92 182.07,-33.38 127.99,-20.23"/>
<polygon fill="midnightblue" stroke="midnightblue" points="128.6,-16.78 118.06,-17.82 126.95,-23.58 128.6,-16.78"/>
</g>
<!-- Node12 -->
<g id="node12" class="node">
<title>Node12</title>
<g id="a_node12"><a xlink:title=" ">
<polygon fill="white" stroke="#bfbfbf" points="136.5,-0.5 136.5,-19.5 199.5,-19.5 199.5,-0.5 136.5,-0.5"/>
<text text-anchor="middle" x="168" y="-7.5" font-family="Helvetica,sans-Serif" font-size="10.00">TNamed.h</text>
</a>
</g>
</g>
<!-- Node9&#45;&gt;Node12 -->
<g id="edge13" class="edge">
<title>Node9&#45;&gt;Node12</title>
<path fill="none" stroke="midnightblue" d="M451.32,-112.46C427.37,-103.71 389.37,-89.51 357,-76 337.18,-67.72 333.08,-63.64 313,-56 278.63,-42.91 238.64,-30.72 209.38,-22.34"/>
<polygon fill="midnightblue" stroke="midnightblue" points="210.08,-18.9 199.5,-19.54 208.16,-25.63 210.08,-18.9"/>
</g>
<!-- Node13 -->
<g id="node13" class="node">
<title>Node13</title>
<g id="a_node13"><a xlink:href="../../dd/d50/_gate_8hh.html" target="_top" xlink:title=" ">
<polygon fill="white" stroke="black" points="365.5,-56.5 365.5,-75.5 446.5,-75.5 446.5,-56.5 365.5,-56.5"/>
<text text-anchor="middle" x="406" y="-63.5" font-family="Helvetica,sans-Serif" font-size="10.00">toolkit/Gate.hh</text>
</a>
</g>
</g>
<!-- Node9&#45;&gt;Node13 -->
<g id="edge14" class="edge">
<title>Node9&#45;&gt;Node13</title>
<path fill="none" stroke="midnightblue" d="M463.91,-112.32C453.51,-104.18 437.74,-91.84 425.28,-82.09"/>
<polygon fill="midnightblue" stroke="midnightblue" points="427.32,-79.24 417.29,-75.83 423.01,-84.75 427.32,-79.24"/>
</g>
<!-- Node13&#45;&gt;Node3 -->
<g id="edge16" class="edge">
<title>Node13&#45;&gt;Node3</title>
<path fill="none" stroke="midnightblue" d="M446.95,-61.47C505.28,-55.93 615.66,-43.55 717.96,-19.88"/>
<polygon fill="midnightblue" stroke="midnightblue" points="718.9,-23.25 727.83,-17.55 717.29,-16.44 718.9,-23.25"/>
</g>
<!-- Node13&#45;&gt;Node4 -->
<g id="edge18" class="edge">
<title>Node13&#45;&gt;Node4</title>
<path fill="none" stroke="midnightblue" d="M446.8,-59.39C495.28,-52.36 578.74,-39.15 658.76,-20.07"/>
<polygon fill="midnightblue" stroke="midnightblue" points="659.6,-23.47 668.49,-17.71 657.95,-16.66 659.6,-23.47"/>
</g>
<!-- Node13&#45;&gt;Node5 -->
<g id="edge23" class="edge">
<title>Node13&#45;&gt;Node5</title>
<path fill="none" stroke="midnightblue" d="M365.43,-61.9C301.23,-56.54 172.21,-43.94 54.17,-19.96"/>
<polygon fill="midnightblue" stroke="midnightblue" points="54.75,-16.5 44.25,-17.91 53.33,-23.36 54.75,-16.5"/>
</g>
<!-- Node13&#45;&gt;Node10 -->
<g id="edge19" class="edge">
<title>Node13&#45;&gt;Node10</title>
<path fill="none" stroke="midnightblue" d="M440.38,-56.44C479.94,-46.6 544.66,-30.5 585.48,-20.34"/>
<polygon fill="midnightblue" stroke="midnightblue" points="586.46,-23.7 595.32,-17.89 584.77,-16.91 586.46,-23.7"/>
</g>
<!-- Node13&#45;&gt;Node11 -->
<g id="edge20" class="edge">
<title>Node13&#45;&gt;Node11</title>
<path fill="none" stroke="midnightblue" d="M365.16,-59.44C312.55,-52.05 218.1,-38.03 128.05,-20.09"/>
<polygon fill="midnightblue" stroke="midnightblue" points="128.72,-16.65 118.23,-18.11 127.34,-23.51 128.72,-16.65"/>
</g>
<!-- Node13&#45;&gt;Node12 -->
<g id="edge25" class="edge">
<title>Node13&#45;&gt;Node12</title>
<path fill="none" stroke="midnightblue" d="M368.29,-56.44C325.12,-46.65 254.61,-30.65 209.8,-20.48"/>
<polygon fill="midnightblue" stroke="midnightblue" points="210.35,-17.02 199.82,-18.22 208.8,-23.85 210.35,-17.02"/>
</g>
<!-- Node14 -->
<g id="node14" class="node">
<title>Node14</title>
<g id="a_node14"><a xlink:title=" ">
<polygon fill="white" stroke="#bfbfbf" points="519,-0.5 519,-19.5 577,-19.5 577,-0.5 519,-0.5"/>
<text text-anchor="middle" x="548" y="-7.5" font-family="Helvetica,sans-Serif" font-size="10.00">algorithm</text>
</a>
</g>
</g>
<!-- Node13&#45;&gt;Node14 -->
<g id="edge15" class="edge">
<title>Node13&#45;&gt;Node14</title>
<path fill="none" stroke="midnightblue" d="M428.5,-56.44C452.08,-47.48 489.32,-33.31 515.96,-23.18"/>
<polygon fill="midnightblue" stroke="midnightblue" points="517.5,-26.34 525.6,-19.52 515.01,-19.8 517.5,-26.34"/>
</g>
<!-- Node15 -->
<g id="node15" class="node">
<title>Node15</title>
<g id="a_node15"><a xlink:title=" ">
<polygon fill="white" stroke="#bfbfbf" points="218,-0.5 218,-19.5 270,-19.5 270,-0.5 218,-0.5"/>
<text text-anchor="middle" x="244" y="-7.5" font-family="Helvetica,sans-Serif" font-size="10.00">sstream</text>
</a>
</g>
</g>
<!-- Node13&#45;&gt;Node15 -->
<g id="edge17" class="edge">
<title>Node13&#45;&gt;Node15</title>
<path fill="none" stroke="midnightblue" d="M380.33,-56.44C353.08,-47.36 309.82,-32.94 279.35,-22.78"/>
<polygon fill="midnightblue" stroke="midnightblue" points="280.14,-19.36 269.55,-19.52 277.93,-26 280.14,-19.36"/>
</g>
<!-- Node16 -->
<g id="node16" class="node">
<title>Node16</title>
<g id="a_node16"><a xlink:title=" ">
<polygon fill="white" stroke="#bfbfbf" points="288.5,-0.5 288.5,-19.5 355.5,-19.5 355.5,-0.5 288.5,-0.5"/>
<text text-anchor="middle" x="322" y="-7.5" font-family="Helvetica,sans-Serif" font-size="10.00">TBrowser.h</text>
</a>
</g>
</g>
<!-- Node13&#45;&gt;Node16 -->
<g id="edge21" class="edge">
<title>Node13&#45;&gt;Node16</title>
<path fill="none" stroke="midnightblue" d="M392.5,-56.32C379.4,-47.9 359.29,-34.97 343.89,-25.07"/>
<polygon fill="midnightblue" stroke="midnightblue" points="345.77,-22.12 335.46,-19.65 341.98,-28.01 345.77,-22.12"/>
</g>
<!-- Node17 -->
<g id="node17" class="node">
<title>Node17</title>
<g id="a_node17"><a xlink:title=" ">
<polygon fill="white" stroke="#bfbfbf" points="373.5,-0.5 373.5,-19.5 438.5,-19.5 438.5,-0.5 373.5,-0.5"/>
<text text-anchor="middle" x="406" y="-7.5" font-family="Helvetica,sans-Serif" font-size="10.00">TCanvas.h</text>
</a>
</g>
</g>
<!-- Node13&#45;&gt;Node17 -->
<g id="edge22" class="edge">
<title>Node13&#45;&gt;Node17</title>
<path fill="none" stroke="midnightblue" d="M406,-56.08C406,-49.01 406,-38.86 406,-29.99"/>
<polygon fill="midnightblue" stroke="midnightblue" points="409.5,-29.75 406,-19.75 402.5,-29.75 409.5,-29.75"/>
</g>
<!-- Node18 -->
<g id="node18" class="node">
<title>Node18</title>
<g id="a_node18"><a xlink:title=" ">
<polygon fill="white" stroke="#bfbfbf" points="457,-0.5 457,-19.5 501,-19.5 501,-0.5 457,-0.5"/>
<text text-anchor="middle" x="479" y="-7.5" font-family="Helvetica,sans-Serif" font-size="10.00">TH2.h</text>
</a>
</g>
</g>
<!-- Node13&#45;&gt;Node18 -->
<g id="edge24" class="edge">
<title>Node13&#45;&gt;Node18</title>
<path fill="none" stroke="midnightblue" d="M417.73,-56.32C428.84,-48.11 445.74,-35.6 458.98,-25.81"/>
<polygon fill="midnightblue" stroke="midnightblue" points="461.1,-28.59 467.06,-19.83 456.94,-22.97 461.1,-28.59"/>
</g>
</g>
</svg>
        <g id="navigator" transform="translate(0 0)" fill="#404254">
                <rect fill="#f2f5e9" fill-opacity="0.5" stroke="#606060" stroke-width=".5" x="0" y="0" width="60" height="60"/>
                <use id="zoomplus" xlink:href="#zoomPlus" x="17" y="9" onmousedown="handleZoom(evt,'in')"/>
                <use id="zoomminus" xlink:href="#zoomMin" x="42" y="9" onmousedown="handleZoom(evt,'out')"/>
                <use id="reset" xlink:href="#resetDef" x="30" y="36" onmousedown="handleReset()"/>
                <g id="arrowUp" xlink:href="#dirArrow" transform="translate(30 24)" onmousedown="handlePan(0,-1)">
                  <use xlink:href="#rim" fill="#404040">
                        <set attributeName="fill" to="#808080" begin="arrowUp.mouseover" end="arrowUp.mouseout"/>
                  </use>
                  <path fill="none" stroke="white" stroke-width="1.5" d="M0,-3.0v7 M-2.5,-0.5L0,-3.0L2.5,-0.5"/>
                </g>
                <g id="arrowRight" xlink:href="#dirArrow" transform="rotate(90) translate(36 -43)" onmousedown="handlePan(1,0)">
                  <use xlink:href="#rim" fill="#404040">
                        <set attributeName="fill" to="#808080" begin="arrowRight.mouseover" end="arrowRight.mouseout"/>
                  </use>
                  <path fill="none" stroke="white" stroke-width="1.5" d="M0,-3.0v7 M-2.5,-0.5L0,-3.0L2.5,-0.5"/>
                </g>
                <g id="arrowDown" xlink:href="#dirArrow" transform="rotate(180) translate(-30 -48)" onmousedown="handlePan(0,1)">
                  <use xlink:href="#rim" fill="#404040">
                        <set attributeName="fill" to="#808080" begin="arrowDown.mouseover" end="arrowDown.mouseout"/>
                  </use>
                  <path fill="none" stroke="white" stroke-width="1.5" d="M0,-3.0v7 M-2.5,-0.5L0,-3.0L2.5,-0.5"/>
                </g>
                <g id="arrowLeft" xlink:href="#dirArrow" transform="rotate(270) translate(-36 17)" onmousedown="handlePan(-1,0)">
                  <use xlink:href="#rim" fill="#404040">
                        <set attributeName="fill" to="#808080" begin="arrowLeft.mouseover" end="arrowLeft.mouseout"/>
                  </use>
                  <path fill="none" stroke="white" stroke-width="1.5" d="M0,-3.0v7 M-2.5,-0.5L0,-3.0L2.5,-0.5"/>
                </g>
        </g>
        <svg viewBox="0 0 15 15" width="100%" height="30px" preserveAspectRatio="xMaxYMin meet">
         <g id="arrow_out" transform="scale(0.3 0.3)">
          <a xlink:href="_efficiency_8hh__incl_org.svg" target="_base">
           <rect id="button" ry="5" rx="5" y="6" x="6" height="38" width="38"
                fill="#f2f5e9" fill-opacity="0.5" stroke="#606060" stroke-width="1.0"/>
           <path id="arrow"
             d="M 11.500037,31.436501 C 11.940474,20.09759 22.043105,11.32322 32.158766,21.979434 L 37.068811,17.246167 C 37.068811,17.246167 37.088388,32 37.088388,32 L 22.160133,31.978069 C 22.160133,31.978069 26.997745,27.140456 26.997745,27.140456 C 18.528582,18.264221 13.291696,25.230495 11.500037,31.436501 z"
             style="fill:#404040;"/>
          </a>
         </g>
        </svg>
</svg>
