<?xml version="1.0" encoding="UTF-8" standalone="no"?>
<!DOCTYPE svg PUBLIC "-//W3C//DTD SVG 1.1//EN"
 "http://www.w3.org/Graphics/SVG/1.1/DTD/svg11.dtd">
<!-- Generated by graphviz version 12.2.1 (20241206.2353)
 -->
<!-- Title: src/lib/sort/CoincidenceMatrix.hh Pages: 1 -->
<!--zoomable 149 -->

<svg id="main" version="1.1" xmlns="http://www.w3.org/2000/svg" xmlns:xlink="http://www.w3.org/1999/xlink" xml:space="preserve" onload="init(evt)">

<style type="text/css"><![CDATA[
.node, .edge {opacity: 0.7;}
.node.selected, .edge.selected {opacity: 1;}
.edge:hover path { stroke: red; }
.edge:hover polygon { stroke: red; fill: red; }
]]></style>

<defs>
  <circle id="rim" cx="0" cy="0" r="7"/>
  <circle id="rim2" cx="0" cy="0" r="3.5"/>
  <g id="zoomPlus">
    <use xlink:href="#rim" fill="#404040"><set attributeName="fill" to="#808080" begin="zoomplus.mouseover" end="zoomplus.mouseout"/></use>
    <path d="M-4,0h8M0,-4v8" fill="none" stroke="white" stroke-width="1.5" pointer-events="none"/>
  </g>
  <g id="zoomMin">
    <use xlink:href="#rim" fill="#404040"><set attributeName="fill" to="#808080" begin="zoomminus.mouseover" end="zoomminus.mouseout"/></use>
    <path d="M-4,0h8" fill="none" stroke="white" stroke-width="1.5" pointer-events="none"/>
  </g>
  <g id="arrowUp" transform="translate(30 24)">
    <use xlink:href="#rim"/>
    <path pointer-events="none" fill="none" stroke="white" stroke-width="1.5" d="M0,-3.0v7 M-2.5,-0.5L0,-3.0L2.5,-0.5"/>
  </g>
  <g id="arrowRight" transform="rotate(90) translate(36 -43)">
    <use xlink:href="#rim"/>
    <path pointer-events="none" fill="none" stroke="white" stroke-width="1.5" d="M0,-3.0v7 M-2.5,-0.5L0,-3.0L2.5,-0.5"/>
  </g>
  <g id="arrowDown" transform="rotate(180) translate(-30 -48)">
    <use xlink:href="#rim"/>
    <path pointer-events="none" fill="none" stroke="white" stroke-width="1.5" d="M0,-3.0v7 M-2.5,-0.5L0,-3.0L2.5,-0.5"/>
  </g>
  <g id="arrowLeft" transform="rotate(270) translate(-36 17)">
    <use xlink:href="#rim"/>
    <path pointer-events="none" fill="none" stroke="white" stroke-width="1.5" d="M0,-3.0v7 M-2.5,-0.5L0,-3.0L2.5,-0.5"/>
  </g>
  <g id="resetDef">
    <use xlink:href="#rim2" fill="#404040"><set attributeName="fill" to="#808080" begin="reset.mouseover" end="reset.mouseout"/></use>
  </g>
</defs>
<script type="application/ecmascript">
var viewWidth = 1206;
var viewHeight = 149;
var sectionId = 'dynsection-0';
</script>
<script type="application/ecmascript" xlink:href="../../svg.min.js"/>
<svg id="graph" class="graph">
<g id="viewport">
<title>src/lib/sort/CoincidenceMatrix.hh</title>
<!-- Node1 -->
<g id="Node000001" class="node">
<title>Node1</title>
<g id="a_Node000001"><a xlink:title=" ">
<polygon fill="#999999" stroke="#666666" points="490,-141 372,-141 372,-110.5 490,-110.5 490,-141"/>
<text text-anchor="start" x="380" y="-127.5" font-family="Helvetica,sans-Serif" font-size="10.00">src/lib/sort/Coincidence</text>
<text text-anchor="middle" x="431" y="-116.25" font-family="Helvetica,sans-Serif" font-size="10.00">Matrix.hh</text>
</a>
</g>
</g>
<!-- Node2 -->
<g id="Node000002" class="node">
<title>Node2</title>
<g id="a_Node000002"><a xlink:href="../../db/dea/_sorter_8hh.html" target="_top" xlink:title=" ">
<polygon fill="white" stroke="#666666" points="458.5,-74.5 403.5,-74.5 403.5,-55.25 458.5,-55.25 458.5,-74.5"/>
<text text-anchor="middle" x="431" y="-61" font-family="Helvetica,sans-Serif" font-size="10.00">Sorter.hh</text>
</a>
</g>
</g>
<!-- Node1&#45;&gt;Node2 -->
<g id="edge1_Node000001_Node000002" class="edge">
<title>Node1&#45;&gt;Node2</title>
<g id="a_edge1_Node000001_Node000002"><a xlink:title=" ">
<path fill="none" stroke="#63b8ff" d="M431,-110.2C431,-102.96 431,-94.09 431,-86.19"/>
<polygon fill="#63b8ff" stroke="#63b8ff" points="434.5,-86.46 431,-76.46 427.5,-86.46 434.5,-86.46"/>
</a>
</g>
</g>
<!-- Node8 -->
<g id="Node000008" class="node">
<title>Node8</title>
<g id="a_Node000008"><a xlink:title=" ">
<polygon fill="#e0e0e0" stroke="#999999" points="40,-19.25 0,-19.25 0,0 40,0 40,-19.25"/>
<text text-anchor="middle" x="20" y="-5.75" font-family="Helvetica,sans-Serif" font-size="10.00">string</text>
</a>
</g>
</g>
<!-- Node1&#45;&gt;Node8 -->
<g id="edge18_Node000001_Node000008" class="edge">
<title>Node1&#45;&gt;Node8</title>
<g id="a_edge18_Node000001_Node000008"><a xlink:title=" ">
<path fill="none" stroke="#63b8ff" d="M371.58,-111.86C329.13,-102.34 270.79,-88.64 220,-74.5 159.59,-57.69 90.06,-34.63 50.95,-21.31"/>
<polygon fill="#63b8ff" stroke="#63b8ff" points="52.32,-18.08 41.72,-18.15 50.05,-24.7 52.32,-18.08"/>
</a>
</g>
</g>
<!-- Node10 -->
<g id="Node000010" class="node">
<title>Node10</title>
<g id="a_Node000010"><a xlink:title=" ">
<polygon fill="#e0e0e0" stroke="#999999" points="101.5,-19.25 58.5,-19.25 58.5,0 101.5,0 101.5,-19.25"/>
<text text-anchor="middle" x="80" y="-5.75" font-family="Helvetica,sans-Serif" font-size="10.00">vector</text>
</a>
</g>
</g>
<!-- Node1&#45;&gt;Node10 -->
<g id="edge19_Node000001_Node000010" class="edge">
<title>Node1&#45;&gt;Node10</title>
<g id="a_edge19_Node000001_Node000010"><a xlink:title=" ">
<path fill="none" stroke="#63b8ff" d="M385.83,-110.06C314.02,-86.71 175.5,-41.68 112.55,-21.21"/>
<polygon fill="#63b8ff" stroke="#63b8ff" points="113.74,-17.92 103.15,-18.15 111.58,-24.57 113.74,-17.92"/>
</a>
</g>
</g>
<!-- Node19 -->
<g id="Node000019" class="node">
<title>Node19</title>
<g id="a_Node000019"><a xlink:title=" ">
<polygon fill="#e0e0e0" stroke="#999999" points="555.88,-74.5 476.12,-74.5 476.12,-55.25 555.88,-55.25 555.88,-74.5"/>
<text text-anchor="middle" x="516" y="-61" font-family="Helvetica,sans-Serif" font-size="10.00">TTreeReader.h</text>
</a>
</g>
</g>
<!-- Node1&#45;&gt;Node19 -->
<g id="edge20_Node000001_Node000019" class="edge">
<title>Node1&#45;&gt;Node19</title>
<g id="a_edge20_Node000001_Node000019"><a xlink:title=" ">
<path fill="none" stroke="#63b8ff" d="M452.01,-110.2C464.7,-101.4 480.87,-90.21 493.77,-81.27"/>
<polygon fill="#63b8ff" stroke="#63b8ff" points="495.42,-84.38 501.65,-75.81 491.44,-78.63 495.42,-84.38"/>
</a>
</g>
</g>
<!-- Node20 -->
<g id="Node000020" class="node">
<title>Node20</title>
<g id="a_Node000020"><a xlink:title=" ">
<polygon fill="#e0e0e0" stroke="#999999" points="678.25,-74.5 573.75,-74.5 573.75,-55.25 678.25,-55.25 678.25,-74.5"/>
<text text-anchor="middle" x="626" y="-61" font-family="Helvetica,sans-Serif" font-size="10.00">TTreeReaderValue.h</text>
</a>
</g>
</g>
<!-- Node1&#45;&gt;Node20 -->
<g id="edge21_Node000001_Node000020" class="edge">
<title>Node1&#45;&gt;Node20</title>
<g id="a_edge21_Node000001_Node000020"><a xlink:title=" ">
<path fill="none" stroke="#63b8ff" d="M479.7,-110.05C512.16,-100.25 554.32,-87.52 585.05,-78.24"/>
<polygon fill="#63b8ff" stroke="#63b8ff" points="585.8,-81.67 594.36,-75.43 583.77,-74.97 585.8,-81.67"/>
</a>
</g>
</g>
<!-- Node3 -->
<g id="Node000003" class="node">
<title>Node3</title>
<g id="a_Node000003"><a xlink:title=" ">
<polygon fill="#e0e0e0" stroke="#999999" points="878.62,-19.25 833.38,-19.25 833.38,0 878.62,0 878.62,-19.25"/>
<text text-anchor="middle" x="856" y="-5.75" font-family="Helvetica,sans-Serif" font-size="10.00">atomic</text>
</a>
</g>
</g>
<!-- Node2&#45;&gt;Node3 -->
<g id="edge2_Node000002_Node000003" class="edge">
<title>Node2&#45;&gt;Node3</title>
<g id="a_edge2_Node000002_Node000003"><a xlink:title=" ">
<path fill="none" stroke="#63b8ff" d="M458.83,-56.81C461.58,-56.24 464.34,-55.7 467,-55.25 621.13,-29.16 665.84,-47.9 822.13,-19.51"/>
<polygon fill="#63b8ff" stroke="#63b8ff" points="822.4,-23.02 831.59,-17.75 821.12,-16.13 822.4,-23.02"/>
</a>
</g>
</g>
<!-- Node4 -->
<g id="Node000004" class="node">
<title>Node4</title>
<g id="a_Node000004"><a xlink:title=" ">
<polygon fill="#e0e0e0" stroke="#999999" points="931.38,-19.25 896.62,-19.25 896.62,0 931.38,0 931.38,-19.25"/>
<text text-anchor="middle" x="914" y="-5.75" font-family="Helvetica,sans-Serif" font-size="10.00">map</text>
</a>
</g>
</g>
<!-- Node2&#45;&gt;Node4 -->
<g id="edge3_Node000002_Node000004" class="edge">
<title>Node2&#45;&gt;Node4</title>
<g id="a_edge3_Node000002_Node000004"><a xlink:title=" ">
<path fill="none" stroke="#63b8ff" d="M458.82,-56.77C461.58,-56.2 464.34,-55.68 467,-55.25 648.77,-25.87 701.99,-55.86 885.15,-19.39"/>
<polygon fill="#63b8ff" stroke="#63b8ff" points="885.66,-22.85 894.76,-17.43 884.27,-15.99 885.66,-22.85"/>
</a>
</g>
</g>
<!-- Node5 -->
<g id="Node000005" class="node">
<title>Node5</title>
<g id="a_Node000005"><a xlink:title=" ">
<polygon fill="#e0e0e0" stroke="#999999" points="1000.25,-19.25 949.75,-19.25 949.75,0 1000.25,0 1000.25,-19.25"/>
<text text-anchor="middle" x="975" y="-5.75" font-family="Helvetica,sans-Serif" font-size="10.00">memory</text>
</a>
</g>
</g>
<!-- Node2&#45;&gt;Node5 -->
<g id="edge4_Node000002_Node000005" class="edge">
<title>Node2&#45;&gt;Node5</title>
<g id="a_edge4_Node000002_Node000005"><a xlink:title=" ">
<path fill="none" stroke="#63b8ff" d="M458.82,-56.75C461.57,-56.18 464.33,-55.67 467,-55.25 671.62,-23.16 729.79,-51.55 938.16,-19.22"/>
<polygon fill="#63b8ff" stroke="#63b8ff" points="938.66,-22.69 947.99,-17.67 937.57,-15.77 938.66,-22.69"/>
</a>
</g>
</g>
<!-- Node6 -->
<g id="Node000006" class="node">
<title>Node6</title>
<g id="a_Node000006"><a xlink:title=" ">
<polygon fill="#e0e0e0" stroke="#999999" points="1060.12,-19.25 1017.88,-19.25 1017.88,0 1060.12,0 1060.12,-19.25"/>
<text text-anchor="middle" x="1039" y="-5.75" font-family="Helvetica,sans-Serif" font-size="10.00">mutex</text>
</a>
</g>
</g>
<!-- Node2&#45;&gt;Node6 -->
<g id="edge5_Node000002_Node000006" class="edge">
<title>Node2&#45;&gt;Node6</title>
<g id="a_edge5_Node000002_Node000006"><a xlink:title=" ">
<path fill="none" stroke="#63b8ff" d="M458.82,-56.72C461.57,-56.16 464.33,-55.66 467,-55.25 702.07,-19.55 769.17,-59.59 1006.44,-19.32"/>
<polygon fill="#63b8ff" stroke="#63b8ff" points="1006.75,-22.81 1016.01,-17.66 1005.56,-15.92 1006.75,-22.81"/>
</a>
</g>
</g>
<!-- Node7 -->
<g id="Node000007" class="node">
<title>Node7</title>
<g id="a_Node000007"><a xlink:title=" ">
<polygon fill="#e0e0e0" stroke="#999999" points="1136,-19.25 1078,-19.25 1078,0 1136,0 1136,-19.25"/>
<text text-anchor="middle" x="1107" y="-5.75" font-family="Helvetica,sans-Serif" font-size="10.00">stdexcept</text>
</a>
</g>
</g>
<!-- Node2&#45;&gt;Node7 -->
<g id="edge6_Node000002_Node000007" class="edge">
<title>Node2&#45;&gt;Node7</title>
<g id="a_edge6_Node000002_Node000007"><a xlink:title=" ">
<path fill="none" stroke="#63b8ff" d="M458.81,-56.7C461.57,-56.15 464.33,-55.65 467,-55.25 728.5,-16.41 801.65,-55.93 1066.5,-19.36"/>
<polygon fill="#63b8ff" stroke="#63b8ff" points="1066.72,-22.86 1076.13,-18 1065.74,-15.93 1066.72,-22.86"/>
</a>
</g>
</g>
<!-- Node2&#45;&gt;Node8 -->
<g id="edge7_Node000002_Node000008" class="edge">
<title>Node2&#45;&gt;Node8</title>
<g id="a_edge7_Node000002_Node000008"><a xlink:title=" ">
<path fill="none" stroke="#63b8ff" d="M403.03,-62.17C341.35,-58.08 188.91,-46.14 51.36,-19.15"/>
<polygon fill="#63b8ff" stroke="#63b8ff" points="52.2,-15.75 41.71,-17.22 50.83,-22.61 52.2,-15.75"/>
</a>
</g>
</g>
<!-- Node9 -->
<g id="Node000009" class="node">
<title>Node9</title>
<g id="a_Node000009"><a xlink:title=" ">
<polygon fill="#e0e0e0" stroke="#999999" points="1197.5,-19.25 1154.5,-19.25 1154.5,0 1197.5,0 1197.5,-19.25"/>
<text text-anchor="middle" x="1176" y="-5.75" font-family="Helvetica,sans-Serif" font-size="10.00">thread</text>
</a>
</g>
</g>
<!-- Node2&#45;&gt;Node9 -->
<g id="edge8_Node000002_Node000009" class="edge">
<title>Node2&#45;&gt;Node9</title>
<g id="a_edge8_Node000002_Node000009"><a xlink:title=" ">
<path fill="none" stroke="#63b8ff" d="M458.81,-56.68C461.56,-56.13 464.33,-55.64 467,-55.25 761.98,-12.45 845.18,-66.63 1142.98,-19.16"/>
<polygon fill="#63b8ff" stroke="#63b8ff" points="1143.31,-22.65 1152.62,-17.59 1142.19,-15.74 1143.31,-22.65"/>
</a>
</g>
</g>
<!-- Node2&#45;&gt;Node10 -->
<g id="edge9_Node000002_Node000010" class="edge">
<title>Node2&#45;&gt;Node10</title>
<g id="a_edge9_Node000002_Node000010"><a xlink:title=" ">
<path fill="none" stroke="#63b8ff" d="M403.39,-61.27C349.5,-55.93 226.37,-42.42 113.2,-19.44"/>
<polygon fill="#63b8ff" stroke="#63b8ff" points="113.91,-16.01 103.41,-17.42 112.49,-22.87 113.91,-16.01"/>
</a>
</g>
</g>
<!-- Node11 -->
<g id="Node000011" class="node">
<title>Node11</title>
<g id="a_Node000011"><a xlink:title=" ">
<polygon fill="#e0e0e0" stroke="#999999" points="174.12,-19.25 119.88,-19.25 119.88,0 174.12,0 174.12,-19.25"/>
<text text-anchor="middle" x="147" y="-5.75" font-family="Helvetica,sans-Serif" font-size="10.00">TChain.h</text>
</a>
</g>
</g>
<!-- Node2&#45;&gt;Node11 -->
<g id="edge10_Node000002_Node000011" class="edge">
<title>Node2&#45;&gt;Node11</title>
<g id="a_edge10_Node000002_Node000011"><a xlink:title=" ">
<path fill="none" stroke="#63b8ff" d="M403.01,-59.37C358.89,-52.17 270.28,-37.22 185.59,-19.7"/>
<polygon fill="#63b8ff" stroke="#63b8ff" points="186.47,-16.31 175.96,-17.69 185.04,-23.16 186.47,-16.31"/>
</a>
</g>
</g>
<!-- Node12 -->
<g id="Node000012" class="node">
<title>Node12</title>
<g id="a_Node000012"><a xlink:title=" ">
<polygon fill="#e0e0e0" stroke="#999999" points="237.62,-19.25 192.38,-19.25 192.38,0 237.62,0 237.62,-19.25"/>
<text text-anchor="middle" x="215" y="-5.75" font-family="Helvetica,sans-Serif" font-size="10.00">TFile.h</text>
</a>
</g>
</g>
<!-- Node2&#45;&gt;Node12 -->
<g id="edge11_Node000002_Node000012" class="edge">
<title>Node2&#45;&gt;Node12</title>
<g id="a_edge11_Node000002_Node000012"><a xlink:title=" ">
<path fill="none" stroke="#63b8ff" d="M403.2,-57.36C369.17,-49.34 309.51,-35.12 248.96,-19.7"/>
<polygon fill="#63b8ff" stroke="#63b8ff" points="250.08,-16.37 239.52,-17.29 248.34,-23.16 250.08,-16.37"/>
</a>
</g>
</g>
<!-- Node13 -->
<g id="Node000013" class="node">
<title>Node13</title>
<g id="a_Node000013"><a xlink:title=" ">
<polygon fill="#e0e0e0" stroke="#999999" points="298.12,-19.25 255.88,-19.25 255.88,0 298.12,0 298.12,-19.25"/>
<text text-anchor="middle" x="277" y="-5.75" font-family="Helvetica,sans-Serif" font-size="10.00">TH1.h</text>
</a>
</g>
</g>
<!-- Node2&#45;&gt;Node13 -->
<g id="edge12_Node000002_Node000013" class="edge">
<title>Node2&#45;&gt;Node13</title>
<g id="a_edge12_Node000002_Node000013"><a xlink:title=" ">
<path fill="none" stroke="#63b8ff" d="M404.88,-54.84C378.36,-45.67 337.28,-31.47 308.87,-21.64"/>
<polygon fill="#63b8ff" stroke="#63b8ff" points="310.31,-18.44 299.71,-18.48 308.02,-25.06 310.31,-18.44"/>
</a>
</g>
</g>
<!-- Node14 -->
<g id="Node000014" class="node">
<title>Node14</title>
<g id="a_Node000014"><a xlink:title=" ">
<polygon fill="#e0e0e0" stroke="#999999" points="358.12,-19.25 315.88,-19.25 315.88,0 358.12,0 358.12,-19.25"/>
<text text-anchor="middle" x="337" y="-5.75" font-family="Helvetica,sans-Serif" font-size="10.00">TH2.h</text>
</a>
</g>
</g>
<!-- Node2&#45;&gt;Node14 -->
<g id="edge13_Node000002_Node000014" class="edge">
<title>Node2&#45;&gt;Node14</title>
<g id="a_edge13_Node000002_Node000014"><a xlink:title=" ">
<path fill="none" stroke="#63b8ff" d="M415.05,-54.84C400.74,-46.73 379.47,-34.68 362.75,-25.21"/>
<polygon fill="#63b8ff" stroke="#63b8ff" points="364.77,-22.33 354.34,-20.45 361.32,-28.42 364.77,-22.33"/>
</a>
</g>
</g>
<!-- Node15 -->
<g id="Node000015" class="node">
<title>Node15</title>
<g id="a_Node000015"><a xlink:title=" ">
<polygon fill="#e0e0e0" stroke="#999999" points="418.12,-19.25 375.88,-19.25 375.88,0 418.12,0 418.12,-19.25"/>
<text text-anchor="middle" x="397" y="-5.75" font-family="Helvetica,sans-Serif" font-size="10.00">TH3.h</text>
</a>
</g>
</g>
<!-- Node2&#45;&gt;Node15 -->
<g id="edge14_Node000002_Node000015" class="edge">
<title>Node2&#45;&gt;Node15</title>
<g id="a_edge14_Node000002_Node000015"><a xlink:title=" ">
<path fill="none" stroke="#63b8ff" d="M425.39,-55.08C420.88,-48.03 414.41,-37.9 408.79,-29.08"/>
<polygon fill="#63b8ff" stroke="#63b8ff" points="411.88,-27.43 403.55,-20.88 405.98,-31.2 411.88,-27.43"/>
</a>
</g>
</g>
<!-- Node16 -->
<g id="Node000016" class="node">
<title>Node16</title>
<g id="a_Node000016"><a xlink:title=" ">
<polygon fill="#e0e0e0" stroke="#999999" points="494,-19.25 436,-19.25 436,0 494,0 494,-19.25"/>
<text text-anchor="middle" x="465" y="-5.75" font-family="Helvetica,sans-Serif" font-size="10.00">TObject.h</text>
</a>
</g>
</g>
<!-- Node2&#45;&gt;Node16 -->
<g id="edge15_Node000002_Node000016" class="edge">
<title>Node2&#45;&gt;Node16</title>
<g id="a_edge15_Node000002_Node000016"><a xlink:title=" ">
<path fill="none" stroke="#63b8ff" d="M436.61,-55.08C441.12,-48.03 447.59,-37.9 453.21,-29.08"/>
<polygon fill="#63b8ff" stroke="#63b8ff" points="456.02,-31.2 458.45,-20.88 450.12,-27.43 456.02,-31.2"/>
</a>
</g>
</g>
<!-- Node17 -->
<g id="Node000017" class="node">
<title>Node17</title>
<g id="a_Node000017"><a xlink:title=" ">
<polygon fill="#e0e0e0" stroke="#999999" points="650.12,-19.25 511.88,-19.25 511.88,0 650.12,0 650.12,-19.25"/>
<text text-anchor="middle" x="581" y="-5.75" font-family="Helvetica,sans-Serif" font-size="10.00">ROOT/TThreadedObject.hxx</text>
</a>
</g>
</g>
<!-- Node2&#45;&gt;Node17 -->
<g id="edge16_Node000002_Node000017" class="edge">
<title>Node2&#45;&gt;Node17</title>
<g id="a_edge16_Node000002_Node000017"><a xlink:title=" ">
<path fill="none" stroke="#63b8ff" d="M456.45,-54.84C480.69,-46.24 517.43,-33.19 544.74,-23.5"/>
<polygon fill="#63b8ff" stroke="#63b8ff" points="545.75,-26.85 554,-20.21 543.41,-20.26 545.75,-26.85"/>
</a>
</g>
</g>
<!-- Node18 -->
<g id="Node000018" class="node">
<title>Node18</title>
<g id="a_Node000018"><a xlink:title=" ">
<polygon fill="#e0e0e0" stroke="#999999" points="815.62,-19.25 668.38,-19.25 668.38,0 815.62,0 815.62,-19.25"/>
<text text-anchor="middle" x="742" y="-5.75" font-family="Helvetica,sans-Serif" font-size="10.00">ROOT/TTreeProcessorMT.hxx</text>
</a>
</g>
</g>
<!-- Node2&#45;&gt;Node18 -->
<g id="edge17_Node000002_Node000018" class="edge">
<title>Node2&#45;&gt;Node18</title>
<g id="a_edge17_Node000002_Node000018"><a xlink:title=" ">
<path fill="none" stroke="#63b8ff" d="M458.86,-56.98C461.61,-56.37 464.35,-55.78 467,-55.25 533.99,-41.81 610.79,-29.61 666.17,-21.38"/>
<polygon fill="#63b8ff" stroke="#63b8ff" points="666.42,-24.88 675.8,-19.96 665.4,-17.96 666.42,-24.88"/>
</a>
</g>
</g>
</g>
</svg>

<g id="navigator" transform="translate(0 0)" fill="#404254">
  <rect fill="#f2f5e9" fill-opacity="0.5" stroke="#606060" stroke-width=".5" x="0" y="0" width="60" height="60"/>
  <use id="zoomplus" xlink:href="#zoomPlus" x="17" y="9" onmousedown="handleZoom(evt,'in')"/>
  <use id="zoomminus" xlink:href="#zoomMin" x="42" y="9" onmousedown="handleZoom(evt,'out')"/>
  <use id="reset" xlink:href="#resetDef" x="30" y="36" onmousedown="handleReset()"/>
   <use id="arrowup" xlink:href="#arrowUp" x="0" y="0" onmousedown="handlePan(0,-1)"/>
  <use id="arrowright" xlink:href="#arrowRight" x="0" y="0" onmousedown="handlePan(1,0)"/>
  <use id="arrowdown" xlink:href="#arrowDown" x="0" y="0" onmousedown="handlePan(0,1)"/>
  <use id="arrowleft" xlink:href="#arrowLeft" x="0" y="0" onmousedown="handlePan(-1,0)"/>
</g>
<svg viewBox="0 0 15 15" width="100%" height="30px" preserveAspectRatio="xMaxYMin meet">
 <g id="arrow_out" transform="scale(0.3 0.3)">
  <a xlink:href="_coincidence_matrix_8hh__incl_org.svg" target="_base">
   <rect id="button" ry="5" rx="5" y="6" x="6" height="38" width="38"
        fill="#f2f5e9" fill-opacity="0.5" stroke="#606060" stroke-width="1.0"/>
   <path id="arrow"
     d="M 11.500037,31.436501 C 11.940474,20.09759 22.043105,11.32322 32.158766,21.979434 L 37.068811,17.246167 C 37.068811,17.246167 37.088388,32 37.088388,32 L 22.160133,31.978069 C 22.160133,31.978069 26.997745,27.140456 26.997745,27.140456 C 18.528582,18.264221 13.291696,25.230495 11.500037,31.436501 z"
     style="fill:#404040;"/>
  </a>
 </g>
</svg>

<style type='text/css'>
<![CDATA[
[data-mouse-over-selected='false'] { opacity: 0.7; }
[data-mouse-over-selected='true']  { opacity: 1.0; }
]]>
</style>
<script type="application/ecmascript"><![CDATA[
document.addEventListener('DOMContentLoaded', (event) => {
  highlightEdges();
  highlightAdjacentNodes();
});
]]></script>
</svg>
