<?xml version="1.0" encoding="UTF-8" standalone="no"?>
<!DOCTYPE svg PUBLIC "-//W3C//DTD SVG 1.1//EN"
 "http://www.w3.org/Graphics/SVG/1.1/DTD/svg11.dtd">
<!-- Generated by graphviz version 2.50.0 (20220203.2022)
 -->
<!-- Title: GamR::Processor::TimeWalk::Fit Pages: 1 -->
<svg width="758pt" height="127pt"
 viewBox="0.00 0.00 758.00 127.00" xmlns="http://www.w3.org/2000/svg" xmlns:xlink="http://www.w3.org/1999/xlink">
<g id="graph0" class="graph" transform="scale(1 1) rotate(0) translate(4 123)">
<title>GamR::Processor::TimeWalk::Fit</title>
<polygon fill="white" stroke="transparent" points="-4,4 -4,-123 754,-123 754,4 -4,4"/>
<!-- Node1 -->
<g id="node1" class="node">
<title>Node1</title>
<g id="a_node1"><a xlink:title="Conducts a global &#160;fit to solve for an absolute time calibration for each detector.">
<polygon fill="#bfbfbf" stroke="black" points="0,-50 0,-69 157,-69 157,-50 0,-50"/>
<text text-anchor="middle" x="78.5" y="-57" font-family="Helvetica,sans-Serif" font-size="10.00">GamR::Processor::TimeWalk::Fit</text>
</a>
</g>
</g>
<!-- Node2 -->
<g id="node2" class="node">
<title>Node2</title>
<g id="a_node2"><a xlink:href="../../d3/d48/class_gam_r_1_1_processor_1_1_time_walk.html#a0b862c355e247c0e71d9e40e821c7cfe" target="_top" xlink:title="Draws Time Walk graphs.">
<polygon fill="white" stroke="black" points="193,-88.5 193,-118.5 334,-118.5 334,-88.5 193,-88.5"/>
<text text-anchor="start" x="201" y="-106.5" font-family="Helvetica,sans-Serif" font-size="10.00">GamR::Processor::TimeWalk</text>
<text text-anchor="middle" x="263.5" y="-95.5" font-family="Helvetica,sans-Serif" font-size="10.00">::Draw</text>
</a>
</g>
</g>
<!-- Node1&#45;&gt;Node2 -->
<g id="edge1" class="edge">
<title>Node1&#45;&gt;Node2</title>
<path fill="none" stroke="midnightblue" d="M119.21,-69.05C139.9,-74.02 165.87,-80.27 189.99,-86.07"/>
<polygon fill="midnightblue" stroke="midnightblue" points="189.3,-89.5 199.84,-88.43 190.94,-82.69 189.3,-89.5"/>
</g>
<!-- Node3 -->
<g id="node3" class="node">
<title>Node3</title>
<g id="a_node3"><a xlink:href="../../d0/d17/_abbreviations_8cc.html#a5d1794b612bdcca3f4f4baa3d2e38a0b" target="_top" xlink:title=" ">
<polygon fill="white" stroke="black" points="370,-72 370,-91 399,-91 399,-72 370,-72"/>
<text text-anchor="middle" x="384.5" y="-79" font-family="Helvetica,sans-Serif" font-size="10.00">ss</text>
</a>
</g>
</g>
<!-- Node1&#45;&gt;Node3 -->
<g id="edge7" class="edge">
<title>Node1&#45;&gt;Node3</title>
<path fill="none" stroke="midnightblue" d="M157.39,-65.14C224.39,-69.99 316.82,-76.67 359.78,-79.78"/>
<polygon fill="midnightblue" stroke="midnightblue" points="359.6,-83.28 369.82,-80.51 360.1,-76.3 359.6,-83.28"/>
</g>
<!-- Node6 -->
<g id="node6" class="node">
<title>Node6</title>
<g id="a_node6"><a xlink:href="../../d4/dd5/class_gam_r_1_1_processor_1_1_time_walk_1_1_global_chi_square.html#a2bdd7e091b4519eb4cf93b5ff13e9fe7" target="_top" xlink:title=" ">
<polygon fill="white" stroke="black" points="193,-0.5 193,-30.5 334,-30.5 334,-0.5 193,-0.5"/>
<text text-anchor="start" x="201" y="-18.5" font-family="Helvetica,sans-Serif" font-size="10.00">GamR::Processor::TimeWalk</text>
<text text-anchor="middle" x="263.5" y="-7.5" font-family="Helvetica,sans-Serif" font-size="10.00">::GlobalChiSquare::minuit</text>
</a>
</g>
</g>
<!-- Node1&#45;&gt;Node6 -->
<g id="edge6" class="edge">
<title>Node1&#45;&gt;Node6</title>
<path fill="none" stroke="midnightblue" d="M119.21,-49.95C139.9,-44.98 165.87,-38.73 189.99,-32.93"/>
<polygon fill="midnightblue" stroke="midnightblue" points="190.94,-36.31 199.84,-30.57 189.3,-29.5 190.94,-36.31"/>
</g>
<!-- Node2&#45;&gt;Node3 -->
<g id="edge2" class="edge">
<title>Node2&#45;&gt;Node3</title>
<path fill="none" stroke="midnightblue" d="M334.07,-90.64C343.33,-88.93 352.26,-87.28 359.92,-85.86"/>
<polygon fill="midnightblue" stroke="midnightblue" points="360.61,-89.29 369.81,-84.03 359.34,-82.41 360.61,-89.29"/>
</g>
<!-- Node4 -->
<g id="node4" class="node">
<title>Node4</title>
<g id="a_node4"><a xlink:href="../../dc/d89/namespace_gam_r_1_1_spect.html#ab983da62eb972889ea13491189e13913" target="_top" xlink:title=" ">
<polygon fill="white" stroke="black" points="435,-72 435,-91 573,-91 573,-72 435,-72"/>
<text text-anchor="middle" x="504" y="-79" font-family="Helvetica,sans-Serif" font-size="10.00">GamR::Spect::StackSpectra</text>
</a>
</g>
</g>
<!-- Node3&#45;&gt;Node4 -->
<g id="edge3" class="edge">
<title>Node3&#45;&gt;Node4</title>
<path fill="none" stroke="midnightblue" d="M399.44,-81.5C406.25,-81.5 415.05,-81.5 424.62,-81.5"/>
<polygon fill="midnightblue" stroke="midnightblue" points="424.84,-85 434.84,-81.5 424.84,-78 424.84,-85"/>
</g>
<!-- Node4&#45;&gt;Node4 -->
<g id="edge5" class="edge">
<title>Node4&#45;&gt;Node4</title>
<path fill="none" stroke="midnightblue" d="M485.81,-91.26C476.96,-100.07 483.03,-109.5 504,-109.5 517.44,-109.5 524.75,-105.63 525.95,-100.53"/>
<polygon fill="midnightblue" stroke="midnightblue" points="529.19,-99.21 522.19,-91.26 522.7,-101.84 529.19,-99.21"/>
</g>
<!-- Node5 -->
<g id="node5" class="node">
<title>Node5</title>
<g id="a_node5"><a xlink:href="../../dc/d89/namespace_gam_r_1_1_spect.html#a56e80bce5bf691212c8b7dfb76c2d2b4" target="_top" xlink:title=" ">
<polygon fill="white" stroke="black" points="609,-72 609,-91 750,-91 750,-72 609,-72"/>
<text text-anchor="middle" x="679.5" y="-79" font-family="Helvetica,sans-Serif" font-size="10.00">GamR::Spect::List1DSpectra</text>
</a>
</g>
</g>
<!-- Node4&#45;&gt;Node5 -->
<g id="edge4" class="edge">
<title>Node4&#45;&gt;Node5</title>
<path fill="none" stroke="midnightblue" d="M573.07,-81.5C581.53,-81.5 590.24,-81.5 598.86,-81.5"/>
<polygon fill="midnightblue" stroke="midnightblue" points="598.91,-85 608.91,-81.5 598.91,-78 598.91,-85"/>
</g>
</g>
</svg>
