<?xml version="1.0" encoding="UTF-8" standalone="no"?>
<!DOCTYPE svg PUBLIC "-//W3C//DTD SVG 1.1//EN"
 "http://www.w3.org/Graphics/SVG/1.1/DTD/svg11.dtd">
<!-- Generated by graphviz version 8.1.0 (20230707.0739)
 -->
<!-- Title: src/lib/bateman/Scheme.hh Pages: 1 -->
<svg width="181pt" height="138pt"
 viewBox="0.00 0.00 180.50 137.75" xmlns="http://www.w3.org/2000/svg" xmlns:xlink="http://www.w3.org/1999/xlink">
<g id="graph0" class="graph" transform="scale(1 1) rotate(0) translate(4 133.75)">
<title>src/lib/bateman/Scheme.hh</title>
<!-- Node1 -->
<g id="Node000001" class="node">
<title>Node1</title>
<g id="a_Node000001"><a xlink:title=" ">
<polygon fill="#999999" stroke="#666666" points="152.25,-129.75 17.75,-129.75 17.75,-110.5 152.25,-110.5 152.25,-129.75"/>
<text text-anchor="middle" x="85" y="-116.25" font-family="Helvetica,sans-Serif" font-size="10.00">src/lib/bateman/Scheme.hh</text>
</a>
</g>
</g>
<!-- Node2 -->
<g id="Node000002" class="node">
<title>Node2</title>
<g id="a_Node000002"><a xlink:title=" ">
<polygon fill="#e0e0e0" stroke="#999999" points="40,-19.25 0,-19.25 0,0 40,0 40,-19.25"/>
<text text-anchor="middle" x="20" y="-5.75" font-family="Helvetica,sans-Serif" font-size="10.00">string</text>
</a>
</g>
</g>
<!-- Node1&#45;&gt;Node2 -->
<g id="edge1_Node000001_Node000002" class="edge">
<title>Node1&#45;&gt;Node2</title>
<g id="a_edge1_Node000001_Node000002"><a xlink:title=" ">
<path fill="none" stroke="#63b8ff" d="M74.7,-110.09C65.6,-101.65 52.49,-88.3 44,-74.5 35.36,-60.45 29.02,-42.79 25.03,-29.6"/>
<polygon fill="#63b8ff" stroke="#63b8ff" points="28.23,-29.04 22.14,-20.37 21.49,-30.94 28.23,-29.04"/>
</a>
</g>
</g>
<!-- Node3 -->
<g id="Node000003" class="node">
<title>Node3</title>
<g id="a_Node000003"><a xlink:title=" ">
<polygon fill="#e0e0e0" stroke="#999999" points="172.5,-19.25 129.5,-19.25 129.5,0 172.5,0 172.5,-19.25"/>
<text text-anchor="middle" x="151" y="-5.75" font-family="Helvetica,sans-Serif" font-size="10.00">vector</text>
</a>
</g>
</g>
<!-- Node1&#45;&gt;Node3 -->
<g id="edge2_Node000001_Node000003" class="edge">
<title>Node1&#45;&gt;Node3</title>
<g id="a_edge2_Node000001_Node000003"><a xlink:title=" ">
<path fill="none" stroke="#63b8ff" d="M95.25,-110.06C104.33,-101.6 117.42,-88.24 126,-74.5 134.78,-60.44 141.4,-42.78 145.62,-29.59"/>
<polygon fill="#63b8ff" stroke="#63b8ff" points="149.17,-30.95 148.7,-20.36 142.47,-28.93 149.17,-30.95"/>
</a>
</g>
</g>
<!-- Node4 -->
<g id="Node000004" class="node">
<title>Node4</title>
<g id="a_Node000004"><a xlink:href="../../d8/dfb/_nucleus_8hh.html" target="_top" xlink:title=" ">
<polygon fill="white" stroke="#666666" points="117.38,-74.5 52.62,-74.5 52.62,-55.25 117.38,-55.25 117.38,-74.5"/>
<text text-anchor="middle" x="85" y="-61" font-family="Helvetica,sans-Serif" font-size="10.00">Nucleus.hh</text>
</a>
</g>
</g>
<!-- Node1&#45;&gt;Node4 -->
<g id="edge3_Node000001_Node000004" class="edge">
<title>Node1&#45;&gt;Node4</title>
<g id="a_edge3_Node000001_Node000004"><a xlink:title=" ">
<path fill="none" stroke="#63b8ff" d="M85,-110.33C85,-103.67 85,-94.24 85,-85.78"/>
<polygon fill="#63b8ff" stroke="#63b8ff" points="88.5,-85.86 85,-75.86 81.5,-85.86 88.5,-85.86"/>
</a>
</g>
</g>
<!-- Node4&#45;&gt;Node2 -->
<g id="edge5_Node000004_Node000002" class="edge">
<title>Node4&#45;&gt;Node2</title>
<g id="a_edge5_Node000004_Node000002"><a xlink:title=" ">
<path fill="none" stroke="#63b8ff" d="M73.97,-54.84C64.49,-47.07 50.58,-35.67 39.25,-26.4"/>
<polygon fill="#63b8ff" stroke="#63b8ff" points="41.82,-23.15 31.86,-19.52 37.38,-28.57 41.82,-23.15"/>
</a>
</g>
</g>
<!-- Node4&#45;&gt;Node3 -->
<g id="edge6_Node000004_Node000003" class="edge">
<title>Node4&#45;&gt;Node3</title>
<g id="a_edge6_Node000004_Node000003"><a xlink:title=" ">
<path fill="none" stroke="#63b8ff" d="M96.2,-54.84C105.83,-47.07 119.95,-35.67 131.45,-26.4"/>
<polygon fill="#63b8ff" stroke="#63b8ff" points="133.38,-28.53 138.97,-19.52 128.99,-23.08 133.38,-28.53"/>
</a>
</g>
</g>
<!-- Node5 -->
<g id="Node000005" class="node">
<title>Node5</title>
<g id="a_Node000005"><a xlink:title=" ">
<polygon fill="#e0e0e0" stroke="#999999" points="111.75,-19.25 58.25,-19.25 58.25,0 111.75,0 111.75,-19.25"/>
<text text-anchor="middle" x="85" y="-5.75" font-family="Helvetica,sans-Serif" font-size="10.00">iostream</text>
</a>
</g>
</g>
<!-- Node4&#45;&gt;Node5 -->
<g id="edge4_Node000004_Node000005" class="edge">
<title>Node4&#45;&gt;Node5</title>
<g id="a_edge4_Node000004_Node000005"><a xlink:title=" ">
<path fill="none" stroke="#63b8ff" d="M85,-55.08C85,-48.42 85,-38.99 85,-30.53"/>
<polygon fill="#63b8ff" stroke="#63b8ff" points="88.5,-30.61 85,-20.61 81.5,-30.61 88.5,-30.61"/>
</a>
</g>
</g>
</g>
</svg>
