<?xml version="1.0" encoding="UTF-8" standalone="no"?>
<!DOCTYPE svg PUBLIC "-//W3C//DTD SVG 1.1//EN"
 "http://www.w3.org/Graphics/SVG/1.1/DTD/svg11.dtd">
<!-- Generated by graphviz version 6.0.2 (20221011.1828)
 -->
<!-- Title: src/lib/bateman/Scheme.hh Pages: 1 -->
<svg width="184pt" height="137pt"
 viewBox="0.00 0.00 183.50 137.00" xmlns="http://www.w3.org/2000/svg" xmlns:xlink="http://www.w3.org/1999/xlink">
<g id="graph0" class="graph" transform="scale(1 1) rotate(0) translate(4 133)">
<title>src/lib/bateman/Scheme.hh</title>
<!-- Node1 -->
<g id="node1" class="node">
<title>Node1</title>
<g id="a_node1"><a xlink:title=" ">
<polygon fill="#999999" stroke="#666666" points="154,-129 19,-129 19,-110 154,-110 154,-129"/>
<text text-anchor="middle" x="86.5" y="-117" font-family="Helvetica,sans-Serif" font-size="10.00">src/lib/bateman/Scheme.hh</text>
</a>
</g>
</g>
<!-- Node2 -->
<g id="node2" class="node">
<title>Node2</title>
<g id="a_node2"><a xlink:title=" ">
<polygon fill="#e0e0e0" stroke="#999999" points="41,-19 0,-19 0,0 41,0 41,-19"/>
<text text-anchor="middle" x="20.5" y="-7" font-family="Helvetica,sans-Serif" font-size="10.00">string</text>
</a>
</g>
</g>
<!-- Node1&#45;&gt;Node2 -->
<g id="edge1" class="edge">
<title>Node1&#45;&gt;Node2</title>
<path fill="none" stroke="#63b8ff" d="M76.3,-109.87C66.96,-101.5 53.29,-88.05 44.5,-74 35.71,-59.95 29.34,-42.17 25.38,-29.01"/>
<polygon fill="#63b8ff" stroke="#63b8ff" points="28.7,-27.89 22.62,-19.21 21.96,-29.79 28.7,-27.89"/>
</g>
<!-- Node3 -->
<g id="node3" class="node">
<title>Node3</title>
<g id="a_node3"><a xlink:title=" ">
<polygon fill="#e0e0e0" stroke="#999999" points="175.5,-19 131.5,-19 131.5,0 175.5,0 175.5,-19"/>
<text text-anchor="middle" x="153.5" y="-7" font-family="Helvetica,sans-Serif" font-size="10.00">vector</text>
</a>
</g>
</g>
<!-- Node1&#45;&gt;Node3 -->
<g id="edge2" class="edge">
<title>Node1&#45;&gt;Node3</title>
<path fill="none" stroke="#63b8ff" d="M96.65,-109.84C105.96,-101.45 119.62,-87.99 128.5,-74 137.43,-59.94 144.09,-42.16 148.29,-29"/>
<polygon fill="#63b8ff" stroke="#63b8ff" points="151.7,-29.79 151.22,-19.21 145,-27.78 151.7,-29.79"/>
</g>
<!-- Node4 -->
<g id="node4" class="node">
<title>Node4</title>
<g id="a_node4"><a xlink:href="../../d8/dfb/_nucleus_8hh.html" target="_top" xlink:title=" ">
<polygon fill="white" stroke="#666666" points="119,-74 54,-74 54,-55 119,-55 119,-74"/>
<text text-anchor="middle" x="86.5" y="-62" font-family="Helvetica,sans-Serif" font-size="10.00">Nucleus.hh</text>
</a>
</g>
</g>
<!-- Node1&#45;&gt;Node4 -->
<g id="edge3" class="edge">
<title>Node1&#45;&gt;Node4</title>
<path fill="none" stroke="#63b8ff" d="M86.5,-109.75C86.5,-102.8 86.5,-92.85 86.5,-84.13"/>
<polygon fill="#63b8ff" stroke="#63b8ff" points="90,-84.09 86.5,-74.09 83,-84.09 90,-84.09"/>
</g>
<!-- Node4&#45;&gt;Node2 -->
<g id="edge5" class="edge">
<title>Node4&#45;&gt;Node2</title>
<path fill="none" stroke="#63b8ff" d="M75.9,-54.98C66.04,-47.07 51.15,-35.11 39.28,-25.58"/>
<polygon fill="#63b8ff" stroke="#63b8ff" points="41.29,-22.7 31.3,-19.17 36.9,-28.16 41.29,-22.7"/>
</g>
<!-- Node4&#45;&gt;Node3 -->
<g id="edge6" class="edge">
<title>Node4&#45;&gt;Node3</title>
<path fill="none" stroke="#63b8ff" d="M97.26,-54.98C107.27,-47.07 122.39,-35.11 134.43,-25.58"/>
<polygon fill="#63b8ff" stroke="#63b8ff" points="136.87,-28.12 142.54,-19.17 132.53,-22.63 136.87,-28.12"/>
</g>
<!-- Node5 -->
<g id="node5" class="node">
<title>Node5</title>
<g id="a_node5"><a xlink:title=" ">
<polygon fill="#e0e0e0" stroke="#999999" points="113.5,-19 59.5,-19 59.5,0 113.5,0 113.5,-19"/>
<text text-anchor="middle" x="86.5" y="-7" font-family="Helvetica,sans-Serif" font-size="10.00">iostream</text>
</a>
</g>
</g>
<!-- Node4&#45;&gt;Node5 -->
<g id="edge4" class="edge">
<title>Node4&#45;&gt;Node5</title>
<path fill="none" stroke="#63b8ff" d="M86.5,-54.75C86.5,-47.8 86.5,-37.85 86.5,-29.13"/>
<polygon fill="#63b8ff" stroke="#63b8ff" points="90,-29.09 86.5,-19.09 83,-29.09 90,-29.09"/>
</g>
</g>
</svg>
