<?xml version="1.0" encoding="UTF-8" standalone="no"?>
<!DOCTYPE svg PUBLIC "-//W3C//DTD SVG 1.1//EN"
 "http://www.w3.org/Graphics/SVG/1.1/DTD/svg11.dtd">
<!-- Generated by graphviz version 8.1.0 (20230707.0739)
 -->
<!-- Title: src/lib/toolkit/MonteCarlo.hh Pages: 1 -->
<svg width="364pt" height="83pt"
 viewBox="0.00 0.00 364.38 82.50" xmlns="http://www.w3.org/2000/svg" xmlns:xlink="http://www.w3.org/1999/xlink">
<g id="graph0" class="graph" transform="scale(1 1) rotate(0) translate(4 78.5)">
<title>src/lib/toolkit/MonteCarlo.hh</title>
<!-- Node1 -->
<g id="Node000001" class="node">
<title>Node1</title>
<g id="a_Node000001"><a xlink:title=" ">
<polygon fill="#999999" stroke="#666666" points="244.38,-74.5 107.62,-74.5 107.62,-55.25 244.38,-55.25 244.38,-74.5"/>
<text text-anchor="middle" x="176" y="-61" font-family="Helvetica,sans-Serif" font-size="10.00">src/lib/toolkit/MonteCarlo.hh</text>
</a>
</g>
</g>
<!-- Node2 -->
<g id="Node000002" class="node">
<title>Node2</title>
<g id="a_Node000002"><a xlink:title=" ">
<polygon fill="#e0e0e0" stroke="#999999" points="58,-19.25 0,-19.25 0,0 58,0 58,-19.25"/>
<text text-anchor="middle" x="29" y="-5.75" font-family="Helvetica,sans-Serif" font-size="10.00">functional</text>
</a>
</g>
</g>
<!-- Node1&#45;&gt;Node2 -->
<g id="edge1_Node000001_Node000002" class="edge">
<title>Node1&#45;&gt;Node2</title>
<g id="a_edge1_Node000001_Node000002"><a xlink:title=" ">
<path fill="none" stroke="#63b8ff" d="M151.06,-54.84C127.2,-46.2 90.97,-33.07 64.18,-23.37"/>
<polygon fill="#63b8ff" stroke="#63b8ff" points="65.65,-19.82 55.06,-19.7 63.27,-26.4 65.65,-19.82"/>
</a>
</g>
</g>
<!-- Node3 -->
<g id="Node000003" class="node">
<title>Node3</title>
<g id="a_Node000003"><a xlink:title=" ">
<polygon fill="#e0e0e0" stroke="#999999" points="126.25,-19.25 75.75,-19.25 75.75,0 126.25,0 126.25,-19.25"/>
<text text-anchor="middle" x="101" y="-5.75" font-family="Helvetica,sans-Serif" font-size="10.00">memory</text>
</a>
</g>
</g>
<!-- Node1&#45;&gt;Node3 -->
<g id="edge2_Node000001_Node000003" class="edge">
<title>Node1&#45;&gt;Node3</title>
<g id="a_edge2_Node000001_Node000003"><a xlink:title=" ">
<path fill="none" stroke="#63b8ff" d="M163.28,-54.84C152.18,-46.96 135.84,-35.36 122.68,-26.02"/>
<polygon fill="#63b8ff" stroke="#63b8ff" points="124.97,-22.64 114.79,-19.7 120.91,-28.35 124.97,-22.64"/>
</a>
</g>
</g>
<!-- Node4 -->
<g id="Node000004" class="node">
<title>Node4</title>
<g id="a_Node000004"><a xlink:title=" ">
<polygon fill="#e0e0e0" stroke="#999999" points="207.25,-19.25 144.75,-19.25 144.75,0 207.25,0 207.25,-19.25"/>
<text text-anchor="middle" x="176" y="-5.75" font-family="Helvetica,sans-Serif" font-size="10.00">TCanvas.h</text>
</a>
</g>
</g>
<!-- Node1&#45;&gt;Node4 -->
<g id="edge3_Node000001_Node000004" class="edge">
<title>Node1&#45;&gt;Node4</title>
<g id="a_edge3_Node000001_Node000004"><a xlink:title=" ">
<path fill="none" stroke="#63b8ff" d="M176,-55.08C176,-48.42 176,-38.99 176,-30.53"/>
<polygon fill="#63b8ff" stroke="#63b8ff" points="179.5,-30.61 176,-20.61 172.5,-30.61 179.5,-30.61"/>
</a>
</g>
</g>
<!-- Node5 -->
<g id="Node000005" class="node">
<title>Node5</title>
<g id="a_Node000005"><a xlink:title=" ">
<polygon fill="#e0e0e0" stroke="#999999" points="267.12,-19.25 224.88,-19.25 224.88,0 267.12,0 267.12,-19.25"/>
<text text-anchor="middle" x="246" y="-5.75" font-family="Helvetica,sans-Serif" font-size="10.00">TH2.h</text>
</a>
</g>
</g>
<!-- Node1&#45;&gt;Node5 -->
<g id="edge4_Node000001_Node000005" class="edge">
<title>Node1&#45;&gt;Node5</title>
<g id="a_edge4_Node000001_Node000005"><a xlink:title=" ">
<path fill="none" stroke="#63b8ff" d="M187.87,-54.84C198.19,-46.99 213.37,-35.45 225.63,-26.12"/>
<polygon fill="#63b8ff" stroke="#63b8ff" points="227.46,-28.36 233.3,-19.52 223.22,-22.79 227.46,-28.36"/>
</a>
</g>
</g>
<!-- Node6 -->
<g id="Node000006" class="node">
<title>Node6</title>
<g id="a_Node000006"><a xlink:title=" ">
<polygon fill="#e0e0e0" stroke="#999999" points="356.38,-19.25 285.62,-19.25 285.62,0 356.38,0 356.38,-19.25"/>
<text text-anchor="middle" x="321" y="-5.75" font-family="Helvetica,sans-Serif" font-size="10.00">TRandom3.h</text>
</a>
</g>
</g>
<!-- Node1&#45;&gt;Node6 -->
<g id="edge5_Node000001_Node000006" class="edge">
<title>Node1&#45;&gt;Node6</title>
<g id="a_edge5_Node000001_Node000006"><a xlink:title=" ">
<path fill="none" stroke="#63b8ff" d="M200.6,-54.84C224.14,-46.2 259.87,-33.07 286.3,-23.37"/>
<polygon fill="#63b8ff" stroke="#63b8ff" points="287.1,-26.44 295.28,-19.7 284.69,-19.86 287.1,-26.44"/>
</a>
</g>
</g>
</g>
</svg>
