<?xml version="1.0" encoding="UTF-8" standalone="no"?>
<!DOCTYPE svg PUBLIC "-//W3C//DTD SVG 1.1//EN"
 "http://www.w3.org/Graphics/SVG/1.1/DTD/svg11.dtd">
<!-- Generated by graphviz version 2.49.3 (20211023.0002)
 -->
<!-- Title: /Users/99j/git/gamma&#45;root/src/lib/toolkit/Peak.hh Pages: 1 -->
<svg width="358pt" height="284pt"
 viewBox="0.00 0.00 358.00 284.00" xmlns="http://www.w3.org/2000/svg" xmlns:xlink="http://www.w3.org/1999/xlink">
<g id="graph0" class="graph" transform="scale(1 1) rotate(0) translate(4 280)">
<title>/Users/99j/git/gamma&#45;root/src/lib/toolkit/Peak.hh</title>
<polygon fill="white" stroke="transparent" points="-4,4 -4,-280 354,-280 354,4 -4,4"/>
<!-- Node1 -->
<g id="node1" class="node">
<title>Node1</title>
<g id="a_node1"><a xlink:title=" ">
<polygon fill="#bfbfbf" stroke="black" points="111,-234.5 111,-275.5 222,-275.5 222,-234.5 111,-234.5"/>
<text text-anchor="start" x="119" y="-263.5" font-family="Helvetica,sans-Serif" font-size="10.00">/Users/99j/git/gamma</text>
<text text-anchor="start" x="119" y="-252.5" font-family="Helvetica,sans-Serif" font-size="10.00">&#45;root/src/lib/toolkit</text>
<text text-anchor="middle" x="166.5" y="-241.5" font-family="Helvetica,sans-Serif" font-size="10.00">/Peak.hh</text>
</a>
</g>
</g>
<!-- Node2 -->
<g id="node2" class="node">
<title>Node2</title>
<g id="a_node2"><a xlink:href="../../d0/d68/_abbreviations_8hh.html" target="_top" xlink:title=" ">
<polygon fill="white" stroke="black" points="0,-78.5 0,-119.5 111,-119.5 111,-78.5 0,-78.5"/>
<text text-anchor="start" x="8" y="-107.5" font-family="Helvetica,sans-Serif" font-size="10.00">/Users/99j/git/gamma</text>
<text text-anchor="start" x="8" y="-96.5" font-family="Helvetica,sans-Serif" font-size="10.00">&#45;root/src/lib/abbrevs</text>
<text text-anchor="middle" x="55.5" y="-85.5" font-family="Helvetica,sans-Serif" font-size="10.00">/Abbreviations.hh</text>
</a>
</g>
</g>
<!-- Node1&#45;&gt;Node2 -->
<g id="edge1" class="edge">
<title>Node1&#45;&gt;Node2</title>
<path fill="none" stroke="midnightblue" d="M101.37,-236.26C82.67,-227.82 64.41,-215.59 53.5,-198 38.79,-174.29 43.74,-140.74 49.21,-119.69"/>
<polygon fill="midnightblue" stroke="midnightblue" points="100.27,-239.59 110.85,-240.22 102.97,-233.13 100.27,-239.59"/>
</g>
<!-- Node4 -->
<g id="node4" class="node">
<title>Node4</title>
<g id="a_node4"><a xlink:href="../../d5/dad/_fit_8cc.html" target="_top" xlink:title=" ">
<polygon fill="white" stroke="black" points="140,-84 140,-114 259,-114 259,-84 140,-84"/>
<text text-anchor="start" x="148" y="-102" font-family="Helvetica,sans-Serif" font-size="10.00">/Users/99j/git/gamma</text>
<text text-anchor="middle" x="199.5" y="-91" font-family="Helvetica,sans-Serif" font-size="10.00">&#45;root/src/lib/spect/Fit.cc</text>
</a>
</g>
</g>
<!-- Node1&#45;&gt;Node4 -->
<g id="edge3" class="edge">
<title>Node1&#45;&gt;Node4</title>
<path fill="none" stroke="midnightblue" d="M181.58,-225.21C185.44,-216.67 189.16,-207.14 191.5,-198 198.95,-168.89 199.94,-133.49 199.83,-114.2"/>
<polygon fill="midnightblue" stroke="midnightblue" points="178.36,-223.84 177.23,-234.38 184.68,-226.85 178.36,-223.84"/>
</g>
<!-- Node5 -->
<g id="node5" class="node">
<title>Node5</title>
<g id="a_node5"><a xlink:href="../../db/dec/_fit_8hh.html" target="_top" xlink:title=" ">
<polygon fill="white" stroke="black" points="62.5,-162 62.5,-192 182.5,-192 182.5,-162 62.5,-162"/>
<text text-anchor="start" x="70.5" y="-180" font-family="Helvetica,sans-Serif" font-size="10.00">/Users/99j/git/gamma</text>
<text text-anchor="middle" x="122.5" y="-169" font-family="Helvetica,sans-Serif" font-size="10.00">&#45;root/src/lib/spect/Fit.hh</text>
</a>
</g>
</g>
<!-- Node1&#45;&gt;Node5 -->
<g id="edge4" class="edge">
<title>Node1&#45;&gt;Node5</title>
<path fill="none" stroke="midnightblue" d="M150.08,-225.64C143.49,-214.25 136.17,-201.62 130.74,-192.23"/>
<polygon fill="midnightblue" stroke="midnightblue" points="147.13,-227.53 155.17,-234.43 153.19,-224.02 147.13,-227.53"/>
</g>
<!-- Node6 -->
<g id="node6" class="node">
<title>Node6</title>
<g id="a_node6"><a xlink:href="../../dd/d1a/_peak_8cc.html" target="_top" xlink:title=" ">
<polygon fill="white" stroke="black" points="239,-156.5 239,-197.5 350,-197.5 350,-156.5 239,-156.5"/>
<text text-anchor="start" x="247" y="-185.5" font-family="Helvetica,sans-Serif" font-size="10.00">/Users/99j/git/gamma</text>
<text text-anchor="start" x="247" y="-174.5" font-family="Helvetica,sans-Serif" font-size="10.00">&#45;root/src/lib/toolkit</text>
<text text-anchor="middle" x="294.5" y="-163.5" font-family="Helvetica,sans-Serif" font-size="10.00">/Peak.cc</text>
</a>
</g>
</g>
<!-- Node1&#45;&gt;Node6 -->
<g id="edge7" class="edge">
<title>Node1&#45;&gt;Node6</title>
<path fill="none" stroke="midnightblue" d="M208.26,-229.2C225.59,-218.92 245.39,-207.16 261.65,-197.51"/>
<polygon fill="midnightblue" stroke="midnightblue" points="206.27,-226.31 199.46,-234.43 209.85,-232.33 206.27,-226.31"/>
</g>
<!-- Node3 -->
<g id="node3" class="node">
<title>Node3</title>
<g id="a_node3"><a xlink:href="../../d0/d17/_abbreviations_8cc.html" target="_top" xlink:title=" ">
<polygon fill="white" stroke="black" points="0,-0.5 0,-41.5 111,-41.5 111,-0.5 0,-0.5"/>
<text text-anchor="start" x="8" y="-29.5" font-family="Helvetica,sans-Serif" font-size="10.00">/Users/99j/git/gamma</text>
<text text-anchor="start" x="8" y="-18.5" font-family="Helvetica,sans-Serif" font-size="10.00">&#45;root/src/lib/abbrevs</text>
<text text-anchor="middle" x="55.5" y="-7.5" font-family="Helvetica,sans-Serif" font-size="10.00">/Abbreviations.cc</text>
</a>
</g>
</g>
<!-- Node2&#45;&gt;Node3 -->
<g id="edge2" class="edge">
<title>Node2&#45;&gt;Node3</title>
<path fill="none" stroke="midnightblue" d="M55.5,-68.3C55.5,-59.3 55.5,-49.65 55.5,-41.51"/>
<polygon fill="midnightblue" stroke="midnightblue" points="52,-68.43 55.5,-78.43 59,-68.43 52,-68.43"/>
</g>
<!-- Node5&#45;&gt;Node2 -->
<g id="edge5" class="edge">
<title>Node5&#45;&gt;Node2</title>
<path fill="none" stroke="midnightblue" d="M103.03,-153.91C93.49,-143.09 82.09,-130.16 72.85,-119.68"/>
<polygon fill="midnightblue" stroke="midnightblue" points="100.66,-156.52 109.9,-161.7 105.91,-151.89 100.66,-156.52"/>
</g>
<!-- Node5&#45;&gt;Node4 -->
<g id="edge6" class="edge">
<title>Node5&#45;&gt;Node4</title>
<path fill="none" stroke="midnightblue" d="M144.25,-154.53C157.32,-141.63 173.59,-125.57 185.08,-114.23"/>
<polygon fill="midnightblue" stroke="midnightblue" points="141.64,-152.19 136.98,-161.7 146.56,-157.17 141.64,-152.19"/>
</g>
</g>
</svg>
