<?xml version="1.0" encoding="UTF-8" standalone="no"?>
<!DOCTYPE svg PUBLIC "-//W3C//DTD SVG 1.1//EN"
 "http://www.w3.org/Graphics/SVG/1.1/DTD/svg11.dtd">
<!-- Generated by graphviz version 6.0.2 (20221011.1828)
 -->
<!-- Title: GamR::Tree::TExpDefn&lt; ADefns &gt; Pages: 1 -->
<svg width="393pt" height="478pt"
 viewBox="0.00 0.00 392.50 478.00" xmlns="http://www.w3.org/2000/svg" xmlns:xlink="http://www.w3.org/1999/xlink">
<g id="graph0" class="graph" transform="scale(1 1) rotate(0) translate(4 474)">
<title>GamR::Tree::TExpDefn&lt; ADefns &gt;</title>
<!-- Node1 -->
<g id="node1" class="node">
<title>Node1</title>
<g id="a_node1"><a xlink:title=" ">
<polygon fill="#999999" stroke="#666666" points="238,-206 120,-206 120,0 238,0 238,-206"/>
<text text-anchor="start" x="128" y="-194" font-family="Helvetica,sans-Serif" font-size="10.00">{GamR::Tree::TExpDefn</text>
<text text-anchor="middle" x="179" y="-183" font-family="Helvetica,sans-Serif" font-size="10.00">&lt; ADefns &gt;</text>
<text text-anchor="start" x="128" y="-172" font-family="Helvetica,sans-Serif" font-size="10.00">|+ fOutFile</text>
<text text-anchor="start" x="128" y="-161" font-family="Helvetica,sans-Serif" font-size="10.00">+ fRawChain</text>
<text text-anchor="start" x="128" y="-150" font-family="Helvetica,sans-Serif" font-size="10.00">+ fOutTree</text>
<text text-anchor="start" x="128" y="-139" font-family="Helvetica,sans-Serif" font-size="10.00">+ fDetDefns</text>
<text text-anchor="start" x="128" y="-128" font-family="Helvetica,sans-Serif" font-size="10.00">+ fINIReader</text>
<text text-anchor="start" x="128" y="-117" font-family="Helvetica,sans-Serif" font-size="10.00">|+ TExpDefn()</text>
<text text-anchor="start" x="128" y="-106" font-family="Helvetica,sans-Serif" font-size="10.00">+ ~TExpDefn()</text>
<text text-anchor="start" x="128" y="-95" font-family="Helvetica,sans-Serif" font-size="10.00">+ GetDetDefns()</text>
<text text-anchor="start" x="128" y="-84" font-family="Helvetica,sans-Serif" font-size="10.00">+ GetAllDetDefns()</text>
<text text-anchor="start" x="128" y="-73" font-family="Helvetica,sans-Serif" font-size="10.00">+ CloseFiles()</text>
<text text-anchor="start" x="128" y="-62" font-family="Helvetica,sans-Serif" font-size="10.00">+ Load()</text>
<text text-anchor="start" x="128" y="-51" font-family="Helvetica,sans-Serif" font-size="10.00">+ LoadRaw()</text>
<text text-anchor="start" x="128" y="-40" font-family="Helvetica,sans-Serif" font-size="10.00">+ ResetBranches()</text>
<text text-anchor="start" x="128" y="-29" font-family="Helvetica,sans-Serif" font-size="10.00">+ Convert()</text>
<text text-anchor="start" x="128" y="-18" font-family="Helvetica,sans-Serif" font-size="10.00">+ ClassDef()</text>
<text text-anchor="middle" x="179" y="-7" font-family="Helvetica,sans-Serif" font-size="10.00">}</text>
</a>
</g>
</g>
<!-- Node2 -->
<g id="node2" class="node">
<title>Node2</title>
<g id="a_node2"><a xlink:title=" ">
<polygon fill="white" stroke="#666666" points="54,-294 0,-294 0,-264 54,-264 54,-294"/>
<text text-anchor="middle" x="27" y="-282" font-family="Helvetica,sans-Serif" font-size="10.00">{TObject</text>
<text text-anchor="middle" x="27" y="-271" font-family="Helvetica,sans-Serif" font-size="10.00">||}</text>
</a>
</g>
</g>
<!-- Node2&#45;&gt;Node1 -->
<g id="edge1" class="edge">
<title>Node2&#45;&gt;Node1</title>
<path fill="none" stroke="#63b8ff" d="M46.24,-255.98C64.78,-234.76 93.79,-201.54 119.97,-171.57"/>
<polygon fill="none" stroke="#63b8ff" points="43.38,-253.93 39.44,-263.76 48.65,-258.53 43.38,-253.93"/>
</g>
<!-- Node3 -->
<g id="node3" class="node">
<title>Node3</title>
<g id="a_node3"><a xlink:title=" ">
<polygon fill="white" stroke="#666666" points="182,-305 72,-305 72,-253 182,-253 182,-305"/>
<text text-anchor="start" x="80" y="-293" font-family="Helvetica,sans-Serif" font-size="10.00">{std::map&lt; std::string,</text>
<text text-anchor="middle" x="127" y="-282" font-family="Helvetica,sans-Serif" font-size="10.00"> void * &gt;</text>
<text text-anchor="start" x="80" y="-271" font-family="Helvetica,sans-Serif" font-size="10.00">|+ elements</text>
<text text-anchor="middle" x="127" y="-260" font-family="Helvetica,sans-Serif" font-size="10.00">|}</text>
</a>
</g>
</g>
<!-- Node3&#45;&gt;Node1 -->
<g id="edge2" class="edge">
<title>Node3&#45;&gt;Node1</title>
<path fill="none" stroke="#404040" d="M134.39,-252.99C137.09,-243.87 140.18,-233.46 143,-224 143.63,-221.9 144.26,-219.78 144.89,-217.65"/>
<polygon fill="none" stroke="#404040" points="144.9,-217.62 142.79,-210.72 148.34,-206.12 150.45,-213.01 144.9,-217.62"/>
<text text-anchor="middle" x="173.5" y="-227" font-family="Helvetica,sans-Serif" font-size="10.00"> +fBranchMap</text>
</g>
<!-- Node4 -->
<g id="node4" class="node">
<title>Node4</title>
<g id="a_node4"><a xlink:title=" ">
<polygon fill="white" stroke="#666666" points="249,-382 187,-382 187,-352 249,-352 249,-382"/>
<text text-anchor="middle" x="218" y="-370" font-family="Helvetica,sans-Serif" font-size="10.00">{std::string</text>
<text text-anchor="middle" x="218" y="-359" font-family="Helvetica,sans-Serif" font-size="10.00">||}</text>
</a>
</g>
</g>
<!-- Node4&#45;&gt;Node1 -->
<g id="edge12" class="edge">
<title>Node4&#45;&gt;Node1</title>
<path fill="none" stroke="#404040" d="M217.11,-351.83C215.38,-326.21 211.12,-270.53 204,-224 203.71,-222.1 203.41,-220.19 203.1,-218.26"/>
<polygon fill="none" stroke="#404040" points="203.08,-218.15 198.14,-212.9 201.08,-206.32 206.02,-211.57 203.08,-218.15"/>
<text text-anchor="middle" x="226.5" y="-276.5" font-family="Helvetica,sans-Serif" font-size="10.00"> +fINI</text>
</g>
<!-- Node4&#45;&gt;Node3 -->
<g id="edge3" class="edge">
<title>Node4&#45;&gt;Node3</title>
<path fill="none" stroke="#404040" d="M197.2,-351.84C189.92,-346.55 181.86,-340.29 175,-334 168.39,-327.94 161.73,-321.05 155.56,-314.27"/>
<polygon fill="none" stroke="#404040" points="155.46,-314.16 148.49,-312.33 147.5,-305.18 154.47,-307.02 155.46,-314.16"/>
<text text-anchor="middle" x="189.5" y="-326" font-family="Helvetica,sans-Serif" font-size="10.00"> +keys</text>
</g>
<!-- Node9 -->
<g id="node9" class="node">
<title>Node9</title>
<g id="a_node9"><a xlink:title=" ">
<polygon fill="white" stroke="#666666" points="384.5,-294 261.5,-294 261.5,-264 384.5,-264 384.5,-294"/>
<text text-anchor="middle" x="323" y="-282" font-family="Helvetica,sans-Serif" font-size="10.00">{std::vector&lt; std::string &gt;</text>
<text text-anchor="middle" x="323" y="-271" font-family="Helvetica,sans-Serif" font-size="10.00">||}</text>
</a>
</g>
</g>
<!-- Node4&#45;&gt;Node9 -->
<g id="edge9" class="edge">
<title>Node4&#45;&gt;Node9</title>
<path fill="none" stroke="#404040" d="M233.27,-351.72C242.57,-343.18 254.77,-332.24 266,-323 274.83,-315.73 284.7,-308.12 293.72,-301.35"/>
<polygon fill="none" stroke="#404040" points="293.8,-301.29 296.23,-294.5 303.43,-294.13 301,-300.92 293.8,-301.29"/>
<text text-anchor="middle" x="290.5" y="-326" font-family="Helvetica,sans-Serif" font-size="10.00"> +elements</text>
</g>
<!-- Node5 -->
<g id="node5" class="node">
<title>Node5</title>
<g id="a_node5"><a xlink:title=" ">
<polygon fill="white" stroke="#666666" points="266,-470 170,-470 170,-429 266,-429 266,-470"/>
<text text-anchor="start" x="178" y="-458" font-family="Helvetica,sans-Serif" font-size="10.00">{std::basic_string&lt;</text>
<text text-anchor="middle" x="218" y="-447" font-family="Helvetica,sans-Serif" font-size="10.00"> Char &gt;</text>
<text text-anchor="middle" x="218" y="-436" font-family="Helvetica,sans-Serif" font-size="10.00">||}</text>
</a>
</g>
</g>
<!-- Node5&#45;&gt;Node4 -->
<g id="edge4" class="edge">
<title>Node5&#45;&gt;Node4</title>
<path fill="none" stroke="#63b8ff" d="M218,-418.26C218,-405.96 218,-392.33 218,-382.37"/>
<polygon fill="none" stroke="#63b8ff" points="214.5,-418.6 218,-428.6 221.5,-418.6 214.5,-418.6"/>
</g>
<!-- Node6 -->
<g id="node6" class="node">
<title>Node6</title>
<g id="a_node6"><a xlink:title=" ">
<polygon fill="white" stroke="#666666" points="116.5,-382 25.5,-382 25.5,-352 116.5,-352 116.5,-382"/>
<text text-anchor="middle" x="71" y="-370" font-family="Helvetica,sans-Serif" font-size="10.00">{std::map&lt; K, T &gt;</text>
<text text-anchor="middle" x="71" y="-359" font-family="Helvetica,sans-Serif" font-size="10.00">||}</text>
</a>
</g>
</g>
<!-- Node6&#45;&gt;Node3 -->
<g id="edge5" class="edge">
<title>Node6&#45;&gt;Node3</title>
<path fill="none" stroke="orange" d="M59.51,-342.1C57.96,-335.65 57.84,-328.84 61,-323 64.71,-316.15 70.05,-310.21 76.09,-305.13"/>
<polygon fill="orange" stroke="orange" points="56.27,-343.46 62.84,-351.77 62.89,-341.17 56.27,-343.46"/>
<text text-anchor="middle" x="106.5" y="-326" font-family="Helvetica,sans-Serif" font-size="10.00"> &lt; std::string, void * &gt;</text>
</g>
<!-- Node7 -->
<g id="node7" class="node">
<title>Node7</title>
<g id="a_node7"><a xlink:title=" ">
<polygon fill="white" stroke="#666666" points="85.5,-464.5 56.5,-464.5 56.5,-434.5 85.5,-434.5 85.5,-464.5"/>
<text text-anchor="middle" x="71" y="-452.5" font-family="Helvetica,sans-Serif" font-size="10.00">{K</text>
<text text-anchor="middle" x="71" y="-441.5" font-family="Helvetica,sans-Serif" font-size="10.00">||}</text>
</a>
</g>
</g>
<!-- Node7&#45;&gt;Node6 -->
<g id="edge6" class="edge">
<title>Node7&#45;&gt;Node6</title>
<path fill="none" stroke="#404040" d="M71,-434.48C71,-423.46 71,-407.81 71,-394.46"/>
<polygon fill="none" stroke="#404040" points="71,-394.13 67,-388.13 71,-382.13 75,-388.13 71,-394.13"/>
<text text-anchor="middle" x="85.5" y="-403" font-family="Helvetica,sans-Serif" font-size="10.00"> +keys</text>
</g>
<!-- Node8 -->
<g id="node8" class="node">
<title>Node8</title>
<g id="a_node8"><a xlink:title=" ">
<polygon fill="white" stroke="#666666" points="319.5,-464.5 290.5,-464.5 290.5,-434.5 319.5,-434.5 319.5,-464.5"/>
<text text-anchor="middle" x="305" y="-452.5" font-family="Helvetica,sans-Serif" font-size="10.00">{T</text>
<text text-anchor="middle" x="305" y="-441.5" font-family="Helvetica,sans-Serif" font-size="10.00">||}</text>
</a>
</g>
</g>
<!-- Node8&#45;&gt;Node6 -->
<g id="edge7" class="edge">
<title>Node8&#45;&gt;Node6</title>
<path fill="none" stroke="#404040" d="M290.22,-437.7C285.52,-434.59 280.19,-431.4 275,-429 227.52,-407.03 170.19,-390.7 128.41,-380.5"/>
<polygon fill="none" stroke="#404040" points="128.19,-380.45 121.42,-382.94 116.52,-377.66 123.28,-375.16 128.19,-380.45"/>
<text text-anchor="middle" x="251.5" y="-403" font-family="Helvetica,sans-Serif" font-size="10.00"> +elements</text>
</g>
<!-- Node10 -->
<g id="node10" class="node">
<title>Node10</title>
<g id="a_node10"><a xlink:title=" ">
<polygon fill="white" stroke="#666666" points="360.5,-382 273.5,-382 273.5,-352 360.5,-352 360.5,-382"/>
<text text-anchor="middle" x="317" y="-370" font-family="Helvetica,sans-Serif" font-size="10.00">{std::vector&lt; T &gt;</text>
<text text-anchor="middle" x="317" y="-359" font-family="Helvetica,sans-Serif" font-size="10.00">||}</text>
</a>
</g>
</g>
<!-- Node8&#45;&gt;Node10 -->
<g id="edge11" class="edge">
<title>Node8&#45;&gt;Node10</title>
<path fill="none" stroke="#404040" d="M307.09,-434.48C308.75,-423.35 311.11,-407.48 313.12,-394.04"/>
<polygon fill="none" stroke="#404040" points="313.12,-394 310.05,-387.48 314.89,-382.13 317.97,-388.66 313.12,-394"/>
<text text-anchor="middle" x="336.5" y="-403" font-family="Helvetica,sans-Serif" font-size="10.00"> +elements</text>
</g>
<!-- Node9&#45;&gt;Node1 -->
<g id="edge8" class="edge">
<title>Node9&#45;&gt;Node1</title>
<path fill="none" stroke="#404040" d="M311.22,-263.76C296.73,-246.25 270.98,-215.15 246.04,-185"/>
<polygon fill="none" stroke="#404040" points="245.98,-184.94 239.08,-182.87 238.33,-175.69 245.24,-177.77 245.98,-184.94"/>
<text text-anchor="middle" x="313" y="-227" font-family="Helvetica,sans-Serif" font-size="10.00"> +fDetGroups</text>
</g>
<!-- Node10&#45;&gt;Node9 -->
<g id="edge10" class="edge">
<title>Node10&#45;&gt;Node9</title>
<path fill="none" stroke="orange" d="M318.71,-341.49C319.78,-326.2 321.11,-307.05 322.01,-294.22"/>
<polygon fill="orange" stroke="orange" points="315.2,-341.58 317.99,-351.8 322.18,-342.07 315.2,-341.58"/>
<text text-anchor="middle" x="350.5" y="-326" font-family="Helvetica,sans-Serif" font-size="10.00"> &lt; std::string &gt;</text>
</g>
</g>
</svg>
