<?xml version="1.0" encoding="UTF-8" standalone="no"?>
<!DOCTYPE svg PUBLIC "-//W3C//DTD SVG 1.1//EN"
 "http://www.w3.org/Graphics/SVG/1.1/DTD/svg11.dtd">
<!-- Generated by graphviz version 2.49.3 (20211023.0002)
 -->
<!-- Title: GamR::TK::Gate::GetLow Pages: 1 -->
<!--zoomable 435 -->
<svg id="main" version="1.1" xmlns="http://www.w3.org/2000/svg" xmlns:xlink="http://www.w3.org/1999/xlink" xml:space="preserve" onload="init(evt)">
<style type="text/css"><![CDATA[
.edge:hover path { stroke: red; }
.edge:hover polygon { stroke: red; fill: red; }
]]></style>
<script type="text/javascript"><![CDATA[
var edges = document.getElementsByTagName('g');
if (edges && edges.length) {
  for (var i=0;i<edges.length;i++) {
    if (edges[i].id.substr(0,4)=='edge') {
      edges[i].setAttribute('class','edge');
    }
  }
}
]]></script>
        <defs>
                <circle id="rim" cx="0" cy="0" r="7"/>
                <circle id="rim2" cx="0" cy="0" r="3.5"/>
                <g id="zoomPlus">
                        <use xlink:href="#rim" fill="#404040">
                                <set attributeName="fill" to="#808080" begin="zoomplus.mouseover" end="zoomplus.mouseout"/>
                        </use>
                        <path d="M-4,0h8M0,-4v8" fill="none" stroke="white" stroke-width="1.5" pointer-events="none"/>
                </g>
                <g id="zoomMin">
                        <use xlink:href="#rim" fill="#404040">
                                <set attributeName="fill" to="#808080" begin="zoomminus.mouseover" end="zoomminus.mouseout"/>
                        </use>
                        <path d="M-4,0h8" fill="none" stroke="white" stroke-width="1.5" pointer-events="none"/>
                </g>
                <g id="dirArrow">
                        <path fill="none" stroke="white" stroke-width="1.5" d="M0,-3.0v7 M-2.5,-0.5L0,-3.0L2.5,-0.5"/>
                </g>
               <g id="resetDef">
                       <use xlink:href="#rim2" fill="#404040">
                               <set attributeName="fill" to="#808080" begin="reset.mouseover" end="reset.mouseout"/>
                       </use>
               </g>
        </defs>

<script type="text/javascript">
var viewWidth = 652;
var viewHeight = 435;
var sectionId = 'dynsection-50';
</script>
<script xlink:href="../../svgpan.js"/>
<svg id="graph" class="graph">
<g id="viewport">
<title>GamR::TK::Gate::GetLow</title>
<polygon fill="white" stroke="transparent" points="-4,4 -4,-431 648,-431 648,4 -4,4"/>
<!-- Node1 -->
<g id="node1" class="node">
<title>Node1</title>
<g id="a_node1"><a xlink:title=" ">
<polygon fill="#bfbfbf" stroke="black" points="513,-202 513,-221 644,-221 644,-202 513,-202"/>
<text text-anchor="middle" x="578.5" y="-209" font-family="Helvetica,sans-Serif" font-size="10.00">GamR::TK::Gate::GetLow</text>
</a>
</g>
</g>
<!-- Node2 -->
<g id="node2" class="node">
<title>Node2</title>
<g id="a_node2"><a xlink:href="../../df/d67/class_gam_r_1_1_spect_1_1_back_sub2_d.html#ab41f6103abf9bef99411b19c8145d66a" target="_top" xlink:title=" ">
<polygon fill="white" stroke="black" points="336.5,-396.5 336.5,-426.5 471.5,-426.5 471.5,-396.5 336.5,-396.5"/>
<text text-anchor="start" x="344.5" y="-414.5" font-family="Helvetica,sans-Serif" font-size="10.00">GamR::Spect::BackSub2D</text>
<text text-anchor="middle" x="404" y="-403.5" font-family="Helvetica,sans-Serif" font-size="10.00">::AddBackX</text>
</a>
</g>
</g>
<!-- Node1&#45;&gt;Node2 -->
<g id="edge1" class="edge">
<title>Node1&#45;&gt;Node2</title>
<path fill="none" stroke="midnightblue" d="M571.61,-230.9C559.69,-266.98 529.27,-344.63 477,-387.5 472.82,-390.93 468.14,-393.87 463.21,-396.4"/>
<polygon fill="midnightblue" stroke="midnightblue" points="575.03,-231.71 574.73,-221.12 568.36,-229.59 575.03,-231.71"/>
</g>
<!-- Node3 -->
<g id="node3" class="node">
<title>Node3</title>
<g id="a_node3"><a xlink:href="../../df/d67/class_gam_r_1_1_spect_1_1_back_sub2_d.html#ad19c3edf9ea02ea2769157f735a799c1" target="_top" xlink:title=" ">
<polygon fill="white" stroke="black" points="336.5,-347.5 336.5,-377.5 471.5,-377.5 471.5,-347.5 336.5,-347.5"/>
<text text-anchor="start" x="344.5" y="-365.5" font-family="Helvetica,sans-Serif" font-size="10.00">GamR::Spect::BackSub2D</text>
<text text-anchor="middle" x="404" y="-354.5" font-family="Helvetica,sans-Serif" font-size="10.00">::AddBackY</text>
</a>
</g>
</g>
<!-- Node1&#45;&gt;Node3 -->
<g id="edge2" class="edge">
<title>Node1&#45;&gt;Node3</title>
<path fill="none" stroke="midnightblue" d="M567.27,-230.17C551.39,-257.49 518.29,-308.28 477,-337.5 471.6,-341.32 465.56,-344.6 459.34,-347.41"/>
<polygon fill="midnightblue" stroke="midnightblue" points="570.44,-231.67 572.32,-221.25 564.35,-228.22 570.44,-231.67"/>
</g>
<!-- Node4 -->
<g id="node4" class="node">
<title>Node4</title>
<g id="a_node4"><a xlink:href="../../dc/d89/namespace_gam_r_1_1_spect.html#a02f79fc5532999bf21539d9a7cd9b415" target="_top" xlink:title=" ">
<polygon fill="white" stroke="black" points="340.5,-309 340.5,-328 467.5,-328 467.5,-309 340.5,-309"/>
<text text-anchor="middle" x="404" y="-316" font-family="Helvetica,sans-Serif" font-size="10.00">GamR::Spect::CountsBS</text>
</a>
</g>
</g>
<!-- Node1&#45;&gt;Node4 -->
<g id="edge3" class="edge">
<title>Node1&#45;&gt;Node4</title>
<path fill="none" stroke="midnightblue" d="M562.52,-228.75C544.27,-248.69 511.58,-281.12 477,-299.5 469.81,-303.32 461.8,-306.41 453.8,-308.9"/>
<polygon fill="midnightblue" stroke="midnightblue" points="565.35,-230.83 569.42,-221.05 560.14,-226.16 565.35,-230.83"/>
</g>
<!-- Node5 -->
<g id="node5" class="node">
<title>Node5</title>
<g id="a_node5"><a xlink:href="../../d0/d74/group___t_k.html#gabe9febe06ad5c3011ce247254014b145" target="_top" xlink:title=" ">
<polygon fill="white" stroke="black" points="331,-259.5 331,-289.5 477,-289.5 477,-259.5 331,-259.5"/>
<text text-anchor="start" x="339" y="-277.5" font-family="Helvetica,sans-Serif" font-size="10.00">GamR::TK::Gate::GetIntegral</text>
<text text-anchor="middle" x="404" y="-266.5" font-family="Helvetica,sans-Serif" font-size="10.00">Error</text>
</a>
</g>
</g>
<!-- Node1&#45;&gt;Node5 -->
<g id="edge4" class="edge">
<title>Node1&#45;&gt;Node5</title>
<path fill="none" stroke="midnightblue" d="M543.45,-224.64C524.03,-232.07 499.2,-241.45 477,-249.5 467.92,-252.79 458.16,-256.24 448.85,-259.49"/>
<polygon fill="midnightblue" stroke="midnightblue" points="544.7,-227.91 552.79,-221.06 542.2,-221.37 544.7,-227.91"/>
</g>
<!-- Node6 -->
<g id="node6" class="node">
<title>Node6</title>
<g id="a_node6"><a xlink:href="../../dc/d89/namespace_gam_r_1_1_spect.html#a65b45f6deafa9285890fe026d37bff2e" target="_top" xlink:title=" ">
<polygon fill="white" stroke="black" points="339.5,-221 339.5,-240 468.5,-240 468.5,-221 339.5,-221"/>
<text text-anchor="middle" x="404" y="-228" font-family="Helvetica,sans-Serif" font-size="10.00">GamR::Spect::IntegralBS</text>
</a>
</g>
</g>
<!-- Node1&#45;&gt;Node6 -->
<g id="edge5" class="edge">
<title>Node1&#45;&gt;Node6</title>
<path fill="none" stroke="midnightblue" d="M502.51,-219.76C491.22,-221 479.67,-222.28 468.65,-223.49"/>
<polygon fill="midnightblue" stroke="midnightblue" points="503.22,-223.2 512.78,-218.63 502.45,-216.24 503.22,-223.2"/>
</g>
<!-- Node7 -->
<g id="node7" class="node">
<title>Node7</title>
<g id="a_node7"><a xlink:href="../../d0/d74/group___t_k.html#ga5bf69c953a7d38ac9c165570859d4cb6" target="_top" xlink:title=" ">
<polygon fill="white" stroke="black" points="352,-183 352,-202 456,-202 456,-183 352,-183"/>
<text text-anchor="middle" x="404" y="-190" font-family="Helvetica,sans-Serif" font-size="10.00">GamR::TK::Gate::ls</text>
</a>
</g>
</g>
<!-- Node1&#45;&gt;Node7 -->
<g id="edge6" class="edge">
<title>Node1&#45;&gt;Node7</title>
<path fill="none" stroke="midnightblue" d="M502.56,-203.25C486.86,-201.52 470.66,-199.73 456.07,-198.13"/>
<polygon fill="midnightblue" stroke="midnightblue" points="502.45,-206.76 512.78,-204.37 503.22,-199.8 502.45,-206.76"/>
</g>
<!-- Node9 -->
<g id="node9" class="node">
<title>Node9</title>
<g id="a_node9"><a xlink:href="../../d0/d74/group___t_k.html#gaeb0a298da3a5064e12a51874e877c098" target="_top" xlink:title=" ">
<polygon fill="white" stroke="black" points="345,-145 345,-164 463,-164 463,-145 345,-145"/>
<text text-anchor="middle" x="404" y="-152" font-family="Helvetica,sans-Serif" font-size="10.00">GamR::TK::operator&lt;&lt;</text>
</a>
</g>
</g>
<!-- Node1&#45;&gt;Node9 -->
<g id="edge8" class="edge">
<title>Node1&#45;&gt;Node9</title>
<path fill="none" stroke="midnightblue" d="M544.84,-198.17C525.33,-190.45 499.95,-180.84 477,-173.5 466.41,-170.11 454.81,-166.85 444.07,-164.02"/>
<polygon fill="midnightblue" stroke="midnightblue" points="543.6,-201.44 554.19,-201.9 546.2,-194.94 543.6,-201.44"/>
</g>
<!-- Node10 -->
<g id="node10" class="node">
<title>Node10</title>
<g id="a_node10"><a xlink:href="../../d0/d74/group___t_k.html#ga556295172c5041f83e4d5fc8b1345850" target="_top" xlink:title=" ">
<polygon fill="white" stroke="black" points="155,-126 155,-145 295,-145 295,-126 155,-126"/>
<text text-anchor="middle" x="225" y="-133" font-family="Helvetica,sans-Serif" font-size="10.00">GamR::TK::BPeak::SetCont</text>
</a>
</g>
</g>
<!-- Node1&#45;&gt;Node10 -->
<g id="edge9" class="edge">
<title>Node1&#45;&gt;Node10</title>
<path fill="none" stroke="midnightblue" d="M562.1,-194.59C543.9,-175.97 511.66,-147.13 477,-135.5 411.52,-113.53 330.9,-118.76 279,-125.94"/>
<polygon fill="midnightblue" stroke="midnightblue" points="559.59,-197.02 569.01,-201.86 564.66,-192.2 559.59,-197.02"/>
</g>
<!-- Node12 -->
<g id="node12" class="node">
<title>Node12</title>
<g id="a_node12"><a xlink:href="../../d0/d74/group___t_k.html#gad601087ac09d19e8549128df1f07c4c1" target="_top" xlink:title=" ">
<polygon fill="white" stroke="black" points="333,-69 333,-88 475,-88 475,-69 333,-69"/>
<text text-anchor="middle" x="404" y="-76" font-family="Helvetica,sans-Serif" font-size="10.00">GamR::TK::BPeak::SetPoint</text>
</a>
</g>
</g>
<!-- Node1&#45;&gt;Node12 -->
<g id="edge11" class="edge">
<title>Node1&#45;&gt;Node12</title>
<path fill="none" stroke="midnightblue" d="M565.47,-193.61C548.45,-169.61 515.14,-127.16 477,-102.5 467.48,-96.35 456.24,-91.62 445.49,-88.06"/>
<polygon fill="midnightblue" stroke="midnightblue" points="562.59,-195.61 571.17,-201.83 568.35,-191.62 562.59,-195.61"/>
</g>
<!-- Node14 -->
<g id="node14" class="node">
<title>Node14</title>
<g id="a_node14"><a xlink:href="../../df/d67/class_gam_r_1_1_spect_1_1_back_sub2_d.html#a9a5803edfc6d768c32ed659cabae8847" target="_top" xlink:title=" ">
<polygon fill="white" stroke="black" points="336.5,-19.5 336.5,-49.5 471.5,-49.5 471.5,-19.5 336.5,-19.5"/>
<text text-anchor="start" x="344.5" y="-37.5" font-family="Helvetica,sans-Serif" font-size="10.00">GamR::Spect::BackSub2D</text>
<text text-anchor="middle" x="404" y="-26.5" font-family="Helvetica,sans-Serif" font-size="10.00">::Subtract</text>
</a>
</g>
</g>
<!-- Node1&#45;&gt;Node14 -->
<g id="edge15" class="edge">
<title>Node1&#45;&gt;Node14</title>
<path fill="none" stroke="midnightblue" d="M569.69,-192.17C555.77,-160.08 523.69,-95.77 477,-59.5 472.09,-55.69 466.55,-52.43 460.79,-49.65"/>
<polygon fill="midnightblue" stroke="midnightblue" points="566.6,-193.87 573.71,-201.73 573.06,-191.15 566.6,-193.87"/>
</g>
<!-- Node8 -->
<g id="node8" class="node">
<title>Node8</title>
<g id="a_node8"><a xlink:href="../../d0/d74/group___t_k.html#ga25db8df1c59ca26a93a371d97f8b3c08" target="_top" xlink:title=" ">
<polygon fill="white" stroke="black" points="160,-183 160,-202 290,-202 290,-183 160,-183"/>
<text text-anchor="middle" x="225" y="-190" font-family="Helvetica,sans-Serif" font-size="10.00">GamR::TK::Gate::Browse</text>
</a>
</g>
</g>
<!-- Node7&#45;&gt;Node8 -->
<g id="edge7" class="edge">
<title>Node7&#45;&gt;Node8</title>
<path fill="none" stroke="midnightblue" d="M341.68,-192.5C325.08,-192.5 307.07,-192.5 290.32,-192.5"/>
<polygon fill="midnightblue" stroke="midnightblue" points="341.8,-196 351.8,-192.5 341.8,-189 341.8,-196"/>
</g>
<!-- Node11 -->
<g id="node11" class="node">
<title>Node11</title>
<g id="a_node11"><a xlink:href="../../d0/d74/group___t_k.html#gacea94387106c6b07d16c53a1614a86b9" target="_top" xlink:title=" ">
<polygon fill="white" stroke="black" points="0,-88 0,-107 119,-107 119,-88 0,-88"/>
<text text-anchor="middle" x="59.5" y="-95" font-family="Helvetica,sans-Serif" font-size="10.00">GamR::TK::BPeak::Set</text>
</a>
</g>
</g>
<!-- Node10&#45;&gt;Node11 -->
<g id="edge10" class="edge">
<title>Node10&#45;&gt;Node11</title>
<path fill="none" stroke="midnightblue" d="M172.82,-123.6C149.83,-118.26 123.09,-112.05 101.46,-107.02"/>
<polygon fill="midnightblue" stroke="midnightblue" points="172.21,-127.06 182.74,-125.91 173.79,-120.24 172.21,-127.06"/>
</g>
<!-- Node12&#45;&gt;Node11 -->
<g id="edge12" class="edge">
<title>Node12&#45;&gt;Node11</title>
<path fill="none" stroke="midnightblue" d="M322.67,-82.96C260.29,-86.42 175.24,-91.13 119.15,-94.25"/>
<polygon fill="midnightblue" stroke="midnightblue" points="323.07,-86.44 332.86,-82.39 322.68,-79.45 323.07,-86.44"/>
</g>
<!-- Node13 -->
<g id="node13" class="node">
<title>Node13</title>
<g id="a_node13"><a xlink:href="../../d0/d74/group___t_k.html#ga705f798b5ced39a94fe9582dd39c55ed" target="_top" xlink:title=" ">
<polygon fill="white" stroke="black" points="155,-50 155,-69 295,-69 295,-50 155,-50"/>
<text text-anchor="middle" x="225" y="-57" font-family="Helvetica,sans-Serif" font-size="10.00">GamR::TK::BPeak::SetStep</text>
</a>
</g>
</g>
<!-- Node12&#45;&gt;Node13 -->
<g id="edge13" class="edge">
<title>Node12&#45;&gt;Node13</title>
<path fill="none" stroke="midnightblue" d="M322.57,-69.87C313.45,-68.89 304.21,-67.9 295.26,-66.93"/>
<polygon fill="midnightblue" stroke="midnightblue" points="322.47,-73.38 332.79,-70.96 323.22,-66.42 322.47,-73.38"/>
</g>
<!-- Node13&#45;&gt;Node11 -->
<g id="edge14" class="edge">
<title>Node13&#45;&gt;Node11</title>
<path fill="none" stroke="midnightblue" d="M172.82,-71.4C149.83,-76.74 123.09,-82.95 101.46,-87.98"/>
<polygon fill="midnightblue" stroke="midnightblue" points="173.79,-74.76 182.74,-69.09 172.21,-67.94 173.79,-74.76"/>
</g>
<!-- Node15 -->
<g id="node15" class="node">
<title>Node15</title>
<g id="a_node15"><a xlink:href="../../df/d67/class_gam_r_1_1_spect_1_1_back_sub2_d.html#a664a3f650a48e86467a5ddcb2e8cadb8" target="_top" xlink:title=" ">
<polygon fill="white" stroke="black" points="157.5,-0.5 157.5,-30.5 292.5,-30.5 292.5,-0.5 157.5,-0.5"/>
<text text-anchor="start" x="165.5" y="-18.5" font-family="Helvetica,sans-Serif" font-size="10.00">GamR::Spect::BackSub2D</text>
<text text-anchor="middle" x="225" y="-7.5" font-family="Helvetica,sans-Serif" font-size="10.00">::BackSub2D</text>
</a>
</g>
</g>
<!-- Node14&#45;&gt;Node15 -->
<g id="edge16" class="edge">
<title>Node14&#45;&gt;Node15</title>
<path fill="none" stroke="midnightblue" d="M326.16,-26.25C314.99,-25.05 303.56,-23.83 292.6,-22.65"/>
<polygon fill="midnightblue" stroke="midnightblue" points="326.02,-29.76 336.34,-27.34 326.77,-22.8 326.02,-29.76"/>
</g>
</g>
</svg>
        <g id="navigator" transform="translate(0 0)" fill="#404254">
                <rect fill="#f2f5e9" fill-opacity="0.5" stroke="#606060" stroke-width=".5" x="0" y="0" width="60" height="60"/>
                <use id="zoomplus" xlink:href="#zoomPlus" x="17" y="9" onmousedown="handleZoom(evt,'in')"/>
                <use id="zoomminus" xlink:href="#zoomMin" x="42" y="9" onmousedown="handleZoom(evt,'out')"/>
                <use id="reset" xlink:href="#resetDef" x="30" y="36" onmousedown="handleReset()"/>
                <g id="arrowUp" xlink:href="#dirArrow" transform="translate(30 24)" onmousedown="handlePan(0,-1)">
                  <use xlink:href="#rim" fill="#404040">
                        <set attributeName="fill" to="#808080" begin="arrowUp.mouseover" end="arrowUp.mouseout"/>
                  </use>
                  <path fill="none" stroke="white" stroke-width="1.5" d="M0,-3.0v7 M-2.5,-0.5L0,-3.0L2.5,-0.5"/>
                </g>
                <g id="arrowRight" xlink:href="#dirArrow" transform="rotate(90) translate(36 -43)" onmousedown="handlePan(1,0)">
                  <use xlink:href="#rim" fill="#404040">
                        <set attributeName="fill" to="#808080" begin="arrowRight.mouseover" end="arrowRight.mouseout"/>
                  </use>
                  <path fill="none" stroke="white" stroke-width="1.5" d="M0,-3.0v7 M-2.5,-0.5L0,-3.0L2.5,-0.5"/>
                </g>
                <g id="arrowDown" xlink:href="#dirArrow" transform="rotate(180) translate(-30 -48)" onmousedown="handlePan(0,1)">
                  <use xlink:href="#rim" fill="#404040">
                        <set attributeName="fill" to="#808080" begin="arrowDown.mouseover" end="arrowDown.mouseout"/>
                  </use>
                  <path fill="none" stroke="white" stroke-width="1.5" d="M0,-3.0v7 M-2.5,-0.5L0,-3.0L2.5,-0.5"/>
                </g>
                <g id="arrowLeft" xlink:href="#dirArrow" transform="rotate(270) translate(-36 17)" onmousedown="handlePan(-1,0)">
                  <use xlink:href="#rim" fill="#404040">
                        <set attributeName="fill" to="#808080" begin="arrowLeft.mouseover" end="arrowLeft.mouseout"/>
                  </use>
                  <path fill="none" stroke="white" stroke-width="1.5" d="M0,-3.0v7 M-2.5,-0.5L0,-3.0L2.5,-0.5"/>
                </g>
        </g>
        <svg viewBox="0 0 15 15" width="100%" height="30px" preserveAspectRatio="xMaxYMin meet">
         <g id="arrow_out" transform="scale(0.3 0.3)">
          <a xlink:href="group___t_k_ga0c870043965f984b34e65455819d47cf_icgraph_org.svg" target="_base">
           <rect id="button" ry="5" rx="5" y="6" x="6" height="38" width="38"
                fill="#f2f5e9" fill-opacity="0.5" stroke="#606060" stroke-width="1.0"/>
           <path id="arrow"
             d="M 11.500037,31.436501 C 11.940474,20.09759 22.043105,11.32322 32.158766,21.979434 L 37.068811,17.246167 C 37.068811,17.246167 37.088388,32 37.088388,32 L 22.160133,31.978069 C 22.160133,31.978069 26.997745,27.140456 26.997745,27.140456 C 18.528582,18.264221 13.291696,25.230495 11.500037,31.436501 z"
             style="fill:#404040;"/>
          </a>
         </g>
        </svg>
</svg>
