<?xml version="1.0" encoding="UTF-8" standalone="no"?>
<!DOCTYPE svg PUBLIC "-//W3C//DTD SVG 1.1//EN"
 "http://www.w3.org/Graphics/SVG/1.1/DTD/svg11.dtd">
<!-- Generated by graphviz version 2.49.3 (20211023.0002)
 -->
<!-- Title: GamR::TK::BPeak::GetCounts Pages: 1 -->
<svg width="727pt" height="72pt"
 viewBox="0.00 0.00 727.00 71.50" xmlns="http://www.w3.org/2000/svg" xmlns:xlink="http://www.w3.org/1999/xlink">
<g id="graph0" class="graph" transform="scale(1 1) rotate(0) translate(4 67.5)">
<title>GamR::TK::BPeak::GetCounts</title>
<polygon fill="white" stroke="transparent" points="-4,4 -4,-67.5 723,-67.5 723,4 -4,4"/>
<!-- Node1 -->
<g id="node1" class="node">
<title>Node1</title>
<g id="a_node1"><a xlink:title=" ">
<polygon fill="#bfbfbf" stroke="black" points="567,-25 567,-44 719,-44 719,-25 567,-25"/>
<text text-anchor="middle" x="643" y="-32" font-family="Helvetica,sans-Serif" font-size="10.00">GamR::TK::BPeak::GetCounts</text>
</a>
</g>
</g>
<!-- Node2 -->
<g id="node2" class="node">
<title>Node2</title>
<g id="a_node2"><a xlink:href="../../d0/d74/group___t_k.html#gaa496d15cf9600fa5790ff50c9392b0fd" target="_top" xlink:title=" ">
<polygon fill="white" stroke="black" points="406,-25 406,-44 531,-44 531,-25 406,-25"/>
<text text-anchor="middle" x="468.5" y="-32" font-family="Helvetica,sans-Serif" font-size="10.00">GamR::TK::BPeak::Print</text>
</a>
</g>
</g>
<!-- Node1&#45;&gt;Node2 -->
<g id="edge1" class="edge">
<title>Node1&#45;&gt;Node2</title>
<path fill="none" stroke="midnightblue" d="M556.76,-34.5C548.15,-34.5 539.52,-34.5 531.23,-34.5"/>
<polygon fill="midnightblue" stroke="midnightblue" points="556.84,-38 566.84,-34.5 556.84,-31 556.84,-38"/>
</g>
<!-- Node3 -->
<g id="node3" class="node">
<title>Node3</title>
<g id="a_node3"><a xlink:href="../../d0/d74/group___t_k.html#gab9295d2a9e654d7540ee264d036590cd" target="_top" xlink:title=" ">
<polygon fill="white" stroke="black" points="250,-44 250,-63 370,-63 370,-44 250,-44"/>
<text text-anchor="middle" x="310" y="-51" font-family="Helvetica,sans-Serif" font-size="10.00">GamR::TK::ClickBPeak</text>
</a>
</g>
</g>
<!-- Node2&#45;&gt;Node3 -->
<g id="edge2" class="edge">
<title>Node2&#45;&gt;Node3</title>
<path fill="none" stroke="midnightblue" d="M395.67,-43.22C387.12,-44.26 378.46,-45.31 370.11,-46.32"/>
<polygon fill="midnightblue" stroke="midnightblue" points="396.14,-46.69 405.65,-42.01 395.3,-39.74 396.14,-46.69"/>
</g>
<!-- Node5 -->
<g id="node5" class="node">
<title>Node5</title>
<g id="a_node5"><a xlink:href="../../d0/d74/group___t_k.html#gaf641b8c1f292803f8695310a0aee1896" target="_top" xlink:title=" ">
<polygon fill="white" stroke="black" points="255,-6 255,-25 365,-25 365,-6 255,-6"/>
<text text-anchor="middle" x="310" y="-13" font-family="Helvetica,sans-Serif" font-size="10.00">GamR::TK::FitBPeak</text>
</a>
</g>
</g>
<!-- Node2&#45;&gt;Node5 -->
<g id="edge4" class="edge">
<title>Node2&#45;&gt;Node5</title>
<path fill="none" stroke="midnightblue" d="M395.49,-25.76C385.25,-24.51 374.87,-23.25 365.06,-22.06"/>
<polygon fill="midnightblue" stroke="midnightblue" points="395.3,-29.26 405.65,-26.99 396.14,-22.31 395.3,-29.26"/>
</g>
<!-- Node4 -->
<g id="node4" class="node">
<title>Node4</title>
<g id="a_node4"><a xlink:href="../../d0/d17/_abbreviations_8cc.html#a56da1b89cd1ce3720264ffb38d8505aa" target="_top" xlink:title=" ">
<polygon fill="white" stroke="black" points="181,-44 181,-63 214,-63 214,-44 181,-44"/>
<text text-anchor="middle" x="197.5" y="-51" font-family="Helvetica,sans-Serif" font-size="10.00">cbp</text>
</a>
</g>
</g>
<!-- Node3&#45;&gt;Node4 -->
<g id="edge3" class="edge">
<title>Node3&#45;&gt;Node4</title>
<path fill="none" stroke="midnightblue" d="M239.82,-53.5C230.33,-53.5 221.43,-53.5 214.33,-53.5"/>
<polygon fill="midnightblue" stroke="midnightblue" points="239.87,-57 249.87,-53.5 239.87,-50 239.87,-57"/>
</g>
<!-- Node6 -->
<g id="node6" class="node">
<title>Node6</title>
<g id="a_node6"><a xlink:href="../../d0/d17/_abbreviations_8cc.html#a544c36017b9d9387f39e84863d9ae9a4" target="_top" xlink:title=" ">
<polygon fill="white" stroke="black" points="183,-6 183,-25 212,-25 212,-6 183,-6"/>
<text text-anchor="middle" x="197.5" y="-13" font-family="Helvetica,sans-Serif" font-size="10.00">bp</text>
</a>
</g>
</g>
<!-- Node5&#45;&gt;Node6 -->
<g id="edge5" class="edge">
<title>Node5&#45;&gt;Node6</title>
<path fill="none" stroke="midnightblue" d="M244.44,-15.5C232.32,-15.5 220.81,-15.5 212.34,-15.5"/>
<polygon fill="midnightblue" stroke="midnightblue" points="244.72,-19 254.72,-15.5 244.72,-12 244.72,-19"/>
</g>
<!-- Node7 -->
<g id="node7" class="node">
<title>Node7</title>
<g id="a_node7"><a xlink:href="../../d3/d48/class_gam_r_1_1_processor_1_1_time_walk.html#a10cdc74a1e9f4a14e1c449c9712ba085" target="_top" xlink:title="Iterating through calibration peaks for each detector pair: calculate the time difference spectrum (w...">
<polygon fill="white" stroke="black" points="0,-0.5 0,-30.5 145,-30.5 145,-0.5 0,-0.5"/>
<text text-anchor="start" x="8" y="-18.5" font-family="Helvetica,sans-Serif" font-size="10.00">GamR::Processor::TimeWalk</text>
<text text-anchor="middle" x="72.5" y="-7.5" font-family="Helvetica,sans-Serif" font-size="10.00">::MakeGraphs</text>
</a>
</g>
</g>
<!-- Node6&#45;&gt;Node7 -->
<g id="edge6" class="edge">
<title>Node6&#45;&gt;Node7</title>
<path fill="none" stroke="midnightblue" d="M172.74,-15.5C164.58,-15.5 154.97,-15.5 145.01,-15.5"/>
<polygon fill="midnightblue" stroke="midnightblue" points="172.87,-19 182.87,-15.5 172.87,-12 172.87,-19"/>
</g>
</g>
</svg>
