<?xml version="1.0" encoding="UTF-8" standalone="no"?>
<!DOCTYPE svg PUBLIC "-//W3C//DTD SVG 1.1//EN"
 "http://www.w3.org/Graphics/SVG/1.1/DTD/svg11.dtd">
<!-- Generated by graphviz version 2.49.3 (20211023.0002)
 -->
<!-- Title: GamR::TK::Gate::GetIntegralError Pages: 1 -->
<svg width="338pt" height="142pt"
 viewBox="0.00 0.00 338.00 142.00" xmlns="http://www.w3.org/2000/svg" xmlns:xlink="http://www.w3.org/1999/xlink">
<g id="graph0" class="graph" transform="scale(1 1) rotate(0) translate(4 138)">
<title>GamR::TK::Gate::GetIntegralError</title>
<polygon fill="white" stroke="transparent" points="-4,4 -4,-138 334,-138 334,4 -4,4"/>
<!-- Node1 -->
<g id="node1" class="node">
<title>Node1</title>
<g id="a_node1"><a xlink:title=" ">
<polygon fill="#bfbfbf" stroke="black" points="0,-52 0,-82 146,-82 146,-52 0,-52"/>
<text text-anchor="start" x="8" y="-70" font-family="Helvetica,sans-Serif" font-size="10.00">GamR::TK::Gate::GetIntegral</text>
<text text-anchor="middle" x="73" y="-59" font-family="Helvetica,sans-Serif" font-size="10.00">Error</text>
</a>
</g>
</g>
<!-- Node2 -->
<g id="node2" class="node">
<title>Node2</title>
<g id="a_node2"><a xlink:href="../../d0/d74/group___t_k.html#gab865f6e8e84344abc6a89f16cc796307" target="_top" xlink:title=" ">
<polygon fill="white" stroke="black" points="182,-114.5 182,-133.5 330,-133.5 330,-114.5 182,-114.5"/>
<text text-anchor="middle" x="256" y="-121.5" font-family="Helvetica,sans-Serif" font-size="10.00">GamR::TK::Gate::GetBinHigh</text>
</a>
</g>
</g>
<!-- Node1&#45;&gt;Node2 -->
<g id="edge1" class="edge">
<title>Node1&#45;&gt;Node2</title>
<path fill="none" stroke="midnightblue" d="M114.25,-82.06C134.45,-89.39 159.38,-98.09 182,-105 189.75,-107.37 198.01,-109.7 206.09,-111.87"/>
<polygon fill="midnightblue" stroke="midnightblue" points="205.25,-115.27 215.81,-114.44 207.04,-108.5 205.25,-115.27"/>
</g>
<!-- Node3 -->
<g id="node3" class="node">
<title>Node3</title>
<g id="a_node3"><a xlink:href="../../d0/d74/group___t_k.html#ga4f8f88a7cb3ed077f9a3c3d81f02b31a" target="_top" xlink:title=" ">
<polygon fill="white" stroke="black" points="183.5,-76.5 183.5,-95.5 328.5,-95.5 328.5,-76.5 183.5,-76.5"/>
<text text-anchor="middle" x="256" y="-83.5" font-family="Helvetica,sans-Serif" font-size="10.00">GamR::TK::Gate::GetBinLow</text>
</a>
</g>
</g>
<!-- Node1&#45;&gt;Node3 -->
<g id="edge2" class="edge">
<title>Node1&#45;&gt;Node3</title>
<path fill="none" stroke="midnightblue" d="M146.06,-74.56C155.01,-75.5 164.21,-76.47 173.3,-77.42"/>
<polygon fill="midnightblue" stroke="midnightblue" points="173.18,-80.93 183.49,-78.49 173.91,-73.97 173.18,-80.93"/>
</g>
<!-- Node4 -->
<g id="node4" class="node">
<title>Node4</title>
<g id="a_node4"><a xlink:href="../../d0/d74/group___t_k.html#gac1c2149596c0bc3ee71f38a871d0aa98" target="_top" xlink:title=" ">
<polygon fill="white" stroke="black" points="189.5,-38.5 189.5,-57.5 322.5,-57.5 322.5,-38.5 189.5,-38.5"/>
<text text-anchor="middle" x="256" y="-45.5" font-family="Helvetica,sans-Serif" font-size="10.00">GamR::TK::Gate::GetHigh</text>
</a>
</g>
</g>
<!-- Node1&#45;&gt;Node4 -->
<g id="edge3" class="edge">
<title>Node1&#45;&gt;Node4</title>
<path fill="none" stroke="midnightblue" d="M146.06,-59.44C157,-58.29 168.32,-57.1 179.34,-55.94"/>
<polygon fill="midnightblue" stroke="midnightblue" points="179.77,-59.42 189.35,-54.89 179.04,-52.45 179.77,-59.42"/>
</g>
<!-- Node5 -->
<g id="node5" class="node">
<title>Node5</title>
<g id="a_node5"><a xlink:href="../../d0/d74/group___t_k.html#ga0c870043965f984b34e65455819d47cf" target="_top" xlink:title=" ">
<polygon fill="white" stroke="black" points="190.5,-0.5 190.5,-19.5 321.5,-19.5 321.5,-0.5 190.5,-0.5"/>
<text text-anchor="middle" x="256" y="-7.5" font-family="Helvetica,sans-Serif" font-size="10.00">GamR::TK::Gate::GetLow</text>
</a>
</g>
</g>
<!-- Node1&#45;&gt;Node5 -->
<g id="edge4" class="edge">
<title>Node1&#45;&gt;Node5</title>
<path fill="none" stroke="midnightblue" d="M114.25,-51.94C134.45,-44.61 159.38,-35.91 182,-29 189.75,-26.63 198.01,-24.3 206.09,-22.13"/>
<polygon fill="midnightblue" stroke="midnightblue" points="207.04,-25.5 215.81,-19.56 205.25,-18.73 207.04,-25.5"/>
</g>
</g>
</svg>
