<?xml version="1.0" encoding="UTF-8" standalone="no"?>
<!DOCTYPE svg PUBLIC "-//W3C//DTD SVG 1.1//EN"
 "http://www.w3.org/Graphics/SVG/1.1/DTD/svg11.dtd">
<!-- Generated by graphviz version 2.49.3 (20211023.0002)
 -->
<!-- Title: GamR::TK::BPeak::SetStep Pages: 1 -->
<svg width="680pt" height="247pt"
 viewBox="0.00 0.00 680.00 246.82" xmlns="http://www.w3.org/2000/svg" xmlns:xlink="http://www.w3.org/1999/xlink">
<g id="graph0" class="graph" transform="scale(1 1) rotate(0) translate(4 242.82)">
<title>GamR::TK::BPeak::SetStep</title>
<polygon fill="white" stroke="transparent" points="-4,4 -4,-242.82 676,-242.82 676,4 -4,4"/>
<!-- Node1 -->
<g id="node1" class="node">
<title>Node1</title>
<g id="a_node1"><a xlink:title=" ">
<polygon fill="#bfbfbf" stroke="black" points="0,-129.5 0,-148.5 140,-148.5 140,-129.5 0,-129.5"/>
<text text-anchor="middle" x="70" y="-136.5" font-family="Helvetica,sans-Serif" font-size="10.00">GamR::TK::BPeak::SetStep</text>
</a>
</g>
</g>
<!-- Node2 -->
<g id="node2" class="node">
<title>Node2</title>
<g id="a_node2"><a xlink:href="../../dc/d89/namespace_gam_r_1_1_spect.html#a54b953c08bfbe870df0e0c9c6aa23648" target="_top" xlink:title=" ">
<polygon fill="white" stroke="black" points="372,-154.5 372,-173.5 477,-173.5 477,-154.5 372,-154.5"/>
<text text-anchor="middle" x="424.5" y="-161.5" font-family="Helvetica,sans-Serif" font-size="10.00">GamR::Spect::Draw</text>
</a>
</g>
</g>
<!-- Node1&#45;&gt;Node2 -->
<g id="edge1" class="edge">
<title>Node1&#45;&gt;Node2</title>
<path fill="none" stroke="midnightblue" d="M78.7,-148.58C94.53,-167.41 132.89,-208.74 176,-224 237.17,-245.66 259.41,-241.12 322,-224 353.16,-215.48 384.48,-194.66 403.92,-179.94"/>
<polygon fill="midnightblue" stroke="midnightblue" points="406.23,-182.58 411.97,-173.68 401.93,-177.06 406.23,-182.58"/>
</g>
<!-- Node4 -->
<g id="node4" class="node">
<title>Node4</title>
<g id="a_node4"><a xlink:href="../../d0/d74/group___t_k.html#ga2bc60e269306be300511aa630417506d" target="_top" xlink:title=" ">
<polygon fill="white" stroke="black" points="178,-195.5 178,-214.5 320,-214.5 320,-195.5 178,-195.5"/>
<text text-anchor="middle" x="249" y="-202.5" font-family="Helvetica,sans-Serif" font-size="10.00">GamR::TK::BPeak::GetCent</text>
</a>
</g>
</g>
<!-- Node1&#45;&gt;Node4 -->
<g id="edge3" class="edge">
<title>Node1&#45;&gt;Node4</title>
<path fill="none" stroke="midnightblue" d="M89.97,-148.62C110.71,-158.87 145.11,-175.09 176,-186 182.87,-188.43 190.21,-190.71 197.47,-192.79"/>
<polygon fill="midnightblue" stroke="midnightblue" points="196.71,-196.21 207.28,-195.49 198.57,-189.46 196.71,-196.21"/>
</g>
<!-- Node5 -->
<g id="node5" class="node">
<title>Node5</title>
<g id="a_node5"><a xlink:href="../../d0/d74/group___t_k.html#ga32d918b4d80ea9e892c18f5936ae1c49" target="_top" xlink:title=" ">
<polygon fill="white" stroke="black" points="178,-146 178,-176 320,-176 320,-146 178,-146"/>
<text text-anchor="start" x="186" y="-164" font-family="Helvetica,sans-Serif" font-size="10.00">GamR::TK::BPeak::GetCent</text>
<text text-anchor="middle" x="249" y="-153" font-family="Helvetica,sans-Serif" font-size="10.00">Error</text>
</a>
</g>
</g>
<!-- Node1&#45;&gt;Node5 -->
<g id="edge4" class="edge">
<title>Node1&#45;&gt;Node5</title>
<path fill="none" stroke="midnightblue" d="M140.19,-147.6C149.31,-148.73 158.71,-149.9 167.98,-151.05"/>
<polygon fill="midnightblue" stroke="midnightblue" points="167.63,-154.54 177.98,-152.3 168.49,-147.59 167.63,-154.54"/>
</g>
<!-- Node6 -->
<g id="node6" class="node">
<title>Node6</title>
<g id="a_node6"><a xlink:href="../../d0/d74/group___t_k.html#gaa2200a38a3956d5e129aeeca03b2952a" target="_top" xlink:title=" ">
<polygon fill="white" stroke="black" points="176,-107.5 176,-126.5 322,-126.5 322,-107.5 176,-107.5"/>
<text text-anchor="middle" x="249" y="-114.5" font-family="Helvetica,sans-Serif" font-size="10.00">GamR::TK::BPeak::GetWidth</text>
</a>
</g>
</g>
<!-- Node1&#45;&gt;Node6 -->
<g id="edge5" class="edge">
<title>Node1&#45;&gt;Node6</title>
<path fill="none" stroke="midnightblue" d="M140.19,-130.4C148.63,-129.35 157.3,-128.27 165.9,-127.2"/>
<polygon fill="midnightblue" stroke="midnightblue" points="166.45,-130.66 175.94,-125.96 165.58,-123.72 166.45,-130.66"/>
</g>
<!-- Node7 -->
<g id="node7" class="node">
<title>Node7</title>
<g id="a_node7"><a xlink:href="../../d0/d74/group___t_k.html#ga7673c2803d0941563430bf8ef217da80" target="_top" xlink:title=" ">
<polygon fill="white" stroke="black" points="176,-58 176,-88 322,-88 322,-58 176,-58"/>
<text text-anchor="start" x="184" y="-76" font-family="Helvetica,sans-Serif" font-size="10.00">GamR::TK::BPeak::GetWidth</text>
<text text-anchor="middle" x="249" y="-65" font-family="Helvetica,sans-Serif" font-size="10.00">Error</text>
</a>
</g>
</g>
<!-- Node1&#45;&gt;Node7 -->
<g id="edge6" class="edge">
<title>Node1&#45;&gt;Node7</title>
<path fill="none" stroke="midnightblue" d="M94.67,-129.46C115.89,-120.98 147.91,-108.36 176,-98 181.87,-95.84 188.02,-93.62 194.15,-91.45"/>
<polygon fill="midnightblue" stroke="midnightblue" points="195.47,-94.69 203.74,-88.07 193.14,-88.09 195.47,-94.69"/>
</g>
<!-- Node8 -->
<g id="node8" class="node">
<title>Node8</title>
<g id="a_node8"><a xlink:href="../../d0/d74/group___t_k.html#gad601087ac09d19e8549128df1f07c4c1" target="_top" xlink:title=" ">
<polygon fill="white" stroke="black" points="178,-19.5 178,-38.5 320,-38.5 320,-19.5 178,-19.5"/>
<text text-anchor="middle" x="249" y="-26.5" font-family="Helvetica,sans-Serif" font-size="10.00">GamR::TK::BPeak::SetPoint</text>
</a>
</g>
</g>
<!-- Node1&#45;&gt;Node8 -->
<g id="edge7" class="edge">
<title>Node1&#45;&gt;Node8</title>
<path fill="none" stroke="midnightblue" d="M79.21,-129.42C95.66,-110.85 134.62,-69.86 176,-48 180.46,-45.64 185.23,-43.57 190.11,-41.73"/>
<polygon fill="midnightblue" stroke="midnightblue" points="191.26,-45.04 199.6,-38.51 189,-38.42 191.26,-45.04"/>
</g>
<!-- Node3 -->
<g id="node3" class="node">
<title>Node3</title>
<g id="a_node3"><a xlink:href="../../dc/d89/namespace_gam_r_1_1_spect.html#a56e80bce5bf691212c8b7dfb76c2d2b4" target="_top" xlink:title=" ">
<polygon fill="white" stroke="black" points="527,-154.5 527,-173.5 672,-173.5 672,-154.5 527,-154.5"/>
<text text-anchor="middle" x="599.5" y="-161.5" font-family="Helvetica,sans-Serif" font-size="10.00">GamR::Spect::List1DSpectra</text>
</a>
</g>
</g>
<!-- Node2&#45;&gt;Node3 -->
<g id="edge2" class="edge">
<title>Node2&#45;&gt;Node3</title>
<path fill="none" stroke="midnightblue" d="M477.41,-164C489.78,-164 503.28,-164 516.64,-164"/>
<polygon fill="midnightblue" stroke="midnightblue" points="516.8,-167.5 526.8,-164 516.8,-160.5 516.8,-167.5"/>
</g>
<!-- Node8&#45;&gt;Node2 -->
<g id="edge8" class="edge">
<title>Node8&#45;&gt;Node2</title>
<path fill="none" stroke="midnightblue" d="M301.53,-38.55C308.69,-41.02 315.74,-44.12 322,-48 362.74,-73.26 396.16,-119.96 412.56,-145.73"/>
<polygon fill="midnightblue" stroke="midnightblue" points="409.75,-147.84 417.99,-154.5 415.7,-144.15 409.75,-147.84"/>
</g>
<!-- Node9 -->
<g id="node9" class="node">
<title>Node9</title>
<g id="a_node9"><a xlink:href="../../d0/d74/group___t_k.html#gac1c2149596c0bc3ee71f38a871d0aa98" target="_top" xlink:title=" ">
<polygon fill="white" stroke="black" points="358,-38.5 358,-57.5 491,-57.5 491,-38.5 358,-38.5"/>
<text text-anchor="middle" x="424.5" y="-45.5" font-family="Helvetica,sans-Serif" font-size="10.00">GamR::TK::Gate::GetHigh</text>
</a>
</g>
</g>
<!-- Node8&#45;&gt;Node9 -->
<g id="edge9" class="edge">
<title>Node8&#45;&gt;Node9</title>
<path fill="none" stroke="midnightblue" d="M320.07,-36.67C329.25,-37.68 338.7,-38.71 347.97,-39.73"/>
<polygon fill="midnightblue" stroke="midnightblue" points="347.62,-43.21 357.94,-40.82 348.38,-36.25 347.62,-43.21"/>
</g>
<!-- Node10 -->
<g id="node10" class="node">
<title>Node10</title>
<g id="a_node10"><a xlink:href="../../d0/d74/group___t_k.html#ga0c870043965f984b34e65455819d47cf" target="_top" xlink:title=" ">
<polygon fill="white" stroke="black" points="359,-0.5 359,-19.5 490,-19.5 490,-0.5 359,-0.5"/>
<text text-anchor="middle" x="424.5" y="-7.5" font-family="Helvetica,sans-Serif" font-size="10.00">GamR::TK::Gate::GetLow</text>
</a>
</g>
</g>
<!-- Node8&#45;&gt;Node10 -->
<g id="edge10" class="edge">
<title>Node8&#45;&gt;Node10</title>
<path fill="none" stroke="midnightblue" d="M320.07,-21.33C329.46,-20.3 339.13,-19.24 348.6,-18.2"/>
<polygon fill="midnightblue" stroke="midnightblue" points="349.22,-21.66 358.78,-17.09 348.46,-14.7 349.22,-21.66"/>
</g>
</g>
</svg>
