<?xml version="1.0" encoding="UTF-8" standalone="no"?>
<!DOCTYPE svg PUBLIC "-//W3C//DTD SVG 1.1//EN"
 "http://www.w3.org/Graphics/SVG/1.1/DTD/svg11.dtd">
<!-- Generated by graphviz version 2.49.3 (20211023.0002)
 -->
<!-- Title: GamR::TK::FPeak::GetFunc Pages: 1 -->
<svg width="352pt" height="186pt"
 viewBox="0.00 0.00 352.00 186.00" xmlns="http://www.w3.org/2000/svg" xmlns:xlink="http://www.w3.org/1999/xlink">
<g id="graph0" class="graph" transform="scale(1 1) rotate(0) translate(4 182)">
<title>GamR::TK::FPeak::GetFunc</title>
<polygon fill="white" stroke="transparent" points="-4,4 -4,-182 348,-182 348,4 -4,4"/>
<!-- Node1 -->
<g id="node1" class="node">
<title>Node1</title>
<g id="a_node1"><a xlink:title=" ">
<polygon fill="#bfbfbf" stroke="black" points="202,-79 202,-98 344,-98 344,-79 202,-79"/>
<text text-anchor="middle" x="273" y="-86" font-family="Helvetica,sans-Serif" font-size="10.00">GamR::TK::FPeak::GetFunc</text>
</a>
</g>
</g>
<!-- Node2 -->
<g id="node2" class="node">
<title>Node2</title>
<g id="a_node2"><a xlink:href="../../d0/d74/group___t_k.html#ga713035c4a54cdc4a501fdd46666eed2a" target="_top" xlink:title=" ">
<polygon fill="white" stroke="black" points="0,-147.5 0,-177.5 166,-177.5 166,-147.5 0,-147.5"/>
<text text-anchor="start" x="8" y="-165.5" font-family="Helvetica,sans-Serif" font-size="10.00">GamR::TK::OneTailStepGaussian</text>
<text text-anchor="middle" x="83" y="-154.5" font-family="Helvetica,sans-Serif" font-size="10.00">Peak::GetArea</text>
</a>
</g>
</g>
<!-- Node1&#45;&gt;Node2 -->
<g id="edge1" class="edge">
<title>Node1&#45;&gt;Node2</title>
<path fill="none" stroke="midnightblue" d="M244.98,-102.68C223.85,-113.42 193.55,-128.04 166,-138.5 157.68,-141.66 148.75,-144.65 139.97,-147.39"/>
<polygon fill="midnightblue" stroke="midnightblue" points="246.69,-105.74 253.99,-98.06 243.5,-99.51 246.69,-105.74"/>
</g>
<!-- Node3 -->
<g id="node3" class="node">
<title>Node3</title>
<g id="a_node3"><a xlink:href="../../d0/d74/group___t_k.html#ga9903450d361d220990425726db31d6cf" target="_top" xlink:title=" ">
<polygon fill="white" stroke="black" points="0.5,-98.5 0.5,-128.5 165.5,-128.5 165.5,-98.5 0.5,-98.5"/>
<text text-anchor="start" x="8.5" y="-116.5" font-family="Helvetica,sans-Serif" font-size="10.00">GamR::TK::TwoTailStepGaussian</text>
<text text-anchor="middle" x="83" y="-105.5" font-family="Helvetica,sans-Serif" font-size="10.00">Peak::GetArea</text>
</a>
</g>
</g>
<!-- Node1&#45;&gt;Node3 -->
<g id="edge2" class="edge">
<title>Node1&#45;&gt;Node3</title>
<path fill="none" stroke="midnightblue" d="M191.93,-99.15C183.28,-100.3 174.47,-101.47 165.8,-102.62"/>
<polygon fill="midnightblue" stroke="midnightblue" points="192.54,-102.6 202,-97.81 191.62,-95.66 192.54,-102.6"/>
</g>
<!-- Node4 -->
<g id="node4" class="node">
<title>Node4</title>
<g id="a_node4"><a xlink:href="../../d0/d74/group___t_k.html#ga00bac43722f0956b8bda250c208cd2fb" target="_top" xlink:title=" ">
<polygon fill="white" stroke="black" points="0,-49.5 0,-79.5 166,-79.5 166,-49.5 0,-49.5"/>
<text text-anchor="start" x="8" y="-67.5" font-family="Helvetica,sans-Serif" font-size="10.00">GamR::TK::OneTailStepGaussian</text>
<text text-anchor="middle" x="83" y="-56.5" font-family="Helvetica,sans-Serif" font-size="10.00">Peak::GetAreaError</text>
</a>
</g>
</g>
<!-- Node1&#45;&gt;Node4 -->
<g id="edge3" class="edge">
<title>Node1&#45;&gt;Node4</title>
<path fill="none" stroke="midnightblue" d="M192.02,-78.29C183.45,-77.2 174.72,-76.08 166.12,-74.98"/>
<polygon fill="midnightblue" stroke="midnightblue" points="191.63,-81.77 202,-79.56 192.52,-74.83 191.63,-81.77"/>
</g>
<!-- Node5 -->
<g id="node5" class="node">
<title>Node5</title>
<g id="a_node5"><a xlink:href="../../d0/d74/group___t_k.html#ga693b521572918646f63ede66354055bf" target="_top" xlink:title=" ">
<polygon fill="white" stroke="black" points="0.5,-0.5 0.5,-30.5 165.5,-30.5 165.5,-0.5 0.5,-0.5"/>
<text text-anchor="start" x="8.5" y="-18.5" font-family="Helvetica,sans-Serif" font-size="10.00">GamR::TK::TwoTailStepGaussian</text>
<text text-anchor="middle" x="83" y="-7.5" font-family="Helvetica,sans-Serif" font-size="10.00">Peak::GetAreaError</text>
</a>
</g>
</g>
<!-- Node1&#45;&gt;Node5 -->
<g id="edge4" class="edge">
<title>Node1&#45;&gt;Node5</title>
<path fill="none" stroke="midnightblue" d="M243.73,-74.49C222.61,-64.32 192.88,-50.64 166,-40.5 156.67,-36.98 146.61,-33.59 136.83,-30.51"/>
<polygon fill="midnightblue" stroke="midnightblue" points="242.26,-77.67 252.78,-78.89 245.31,-71.37 242.26,-77.67"/>
</g>
</g>
</svg>
