<?xml version="1.0" encoding="UTF-8" standalone="no"?>
<!DOCTYPE svg PUBLIC "-//W3C//DTD SVG 1.1//EN"
 "http://www.w3.org/Graphics/SVG/1.1/DTD/svg11.dtd">
<!-- Generated by graphviz version 2.49.3 (20211023.0002)
 -->
<!-- Title: GamR::TK::FitBPeak Pages: 1 -->
<!--zoomable 456 -->
<svg id="main" version="1.1" xmlns="http://www.w3.org/2000/svg" xmlns:xlink="http://www.w3.org/1999/xlink" xml:space="preserve" onload="init(evt)">
<style type="text/css"><![CDATA[
.edge:hover path { stroke: red; }
.edge:hover polygon { stroke: red; fill: red; }
]]></style>
<script type="text/javascript"><![CDATA[
var edges = document.getElementsByTagName('g');
if (edges && edges.length) {
  for (var i=0;i<edges.length;i++) {
    if (edges[i].id.substr(0,4)=='edge') {
      edges[i].setAttribute('class','edge');
    }
  }
}
]]></script>
        <defs>
                <circle id="rim" cx="0" cy="0" r="7"/>
                <circle id="rim2" cx="0" cy="0" r="3.5"/>
                <g id="zoomPlus">
                        <use xlink:href="#rim" fill="#404040">
                                <set attributeName="fill" to="#808080" begin="zoomplus.mouseover" end="zoomplus.mouseout"/>
                        </use>
                        <path d="M-4,0h8M0,-4v8" fill="none" stroke="white" stroke-width="1.5" pointer-events="none"/>
                </g>
                <g id="zoomMin">
                        <use xlink:href="#rim" fill="#404040">
                                <set attributeName="fill" to="#808080" begin="zoomminus.mouseover" end="zoomminus.mouseout"/>
                        </use>
                        <path d="M-4,0h8" fill="none" stroke="white" stroke-width="1.5" pointer-events="none"/>
                </g>
                <g id="dirArrow">
                        <path fill="none" stroke="white" stroke-width="1.5" d="M0,-3.0v7 M-2.5,-0.5L0,-3.0L2.5,-0.5"/>
                </g>
               <g id="resetDef">
                       <use xlink:href="#rim2" fill="#404040">
                               <set attributeName="fill" to="#808080" begin="reset.mouseover" end="reset.mouseout"/>
                       </use>
               </g>
        </defs>

<script type="text/javascript">
var viewWidth = 478;
var viewHeight = 456;
var sectionId = 'dynsection-14';
</script>
<script xlink:href="../../svgpan.js"/>
<svg id="graph" class="graph">
<g id="viewport">
<title>GamR::TK::FitBPeak</title>
<polygon fill="white" stroke="transparent" points="-4,4 -4,-452 474,-452 474,4 -4,4"/>
<!-- Node1 -->
<g id="node1" class="node">
<title>Node1</title>
<g id="a_node1"><a xlink:title=" ">
<polygon fill="#bfbfbf" stroke="black" points="0,-239.5 0,-258.5 110,-258.5 110,-239.5 0,-239.5"/>
<text text-anchor="middle" x="55" y="-246.5" font-family="Helvetica,sans-Serif" font-size="10.00">GamR::TK::FitBPeak</text>
</a>
</g>
</g>
<!-- Node2 -->
<g id="node2" class="node">
<title>Node2</title>
<g id="a_node2"><a xlink:href="../../d0/db7/namespace_gam_r_1_1_utils.html#a31f74a9ca644d560dc14e19c4dbd773b" target="_top" xlink:title=" ">
<polygon fill="white" stroke="black" points="147.5,-258.5 147.5,-277.5 269.5,-277.5 269.5,-258.5 147.5,-258.5"/>
<text text-anchor="middle" x="208.5" y="-265.5" font-family="Helvetica,sans-Serif" font-size="10.00">GamR::Utils::GetHist1D</text>
</a>
</g>
</g>
<!-- Node1&#45;&gt;Node2 -->
<g id="edge1" class="edge">
<title>Node1&#45;&gt;Node2</title>
<path fill="none" stroke="midnightblue" d="M110.27,-255.81C119.03,-256.9 128.2,-258.06 137.28,-259.19"/>
<polygon fill="midnightblue" stroke="midnightblue" points="137.09,-262.7 147.44,-260.47 137.96,-255.75 137.09,-262.7"/>
</g>
<!-- Node3 -->
<g id="node3" class="node">
<title>Node3</title>
<g id="a_node3"><a xlink:href="../../d0/d74/group___t_k.html#gaa496d15cf9600fa5790ff50c9392b0fd" target="_top" xlink:title=" ">
<polygon fill="white" stroke="black" points="146,-220.5 146,-239.5 271,-239.5 271,-220.5 146,-220.5"/>
<text text-anchor="middle" x="208.5" y="-227.5" font-family="Helvetica,sans-Serif" font-size="10.00">GamR::TK::BPeak::Print</text>
</a>
</g>
</g>
<!-- Node1&#45;&gt;Node3 -->
<g id="edge2" class="edge">
<title>Node1&#45;&gt;Node3</title>
<path fill="none" stroke="midnightblue" d="M110.27,-242.19C118.57,-241.15 127.24,-240.07 135.84,-238.99"/>
<polygon fill="midnightblue" stroke="midnightblue" points="136.4,-242.44 145.89,-237.73 135.53,-235.5 136.4,-242.44"/>
</g>
<!-- Node4 -->
<g id="node4" class="node">
<title>Node4</title>
<g id="a_node4"><a xlink:href="../../d0/d74/group___t_k.html#ga0133d6b49ae4051d478518e61ae0c8a5" target="_top" xlink:title=" ">
<polygon fill="white" stroke="black" points="318,-428.5 318,-447.5 459,-447.5 459,-428.5 318,-428.5"/>
<text text-anchor="middle" x="388.5" y="-435.5" font-family="Helvetica,sans-Serif" font-size="10.00">GamR::TK::BPeak::GetAmp</text>
</a>
</g>
</g>
<!-- Node3&#45;&gt;Node4 -->
<g id="edge3" class="edge">
<title>Node3&#45;&gt;Node4</title>
<path fill="none" stroke="midnightblue" d="M258.46,-239.56C263.14,-242.03 267.46,-245.12 271,-249 323.07,-306.04 253.02,-363.76 307,-419 308.28,-420.31 309.62,-421.53 311.03,-422.68"/>
<polygon fill="midnightblue" stroke="midnightblue" points="309.44,-425.82 319.71,-428.42 313.3,-419.98 309.44,-425.82"/>
</g>
<!-- Node5 -->
<g id="node5" class="node">
<title>Node5</title>
<g id="a_node5"><a xlink:href="../../d0/d74/group___t_k.html#gaa14fdc374518d186c18b0aabeb91898f" target="_top" xlink:title=" ">
<polygon fill="white" stroke="black" points="307,-390.5 307,-409.5 470,-409.5 470,-390.5 307,-390.5"/>
<text text-anchor="middle" x="388.5" y="-397.5" font-family="Helvetica,sans-Serif" font-size="10.00">GamR::TK::BPeak::GetAmpError</text>
</a>
</g>
</g>
<!-- Node3&#45;&gt;Node5 -->
<g id="edge4" class="edge">
<title>Node3&#45;&gt;Node5</title>
<path fill="none" stroke="midnightblue" d="M257.94,-239.61C262.78,-242.07 267.27,-245.14 271,-249 313.27,-292.71 263.27,-338.75 307,-381 308.47,-382.42 310.03,-383.74 311.66,-384.97"/>
<polygon fill="midnightblue" stroke="midnightblue" points="309.99,-388.06 320.33,-390.38 313.7,-382.12 309.99,-388.06"/>
</g>
<!-- Node6 -->
<g id="node6" class="node">
<title>Node6</title>
<g id="a_node6"><a xlink:href="../../d0/d74/group___t_k.html#gad927a2d29f50b92c440bc6ece786ef72" target="_top" xlink:title=" ">
<polygon fill="white" stroke="black" points="317.5,-352.5 317.5,-371.5 459.5,-371.5 459.5,-352.5 317.5,-352.5"/>
<text text-anchor="middle" x="388.5" y="-359.5" font-family="Helvetica,sans-Serif" font-size="10.00">GamR::TK::BPeak::GetArea</text>
</a>
</g>
</g>
<!-- Node3&#45;&gt;Node6 -->
<g id="edge5" class="edge">
<title>Node3&#45;&gt;Node6</title>
<path fill="none" stroke="midnightblue" d="M256.65,-239.55C261.9,-242.01 266.84,-245.11 271,-249 303.66,-279.57 273.32,-313.55 307,-343 308.76,-344.54 310.61,-345.95 312.55,-347.26"/>
<polygon fill="midnightblue" stroke="midnightblue" points="311.09,-350.45 321.52,-352.32 314.53,-344.36 311.09,-350.45"/>
</g>
<!-- Node7 -->
<g id="node7" class="node">
<title>Node7</title>
<g id="a_node7"><a xlink:href="../../d0/d74/group___t_k.html#ga4aaec131e418c8788ab191a4eb6a7fa9" target="_top" xlink:title=" ">
<polygon fill="white" stroke="black" points="317.5,-303 317.5,-333 459.5,-333 459.5,-303 317.5,-303"/>
<text text-anchor="start" x="325.5" y="-321" font-family="Helvetica,sans-Serif" font-size="10.00">GamR::TK::BPeak::GetArea</text>
<text text-anchor="middle" x="388.5" y="-310" font-family="Helvetica,sans-Serif" font-size="10.00">Error</text>
</a>
</g>
</g>
<!-- Node3&#45;&gt;Node7 -->
<g id="edge6" class="edge">
<title>Node3&#45;&gt;Node7</title>
<path fill="none" stroke="midnightblue" d="M252.02,-239.53C258.68,-242.02 265.25,-245.13 271,-249 291.96,-263.11 286.05,-278.88 307,-293 309.94,-294.98 313.05,-296.81 316.26,-298.5"/>
<polygon fill="midnightblue" stroke="midnightblue" points="315.01,-301.79 325.55,-302.91 318.01,-295.46 315.01,-301.79"/>
</g>
<!-- Node8 -->
<g id="node8" class="node">
<title>Node8</title>
<g id="a_node8"><a xlink:href="../../d0/d74/group___t_k.html#ga2bc60e269306be300511aa630417506d" target="_top" xlink:title=" ">
<polygon fill="white" stroke="black" points="317.5,-264.5 317.5,-283.5 459.5,-283.5 459.5,-264.5 317.5,-264.5"/>
<text text-anchor="middle" x="388.5" y="-271.5" font-family="Helvetica,sans-Serif" font-size="10.00">GamR::TK::BPeak::GetCent</text>
</a>
</g>
</g>
<!-- Node3&#45;&gt;Node8 -->
<g id="edge7" class="edge">
<title>Node3&#45;&gt;Node8</title>
<path fill="none" stroke="midnightblue" d="M246.03,-239.55C264.32,-244.28 286.81,-250.03 307,-255 316.52,-257.34 326.69,-259.79 336.48,-262.11"/>
<polygon fill="midnightblue" stroke="midnightblue" points="335.97,-265.59 346.51,-264.49 337.58,-258.78 335.97,-265.59"/>
</g>
<!-- Node9 -->
<g id="node9" class="node">
<title>Node9</title>
<g id="a_node9"><a xlink:href="../../d0/d74/group___t_k.html#ga32d918b4d80ea9e892c18f5936ae1c49" target="_top" xlink:title=" ">
<polygon fill="white" stroke="black" points="317.5,-215 317.5,-245 459.5,-245 459.5,-215 317.5,-215"/>
<text text-anchor="start" x="325.5" y="-233" font-family="Helvetica,sans-Serif" font-size="10.00">GamR::TK::BPeak::GetCent</text>
<text text-anchor="middle" x="388.5" y="-222" font-family="Helvetica,sans-Serif" font-size="10.00">Error</text>
</a>
</g>
</g>
<!-- Node3&#45;&gt;Node9 -->
<g id="edge8" class="edge">
<title>Node3&#45;&gt;Node9</title>
<path fill="none" stroke="midnightblue" d="M271.26,-230C282.87,-230 295.16,-230 307.24,-230"/>
<polygon fill="midnightblue" stroke="midnightblue" points="307.31,-233.5 317.31,-230 307.31,-226.5 307.31,-233.5"/>
</g>
<!-- Node10 -->
<g id="node10" class="node">
<title>Node10</title>
<g id="a_node10"><a xlink:href="../../d0/d74/group___t_k.html#ga86fb9a62fe918832b4fb6f6ae42f1965" target="_top" xlink:title=" ">
<polygon fill="white" stroke="black" points="312.5,-176.5 312.5,-195.5 464.5,-195.5 464.5,-176.5 312.5,-176.5"/>
<text text-anchor="middle" x="388.5" y="-183.5" font-family="Helvetica,sans-Serif" font-size="10.00">GamR::TK::BPeak::GetCounts</text>
</a>
</g>
</g>
<!-- Node3&#45;&gt;Node10 -->
<g id="edge9" class="edge">
<title>Node3&#45;&gt;Node10</title>
<path fill="none" stroke="midnightblue" d="M248.12,-220.45C274.83,-213.85 310.56,-205.02 339.16,-197.95"/>
<polygon fill="midnightblue" stroke="midnightblue" points="340.08,-201.33 348.95,-195.53 338.4,-194.53 340.08,-201.33"/>
</g>
<!-- Node11 -->
<g id="node11" class="node">
<title>Node11</title>
<g id="a_node11"><a xlink:href="../../d0/d74/group___t_k.html#gac083ac86c150085adae965936f41bb49" target="_top" xlink:title=" ">
<polygon fill="white" stroke="black" points="312.5,-127 312.5,-157 464.5,-157 464.5,-127 312.5,-127"/>
<text text-anchor="start" x="320.5" y="-145" font-family="Helvetica,sans-Serif" font-size="10.00">GamR::TK::BPeak::GetCounts</text>
<text text-anchor="middle" x="388.5" y="-134" font-family="Helvetica,sans-Serif" font-size="10.00">Error</text>
</a>
</g>
</g>
<!-- Node3&#45;&gt;Node11 -->
<g id="edge10" class="edge">
<title>Node3&#45;&gt;Node11</title>
<path fill="none" stroke="midnightblue" d="M221.79,-220.48C239.67,-206.99 274.32,-182.28 307,-167 311.89,-164.71 317.04,-162.57 322.27,-160.57"/>
<polygon fill="midnightblue" stroke="midnightblue" points="323.54,-163.83 331.75,-157.13 321.16,-157.25 323.54,-163.83"/>
</g>
<!-- Node12 -->
<g id="node12" class="node">
<title>Node12</title>
<g id="a_node12"><a xlink:href="../../d0/d74/group___t_k.html#gaa2200a38a3956d5e129aeeca03b2952a" target="_top" xlink:title=" ">
<polygon fill="white" stroke="black" points="315.5,-88.5 315.5,-107.5 461.5,-107.5 461.5,-88.5 315.5,-88.5"/>
<text text-anchor="middle" x="388.5" y="-95.5" font-family="Helvetica,sans-Serif" font-size="10.00">GamR::TK::BPeak::GetWidth</text>
</a>
</g>
</g>
<!-- Node3&#45;&gt;Node12 -->
<g id="edge11" class="edge">
<title>Node3&#45;&gt;Node12</title>
<path fill="none" stroke="midnightblue" d="M214.95,-220.46C227.9,-198.66 262.8,-145.04 307,-118 311.34,-115.34 316.02,-113.04 320.86,-111.04"/>
<polygon fill="midnightblue" stroke="midnightblue" points="322.13,-114.3 330.31,-107.56 319.72,-107.73 322.13,-114.3"/>
</g>
<!-- Node13 -->
<g id="node13" class="node">
<title>Node13</title>
<g id="a_node13"><a xlink:href="../../d0/d74/group___t_k.html#ga7673c2803d0941563430bf8ef217da80" target="_top" xlink:title=" ">
<polygon fill="white" stroke="black" points="315.5,-39 315.5,-69 461.5,-69 461.5,-39 315.5,-39"/>
<text text-anchor="start" x="323.5" y="-57" font-family="Helvetica,sans-Serif" font-size="10.00">GamR::TK::BPeak::GetWidth</text>
<text text-anchor="middle" x="388.5" y="-46" font-family="Helvetica,sans-Serif" font-size="10.00">Error</text>
</a>
</g>
</g>
<!-- Node3&#45;&gt;Node13 -->
<g id="edge12" class="edge">
<title>Node3&#45;&gt;Node13</title>
<path fill="none" stroke="midnightblue" d="M213.05,-220.2C223.25,-193.4 255.3,-118.24 307,-79 309.48,-77.11 312.11,-75.37 314.84,-73.75"/>
<polygon fill="midnightblue" stroke="midnightblue" points="316.63,-76.77 323.87,-69.03 313.39,-70.57 316.63,-76.77"/>
</g>
<!-- Node14 -->
<g id="node14" class="node">
<title>Node14</title>
<g id="a_node14"><a xlink:href="../../d0/db7/namespace_gam_r_1_1_utils.html#a80bc6c0c1ecd5d28cd4f9e3ae38f92ed" target="_top" xlink:title=" ">
<polygon fill="white" stroke="black" points="333,-0.5 333,-19.5 444,-19.5 444,-0.5 333,-0.5"/>
<text text-anchor="middle" x="388.5" y="-7.5" font-family="Helvetica,sans-Serif" font-size="10.00">GamR::Utils::wrresult</text>
</a>
</g>
</g>
<!-- Node3&#45;&gt;Node14 -->
<g id="edge13" class="edge">
<title>Node3&#45;&gt;Node14</title>
<path fill="none" stroke="midnightblue" d="M211.23,-220.27C217.55,-187.8 242.44,-82.25 307,-30 311.92,-26.02 317.53,-22.81 323.44,-20.24"/>
<polygon fill="midnightblue" stroke="midnightblue" points="324.78,-23.47 332.92,-16.68 322.33,-16.91 324.78,-23.47"/>
</g>
</g>
</svg>
        <g id="navigator" transform="translate(0 0)" fill="#404254">
                <rect fill="#f2f5e9" fill-opacity="0.5" stroke="#606060" stroke-width=".5" x="0" y="0" width="60" height="60"/>
                <use id="zoomplus" xlink:href="#zoomPlus" x="17" y="9" onmousedown="handleZoom(evt,'in')"/>
                <use id="zoomminus" xlink:href="#zoomMin" x="42" y="9" onmousedown="handleZoom(evt,'out')"/>
                <use id="reset" xlink:href="#resetDef" x="30" y="36" onmousedown="handleReset()"/>
                <g id="arrowUp" xlink:href="#dirArrow" transform="translate(30 24)" onmousedown="handlePan(0,-1)">
                  <use xlink:href="#rim" fill="#404040">
                        <set attributeName="fill" to="#808080" begin="arrowUp.mouseover" end="arrowUp.mouseout"/>
                  </use>
                  <path fill="none" stroke="white" stroke-width="1.5" d="M0,-3.0v7 M-2.5,-0.5L0,-3.0L2.5,-0.5"/>
                </g>
                <g id="arrowRight" xlink:href="#dirArrow" transform="rotate(90) translate(36 -43)" onmousedown="handlePan(1,0)">
                  <use xlink:href="#rim" fill="#404040">
                        <set attributeName="fill" to="#808080" begin="arrowRight.mouseover" end="arrowRight.mouseout"/>
                  </use>
                  <path fill="none" stroke="white" stroke-width="1.5" d="M0,-3.0v7 M-2.5,-0.5L0,-3.0L2.5,-0.5"/>
                </g>
                <g id="arrowDown" xlink:href="#dirArrow" transform="rotate(180) translate(-30 -48)" onmousedown="handlePan(0,1)">
                  <use xlink:href="#rim" fill="#404040">
                        <set attributeName="fill" to="#808080" begin="arrowDown.mouseover" end="arrowDown.mouseout"/>
                  </use>
                  <path fill="none" stroke="white" stroke-width="1.5" d="M0,-3.0v7 M-2.5,-0.5L0,-3.0L2.5,-0.5"/>
                </g>
                <g id="arrowLeft" xlink:href="#dirArrow" transform="rotate(270) translate(-36 17)" onmousedown="handlePan(-1,0)">
                  <use xlink:href="#rim" fill="#404040">
                        <set attributeName="fill" to="#808080" begin="arrowLeft.mouseover" end="arrowLeft.mouseout"/>
                  </use>
                  <path fill="none" stroke="white" stroke-width="1.5" d="M0,-3.0v7 M-2.5,-0.5L0,-3.0L2.5,-0.5"/>
                </g>
        </g>
        <svg viewBox="0 0 15 15" width="100%" height="30px" preserveAspectRatio="xMaxYMin meet">
         <g id="arrow_out" transform="scale(0.3 0.3)">
          <a xlink:href="group___t_k_gaf641b8c1f292803f8695310a0aee1896_cgraph_org.svg" target="_base">
           <rect id="button" ry="5" rx="5" y="6" x="6" height="38" width="38"
                fill="#f2f5e9" fill-opacity="0.5" stroke="#606060" stroke-width="1.0"/>
           <path id="arrow"
             d="M 11.500037,31.436501 C 11.940474,20.09759 22.043105,11.32322 32.158766,21.979434 L 37.068811,17.246167 C 37.068811,17.246167 37.088388,32 37.088388,32 L 22.160133,31.978069 C 22.160133,31.978069 26.997745,27.140456 26.997745,27.140456 C 18.528582,18.264221 13.291696,25.230495 11.500037,31.436501 z"
             style="fill:#404040;"/>
          </a>
         </g>
        </svg>
</svg>
