<?xml version="1.0" encoding="UTF-8" standalone="no"?>
<!DOCTYPE svg PUBLIC "-//W3C//DTD SVG 1.1//EN"
 "http://www.w3.org/Graphics/SVG/1.1/DTD/svg11.dtd">
<!-- Generated by graphviz version 2.49.3 (20211023.0002)
 -->
<!-- Title: /Users/99j/git/gamma&#45;root/src/lib/nucleus/Photon.hh Pages: 1 -->
<svg width="787pt" height="206pt"
 viewBox="0.00 0.00 786.50 206.00" xmlns="http://www.w3.org/2000/svg" xmlns:xlink="http://www.w3.org/1999/xlink">
<g id="graph0" class="graph" transform="scale(1 1) rotate(0) translate(4 202)">
<title>/Users/99j/git/gamma&#45;root/src/lib/nucleus/Photon.hh</title>
<polygon fill="white" stroke="transparent" points="-4,4 -4,-202 782.5,-202 782.5,4 -4,4"/>
<!-- Node1 -->
<g id="node1" class="node">
<title>Node1</title>
<g id="a_node1"><a xlink:title=" ">
<polygon fill="#bfbfbf" stroke="black" points="315,-156.5 315,-197.5 426,-197.5 426,-156.5 315,-156.5"/>
<text text-anchor="start" x="323" y="-185.5" font-family="Helvetica,sans-Serif" font-size="10.00">/Users/99j/git/gamma</text>
<text text-anchor="start" x="323" y="-174.5" font-family="Helvetica,sans-Serif" font-size="10.00">&#45;root/src/lib/nucleus</text>
<text text-anchor="middle" x="370.5" y="-163.5" font-family="Helvetica,sans-Serif" font-size="10.00">/Photon.hh</text>
</a>
</g>
</g>
<!-- Node2 -->
<g id="node2" class="node">
<title>Node2</title>
<g id="a_node2"><a xlink:href="../../d6/d60/_time_walk_8hh.html" target="_top" xlink:title=" ">
<polygon fill="white" stroke="black" points="0,-78.5 0,-119.5 113,-119.5 113,-78.5 0,-78.5"/>
<text text-anchor="start" x="8" y="-107.5" font-family="Helvetica,sans-Serif" font-size="10.00">/Users/99j/git/gamma</text>
<text text-anchor="start" x="8" y="-96.5" font-family="Helvetica,sans-Serif" font-size="10.00">&#45;root/src/lib/processor</text>
<text text-anchor="middle" x="56.5" y="-85.5" font-family="Helvetica,sans-Serif" font-size="10.00">/TimeWalk.hh</text>
</a>
</g>
</g>
<!-- Node1&#45;&gt;Node2 -->
<g id="edge1" class="edge">
<title>Node1&#45;&gt;Node2</title>
<path fill="none" stroke="midnightblue" d="M305.02,-162.72C254.61,-152.15 183.32,-136.44 121.5,-120 118.76,-119.27 115.97,-118.5 113.15,-117.71"/>
<polygon fill="midnightblue" stroke="midnightblue" points="304.31,-166.15 314.82,-164.76 305.74,-159.29 304.31,-166.15"/>
</g>
<!-- Node4 -->
<g id="node4" class="node">
<title>Node4</title>
<g id="a_node4"><a xlink:href="../../dc/d02/_gated_time_difference_8hh.html" target="_top" xlink:title=" ">
<polygon fill="white" stroke="black" points="131,-78.5 131,-119.5 268,-119.5 268,-78.5 131,-78.5"/>
<text text-anchor="start" x="139" y="-107.5" font-family="Helvetica,sans-Serif" font-size="10.00">/Users/99j/git/gamma</text>
<text text-anchor="start" x="139" y="-96.5" font-family="Helvetica,sans-Serif" font-size="10.00">&#45;root/src/lib/sort/GatedTime</text>
<text text-anchor="middle" x="199.5" y="-85.5" font-family="Helvetica,sans-Serif" font-size="10.00">Difference.hh</text>
</a>
</g>
</g>
<!-- Node1&#45;&gt;Node4 -->
<g id="edge3" class="edge">
<title>Node1&#45;&gt;Node4</title>
<path fill="none" stroke="midnightblue" d="M317.24,-152.33C293.51,-141.78 265.9,-129.51 243.39,-119.51"/>
<polygon fill="midnightblue" stroke="midnightblue" points="315.9,-155.57 326.46,-156.43 318.75,-149.17 315.9,-155.57"/>
</g>
<!-- Node6 -->
<g id="node6" class="node">
<title>Node6</title>
<g id="a_node6"><a xlink:href="../../d7/d98/_time_difference_8hh.html" target="_top" xlink:title=" ">
<polygon fill="white" stroke="black" points="286,-84 286,-114 455,-114 455,-84 286,-84"/>
<text text-anchor="start" x="294" y="-102" font-family="Helvetica,sans-Serif" font-size="10.00">/Users/99j/git/gamma</text>
<text text-anchor="middle" x="370.5" y="-91" font-family="Helvetica,sans-Serif" font-size="10.00">&#45;root/src/lib/sort/TimeDifference.hh</text>
</a>
</g>
</g>
<!-- Node1&#45;&gt;Node6 -->
<g id="edge5" class="edge">
<title>Node1&#45;&gt;Node6</title>
<path fill="none" stroke="midnightblue" d="M370.5,-146.28C370.5,-135.25 370.5,-123.25 370.5,-114.23"/>
<polygon fill="midnightblue" stroke="midnightblue" points="367,-146.43 370.5,-156.43 374,-146.43 367,-146.43"/>
</g>
<!-- Node7 -->
<g id="node7" class="node">
<title>Node7</title>
<g id="a_node7"><a xlink:href="../../de/d1d/_time_difference_pairs_8hh.html" target="_top" xlink:title=" ">
<polygon fill="white" stroke="black" points="473,-78.5 473,-119.5 628,-119.5 628,-78.5 473,-78.5"/>
<text text-anchor="start" x="481" y="-107.5" font-family="Helvetica,sans-Serif" font-size="10.00">/Users/99j/git/gamma</text>
<text text-anchor="start" x="481" y="-96.5" font-family="Helvetica,sans-Serif" font-size="10.00">&#45;root/src/lib/sort/TimeDifference</text>
<text text-anchor="middle" x="550.5" y="-85.5" font-family="Helvetica,sans-Serif" font-size="10.00">Pairs.hh</text>
</a>
</g>
</g>
<!-- Node1&#45;&gt;Node7 -->
<g id="edge7" class="edge">
<title>Node1&#45;&gt;Node7</title>
<path fill="none" stroke="midnightblue" d="M426.23,-152.47C451.28,-141.89 480.5,-129.56 504.3,-119.51"/>
<polygon fill="midnightblue" stroke="midnightblue" points="424.71,-149.31 416.85,-156.43 427.43,-155.76 424.71,-149.31"/>
</g>
<!-- Node8 -->
<g id="node8" class="node">
<title>Node8</title>
<g id="a_node8"><a xlink:href="../../dd/d62/_time_walk_cal_8hh.html" target="_top" xlink:title=" ">
<polygon fill="white" stroke="black" points="646.5,-78.5 646.5,-119.5 778.5,-119.5 778.5,-78.5 646.5,-78.5"/>
<text text-anchor="start" x="654.5" y="-107.5" font-family="Helvetica,sans-Serif" font-size="10.00">/Users/99j/git/gamma</text>
<text text-anchor="start" x="654.5" y="-96.5" font-family="Helvetica,sans-Serif" font-size="10.00">&#45;root/src/lib/sort/TimeWalk</text>
<text text-anchor="middle" x="712.5" y="-85.5" font-family="Helvetica,sans-Serif" font-size="10.00">Cal.hh</text>
</a>
</g>
</g>
<!-- Node1&#45;&gt;Node8 -->
<g id="edge9" class="edge">
<title>Node1&#45;&gt;Node8</title>
<path fill="none" stroke="midnightblue" d="M436,-163.29C490.19,-152.52 569.07,-136.29 637.5,-120 640.38,-119.31 643.33,-118.6 646.3,-117.86"/>
<polygon fill="midnightblue" stroke="midnightblue" points="435.31,-159.85 426.18,-165.23 436.67,-166.72 435.31,-159.85"/>
</g>
<!-- Node3 -->
<g id="node3" class="node">
<title>Node3</title>
<g id="a_node3"><a xlink:href="../../dd/d98/_time_walk_8cc.html" target="_top" xlink:title=" ">
<polygon fill="white" stroke="black" points="0,-0.5 0,-41.5 113,-41.5 113,-0.5 0,-0.5"/>
<text text-anchor="start" x="8" y="-29.5" font-family="Helvetica,sans-Serif" font-size="10.00">/Users/99j/git/gamma</text>
<text text-anchor="start" x="8" y="-18.5" font-family="Helvetica,sans-Serif" font-size="10.00">&#45;root/src/lib/processor</text>
<text text-anchor="middle" x="56.5" y="-7.5" font-family="Helvetica,sans-Serif" font-size="10.00">/TimeWalk.cc</text>
</a>
</g>
</g>
<!-- Node2&#45;&gt;Node3 -->
<g id="edge2" class="edge">
<title>Node2&#45;&gt;Node3</title>
<path fill="none" stroke="midnightblue" d="M56.5,-68.3C56.5,-59.3 56.5,-49.65 56.5,-41.51"/>
<polygon fill="midnightblue" stroke="midnightblue" points="53,-68.43 56.5,-78.43 60,-68.43 53,-68.43"/>
</g>
<!-- Node5 -->
<g id="node5" class="node">
<title>Node5</title>
<g id="a_node5"><a xlink:href="../../d9/da5/gamrsort_8cc.html" target="_top" xlink:title=" ">
<polygon fill="white" stroke="black" points="404.5,-0.5 404.5,-41.5 516.5,-41.5 516.5,-0.5 404.5,-0.5"/>
<text text-anchor="start" x="412.5" y="-29.5" font-family="Helvetica,sans-Serif" font-size="10.00">/Users/99j/git/gamma</text>
<text text-anchor="start" x="412.5" y="-18.5" font-family="Helvetica,sans-Serif" font-size="10.00">&#45;root/src/bin/gamrsort</text>
<text text-anchor="middle" x="460.5" y="-7.5" font-family="Helvetica,sans-Serif" font-size="10.00">/gamrsort.cc</text>
</a>
</g>
</g>
<!-- Node4&#45;&gt;Node5 -->
<g id="edge4" class="edge">
<title>Node4&#45;&gt;Node5</title>
<path fill="none" stroke="midnightblue" d="M276.38,-75.61C317.31,-63.69 366.76,-49.3 404.1,-38.42"/>
<polygon fill="midnightblue" stroke="midnightblue" points="275.34,-72.27 266.71,-78.43 277.29,-78.99 275.34,-72.27"/>
</g>
<!-- Node6&#45;&gt;Node5 -->
<g id="edge6" class="edge">
<title>Node6&#45;&gt;Node5</title>
<path fill="none" stroke="midnightblue" d="M395.16,-77.18C408.27,-66.11 424.3,-52.57 437.19,-41.68"/>
<polygon fill="midnightblue" stroke="midnightblue" points="392.81,-74.58 387.43,-83.7 397.33,-79.93 392.81,-74.58"/>
</g>
<!-- Node7&#45;&gt;Node5 -->
<g id="edge8" class="edge">
<title>Node7&#45;&gt;Node5</title>
<path fill="none" stroke="midnightblue" d="M519.45,-71.78C507.68,-61.84 494.51,-50.72 483.6,-41.51"/>
<polygon fill="midnightblue" stroke="midnightblue" points="517.42,-74.65 527.32,-78.43 521.94,-69.3 517.42,-74.65"/>
</g>
<!-- Node8&#45;&gt;Node5 -->
<g id="edge10" class="edge">
<title>Node8&#45;&gt;Node5</title>
<path fill="none" stroke="midnightblue" d="M637.91,-75.5C599.07,-63.79 552.36,-49.7 516.62,-38.92"/>
<polygon fill="midnightblue" stroke="midnightblue" points="637.02,-78.89 647.6,-78.43 639.04,-72.19 637.02,-78.89"/>
</g>
</g>
</svg>
