<?xml version="1.0" encoding="UTF-8" standalone="no"?>
<!DOCTYPE svg PUBLIC "-//W3C//DTD SVG 1.1//EN"
 "http://www.w3.org/Graphics/SVG/1.1/DTD/svg11.dtd">
<!-- Generated by graphviz version 6.0.2 (20221011.1828)
 -->
<!-- Title: src/lib/angdist/AngDist.cc Pages: 1 -->
<svg width="1087pt" height="247pt"
 viewBox="0.00 0.00 1086.50 247.00" xmlns="http://www.w3.org/2000/svg" xmlns:xlink="http://www.w3.org/1999/xlink">
<g id="graph0" class="graph" transform="scale(1 1) rotate(0) translate(4 243)">
<title>src/lib/angdist/AngDist.cc</title>
<!-- Node1 -->
<g id="node1" class="node">
<title>Node1</title>
<g id="a_node1"><a xlink:title=" ">
<polygon fill="#999999" stroke="#666666" points="755,-239 627,-239 627,-220 755,-220 755,-239"/>
<text text-anchor="middle" x="691" y="-227" font-family="Helvetica,sans-Serif" font-size="10.00">src/lib/angdist/AngDist.cc</text>
</a>
</g>
</g>
<!-- Node2 -->
<g id="node2" class="node">
<title>Node2</title>
<g id="a_node2"><a xlink:title=" ">
<polygon fill="#e0e0e0" stroke="#999999" points="446,-74 402,-74 402,-55 446,-55 446,-74"/>
<text text-anchor="middle" x="424" y="-62" font-family="Helvetica,sans-Serif" font-size="10.00">cmath</text>
</a>
</g>
</g>
<!-- Node1&#45;&gt;Node2 -->
<g id="edge1" class="edge">
<title>Node1&#45;&gt;Node2</title>
<path fill="none" stroke="#63b8ff" d="M677.02,-219.97C633.6,-193.46 500.74,-112.35 446.96,-79.52"/>
<polygon fill="#63b8ff" stroke="#63b8ff" points="448.52,-76.37 438.16,-74.15 444.87,-82.34 448.52,-76.37"/>
</g>
<!-- Node3 -->
<g id="node3" class="node">
<title>Node3</title>
<g id="a_node3"><a xlink:title=" ">
<polygon fill="#e0e0e0" stroke="#999999" points="383.5,-74 330.5,-74 330.5,-55 383.5,-55 383.5,-74"/>
<text text-anchor="middle" x="357" y="-62" font-family="Helvetica,sans-Serif" font-size="10.00">complex</text>
</a>
</g>
</g>
<!-- Node1&#45;&gt;Node3 -->
<g id="edge2" class="edge">
<title>Node1&#45;&gt;Node3</title>
<path fill="none" stroke="#63b8ff" d="M669.69,-219.9C648.53,-211.25 615.25,-197.3 587,-184 511.03,-148.23 423.37,-101.51 381.6,-78.91"/>
<polygon fill="#63b8ff" stroke="#63b8ff" points="383.16,-75.77 372.7,-74.08 379.82,-81.93 383.16,-75.77"/>
</g>
<!-- Node4 -->
<g id="node4" class="node">
<title>Node4</title>
<g id="a_node4"><a xlink:title=" ">
<polygon fill="#e0e0e0" stroke="#999999" points="967,-184 913,-184 913,-165 967,-165 967,-184"/>
<text text-anchor="middle" x="940" y="-172" font-family="Helvetica,sans-Serif" font-size="10.00">iostream</text>
</a>
</g>
</g>
<!-- Node1&#45;&gt;Node4 -->
<g id="edge3" class="edge">
<title>Node1&#45;&gt;Node4</title>
<path fill="none" stroke="#63b8ff" d="M731.01,-219.98C778.42,-209.89 856.8,-193.21 902.9,-183.4"/>
<polygon fill="#63b8ff" stroke="#63b8ff" points="903.73,-186.8 912.78,-181.29 902.27,-179.95 903.73,-186.8"/>
</g>
<!-- Node5 -->
<g id="node5" class="node">
<title>Node5</title>
<g id="a_node5"><a xlink:title=" ">
<polygon fill="#e0e0e0" stroke="#999999" points="713,-19 669,-19 669,0 713,0 713,-19"/>
<text text-anchor="middle" x="691" y="-7" font-family="Helvetica,sans-Serif" font-size="10.00">vector</text>
</a>
</g>
</g>
<!-- Node1&#45;&gt;Node5 -->
<g id="edge4" class="edge">
<title>Node1&#45;&gt;Node5</title>
<path fill="none" stroke="#63b8ff" d="M709.78,-219.91C760.93,-195.34 895.59,-122.28 845,-55 830.38,-35.56 763.94,-21.92 723.25,-15.23"/>
<polygon fill="#63b8ff" stroke="#63b8ff" points="723.69,-11.75 713.26,-13.63 722.59,-18.66 723.69,-11.75"/>
</g>
<!-- Node6 -->
<g id="node6" class="node">
<title>Node6</title>
<g id="a_node6"><a xlink:title=" ">
<polygon fill="#e0e0e0" stroke="#999999" points="1078.5,-184 985.5,-184 985.5,-165 1078.5,-165 1078.5,-184"/>
<text text-anchor="middle" x="1032" y="-172" font-family="Helvetica,sans-Serif" font-size="10.00">Math/SpecFunc.h</text>
</a>
</g>
</g>
<!-- Node1&#45;&gt;Node6 -->
<g id="edge5" class="edge">
<title>Node1&#45;&gt;Node6</title>
<path fill="none" stroke="#63b8ff" d="M745.79,-219.98C808.78,-210.19 911.68,-194.2 975.42,-184.29"/>
<polygon fill="#63b8ff" stroke="#63b8ff" points="975.96,-187.75 985.3,-182.76 974.88,-180.84 975.96,-187.75"/>
</g>
<!-- Node7 -->
<g id="node7" class="node">
<title>Node7</title>
<g id="a_node7"><a xlink:href="../../da/da2/_ang_dist_8hh.html" target="_top" xlink:title=" ">
<polygon fill="white" stroke="#666666" points="723,-184 659,-184 659,-165 723,-165 723,-184"/>
<text text-anchor="middle" x="691" y="-172" font-family="Helvetica,sans-Serif" font-size="10.00">AngDist.hh</text>
</a>
</g>
</g>
<!-- Node1&#45;&gt;Node7 -->
<g id="edge6" class="edge">
<title>Node1&#45;&gt;Node7</title>
<path fill="none" stroke="#63b8ff" d="M691,-219.75C691,-212.8 691,-202.85 691,-194.13"/>
<polygon fill="#63b8ff" stroke="#63b8ff" points="694.5,-194.09 691,-184.09 687.5,-194.09 694.5,-194.09"/>
</g>
<!-- Node12 -->
<g id="node12" class="node">
<title>Node12</title>
<g id="a_node12"><a xlink:href="../../df/d67/_wigner_d_8hh.html" target="_top" xlink:title=" ">
<polygon fill="white" stroke="#666666" points="390,-184 324,-184 324,-165 390,-165 390,-184"/>
<text text-anchor="middle" x="357" y="-172" font-family="Helvetica,sans-Serif" font-size="10.00">WignerD.hh</text>
</a>
</g>
</g>
<!-- Node1&#45;&gt;Node12 -->
<g id="edge20" class="edge">
<title>Node1&#45;&gt;Node12</title>
<path fill="none" stroke="#63b8ff" d="M637.34,-219.98C571.44,-209.53 460.98,-192 400.25,-182.36"/>
<polygon fill="#63b8ff" stroke="#63b8ff" points="400.66,-178.88 390.23,-180.77 399.56,-185.8 400.66,-178.88"/>
</g>
<!-- Node7&#45;&gt;Node3 -->
<g id="edge8" class="edge">
<title>Node7&#45;&gt;Node3</title>
<path fill="none" stroke="#63b8ff" d="M664.51,-164.94C605.07,-145.72 461,-99.13 393.29,-77.24"/>
<polygon fill="#63b8ff" stroke="#63b8ff" points="394.08,-73.81 383.49,-74.07 391.93,-80.47 394.08,-73.81"/>
</g>
<!-- Node7&#45;&gt;Node5 -->
<g id="edge7" class="edge">
<title>Node7&#45;&gt;Node5</title>
<path fill="none" stroke="#63b8ff" d="M716.77,-164.97C765.69,-147.4 864.05,-104.61 828,-55 804.23,-22.28 755.82,-13.14 723.39,-10.85"/>
<polygon fill="#63b8ff" stroke="#63b8ff" points="723.23,-7.34 713.06,-10.31 722.86,-14.33 723.23,-7.34"/>
</g>
<!-- Node8 -->
<g id="node8" class="node">
<title>Node8</title>
<g id="a_node8"><a xlink:title=" ">
<polygon fill="#e0e0e0" stroke="#999999" points="818.5,-74 759.5,-74 759.5,-55 818.5,-55 818.5,-74"/>
<text text-anchor="middle" x="789" y="-62" font-family="Helvetica,sans-Serif" font-size="10.00">functional</text>
</a>
</g>
</g>
<!-- Node7&#45;&gt;Node8 -->
<g id="edge9" class="edge">
<title>Node7&#45;&gt;Node8</title>
<path fill="none" stroke="#63b8ff" d="M699.02,-164.66C715.47,-146.54 753.24,-104.91 774.24,-81.77"/>
<polygon fill="#63b8ff" stroke="#63b8ff" points="777.02,-83.92 781.14,-74.16 771.83,-79.21 777.02,-83.92"/>
</g>
<!-- Node9 -->
<g id="node9" class="node">
<title>Node9</title>
<g id="a_node9"><a xlink:href="../../de/dcb/_solid_attenuation_8hh.html" target="_top" xlink:title=" ">
<polygon fill="white" stroke="#666666" points="741.5,-74 640.5,-74 640.5,-55 741.5,-55 741.5,-74"/>
<text text-anchor="middle" x="691" y="-62" font-family="Helvetica,sans-Serif" font-size="10.00">SolidAttenuation.hh</text>
</a>
</g>
</g>
<!-- Node7&#45;&gt;Node9 -->
<g id="edge10" class="edge">
<title>Node7&#45;&gt;Node9</title>
<path fill="none" stroke="#63b8ff" d="M691,-164.66C691,-147.17 691,-107.8 691,-84.27"/>
<polygon fill="#63b8ff" stroke="#63b8ff" points="694.5,-84.16 691,-74.16 687.5,-84.16 694.5,-84.16"/>
</g>
<!-- Node10 -->
<g id="node10" class="node">
<title>Node10</title>
<g id="a_node10"><a xlink:href="../../da/da6/_stat_tensor_8hh.html" target="_top" xlink:title=" ">
<polygon fill="white" stroke="#666666" points="650.5,-129 573.5,-129 573.5,-110 650.5,-110 650.5,-129"/>
<text text-anchor="middle" x="612" y="-117" font-family="Helvetica,sans-Serif" font-size="10.00">StatTensor.hh</text>
</a>
</g>
</g>
<!-- Node7&#45;&gt;Node10 -->
<g id="edge12" class="edge">
<title>Node7&#45;&gt;Node10</title>
<path fill="none" stroke="#63b8ff" d="M678.31,-164.98C666.17,-156.84 647.64,-144.41 633.25,-134.76"/>
<polygon fill="#63b8ff" stroke="#63b8ff" points="635.18,-131.84 624.92,-129.17 631.28,-137.65 635.18,-131.84"/>
</g>
<!-- Node9&#45;&gt;Node5 -->
<g id="edge11" class="edge">
<title>Node9&#45;&gt;Node5</title>
<path fill="none" stroke="#63b8ff" d="M691,-54.75C691,-47.8 691,-37.85 691,-29.13"/>
<polygon fill="#63b8ff" stroke="#63b8ff" points="694.5,-29.09 691,-19.09 687.5,-29.09 694.5,-29.09"/>
</g>
<!-- Node10&#45;&gt;Node2 -->
<g id="edge13" class="edge">
<title>Node10&#45;&gt;Node2</title>
<path fill="none" stroke="#63b8ff" d="M581.79,-109.98C547.31,-100.26 491.15,-84.43 455.95,-74.51"/>
<polygon fill="#63b8ff" stroke="#63b8ff" points="456.76,-71.1 446.18,-71.75 454.86,-77.84 456.76,-71.1"/>
</g>
<!-- Node10&#45;&gt;Node3 -->
<g id="edge14" class="edge">
<title>Node10&#45;&gt;Node3</title>
<path fill="none" stroke="#63b8ff" d="M573.15,-110.99C531.37,-102.83 462.72,-89.17 393.87,-74.13"/>
<polygon fill="#63b8ff" stroke="#63b8ff" points="394.23,-70.63 383.72,-71.91 392.73,-77.47 394.23,-70.63"/>
</g>
<!-- Node10&#45;&gt;Node5 -->
<g id="edge15" class="edge">
<title>Node10&#45;&gt;Node5</title>
<path fill="none" stroke="#63b8ff" d="M613.01,-109.96C614.88,-97.03 619.87,-72.18 632,-55 640.79,-42.56 654.12,-32.08 665.88,-24.43"/>
<polygon fill="#63b8ff" stroke="#63b8ff" points="667.79,-27.36 674.47,-19.14 664.12,-21.4 667.79,-27.36"/>
</g>
<!-- Node10&#45;&gt;Node8 -->
<g id="edge16" class="edge">
<title>Node10&#45;&gt;Node8</title>
<path fill="none" stroke="#63b8ff" d="M640.44,-109.98C670.28,-101.05 717.38,-86.94 750.53,-77.02"/>
<polygon fill="#63b8ff" stroke="#63b8ff" points="751.76,-80.3 760.34,-74.08 749.76,-73.6 751.76,-80.3"/>
</g>
<!-- Node10&#45;&gt;Node9 -->
<g id="edge19" class="edge">
<title>Node10&#45;&gt;Node9</title>
<path fill="none" stroke="#63b8ff" d="M624.69,-109.98C636.83,-101.84 655.36,-89.41 669.75,-79.76"/>
<polygon fill="#63b8ff" stroke="#63b8ff" points="671.72,-82.65 678.08,-74.17 667.82,-76.84 671.72,-82.65"/>
</g>
<!-- Node11 -->
<g id="node11" class="node">
<title>Node11</title>
<g id="a_node11"><a xlink:href="../../d0/d3d/_population_parameter_8hh.html" target="_top" xlink:title=" ">
<polygon fill="white" stroke="#666666" points="584,-74 464,-74 464,-55 584,-55 584,-74"/>
<text text-anchor="middle" x="524" y="-62" font-family="Helvetica,sans-Serif" font-size="10.00">PopulationParameter.hh</text>
</a>
</g>
</g>
<!-- Node10&#45;&gt;Node11 -->
<g id="edge17" class="edge">
<title>Node10&#45;&gt;Node11</title>
<path fill="none" stroke="#63b8ff" d="M597.86,-109.98C584.21,-101.77 563.31,-89.18 547.22,-79.49"/>
<polygon fill="#63b8ff" stroke="#63b8ff" points="548.77,-76.33 538.4,-74.17 545.16,-82.33 548.77,-76.33"/>
</g>
<!-- Node11&#45;&gt;Node5 -->
<g id="edge18" class="edge">
<title>Node11&#45;&gt;Node5</title>
<path fill="none" stroke="#63b8ff" d="M550.83,-54.98C580.37,-45.61 627.81,-30.55 659.19,-20.59"/>
<polygon fill="#63b8ff" stroke="#63b8ff" points="660.3,-23.91 668.78,-17.55 658.19,-17.24 660.3,-23.91"/>
</g>
<!-- Node12&#45;&gt;Node3 -->
<g id="edge21" class="edge">
<title>Node12&#45;&gt;Node3</title>
<path fill="none" stroke="#63b8ff" d="M357,-164.66C357,-147.17 357,-107.8 357,-84.27"/>
<polygon fill="#63b8ff" stroke="#63b8ff" points="360.5,-84.16 357,-74.16 353.5,-84.16 360.5,-84.16"/>
</g>
<!-- Node13 -->
<g id="node13" class="node">
<title>Node13</title>
<g id="a_node13"><a xlink:href="../../d7/db9/_utilities_8hh.html" target="_top" xlink:title=" ">
<polygon fill="white" stroke="#666666" points="273.5,-129 190.5,-129 190.5,-110 273.5,-110 273.5,-129"/>
<text text-anchor="middle" x="232" y="-117" font-family="Helvetica,sans-Serif" font-size="10.00">utils/Utilities.hh</text>
</a>
</g>
</g>
<!-- Node12&#45;&gt;Node13 -->
<g id="edge22" class="edge">
<title>Node12&#45;&gt;Node13</title>
<path fill="none" stroke="#63b8ff" d="M336.92,-164.98C316.63,-156.38 285.04,-142.99 261.83,-133.15"/>
<polygon fill="#63b8ff" stroke="#63b8ff" points="263.02,-129.85 252.45,-129.17 260.29,-136.3 263.02,-129.85"/>
</g>
<!-- Node13&#45;&gt;Node3 -->
<g id="edge25" class="edge">
<title>Node13&#45;&gt;Node3</title>
<path fill="none" stroke="#63b8ff" d="M252.08,-109.98C272.37,-101.38 303.96,-87.99 327.17,-78.15"/>
<polygon fill="#63b8ff" stroke="#63b8ff" points="328.71,-81.3 336.55,-74.17 325.98,-74.85 328.71,-81.3"/>
</g>
<!-- Node14 -->
<g id="node14" class="node">
<title>Node14</title>
<g id="a_node14"><a xlink:title=" ">
<polygon fill="#e0e0e0" stroke="#999999" points="312.5,-74 271.5,-74 271.5,-55 312.5,-55 312.5,-74"/>
<text text-anchor="middle" x="292" y="-62" font-family="Helvetica,sans-Serif" font-size="10.00">string</text>
</a>
</g>
</g>
<!-- Node13&#45;&gt;Node14 -->
<g id="edge23" class="edge">
<title>Node13&#45;&gt;Node14</title>
<path fill="none" stroke="#63b8ff" d="M241.64,-109.98C250.51,-102.15 263.87,-90.34 274.61,-80.86"/>
<polygon fill="#63b8ff" stroke="#63b8ff" points="277.01,-83.41 282.18,-74.17 272.37,-78.17 277.01,-83.41"/>
</g>
<!-- Node15 -->
<g id="node15" class="node">
<title>Node15</title>
<g id="a_node15"><a xlink:title=" ">
<polygon fill="#e0e0e0" stroke="#999999" points="50,-74 0,-74 0,-55 50,-55 50,-74"/>
<text text-anchor="middle" x="25" y="-62" font-family="Helvetica,sans-Serif" font-size="10.00">fstream</text>
</a>
</g>
</g>
<!-- Node13&#45;&gt;Node15 -->
<g id="edge24" class="edge">
<title>Node13&#45;&gt;Node15</title>
<path fill="none" stroke="#63b8ff" d="M198.74,-109.98C160.66,-100.23 98.55,-84.33 59.83,-74.42"/>
<polygon fill="#63b8ff" stroke="#63b8ff" points="60.59,-71 50.04,-71.91 58.86,-77.78 60.59,-71"/>
</g>
<!-- Node16 -->
<g id="node16" class="node">
<title>Node16</title>
<g id="a_node16"><a xlink:title=" ">
<polygon fill="#e0e0e0" stroke="#999999" points="131.5,-74 68.5,-74 68.5,-55 131.5,-55 131.5,-74"/>
<text text-anchor="middle" x="100" y="-62" font-family="Helvetica,sans-Serif" font-size="10.00">TCanvas.h</text>
</a>
</g>
</g>
<!-- Node13&#45;&gt;Node16 -->
<g id="edge26" class="edge">
<title>Node13&#45;&gt;Node16</title>
<path fill="none" stroke="#63b8ff" d="M210.79,-109.98C189.27,-101.34 155.72,-87.87 131.17,-78.02"/>
<polygon fill="#63b8ff" stroke="#63b8ff" points="132.18,-74.65 121.59,-74.17 129.57,-81.14 132.18,-74.65"/>
</g>
<!-- Node17 -->
<g id="node17" class="node">
<title>Node17</title>
<g id="a_node17"><a xlink:title=" ">
<polygon fill="#e0e0e0" stroke="#999999" points="192.5,-74 149.5,-74 149.5,-55 192.5,-55 192.5,-74"/>
<text text-anchor="middle" x="171" y="-62" font-family="Helvetica,sans-Serif" font-size="10.00">TH1.h</text>
</a>
</g>
</g>
<!-- Node13&#45;&gt;Node17 -->
<g id="edge27" class="edge">
<title>Node13&#45;&gt;Node17</title>
<path fill="none" stroke="#63b8ff" d="M222.2,-109.98C213.18,-102.15 199.59,-90.34 188.68,-80.86"/>
<polygon fill="#63b8ff" stroke="#63b8ff" points="190.82,-78.09 180.98,-74.17 186.23,-83.37 190.82,-78.09"/>
</g>
<!-- Node18 -->
<g id="node18" class="node">
<title>Node18</title>
<g id="a_node18"><a xlink:title=" ">
<polygon fill="#e0e0e0" stroke="#999999" points="253.5,-74 210.5,-74 210.5,-55 253.5,-55 253.5,-74"/>
<text text-anchor="middle" x="232" y="-62" font-family="Helvetica,sans-Serif" font-size="10.00">TH2.h</text>
</a>
</g>
</g>
<!-- Node13&#45;&gt;Node18 -->
<g id="edge28" class="edge">
<title>Node13&#45;&gt;Node18</title>
<path fill="none" stroke="#63b8ff" d="M232,-109.75C232,-102.8 232,-92.85 232,-84.13"/>
<polygon fill="#63b8ff" stroke="#63b8ff" points="235.5,-84.09 232,-74.09 228.5,-84.09 235.5,-84.09"/>
</g>
</g>
</svg>
