<?xml version="1.0" encoding="UTF-8" standalone="no"?>
<!DOCTYPE svg PUBLIC "-//W3C//DTD SVG 1.1//EN"
 "http://www.w3.org/Graphics/SVG/1.1/DTD/svg11.dtd">
<!-- Generated by graphviz version 8.1.0 (20230707.0739)
 -->
<!-- Title: GamR::Spect::PeakFit::ToText Pages: 1 -->
<svg width="416pt" height="88pt"
 viewBox="0.00 0.00 416.00 87.50" xmlns="http://www.w3.org/2000/svg" xmlns:xlink="http://www.w3.org/1999/xlink">
<g id="graph0" class="graph" transform="scale(1 1) rotate(0) translate(4 83.5)">
<title>GamR::Spect::PeakFit::ToText</title>
<!-- Node1 -->
<g id="Node000001" class="node">
<title>Node1</title>
<g id="a_Node000001"><a xlink:title=" ">
<polygon fill="#999999" stroke="#666666" points="112,-54.5 0,-54.5 0,-24 112,-24 112,-54.5"/>
<text text-anchor="start" x="8" y="-41" font-family="Helvetica,sans-Serif" font-size="10.00">GamR::Spect::PeakFit</text>
<text text-anchor="middle" x="56" y="-29.75" font-family="Helvetica,sans-Serif" font-size="10.00">::ToText</text>
</a>
</g>
</g>
<!-- Node2 -->
<g id="Node000002" class="node">
<title>Node2</title>
<g id="a_Node000002"><a xlink:href="../../df/d69/class_gam_r_1_1_spect_1_1_peak_fit.html#a88d8ed3fa33b7eb8730de763a57a3f81" target="_top" xlink:title=" ">
<polygon fill="white" stroke="#666666" points="260,-79.5 148,-79.5 148,-49 260,-49 260,-79.5"/>
<text text-anchor="start" x="156" y="-66" font-family="Helvetica,sans-Serif" font-size="10.00">GamR::Spect::PeakFit</text>
<text text-anchor="middle" x="204" y="-54.75" font-family="Helvetica,sans-Serif" font-size="10.00">::GetNPeaks</text>
</a>
</g>
</g>
<!-- Node1&#45;&gt;Node2 -->
<g id="edge1_Node000001_Node000002" class="edge">
<title>Node1&#45;&gt;Node2</title>
<g id="a_edge1_Node000001_Node000002"><a xlink:title=" ">
<path fill="none" stroke="#63b8ff" d="M112.2,-48.7C120.28,-50.09 128.68,-51.52 136.95,-52.94"/>
<polygon fill="#63b8ff" stroke="#63b8ff" points="136.28,-56.55 146.73,-54.79 137.46,-49.65 136.28,-56.55"/>
</a>
</g>
</g>
<!-- Node3 -->
<g id="Node000003" class="node">
<title>Node3</title>
<g id="a_Node000003"><a xlink:href="../../df/d69/class_gam_r_1_1_spect_1_1_peak_fit.html#a09faee682fd6d1162f528ead04b219e6" target="_top" xlink:title=" ">
<polygon fill="white" stroke="#666666" points="260,-30.5 148,-30.5 148,0 260,0 260,-30.5"/>
<text text-anchor="start" x="156" y="-17" font-family="Helvetica,sans-Serif" font-size="10.00">GamR::Spect::PeakFit</text>
<text text-anchor="middle" x="204" y="-5.75" font-family="Helvetica,sans-Serif" font-size="10.00">::GetPeakBG</text>
</a>
</g>
</g>
<!-- Node1&#45;&gt;Node3 -->
<g id="edge2_Node000001_Node000003" class="edge">
<title>Node1&#45;&gt;Node3</title>
<g id="a_edge2_Node000001_Node000003"><a xlink:title=" ">
<path fill="none" stroke="#63b8ff" d="M112.2,-30.18C120.28,-28.85 128.68,-27.47 136.95,-26.11"/>
<polygon fill="#63b8ff" stroke="#63b8ff" points="137.43,-29.41 146.73,-24.34 136.29,-22.5 137.43,-29.41"/>
</a>
</g>
</g>
<!-- Node4 -->
<g id="Node000004" class="node">
<title>Node4</title>
<g id="a_Node000004"><a xlink:href="../../df/d69/class_gam_r_1_1_spect_1_1_peak_fit.html#a5ce797fe6f6a78eda3bae76ce25a4178" target="_top" xlink:title=" ">
<polygon fill="white" stroke="#666666" points="408,-30.5 296,-30.5 296,0 408,0 408,-30.5"/>
<text text-anchor="start" x="304" y="-17" font-family="Helvetica,sans-Serif" font-size="10.00">GamR::Spect::PeakFit</text>
<text text-anchor="middle" x="352" y="-5.75" font-family="Helvetica,sans-Serif" font-size="10.00">::GetFunc</text>
</a>
</g>
</g>
<!-- Node3&#45;&gt;Node4 -->
<g id="edge3_Node000003_Node000004" class="edge">
<title>Node3&#45;&gt;Node4</title>
<g id="a_edge3_Node000003_Node000004"><a xlink:title=" ">
<path fill="none" stroke="#63b8ff" d="M260.2,-15.25C268.28,-15.25 276.68,-15.25 284.95,-15.25"/>
<polygon fill="#63b8ff" stroke="#63b8ff" points="284.73,-18.75 294.73,-15.25 284.73,-11.75 284.73,-18.75"/>
</a>
</g>
</g>
</g>
</svg>
