<?xml version="1.0" encoding="UTF-8" standalone="no"?>
<!DOCTYPE svg PUBLIC "-//W3C//DTD SVG 1.1//EN"
 "http://www.w3.org/Graphics/SVG/1.1/DTD/svg11.dtd">
<!-- Generated by graphviz version 12.2.1 (20241206.2353)
 -->
<!-- Title: GamR::Spect::PeakFit::SetResults Pages: 1 -->
<svg width="268pt" height="88pt"
 viewBox="0.00 0.00 268.00 87.50" xmlns="http://www.w3.org/2000/svg" xmlns:xlink="http://www.w3.org/1999/xlink">
<g id="graph0" class="graph" transform="scale(1 1) rotate(0) translate(4 83.5)">
<title>GamR::Spect::PeakFit::SetResults</title>
<!-- Node1 -->
<g id="Node000001" class="node">
<title>Node1</title>
<g id="a_Node000001"><a xlink:title=" ">
<polygon fill="#999999" stroke="#666666" points="112,-54.5 0,-54.5 0,-24 112,-24 112,-54.5"/>
<text text-anchor="start" x="8" y="-41" font-family="Helvetica,sans-Serif" font-size="10.00">GamR::Spect::PeakFit</text>
<text text-anchor="middle" x="56" y="-29.75" font-family="Helvetica,sans-Serif" font-size="10.00">::SetResults</text>
</a>
</g>
</g>
<!-- Node2 -->
<g id="Node000002" class="node">
<title>Node2</title>
<g id="a_Node000002"><a xlink:href="../../df/d69/class_gam_r_1_1_spect_1_1_peak_fit.html#a28a372b77c6dfaf58e9a86f7171cdc9a" target="_top" xlink:title=" ">
<polygon fill="white" stroke="#666666" points="260,-79.5 148,-79.5 148,-49 260,-49 260,-79.5"/>
<text text-anchor="start" x="156" y="-66" font-family="Helvetica,sans-Serif" font-size="10.00">GamR::Spect::PeakFit</text>
<text text-anchor="middle" x="204" y="-54.75" font-family="Helvetica,sans-Serif" font-size="10.00">::GetBackground</text>
</a>
</g>
</g>
<!-- Node1&#45;&gt;Node2 -->
<g id="edge1_Node000001_Node000002" class="edge">
<title>Node1&#45;&gt;Node2</title>
<g id="a_edge1_Node000001_Node000002"><a xlink:title=" ">
<path fill="none" stroke="#63b8ff" d="M112.2,-48.7C120.1,-50.05 128.3,-51.46 136.39,-52.84"/>
<polygon fill="#63b8ff" stroke="#63b8ff" points="135.79,-56.29 146.23,-54.53 136.97,-49.39 135.79,-56.29"/>
</a>
</g>
</g>
<!-- Node3 -->
<g id="Node000003" class="node">
<title>Node3</title>
<g id="a_Node000003"><a xlink:href="../../df/d69/class_gam_r_1_1_spect_1_1_peak_fit.html#ad275fb1438bc1abd66d81731bc3d3cf6" target="_top" xlink:title=" ">
<polygon fill="white" stroke="#666666" points="260,-30.5 148,-30.5 148,0 260,0 260,-30.5"/>
<text text-anchor="start" x="156" y="-17" font-family="Helvetica,sans-Serif" font-size="10.00">GamR::Spect::PeakFit</text>
<text text-anchor="middle" x="204" y="-5.75" font-family="Helvetica,sans-Serif" font-size="10.00">::SetChi2</text>
</a>
</g>
</g>
<!-- Node1&#45;&gt;Node3 -->
<g id="edge2_Node000001_Node000003" class="edge">
<title>Node1&#45;&gt;Node3</title>
<g id="a_edge2_Node000001_Node000003"><a xlink:title=" ">
<path fill="none" stroke="#63b8ff" d="M112.2,-30.18C120.1,-28.88 128.3,-27.53 136.39,-26.2"/>
<polygon fill="#63b8ff" stroke="#63b8ff" points="136.93,-29.66 146.23,-24.58 135.8,-22.75 136.93,-29.66"/>
</a>
</g>
</g>
</g>
</svg>
