<?xml version="1.0" encoding="UTF-8" standalone="no"?>
<!DOCTYPE svg PUBLIC "-//W3C//DTD SVG 1.1//EN"
 "http://www.w3.org/Graphics/SVG/1.1/DTD/svg11.dtd">
<!-- Generated by graphviz version 5.0.0 (20220708.1001)
 -->
<!-- Title: GamR::Spect::PeakFit::GetFunc Pages: 1 -->
<svg width="424pt" height="78pt"
 viewBox="0.00 0.00 424.00 77.50" xmlns="http://www.w3.org/2000/svg" xmlns:xlink="http://www.w3.org/1999/xlink">
<g id="graph0" class="graph" transform="scale(1 1) rotate(0) translate(4 73.5)">
<title>GamR::Spect::PeakFit::GetFunc</title>
<polygon fill="white" stroke="transparent" points="-4,4 -4,-73.5 420,-73.5 420,4 -4,4"/>
<!-- Node1 -->
<g id="node1" class="node">
<title>Node1</title>
<g id="a_node1"><a xlink:title=" ">
<polygon fill="#bfbfbf" stroke="black" points="303,-22.5 303,-52.5 416,-52.5 416,-22.5 303,-22.5"/>
<text text-anchor="start" x="311" y="-40.5" font-family="Helvetica,sans-Serif" font-size="10.00">GamR::Spect::PeakFit</text>
<text text-anchor="middle" x="359.5" y="-29.5" font-family="Helvetica,sans-Serif" font-size="10.00">::GetFunc</text>
</a>
</g>
</g>
<!-- Node2 -->
<g id="node2" class="node">
<title>Node2</title>
<g id="a_node2"><a xlink:href="../../df/d69/class_gam_r_1_1_spect_1_1_peak_fit.html#a09faee682fd6d1162f528ead04b219e6" target="_top" xlink:title=" ">
<polygon fill="white" stroke="black" points="154,-22.5 154,-52.5 267,-52.5 267,-22.5 154,-22.5"/>
<text text-anchor="start" x="162" y="-40.5" font-family="Helvetica,sans-Serif" font-size="10.00">GamR::Spect::PeakFit</text>
<text text-anchor="middle" x="210.5" y="-29.5" font-family="Helvetica,sans-Serif" font-size="10.00">::GetPeakBG</text>
</a>
</g>
</g>
<!-- Node1&#45;&gt;Node2 -->
<g id="edge1" class="edge">
<title>Node1&#45;&gt;Node2</title>
<path fill="none" stroke="midnightblue" d="M292.92,-37.5C284.32,-37.5 275.57,-37.5 267.15,-37.5"/>
<polygon fill="midnightblue" stroke="midnightblue" points="292.93,-41 302.93,-37.5 292.93,-34 292.93,-41"/>
</g>
<!-- Node3 -->
<g id="node3" class="node">
<title>Node3</title>
<g id="a_node3"><a xlink:href="../../dc/d89/namespace_gam_r_1_1_spect.html#ab6376882b1b259ab8ae15200fa9ce7c3" target="_top" xlink:title=" ">
<polygon fill="white" stroke="black" points="0,-50 0,-69 118,-69 118,-50 0,-50"/>
<text text-anchor="middle" x="59" y="-57" font-family="Helvetica,sans-Serif" font-size="10.00">GamR::Spect::FitPeaks</text>
</a>
</g>
</g>
<!-- Node2&#45;&gt;Node3 -->
<g id="edge2" class="edge">
<title>Node2&#45;&gt;Node3</title>
<path fill="none" stroke="midnightblue" d="M143.9,-47.15C135.35,-48.41 126.63,-49.69 118.22,-50.93"/>
<polygon fill="midnightblue" stroke="midnightblue" points="144.45,-50.61 153.83,-45.69 143.43,-43.69 144.45,-50.61"/>
</g>
<!-- Node4 -->
<g id="node4" class="node">
<title>Node4</title>
<g id="a_node4"><a xlink:href="../../df/d69/class_gam_r_1_1_spect_1_1_peak_fit.html#a08437f372fe945499ff292c3aff36686" target="_top" xlink:title=" ">
<polygon fill="white" stroke="black" points="2.5,-0.5 2.5,-30.5 115.5,-30.5 115.5,-0.5 2.5,-0.5"/>
<text text-anchor="start" x="10.5" y="-18.5" font-family="Helvetica,sans-Serif" font-size="10.00">GamR::Spect::PeakFit</text>
<text text-anchor="middle" x="59" y="-7.5" font-family="Helvetica,sans-Serif" font-size="10.00">::ToText</text>
</a>
</g>
</g>
<!-- Node2&#45;&gt;Node4 -->
<g id="edge3" class="edge">
<title>Node2&#45;&gt;Node4</title>
<path fill="none" stroke="midnightblue" d="M143.78,-27.83C134.41,-26.45 124.86,-25.04 115.71,-23.7"/>
<polygon fill="midnightblue" stroke="midnightblue" points="143.43,-31.31 153.83,-29.31 144.45,-24.39 143.43,-31.31"/>
</g>
</g>
</svg>
