<?xml version="1.0" encoding="UTF-8" standalone="no"?>
<!DOCTYPE svg PUBLIC "-//W3C//DTD SVG 1.1//EN"
 "http://www.w3.org/Graphics/SVG/1.1/DTD/svg11.dtd">
<!-- Generated by graphviz version 8.1.0 (20230707.0739)
 -->
<!-- Title: src/lib/toolkit/Gate.hh Pages: 1 -->
<svg width="751pt" height="83pt"
 viewBox="0.00 0.00 751.38 82.50" xmlns="http://www.w3.org/2000/svg" xmlns:xlink="http://www.w3.org/1999/xlink">
<g id="graph0" class="graph" transform="scale(1 1) rotate(0) translate(4 78.5)">
<title>src/lib/toolkit/Gate.hh</title>
<!-- Node1 -->
<g id="Node000001" class="node">
<title>Node1</title>
<g id="a_Node000001"><a xlink:title=" ">
<polygon fill="#999999" stroke="#666666" points="407,-74.5 298.75,-74.5 298.75,-55.25 407,-55.25 407,-74.5"/>
<text text-anchor="middle" x="352.88" y="-61" font-family="Helvetica,sans-Serif" font-size="10.00">src/lib/toolkit/Gate.hh</text>
</a>
</g>
</g>
<!-- Node2 -->
<g id="Node000002" class="node">
<title>Node2</title>
<g id="a_Node000002"><a xlink:title=" ">
<polygon fill="#e0e0e0" stroke="#999999" points="55.75,-19.25 0,-19.25 0,0 55.75,0 55.75,-19.25"/>
<text text-anchor="middle" x="27.88" y="-5.75" font-family="Helvetica,sans-Serif" font-size="10.00">algorithm</text>
</a>
</g>
</g>
<!-- Node1&#45;&gt;Node2 -->
<g id="edge1_Node000001_Node000002" class="edge">
<title>Node1&#45;&gt;Node2</title>
<g id="a_edge1_Node000001_Node000002"><a xlink:title=" ">
<path fill="none" stroke="#63b8ff" d="M298.25,-56.66C242.5,-49.02 153.22,-36.01 66.89,-19.52"/>
<polygon fill="#63b8ff" stroke="#63b8ff" points="67.59,-15.9 57.11,-17.44 66.27,-22.77 67.59,-15.9"/>
</a>
</g>
</g>
<!-- Node3 -->
<g id="Node000003" class="node">
<title>Node3</title>
<g id="a_Node000003"><a xlink:title=" ">
<polygon fill="#e0e0e0" stroke="#999999" points="108.25,-19.25 73.5,-19.25 73.5,0 108.25,0 108.25,-19.25"/>
<text text-anchor="middle" x="90.88" y="-5.75" font-family="Helvetica,sans-Serif" font-size="10.00">map</text>
</a>
</g>
</g>
<!-- Node1&#45;&gt;Node3 -->
<g id="edge2_Node000001_Node000003" class="edge">
<title>Node1&#45;&gt;Node3</title>
<g id="a_edge2_Node000001_Node000003"><a xlink:title=" ">
<path fill="none" stroke="#63b8ff" d="M298.53,-55.71C252.84,-48.38 185.68,-36.49 119.32,-19.63"/>
<polygon fill="#63b8ff" stroke="#63b8ff" points="120.24,-15.99 109.68,-16.88 118.49,-22.77 120.24,-15.99"/>
</a>
</g>
</g>
<!-- Node4 -->
<g id="Node000004" class="node">
<title>Node4</title>
<g id="a_Node000004"><a xlink:title=" ">
<polygon fill="#e0e0e0" stroke="#999999" points="177.5,-19.25 126.25,-19.25 126.25,0 177.5,0 177.5,-19.25"/>
<text text-anchor="middle" x="151.88" y="-5.75" font-family="Helvetica,sans-Serif" font-size="10.00">sstream</text>
</a>
</g>
</g>
<!-- Node1&#45;&gt;Node4 -->
<g id="edge3_Node000001_Node000004" class="edge">
<title>Node1&#45;&gt;Node4</title>
<g id="a_edge3_Node000001_Node000004"><a xlink:title=" ">
<path fill="none" stroke="#63b8ff" d="M318.78,-54.84C282.49,-45.23 225.29,-30.07 188.17,-20.24"/>
<polygon fill="#63b8ff" stroke="#63b8ff" points="189.37,-16.67 178.81,-17.5 187.58,-23.44 189.37,-16.67"/>
</a>
</g>
</g>
<!-- Node5 -->
<g id="Node000005" class="node">
<title>Node5</title>
<g id="a_Node000005"><a xlink:title=" ">
<polygon fill="#e0e0e0" stroke="#999999" points="235.88,-19.25 195.88,-19.25 195.88,0 235.88,0 235.88,-19.25"/>
<text text-anchor="middle" x="215.88" y="-5.75" font-family="Helvetica,sans-Serif" font-size="10.00">string</text>
</a>
</g>
</g>
<!-- Node1&#45;&gt;Node5 -->
<g id="edge4_Node000001_Node000005" class="edge">
<title>Node1&#45;&gt;Node5</title>
<g id="a_edge4_Node000001_Node000005"><a xlink:title=" ">
<path fill="none" stroke="#63b8ff" d="M329.63,-54.84C306.66,-45.91 271.38,-32.2 246.2,-22.41"/>
<polygon fill="#63b8ff" stroke="#63b8ff" points="247.69,-18.85 237.1,-18.49 245.15,-25.37 247.69,-18.85"/>
</a>
</g>
</g>
<!-- Node6 -->
<g id="Node000006" class="node">
<title>Node6</title>
<g id="a_Node000006"><a xlink:title=" ">
<polygon fill="#e0e0e0" stroke="#999999" points="307.62,-19.25 254.12,-19.25 254.12,0 307.62,0 307.62,-19.25"/>
<text text-anchor="middle" x="280.88" y="-5.75" font-family="Helvetica,sans-Serif" font-size="10.00">iostream</text>
</a>
</g>
</g>
<!-- Node1&#45;&gt;Node6 -->
<g id="edge5_Node000001_Node000006" class="edge">
<title>Node1&#45;&gt;Node6</title>
<g id="a_edge5_Node000001_Node000006"><a xlink:title=" ">
<path fill="none" stroke="#63b8ff" d="M340.66,-54.84C329.94,-46.91 314.13,-35.22 301.46,-25.85"/>
<polygon fill="#63b8ff" stroke="#63b8ff" points="304.03,-22.66 293.91,-19.52 299.87,-28.29 304.03,-22.66"/>
</a>
</g>
</g>
<!-- Node7 -->
<g id="Node000007" class="node">
<title>Node7</title>
<g id="a_Node000007"><a xlink:title=" ">
<polygon fill="#e0e0e0" stroke="#999999" points="379.62,-19.25 326.12,-19.25 326.12,0 379.62,0 379.62,-19.25"/>
<text text-anchor="middle" x="352.88" y="-5.75" font-family="Helvetica,sans-Serif" font-size="10.00">Rtypes.h</text>
</a>
</g>
</g>
<!-- Node1&#45;&gt;Node7 -->
<g id="edge6_Node000001_Node000007" class="edge">
<title>Node1&#45;&gt;Node7</title>
<g id="a_edge6_Node000001_Node000007"><a xlink:title=" ">
<path fill="none" stroke="#63b8ff" d="M352.88,-55.08C352.88,-48.42 352.88,-38.99 352.88,-30.53"/>
<polygon fill="#63b8ff" stroke="#63b8ff" points="356.38,-30.61 352.88,-20.61 349.38,-30.61 356.38,-30.61"/>
</a>
</g>
</g>
<!-- Node8 -->
<g id="Node000008" class="node">
<title>Node8</title>
<g id="a_Node000008"><a xlink:title=" ">
<polygon fill="#e0e0e0" stroke="#999999" points="463.62,-19.25 398.12,-19.25 398.12,0 463.62,0 463.62,-19.25"/>
<text text-anchor="middle" x="430.88" y="-5.75" font-family="Helvetica,sans-Serif" font-size="10.00">TBrowser.h</text>
</a>
</g>
</g>
<!-- Node1&#45;&gt;Node8 -->
<g id="edge7_Node000001_Node000008" class="edge">
<title>Node1&#45;&gt;Node8</title>
<g id="a_edge7_Node000001_Node000008"><a xlink:title=" ">
<path fill="none" stroke="#63b8ff" d="M366.11,-54.84C377.76,-46.89 394.97,-35.14 408.72,-25.75"/>
<polygon fill="#63b8ff" stroke="#63b8ff" points="410.29,-28.23 416.58,-19.7 406.35,-22.45 410.29,-28.23"/>
</a>
</g>
</g>
<!-- Node9 -->
<g id="Node000009" class="node">
<title>Node9</title>
<g id="a_Node000009"><a xlink:title=" ">
<polygon fill="#e0e0e0" stroke="#999999" points="544.12,-19.25 481.62,-19.25 481.62,0 544.12,0 544.12,-19.25"/>
<text text-anchor="middle" x="512.88" y="-5.75" font-family="Helvetica,sans-Serif" font-size="10.00">TCanvas.h</text>
</a>
</g>
</g>
<!-- Node1&#45;&gt;Node9 -->
<g id="edge8_Node000001_Node000009" class="edge">
<title>Node1&#45;&gt;Node9</title>
<g id="a_edge8_Node000001_Node000009"><a xlink:title=" ">
<path fill="none" stroke="#63b8ff" d="M380.02,-54.84C406.22,-46.12 446.12,-32.84 475.36,-23.11"/>
<polygon fill="#63b8ff" stroke="#63b8ff" points="476.22,-26.18 484.6,-19.7 474.01,-19.54 476.22,-26.18"/>
</a>
</g>
</g>
<!-- Node10 -->
<g id="Node000010" class="node">
<title>Node10</title>
<g id="a_Node000010"><a xlink:title=" ">
<polygon fill="#e0e0e0" stroke="#999999" points="604,-19.25 561.75,-19.25 561.75,0 604,0 604,-19.25"/>
<text text-anchor="middle" x="582.88" y="-5.75" font-family="Helvetica,sans-Serif" font-size="10.00">TH1.h</text>
</a>
</g>
</g>
<!-- Node1&#45;&gt;Node10 -->
<g id="edge9_Node000001_Node000010" class="edge">
<title>Node1&#45;&gt;Node10</title>
<g id="a_edge9_Node000001_Node000010"><a xlink:title=" ">
<path fill="none" stroke="#63b8ff" d="M397.15,-54.8C435.49,-46.76 492.68,-34.34 550.81,-19.67"/>
<polygon fill="#63b8ff" stroke="#63b8ff" points="551.46,-22.86 560.29,-17 549.73,-16.08 551.46,-22.86"/>
</a>
</g>
</g>
<!-- Node11 -->
<g id="Node000011" class="node">
<title>Node11</title>
<g id="a_Node000011"><a xlink:title=" ">
<polygon fill="#e0e0e0" stroke="#999999" points="664,-19.25 621.75,-19.25 621.75,0 664,0 664,-19.25"/>
<text text-anchor="middle" x="642.88" y="-5.75" font-family="Helvetica,sans-Serif" font-size="10.00">TH2.h</text>
</a>
</g>
</g>
<!-- Node1&#45;&gt;Node11 -->
<g id="edge10_Node000001_Node000011" class="edge">
<title>Node1&#45;&gt;Node11</title>
<g id="a_edge10_Node000001_Node000011"><a xlink:title=" ">
<path fill="none" stroke="#63b8ff" d="M407.5,-56.29C457.98,-48.87 535.23,-36.51 610.69,-19.55"/>
<polygon fill="#63b8ff" stroke="#63b8ff" points="611.35,-22.76 620.32,-17.13 609.79,-15.94 611.35,-22.76"/>
</a>
</g>
</g>
<!-- Node12 -->
<g id="Node000012" class="node">
<title>Node12</title>
<g id="a_Node000012"><a xlink:title=" ">
<polygon fill="#e0e0e0" stroke="#999999" points="743.38,-19.25 682.38,-19.25 682.38,0 743.38,0 743.38,-19.25"/>
<text text-anchor="middle" x="712.88" y="-5.75" font-family="Helvetica,sans-Serif" font-size="10.00">TNamed.h</text>
</a>
</g>
</g>
<!-- Node1&#45;&gt;Node12 -->
<g id="edge11_Node000001_Node000012" class="edge">
<title>Node1&#45;&gt;Node12</title>
<g id="a_edge11_Node000001_Node000012"><a xlink:title=" ">
<path fill="none" stroke="#63b8ff" d="M407.42,-57.51C469.03,-50.05 572.49,-36.68 671.15,-19.44"/>
<polygon fill="#63b8ff" stroke="#63b8ff" points="671.67,-22.72 680.91,-17.54 670.45,-15.83 671.67,-22.72"/>
</a>
</g>
</g>
</g>
</svg>
