<?xml version="1.0" encoding="UTF-8" standalone="no"?>
<!DOCTYPE svg PUBLIC "-//W3C//DTD SVG 1.1//EN"
 "http://www.w3.org/Graphics/SVG/1.1/DTD/svg11.dtd">
<!-- Generated by graphviz version 6.0.2 (20221011.1828)
 -->
<!-- Title: GamR::Coulex::Level::PrintSP Pages: 1 -->
<svg width="860pt" height="134pt"
 viewBox="0.00 0.00 860.00 134.00" xmlns="http://www.w3.org/2000/svg" xmlns:xlink="http://www.w3.org/1999/xlink">
<g id="graph0" class="graph" transform="scale(1 1) rotate(0) translate(4 130)">
<title>GamR::Coulex::Level::PrintSP</title>
<!-- Node1 -->
<g id="node1" class="node">
<title>Node1</title>
<g id="a_node1"><a xlink:title=" ">
<polygon fill="#999999" stroke="#666666" points="852,-54 745,-54 745,-24 852,-24 852,-54"/>
<text text-anchor="start" x="753" y="-42" font-family="Helvetica,sans-Serif" font-size="10.00">GamR::Coulex::Level</text>
<text text-anchor="middle" x="798.5" y="-31" font-family="Helvetica,sans-Serif" font-size="10.00">::PrintSP</text>
</a>
</g>
</g>
<!-- Node2 -->
<g id="node2" class="node">
<title>Node2</title>
<g id="a_node2"><a xlink:href="../../db/d16/class_gam_r_1_1_coulex_1_1_level_scheme.html#a4b86aa22b5d902bb4bd3a0103744e423" target="_top" xlink:title=" ">
<polygon fill="white" stroke="#666666" points="709,-78 566,-78 566,-48 709,-48 709,-78"/>
<text text-anchor="start" x="574" y="-66" font-family="Helvetica,sans-Serif" font-size="10.00">GamR::Coulex::LevelScheme</text>
<text text-anchor="middle" x="637.5" y="-55" font-family="Helvetica,sans-Serif" font-size="10.00">::PrintLevels</text>
</a>
</g>
</g>
<!-- Node1&#45;&gt;Node2 -->
<g id="edge1" class="edge">
<title>Node1&#45;&gt;Node2</title>
<path fill="none" stroke="#63b8ff" d="M734.85,-48.46C726.4,-49.73 717.68,-51.05 709.1,-52.34"/>
<polygon fill="#63b8ff" stroke="#63b8ff" points="735.63,-51.88 745,-46.93 734.59,-44.96 735.63,-51.88"/>
</g>
<!-- Node9 -->
<g id="node9" class="node">
<title>Node9</title>
<g id="a_node9"><a xlink:href="../../dd/d3e/class_gam_r_1_1_coulex_1_1_coulex_calculation.html#a73b102e9bab00f6460caf510c0acb1d1" target="_top" xlink:title=" ">
<polygon fill="white" stroke="#666666" points="334,-30 174,-30 174,0 334,0 334,-30"/>
<text text-anchor="start" x="182" y="-18" font-family="Helvetica,sans-Serif" font-size="10.00">GamR::Coulex::CoulexCalculation</text>
<text text-anchor="middle" x="254" y="-7" font-family="Helvetica,sans-Serif" font-size="10.00">::SaveToFile</text>
</a>
</g>
</g>
<!-- Node1&#45;&gt;Node9 -->
<g id="edge12" class="edge">
<title>Node1&#45;&gt;Node9</title>
<path fill="none" stroke="#63b8ff" d="M734.82,-36.23C635.63,-31.84 442.63,-23.3 334.07,-18.5"/>
<polygon fill="#63b8ff" stroke="#63b8ff" points="734.84,-39.73 744.99,-36.68 735.15,-32.74 734.84,-39.73"/>
</g>
<!-- Node3 -->
<g id="node3" class="node">
<title>Node3</title>
<g id="a_node3"><a xlink:href="../../db/d16/class_gam_r_1_1_coulex_1_1_level_scheme.html#a43e42d464d621adff7a959aeeef6b690" target="_top" xlink:title=" ">
<polygon fill="white" stroke="#666666" points="521.5,-78 378.5,-78 378.5,-48 521.5,-48 521.5,-78"/>
<text text-anchor="start" x="386.5" y="-66" font-family="Helvetica,sans-Serif" font-size="10.00">GamR::Coulex::LevelScheme</text>
<text text-anchor="middle" x="450" y="-55" font-family="Helvetica,sans-Serif" font-size="10.00">::Print</text>
</a>
</g>
</g>
<!-- Node2&#45;&gt;Node3 -->
<g id="edge2" class="edge">
<title>Node2&#45;&gt;Node3</title>
<path fill="none" stroke="#63b8ff" d="M555.59,-63C544.32,-63 532.83,-63 521.77,-63"/>
<polygon fill="#63b8ff" stroke="#63b8ff" points="555.84,-66.5 565.84,-63 555.84,-59.5 555.84,-66.5"/>
</g>
<!-- Node7 -->
<g id="node7" class="node">
<title>Node7</title>
<g id="a_node7"><a xlink:href="../../dd/d3e/class_gam_r_1_1_coulex_1_1_coulex_calculation.html#a46d4f1bd67b5c6c438efd93b9f1e4838" target="_top" xlink:title=" ">
<polygon fill="white" stroke="#666666" points="530,-126 370,-126 370,-96 530,-96 530,-126"/>
<text text-anchor="start" x="378" y="-114" font-family="Helvetica,sans-Serif" font-size="10.00">GamR::Coulex::CoulexCalculation</text>
<text text-anchor="middle" x="450" y="-103" font-family="Helvetica,sans-Serif" font-size="10.00">::SetLevelScheme</text>
</a>
</g>
</g>
<!-- Node2&#45;&gt;Node7 -->
<g id="edge8" class="edge">
<title>Node2&#45;&gt;Node7</title>
<path fill="none" stroke="#63b8ff" d="M568.56,-80.58C549.01,-85.64 527.87,-91.11 508.98,-96"/>
<polygon fill="#63b8ff" stroke="#63b8ff" points="569.51,-83.95 578.32,-78.06 567.76,-77.17 569.51,-83.95"/>
</g>
<!-- Node4 -->
<g id="node4" class="node">
<title>Node4</title>
<g id="a_node4"><a xlink:href="../../dd/d3e/class_gam_r_1_1_coulex_1_1_coulex_calculation.html#ada06a036781b741ca462ac5b17347cf6" target="_top" xlink:title=" ">
<polygon fill="white" stroke="#666666" points="334,-78 174,-78 174,-48 334,-48 334,-78"/>
<text text-anchor="start" x="182" y="-66" font-family="Helvetica,sans-Serif" font-size="10.00">GamR::Coulex::CoulexCalculation</text>
<text text-anchor="middle" x="254" y="-55" font-family="Helvetica,sans-Serif" font-size="10.00">::Print</text>
</a>
</g>
</g>
<!-- Node3&#45;&gt;Node4 -->
<g id="edge3" class="edge">
<title>Node3&#45;&gt;Node4</title>
<path fill="none" stroke="#63b8ff" d="M368.16,-63C356.89,-63 345.31,-63 334.07,-63"/>
<polygon fill="#63b8ff" stroke="#63b8ff" points="368.41,-66.5 378.41,-63 368.41,-59.5 368.41,-66.5"/>
</g>
<!-- Node5 -->
<g id="node5" class="node">
<title>Node5</title>
<g id="a_node5"><a xlink:href="../../d6/d76/namespace_gam_r_1_1_coulex.html#a41b07b0aa204c45d637b7c5a4e57d989" target="_top" xlink:title=" ">
<polygon fill="white" stroke="#666666" points="131,-102.5 7,-102.5 7,-83.5 131,-83.5 131,-102.5"/>
<text text-anchor="middle" x="69" y="-90.5" font-family="Helvetica,sans-Serif" font-size="10.00">GamR::Coulex::DoCoulex</text>
</a>
</g>
</g>
<!-- Node4&#45;&gt;Node5 -->
<g id="edge4" class="edge">
<title>Node4&#45;&gt;Node5</title>
<path fill="none" stroke="#63b8ff" d="M163.67,-77.64C151.58,-79.63 139.43,-81.62 128.08,-83.48"/>
<polygon fill="#63b8ff" stroke="#63b8ff" points="164.5,-81.06 173.8,-75.98 163.36,-74.15 164.5,-81.06"/>
</g>
<!-- Node6 -->
<g id="node6" class="node">
<title>Node6</title>
<g id="a_node6"><a xlink:href="../../d6/d76/namespace_gam_r_1_1_coulex.html#a2551a0108b265de32e08ef2042a02212" target="_top" xlink:title=" ">
<polygon fill="white" stroke="#666666" points="138,-47 0,-47 0,-17 138,-17 138,-47"/>
<text text-anchor="start" x="8" y="-35" font-family="Helvetica,sans-Serif" font-size="10.00">GamR::Coulex::Experimental</text>
<text text-anchor="middle" x="69" y="-24" font-family="Helvetica,sans-Serif" font-size="10.00">Setup</text>
</a>
</g>
</g>
<!-- Node4&#45;&gt;Node6 -->
<g id="edge6" class="edge">
<title>Node4&#45;&gt;Node6</title>
<path fill="none" stroke="#63b8ff" d="M163.72,-47.88C155.12,-46.42 146.48,-44.96 138.13,-43.54"/>
<polygon fill="#63b8ff" stroke="#63b8ff" points="163.35,-51.36 173.8,-49.58 164.52,-44.46 163.35,-51.36"/>
</g>
<!-- Node5&#45;&gt;Node5 -->
<g id="edge5" class="edge">
<title>Node5&#45;&gt;Node5</title>
<path fill="none" stroke="#63b8ff" d="M103.67,-110.57C103.16,-116.12 91.61,-120.5 69,-120.5 36.12,-120.5 26.61,-111.23 40.49,-102.58"/>
<polygon fill="#63b8ff" stroke="#63b8ff" points="106.39,-108.37 97.51,-102.58 100.85,-112.64 106.39,-108.37"/>
</g>
<!-- Node6&#45;&gt;Node6 -->
<g id="edge7" class="edge">
<title>Node6&#45;&gt;Node6</title>
<path fill="none" stroke="#63b8ff" d="M101.38,-57.6C96.96,-61.97 86.16,-65 69,-65 40.09,-65 29.25,-56.41 36.48,-47.28"/>
<polygon fill="#63b8ff" stroke="#63b8ff" points="104.89,-57.32 101.52,-47.28 97.89,-57.23 104.89,-57.32"/>
</g>
<!-- Node8 -->
<g id="node8" class="node">
<title>Node8</title>
<g id="a_node8"><a xlink:href="../../dd/d3e/class_gam_r_1_1_coulex_1_1_coulex_calculation.html#ae8ce7427467c968c1a44f74a06ce4a30" target="_top" xlink:title=" ">
<polygon fill="white" stroke="#666666" points="334,-126 174,-126 174,-96 334,-96 334,-126"/>
<text text-anchor="start" x="182" y="-114" font-family="Helvetica,sans-Serif" font-size="10.00">GamR::Coulex::CoulexCalculation</text>
<text text-anchor="middle" x="254" y="-103" font-family="Helvetica,sans-Serif" font-size="10.00">::ExperimentalSetup</text>
</a>
</g>
</g>
<!-- Node7&#45;&gt;Node8 -->
<g id="edge9" class="edge">
<title>Node7&#45;&gt;Node8</title>
<path fill="none" stroke="#63b8ff" d="M359.56,-111C351.12,-111 342.59,-111 334.25,-111"/>
<polygon fill="#63b8ff" stroke="#63b8ff" points="359.81,-114.5 369.81,-111 359.81,-107.5 359.81,-114.5"/>
</g>
<!-- Node8&#45;&gt;Node5 -->
<g id="edge10" class="edge">
<title>Node8&#45;&gt;Node5</title>
<path fill="none" stroke="#63b8ff" d="M163.7,-102.22C152.66,-101.13 141.59,-100.04 131.12,-99.01"/>
<polygon fill="#63b8ff" stroke="#63b8ff" points="163.5,-105.71 173.8,-103.21 164.19,-98.75 163.5,-105.71"/>
</g>
<!-- Node8&#45;&gt;Node6 -->
<g id="edge11" class="edge">
<title>Node8&#45;&gt;Node6</title>
<path fill="none" stroke="#63b8ff" d="M188.8,-92.64C183.75,-90.85 178.77,-88.96 174,-87 146.24,-75.57 116.07,-59.13 95.41,-47.2"/>
<polygon fill="#63b8ff" stroke="#63b8ff" points="187.95,-96.05 198.55,-95.96 190.21,-89.42 187.95,-96.05"/>
</g>
<!-- Node9&#45;&gt;Node5 -->
<g id="edge13" class="edge">
<title>Node9&#45;&gt;Node5</title>
<path fill="none" stroke="#63b8ff" d="M183.35,-34.05C180.12,-35.59 176.99,-37.23 174,-39 154.78,-50.34 157.34,-62.88 138,-74 131.31,-77.85 123.79,-80.96 116.26,-83.45"/>
<polygon fill="#63b8ff" stroke="#63b8ff" points="184.84,-37.22 192.61,-30.02 182.05,-30.8 184.84,-37.22"/>
</g>
<!-- Node9&#45;&gt;Node6 -->
<g id="edge14" class="edge">
<title>Node9&#45;&gt;Node6</title>
<path fill="none" stroke="#63b8ff" d="M163.72,-23.29C155.12,-24.09 146.48,-24.89 138.13,-25.67"/>
<polygon fill="#63b8ff" stroke="#63b8ff" points="164.16,-26.77 173.8,-22.36 163.52,-19.8 164.16,-26.77"/>
</g>
</g>
</svg>
