<?xml version="1.0" encoding="UTF-8" standalone="no"?>
<!DOCTYPE svg PUBLIC "-//W3C//DTD SVG 1.1//EN"
 "http://www.w3.org/Graphics/SVG/1.1/DTD/svg11.dtd">
<!-- Generated by graphviz version 2.49.3 (20211023.0002)
 -->
<!-- Title: GamR::Coulex::CoulexCalculation::ExperimentalSetup Pages: 1 -->
<svg width="929pt" height="786pt"
 viewBox="0.00 0.00 929.00 786.25" xmlns="http://www.w3.org/2000/svg" xmlns:xlink="http://www.w3.org/1999/xlink">
<g id="graph0" class="graph" transform="scale(1 1) rotate(0) translate(4 782.25)">
<title>GamR::Coulex::CoulexCalculation::ExperimentalSetup</title>
<polygon fill="white" stroke="transparent" points="-4,4 -4,-782.25 925,-782.25 925,4 -4,4"/>
<!-- Node1 -->
<g id="node1" class="node">
<title>Node1</title>
<g id="a_node1"><a xlink:title=" ">
<polygon fill="#bfbfbf" stroke="black" points="0,-521 0,-551 168,-551 168,-521 0,-521"/>
<text text-anchor="start" x="8" y="-539" font-family="Helvetica,sans-Serif" font-size="10.00">GamR::Coulex::CoulexCalculation</text>
<text text-anchor="middle" x="84" y="-528" font-family="Helvetica,sans-Serif" font-size="10.00">::ExperimentalSetup</text>
</a>
</g>
</g>
<!-- Node2 -->
<g id="node2" class="node">
<title>Node2</title>
<g id="a_node2"><a xlink:href="../../dd/d3e/class_gam_r_1_1_coulex_1_1_coulex_calculation.html#acb08f0024d9a247dd0b03169bc5561fd" target="_top" xlink:title=" ">
<polygon fill="white" stroke="black" points="204,-680 204,-710 372,-710 372,-680 204,-680"/>
<text text-anchor="start" x="212" y="-698" font-family="Helvetica,sans-Serif" font-size="10.00">GamR::Coulex::CoulexCalculation</text>
<text text-anchor="middle" x="288" y="-687" font-family="Helvetica,sans-Serif" font-size="10.00">::SetBeam</text>
</a>
</g>
</g>
<!-- Node1&#45;&gt;Node2 -->
<g id="edge1" class="edge">
<title>Node1&#45;&gt;Node2</title>
<path fill="none" stroke="midnightblue" d="M94.91,-551.26C113.26,-578.36 155.15,-635.04 204,-667 208.97,-670.25 214.36,-673.17 219.92,-675.77"/>
<polygon fill="midnightblue" stroke="midnightblue" points="218.84,-679.11 229.4,-679.85 221.61,-672.68 218.84,-679.11"/>
</g>
<!-- Node9 -->
<g id="node9" class="node">
<title>Node9</title>
<g id="a_node9"><a xlink:href="../../dd/d3e/class_gam_r_1_1_coulex_1_1_coulex_calculation.html#acae80ed0264d745708394f63dad5a28f" target="_top" xlink:title=" ">
<polygon fill="white" stroke="black" points="204,-106 204,-136 372,-136 372,-106 204,-106"/>
<text text-anchor="start" x="212" y="-124" font-family="Helvetica,sans-Serif" font-size="10.00">GamR::Coulex::CoulexCalculation</text>
<text text-anchor="middle" x="288" y="-113" font-family="Helvetica,sans-Serif" font-size="10.00">::SetDetected</text>
</a>
</g>
</g>
<!-- Node1&#45;&gt;Node9 -->
<g id="edge9" class="edge">
<title>Node1&#45;&gt;Node9</title>
<path fill="none" stroke="midnightblue" d="M89.44,-521C103.07,-476 146.85,-338.89 204,-235 222.52,-201.33 249.53,-166.1 267.66,-143.87"/>
<polygon fill="midnightblue" stroke="midnightblue" points="270.47,-145.96 274.13,-136.02 265.07,-141.51 270.47,-145.96"/>
</g>
<!-- Node10 -->
<g id="node10" class="node">
<title>Node10</title>
<g id="a_node10"><a xlink:href="../../dd/d3e/class_gam_r_1_1_coulex_1_1_coulex_calculation.html#ac1a600b3ea06c9c5c6317482a2ea2a30" target="_top" xlink:title=" ">
<polygon fill="white" stroke="black" points="204,-245 204,-275 372,-275 372,-245 204,-245"/>
<text text-anchor="start" x="212" y="-263" font-family="Helvetica,sans-Serif" font-size="10.00">GamR::Coulex::CoulexCalculation</text>
<text text-anchor="middle" x="288" y="-252" font-family="Helvetica,sans-Serif" font-size="10.00">::SetExcited</text>
</a>
</g>
</g>
<!-- Node1&#45;&gt;Node10 -->
<g id="edge11" class="edge">
<title>Node1&#45;&gt;Node10</title>
<path fill="none" stroke="midnightblue" d="M91.45,-520.81C107.16,-484.91 150.09,-393.07 204,-329 219.21,-310.93 239.56,-293.93 256.3,-281.32"/>
<polygon fill="midnightblue" stroke="midnightblue" points="258.71,-283.9 264.68,-275.15 254.55,-278.26 258.71,-283.9"/>
</g>
<!-- Node11 -->
<g id="node11" class="node">
<title>Node11</title>
<g id="a_node11"><a xlink:href="../../dd/d3e/class_gam_r_1_1_coulex_1_1_coulex_calculation.html#ad04858b6cf6ac528e6e56915fe7da556" target="_top" xlink:title=" ">
<polygon fill="white" stroke="black" points="204,-570 204,-600 372,-600 372,-570 204,-570"/>
<text text-anchor="start" x="212" y="-588" font-family="Helvetica,sans-Serif" font-size="10.00">GamR::Coulex::CoulexCalculation</text>
<text text-anchor="middle" x="288" y="-577" font-family="Helvetica,sans-Serif" font-size="10.00">::SetInterests</text>
</a>
</g>
</g>
<!-- Node1&#45;&gt;Node11 -->
<g id="edge13" class="edge">
<title>Node1&#45;&gt;Node11</title>
<path fill="none" stroke="midnightblue" d="M146.98,-551.03C168.6,-556.28 193.04,-562.21 215.37,-567.63"/>
<polygon fill="midnightblue" stroke="midnightblue" points="214.59,-571.04 225.14,-569.99 216.24,-564.24 214.59,-571.04"/>
</g>
<!-- Node12 -->
<g id="node12" class="node">
<title>Node12</title>
<g id="a_node12"><a xlink:href="../../dd/d3e/class_gam_r_1_1_coulex_1_1_coulex_calculation.html#a46d4f1bd67b5c6c438efd93b9f1e4838" target="_top" xlink:title=" ">
<polygon fill="white" stroke="black" points="204,-339 204,-369 372,-369 372,-339 204,-339"/>
<text text-anchor="start" x="212" y="-357" font-family="Helvetica,sans-Serif" font-size="10.00">GamR::Coulex::CoulexCalculation</text>
<text text-anchor="middle" x="288" y="-346" font-family="Helvetica,sans-Serif" font-size="10.00">::SetLevelScheme</text>
</a>
</g>
</g>
<!-- Node1&#45;&gt;Node12 -->
<g id="edge15" class="edge">
<title>Node1&#45;&gt;Node12</title>
<path fill="none" stroke="midnightblue" d="M101.87,-520.8C137.69,-488.53 221.39,-413.11 262.85,-375.76"/>
<polygon fill="midnightblue" stroke="midnightblue" points="265.23,-378.33 270.32,-369.03 260.54,-373.13 265.23,-378.33"/>
</g>
<!-- Node26 -->
<g id="node26" class="node">
<title>Node26</title>
<g id="a_node26"><a xlink:href="../../dd/d3e/class_gam_r_1_1_coulex_1_1_coulex_calculation.html#a6c9d40e4bda6ae80b19bfbfd46a0b8fb" target="_top" xlink:title=" ">
<polygon fill="white" stroke="black" points="204,-521 204,-551 372,-551 372,-521 204,-521"/>
<text text-anchor="start" x="212" y="-539" font-family="Helvetica,sans-Serif" font-size="10.00">GamR::Coulex::CoulexCalculation</text>
<text text-anchor="middle" x="288" y="-528" font-family="Helvetica,sans-Serif" font-size="10.00">::SetParticleDet</text>
</a>
</g>
</g>
<!-- Node1&#45;&gt;Node26 -->
<g id="edge32" class="edge">
<title>Node1&#45;&gt;Node26</title>
<path fill="none" stroke="midnightblue" d="M168.04,-536C176.56,-536 185.26,-536 193.89,-536"/>
<polygon fill="midnightblue" stroke="midnightblue" points="193.96,-539.5 203.96,-536 193.96,-532.5 193.96,-539.5"/>
</g>
<!-- Node28 -->
<g id="node28" class="node">
<title>Node28</title>
<g id="a_node28"><a xlink:href="../../dd/d3e/class_gam_r_1_1_coulex_1_1_coulex_calculation.html#a2a7d4ff2433572678844223f385bba86" target="_top" xlink:title=" ">
<polygon fill="white" stroke="black" points="204,-627 204,-657 372,-657 372,-627 204,-627"/>
<text text-anchor="start" x="212" y="-645" font-family="Helvetica,sans-Serif" font-size="10.00">GamR::Coulex::CoulexCalculation</text>
<text text-anchor="middle" x="288" y="-634" font-family="Helvetica,sans-Serif" font-size="10.00">::SetTarget</text>
</a>
</g>
</g>
<!-- Node1&#45;&gt;Node28 -->
<g id="edge35" class="edge">
<title>Node1&#45;&gt;Node28</title>
<path fill="none" stroke="midnightblue" d="M106.65,-551.2C129.97,-567.15 168.5,-592.32 204,-610 213.43,-614.7 223.72,-619.16 233.76,-623.19"/>
<polygon fill="midnightblue" stroke="midnightblue" points="232.67,-626.52 243.26,-626.9 235.22,-620 232.67,-626.52"/>
</g>
<!-- Node3 -->
<g id="node3" class="node">
<title>Node3</title>
<g id="a_node3"><a xlink:href="../../d2/d80/namespace_gam_r_1_1_t_k.html#a8e957f4effbe05201873e6d6caceeacc" target="_top" xlink:title=" ">
<polygon fill="white" stroke="black" points="421,-649.5 421,-668.5 543,-668.5 543,-649.5 421,-649.5"/>
<text text-anchor="middle" x="482" y="-656.5" font-family="Helvetica,sans-Serif" font-size="10.00">GamR::TK::GetElement</text>
</a>
</g>
</g>
<!-- Node2&#45;&gt;Node3 -->
<g id="edge2" class="edge">
<title>Node2&#45;&gt;Node3</title>
<path fill="none" stroke="midnightblue" d="M369.03,-679.99C386.16,-676.78 403.99,-673.44 420.25,-670.39"/>
<polygon fill="midnightblue" stroke="midnightblue" points="420.96,-673.82 430.15,-668.54 419.67,-666.94 420.96,-673.82"/>
</g>
<!-- Node4 -->
<g id="node4" class="node">
<title>Node4</title>
<g id="a_node4"><a xlink:href="../../d0/db7/namespace_gam_r_1_1_utils.html#aed2bea4374da5416077fee90a1ebf9e4" target="_top" xlink:title=" ">
<polygon fill="white" stroke="black" points="425,-573.5 425,-592.5 539,-592.5 539,-573.5 425,-573.5"/>
<text text-anchor="middle" x="482" y="-580.5" font-family="Helvetica,sans-Serif" font-size="10.00">GamR::Utils::GetInput</text>
</a>
</g>
</g>
<!-- Node2&#45;&gt;Node4 -->
<g id="edge3" class="edge">
<title>Node2&#45;&gt;Node4</title>
<path fill="none" stroke="midnightblue" d="M342.35,-679.93C352.45,-676.26 362.75,-671.95 372,-667 376.82,-664.42 430.41,-622.63 460.61,-598.99"/>
<polygon fill="midnightblue" stroke="midnightblue" points="463.09,-601.5 468.8,-592.57 458.77,-595.99 463.09,-601.5"/>
</g>
<!-- Node6 -->
<g id="node6" class="node">
<title>Node6</title>
<g id="a_node6"><a xlink:href="../../d0/db7/namespace_gam_r_1_1_utils.html#a0a7aaf911b057208b84e3b98d071c5c0" target="_top" xlink:title=" ">
<polygon fill="white" stroke="black" points="613.5,-516.5 613.5,-535.5 718.5,-535.5 718.5,-516.5 613.5,-516.5"/>
<text text-anchor="middle" x="666" y="-523.5" font-family="Helvetica,sans-Serif" font-size="10.00">GamR::Utils::getline</text>
</a>
</g>
</g>
<!-- Node2&#45;&gt;Node6 -->
<g id="edge6" class="edge">
<title>Node2&#45;&gt;Node6</title>
<path fill="none" stroke="midnightblue" d="M310.13,-710.18C359.22,-743.43 482.33,-815.02 556,-754 622.19,-699.17 540.74,-632.99 592,-564 599.87,-553.41 611.55,-545.52 623.28,-539.75"/>
<polygon fill="midnightblue" stroke="midnightblue" points="624.93,-542.85 632.62,-535.58 622.07,-536.46 624.93,-542.85"/>
</g>
<!-- Node7 -->
<g id="node7" class="node">
<title>Node7</title>
<g id="a_node7"><a xlink:href="../../d2/d80/namespace_gam_r_1_1_t_k.html#aa4ba5d5a5ab0b3c595e31d23334e4f90" target="_top" xlink:title=" ">
<polygon fill="white" stroke="black" points="433,-725.5 433,-744.5 531,-744.5 531,-725.5 433,-725.5"/>
<text text-anchor="middle" x="482" y="-732.5" font-family="Helvetica,sans-Serif" font-size="10.00">GamR::TK::GetZA</text>
</a>
</g>
</g>
<!-- Node2&#45;&gt;Node7 -->
<g id="edge7" class="edge">
<title>Node2&#45;&gt;Node7</title>
<path fill="none" stroke="midnightblue" d="M361.04,-710.01C382.34,-714.45 405.32,-719.23 425.42,-723.42"/>
<polygon fill="midnightblue" stroke="midnightblue" points="424.83,-726.87 435.33,-725.49 426.25,-720.02 424.83,-726.87"/>
</g>
<!-- Node8 -->
<g id="node8" class="node">
<title>Node8</title>
<g id="a_node8"><a xlink:href="../../d6/d76/namespace_gam_r_1_1_coulex.html#ace79bcce69203b5740a6b158a40242d5" target="_top" xlink:title=" ">
<polygon fill="white" stroke="black" points="411.5,-687.5 411.5,-706.5 552.5,-706.5 552.5,-687.5 411.5,-687.5"/>
<text text-anchor="middle" x="482" y="-694.5" font-family="Helvetica,sans-Serif" font-size="10.00">GamR::Coulex::loadSCOEF</text>
</a>
</g>
</g>
<!-- Node2&#45;&gt;Node8 -->
<g id="edge8" class="edge">
<title>Node2&#45;&gt;Node8</title>
<path fill="none" stroke="midnightblue" d="M372.1,-695.87C381.7,-695.97 391.47,-696.07 401.03,-696.17"/>
<polygon fill="midnightblue" stroke="midnightblue" points="401.26,-699.67 411.3,-696.27 401.34,-692.67 401.26,-699.67"/>
</g>
<!-- Node5 -->
<g id="node5" class="node">
<title>Node5</title>
<g id="a_node5"><a xlink:href="../../d0/db7/namespace_gam_r_1_1_utils.html#ad0dc77d5ee1f99355aa36516fa14731d" target="_top" xlink:title=" ">
<polygon fill="white" stroke="black" points="610,-573.5 610,-592.5 722,-592.5 722,-573.5 610,-573.5"/>
<text text-anchor="middle" x="666" y="-580.5" font-family="Helvetica,sans-Serif" font-size="10.00">GamR::Utils::catcherr</text>
</a>
</g>
</g>
<!-- Node4&#45;&gt;Node5 -->
<g id="edge4" class="edge">
<title>Node4&#45;&gt;Node5</title>
<path fill="none" stroke="midnightblue" d="M539.09,-583C558.21,-583 579.76,-583 599.55,-583"/>
<polygon fill="midnightblue" stroke="midnightblue" points="599.72,-586.5 609.72,-583 599.72,-579.5 599.72,-586.5"/>
</g>
<!-- Node4&#45;&gt;Node6 -->
<g id="edge5" class="edge">
<title>Node4&#45;&gt;Node6</title>
<path fill="none" stroke="midnightblue" d="M522.19,-573.42C533.18,-570.57 545.1,-567.31 556,-564 580.83,-556.45 608.43,-546.82 629.64,-539.14"/>
<polygon fill="midnightblue" stroke="midnightblue" points="631.01,-542.37 639.21,-535.65 628.61,-535.79 631.01,-542.37"/>
</g>
<!-- Node9&#45;&gt;Node6 -->
<g id="edge10" class="edge">
<title>Node9&#45;&gt;Node6</title>
<path fill="none" stroke="midnightblue" d="M335.42,-106C394.28,-90.17 495.36,-74.14 556,-127 594,-160.13 578.2,-302.51 592,-351 608.76,-409.88 639.69,-475.57 655.36,-507.1"/>
<polygon fill="midnightblue" stroke="midnightblue" points="652.43,-509.06 660.05,-516.42 658.69,-505.92 652.43,-509.06"/>
</g>
<!-- Node10&#45;&gt;Node6 -->
<g id="edge12" class="edge">
<title>Node10&#45;&gt;Node6</title>
<path fill="none" stroke="midnightblue" d="M300.07,-244.81C318.97,-220.34 360.06,-173.12 408,-155 469.53,-131.74 505.46,-112.9 556,-155 624.05,-211.69 566.81,-266.09 592,-351 609.41,-409.69 640.05,-475.47 655.51,-507.06"/>
<polygon fill="midnightblue" stroke="midnightblue" points="652.56,-508.99 660.13,-516.4 658.84,-505.88 652.56,-508.99"/>
</g>
<!-- Node11&#45;&gt;Node4 -->
<g id="edge14" class="edge">
<title>Node11&#45;&gt;Node4</title>
<path fill="none" stroke="midnightblue" d="M372.1,-584.13C386.31,-583.99 400.91,-583.83 414.62,-583.69"/>
<polygon fill="midnightblue" stroke="midnightblue" points="414.94,-587.19 424.9,-583.58 414.87,-580.19 414.94,-587.19"/>
</g>
<!-- Node12&#45;&gt;Node4 -->
<g id="edge19" class="edge">
<title>Node12&#45;&gt;Node4</title>
<path fill="none" stroke="midnightblue" d="M296.78,-369.28C320.34,-415.33 390.39,-550.47 408,-564 410.47,-565.89 413.1,-567.6 415.85,-569.14"/>
<polygon fill="midnightblue" stroke="midnightblue" points="414.45,-572.34 424.98,-573.49 417.46,-566.02 414.45,-572.34"/>
</g>
<!-- Node12&#45;&gt;Node6 -->
<g id="edge21" class="edge">
<title>Node12&#45;&gt;Node6</title>
<path fill="none" stroke="midnightblue" d="M299.49,-369.21C318.14,-394.98 359.65,-446.94 408,-473 469.22,-506 548.82,-518.49 603.1,-523.2"/>
<polygon fill="midnightblue" stroke="midnightblue" points="603.02,-526.7 613.27,-524.01 603.58,-519.72 603.02,-526.7"/>
</g>
<!-- Node13 -->
<g id="node13" class="node">
<title>Node13</title>
<g id="a_node13"><a xlink:href="../../db/d16/class_gam_r_1_1_coulex_1_1_level_scheme.html#a4d570498b70eb607e79cfb8670b25e15" target="_top" xlink:title=" ">
<polygon fill="white" stroke="black" points="408,-410 408,-440 556,-440 556,-410 408,-410"/>
<text text-anchor="start" x="416" y="-428" font-family="Helvetica,sans-Serif" font-size="10.00">GamR::Coulex::LevelScheme</text>
<text text-anchor="middle" x="482" y="-417" font-family="Helvetica,sans-Serif" font-size="10.00">::AddLevel</text>
</a>
</g>
</g>
<!-- Node12&#45;&gt;Node13 -->
<g id="edge16" class="edge">
<title>Node12&#45;&gt;Node13</title>
<path fill="none" stroke="midnightblue" d="M326.91,-369.09C350.22,-378.25 380.74,-390.07 408,-400 413.95,-402.17 420.19,-404.39 426.41,-406.56"/>
<polygon fill="midnightblue" stroke="midnightblue" points="425.53,-409.96 436.12,-409.94 427.82,-403.35 425.53,-409.96"/>
</g>
<!-- Node14 -->
<g id="node14" class="node">
<title>Node14</title>
<g id="a_node14"><a xlink:href="../../db/d16/class_gam_r_1_1_coulex_1_1_level_scheme.html#aab00338f86c0c352793c8f20275fa510" target="_top" xlink:title=" ">
<polygon fill="white" stroke="black" points="408,-361 408,-391 556,-391 556,-361 408,-361"/>
<text text-anchor="start" x="416" y="-379" font-family="Helvetica,sans-Serif" font-size="10.00">GamR::Coulex::LevelScheme</text>
<text text-anchor="middle" x="482" y="-368" font-family="Helvetica,sans-Serif" font-size="10.00">::AddTransition</text>
</a>
</g>
</g>
<!-- Node12&#45;&gt;Node14 -->
<g id="edge17" class="edge">
<title>Node12&#45;&gt;Node14</title>
<path fill="none" stroke="midnightblue" d="M372.1,-363.52C380.53,-364.49 389.09,-365.47 397.53,-366.44"/>
<polygon fill="midnightblue" stroke="midnightblue" points="397.4,-369.94 407.73,-367.6 398.19,-362.99 397.4,-369.94"/>
</g>
<!-- Node15 -->
<g id="node15" class="node">
<title>Node15</title>
<g id="a_node15"><a xlink:href="../../d1/d57/class_gam_r_1_1_coulex_1_1_transition.html#a85f89e555d85864ef047c7969560730a" target="_top" xlink:title=" ">
<polygon fill="white" stroke="black" points="416.5,-312 416.5,-342 547.5,-342 547.5,-312 416.5,-312"/>
<text text-anchor="start" x="424.5" y="-330" font-family="Helvetica,sans-Serif" font-size="10.00">GamR::Coulex::Transition</text>
<text text-anchor="middle" x="482" y="-319" font-family="Helvetica,sans-Serif" font-size="10.00">::GetBUp</text>
</a>
</g>
</g>
<!-- Node12&#45;&gt;Node15 -->
<g id="edge18" class="edge">
<title>Node12&#45;&gt;Node15</title>
<path fill="none" stroke="midnightblue" d="M372.1,-342.31C383.43,-340.72 395,-339.09 406.17,-337.52"/>
<polygon fill="midnightblue" stroke="midnightblue" points="406.88,-340.96 416.3,-336.1 405.91,-334.03 406.88,-340.96"/>
</g>
<!-- Node16 -->
<g id="node16" class="node">
<title>Node16</title>
<g id="a_node16"><a xlink:href="../../db/d16/class_gam_r_1_1_coulex_1_1_level_scheme.html#a0084c39cedee838191658398fa05f16a" target="_top" xlink:title=" ">
<polygon fill="white" stroke="black" points="592,-312 592,-342 740,-342 740,-312 592,-312"/>
<text text-anchor="start" x="600" y="-330" font-family="Helvetica,sans-Serif" font-size="10.00">GamR::Coulex::LevelScheme</text>
<text text-anchor="middle" x="666" y="-319" font-family="Helvetica,sans-Serif" font-size="10.00">::GetLevelByIndex</text>
</a>
</g>
</g>
<!-- Node12&#45;&gt;Node16 -->
<g id="edge20" class="edge">
<title>Node12&#45;&gt;Node16</title>
<path fill="none" stroke="midnightblue" d="M301.7,-369.24C321.6,-391.79 362.59,-433.1 408,-449 470.08,-470.74 495.96,-475.87 556,-449 600.68,-429 634.6,-380.64 652,-351.16"/>
<polygon fill="midnightblue" stroke="midnightblue" points="655.14,-352.73 657.06,-342.32 649.06,-349.26 655.14,-352.73"/>
</g>
<!-- Node17 -->
<g id="node17" class="node">
<title>Node17</title>
<g id="a_node17"><a xlink:href="../../db/d16/class_gam_r_1_1_coulex_1_1_level_scheme.html#ad1ef2663e6726c2d75a86c0c5f43f1f8" target="_top" xlink:title=" ">
<polygon fill="white" stroke="black" points="408,-263 408,-293 556,-293 556,-263 408,-263"/>
<text text-anchor="start" x="416" y="-281" font-family="Helvetica,sans-Serif" font-size="10.00">GamR::Coulex::LevelScheme</text>
<text text-anchor="middle" x="482" y="-270" font-family="Helvetica,sans-Serif" font-size="10.00">::GetNLevels</text>
</a>
</g>
</g>
<!-- Node12&#45;&gt;Node17 -->
<g id="edge22" class="edge">
<title>Node12&#45;&gt;Node17</title>
<path fill="none" stroke="midnightblue" d="M321.24,-338.93C344.98,-328.07 378.2,-313.38 408,-302 412.86,-300.14 417.93,-298.3 423.04,-296.5"/>
<polygon fill="midnightblue" stroke="midnightblue" points="424.55,-299.68 432.87,-293.11 422.27,-293.06 424.55,-299.68"/>
</g>
<!-- Node18 -->
<g id="node18" class="node">
<title>Node18</title>
<g id="a_node18"><a xlink:href="../../db/d16/class_gam_r_1_1_coulex_1_1_level_scheme.html#a055821f626f4d274171404aabf5dc60e" target="_top" xlink:title=" ">
<polygon fill="white" stroke="black" points="408,-214 408,-244 556,-244 556,-214 408,-214"/>
<text text-anchor="start" x="416" y="-232" font-family="Helvetica,sans-Serif" font-size="10.00">GamR::Coulex::LevelScheme</text>
<text text-anchor="middle" x="482" y="-221" font-family="Helvetica,sans-Serif" font-size="10.00">::GetNTransitions</text>
</a>
</g>
</g>
<!-- Node12&#45;&gt;Node18 -->
<g id="edge23" class="edge">
<title>Node12&#45;&gt;Node18</title>
<path fill="none" stroke="midnightblue" d="M307.18,-338.76C324.03,-324.62 349.76,-302.95 372,-284 388.07,-270.3 389.62,-263.39 408,-253 411.05,-251.27 414.25,-249.65 417.53,-248.12"/>
<polygon fill="midnightblue" stroke="midnightblue" points="419.13,-251.25 426.93,-244.08 416.36,-244.82 419.13,-251.25"/>
</g>
<!-- Node19 -->
<g id="node19" class="node">
<title>Node19</title>
<g id="a_node19"><a xlink:href="../../db/d16/class_gam_r_1_1_coulex_1_1_level_scheme.html#a4b86aa22b5d902bb4bd3a0103744e423" target="_top" xlink:title=" ">
<polygon fill="white" stroke="black" points="408,-39 408,-69 556,-69 556,-39 408,-39"/>
<text text-anchor="start" x="416" y="-57" font-family="Helvetica,sans-Serif" font-size="10.00">GamR::Coulex::LevelScheme</text>
<text text-anchor="middle" x="482" y="-46" font-family="Helvetica,sans-Serif" font-size="10.00">::PrintLevels</text>
</a>
</g>
</g>
<!-- Node12&#45;&gt;Node19 -->
<g id="edge24" class="edge">
<title>Node12&#45;&gt;Node19</title>
<path fill="none" stroke="midnightblue" d="M313.95,-338.9C332.56,-326.4 357.22,-306.99 372,-284 404.18,-233.92 382.16,-208.62 408,-155 421.97,-126.01 444.35,-96.61 460.65,-77.06"/>
<polygon fill="midnightblue" stroke="midnightblue" points="463.42,-79.21 467.23,-69.32 458.09,-74.68 463.42,-79.21"/>
</g>
<!-- Node22 -->
<g id="node22" class="node">
<title>Node22</title>
<g id="a_node22"><a xlink:href="../../d1/d57/class_gam_r_1_1_coulex_1_1_transition.html#ad0ac4badb9458504125fb31ed46d33e5" target="_top" xlink:title=" ">
<polygon fill="white" stroke="black" points="416.5,-165 416.5,-195 547.5,-195 547.5,-165 416.5,-165"/>
<text text-anchor="start" x="424.5" y="-183" font-family="Helvetica,sans-Serif" font-size="10.00">GamR::Coulex::Transition</text>
<text text-anchor="middle" x="482" y="-172" font-family="Helvetica,sans-Serif" font-size="10.00">::SetBUp</text>
</a>
</g>
</g>
<!-- Node12&#45;&gt;Node22 -->
<g id="edge28" class="edge">
<title>Node12&#45;&gt;Node22</title>
<path fill="none" stroke="midnightblue" d="M312.25,-338.76C330.42,-325.92 355.31,-306.12 372,-284 395.49,-252.88 379.02,-230.08 408,-204 409.3,-202.83 410.65,-201.72 412.05,-200.67"/>
<polygon fill="midnightblue" stroke="midnightblue" points="414.04,-203.55 420.55,-195.19 410.24,-197.67 414.04,-203.55"/>
</g>
<!-- Node23 -->
<g id="node23" class="node">
<title>Node23</title>
<g id="a_node23"><a xlink:href="../../d0/d17/_abbreviations_8cc.html#a33328e0e85d36ff8f7f299bb791c5364" target="_top" xlink:title=" ">
<polygon fill="white" stroke="black" points="467.5,-0.5 467.5,-19.5 496.5,-19.5 496.5,-0.5 467.5,-0.5"/>
<text text-anchor="middle" x="482" y="-7.5" font-family="Helvetica,sans-Serif" font-size="10.00">sp</text>
</a>
</g>
</g>
<!-- Node12&#45;&gt;Node23 -->
<g id="edge29" class="edge">
<title>Node12&#45;&gt;Node23</title>
<path fill="none" stroke="midnightblue" d="M315.61,-338.91C334.58,-326.67 358.95,-307.59 372,-284 427.4,-183.84 331.82,-114.43 408,-29 420.18,-15.34 440.82,-10.93 457.05,-9.75"/>
<polygon fill="midnightblue" stroke="midnightblue" points="457.56,-13.23 467.42,-9.36 457.3,-6.23 457.56,-13.23"/>
</g>
<!-- Node19&#45;&gt;Node16 -->
<g id="edge25" class="edge">
<title>Node19&#45;&gt;Node16</title>
<path fill="none" stroke="midnightblue" d="M533.97,-69.02C541.99,-72.97 549.7,-77.9 556,-84 620.37,-146.36 649.75,-253.6 660.23,-302.01"/>
<polygon fill="midnightblue" stroke="midnightblue" points="656.83,-302.85 662.29,-311.93 663.68,-301.43 656.83,-302.85"/>
</g>
<!-- Node20 -->
<g id="node20" class="node">
<title>Node20</title>
<g id="a_node20"><a xlink:href="../../d1/d65/class_gam_r_1_1_coulex_1_1_level.html#a5b8c0227f0d4f75f5e57c58d61b9bf4b" target="_top" xlink:title=" ">
<polygon fill="white" stroke="black" points="610,-88 610,-118 722,-118 722,-88 610,-88"/>
<text text-anchor="start" x="618" y="-106" font-family="Helvetica,sans-Serif" font-size="10.00">GamR::Coulex::Level</text>
<text text-anchor="middle" x="666" y="-95" font-family="Helvetica,sans-Serif" font-size="10.00">::PrintSP</text>
</a>
</g>
</g>
<!-- Node19&#45;&gt;Node20 -->
<g id="edge26" class="edge">
<title>Node19&#45;&gt;Node20</title>
<path fill="none" stroke="midnightblue" d="M539.09,-69.1C558.3,-74.27 579.96,-80.1 599.82,-85.45"/>
<polygon fill="midnightblue" stroke="midnightblue" points="599.15,-88.9 609.72,-88.12 600.97,-82.14 599.15,-88.9"/>
</g>
<!-- Node21 -->
<g id="node21" class="node">
<title>Node21</title>
<g id="a_node21"><a xlink:href="../../db/d16/class_gam_r_1_1_coulex_1_1_level_scheme.html#a807279006620a7c5d147431f72ed5be6" target="_top" xlink:title=" ">
<polygon fill="white" stroke="black" points="592,-39 592,-69 740,-69 740,-39 592,-39"/>
<text text-anchor="start" x="600" y="-57" font-family="Helvetica,sans-Serif" font-size="10.00">GamR::Coulex::LevelScheme</text>
<text text-anchor="middle" x="666" y="-46" font-family="Helvetica,sans-Serif" font-size="10.00">::SetIndices</text>
</a>
</g>
</g>
<!-- Node19&#45;&gt;Node21 -->
<g id="edge27" class="edge">
<title>Node19&#45;&gt;Node21</title>
<path fill="none" stroke="midnightblue" d="M556.24,-54C564.6,-54 573.16,-54 581.64,-54"/>
<polygon fill="midnightblue" stroke="midnightblue" points="581.91,-57.5 591.91,-54 581.91,-50.5 581.91,-57.5"/>
</g>
<!-- Node24 -->
<g id="node24" class="node">
<title>Node24</title>
<g id="a_node24"><a xlink:href="../../dc/d89/namespace_gam_r_1_1_spect.html#a54b953c08bfbe870df0e0c9c6aa23648" target="_top" xlink:title=" ">
<polygon fill="white" stroke="black" points="613.5,-0.5 613.5,-19.5 718.5,-19.5 718.5,-0.5 613.5,-0.5"/>
<text text-anchor="middle" x="666" y="-7.5" font-family="Helvetica,sans-Serif" font-size="10.00">GamR::Spect::Draw</text>
</a>
</g>
</g>
<!-- Node23&#45;&gt;Node24 -->
<g id="edge30" class="edge">
<title>Node23&#45;&gt;Node24</title>
<path fill="none" stroke="midnightblue" d="M496.68,-10C519.14,-10 565.17,-10 603.42,-10"/>
<polygon fill="midnightblue" stroke="midnightblue" points="603.47,-13.5 613.47,-10 603.47,-6.5 603.47,-13.5"/>
</g>
<!-- Node25 -->
<g id="node25" class="node">
<title>Node25</title>
<g id="a_node25"><a xlink:href="../../dc/d89/namespace_gam_r_1_1_spect.html#a56e80bce5bf691212c8b7dfb76c2d2b4" target="_top" xlink:title=" ">
<polygon fill="white" stroke="black" points="776,-0.5 776,-19.5 921,-19.5 921,-0.5 776,-0.5"/>
<text text-anchor="middle" x="848.5" y="-7.5" font-family="Helvetica,sans-Serif" font-size="10.00">GamR::Spect::List1DSpectra</text>
</a>
</g>
</g>
<!-- Node24&#45;&gt;Node25 -->
<g id="edge31" class="edge">
<title>Node24&#45;&gt;Node25</title>
<path fill="none" stroke="midnightblue" d="M718.72,-10C733.34,-10 749.61,-10 765.53,-10"/>
<polygon fill="midnightblue" stroke="midnightblue" points="765.93,-13.5 775.93,-10 765.93,-6.5 765.93,-13.5"/>
</g>
<!-- Node26&#45;&gt;Node4 -->
<g id="edge34" class="edge">
<title>Node26&#45;&gt;Node4</title>
<path fill="none" stroke="midnightblue" d="M350.28,-551C376.71,-557.47 407.19,-564.93 432.07,-571.02"/>
<polygon fill="midnightblue" stroke="midnightblue" points="431.47,-574.48 442.01,-573.46 433.13,-567.68 431.47,-574.48"/>
</g>
<!-- Node27 -->
<g id="node27" class="node">
<title>Node27</title>
<g id="a_node27"><a xlink:href="../../d6/d76/namespace_gam_r_1_1_coulex.html#a80c70c5c99095da3a8a10a05513f1d23" target="_top" xlink:title=" ">
<polygon fill="white" stroke="black" points="413.5,-535.5 413.5,-554.5 550.5,-554.5 550.5,-535.5 413.5,-535.5"/>
<text text-anchor="middle" x="482" y="-542.5" font-family="Helvetica,sans-Serif" font-size="10.00">GamR::Coulex::DrawSetup</text>
</a>
</g>
</g>
<!-- Node26&#45;&gt;Node27 -->
<g id="edge33" class="edge">
<title>Node26&#45;&gt;Node27</title>
<path fill="none" stroke="midnightblue" d="M372.1,-539.9C382.43,-540.38 392.98,-540.87 403.23,-541.35"/>
<polygon fill="midnightblue" stroke="midnightblue" points="403.21,-544.86 413.37,-541.83 403.54,-537.87 403.21,-544.86"/>
</g>
<!-- Node28&#45;&gt;Node3 -->
<g id="edge36" class="edge">
<title>Node28&#45;&gt;Node3</title>
<path fill="none" stroke="midnightblue" d="M372.1,-649.36C385.05,-650.5 398.33,-651.68 410.95,-652.8"/>
<polygon fill="midnightblue" stroke="midnightblue" points="410.65,-656.28 420.92,-653.68 411.27,-649.31 410.65,-656.28"/>
</g>
<!-- Node28&#45;&gt;Node4 -->
<g id="edge37" class="edge">
<title>Node28&#45;&gt;Node4</title>
<path fill="none" stroke="midnightblue" d="M337.95,-626.96C369.59,-617.24 410.29,-604.73 440.19,-595.54"/>
<polygon fill="midnightblue" stroke="midnightblue" points="441.35,-598.85 449.88,-592.56 439.29,-592.15 441.35,-598.85"/>
</g>
<!-- Node28&#45;&gt;Node6 -->
<g id="edge38" class="edge">
<title>Node28&#45;&gt;Node6</title>
<path fill="none" stroke="midnightblue" d="M372.06,-635.5C438.23,-629.23 524.78,-618.28 556,-602 576.63,-591.25 573.43,-578.01 592,-564 604.48,-554.58 619.63,-546.27 632.89,-539.85"/>
<polygon fill="midnightblue" stroke="midnightblue" points="634.58,-542.92 642.14,-535.51 631.6,-536.58 634.58,-542.92"/>
</g>
<!-- Node28&#45;&gt;Node7 -->
<g id="edge39" class="edge">
<title>Node28&#45;&gt;Node7</title>
<path fill="none" stroke="midnightblue" d="M346.01,-657.12C355.14,-660.87 364.15,-665.44 372,-671 392.9,-685.8 386.51,-702.06 408,-716 412.67,-719.03 417.8,-721.57 423.11,-723.72"/>
<polygon fill="midnightblue" stroke="midnightblue" points="422.21,-727.11 432.8,-727.15 424.55,-720.51 422.21,-727.11"/>
</g>
<!-- Node28&#45;&gt;Node8 -->
<g id="edge40" class="edge">
<title>Node28&#45;&gt;Node8</title>
<path fill="none" stroke="midnightblue" d="M337.22,-657.06C358.81,-663.68 384.62,-671.42 408,-678 416.15,-680.29 424.85,-682.64 433.29,-684.87"/>
<polygon fill="midnightblue" stroke="midnightblue" points="432.48,-688.27 443.04,-687.42 434.25,-681.5 432.48,-688.27"/>
</g>
</g>
</svg>
