<?xml version="1.0" encoding="UTF-8" standalone="no"?>
<!DOCTYPE svg PUBLIC "-//W3C//DTD SVG 1.1//EN"
 "http://www.w3.org/Graphics/SVG/1.1/DTD/svg11.dtd">
<!-- Generated by graphviz version 2.49.3 (20211023.0002)
 -->
<!-- Title: GamR::Coulex::CoulexCalculation::SetLevelScheme Pages: 1 -->
<!--zoomable 487 -->
<svg id="main" version="1.1" xmlns="http://www.w3.org/2000/svg" xmlns:xlink="http://www.w3.org/1999/xlink" xml:space="preserve" onload="init(evt)">
<style type="text/css"><![CDATA[
.edge:hover path { stroke: red; }
.edge:hover polygon { stroke: red; fill: red; }
]]></style>
<script type="text/javascript"><![CDATA[
var edges = document.getElementsByTagName('g');
if (edges && edges.length) {
  for (var i=0;i<edges.length;i++) {
    if (edges[i].id.substr(0,4)=='edge') {
      edges[i].setAttribute('class','edge');
    }
  }
}
]]></script>
        <defs>
                <circle id="rim" cx="0" cy="0" r="7"/>
                <circle id="rim2" cx="0" cy="0" r="3.5"/>
                <g id="zoomPlus">
                        <use xlink:href="#rim" fill="#404040">
                                <set attributeName="fill" to="#808080" begin="zoomplus.mouseover" end="zoomplus.mouseout"/>
                        </use>
                        <path d="M-4,0h8M0,-4v8" fill="none" stroke="white" stroke-width="1.5" pointer-events="none"/>
                </g>
                <g id="zoomMin">
                        <use xlink:href="#rim" fill="#404040">
                                <set attributeName="fill" to="#808080" begin="zoomminus.mouseover" end="zoomminus.mouseout"/>
                        </use>
                        <path d="M-4,0h8" fill="none" stroke="white" stroke-width="1.5" pointer-events="none"/>
                </g>
                <g id="dirArrow">
                        <path fill="none" stroke="white" stroke-width="1.5" d="M0,-3.0v7 M-2.5,-0.5L0,-3.0L2.5,-0.5"/>
                </g>
               <g id="resetDef">
                       <use xlink:href="#rim2" fill="#404040">
                               <set attributeName="fill" to="#808080" begin="reset.mouseover" end="reset.mouseout"/>
                       </use>
               </g>
        </defs>

<script type="text/javascript">
var viewWidth = 725;
var viewHeight = 487;
var sectionId = 'dynsection-21';
</script>
<script xlink:href="../../svgpan.js"/>
<svg id="graph" class="graph">
<g id="viewport">
<title>GamR::Coulex::CoulexCalculation::SetLevelScheme</title>
<polygon fill="white" stroke="transparent" points="-4,4 -4,-482.5 721,-482.5 721,4 -4,4"/>
<!-- Node1 -->
<g id="node1" class="node">
<title>Node1</title>
<g id="a_node1"><a xlink:title=" ">
<polygon fill="#bfbfbf" stroke="black" points="0,-230 0,-260 168,-260 168,-230 0,-230"/>
<text text-anchor="start" x="8" y="-248" font-family="Helvetica,sans-Serif" font-size="10.00">GamR::Coulex::CoulexCalculation</text>
<text text-anchor="middle" x="84" y="-237" font-family="Helvetica,sans-Serif" font-size="10.00">::SetLevelScheme</text>
</a>
</g>
</g>
<!-- Node2 -->
<g id="node2" class="node">
<title>Node2</title>
<g id="a_node2"><a xlink:href="../../db/d16/class_gam_r_1_1_coulex_1_1_level_scheme.html#a4d570498b70eb607e79cfb8670b25e15" target="_top" xlink:title=" ">
<polygon fill="white" stroke="black" points="204,-448 204,-478 352,-478 352,-448 204,-448"/>
<text text-anchor="start" x="212" y="-466" font-family="Helvetica,sans-Serif" font-size="10.00">GamR::Coulex::LevelScheme</text>
<text text-anchor="middle" x="278" y="-455" font-family="Helvetica,sans-Serif" font-size="10.00">::AddLevel</text>
</a>
</g>
</g>
<!-- Node1&#45;&gt;Node2 -->
<g id="edge1" class="edge">
<title>Node1&#45;&gt;Node2</title>
<path fill="none" stroke="midnightblue" d="M90.1,-260.11C103.12,-296.41 141.09,-389.25 204,-439 205.61,-440.27 207.29,-441.48 209.02,-442.62"/>
<polygon fill="midnightblue" stroke="midnightblue" points="207.68,-445.89 218.1,-447.83 211.17,-439.82 207.68,-445.89"/>
</g>
<!-- Node3 -->
<g id="node3" class="node">
<title>Node3</title>
<g id="a_node3"><a xlink:href="../../db/d16/class_gam_r_1_1_coulex_1_1_level_scheme.html#aab00338f86c0c352793c8f20275fa510" target="_top" xlink:title=" ">
<polygon fill="white" stroke="black" points="204,-399 204,-429 352,-429 352,-399 204,-399"/>
<text text-anchor="start" x="212" y="-417" font-family="Helvetica,sans-Serif" font-size="10.00">GamR::Coulex::LevelScheme</text>
<text text-anchor="middle" x="278" y="-406" font-family="Helvetica,sans-Serif" font-size="10.00">::AddTransition</text>
</a>
</g>
</g>
<!-- Node1&#45;&gt;Node3 -->
<g id="edge2" class="edge">
<title>Node1&#45;&gt;Node3</title>
<path fill="none" stroke="midnightblue" d="M93.39,-260.11C110.41,-289.44 151.88,-354.3 204,-390 206.24,-391.54 208.59,-392.98 211.02,-394.34"/>
<polygon fill="midnightblue" stroke="midnightblue" points="209.56,-397.52 220.07,-398.88 212.7,-391.27 209.56,-397.52"/>
</g>
<!-- Node4 -->
<g id="node4" class="node">
<title>Node4</title>
<g id="a_node4"><a xlink:href="../../d1/d57/class_gam_r_1_1_coulex_1_1_transition.html#a85f89e555d85864ef047c7969560730a" target="_top" xlink:title=" ">
<polygon fill="white" stroke="black" points="212.5,-350 212.5,-380 343.5,-380 343.5,-350 212.5,-350"/>
<text text-anchor="start" x="220.5" y="-368" font-family="Helvetica,sans-Serif" font-size="10.00">GamR::Coulex::Transition</text>
<text text-anchor="middle" x="278" y="-357" font-family="Helvetica,sans-Serif" font-size="10.00">::GetBUp</text>
</a>
</g>
</g>
<!-- Node1&#45;&gt;Node4 -->
<g id="edge3" class="edge">
<title>Node1&#45;&gt;Node4</title>
<path fill="none" stroke="midnightblue" d="M100.28,-260.13C121.79,-280.69 162.98,-317.49 204,-340 207.94,-342.16 212.1,-344.18 216.35,-346.07"/>
<polygon fill="midnightblue" stroke="midnightblue" points="215.19,-349.38 225.77,-349.98 217.87,-342.91 215.19,-349.38"/>
</g>
<!-- Node5 -->
<g id="node5" class="node">
<title>Node5</title>
<g id="a_node5"><a xlink:href="../../d0/db7/namespace_gam_r_1_1_utils.html#aed2bea4374da5416077fee90a1ebf9e4" target="_top" xlink:title=" ">
<polygon fill="white" stroke="black" points="221,-311.5 221,-330.5 335,-330.5 335,-311.5 221,-311.5"/>
<text text-anchor="middle" x="278" y="-318.5" font-family="Helvetica,sans-Serif" font-size="10.00">GamR::Utils::GetInput</text>
</a>
</g>
</g>
<!-- Node1&#45;&gt;Node5 -->
<g id="edge4" class="edge">
<title>Node1&#45;&gt;Node5</title>
<path fill="none" stroke="midnightblue" d="M117.24,-260.07C140.98,-270.93 174.2,-285.62 204,-297 214.29,-300.93 225.55,-304.82 236.06,-308.29"/>
<polygon fill="midnightblue" stroke="midnightblue" points="235.28,-311.72 245.87,-311.48 237.44,-305.06 235.28,-311.72"/>
</g>
<!-- Node7 -->
<g id="node7" class="node">
<title>Node7</title>
<g id="a_node7"><a xlink:href="../../d0/db7/namespace_gam_r_1_1_utils.html#a0a7aaf911b057208b84e3b98d071c5c0" target="_top" xlink:title=" ">
<polygon fill="white" stroke="black" points="409.5,-273.5 409.5,-292.5 514.5,-292.5 514.5,-273.5 409.5,-273.5"/>
<text text-anchor="middle" x="462" y="-280.5" font-family="Helvetica,sans-Serif" font-size="10.00">GamR::Utils::getline</text>
</a>
</g>
</g>
<!-- Node1&#45;&gt;Node7 -->
<g id="edge8" class="edge">
<title>Node1&#45;&gt;Node7</title>
<path fill="none" stroke="midnightblue" d="M168.45,-253.43C238.23,-260.49 336.19,-270.39 399.14,-276.75"/>
<polygon fill="midnightblue" stroke="midnightblue" points="399.01,-280.25 409.31,-277.78 399.72,-273.29 399.01,-280.25"/>
</g>
<!-- Node8 -->
<g id="node8" class="node">
<title>Node8</title>
<g id="a_node8"><a xlink:href="../../db/d16/class_gam_r_1_1_coulex_1_1_level_scheme.html#a0084c39cedee838191658398fa05f16a" target="_top" xlink:title=" ">
<polygon fill="white" stroke="black" points="388,-193 388,-223 536,-223 536,-193 388,-193"/>
<text text-anchor="start" x="396" y="-211" font-family="Helvetica,sans-Serif" font-size="10.00">GamR::Coulex::LevelScheme</text>
<text text-anchor="middle" x="462" y="-200" font-family="Helvetica,sans-Serif" font-size="10.00">::GetLevelByIndex</text>
</a>
</g>
</g>
<!-- Node1&#45;&gt;Node8 -->
<g id="edge7" class="edge">
<title>Node1&#45;&gt;Node8</title>
<path fill="none" stroke="midnightblue" d="M168.17,-241.07C220.95,-238.08 290.62,-233.24 352,-226 360.35,-225.02 369.04,-223.84 377.7,-222.57"/>
<polygon fill="midnightblue" stroke="midnightblue" points="378.48,-225.99 387.84,-221.04 377.43,-219.07 378.48,-225.99"/>
</g>
<!-- Node9 -->
<g id="node9" class="node">
<title>Node9</title>
<g id="a_node9"><a xlink:href="../../db/d16/class_gam_r_1_1_coulex_1_1_level_scheme.html#ad1ef2663e6726c2d75a86c0c5f43f1f8" target="_top" xlink:title=" ">
<polygon fill="white" stroke="black" points="204,-186 204,-216 352,-216 352,-186 204,-186"/>
<text text-anchor="start" x="212" y="-204" font-family="Helvetica,sans-Serif" font-size="10.00">GamR::Coulex::LevelScheme</text>
<text text-anchor="middle" x="278" y="-193" font-family="Helvetica,sans-Serif" font-size="10.00">::GetNLevels</text>
</a>
</g>
</g>
<!-- Node1&#45;&gt;Node9 -->
<g id="edge9" class="edge">
<title>Node1&#45;&gt;Node9</title>
<path fill="none" stroke="midnightblue" d="M150.54,-229.98C166.98,-226.21 184.74,-222.14 201.62,-218.28"/>
<polygon fill="midnightblue" stroke="midnightblue" points="202.47,-221.67 211.43,-216.03 200.9,-214.85 202.47,-221.67"/>
</g>
<!-- Node10 -->
<g id="node10" class="node">
<title>Node10</title>
<g id="a_node10"><a xlink:href="../../db/d16/class_gam_r_1_1_coulex_1_1_level_scheme.html#a055821f626f4d274171404aabf5dc60e" target="_top" xlink:title=" ">
<polygon fill="white" stroke="black" points="204,-137 204,-167 352,-167 352,-137 204,-137"/>
<text text-anchor="start" x="212" y="-155" font-family="Helvetica,sans-Serif" font-size="10.00">GamR::Coulex::LevelScheme</text>
<text text-anchor="middle" x="278" y="-144" font-family="Helvetica,sans-Serif" font-size="10.00">::GetNTransitions</text>
</a>
</g>
</g>
<!-- Node1&#45;&gt;Node10 -->
<g id="edge10" class="edge">
<title>Node1&#45;&gt;Node10</title>
<path fill="none" stroke="midnightblue" d="M108.46,-229.82C131.97,-215.04 169.52,-192.58 204,-177 208.88,-174.79 214.02,-172.66 219.22,-170.65"/>
<polygon fill="midnightblue" stroke="midnightblue" points="220.45,-173.92 228.59,-167.13 218,-167.37 220.45,-173.92"/>
</g>
<!-- Node11 -->
<g id="node11" class="node">
<title>Node11</title>
<g id="a_node11"><a xlink:href="../../db/d16/class_gam_r_1_1_coulex_1_1_level_scheme.html#a4b86aa22b5d902bb4bd3a0103744e423" target="_top" xlink:title=" ">
<polygon fill="white" stroke="black" points="204,-88 204,-118 352,-118 352,-88 204,-88"/>
<text text-anchor="start" x="212" y="-106" font-family="Helvetica,sans-Serif" font-size="10.00">GamR::Coulex::LevelScheme</text>
<text text-anchor="middle" x="278" y="-95" font-family="Helvetica,sans-Serif" font-size="10.00">::PrintLevels</text>
</a>
</g>
</g>
<!-- Node1&#45;&gt;Node11 -->
<g id="edge11" class="edge">
<title>Node1&#45;&gt;Node11</title>
<path fill="none" stroke="midnightblue" d="M96.54,-229.89C116.11,-205.25 158.16,-156.32 204,-128 207.37,-125.92 210.93,-123.99 214.59,-122.2"/>
<polygon fill="midnightblue" stroke="midnightblue" points="216.18,-125.32 223.87,-118.03 213.31,-118.93 216.18,-125.32"/>
</g>
<!-- Node14 -->
<g id="node14" class="node">
<title>Node14</title>
<g id="a_node14"><a xlink:href="../../d1/d57/class_gam_r_1_1_coulex_1_1_transition.html#ad0ac4badb9458504125fb31ed46d33e5" target="_top" xlink:title=" ">
<polygon fill="white" stroke="black" points="212.5,-39 212.5,-69 343.5,-69 343.5,-39 212.5,-39"/>
<text text-anchor="start" x="220.5" y="-57" font-family="Helvetica,sans-Serif" font-size="10.00">GamR::Coulex::Transition</text>
<text text-anchor="middle" x="278" y="-46" font-family="Helvetica,sans-Serif" font-size="10.00">::SetBUp</text>
</a>
</g>
</g>
<!-- Node1&#45;&gt;Node14 -->
<g id="edge15" class="edge">
<title>Node1&#45;&gt;Node14</title>
<path fill="none" stroke="midnightblue" d="M91.88,-229.75C107.28,-197.29 147.66,-120.89 204,-79 206.5,-77.14 209.15,-75.41 211.89,-73.81"/>
<polygon fill="midnightblue" stroke="midnightblue" points="213.7,-76.82 220.96,-69.09 210.47,-70.61 213.7,-76.82"/>
</g>
<!-- Node15 -->
<g id="node15" class="node">
<title>Node15</title>
<g id="a_node15"><a xlink:href="../../d0/d17/_abbreviations_8cc.html#a33328e0e85d36ff8f7f299bb791c5364" target="_top" xlink:title=" ">
<polygon fill="white" stroke="black" points="263.5,-0.5 263.5,-19.5 292.5,-19.5 292.5,-0.5 263.5,-0.5"/>
<text text-anchor="middle" x="278" y="-7.5" font-family="Helvetica,sans-Serif" font-size="10.00">sp</text>
</a>
</g>
</g>
<!-- Node1&#45;&gt;Node15 -->
<g id="edge16" class="edge">
<title>Node1&#45;&gt;Node15</title>
<path fill="none" stroke="midnightblue" d="M88.8,-229.98C99.58,-190.53 134.21,-83.27 204,-29 218.06,-18.07 237.78,-13.39 253.18,-11.4"/>
<polygon fill="midnightblue" stroke="midnightblue" points="253.88,-14.85 263.49,-10.38 253.19,-7.89 253.88,-14.85"/>
</g>
<!-- Node6 -->
<g id="node6" class="node">
<title>Node6</title>
<g id="a_node6"><a xlink:href="../../d0/db7/namespace_gam_r_1_1_utils.html#ad0dc77d5ee1f99355aa36516fa14731d" target="_top" xlink:title=" ">
<polygon fill="white" stroke="black" points="406,-311.5 406,-330.5 518,-330.5 518,-311.5 406,-311.5"/>
<text text-anchor="middle" x="462" y="-318.5" font-family="Helvetica,sans-Serif" font-size="10.00">GamR::Utils::catcherr</text>
</a>
</g>
</g>
<!-- Node5&#45;&gt;Node6 -->
<g id="edge5" class="edge">
<title>Node5&#45;&gt;Node6</title>
<path fill="none" stroke="midnightblue" d="M335.09,-321C354.21,-321 375.76,-321 395.55,-321"/>
<polygon fill="midnightblue" stroke="midnightblue" points="395.72,-324.5 405.72,-321 395.72,-317.5 395.72,-324.5"/>
</g>
<!-- Node5&#45;&gt;Node7 -->
<g id="edge6" class="edge">
<title>Node5&#45;&gt;Node7</title>
<path fill="none" stroke="midnightblue" d="M324.93,-311.41C349.38,-306.31 379.63,-299.99 405.4,-294.61"/>
<polygon fill="midnightblue" stroke="midnightblue" points="406.33,-297.99 415.4,-292.52 404.9,-291.14 406.33,-297.99"/>
</g>
<!-- Node11&#45;&gt;Node8 -->
<g id="edge12" class="edge">
<title>Node11&#45;&gt;Node8</title>
<path fill="none" stroke="midnightblue" d="M329.71,-118.13C337.34,-121.04 345,-124.34 352,-128 360.57,-132.48 403.25,-164.32 432.59,-186.46"/>
<polygon fill="midnightblue" stroke="midnightblue" points="430.75,-189.46 440.84,-192.69 434.97,-183.87 430.75,-189.46"/>
</g>
<!-- Node12 -->
<g id="node12" class="node">
<title>Node12</title>
<g id="a_node12"><a xlink:href="../../d1/d65/class_gam_r_1_1_coulex_1_1_level.html#a5b8c0227f0d4f75f5e57c58d61b9bf4b" target="_top" xlink:title=" ">
<polygon fill="white" stroke="black" points="406,-113 406,-143 518,-143 518,-113 406,-113"/>
<text text-anchor="start" x="414" y="-131" font-family="Helvetica,sans-Serif" font-size="10.00">GamR::Coulex::Level</text>
<text text-anchor="middle" x="462" y="-120" font-family="Helvetica,sans-Serif" font-size="10.00">::PrintSP</text>
</a>
</g>
</g>
<!-- Node11&#45;&gt;Node12 -->
<g id="edge13" class="edge">
<title>Node11&#45;&gt;Node12</title>
<path fill="none" stroke="midnightblue" d="M352.24,-113.06C366.63,-115.04 381.63,-117.1 395.73,-119.03"/>
<polygon fill="midnightblue" stroke="midnightblue" points="395.44,-122.53 405.82,-120.42 396.39,-115.59 395.44,-122.53"/>
</g>
<!-- Node13 -->
<g id="node13" class="node">
<title>Node13</title>
<g id="a_node13"><a xlink:href="../../db/d16/class_gam_r_1_1_coulex_1_1_level_scheme.html#a807279006620a7c5d147431f72ed5be6" target="_top" xlink:title=" ">
<polygon fill="white" stroke="black" points="388,-64 388,-94 536,-94 536,-64 388,-64"/>
<text text-anchor="start" x="396" y="-82" font-family="Helvetica,sans-Serif" font-size="10.00">GamR::Coulex::LevelScheme</text>
<text text-anchor="middle" x="462" y="-71" font-family="Helvetica,sans-Serif" font-size="10.00">::SetIndices</text>
</a>
</g>
</g>
<!-- Node11&#45;&gt;Node13 -->
<g id="edge14" class="edge">
<title>Node11&#45;&gt;Node13</title>
<path fill="none" stroke="midnightblue" d="M352.24,-93.34C360.69,-92.23 369.35,-91.09 377.92,-89.96"/>
<polygon fill="midnightblue" stroke="midnightblue" points="378.45,-93.42 387.91,-88.64 377.54,-86.48 378.45,-93.42"/>
</g>
<!-- Node16 -->
<g id="node16" class="node">
<title>Node16</title>
<g id="a_node16"><a xlink:href="../../dc/d89/namespace_gam_r_1_1_spect.html#a54b953c08bfbe870df0e0c9c6aa23648" target="_top" xlink:title=" ">
<polygon fill="white" stroke="black" points="409.5,-0.5 409.5,-19.5 514.5,-19.5 514.5,-0.5 409.5,-0.5"/>
<text text-anchor="middle" x="462" y="-7.5" font-family="Helvetica,sans-Serif" font-size="10.00">GamR::Spect::Draw</text>
</a>
</g>
</g>
<!-- Node15&#45;&gt;Node16 -->
<g id="edge17" class="edge">
<title>Node15&#45;&gt;Node16</title>
<path fill="none" stroke="midnightblue" d="M292.68,-10C315.14,-10 361.17,-10 399.42,-10"/>
<polygon fill="midnightblue" stroke="midnightblue" points="399.47,-13.5 409.47,-10 399.47,-6.5 399.47,-13.5"/>
</g>
<!-- Node17 -->
<g id="node17" class="node">
<title>Node17</title>
<g id="a_node17"><a xlink:href="../../dc/d89/namespace_gam_r_1_1_spect.html#a56e80bce5bf691212c8b7dfb76c2d2b4" target="_top" xlink:title=" ">
<polygon fill="white" stroke="black" points="572,-0.5 572,-19.5 717,-19.5 717,-0.5 572,-0.5"/>
<text text-anchor="middle" x="644.5" y="-7.5" font-family="Helvetica,sans-Serif" font-size="10.00">GamR::Spect::List1DSpectra</text>
</a>
</g>
</g>
<!-- Node16&#45;&gt;Node17 -->
<g id="edge18" class="edge">
<title>Node16&#45;&gt;Node17</title>
<path fill="none" stroke="midnightblue" d="M514.72,-10C529.34,-10 545.61,-10 561.53,-10"/>
<polygon fill="midnightblue" stroke="midnightblue" points="561.93,-13.5 571.93,-10 561.93,-6.5 561.93,-13.5"/>
</g>
</g>
</svg>
        <g id="navigator" transform="translate(0 0)" fill="#404254">
                <rect fill="#f2f5e9" fill-opacity="0.5" stroke="#606060" stroke-width=".5" x="0" y="0" width="60" height="60"/>
                <use id="zoomplus" xlink:href="#zoomPlus" x="17" y="9" onmousedown="handleZoom(evt,'in')"/>
                <use id="zoomminus" xlink:href="#zoomMin" x="42" y="9" onmousedown="handleZoom(evt,'out')"/>
                <use id="reset" xlink:href="#resetDef" x="30" y="36" onmousedown="handleReset()"/>
                <g id="arrowUp" xlink:href="#dirArrow" transform="translate(30 24)" onmousedown="handlePan(0,-1)">
                  <use xlink:href="#rim" fill="#404040">
                        <set attributeName="fill" to="#808080" begin="arrowUp.mouseover" end="arrowUp.mouseout"/>
                  </use>
                  <path fill="none" stroke="white" stroke-width="1.5" d="M0,-3.0v7 M-2.5,-0.5L0,-3.0L2.5,-0.5"/>
                </g>
                <g id="arrowRight" xlink:href="#dirArrow" transform="rotate(90) translate(36 -43)" onmousedown="handlePan(1,0)">
                  <use xlink:href="#rim" fill="#404040">
                        <set attributeName="fill" to="#808080" begin="arrowRight.mouseover" end="arrowRight.mouseout"/>
                  </use>
                  <path fill="none" stroke="white" stroke-width="1.5" d="M0,-3.0v7 M-2.5,-0.5L0,-3.0L2.5,-0.5"/>
                </g>
                <g id="arrowDown" xlink:href="#dirArrow" transform="rotate(180) translate(-30 -48)" onmousedown="handlePan(0,1)">
                  <use xlink:href="#rim" fill="#404040">
                        <set attributeName="fill" to="#808080" begin="arrowDown.mouseover" end="arrowDown.mouseout"/>
                  </use>
                  <path fill="none" stroke="white" stroke-width="1.5" d="M0,-3.0v7 M-2.5,-0.5L0,-3.0L2.5,-0.5"/>
                </g>
                <g id="arrowLeft" xlink:href="#dirArrow" transform="rotate(270) translate(-36 17)" onmousedown="handlePan(-1,0)">
                  <use xlink:href="#rim" fill="#404040">
                        <set attributeName="fill" to="#808080" begin="arrowLeft.mouseover" end="arrowLeft.mouseout"/>
                  </use>
                  <path fill="none" stroke="white" stroke-width="1.5" d="M0,-3.0v7 M-2.5,-0.5L0,-3.0L2.5,-0.5"/>
                </g>
        </g>
        <svg viewBox="0 0 15 15" width="100%" height="30px" preserveAspectRatio="xMaxYMin meet">
         <g id="arrow_out" transform="scale(0.3 0.3)">
          <a xlink:href="class_gam_r_1_1_coulex_1_1_coulex_calculation_a46d4f1bd67b5c6c438efd93b9f1e4838_cgraph_org.svg" target="_base">
           <rect id="button" ry="5" rx="5" y="6" x="6" height="38" width="38"
                fill="#f2f5e9" fill-opacity="0.5" stroke="#606060" stroke-width="1.0"/>
           <path id="arrow"
             d="M 11.500037,31.436501 C 11.940474,20.09759 22.043105,11.32322 32.158766,21.979434 L 37.068811,17.246167 C 37.068811,17.246167 37.088388,32 37.088388,32 L 22.160133,31.978069 C 22.160133,31.978069 26.997745,27.140456 26.997745,27.140456 C 18.528582,18.264221 13.291696,25.230495 11.500037,31.436501 z"
             style="fill:#404040;"/>
          </a>
         </g>
        </svg>
</svg>
