<?xml version="1.0" encoding="UTF-8" standalone="no"?>
<!DOCTYPE svg PUBLIC "-//W3C//DTD SVG 1.1//EN"
 "http://www.w3.org/Graphics/SVG/1.1/DTD/svg11.dtd">
<!-- Generated by graphviz version 5.0.0 (20220708.1001)
 -->
<!-- Title: src/lib/sort/TimeDifferencePairs.hh Pages: 1 -->
<svg width="1756pt" height="263pt"
 viewBox="0.00 0.00 1755.50 263.00" xmlns="http://www.w3.org/2000/svg" xmlns:xlink="http://www.w3.org/1999/xlink">
<g id="graph0" class="graph" transform="scale(1 1) rotate(0) translate(4 259)">
<title>src/lib/sort/TimeDifferencePairs.hh</title>
<polygon fill="white" stroke="transparent" points="-4,4 -4,-259 1751.5,-259 1751.5,4 -4,4"/>
<!-- Node1 -->
<g id="node1" class="node">
<title>Node1</title>
<g id="a_node1"><a xlink:title=" ">
<polygon fill="#bfbfbf" stroke="black" points="1029,-224.5 1029,-254.5 1160,-254.5 1160,-224.5 1029,-224.5"/>
<text text-anchor="start" x="1037" y="-242.5" font-family="Helvetica,sans-Serif" font-size="10.00">src/lib/sort/TimeDifference</text>
<text text-anchor="middle" x="1094.5" y="-231.5" font-family="Helvetica,sans-Serif" font-size="10.00">Pairs.hh</text>
</a>
</g>
</g>
<!-- Node2 -->
<g id="node2" class="node">
<title>Node2</title>
<g id="a_node2"><a xlink:href="../../db/dea/_sorter_8hh.html" target="_top" xlink:title=" ">
<polygon fill="white" stroke="black" points="734.5,-56.5 734.5,-75.5 790.5,-75.5 790.5,-56.5 734.5,-56.5"/>
<text text-anchor="middle" x="762.5" y="-63.5" font-family="Helvetica,sans-Serif" font-size="10.00">Sorter.hh</text>
</a>
</g>
</g>
<!-- Node1&#45;&gt;Node2 -->
<g id="edge1" class="edge">
<title>Node1&#45;&gt;Node2</title>
<path fill="none" stroke="midnightblue" d="M1028.9,-230.99C987.29,-224.18 933.41,-211.44 890.5,-188 840.83,-160.87 796.08,-109.72 775.09,-83.47"/>
<polygon fill="midnightblue" stroke="midnightblue" points="777.84,-81.3 768.91,-75.59 772.33,-85.62 777.84,-81.3"/>
</g>
<!-- Node5 -->
<g id="node5" class="node">
<title>Node5</title>
<g id="a_node5"><a xlink:title=" ">
<polygon fill="white" stroke="#bfbfbf" points="865,-0.5 865,-19.5 916,-19.5 916,-0.5 865,-0.5"/>
<text text-anchor="middle" x="890.5" y="-7.5" font-family="Helvetica,sans-Serif" font-size="10.00">memory</text>
</a>
</g>
</g>
<!-- Node1&#45;&gt;Node5 -->
<g id="edge18" class="edge">
<title>Node1&#45;&gt;Node5</title>
<path fill="none" stroke="midnightblue" d="M1081.24,-224.43C1071.78,-214.35 1058.78,-200.41 1047.5,-188 994.23,-129.37 932.11,-58.62 904.72,-27.29"/>
<polygon fill="midnightblue" stroke="midnightblue" points="907.16,-24.77 897.95,-19.54 901.89,-29.37 907.16,-24.77"/>
</g>
<!-- Node8 -->
<g id="node8" class="node">
<title>Node8</title>
<g id="a_node8"><a xlink:title=" ">
<polygon fill="white" stroke="#bfbfbf" points="1058,-0.5 1058,-19.5 1099,-19.5 1099,-0.5 1058,-0.5"/>
<text text-anchor="middle" x="1078.5" y="-7.5" font-family="Helvetica,sans-Serif" font-size="10.00">string</text>
</a>
</g>
</g>
<!-- Node1&#45;&gt;Node8 -->
<g id="edge20" class="edge">
<title>Node1&#45;&gt;Node8</title>
<path fill="none" stroke="midnightblue" d="M1093.34,-224.35C1092.51,-214.23 1091.4,-200.28 1090.5,-188 1086.28,-130.55 1081.82,-62.57 1079.72,-30.11"/>
<polygon fill="midnightblue" stroke="midnightblue" points="1083.2,-29.6 1079.06,-19.84 1076.21,-30.05 1083.2,-29.6"/>
</g>
<!-- Node10 -->
<g id="node10" class="node">
<title>Node10</title>
<g id="a_node10"><a xlink:title=" ">
<polygon fill="white" stroke="#bfbfbf" points="934.5,-0.5 934.5,-19.5 978.5,-19.5 978.5,-0.5 934.5,-0.5"/>
<text text-anchor="middle" x="956.5" y="-7.5" font-family="Helvetica,sans-Serif" font-size="10.00">vector</text>
</a>
</g>
</g>
<!-- Node1&#45;&gt;Node10 -->
<g id="edge21" class="edge">
<title>Node1&#45;&gt;Node10</title>
<path fill="none" stroke="midnightblue" d="M1085.87,-224.27C1061.73,-184.48 993.58,-72.13 967.16,-28.57"/>
<polygon fill="midnightblue" stroke="midnightblue" points="970.09,-26.66 961.92,-19.93 964.11,-30.29 970.09,-26.66"/>
</g>
<!-- Node14 -->
<g id="node14" class="node">
<title>Node14</title>
<g id="a_node14"><a xlink:title=" ">
<polygon fill="white" stroke="#bfbfbf" points="997,-0.5 997,-19.5 1040,-19.5 1040,-0.5 997,-0.5"/>
<text text-anchor="middle" x="1018.5" y="-7.5" font-family="Helvetica,sans-Serif" font-size="10.00">TH2.h</text>
</a>
</g>
</g>
<!-- Node1&#45;&gt;Node14 -->
<g id="edge22" class="edge">
<title>Node1&#45;&gt;Node14</title>
<path fill="none" stroke="midnightblue" d="M1089.75,-224.27C1076.56,-184.81 1039.55,-74.02 1024.74,-29.68"/>
<polygon fill="midnightblue" stroke="midnightblue" points="1027.97,-28.3 1021.48,-19.93 1021.33,-30.52 1027.97,-28.3"/>
</g>
<!-- Node19 -->
<g id="node19" class="node">
<title>Node19</title>
<g id="a_node19"><a xlink:title=" ">
<polygon fill="white" stroke="#bfbfbf" points="1231.5,-0.5 1231.5,-19.5 1283.5,-19.5 1283.5,-0.5 1231.5,-0.5"/>
<text text-anchor="middle" x="1257.5" y="-7.5" font-family="Helvetica,sans-Serif" font-size="10.00">sstream</text>
</a>
</g>
</g>
<!-- Node1&#45;&gt;Node19 -->
<g id="edge19" class="edge">
<title>Node1&#45;&gt;Node19</title>
<path fill="none" stroke="midnightblue" d="M1099.09,-224.38C1104.18,-209.7 1113.19,-186.34 1124.5,-168 1159.48,-111.27 1214.12,-53.83 1241.18,-26.86"/>
<polygon fill="midnightblue" stroke="midnightblue" points="1243.69,-29.3 1248.34,-19.79 1238.77,-24.32 1243.69,-29.3"/>
</g>
<!-- Node20 -->
<g id="node20" class="node">
<title>Node20</title>
<g id="a_node20"><a xlink:title=" ">
<polygon fill="white" stroke="#bfbfbf" points="1248.5,-168.5 1248.5,-187.5 1328.5,-187.5 1328.5,-168.5 1248.5,-168.5"/>
<text text-anchor="middle" x="1288.5" y="-175.5" font-family="Helvetica,sans-Serif" font-size="10.00">TTreeReader.h</text>
</a>
</g>
</g>
<!-- Node1&#45;&gt;Node20 -->
<g id="edge23" class="edge">
<title>Node1&#45;&gt;Node20</title>
<path fill="none" stroke="midnightblue" d="M1140.48,-224.4C1174.14,-214.07 1219.28,-200.23 1250.82,-190.56"/>
<polygon fill="midnightblue" stroke="midnightblue" points="1252.02,-193.85 1260.55,-187.57 1249.97,-187.16 1252.02,-193.85"/>
</g>
<!-- Node21 -->
<g id="node21" class="node">
<title>Node21</title>
<g id="a_node21"><a xlink:title=" ">
<polygon fill="white" stroke="#bfbfbf" points="1347,-168.5 1347,-187.5 1450,-187.5 1450,-168.5 1347,-168.5"/>
<text text-anchor="middle" x="1398.5" y="-175.5" font-family="Helvetica,sans-Serif" font-size="10.00">TTreeReaderArray.h</text>
</a>
</g>
</g>
<!-- Node1&#45;&gt;Node21 -->
<g id="edge24" class="edge">
<title>Node1&#45;&gt;Node21</title>
<path fill="none" stroke="midnightblue" d="M1160.09,-225.66C1215.4,-214.84 1293.57,-199.54 1345.11,-189.45"/>
<polygon fill="midnightblue" stroke="midnightblue" points="1345.91,-192.86 1355.05,-187.5 1344.57,-185.99 1345.91,-192.86"/>
</g>
<!-- Node22 -->
<g id="node22" class="node">
<title>Node22</title>
<g id="a_node22"><a xlink:title=" ">
<polygon fill="white" stroke="#bfbfbf" points="1468,-168.5 1468,-187.5 1573,-187.5 1573,-168.5 1468,-168.5"/>
<text text-anchor="middle" x="1520.5" y="-175.5" font-family="Helvetica,sans-Serif" font-size="10.00">TTreeReaderValue.h</text>
</a>
</g>
</g>
<!-- Node1&#45;&gt;Node22 -->
<g id="edge25" class="edge">
<title>Node1&#45;&gt;Node22</title>
<path fill="none" stroke="midnightblue" d="M1160.13,-229.6C1231.08,-219.94 1347.77,-203.93 1457.97,-188.21"/>
<polygon fill="midnightblue" stroke="midnightblue" points="1458.53,-191.67 1467.93,-186.79 1457.54,-184.74 1458.53,-191.67"/>
</g>
<!-- Node23 -->
<g id="node23" class="node">
<title>Node23</title>
<g id="a_node23"><a xlink:href="../../d9/d3f/_photon_8hh.html" target="_top" xlink:title=" ">
<polygon fill="white" stroke="black" points="1133,-168.5 1133,-187.5 1230,-187.5 1230,-168.5 1133,-168.5"/>
<text text-anchor="middle" x="1181.5" y="-175.5" font-family="Helvetica,sans-Serif" font-size="10.00">nucleus/Photon.hh</text>
</a>
</g>
</g>
<!-- Node1&#45;&gt;Node23 -->
<g id="edge26" class="edge">
<title>Node1&#45;&gt;Node23</title>
<path fill="none" stroke="midnightblue" d="M1115.12,-224.4C1128.8,-215.04 1146.71,-202.79 1160.48,-193.38"/>
<polygon fill="midnightblue" stroke="midnightblue" points="1162.56,-196.19 1168.84,-187.66 1158.61,-190.41 1162.56,-196.19"/>
</g>
<!-- Node3 -->
<g id="node3" class="node">
<title>Node3</title>
<g id="a_node3"><a xlink:title=" ">
<polygon fill="white" stroke="#bfbfbf" points="400.5,-0.5 400.5,-19.5 446.5,-19.5 446.5,-0.5 400.5,-0.5"/>
<text text-anchor="middle" x="423.5" y="-7.5" font-family="Helvetica,sans-Serif" font-size="10.00">atomic</text>
</a>
</g>
</g>
<!-- Node2&#45;&gt;Node3 -->
<g id="edge2" class="edge">
<title>Node2&#45;&gt;Node3</title>
<path fill="none" stroke="midnightblue" d="M734.35,-62.1C681.68,-56.41 564.56,-42.53 456.89,-20.07"/>
<polygon fill="midnightblue" stroke="midnightblue" points="457.34,-16.58 446.83,-17.94 455.89,-23.43 457.34,-16.58"/>
</g>
<!-- Node4 -->
<g id="node4" class="node">
<title>Node4</title>
<g id="a_node4"><a xlink:title=" ">
<polygon fill="white" stroke="#bfbfbf" points="1178,-0.5 1178,-19.5 1213,-19.5 1213,-0.5 1178,-0.5"/>
<text text-anchor="middle" x="1195.5" y="-7.5" font-family="Helvetica,sans-Serif" font-size="10.00">map</text>
</a>
</g>
</g>
<!-- Node2&#45;&gt;Node4 -->
<g id="edge3" class="edge">
<title>Node2&#45;&gt;Node4</title>
<path fill="none" stroke="midnightblue" d="M790.98,-64.03C856.35,-61.35 1022.09,-51.93 1167.74,-19.97"/>
<polygon fill="midnightblue" stroke="midnightblue" points="1168.75,-23.33 1177.75,-17.73 1167.23,-16.5 1168.75,-23.33"/>
</g>
<!-- Node2&#45;&gt;Node5 -->
<g id="edge4" class="edge">
<title>Node2&#45;&gt;Node5</title>
<path fill="none" stroke="midnightblue" d="M782.78,-56.44C803.85,-47.56 837.02,-33.56 860.99,-23.45"/>
<polygon fill="midnightblue" stroke="midnightblue" points="862.46,-26.63 870.31,-19.52 859.74,-20.18 862.46,-26.63"/>
</g>
<!-- Node6 -->
<g id="node6" class="node">
<title>Node6</title>
<g id="a_node6"><a xlink:title=" ">
<polygon fill="white" stroke="#bfbfbf" points="465,-0.5 465,-19.5 508,-19.5 508,-0.5 465,-0.5"/>
<text text-anchor="middle" x="486.5" y="-7.5" font-family="Helvetica,sans-Serif" font-size="10.00">mutex</text>
</a>
</g>
</g>
<!-- Node2&#45;&gt;Node6 -->
<g id="edge5" class="edge">
<title>Node2&#45;&gt;Node6</title>
<path fill="none" stroke="midnightblue" d="M734.25,-60.87C690.04,-54.19 601.66,-39.94 517.97,-20.15"/>
<polygon fill="midnightblue" stroke="midnightblue" points="518.59,-16.7 508.05,-17.78 516.96,-23.51 518.59,-16.7"/>
</g>
<!-- Node7 -->
<g id="node7" class="node">
<title>Node7</title>
<g id="a_node7"><a xlink:title=" ">
<polygon fill="white" stroke="#bfbfbf" points="526,-0.5 526,-19.5 585,-19.5 585,-0.5 526,-0.5"/>
<text text-anchor="middle" x="555.5" y="-7.5" font-family="Helvetica,sans-Serif" font-size="10.00">stdexcept</text>
</a>
</g>
</g>
<!-- Node2&#45;&gt;Node7 -->
<g id="edge6" class="edge">
<title>Node2&#45;&gt;Node7</title>
<path fill="none" stroke="midnightblue" d="M734.15,-57.6C698.12,-48.2 635.72,-31.93 595.03,-21.31"/>
<polygon fill="midnightblue" stroke="midnightblue" points="595.74,-17.88 585.18,-18.74 593.97,-24.65 595.74,-17.88"/>
</g>
<!-- Node2&#45;&gt;Node8 -->
<g id="edge7" class="edge">
<title>Node2&#45;&gt;Node8</title>
<path fill="none" stroke="midnightblue" d="M790.87,-61.94C841.01,-56.23 948.68,-42.65 1047.82,-20.13"/>
<polygon fill="midnightblue" stroke="midnightblue" points="1048.73,-23.52 1057.69,-17.86 1047.16,-16.69 1048.73,-23.52"/>
</g>
<!-- Node9 -->
<g id="node9" class="node">
<title>Node9</title>
<g id="a_node9"><a xlink:title=" ">
<polygon fill="white" stroke="#bfbfbf" points="603.5,-0.5 603.5,-19.5 647.5,-19.5 647.5,-0.5 603.5,-0.5"/>
<text text-anchor="middle" x="625.5" y="-7.5" font-family="Helvetica,sans-Serif" font-size="10.00">thread</text>
</a>
</g>
</g>
<!-- Node2&#45;&gt;Node9 -->
<g id="edge8" class="edge">
<title>Node2&#45;&gt;Node9</title>
<path fill="none" stroke="midnightblue" d="M740.79,-56.44C718.15,-47.52 682.43,-33.44 656.75,-23.32"/>
<polygon fill="midnightblue" stroke="midnightblue" points="657.69,-19.93 647.11,-19.52 655.13,-26.44 657.69,-19.93"/>
</g>
<!-- Node2&#45;&gt;Node10 -->
<g id="edge9" class="edge">
<title>Node2&#45;&gt;Node10</title>
<path fill="none" stroke="midnightblue" d="M790.6,-57.22C822.92,-48.27 877.55,-33.12 924.5,-20 924.6,-19.97 924.7,-19.94 924.8,-19.92"/>
<polygon fill="midnightblue" stroke="midnightblue" points="925.78,-23.28 934.47,-17.21 923.9,-16.53 925.78,-23.28"/>
</g>
<!-- Node11 -->
<g id="node11" class="node">
<title>Node11</title>
<g id="a_node11"><a xlink:title=" ">
<polygon fill="white" stroke="#bfbfbf" points="666,-0.5 666,-19.5 721,-19.5 721,-0.5 666,-0.5"/>
<text text-anchor="middle" x="693.5" y="-7.5" font-family="Helvetica,sans-Serif" font-size="10.00">TChain.h</text>
</a>
</g>
</g>
<!-- Node2&#45;&gt;Node11 -->
<g id="edge10" class="edge">
<title>Node2&#45;&gt;Node11</title>
<path fill="none" stroke="midnightblue" d="M751.41,-56.32C741.01,-48.18 725.24,-35.84 712.78,-26.09"/>
<polygon fill="midnightblue" stroke="midnightblue" points="714.82,-23.24 704.79,-19.83 710.51,-28.75 714.82,-23.24"/>
</g>
<!-- Node12 -->
<g id="node12" class="node">
<title>Node12</title>
<g id="a_node12"><a xlink:title=" ">
<polygon fill="white" stroke="#bfbfbf" points="739.5,-0.5 739.5,-19.5 785.5,-19.5 785.5,-0.5 739.5,-0.5"/>
<text text-anchor="middle" x="762.5" y="-7.5" font-family="Helvetica,sans-Serif" font-size="10.00">TFile.h</text>
</a>
</g>
</g>
<!-- Node2&#45;&gt;Node12 -->
<g id="edge11" class="edge">
<title>Node2&#45;&gt;Node12</title>
<path fill="none" stroke="midnightblue" d="M762.5,-56.08C762.5,-49.01 762.5,-38.86 762.5,-29.99"/>
<polygon fill="midnightblue" stroke="midnightblue" points="766,-29.75 762.5,-19.75 759,-29.75 766,-29.75"/>
</g>
<!-- Node13 -->
<g id="node13" class="node">
<title>Node13</title>
<g id="a_node13"><a xlink:title=" ">
<polygon fill="white" stroke="#bfbfbf" points="1117,-0.5 1117,-19.5 1160,-19.5 1160,-0.5 1117,-0.5"/>
<text text-anchor="middle" x="1138.5" y="-7.5" font-family="Helvetica,sans-Serif" font-size="10.00">TH1.h</text>
</a>
</g>
</g>
<!-- Node2&#45;&gt;Node13 -->
<g id="edge12" class="edge">
<title>Node2&#45;&gt;Node13</title>
<path fill="none" stroke="midnightblue" d="M790.57,-62.9C848.25,-58.26 984.37,-45.61 1107.04,-20.02"/>
<polygon fill="midnightblue" stroke="midnightblue" points="1107.92,-23.41 1116.98,-17.91 1106.47,-16.56 1107.92,-23.41"/>
</g>
<!-- Node2&#45;&gt;Node14 -->
<g id="edge13" class="edge">
<title>Node2&#45;&gt;Node14</title>
<path fill="none" stroke="midnightblue" d="M790.73,-60.15C831.77,-52.93 910.47,-38.44 987.07,-19.93"/>
<polygon fill="midnightblue" stroke="midnightblue" points="988,-23.3 996.88,-17.53 986.34,-16.5 988,-23.3"/>
</g>
<!-- Node15 -->
<g id="node15" class="node">
<title>Node15</title>
<g id="a_node15"><a xlink:title=" ">
<polygon fill="white" stroke="#bfbfbf" points="804,-0.5 804,-19.5 847,-19.5 847,-0.5 804,-0.5"/>
<text text-anchor="middle" x="825.5" y="-7.5" font-family="Helvetica,sans-Serif" font-size="10.00">TH3.h</text>
</a>
</g>
</g>
<!-- Node2&#45;&gt;Node15 -->
<g id="edge14" class="edge">
<title>Node2&#45;&gt;Node15</title>
<path fill="none" stroke="midnightblue" d="M772.62,-56.32C782.03,-48.26 796.24,-36.08 807.57,-26.37"/>
<polygon fill="midnightblue" stroke="midnightblue" points="809.88,-29 815.19,-19.83 805.32,-23.68 809.88,-29"/>
</g>
<!-- Node16 -->
<g id="node16" class="node">
<title>Node16</title>
<g id="a_node16"><a xlink:title=" ">
<polygon fill="white" stroke="#bfbfbf" points="0,-0.5 0,-19.5 59,-19.5 59,-0.5 0,-0.5"/>
<text text-anchor="middle" x="29.5" y="-7.5" font-family="Helvetica,sans-Serif" font-size="10.00">TObject.h</text>
</a>
</g>
</g>
<!-- Node2&#45;&gt;Node16 -->
<g id="edge15" class="edge">
<title>Node2&#45;&gt;Node16</title>
<path fill="none" stroke="midnightblue" d="M734.18,-64.87C640.53,-64.07 332.26,-58.59 69.4,-20.05"/>
<polygon fill="midnightblue" stroke="midnightblue" points="69.68,-16.56 59.28,-18.55 68.66,-23.48 69.68,-16.56"/>
</g>
<!-- Node17 -->
<g id="node17" class="node">
<title>Node17</title>
<g id="a_node17"><a xlink:title=" ">
<polygon fill="white" stroke="#bfbfbf" points="77,-0.5 77,-19.5 216,-19.5 216,-0.5 77,-0.5"/>
<text text-anchor="middle" x="146.5" y="-7.5" font-family="Helvetica,sans-Serif" font-size="10.00">ROOT/TThreadedObject.hxx</text>
</a>
</g>
</g>
<!-- Node2&#45;&gt;Node17 -->
<g id="edge16" class="edge">
<title>Node2&#45;&gt;Node17</title>
<path fill="none" stroke="midnightblue" d="M734.23,-62.93C655.63,-57.11 427.59,-39.8 226.44,-20.06"/>
<polygon fill="midnightblue" stroke="midnightblue" points="226.57,-16.56 216.27,-19.06 225.88,-23.53 226.57,-16.56"/>
</g>
<!-- Node18 -->
<g id="node18" class="node">
<title>Node18</title>
<g id="a_node18"><a xlink:title=" ">
<polygon fill="white" stroke="#bfbfbf" points="234.5,-0.5 234.5,-19.5 382.5,-19.5 382.5,-0.5 234.5,-0.5"/>
<text text-anchor="middle" x="308.5" y="-7.5" font-family="Helvetica,sans-Serif" font-size="10.00">ROOT/TTreeProcessorMT.hxx</text>
</a>
</g>
</g>
<!-- Node2&#45;&gt;Node18 -->
<g id="edge17" class="edge">
<title>Node2&#45;&gt;Node18</title>
<path fill="none" stroke="midnightblue" d="M734.44,-61.66C667,-53.64 493.69,-33.03 390.11,-20.71"/>
<polygon fill="midnightblue" stroke="midnightblue" points="390.35,-17.21 380,-19.5 389.52,-24.16 390.35,-17.21"/>
</g>
<!-- Node24 -->
<g id="node24" class="node">
<title>Node24</title>
<g id="a_node24"><a xlink:href="../../d3/d2c/_transition_8hh.html" target="_top" xlink:title=" ">
<polygon fill="white" stroke="black" points="1293.5,-112.5 1293.5,-131.5 1365.5,-131.5 1365.5,-112.5 1293.5,-112.5"/>
<text text-anchor="middle" x="1329.5" y="-119.5" font-family="Helvetica,sans-Serif" font-size="10.00">Transition.hh</text>
</a>
</g>
</g>
<!-- Node23&#45;&gt;Node24 -->
<g id="edge27" class="edge">
<title>Node23&#45;&gt;Node24</title>
<path fill="none" stroke="midnightblue" d="M1204.95,-168.44C1229.63,-159.44 1268.69,-145.19 1296.48,-135.05"/>
<polygon fill="midnightblue" stroke="midnightblue" points="1297.96,-138.23 1306.16,-131.52 1295.56,-131.66 1297.96,-138.23"/>
</g>
<!-- Node24&#45;&gt;Node4 -->
<g id="edge28" class="edge">
<title>Node24&#45;&gt;Node4</title>
<path fill="none" stroke="midnightblue" d="M1318.99,-112.37C1296.28,-93.73 1242.44,-49.53 1213.94,-26.13"/>
<polygon fill="midnightblue" stroke="midnightblue" points="1215.92,-23.23 1205.97,-19.59 1211.47,-28.64 1215.92,-23.23"/>
</g>
<!-- Node24&#45;&gt;Node8 -->
<g id="edge30" class="edge">
<title>Node24&#45;&gt;Node8</title>
<path fill="none" stroke="midnightblue" d="M1309.8,-112.37C1265.72,-93.05 1158.96,-46.26 1107.36,-23.65"/>
<polygon fill="midnightblue" stroke="midnightblue" points="1108.67,-20.4 1098.1,-19.59 1105.86,-26.81 1108.67,-20.4"/>
</g>
<!-- Node25 -->
<g id="node25" class="node">
<title>Node25</title>
<g id="a_node25"><a xlink:title=" ">
<polygon fill="white" stroke="#bfbfbf" points="1541.5,-0.5 1541.5,-19.5 1595.5,-19.5 1595.5,-0.5 1541.5,-0.5"/>
<text text-anchor="middle" x="1568.5" y="-7.5" font-family="Helvetica,sans-Serif" font-size="10.00">iostream</text>
</a>
</g>
</g>
<!-- Node24&#45;&gt;Node25 -->
<g id="edge29" class="edge">
<title>Node24&#45;&gt;Node25</title>
<path fill="none" stroke="midnightblue" d="M1348.25,-112.37C1390.14,-93.09 1491.47,-46.45 1540.71,-23.79"/>
<polygon fill="midnightblue" stroke="midnightblue" points="1542.21,-26.95 1549.83,-19.59 1539.29,-20.59 1542.21,-26.95"/>
</g>
<!-- Node26 -->
<g id="node26" class="node">
<title>Node26</title>
<g id="a_node26"><a xlink:title=" ">
<polygon fill="white" stroke="#bfbfbf" points="1613.5,-0.5 1613.5,-19.5 1667.5,-19.5 1667.5,-0.5 1613.5,-0.5"/>
<text text-anchor="middle" x="1640.5" y="-7.5" font-family="Helvetica,sans-Serif" font-size="10.00">Rtypes.h</text>
</a>
</g>
</g>
<!-- Node24&#45;&gt;Node26 -->
<g id="edge31" class="edge">
<title>Node24&#45;&gt;Node26</title>
<path fill="none" stroke="midnightblue" d="M1355.56,-112.39C1382.42,-103.46 1425.48,-89.02 1462.5,-76 1513.56,-58.04 1572.51,-36.32 1608.12,-23.09"/>
<polygon fill="midnightblue" stroke="midnightblue" points="1609.37,-26.36 1617.52,-19.59 1606.93,-19.8 1609.37,-26.36"/>
</g>
<!-- Node27 -->
<g id="node27" class="node">
<title>Node27</title>
<g id="a_node27"><a xlink:title=" ">
<polygon fill="white" stroke="#bfbfbf" points="1685.5,-0.5 1685.5,-19.5 1747.5,-19.5 1747.5,-0.5 1685.5,-0.5"/>
<text text-anchor="middle" x="1716.5" y="-7.5" font-family="Helvetica,sans-Serif" font-size="10.00">TNamed.h</text>
</a>
</g>
</g>
<!-- Node24&#45;&gt;Node27 -->
<g id="edge32" class="edge">
<title>Node24&#45;&gt;Node27</title>
<path fill="none" stroke="midnightblue" d="M1364.08,-112.44C1399.08,-103.68 1454.71,-89.47 1502.5,-76 1565.12,-58.35 1637.45,-35.96 1679.95,-22.59"/>
<polygon fill="midnightblue" stroke="midnightblue" points="1681.09,-25.9 1689.58,-19.56 1678.99,-19.23 1681.09,-25.9"/>
</g>
<!-- Node28 -->
<g id="node28" class="node">
<title>Node28</title>
<g id="a_node28"><a xlink:href="../../dd/d50/_gate_8hh.html" target="_top" xlink:title=" ">
<polygon fill="white" stroke="black" points="1289.5,-56.5 1289.5,-75.5 1369.5,-75.5 1369.5,-56.5 1289.5,-56.5"/>
<text text-anchor="middle" x="1329.5" y="-63.5" font-family="Helvetica,sans-Serif" font-size="10.00">toolkit/Gate.hh</text>
</a>
</g>
</g>
<!-- Node24&#45;&gt;Node28 -->
<g id="edge33" class="edge">
<title>Node24&#45;&gt;Node28</title>
<path fill="none" stroke="midnightblue" d="M1329.5,-112.08C1329.5,-105.01 1329.5,-94.86 1329.5,-85.99"/>
<polygon fill="midnightblue" stroke="midnightblue" points="1333,-85.75 1329.5,-75.75 1326,-85.75 1333,-85.75"/>
</g>
<!-- Node28&#45;&gt;Node4 -->
<g id="edge35" class="edge">
<title>Node28&#45;&gt;Node4</title>
<path fill="none" stroke="midnightblue" d="M1308.27,-56.44C1285.07,-47.1 1247.86,-32.1 1222.59,-21.92"/>
<polygon fill="midnightblue" stroke="midnightblue" points="1223.79,-18.63 1213.21,-18.14 1221.18,-25.12 1223.79,-18.63"/>
</g>
<!-- Node28&#45;&gt;Node8 -->
<g id="edge37" class="edge">
<title>Node28&#45;&gt;Node8</title>
<path fill="none" stroke="midnightblue" d="M1289.33,-57.95C1246.85,-50.25 1177.72,-37 1108.81,-19.88"/>
<polygon fill="midnightblue" stroke="midnightblue" points="1109.64,-16.49 1099.09,-17.44 1107.94,-23.27 1109.64,-16.49"/>
</g>
<!-- Node28&#45;&gt;Node13 -->
<g id="edge42" class="edge">
<title>Node28&#45;&gt;Node13</title>
<path fill="none" stroke="midnightblue" d="M1298.81,-56.45C1268.53,-48 1220.69,-34.59 1170,-20.13"/>
<polygon fill="midnightblue" stroke="midnightblue" points="1170.75,-16.7 1160.17,-17.32 1168.83,-23.43 1170.75,-16.7"/>
</g>
<!-- Node28&#45;&gt;Node14 -->
<g id="edge43" class="edge">
<title>Node28&#45;&gt;Node14</title>
<path fill="none" stroke="midnightblue" d="M1289.33,-60.13C1236.61,-53.38 1141.07,-39.98 1050.02,-19.86"/>
<polygon fill="midnightblue" stroke="midnightblue" points="1050.62,-16.41 1040.09,-17.64 1049.08,-23.24 1050.62,-16.41"/>
</g>
<!-- Node28&#45;&gt;Node19 -->
<g id="edge36" class="edge">
<title>Node28&#45;&gt;Node19</title>
<path fill="none" stroke="midnightblue" d="M1317.93,-56.32C1307.08,-48.18 1290.62,-35.84 1277.62,-26.09"/>
<polygon fill="midnightblue" stroke="midnightblue" points="1279.38,-23.03 1269.28,-19.83 1275.18,-28.63 1279.38,-23.03"/>
</g>
<!-- Node28&#45;&gt;Node25 -->
<g id="edge38" class="edge">
<title>Node28&#45;&gt;Node25</title>
<path fill="none" stroke="midnightblue" d="M1369.63,-56.44C1408.55,-48.06 1469.52,-34.74 1531.45,-20.2"/>
<polygon fill="midnightblue" stroke="midnightblue" points="1532.46,-23.56 1541.39,-17.86 1530.86,-16.75 1532.46,-23.56"/>
</g>
<!-- Node28&#45;&gt;Node26 -->
<g id="edge39" class="edge">
<title>Node28&#45;&gt;Node26</title>
<path fill="none" stroke="midnightblue" d="M1369.77,-59.48C1421.58,-52.14 1514.56,-38.17 1603.45,-20.08"/>
<polygon fill="midnightblue" stroke="midnightblue" points="1604.34,-23.47 1613.43,-18.02 1602.93,-16.61 1604.34,-23.47"/>
</g>
<!-- Node28&#45;&gt;Node27 -->
<g id="edge44" class="edge">
<title>Node28&#45;&gt;Node27</title>
<path fill="none" stroke="midnightblue" d="M1369.76,-61C1432.78,-54.47 1558.74,-40.36 1674.98,-20.13"/>
<polygon fill="midnightblue" stroke="midnightblue" points="1675.87,-23.53 1685.11,-18.35 1674.66,-16.64 1675.87,-23.53"/>
</g>
<!-- Node29 -->
<g id="node29" class="node">
<title>Node29</title>
<g id="a_node29"><a xlink:title=" ">
<polygon fill="white" stroke="#bfbfbf" points="1301.5,-0.5 1301.5,-19.5 1357.5,-19.5 1357.5,-0.5 1301.5,-0.5"/>
<text text-anchor="middle" x="1329.5" y="-7.5" font-family="Helvetica,sans-Serif" font-size="10.00">algorithm</text>
</a>
</g>
</g>
<!-- Node28&#45;&gt;Node29 -->
<g id="edge34" class="edge">
<title>Node28&#45;&gt;Node29</title>
<path fill="none" stroke="midnightblue" d="M1329.5,-56.08C1329.5,-49.01 1329.5,-38.86 1329.5,-29.99"/>
<polygon fill="midnightblue" stroke="midnightblue" points="1333,-29.75 1329.5,-19.75 1326,-29.75 1333,-29.75"/>
</g>
<!-- Node30 -->
<g id="node30" class="node">
<title>Node30</title>
<g id="a_node30"><a xlink:title=" ">
<polygon fill="white" stroke="#bfbfbf" points="1375.5,-0.5 1375.5,-19.5 1441.5,-19.5 1441.5,-0.5 1375.5,-0.5"/>
<text text-anchor="middle" x="1408.5" y="-7.5" font-family="Helvetica,sans-Serif" font-size="10.00">TBrowser.h</text>
</a>
</g>
</g>
<!-- Node28&#45;&gt;Node30 -->
<g id="edge40" class="edge">
<title>Node28&#45;&gt;Node30</title>
<path fill="none" stroke="midnightblue" d="M1342.19,-56.32C1354.4,-47.98 1373.08,-35.21 1387.5,-25.35"/>
<polygon fill="midnightblue" stroke="midnightblue" points="1389.56,-28.19 1395.84,-19.65 1385.61,-22.41 1389.56,-28.19"/>
</g>
<!-- Node31 -->
<g id="node31" class="node">
<title>Node31</title>
<g id="a_node31"><a xlink:title=" ">
<polygon fill="white" stroke="#bfbfbf" points="1460,-0.5 1460,-19.5 1523,-19.5 1523,-0.5 1460,-0.5"/>
<text text-anchor="middle" x="1491.5" y="-7.5" font-family="Helvetica,sans-Serif" font-size="10.00">TCanvas.h</text>
</a>
</g>
</g>
<!-- Node28&#45;&gt;Node31 -->
<g id="edge41" class="edge">
<title>Node28&#45;&gt;Node31</title>
<path fill="none" stroke="midnightblue" d="M1355.17,-56.44C1382.42,-47.36 1425.68,-32.94 1456.15,-22.78"/>
<polygon fill="midnightblue" stroke="midnightblue" points="1457.57,-26 1465.95,-19.52 1455.36,-19.36 1457.57,-26"/>
</g>
</g>
</svg>
