<?xml version="1.0" encoding="UTF-8" standalone="no"?>
<!DOCTYPE svg PUBLIC "-//W3C//DTD SVG 1.1//EN"
 "http://www.w3.org/Graphics/SVG/1.1/DTD/svg11.dtd">
<!-- Generated by graphviz version 2.49.3 (20211023.0002)
 -->
<!-- Title: GamR::Sort::Sorter::Tick Pages: 1 -->
<svg width="315pt" height="382pt"
 viewBox="0.00 0.00 315.00 382.00" xmlns="http://www.w3.org/2000/svg" xmlns:xlink="http://www.w3.org/1999/xlink">
<g id="graph0" class="graph" transform="scale(1 1) rotate(0) translate(4 378)">
<title>GamR::Sort::Sorter::Tick</title>
<polygon fill="white" stroke="transparent" points="-4,4 -4,-378 311,-378 311,4 -4,4"/>
<!-- Node1 -->
<g id="node1" class="node">
<title>Node1</title>
<g id="a_node1"><a xlink:title=" ">
<polygon fill="#bfbfbf" stroke="black" points="205,-171.5 205,-201.5 307,-201.5 307,-171.5 205,-171.5"/>
<text text-anchor="start" x="213" y="-189.5" font-family="Helvetica,sans-Serif" font-size="10.00">GamR::Sort::Sorter</text>
<text text-anchor="middle" x="256" y="-178.5" font-family="Helvetica,sans-Serif" font-size="10.00">::Tick</text>
</a>
</g>
</g>
<!-- Node2 -->
<g id="node2" class="node">
<title>Node2</title>
<g id="a_node2"><a xlink:href="../../dd/da0/class_gam_r_1_1_sort_1_1_type_1_1_coincidence_cube_diff.html#a38594500e35cc42a7d2d255023895993" target="_top" xlink:title=" ">
<polygon fill="white" stroke="black" points="6,-343.5 6,-373.5 163,-373.5 163,-343.5 6,-343.5"/>
<text text-anchor="start" x="14" y="-361.5" font-family="Helvetica,sans-Serif" font-size="10.00">GamR::Sort::Type::Coincidence</text>
<text text-anchor="middle" x="84.5" y="-350.5" font-family="Helvetica,sans-Serif" font-size="10.00">CubeDiff::operator()</text>
</a>
</g>
</g>
<!-- Node1&#45;&gt;Node2 -->
<g id="edge1" class="edge">
<title>Node1&#45;&gt;Node2</title>
<path fill="none" stroke="midnightblue" d="M247.13,-211.43C235.42,-244.48 210.24,-302.35 169,-334.5 164.6,-337.93 159.73,-340.87 154.61,-343.39"/>
<polygon fill="midnightblue" stroke="midnightblue" points="250.55,-212.23 250.46,-201.64 243.93,-209.98 250.55,-212.23"/>
</g>
<!-- Node3 -->
<g id="node3" class="node">
<title>Node3</title>
<g id="a_node3"><a xlink:href="../../df/d71/class_gam_r_1_1_sort_1_1_type_1_1_coincidence_matrix.html#a132a50b82dd314a036a883c70e6cb765" target="_top" xlink:title=" ">
<polygon fill="white" stroke="black" points="6,-294.5 6,-324.5 163,-324.5 163,-294.5 6,-294.5"/>
<text text-anchor="start" x="14" y="-312.5" font-family="Helvetica,sans-Serif" font-size="10.00">GamR::Sort::Type::Coincidence</text>
<text text-anchor="middle" x="84.5" y="-301.5" font-family="Helvetica,sans-Serif" font-size="10.00">Matrix::operator()</text>
</a>
</g>
</g>
<!-- Node1&#45;&gt;Node3 -->
<g id="edge2" class="edge">
<title>Node1&#45;&gt;Node3</title>
<path fill="none" stroke="midnightblue" d="M240.23,-210.33C225.05,-232.89 199.37,-266.13 169,-285.5 163.66,-288.91 157.82,-291.84 151.8,-294.37"/>
<polygon fill="midnightblue" stroke="midnightblue" points="243.35,-211.95 245.9,-201.67 237.49,-208.12 243.35,-211.95"/>
</g>
<!-- Node4 -->
<g id="node4" class="node">
<title>Node4</title>
<g id="a_node4"><a xlink:href="../../d6/daa/class_gam_r_1_1_sort_1_1_type_1_1_coincidence_matrix_pair.html#a8e27cf0183aa0b2d8520fff0575909f9" target="_top" xlink:title=" ">
<polygon fill="white" stroke="black" points="6,-245.5 6,-275.5 163,-275.5 163,-245.5 6,-245.5"/>
<text text-anchor="start" x="14" y="-263.5" font-family="Helvetica,sans-Serif" font-size="10.00">GamR::Sort::Type::Coincidence</text>
<text text-anchor="middle" x="84.5" y="-252.5" font-family="Helvetica,sans-Serif" font-size="10.00">MatrixPair::operator()</text>
</a>
</g>
</g>
<!-- Node1&#45;&gt;Node4 -->
<g id="edge3" class="edge">
<title>Node1&#45;&gt;Node4</title>
<path fill="none" stroke="midnightblue" d="M223.59,-207.28C207.72,-217.12 187.86,-228.46 169,-236.5 161.37,-239.76 153.16,-242.72 144.98,-245.37"/>
<polygon fill="midnightblue" stroke="midnightblue" points="225.86,-209.99 232.45,-201.69 222.12,-204.07 225.86,-209.99"/>
</g>
<!-- Node5 -->
<g id="node5" class="node">
<title>Node5</title>
<g id="a_node5"><a xlink:href="../../d3/d6c/class_gam_r_1_1_sort_1_1_type_1_1_gated_time_difference.html#a24e85e6f4818336f371ac8e011146570" target="_top" xlink:title=" ">
<polygon fill="white" stroke="black" points="9,-196.5 9,-226.5 160,-226.5 160,-196.5 9,-196.5"/>
<text text-anchor="start" x="17" y="-214.5" font-family="Helvetica,sans-Serif" font-size="10.00">GamR::Sort::Type::GatedTime</text>
<text text-anchor="middle" x="84.5" y="-203.5" font-family="Helvetica,sans-Serif" font-size="10.00">Difference::operator()</text>
</a>
</g>
</g>
<!-- Node1&#45;&gt;Node5 -->
<g id="edge4" class="edge">
<title>Node1&#45;&gt;Node5</title>
<path fill="none" stroke="midnightblue" d="M194.57,-195.41C183.43,-197.06 171.68,-198.79 160.18,-200.49"/>
<polygon fill="midnightblue" stroke="midnightblue" points="195.22,-198.85 204.6,-193.93 194.2,-191.93 195.22,-198.85"/>
</g>
<!-- Node6 -->
<g id="node6" class="node">
<title>Node6</title>
<g id="a_node6"><a xlink:href="../../d1/da3/class_gam_r_1_1_sort_1_1_type_1_1_matrix.html#ae415be51a3f058b904d921fc7443b220" target="_top" xlink:title=" ">
<polygon fill="white" stroke="black" points="20,-147.5 20,-177.5 149,-177.5 149,-147.5 20,-147.5"/>
<text text-anchor="start" x="28" y="-165.5" font-family="Helvetica,sans-Serif" font-size="10.00">GamR::Sort::Type::Matrix</text>
<text text-anchor="middle" x="84.5" y="-154.5" font-family="Helvetica,sans-Serif" font-size="10.00">::operator()</text>
</a>
</g>
</g>
<!-- Node1&#45;&gt;Node6 -->
<g id="edge5" class="edge">
<title>Node1&#45;&gt;Node6</title>
<path fill="none" stroke="midnightblue" d="M194.61,-177.95C179.9,-175.87 164.11,-173.63 149.25,-171.53"/>
<polygon fill="midnightblue" stroke="midnightblue" points="194.21,-181.43 204.6,-179.36 195.19,-174.5 194.21,-181.43"/>
</g>
<!-- Node7 -->
<g id="node7" class="node">
<title>Node7</title>
<g id="a_node7"><a xlink:href="../../db/d1b/class_gam_r_1_1_sort_1_1_type_1_1_time_difference.html#af280ea60b9b0fd1ad348775bd7c0383a" target="_top" xlink:title=" ">
<polygon fill="white" stroke="black" points="0,-98.5 0,-128.5 169,-128.5 169,-98.5 0,-98.5"/>
<text text-anchor="start" x="8" y="-116.5" font-family="Helvetica,sans-Serif" font-size="10.00">GamR::Sort::Type::TimeDifference</text>
<text text-anchor="middle" x="84.5" y="-105.5" font-family="Helvetica,sans-Serif" font-size="10.00">::operator()</text>
</a>
</g>
</g>
<!-- Node1&#45;&gt;Node7 -->
<g id="edge6" class="edge">
<title>Node1&#45;&gt;Node7</title>
<path fill="none" stroke="midnightblue" d="M222.44,-166.11C206.7,-156.84 187.3,-146.24 169,-138.5 160.36,-134.85 151.01,-131.5 141.79,-128.52"/>
<polygon fill="midnightblue" stroke="midnightblue" points="220.87,-169.25 231.25,-171.39 224.47,-163.24 220.87,-169.25"/>
</g>
<!-- Node8 -->
<g id="node8" class="node">
<title>Node8</title>
<g id="a_node8"><a xlink:href="../../d7/d5f/class_gam_r_1_1_sort_1_1_type_1_1_time_difference_pairs.html#a364f5b4a6df32433f3b866409864cf2e" target="_top" xlink:title=" ">
<polygon fill="white" stroke="black" points="0,-49.5 0,-79.5 169,-79.5 169,-49.5 0,-49.5"/>
<text text-anchor="start" x="8" y="-67.5" font-family="Helvetica,sans-Serif" font-size="10.00">GamR::Sort::Type::TimeDifference</text>
<text text-anchor="middle" x="84.5" y="-56.5" font-family="Helvetica,sans-Serif" font-size="10.00">Pairs::operator()</text>
</a>
</g>
</g>
<!-- Node1&#45;&gt;Node8 -->
<g id="edge7" class="edge">
<title>Node1&#45;&gt;Node8</title>
<path fill="none" stroke="midnightblue" d="M239.82,-162.87C224.49,-140.82 198.84,-108.55 169,-89.5 163.01,-85.67 156.4,-82.41 149.6,-79.63"/>
<polygon fill="midnightblue" stroke="midnightblue" points="237.05,-165.02 245.56,-171.34 242.85,-161.09 237.05,-165.02"/>
</g>
<!-- Node9 -->
<g id="node9" class="node">
<title>Node9</title>
<g id="a_node9"><a xlink:href="../../df/d01/class_gam_r_1_1_sort_1_1_type_1_1_time_walk_cal.html#a15bb7f30ca89fcb2f9e8dac0ef351cfc" target="_top" xlink:title=" ">
<polygon fill="white" stroke="black" points="11.5,-0.5 11.5,-30.5 157.5,-30.5 157.5,-0.5 11.5,-0.5"/>
<text text-anchor="start" x="19.5" y="-18.5" font-family="Helvetica,sans-Serif" font-size="10.00">GamR::Sort::Type::TimeWalk</text>
<text text-anchor="middle" x="84.5" y="-7.5" font-family="Helvetica,sans-Serif" font-size="10.00">Cal::operator()</text>
</a>
</g>
</g>
<!-- Node1&#45;&gt;Node9 -->
<g id="edge8" class="edge">
<title>Node1&#45;&gt;Node9</title>
<path fill="none" stroke="midnightblue" d="M246.8,-161.47C234.85,-128.86 209.53,-72.26 169,-40.5 164.12,-36.67 158.66,-33.43 152.93,-30.68"/>
<polygon fill="midnightblue" stroke="midnightblue" points="243.59,-162.88 250.21,-171.15 250.19,-160.56 243.59,-162.88"/>
</g>
</g>
</svg>
