<?xml version="1.0" encoding="UTF-8" standalone="no"?>
<!DOCTYPE svg PUBLIC "-//W3C//DTD SVG 1.1//EN"
 "http://www.w3.org/Graphics/SVG/1.1/DTD/svg11.dtd">
<!-- Generated by graphviz version 12.0.0 (20240704.0754)
 -->
<!-- Title: GamR::Tree::TExpDefn::Load Pages: 1 -->
<svg width="619pt" height="76pt"
 viewBox="0.00 0.00 618.75 75.88" xmlns="http://www.w3.org/2000/svg" xmlns:xlink="http://www.w3.org/1999/xlink">
<g id="graph0" class="graph" transform="scale(1 1) rotate(0) translate(4 71.88)">
<title>GamR::Tree::TExpDefn::Load</title>
<!-- Node1 -->
<g id="Node000001" class="node">
<title>Node1</title>
<g id="a_Node000001"><a xlink:title=" ">
<polygon fill="#999999" stroke="#666666" points="114.25,-45.88 0,-45.88 0,-15.37 114.25,-15.37 114.25,-45.88"/>
<text text-anchor="start" x="8" y="-32.38" font-family="Helvetica,sans-Serif" font-size="10.00">GamR::Tree::TExpDefn</text>
<text text-anchor="middle" x="57.12" y="-21.12" font-family="Helvetica,sans-Serif" font-size="10.00">::Load</text>
</a>
</g>
</g>
<!-- Node2 -->
<g id="Node000002" class="node">
<title>Node2</title>
<g id="a_Node000002"><a xlink:href="../../d0/db7/namespace_gam_r_1_1_utils.html#a6751af789290ad0a5f984de34a0ce481" target="_top" xlink:title="Applies function on each element of tuple.">
<polygon fill="white" stroke="#666666" points="260.75,-67.88 150.25,-67.88 150.25,-37.38 260.75,-37.38 260.75,-67.88"/>
<text text-anchor="start" x="158.25" y="-54.38" font-family="Helvetica,sans-Serif" font-size="10.00">GamR::Utils::for_each</text>
<text text-anchor="middle" x="205.5" y="-43.12" font-family="Helvetica,sans-Serif" font-size="10.00">_in_tuple</text>
</a>
</g>
</g>
<!-- Node1&#45;&gt;Node2 -->
<g id="edge1_Node000001_Node000002" class="edge">
<title>Node1&#45;&gt;Node2</title>
<g id="a_edge1_Node000001_Node000002"><a xlink:title=" ">
<path fill="none" stroke="#63b8ff" d="M114.72,-39.13C122.59,-40.31 130.74,-41.54 138.76,-42.74"/>
<polygon fill="#63b8ff" stroke="#63b8ff" points="138.08,-46.18 148.49,-44.21 139.12,-39.26 138.08,-46.18"/>
</a>
</g>
</g>
<!-- Node3 -->
<g id="Node000003" class="node">
<title>Node3</title>
<g id="a_Node000003"><a xlink:href="../../d0/d17/_abbreviations_8cc.html#a5d1794b612bdcca3f4f4baa3d2e38a0b" target="_top" xlink:title=" ">
<polygon fill="white" stroke="#666666" points="219.9,-19.25 191.1,-19.25 191.1,0 219.9,0 219.9,-19.25"/>
<text text-anchor="middle" x="205.5" y="-5.75" font-family="Helvetica,sans-Serif" font-size="10.00">ss</text>
</a>
</g>
</g>
<!-- Node1&#45;&gt;Node3 -->
<g id="edge2_Node000001_Node000003" class="edge">
<title>Node1&#45;&gt;Node3</title>
<g id="a_edge2_Node000001_Node000003"><a xlink:title=" ">
<path fill="none" stroke="#63b8ff" d="M114.72,-22.51C137.09,-19.3 161.66,-15.77 179.43,-13.22"/>
<polygon fill="#63b8ff" stroke="#63b8ff" points="179.88,-16.69 189.28,-11.81 178.89,-9.76 179.88,-16.69"/>
</a>
</g>
</g>
<!-- Node4 -->
<g id="Node000004" class="node">
<title>Node4</title>
<g id="a_Node000004"><a xlink:href="../../dc/d89/namespace_gam_r_1_1_spect.html#ab983da62eb972889ea13491189e13913" target="_top" xlink:title=" ">
<polygon fill="white" stroke="#666666" points="434.25,-19.25 296.75,-19.25 296.75,0 434.25,0 434.25,-19.25"/>
<text text-anchor="middle" x="365.5" y="-5.75" font-family="Helvetica,sans-Serif" font-size="10.00">GamR::Spect::StackSpectra</text>
</a>
</g>
</g>
<!-- Node3&#45;&gt;Node4 -->
<g id="edge3_Node000003_Node000004" class="edge">
<title>Node3&#45;&gt;Node4</title>
<g id="a_edge3_Node000003_Node000004"><a xlink:title=" ">
<path fill="none" stroke="#63b8ff" d="M220.25,-9.62C235.09,-9.62 259.98,-9.62 284.95,-9.62"/>
<polygon fill="#63b8ff" stroke="#63b8ff" points="284.87,-13.13 294.87,-9.63 284.87,-6.13 284.87,-13.13"/>
</a>
</g>
</g>
<!-- Node4&#45;&gt;Node4 -->
<g id="edge5_Node000004_Node000004" class="edge">
<title>Node4&#45;&gt;Node4</title>
<g id="a_edge5_Node000004_Node000004"><a xlink:title=" ">
<path fill="none" stroke="#63b8ff" d="M340.45,-19.54C329.03,-28.15 337.38,-37.25 365.5,-37.25 381.32,-37.25 390.88,-34.37 394.19,-30.32"/>
<polygon fill="#63b8ff" stroke="#63b8ff" points="397.55,-29.33 391.03,-20.97 390.92,-31.57 397.55,-29.33"/>
</a>
</g>
</g>
<!-- Node5 -->
<g id="Node000005" class="node">
<title>Node5</title>
<g id="a_Node000005"><a xlink:href="../../dc/d89/namespace_gam_r_1_1_spect.html#a56e80bce5bf691212c8b7dfb76c2d2b4" target="_top" xlink:title=" ">
<polygon fill="white" stroke="#666666" points="610.75,-19.25 470.25,-19.25 470.25,0 610.75,0 610.75,-19.25"/>
<text text-anchor="middle" x="540.5" y="-5.75" font-family="Helvetica,sans-Serif" font-size="10.00">GamR::Spect::List1DSpectra</text>
</a>
</g>
</g>
<!-- Node4&#45;&gt;Node5 -->
<g id="edge4_Node000004_Node000005" class="edge">
<title>Node4&#45;&gt;Node5</title>
<g id="a_edge4_Node000004_Node000005"><a xlink:title=" ">
<path fill="none" stroke="#63b8ff" d="M434.38,-9.62C442.29,-9.62 450.42,-9.62 458.49,-9.62"/>
<polygon fill="#63b8ff" stroke="#63b8ff" points="458.31,-13.13 468.31,-9.63 458.31,-6.13 458.31,-13.13"/>
</a>
</g>
</g>
</g>
</svg>
