<?xml version="1.0" encoding="UTF-8" standalone="no"?>
<!DOCTYPE svg PUBLIC "-//W3C//DTD SVG 1.1//EN"
 "http://www.w3.org/Graphics/SVG/1.1/DTD/svg11.dtd">
<!-- Generated by graphviz version 9.0.0 (20230911.1827)
 -->
<!-- Title: GamR::TK::GetZA Pages: 1 -->
<svg width="666pt" height="265pt"
 viewBox="0.00 0.00 666.00 264.50" xmlns="http://www.w3.org/2000/svg" xmlns:xlink="http://www.w3.org/1999/xlink">
<g id="graph0" class="graph" transform="scale(1 1) rotate(0) translate(4 260.5)">
<title>GamR::TK::GetZA</title>
<!-- Node1 -->
<g id="Node000001" class="node">
<title>Node1</title>
<g id="a_Node000001"><a xlink:title=" ">
<polygon fill="#999999" stroke="#666666" points="658,-158.88 564,-158.88 564,-139.62 658,-139.62 658,-158.88"/>
<text text-anchor="middle" x="611" y="-145.38" font-family="Helvetica,sans-Serif" font-size="10.00">GamR::TK::GetZA</text>
</a>
</g>
</g>
<!-- Node2 -->
<g id="Node000002" class="node">
<title>Node2</title>
<g id="a_Node000002"><a xlink:href="../../dd/d3e/class_gam_r_1_1_coulex_1_1_coulex_calculation.html#a79a4ea8f06954b1cf8b8431010fedbf3" target="_top" xlink:title=" ">
<polygon fill="white" stroke="#666666" points="332.75,-256.5 173.5,-256.5 173.5,-226 332.75,-226 332.75,-256.5"/>
<text text-anchor="start" x="181.5" y="-243" font-family="Helvetica,sans-Serif" font-size="10.00">GamR::Coulex::CoulexCalculation</text>
<text text-anchor="middle" x="253.12" y="-231.75" font-family="Helvetica,sans-Serif" font-size="10.00">::ReadFromFile</text>
</a>
</g>
</g>
<!-- Node1&#45;&gt;Node2 -->
<g id="edge1_Node000001_Node000002" class="edge">
<title>Node1&#45;&gt;Node2</title>
<g id="a_edge1_Node000001_Node000002"><a xlink:title=" ">
<path fill="none" stroke="#63b8ff" d="M595.29,-168.09C580.42,-185.57 555.72,-210.59 528,-222.25 466.17,-248.27 389.54,-251.42 333.07,-248.99"/>
<polygon fill="#63b8ff" stroke="#63b8ff" points="597.91,-170.41 601.54,-160.46 592.5,-165.98 597.91,-170.41"/>
</a>
</g>
</g>
<!-- Node5 -->
<g id="Node000005" class="node">
<title>Node5</title>
<g id="a_Node000005"><a xlink:href="../../dd/d3e/class_gam_r_1_1_coulex_1_1_coulex_calculation.html#acb08f0024d9a247dd0b03169bc5561fd" target="_top" xlink:title=" ">
<polygon fill="white" stroke="#666666" points="528,-164.5 368.75,-164.5 368.75,-134 528,-134 528,-164.5"/>
<text text-anchor="start" x="376.75" y="-151" font-family="Helvetica,sans-Serif" font-size="10.00">GamR::Coulex::CoulexCalculation</text>
<text text-anchor="middle" x="448.38" y="-139.75" font-family="Helvetica,sans-Serif" font-size="10.00">::SetBeam</text>
</a>
</g>
</g>
<!-- Node1&#45;&gt;Node5 -->
<g id="edge4_Node000001_Node000005" class="edge">
<title>Node1&#45;&gt;Node5</title>
<g id="a_edge4_Node000001_Node000005"><a xlink:title=" ">
<path fill="none" stroke="#63b8ff" d="M552.12,-149.25C544.41,-149.25 536.41,-149.25 528.42,-149.25"/>
<polygon fill="#63b8ff" stroke="#63b8ff" points="552.03,-152.75 562.03,-149.25 552.03,-145.75 552.03,-152.75"/>
</a>
</g>
</g>
<!-- Node7 -->
<g id="Node000007" class="node">
<title>Node7</title>
<g id="a_Node000007"><a xlink:href="../../dd/d3e/class_gam_r_1_1_coulex_1_1_coulex_calculation.html#a14dff858cd6bd02308ad7b7bd453de81" target="_top" xlink:title=" ">
<polygon fill="white" stroke="#666666" points="528,-97.5 368.75,-97.5 368.75,-67 528,-67 528,-97.5"/>
<text text-anchor="start" x="376.75" y="-84" font-family="Helvetica,sans-Serif" font-size="10.00">GamR::Coulex::CoulexCalculation</text>
<text text-anchor="middle" x="448.38" y="-72.75" font-family="Helvetica,sans-Serif" font-size="10.00">::SetBeam</text>
</a>
</g>
</g>
<!-- Node1&#45;&gt;Node7 -->
<g id="edge8_Node000001_Node000007" class="edge">
<title>Node1&#45;&gt;Node7</title>
<g id="a_edge8_Node000001_Node000007"><a xlink:title=" ">
<path fill="none" stroke="#63b8ff" d="M575.44,-134.84C549.42,-123.98 513.78,-109.12 487.03,-97.96"/>
<polygon fill="#63b8ff" stroke="#63b8ff" points="573.98,-138.02 584.56,-138.64 576.67,-131.56 573.98,-138.02"/>
</a>
</g>
</g>
<!-- Node8 -->
<g id="Node000008" class="node">
<title>Node8</title>
<g id="a_Node000008"><a xlink:href="../../dd/d3e/class_gam_r_1_1_coulex_1_1_coulex_calculation.html#a2a7d4ff2433572678844223f385bba86" target="_top" xlink:title=" ">
<polygon fill="white" stroke="#666666" points="528,-213.5 368.75,-213.5 368.75,-183 528,-183 528,-213.5"/>
<text text-anchor="start" x="376.75" y="-200" font-family="Helvetica,sans-Serif" font-size="10.00">GamR::Coulex::CoulexCalculation</text>
<text text-anchor="middle" x="448.38" y="-188.75" font-family="Helvetica,sans-Serif" font-size="10.00">::SetTarget</text>
</a>
</g>
</g>
<!-- Node1&#45;&gt;Node8 -->
<g id="edge10_Node000001_Node000008" class="edge">
<title>Node1&#45;&gt;Node8</title>
<g id="a_edge10_Node000001_Node000008"><a xlink:title=" ">
<path fill="none" stroke="#63b8ff" d="M566.33,-162.57C546.12,-168.74 521.98,-176.1 500.88,-182.54"/>
<polygon fill="#63b8ff" stroke="#63b8ff" points="567.12,-165.99 575.66,-159.73 565.07,-159.3 567.12,-165.99"/>
</a>
</g>
</g>
<!-- Node9 -->
<g id="Node000009" class="node">
<title>Node9</title>
<g id="a_Node000009"><a xlink:href="../../dd/d3e/class_gam_r_1_1_coulex_1_1_coulex_calculation.html#aca677242c3581c26b863a466060789dd" target="_top" xlink:title=" ">
<polygon fill="white" stroke="#666666" points="528,-30.5 368.75,-30.5 368.75,0 528,0 528,-30.5"/>
<text text-anchor="start" x="376.75" y="-17" font-family="Helvetica,sans-Serif" font-size="10.00">GamR::Coulex::CoulexCalculation</text>
<text text-anchor="middle" x="448.38" y="-5.75" font-family="Helvetica,sans-Serif" font-size="10.00">::SetTarget</text>
</a>
</g>
</g>
<!-- Node1&#45;&gt;Node9 -->
<g id="edge12_Node000001_Node000009" class="edge">
<title>Node1&#45;&gt;Node9</title>
<g id="a_edge12_Node000001_Node000009"><a xlink:title=" ">
<path fill="none" stroke="#63b8ff" d="M596.04,-130.29C580.86,-110.59 555.12,-79.69 528,-58.25 514.57,-47.64 498.17,-38.21 483.82,-30.9"/>
<polygon fill="#63b8ff" stroke="#63b8ff" points="593.05,-132.14 601.87,-138.01 598.63,-127.92 593.05,-132.14"/>
</a>
</g>
</g>
<!-- Node3 -->
<g id="Node000003" class="node">
<title>Node3</title>
<g id="a_Node000003"><a xlink:href="../../d6/d76/namespace_gam_r_1_1_coulex.html#a41b07b0aa204c45d637b7c5a4e57d989" target="_top" xlink:title=" ">
<polygon fill="white" stroke="#666666" points="130.38,-248.88 7.12,-248.88 7.12,-229.62 130.38,-229.62 130.38,-248.88"/>
<text text-anchor="middle" x="68.75" y="-235.38" font-family="Helvetica,sans-Serif" font-size="10.00">GamR::Coulex::DoCoulex</text>
</a>
</g>
</g>
<!-- Node2&#45;&gt;Node3 -->
<g id="edge2_Node000002_Node000003" class="edge">
<title>Node2&#45;&gt;Node3</title>
<g id="a_edge2_Node000002_Node000003"><a xlink:title=" ">
<path fill="none" stroke="#63b8ff" d="M161.78,-240.26C151.23,-240.14 140.67,-240.03 130.66,-239.92"/>
<polygon fill="#63b8ff" stroke="#63b8ff" points="161.64,-243.76 171.68,-240.37 161.72,-236.76 161.64,-243.76"/>
</a>
</g>
</g>
<!-- Node4 -->
<g id="Node000004" class="node">
<title>Node4</title>
<g id="a_Node000004"><a xlink:href="../../d6/d76/namespace_gam_r_1_1_coulex.html#a2551a0108b265de32e08ef2042a02212" target="_top" xlink:title=" ">
<polygon fill="white" stroke="#666666" points="137.5,-210.5 0,-210.5 0,-180 137.5,-180 137.5,-210.5"/>
<text text-anchor="start" x="8" y="-197" font-family="Helvetica,sans-Serif" font-size="10.00">GamR::Coulex::Experimental</text>
<text text-anchor="middle" x="68.75" y="-185.75" font-family="Helvetica,sans-Serif" font-size="10.00">Setup</text>
</a>
</g>
</g>
<!-- Node2&#45;&gt;Node4 -->
<g id="edge3_Node000002_Node000004" class="edge">
<title>Node2&#45;&gt;Node4</title>
<g id="a_edge3_Node000002_Node000004"><a xlink:title=" ">
<path fill="none" stroke="#63b8ff" d="M178.75,-222.74C163.26,-218.84 147.06,-214.75 132.03,-210.96"/>
<polygon fill="#63b8ff" stroke="#63b8ff" points="177.85,-226.13 188.4,-225.18 179.56,-219.34 177.85,-226.13"/>
</a>
</g>
</g>
<!-- Node6 -->
<g id="Node000006" class="node">
<title>Node6</title>
<g id="a_Node000006"><a xlink:href="../../dd/d3e/class_gam_r_1_1_coulex_1_1_coulex_calculation.html#ae8ce7427467c968c1a44f74a06ce4a30" target="_top" xlink:title=" ">
<polygon fill="white" stroke="#666666" points="332.75,-207.5 173.5,-207.5 173.5,-177 332.75,-177 332.75,-207.5"/>
<text text-anchor="start" x="181.5" y="-194" font-family="Helvetica,sans-Serif" font-size="10.00">GamR::Coulex::CoulexCalculation</text>
<text text-anchor="middle" x="253.12" y="-182.75" font-family="Helvetica,sans-Serif" font-size="10.00">::ExperimentalSetup</text>
</a>
</g>
</g>
<!-- Node5&#45;&gt;Node6 -->
<g id="edge5_Node000005_Node000006" class="edge">
<title>Node5&#45;&gt;Node6</title>
<g id="a_edge5_Node000005_Node000006"><a xlink:title=" ">
<path fill="none" stroke="#63b8ff" d="M365.94,-167.37C352.28,-170.41 338.21,-173.54 324.85,-176.51"/>
<polygon fill="#63b8ff" stroke="#63b8ff" points="366.31,-170.87 375.31,-165.29 364.79,-164.04 366.31,-170.87"/>
</a>
</g>
</g>
<!-- Node6&#45;&gt;Node3 -->
<g id="edge6_Node000006_Node000003" class="edge">
<title>Node6&#45;&gt;Node3</title>
<g id="a_edge6_Node000006_Node000003"><a xlink:title=" ">
<path fill="none" stroke="#63b8ff" d="M180.15,-210.8C155.87,-217.06 129.68,-223.81 108.91,-229.16"/>
<polygon fill="#63b8ff" stroke="#63b8ff" points="180.87,-214.23 189.68,-208.34 179.12,-207.45 180.87,-214.23"/>
</a>
</g>
</g>
<!-- Node6&#45;&gt;Node4 -->
<g id="edge7_Node000006_Node000004" class="edge">
<title>Node6&#45;&gt;Node4</title>
<g id="a_edge7_Node000006_Node000004"><a xlink:title=" ">
<path fill="none" stroke="#63b8ff" d="M161.85,-193.74C153.8,-193.87 145.74,-194 137.93,-194.13"/>
<polygon fill="#63b8ff" stroke="#63b8ff" points="161.74,-197.24 171.68,-193.57 161.62,-190.24 161.74,-197.24"/>
</a>
</g>
</g>
<!-- Node7&#45;&gt;Node7 -->
<g id="edge9_Node000007_Node000007" class="edge">
<title>Node7&#45;&gt;Node7</title>
<g id="a_edge9_Node000007_Node000007"><a xlink:title=" ">
<path fill="none" stroke="#63b8ff" d="M475.65,-109.2C471.19,-112.97 462.1,-115.5 448.38,-115.5 423.28,-115.5 413.68,-107.06 419.56,-97.99"/>
<polygon fill="#63b8ff" stroke="#63b8ff" points="479.09,-109.87 476.99,-99.49 472.15,-108.91 479.09,-109.87"/>
</a>
</g>
</g>
<!-- Node8&#45;&gt;Node6 -->
<g id="edge11_Node000008_Node000006" class="edge">
<title>Node8&#45;&gt;Node6</title>
<g id="a_edge11_Node000008_Node000006"><a xlink:title=" ">
<path fill="none" stroke="#63b8ff" d="M357.17,-195.45C349.12,-195.2 341.01,-194.95 333.07,-194.7"/>
<polygon fill="#63b8ff" stroke="#63b8ff" points="356.88,-198.94 366.98,-195.75 357.09,-191.95 356.88,-198.94"/>
</a>
</g>
</g>
<!-- Node9&#45;&gt;Node9 -->
<g id="edge13_Node000009_Node000009" class="edge">
<title>Node9&#45;&gt;Node9</title>
<g id="a_edge13_Node000009_Node000009"><a xlink:title=" ">
<path fill="none" stroke="#63b8ff" d="M475.65,-42.2C471.19,-45.97 462.1,-48.5 448.38,-48.5 423.28,-48.5 413.68,-40.06 419.56,-30.99"/>
<polygon fill="#63b8ff" stroke="#63b8ff" points="479.09,-42.87 476.99,-32.49 472.15,-41.91 479.09,-42.87"/>
</a>
</g>
</g>
</g>
</svg>
