<?xml version="1.0" encoding="UTF-8" standalone="no"?>
<!DOCTYPE svg PUBLIC "-//W3C//DTD SVG 1.1//EN"
 "http://www.w3.org/Graphics/SVG/1.1/DTD/svg11.dtd">
<!-- Generated by graphviz version 6.0.2 (20221011.1828)
 -->
<!-- Title: GamR::TK::GetZA Pages: 1 -->
<!--zoomable 146 -->
<svg id="main" version="1.1" xmlns="http://www.w3.org/2000/svg" xmlns:xlink="http://www.w3.org/1999/xlink" xml:space="preserve" onload="init(evt)">
<style type="text/css"><![CDATA[
.edge:hover path { stroke: red; }
.edge:hover polygon { stroke: red; fill: red; }
]]></style>
<script type="text/javascript"><![CDATA[
var edges = document.getElementsByTagName('g');
if (edges && edges.length) {
  for (var i=0;i<edges.length;i++) {
    if (edges[i].id.substr(0,4)=='edge') {
      edges[i].setAttribute('class','edge');
    }
  }
}
]]></script>
        <defs>
                <circle id="rim" cx="0" cy="0" r="7"/>
                <circle id="rim2" cx="0" cy="0" r="3.5"/>
                <g id="zoomPlus">
                        <use xlink:href="#rim" fill="#404040">
                                <set attributeName="fill" to="#808080" begin="zoomplus.mouseover" end="zoomplus.mouseout"/>
                        </use>
                        <path d="M-4,0h8M0,-4v8" fill="none" stroke="white" stroke-width="1.5" pointer-events="none"/>
                </g>
                <g id="zoomMin">
                        <use xlink:href="#rim" fill="#404040">
                                <set attributeName="fill" to="#808080" begin="zoomminus.mouseover" end="zoomminus.mouseout"/>
                        </use>
                        <path d="M-4,0h8" fill="none" stroke="white" stroke-width="1.5" pointer-events="none"/>
                </g>
                <g id="dirArrow">
                        <path fill="none" stroke="white" stroke-width="1.5" d="M0,-3.0v7 M-2.5,-0.5L0,-3.0L2.5,-0.5"/>
                </g>
               <g id="resetDef">
                       <use xlink:href="#rim2" fill="#404040">
                               <set attributeName="fill" to="#808080" begin="reset.mouseover" end="reset.mouseout"/>
                       </use>
               </g>
        </defs>

<script type="text/javascript">
var viewWidth = 669;
var viewHeight = 146;
var sectionId = 'dynsection-3';
</script>
<script xlink:href="../../svgpan.js"/>
<svg id="graph" class="graph">
<g id="viewport">
<title>GamR::TK::GetZA</title>
<!-- Node1 -->
<g id="node1" class="node">
<title>Node1</title>
<g id="a_node1"><a xlink:title=" ">
<polygon fill="#999999" stroke="#666666" points="661,-72.5 566,-72.5 566,-53.5 661,-53.5 661,-72.5"/>
<text text-anchor="middle" x="613.5" y="-60.5" font-family="Helvetica,sans-Serif" font-size="10.00">GamR::TK::GetZA</text>
</a>
</g>
</g>
<!-- Node2 -->
<g id="node2" class="node">
<title>Node2</title>
<g id="a_node2"><a xlink:href="../../dd/d3e/class_gam_r_1_1_coulex_1_1_coulex_calculation.html#a79a4ea8f06954b1cf8b8431010fedbf3" target="_top" xlink:title=" ">
<polygon fill="white" stroke="#666666" points="334,-121 174,-121 174,-91 334,-91 334,-121"/>
<text text-anchor="start" x="182" y="-109" font-family="Helvetica,sans-Serif" font-size="10.00">GamR::Coulex::CoulexCalculation</text>
<text text-anchor="middle" x="254" y="-98" font-family="Helvetica,sans-Serif" font-size="10.00">::ReadFromFile</text>
</a>
</g>
</g>
<!-- Node1&#45;&gt;Node2 -->
<g id="edge1" class="edge">
<title>Node1&#45;&gt;Node2</title>
<path fill="none" stroke="#63b8ff" d="M575.2,-75.69C561.18,-79.97 545.01,-84.33 530,-87 464.62,-98.63 389.33,-103.23 334.08,-105.01"/>
<polygon fill="#63b8ff" stroke="#63b8ff" points="576.49,-78.95 584.97,-72.61 574.39,-72.28 576.49,-78.95"/>
</g>
<!-- Node5 -->
<g id="node5" class="node">
<title>Node5</title>
<g id="a_node5"><a xlink:href="../../dd/d3e/class_gam_r_1_1_coulex_1_1_coulex_calculation.html#acb08f0024d9a247dd0b03169bc5561fd" target="_top" xlink:title=" ">
<polygon fill="white" stroke="#666666" points="530,-30 370,-30 370,0 530,0 530,-30"/>
<text text-anchor="start" x="378" y="-18" font-family="Helvetica,sans-Serif" font-size="10.00">GamR::Coulex::CoulexCalculation</text>
<text text-anchor="middle" x="450" y="-7" font-family="Helvetica,sans-Serif" font-size="10.00">::SetBeam</text>
</a>
</g>
</g>
<!-- Node1&#45;&gt;Node5 -->
<g id="edge6" class="edge">
<title>Node1&#45;&gt;Node5</title>
<path fill="none" stroke="#63b8ff" d="M570.58,-50.54C549.52,-44.28 523.84,-36.65 501.68,-30.06"/>
<polygon fill="#63b8ff" stroke="#63b8ff" points="569.62,-53.91 580.21,-53.4 571.62,-47.2 569.62,-53.91"/>
</g>
<!-- Node7 -->
<g id="node7" class="node">
<title>Node7</title>
<g id="a_node7"><a xlink:href="../../dd/d3e/class_gam_r_1_1_coulex_1_1_coulex_calculation.html#a2a7d4ff2433572678844223f385bba86" target="_top" xlink:title=" ">
<polygon fill="white" stroke="#666666" points="530,-78 370,-78 370,-48 530,-48 530,-78"/>
<text text-anchor="start" x="378" y="-66" font-family="Helvetica,sans-Serif" font-size="10.00">GamR::Coulex::CoulexCalculation</text>
<text text-anchor="middle" x="450" y="-55" font-family="Helvetica,sans-Serif" font-size="10.00">::SetTarget</text>
</a>
</g>
</g>
<!-- Node1&#45;&gt;Node7 -->
<g id="edge10" class="edge">
<title>Node1&#45;&gt;Node7</title>
<path fill="none" stroke="#63b8ff" d="M555.58,-63C547.34,-63 538.74,-63 530.17,-63"/>
<polygon fill="#63b8ff" stroke="#63b8ff" points="555.79,-66.5 565.79,-63 555.79,-59.5 555.79,-66.5"/>
</g>
<!-- Node3 -->
<g id="node3" class="node">
<title>Node3</title>
<g id="a_node3"><a xlink:href="../../d6/d76/namespace_gam_r_1_1_coulex.html#a41b07b0aa204c45d637b7c5a4e57d989" target="_top" xlink:title=" ">
<polygon fill="white" stroke="#666666" points="131,-119.5 7,-119.5 7,-100.5 131,-100.5 131,-119.5"/>
<text text-anchor="middle" x="69" y="-107.5" font-family="Helvetica,sans-Serif" font-size="10.00">GamR::Coulex::DoCoulex</text>
</a>
</g>
</g>
<!-- Node2&#45;&gt;Node3 -->
<g id="edge2" class="edge">
<title>Node2&#45;&gt;Node3</title>
<path fill="none" stroke="#63b8ff" d="M163.7,-107.95C152.66,-108.19 141.59,-108.44 131.12,-108.66"/>
<polygon fill="#63b8ff" stroke="#63b8ff" points="163.88,-111.45 173.8,-107.73 163.72,-104.45 163.88,-111.45"/>
</g>
<!-- Node4 -->
<g id="node4" class="node">
<title>Node4</title>
<g id="a_node4"><a xlink:href="../../d6/d76/namespace_gam_r_1_1_coulex.html#a2551a0108b265de32e08ef2042a02212" target="_top" xlink:title=" ">
<polygon fill="white" stroke="#666666" points="138,-64 0,-64 0,-34 138,-34 138,-64"/>
<text text-anchor="start" x="8" y="-52" font-family="Helvetica,sans-Serif" font-size="10.00">GamR::Coulex::Experimental</text>
<text text-anchor="middle" x="69" y="-41" font-family="Helvetica,sans-Serif" font-size="10.00">Setup</text>
</a>
</g>
</g>
<!-- Node2&#45;&gt;Node4 -->
<g id="edge4" class="edge">
<title>Node2&#45;&gt;Node4</title>
<path fill="none" stroke="#63b8ff" d="M194.86,-87.89C170.25,-80.23 141.92,-71.4 118.47,-64.1"/>
<polygon fill="#63b8ff" stroke="#63b8ff" points="193.85,-91.24 204.44,-90.87 195.93,-84.56 193.85,-91.24"/>
</g>
<!-- Node3&#45;&gt;Node3 -->
<g id="edge3" class="edge">
<title>Node3&#45;&gt;Node3</title>
<path fill="none" stroke="#63b8ff" d="M103.67,-127.57C103.16,-133.12 91.61,-137.5 69,-137.5 36.12,-137.5 26.61,-128.23 40.49,-119.58"/>
<polygon fill="#63b8ff" stroke="#63b8ff" points="106.39,-125.37 97.51,-119.58 100.85,-129.64 106.39,-125.37"/>
</g>
<!-- Node4&#45;&gt;Node4 -->
<g id="edge5" class="edge">
<title>Node4&#45;&gt;Node4</title>
<path fill="none" stroke="#63b8ff" d="M101.38,-74.6C96.96,-78.97 86.16,-82 69,-82 40.09,-82 29.25,-73.41 36.48,-64.28"/>
<polygon fill="#63b8ff" stroke="#63b8ff" points="104.89,-74.32 101.52,-64.28 97.89,-74.23 104.89,-74.32"/>
</g>
<!-- Node6 -->
<g id="node6" class="node">
<title>Node6</title>
<g id="a_node6"><a xlink:href="../../dd/d3e/class_gam_r_1_1_coulex_1_1_coulex_calculation.html#ae8ce7427467c968c1a44f74a06ce4a30" target="_top" xlink:title=" ">
<polygon fill="white" stroke="#666666" points="334,-70 174,-70 174,-40 334,-40 334,-70"/>
<text text-anchor="start" x="182" y="-58" font-family="Helvetica,sans-Serif" font-size="10.00">GamR::Coulex::CoulexCalculation</text>
<text text-anchor="middle" x="254" y="-47" font-family="Helvetica,sans-Serif" font-size="10.00">::ExperimentalSetup</text>
</a>
</g>
</g>
<!-- Node5&#45;&gt;Node6 -->
<g id="edge7" class="edge">
<title>Node5&#45;&gt;Node6</title>
<path fill="none" stroke="#63b8ff" d="M366.1,-32.09C353.39,-34.71 340.35,-37.4 327.88,-39.97"/>
<polygon fill="#63b8ff" stroke="#63b8ff" points="367.12,-35.46 376.21,-30.01 365.71,-28.6 367.12,-35.46"/>
</g>
<!-- Node6&#45;&gt;Node3 -->
<g id="edge8" class="edge">
<title>Node6&#45;&gt;Node3</title>
<path fill="none" stroke="#63b8ff" d="M196.33,-73.12C177.78,-78.95 157.04,-85.36 138,-91 127.3,-94.17 115.62,-97.48 105,-100.44"/>
<polygon fill="#63b8ff" stroke="#63b8ff" points="197.62,-76.39 206.1,-70.04 195.51,-69.71 197.62,-76.39"/>
</g>
<!-- Node6&#45;&gt;Node4 -->
<g id="edge9" class="edge">
<title>Node6&#45;&gt;Node4</title>
<path fill="none" stroke="#63b8ff" d="M163.72,-52.07C155.12,-51.79 146.48,-51.51 138.13,-51.23"/>
<polygon fill="#63b8ff" stroke="#63b8ff" points="163.69,-55.57 173.8,-52.4 163.92,-48.58 163.69,-55.57"/>
</g>
<!-- Node7&#45;&gt;Node6 -->
<g id="edge11" class="edge">
<title>Node7&#45;&gt;Node6</title>
<path fill="none" stroke="#63b8ff" d="M359.56,-59.31C351.12,-58.96 342.59,-58.61 334.25,-58.27"/>
<polygon fill="#63b8ff" stroke="#63b8ff" points="359.68,-62.82 369.81,-59.73 359.97,-55.83 359.68,-62.82"/>
</g>
</g>
</svg>
        <g id="navigator" transform="translate(0 0)" fill="#404254">
                <rect fill="#f2f5e9" fill-opacity="0.5" stroke="#606060" stroke-width=".5" x="0" y="0" width="60" height="60"/>
                <use id="zoomplus" xlink:href="#zoomPlus" x="17" y="9" onmousedown="handleZoom(evt,'in')"/>
                <use id="zoomminus" xlink:href="#zoomMin" x="42" y="9" onmousedown="handleZoom(evt,'out')"/>
                <use id="reset" xlink:href="#resetDef" x="30" y="36" onmousedown="handleReset()"/>
                <g id="arrowUp" xlink:href="#dirArrow" transform="translate(30 24)" onmousedown="handlePan(0,-1)">
                  <use xlink:href="#rim" fill="#404040">
                        <set attributeName="fill" to="#808080" begin="arrowUp.mouseover" end="arrowUp.mouseout"/>
                  </use>
                  <path fill="none" stroke="white" stroke-width="1.5" d="M0,-3.0v7 M-2.5,-0.5L0,-3.0L2.5,-0.5"/>
                </g>
                <g id="arrowRight" xlink:href="#dirArrow" transform="rotate(90) translate(36 -43)" onmousedown="handlePan(1,0)">
                  <use xlink:href="#rim" fill="#404040">
                        <set attributeName="fill" to="#808080" begin="arrowRight.mouseover" end="arrowRight.mouseout"/>
                  </use>
                  <path fill="none" stroke="white" stroke-width="1.5" d="M0,-3.0v7 M-2.5,-0.5L0,-3.0L2.5,-0.5"/>
                </g>
                <g id="arrowDown" xlink:href="#dirArrow" transform="rotate(180) translate(-30 -48)" onmousedown="handlePan(0,1)">
                  <use xlink:href="#rim" fill="#404040">
                        <set attributeName="fill" to="#808080" begin="arrowDown.mouseover" end="arrowDown.mouseout"/>
                  </use>
                  <path fill="none" stroke="white" stroke-width="1.5" d="M0,-3.0v7 M-2.5,-0.5L0,-3.0L2.5,-0.5"/>
                </g>
                <g id="arrowLeft" xlink:href="#dirArrow" transform="rotate(270) translate(-36 17)" onmousedown="handlePan(-1,0)">
                  <use xlink:href="#rim" fill="#404040">
                        <set attributeName="fill" to="#808080" begin="arrowLeft.mouseover" end="arrowLeft.mouseout"/>
                  </use>
                  <path fill="none" stroke="white" stroke-width="1.5" d="M0,-3.0v7 M-2.5,-0.5L0,-3.0L2.5,-0.5"/>
                </g>
        </g>
        <svg viewBox="0 0 15 15" width="100%" height="30px" preserveAspectRatio="xMaxYMin meet">
         <g id="arrow_out" transform="scale(0.3 0.3)">
          <a xlink:href="namespace_gam_r_1_1_t_k_aa4ba5d5a5ab0b3c595e31d23334e4f90_icgraph_org.svg" target="_base">
           <rect id="button" ry="5" rx="5" y="6" x="6" height="38" width="38"
                fill="#f2f5e9" fill-opacity="0.5" stroke="#606060" stroke-width="1.0"/>
           <path id="arrow"
             d="M 11.500037,31.436501 C 11.940474,20.09759 22.043105,11.32322 32.158766,21.979434 L 37.068811,17.246167 C 37.068811,17.246167 37.088388,32 37.088388,32 L 22.160133,31.978069 C 22.160133,31.978069 26.997745,27.140456 26.997745,27.140456 C 18.528582,18.264221 13.291696,25.230495 11.500037,31.436501 z"
             style="fill:#404040;"/>
          </a>
         </g>
        </svg>
</svg>
