<?xml version="1.0" encoding="UTF-8" standalone="no"?>
<!DOCTYPE svg PUBLIC "-//W3C//DTD SVG 1.1//EN"
 "http://www.w3.org/Graphics/SVG/1.1/DTD/svg11.dtd">
<!-- Generated by graphviz version 2.50.0 (20220203.2022)
 -->
<!-- Title: GamR::TK::GetZA Pages: 1 -->
<svg width="669pt" height="132pt"
 viewBox="0.00 0.00 669.00 132.00" xmlns="http://www.w3.org/2000/svg" xmlns:xlink="http://www.w3.org/1999/xlink">
<g id="graph0" class="graph" transform="scale(1 1) rotate(0) translate(4 128)">
<title>GamR::TK::GetZA</title>
<polygon fill="white" stroke="transparent" points="-4,4 -4,-128 665,-128 665,4 -4,4"/>
<!-- Node1 -->
<g id="node1" class="node">
<title>Node1</title>
<g id="a_node1"><a xlink:title=" ">
<polygon fill="#bfbfbf" stroke="black" points="566,-55 566,-74 661,-74 661,-55 566,-55"/>
<text text-anchor="middle" x="613.5" y="-62" font-family="Helvetica,sans-Serif" font-size="10.00">GamR::TK::GetZA</text>
</a>
</g>
</g>
<!-- Node2 -->
<g id="node2" class="node">
<title>Node2</title>
<g id="a_node2"><a xlink:href="../../dd/d3e/class_gam_r_1_1_coulex_1_1_coulex_calculation.html#a79a4ea8f06954b1cf8b8431010fedbf3" target="_top" xlink:title=" ">
<polygon fill="white" stroke="black" points="174,-93.5 174,-123.5 334,-123.5 334,-93.5 174,-93.5"/>
<text text-anchor="start" x="182" y="-111.5" font-family="Helvetica,sans-Serif" font-size="10.00">GamR::Coulex::CoulexCalculation</text>
<text text-anchor="middle" x="254" y="-100.5" font-family="Helvetica,sans-Serif" font-size="10.00">::ReadFromFile</text>
</a>
</g>
</g>
<!-- Node1&#45;&gt;Node2 -->
<g id="edge1" class="edge">
<title>Node1&#45;&gt;Node2</title>
<path fill="none" stroke="midnightblue" d="M575.19,-77.16C561.18,-81.43 545,-85.8 530,-88.5 464.63,-100.25 389.34,-105.14 334.08,-107.15"/>
<polygon fill="midnightblue" stroke="midnightblue" points="576.48,-80.42 584.97,-74.09 574.38,-73.75 576.48,-80.42"/>
</g>
<!-- Node5 -->
<g id="node5" class="node">
<title>Node5</title>
<g id="a_node5"><a xlink:href="../../dd/d3e/class_gam_r_1_1_coulex_1_1_coulex_calculation.html#acb08f0024d9a247dd0b03169bc5561fd" target="_top" xlink:title=" ">
<polygon fill="white" stroke="black" points="370,-0.5 370,-30.5 530,-30.5 530,-0.5 370,-0.5"/>
<text text-anchor="start" x="378" y="-18.5" font-family="Helvetica,sans-Serif" font-size="10.00">GamR::Coulex::CoulexCalculation</text>
<text text-anchor="middle" x="450" y="-7.5" font-family="Helvetica,sans-Serif" font-size="10.00">::SetBeam</text>
</a>
</g>
</g>
<!-- Node1&#45;&gt;Node5 -->
<g id="edge4" class="edge">
<title>Node1&#45;&gt;Node5</title>
<path fill="none" stroke="midnightblue" d="M571.16,-51.96C549.64,-45.43 523.17,-37.4 500.56,-30.54"/>
<polygon fill="midnightblue" stroke="midnightblue" points="570.39,-55.38 580.98,-54.94 572.42,-48.68 570.39,-55.38"/>
</g>
<!-- Node7 -->
<g id="node7" class="node">
<title>Node7</title>
<g id="a_node7"><a xlink:href="../../dd/d3e/class_gam_r_1_1_coulex_1_1_coulex_calculation.html#a2a7d4ff2433572678844223f385bba86" target="_top" xlink:title=" ">
<polygon fill="white" stroke="black" points="370,-49.5 370,-79.5 530,-79.5 530,-49.5 370,-49.5"/>
<text text-anchor="start" x="378" y="-67.5" font-family="Helvetica,sans-Serif" font-size="10.00">GamR::Coulex::CoulexCalculation</text>
<text text-anchor="middle" x="450" y="-56.5" font-family="Helvetica,sans-Serif" font-size="10.00">::SetTarget</text>
</a>
</g>
</g>
<!-- Node1&#45;&gt;Node7 -->
<g id="edge8" class="edge">
<title>Node1&#45;&gt;Node7</title>
<path fill="none" stroke="midnightblue" d="M555.58,-64.5C547.34,-64.5 538.74,-64.5 530.17,-64.5"/>
<polygon fill="midnightblue" stroke="midnightblue" points="555.79,-68 565.79,-64.5 555.79,-61 555.79,-68"/>
</g>
<!-- Node3 -->
<g id="node3" class="node">
<title>Node3</title>
<g id="a_node3"><a xlink:href="../../d6/d76/namespace_gam_r_1_1_coulex.html#a41b07b0aa204c45d637b7c5a4e57d989" target="_top" xlink:title=" ">
<polygon fill="white" stroke="black" points="7,-97 7,-116 131,-116 131,-97 7,-97"/>
<text text-anchor="middle" x="69" y="-104" font-family="Helvetica,sans-Serif" font-size="10.00">GamR::Coulex::DoCoulex</text>
</a>
</g>
</g>
<!-- Node2&#45;&gt;Node3 -->
<g id="edge2" class="edge">
<title>Node2&#45;&gt;Node3</title>
<path fill="none" stroke="midnightblue" d="M163.7,-107.52C152.66,-107.4 141.59,-107.28 131.12,-107.17"/>
<polygon fill="midnightblue" stroke="midnightblue" points="163.76,-111.02 173.8,-107.63 163.84,-104.03 163.76,-111.02"/>
</g>
<!-- Node4 -->
<g id="node4" class="node">
<title>Node4</title>
<g id="a_node4"><a xlink:href="../../d6/d76/namespace_gam_r_1_1_coulex.html#a2551a0108b265de32e08ef2042a02212" target="_top" xlink:title=" ">
<polygon fill="white" stroke="black" points="0,-46.5 0,-76.5 138,-76.5 138,-46.5 0,-46.5"/>
<text text-anchor="start" x="8" y="-64.5" font-family="Helvetica,sans-Serif" font-size="10.00">GamR::Coulex::Experimental</text>
<text text-anchor="middle" x="69" y="-53.5" font-family="Helvetica,sans-Serif" font-size="10.00">Setup</text>
</a>
</g>
</g>
<!-- Node2&#45;&gt;Node4 -->
<g id="edge3" class="edge">
<title>Node2&#45;&gt;Node4</title>
<path fill="none" stroke="midnightblue" d="M184.77,-90.98C166.26,-86.22 146.39,-81.12 128.48,-76.52"/>
<polygon fill="midnightblue" stroke="midnightblue" points="184.04,-94.4 194.59,-93.5 185.78,-87.62 184.04,-94.4"/>
</g>
<!-- Node6 -->
<g id="node6" class="node">
<title>Node6</title>
<g id="a_node6"><a xlink:href="../../dd/d3e/class_gam_r_1_1_coulex_1_1_coulex_calculation.html#ae8ce7427467c968c1a44f74a06ce4a30" target="_top" xlink:title=" ">
<polygon fill="white" stroke="black" points="174,-44.5 174,-74.5 334,-74.5 334,-44.5 174,-44.5"/>
<text text-anchor="start" x="182" y="-62.5" font-family="Helvetica,sans-Serif" font-size="10.00">GamR::Coulex::CoulexCalculation</text>
<text text-anchor="middle" x="254" y="-51.5" font-family="Helvetica,sans-Serif" font-size="10.00">::ExperimentalSetup</text>
</a>
</g>
</g>
<!-- Node5&#45;&gt;Node6 -->
<g id="edge5" class="edge">
<title>Node5&#45;&gt;Node6</title>
<path fill="none" stroke="midnightblue" d="M372.86,-32.77C355.81,-36.64 337.86,-40.71 321.25,-44.47"/>
<polygon fill="midnightblue" stroke="midnightblue" points="373.8,-36.14 382.78,-30.52 372.25,-29.32 373.8,-36.14"/>
</g>
<!-- Node6&#45;&gt;Node3 -->
<g id="edge6" class="edge">
<title>Node6&#45;&gt;Node3</title>
<path fill="none" stroke="midnightblue" d="M184.68,-77.05C158.42,-83.79 129.42,-91.24 107.16,-96.96"/>
<polygon fill="midnightblue" stroke="midnightblue" points="185.78,-80.38 194.59,-74.5 184.04,-73.6 185.78,-80.38"/>
</g>
<!-- Node6&#45;&gt;Node4 -->
<g id="edge7" class="edge">
<title>Node6&#45;&gt;Node4</title>
<path fill="none" stroke="midnightblue" d="M163.72,-60.48C155.12,-60.57 146.48,-60.66 138.13,-60.76"/>
<polygon fill="midnightblue" stroke="midnightblue" points="163.84,-63.97 173.8,-60.37 163.76,-56.98 163.84,-63.97"/>
</g>
<!-- Node7&#45;&gt;Node6 -->
<g id="edge9" class="edge">
<title>Node7&#45;&gt;Node6</title>
<path fill="none" stroke="midnightblue" d="M359.56,-62.19C351.12,-61.98 342.59,-61.76 334.25,-61.54"/>
<polygon fill="midnightblue" stroke="midnightblue" points="359.73,-65.7 369.81,-62.46 359.91,-58.7 359.73,-65.7"/>
</g>
</g>
</svg>
