<?xml version="1.0" encoding="UTF-8" standalone="no"?>
<!DOCTYPE svg PUBLIC "-//W3C//DTD SVG 1.1//EN"
 "http://www.w3.org/Graphics/SVG/1.1/DTD/svg11.dtd">
<!-- Generated by graphviz version 6.0.2 (20221011.1828)
 -->
<!-- Title: src/lib/toolkit/Gate.hh Pages: 1 -->
<!--zoomable 269 -->
<svg id="main" version="1.1" xmlns="http://www.w3.org/2000/svg" xmlns:xlink="http://www.w3.org/1999/xlink" xml:space="preserve" onload="init(evt)">
<style type="text/css"><![CDATA[
.edge:hover path { stroke: red; }
.edge:hover polygon { stroke: red; fill: red; }
]]></style>
<script type="text/javascript"><![CDATA[
var edges = document.getElementsByTagName('g');
if (edges && edges.length) {
  for (var i=0;i<edges.length;i++) {
    if (edges[i].id.substr(0,4)=='edge') {
      edges[i].setAttribute('class','edge');
    }
  }
}
]]></script>
        <defs>
                <circle id="rim" cx="0" cy="0" r="7"/>
                <circle id="rim2" cx="0" cy="0" r="3.5"/>
                <g id="zoomPlus">
                        <use xlink:href="#rim" fill="#404040">
                                <set attributeName="fill" to="#808080" begin="zoomplus.mouseover" end="zoomplus.mouseout"/>
                        </use>
                        <path d="M-4,0h8M0,-4v8" fill="none" stroke="white" stroke-width="1.5" pointer-events="none"/>
                </g>
                <g id="zoomMin">
                        <use xlink:href="#rim" fill="#404040">
                                <set attributeName="fill" to="#808080" begin="zoomminus.mouseover" end="zoomminus.mouseout"/>
                        </use>
                        <path d="M-4,0h8" fill="none" stroke="white" stroke-width="1.5" pointer-events="none"/>
                </g>
                <g id="dirArrow">
                        <path fill="none" stroke="white" stroke-width="1.5" d="M0,-3.0v7 M-2.5,-0.5L0,-3.0L2.5,-0.5"/>
                </g>
               <g id="resetDef">
                       <use xlink:href="#rim2" fill="#404040">
                               <set attributeName="fill" to="#808080" begin="reset.mouseover" end="reset.mouseout"/>
                       </use>
               </g>
        </defs>

<script type="text/javascript">
var viewWidth = 2084;
var viewHeight = 269;
var sectionId = 'dynsection-1';
</script>
<script xlink:href="../../svgpan.js"/>
<svg id="graph" class="graph">
<g id="viewport">
<title>src/lib/toolkit/Gate.hh</title>
<!-- Node1 -->
<g id="node1" class="node">
<title>Node1</title>
<g id="a_node1"><a xlink:title=" ">
<polygon fill="#999999" stroke="#666666" points="1443.5,-261 1334.5,-261 1334.5,-242 1443.5,-242 1443.5,-261"/>
<text text-anchor="middle" x="1389" y="-249" font-family="Helvetica,sans-Serif" font-size="10.00">src/lib/toolkit/Gate.hh</text>
</a>
</g>
</g>
<!-- Node2 -->
<g id="node2" class="node">
<title>Node2</title>
<g id="a_node2"><a xlink:href="../../d0/d68/_abbreviations_8hh.html" target="_top" xlink:title=" ">
<polygon fill="white" stroke="#666666" points="1930.5,-79.5 1775.5,-79.5 1775.5,-60.5 1930.5,-60.5 1930.5,-79.5"/>
<text text-anchor="middle" x="1853" y="-67.5" font-family="Helvetica,sans-Serif" font-size="10.00">src/lib/abbrevs/Abbreviations.hh</text>
</a>
</g>
</g>
<!-- Node1&#45;&gt;Node2 -->
<g id="edge1" class="edge">
<title>Node1&#45;&gt;Node2</title>
<path fill="none" stroke="#63b8ff" d="M1423.29,-238.52C1447.02,-230 1479.2,-217.98 1507,-206 1524.71,-198.37 1528.25,-194.53 1546,-187 1589.1,-168.72 1601.15,-167.4 1645,-151 1713.13,-125.51 1793.37,-94.32 1831.19,-79.54"/>
<polygon fill="#63b8ff" stroke="#63b8ff" points="1421.92,-235.29 1413.67,-241.95 1424.27,-241.89 1421.92,-235.29"/>
</g>
<!-- Node4 -->
<g id="node4" class="node">
<title>Node4</title>
<g id="a_node4"><a xlink:href="../../db/d45/_gaussian_distr_8hh.html" target="_top" xlink:title=" ">
<polygon fill="white" stroke="#666666" points="122,-151 0,-151 0,-121 122,-121 122,-151"/>
<text text-anchor="start" x="8" y="-139" font-family="Helvetica,sans-Serif" font-size="10.00">src/lib/angdist/Gaussian</text>
<text text-anchor="middle" x="61" y="-128" font-family="Helvetica,sans-Serif" font-size="10.00">Distr.hh</text>
</a>
</g>
</g>
<!-- Node1&#45;&gt;Node4 -->
<g id="edge3" class="edge">
<title>Node1&#45;&gt;Node4</title>
<path fill="none" stroke="#63b8ff" d="M1324.46,-249.17C1180.03,-245.75 819.94,-234.83 520,-206 346.19,-189.3 303.12,-180.36 131,-151 128.07,-150.5 125.07,-149.97 122.05,-149.42"/>
<polygon fill="#63b8ff" stroke="#63b8ff" points="1324.4,-252.66 1334.48,-249.4 1324.56,-245.67 1324.4,-252.66"/>
</g>
<!-- Node6 -->
<g id="node6" class="node">
<title>Node6</title>
<g id="a_node6"><a xlink:href="../../d5/d66/_t_d_p_a_d_8hh.html" target="_top" xlink:title=" ">
<polygon fill="white" stroke="#666666" points="266,-145.5 140,-145.5 140,-126.5 266,-126.5 266,-145.5"/>
<text text-anchor="middle" x="203" y="-133.5" font-family="Helvetica,sans-Serif" font-size="10.00">src/lib/angdist/TDPAD.hh</text>
</a>
</g>
</g>
<!-- Node1&#45;&gt;Node6 -->
<g id="edge5" class="edge">
<title>Node1&#45;&gt;Node6</title>
<path fill="none" stroke="#63b8ff" d="M1323.92,-247.75C1201.28,-242.26 927.6,-228.47 698,-206 511.51,-187.75 465.12,-179.99 280,-151 269.53,-149.36 258.29,-147.42 247.73,-145.51"/>
<polygon fill="#63b8ff" stroke="#63b8ff" points="1324.11,-251.27 1334.26,-248.21 1324.42,-244.27 1324.11,-251.27"/>
</g>
<!-- Node8 -->
<g id="node8" class="node">
<title>Node8</title>
<g id="a_node8"><a xlink:href="../../d3/d2c/_transition_8hh.html" target="_top" xlink:title=" ">
<polygon fill="white" stroke="#666666" points="1050,-206 912,-206 912,-187 1050,-187 1050,-206"/>
<text text-anchor="middle" x="981" y="-194" font-family="Helvetica,sans-Serif" font-size="10.00">src/lib/nucleus/Transition.hh</text>
</a>
</g>
</g>
<!-- Node1&#45;&gt;Node8 -->
<g id="edge8" class="edge">
<title>Node1&#45;&gt;Node8</title>
<path fill="none" stroke="#63b8ff" d="M1324.48,-242.12C1248.56,-232.26 1123.19,-215.97 1046.75,-206.04"/>
<polygon fill="#63b8ff" stroke="#63b8ff" points="1324.03,-245.59 1334.4,-243.41 1324.93,-238.65 1324.03,-245.59"/>
</g>
<!-- Node23 -->
<g id="node23" class="node">
<title>Node23</title>
<g id="a_node23"><a xlink:href="../../d7/d1d/_cut_8hh.html" target="_top" xlink:title=" ">
<polygon fill="white" stroke="#666666" points="1492.5,-145.5 1391.5,-145.5 1391.5,-126.5 1492.5,-126.5 1492.5,-145.5"/>
<text text-anchor="middle" x="1442" y="-133.5" font-family="Helvetica,sans-Serif" font-size="10.00">src/lib/spect/Cut.hh</text>
</a>
</g>
</g>
<!-- Node1&#45;&gt;Node23 -->
<g id="edge41" class="edge">
<title>Node1&#45;&gt;Node23</title>
<path fill="none" stroke="#63b8ff" d="M1374.57,-233.88C1365.03,-220.76 1355.69,-202.2 1364,-187 1375.19,-166.54 1398.73,-153.21 1417.03,-145.51"/>
<polygon fill="#63b8ff" stroke="#63b8ff" points="1372.04,-236.32 1380.99,-241.98 1377.53,-231.97 1372.04,-236.32"/>
</g>
<!-- Node27 -->
<g id="node27" class="node">
<title>Node27</title>
<g id="a_node27"><a xlink:href="../../d7/d68/_integral_8hh.html" target="_top" xlink:title=" ">
<polygon fill="white" stroke="#666666" points="1370,-145.5 1252,-145.5 1252,-126.5 1370,-126.5 1370,-145.5"/>
<text text-anchor="middle" x="1311" y="-133.5" font-family="Helvetica,sans-Serif" font-size="10.00">src/lib/spect/Integral.hh</text>
</a>
</g>
</g>
<!-- Node1&#45;&gt;Node27 -->
<g id="edge43" class="edge">
<title>Node1&#45;&gt;Node27</title>
<path fill="none" stroke="#63b8ff" d="M1376.14,-233.66C1369.94,-225.41 1362.46,-215.28 1356,-206 1341.13,-184.64 1324.66,-158.77 1316.38,-145.61"/>
<polygon fill="#63b8ff" stroke="#63b8ff" points="1373.44,-235.89 1382.27,-241.75 1379.02,-231.66 1373.44,-235.89"/>
</g>
<!-- Node28 -->
<g id="node28" class="node">
<title>Node28</title>
<g id="a_node28"><a xlink:href="../../db/d1b/_matrix_8hh.html" target="_top" xlink:title=" ">
<polygon fill="white" stroke="#666666" points="811,-206 707,-206 707,-187 811,-187 811,-206"/>
<text text-anchor="middle" x="759" y="-194" font-family="Helvetica,sans-Serif" font-size="10.00">src/lib/sort/Matrix.hh</text>
</a>
</g>
</g>
<!-- Node1&#45;&gt;Node28 -->
<g id="edge37" class="edge">
<title>Node1&#45;&gt;Node28</title>
<path fill="none" stroke="#63b8ff" d="M1324.26,-245.05C1198.96,-234.51 925.57,-211.51 811.07,-201.88"/>
<polygon fill="#63b8ff" stroke="#63b8ff" points="1324.21,-248.56 1334.47,-245.91 1324.8,-241.59 1324.21,-248.56"/>
</g>
<!-- Node29 -->
<g id="node29" class="node">
<title>Node29</title>
<g id="a_node29"><a xlink:href="../../d1/df2/_back_sub_8hh.html" target="_top" xlink:title=" ">
<polygon fill="white" stroke="#666666" points="1497.5,-206 1372.5,-206 1372.5,-187 1497.5,-187 1497.5,-206"/>
<text text-anchor="middle" x="1435" y="-194" font-family="Helvetica,sans-Serif" font-size="10.00">src/lib/spect/BackSub.hh</text>
</a>
</g>
</g>
<!-- Node1&#45;&gt;Node29 -->
<g id="edge39" class="edge">
<title>Node1&#45;&gt;Node29</title>
<path fill="none" stroke="#63b8ff" d="M1403.36,-233.96C1411.37,-224.72 1421.03,-213.6 1427.55,-206.09"/>
<polygon fill="#63b8ff" stroke="#63b8ff" points="1400.51,-231.9 1396.6,-241.75 1405.79,-236.49 1400.51,-231.9"/>
</g>
<!-- Node31 -->
<g id="node31" class="node">
<title>Node31</title>
<g id="a_node31"><a xlink:href="../../d4/def/_display_8cc.html" target="_top" xlink:title=" ">
<polygon fill="white" stroke="#666666" points="1671.5,-206 1554.5,-206 1554.5,-187 1671.5,-187 1671.5,-206"/>
<text text-anchor="middle" x="1613" y="-194" font-family="Helvetica,sans-Serif" font-size="10.00">src/lib/spect/Display.cc</text>
</a>
</g>
</g>
<!-- Node1&#45;&gt;Node31 -->
<g id="edge42" class="edge">
<title>Node1&#45;&gt;Node31</title>
<path fill="none" stroke="#63b8ff" d="M1434.95,-239.63C1476.91,-229.7 1538.12,-215.22 1576.73,-206.08"/>
<polygon fill="#63b8ff" stroke="#63b8ff" points="1433.91,-236.28 1424.99,-241.98 1435.53,-243.09 1433.91,-236.28"/>
</g>
<!-- Node32 -->
<g id="node32" class="node">
<title>Node32</title>
<g id="a_node32"><a xlink:href="../../d2/dec/_transform_8cc.html" target="_top" xlink:title=" ">
<polygon fill="white" stroke="#666666" points="1820,-206 1690,-206 1690,-187 1820,-187 1820,-206"/>
<text text-anchor="middle" x="1755" y="-194" font-family="Helvetica,sans-Serif" font-size="10.00">src/lib/spect/Transform.cc</text>
</a>
</g>
</g>
<!-- Node1&#45;&gt;Node32 -->
<g id="edge44" class="edge">
<title>Node1&#45;&gt;Node32</title>
<path fill="none" stroke="#63b8ff" d="M1454.05,-241.08C1522.72,-231.14 1629.98,-215.6 1696.19,-206.02"/>
<polygon fill="#63b8ff" stroke="#63b8ff" points="1453.19,-237.67 1443.79,-242.57 1454.19,-244.6 1453.19,-237.67"/>
</g>
<!-- Node33 -->
<g id="node33" class="node">
<title>Node33</title>
<g id="a_node33"><a xlink:href="../../d9/d48/_gate_8cc.html" target="_top" xlink:title=" ">
<polygon fill="white" stroke="#666666" points="1947.5,-206 1838.5,-206 1838.5,-187 1947.5,-187 1947.5,-206"/>
<text text-anchor="middle" x="1893" y="-194" font-family="Helvetica,sans-Serif" font-size="10.00">src/lib/toolkit/Gate.cc</text>
</a>
</g>
</g>
<!-- Node1&#45;&gt;Node33 -->
<g id="edge45" class="edge">
<title>Node1&#45;&gt;Node33</title>
<path fill="none" stroke="#63b8ff" d="M1453.71,-244.59C1539.56,-236.61 1695.81,-221.58 1829,-206 1832.01,-205.65 1835.09,-205.28 1838.2,-204.89"/>
<polygon fill="#63b8ff" stroke="#63b8ff" points="1453.23,-241.12 1443.59,-245.53 1453.87,-248.09 1453.23,-241.12"/>
</g>
<!-- Node34 -->
<g id="node34" class="node">
<title>Node34</title>
<g id="a_node34"><a xlink:href="../../d9/db5/_peak_8hh.html" target="_top" xlink:title=" ">
<polygon fill="white" stroke="#666666" points="2076,-206 1966,-206 1966,-187 2076,-187 2076,-206"/>
<text text-anchor="middle" x="2021" y="-194" font-family="Helvetica,sans-Serif" font-size="10.00">src/lib/toolkit/Peak.hh</text>
</a>
</g>
</g>
<!-- Node1&#45;&gt;Node34 -->
<g id="edge46" class="edge">
<title>Node1&#45;&gt;Node34</title>
<path fill="none" stroke="#63b8ff" d="M1453.69,-246.57C1559.23,-239.9 1774.94,-225.21 1957,-206 1959.9,-205.69 1962.87,-205.36 1965.86,-205.01"/>
<polygon fill="#63b8ff" stroke="#63b8ff" points="1453.28,-243.09 1443.52,-247.21 1453.72,-250.07 1453.28,-243.09"/>
</g>
<!-- Node3 -->
<g id="node3" class="node">
<title>Node3</title>
<g id="a_node3"><a xlink:href="../../d0/d17/_abbreviations_8cc.html" target="_top" xlink:title=" ">
<polygon fill="white" stroke="#666666" points="1930.5,-19 1775.5,-19 1775.5,0 1930.5,0 1930.5,-19"/>
<text text-anchor="middle" x="1853" y="-7" font-family="Helvetica,sans-Serif" font-size="10.00">src/lib/abbrevs/Abbreviations.cc</text>
</a>
</g>
</g>
<!-- Node2&#45;&gt;Node3 -->
<g id="edge2" class="edge">
<title>Node2&#45;&gt;Node3</title>
<path fill="none" stroke="#63b8ff" d="M1853,-50.16C1853,-39.74 1853,-27.3 1853,-19.17"/>
<polygon fill="#63b8ff" stroke="#63b8ff" points="1849.5,-50.37 1853,-60.37 1856.5,-50.37 1849.5,-50.37"/>
</g>
<!-- Node5 -->
<g id="node5" class="node">
<title>Node5</title>
<g id="a_node5"><a xlink:href="../../d4/d23/_gaussian_distr_8cc.html" target="_top" xlink:title=" ">
<polygon fill="white" stroke="#666666" points="122,-85 0,-85 0,-55 122,-55 122,-85"/>
<text text-anchor="start" x="8" y="-73" font-family="Helvetica,sans-Serif" font-size="10.00">src/lib/angdist/Gaussian</text>
<text text-anchor="middle" x="61" y="-62" font-family="Helvetica,sans-Serif" font-size="10.00">Distr.cc</text>
</a>
</g>
</g>
<!-- Node4&#45;&gt;Node5 -->
<g id="edge4" class="edge">
<title>Node4&#45;&gt;Node5</title>
<path fill="none" stroke="#63b8ff" d="M61,-110.54C61,-101.96 61,-92.61 61,-85.16"/>
<polygon fill="#63b8ff" stroke="#63b8ff" points="57.5,-110.8 61,-120.8 64.5,-110.8 57.5,-110.8"/>
</g>
<!-- Node6&#45;&gt;Node5 -->
<g id="edge6" class="edge">
<title>Node6&#45;&gt;Node5</title>
<path fill="none" stroke="#63b8ff" d="M174.64,-122.22C150.85,-111.5 116.91,-96.2 92.32,-85.12"/>
<polygon fill="#63b8ff" stroke="#63b8ff" points="173.29,-125.45 183.85,-126.37 176.17,-119.07 173.29,-125.45"/>
</g>
<!-- Node7 -->
<g id="node7" class="node">
<title>Node7</title>
<g id="a_node7"><a xlink:href="../../d5/db3/_t_d_p_a_d_8cc.html" target="_top" xlink:title=" ">
<polygon fill="white" stroke="#666666" points="266,-79.5 140,-79.5 140,-60.5 266,-60.5 266,-79.5"/>
<text text-anchor="middle" x="203" y="-67.5" font-family="Helvetica,sans-Serif" font-size="10.00">src/lib/angdist/TDPAD.cc</text>
</a>
</g>
</g>
<!-- Node6&#45;&gt;Node7 -->
<g id="edge7" class="edge">
<title>Node6&#45;&gt;Node7</title>
<path fill="none" stroke="#63b8ff" d="M203,-116.08C203,-104.13 203,-89.22 203,-79.91"/>
<polygon fill="#63b8ff" stroke="#63b8ff" points="199.5,-116.37 203,-126.37 206.5,-116.37 199.5,-116.37"/>
</g>
<!-- Node8&#45;&gt;Node4 -->
<g id="edge11" class="edge">
<title>Node8&#45;&gt;Node4</title>
<path fill="none" stroke="#63b8ff" d="M901.49,-191.29C875.51,-189.92 846.53,-188.39 820,-187 513.78,-170.92 435.26,-189.17 131,-151 128.17,-150.65 125.29,-150.24 122.38,-149.8"/>
<polygon fill="#63b8ff" stroke="#63b8ff" points="901.49,-194.8 911.66,-191.83 901.86,-187.81 901.49,-194.8"/>
</g>
<!-- Node8&#45;&gt;Node6 -->
<g id="edge12" class="edge">
<title>Node8&#45;&gt;Node6</title>
<path fill="none" stroke="#63b8ff" d="M901.58,-189.53C746.65,-177.88 406.99,-152.34 266.14,-141.75"/>
<polygon fill="#63b8ff" stroke="#63b8ff" points="901.72,-193.05 911.96,-190.31 902.25,-186.07 901.72,-193.05"/>
</g>
<!-- Node9 -->
<g id="node9" class="node">
<title>Node9</title>
<g id="a_node9"><a xlink:href="../../db/db9/_ang_corr_8hh.html" target="_top" xlink:title=" ">
<polygon fill="white" stroke="#666666" points="1234,-145.5 1106,-145.5 1106,-126.5 1234,-126.5 1234,-145.5"/>
<text text-anchor="middle" x="1170" y="-133.5" font-family="Helvetica,sans-Serif" font-size="10.00">src/lib/angdist/AngCorr.hh</text>
</a>
</g>
</g>
<!-- Node8&#45;&gt;Node9 -->
<g id="edge9" class="edge">
<title>Node8&#45;&gt;Node9</title>
<path fill="none" stroke="#63b8ff" d="M1018.27,-183.96C1054.83,-172.65 1109.72,-155.66 1142.48,-145.52"/>
<polygon fill="#63b8ff" stroke="#63b8ff" points="1017,-180.69 1008.48,-186.99 1019.07,-187.38 1017,-180.69"/>
</g>
<!-- Node11 -->
<g id="node11" class="node">
<title>Node11</title>
<g id="a_node11"><a xlink:href="../../da/df3/_efficiency_8hh.html" target="_top" xlink:title=" ">
<polygon fill="white" stroke="#666666" points="507,-151 421,-151 421,-121 507,-121 507,-151"/>
<text text-anchor="start" x="429" y="-139" font-family="Helvetica,sans-Serif" font-size="10.00">src/lib/efficiency</text>
<text text-anchor="middle" x="464" y="-128" font-family="Helvetica,sans-Serif" font-size="10.00">/Efficiency.hh</text>
</a>
</g>
</g>
<!-- Node8&#45;&gt;Node11 -->
<g id="edge13" class="edge">
<title>Node8&#45;&gt;Node11</title>
<path fill="none" stroke="#63b8ff" d="M901.7,-186.53C790.99,-174 593.95,-151.7 507.12,-141.88"/>
<polygon fill="#63b8ff" stroke="#63b8ff" points="901.48,-190.02 911.81,-187.67 902.27,-183.07 901.48,-190.02"/>
</g>
<!-- Node13 -->
<g id="node13" class="node">
<title>Node13</title>
<g id="a_node13"><a xlink:href="../../d9/d68/_photon_8cc.html" target="_top" xlink:title=" ">
<polygon fill="white" stroke="#666666" points="750,-145.5 624,-145.5 624,-126.5 750,-126.5 750,-145.5"/>
<text text-anchor="middle" x="687" y="-133.5" font-family="Helvetica,sans-Serif" font-size="10.00">src/lib/nucleus/Photon.cc</text>
</a>
</g>
</g>
<!-- Node8&#45;&gt;Node13 -->
<g id="edge15" class="edge">
<title>Node8&#45;&gt;Node13</title>
<path fill="none" stroke="#63b8ff" d="M928.4,-185.03C871.66,-173.74 782.41,-155.98 729.8,-145.52"/>
<polygon fill="#63b8ff" stroke="#63b8ff" points="927.76,-188.47 938.25,-186.99 929.13,-181.61 927.76,-188.47"/>
</g>
<!-- Node14 -->
<g id="node14" class="node">
<title>Node14</title>
<g id="a_node14"><a xlink:href="../../d9/d3f/_photon_8hh.html" target="_top" xlink:title=" ">
<polygon fill="white" stroke="#666666" points="894,-145.5 768,-145.5 768,-126.5 894,-126.5 894,-145.5"/>
<text text-anchor="middle" x="831" y="-133.5" font-family="Helvetica,sans-Serif" font-size="10.00">src/lib/nucleus/Photon.hh</text>
</a>
</g>
</g>
<!-- Node8&#45;&gt;Node14 -->
<g id="edge16" class="edge">
<title>Node8&#45;&gt;Node14</title>
<path fill="none" stroke="#63b8ff" d="M949.54,-183.23C920.55,-171.92 878.29,-155.44 852.84,-145.52"/>
<polygon fill="#63b8ff" stroke="#63b8ff" points="948.6,-186.62 959.19,-186.99 951.14,-180.1 948.6,-186.62"/>
</g>
<!-- Node22 -->
<g id="node22" class="node">
<title>Node22</title>
<g id="a_node22"><a xlink:href="../../db/d61/_transition_8cc.html" target="_top" xlink:title=" ">
<polygon fill="white" stroke="#666666" points="1050,-145.5 912,-145.5 912,-126.5 1050,-126.5 1050,-145.5"/>
<text text-anchor="middle" x="981" y="-133.5" font-family="Helvetica,sans-Serif" font-size="10.00">src/lib/nucleus/Transition.cc</text>
</a>
</g>
</g>
<!-- Node8&#45;&gt;Node22 -->
<g id="edge27" class="edge">
<title>Node8&#45;&gt;Node22</title>
<path fill="none" stroke="#63b8ff" d="M981,-176.66C981,-166.24 981,-153.8 981,-145.67"/>
<polygon fill="#63b8ff" stroke="#63b8ff" points="977.5,-176.87 981,-186.87 984.5,-176.87 977.5,-176.87"/>
</g>
<!-- Node8&#45;&gt;Node23 -->
<g id="edge28" class="edge">
<title>Node8&#45;&gt;Node23</title>
<path fill="none" stroke="#63b8ff" d="M1060.41,-189.15C1140.99,-182.11 1269.16,-169.29 1379,-151 1388.06,-149.49 1397.78,-147.51 1406.81,-145.52"/>
<polygon fill="#63b8ff" stroke="#63b8ff" points="1060,-185.67 1050.34,-190.02 1060.6,-192.65 1060,-185.67"/>
</g>
<!-- Node26 -->
<g id="node26" class="node">
<title>Node26</title>
<g id="a_node26"><a xlink:href="../../d5/da1/_integral_8cc.html" target="_top" xlink:title=" ">
<polygon fill="white" stroke="#666666" points="1363,-79.5 1245,-79.5 1245,-60.5 1363,-60.5 1363,-79.5"/>
<text text-anchor="middle" x="1304" y="-67.5" font-family="Helvetica,sans-Serif" font-size="10.00">src/lib/spect/Integral.cc</text>
</a>
</g>
</g>
<!-- Node8&#45;&gt;Node26 -->
<g id="edge33" class="edge">
<title>Node8&#45;&gt;Node26</title>
<path fill="none" stroke="#63b8ff" d="M1006.57,-182.17C1022.09,-173.78 1042.09,-162.41 1059,-151 1076.84,-138.97 1077.65,-130.41 1097,-121 1112,-113.7 1208.76,-91.84 1264.52,-79.58"/>
<polygon fill="#63b8ff" stroke="#63b8ff" points="1004.73,-179.19 997.56,-186.98 1008.03,-185.36 1004.73,-179.19"/>
</g>
<!-- Node8&#45;&gt;Node27 -->
<g id="edge34" class="edge">
<title>Node8&#45;&gt;Node27</title>
<path fill="none" stroke="#63b8ff" d="M1044.49,-185.35C1097.62,-176.71 1175.37,-163.7 1243,-151 1252,-149.31 1261.65,-147.39 1270.77,-145.52"/>
<polygon fill="#63b8ff" stroke="#63b8ff" points="1043.85,-181.91 1034.54,-186.97 1044.97,-188.82 1043.85,-181.91"/>
</g>
<!-- Node10 -->
<g id="node10" class="node">
<title>Node10</title>
<g id="a_node10"><a xlink:href="../../dd/d67/_ang_corr_8cc.html" target="_top" xlink:title=" ">
<polygon fill="white" stroke="#666666" points="1509,-79.5 1381,-79.5 1381,-60.5 1509,-60.5 1509,-79.5"/>
<text text-anchor="middle" x="1445" y="-67.5" font-family="Helvetica,sans-Serif" font-size="10.00">src/lib/angdist/AngCorr.cc</text>
</a>
</g>
</g>
<!-- Node9&#45;&gt;Node10 -->
<g id="edge10" class="edge">
<title>Node9&#45;&gt;Node10</title>
<path fill="none" stroke="#63b8ff" d="M1216.83,-124.1C1271,-111.49 1359.03,-91.01 1408.42,-79.51"/>
<polygon fill="#63b8ff" stroke="#63b8ff" points="1215.75,-120.76 1206.8,-126.44 1217.34,-127.58 1215.75,-120.76"/>
</g>
<!-- Node12 -->
<g id="node12" class="node">
<title>Node12</title>
<g id="a_node12"><a xlink:href="../../df/d08/_efficiency_8cc.html" target="_top" xlink:title=" ">
<polygon fill="white" stroke="#666666" points="408,-85 322,-85 322,-55 408,-55 408,-85"/>
<text text-anchor="start" x="330" y="-73" font-family="Helvetica,sans-Serif" font-size="10.00">src/lib/efficiency</text>
<text text-anchor="middle" x="365" y="-62" font-family="Helvetica,sans-Serif" font-size="10.00">/Efficiency.cc</text>
</a>
</g>
</g>
<!-- Node11&#45;&gt;Node12 -->
<g id="edge14" class="edge">
<title>Node11&#45;&gt;Node12</title>
<path fill="none" stroke="#63b8ff" d="M433.53,-115.3C418.46,-105.56 400.61,-94.02 386.91,-85.16"/>
<polygon fill="#63b8ff" stroke="#63b8ff" points="431.73,-118.31 442.03,-120.8 435.53,-112.43 431.73,-118.31"/>
</g>
<!-- Node15 -->
<g id="node15" class="node">
<title>Node15</title>
<g id="a_node15"><a xlink:href="../../d6/d60/_time_walk_8hh.html" target="_top" xlink:title=" ">
<polygon fill="white" stroke="#666666" points="574,-79.5 426,-79.5 426,-60.5 574,-60.5 574,-79.5"/>
<text text-anchor="middle" x="500" y="-67.5" font-family="Helvetica,sans-Serif" font-size="10.00">src/lib/processor/TimeWalk.hh</text>
</a>
</g>
</g>
<!-- Node14&#45;&gt;Node15 -->
<g id="edge17" class="edge">
<title>Node14&#45;&gt;Node15</title>
<path fill="none" stroke="#63b8ff" d="M777.05,-124.5C770.96,-123.32 764.85,-122.13 759,-121 683.69,-106.41 596.05,-89.51 544.46,-79.56"/>
<polygon fill="#63b8ff" stroke="#63b8ff" points="776.73,-128.01 787.22,-126.48 778.07,-121.13 776.73,-128.01"/>
</g>
<!-- Node17 -->
<g id="node17" class="node">
<title>Node17</title>
<g id="a_node17"><a xlink:href="../../dc/d02/_gated_time_difference_8hh.html" target="_top" xlink:title=" ">
<polygon fill="white" stroke="#666666" points="916,-79.5 746,-79.5 746,-60.5 916,-60.5 916,-79.5"/>
<text text-anchor="middle" x="831" y="-67.5" font-family="Helvetica,sans-Serif" font-size="10.00">src/lib/sort/GatedTimeDifference.hh</text>
</a>
</g>
</g>
<!-- Node14&#45;&gt;Node17 -->
<g id="edge19" class="edge">
<title>Node14&#45;&gt;Node17</title>
<path fill="none" stroke="#63b8ff" d="M831,-116.08C831,-104.13 831,-89.22 831,-79.91"/>
<polygon fill="#63b8ff" stroke="#63b8ff" points="827.5,-116.37 831,-126.37 834.5,-116.37 827.5,-116.37"/>
</g>
<!-- Node19 -->
<g id="node19" class="node">
<title>Node19</title>
<g id="a_node19"><a xlink:href="../../d7/d98/_time_difference_8hh.html" target="_top" xlink:title=" ">
<polygon fill="white" stroke="#666666" points="1077.5,-79.5 934.5,-79.5 934.5,-60.5 1077.5,-60.5 1077.5,-79.5"/>
<text text-anchor="middle" x="1006" y="-67.5" font-family="Helvetica,sans-Serif" font-size="10.00">src/lib/sort/TimeDifference.hh</text>
</a>
</g>
</g>
<!-- Node14&#45;&gt;Node19 -->
<g id="edge21" class="edge">
<title>Node14&#45;&gt;Node19</title>
<path fill="none" stroke="#63b8ff" d="M864.25,-122.84C898.83,-110.2 952.06,-90.73 982.49,-79.6"/>
<polygon fill="#63b8ff" stroke="#63b8ff" points="862.79,-119.65 854.6,-126.37 865.2,-126.22 862.79,-119.65"/>
</g>
<!-- Node20 -->
<g id="node20" class="node">
<title>Node20</title>
<g id="a_node20"><a xlink:href="../../de/d1d/_time_difference_pairs_8hh.html" target="_top" xlink:title=" ">
<polygon fill="white" stroke="#666666" points="1226.5,-85 1095.5,-85 1095.5,-55 1226.5,-55 1226.5,-85"/>
<text text-anchor="start" x="1103.5" y="-73" font-family="Helvetica,sans-Serif" font-size="10.00">src/lib/sort/TimeDifference</text>
<text text-anchor="middle" x="1161" y="-62" font-family="Helvetica,sans-Serif" font-size="10.00">Pairs.hh</text>
</a>
</g>
</g>
<!-- Node14&#45;&gt;Node20 -->
<g id="edge23" class="edge">
<title>Node14&#45;&gt;Node20</title>
<path fill="none" stroke="#63b8ff" d="M884.95,-124.51C891.04,-123.32 897.15,-122.13 903,-121 968.39,-108.31 1043.11,-93.83 1095.25,-83.73"/>
<polygon fill="#63b8ff" stroke="#63b8ff" points="883.93,-121.14 874.79,-126.48 885.27,-128.01 883.93,-121.14"/>
</g>
<!-- Node21 -->
<g id="node21" class="node">
<title>Node21</title>
<g id="a_node21"><a xlink:href="../../dd/d62/_time_walk_cal_8hh.html" target="_top" xlink:title=" ">
<polygon fill="white" stroke="#666666" points="728,-79.5 592,-79.5 592,-60.5 728,-60.5 728,-79.5"/>
<text text-anchor="middle" x="660" y="-67.5" font-family="Helvetica,sans-Serif" font-size="10.00">src/lib/sort/TimeWalkCal.hh</text>
</a>
</g>
</g>
<!-- Node14&#45;&gt;Node21 -->
<g id="edge25" class="edge">
<title>Node14&#45;&gt;Node21</title>
<path fill="none" stroke="#63b8ff" d="M798.51,-122.84C764.72,-110.2 712.71,-90.73 682.97,-79.6"/>
<polygon fill="#63b8ff" stroke="#63b8ff" points="797.35,-126.14 807.94,-126.37 799.8,-119.59 797.35,-126.14"/>
</g>
<!-- Node16 -->
<g id="node16" class="node">
<title>Node16</title>
<g id="a_node16"><a xlink:href="../../dd/d98/_time_walk_8cc.html" target="_top" xlink:title=" ">
<polygon fill="white" stroke="#666666" points="574,-19 426,-19 426,0 574,0 574,-19"/>
<text text-anchor="middle" x="500" y="-7" font-family="Helvetica,sans-Serif" font-size="10.00">src/lib/processor/TimeWalk.cc</text>
</a>
</g>
</g>
<!-- Node15&#45;&gt;Node16 -->
<g id="edge18" class="edge">
<title>Node15&#45;&gt;Node16</title>
<path fill="none" stroke="#63b8ff" d="M500,-50.16C500,-39.74 500,-27.3 500,-19.17"/>
<polygon fill="#63b8ff" stroke="#63b8ff" points="496.5,-50.37 500,-60.37 503.5,-50.37 496.5,-50.37"/>
</g>
<!-- Node18 -->
<g id="node18" class="node">
<title>Node18</title>
<g id="a_node18"><a xlink:href="../../d9/da5/gamrsort_8cc.html" target="_top" xlink:title=" ">
<polygon fill="white" stroke="#666666" points="901.5,-19 760.5,-19 760.5,0 901.5,0 901.5,-19"/>
<text text-anchor="middle" x="831" y="-7" font-family="Helvetica,sans-Serif" font-size="10.00">src/bin/gamrsort/gamrsort.cc</text>
</a>
</g>
</g>
<!-- Node17&#45;&gt;Node18 -->
<g id="edge20" class="edge">
<title>Node17&#45;&gt;Node18</title>
<path fill="none" stroke="#63b8ff" d="M831,-50.16C831,-39.74 831,-27.3 831,-19.17"/>
<polygon fill="#63b8ff" stroke="#63b8ff" points="827.5,-50.37 831,-60.37 834.5,-50.37 827.5,-50.37"/>
</g>
<!-- Node19&#45;&gt;Node18 -->
<g id="edge22" class="edge">
<title>Node19&#45;&gt;Node18</title>
<path fill="none" stroke="#63b8ff" d="M971.05,-57.32C937.2,-46 886.69,-29.12 856.48,-19.02"/>
<polygon fill="#63b8ff" stroke="#63b8ff" points="969.96,-60.64 980.55,-60.49 972.18,-54 969.96,-60.64"/>
</g>
<!-- Node20&#45;&gt;Node18 -->
<g id="edge24" class="edge">
<title>Node20&#45;&gt;Node18</title>
<path fill="none" stroke="#63b8ff" d="M1085.26,-54.88C1008.08,-40.98 930.19,-27.49 880.87,-19.02"/>
<polygon fill="#63b8ff" stroke="#63b8ff" points="1084.7,-58.33 1095.16,-56.66 1085.94,-51.44 1084.7,-58.33"/>
</g>
<!-- Node21&#45;&gt;Node18 -->
<g id="edge26" class="edge">
<title>Node21&#45;&gt;Node18</title>
<path fill="none" stroke="#63b8ff" d="M694.58,-57.17C727.65,-45.86 776.71,-29.07 806.11,-19.02"/>
<polygon fill="#63b8ff" stroke="#63b8ff" points="693.19,-53.95 684.86,-60.49 695.46,-60.57 693.19,-53.95"/>
</g>
<!-- Node23&#45;&gt;Node2 -->
<g id="edge29" class="edge">
<title>Node23&#45;&gt;Node2</title>
<path fill="none" stroke="#63b8ff" d="M1486.22,-124.19C1491.52,-123.04 1496.87,-121.95 1502,-121 1618.46,-99.52 1648.87,-102.41 1766,-85 1777.35,-83.31 1789.52,-81.41 1801.05,-79.57"/>
<polygon fill="#63b8ff" stroke="#63b8ff" points="1485.14,-120.84 1476.15,-126.45 1486.68,-127.67 1485.14,-120.84"/>
</g>
<!-- Node23&#45;&gt;Node10 -->
<g id="edge30" class="edge">
<title>Node23&#45;&gt;Node10</title>
<path fill="none" stroke="#63b8ff" d="M1442.89,-116.08C1443.45,-104.13 1444.15,-89.22 1444.58,-79.91"/>
<polygon fill="#63b8ff" stroke="#63b8ff" points="1439.38,-116.22 1442.4,-126.37 1446.37,-116.54 1439.38,-116.22"/>
</g>
<!-- Node24 -->
<g id="node24" class="node">
<title>Node24</title>
<g id="a_node24"><a xlink:href="../../d8/d1f/_cut_8cc.html" target="_top" xlink:title=" ">
<polygon fill="white" stroke="#666666" points="1628.5,-79.5 1527.5,-79.5 1527.5,-60.5 1628.5,-60.5 1628.5,-79.5"/>
<text text-anchor="middle" x="1578" y="-67.5" font-family="Helvetica,sans-Serif" font-size="10.00">src/lib/spect/Cut.cc</text>
</a>
</g>
</g>
<!-- Node23&#45;&gt;Node24 -->
<g id="edge31" class="edge">
<title>Node23&#45;&gt;Node24</title>
<path fill="none" stroke="#63b8ff" d="M1469.56,-122.03C1496.37,-109.42 1536.33,-90.61 1559.51,-79.7"/>
<polygon fill="#63b8ff" stroke="#63b8ff" points="1467.9,-118.94 1460.34,-126.37 1470.88,-125.28 1467.9,-118.94"/>
</g>
<!-- Node25 -->
<g id="node25" class="node">
<title>Node25</title>
<g id="a_node25"><a xlink:href="../../dd/d1a/_peak_8cc.html" target="_top" xlink:title=" ">
<polygon fill="white" stroke="#666666" points="1757,-79.5 1647,-79.5 1647,-60.5 1757,-60.5 1757,-79.5"/>
<text text-anchor="middle" x="1702" y="-67.5" font-family="Helvetica,sans-Serif" font-size="10.00">src/lib/toolkit/Peak.cc</text>
</a>
</g>
</g>
<!-- Node23&#45;&gt;Node25 -->
<g id="edge32" class="edge">
<title>Node23&#45;&gt;Node25</title>
<path fill="none" stroke="#63b8ff" d="M1486.6,-124.02C1537.84,-111.41 1620.82,-90.98 1667.41,-79.51"/>
<polygon fill="#63b8ff" stroke="#63b8ff" points="1485.67,-120.65 1476.79,-126.44 1487.34,-127.44 1485.67,-120.65"/>
</g>
<!-- Node27&#45;&gt;Node2 -->
<g id="edge35" class="edge">
<title>Node27&#45;&gt;Node2</title>
<path fill="none" stroke="#63b8ff" d="M1361.1,-124.6C1368.43,-123.27 1375.89,-122.02 1383,-121 1552.23,-96.65 1596.4,-106.59 1766,-85 1778.14,-83.45 1791.19,-81.51 1803.39,-79.56"/>
<polygon fill="#63b8ff" stroke="#63b8ff" points="1360.43,-121.17 1351.25,-126.45 1361.72,-128.05 1360.43,-121.17"/>
</g>
<!-- Node27&#45;&gt;Node26 -->
<g id="edge36" class="edge">
<title>Node27&#45;&gt;Node26</title>
<path fill="none" stroke="#63b8ff" d="M1308.93,-116.08C1307.62,-104.13 1305.99,-89.22 1304.97,-79.91"/>
<polygon fill="#63b8ff" stroke="#63b8ff" points="1305.49,-116.81 1310.06,-126.37 1312.45,-116.05 1305.49,-116.81"/>
</g>
<!-- Node28&#45;&gt;Node18 -->
<g id="edge38" class="edge">
<title>Node28&#45;&gt;Node18</title>
<path fill="none" stroke="#63b8ff" d="M696.8,-190.95C611.44,-184.13 462.77,-169.98 412,-151 354.59,-129.54 271.56,-100.16 313,-55 327.91,-38.75 622.14,-21.37 760.38,-14.06"/>
<polygon fill="#63b8ff" stroke="#63b8ff" points="696.64,-194.45 706.89,-191.75 697.19,-187.47 696.64,-194.45"/>
</g>
<!-- Node30 -->
<g id="node30" class="node">
<title>Node30</title>
<g id="a_node30"><a xlink:href="../../dc/d28/_back_sub_8cc.html" target="_top" xlink:title=" ">
<polygon fill="white" stroke="#666666" points="1635.5,-145.5 1510.5,-145.5 1510.5,-126.5 1635.5,-126.5 1635.5,-145.5"/>
<text text-anchor="middle" x="1573" y="-133.5" font-family="Helvetica,sans-Serif" font-size="10.00">src/lib/spect/BackSub.cc</text>
</a>
</g>
</g>
<!-- Node29&#45;&gt;Node30 -->
<g id="edge40" class="edge">
<title>Node29&#45;&gt;Node30</title>
<path fill="none" stroke="#63b8ff" d="M1464.29,-183.08C1490.95,-171.78 1529.6,-155.4 1552.91,-145.52"/>
<polygon fill="#63b8ff" stroke="#63b8ff" points="1462.91,-179.87 1455.07,-186.99 1465.64,-186.31 1462.91,-179.87"/>
</g>
<!-- Node34&#45;&gt;Node2 -->
<g id="edge47" class="edge">
<title>Node34&#45;&gt;Node2</title>
<path fill="none" stroke="#63b8ff" d="M1955.91,-185.53C1931.88,-179.07 1905.93,-168.45 1887,-151 1865.7,-131.36 1857.22,-96.18 1854.32,-79.82"/>
<polygon fill="#63b8ff" stroke="#63b8ff" points="1955.16,-188.95 1965.71,-187.97 1956.85,-182.16 1955.16,-188.95"/>
</g>
<!-- Node34&#45;&gt;Node25 -->
<g id="edge52" class="edge">
<title>Node34&#45;&gt;Node25</title>
<path fill="none" stroke="#63b8ff" d="M1973.41,-184.56C1941.65,-176.67 1899.23,-164.96 1863,-151 1807.37,-129.56 1745.13,-95.58 1717.11,-79.71"/>
<polygon fill="#63b8ff" stroke="#63b8ff" points="1972.78,-188.01 1983.33,-186.99 1974.45,-181.21 1972.78,-188.01"/>
</g>
<!-- Node35 -->
<g id="node35" class="node">
<title>Node35</title>
<g id="a_node35"><a xlink:href="../../d5/dad/_fit_8cc.html" target="_top" xlink:title=" ">
<polygon fill="white" stroke="#666666" points="2057.5,-79.5 1960.5,-79.5 1960.5,-60.5 2057.5,-60.5 2057.5,-79.5"/>
<text text-anchor="middle" x="2009" y="-67.5" font-family="Helvetica,sans-Serif" font-size="10.00">src/lib/spect/Fit.cc</text>
</a>
</g>
</g>
<!-- Node34&#45;&gt;Node35 -->
<g id="edge48" class="edge">
<title>Node34&#45;&gt;Node35</title>
<path fill="none" stroke="#63b8ff" d="M2019.19,-176.74C2016.55,-149.36 2011.75,-99.58 2009.83,-79.62"/>
<polygon fill="#63b8ff" stroke="#63b8ff" points="2015.73,-177.32 2020.18,-186.94 2022.7,-176.65 2015.73,-177.32"/>
</g>
<!-- Node36 -->
<g id="node36" class="node">
<title>Node36</title>
<g id="a_node36"><a xlink:href="../../db/dec/_fit_8hh.html" target="_top" xlink:title=" ">
<polygon fill="white" stroke="#666666" points="1992.5,-145.5 1895.5,-145.5 1895.5,-126.5 1992.5,-126.5 1992.5,-145.5"/>
<text text-anchor="middle" x="1944" y="-133.5" font-family="Helvetica,sans-Serif" font-size="10.00">src/lib/spect/Fit.hh</text>
</a>
</g>
</g>
<!-- Node34&#45;&gt;Node36 -->
<g id="edge49" class="edge">
<title>Node34&#45;&gt;Node36</title>
<path fill="none" stroke="#63b8ff" d="M2001.31,-180.54C1986.77,-169.49 1967.48,-154.84 1955.41,-145.67"/>
<polygon fill="#63b8ff" stroke="#63b8ff" points="1999.56,-183.61 2009.64,-186.87 2003.79,-178.03 1999.56,-183.61"/>
</g>
<!-- Node36&#45;&gt;Node2 -->
<g id="edge50" class="edge">
<title>Node36&#45;&gt;Node2</title>
<path fill="none" stroke="#63b8ff" d="M1923.15,-120.33C1905.3,-107.78 1880.2,-90.13 1865.37,-79.7"/>
<polygon fill="#63b8ff" stroke="#63b8ff" points="1921.53,-123.48 1931.73,-126.37 1925.56,-117.75 1921.53,-123.48"/>
</g>
<!-- Node36&#45;&gt;Node35 -->
<g id="edge51" class="edge">
<title>Node36&#45;&gt;Node35</title>
<path fill="none" stroke="#63b8ff" d="M1959.92,-119.33C1972.5,-106.94 1989.62,-90.09 1999.96,-79.91"/>
<polygon fill="#63b8ff" stroke="#63b8ff" points="1957.44,-116.86 1952.77,-126.37 1962.35,-121.85 1957.44,-116.86"/>
</g>
</g>
</svg>
        <g id="navigator" transform="translate(0 0)" fill="#404254">
                <rect fill="#f2f5e9" fill-opacity="0.5" stroke="#606060" stroke-width=".5" x="0" y="0" width="60" height="60"/>
                <use id="zoomplus" xlink:href="#zoomPlus" x="17" y="9" onmousedown="handleZoom(evt,'in')"/>
                <use id="zoomminus" xlink:href="#zoomMin" x="42" y="9" onmousedown="handleZoom(evt,'out')"/>
                <use id="reset" xlink:href="#resetDef" x="30" y="36" onmousedown="handleReset()"/>
                <g id="arrowUp" xlink:href="#dirArrow" transform="translate(30 24)" onmousedown="handlePan(0,-1)">
                  <use xlink:href="#rim" fill="#404040">
                        <set attributeName="fill" to="#808080" begin="arrowUp.mouseover" end="arrowUp.mouseout"/>
                  </use>
                  <path fill="none" stroke="white" stroke-width="1.5" d="M0,-3.0v7 M-2.5,-0.5L0,-3.0L2.5,-0.5"/>
                </g>
                <g id="arrowRight" xlink:href="#dirArrow" transform="rotate(90) translate(36 -43)" onmousedown="handlePan(1,0)">
                  <use xlink:href="#rim" fill="#404040">
                        <set attributeName="fill" to="#808080" begin="arrowRight.mouseover" end="arrowRight.mouseout"/>
                  </use>
                  <path fill="none" stroke="white" stroke-width="1.5" d="M0,-3.0v7 M-2.5,-0.5L0,-3.0L2.5,-0.5"/>
                </g>
                <g id="arrowDown" xlink:href="#dirArrow" transform="rotate(180) translate(-30 -48)" onmousedown="handlePan(0,1)">
                  <use xlink:href="#rim" fill="#404040">
                        <set attributeName="fill" to="#808080" begin="arrowDown.mouseover" end="arrowDown.mouseout"/>
                  </use>
                  <path fill="none" stroke="white" stroke-width="1.5" d="M0,-3.0v7 M-2.5,-0.5L0,-3.0L2.5,-0.5"/>
                </g>
                <g id="arrowLeft" xlink:href="#dirArrow" transform="rotate(270) translate(-36 17)" onmousedown="handlePan(-1,0)">
                  <use xlink:href="#rim" fill="#404040">
                        <set attributeName="fill" to="#808080" begin="arrowLeft.mouseover" end="arrowLeft.mouseout"/>
                  </use>
                  <path fill="none" stroke="white" stroke-width="1.5" d="M0,-3.0v7 M-2.5,-0.5L0,-3.0L2.5,-0.5"/>
                </g>
        </g>
        <svg viewBox="0 0 15 15" width="100%" height="30px" preserveAspectRatio="xMaxYMin meet">
         <g id="arrow_out" transform="scale(0.3 0.3)">
          <a xlink:href="_gate_8hh__dep__incl_org.svg" target="_base">
           <rect id="button" ry="5" rx="5" y="6" x="6" height="38" width="38"
                fill="#f2f5e9" fill-opacity="0.5" stroke="#606060" stroke-width="1.0"/>
           <path id="arrow"
             d="M 11.500037,31.436501 C 11.940474,20.09759 22.043105,11.32322 32.158766,21.979434 L 37.068811,17.246167 C 37.068811,17.246167 37.088388,32 37.088388,32 L 22.160133,31.978069 C 22.160133,31.978069 26.997745,27.140456 26.997745,27.140456 C 18.528582,18.264221 13.291696,25.230495 11.500037,31.436501 z"
             style="fill:#404040;"/>
          </a>
         </g>
        </svg>
</svg>
