<?xml version="1.0" encoding="UTF-8" standalone="no"?>
<!DOCTYPE svg PUBLIC "-//W3C//DTD SVG 1.1//EN"
 "http://www.w3.org/Graphics/SVG/1.1/DTD/svg11.dtd">
<!-- Generated by graphviz version 5.0.0 (20220708.1001)
 -->
<!-- Title: src/lib/spect/Transform.cc Pages: 1 -->
<svg width="1207pt" height="140pt"
 viewBox="0.00 0.00 1207.00 140.00" xmlns="http://www.w3.org/2000/svg" xmlns:xlink="http://www.w3.org/1999/xlink">
<g id="graph0" class="graph" transform="scale(1 1) rotate(0) translate(4 136)">
<title>src/lib/spect/Transform.cc</title>
<polygon fill="white" stroke="transparent" points="-4,4 -4,-136 1203,-136 1203,4 -4,4"/>
<!-- Node1 -->
<g id="node1" class="node">
<title>Node1</title>
<g id="a_node1"><a xlink:title=" ">
<polygon fill="#bfbfbf" stroke="black" points="268.5,-112.5 268.5,-131.5 398.5,-131.5 398.5,-112.5 268.5,-112.5"/>
<text text-anchor="middle" x="333.5" y="-119.5" font-family="Helvetica,sans-Serif" font-size="10.00">src/lib/spect/Transform.cc</text>
</a>
</g>
</g>
<!-- Node2 -->
<g id="node2" class="node">
<title>Node2</title>
<g id="a_node2"><a xlink:title=" ">
<polygon fill="white" stroke="#bfbfbf" points="93.5,-56.5 93.5,-75.5 145.5,-75.5 145.5,-56.5 93.5,-56.5"/>
<text text-anchor="middle" x="119.5" y="-63.5" font-family="Helvetica,sans-Serif" font-size="10.00">TMath.h</text>
</a>
</g>
</g>
<!-- Node1&#45;&gt;Node2 -->
<g id="edge1" class="edge">
<title>Node1&#45;&gt;Node2</title>
<path fill="none" stroke="midnightblue" d="M299.59,-112.44C260.24,-102.51 195.61,-86.21 155.42,-76.06"/>
<polygon fill="midnightblue" stroke="midnightblue" points="156.06,-72.62 145.51,-73.56 154.35,-79.4 156.06,-72.62"/>
</g>
<!-- Node3 -->
<g id="node3" class="node">
<title>Node3</title>
<g id="a_node3"><a xlink:title=" ">
<polygon fill="white" stroke="#bfbfbf" points="164,-56.5 164,-75.5 235,-75.5 235,-56.5 164,-56.5"/>
<text text-anchor="middle" x="199.5" y="-63.5" font-family="Helvetica,sans-Serif" font-size="10.00">TRandom3.h</text>
</a>
</g>
</g>
<!-- Node1&#45;&gt;Node3 -->
<g id="edge2" class="edge">
<title>Node1&#45;&gt;Node3</title>
<path fill="none" stroke="midnightblue" d="M312.27,-112.44C290.12,-103.52 255.18,-89.44 230.06,-79.32"/>
<polygon fill="midnightblue" stroke="midnightblue" points="231.22,-76.01 220.63,-75.52 228.6,-82.5 231.22,-76.01"/>
</g>
<!-- Node4 -->
<g id="node4" class="node">
<title>Node4</title>
<g id="a_node4"><a xlink:href="../../d7/db9/_utilities_8hh.html" target="_top" xlink:title=" ">
<polygon fill="white" stroke="black" points="425,-56.5 425,-75.5 508,-75.5 508,-56.5 425,-56.5"/>
<text text-anchor="middle" x="466.5" y="-63.5" font-family="Helvetica,sans-Serif" font-size="10.00">utils/Utilities.hh</text>
</a>
</g>
</g>
<!-- Node1&#45;&gt;Node4 -->
<g id="edge3" class="edge">
<title>Node1&#45;&gt;Node4</title>
<path fill="none" stroke="midnightblue" d="M354.57,-112.44C376.56,-103.52 411.23,-89.44 436.16,-79.32"/>
<polygon fill="midnightblue" stroke="midnightblue" points="437.58,-82.52 445.52,-75.52 434.94,-76.04 437.58,-82.52"/>
</g>
<!-- Node11 -->
<g id="node11" class="node">
<title>Node11</title>
<g id="a_node11"><a xlink:href="../../dd/d50/_gate_8hh.html" target="_top" xlink:title=" ">
<polygon fill="white" stroke="black" points="732.5,-56.5 732.5,-75.5 812.5,-75.5 812.5,-56.5 732.5,-56.5"/>
<text text-anchor="middle" x="772.5" y="-63.5" font-family="Helvetica,sans-Serif" font-size="10.00">toolkit/Gate.hh</text>
</a>
</g>
</g>
<!-- Node1&#45;&gt;Node11 -->
<g id="edge10" class="edge">
<title>Node1&#45;&gt;Node11</title>
<path fill="none" stroke="midnightblue" d="M398.75,-112.97C486.98,-102.12 642.46,-83 722.21,-73.19"/>
<polygon fill="midnightblue" stroke="midnightblue" points="722.99,-76.62 732.49,-71.92 722.13,-69.67 722.99,-76.62"/>
</g>
<!-- Node19 -->
<g id="node19" class="node">
<title>Node19</title>
<g id="a_node19"><a xlink:href="../../dc/d1a/_transform_8hh.html" target="_top" xlink:title=" ">
<polygon fill="white" stroke="black" points="253.5,-56.5 253.5,-75.5 327.5,-75.5 327.5,-56.5 253.5,-56.5"/>
<text text-anchor="middle" x="290.5" y="-63.5" font-family="Helvetica,sans-Serif" font-size="10.00">Transform.hh</text>
</a>
</g>
</g>
<!-- Node1&#45;&gt;Node19 -->
<g id="edge22" class="edge">
<title>Node1&#45;&gt;Node19</title>
<path fill="none" stroke="midnightblue" d="M326.4,-112.08C320.26,-104.38 311.23,-93.03 303.76,-83.65"/>
<polygon fill="midnightblue" stroke="midnightblue" points="306.44,-81.39 297.47,-75.75 300.96,-85.75 306.44,-81.39"/>
</g>
<!-- Node24 -->
<g id="node24" class="node">
<title>Node24</title>
<g id="a_node24"><a xlink:href="../../d9/db7/_display_8hh.html" target="_top" xlink:title=" ">
<polygon fill="white" stroke="black" points="346,-56.5 346,-75.5 407,-75.5 407,-56.5 346,-56.5"/>
<text text-anchor="middle" x="376.5" y="-63.5" font-family="Helvetica,sans-Serif" font-size="10.00">Display.hh</text>
</a>
</g>
</g>
<!-- Node1&#45;&gt;Node24 -->
<g id="edge30" class="edge">
<title>Node1&#45;&gt;Node24</title>
<path fill="none" stroke="midnightblue" d="M340.6,-112.08C346.74,-104.38 355.77,-93.03 363.24,-83.65"/>
<polygon fill="midnightblue" stroke="midnightblue" points="366.04,-85.75 369.53,-75.75 360.56,-81.39 366.04,-85.75"/>
</g>
<!-- Node5 -->
<g id="node5" class="node">
<title>Node5</title>
<g id="a_node5"><a xlink:title=" ">
<polygon fill="white" stroke="#bfbfbf" points="431,-0.5 431,-19.5 472,-19.5 472,-0.5 431,-0.5"/>
<text text-anchor="middle" x="451.5" y="-7.5" font-family="Helvetica,sans-Serif" font-size="10.00">string</text>
</a>
</g>
</g>
<!-- Node4&#45;&gt;Node5 -->
<g id="edge4" class="edge">
<title>Node4&#45;&gt;Node5</title>
<path fill="none" stroke="midnightblue" d="M464.02,-56.08C462.01,-48.85 459.11,-38.41 456.61,-29.4"/>
<polygon fill="midnightblue" stroke="midnightblue" points="459.98,-28.45 453.93,-19.75 453.24,-30.32 459.98,-28.45"/>
</g>
<!-- Node6 -->
<g id="node6" class="node">
<title>Node6</title>
<g id="a_node6"><a xlink:title=" ">
<polygon fill="white" stroke="#bfbfbf" points="571.5,-0.5 571.5,-19.5 621.5,-19.5 621.5,-0.5 571.5,-0.5"/>
<text text-anchor="middle" x="596.5" y="-7.5" font-family="Helvetica,sans-Serif" font-size="10.00">fstream</text>
</a>
</g>
</g>
<!-- Node4&#45;&gt;Node6 -->
<g id="edge5" class="edge">
<title>Node4&#45;&gt;Node6</title>
<path fill="none" stroke="midnightblue" d="M487.1,-56.44C508.49,-47.56 542.18,-33.56 566.52,-23.45"/>
<polygon fill="midnightblue" stroke="midnightblue" points="568.11,-26.58 576,-19.52 565.42,-20.12 568.11,-26.58"/>
</g>
<!-- Node7 -->
<g id="node7" class="node">
<title>Node7</title>
<g id="a_node7"><a xlink:title=" ">
<polygon fill="white" stroke="#bfbfbf" points="640,-0.5 640,-19.5 693,-19.5 693,-0.5 640,-0.5"/>
<text text-anchor="middle" x="666.5" y="-7.5" font-family="Helvetica,sans-Serif" font-size="10.00">complex</text>
</a>
</g>
</g>
<!-- Node4&#45;&gt;Node7 -->
<g id="edge6" class="edge">
<title>Node4&#45;&gt;Node7</title>
<path fill="none" stroke="midnightblue" d="M498.19,-56.44C533.93,-46.79 591.97,-31.12 629.69,-20.94"/>
<polygon fill="midnightblue" stroke="midnightblue" points="631.02,-24.21 639.76,-18.22 629.19,-17.45 631.02,-24.21"/>
</g>
<!-- Node8 -->
<g id="node8" class="node">
<title>Node8</title>
<g id="a_node8"><a xlink:title=" ">
<polygon fill="white" stroke="#bfbfbf" points="490,-0.5 490,-19.5 553,-19.5 553,-0.5 490,-0.5"/>
<text text-anchor="middle" x="521.5" y="-7.5" font-family="Helvetica,sans-Serif" font-size="10.00">TCanvas.h</text>
</a>
</g>
</g>
<!-- Node4&#45;&gt;Node8 -->
<g id="edge7" class="edge">
<title>Node4&#45;&gt;Node8</title>
<path fill="none" stroke="midnightblue" d="M475.58,-56.08C483.67,-48.14 495.7,-36.34 505.41,-26.8"/>
<polygon fill="midnightblue" stroke="midnightblue" points="507.9,-29.25 512.59,-19.75 503,-24.26 507.9,-29.25"/>
</g>
<!-- Node9 -->
<g id="node9" class="node">
<title>Node9</title>
<g id="a_node9"><a xlink:title=" ">
<polygon fill="white" stroke="#bfbfbf" points="309,-0.5 309,-19.5 352,-19.5 352,-0.5 309,-0.5"/>
<text text-anchor="middle" x="330.5" y="-7.5" font-family="Helvetica,sans-Serif" font-size="10.00">TH1.h</text>
</a>
</g>
</g>
<!-- Node4&#45;&gt;Node9 -->
<g id="edge8" class="edge">
<title>Node4&#45;&gt;Node9</title>
<path fill="none" stroke="midnightblue" d="M444.95,-56.44C422.47,-47.52 387.01,-33.44 361.52,-23.32"/>
<polygon fill="midnightblue" stroke="midnightblue" points="362.53,-19.95 351.95,-19.52 359.95,-26.46 362.53,-19.95"/>
</g>
<!-- Node10 -->
<g id="node10" class="node">
<title>Node10</title>
<g id="a_node10"><a xlink:title=" ">
<polygon fill="white" stroke="#bfbfbf" points="370,-0.5 370,-19.5 413,-19.5 413,-0.5 370,-0.5"/>
<text text-anchor="middle" x="391.5" y="-7.5" font-family="Helvetica,sans-Serif" font-size="10.00">TH2.h</text>
</a>
</g>
</g>
<!-- Node4&#45;&gt;Node10 -->
<g id="edge9" class="edge">
<title>Node4&#45;&gt;Node10</title>
<path fill="none" stroke="midnightblue" d="M454.45,-56.32C443.04,-48.11 425.67,-35.6 412.07,-25.81"/>
<polygon fill="midnightblue" stroke="midnightblue" points="413.93,-22.84 403.77,-19.83 409.84,-28.52 413.93,-22.84"/>
</g>
<!-- Node11&#45;&gt;Node5 -->
<g id="edge14" class="edge">
<title>Node11&#45;&gt;Node5</title>
<path fill="none" stroke="midnightblue" d="M732.16,-60.55C677.55,-54.13 576.97,-40.93 481.84,-19.78"/>
<polygon fill="midnightblue" stroke="midnightblue" points="482.58,-16.36 472.06,-17.57 481.04,-23.19 482.58,-16.36"/>
</g>
<!-- Node11&#45;&gt;Node8 -->
<g id="edge18" class="edge">
<title>Node11&#45;&gt;Node8</title>
<path fill="none" stroke="midnightblue" d="M732.23,-56.43C692.01,-47.86 628.15,-34.22 563.28,-20.16"/>
<polygon fill="midnightblue" stroke="midnightblue" points="563.8,-16.69 553.28,-17.99 562.31,-23.53 563.8,-16.69"/>
</g>
<!-- Node11&#45;&gt;Node9 -->
<g id="edge19" class="edge">
<title>Node11&#45;&gt;Node9</title>
<path fill="none" stroke="midnightblue" d="M732.48,-62.93C660.31,-58.7 503.55,-47.23 362.21,-19.78"/>
<polygon fill="midnightblue" stroke="midnightblue" points="362.55,-16.28 352.06,-17.78 361.19,-23.15 362.55,-16.28"/>
</g>
<!-- Node11&#45;&gt;Node10 -->
<g id="edge20" class="edge">
<title>Node11&#45;&gt;Node10</title>
<path fill="none" stroke="midnightblue" d="M732.27,-61.87C668.62,-56.46 540.7,-43.81 422.98,-19.78"/>
<polygon fill="midnightblue" stroke="midnightblue" points="423.58,-16.33 413.07,-17.73 422.15,-23.18 423.58,-16.33"/>
</g>
<!-- Node12 -->
<g id="node12" class="node">
<title>Node12</title>
<g id="a_node12"><a xlink:title=" ">
<polygon fill="white" stroke="#bfbfbf" points="1089.5,-0.5 1089.5,-19.5 1145.5,-19.5 1145.5,-0.5 1089.5,-0.5"/>
<text text-anchor="middle" x="1117.5" y="-7.5" font-family="Helvetica,sans-Serif" font-size="10.00">algorithm</text>
</a>
</g>
</g>
<!-- Node11&#45;&gt;Node12 -->
<g id="edge11" class="edge">
<title>Node11&#45;&gt;Node12</title>
<path fill="none" stroke="midnightblue" d="M812.57,-60.36C869.63,-53.49 977.76,-39.49 1079.17,-20.11"/>
<polygon fill="midnightblue" stroke="midnightblue" points="1080.12,-23.49 1089.28,-18.15 1078.8,-16.61 1080.12,-23.49"/>
</g>
<!-- Node13 -->
<g id="node13" class="node">
<title>Node13</title>
<g id="a_node13"><a xlink:title=" ">
<polygon fill="white" stroke="#bfbfbf" points="1164,-0.5 1164,-19.5 1199,-19.5 1199,-0.5 1164,-0.5"/>
<text text-anchor="middle" x="1181.5" y="-7.5" font-family="Helvetica,sans-Serif" font-size="10.00">map</text>
</a>
</g>
</g>
<!-- Node11&#45;&gt;Node13 -->
<g id="edge12" class="edge">
<title>Node11&#45;&gt;Node13</title>
<path fill="none" stroke="midnightblue" d="M812.54,-62.98C880.82,-58.96 1024.13,-47.99 1153.82,-19.68"/>
<polygon fill="midnightblue" stroke="midnightblue" points="1154.93,-23.02 1163.93,-17.43 1153.41,-16.19 1154.93,-23.02"/>
</g>
<!-- Node14 -->
<g id="node14" class="node">
<title>Node14</title>
<g id="a_node14"><a xlink:title=" ">
<polygon fill="white" stroke="#bfbfbf" points="711.5,-0.5 711.5,-19.5 763.5,-19.5 763.5,-0.5 711.5,-0.5"/>
<text text-anchor="middle" x="737.5" y="-7.5" font-family="Helvetica,sans-Serif" font-size="10.00">sstream</text>
</a>
</g>
</g>
<!-- Node11&#45;&gt;Node14 -->
<g id="edge13" class="edge">
<title>Node11&#45;&gt;Node14</title>
<path fill="none" stroke="midnightblue" d="M766.72,-56.08C761.83,-48.53 754.67,-37.49 748.67,-28.23"/>
<polygon fill="midnightblue" stroke="midnightblue" points="751.55,-26.24 743.17,-19.75 745.67,-30.05 751.55,-26.24"/>
</g>
<!-- Node15 -->
<g id="node15" class="node">
<title>Node15</title>
<g id="a_node15"><a xlink:title=" ">
<polygon fill="white" stroke="#bfbfbf" points="781.5,-0.5 781.5,-19.5 835.5,-19.5 835.5,-0.5 781.5,-0.5"/>
<text text-anchor="middle" x="808.5" y="-7.5" font-family="Helvetica,sans-Serif" font-size="10.00">iostream</text>
</a>
</g>
</g>
<!-- Node11&#45;&gt;Node15 -->
<g id="edge15" class="edge">
<title>Node11&#45;&gt;Node15</title>
<path fill="none" stroke="midnightblue" d="M778.44,-56.08C783.48,-48.53 790.84,-37.49 797.01,-28.23"/>
<polygon fill="midnightblue" stroke="midnightblue" points="800.03,-30.01 802.67,-19.75 794.21,-26.13 800.03,-30.01"/>
</g>
<!-- Node16 -->
<g id="node16" class="node">
<title>Node16</title>
<g id="a_node16"><a xlink:title=" ">
<polygon fill="white" stroke="#bfbfbf" points="853.5,-0.5 853.5,-19.5 907.5,-19.5 907.5,-0.5 853.5,-0.5"/>
<text text-anchor="middle" x="880.5" y="-7.5" font-family="Helvetica,sans-Serif" font-size="10.00">Rtypes.h</text>
</a>
</g>
</g>
<!-- Node11&#45;&gt;Node16 -->
<g id="edge16" class="edge">
<title>Node11&#45;&gt;Node16</title>
<path fill="none" stroke="midnightblue" d="M789.85,-56.32C807.17,-47.66 834.02,-34.24 854,-24.25"/>
<polygon fill="midnightblue" stroke="midnightblue" points="855.81,-27.26 863.19,-19.65 852.68,-21 855.81,-27.26"/>
</g>
<!-- Node17 -->
<g id="node17" class="node">
<title>Node17</title>
<g id="a_node17"><a xlink:title=" ">
<polygon fill="white" stroke="#bfbfbf" points="925.5,-0.5 925.5,-19.5 991.5,-19.5 991.5,-0.5 925.5,-0.5"/>
<text text-anchor="middle" x="958.5" y="-7.5" font-family="Helvetica,sans-Serif" font-size="10.00">TBrowser.h</text>
</a>
</g>
</g>
<!-- Node11&#45;&gt;Node17 -->
<g id="edge17" class="edge">
<title>Node11&#45;&gt;Node17</title>
<path fill="none" stroke="midnightblue" d="M801.97,-56.44C833.67,-47.24 884.23,-32.56 919.27,-22.39"/>
<polygon fill="midnightblue" stroke="midnightblue" points="920.54,-25.67 929.17,-19.52 918.59,-18.94 920.54,-25.67"/>
</g>
<!-- Node18 -->
<g id="node18" class="node">
<title>Node18</title>
<g id="a_node18"><a xlink:title=" ">
<polygon fill="white" stroke="#bfbfbf" points="1009.5,-0.5 1009.5,-19.5 1071.5,-19.5 1071.5,-0.5 1009.5,-0.5"/>
<text text-anchor="middle" x="1040.5" y="-7.5" font-family="Helvetica,sans-Serif" font-size="10.00">TNamed.h</text>
</a>
</g>
</g>
<!-- Node11&#45;&gt;Node18 -->
<g id="edge21" class="edge">
<title>Node11&#45;&gt;Node18</title>
<path fill="none" stroke="midnightblue" d="M812.52,-57.43C856.05,-49.13 927.95,-35.2 999.05,-20.27"/>
<polygon fill="midnightblue" stroke="midnightblue" points="1000.01,-23.64 1009.07,-18.15 998.57,-16.79 1000.01,-23.64"/>
</g>
<!-- Node19&#45;&gt;Node5 -->
<g id="edge23" class="edge">
<title>Node19&#45;&gt;Node5</title>
<path fill="none" stroke="midnightblue" d="M316.01,-56.44C344.53,-46.88 390.69,-31.4 421.07,-21.21"/>
<polygon fill="midnightblue" stroke="midnightblue" points="422.35,-24.47 430.72,-17.97 420.12,-17.83 422.35,-24.47"/>
</g>
<!-- Node19&#45;&gt;Node9 -->
<g id="edge27" class="edge">
<title>Node19&#45;&gt;Node9</title>
<path fill="none" stroke="midnightblue" d="M297.11,-56.08C302.76,-48.46 311.04,-37.26 317.95,-27.94"/>
<polygon fill="midnightblue" stroke="midnightblue" points="320.88,-29.87 324.02,-19.75 315.25,-25.7 320.88,-29.87"/>
</g>
<!-- Node19&#45;&gt;Node10 -->
<g id="edge28" class="edge">
<title>Node19&#45;&gt;Node10</title>
<path fill="none" stroke="midnightblue" d="M306.73,-56.32C322.85,-47.7 347.8,-34.36 366.46,-24.39"/>
<polygon fill="midnightblue" stroke="midnightblue" points="368.14,-27.46 375.31,-19.65 364.84,-21.28 368.14,-27.46"/>
</g>
<!-- Node20 -->
<g id="node20" class="node">
<title>Node20</title>
<g id="a_node20"><a xlink:title=" ">
<polygon fill="white" stroke="#bfbfbf" points="246.5,-0.5 246.5,-19.5 290.5,-19.5 290.5,-0.5 246.5,-0.5"/>
<text text-anchor="middle" x="268.5" y="-7.5" font-family="Helvetica,sans-Serif" font-size="10.00">vector</text>
</a>
</g>
</g>
<!-- Node19&#45;&gt;Node20 -->
<g id="edge24" class="edge">
<title>Node19&#45;&gt;Node20</title>
<path fill="none" stroke="midnightblue" d="M286.87,-56.08C283.89,-48.77 279.57,-38.18 275.88,-29.1"/>
<polygon fill="midnightblue" stroke="midnightblue" points="279.08,-27.69 272.07,-19.75 272.6,-30.33 279.08,-27.69"/>
</g>
<!-- Node21 -->
<g id="node21" class="node">
<title>Node21</title>
<g id="a_node21"><a xlink:title=" ">
<polygon fill="white" stroke="#bfbfbf" points="0,-0.5 0,-19.5 53,-19.5 53,-0.5 0,-0.5"/>
<text text-anchor="middle" x="26.5" y="-7.5" font-family="Helvetica,sans-Serif" font-size="10.00">TCutG.h</text>
</a>
</g>
</g>
<!-- Node19&#45;&gt;Node21 -->
<g id="edge25" class="edge">
<title>Node19&#45;&gt;Node21</title>
<path fill="none" stroke="midnightblue" d="M253.37,-57.73C197.94,-46.88 97.04,-27.11 63.38,-20.19"/>
<polygon fill="midnightblue" stroke="midnightblue" points="63.72,-16.69 53.21,-18.04 62.27,-23.54 63.72,-16.69"/>
</g>
<!-- Node22 -->
<g id="node22" class="node">
<title>Node22</title>
<g id="a_node22"><a xlink:title=" ">
<polygon fill="white" stroke="#bfbfbf" points="71,-0.5 71,-19.5 136,-19.5 136,-0.5 71,-0.5"/>
<text text-anchor="middle" x="103.5" y="-7.5" font-family="Helvetica,sans-Serif" font-size="10.00">TFormula.h</text>
</a>
</g>
</g>
<!-- Node19&#45;&gt;Node22 -->
<g id="edge26" class="edge">
<title>Node19&#45;&gt;Node22</title>
<path fill="none" stroke="midnightblue" d="M260.87,-56.44C229,-47.24 178.17,-32.56 142.94,-22.39"/>
<polygon fill="midnightblue" stroke="midnightblue" points="143.57,-18.93 132.99,-19.52 141.63,-25.65 143.57,-18.93"/>
</g>
<!-- Node23 -->
<g id="node23" class="node">
<title>Node23</title>
<g id="a_node23"><a xlink:title=" ">
<polygon fill="white" stroke="#bfbfbf" points="154,-0.5 154,-19.5 229,-19.5 229,-0.5 154,-0.5"/>
<text text-anchor="middle" x="191.5" y="-7.5" font-family="Helvetica,sans-Serif" font-size="10.00">TVirtualPad.h</text>
</a>
</g>
</g>
<!-- Node19&#45;&gt;Node23 -->
<g id="edge29" class="edge">
<title>Node19&#45;&gt;Node23</title>
<path fill="none" stroke="midnightblue" d="M274.59,-56.32C258.86,-47.74 234.56,-34.49 216.29,-24.52"/>
<polygon fill="midnightblue" stroke="midnightblue" points="217.82,-21.37 207.37,-19.65 214.47,-27.52 217.82,-21.37"/>
</g>
<!-- Node24&#45;&gt;Node8 -->
<g id="edge34" class="edge">
<title>Node24&#45;&gt;Node8</title>
<path fill="none" stroke="midnightblue" d="M399.48,-56.44C423.66,-47.44 461.92,-33.19 489.15,-23.05"/>
<polygon fill="midnightblue" stroke="midnightblue" points="490.48,-26.29 498.63,-19.52 488.04,-19.73 490.48,-26.29"/>
</g>
<!-- Node24&#45;&gt;Node9 -->
<g id="edge32" class="edge">
<title>Node24&#45;&gt;Node9</title>
<path fill="none" stroke="midnightblue" d="M368.9,-56.08C362.27,-48.3 352.48,-36.8 344.44,-27.37"/>
<polygon fill="midnightblue" stroke="midnightblue" points="347.1,-25.09 337.95,-19.75 341.77,-29.63 347.1,-25.09"/>
</g>
<!-- Node24&#45;&gt;Node10 -->
<g id="edge33" class="edge">
<title>Node24&#45;&gt;Node10</title>
<path fill="none" stroke="midnightblue" d="M378.98,-56.08C380.99,-48.85 383.89,-38.41 386.39,-29.4"/>
<polygon fill="midnightblue" stroke="midnightblue" points="389.76,-30.32 389.07,-19.75 383.02,-28.45 389.76,-30.32"/>
</g>
<!-- Node24&#45;&gt;Node20 -->
<g id="edge31" class="edge">
<title>Node24&#45;&gt;Node20</title>
<path fill="none" stroke="midnightblue" d="M359.15,-56.32C341.83,-47.66 314.98,-34.24 295,-24.25"/>
<polygon fill="midnightblue" stroke="midnightblue" points="296.32,-21 285.81,-19.65 293.19,-27.26 296.32,-21"/>
</g>
</g>
</svg>
