<?xml version="1.0" encoding="UTF-8" standalone="no"?>
<!DOCTYPE svg PUBLIC "-//W3C//DTD SVG 1.1//EN"
 "http://www.w3.org/Graphics/SVG/1.1/DTD/svg11.dtd">
<!-- Generated by graphviz version 5.0.0 (20220708.1001)
 -->
<!-- Title: src/lib/angdist/SolidAttenuation.hh Pages: 1 -->
<svg width="764pt" height="308pt"
 viewBox="0.00 0.00 763.50 308.00" xmlns="http://www.w3.org/2000/svg" xmlns:xlink="http://www.w3.org/1999/xlink">
<g id="graph0" class="graph" transform="scale(1 1) rotate(0) translate(4 304)">
<title>src/lib/angdist/SolidAttenuation.hh</title>
<polygon fill="white" stroke="transparent" points="-4,4 -4,-304 759.5,-304 759.5,4 -4,4"/>
<!-- Node1 -->
<g id="node1" class="node">
<title>Node1</title>
<g id="a_node1"><a xlink:title=" ">
<polygon fill="#bfbfbf" stroke="black" points="426,-280.5 426,-299.5 590,-299.5 590,-280.5 426,-280.5"/>
<text text-anchor="middle" x="508" y="-287.5" font-family="Helvetica,sans-Serif" font-size="10.00">src/lib/angdist/SolidAttenuation.hh</text>
</a>
</g>
</g>
<!-- Node2 -->
<g id="node2" class="node">
<title>Node2</title>
<g id="a_node2"><a xlink:href="../../da/da2/_ang_dist_8hh.html" target="_top" xlink:title=" ">
<polygon fill="white" stroke="black" points="334,-168.5 334,-187.5 462,-187.5 462,-168.5 334,-168.5"/>
<text text-anchor="middle" x="398" y="-175.5" font-family="Helvetica,sans-Serif" font-size="10.00">src/lib/angdist/AngDist.hh</text>
</a>
</g>
</g>
<!-- Node1&#45;&gt;Node2 -->
<g id="edge1" class="edge">
<title>Node1&#45;&gt;Node2</title>
<path fill="none" stroke="midnightblue" d="M466.55,-276.86C449.05,-269.83 429.81,-259.27 417,-244 403.1,-227.43 399.36,-201.1 398.36,-187.6"/>
<polygon fill="midnightblue" stroke="midnightblue" points="465.45,-280.18 476.04,-280.41 467.9,-273.63 465.45,-280.18"/>
</g>
<!-- Node11 -->
<g id="node11" class="node">
<title>Node11</title>
<g id="a_node11"><a xlink:href="../../da/db4/_solid_attenuation_8cc.html" target="_top" xlink:title=" ">
<polygon fill="white" stroke="black" points="426,-224.5 426,-243.5 590,-243.5 590,-224.5 426,-224.5"/>
<text text-anchor="middle" x="508" y="-231.5" font-family="Helvetica,sans-Serif" font-size="10.00">src/lib/angdist/SolidAttenuation.cc</text>
</a>
</g>
</g>
<!-- Node1&#45;&gt;Node11 -->
<g id="edge14" class="edge">
<title>Node1&#45;&gt;Node11</title>
<path fill="none" stroke="midnightblue" d="M508,-269.8C508,-260.91 508,-250.78 508,-243.75"/>
<polygon fill="midnightblue" stroke="midnightblue" points="504.5,-270.08 508,-280.08 511.5,-270.08 504.5,-270.08"/>
</g>
<!-- Node12 -->
<g id="node12" class="node">
<title>Node12</title>
<g id="a_node12"><a xlink:href="../../da/da6/_stat_tensor_8hh.html" target="_top" xlink:title=" ">
<polygon fill="white" stroke="black" points="608.5,-224.5 608.5,-243.5 749.5,-243.5 749.5,-224.5 608.5,-224.5"/>
<text text-anchor="middle" x="679" y="-231.5" font-family="Helvetica,sans-Serif" font-size="10.00">src/lib/angdist/StatTensor.hh</text>
</a>
</g>
</g>
<!-- Node1&#45;&gt;Node12 -->
<g id="edge15" class="edge">
<title>Node1&#45;&gt;Node12</title>
<path fill="none" stroke="midnightblue" d="M545.04,-277.3C577.26,-267.13 623.19,-252.62 652.03,-243.52"/>
<polygon fill="midnightblue" stroke="midnightblue" points="543.58,-274.09 535.1,-280.44 545.69,-280.77 543.58,-274.09"/>
</g>
<!-- Node3 -->
<g id="node3" class="node">
<title>Node3</title>
<g id="a_node3"><a xlink:href="../../db/db9/_ang_corr_8hh.html" target="_top" xlink:title=" ">
<polygon fill="white" stroke="black" points="0,-112.5 0,-131.5 128,-131.5 128,-112.5 0,-112.5"/>
<text text-anchor="middle" x="64" y="-119.5" font-family="Helvetica,sans-Serif" font-size="10.00">src/lib/angdist/AngCorr.hh</text>
</a>
</g>
</g>
<!-- Node2&#45;&gt;Node3 -->
<g id="edge2" class="edge">
<title>Node2&#45;&gt;Node3</title>
<path fill="none" stroke="midnightblue" d="M334.85,-166.79C271.74,-156.59 175.82,-141.08 116.68,-131.52"/>
<polygon fill="midnightblue" stroke="midnightblue" points="334.65,-170.3 345.08,-168.44 335.76,-163.39 334.65,-170.3"/>
</g>
<!-- Node5 -->
<g id="node5" class="node">
<title>Node5</title>
<g id="a_node5"><a xlink:href="../../df/dbd/_ang_dist_8cc.html" target="_top" xlink:title=" ">
<polygon fill="white" stroke="black" points="146,-112.5 146,-131.5 274,-131.5 274,-112.5 146,-112.5"/>
<text text-anchor="middle" x="210" y="-119.5" font-family="Helvetica,sans-Serif" font-size="10.00">src/lib/angdist/AngDist.cc</text>
</a>
</g>
</g>
<!-- Node2&#45;&gt;Node5 -->
<g id="edge4" class="edge">
<title>Node2&#45;&gt;Node5</title>
<path fill="none" stroke="midnightblue" d="M358.2,-165.57C322.73,-155.38 271.63,-140.7 239.65,-131.52"/>
<polygon fill="midnightblue" stroke="midnightblue" points="357.63,-169.05 368.21,-168.44 359.57,-162.32 357.63,-169.05"/>
</g>
<!-- Node6 -->
<g id="node6" class="node">
<title>Node6</title>
<g id="a_node6"><a xlink:href="../../dd/dbc/_stat_tensor_8cc.html" target="_top" xlink:title=" ">
<polygon fill="white" stroke="black" points="614.5,-112.5 614.5,-131.5 755.5,-131.5 755.5,-112.5 614.5,-112.5"/>
<text text-anchor="middle" x="685" y="-119.5" font-family="Helvetica,sans-Serif" font-size="10.00">src/lib/angdist/StatTensor.cc</text>
</a>
</g>
</g>
<!-- Node2&#45;&gt;Node6 -->
<g id="edge5" class="edge">
<title>Node2&#45;&gt;Node6</title>
<path fill="none" stroke="midnightblue" d="M453.61,-166.54C507.85,-156.33 589.34,-141 639.74,-131.52"/>
<polygon fill="midnightblue" stroke="midnightblue" points="452.66,-163.15 443.48,-168.44 453.95,-170.03 452.66,-163.15"/>
</g>
<!-- Node7 -->
<g id="node7" class="node">
<title>Node7</title>
<g id="a_node7"><a xlink:href="../../d2/d58/_coulex_8cc.html" target="_top" xlink:title=" ">
<polygon fill="white" stroke="black" points="216.5,-56.5 216.5,-75.5 335.5,-75.5 335.5,-56.5 216.5,-56.5"/>
<text text-anchor="middle" x="276" y="-63.5" font-family="Helvetica,sans-Serif" font-size="10.00">src/lib/coulex/Coulex.cc</text>
</a>
</g>
</g>
<!-- Node2&#45;&gt;Node7 -->
<g id="edge6" class="edge">
<title>Node2&#45;&gt;Node7</title>
<path fill="none" stroke="midnightblue" d="M369.01,-163.89C353.66,-156.05 335.11,-145.07 321,-132 302.67,-115.03 287.66,-89.33 280.51,-75.9"/>
<polygon fill="midnightblue" stroke="midnightblue" points="367.57,-167.09 378.09,-168.36 370.67,-160.81 367.57,-167.09"/>
</g>
<!-- Node8 -->
<g id="node8" class="node">
<title>Node8</title>
<g id="a_node8"><a xlink:href="../../df/d7f/_coulex_8hh.html" target="_top" xlink:title=" ">
<polygon fill="white" stroke="black" points="330.5,-112.5 330.5,-131.5 449.5,-131.5 449.5,-112.5 330.5,-112.5"/>
<text text-anchor="middle" x="390" y="-119.5" font-family="Helvetica,sans-Serif" font-size="10.00">src/lib/coulex/Coulex.hh</text>
</a>
</g>
</g>
<!-- Node2&#45;&gt;Node8 -->
<g id="edge7" class="edge">
<title>Node2&#45;&gt;Node8</title>
<path fill="none" stroke="midnightblue" d="M395.2,-158.1C393.87,-149.14 392.35,-138.86 391.3,-131.75"/>
<polygon fill="midnightblue" stroke="midnightblue" points="391.75,-158.7 396.68,-168.08 398.68,-157.68 391.75,-158.7"/>
</g>
<!-- Node9 -->
<g id="node9" class="node">
<title>Node9</title>
<g id="a_node9"><a xlink:href="../../dc/d19/_coulex_calculation_8cc.html" target="_top" xlink:title=" ">
<polygon fill="white" stroke="black" points="391.5,-0.5 391.5,-19.5 558.5,-19.5 558.5,-0.5 391.5,-0.5"/>
<text text-anchor="middle" x="475" y="-7.5" font-family="Helvetica,sans-Serif" font-size="10.00">src/lib/coulex/CoulexCalculation.cc</text>
</a>
</g>
</g>
<!-- Node2&#45;&gt;Node9 -->
<g id="edge12" class="edge">
<title>Node2&#45;&gt;Node9</title>
<path fill="none" stroke="midnightblue" d="M440.27,-165.35C481.29,-151.51 541.16,-124.03 568,-76 583.57,-48.14 542.19,-29.51 509.7,-19.59"/>
<polygon fill="midnightblue" stroke="midnightblue" points="438.97,-162.09 430.53,-168.49 441.13,-168.75 438.97,-162.09"/>
</g>
<!-- Node10 -->
<g id="node10" class="node">
<title>Node10</title>
<g id="a_node10"><a xlink:href="../../db/dba/_coulex_calculation_8hh.html" target="_top" xlink:title=" ">
<polygon fill="white" stroke="black" points="391.5,-56.5 391.5,-75.5 558.5,-75.5 558.5,-56.5 391.5,-56.5"/>
<text text-anchor="middle" x="475" y="-63.5" font-family="Helvetica,sans-Serif" font-size="10.00">src/lib/coulex/CoulexCalculation.hh</text>
</a>
</g>
</g>
<!-- Node2&#45;&gt;Node10 -->
<g id="edge13" class="edge">
<title>Node2&#45;&gt;Node10</title>
<path fill="none" stroke="midnightblue" d="M424.57,-163.12C436.76,-155.48 450.39,-144.91 459,-132 470.74,-114.4 473.87,-88.97 474.7,-75.74"/>
<polygon fill="midnightblue" stroke="midnightblue" points="422.48,-160.29 415.64,-168.38 426.03,-166.32 422.48,-160.29"/>
</g>
<!-- Node4 -->
<g id="node4" class="node">
<title>Node4</title>
<g id="a_node4"><a xlink:href="../../dd/d67/_ang_corr_8cc.html" target="_top" xlink:title=" ">
<polygon fill="white" stroke="black" points="0,-56.5 0,-75.5 128,-75.5 128,-56.5 0,-56.5"/>
<text text-anchor="middle" x="64" y="-63.5" font-family="Helvetica,sans-Serif" font-size="10.00">src/lib/angdist/AngCorr.cc</text>
</a>
</g>
</g>
<!-- Node3&#45;&gt;Node4 -->
<g id="edge3" class="edge">
<title>Node3&#45;&gt;Node4</title>
<path fill="none" stroke="midnightblue" d="M64,-101.8C64,-92.91 64,-82.78 64,-75.75"/>
<polygon fill="midnightblue" stroke="midnightblue" points="60.5,-102.08 64,-112.08 67.5,-102.08 60.5,-102.08"/>
</g>
<!-- Node8&#45;&gt;Node7 -->
<g id="edge8" class="edge">
<title>Node8&#45;&gt;Node7</title>
<path fill="none" stroke="midnightblue" d="M362.76,-108.1C341.46,-98.01 312.46,-84.27 293.98,-75.52"/>
<polygon fill="midnightblue" stroke="midnightblue" points="361.4,-111.33 371.94,-112.44 364.4,-105 361.4,-111.33"/>
</g>
<!-- Node8&#45;&gt;Node9 -->
<g id="edge9" class="edge">
<title>Node8&#45;&gt;Node9</title>
<path fill="none" stroke="midnightblue" d="M382.28,-102.82C377.69,-88.97 374.28,-69.96 383,-56 394.67,-37.3 416.62,-26.15 436.15,-19.64"/>
<polygon fill="midnightblue" stroke="midnightblue" points="379.03,-104.12 385.84,-112.24 385.58,-101.65 379.03,-104.12"/>
</g>
<!-- Node8&#45;&gt;Node10 -->
<g id="edge10" class="edge">
<title>Node8&#45;&gt;Node10</title>
<path fill="none" stroke="midnightblue" d="M412.19,-106.9C427.78,-97 448.13,-84.07 461.38,-75.65"/>
<polygon fill="midnightblue" stroke="midnightblue" points="410.22,-104.01 403.66,-112.32 413.97,-109.92 410.22,-104.01"/>
</g>
<!-- Node10&#45;&gt;Node9 -->
<g id="edge11" class="edge">
<title>Node10&#45;&gt;Node9</title>
<path fill="none" stroke="midnightblue" d="M475,-45.8C475,-36.91 475,-26.78 475,-19.75"/>
<polygon fill="midnightblue" stroke="midnightblue" points="471.5,-46.08 475,-56.08 478.5,-46.08 471.5,-46.08"/>
</g>
<!-- Node12&#45;&gt;Node2 -->
<g id="edge16" class="edge">
<title>Node12&#45;&gt;Node2</title>
<path fill="none" stroke="midnightblue" d="M624.55,-222.54C571.45,-212.33 491.66,-197 442.32,-187.52"/>
<polygon fill="midnightblue" stroke="midnightblue" points="623.99,-225.99 634.47,-224.44 625.31,-219.12 623.99,-225.99"/>
</g>
<!-- Node12&#45;&gt;Node6 -->
<g id="edge17" class="edge">
<title>Node12&#45;&gt;Node6</title>
<path fill="none" stroke="midnightblue" d="M680.02,-214.35C681.33,-190.25 683.57,-149.31 684.53,-131.59"/>
<polygon fill="midnightblue" stroke="midnightblue" points="676.52,-214.19 679.47,-224.37 683.51,-214.57 676.52,-214.19"/>
</g>
</g>
</svg>
