<?xml version="1.0" encoding="UTF-8" standalone="no"?>
<!DOCTYPE svg PUBLIC "-//W3C//DTD SVG 1.1//EN"
 "http://www.w3.org/Graphics/SVG/1.1/DTD/svg11.dtd">
<!-- Generated by graphviz version 9.0.0 (20230911.1827)
 -->
<!-- Title: src/bin/gamrcal/Gain.cc Pages: 1 -->
<svg width="836pt" height="138pt"
 viewBox="0.00 0.00 836.12 137.75" xmlns="http://www.w3.org/2000/svg" xmlns:xlink="http://www.w3.org/1999/xlink">
<g id="graph0" class="graph" transform="scale(1 1) rotate(0) translate(4 133.75)">
<title>src/bin/gamrcal/Gain.cc</title>
<!-- Node1 -->
<g id="Node000001" class="node">
<title>Node1</title>
<g id="a_Node000001"><a xlink:title=" ">
<polygon fill="#999999" stroke="#666666" points="417.25,-129.75 298.5,-129.75 298.5,-110.5 417.25,-110.5 417.25,-129.75"/>
<text text-anchor="middle" x="357.88" y="-116.25" font-family="Helvetica,sans-Serif" font-size="10.00">src/bin/gamrcal/Gain.cc</text>
</a>
</g>
</g>
<!-- Node2 -->
<g id="Node000002" class="node">
<title>Node2</title>
<g id="a_Node000002"><a xlink:title=" ">
<polygon fill="#e0e0e0" stroke="#999999" points="55.75,-74.5 0,-74.5 0,-55.25 55.75,-55.25 55.75,-74.5"/>
<text text-anchor="middle" x="27.88" y="-61" font-family="Helvetica,sans-Serif" font-size="10.00">algorithm</text>
</a>
</g>
</g>
<!-- Node1&#45;&gt;Node2 -->
<g id="edge1_Node000001_Node000002" class="edge">
<title>Node1&#45;&gt;Node2</title>
<g id="a_edge1_Node000001_Node000002"><a xlink:title=" ">
<path fill="none" stroke="#63b8ff" d="M298.16,-111.42C241.28,-103.76 153.01,-91.08 67.35,-74.85"/>
<polygon fill="#63b8ff" stroke="#63b8ff" points="68.07,-71.42 57.59,-72.98 66.76,-78.3 68.07,-71.42"/>
</a>
</g>
</g>
<!-- Node3 -->
<g id="Node000003" class="node">
<title>Node3</title>
<g id="a_Node000003"><a xlink:title=" ">
<polygon fill="#e0e0e0" stroke="#999999" points="127.62,-74.5 74.12,-74.5 74.12,-55.25 127.62,-55.25 127.62,-74.5"/>
<text text-anchor="middle" x="100.88" y="-61" font-family="Helvetica,sans-Serif" font-size="10.00">iostream</text>
</a>
</g>
</g>
<!-- Node1&#45;&gt;Node3 -->
<g id="edge2_Node000001_Node000003" class="edge">
<title>Node1&#45;&gt;Node3</title>
<g id="a_edge2_Node000001_Node000003"><a xlink:title=" ">
<path fill="none" stroke="#63b8ff" d="M310.35,-110.04C267.98,-101.83 203.98,-89.14 139.22,-74.96"/>
<polygon fill="#63b8ff" stroke="#63b8ff" points="139.97,-71.54 129.46,-72.8 138.47,-78.37 139.97,-71.54"/>
</a>
</g>
</g>
<!-- Node4 -->
<g id="Node000004" class="node">
<title>Node4</title>
<g id="a_Node000004"><a xlink:title=" ">
<polygon fill="#e0e0e0" stroke="#999999" points="196.12,-74.5 145.62,-74.5 145.62,-55.25 196.12,-55.25 196.12,-74.5"/>
<text text-anchor="middle" x="170.88" y="-61" font-family="Helvetica,sans-Serif" font-size="10.00">memory</text>
</a>
</g>
</g>
<!-- Node1&#45;&gt;Node4 -->
<g id="edge3_Node000001_Node000004" class="edge">
<title>Node1&#45;&gt;Node4</title>
<g id="a_edge3_Node000001_Node000004"><a xlink:title=" ">
<path fill="none" stroke="#63b8ff" d="M326.15,-110.09C293.29,-100.73 242,-86.13 207.46,-76.29"/>
<polygon fill="#63b8ff" stroke="#63b8ff" points="208.46,-72.94 197.89,-73.57 206.55,-79.67 208.46,-72.94"/>
</a>
</g>
</g>
<!-- Node5 -->
<g id="Node000005" class="node">
<title>Node5</title>
<g id="a_Node000005"><a xlink:title=" ">
<polygon fill="#e0e0e0" stroke="#999999" points="265.5,-74.5 214.25,-74.5 214.25,-55.25 265.5,-55.25 265.5,-74.5"/>
<text text-anchor="middle" x="239.88" y="-61" font-family="Helvetica,sans-Serif" font-size="10.00">sstream</text>
</a>
</g>
</g>
<!-- Node1&#45;&gt;Node5 -->
<g id="edge4_Node000001_Node000005" class="edge">
<title>Node1&#45;&gt;Node5</title>
<g id="a_edge4_Node000001_Node000005"><a xlink:title=" ">
<path fill="none" stroke="#63b8ff" d="M337.86,-110.09C319.38,-101.75 291.67,-89.25 270.43,-79.66"/>
<polygon fill="#63b8ff" stroke="#63b8ff" points="271.92,-76.5 261.37,-75.58 269.05,-82.88 271.92,-76.5"/>
</a>
</g>
</g>
<!-- Node6 -->
<g id="Node000006" class="node">
<title>Node6</title>
<g id="a_Node000006"><a xlink:title=" ">
<polygon fill="#e0e0e0" stroke="#999999" points="282.88,-19.25 242.88,-19.25 242.88,0 282.88,0 282.88,-19.25"/>
<text text-anchor="middle" x="262.88" y="-5.75" font-family="Helvetica,sans-Serif" font-size="10.00">string</text>
</a>
</g>
</g>
<!-- Node1&#45;&gt;Node6 -->
<g id="edge5_Node000001_Node000006" class="edge">
<title>Node1&#45;&gt;Node6</title>
<g id="a_edge5_Node000001_Node000006"><a xlink:title=" ">
<path fill="none" stroke="#63b8ff" d="M350.1,-110.25C334.44,-92.36 298.86,-51.72 278.3,-28.25"/>
<polygon fill="#63b8ff" stroke="#63b8ff" points="280.97,-25.98 271.75,-20.77 275.71,-30.59 280.97,-25.98"/>
</a>
</g>
</g>
<!-- Node7 -->
<g id="Node000007" class="node">
<title>Node7</title>
<g id="a_Node000007"><a xlink:title=" ">
<polygon fill="#e0e0e0" stroke="#999999" points="363.12,-19.25 300.62,-19.25 300.62,0 363.12,0 363.12,-19.25"/>
<text text-anchor="middle" x="331.88" y="-5.75" font-family="Helvetica,sans-Serif" font-size="10.00">TCanvas.h</text>
</a>
</g>
</g>
<!-- Node1&#45;&gt;Node7 -->
<g id="edge6_Node000001_Node000007" class="edge">
<title>Node1&#45;&gt;Node7</title>
<g id="a_edge6_Node000001_Node000007"><a xlink:title=" ">
<path fill="none" stroke="#63b8ff" d="M355.75,-110.25C351.61,-93 342.41,-54.58 336.71,-30.81"/>
<polygon fill="#63b8ff" stroke="#63b8ff" points="340.12,-30.01 334.38,-21.1 333.31,-31.64 340.12,-30.01"/>
</a>
</g>
</g>
<!-- Node8 -->
<g id="Node000008" class="node">
<title>Node8</title>
<g id="a_Node000008"><a xlink:title=" ">
<polygon fill="#e0e0e0" stroke="#999999" points="496.12,-74.5 427.62,-74.5 427.62,-55.25 496.12,-55.25 496.12,-74.5"/>
<text text-anchor="middle" x="461.88" y="-61" font-family="Helvetica,sans-Serif" font-size="10.00">TFitResult.h</text>
</a>
</g>
</g>
<!-- Node1&#45;&gt;Node8 -->
<g id="edge7_Node000001_Node000008" class="edge">
<title>Node1&#45;&gt;Node8</title>
<g id="a_edge7_Node000001_Node000008"><a xlink:title=" ">
<path fill="none" stroke="#63b8ff" d="M375.52,-110.09C391.5,-101.91 415.33,-89.71 433.91,-80.19"/>
<polygon fill="#63b8ff" stroke="#63b8ff" points="435.49,-83.32 442.8,-75.64 432.3,-77.08 435.49,-83.32"/>
</a>
</g>
</g>
<!-- Node9 -->
<g id="Node000009" class="node">
<title>Node9</title>
<g id="a_Node000009"><a xlink:title=" ">
<polygon fill="#e0e0e0" stroke="#999999" points="569.75,-74.5 514,-74.5 514,-55.25 569.75,-55.25 569.75,-74.5"/>
<text text-anchor="middle" x="541.88" y="-61" font-family="Helvetica,sans-Serif" font-size="10.00">TGraph.h</text>
</a>
</g>
</g>
<!-- Node1&#45;&gt;Node9 -->
<g id="edge8_Node000001_Node000009" class="edge">
<title>Node1&#45;&gt;Node9</title>
<g id="a_edge8_Node000001_Node000009"><a xlink:title=" ">
<path fill="none" stroke="#63b8ff" d="M389.09,-110.09C420.41,-101.03 468.74,-87.04 502.64,-77.23"/>
<polygon fill="#63b8ff" stroke="#63b8ff" points="503.45,-80.64 512.08,-74.5 501.5,-73.92 503.45,-80.64"/>
</a>
</g>
</g>
<!-- Node10 -->
<g id="Node000010" class="node">
<title>Node10</title>
<g id="a_Node000010"><a xlink:title=" ">
<polygon fill="#e0e0e0" stroke="#999999" points="658.25,-74.5 587.5,-74.5 587.5,-55.25 658.25,-55.25 658.25,-74.5"/>
<text text-anchor="middle" x="622.88" y="-61" font-family="Helvetica,sans-Serif" font-size="10.00">TPaveText.h</text>
</a>
</g>
</g>
<!-- Node1&#45;&gt;Node10 -->
<g id="edge9_Node000001_Node000010" class="edge">
<title>Node1&#45;&gt;Node10</title>
<g id="a_edge9_Node000001_Node000010"><a xlink:title=" ">
<path fill="none" stroke="#63b8ff" d="M403.13,-110.03C451.3,-100.35 527.17,-85.11 575.97,-75.3"/>
<polygon fill="#63b8ff" stroke="#63b8ff" points="576.55,-78.75 585.67,-73.35 575.18,-71.89 576.55,-78.75"/>
</a>
</g>
</g>
<!-- Node11 -->
<g id="Node000011" class="node">
<title>Node11</title>
<g id="a_Node000011"><a xlink:title=" ">
<polygon fill="#e0e0e0" stroke="#999999" points="747.62,-74.5 676.12,-74.5 676.12,-55.25 747.62,-55.25 747.62,-74.5"/>
<text text-anchor="middle" x="711.88" y="-61" font-family="Helvetica,sans-Serif" font-size="10.00">TSpectrum.h</text>
</a>
</g>
</g>
<!-- Node1&#45;&gt;Node11 -->
<g id="edge10_Node000001_Node000011" class="edge">
<title>Node1&#45;&gt;Node11</title>
<g id="a_edge10_Node000001_Node000011"><a xlink:title=" ">
<path fill="none" stroke="#63b8ff" d="M417.53,-111.34C477.42,-103.33 572.62,-90.11 664.81,-74.78"/>
<polygon fill="#63b8ff" stroke="#63b8ff" points="665.26,-78.25 674.55,-73.15 664.11,-71.35 665.26,-78.25"/>
</a>
</g>
</g>
<!-- Node12 -->
<g id="Node000012" class="node">
<title>Node12</title>
<g id="a_Node000012"><a xlink:title=" ">
<polygon fill="#e0e0e0" stroke="#999999" points="828.12,-74.5 765.62,-74.5 765.62,-55.25 828.12,-55.25 828.12,-74.5"/>
<text text-anchor="middle" x="796.88" y="-61" font-family="Helvetica,sans-Serif" font-size="10.00">TSystem.h</text>
</a>
</g>
</g>
<!-- Node1&#45;&gt;Node12 -->
<g id="edge11_Node000001_Node000012" class="edge">
<title>Node1&#45;&gt;Node12</title>
<g id="a_edge11_Node000001_Node000012"><a xlink:title=" ">
<path fill="none" stroke="#63b8ff" d="M417.62,-114.34C493.57,-107.83 628.95,-94.84 754.18,-74.79"/>
<polygon fill="#63b8ff" stroke="#63b8ff" points="754.68,-78.25 764,-73.2 753.56,-71.34 754.68,-78.25"/>
</a>
</g>
</g>
<!-- Node13 -->
<g id="Node000013" class="node">
<title>Node13</title>
<g id="a_Node000013"><a xlink:href="../../d7/d7a/_gain_8hh.html" target="_top" xlink:title=" ">
<polygon fill="white" stroke="#666666" points="409.38,-74.5 360.38,-74.5 360.38,-55.25 409.38,-55.25 409.38,-74.5"/>
<text text-anchor="middle" x="384.88" y="-61" font-family="Helvetica,sans-Serif" font-size="10.00">Gain.hh</text>
</a>
</g>
</g>
<!-- Node1&#45;&gt;Node13 -->
<g id="edge12_Node000001_Node000013" class="edge">
<title>Node1&#45;&gt;Node13</title>
<g id="a_edge12_Node000001_Node000013"><a xlink:title=" ">
<path fill="none" stroke="#63b8ff" d="M362.33,-110.33C365.83,-103.44 370.82,-93.59 375.22,-84.91"/>
<polygon fill="#63b8ff" stroke="#63b8ff" points="378.23,-86.71 379.64,-76.21 371.99,-83.55 378.23,-86.71"/>
</a>
</g>
</g>
<!-- Node13&#45;&gt;Node6 -->
<g id="edge13_Node000013_Node000006" class="edge">
<title>Node13&#45;&gt;Node6</title>
<g id="a_edge13_Node000013_Node000006"><a xlink:title=" ">
<path fill="none" stroke="#63b8ff" d="M364.18,-54.84C344.87,-46.41 315.81,-33.73 293.76,-24.11"/>
<polygon fill="#63b8ff" stroke="#63b8ff" points="295.22,-20.92 284.65,-20.13 292.42,-27.34 295.22,-20.92"/>
</a>
</g>
</g>
<!-- Node13&#45;&gt;Node7 -->
<g id="edge15_Node000013_Node000007" class="edge">
<title>Node13&#45;&gt;Node7</title>
<g id="a_edge15_Node000013_Node000007"><a xlink:title=" ">
<path fill="none" stroke="#63b8ff" d="M376.12,-55.08C368.73,-47.65 357.91,-36.79 348.83,-27.66"/>
<polygon fill="#63b8ff" stroke="#63b8ff" points="351.42,-25.3 341.88,-20.68 346.46,-30.24 351.42,-25.3"/>
</a>
</g>
</g>
<!-- Node14 -->
<g id="Node000014" class="node">
<title>Node14</title>
<g id="a_Node000014"><a xlink:title=" ">
<polygon fill="#e0e0e0" stroke="#999999" points="424.38,-19.25 381.38,-19.25 381.38,0 424.38,0 424.38,-19.25"/>
<text text-anchor="middle" x="402.88" y="-5.75" font-family="Helvetica,sans-Serif" font-size="10.00">vector</text>
</a>
</g>
</g>
<!-- Node13&#45;&gt;Node14 -->
<g id="edge14_Node000013_Node000014" class="edge">
<title>Node13&#45;&gt;Node14</title>
<g id="a_edge14_Node000013_Node000014"><a xlink:title=" ">
<path fill="none" stroke="#63b8ff" d="M387.85,-55.08C390.13,-48.34 393.36,-38.77 396.24,-30.24"/>
<polygon fill="#63b8ff" stroke="#63b8ff" points="399.47,-31.64 399.35,-21.04 392.84,-29.4 399.47,-31.64"/>
</a>
</g>
</g>
<!-- Node15 -->
<g id="Node000015" class="node">
<title>Node15</title>
<g id="a_Node000015"><a xlink:title=" ">
<polygon fill="#e0e0e0" stroke="#999999" points="483.25,-19.25 442.5,-19.25 442.5,0 483.25,0 483.25,-19.25"/>
<text text-anchor="middle" x="462.88" y="-5.75" font-family="Helvetica,sans-Serif" font-size="10.00">TF1.h</text>
</a>
</g>
</g>
<!-- Node13&#45;&gt;Node15 -->
<g id="edge16_Node000013_Node000015" class="edge">
<title>Node13&#45;&gt;Node15</title>
<g id="a_edge16_Node000013_Node000015"><a xlink:title=" ">
<path fill="none" stroke="#63b8ff" d="M398.11,-54.84C409.65,-46.96 426.64,-35.36 440.32,-26.02"/>
<polygon fill="#63b8ff" stroke="#63b8ff" points="442.04,-29.08 448.33,-20.56 438.1,-23.3 442.04,-29.08"/>
</a>
</g>
</g>
<!-- Node16 -->
<g id="Node000016" class="node">
<title>Node16</title>
<g id="a_Node000016"><a xlink:title=" ">
<polygon fill="#e0e0e0" stroke="#999999" points="544,-19.25 501.75,-19.25 501.75,0 544,0 544,-19.25"/>
<text text-anchor="middle" x="522.88" y="-5.75" font-family="Helvetica,sans-Serif" font-size="10.00">TH1.h</text>
</a>
</g>
</g>
<!-- Node13&#45;&gt;Node16 -->
<g id="edge17_Node000013_Node000016" class="edge">
<title>Node13&#45;&gt;Node16</title>
<g id="a_edge17_Node000013_Node000016"><a xlink:title=" ">
<path fill="none" stroke="#63b8ff" d="M408.28,-54.84C431.06,-46.05 465.83,-32.64 491.1,-22.89"/>
<polygon fill="#63b8ff" stroke="#63b8ff" points="492.14,-26.24 500.21,-19.37 489.62,-19.71 492.14,-26.24"/>
</a>
</g>
</g>
</g>
</svg>
