<?xml version="1.0" encoding="UTF-8" standalone="no"?>
<!DOCTYPE svg PUBLIC "-//W3C//DTD SVG 1.1//EN"
 "http://www.w3.org/Graphics/SVG/1.1/DTD/svg11.dtd">
<!-- Generated by graphviz version 9.0.0 (20230911.1827)
 -->
<!-- Title: GamR::Nucleus::LevelSchemeFitter::Scheme::Fit Pages: 1 -->
<svg width="535pt" height="98pt"
 viewBox="0.00 0.00 535.25 98.12" xmlns="http://www.w3.org/2000/svg" xmlns:xlink="http://www.w3.org/1999/xlink">
<g id="graph0" class="graph" transform="scale(1 1) rotate(0) translate(4 94.12)">
<title>GamR::Nucleus::LevelSchemeFitter::Scheme::Fit</title>
<!-- Node1 -->
<g id="Node000001" class="node">
<title>Node1</title>
<g id="a_Node000001"><a xlink:title=" ">
<polygon fill="#999999" stroke="#666666" points="148.75,-63.12 0,-63.12 0,-32.62 148.75,-32.62 148.75,-63.12"/>
<text text-anchor="start" x="8" y="-49.62" font-family="Helvetica,sans-Serif" font-size="10.00">GamR::Nucleus::LevelScheme</text>
<text text-anchor="middle" x="74.38" y="-38.38" font-family="Helvetica,sans-Serif" font-size="10.00">Fitter::Scheme::Fit</text>
</a>
</g>
</g>
<!-- Node2 -->
<g id="Node000002" class="node">
<title>Node2</title>
<g id="a_Node000002"><a xlink:href="../../d6/da4/class_gam_r_1_1_nucleus_1_1_level_scheme_fitter_1_1_scheme.html#a4e3968c4399004753eadaf5aa8473c6a" target="_top" xlink:title=" ">
<polygon fill="white" stroke="#666666" points="341.75,-90.12 184.75,-90.12 184.75,-59.62 341.75,-59.62 341.75,-90.12"/>
<text text-anchor="start" x="192.75" y="-76.62" font-family="Helvetica,sans-Serif" font-size="10.00">GamR::Nucleus::LevelScheme</text>
<text text-anchor="middle" x="263.25" y="-65.38" font-family="Helvetica,sans-Serif" font-size="10.00">Fitter::Scheme::GetStateByIndex</text>
</a>
</g>
</g>
<!-- Node1&#45;&gt;Node2 -->
<g id="edge1_Node000001_Node000002" class="edge">
<title>Node1&#45;&gt;Node2</title>
<g id="a_edge1_Node000001_Node000002"><a xlink:title=" ">
<path fill="none" stroke="#63b8ff" d="M149.23,-58.55C157.07,-59.68 165.1,-60.84 173.08,-61.99"/>
<polygon fill="#63b8ff" stroke="#63b8ff" points="172.43,-65.43 182.82,-63.4 173.43,-58.51 172.43,-65.43"/>
</a>
</g>
</g>
<!-- Node3 -->
<g id="Node000003" class="node">
<title>Node3</title>
<g id="a_Node000003"><a xlink:href="../../de/d2b/class_gam_r_1_1_nucleus_1_1_level_scheme_fitter_1_1_scheme_1_1_global_chi_square.html#a8ae3ee3be73f03c0257d653ae1b371f2" target="_top" xlink:title=" ">
<polygon fill="white" stroke="#666666" points="341.38,-41.75 185.12,-41.75 185.12,0 341.38,0 341.38,-41.75"/>
<text text-anchor="start" x="193.12" y="-28.25" font-family="Helvetica,sans-Serif" font-size="10.00">GamR::Nucleus::LevelScheme</text>
<text text-anchor="start" x="193.12" y="-17" font-family="Helvetica,sans-Serif" font-size="10.00">Fitter::Scheme::GlobalChiSquare</text>
<text text-anchor="middle" x="263.25" y="-5.75" font-family="Helvetica,sans-Serif" font-size="10.00">::minuit</text>
</a>
</g>
</g>
<!-- Node1&#45;&gt;Node3 -->
<g id="edge2_Node000001_Node000003" class="edge">
<title>Node1&#45;&gt;Node3</title>
<g id="a_edge2_Node000001_Node000003"><a xlink:title=" ">
<path fill="none" stroke="#63b8ff" d="M149.23,-37.2C157.14,-36.06 165.24,-34.89 173.3,-33.73"/>
<polygon fill="#63b8ff" stroke="#63b8ff" points="173.74,-37.2 183.13,-32.31 172.73,-30.27 173.74,-37.2"/>
</a>
</g>
</g>
<!-- Node4 -->
<g id="Node000004" class="node">
<title>Node4</title>
<g id="a_Node000004"><a xlink:href="../../d6/da4/class_gam_r_1_1_nucleus_1_1_level_scheme_fitter_1_1_scheme.html#aee33371a96c3ae22fb0b8b786d6bb36c" target="_top" xlink:title=" ">
<polygon fill="white" stroke="#666666" points="527.25,-36.12 377.75,-36.12 377.75,-5.62 527.25,-5.62 527.25,-36.12"/>
<text text-anchor="start" x="385.75" y="-22.62" font-family="Helvetica,sans-Serif" font-size="10.00">GamR::Nucleus::LevelScheme</text>
<text text-anchor="middle" x="452.5" y="-11.38" font-family="Helvetica,sans-Serif" font-size="10.00">Fitter::Scheme::GetChiSquared</text>
</a>
</g>
</g>
<!-- Node3&#45;&gt;Node4 -->
<g id="edge3_Node000003_Node000004" class="edge">
<title>Node3&#45;&gt;Node4</title>
<g id="a_edge3_Node000003_Node000004"><a xlink:title=" ">
<path fill="none" stroke="#63b8ff" d="M341.76,-20.88C349.76,-20.88 357.93,-20.88 366.01,-20.88"/>
<polygon fill="#63b8ff" stroke="#63b8ff" points="365.84,-24.38 375.84,-20.88 365.84,-17.38 365.84,-24.38"/>
</a>
</g>
</g>
</g>
</svg>
