<?xml version="1.0" encoding="UTF-8" standalone="no"?>
<!DOCTYPE svg PUBLIC "-//W3C//DTD SVG 1.1//EN"
 "http://www.w3.org/Graphics/SVG/1.1/DTD/svg11.dtd">
<!-- Generated by graphviz version 2.49.3 (20211023.0002)
 -->
<!-- Title: main Pages: 1 -->
<svg width="184pt" height="382pt"
 viewBox="0.00 0.00 184.00 382.00" xmlns="http://www.w3.org/2000/svg" xmlns:xlink="http://www.w3.org/1999/xlink">
<g id="graph0" class="graph" transform="scale(1 1) rotate(0) translate(4 378)">
<title>main</title>
<polygon fill="white" stroke="transparent" points="-4,4 -4,-378 180,-378 180,4 -4,4"/>
<!-- Node1 -->
<g id="node1" class="node">
<title>Node1</title>
<g id="a_node1"><a xlink:title=" ">
<polygon fill="#bfbfbf" stroke="black" points="0,-177 0,-196 38,-196 38,-177 0,-177"/>
<text text-anchor="middle" x="19" y="-184" font-family="Helvetica,sans-Serif" font-size="10.00">main</text>
</a>
</g>
</g>
<!-- Node2 -->
<g id="node2" class="node">
<title>Node2</title>
<g id="a_node2"><a xlink:href="../../d3/d27/class_gam_r_1_1_sort_1_1_sorter.html#ad7e35ff82283dd168d4dc556e38b3f05" target="_top" xlink:title=" ">
<polygon fill="white" stroke="black" points="74,-343.5 74,-373.5 176,-373.5 176,-343.5 74,-343.5"/>
<text text-anchor="start" x="82" y="-361.5" font-family="Helvetica,sans-Serif" font-size="10.00">GamR::Sort::Sorter</text>
<text text-anchor="middle" x="125" y="-350.5" font-family="Helvetica,sans-Serif" font-size="10.00">::Done</text>
</a>
</g>
</g>
<!-- Node1&#45;&gt;Node2 -->
<g id="edge1" class="edge">
<title>Node1&#45;&gt;Node2</title>
<path fill="none" stroke="midnightblue" d="M21,-196.08C24.13,-221.68 35.97,-292.56 74,-334.5 74.87,-335.46 75.79,-336.39 76.75,-337.29"/>
<polygon fill="midnightblue" stroke="midnightblue" points="74.72,-340.13 84.76,-343.5 79,-334.6 74.72,-340.13"/>
</g>
<!-- Node3 -->
<g id="node3" class="node">
<title>Node3</title>
<g id="a_node3"><a xlink:href="../../d3/d27/class_gam_r_1_1_sort_1_1_sorter.html#adfc027ffd2f8a07e15058e48c59e56b4" target="_top" xlink:title=" ">
<polygon fill="white" stroke="black" points="74,-294.5 74,-324.5 176,-324.5 176,-294.5 74,-294.5"/>
<text text-anchor="start" x="82" y="-312.5" font-family="Helvetica,sans-Serif" font-size="10.00">GamR::Sort::Sorter</text>
<text text-anchor="middle" x="125" y="-301.5" font-family="Helvetica,sans-Serif" font-size="10.00">::Halt</text>
</a>
</g>
</g>
<!-- Node1&#45;&gt;Node3 -->
<g id="edge2" class="edge">
<title>Node1&#45;&gt;Node3</title>
<path fill="none" stroke="midnightblue" d="M23.02,-196.21C29.47,-215.53 46.31,-259.21 74,-285.5 75.11,-286.56 76.28,-287.57 77.49,-288.55"/>
<polygon fill="midnightblue" stroke="midnightblue" points="75.81,-291.64 86.01,-294.48 79.8,-285.9 75.81,-291.64"/>
</g>
<!-- Node4 -->
<g id="node4" class="node">
<title>Node4</title>
<g id="a_node4"><a xlink:href="../../d3/d27/class_gam_r_1_1_sort_1_1_sorter.html#a2a7f90ed2e3b90d57e97f1bbc72f4704" target="_top" xlink:title=" ">
<polygon fill="white" stroke="black" points="74,-245.5 74,-275.5 176,-275.5 176,-245.5 74,-245.5"/>
<text text-anchor="start" x="82" y="-263.5" font-family="Helvetica,sans-Serif" font-size="10.00">GamR::Sort::Sorter</text>
<text text-anchor="middle" x="125" y="-252.5" font-family="Helvetica,sans-Serif" font-size="10.00">::PrintStatus</text>
</a>
</g>
</g>
<!-- Node1&#45;&gt;Node4 -->
<g id="edge3" class="edge">
<title>Node1&#45;&gt;Node4</title>
<path fill="none" stroke="midnightblue" d="M28.83,-196.27C38.96,-207.09 56.46,-224.57 74,-236.5 75.91,-237.8 77.9,-239.06 79.94,-240.29"/>
<polygon fill="midnightblue" stroke="midnightblue" points="78.65,-243.58 89.09,-245.41 82.07,-237.47 78.65,-243.58"/>
</g>
<!-- Node5 -->
<g id="node5" class="node">
<title>Node5</title>
<g id="a_node5"><a xlink:href="../../d3/d27/class_gam_r_1_1_sort_1_1_sorter.html#ad2da82c796e71c8f9a7041405393f2d8" target="_top" xlink:title=" ">
<polygon fill="white" stroke="black" points="74,-196.5 74,-226.5 176,-226.5 176,-196.5 74,-196.5"/>
<text text-anchor="start" x="82" y="-214.5" font-family="Helvetica,sans-Serif" font-size="10.00">GamR::Sort::Sorter</text>
<text text-anchor="middle" x="125" y="-203.5" font-family="Helvetica,sans-Serif" font-size="10.00">::Process</text>
</a>
</g>
</g>
<!-- Node1&#45;&gt;Node5 -->
<g id="edge4" class="edge">
<title>Node1&#45;&gt;Node5</title>
<path fill="none" stroke="midnightblue" d="M38.12,-190.85C45.54,-192.64 54.61,-194.82 64.03,-197.08"/>
<polygon fill="midnightblue" stroke="midnightblue" points="63.38,-200.53 73.92,-199.46 65.02,-193.72 63.38,-200.53"/>
</g>
<!-- Node6 -->
<g id="node6" class="node">
<title>Node6</title>
<g id="a_node6"><a xlink:href="../../d3/d27/class_gam_r_1_1_sort_1_1_sorter.html#a7b6f275a64940fe5704f85f2a7ce3837" target="_top" xlink:title=" ">
<polygon fill="white" stroke="black" points="74,-147.5 74,-177.5 176,-177.5 176,-147.5 74,-147.5"/>
<text text-anchor="start" x="82" y="-165.5" font-family="Helvetica,sans-Serif" font-size="10.00">GamR::Sort::Sorter</text>
<text text-anchor="middle" x="125" y="-154.5" font-family="Helvetica,sans-Serif" font-size="10.00">::SetXsize</text>
</a>
</g>
</g>
<!-- Node1&#45;&gt;Node6 -->
<g id="edge5" class="edge">
<title>Node1&#45;&gt;Node6</title>
<path fill="none" stroke="midnightblue" d="M38.12,-182.32C45.54,-180.61 54.61,-178.51 64.03,-176.34"/>
<polygon fill="midnightblue" stroke="midnightblue" points="64.97,-179.72 73.92,-174.06 63.39,-172.89 64.97,-179.72"/>
</g>
<!-- Node7 -->
<g id="node7" class="node">
<title>Node7</title>
<g id="a_node7"><a xlink:href="../../d3/d27/class_gam_r_1_1_sort_1_1_sorter.html#af97adfbc42ffff40f141aceaee89a221" target="_top" xlink:title=" ">
<polygon fill="white" stroke="black" points="74,-98.5 74,-128.5 176,-128.5 176,-98.5 74,-98.5"/>
<text text-anchor="start" x="82" y="-116.5" font-family="Helvetica,sans-Serif" font-size="10.00">GamR::Sort::Sorter</text>
<text text-anchor="middle" x="125" y="-105.5" font-family="Helvetica,sans-Serif" font-size="10.00">::SetYsize</text>
</a>
</g>
</g>
<!-- Node1&#45;&gt;Node7 -->
<g id="edge6" class="edge">
<title>Node1&#45;&gt;Node7</title>
<path fill="none" stroke="midnightblue" d="M29.31,-176.83C39.6,-166.49 56.97,-150.03 74,-138.5 76.53,-136.79 79.19,-135.12 81.92,-133.51"/>
<polygon fill="midnightblue" stroke="midnightblue" points="83.73,-136.51 90.76,-128.58 80.32,-130.39 83.73,-136.51"/>
</g>
<!-- Node8 -->
<g id="node8" class="node">
<title>Node8</title>
<g id="a_node8"><a xlink:href="../../d3/d27/class_gam_r_1_1_sort_1_1_sorter.html#a2876da342eb34a3c9202830fe765ef51" target="_top" xlink:title=" ">
<polygon fill="white" stroke="black" points="74,-49.5 74,-79.5 176,-79.5 176,-49.5 74,-49.5"/>
<text text-anchor="start" x="82" y="-67.5" font-family="Helvetica,sans-Serif" font-size="10.00">GamR::Sort::Sorter</text>
<text text-anchor="middle" x="125" y="-56.5" font-family="Helvetica,sans-Serif" font-size="10.00">::SetZsize</text>
</a>
</g>
</g>
<!-- Node1&#45;&gt;Node8 -->
<g id="edge7" class="edge">
<title>Node1&#45;&gt;Node8</title>
<path fill="none" stroke="midnightblue" d="M23.21,-176.74C29.9,-157.72 46.98,-115.35 74,-89.5 75.47,-88.09 77.04,-86.75 78.68,-85.46"/>
<polygon fill="midnightblue" stroke="midnightblue" points="81.04,-88.09 87.32,-79.56 77.09,-82.31 81.04,-88.09"/>
</g>
<!-- Node9 -->
<g id="node9" class="node">
<title>Node9</title>
<g id="a_node9"><a xlink:href="../../d3/d27/class_gam_r_1_1_sort_1_1_sorter.html#abc8fca1999cdbc1accb52933c3d0fcd1" target="_top" xlink:title=" ">
<polygon fill="white" stroke="black" points="74,-0.5 74,-30.5 176,-30.5 176,-0.5 74,-0.5"/>
<text text-anchor="start" x="82" y="-18.5" font-family="Helvetica,sans-Serif" font-size="10.00">GamR::Sort::Sorter</text>
<text text-anchor="middle" x="125" y="-7.5" font-family="Helvetica,sans-Serif" font-size="10.00">::Write</text>
</a>
</g>
</g>
<!-- Node1&#45;&gt;Node9 -->
<g id="edge8" class="edge">
<title>Node1&#45;&gt;Node9</title>
<path fill="none" stroke="midnightblue" d="M21.12,-176.71C24.52,-151.23 36.84,-81.96 74,-40.5 75.18,-39.18 76.45,-37.93 77.78,-36.73"/>
<polygon fill="midnightblue" stroke="midnightblue" points="80.15,-39.32 86.02,-30.5 75.93,-33.74 80.15,-39.32"/>
</g>
</g>
</svg>
