<?xml version="1.0" encoding="UTF-8" standalone="no"?>
<!DOCTYPE svg PUBLIC "-//W3C//DTD SVG 1.1//EN"
 "http://www.w3.org/Graphics/SVG/1.1/DTD/svg11.dtd">
<!-- Generated by graphviz version 8.1.0 (20230707.0739)
 -->
<!-- Title: GamR::Nucleus::Transition::GetGate Pages: 1 -->
<svg width="349pt" height="212pt"
 viewBox="0.00 0.00 349.00 212.25" xmlns="http://www.w3.org/2000/svg" xmlns:xlink="http://www.w3.org/1999/xlink">

<svg id="main" version="1.1" xmlns="http://www.w3.org/2000/svg" xmlns:xlink="http://www.w3.org/1999/xlink" xml:space="preserve" onload="init(evt)">
<style type="text/css"><![CDATA[
.node, .edge {opacity: 0.7;}
.node.selected, .edge.selected {opacity: 1;}
.edge:hover path { stroke: red; }
.edge:hover polygon { stroke: red; fill: red; }
]]></style>
<script type="application/ecmascript" xlink:href="../../svg.min.js"/>
<svg id="graph" class="graph">
<g id="graph0" class="graph" transform="scale(1 1) rotate(0) translate(4 208.25)">
<title>GamR::Nucleus::Transition::GetGate</title>
<!-- Node1 -->
<g id="Node000001" class="node">
<title>Node1</title>
<g id="a_Node000001"><a xlink:title=" ">
<polygon fill="#999999" stroke="#666666" points="341,-116.88 209.5,-116.88 209.5,-86.38 341,-86.38 341,-116.88"/>
<text text-anchor="start" x="217.5" y="-103.38" font-family="Helvetica,sans-Serif" font-size="10.00">GamR::Nucleus::Transition</text>
<text text-anchor="middle" x="275.25" y="-92.12" font-family="Helvetica,sans-Serif" font-size="10.00">::GetGate</text>
</a>
</g>
</g>
<!-- Node2 -->
<g id="Node000002" class="node">
<title>Node2</title>
<g id="a_Node000002"><a xlink:href="../../dc/d89/namespace_gam_r_1_1_spect.html#a455e119a674e52ef5070c2ff156aed53" target="_top" xlink:title=" ">
<polygon fill="white" stroke="#666666" points="173.5,-204.25 0,-204.25 0,-185 173.5,-185 173.5,-204.25"/>
<text text-anchor="middle" x="86.75" y="-190.75" font-family="Helvetica,sans-Serif" font-size="10.00">GamR::Spect::BackgroundSubtractX</text>
</a>
</g>
</g>
<!-- Node1&#45;&gt;Node2 -->
<g id="edge1_Node000001_Node000002" class="edge">
<title>Node1&#45;&gt;Node2</title>
<g id="a_edge1_Node000001_Node000002"><a xlink:title=" ">
<path fill="none" stroke="#63b8ff" d="M250.04,-124.43C230.75,-141.35 202.29,-163.65 173.5,-176.62 166.43,-179.81 158.77,-182.44 151.04,-184.62"/>
<polygon fill="#63b8ff" stroke="#63b8ff" points="252.12,-127.37 257.22,-118.09 247.44,-122.16 252.12,-127.37"/>
</a>
</g>
</g>
<!-- Node3 -->
<g id="Node000003" class="node">
<title>Node3</title>
<g id="a_Node000003"><a xlink:href="../../dc/d89/namespace_gam_r_1_1_spect.html#a93f3a6a85d6f7ae25c767d3826e29607" target="_top" xlink:title=" ">
<polygon fill="white" stroke="#666666" points="173.5,-167.25 0,-167.25 0,-148 173.5,-148 173.5,-167.25"/>
<text text-anchor="middle" x="86.75" y="-153.75" font-family="Helvetica,sans-Serif" font-size="10.00">GamR::Spect::BackgroundSubtractX</text>
</a>
</g>
</g>
<!-- Node1&#45;&gt;Node3 -->
<g id="edge2_Node000001_Node000003" class="edge">
<title>Node1&#45;&gt;Node3</title>
<g id="a_edge2_Node000001_Node000003"><a xlink:title=" ">
<path fill="none" stroke="#63b8ff" d="M226.87,-121.21C210.18,-127.65 191.19,-134.47 173.5,-139.62 163.42,-142.56 152.55,-145.23 142.04,-147.55"/>
<polygon fill="#63b8ff" stroke="#63b8ff" points="227.89,-124.18 235.92,-117.27 225.33,-117.66 227.89,-124.18"/>
</a>
</g>
</g>
<!-- Node4 -->
<g id="Node000004" class="node">
<title>Node4</title>
<g id="a_Node000004"><a xlink:href="../../dc/d89/namespace_gam_r_1_1_spect.html#af67ed2e9b8f932f4f8e6a7e9e497a209" target="_top" xlink:title=" ">
<polygon fill="white" stroke="#666666" points="173.5,-130.25 0,-130.25 0,-111 173.5,-111 173.5,-130.25"/>
<text text-anchor="middle" x="86.75" y="-116.75" font-family="Helvetica,sans-Serif" font-size="10.00">GamR::Spect::BackgroundSubtractY</text>
</a>
</g>
</g>
<!-- Node1&#45;&gt;Node4 -->
<g id="edge3_Node000001_Node000004" class="edge">
<title>Node1&#45;&gt;Node4</title>
<g id="a_edge3_Node000001_Node000004"><a xlink:title=" ">
<path fill="none" stroke="#63b8ff" d="M198.23,-109.37C190.22,-110.19 182.03,-111.02 173.92,-111.85"/>
<polygon fill="#63b8ff" stroke="#63b8ff" points="198.43,-112.77 208.02,-108.27 197.72,-105.8 198.43,-112.77"/>
</a>
</g>
</g>
<!-- Node5 -->
<g id="Node000005" class="node">
<title>Node5</title>
<g id="a_Node000005"><a xlink:href="../../dc/d89/namespace_gam_r_1_1_spect.html#ab20c3e853611e78b5bb57eb4aaaf9d22" target="_top" xlink:title=" ">
<polygon fill="white" stroke="#666666" points="173.5,-93.25 0,-93.25 0,-74 173.5,-74 173.5,-93.25"/>
<text text-anchor="middle" x="86.75" y="-79.75" font-family="Helvetica,sans-Serif" font-size="10.00">GamR::Spect::BackgroundSubtractY</text>
</a>
</g>
</g>
<!-- Node1&#45;&gt;Node5 -->
<g id="edge4_Node000001_Node000005" class="edge">
<title>Node1&#45;&gt;Node5</title>
<g id="a_edge4_Node000001_Node000005"><a xlink:title=" ">
<path fill="none" stroke="#63b8ff" d="M198.23,-94.29C190.22,-93.51 182.03,-92.72 173.92,-91.94"/>
<polygon fill="#63b8ff" stroke="#63b8ff" points="197.73,-97.85 208.02,-95.33 198.4,-90.88 197.73,-97.85"/>
</a>
</g>
</g>
<!-- Node6 -->
<g id="Node000006" class="node">
<title>Node6</title>
<g id="a_Node000006"><a xlink:href="../../d1/dab/namespace_gam_r_1_1_ang_dist.html#a27d6ed29ea36eacdc97228eaf2cb5cab" target="_top" xlink:title=" ">
<polygon fill="white" stroke="#666666" points="160.38,-56.25 13.12,-56.25 13.12,-37 160.38,-37 160.38,-56.25"/>
<text text-anchor="middle" x="86.75" y="-42.75" font-family="Helvetica,sans-Serif" font-size="10.00">GamR::AngDist::RatioFunction</text>
</a>
</g>
</g>
<!-- Node1&#45;&gt;Node6 -->
<g id="edge5_Node000001_Node000006" class="edge">
<title>Node1&#45;&gt;Node6</title>
<g id="a_edge5_Node000001_Node000006"><a xlink:title=" ">
<path fill="none" stroke="#63b8ff" d="M225.56,-82.13C209.18,-76 190.71,-69.56 173.5,-64.62 163.26,-61.69 152.22,-59.01 141.56,-56.67"/>
<polygon fill="#63b8ff" stroke="#63b8ff" points="223.86,-85.6 234.45,-85.88 226.35,-79.06 223.86,-85.6"/>
</a>
</g>
</g>
<!-- Node7 -->
<g id="Node000007" class="node">
<title>Node7</title>
<g id="a_Node000007"><a xlink:href="../../d1/dab/namespace_gam_r_1_1_ang_dist.html#ae3807ba0c16b7aa0265371dfb9ed06ae" target="_top" xlink:title=" ">
<polygon fill="white" stroke="#666666" points="160.38,-19.25 13.12,-19.25 13.12,0 160.38,0 160.38,-19.25"/>
<text text-anchor="middle" x="86.75" y="-5.75" font-family="Helvetica,sans-Serif" font-size="10.00">GamR::AngDist::RatioFunction</text>
</a>
</g>
</g>
<!-- Node1&#45;&gt;Node7 -->
<g id="edge6_Node000001_Node000007" class="edge">
<title>Node1&#45;&gt;Node7</title>
<g id="a_edge6_Node000001_Node000007"><a xlink:title=" ">
<path fill="none" stroke="#63b8ff" d="M249.64,-78.83C230.33,-62.18 202.02,-40.37 173.5,-27.62 166.42,-24.46 158.75,-21.84 151.02,-19.68"/>
<polygon fill="#63b8ff" stroke="#63b8ff" points="247.03,-81.08 256.84,-85.07 251.66,-75.83 247.03,-81.08"/>
</a>
</g>
</g>
</g>
</svg>
</svg>

<style type='text/css'>
<![CDATA[
[data-mouse-over-selected='false'] { opacity: 0.7; }
[data-mouse-over-selected='true']  { opacity: 1.0; }
]]>
</style>
<script type="application/ecmascript"><![CDATA[
document.addEventListener('DOMContentLoaded', (event) => {
  highlightEdges();
  highlightAdjacentNodes();
});
]]></script>
</svg>
