<?xml version="1.0" encoding="UTF-8" standalone="no"?>
<!DOCTYPE svg PUBLIC "-//W3C//DTD SVG 1.1//EN"
 "http://www.w3.org/Graphics/SVG/1.1/DTD/svg11.dtd">
<!-- Generated by graphviz version 5.0.0 (20220708.1001)
 -->
<!-- Title: GamR::Nucleus::Transition::SetTransition Pages: 1 -->
<svg width="301pt" height="66pt"
 viewBox="0.00 0.00 301.00 66.00" xmlns="http://www.w3.org/2000/svg" xmlns:xlink="http://www.w3.org/1999/xlink">
<g id="graph0" class="graph" transform="scale(1 1) rotate(0) translate(4 62)">
<title>GamR::Nucleus::Transition::SetTransition</title>
<polygon fill="white" stroke="transparent" points="-4,4 -4,-62 297,-62 297,4 -4,4"/>
<!-- Node1 -->
<g id="node1" class="node">
<title>Node1</title>
<g id="a_node1"><a xlink:title=" ">
<polygon fill="#bfbfbf" stroke="black" points="161,-14 161,-44 293,-44 293,-14 161,-14"/>
<text text-anchor="start" x="169" y="-32" font-family="Helvetica,sans-Serif" font-size="10.00">GamR::Nucleus::Transition</text>
<text text-anchor="middle" x="227" y="-21" font-family="Helvetica,sans-Serif" font-size="10.00">::SetTransition</text>
</a>
</g>
</g>
<!-- Node2 -->
<g id="node2" class="node">
<title>Node2</title>
<g id="a_node2"><a xlink:href="../../dc/d89/namespace_gam_r_1_1_spect.html#a504796b948f22b277d3dc82001df407e" target="_top" xlink:title=" ">
<polygon fill="white" stroke="black" points="1,-38.5 1,-57.5 124,-57.5 124,-38.5 1,-38.5"/>
<text text-anchor="middle" x="62.5" y="-45.5" font-family="Helvetica,sans-Serif" font-size="10.00">GamR::Spect::CountsBS</text>
</a>
</g>
</g>
<!-- Node1&#45;&gt;Node2 -->
<g id="edge1" class="edge">
<title>Node1&#45;&gt;Node2</title>
<path fill="none" stroke="midnightblue" d="M150.83,-37.79C141.91,-38.83 132.88,-39.89 124.19,-40.9"/>
<polygon fill="midnightblue" stroke="midnightblue" points="151.32,-41.26 160.84,-36.62 150.5,-34.3 151.32,-41.26"/>
</g>
<!-- Node3 -->
<g id="node3" class="node">
<title>Node3</title>
<g id="a_node3"><a xlink:href="../../dc/d89/namespace_gam_r_1_1_spect.html#a5c8a9e7165c96f14b6627917438a8bd0" target="_top" xlink:title=" ">
<polygon fill="white" stroke="black" points="0,-0.5 0,-19.5 125,-19.5 125,-0.5 0,-0.5"/>
<text text-anchor="middle" x="62.5" y="-7.5" font-family="Helvetica,sans-Serif" font-size="10.00">GamR::Spect::IntegralBS</text>
</a>
</g>
</g>
<!-- Node1&#45;&gt;Node3 -->
<g id="edge2" class="edge">
<title>Node1&#45;&gt;Node3</title>
<path fill="none" stroke="midnightblue" d="M150.84,-20.21C142.27,-19.21 133.61,-18.2 125.24,-17.22"/>
<polygon fill="midnightblue" stroke="midnightblue" points="150.5,-23.7 160.84,-21.38 151.32,-16.74 150.5,-23.7"/>
</g>
</g>
</svg>
