<?xml version="1.0" encoding="UTF-8" standalone="no"?>
<!DOCTYPE svg PUBLIC "-//W3C//DTD SVG 1.1//EN"
 "http://www.w3.org/Graphics/SVG/1.1/DTD/svg11.dtd">
<!-- Generated by graphviz version 8.1.0 (20230707.0739)
 -->
<!-- Title: GamR::Nucleus::Transition::ApplyError Pages: 1 -->
<svg width="479pt" height="236pt"
 viewBox="0.00 0.00 479.00 235.88" xmlns="http://www.w3.org/2000/svg" xmlns:xlink="http://www.w3.org/1999/xlink">

<svg id="main" version="1.1" xmlns="http://www.w3.org/2000/svg" xmlns:xlink="http://www.w3.org/1999/xlink" xml:space="preserve" onload="init(evt)">
<style type="text/css"><![CDATA[
.node, .edge {opacity: 0.7;}
.node.selected, .edge.selected {opacity: 1;}
.edge:hover path { stroke: red; }
.edge:hover polygon { stroke: red; fill: red; }
]]></style>
<script type="application/ecmascript" xlink:href="../../svg.min.js"/>
<svg id="graph" class="graph">
<g id="graph0" class="graph" transform="scale(1 1) rotate(0) translate(4 231.88)">
<title>GamR::Nucleus::Transition::ApplyError</title>
<!-- Node1 -->
<g id="Node000001" class="node">
<title>Node1</title>
<g id="a_Node000001"><a xlink:title=" ">
<polygon fill="#999999" stroke="#666666" points="471,-119.5 339.5,-119.5 339.5,-89 471,-89 471,-119.5"/>
<text text-anchor="start" x="347.5" y="-106" font-family="Helvetica,sans-Serif" font-size="10.00">GamR::Nucleus::Transition</text>
<text text-anchor="middle" x="405.25" y="-94.75" font-family="Helvetica,sans-Serif" font-size="10.00">::ApplyError</text>
</a>
</g>
</g>
<!-- Node2 -->
<g id="Node000002" class="node">
<title>Node2</title>
<g id="a_Node000002"><a xlink:href="../../dc/d89/namespace_gam_r_1_1_spect.html#a96b06b9b004342fbf0f54cd3d6a308a8" target="_top" xlink:title=" ">
<polygon fill="white" stroke="#666666" points="298.62,-153.88 174.62,-153.88 174.62,-134.62 298.62,-134.62 298.62,-153.88"/>
<text text-anchor="middle" x="236.62" y="-140.38" font-family="Helvetica,sans-Serif" font-size="10.00">GamR::Spect::IntegralBS</text>
</a>
</g>
</g>
<!-- Node1&#45;&gt;Node2 -->
<g id="edge1_Node000001_Node000002" class="edge">
<title>Node1&#45;&gt;Node2</title>
<g id="a_edge1_Node000001_Node000002"><a xlink:title=" ">
<path fill="none" stroke="#63b8ff" d="M328.88,-122.34C311.92,-126.41 294.53,-130.59 279.53,-134.19"/>
<polygon fill="#63b8ff" stroke="#63b8ff" points="329.44,-125.57 338.35,-119.83 327.81,-118.76 329.44,-125.57"/>
</a>
</g>
</g>
<!-- Node7 -->
<g id="Node000007" class="node">
<title>Node7</title>
<g id="a_Node000007"><a xlink:href="../../d2/da9/class_gam_r_1_1_ang_dist_1_1_ang_corr_fit.html#a7d0d1589078b53be7a8da0372924c349" target="_top" xlink:title=" ">
<polygon fill="white" stroke="#666666" points="303.5,-79.5 169.75,-79.5 169.75,-49 303.5,-49 303.5,-79.5"/>
<text text-anchor="start" x="177.75" y="-66" font-family="Helvetica,sans-Serif" font-size="10.00">GamR::AngDist::AngCorrFit</text>
<text text-anchor="middle" x="236.62" y="-54.75" font-family="Helvetica,sans-Serif" font-size="10.00">::SetData</text>
</a>
</g>
</g>
<!-- Node1&#45;&gt;Node7 -->
<g id="edge6_Node000001_Node000007" class="edge">
<title>Node1&#45;&gt;Node7</title>
<g id="a_edge6_Node000001_Node000007"><a xlink:title=" ">
<path fill="none" stroke="#63b8ff" d="M328.66,-86.1C320.15,-84.06 311.54,-81.99 303.17,-79.98"/>
<polygon fill="#63b8ff" stroke="#63b8ff" points="327.81,-89.74 338.35,-88.67 329.44,-82.93 327.81,-89.74"/>
</a>
</g>
</g>
<!-- Node3 -->
<g id="Node000003" class="node">
<title>Node3</title>
<g id="a_Node000003"><a xlink:href="../../d0/d17/_abbreviations_8cc.html#a3b6d2dcc82484190d559ea26a6facead" target="_top" xlink:title=" ">
<polygon fill="white" stroke="#666666" points="83.88,-227.88 49.88,-227.88 49.88,-208.62 83.88,-208.62 83.88,-227.88"/>
<text text-anchor="middle" x="66.88" y="-214.38" font-family="Helvetica,sans-Serif" font-size="10.00">igbs</text>
</a>
</g>
</g>
<!-- Node2&#45;&gt;Node3 -->
<g id="edge2_Node000002_Node000003" class="edge">
<title>Node2&#45;&gt;Node3</title>
<g id="a_edge2_Node000002_Node000003"><a xlink:title=" ">
<path fill="none" stroke="#63b8ff" d="M211.24,-159.8C191.09,-172.12 161.4,-189.06 133.75,-200.25 117.38,-206.88 97.75,-211.89 84.2,-214.92"/>
<polygon fill="#63b8ff" stroke="#63b8ff" points="212.66,-162.42 219.31,-154.17 208.97,-156.47 212.66,-162.42"/>
</a>
</g>
</g>
<!-- Node4 -->
<g id="Node000004" class="node">
<title>Node4</title>
<g id="a_Node000004"><a xlink:href="../../dc/d89/namespace_gam_r_1_1_spect.html#a5c8a9e7165c96f14b6627917438a8bd0" target="_top" xlink:title=" ">
<polygon fill="white" stroke="#666666" points="128.88,-190.88 4.88,-190.88 4.88,-171.62 128.88,-171.62 128.88,-190.88"/>
<text text-anchor="middle" x="66.88" y="-177.38" font-family="Helvetica,sans-Serif" font-size="10.00">GamR::Spect::IntegralBS</text>
</a>
</g>
</g>
<!-- Node2&#45;&gt;Node4 -->
<g id="edge3_Node000002_Node000004" class="edge">
<title>Node2&#45;&gt;Node4</title>
<g id="a_edge3_Node000002_Node000004"><a xlink:title=" ">
<path fill="none" stroke="#63b8ff" d="M179.23,-156.69C157.9,-161.39 133.9,-166.69 113.66,-171.15"/>
<polygon fill="#63b8ff" stroke="#63b8ff" points="179.78,-159.93 188.79,-154.36 178.27,-153.1 179.78,-159.93"/>
</a>
</g>
</g>
<!-- Node5 -->
<g id="Node000005" class="node">
<title>Node5</title>
<g id="a_Node000005"><a xlink:href="../../dc/d89/namespace_gam_r_1_1_spect.html#a362ed8e162c3ae603c3e410100f93d30" target="_top" xlink:title=" ">
<polygon fill="white" stroke="#666666" points="128.88,-153.88 4.88,-153.88 4.88,-134.62 128.88,-134.62 128.88,-153.88"/>
<text text-anchor="middle" x="66.88" y="-140.38" font-family="Helvetica,sans-Serif" font-size="10.00">GamR::Spect::IntegralBS</text>
</a>
</g>
</g>
<!-- Node2&#45;&gt;Node5 -->
<g id="edge4_Node000002_Node000005" class="edge">
<title>Node2&#45;&gt;Node5</title>
<g id="a_edge4_Node000002_Node000005"><a xlink:title=" ">
<path fill="none" stroke="#63b8ff" d="M163.68,-144.25C152.18,-144.25 140.37,-144.25 129.15,-144.25"/>
<polygon fill="#63b8ff" stroke="#63b8ff" points="163.59,-147.75 173.59,-144.25 163.59,-140.75 163.59,-147.75"/>
</a>
</g>
</g>
<!-- Node6 -->
<g id="Node000006" class="node">
<title>Node6</title>
<g id="a_Node000006"><a xlink:href="../../dc/d89/namespace_gam_r_1_1_spect.html#a65b45f6deafa9285890fe026d37bff2e" target="_top" xlink:title=" ">
<polygon fill="white" stroke="#666666" points="128.88,-116.88 4.88,-116.88 4.88,-97.62 128.88,-97.62 128.88,-116.88"/>
<text text-anchor="middle" x="66.88" y="-103.38" font-family="Helvetica,sans-Serif" font-size="10.00">GamR::Spect::IntegralBS</text>
</a>
</g>
</g>
<!-- Node2&#45;&gt;Node6 -->
<g id="edge5_Node000002_Node000006" class="edge">
<title>Node2&#45;&gt;Node6</title>
<g id="a_edge5_Node000002_Node000006"><a xlink:title=" ">
<path fill="none" stroke="#63b8ff" d="M179.23,-131.81C157.9,-127.11 133.9,-121.81 113.66,-117.35"/>
<polygon fill="#63b8ff" stroke="#63b8ff" points="178.27,-135.4 188.79,-134.14 179.78,-128.57 178.27,-135.4"/>
</a>
</g>
</g>
<!-- Node8 -->
<g id="Node000008" class="node">
<title>Node8</title>
<g id="a_Node000008"><a xlink:href="../../d2/da9/class_gam_r_1_1_ang_dist_1_1_ang_corr_fit.html#ade67fbd9efac760657e3d1455a2f5592" target="_top" xlink:title=" ">
<polygon fill="white" stroke="#666666" points="133.75,-79.5 0,-79.5 0,-49 133.75,-49 133.75,-79.5"/>
<text text-anchor="start" x="8" y="-66" font-family="Helvetica,sans-Serif" font-size="10.00">GamR::AngDist::AngCorrFit</text>
<text text-anchor="middle" x="66.88" y="-54.75" font-family="Helvetica,sans-Serif" font-size="10.00">::AngCorrFit</text>
</a>
</g>
</g>
<!-- Node7&#45;&gt;Node8 -->
<g id="edge7_Node000007_Node000008" class="edge">
<title>Node7&#45;&gt;Node8</title>
<g id="a_edge7_Node000007_Node000008"><a xlink:title=" ">
<path fill="none" stroke="#63b8ff" d="M158.4,-64.25C150.33,-64.25 142.18,-64.25 134.24,-64.25"/>
<polygon fill="#63b8ff" stroke="#63b8ff" points="158.33,-67.75 168.33,-64.25 158.33,-60.75 158.33,-67.75"/>
</a>
</g>
</g>
<!-- Node9 -->
<g id="Node000009" class="node">
<title>Node9</title>
<g id="a_Node000009"><a xlink:href="../../d2/da9/class_gam_r_1_1_ang_dist_1_1_ang_corr_fit.html#a22cc58bf6eb5d0eda0bc207561b76921" target="_top" xlink:title=" ">
<polygon fill="white" stroke="#666666" points="133.75,-30.5 0,-30.5 0,0 133.75,0 133.75,-30.5"/>
<text text-anchor="start" x="8" y="-17" font-family="Helvetica,sans-Serif" font-size="10.00">GamR::AngDist::AngCorrFit</text>
<text text-anchor="middle" x="66.88" y="-5.75" font-family="Helvetica,sans-Serif" font-size="10.00">::AngCorrFit</text>
</a>
</g>
</g>
<!-- Node7&#45;&gt;Node9 -->
<g id="edge8_Node000007_Node000009" class="edge">
<title>Node7&#45;&gt;Node9</title>
<g id="a_edge8_Node000007_Node000009"><a xlink:title=" ">
<path fill="none" stroke="#63b8ff" d="M171.96,-45.65C155.41,-40.82 137.75,-35.66 121.77,-30.99"/>
<polygon fill="#63b8ff" stroke="#63b8ff" points="170.51,-49.17 181.09,-48.61 172.47,-42.45 170.51,-49.17"/>
</a>
</g>
</g>
</g>
</svg>
</svg>

<style type='text/css'>
<![CDATA[
[data-mouse-over-selected='false'] { opacity: 0.7; }
[data-mouse-over-selected='true']  { opacity: 1.0; }
]]>
</style>
<script type="application/ecmascript"><![CDATA[
document.addEventListener('DOMContentLoaded', (event) => {
  highlightEdges();
  highlightAdjacentNodes();
});
]]></script>
</svg>
