<?xml version="1.0" encoding="UTF-8" standalone="no"?>
<!DOCTYPE svg PUBLIC "-//W3C//DTD SVG 1.1//EN"
 "http://www.w3.org/Graphics/SVG/1.1/DTD/svg11.dtd">
<!-- Generated by graphviz version 2.49.3 (20211023.0002)
 -->
<!-- Title: main Pages: 1 -->
<svg width="947pt" height="753pt"
 viewBox="0.00 0.00 947.00 753.00" xmlns="http://www.w3.org/2000/svg" xmlns:xlink="http://www.w3.org/1999/xlink">
<g id="graph0" class="graph" transform="scale(1 1) rotate(0) translate(4 749)">
<title>main</title>
<polygon fill="white" stroke="transparent" points="-4,4 -4,-749 943,-749 943,4 -4,4"/>
<!-- Node1 -->
<g id="node1" class="node">
<title>Node1</title>
<g id="a_node1"><a xlink:title=" ">
<polygon fill="#bfbfbf" stroke="black" points="0,-362.5 0,-381.5 38,-381.5 38,-362.5 0,-362.5"/>
<text text-anchor="middle" x="19" y="-369.5" font-family="Helvetica,sans-Serif" font-size="10.00">main</text>
</a>
</g>
</g>
<!-- Node2 -->
<g id="node2" class="node">
<title>Node2</title>
<g id="a_node2"><a xlink:href="../../d1/d06/group___o_r_n_l.html#ga8dadacfbdfaeef91b856b23b906ac4e2" target="_top" xlink:title=" ">
<polygon fill="white" stroke="black" points="74,-362.5 74,-381.5 229,-381.5 229,-362.5 74,-362.5"/>
<text text-anchor="middle" x="151.5" y="-369.5" font-family="Helvetica,sans-Serif" font-size="10.00">GamR::ORNL::readAllBananas</text>
</a>
</g>
</g>
<!-- Node1&#45;&gt;Node2 -->
<g id="edge1" class="edge">
<title>Node1&#45;&gt;Node2</title>
<path fill="none" stroke="midnightblue" d="M38.15,-372C45.37,-372 54.25,-372 63.81,-372"/>
<polygon fill="midnightblue" stroke="midnightblue" points="63.99,-375.5 73.99,-372 63.99,-368.5 63.99,-375.5"/>
</g>
<!-- Node3 -->
<g id="node3" class="node">
<title>Node3</title>
<g id="a_node3"><a xlink:href="../../d0/db7/namespace_gam_r_1_1_utils.html#a0a7aaf911b057208b84e3b98d071c5c0" target="_top" xlink:title=" ">
<polygon fill="white" stroke="black" points="457.5,-725.5 457.5,-744.5 562.5,-744.5 562.5,-725.5 457.5,-725.5"/>
<text text-anchor="middle" x="510" y="-732.5" font-family="Helvetica,sans-Serif" font-size="10.00">GamR::Utils::getline</text>
</a>
</g>
</g>
<!-- Node2&#45;&gt;Node3 -->
<g id="edge2" class="edge">
<title>Node2&#45;&gt;Node3</title>
<path fill="none" stroke="midnightblue" d="M157.65,-381.74C182.24,-427.32 292.72,-621.25 440,-716 443.31,-718.13 446.87,-720.03 450.55,-721.71"/>
<polygon fill="midnightblue" stroke="midnightblue" points="449.31,-724.99 459.9,-725.48 451.93,-718.5 449.31,-724.99"/>
</g>
<!-- Node4 -->
<g id="node4" class="node">
<title>Node4</title>
<g id="a_node4"><a xlink:href="../../d1/d06/group___o_r_n_l.html#gadf516cfb4c9ea542a49beb4a7c8b3abd" target="_top" xlink:title=" ">
<polygon fill="white" stroke="black" points="265,-362.5 265,-381.5 404,-381.5 404,-362.5 265,-362.5"/>
<text text-anchor="middle" x="334.5" y="-369.5" font-family="Helvetica,sans-Serif" font-size="10.00">GamR::ORNL::readBanana</text>
</a>
</g>
</g>
<!-- Node2&#45;&gt;Node4 -->
<g id="edge3" class="edge">
<title>Node2&#45;&gt;Node4</title>
<path fill="none" stroke="midnightblue" d="M229.26,-372C237.69,-372 246.27,-372 254.72,-372"/>
<polygon fill="midnightblue" stroke="midnightblue" points="254.94,-375.5 264.94,-372 254.94,-368.5 254.94,-375.5"/>
</g>
<!-- Node19 -->
<g id="node19" class="node">
<title>Node19</title>
<g id="a_node19"><a xlink:href="../../d0/d17/_abbreviations_8cc.html#a5d1794b612bdcca3f4f4baa3d2e38a0b" target="_top" xlink:title=" ">
<polygon fill="white" stroke="black" points="495.5,-0.5 495.5,-19.5 524.5,-19.5 524.5,-0.5 495.5,-0.5"/>
<text text-anchor="middle" x="510" y="-7.5" font-family="Helvetica,sans-Serif" font-size="10.00">ss</text>
</a>
</g>
</g>
<!-- Node2&#45;&gt;Node19 -->
<g id="edge23" class="edge">
<title>Node2&#45;&gt;Node19</title>
<path fill="none" stroke="midnightblue" d="M157.66,-362.29C182.29,-316.84 292.9,-123.48 440,-29 453.66,-20.22 471.36,-15.46 485.41,-12.89"/>
<polygon fill="midnightblue" stroke="midnightblue" points="485.98,-16.35 495.31,-11.33 484.89,-9.43 485.98,-16.35"/>
</g>
<!-- Node4&#45;&gt;Node3 -->
<g id="edge4" class="edge">
<title>Node4&#45;&gt;Node3</title>
<path fill="none" stroke="midnightblue" d="M339.24,-381.79C350.12,-410.44 382.35,-496.75 404,-570 422.95,-634.09 393.38,-668.11 440,-716 442.5,-718.57 445.32,-720.8 448.34,-722.74"/>
<polygon fill="midnightblue" stroke="midnightblue" points="446.87,-725.92 457.35,-727.46 450.11,-719.72 446.87,-725.92"/>
</g>
<!-- Node5 -->
<g id="node5" class="node">
<title>Node5</title>
<g id="a_node5"><a xlink:href="../../d1/d06/group___o_r_n_l.html#ga1b8b343a02efb0d61061d6e2fc4b6745" target="_top" xlink:title=" ">
<polygon fill="white" stroke="black" points="440,-676 440,-706 580,-706 580,-676 440,-676"/>
<text text-anchor="start" x="448" y="-694" font-family="Helvetica,sans-Serif" font-size="10.00">GamR::ORNL::BananaGate</text>
<text text-anchor="middle" x="510" y="-683" font-family="Helvetica,sans-Serif" font-size="10.00">::SetDG</text>
</a>
</g>
</g>
<!-- Node4&#45;&gt;Node5 -->
<g id="edge5" class="edge">
<title>Node4&#45;&gt;Node5</title>
<path fill="none" stroke="midnightblue" d="M338.88,-381.72C356.51,-432.41 437.25,-664.27 440,-667 441.07,-668.06 442.19,-669.08 443.35,-670.05"/>
<polygon fill="midnightblue" stroke="midnightblue" points="441.35,-672.93 451.54,-675.82 445.38,-667.2 441.35,-672.93"/>
</g>
<!-- Node6 -->
<g id="node6" class="node">
<title>Node6</title>
<g id="a_node6"><a xlink:href="../../d1/d06/group___o_r_n_l.html#gacd0499872badfb298bd1272f12b41f23" target="_top" xlink:title=" ">
<polygon fill="white" stroke="black" points="440,-627 440,-657 580,-657 580,-627 440,-627"/>
<text text-anchor="start" x="448" y="-645" font-family="Helvetica,sans-Serif" font-size="10.00">GamR::ORNL::BananaGate</text>
<text text-anchor="middle" x="510" y="-634" font-family="Helvetica,sans-Serif" font-size="10.00">::SetFileName</text>
</a>
</g>
</g>
<!-- Node4&#45;&gt;Node6 -->
<g id="edge6" class="edge">
<title>Node4&#45;&gt;Node6</title>
<path fill="none" stroke="midnightblue" d="M338.46,-381.72C351.19,-422.94 402.3,-582.74 440,-618 441.27,-619.19 442.61,-620.32 444,-621.4"/>
<polygon fill="midnightblue" stroke="midnightblue" points="442.17,-624.39 452.44,-626.98 446.02,-618.54 442.17,-624.39"/>
</g>
<!-- Node7 -->
<g id="node7" class="node">
<title>Node7</title>
<g id="a_node7"><a xlink:href="../../d1/d06/group___o_r_n_l.html#ga828addea595481b96d3f41002826e8ba" target="_top" xlink:title=" ">
<polygon fill="white" stroke="black" points="440,-578 440,-608 580,-608 580,-578 440,-578"/>
<text text-anchor="start" x="448" y="-596" font-family="Helvetica,sans-Serif" font-size="10.00">GamR::ORNL::BananaGate</text>
<text text-anchor="middle" x="510" y="-585" font-family="Helvetica,sans-Serif" font-size="10.00">::SetIAUX</text>
</a>
</g>
</g>
<!-- Node4&#45;&gt;Node7 -->
<g id="edge7" class="edge">
<title>Node4&#45;&gt;Node7</title>
<path fill="none" stroke="midnightblue" d="M337.94,-381.81C346.34,-413.64 377.11,-515.06 440,-569 441.52,-570.3 443.11,-571.53 444.76,-572.7"/>
<polygon fill="midnightblue" stroke="midnightblue" points="443.08,-575.77 453.44,-578 446.73,-569.8 443.08,-575.77"/>
</g>
<!-- Node8 -->
<g id="node8" class="node">
<title>Node8</title>
<g id="a_node8"><a xlink:href="../../d1/d06/group___o_r_n_l.html#ga09cadfda3190414a9bf225552e745612" target="_top" xlink:title=" ">
<polygon fill="white" stroke="black" points="440,-529 440,-559 580,-559 580,-529 440,-529"/>
<text text-anchor="start" x="448" y="-547" font-family="Helvetica,sans-Serif" font-size="10.00">GamR::ORNL::BananaGate</text>
<text text-anchor="middle" x="510" y="-536" font-family="Helvetica,sans-Serif" font-size="10.00">::SetIB</text>
</a>
</g>
</g>
<!-- Node4&#45;&gt;Node8 -->
<g id="edge8" class="edge">
<title>Node4&#45;&gt;Node8</title>
<path fill="none" stroke="midnightblue" d="M339.63,-381.51C351.41,-407.54 387.73,-480.65 440,-520 441.85,-521.39 443.79,-522.71 445.8,-523.96"/>
<polygon fill="midnightblue" stroke="midnightblue" points="444.49,-527.23 454.94,-528.96 447.85,-521.09 444.49,-527.23"/>
</g>
<!-- Node9 -->
<g id="node9" class="node">
<title>Node9</title>
<g id="a_node9"><a xlink:href="../../d1/d06/group___o_r_n_l.html#ga60f97af383724875b1544ecb8281cc58" target="_top" xlink:title=" ">
<polygon fill="white" stroke="black" points="440,-480 440,-510 580,-510 580,-480 440,-480"/>
<text text-anchor="start" x="448" y="-498" font-family="Helvetica,sans-Serif" font-size="10.00">GamR::ORNL::BananaGate</text>
<text text-anchor="middle" x="510" y="-487" font-family="Helvetica,sans-Serif" font-size="10.00">::SetIH</text>
</a>
</g>
</g>
<!-- Node4&#45;&gt;Node9 -->
<g id="edge9" class="edge">
<title>Node4&#45;&gt;Node9</title>
<path fill="none" stroke="midnightblue" d="M343.13,-381.57C359.13,-401.03 398.15,-445.54 440,-471 442.76,-472.68 445.66,-474.27 448.64,-475.76"/>
<polygon fill="midnightblue" stroke="midnightblue" points="447.21,-478.95 457.76,-479.95 450.13,-472.59 447.21,-478.95"/>
</g>
<!-- Node10 -->
<g id="node10" class="node">
<title>Node10</title>
<g id="a_node10"><a xlink:href="../../d1/d06/group___o_r_n_l.html#gaa4083f529683a721acdc300c1e3c3afc" target="_top" xlink:title=" ">
<polygon fill="white" stroke="black" points="440,-431 440,-461 580,-461 580,-431 440,-431"/>
<text text-anchor="start" x="448" y="-449" font-family="Helvetica,sans-Serif" font-size="10.00">GamR::ORNL::BananaGate</text>
<text text-anchor="middle" x="510" y="-438" font-family="Helvetica,sans-Serif" font-size="10.00">::SetIPX</text>
</a>
</g>
</g>
<!-- Node4&#45;&gt;Node10 -->
<g id="edge10" class="edge">
<title>Node4&#45;&gt;Node10</title>
<path fill="none" stroke="midnightblue" d="M354.09,-381.67C374.77,-392.25 409.31,-409.37 440,-422 444.46,-423.83 449.11,-425.65 453.81,-427.42"/>
<polygon fill="midnightblue" stroke="midnightblue" points="452.85,-430.8 463.45,-430.96 455.27,-424.23 452.85,-430.8"/>
</g>
<!-- Node11 -->
<g id="node11" class="node">
<title>Node11</title>
<g id="a_node11"><a xlink:href="../../d1/d06/group___o_r_n_l.html#ga04f3d0b54f752fc65ed238db00d9c696" target="_top" xlink:title=" ">
<polygon fill="white" stroke="black" points="440,-382 440,-412 580,-412 580,-382 440,-382"/>
<text text-anchor="start" x="448" y="-400" font-family="Helvetica,sans-Serif" font-size="10.00">GamR::ORNL::BananaGate</text>
<text text-anchor="middle" x="510" y="-389" font-family="Helvetica,sans-Serif" font-size="10.00">::SetIPY</text>
</a>
</g>
</g>
<!-- Node4&#45;&gt;Node11 -->
<g id="edge11" class="edge">
<title>Node4&#45;&gt;Node11</title>
<path fill="none" stroke="midnightblue" d="M401.59,-381.52C410.8,-382.85 420.34,-384.23 429.77,-385.58"/>
<polygon fill="midnightblue" stroke="midnightblue" points="429.53,-389.08 439.92,-387.05 430.53,-382.16 429.53,-389.08"/>
</g>
<!-- Node12 -->
<g id="node12" class="node">
<title>Node12</title>
<g id="a_node12"><a xlink:href="../../d1/d06/group___o_r_n_l.html#ga400b10a64714b99aad436239aab3feb7" target="_top" xlink:title=" ">
<polygon fill="white" stroke="black" points="440,-333 440,-363 580,-363 580,-333 440,-333"/>
<text text-anchor="start" x="448" y="-351" font-family="Helvetica,sans-Serif" font-size="10.00">GamR::ORNL::BananaGate</text>
<text text-anchor="middle" x="510" y="-340" font-family="Helvetica,sans-Serif" font-size="10.00">::SetJAUX</text>
</a>
</g>
</g>
<!-- Node4&#45;&gt;Node12 -->
<g id="edge12" class="edge">
<title>Node4&#45;&gt;Node12</title>
<path fill="none" stroke="midnightblue" d="M404.07,-362.51C412.51,-361.35 421.2,-360.15 429.78,-358.96"/>
<polygon fill="midnightblue" stroke="midnightblue" points="430.36,-362.41 439.79,-357.57 429.4,-355.48 430.36,-362.41"/>
</g>
<!-- Node13 -->
<g id="node13" class="node">
<title>Node13</title>
<g id="a_node13"><a xlink:href="../../d1/d06/group___o_r_n_l.html#ga2bef3cf9878028d6fd427101c0a537b3" target="_top" xlink:title=" ">
<polygon fill="white" stroke="black" points="440,-284 440,-314 580,-314 580,-284 440,-284"/>
<text text-anchor="start" x="448" y="-302" font-family="Helvetica,sans-Serif" font-size="10.00">GamR::ORNL::BananaGate</text>
<text text-anchor="middle" x="510" y="-291" font-family="Helvetica,sans-Serif" font-size="10.00">::SetLXD</text>
</a>
</g>
</g>
<!-- Node4&#45;&gt;Node13 -->
<g id="edge13" class="edge">
<title>Node4&#45;&gt;Node13</title>
<path fill="none" stroke="midnightblue" d="M354.93,-362.49C375.76,-352.43 409.89,-336.35 440,-324 445.16,-321.89 450.57,-319.76 455.99,-317.7"/>
<polygon fill="midnightblue" stroke="midnightblue" points="457.59,-320.84 465.72,-314.06 455.13,-314.28 457.59,-320.84"/>
</g>
<!-- Node14 -->
<g id="node14" class="node">
<title>Node14</title>
<g id="a_node14"><a xlink:href="../../d1/d06/group___o_r_n_l.html#gaffd868e98112f2188173e23b387e2e8e" target="_top" xlink:title=" ">
<polygon fill="white" stroke="black" points="440,-235 440,-265 580,-265 580,-235 440,-235"/>
<text text-anchor="start" x="448" y="-253" font-family="Helvetica,sans-Serif" font-size="10.00">GamR::ORNL::BananaGate</text>
<text text-anchor="middle" x="510" y="-242" font-family="Helvetica,sans-Serif" font-size="10.00">::SetLXG</text>
</a>
</g>
</g>
<!-- Node4&#45;&gt;Node14 -->
<g id="edge14" class="edge">
<title>Node4&#45;&gt;Node14</title>
<path fill="none" stroke="midnightblue" d="M343.45,-362.39C359.73,-343.26 398.8,-300.14 440,-275 443.33,-272.97 446.85,-271.06 450.47,-269.29"/>
<polygon fill="midnightblue" stroke="midnightblue" points="451.96,-272.45 459.61,-265.13 449.06,-266.08 451.96,-272.45"/>
</g>
<!-- Node15 -->
<g id="node15" class="node">
<title>Node15</title>
<g id="a_node15"><a xlink:href="../../d1/d06/group___o_r_n_l.html#ga1c3e7b158df72bab8110d838fd1f4ea2" target="_top" xlink:title=" ">
<polygon fill="white" stroke="black" points="440,-186 440,-216 580,-216 580,-186 440,-186"/>
<text text-anchor="start" x="448" y="-204" font-family="Helvetica,sans-Serif" font-size="10.00">GamR::ORNL::BananaGate</text>
<text text-anchor="middle" x="510" y="-193" font-family="Helvetica,sans-Serif" font-size="10.00">::SetLYD</text>
</a>
</g>
</g>
<!-- Node4&#45;&gt;Node15 -->
<g id="edge15" class="edge">
<title>Node4&#45;&gt;Node15</title>
<path fill="none" stroke="midnightblue" d="M339.87,-362.28C351.99,-336.38 388.58,-264.98 440,-226 442.46,-224.14 445.07,-222.4 447.78,-220.79"/>
<polygon fill="midnightblue" stroke="midnightblue" points="449.54,-223.82 456.73,-216.04 446.26,-217.63 449.54,-223.82"/>
</g>
<!-- Node16 -->
<g id="node16" class="node">
<title>Node16</title>
<g id="a_node16"><a xlink:href="../../d1/d06/group___o_r_n_l.html#ga7cfce869f65b00cad1f052fbcf7b5f05" target="_top" xlink:title=" ">
<polygon fill="white" stroke="black" points="440,-137 440,-167 580,-167 580,-137 440,-137"/>
<text text-anchor="start" x="448" y="-155" font-family="Helvetica,sans-Serif" font-size="10.00">GamR::ORNL::BananaGate</text>
<text text-anchor="middle" x="510" y="-144" font-family="Helvetica,sans-Serif" font-size="10.00">::SetLYG</text>
</a>
</g>
</g>
<!-- Node4&#45;&gt;Node16 -->
<g id="edge16" class="edge">
<title>Node4&#45;&gt;Node16</title>
<path fill="none" stroke="midnightblue" d="M338,-362.32C346.58,-330.91 377.84,-230.78 440,-177 441.94,-175.32 444,-173.75 446.15,-172.29"/>
<polygon fill="midnightblue" stroke="midnightblue" points="448.02,-175.25 454.83,-167.13 444.45,-169.23 448.02,-175.25"/>
</g>
<!-- Node17 -->
<g id="node17" class="node">
<title>Node17</title>
<g id="a_node17"><a xlink:href="../../d1/d06/group___o_r_n_l.html#ga37d14ea365da5b9bc604b6270ce12c6c" target="_top" xlink:title=" ">
<polygon fill="white" stroke="black" points="440,-88 440,-118 580,-118 580,-88 440,-88"/>
<text text-anchor="start" x="448" y="-106" font-family="Helvetica,sans-Serif" font-size="10.00">GamR::ORNL::BananaGate</text>
<text text-anchor="middle" x="510" y="-95" font-family="Helvetica,sans-Serif" font-size="10.00">::SetNP</text>
</a>
</g>
</g>
<!-- Node4&#45;&gt;Node17 -->
<g id="edge17" class="edge">
<title>Node4&#45;&gt;Node17</title>
<path fill="none" stroke="midnightblue" d="M339.11,-362.35C355.3,-319.24 421.24,-145.72 440,-128 441.66,-126.44 443.42,-124.97 445.26,-123.59"/>
<polygon fill="midnightblue" stroke="midnightblue" points="447.27,-126.46 453.8,-118.12 443.49,-120.57 447.27,-126.46"/>
</g>
<!-- Node18 -->
<g id="node18" class="node">
<title>Node18</title>
<g id="a_node18"><a xlink:href="../../d1/d06/group___o_r_n_l.html#gae35a530867a4df87be125f2df9b27f15" target="_top" xlink:title=" ">
<polygon fill="white" stroke="black" points="440,-39 440,-69 580,-69 580,-39 440,-39"/>
<text text-anchor="start" x="448" y="-57" font-family="Helvetica,sans-Serif" font-size="10.00">GamR::ORNL::BananaGate</text>
<text text-anchor="middle" x="510" y="-46" font-family="Helvetica,sans-Serif" font-size="10.00">::SetNUPM</text>
</a>
</g>
</g>
<!-- Node4&#45;&gt;Node18 -->
<g id="edge18" class="edge">
<title>Node4&#45;&gt;Node18</title>
<path fill="none" stroke="midnightblue" d="M339.64,-362.29C350.77,-336.07 381.94,-261.48 404,-198 422.14,-145.8 401.99,-119.11 440,-79 441.38,-77.54 442.85,-76.17 444.4,-74.88"/>
<polygon fill="midnightblue" stroke="midnightblue" points="446.51,-77.67 452.68,-69.06 442.48,-71.95 446.51,-77.67"/>
</g>
<!-- Node4&#45;&gt;Node19 -->
<g id="edge19" class="edge">
<title>Node4&#45;&gt;Node19</title>
<path fill="none" stroke="midnightblue" d="M339.94,-362.39C351.8,-336.4 384.62,-262.35 404,-198 426.14,-124.46 387.32,-84.88 440,-29 451.52,-16.78 470.12,-12.17 485.1,-10.54"/>
<polygon fill="midnightblue" stroke="midnightblue" points="485.5,-14.02 495.22,-9.81 485,-7.03 485.5,-14.02"/>
</g>
<!-- Node20 -->
<g id="node20" class="node">
<title>Node20</title>
<g id="a_node20"><a xlink:href="../../dc/d89/namespace_gam_r_1_1_spect.html#ab983da62eb972889ea13491189e13913" target="_top" xlink:title=" ">
<polygon fill="white" stroke="black" points="616,-0.5 616,-19.5 758,-19.5 758,-0.5 616,-0.5"/>
<text text-anchor="middle" x="687" y="-7.5" font-family="Helvetica,sans-Serif" font-size="10.00">GamR::Spect::StackSpectra</text>
</a>
</g>
</g>
<!-- Node19&#45;&gt;Node20 -->
<g id="edge20" class="edge">
<title>Node19&#45;&gt;Node20</title>
<path fill="none" stroke="midnightblue" d="M524.73,-10C542.47,-10 574.78,-10 605.84,-10"/>
<polygon fill="midnightblue" stroke="midnightblue" points="605.86,-13.5 615.86,-10 605.86,-6.5 605.86,-13.5"/>
</g>
<!-- Node20&#45;&gt;Node20 -->
<g id="edge22" class="edge">
<title>Node20&#45;&gt;Node20</title>
<path fill="none" stroke="midnightblue" d="M659.87,-19.76C646.68,-28.57 655.72,-38 687,-38 708.51,-38 719.5,-33.54 719.98,-27.89"/>
<polygon fill="midnightblue" stroke="midnightblue" points="722.81,-25.83 714.13,-19.76 717.13,-29.92 722.81,-25.83"/>
</g>
<!-- Node21 -->
<g id="node21" class="node">
<title>Node21</title>
<g id="a_node21"><a xlink:href="../../dc/d89/namespace_gam_r_1_1_spect.html#a56e80bce5bf691212c8b7dfb76c2d2b4" target="_top" xlink:title=" ">
<polygon fill="white" stroke="black" points="794,-0.5 794,-19.5 939,-19.5 939,-0.5 794,-0.5"/>
<text text-anchor="middle" x="866.5" y="-7.5" font-family="Helvetica,sans-Serif" font-size="10.00">GamR::Spect::List1DSpectra</text>
</a>
</g>
</g>
<!-- Node20&#45;&gt;Node21 -->
<g id="edge21" class="edge">
<title>Node20&#45;&gt;Node21</title>
<path fill="none" stroke="midnightblue" d="M758.15,-10C766.58,-10 775.24,-10 783.82,-10"/>
<polygon fill="midnightblue" stroke="midnightblue" points="783.82,-13.5 793.82,-10 783.82,-6.5 783.82,-13.5"/>
</g>
</g>
</svg>
