<?xml version="1.0" encoding="UTF-8" standalone="no"?>
<!DOCTYPE svg PUBLIC "-//W3C//DTD SVG 1.1//EN"
 "http://www.w3.org/Graphics/SVG/1.1/DTD/svg11.dtd">
<!-- Generated by graphviz version 5.0.0 (20220708.1001)
 -->
<!-- Title: GamR::Bateman::Scheme::ReadScheme Pages: 1 -->
<svg width="651pt" height="127pt"
 viewBox="0.00 0.00 651.00 126.50" xmlns="http://www.w3.org/2000/svg" xmlns:xlink="http://www.w3.org/1999/xlink">
<g id="graph0" class="graph" transform="scale(1 1) rotate(0) translate(4 122.5)">
<title>GamR::Bateman::Scheme::ReadScheme</title>
<polygon fill="white" stroke="transparent" points="-4,4 -4,-122.5 647,-122.5 647,4 -4,4"/>
<!-- Node1 -->
<g id="node1" class="node">
<title>Node1</title>
<g id="a_node1"><a xlink:title=" ">
<polygon fill="#bfbfbf" stroke="black" points="0,-39 0,-69 128,-69 128,-39 0,-39"/>
<text text-anchor="start" x="8" y="-57" font-family="Helvetica,sans-Serif" font-size="10.00">GamR::Bateman::Scheme</text>
<text text-anchor="middle" x="64" y="-46" font-family="Helvetica,sans-Serif" font-size="10.00">::ReadScheme</text>
</a>
</g>
</g>
<!-- Node2 -->
<g id="node2" class="node">
<title>Node2</title>
<g id="a_node2"><a xlink:href="../../d9/d72/class_gam_r_1_1_bateman_1_1_scheme.html#a5399a35a314ad2a5ab00be0000c438bc" target="_top" xlink:title=" ">
<polygon fill="white" stroke="black" points="164,-88 164,-118 292,-118 292,-88 164,-88"/>
<text text-anchor="start" x="172" y="-106" font-family="Helvetica,sans-Serif" font-size="10.00">GamR::Bateman::Scheme</text>
<text text-anchor="middle" x="228" y="-95" font-family="Helvetica,sans-Serif" font-size="10.00">::AddNucleus</text>
</a>
</g>
</g>
<!-- Node1&#45;&gt;Node2 -->
<g id="edge1" class="edge">
<title>Node1&#45;&gt;Node2</title>
<path fill="none" stroke="midnightblue" d="M114.93,-69.1C131.48,-74.11 150.07,-79.73 167.29,-84.94"/>
<polygon fill="midnightblue" stroke="midnightblue" points="166.65,-88.4 177.24,-87.95 168.68,-81.7 166.65,-88.4"/>
</g>
<!-- Node3 -->
<g id="node3" class="node">
<title>Node3</title>
<g id="a_node3"><a xlink:href="../../d9/d72/class_gam_r_1_1_bateman_1_1_scheme.html#a85f24a8c3972cbf8d5bbbaae181bbc85" target="_top" xlink:title=" ">
<polygon fill="white" stroke="black" points="164,-39 164,-69 292,-69 292,-39 164,-39"/>
<text text-anchor="start" x="172" y="-57" font-family="Helvetica,sans-Serif" font-size="10.00">GamR::Bateman::Scheme</text>
<text text-anchor="middle" x="228" y="-46" font-family="Helvetica,sans-Serif" font-size="10.00">::NormBranches</text>
</a>
</g>
</g>
<!-- Node1&#45;&gt;Node3 -->
<g id="edge2" class="edge">
<title>Node1&#45;&gt;Node3</title>
<path fill="none" stroke="midnightblue" d="M128.1,-54C136.43,-54 145.04,-54 153.53,-54"/>
<polygon fill="midnightblue" stroke="midnightblue" points="153.81,-57.5 163.81,-54 153.81,-50.5 153.81,-57.5"/>
</g>
<!-- Node4 -->
<g id="node4" class="node">
<title>Node4</title>
<g id="a_node4"><a xlink:href="../../d0/d17/_abbreviations_8cc.html#a5d1794b612bdcca3f4f4baa3d2e38a0b" target="_top" xlink:title=" ">
<polygon fill="white" stroke="black" points="213.5,-0.5 213.5,-19.5 242.5,-19.5 242.5,-0.5 213.5,-0.5"/>
<text text-anchor="middle" x="228" y="-7.5" font-family="Helvetica,sans-Serif" font-size="10.00">ss</text>
</a>
</g>
</g>
<!-- Node1&#45;&gt;Node4 -->
<g id="edge3" class="edge">
<title>Node1&#45;&gt;Node4</title>
<path fill="none" stroke="midnightblue" d="M120.3,-38.98C148.81,-31.24 182.07,-22.2 203.78,-16.31"/>
<polygon fill="midnightblue" stroke="midnightblue" points="204.7,-19.68 213.44,-13.68 202.87,-12.93 204.7,-19.68"/>
</g>
<!-- Node5 -->
<g id="node5" class="node">
<title>Node5</title>
<g id="a_node5"><a xlink:href="../../dc/d89/namespace_gam_r_1_1_spect.html#ab983da62eb972889ea13491189e13913" target="_top" xlink:title=" ">
<polygon fill="white" stroke="black" points="328,-0.5 328,-19.5 466,-19.5 466,-0.5 328,-0.5"/>
<text text-anchor="middle" x="397" y="-7.5" font-family="Helvetica,sans-Serif" font-size="10.00">GamR::Spect::StackSpectra</text>
</a>
</g>
</g>
<!-- Node4&#45;&gt;Node5 -->
<g id="edge4" class="edge">
<title>Node4&#45;&gt;Node5</title>
<path fill="none" stroke="midnightblue" d="M242.67,-10C259.39,-10 289.05,-10 317.85,-10"/>
<polygon fill="midnightblue" stroke="midnightblue" points="317.98,-13.5 327.98,-10 317.98,-6.5 317.98,-13.5"/>
</g>
<!-- Node5&#45;&gt;Node5 -->
<g id="edge6" class="edge">
<title>Node5&#45;&gt;Node5</title>
<path fill="none" stroke="midnightblue" d="M371.11,-19.76C358.51,-28.57 367.14,-38 397,-38 417.06,-38 427.54,-33.74 428.44,-28.27"/>
<polygon fill="midnightblue" stroke="midnightblue" points="431.28,-26.23 422.89,-19.76 425.42,-30.05 431.28,-26.23"/>
</g>
<!-- Node6 -->
<g id="node6" class="node">
<title>Node6</title>
<g id="a_node6"><a xlink:href="../../dc/d89/namespace_gam_r_1_1_spect.html#a56e80bce5bf691212c8b7dfb76c2d2b4" target="_top" xlink:title=" ">
<polygon fill="white" stroke="black" points="502,-0.5 502,-19.5 643,-19.5 643,-0.5 502,-0.5"/>
<text text-anchor="middle" x="572.5" y="-7.5" font-family="Helvetica,sans-Serif" font-size="10.00">GamR::Spect::List1DSpectra</text>
</a>
</g>
</g>
<!-- Node5&#45;&gt;Node6 -->
<g id="edge5" class="edge">
<title>Node5&#45;&gt;Node6</title>
<path fill="none" stroke="midnightblue" d="M466.07,-10C474.53,-10 483.24,-10 491.86,-10"/>
<polygon fill="midnightblue" stroke="midnightblue" points="491.91,-13.5 501.91,-10 491.91,-6.5 491.91,-13.5"/>
</g>
</g>
</svg>
