<?xml version="1.0" encoding="UTF-8" standalone="no"?>
<!DOCTYPE svg PUBLIC "-//W3C//DTD SVG 1.1//EN"
 "http://www.w3.org/Graphics/SVG/1.1/DTD/svg11.dtd">
<!-- Generated by graphviz version 5.0.0 (20220708.1001)
 -->
<!-- Title: src/lib/angdist/WignerD.cc Pages: 1 -->
<svg width="454pt" height="196pt"
 viewBox="0.00 0.00 453.50 196.00" xmlns="http://www.w3.org/2000/svg" xmlns:xlink="http://www.w3.org/1999/xlink">
<g id="graph0" class="graph" transform="scale(1 1) rotate(0) translate(4 192)">
<title>src/lib/angdist/WignerD.cc</title>
<polygon fill="white" stroke="transparent" points="-4,4 -4,-192 449.5,-192 449.5,4 -4,4"/>
<!-- Node1 -->
<g id="node1" class="node">
<title>Node1</title>
<g id="a_node1"><a xlink:title=" ">
<polygon fill="#bfbfbf" stroke="black" points="24,-168.5 24,-187.5 154,-187.5 154,-168.5 24,-168.5"/>
<text text-anchor="middle" x="89" y="-175.5" font-family="Helvetica,sans-Serif" font-size="10.00">src/lib/angdist/WignerD.cc</text>
</a>
</g>
</g>
<!-- Node2 -->
<g id="node2" class="node">
<title>Node2</title>
<g id="a_node2"><a xlink:title=" ">
<polygon fill="white" stroke="#bfbfbf" points="0,-112.5 0,-131.5 44,-131.5 44,-112.5 0,-112.5"/>
<text text-anchor="middle" x="22" y="-119.5" font-family="Helvetica,sans-Serif" font-size="10.00">cmath</text>
</a>
</g>
</g>
<!-- Node1&#45;&gt;Node2 -->
<g id="edge1" class="edge">
<title>Node1&#45;&gt;Node2</title>
<path fill="none" stroke="midnightblue" d="M78.24,-168.32C68.23,-160.26 53.11,-148.08 41.07,-138.37"/>
<polygon fill="midnightblue" stroke="midnightblue" points="42.94,-135.38 32.96,-131.83 38.55,-140.83 42.94,-135.38"/>
</g>
<!-- Node3 -->
<g id="node3" class="node">
<title>Node3</title>
<g id="a_node3"><a xlink:title=" ">
<polygon fill="white" stroke="#bfbfbf" points="62,-112.5 62,-131.5 116,-131.5 116,-112.5 62,-112.5"/>
<text text-anchor="middle" x="89" y="-119.5" font-family="Helvetica,sans-Serif" font-size="10.00">iostream</text>
</a>
</g>
</g>
<!-- Node1&#45;&gt;Node3 -->
<g id="edge2" class="edge">
<title>Node1&#45;&gt;Node3</title>
<path fill="none" stroke="midnightblue" d="M89,-168.08C89,-161.01 89,-150.86 89,-141.99"/>
<polygon fill="midnightblue" stroke="midnightblue" points="92.5,-141.75 89,-131.75 85.5,-141.75 92.5,-141.75"/>
</g>
<!-- Node4 -->
<g id="node4" class="node">
<title>Node4</title>
<g id="a_node4"><a xlink:href="../../df/d67/_wigner_d_8hh.html" target="_top" xlink:title=" ">
<polygon fill="white" stroke="black" points="134,-112.5 134,-131.5 200,-131.5 200,-112.5 134,-112.5"/>
<text text-anchor="middle" x="167" y="-119.5" font-family="Helvetica,sans-Serif" font-size="10.00">WignerD.hh</text>
</a>
</g>
</g>
<!-- Node1&#45;&gt;Node4 -->
<g id="edge3" class="edge">
<title>Node1&#45;&gt;Node4</title>
<path fill="none" stroke="midnightblue" d="M101.53,-168.32C113.59,-159.98 132.03,-147.21 146.27,-137.35"/>
<polygon fill="midnightblue" stroke="midnightblue" points="148.27,-140.22 154.5,-131.65 144.28,-134.47 148.27,-140.22"/>
</g>
<!-- Node5 -->
<g id="node5" class="node">
<title>Node5</title>
<g id="a_node5"><a xlink:title=" ">
<polygon fill="white" stroke="#bfbfbf" points="61.5,-0.5 61.5,-19.5 114.5,-19.5 114.5,-0.5 61.5,-0.5"/>
<text text-anchor="middle" x="88" y="-7.5" font-family="Helvetica,sans-Serif" font-size="10.00">complex</text>
</a>
</g>
</g>
<!-- Node4&#45;&gt;Node5 -->
<g id="edge4" class="edge">
<title>Node4&#45;&gt;Node5</title>
<path fill="none" stroke="midnightblue" d="M160.8,-112.37C147.76,-94.22 117.3,-51.8 100.2,-27.99"/>
<polygon fill="midnightblue" stroke="midnightblue" points="102.85,-25.67 94.17,-19.59 97.16,-29.76 102.85,-25.67"/>
</g>
<!-- Node6 -->
<g id="node6" class="node">
<title>Node6</title>
<g id="a_node6"><a xlink:href="../../d7/db9/_utilities_8hh.html" target="_top" xlink:title=" ">
<polygon fill="white" stroke="black" points="175.5,-56.5 175.5,-75.5 258.5,-75.5 258.5,-56.5 175.5,-56.5"/>
<text text-anchor="middle" x="217" y="-63.5" font-family="Helvetica,sans-Serif" font-size="10.00">utils/Utilities.hh</text>
</a>
</g>
</g>
<!-- Node4&#45;&gt;Node6 -->
<g id="edge5" class="edge">
<title>Node4&#45;&gt;Node6</title>
<path fill="none" stroke="midnightblue" d="M175.26,-112.08C182.46,-104.3 193.11,-92.8 201.85,-83.37"/>
<polygon fill="midnightblue" stroke="midnightblue" points="204.67,-85.47 208.9,-75.75 199.53,-80.71 204.67,-85.47"/>
</g>
<!-- Node6&#45;&gt;Node5 -->
<g id="edge8" class="edge">
<title>Node6&#45;&gt;Node5</title>
<path fill="none" stroke="midnightblue" d="M196.56,-56.44C175.33,-47.56 141.9,-33.56 117.75,-23.45"/>
<polygon fill="midnightblue" stroke="midnightblue" points="118.92,-20.15 108.34,-19.52 116.22,-26.61 118.92,-20.15"/>
</g>
<!-- Node7 -->
<g id="node7" class="node">
<title>Node7</title>
<g id="a_node7"><a xlink:title=" ">
<polygon fill="white" stroke="#bfbfbf" points="132.5,-0.5 132.5,-19.5 173.5,-19.5 173.5,-0.5 132.5,-0.5"/>
<text text-anchor="middle" x="153" y="-7.5" font-family="Helvetica,sans-Serif" font-size="10.00">string</text>
</a>
</g>
</g>
<!-- Node6&#45;&gt;Node7 -->
<g id="edge6" class="edge">
<title>Node6&#45;&gt;Node7</title>
<path fill="none" stroke="midnightblue" d="M206.72,-56.32C197.16,-48.26 182.72,-36.08 171.22,-26.37"/>
<polygon fill="midnightblue" stroke="midnightblue" points="173.37,-23.61 163.47,-19.83 168.86,-28.96 173.37,-23.61"/>
</g>
<!-- Node8 -->
<g id="node8" class="node">
<title>Node8</title>
<g id="a_node8"><a xlink:title=" ">
<polygon fill="white" stroke="#bfbfbf" points="192,-0.5 192,-19.5 242,-19.5 242,-0.5 192,-0.5"/>
<text text-anchor="middle" x="217" y="-7.5" font-family="Helvetica,sans-Serif" font-size="10.00">fstream</text>
</a>
</g>
</g>
<!-- Node6&#45;&gt;Node8 -->
<g id="edge7" class="edge">
<title>Node6&#45;&gt;Node8</title>
<path fill="none" stroke="midnightblue" d="M217,-56.08C217,-49.01 217,-38.86 217,-29.99"/>
<polygon fill="midnightblue" stroke="midnightblue" points="220.5,-29.75 217,-19.75 213.5,-29.75 220.5,-29.75"/>
</g>
<!-- Node9 -->
<g id="node9" class="node">
<title>Node9</title>
<g id="a_node9"><a xlink:title=" ">
<polygon fill="white" stroke="#bfbfbf" points="260.5,-0.5 260.5,-19.5 323.5,-19.5 323.5,-0.5 260.5,-0.5"/>
<text text-anchor="middle" x="292" y="-7.5" font-family="Helvetica,sans-Serif" font-size="10.00">TCanvas.h</text>
</a>
</g>
</g>
<!-- Node6&#45;&gt;Node9 -->
<g id="edge9" class="edge">
<title>Node6&#45;&gt;Node9</title>
<path fill="none" stroke="midnightblue" d="M229.05,-56.32C240.46,-48.11 257.83,-35.6 271.43,-25.81"/>
<polygon fill="midnightblue" stroke="midnightblue" points="273.66,-28.52 279.73,-19.83 269.57,-22.84 273.66,-28.52"/>
</g>
<!-- Node10 -->
<g id="node10" class="node">
<title>Node10</title>
<g id="a_node10"><a xlink:title=" ">
<polygon fill="white" stroke="#bfbfbf" points="341.5,-0.5 341.5,-19.5 384.5,-19.5 384.5,-0.5 341.5,-0.5"/>
<text text-anchor="middle" x="363" y="-7.5" font-family="Helvetica,sans-Serif" font-size="10.00">TH1.h</text>
</a>
</g>
</g>
<!-- Node6&#45;&gt;Node10 -->
<g id="edge10" class="edge">
<title>Node6&#45;&gt;Node10</title>
<path fill="none" stroke="midnightblue" d="M240.13,-56.44C264.91,-47.28 304.37,-32.68 331.86,-22.52"/>
<polygon fill="midnightblue" stroke="midnightblue" points="333.24,-25.74 341.4,-18.99 330.81,-19.17 333.24,-25.74"/>
</g>
<!-- Node11 -->
<g id="node11" class="node">
<title>Node11</title>
<g id="a_node11"><a xlink:title=" ">
<polygon fill="white" stroke="#bfbfbf" points="402.5,-0.5 402.5,-19.5 445.5,-19.5 445.5,-0.5 402.5,-0.5"/>
<text text-anchor="middle" x="424" y="-7.5" font-family="Helvetica,sans-Serif" font-size="10.00">TH2.h</text>
</a>
</g>
</g>
<!-- Node6&#45;&gt;Node11 -->
<g id="edge11" class="edge">
<title>Node6&#45;&gt;Node11</title>
<path fill="none" stroke="midnightblue" d="M252.38,-56.47C286.16,-48.23 338.73,-35.13 392.67,-20.29"/>
<polygon fill="midnightblue" stroke="midnightblue" points="393.7,-23.64 402.4,-17.6 391.83,-16.89 393.7,-23.64"/>
</g>
</g>
</svg>
