<?xml version="1.0" encoding="UTF-8" standalone="no"?>
<!DOCTYPE svg PUBLIC "-//W3C//DTD SVG 1.1//EN"
 "http://www.w3.org/Graphics/SVG/1.1/DTD/svg11.dtd">
<!-- Generated by graphviz version 6.0.2 (20221011.1828)
 -->
<!-- Title: src/bin/gamrcal/Gain.hh Pages: 1 -->
<svg width="280pt" height="82pt"
 viewBox="0.00 0.00 279.50 82.00" xmlns="http://www.w3.org/2000/svg" xmlns:xlink="http://www.w3.org/1999/xlink">
<g id="graph0" class="graph" transform="scale(1 1) rotate(0) translate(4 78)">
<title>src/bin/gamrcal/Gain.hh</title>
<!-- Node1 -->
<g id="node1" class="node">
<title>Node1</title>
<g id="a_node1"><a xlink:title=" ">
<polygon fill="#999999" stroke="#666666" points="191,-74 72,-74 72,-55 191,-55 191,-74"/>
<text text-anchor="middle" x="131.5" y="-62" font-family="Helvetica,sans-Serif" font-size="10.00">src/bin/gamrcal/Gain.hh</text>
</a>
</g>
</g>
<!-- Node2 -->
<g id="node2" class="node">
<title>Node2</title>
<g id="a_node2"><a xlink:href="../../d9/ddb/_gain_8cc.html" target="_top" xlink:title=" ">
<polygon fill="white" stroke="#666666" points="119,-19 0,-19 0,0 119,0 119,-19"/>
<text text-anchor="middle" x="59.5" y="-7" font-family="Helvetica,sans-Serif" font-size="10.00">src/bin/gamrcal/Gain.cc</text>
</a>
</g>
</g>
<!-- Node1&#45;&gt;Node2 -->
<g id="edge1" class="edge">
<title>Node1&#45;&gt;Node2</title>
<path fill="none" stroke="#63b8ff" d="M111.63,-48.88C98.68,-39.34 82.2,-27.21 71.28,-19.17"/>
<polygon fill="#63b8ff" stroke="#63b8ff" points="109.8,-51.88 119.93,-54.98 113.95,-46.24 109.8,-51.88"/>
</g>
<!-- Node3 -->
<g id="node3" class="node">
<title>Node3</title>
<g id="a_node3"><a xlink:href="../../df/d34/gamrcal_8cc.html" target="_top" xlink:title=" ">
<polygon fill="white" stroke="#666666" points="271.5,-19 137.5,-19 137.5,0 271.5,0 271.5,-19"/>
<text text-anchor="middle" x="204.5" y="-7" font-family="Helvetica,sans-Serif" font-size="10.00">src/bin/gamrcal/gamrcal.cc</text>
</a>
</g>
</g>
<!-- Node1&#45;&gt;Node3 -->
<g id="edge2" class="edge">
<title>Node1&#45;&gt;Node3</title>
<path fill="none" stroke="#63b8ff" d="M151.64,-48.88C164.78,-39.34 181.48,-27.21 192.56,-19.17"/>
<polygon fill="#63b8ff" stroke="#63b8ff" points="149.26,-46.28 143.23,-54.98 153.38,-51.94 149.26,-46.28"/>
</g>
</g>
</svg>
