<?xml version="1.0" encoding="UTF-8" standalone="no"?>
<!DOCTYPE svg PUBLIC "-//W3C//DTD SVG 1.1//EN"
 "http://www.w3.org/Graphics/SVG/1.1/DTD/svg11.dtd">
<!-- Generated by graphviz version 8.1.0 (20230707.0739)
 -->
<!-- Title: GamR::TK::Gate::SetGate Pages: 1 -->
<svg width="672pt" height="777pt"
 viewBox="0.00 0.00 672.00 776.88" xmlns="http://www.w3.org/2000/svg" xmlns:xlink="http://www.w3.org/1999/xlink">
<g id="graph0" class="graph" transform="scale(1 1) rotate(0) translate(4 772.88)">
<title>GamR::TK::Gate::SetGate</title>
<!-- Node1 -->
<g id="Node000001" class="node">
<title>Node1</title>
<g id="a_Node000001"><a xlink:title=" ">
<polygon fill="#999999" stroke="#666666" points="664,-411.88 537,-411.88 537,-392.62 664,-392.62 664,-411.88"/>
<text text-anchor="middle" x="600.5" y="-398.38" font-family="Helvetica,sans-Serif" font-size="10.00">GamR::TK::Gate::SetGate</text>
</a>
</g>
</g>
<!-- Node1&#45;&gt;Node1 -->
<g id="edge24_Node000001_Node000001" class="edge">
<title>Node1&#45;&gt;Node1</title>
<g id="a_edge24_Node000001_Node000001"><a xlink:title=" ">
<path fill="none" stroke="#63b8ff" d="M634.71,-421.9C631.85,-426.49 620.45,-429.88 600.5,-429.88 567.76,-429.88 558.04,-420.77 571.34,-412.16"/>
<polygon fill="#63b8ff" stroke="#63b8ff" points="637.37,-420.43 629.66,-413.16 631.15,-423.65 637.37,-420.43"/>
</a>
</g>
</g>
<!-- Node2 -->
<g id="Node000002" class="node">
<title>Node2</title>
<g id="a_Node000002"><a xlink:href="../../d0/d74/group___t_k.html#gae9e7a2277b72a85f1cb3dc21583dad46" target="_top" xlink:title=" ">
<polygon fill="white" stroke="#666666" points="470.25,-768.88 358.25,-768.88 358.25,-749.62 470.25,-749.62 470.25,-768.88"/>
<text text-anchor="middle" x="414.25" y="-755.38" font-family="Helvetica,sans-Serif" font-size="10.00">GamR::TK::Gate::Gate</text>
</a>
</g>
</g>
<!-- Node1&#45;&gt;Node2 -->
<g id="edge1_Node000001_Node000002" class="edge">
<title>Node1&#45;&gt;Node2</title>
<g id="a_edge1_Node000001_Node000002"><a xlink:title=" ">
<path fill="none" stroke="#63b8ff" d="M600.25,-423.02C601.18,-482.36 595.21,-653.93 501,-741.25 492.63,-749.01 481.81,-753.76 470.68,-756.61"/>
<polygon fill="#63b8ff" stroke="#63b8ff" points="603.73,-423.05 599.98,-413.14 596.73,-423.22 603.73,-423.05"/>
</a>
</g>
</g>
<!-- Node3 -->
<g id="Node000003" class="node">
<title>Node3</title>
<g id="a_Node000003"><a xlink:href="../../d0/d74/group___t_k.html#gafaf34fe8217b871a2569ba5cedc2922a" target="_top" xlink:title=" ">
<polygon fill="white" stroke="#666666" points="470.25,-731.88 358.25,-731.88 358.25,-712.62 470.25,-712.62 470.25,-731.88"/>
<text text-anchor="middle" x="414.25" y="-718.38" font-family="Helvetica,sans-Serif" font-size="10.00">GamR::TK::Gate::Gate</text>
</a>
</g>
</g>
<!-- Node1&#45;&gt;Node3 -->
<g id="edge2_Node000001_Node000003" class="edge">
<title>Node1&#45;&gt;Node3</title>
<g id="a_edge2_Node000001_Node000003"><a xlink:title=" ">
<path fill="none" stroke="#63b8ff" d="M599.39,-422.94C597.91,-477.82 585.92,-628.07 501,-704.25 492.51,-711.87 481.63,-716.57 470.5,-719.4"/>
<polygon fill="#63b8ff" stroke="#63b8ff" points="602.9,-423.26 599.57,-413.2 595.9,-423.14 602.9,-423.26"/>
</a>
</g>
</g>
<!-- Node4 -->
<g id="Node000004" class="node">
<title>Node4</title>
<g id="a_Node000004"><a xlink:href="../../d0/d74/group___t_k.html#ga029b80aaa05f8bf9191e2881aed8acb1" target="_top" xlink:title=" ">
<polygon fill="white" stroke="#666666" points="470.25,-694.88 358.25,-694.88 358.25,-675.62 470.25,-675.62 470.25,-694.88"/>
<text text-anchor="middle" x="414.25" y="-681.38" font-family="Helvetica,sans-Serif" font-size="10.00">GamR::TK::Gate::Gate</text>
</a>
</g>
</g>
<!-- Node1&#45;&gt;Node4 -->
<g id="edge3_Node000001_Node000004" class="edge">
<title>Node1&#45;&gt;Node4</title>
<g id="a_edge3_Node000001_Node000004"><a xlink:title=" ">
<path fill="none" stroke="#63b8ff" d="M598.23,-422.95C594.01,-472.96 576.02,-601 501,-666.25 492.49,-673.66 481.73,-678.37 470.74,-681.32"/>
<polygon fill="#63b8ff" stroke="#63b8ff" points="601.78,-423.48 599.02,-413.25 594.8,-422.97 601.78,-423.48"/>
</a>
</g>
</g>
<!-- Node5 -->
<g id="Node000005" class="node">
<title>Node5</title>
<g id="a_Node000005"><a xlink:href="../../df/d6f/class_gam_r_1_1_nucleus_1_1_transition.html#a749780b387299dfc3a61bbaba9a0fa3d" target="_top" xlink:title=" ">
<polygon fill="white" stroke="#666666" points="480,-657.5 348.5,-657.5 348.5,-627 480,-627 480,-657.5"/>
<text text-anchor="start" x="356.5" y="-644" font-family="Helvetica,sans-Serif" font-size="10.00">GamR::Nucleus::Transition</text>
<text text-anchor="middle" x="414.25" y="-632.75" font-family="Helvetica,sans-Serif" font-size="10.00">::AddBackground</text>
</a>
</g>
</g>
<!-- Node1&#45;&gt;Node5 -->
<g id="edge4_Node000001_Node000005" class="edge">
<title>Node1&#45;&gt;Node5</title>
<g id="a_edge4_Node000001_Node000005"><a xlink:title=" ">
<path fill="none" stroke="#63b8ff" d="M595.97,-422.81C587.55,-465.55 562.21,-564.37 501,-617.25 494.9,-622.52 487.74,-626.68 480.2,-629.97"/>
<polygon fill="#63b8ff" stroke="#63b8ff" points="599.57,-423.58 597.95,-413.11 592.69,-422.31 599.57,-423.58"/>
</a>
</g>
</g>
<!-- Node7 -->
<g id="Node000007" class="node">
<title>Node7</title>
<g id="a_Node000007"><a xlink:href="../../df/d6f/class_gam_r_1_1_nucleus_1_1_transition.html#a8371c35b7871fc83888dbb2c38a06f3d" target="_top" xlink:title=" ">
<polygon fill="white" stroke="#666666" points="480,-608.5 348.5,-608.5 348.5,-578 480,-578 480,-608.5"/>
<text text-anchor="start" x="356.5" y="-595" font-family="Helvetica,sans-Serif" font-size="10.00">GamR::Nucleus::Transition</text>
<text text-anchor="middle" x="414.25" y="-583.75" font-family="Helvetica,sans-Serif" font-size="10.00">::AddBackground</text>
</a>
</g>
</g>
<!-- Node1&#45;&gt;Node7 -->
<g id="edge6_Node000001_Node000007" class="edge">
<title>Node1&#45;&gt;Node7</title>
<g id="a_edge6_Node000001_Node000007"><a xlink:title=" ">
<path fill="none" stroke="#63b8ff" d="M593.25,-422.34C581.24,-457.55 551.57,-530.38 501,-569.25 494.75,-574.06 487.59,-577.9 480.12,-580.97"/>
<polygon fill="#63b8ff" stroke="#63b8ff" points="596.74,-423.91 596.53,-413.32 590.09,-421.73 596.74,-423.91"/>
</a>
</g>
</g>
<!-- Node8 -->
<g id="Node000008" class="node">
<title>Node8</title>
<g id="a_Node000008"><a xlink:href="../../dc/d89/namespace_gam_r_1_1_spect.html#a9ca36cc95dbd271270ca12575c69d826" target="_top" xlink:title=" ">
<polygon fill="white" stroke="#666666" points="501,-559.88 327.5,-559.88 327.5,-540.62 501,-540.62 501,-559.88"/>
<text text-anchor="middle" x="414.25" y="-546.38" font-family="Helvetica,sans-Serif" font-size="10.00">GamR::Spect::BackgroundSubtractX</text>
</a>
</g>
</g>
<!-- Node1&#45;&gt;Node8 -->
<g id="edge7_Node000001_Node000008" class="edge">
<title>Node1&#45;&gt;Node8</title>
<g id="a_edge7_Node000001_Node000008"><a xlink:title=" ">
<path fill="none" stroke="#63b8ff" d="M590.21,-422.18C575.57,-451.26 544.27,-504.84 501,-532.25 495.99,-535.42 490.51,-538.05 484.83,-540.22"/>
<polygon fill="#63b8ff" stroke="#63b8ff" points="593.77,-423.86 595,-413.34 587.48,-420.8 593.77,-423.86"/>
</a>
</g>
</g>
<!-- Node9 -->
<g id="Node000009" class="node">
<title>Node9</title>
<g id="a_Node000009"><a xlink:href="../../dc/d89/namespace_gam_r_1_1_spect.html#ac28aecfca0ea36bb200357332620c979" target="_top" xlink:title=" ">
<polygon fill="white" stroke="#666666" points="501,-522.88 327.5,-522.88 327.5,-503.62 501,-503.62 501,-522.88"/>
<text text-anchor="middle" x="414.25" y="-509.38" font-family="Helvetica,sans-Serif" font-size="10.00">GamR::Spect::BackgroundSubtractX</text>
</a>
</g>
</g>
<!-- Node1&#45;&gt;Node9 -->
<g id="edge8_Node000001_Node000009" class="edge">
<title>Node1&#45;&gt;Node9</title>
<g id="a_edge8_Node000001_Node000009"><a xlink:title=" ">
<path fill="none" stroke="#63b8ff" d="M585.31,-420.79C567.86,-442.21 536.22,-476.83 501,-495.25 494.93,-498.42 488.35,-501.03 481.62,-503.19"/>
<polygon fill="#63b8ff" stroke="#63b8ff" points="588.61,-423.26 592.08,-413.25 583.12,-418.91 588.61,-423.26"/>
</a>
</g>
</g>
<!-- Node10 -->
<g id="Node000010" class="node">
<title>Node10</title>
<g id="a_Node000010"><a xlink:href="../../dc/d89/namespace_gam_r_1_1_spect.html#a53fe10f1093af796bb59a75a3f2b77d8" target="_top" xlink:title=" ">
<polygon fill="white" stroke="#666666" points="501,-485.88 327.5,-485.88 327.5,-466.62 501,-466.62 501,-485.88"/>
<text text-anchor="middle" x="414.25" y="-472.38" font-family="Helvetica,sans-Serif" font-size="10.00">GamR::Spect::BackgroundSubtractY</text>
</a>
</g>
</g>
<!-- Node1&#45;&gt;Node10 -->
<g id="edge9_Node000001_Node000010" class="edge">
<title>Node1&#45;&gt;Node10</title>
<g id="a_edge9_Node000001_Node000010"><a xlink:title=" ">
<path fill="none" stroke="#63b8ff" d="M576.24,-418.24C556.89,-430.84 528.23,-447.94 501,-458.25 492.75,-461.37 483.83,-464.01 474.98,-466.21"/>
<polygon fill="#63b8ff" stroke="#63b8ff" points="577.79,-420.74 584.19,-412.29 573.92,-414.91 577.79,-420.74"/>
</a>
</g>
</g>
<!-- Node11 -->
<g id="Node000011" class="node">
<title>Node11</title>
<g id="a_Node000011"><a xlink:href="../../dc/d89/namespace_gam_r_1_1_spect.html#a9f57e2825e847c472a276c5f021c6923" target="_top" xlink:title=" ">
<polygon fill="white" stroke="#666666" points="501,-448.88 327.5,-448.88 327.5,-429.62 501,-429.62 501,-448.88"/>
<text text-anchor="middle" x="414.25" y="-435.38" font-family="Helvetica,sans-Serif" font-size="10.00">GamR::Spect::BackgroundSubtractY</text>
</a>
</g>
</g>
<!-- Node1&#45;&gt;Node11 -->
<g id="edge10_Node000001_Node000011" class="edge">
<title>Node1&#45;&gt;Node11</title>
<g id="a_edge10_Node000001_Node000011"><a xlink:title=" ">
<path fill="none" stroke="#63b8ff" d="M538.52,-414.5C514.85,-419.25 488.07,-424.63 465.54,-429.15"/>
<polygon fill="#63b8ff" stroke="#63b8ff" points="539.04,-417.76 548.15,-412.36 537.66,-410.9 539.04,-417.76"/>
</a>
</g>
</g>
<!-- Node12 -->
<g id="Node000012" class="node">
<title>Node12</title>
<g id="a_Node000012"><a xlink:href="../../dc/d89/namespace_gam_r_1_1_spect.html#aa1fbd17f2b3fd599b0934ebdd7c21c9e" target="_top" xlink:title=" ">
<polygon fill="white" stroke="#666666" points="468.75,-411.88 359.75,-411.88 359.75,-392.62 468.75,-392.62 468.75,-411.88"/>
<text text-anchor="middle" x="414.25" y="-398.38" font-family="Helvetica,sans-Serif" font-size="10.00">GamR::Spect::Counts</text>
</a>
</g>
</g>
<!-- Node1&#45;&gt;Node12 -->
<g id="edge11_Node000001_Node000012" class="edge">
<title>Node1&#45;&gt;Node12</title>
<g id="a_edge11_Node000001_Node000012"><a xlink:title=" ">
<path fill="none" stroke="#63b8ff" d="M525.87,-402.25C506.85,-402.25 486.74,-402.25 468.96,-402.25"/>
<polygon fill="#63b8ff" stroke="#63b8ff" points="525.61,-405.75 535.61,-402.25 525.61,-398.75 525.61,-405.75"/>
</a>
</g>
</g>
<!-- Node13 -->
<g id="Node000013" class="node">
<title>Node13</title>
<g id="a_Node000013"><a xlink:href="../../dc/d89/namespace_gam_r_1_1_spect.html#ab9f4f42a73451552ba75545e3d28e352" target="_top" xlink:title=" ">
<polygon fill="white" stroke="#666666" points="469.5,-374.88 359,-374.88 359,-355.62 469.5,-355.62 469.5,-374.88"/>
<text text-anchor="middle" x="414.25" y="-361.38" font-family="Helvetica,sans-Serif" font-size="10.00">GamR::Spect::Integral</text>
</a>
</g>
</g>
<!-- Node1&#45;&gt;Node13 -->
<g id="edge12_Node000001_Node000013" class="edge">
<title>Node1&#45;&gt;Node13</title>
<g id="a_edge12_Node000001_Node000013"><a xlink:title=" ">
<path fill="none" stroke="#63b8ff" d="M538.52,-390C514.85,-385.25 488.07,-379.87 465.54,-375.35"/>
<polygon fill="#63b8ff" stroke="#63b8ff" points="537.66,-393.6 548.15,-392.14 539.04,-386.74 537.66,-393.6"/>
</a>
</g>
</g>
<!-- Node14 -->
<g id="Node000014" class="node">
<title>Node14</title>
<g id="a_Node000014"><a xlink:href="../../dc/d89/namespace_gam_r_1_1_spect.html#a65d31e04d30d9c24dc657bef81f251bb" target="_top" xlink:title=" ">
<polygon fill="white" stroke="#666666" points="482.25,-337.88 346.25,-337.88 346.25,-318.62 482.25,-318.62 482.25,-337.88"/>
<text text-anchor="middle" x="414.25" y="-324.38" font-family="Helvetica,sans-Serif" font-size="10.00">GamR::Spect::NormSpectra</text>
</a>
</g>
</g>
<!-- Node1&#45;&gt;Node14 -->
<g id="edge13_Node000001_Node000014" class="edge">
<title>Node1&#45;&gt;Node14</title>
<g id="a_edge13_Node000001_Node000014"><a xlink:title=" ">
<path fill="none" stroke="#63b8ff" d="M576.24,-386.26C556.89,-373.66 528.23,-356.56 501,-346.25 492.75,-343.13 483.83,-340.49 474.98,-338.29"/>
<polygon fill="#63b8ff" stroke="#63b8ff" points="573.92,-389.59 584.19,-392.21 577.79,-383.76 573.92,-389.59"/>
</a>
</g>
</g>
<!-- Node16 -->
<g id="Node000016" class="node">
<title>Node16</title>
<g id="a_Node000016"><a xlink:href="../../dc/d89/namespace_gam_r_1_1_spect.html#aa4da6909a49d9510105c06b27cd4bffc" target="_top" xlink:title=" ">
<polygon fill="white" stroke="#666666" points="482.25,-300.5 346.25,-300.5 346.25,-270 482.25,-270 482.25,-300.5"/>
<text text-anchor="start" x="354.25" y="-287" font-family="Helvetica,sans-Serif" font-size="10.00">GamR::Spect::NormSpectra</text>
<text text-anchor="middle" x="414.25" y="-275.75" font-family="Helvetica,sans-Serif" font-size="10.00">BackSub</text>
</a>
</g>
</g>
<!-- Node1&#45;&gt;Node16 -->
<g id="edge15_Node000001_Node000016" class="edge">
<title>Node1&#45;&gt;Node16</title>
<g id="a_edge15_Node000001_Node000016"><a xlink:title=" ">
<path fill="none" stroke="#63b8ff" d="M584.81,-383.78C567.11,-362.73 535.42,-328.72 501,-309.25 495.21,-305.98 488.95,-303.13 482.54,-300.65"/>
<polygon fill="#63b8ff" stroke="#63b8ff" points="582.67,-385.68 591.72,-391.19 588.08,-381.24 582.67,-385.68"/>
</a>
</g>
</g>
<!-- Node18 -->
<g id="Node000018" class="node">
<title>Node18</title>
<g id="a_Node000018"><a xlink:href="../../d0/d74/group___t_k.html#gae4004cebef30dfa7f80ef2e11d589ba2" target="_top" xlink:title=" ">
<polygon fill="white" stroke="#666666" points="471.38,-251.88 357.12,-251.88 357.12,-232.62 471.38,-232.62 471.38,-251.88"/>
<text text-anchor="middle" x="414.25" y="-238.38" font-family="Helvetica,sans-Serif" font-size="10.00">GamR::TK::BPeak::Set</text>
</a>
</g>
</g>
<!-- Node1&#45;&gt;Node18 -->
<g id="edge17_Node000001_Node000018" class="edge">
<title>Node1&#45;&gt;Node18</title>
<g id="a_edge17_Node000001_Node000018"><a xlink:title=" ">
<path fill="none" stroke="#63b8ff" d="M591.23,-382.04C577.4,-350.93 546.54,-291.71 501,-261.25 492.25,-255.4 481.99,-251.32 471.67,-248.49"/>
<polygon fill="#63b8ff" stroke="#63b8ff" points="588.39,-383.32 595.55,-391.13 594.83,-380.56 588.39,-383.32"/>
</a>
</g>
</g>
<!-- Node19 -->
<g id="Node000019" class="node">
<title>Node19</title>
<g id="a_Node000019"><a xlink:href="../../d0/d74/group___t_k.html#ga4f526f6f266c468a27e072932764f83a" target="_top" xlink:title=" ">
<polygon fill="white" stroke="#666666" points="471.38,-214.88 357.12,-214.88 357.12,-195.62 471.38,-195.62 471.38,-214.88"/>
<text text-anchor="middle" x="414.25" y="-201.38" font-family="Helvetica,sans-Serif" font-size="10.00">GamR::TK::BPeak::Set</text>
</a>
</g>
</g>
<!-- Node1&#45;&gt;Node19 -->
<g id="edge18_Node000001_Node000019" class="edge">
<title>Node1&#45;&gt;Node19</title>
<g id="a_edge18_Node000001_Node000019"><a xlink:title=" ">
<path fill="none" stroke="#63b8ff" d="M594.39,-381.95C583.81,-344.3 555.77,-263.8 501,-223.25 492.44,-216.91 482.15,-212.7 471.72,-209.91"/>
<polygon fill="#63b8ff" stroke="#63b8ff" points="591.16,-382.41 597.13,-391.17 597.92,-380.6 591.16,-382.41"/>
</a>
</g>
</g>
<!-- Node20 -->
<g id="Node000020" class="node">
<title>Node20</title>
<g id="a_Node000020"><a xlink:href="../../df/d6f/class_gam_r_1_1_nucleus_1_1_transition.html#a0bdde1b1141578330beeab42b8b5dbc4" target="_top" xlink:title=" ">
<polygon fill="white" stroke="#666666" points="480,-177.5 348.5,-177.5 348.5,-147 480,-147 480,-177.5"/>
<text text-anchor="start" x="356.5" y="-164" font-family="Helvetica,sans-Serif" font-size="10.00">GamR::Nucleus::Transition</text>
<text text-anchor="middle" x="414.25" y="-152.75" font-family="Helvetica,sans-Serif" font-size="10.00">::SetBackground</text>
</a>
</g>
</g>
<!-- Node1&#45;&gt;Node20 -->
<g id="edge19_Node000001_Node000020" class="edge">
<title>Node1&#45;&gt;Node20</title>
<g id="a_edge19_Node000001_Node000020"><a xlink:title=" ">
<path fill="none" stroke="#63b8ff" d="M596.05,-381.54C587.77,-338.51 562.69,-239.05 501,-186.25 494.89,-181.02 487.73,-176.93 480.19,-173.72"/>
<polygon fill="#63b8ff" stroke="#63b8ff" points="592.77,-382.1 597.99,-391.32 599.66,-380.86 592.77,-382.1"/>
</a>
</g>
</g>
<!-- Node24 -->
<g id="Node000024" class="node">
<title>Node24</title>
<g id="a_Node000024"><a xlink:href="../../df/d6f/class_gam_r_1_1_nucleus_1_1_transition.html#ab7389e82991abbb843a76e8d241f1fb6" target="_top" xlink:title=" ">
<polygon fill="white" stroke="#666666" points="480,-128.5 348.5,-128.5 348.5,-98 480,-98 480,-128.5"/>
<text text-anchor="start" x="356.5" y="-115" font-family="Helvetica,sans-Serif" font-size="10.00">GamR::Nucleus::Transition</text>
<text text-anchor="middle" x="414.25" y="-103.75" font-family="Helvetica,sans-Serif" font-size="10.00">::SetBackground</text>
</a>
</g>
</g>
<!-- Node1&#45;&gt;Node24 -->
<g id="edge23_Node000001_Node000024" class="edge">
<title>Node1&#45;&gt;Node24</title>
<g id="a_edge23_Node000001_Node000024"><a xlink:title=" ">
<path fill="none" stroke="#63b8ff" d="M597.89,-381.2C592.94,-331.44 573.52,-205.63 501,-138.25 494.98,-132.66 487.78,-128.31 480.14,-124.93"/>
<polygon fill="#63b8ff" stroke="#63b8ff" points="594.49,-381.49 598.86,-391.14 601.46,-380.87 594.49,-381.49"/>
</a>
</g>
</g>
<!-- Node25 -->
<g id="Node000025" class="node">
<title>Node25</title>
<g id="a_Node000025"><a xlink:href="../../df/d6f/class_gam_r_1_1_nucleus_1_1_transition.html#a55eeee9e8bc166f0ef8cce260b3da59b" target="_top" xlink:title=" ">
<polygon fill="white" stroke="#666666" points="480,-79.5 348.5,-79.5 348.5,-49 480,-49 480,-79.5"/>
<text text-anchor="start" x="356.5" y="-66" font-family="Helvetica,sans-Serif" font-size="10.00">GamR::Nucleus::Transition</text>
<text text-anchor="middle" x="414.25" y="-54.75" font-family="Helvetica,sans-Serif" font-size="10.00">::SetPeak</text>
</a>
</g>
</g>
<!-- Node1&#45;&gt;Node25 -->
<g id="edge25_Node000001_Node000025" class="edge">
<title>Node1&#45;&gt;Node25</title>
<g id="a_edge25_Node000001_Node000025"><a xlink:title=" ">
<path fill="none" stroke="#63b8ff" d="M599.31,-381.19C597.64,-325.26 585.2,-171.69 501,-89.25 495.13,-83.5 488.01,-79.06 480.42,-75.63"/>
<polygon fill="#63b8ff" stroke="#63b8ff" points="595.83,-381.2 599.53,-391.13 602.83,-381.06 595.83,-381.2"/>
</a>
</g>
</g>
<!-- Node26 -->
<g id="Node000026" class="node">
<title>Node26</title>
<g id="a_Node000026"><a xlink:href="../../df/d6f/class_gam_r_1_1_nucleus_1_1_transition.html#abd535b48f51c183c031975d06d422b08" target="_top" xlink:title=" ">
<polygon fill="white" stroke="#666666" points="480,-30.5 348.5,-30.5 348.5,0 480,0 480,-30.5"/>
<text text-anchor="start" x="356.5" y="-17" font-family="Helvetica,sans-Serif" font-size="10.00">GamR::Nucleus::Transition</text>
<text text-anchor="middle" x="414.25" y="-5.75" font-family="Helvetica,sans-Serif" font-size="10.00">::SetPeak</text>
</a>
</g>
</g>
<!-- Node1&#45;&gt;Node26 -->
<g id="edge27_Node000001_Node000026" class="edge">
<title>Node1&#45;&gt;Node26</title>
<g id="a_edge27_Node000001_Node000026"><a xlink:title=" ">
<path fill="none" stroke="#63b8ff" d="M596.58,-381.75C586.38,-312.73 550.19,-90.33 501,-40.25 495.13,-34.28 487.92,-29.71 480.2,-26.22"/>
<polygon fill="#63b8ff" stroke="#63b8ff" points="593.24,-382.06 598.14,-391.45 600.17,-381.05 593.24,-382.06"/>
</a>
</g>
</g>
<!-- Node6 -->
<g id="Node000006" class="node">
<title>Node6</title>
<g id="a_Node000006"><a xlink:href="../../dc/d89/namespace_gam_r_1_1_spect.html#ae4617cc4b723ae8ff59b0521c25ee484" target="_top" xlink:title=" ">
<polygon fill="white" stroke="#666666" points="287,-651.88 164.5,-651.88 164.5,-632.62 287,-632.62 287,-651.88"/>
<text text-anchor="middle" x="225.75" y="-638.38" font-family="Helvetica,sans-Serif" font-size="10.00">GamR::Spect::CountsBS</text>
</a>
</g>
</g>
<!-- Node5&#45;&gt;Node6 -->
<g id="edge5_Node000005_Node000006" class="edge">
<title>Node5&#45;&gt;Node6</title>
<g id="a_edge5_Node000005_Node000006"><a xlink:title=" ">
<path fill="none" stroke="#63b8ff" d="M337.22,-642.25C320.58,-642.25 303.19,-642.25 287.25,-642.25"/>
<polygon fill="#63b8ff" stroke="#63b8ff" points="337.02,-645.75 347.02,-642.25 337.02,-638.75 337.02,-645.75"/>
</a>
</g>
</g>
<!-- Node15 -->
<g id="Node000015" class="node">
<title>Node15</title>
<g id="a_Node000015"><a xlink:href="../../d0/d17/_abbreviations_8cc.html#a8150489ebcfa245dd4ea5c051de4181d" target="_top" xlink:title=" ">
<polygon fill="white" stroke="#666666" points="240.15,-337.88 211.35,-337.88 211.35,-318.62 240.15,-318.62 240.15,-337.88"/>
<text text-anchor="middle" x="225.75" y="-324.38" font-family="Helvetica,sans-Serif" font-size="10.00">ns</text>
</a>
</g>
</g>
<!-- Node14&#45;&gt;Node15 -->
<g id="edge14_Node000014_Node000015" class="edge">
<title>Node14&#45;&gt;Node15</title>
<g id="a_edge14_Node000014_Node000015"><a xlink:title=" ">
<path fill="none" stroke="#63b8ff" d="M334.98,-328.25C299.33,-328.25 260.68,-328.25 240.62,-328.25"/>
<polygon fill="#63b8ff" stroke="#63b8ff" points="334.92,-331.75 344.92,-328.25 334.92,-324.75 334.92,-331.75"/>
</a>
</g>
</g>
<!-- Node17 -->
<g id="Node000017" class="node">
<title>Node17</title>
<g id="a_Node000017"><a xlink:href="../../d0/d17/_abbreviations_8cc.html#ae47533f48063bc9ba85ff0be37004a05" target="_top" xlink:title=" ">
<polygon fill="white" stroke="#666666" points="244.25,-294.88 207.25,-294.88 207.25,-275.62 244.25,-275.62 244.25,-294.88"/>
<text text-anchor="middle" x="225.75" y="-281.38" font-family="Helvetica,sans-Serif" font-size="10.00">nsbs</text>
</a>
</g>
</g>
<!-- Node16&#45;&gt;Node17 -->
<g id="edge16_Node000016_Node000017" class="edge">
<title>Node16&#45;&gt;Node17</title>
<g id="a_edge16_Node000016_Node000017"><a xlink:title=" ">
<path fill="none" stroke="#63b8ff" d="M335.14,-285.25C301.59,-285.25 265.34,-285.25 244.42,-285.25"/>
<polygon fill="#63b8ff" stroke="#63b8ff" points="334.92,-288.75 344.92,-285.25 334.92,-281.75 334.92,-288.75"/>
</a>
</g>
</g>
<!-- Node21 -->
<g id="Node000021" class="node">
<title>Node21</title>
<g id="a_Node000021"><a xlink:href="../../df/d6f/class_gam_r_1_1_nucleus_1_1_transition.html#a8396c7f1f74d0314bf9e4c4cfe07e033" target="_top" xlink:title=" ">
<polygon fill="white" stroke="#666666" points="291.5,-128.5 160,-128.5 160,-98 291.5,-98 291.5,-128.5"/>
<text text-anchor="start" x="168" y="-115" font-family="Helvetica,sans-Serif" font-size="10.00">GamR::Nucleus::Transition</text>
<text text-anchor="middle" x="225.75" y="-103.75" font-family="Helvetica,sans-Serif" font-size="10.00">::SetTransition</text>
</a>
</g>
</g>
<!-- Node20&#45;&gt;Node21 -->
<g id="edge20_Node000020_Node000021" class="edge">
<title>Node20&#45;&gt;Node21</title>
<g id="a_edge20_Node000020_Node000021"><a xlink:title=" ">
<path fill="none" stroke="#63b8ff" d="M342.99,-143.79C324.4,-138.9 304.49,-133.68 286.51,-128.95"/>
<polygon fill="#63b8ff" stroke="#63b8ff" points="341.91,-147.39 352.47,-146.54 343.69,-140.62 341.91,-147.39"/>
</a>
</g>
</g>
<!-- Node22 -->
<g id="Node000022" class="node">
<title>Node22</title>
<g id="a_Node000022"><a xlink:href="../../dc/d89/namespace_gam_r_1_1_spect.html#a504796b948f22b277d3dc82001df407e" target="_top" xlink:title=" ">
<polygon fill="white" stroke="#666666" points="123.25,-141.88 0.75,-141.88 0.75,-122.62 123.25,-122.62 123.25,-141.88"/>
<text text-anchor="middle" x="62" y="-128.38" font-family="Helvetica,sans-Serif" font-size="10.00">GamR::Spect::CountsBS</text>
</a>
</g>
</g>
<!-- Node21&#45;&gt;Node22 -->
<g id="edge21_Node000021_Node000022" class="edge">
<title>Node21&#45;&gt;Node22</title>
<g id="a_edge21_Node000021_Node000022"><a xlink:title=" ">
<path fill="none" stroke="#63b8ff" d="M149.15,-122.13C140.61,-123.13 131.99,-124.15 123.68,-125.12"/>
<polygon fill="#63b8ff" stroke="#63b8ff" points="149.37,-125.51 158.89,-120.87 148.55,-118.56 149.37,-125.51"/>
</a>
</g>
</g>
<!-- Node23 -->
<g id="Node000023" class="node">
<title>Node23</title>
<g id="a_Node000023"><a xlink:href="../../dc/d89/namespace_gam_r_1_1_spect.html#a5c8a9e7165c96f14b6627917438a8bd0" target="_top" xlink:title=" ">
<polygon fill="white" stroke="#666666" points="124,-104.88 0,-104.88 0,-85.62 124,-85.62 124,-104.88"/>
<text text-anchor="middle" x="62" y="-91.38" font-family="Helvetica,sans-Serif" font-size="10.00">GamR::Spect::IntegralBS</text>
</a>
</g>
</g>
<!-- Node21&#45;&gt;Node23 -->
<g id="edge22_Node000021_Node000023" class="edge">
<title>Node21&#45;&gt;Node23</title>
<g id="a_edge22_Node000021_Node000023"><a xlink:title=" ">
<path fill="none" stroke="#63b8ff" d="M149.11,-104.83C140.85,-103.91 132.52,-102.99 124.46,-102.09"/>
<polygon fill="#63b8ff" stroke="#63b8ff" points="148.57,-108.4 158.89,-106.03 149.34,-101.45 148.57,-108.4"/>
</a>
</g>
</g>
<!-- Node25&#45;&gt;Node21 -->
<g id="edge26_Node000025_Node000021" class="edge">
<title>Node25&#45;&gt;Node21</title>
<g id="a_edge26_Node000025_Node000021"><a xlink:title=" ">
<path fill="none" stroke="#63b8ff" d="M342.99,-82.71C324.4,-87.6 304.49,-92.82 286.51,-97.55"/>
<polygon fill="#63b8ff" stroke="#63b8ff" points="343.69,-85.88 352.47,-79.96 341.91,-79.11 343.69,-85.88"/>
</a>
</g>
</g>
</g>
</svg>
