<?xml version="1.0" encoding="UTF-8" standalone="no"?>
<!DOCTYPE svg PUBLIC "-//W3C//DTD SVG 1.1//EN"
 "http://www.w3.org/Graphics/SVG/1.1/DTD/svg11.dtd">
<!-- Generated by graphviz version 12.0.0 (20240704.0754)
 -->
<!-- Title: GamR::TK::Gate::GetIntegral Pages: 1 -->
<svg width="329pt" height="64pt"
 viewBox="0.00 0.00 328.75 64.25" xmlns="http://www.w3.org/2000/svg" xmlns:xlink="http://www.w3.org/1999/xlink">
<g id="graph0" class="graph" transform="scale(1 1) rotate(0) translate(4 60.25)">
<title>GamR::TK::Gate::GetIntegral</title>
<!-- Node1 -->
<g id="Node000001" class="node">
<title>Node1</title>
<g id="a_Node000001"><a xlink:title=" ">
<polygon fill="#999999" stroke="#666666" points="139,-37.25 0,-37.25 0,-18 139,-18 139,-37.25"/>
<text text-anchor="middle" x="69.5" y="-23.75" font-family="Helvetica,sans-Serif" font-size="10.00">GamR::TK::Gate::GetIntegral</text>
</a>
</g>
</g>
<!-- Node2 -->
<g id="Node000002" class="node">
<title>Node2</title>
<g id="a_Node000002"><a xlink:href="../../d0/d74/group___t_k.html#ga19210db8af7134007ff4fc26878b5dc2" target="_top" xlink:title=" ">
<polygon fill="white" stroke="#666666" points="320.75,-56.25 175,-56.25 175,-37 320.75,-37 320.75,-56.25"/>
<text text-anchor="middle" x="247.88" y="-42.75" font-family="Helvetica,sans-Serif" font-size="10.00">GamR::TK::Gate::GetBinWidth</text>
</a>
</g>
</g>
<!-- Node1&#45;&gt;Node2 -->
<g id="edge1_Node000001_Node000002" class="edge">
<title>Node1&#45;&gt;Node2</title>
<g id="a_edge1_Node000001_Node000002"><a xlink:title=" ">
<path fill="none" stroke="#63b8ff" d="M139.45,-35.05C147.33,-35.9 155.43,-36.77 163.47,-37.64"/>
<polygon fill="#63b8ff" stroke="#63b8ff" points="162.95,-41.1 173.27,-38.7 163.7,-34.14 162.95,-41.1"/>
</a>
</g>
</g>
<!-- Node3 -->
<g id="Node000003" class="node">
<title>Node3</title>
<g id="a_Node000003"><a xlink:href="../../d0/d74/group___t_k.html#gaae543a7d595e5faacbfb4da05718e3f3" target="_top" xlink:title=" ">
<polygon fill="white" stroke="#666666" points="317.38,-19.25 178.38,-19.25 178.38,0 317.38,0 317.38,-19.25"/>
<text text-anchor="middle" x="247.88" y="-5.75" font-family="Helvetica,sans-Serif" font-size="10.00">GamR::TK::Gate::GetIntegral</text>
</a>
</g>
</g>
<!-- Node1&#45;&gt;Node3 -->
<g id="edge2_Node000001_Node000003" class="edge">
<title>Node1&#45;&gt;Node3</title>
<g id="a_edge2_Node000001_Node000003"><a xlink:title=" ">
<path fill="none" stroke="#63b8ff" d="M139.45,-20.59C148.35,-19.68 157.52,-18.74 166.58,-17.82"/>
<polygon fill="#63b8ff" stroke="#63b8ff" points="166.88,-21.31 176.47,-16.81 166.16,-14.34 166.88,-21.31"/>
</a>
</g>
</g>
</g>
</svg>
