<?xml version="1.0" encoding="UTF-8" standalone="no"?>
<!DOCTYPE svg PUBLIC "-//W3C//DTD SVG 1.1//EN"
 "http://www.w3.org/Graphics/SVG/1.1/DTD/svg11.dtd">
<!-- Generated by graphviz version 9.0.0 (20230911.1827)
 -->
<!-- Title: GamR::TK::Gate::GetCountsError Pages: 1 -->
<svg width="464pt" height="162pt"
 viewBox="0.00 0.00 464.00 161.88" xmlns="http://www.w3.org/2000/svg" xmlns:xlink="http://www.w3.org/1999/xlink">

<svg id="main" version="1.1" xmlns="http://www.w3.org/2000/svg" xmlns:xlink="http://www.w3.org/1999/xlink" xml:space="preserve" onload="init(evt)">
<style type="text/css"><![CDATA[
.node, .edge {opacity: 0.7;}
.node.selected, .edge.selected {opacity: 1;}
.edge:hover path { stroke: red; }
.edge:hover polygon { stroke: red; fill: red; }
]]></style>
<script type="application/ecmascript" xlink:href="../../svg.min.js"/>
<svg id="graph" class="graph">
<g id="graph0" class="graph" transform="scale(1 1) rotate(0) translate(4 157.88)">
<title>GamR::TK::Gate::GetCountsError</title>
<!-- Node1 -->
<g id="Node000001" class="node">
<title>Node1</title>
<g id="a_Node000001"><a xlink:title=" ">
<polygon fill="#999999" stroke="#666666" points="456,-79.5 318.5,-79.5 318.5,-49 456,-49 456,-79.5"/>
<text text-anchor="start" x="326.5" y="-66" font-family="Helvetica,sans-Serif" font-size="10.00">GamR::TK::Gate::GetCounts</text>
<text text-anchor="middle" x="387.25" y="-54.75" font-family="Helvetica,sans-Serif" font-size="10.00">Error</text>
</a>
</g>
</g>
<!-- Node2 -->
<g id="Node000002" class="node">
<title>Node2</title>
<g id="a_Node000002"><a xlink:href="../../dc/d89/namespace_gam_r_1_1_spect.html#a100c7a24b9e9670a79f4707d985bd259" target="_top" xlink:title=" ">
<polygon fill="white" stroke="#666666" points="268.25,-116.88 159.25,-116.88 159.25,-97.62 268.25,-97.62 268.25,-116.88"/>
<text text-anchor="middle" x="213.75" y="-103.38" font-family="Helvetica,sans-Serif" font-size="10.00">GamR::Spect::Counts</text>
</a>
</g>
</g>
<!-- Node1&#45;&gt;Node2 -->
<g id="edge1_Node000001_Node000002" class="edge">
<title>Node1&#45;&gt;Node2</title>
<g id="a_edge1_Node000001_Node000002"><a xlink:title=" ">
<path fill="none" stroke="#63b8ff" d="M312.93,-82.63C293.04,-87.62 272.25,-92.83 254.95,-97.17"/>
<polygon fill="#63b8ff" stroke="#63b8ff" points="313.53,-86.09 322.38,-80.26 311.83,-79.3 313.53,-86.09"/>
</a>
</g>
</g>
<!-- Node6 -->
<g id="Node000006" class="node">
<title>Node6</title>
<g id="a_Node000006"><a xlink:href="../../d0/d74/group___t_k.html#gad0279e78c3bed6506c1a54a945bc169a" target="_top" xlink:title=" ">
<polygon fill="white" stroke="#666666" points="282.5,-79.5 145,-79.5 145,-49 282.5,-49 282.5,-79.5"/>
<text text-anchor="start" x="153" y="-66" font-family="Helvetica,sans-Serif" font-size="10.00">GamR::TK::Gate::GetCounts</text>
<text text-anchor="middle" x="213.75" y="-54.75" font-family="Helvetica,sans-Serif" font-size="10.00">Error</text>
</a>
</g>
</g>
<!-- Node1&#45;&gt;Node6 -->
<g id="edge5_Node000001_Node000006" class="edge">
<title>Node1&#45;&gt;Node6</title>
<g id="a_edge5_Node000001_Node000006"><a xlink:title=" ">
<path fill="none" stroke="#63b8ff" d="M307.11,-64.25C299.02,-64.25 290.84,-64.25 282.88,-64.25"/>
<polygon fill="#63b8ff" stroke="#63b8ff" points="306.96,-67.75 316.96,-64.25 306.96,-60.75 306.96,-67.75"/>
</a>
</g>
</g>
<!-- Node7 -->
<g id="Node000007" class="node">
<title>Node7</title>
<g id="a_Node000007"><a xlink:href="../../d0/d74/group___t_k.html#ga7a242018ef018c54651f47d06ab985b5" target="_top" xlink:title=" ">
<polygon fill="white" stroke="#666666" points="282.5,-30.5 145,-30.5 145,0 282.5,0 282.5,-30.5"/>
<text text-anchor="start" x="153" y="-17" font-family="Helvetica,sans-Serif" font-size="10.00">GamR::TK::Gate::GetCounts</text>
<text text-anchor="middle" x="213.75" y="-5.75" font-family="Helvetica,sans-Serif" font-size="10.00">Error</text>
</a>
</g>
</g>
<!-- Node1&#45;&gt;Node7 -->
<g id="edge6_Node000001_Node000007" class="edge">
<title>Node1&#45;&gt;Node7</title>
<g id="a_edge6_Node000001_Node000007"><a xlink:title=" ">
<path fill="none" stroke="#63b8ff" d="M320.68,-45.52C303.9,-40.72 286.04,-35.62 269.85,-30.99"/>
<polygon fill="#63b8ff" stroke="#63b8ff" points="319.48,-48.81 330.06,-48.2 321.41,-42.08 319.48,-48.81"/>
</a>
</g>
</g>
<!-- Node3 -->
<g id="Node000003" class="node">
<title>Node3</title>
<g id="a_Node000003"><a xlink:href="../../dc/d89/namespace_gam_r_1_1_spect.html#aa1fbd17f2b3fd599b0934ebdd7c21c9e" target="_top" xlink:title=" ">
<polygon fill="white" stroke="#666666" points="109,-153.88 0,-153.88 0,-134.62 109,-134.62 109,-153.88"/>
<text text-anchor="middle" x="54.5" y="-140.38" font-family="Helvetica,sans-Serif" font-size="10.00">GamR::Spect::Counts</text>
</a>
</g>
</g>
<!-- Node2&#45;&gt;Node3 -->
<g id="edge2_Node000002_Node000003" class="edge">
<title>Node2&#45;&gt;Node3</title>
<g id="a_edge2_Node000002_Node000003"><a xlink:title=" ">
<path fill="none" stroke="#63b8ff" d="M158.79,-119.95C139.07,-124.59 117.05,-129.77 98.42,-134.15"/>
<polygon fill="#63b8ff" stroke="#63b8ff" points="159.37,-123.4 168.31,-117.71 157.77,-116.59 159.37,-123.4"/>
</a>
</g>
</g>
<!-- Node4 -->
<g id="Node000004" class="node">
<title>Node4</title>
<g id="a_Node000004"><a xlink:href="../../dc/d89/namespace_gam_r_1_1_spect.html#acc8dab4318e7305079a6b57b34110a2e" target="_top" xlink:title=" ">
<polygon fill="white" stroke="#666666" points="109,-116.88 0,-116.88 0,-97.62 109,-97.62 109,-116.88"/>
<text text-anchor="middle" x="54.5" y="-103.38" font-family="Helvetica,sans-Serif" font-size="10.00">GamR::Spect::Counts</text>
</a>
</g>
</g>
<!-- Node2&#45;&gt;Node4 -->
<g id="edge3_Node000002_Node000004" class="edge">
<title>Node2&#45;&gt;Node4</title>
<g id="a_edge3_Node000002_Node000004"><a xlink:title=" ">
<path fill="none" stroke="#63b8ff" d="M147.6,-107.25C134.91,-107.25 121.74,-107.25 109.47,-107.25"/>
<polygon fill="#63b8ff" stroke="#63b8ff" points="147.56,-110.75 157.56,-107.25 147.56,-103.75 147.56,-110.75"/>
</a>
</g>
</g>
<!-- Node5 -->
<g id="Node000005" class="node">
<title>Node5</title>
<g id="a_Node000005"><a xlink:href="../../d0/d17/_abbreviations_8cc.html#a6d5ec59ed9dad8b1a1d52615652abf81" target="_top" xlink:title=" ">
<polygon fill="white" stroke="#666666" points="68.9,-79.88 40.1,-79.88 40.1,-60.62 68.9,-60.62 68.9,-79.88"/>
<text text-anchor="middle" x="54.5" y="-66.38" font-family="Helvetica,sans-Serif" font-size="10.00">ct</text>
</a>
</g>
</g>
<!-- Node2&#45;&gt;Node5 -->
<g id="edge4_Node000002_Node000005" class="edge">
<title>Node2&#45;&gt;Node5</title>
<g id="a_edge4_Node000002_Node000005"><a xlink:title=" ">
<path fill="none" stroke="#63b8ff" d="M158.81,-94.56C126.96,-87.06 89.09,-78.15 69.23,-73.48"/>
<polygon fill="#63b8ff" stroke="#63b8ff" points="157.77,-97.91 168.31,-96.79 159.37,-91.1 157.77,-97.91"/>
</a>
</g>
</g>
</g>
</svg>
</svg>

<style type='text/css'>
<![CDATA[
[data-mouse-over-selected='false'] { opacity: 0.7; }
[data-mouse-over-selected='true']  { opacity: 1.0; }
]]>
</style>
<script type="application/ecmascript"><![CDATA[
document.addEventListener('DOMContentLoaded', (event) => {
  highlightEdges();
  highlightAdjacentNodes();
});
]]></script>
</svg>
