<?xml version="1.0" encoding="UTF-8" standalone="no"?>
<!DOCTYPE svg PUBLIC "-//W3C//DTD SVG 1.1//EN"
 "http://www.w3.org/Graphics/SVG/1.1/DTD/svg11.dtd">
<!-- Generated by graphviz version 6.0.2 (20221011.1828)
 -->
<!-- Title: GamR::TK::Gate::GetCounts Pages: 1 -->
<svg width="328pt" height="64pt"
 viewBox="0.00 0.00 328.00 64.00" xmlns="http://www.w3.org/2000/svg" xmlns:xlink="http://www.w3.org/1999/xlink">
<g id="graph0" class="graph" transform="scale(1 1) rotate(0) translate(4 60)">
<title>GamR::TK::Gate::GetCounts</title>
<!-- Node1 -->
<g id="node1" class="node">
<title>Node1</title>
<g id="a_node1"><a xlink:title=" ">
<polygon fill="#999999" stroke="#666666" points="138,-37 0,-37 0,-18 138,-18 138,-37"/>
<text text-anchor="middle" x="69" y="-25" font-family="Helvetica,sans-Serif" font-size="10.00">GamR::TK::Gate::GetCounts</text>
</a>
</g>
</g>
<!-- Node2 -->
<g id="node2" class="node">
<title>Node2</title>
<g id="a_node2"><a xlink:href="../../d0/d74/group___t_k.html#ga19210db8af7134007ff4fc26878b5dc2" target="_top" xlink:title=" ">
<polygon fill="white" stroke="#666666" points="320,-56 174,-56 174,-37 320,-37 320,-56"/>
<text text-anchor="middle" x="247" y="-44" font-family="Helvetica,sans-Serif" font-size="10.00">GamR::TK::Gate::GetBinWidth</text>
</a>
</g>
</g>
<!-- Node1&#45;&gt;Node2 -->
<g id="edge1" class="edge">
<title>Node1&#45;&gt;Node2</title>
<path fill="none" stroke="#63b8ff" d="M138.05,-34.85C146.46,-35.75 155.13,-36.69 163.72,-37.62"/>
<polygon fill="#63b8ff" stroke="#63b8ff" points="163.44,-41.11 173.76,-38.7 164.2,-34.15 163.44,-41.11"/>
</g>
<!-- Node3 -->
<g id="node3" class="node">
<title>Node3</title>
<g id="a_node3"><a xlink:href="../../d0/d74/group___t_k.html#ga4607d5e3d8f5d83d75f4ca038572a7f8" target="_top" xlink:title=" ">
<polygon fill="white" stroke="#666666" points="316,-19 178,-19 178,0 316,0 316,-19"/>
<text text-anchor="middle" x="247" y="-7" font-family="Helvetica,sans-Serif" font-size="10.00">GamR::TK::Gate::GetCounts</text>
</a>
</g>
</g>
<!-- Node1&#45;&gt;Node3 -->
<g id="edge2" class="edge">
<title>Node1&#45;&gt;Node3</title>
<path fill="none" stroke="#63b8ff" d="M138.05,-20.54C147.74,-19.55 157.77,-18.52 167.64,-17.51"/>
<polygon fill="#63b8ff" stroke="#63b8ff" points="168.25,-20.97 177.84,-16.47 167.54,-14.01 168.25,-20.97"/>
</g>
</g>
</svg>
