<?xml version="1.0" encoding="UTF-8" standalone="no"?>
<!DOCTYPE svg PUBLIC "-//W3C//DTD SVG 1.1//EN"
 "http://www.w3.org/Graphics/SVG/1.1/DTD/svg11.dtd">
<!-- Generated by graphviz version 2.50.0 (20220203.2022)
 -->
<!-- Title: GamR::TK::BPeak::Set Pages: 1 -->
<!--zoomable 272 -->
<svg id="main" version="1.1" xmlns="http://www.w3.org/2000/svg" xmlns:xlink="http://www.w3.org/1999/xlink" xml:space="preserve" onload="init(evt)">
<style type="text/css"><![CDATA[
.edge:hover path { stroke: red; }
.edge:hover polygon { stroke: red; fill: red; }
]]></style>
<script type="text/javascript"><![CDATA[
var edges = document.getElementsByTagName('g');
if (edges && edges.length) {
  for (var i=0;i<edges.length;i++) {
    if (edges[i].id.substr(0,4)=='edge') {
      edges[i].setAttribute('class','edge');
    }
  }
}
]]></script>
        <defs>
                <circle id="rim" cx="0" cy="0" r="7"/>
                <circle id="rim2" cx="0" cy="0" r="3.5"/>
                <g id="zoomPlus">
                        <use xlink:href="#rim" fill="#404040">
                                <set attributeName="fill" to="#808080" begin="zoomplus.mouseover" end="zoomplus.mouseout"/>
                        </use>
                        <path d="M-4,0h8M0,-4v8" fill="none" stroke="white" stroke-width="1.5" pointer-events="none"/>
                </g>
                <g id="zoomMin">
                        <use xlink:href="#rim" fill="#404040">
                                <set attributeName="fill" to="#808080" begin="zoomminus.mouseover" end="zoomminus.mouseout"/>
                        </use>
                        <path d="M-4,0h8" fill="none" stroke="white" stroke-width="1.5" pointer-events="none"/>
                </g>
                <g id="dirArrow">
                        <path fill="none" stroke="white" stroke-width="1.5" d="M0,-3.0v7 M-2.5,-0.5L0,-3.0L2.5,-0.5"/>
                </g>
               <g id="resetDef">
                       <use xlink:href="#rim2" fill="#404040">
                               <set attributeName="fill" to="#808080" begin="reset.mouseover" end="reset.mouseout"/>
                       </use>
               </g>
        </defs>

<script type="text/javascript">
var viewWidth = 811;
var viewHeight = 272;
var sectionId = 'dynsection-66';
</script>
<script xlink:href="../../svgpan.js"/>
<svg id="graph" class="graph">
<g id="viewport">
<title>GamR::TK::BPeak::Set</title>
<polygon fill="white" stroke="transparent" points="-4,4 -4,-268.02 807,-268.02 807,4 -4,4"/>
<!-- Node1 -->
<g id="node1" class="node">
<title>Node1</title>
<g id="a_node1"><a xlink:title=" ">
<polygon fill="#bfbfbf" stroke="black" points="0,-206.52 0,-225.52 115,-225.52 115,-206.52 0,-206.52"/>
<text text-anchor="middle" x="57.5" y="-213.52" font-family="Helvetica,sans-Serif" font-size="10.00">GamR::TK::BPeak::Set</text>
</a>
</g>
</g>
<!-- Node2 -->
<g id="node2" class="node">
<title>Node2</title>
<g id="a_node2"><a xlink:href="../../d0/d74/group___t_k.html#ga556295172c5041f83e4d5fc8b1345850" target="_top" xlink:title=" ">
<polygon fill="white" stroke="black" points="324.5,-244.52 324.5,-263.52 459.5,-263.52 459.5,-244.52 324.5,-244.52"/>
<text text-anchor="middle" x="392" y="-251.52" font-family="Helvetica,sans-Serif" font-size="10.00">GamR::TK::BPeak::SetCont</text>
</a>
</g>
</g>
<!-- Node1&#45;&gt;Node2 -->
<g id="edge1" class="edge">
<title>Node1&#45;&gt;Node2</title>
<path fill="none" stroke="midnightblue" d="M115.18,-225.07C127,-226.82 139.4,-228.57 151,-230.02 205.48,-236.87 267.12,-243 314.29,-247.35"/>
<polygon fill="midnightblue" stroke="midnightblue" points="314.15,-250.85 324.43,-248.28 314.79,-243.88 314.15,-250.85"/>
</g>
<!-- Node7 -->
<g id="node7" class="node">
<title>Node7</title>
<g id="a_node7"><a xlink:href="../../d0/d74/group___t_k.html#gad601087ac09d19e8549128df1f07c4c1" target="_top" xlink:title=" ">
<polygon fill="white" stroke="black" points="323.5,-206.52 323.5,-225.52 460.5,-225.52 460.5,-206.52 323.5,-206.52"/>
<text text-anchor="middle" x="392" y="-213.52" font-family="Helvetica,sans-Serif" font-size="10.00">GamR::TK::BPeak::SetPoint</text>
</a>
</g>
</g>
<!-- Node1&#45;&gt;Node7 -->
<g id="edge6" class="edge">
<title>Node1&#45;&gt;Node7</title>
<path fill="none" stroke="midnightblue" d="M115.28,-216.02C169.72,-216.02 252.36,-216.02 312.97,-216.02"/>
<polygon fill="midnightblue" stroke="midnightblue" points="313.26,-219.53 323.26,-216.02 313.26,-212.53 313.26,-219.53"/>
</g>
<!-- Node8 -->
<g id="node8" class="node">
<title>Node8</title>
<g id="a_node8"><a xlink:href="../../d0/d74/group___t_k.html#ga705f798b5ced39a94fe9582dd39c55ed" target="_top" xlink:title=" ">
<polygon fill="white" stroke="black" points="151,-124.52 151,-143.52 286,-143.52 286,-124.52 151,-124.52"/>
<text text-anchor="middle" x="218.5" y="-131.52" font-family="Helvetica,sans-Serif" font-size="10.00">GamR::TK::BPeak::SetStep</text>
</a>
</g>
</g>
<!-- Node1&#45;&gt;Node8 -->
<g id="edge10" class="edge">
<title>Node1&#45;&gt;Node8</title>
<path fill="none" stroke="midnightblue" d="M77.05,-206.46C104.94,-192.08 157.82,-164.8 190.14,-148.13"/>
<polygon fill="midnightblue" stroke="midnightblue" points="191.78,-151.23 199.07,-143.53 188.58,-145 191.78,-151.23"/>
</g>
<!-- Node3 -->
<g id="node3" class="node">
<title>Node3</title>
<g id="a_node3"><a xlink:href="../../dc/d89/namespace_gam_r_1_1_spect.html#a54b953c08bfbe870df0e0c9c6aa23648" target="_top" xlink:title=" ">
<polygon fill="white" stroke="black" points="511.5,-168.52 511.5,-187.52 612.5,-187.52 612.5,-168.52 511.5,-168.52"/>
<text text-anchor="middle" x="562" y="-175.52" font-family="Helvetica,sans-Serif" font-size="10.00">GamR::Spect::Draw</text>
</a>
</g>
</g>
<!-- Node2&#45;&gt;Node3 -->
<g id="edge2" class="edge">
<title>Node2&#45;&gt;Node3</title>
<path fill="none" stroke="midnightblue" d="M441.17,-244.41C448.42,-241.94 455.61,-238.86 462,-235.02 481.95,-223.05 478.2,-209.24 498,-197.02 501.4,-194.93 505.05,-193.05 508.82,-191.36"/>
<polygon fill="midnightblue" stroke="midnightblue" points="510.34,-194.52 518.34,-187.58 507.76,-188.02 510.34,-194.52"/>
</g>
<!-- Node5 -->
<g id="node5" class="node">
<title>Node5</title>
<g id="a_node5"><a xlink:href="../../d0/d74/group___t_k.html#gac1c2149596c0bc3ee71f38a871d0aa98" target="_top" xlink:title=" ">
<polygon fill="white" stroke="black" points="498,-206.52 498,-225.52 626,-225.52 626,-206.52 498,-206.52"/>
<text text-anchor="middle" x="562" y="-213.52" font-family="Helvetica,sans-Serif" font-size="10.00">GamR::TK::Gate::GetHigh</text>
</a>
</g>
</g>
<!-- Node2&#45;&gt;Node5 -->
<g id="edge4" class="edge">
<title>Node2&#45;&gt;Node5</title>
<path fill="none" stroke="midnightblue" d="M435.39,-244.44C457.76,-239.38 485.4,-233.13 509.05,-227.78"/>
<polygon fill="midnightblue" stroke="midnightblue" points="509.93,-231.17 518.91,-225.55 508.39,-224.34 509.93,-231.17"/>
</g>
<!-- Node6 -->
<g id="node6" class="node">
<title>Node6</title>
<g id="a_node6"><a xlink:href="../../d0/d74/group___t_k.html#ga0c870043965f984b34e65455819d47cf" target="_top" xlink:title=" ">
<polygon fill="white" stroke="black" points="499,-244.52 499,-263.52 625,-263.52 625,-244.52 499,-244.52"/>
<text text-anchor="middle" x="562" y="-251.52" font-family="Helvetica,sans-Serif" font-size="10.00">GamR::TK::Gate::GetLow</text>
</a>
</g>
</g>
<!-- Node2&#45;&gt;Node6 -->
<g id="edge5" class="edge">
<title>Node2&#45;&gt;Node6</title>
<path fill="none" stroke="midnightblue" d="M459.88,-254.02C469.36,-254.02 479.13,-254.02 488.71,-254.02"/>
<polygon fill="midnightblue" stroke="midnightblue" points="488.99,-257.53 498.99,-254.02 488.99,-250.53 488.99,-257.53"/>
</g>
<!-- Node4 -->
<g id="node4" class="node">
<title>Node4</title>
<g id="a_node4"><a xlink:href="../../dc/d89/namespace_gam_r_1_1_spect.html#a56e80bce5bf691212c8b7dfb76c2d2b4" target="_top" xlink:title=" ">
<polygon fill="white" stroke="black" points="662,-168.52 662,-187.52 803,-187.52 803,-168.52 662,-168.52"/>
<text text-anchor="middle" x="732.5" y="-175.52" font-family="Helvetica,sans-Serif" font-size="10.00">GamR::Spect::List1DSpectra</text>
</a>
</g>
</g>
<!-- Node3&#45;&gt;Node4 -->
<g id="edge3" class="edge">
<title>Node3&#45;&gt;Node4</title>
<path fill="none" stroke="midnightblue" d="M612.64,-178.02C624.94,-178.02 638.44,-178.02 651.77,-178.02"/>
<polygon fill="midnightblue" stroke="midnightblue" points="651.92,-181.53 661.92,-178.02 651.92,-174.53 651.92,-181.53"/>
</g>
<!-- Node7&#45;&gt;Node3 -->
<g id="edge7" class="edge">
<title>Node7&#45;&gt;Node3</title>
<path fill="none" stroke="midnightblue" d="M435.39,-206.44C457.76,-201.38 485.4,-195.13 509.05,-189.78"/>
<polygon fill="midnightblue" stroke="midnightblue" points="509.93,-193.17 518.91,-187.55 508.39,-186.34 509.93,-193.17"/>
</g>
<!-- Node7&#45;&gt;Node5 -->
<g id="edge8" class="edge">
<title>Node7&#45;&gt;Node5</title>
<path fill="none" stroke="midnightblue" d="M460.85,-216.02C469.71,-216.02 478.83,-216.02 487.78,-216.02"/>
<polygon fill="midnightblue" stroke="midnightblue" points="487.79,-219.53 497.79,-216.02 487.79,-212.53 487.79,-219.53"/>
</g>
<!-- Node7&#45;&gt;Node6 -->
<g id="edge9" class="edge">
<title>Node7&#45;&gt;Node6</title>
<path fill="none" stroke="midnightblue" d="M435.39,-225.61C457.76,-230.67 485.4,-236.92 509.05,-242.27"/>
<polygon fill="midnightblue" stroke="midnightblue" points="508.39,-245.71 518.91,-244.5 509.93,-238.88 508.39,-245.71"/>
</g>
<!-- Node8&#45;&gt;Node3 -->
<g id="edge11" class="edge">
<title>Node8&#45;&gt;Node3</title>
<path fill="none" stroke="midnightblue" d="M224.54,-124.3C237.19,-101.1 272.84,-42.8 322,-21.02 378.89,4.18 407.52,9.03 462,-21.02 515.72,-50.66 544.29,-123.06 555.41,-158.22"/>
<polygon fill="midnightblue" stroke="midnightblue" points="552.19,-159.65 558.42,-168.22 558.89,-157.64 552.19,-159.65"/>
</g>
<!-- Node8&#45;&gt;Node7 -->
<g id="edge16" class="edge">
<title>Node8&#45;&gt;Node7</title>
<path fill="none" stroke="midnightblue" d="M232.43,-143.65C251.26,-157.26 287.71,-182.12 322,-197.02 327.4,-199.37 333.17,-201.5 338.98,-203.41"/>
<polygon fill="midnightblue" stroke="midnightblue" points="338.16,-206.82 348.75,-206.43 340.23,-200.13 338.16,-206.82"/>
</g>
<!-- Node9 -->
<g id="node9" class="node">
<title>Node9</title>
<g id="a_node9"><a xlink:href="../../d0/d74/group___t_k.html#ga2bc60e269306be300511aa630417506d" target="_top" xlink:title=" ">
<polygon fill="white" stroke="black" points="324,-80.52 324,-99.52 460,-99.52 460,-80.52 324,-80.52"/>
<text text-anchor="middle" x="392" y="-87.52" font-family="Helvetica,sans-Serif" font-size="10.00">GamR::TK::BPeak::GetCent</text>
</a>
</g>
</g>
<!-- Node8&#45;&gt;Node9 -->
<g id="edge12" class="edge">
<title>Node8&#45;&gt;Node9</title>
<path fill="none" stroke="midnightblue" d="M256.71,-124.48C282.33,-117.9 316.57,-109.12 344.06,-102.07"/>
<polygon fill="midnightblue" stroke="midnightblue" points="345.04,-105.43 353.86,-99.55 343.3,-98.65 345.04,-105.43"/>
</g>
<!-- Node10 -->
<g id="node10" class="node">
<title>Node10</title>
<g id="a_node10"><a xlink:href="../../d0/d74/group___t_k.html#ga32d918b4d80ea9e892c18f5936ae1c49" target="_top" xlink:title=" ">
<polygon fill="white" stroke="black" points="324,-31.02 324,-61.02 460,-61.02 460,-31.02 324,-31.02"/>
<text text-anchor="start" x="332" y="-49.02" font-family="Helvetica,sans-Serif" font-size="10.00">GamR::TK::BPeak::GetCent</text>
<text text-anchor="middle" x="392" y="-38.02" font-family="Helvetica,sans-Serif" font-size="10.00">Error</text>
</a>
</g>
</g>
<!-- Node8&#45;&gt;Node10 -->
<g id="edge13" class="edge">
<title>Node8&#45;&gt;Node10</title>
<path fill="none" stroke="midnightblue" d="M233.25,-124.32C252.45,-111.05 288.7,-87.08 322,-71.02 326.36,-68.92 330.95,-66.89 335.6,-64.96"/>
<polygon fill="midnightblue" stroke="midnightblue" points="337.18,-68.1 345.18,-61.14 334.59,-61.59 337.18,-68.1"/>
</g>
<!-- Node11 -->
<g id="node11" class="node">
<title>Node11</title>
<g id="a_node11"><a xlink:href="../../d0/d74/group___t_k.html#gaa2200a38a3956d5e129aeeca03b2952a" target="_top" xlink:title=" ">
<polygon fill="white" stroke="black" points="322,-168.52 322,-187.52 462,-187.52 462,-168.52 322,-168.52"/>
<text text-anchor="middle" x="392" y="-175.52" font-family="Helvetica,sans-Serif" font-size="10.00">GamR::TK::BPeak::GetWidth</text>
</a>
</g>
</g>
<!-- Node8&#45;&gt;Node11 -->
<g id="edge14" class="edge">
<title>Node8&#45;&gt;Node11</title>
<path fill="none" stroke="midnightblue" d="M256.71,-143.57C282.33,-150.15 316.57,-158.93 344.06,-165.98"/>
<polygon fill="midnightblue" stroke="midnightblue" points="343.3,-169.4 353.86,-168.5 345.04,-162.62 343.3,-169.4"/>
</g>
<!-- Node12 -->
<g id="node12" class="node">
<title>Node12</title>
<g id="a_node12"><a xlink:href="../../d0/d74/group___t_k.html#ga7673c2803d0941563430bf8ef217da80" target="_top" xlink:title=" ">
<polygon fill="white" stroke="black" points="322,-119.02 322,-149.02 462,-149.02 462,-119.02 322,-119.02"/>
<text text-anchor="start" x="330" y="-137.02" font-family="Helvetica,sans-Serif" font-size="10.00">GamR::TK::BPeak::GetWidth</text>
<text text-anchor="middle" x="392" y="-126.02" font-family="Helvetica,sans-Serif" font-size="10.00">Error</text>
</a>
</g>
</g>
<!-- Node8&#45;&gt;Node12 -->
<g id="edge15" class="edge">
<title>Node8&#45;&gt;Node12</title>
<path fill="none" stroke="midnightblue" d="M286.3,-134.02C294.59,-134.02 303.13,-134.02 311.59,-134.02"/>
<polygon fill="midnightblue" stroke="midnightblue" points="311.84,-137.53 321.84,-134.02 311.84,-130.53 311.84,-137.53"/>
</g>
</g>
</svg>
        <g id="navigator" transform="translate(0 0)" fill="#404254">
                <rect fill="#f2f5e9" fill-opacity="0.5" stroke="#606060" stroke-width=".5" x="0" y="0" width="60" height="60"/>
                <use id="zoomplus" xlink:href="#zoomPlus" x="17" y="9" onmousedown="handleZoom(evt,'in')"/>
                <use id="zoomminus" xlink:href="#zoomMin" x="42" y="9" onmousedown="handleZoom(evt,'out')"/>
                <use id="reset" xlink:href="#resetDef" x="30" y="36" onmousedown="handleReset()"/>
                <g id="arrowUp" xlink:href="#dirArrow" transform="translate(30 24)" onmousedown="handlePan(0,-1)">
                  <use xlink:href="#rim" fill="#404040">
                        <set attributeName="fill" to="#808080" begin="arrowUp.mouseover" end="arrowUp.mouseout"/>
                  </use>
                  <path fill="none" stroke="white" stroke-width="1.5" d="M0,-3.0v7 M-2.5,-0.5L0,-3.0L2.5,-0.5"/>
                </g>
                <g id="arrowRight" xlink:href="#dirArrow" transform="rotate(90) translate(36 -43)" onmousedown="handlePan(1,0)">
                  <use xlink:href="#rim" fill="#404040">
                        <set attributeName="fill" to="#808080" begin="arrowRight.mouseover" end="arrowRight.mouseout"/>
                  </use>
                  <path fill="none" stroke="white" stroke-width="1.5" d="M0,-3.0v7 M-2.5,-0.5L0,-3.0L2.5,-0.5"/>
                </g>
                <g id="arrowDown" xlink:href="#dirArrow" transform="rotate(180) translate(-30 -48)" onmousedown="handlePan(0,1)">
                  <use xlink:href="#rim" fill="#404040">
                        <set attributeName="fill" to="#808080" begin="arrowDown.mouseover" end="arrowDown.mouseout"/>
                  </use>
                  <path fill="none" stroke="white" stroke-width="1.5" d="M0,-3.0v7 M-2.5,-0.5L0,-3.0L2.5,-0.5"/>
                </g>
                <g id="arrowLeft" xlink:href="#dirArrow" transform="rotate(270) translate(-36 17)" onmousedown="handlePan(-1,0)">
                  <use xlink:href="#rim" fill="#404040">
                        <set attributeName="fill" to="#808080" begin="arrowLeft.mouseover" end="arrowLeft.mouseout"/>
                  </use>
                  <path fill="none" stroke="white" stroke-width="1.5" d="M0,-3.0v7 M-2.5,-0.5L0,-3.0L2.5,-0.5"/>
                </g>
        </g>
        <svg viewBox="0 0 15 15" width="100%" height="30px" preserveAspectRatio="xMaxYMin meet">
         <g id="arrow_out" transform="scale(0.3 0.3)">
          <a xlink:href="group___t_k_gacea94387106c6b07d16c53a1614a86b9_cgraph_org.svg" target="_base">
           <rect id="button" ry="5" rx="5" y="6" x="6" height="38" width="38"
                fill="#f2f5e9" fill-opacity="0.5" stroke="#606060" stroke-width="1.0"/>
           <path id="arrow"
             d="M 11.500037,31.436501 C 11.940474,20.09759 22.043105,11.32322 32.158766,21.979434 L 37.068811,17.246167 C 37.068811,17.246167 37.088388,32 37.088388,32 L 22.160133,31.978069 C 22.160133,31.978069 26.997745,27.140456 26.997745,27.140456 C 18.528582,18.264221 13.291696,25.230495 11.500037,31.436501 z"
             style="fill:#404040;"/>
          </a>
         </g>
        </svg>
</svg>
