<?xml version="1.0" encoding="UTF-8" standalone="no"?>
<!DOCTYPE svg PUBLIC "-//W3C//DTD SVG 1.1//EN"
 "http://www.w3.org/Graphics/SVG/1.1/DTD/svg11.dtd">
<!-- Generated by graphviz version 5.0.0 (20220708.1001)
 -->
<!-- Title: GamR::TK::Gate::NormBackSub Pages: 1 -->
<svg width="416pt" height="78pt"
 viewBox="0.00 0.00 416.00 77.50" xmlns="http://www.w3.org/2000/svg" xmlns:xlink="http://www.w3.org/1999/xlink">
<g id="graph0" class="graph" transform="scale(1 1) rotate(0) translate(4 73.5)">
<title>GamR::TK::Gate::NormBackSub</title>
<polygon fill="white" stroke="transparent" points="-4,4 -4,-73.5 412,-73.5 412,4 -4,4"/>
<!-- Node1 -->
<g id="node1" class="node">
<title>Node1</title>
<g id="a_node1"><a xlink:title=" ">
<polygon fill="#bfbfbf" stroke="black" points="253,-28 253,-47 408,-47 408,-28 253,-28"/>
<text text-anchor="middle" x="330.5" y="-35" font-family="Helvetica,sans-Serif" font-size="10.00">GamR::TK::Gate::NormBackSub</text>
</a>
</g>
</g>
<!-- Node2 -->
<g id="node2" class="node">
<title>Node2</title>
<g id="a_node2"><a xlink:href="../../dc/d89/namespace_gam_r_1_1_spect.html#a7b2279e1335941677826aeafb539e6b8" target="_top" xlink:title=" ">
<polygon fill="white" stroke="black" points="74,-50 74,-69 217,-69 217,-50 74,-50"/>
<text text-anchor="middle" x="145.5" y="-57" font-family="Helvetica,sans-Serif" font-size="10.00">GamR::Spect::NormBackSub</text>
</a>
</g>
</g>
<!-- Node1&#45;&gt;Node2 -->
<g id="edge1" class="edge">
<title>Node1&#45;&gt;Node2</title>
<path fill="none" stroke="midnightblue" d="M242.89,-47.91C234.28,-48.95 225.61,-49.99 217.19,-51"/>
<polygon fill="midnightblue" stroke="midnightblue" points="243.44,-51.37 252.95,-46.7 242.61,-44.42 243.44,-51.37"/>
</g>
<!-- Node3 -->
<g id="node3" class="node">
<title>Node3</title>
<g id="a_node3"><a xlink:href="../../dc/d89/namespace_gam_r_1_1_spect.html#aa4da6909a49d9510105c06b27cd4bffc" target="_top" xlink:title=" ">
<polygon fill="white" stroke="black" points="77,-0.5 77,-30.5 214,-30.5 214,-0.5 77,-0.5"/>
<text text-anchor="start" x="85" y="-18.5" font-family="Helvetica,sans-Serif" font-size="10.00">GamR::Spect::NormSpectra</text>
<text text-anchor="middle" x="145.5" y="-7.5" font-family="Helvetica,sans-Serif" font-size="10.00">BackSub</text>
</a>
</g>
</g>
<!-- Node1&#45;&gt;Node3 -->
<g id="edge2" class="edge">
<title>Node1&#45;&gt;Node3</title>
<path fill="none" stroke="midnightblue" d="M242.89,-27.09C233.19,-25.92 223.42,-24.75 214.01,-23.62"/>
<polygon fill="midnightblue" stroke="midnightblue" points="242.61,-30.58 252.95,-28.3 243.44,-23.63 242.61,-30.58"/>
</g>
<!-- Node4 -->
<g id="node4" class="node">
<title>Node4</title>
<g id="a_node4"><a xlink:href="../../d0/d17/_abbreviations_8cc.html#ae47533f48063bc9ba85ff0be37004a05" target="_top" xlink:title=" ">
<polygon fill="white" stroke="black" points="0,-6 0,-25 38,-25 38,-6 0,-6"/>
<text text-anchor="middle" x="19" y="-13" font-family="Helvetica,sans-Serif" font-size="10.00">nsbs</text>
</a>
</g>
</g>
<!-- Node3&#45;&gt;Node4 -->
<g id="edge3" class="edge">
<title>Node3&#45;&gt;Node4</title>
<path fill="none" stroke="midnightblue" d="M66.54,-15.5C56.01,-15.5 46.12,-15.5 38.19,-15.5"/>
<polygon fill="midnightblue" stroke="midnightblue" points="66.79,-19 76.79,-15.5 66.79,-12 66.79,-19"/>
</g>
</g>
</svg>
