<?xml version="1.0" encoding="UTF-8" standalone="no"?>
<!DOCTYPE svg PUBLIC "-//W3C//DTD SVG 1.1//EN"
 "http://www.w3.org/Graphics/SVG/1.1/DTD/svg11.dtd">
<!-- Generated by graphviz version 9.0.0 (20230911.1827)
 -->
<!-- Title: GamR::TK::Gate::GetCountsError Pages: 1 -->
<svg width="327pt" height="76pt"
 viewBox="0.00 0.00 327.25 75.88" xmlns="http://www.w3.org/2000/svg" xmlns:xlink="http://www.w3.org/1999/xlink">
<g id="graph0" class="graph" transform="scale(1 1) rotate(0) translate(4 71.88)">
<title>GamR::TK::Gate::GetCountsError</title>
<!-- Node1 -->
<g id="Node000001" class="node">
<title>Node1</title>
<g id="a_Node000001"><a xlink:title=" ">
<polygon fill="#999999" stroke="#666666" points="137.5,-51.5 0,-51.5 0,-21 137.5,-21 137.5,-51.5"/>
<text text-anchor="start" x="8" y="-38" font-family="Helvetica,sans-Serif" font-size="10.00">GamR::TK::Gate::GetCounts</text>
<text text-anchor="middle" x="68.75" y="-26.75" font-family="Helvetica,sans-Serif" font-size="10.00">Error</text>
</a>
</g>
</g>
<!-- Node2 -->
<g id="Node000002" class="node">
<title>Node2</title>
<g id="a_Node000002"><a xlink:href="../../d0/d74/group___t_k.html#ga19210db8af7134007ff4fc26878b5dc2" target="_top" xlink:title=" ">
<polygon fill="white" stroke="#666666" points="319.25,-67.88 173.5,-67.88 173.5,-48.62 319.25,-48.62 319.25,-67.88"/>
<text text-anchor="middle" x="246.38" y="-54.38" font-family="Helvetica,sans-Serif" font-size="10.00">GamR::TK::Gate::GetBinWidth</text>
</a>
</g>
</g>
<!-- Node1&#45;&gt;Node2 -->
<g id="edge1_Node000001_Node000002" class="edge">
<title>Node1&#45;&gt;Node2</title>
<g id="a_edge1_Node000001_Node000002"><a xlink:title=" ">
<path fill="none" stroke="#63b8ff" d="M137.9,-44.79C145.77,-45.77 153.85,-46.79 161.89,-47.79"/>
<polygon fill="#63b8ff" stroke="#63b8ff" points="161.33,-51.25 171.69,-49.02 162.2,-44.3 161.33,-51.25"/>
</a>
</g>
</g>
<!-- Node3 -->
<g id="Node000003" class="node">
<title>Node3</title>
<g id="a_Node000003"><a xlink:href="../../d0/d74/group___t_k.html#ga0073e987a24adc053cfbf2c833d41749" target="_top" xlink:title=" ">
<polygon fill="white" stroke="#666666" points="315.12,-30.5 177.62,-30.5 177.62,0 315.12,0 315.12,-30.5"/>
<text text-anchor="start" x="185.62" y="-17" font-family="Helvetica,sans-Serif" font-size="10.00">GamR::TK::Gate::GetCounts</text>
<text text-anchor="middle" x="246.38" y="-5.75" font-family="Helvetica,sans-Serif" font-size="10.00">Error</text>
</a>
</g>
</g>
<!-- Node1&#45;&gt;Node3 -->
<g id="edge2_Node000001_Node000003" class="edge">
<title>Node1&#45;&gt;Node3</title>
<g id="a_edge2_Node000001_Node000003"><a xlink:title=" ">
<path fill="none" stroke="#63b8ff" d="M137.9,-28.1C147.09,-27 156.58,-25.87 165.94,-24.75"/>
<polygon fill="#63b8ff" stroke="#63b8ff" points="166.24,-28.24 175.76,-23.57 165.41,-21.29 166.24,-28.24"/>
</a>
</g>
</g>
</g>
</svg>
