<?xml version="1.0" encoding="UTF-8" standalone="no"?>
<!DOCTYPE svg PUBLIC "-//W3C//DTD SVG 1.1//EN"
 "http://www.w3.org/Graphics/SVG/1.1/DTD/svg11.dtd">
<!-- Generated by graphviz version 12.0.0 (20240704.0754)
 -->
<!-- Title: GamR::TK::operator&lt;&lt; Pages: 1 -->
<svg width="641pt" height="101pt"
 viewBox="0.00 0.00 641.25 101.25" xmlns="http://www.w3.org/2000/svg" xmlns:xlink="http://www.w3.org/1999/xlink">
<g id="graph0" class="graph" transform="scale(1 1) rotate(0) translate(4 97.25)">
<title>GamR::TK::operator&lt;&lt;</title>
<!-- Node1 -->
<g id="Node000001" class="node">
<title>Node1</title>
<g id="a_Node000001"><a xlink:title=" ">
<polygon fill="#999999" stroke="#666666" points="112.75,-56.25 0,-56.25 0,-37 112.75,-37 112.75,-56.25"/>
<text text-anchor="middle" x="56.38" y="-42.75" font-family="Helvetica,sans-Serif" font-size="10.00">GamR::TK::operator&lt;&lt;</text>
</a>
</g>
</g>
<!-- Node2 -->
<g id="Node000002" class="node">
<title>Node2</title>
<g id="a_Node000002"><a xlink:href="../../d0/d74/group___t_k.html#gac1c2149596c0bc3ee71f38a871d0aa98" target="_top" xlink:title=" ">
<polygon fill="white" stroke="#666666" points="275.75,-93.25 148.75,-93.25 148.75,-74 275.75,-74 275.75,-93.25"/>
<text text-anchor="middle" x="212.25" y="-79.75" font-family="Helvetica,sans-Serif" font-size="10.00">GamR::TK::Gate::GetHigh</text>
</a>
</g>
</g>
<!-- Node1&#45;&gt;Node2 -->
<g id="edge1_Node000001_Node000002" class="edge">
<title>Node1&#45;&gt;Node2</title>
<g id="a_edge1_Node000001_Node000002"><a xlink:title=" ">
<path fill="none" stroke="#63b8ff" d="M99.42,-56.74C117.57,-61.1 139.01,-66.25 158.23,-70.88"/>
<polygon fill="#63b8ff" stroke="#63b8ff" points="157.24,-74.24 167.78,-73.17 158.88,-67.43 157.24,-74.24"/>
</a>
</g>
</g>
<!-- Node3 -->
<g id="Node000003" class="node">
<title>Node3</title>
<g id="a_Node000003"><a xlink:href="../../d0/d74/group___t_k.html#ga0c870043965f984b34e65455819d47cf" target="_top" xlink:title=" ">
<polygon fill="white" stroke="#666666" points="275,-56.25 149.5,-56.25 149.5,-37 275,-37 275,-56.25"/>
<text text-anchor="middle" x="212.25" y="-42.75" font-family="Helvetica,sans-Serif" font-size="10.00">GamR::TK::Gate::GetLow</text>
</a>
</g>
</g>
<!-- Node1&#45;&gt;Node3 -->
<g id="edge2_Node000001_Node000003" class="edge">
<title>Node1&#45;&gt;Node3</title>
<g id="a_edge2_Node000001_Node000003"><a xlink:title=" ">
<path fill="none" stroke="#63b8ff" d="M112.93,-46.62C121.04,-46.62 129.49,-46.62 137.88,-46.62"/>
<polygon fill="#63b8ff" stroke="#63b8ff" points="137.75,-50.13 147.75,-46.63 137.75,-43.13 137.75,-50.13"/>
</a>
</g>
</g>
<!-- Node4 -->
<g id="Node000004" class="node">
<title>Node4</title>
<g id="a_Node000004"><a xlink:href="../../d0/d17/_abbreviations_8cc.html#a8b606d712a770338ea74bd251231698d" target="_top" xlink:title=" ">
<polygon fill="white" stroke="#666666" points="226.65,-19.25 197.85,-19.25 197.85,0 226.65,0 226.65,-19.25"/>
<text text-anchor="middle" x="212.25" y="-5.75" font-family="Helvetica,sans-Serif" font-size="10.00">os</text>
</a>
</g>
</g>
<!-- Node1&#45;&gt;Node4 -->
<g id="edge3_Node000001_Node000004" class="edge">
<title>Node1&#45;&gt;Node4</title>
<g id="a_edge3_Node000001_Node000004"><a xlink:title=" ">
<path fill="none" stroke="#63b8ff" d="M99.42,-36.51C127.31,-29.81 162.95,-21.24 186.41,-15.6"/>
<polygon fill="#63b8ff" stroke="#63b8ff" points="187.08,-19.04 195.99,-13.29 185.45,-12.23 187.08,-19.04"/>
</a>
</g>
</g>
<!-- Node5 -->
<g id="Node000005" class="node">
<title>Node5</title>
<g id="a_Node000005"><a xlink:href="../../dc/d89/namespace_gam_r_1_1_spect.html#a9baa566867cd3f57cd8b1e5c0137ef3e" target="_top" xlink:title=" ">
<polygon fill="white" stroke="#666666" points="456.75,-19.25 311.75,-19.25 311.75,0 456.75,0 456.75,-19.25"/>
<text text-anchor="middle" x="384.25" y="-5.75" font-family="Helvetica,sans-Serif" font-size="10.00">GamR::Spect::OverlaySpectra</text>
</a>
</g>
</g>
<!-- Node4&#45;&gt;Node5 -->
<g id="edge4_Node000004_Node000005" class="edge">
<title>Node4&#45;&gt;Node5</title>
<g id="a_edge4_Node000004_Node000005"><a xlink:title=" ">
<path fill="none" stroke="#63b8ff" d="M226.87,-9.62C243.15,-9.62 271.75,-9.62 300.08,-9.62"/>
<polygon fill="#63b8ff" stroke="#63b8ff" points="299.8,-13.13 309.8,-9.63 299.8,-6.13 299.8,-13.13"/>
</a>
</g>
</g>
<!-- Node5&#45;&gt;Node5 -->
<g id="edge6_Node000005_Node000005" class="edge">
<title>Node5&#45;&gt;Node5</title>
<g id="a_edge6_Node000005_Node000005"><a xlink:title=" ">
<path fill="none" stroke="#63b8ff" d="M357.32,-19.54C345.04,-28.15 354.02,-37.25 384.25,-37.25 401.26,-37.25 411.54,-34.37 415.09,-30.32"/>
<polygon fill="#63b8ff" stroke="#63b8ff" points="418.4,-29.17 411.69,-20.96 411.82,-31.55 418.4,-29.17"/>
</a>
</g>
</g>
<!-- Node6 -->
<g id="Node000006" class="node">
<title>Node6</title>
<g id="a_Node000006"><a xlink:href="../../dc/d89/namespace_gam_r_1_1_spect.html#a56e80bce5bf691212c8b7dfb76c2d2b4" target="_top" xlink:title=" ">
<polygon fill="white" stroke="#666666" points="633.25,-19.25 492.75,-19.25 492.75,0 633.25,0 633.25,-19.25"/>
<text text-anchor="middle" x="563" y="-5.75" font-family="Helvetica,sans-Serif" font-size="10.00">GamR::Spect::List1DSpectra</text>
</a>
</g>
</g>
<!-- Node5&#45;&gt;Node6 -->
<g id="edge5_Node000005_Node000006" class="edge">
<title>Node5&#45;&gt;Node6</title>
<g id="a_edge5_Node000005_Node000006"><a xlink:title=" ">
<path fill="none" stroke="#63b8ff" d="M457.14,-9.62C465.07,-9.62 473.17,-9.62 481.2,-9.62"/>
<polygon fill="#63b8ff" stroke="#63b8ff" points="480.95,-13.13 490.95,-9.63 480.95,-6.13 480.95,-13.13"/>
</a>
</g>
</g>
</g>
</svg>
