<?xml version="1.0" encoding="UTF-8" standalone="no"?>
<!DOCTYPE svg PUBLIC "-//W3C//DTD SVG 1.1//EN"
 "http://www.w3.org/Graphics/SVG/1.1/DTD/svg11.dtd">
<!-- Generated by graphviz version 6.0.2 (20221011.1828)
 -->
<!-- Title: GamR::TK::OneTailStepGaussianPeak::GetAreaError Pages: 1 -->
<svg width="346pt" height="76pt"
 viewBox="0.00 0.00 346.00 75.50" xmlns="http://www.w3.org/2000/svg" xmlns:xlink="http://www.w3.org/1999/xlink">
<g id="graph0" class="graph" transform="scale(1 1) rotate(0) translate(4 71.5)">
<title>GamR::TK::OneTailStepGaussianPeak::GetAreaError</title>
<!-- Node1 -->
<g id="node1" class="node">
<title>Node1</title>
<g id="a_node1"><a xlink:title=" ">
<polygon fill="#999999" stroke="#666666" points="161,-45.5 0,-45.5 0,-15.5 161,-15.5 161,-45.5"/>
<text text-anchor="start" x="8" y="-33.5" font-family="Helvetica,sans-Serif" font-size="10.00">GamR::TK::OneTailStepGaussian</text>
<text text-anchor="middle" x="80.5" y="-22.5" font-family="Helvetica,sans-Serif" font-size="10.00">Peak::GetAreaError</text>
</a>
</g>
</g>
<!-- Node2 -->
<g id="node2" class="node">
<title>Node2</title>
<g id="a_node2"><a xlink:href="../../d0/d74/group___t_k.html#ga9ce06d4dc01b94a919d61cf14ae7ced4" target="_top" xlink:title=" ">
<polygon fill="white" stroke="#666666" points="338,-67.5 197,-67.5 197,-37.5 338,-37.5 338,-67.5"/>
<text text-anchor="start" x="205" y="-55.5" font-family="Helvetica,sans-Serif" font-size="10.00">GamR::TK::OneTailGaussian</text>
<text text-anchor="middle" x="267.5" y="-44.5" font-family="Helvetica,sans-Serif" font-size="10.00">Peak::GetAreaError</text>
</a>
</g>
</g>
<!-- Node1&#45;&gt;Node2 -->
<g id="edge1" class="edge">
<title>Node1&#45;&gt;Node2</title>
<path fill="none" stroke="#63b8ff" d="M161.03,-39.96C169.62,-40.98 178.36,-42.02 186.95,-43.04"/>
<polygon fill="#63b8ff" stroke="#63b8ff" points="186.59,-46.52 196.94,-44.23 187.42,-39.57 186.59,-46.52"/>
</g>
<!-- Node3 -->
<g id="node3" class="node">
<title>Node3</title>
<g id="a_node3"><a xlink:href="../../d0/d74/group___t_k.html#gaea3f5cb2c25b5827dafe494c5c284d31" target="_top" xlink:title=" ">
<polygon fill="white" stroke="#666666" points="336,-19 199,-19 199,0 336,0 336,-19"/>
<text text-anchor="middle" x="267.5" y="-7" font-family="Helvetica,sans-Serif" font-size="10.00">GamR::TK::FPeak::GetFunc</text>
</a>
</g>
</g>
<!-- Node1&#45;&gt;Node3 -->
<g id="edge2" class="edge">
<title>Node1&#45;&gt;Node3</title>
<path fill="none" stroke="#63b8ff" d="M161.03,-21.47C170.31,-20.42 179.76,-19.35 189.01,-18.3"/>
<polygon fill="#63b8ff" stroke="#63b8ff" points="189.41,-21.77 198.95,-17.17 188.62,-14.82 189.41,-21.77"/>
</g>
</g>
</svg>
