<?xml version="1.0" encoding="UTF-8" standalone="no"?>
<!DOCTYPE svg PUBLIC "-//W3C//DTD SVG 1.1//EN"
 "http://www.w3.org/Graphics/SVG/1.1/DTD/svg11.dtd">
<!-- Generated by graphviz version 5.0.0 (20220708.1001)
 -->
<!-- Title: GamR::TK::ClickBPeak Pages: 1 -->
<!--zoomable 456 -->
<svg id="main" version="1.1" xmlns="http://www.w3.org/2000/svg" xmlns:xlink="http://www.w3.org/1999/xlink" xml:space="preserve" onload="init(evt)">
<style type="text/css"><![CDATA[
.edge:hover path { stroke: red; }
.edge:hover polygon { stroke: red; fill: red; }
]]></style>
<script type="text/javascript"><![CDATA[
var edges = document.getElementsByTagName('g');
if (edges && edges.length) {
  for (var i=0;i<edges.length;i++) {
    if (edges[i].id.substr(0,4)=='edge') {
      edges[i].setAttribute('class','edge');
    }
  }
}
]]></script>
        <defs>
                <circle id="rim" cx="0" cy="0" r="7"/>
                <circle id="rim2" cx="0" cy="0" r="3.5"/>
                <g id="zoomPlus">
                        <use xlink:href="#rim" fill="#404040">
                                <set attributeName="fill" to="#808080" begin="zoomplus.mouseover" end="zoomplus.mouseout"/>
                        </use>
                        <path d="M-4,0h8M0,-4v8" fill="none" stroke="white" stroke-width="1.5" pointer-events="none"/>
                </g>
                <g id="zoomMin">
                        <use xlink:href="#rim" fill="#404040">
                                <set attributeName="fill" to="#808080" begin="zoomminus.mouseover" end="zoomminus.mouseout"/>
                        </use>
                        <path d="M-4,0h8" fill="none" stroke="white" stroke-width="1.5" pointer-events="none"/>
                </g>
                <g id="dirArrow">
                        <path fill="none" stroke="white" stroke-width="1.5" d="M0,-3.0v7 M-2.5,-0.5L0,-3.0L2.5,-0.5"/>
                </g>
               <g id="resetDef">
                       <use xlink:href="#rim2" fill="#404040">
                               <set attributeName="fill" to="#808080" begin="reset.mouseover" end="reset.mouseout"/>
                       </use>
               </g>
        </defs>

<script type="text/javascript">
var viewWidth = 473;
var viewHeight = 456;
var sectionId = 'dynsection-9';
</script>
<script xlink:href="../../svgpan.js"/>
<svg id="graph" class="graph">
<g id="viewport">
<title>GamR::TK::ClickBPeak</title>
<polygon fill="white" stroke="transparent" points="-4,4 -4,-452 469,-452 469,4 -4,4"/>
<!-- Node1 -->
<g id="node1" class="node">
<title>Node1</title>
<g id="a_node1"><a xlink:title=" ">
<polygon fill="#bfbfbf" stroke="black" points="0,-239.5 0,-258.5 117,-258.5 117,-239.5 0,-239.5"/>
<text text-anchor="middle" x="58.5" y="-246.5" font-family="Helvetica,sans-Serif" font-size="10.00">GamR::TK::ClickBPeak</text>
</a>
</g>
</g>
<!-- Node2 -->
<g id="node2" class="node">
<title>Node2</title>
<g id="a_node2"><a xlink:href="../../d0/db7/namespace_gam_r_1_1_utils.html#a31f74a9ca644d560dc14e19c4dbd773b" target="_top" xlink:title=" ">
<polygon fill="white" stroke="black" points="153.5,-258.5 153.5,-277.5 272.5,-277.5 272.5,-258.5 153.5,-258.5"/>
<text text-anchor="middle" x="213" y="-265.5" font-family="Helvetica,sans-Serif" font-size="10.00">GamR::Utils::GetHist1D</text>
</a>
</g>
</g>
<!-- Node1&#45;&gt;Node2 -->
<g id="edge1" class="edge">
<title>Node1&#45;&gt;Node2</title>
<path fill="none" stroke="midnightblue" d="M117.15,-256.18C125.64,-257.24 134.46,-258.34 143.14,-259.42"/>
<polygon fill="midnightblue" stroke="midnightblue" points="142.89,-262.92 153.25,-260.68 143.76,-255.97 142.89,-262.92"/>
</g>
<!-- Node3 -->
<g id="node3" class="node">
<title>Node3</title>
<g id="a_node3"><a xlink:href="../../d0/d74/group___t_k.html#gaa496d15cf9600fa5790ff50c9392b0fd" target="_top" xlink:title=" ">
<polygon fill="white" stroke="black" points="153,-220.5 153,-239.5 273,-239.5 273,-220.5 153,-220.5"/>
<text text-anchor="middle" x="213" y="-227.5" font-family="Helvetica,sans-Serif" font-size="10.00">GamR::TK::BPeak::Print</text>
</a>
</g>
</g>
<!-- Node1&#45;&gt;Node3 -->
<g id="edge2" class="edge">
<title>Node1&#45;&gt;Node3</title>
<path fill="none" stroke="midnightblue" d="M117.15,-241.82C125.58,-240.77 134.33,-239.68 142.96,-238.6"/>
<polygon fill="midnightblue" stroke="midnightblue" points="143.51,-242.06 153,-237.35 142.64,-235.11 143.51,-242.06"/>
</g>
<!-- Node4 -->
<g id="node4" class="node">
<title>Node4</title>
<g id="a_node4"><a xlink:href="../../d0/d74/group___t_k.html#ga0133d6b49ae4051d478518e61ae0c8a5" target="_top" xlink:title=" ">
<polygon fill="white" stroke="black" points="319,-428.5 319,-447.5 455,-447.5 455,-428.5 319,-428.5"/>
<text text-anchor="middle" x="387" y="-435.5" font-family="Helvetica,sans-Serif" font-size="10.00">GamR::TK::BPeak::GetAmp</text>
</a>
</g>
</g>
<!-- Node3&#45;&gt;Node4 -->
<g id="edge3" class="edge">
<title>Node3&#45;&gt;Node4</title>
<path fill="none" stroke="midnightblue" d="M260.7,-239.65C265.3,-242.1 269.54,-245.16 273,-249 324.73,-306.35 255.3,-363.49 309,-419 310.25,-420.29 311.57,-421.5 312.96,-422.64"/>
<polygon fill="midnightblue" stroke="midnightblue" points="311.23,-425.69 321.5,-428.31 315.11,-419.86 311.23,-425.69"/>
</g>
<!-- Node5 -->
<g id="node5" class="node">
<title>Node5</title>
<g id="a_node5"><a xlink:href="../../d0/d74/group___t_k.html#gaa14fdc374518d186c18b0aabeb91898f" target="_top" xlink:title=" ">
<polygon fill="white" stroke="black" points="309,-390.5 309,-409.5 465,-409.5 465,-390.5 309,-390.5"/>
<text text-anchor="middle" x="387" y="-397.5" font-family="Helvetica,sans-Serif" font-size="10.00">GamR::TK::BPeak::GetAmpError</text>
</a>
</g>
</g>
<!-- Node3&#45;&gt;Node5 -->
<g id="edge4" class="edge">
<title>Node3&#45;&gt;Node5</title>
<path fill="none" stroke="midnightblue" d="M259.91,-239.55C264.77,-242.02 269.28,-245.11 273,-249 315.01,-292.96 265.48,-338.53 309,-381 310.48,-382.44 312.05,-383.78 313.69,-385.02"/>
<polygon fill="midnightblue" stroke="midnightblue" points="312.13,-388.17 322.47,-390.46 315.81,-382.22 312.13,-388.17"/>
</g>
<!-- Node6 -->
<g id="node6" class="node">
<title>Node6</title>
<g id="a_node6"><a xlink:href="../../d0/d74/group___t_k.html#gad927a2d29f50b92c440bc6ece786ef72" target="_top" xlink:title=" ">
<polygon fill="white" stroke="black" points="319,-352.5 319,-371.5 455,-371.5 455,-352.5 319,-352.5"/>
<text text-anchor="middle" x="387" y="-359.5" font-family="Helvetica,sans-Serif" font-size="10.00">GamR::TK::BPeak::GetArea</text>
</a>
</g>
</g>
<!-- Node3&#45;&gt;Node6 -->
<g id="edge5" class="edge">
<title>Node3&#45;&gt;Node6</title>
<path fill="none" stroke="midnightblue" d="M258.95,-239.64C264.09,-242.08 268.94,-245.15 273,-249 305.48,-279.76 275.47,-313.38 309,-343 310.76,-344.56 312.63,-345.99 314.58,-347.31"/>
<polygon fill="midnightblue" stroke="midnightblue" points="313.19,-350.54 323.62,-352.39 316.62,-344.44 313.19,-350.54"/>
</g>
<!-- Node7 -->
<g id="node7" class="node">
<title>Node7</title>
<g id="a_node7"><a xlink:href="../../d0/d74/group___t_k.html#ga4aaec131e418c8788ab191a4eb6a7fa9" target="_top" xlink:title=" ">
<polygon fill="white" stroke="black" points="319,-303 319,-333 455,-333 455,-303 319,-303"/>
<text text-anchor="start" x="327" y="-321" font-family="Helvetica,sans-Serif" font-size="10.00">GamR::TK::BPeak::GetArea</text>
<text text-anchor="middle" x="387" y="-310" font-family="Helvetica,sans-Serif" font-size="10.00">Error</text>
</a>
</g>
</g>
<!-- Node3&#45;&gt;Node7 -->
<g id="edge6" class="edge">
<title>Node3&#45;&gt;Node7</title>
<path fill="none" stroke="midnightblue" d="M254.49,-239.6C260.98,-242.09 267.4,-245.18 273,-249 293.88,-263.23 288.14,-278.74 309,-293 311.87,-294.96 314.91,-296.78 318.05,-298.46"/>
<polygon fill="midnightblue" stroke="midnightblue" points="316.61,-301.65 327.14,-302.85 319.65,-295.35 316.61,-301.65"/>
</g>
<!-- Node8 -->
<g id="node8" class="node">
<title>Node8</title>
<g id="a_node8"><a xlink:href="../../d0/d74/group___t_k.html#ga2bc60e269306be300511aa630417506d" target="_top" xlink:title=" ">
<polygon fill="white" stroke="black" points="319,-264.5 319,-283.5 455,-283.5 455,-264.5 319,-264.5"/>
<text text-anchor="middle" x="387" y="-271.5" font-family="Helvetica,sans-Serif" font-size="10.00">GamR::TK::BPeak::GetCent</text>
</a>
</g>
</g>
<!-- Node3&#45;&gt;Node8 -->
<g id="edge7" class="edge">
<title>Node3&#45;&gt;Node8</title>
<path fill="none" stroke="midnightblue" d="M249.61,-239.51C267.42,-244.23 289.33,-249.99 309,-255 318.01,-257.3 327.63,-259.71 336.91,-262.01"/>
<polygon fill="midnightblue" stroke="midnightblue" points="336.25,-265.45 346.8,-264.45 337.93,-258.65 336.25,-265.45"/>
</g>
<!-- Node9 -->
<g id="node9" class="node">
<title>Node9</title>
<g id="a_node9"><a xlink:href="../../d0/d74/group___t_k.html#ga32d918b4d80ea9e892c18f5936ae1c49" target="_top" xlink:title=" ">
<polygon fill="white" stroke="black" points="319,-215 319,-245 455,-245 455,-215 319,-215"/>
<text text-anchor="start" x="327" y="-233" font-family="Helvetica,sans-Serif" font-size="10.00">GamR::TK::BPeak::GetCent</text>
<text text-anchor="middle" x="387" y="-222" font-family="Helvetica,sans-Serif" font-size="10.00">Error</text>
</a>
</g>
</g>
<!-- Node3&#45;&gt;Node9 -->
<g id="edge8" class="edge">
<title>Node3&#45;&gt;Node9</title>
<path fill="none" stroke="midnightblue" d="M273.19,-230C284.54,-230 296.58,-230 308.41,-230"/>
<polygon fill="midnightblue" stroke="midnightblue" points="308.72,-233.5 318.72,-230 308.72,-226.5 308.72,-233.5"/>
</g>
<!-- Node10 -->
<g id="node10" class="node">
<title>Node10</title>
<g id="a_node10"><a xlink:href="../../d0/d74/group___t_k.html#ga86fb9a62fe918832b4fb6f6ae42f1965" target="_top" xlink:title=" ">
<polygon fill="white" stroke="black" points="314,-176.5 314,-195.5 460,-195.5 460,-176.5 314,-176.5"/>
<text text-anchor="middle" x="387" y="-183.5" font-family="Helvetica,sans-Serif" font-size="10.00">GamR::TK::BPeak::GetCounts</text>
</a>
</g>
</g>
<!-- Node3&#45;&gt;Node10 -->
<g id="edge9" class="edge">
<title>Node3&#45;&gt;Node10</title>
<path fill="none" stroke="midnightblue" d="M251.32,-220.45C277.02,-213.88 311.36,-205.1 338.93,-198.04"/>
<polygon fill="midnightblue" stroke="midnightblue" points="339.93,-201.4 348.75,-195.53 338.2,-194.62 339.93,-201.4"/>
</g>
<!-- Node11 -->
<g id="node11" class="node">
<title>Node11</title>
<g id="a_node11"><a xlink:href="../../d0/d74/group___t_k.html#gac083ac86c150085adae965936f41bb49" target="_top" xlink:title=" ">
<polygon fill="white" stroke="black" points="314,-127 314,-157 460,-157 460,-127 314,-127"/>
<text text-anchor="start" x="322" y="-145" font-family="Helvetica,sans-Serif" font-size="10.00">GamR::TK::BPeak::GetCounts</text>
<text text-anchor="middle" x="387" y="-134" font-family="Helvetica,sans-Serif" font-size="10.00">Error</text>
</a>
</g>
</g>
<!-- Node3&#45;&gt;Node11 -->
<g id="edge10" class="edge">
<title>Node3&#45;&gt;Node11</title>
<path fill="none" stroke="midnightblue" d="M226.25,-220.28C243.74,-206.79 277.28,-182.31 309,-167 313.63,-164.77 318.5,-162.66 323.46,-160.69"/>
<polygon fill="midnightblue" stroke="midnightblue" points="324.94,-163.88 333.06,-157.08 322.47,-157.33 324.94,-163.88"/>
</g>
<!-- Node12 -->
<g id="node12" class="node">
<title>Node12</title>
<g id="a_node12"><a xlink:href="../../d0/d74/group___t_k.html#gaa2200a38a3956d5e129aeeca03b2952a" target="_top" xlink:title=" ">
<polygon fill="white" stroke="black" points="317,-88.5 317,-107.5 457,-107.5 457,-88.5 317,-88.5"/>
<text text-anchor="middle" x="387" y="-95.5" font-family="Helvetica,sans-Serif" font-size="10.00">GamR::TK::BPeak::GetWidth</text>
</a>
</g>
</g>
<!-- Node3&#45;&gt;Node12 -->
<g id="edge11" class="edge">
<title>Node3&#45;&gt;Node12</title>
<path fill="none" stroke="midnightblue" d="M219.26,-220.49C231.79,-198.76 265.6,-145.25 309,-118 313.1,-115.43 317.52,-113.18 322.09,-111.23"/>
<polygon fill="midnightblue" stroke="midnightblue" points="323.54,-114.42 331.64,-107.6 321.05,-107.88 323.54,-114.42"/>
</g>
<!-- Node13 -->
<g id="node13" class="node">
<title>Node13</title>
<g id="a_node13"><a xlink:href="../../d0/d74/group___t_k.html#ga7673c2803d0941563430bf8ef217da80" target="_top" xlink:title=" ">
<polygon fill="white" stroke="black" points="317,-39 317,-69 457,-69 457,-39 317,-39"/>
<text text-anchor="start" x="325" y="-57" font-family="Helvetica,sans-Serif" font-size="10.00">GamR::TK::BPeak::GetWidth</text>
<text text-anchor="middle" x="387" y="-46" font-family="Helvetica,sans-Serif" font-size="10.00">Error</text>
</a>
</g>
</g>
<!-- Node3&#45;&gt;Node13 -->
<g id="edge12" class="edge">
<title>Node3&#45;&gt;Node13</title>
<path fill="none" stroke="midnightblue" d="M217.41,-220.24C227.22,-193.53 258.17,-118.58 309,-79 311.42,-77.12 313.98,-75.37 316.65,-73.76"/>
<polygon fill="midnightblue" stroke="midnightblue" points="318.31,-76.84 325.47,-69.04 315,-70.67 318.31,-76.84"/>
</g>
<!-- Node14 -->
<g id="node14" class="node">
<title>Node14</title>
<g id="a_node14"><a xlink:href="../../d0/db7/namespace_gam_r_1_1_utils.html#a80bc6c0c1ecd5d28cd4f9e3ae38f92ed" target="_top" xlink:title=" ">
<polygon fill="white" stroke="black" points="333,-0.5 333,-19.5 441,-19.5 441,-0.5 333,-0.5"/>
<text text-anchor="middle" x="387" y="-7.5" font-family="Helvetica,sans-Serif" font-size="10.00">GamR::Utils::wrresult</text>
</a>
</g>
</g>
<!-- Node3&#45;&gt;Node14 -->
<g id="edge13" class="edge">
<title>Node3&#45;&gt;Node14</title>
<path fill="none" stroke="midnightblue" d="M215.63,-220.3C221.59,-187.93 245.3,-82.65 309,-30 313.32,-26.43 318.22,-23.48 323.39,-21.06"/>
<polygon fill="midnightblue" stroke="midnightblue" points="324.95,-24.2 332.93,-17.24 322.34,-17.71 324.95,-24.2"/>
</g>
</g>
</svg>
        <g id="navigator" transform="translate(0 0)" fill="#404254">
                <rect fill="#f2f5e9" fill-opacity="0.5" stroke="#606060" stroke-width=".5" x="0" y="0" width="60" height="60"/>
                <use id="zoomplus" xlink:href="#zoomPlus" x="17" y="9" onmousedown="handleZoom(evt,'in')"/>
                <use id="zoomminus" xlink:href="#zoomMin" x="42" y="9" onmousedown="handleZoom(evt,'out')"/>
                <use id="reset" xlink:href="#resetDef" x="30" y="36" onmousedown="handleReset()"/>
                <g id="arrowUp" xlink:href="#dirArrow" transform="translate(30 24)" onmousedown="handlePan(0,-1)">
                  <use xlink:href="#rim" fill="#404040">
                        <set attributeName="fill" to="#808080" begin="arrowUp.mouseover" end="arrowUp.mouseout"/>
                  </use>
                  <path fill="none" stroke="white" stroke-width="1.5" d="M0,-3.0v7 M-2.5,-0.5L0,-3.0L2.5,-0.5"/>
                </g>
                <g id="arrowRight" xlink:href="#dirArrow" transform="rotate(90) translate(36 -43)" onmousedown="handlePan(1,0)">
                  <use xlink:href="#rim" fill="#404040">
                        <set attributeName="fill" to="#808080" begin="arrowRight.mouseover" end="arrowRight.mouseout"/>
                  </use>
                  <path fill="none" stroke="white" stroke-width="1.5" d="M0,-3.0v7 M-2.5,-0.5L0,-3.0L2.5,-0.5"/>
                </g>
                <g id="arrowDown" xlink:href="#dirArrow" transform="rotate(180) translate(-30 -48)" onmousedown="handlePan(0,1)">
                  <use xlink:href="#rim" fill="#404040">
                        <set attributeName="fill" to="#808080" begin="arrowDown.mouseover" end="arrowDown.mouseout"/>
                  </use>
                  <path fill="none" stroke="white" stroke-width="1.5" d="M0,-3.0v7 M-2.5,-0.5L0,-3.0L2.5,-0.5"/>
                </g>
                <g id="arrowLeft" xlink:href="#dirArrow" transform="rotate(270) translate(-36 17)" onmousedown="handlePan(-1,0)">
                  <use xlink:href="#rim" fill="#404040">
                        <set attributeName="fill" to="#808080" begin="arrowLeft.mouseover" end="arrowLeft.mouseout"/>
                  </use>
                  <path fill="none" stroke="white" stroke-width="1.5" d="M0,-3.0v7 M-2.5,-0.5L0,-3.0L2.5,-0.5"/>
                </g>
        </g>
        <svg viewBox="0 0 15 15" width="100%" height="30px" preserveAspectRatio="xMaxYMin meet">
         <g id="arrow_out" transform="scale(0.3 0.3)">
          <a xlink:href="group___t_k_gab9295d2a9e654d7540ee264d036590cd_cgraph_org.svg" target="_base">
           <rect id="button" ry="5" rx="5" y="6" x="6" height="38" width="38"
                fill="#f2f5e9" fill-opacity="0.5" stroke="#606060" stroke-width="1.0"/>
           <path id="arrow"
             d="M 11.500037,31.436501 C 11.940474,20.09759 22.043105,11.32322 32.158766,21.979434 L 37.068811,17.246167 C 37.068811,17.246167 37.088388,32 37.088388,32 L 22.160133,31.978069 C 22.160133,31.978069 26.997745,27.140456 26.997745,27.140456 C 18.528582,18.264221 13.291696,25.230495 11.500037,31.436501 z"
             style="fill:#404040;"/>
          </a>
         </g>
        </svg>
</svg>
