<?xml version="1.0" encoding="UTF-8" standalone="no"?>
<!DOCTYPE svg PUBLIC "-//W3C//DTD SVG 1.1//EN"
 "http://www.w3.org/Graphics/SVG/1.1/DTD/svg11.dtd">
<!-- Generated by graphviz version 12.2.1 (20241206.2353)
 -->
<!-- Title: GamR::TK::Gate::PassDetector Pages: 1 -->
<svg width="445pt" height="101pt"
 viewBox="0.00 0.00 444.50 101.25" xmlns="http://www.w3.org/2000/svg" xmlns:xlink="http://www.w3.org/1999/xlink">
<g id="graph0" class="graph" transform="scale(1 1) rotate(0) translate(4 97.25)">
<title>GamR::TK::Gate::PassDetector</title>
<!-- Node1 -->
<g id="Node000001" class="node">
<title>Node1</title>
<g id="a_Node000001"><a xlink:title=" ">
<polygon fill="#999999" stroke="#666666" points="150.25,-56.25 0,-56.25 0,-37 150.25,-37 150.25,-56.25"/>
<text text-anchor="middle" x="75.12" y="-42.75" font-family="Helvetica,sans-Serif" font-size="10.00">GamR::TK::Gate::PassDetector</text>
</a>
</g>
</g>
<!-- Node2 -->
<g id="Node000002" class="node">
<title>Node2</title>
<g id="a_Node000002"><a xlink:href="../../d0/d74/group___t_k.html#gaced7ac0e322ea19a0ade4d2666727666" target="_top" xlink:title=" ">
<polygon fill="white" stroke="#666666" points="298.25,-93.25 186.25,-93.25 186.25,-74 298.25,-74 298.25,-93.25"/>
<text text-anchor="middle" x="242.25" y="-79.75" font-family="Helvetica,sans-Serif" font-size="10.00">GamR::TK::Gate::Gate</text>
</a>
</g>
</g>
<!-- Node1&#45;&gt;Node2 -->
<g id="edge1_Node000001_Node000002" class="edge">
<title>Node1&#45;&gt;Node2</title>
<g id="a_edge1_Node000001_Node000002"><a xlink:title=" ">
<path fill="none" stroke="#63b8ff" d="M121.25,-56.74C141,-61.16 164.37,-66.4 185.22,-71.07"/>
<polygon fill="#63b8ff" stroke="#63b8ff" points="184.18,-74.42 194.71,-73.2 185.71,-67.59 184.18,-74.42"/>
</a>
</g>
</g>
<!-- Node3 -->
<g id="Node000003" class="node">
<title>Node3</title>
<g id="a_Node000003"><a xlink:href="../../d0/d17/_abbreviations_8cc.html#addb21d32acc58c64bf98c616bebe77fc" target="_top" xlink:title=" ">
<polygon fill="white" stroke="#666666" points="256.65,-56.25 227.85,-56.25 227.85,-37 256.65,-37 256.65,-56.25"/>
<text text-anchor="middle" x="242.25" y="-42.75" font-family="Helvetica,sans-Serif" font-size="10.00">px</text>
</a>
</g>
</g>
<!-- Node1&#45;&gt;Node3 -->
<g id="edge2_Node000001_Node000003" class="edge">
<title>Node1&#45;&gt;Node3</title>
<g id="a_edge2_Node000001_Node000003"><a xlink:title=" ">
<path fill="none" stroke="#63b8ff" d="M150.48,-46.62C174.03,-46.62 198.49,-46.62 216.08,-46.62"/>
<polygon fill="#63b8ff" stroke="#63b8ff" points="216.04,-50.13 226.04,-46.63 216.04,-43.13 216.04,-50.13"/>
</a>
</g>
</g>
<!-- Node5 -->
<g id="Node000005" class="node">
<title>Node5</title>
<g id="a_Node000005"><a xlink:href="../../d0/d17/_abbreviations_8cc.html#ada52d00d8b5e1ca20ee1be4110ac3175" target="_top" xlink:title=" ">
<polygon fill="white" stroke="#666666" points="256.65,-19.25 227.85,-19.25 227.85,0 256.65,0 256.65,-19.25"/>
<text text-anchor="middle" x="242.25" y="-5.75" font-family="Helvetica,sans-Serif" font-size="10.00">py</text>
</a>
</g>
</g>
<!-- Node1&#45;&gt;Node5 -->
<g id="edge4_Node000001_Node000005" class="edge">
<title>Node1&#45;&gt;Node5</title>
<g id="a_edge4_Node000001_Node000005"><a xlink:title=" ">
<path fill="none" stroke="#63b8ff" d="M121.25,-36.51C151.94,-29.64 191.39,-20.8 216.5,-15.17"/>
<polygon fill="#63b8ff" stroke="#63b8ff" points="217.11,-18.62 226.1,-13.02 215.58,-11.79 217.11,-18.62"/>
</a>
</g>
</g>
<!-- Node4 -->
<g id="Node000004" class="node">
<title>Node4</title>
<g id="a_Node000004"><a xlink:href="../../dc/d89/namespace_gam_r_1_1_spect.html#aab35a8f2d75f6fd8f3175f37c4f5f0cd" target="_top" xlink:title=" ">
<polygon fill="white" stroke="#666666" points="436.5,-56.25 334.25,-56.25 334.25,-37 436.5,-37 436.5,-56.25"/>
<text text-anchor="middle" x="385.38" y="-42.75" font-family="Helvetica,sans-Serif" font-size="10.00">GamR::Spect::ProjX</text>
</a>
</g>
</g>
<!-- Node3&#45;&gt;Node4 -->
<g id="edge3_Node000003_Node000004" class="edge">
<title>Node3&#45;&gt;Node4</title>
<g id="a_edge3_Node000003_Node000004"><a xlink:title=" ">
<path fill="none" stroke="#63b8ff" d="M257.04,-46.62C272.37,-46.62 298.19,-46.62 322.59,-46.62"/>
<polygon fill="#63b8ff" stroke="#63b8ff" points="322.51,-50.13 332.51,-46.63 322.51,-43.13 322.51,-50.13"/>
</a>
</g>
</g>
<!-- Node6 -->
<g id="Node000006" class="node">
<title>Node6</title>
<g id="a_Node000006"><a xlink:href="../../dc/d89/namespace_gam_r_1_1_spect.html#a16ff9da3440d1c99c085b58a70b447b9" target="_top" xlink:title=" ">
<polygon fill="white" stroke="#666666" points="436.5,-19.25 334.25,-19.25 334.25,0 436.5,0 436.5,-19.25"/>
<text text-anchor="middle" x="385.38" y="-5.75" font-family="Helvetica,sans-Serif" font-size="10.00">GamR::Spect::ProjY</text>
</a>
</g>
</g>
<!-- Node5&#45;&gt;Node6 -->
<g id="edge5_Node000005_Node000006" class="edge">
<title>Node5&#45;&gt;Node6</title>
<g id="a_edge5_Node000005_Node000006"><a xlink:title=" ">
<path fill="none" stroke="#63b8ff" d="M257.04,-9.62C272.37,-9.62 298.19,-9.62 322.59,-9.62"/>
<polygon fill="#63b8ff" stroke="#63b8ff" points="322.51,-13.13 332.51,-9.63 322.51,-6.13 322.51,-13.13"/>
</a>
</g>
</g>
</g>
</svg>
