<?xml version="1.0" encoding="UTF-8" standalone="no"?>
<!DOCTYPE svg PUBLIC "-//W3C//DTD SVG 1.1//EN"
 "http://www.w3.org/Graphics/SVG/1.1/DTD/svg11.dtd">
<!-- Generated by graphviz version 9.0.0 (20230911.1827)
 -->
<!-- Title: GamR::TK::Gate::ApplyY Pages: 1 -->
<!--zoomable 483 -->

<svg id="main" version="1.1" xmlns="http://www.w3.org/2000/svg" xmlns:xlink="http://www.w3.org/1999/xlink" xml:space="preserve" onload="init(evt)">
<style type="text/css"><![CDATA[
.node, .edge {opacity: 0.7;}
.node.selected, .edge.selected {opacity: 1;}
.edge:hover path { stroke: red; }
.edge:hover polygon { stroke: red; fill: red; }
]]></style>

<defs>
  <circle id="rim" cx="0" cy="0" r="7"/>
  <circle id="rim2" cx="0" cy="0" r="3.5"/>
  <g id="zoomPlus">
    <use xlink:href="#rim" fill="#404040"><set attributeName="fill" to="#808080" begin="zoomplus.mouseover" end="zoomplus.mouseout"/></use>
    <path d="M-4,0h8M0,-4v8" fill="none" stroke="white" stroke-width="1.5" pointer-events="none"/>
  </g>
  <g id="zoomMin">
    <use xlink:href="#rim" fill="#404040"><set attributeName="fill" to="#808080" begin="zoomminus.mouseover" end="zoomminus.mouseout"/></use>
    <path d="M-4,0h8" fill="none" stroke="white" stroke-width="1.5" pointer-events="none"/>
  </g>
  <g id="arrowUp" transform="translate(30 24)">
    <use xlink:href="#rim"/>
    <path pointer-events="none" fill="none" stroke="white" stroke-width="1.5" d="M0,-3.0v7 M-2.5,-0.5L0,-3.0L2.5,-0.5"/>
  </g>
  <g id="arrowRight" transform="rotate(90) translate(36 -43)">
    <use xlink:href="#rim"/>
    <path pointer-events="none" fill="none" stroke="white" stroke-width="1.5" d="M0,-3.0v7 M-2.5,-0.5L0,-3.0L2.5,-0.5"/>
  </g>
  <g id="arrowDown" transform="rotate(180) translate(-30 -48)">
    <use xlink:href="#rim"/>
    <path pointer-events="none" fill="none" stroke="white" stroke-width="1.5" d="M0,-3.0v7 M-2.5,-0.5L0,-3.0L2.5,-0.5"/>
  </g>
  <g id="arrowLeft" transform="rotate(270) translate(-36 17)">
    <use xlink:href="#rim"/>
    <path pointer-events="none" fill="none" stroke="white" stroke-width="1.5" d="M0,-3.0v7 M-2.5,-0.5L0,-3.0L2.5,-0.5"/>
  </g>
  <g id="resetDef">
    <use xlink:href="#rim2" fill="#404040"><set attributeName="fill" to="#808080" begin="reset.mouseover" end="reset.mouseout"/></use>
  </g>
</defs>
<script type="application/ecmascript">
var viewWidth = 719;
var viewHeight = 483;
var sectionId = 'dynsection-6';
</script>
<script type="application/ecmascript" xlink:href="../../svg.min.js"/>
<svg id="graph" class="graph">
<g id="viewport">
<title>GamR::TK::Gate::ApplyY</title>
<!-- Node1 -->
<g id="Node000001" class="node">
<title>Node1</title>
<g id="a_Node000001"><a xlink:title=" ">
<polygon fill="#999999" stroke="#666666" points="710.5,-173.25 588.75,-173.25 588.75,-154 710.5,-154 710.5,-173.25"/>
<text text-anchor="middle" x="649.62" y="-159.75" font-family="Helvetica,sans-Serif" font-size="10.00">GamR::TK::Gate::ApplyY</text>
</a>
</g>
</g>
<!-- Node2 -->
<g id="Node000002" class="node">
<title>Node2</title>
<g id="a_Node000002"><a xlink:href="../../dc/d89/namespace_gam_r_1_1_spect.html#a30e3d5141c8253d594aae4bf21b2ffe8" target="_top" xlink:title=" ">
<polygon fill="white" stroke="#666666" points="552.75,-290.25 379.25,-290.25 379.25,-271 552.75,-271 552.75,-290.25"/>
<text text-anchor="middle" x="466" y="-276.75" font-family="Helvetica,sans-Serif" font-size="10.00">GamR::Spect::BackgroundSubtractY</text>
</a>
</g>
</g>
<!-- Node1&#45;&gt;Node2 -->
<g id="edge1_Node000001_Node000002" class="edge">
<title>Node1&#45;&gt;Node2</title>
<g id="a_edge1_Node000001_Node000002"><a xlink:title=" ">
<path fill="none" stroke="#63b8ff" d="M623.81,-179.61C585.81,-204.09 514.31,-250.15 482.7,-270.51"/>
<polygon fill="#63b8ff" stroke="#63b8ff" points="625.36,-182.78 631.87,-174.42 621.57,-176.89 625.36,-182.78"/>
</a>
</g>
</g>
<!-- Node15 -->
<g id="Node000015" class="node">
<title>Node15</title>
<g id="a_Node000015"><a xlink:href="../../dc/d89/namespace_gam_r_1_1_spect.html#a94fdd3b6aae9f7db9819370d7a3ec544" target="_top" xlink:title=" ">
<polygon fill="white" stroke="#666666" points="519,-173.25 413,-173.25 413,-154 519,-154 519,-173.25"/>
<text text-anchor="middle" x="466" y="-159.75" font-family="Helvetica,sans-Serif" font-size="10.00">GamR::Spect::GateY</text>
</a>
</g>
</g>
<!-- Node1&#45;&gt;Node15 -->
<g id="edge14_Node000001_Node000015" class="edge">
<title>Node1&#45;&gt;Node15</title>
<g id="a_edge14_Node000001_Node000015"><a xlink:title=" ">
<path fill="none" stroke="#63b8ff" d="M576.95,-163.62C557.77,-163.62 537.38,-163.62 519.45,-163.62"/>
<polygon fill="#63b8ff" stroke="#63b8ff" points="576.89,-167.13 586.89,-163.63 576.89,-160.13 576.89,-167.13"/>
</a>
</g>
</g>
<!-- Node16 -->
<g id="Node000016" class="node">
<title>Node16</title>
<g id="a_Node000016"><a xlink:href="../../dc/d89/namespace_gam_r_1_1_spect.html#aa03791ffc2f2f41ab0705e6b1064c255" target="_top" xlink:title=" ">
<polygon fill="white" stroke="#666666" points="519,-75.25 413,-75.25 413,-56 519,-56 519,-75.25"/>
<text text-anchor="middle" x="466" y="-61.75" font-family="Helvetica,sans-Serif" font-size="10.00">GamR::Spect::GateY</text>
</a>
</g>
</g>
<!-- Node1&#45;&gt;Node16 -->
<g id="edge15_Node000001_Node000016" class="edge">
<title>Node1&#45;&gt;Node16</title>
<g id="a_edge15_Node000001_Node000016"><a xlink:title=" ">
<path fill="none" stroke="#63b8ff" d="M620.05,-148.21C582.46,-127.93 517.48,-92.86 485.65,-75.69"/>
<polygon fill="#63b8ff" stroke="#63b8ff" points="618.08,-151.12 628.54,-152.79 621.4,-144.96 618.08,-151.12"/>
</a>
</g>
</g>
<!-- Node3 -->
<g id="Node000003" class="node">
<title>Node3</title>
<g id="a_Node000003"><a xlink:href="../../dc/d89/namespace_gam_r_1_1_spect.html#a53fe10f1093af796bb59a75a3f2b77d8" target="_top" xlink:title=" ">
<polygon fill="white" stroke="#666666" points="343.25,-475.25 169.75,-475.25 169.75,-456 343.25,-456 343.25,-475.25"/>
<text text-anchor="middle" x="256.5" y="-461.75" font-family="Helvetica,sans-Serif" font-size="10.00">GamR::Spect::BackgroundSubtractY</text>
</a>
</g>
</g>
<!-- Node2&#45;&gt;Node3 -->
<g id="edge2_Node000002_Node000003" class="edge">
<title>Node2&#45;&gt;Node3</title>
<g id="a_edge2_Node000002_Node000003"><a xlink:title=" ">
<path fill="none" stroke="#63b8ff" d="M456.41,-300.6C440,-336.24 400.62,-410.54 343.25,-447.62 338.4,-450.76 333.09,-453.37 327.58,-455.52"/>
<polygon fill="#63b8ff" stroke="#63b8ff" points="459.43,-302.42 460.31,-291.86 453.04,-299.57 459.43,-302.42"/>
</a>
</g>
</g>
<!-- Node4 -->
<g id="Node000004" class="node">
<title>Node4</title>
<g id="a_Node000004"><a xlink:href="../../dc/d89/namespace_gam_r_1_1_spect.html#a9f57e2825e847c472a276c5f021c6923" target="_top" xlink:title=" ">
<polygon fill="white" stroke="#666666" points="343.25,-438.25 169.75,-438.25 169.75,-419 343.25,-419 343.25,-438.25"/>
<text text-anchor="middle" x="256.5" y="-424.75" font-family="Helvetica,sans-Serif" font-size="10.00">GamR::Spect::BackgroundSubtractY</text>
</a>
</g>
</g>
<!-- Node2&#45;&gt;Node4 -->
<g id="edge3_Node000002_Node000004" class="edge">
<title>Node2&#45;&gt;Node4</title>
<g id="a_edge3_Node000002_Node000004"><a xlink:title=" ">
<path fill="none" stroke="#63b8ff" d="M452.56,-300.16C433,-329.15 392.21,-383.07 343.25,-410.62 337.55,-413.83 331.34,-416.47 324.97,-418.64"/>
<polygon fill="#63b8ff" stroke="#63b8ff" points="455.37,-302.25 457.94,-291.97 449.52,-298.4 455.37,-302.25"/>
</a>
</g>
</g>
<!-- Node5 -->
<g id="Node000005" class="node">
<title>Node5</title>
<g id="a_Node000005"><a xlink:href="../../dc/d89/namespace_gam_r_1_1_spect.html#af67ed2e9b8f932f4f8e6a7e9e497a209" target="_top" xlink:title=" ">
<polygon fill="white" stroke="#666666" points="343.25,-401.25 169.75,-401.25 169.75,-382 343.25,-382 343.25,-401.25"/>
<text text-anchor="middle" x="256.5" y="-387.75" font-family="Helvetica,sans-Serif" font-size="10.00">GamR::Spect::BackgroundSubtractY</text>
</a>
</g>
</g>
<!-- Node2&#45;&gt;Node5 -->
<g id="edge4_Node000002_Node000005" class="edge">
<title>Node2&#45;&gt;Node5</title>
<g id="a_edge4_Node000002_Node000005"><a xlink:title=" ">
<path fill="none" stroke="#63b8ff" d="M447.13,-298.49C424.8,-319.75 384.48,-354.74 343.25,-373.62 336.34,-376.79 328.85,-379.41 321.28,-381.57"/>
<polygon fill="#63b8ff" stroke="#63b8ff" points="449.47,-301.1 454.2,-291.62 444.59,-296.08 449.47,-301.1"/>
</a>
</g>
</g>
<!-- Node6 -->
<g id="Node000006" class="node">
<title>Node6</title>
<g id="a_Node000006"><a xlink:href="../../dc/d89/namespace_gam_r_1_1_spect.html#ab20c3e853611e78b5bb57eb4aaaf9d22" target="_top" xlink:title=" ">
<polygon fill="white" stroke="#666666" points="343.25,-364.25 169.75,-364.25 169.75,-345 343.25,-345 343.25,-364.25"/>
<text text-anchor="middle" x="256.5" y="-350.75" font-family="Helvetica,sans-Serif" font-size="10.00">GamR::Spect::BackgroundSubtractY</text>
</a>
</g>
</g>
<!-- Node2&#45;&gt;Node6 -->
<g id="edge5_Node000002_Node000006" class="edge">
<title>Node2&#45;&gt;Node6</title>
<g id="a_edge5_Node000002_Node000006"><a xlink:title=" ">
<path fill="none" stroke="#63b8ff" d="M436.63,-295.89C412.41,-308.37 376.35,-325.69 343.25,-336.62 334.01,-339.68 324.02,-342.33 314.25,-344.59"/>
<polygon fill="#63b8ff" stroke="#63b8ff" points="437.97,-299.14 445.21,-291.4 434.73,-292.93 437.97,-299.14"/>
</a>
</g>
</g>
<!-- Node7 -->
<g id="Node000007" class="node">
<title>Node7</title>
<g id="a_Node000007"><a xlink:href="../../dc/d89/namespace_gam_r_1_1_spect.html#ad4833a2b7cbc83d0d14d4d3391abc25c" target="_top" xlink:title=" ">
<polygon fill="white" stroke="#666666" points="343.25,-327.25 169.75,-327.25 169.75,-308 343.25,-308 343.25,-327.25"/>
<text text-anchor="middle" x="256.5" y="-313.75" font-family="Helvetica,sans-Serif" font-size="10.00">GamR::Spect::BackgroundSubtractY</text>
</a>
</g>
</g>
<!-- Node2&#45;&gt;Node7 -->
<g id="edge6_Node000002_Node000007" class="edge">
<title>Node2&#45;&gt;Node7</title>
<g id="a_edge6_Node000002_Node000007"><a xlink:title=" ">
<path fill="none" stroke="#63b8ff" d="M397.05,-292.74C370.22,-297.53 339.74,-302.96 314.13,-307.53"/>
<polygon fill="#63b8ff" stroke="#63b8ff" points="397.58,-296.2 406.81,-291 396.35,-289.31 397.58,-296.2"/>
</a>
</g>
</g>
<!-- Node8 -->
<g id="Node000008" class="node">
<title>Node8</title>
<g id="a_Node000008"><a xlink:href="../../dc/d89/namespace_gam_r_1_1_spect.html#a4a864f0347635567fd993269aa6b3937" target="_top" xlink:title=" ">
<polygon fill="white" stroke="#666666" points="343.25,-290.25 169.75,-290.25 169.75,-271 343.25,-271 343.25,-290.25"/>
<text text-anchor="middle" x="256.5" y="-276.75" font-family="Helvetica,sans-Serif" font-size="10.00">GamR::Spect::BackgroundSubtractY</text>
</a>
</g>
</g>
<!-- Node2&#45;&gt;Node8 -->
<g id="edge7_Node000002_Node000008" class="edge">
<title>Node2&#45;&gt;Node8</title>
<g id="a_edge7_Node000002_Node000008"><a xlink:title=" ">
<path fill="none" stroke="#63b8ff" d="M367.5,-280.62C359.46,-280.62 351.37,-280.62 343.43,-280.62"/>
<polygon fill="#63b8ff" stroke="#63b8ff" points="367.29,-284.13 377.29,-280.63 367.29,-277.13 367.29,-284.13"/>
</a>
</g>
</g>
<!-- Node9 -->
<g id="Node000009" class="node">
<title>Node9</title>
<g id="a_Node000009"><a xlink:href="../../dc/d89/namespace_gam_r_1_1_spect.html#aa46918fe9f40f4f0dcadec10181a1f5f" target="_top" xlink:title=" ">
<polygon fill="white" stroke="#666666" points="343.25,-253.25 169.75,-253.25 169.75,-234 343.25,-234 343.25,-253.25"/>
<text text-anchor="middle" x="256.5" y="-239.75" font-family="Helvetica,sans-Serif" font-size="10.00">GamR::Spect::BackgroundSubtractY</text>
</a>
</g>
</g>
<!-- Node2&#45;&gt;Node9 -->
<g id="edge8_Node000002_Node000009" class="edge">
<title>Node2&#45;&gt;Node9</title>
<g id="a_edge8_Node000002_Node000009"><a xlink:title=" ">
<path fill="none" stroke="#63b8ff" d="M397.05,-268.51C370.22,-263.72 339.74,-258.29 314.13,-253.72"/>
<polygon fill="#63b8ff" stroke="#63b8ff" points="396.35,-271.94 406.81,-270.25 397.58,-265.05 396.35,-271.94"/>
</a>
</g>
</g>
<!-- Node10 -->
<g id="Node000010" class="node">
<title>Node10</title>
<g id="a_Node000010"><a xlink:href="../../d0/d17/_abbreviations_8cc.html#a4ce2a9b78d35f59e1431d654198b17ae" target="_top" xlink:title=" ">
<polygon fill="white" stroke="#666666" points="272,-216.25 241,-216.25 241,-197 272,-197 272,-216.25"/>
<text text-anchor="middle" x="256.5" y="-202.75" font-family="Helvetica,sans-Serif" font-size="10.00">bsy</text>
</a>
</g>
</g>
<!-- Node2&#45;&gt;Node10 -->
<g id="edge9_Node000002_Node000010" class="edge">
<title>Node2&#45;&gt;Node10</title>
<g id="a_edge9_Node000002_Node000010"><a xlink:title=" ">
<path fill="none" stroke="#63b8ff" d="M436.63,-265.36C412.41,-252.88 376.35,-235.56 343.25,-224.62 318.98,-216.61 289.64,-211.36 272.33,-208.7"/>
<polygon fill="#63b8ff" stroke="#63b8ff" points="434.73,-268.32 445.21,-269.85 437.97,-262.11 434.73,-268.32"/>
</a>
</g>
</g>
<!-- Node11 -->
<g id="Node000011" class="node">
<title>Node11</title>
<g id="a_Node000011"><a xlink:href="../../d0/d17/_abbreviations_8cc.html#a8374a0fbdf56305647965f811eabe250" target="_top" xlink:title=" ">
<polygon fill="white" stroke="#666666" points="272,-179.25 241,-179.25 241,-160 272,-160 272,-179.25"/>
<text text-anchor="middle" x="256.5" y="-165.75" font-family="Helvetica,sans-Serif" font-size="10.00">bsy</text>
</a>
</g>
</g>
<!-- Node2&#45;&gt;Node11 -->
<g id="edge10_Node000002_Node000011" class="edge">
<title>Node2&#45;&gt;Node11</title>
<g id="a_edge10_Node000002_Node000011"><a xlink:title=" ">
<path fill="none" stroke="#63b8ff" d="M447.13,-262.76C424.8,-241.5 384.48,-206.51 343.25,-187.62 319.88,-176.92 289.99,-172.5 272.38,-170.74"/>
<polygon fill="#63b8ff" stroke="#63b8ff" points="444.59,-265.17 454.2,-269.63 449.47,-260.15 444.59,-265.17"/>
</a>
</g>
</g>
<!-- Node12 -->
<g id="Node000012" class="node">
<title>Node12</title>
<g id="a_Node000012"><a xlink:href="../../d2/da9/class_gam_r_1_1_ang_dist_1_1_ang_corr_fit.html#a7d0d1589078b53be7a8da0372924c349" target="_top" xlink:title=" ">
<polygon fill="white" stroke="#666666" points="323.38,-141.88 189.62,-141.88 189.62,-111.38 323.38,-111.38 323.38,-141.88"/>
<text text-anchor="start" x="197.62" y="-128.38" font-family="Helvetica,sans-Serif" font-size="10.00">GamR::AngDist::AngCorrFit</text>
<text text-anchor="middle" x="256.5" y="-117.12" font-family="Helvetica,sans-Serif" font-size="10.00">::SetData</text>
</a>
</g>
</g>
<!-- Node2&#45;&gt;Node12 -->
<g id="edge11_Node000002_Node000012" class="edge">
<title>Node2&#45;&gt;Node12</title>
<g id="a_edge11_Node000002_Node000012"><a xlink:title=" ">
<path fill="none" stroke="#63b8ff" d="M448.76,-262.22C418.64,-228.23 356,-158.36 343.25,-150.62 337.17,-146.94 330.51,-143.8 323.67,-141.13"/>
<polygon fill="#63b8ff" stroke="#63b8ff" points="446.08,-264.47 455.33,-269.64 451.32,-259.83 446.08,-264.47"/>
</a>
</g>
</g>
<!-- Node13 -->
<g id="Node000013" class="node">
<title>Node13</title>
<g id="a_Node000013"><a xlink:href="../../d2/da9/class_gam_r_1_1_ang_dist_1_1_ang_corr_fit.html#ade67fbd9efac760657e3d1455a2f5592" target="_top" xlink:title=" ">
<polygon fill="white" stroke="#666666" points="133.75,-165.88 0,-165.88 0,-135.38 133.75,-135.38 133.75,-165.88"/>
<text text-anchor="start" x="8" y="-152.38" font-family="Helvetica,sans-Serif" font-size="10.00">GamR::AngDist::AngCorrFit</text>
<text text-anchor="middle" x="66.88" y="-141.12" font-family="Helvetica,sans-Serif" font-size="10.00">::AngCorrFit</text>
</a>
</g>
</g>
<!-- Node12&#45;&gt;Node13 -->
<g id="edge12_Node000012_Node000013" class="edge">
<title>Node12&#45;&gt;Node13</title>
<g id="a_edge12_Node000012_Node000013"><a xlink:title=" ">
<path fill="none" stroke="#63b8ff" d="M178.26,-136.5C163.59,-138.38 148.35,-140.33 134.06,-142.16"/>
<polygon fill="#63b8ff" stroke="#63b8ff" points="178.37,-140.02 187.85,-135.28 177.49,-133.08 178.37,-140.02"/>
</a>
</g>
</g>
<!-- Node14 -->
<g id="Node000014" class="node">
<title>Node14</title>
<g id="a_Node000014"><a xlink:href="../../d2/da9/class_gam_r_1_1_ang_dist_1_1_ang_corr_fit.html#a22cc58bf6eb5d0eda0bc207561b76921" target="_top" xlink:title=" ">
<polygon fill="white" stroke="#666666" points="133.75,-116.88 0,-116.88 0,-86.38 133.75,-86.38 133.75,-116.88"/>
<text text-anchor="start" x="8" y="-103.38" font-family="Helvetica,sans-Serif" font-size="10.00">GamR::AngDist::AngCorrFit</text>
<text text-anchor="middle" x="66.88" y="-92.12" font-family="Helvetica,sans-Serif" font-size="10.00">::AngCorrFit</text>
</a>
</g>
</g>
<!-- Node12&#45;&gt;Node14 -->
<g id="edge13_Node000012_Node000014" class="edge">
<title>Node12&#45;&gt;Node14</title>
<g id="a_edge13_Node000012_Node000014"><a xlink:title=" ">
<path fill="none" stroke="#63b8ff" d="M178.26,-116.33C163.59,-114.38 148.35,-112.35 134.06,-110.44"/>
<polygon fill="#63b8ff" stroke="#63b8ff" points="177.48,-119.76 187.85,-117.61 178.4,-112.82 177.48,-119.76"/>
</a>
</g>
</g>
<!-- Node17 -->
<g id="Node000017" class="node">
<title>Node17</title>
<g id="a_Node000017"><a xlink:href="../../dc/d89/namespace_gam_r_1_1_spect.html#a3f7906492da100d0d0f89b71ec32f0fe" target="_top" xlink:title=" ">
<polygon fill="white" stroke="#666666" points="309.5,-93.25 203.5,-93.25 203.5,-74 309.5,-74 309.5,-93.25"/>
<text text-anchor="middle" x="256.5" y="-79.75" font-family="Helvetica,sans-Serif" font-size="10.00">GamR::Spect::GateY</text>
</a>
</g>
</g>
<!-- Node16&#45;&gt;Node17 -->
<g id="edge16_Node000016_Node000017" class="edge">
<title>Node16&#45;&gt;Node17</title>
<g id="a_edge16_Node000016_Node000017"><a xlink:title=" ">
<path fill="none" stroke="#63b8ff" d="M401.26,-71.15C371.95,-73.7 337.61,-76.68 309.84,-79.08"/>
<polygon fill="#63b8ff" stroke="#63b8ff" points="401.47,-74.65 411.13,-70.3 400.87,-67.68 401.47,-74.65"/>
</a>
</g>
</g>
<!-- Node18 -->
<g id="Node000018" class="node">
<title>Node18</title>
<g id="a_Node000018"><a xlink:href="../../dc/d89/namespace_gam_r_1_1_spect.html#adfd6d65e3a90168271a324c5b4b316c3" target="_top" xlink:title=" ">
<polygon fill="white" stroke="#666666" points="309.5,-56.25 203.5,-56.25 203.5,-37 309.5,-37 309.5,-56.25"/>
<text text-anchor="middle" x="256.5" y="-42.75" font-family="Helvetica,sans-Serif" font-size="10.00">GamR::Spect::GateY</text>
</a>
</g>
</g>
<!-- Node16&#45;&gt;Node18 -->
<g id="edge17_Node000016_Node000018" class="edge">
<title>Node16&#45;&gt;Node18</title>
<g id="a_edge17_Node000016_Node000018"><a xlink:title=" ">
<path fill="none" stroke="#63b8ff" d="M401.26,-59.79C371.95,-57.1 337.61,-53.96 309.84,-51.42"/>
<polygon fill="#63b8ff" stroke="#63b8ff" points="400.85,-63.27 411.13,-60.69 401.49,-56.3 400.85,-63.27"/>
</a>
</g>
</g>
<!-- Node19 -->
<g id="Node000019" class="node">
<title>Node19</title>
<g id="a_Node000019"><a xlink:href="../../d0/d17/_abbreviations_8cc.html#a2b6292e6e3a654d13305d693191c75ff" target="_top" xlink:title=" ">
<polygon fill="white" stroke="#666666" points="270.9,-19.25 242.1,-19.25 242.1,0 270.9,0 270.9,-19.25"/>
<text text-anchor="middle" x="256.5" y="-5.75" font-family="Helvetica,sans-Serif" font-size="10.00">gy</text>
</a>
</g>
</g>
<!-- Node16&#45;&gt;Node19 -->
<g id="edge18_Node000016_Node000019" class="edge">
<title>Node16&#45;&gt;Node19</title>
<g id="a_edge18_Node000016_Node000019"><a xlink:title=" ">
<path fill="none" stroke="#63b8ff" d="M425.04,-52.09C401.41,-44.36 370.81,-34.8 343.25,-27.62 318.08,-21.07 288.27,-15.24 271.26,-12.09"/>
<polygon fill="#63b8ff" stroke="#63b8ff" points="423.67,-55.33 434.27,-55.14 425.87,-48.68 423.67,-55.33"/>
</a>
</g>
</g>
</g>
</svg>

<g id="navigator" transform="translate(0 0)" fill="#404254">
  <rect fill="#f2f5e9" fill-opacity="0.5" stroke="#606060" stroke-width=".5" x="0" y="0" width="60" height="60"/>
  <use id="zoomplus" xlink:href="#zoomPlus" x="17" y="9" onmousedown="handleZoom(evt,'in')"/>
  <use id="zoomminus" xlink:href="#zoomMin" x="42" y="9" onmousedown="handleZoom(evt,'out')"/>
  <use id="reset" xlink:href="#resetDef" x="30" y="36" onmousedown="handleReset()"/>
   <use id="arrowup" xlink:href="#arrowUp" x="0" y="0" onmousedown="handlePan(0,-1)"/>
  <use id="arrowright" xlink:href="#arrowRight" x="0" y="0" onmousedown="handlePan(1,0)"/>
  <use id="arrowdown" xlink:href="#arrowDown" x="0" y="0" onmousedown="handlePan(0,1)"/>
  <use id="arrowleft" xlink:href="#arrowLeft" x="0" y="0" onmousedown="handlePan(-1,0)"/>
</g>
<svg viewBox="0 0 15 15" width="100%" height="30px" preserveAspectRatio="xMaxYMin meet">
 <g id="arrow_out" transform="scale(0.3 0.3)">
  <a xlink:href="group___t_k_ga32700ec383e9f60b1a48009bec316606_icgraph_org.svg" target="_base">
   <rect id="button" ry="5" rx="5" y="6" x="6" height="38" width="38"
        fill="#f2f5e9" fill-opacity="0.5" stroke="#606060" stroke-width="1.0"/>
   <path id="arrow"
     d="M 11.500037,31.436501 C 11.940474,20.09759 22.043105,11.32322 32.158766,21.979434 L 37.068811,17.246167 C 37.068811,17.246167 37.088388,32 37.088388,32 L 22.160133,31.978069 C 22.160133,31.978069 26.997745,27.140456 26.997745,27.140456 C 18.528582,18.264221 13.291696,25.230495 11.500037,31.436501 z"
     style="fill:#404040;"/>
  </a>
 </g>
</svg>

<style type='text/css'>
<![CDATA[
[data-mouse-over-selected='false'] { opacity: 0.7; }
[data-mouse-over-selected='true']  { opacity: 1.0; }
]]>
</style>
<script type="application/ecmascript"><![CDATA[
document.addEventListener('DOMContentLoaded', (event) => {
  highlightEdges();
  highlightAdjacentNodes();
});
]]></script>
</svg>
