<?xml version="1.0" encoding="UTF-8" standalone="no"?>
<!DOCTYPE svg PUBLIC "-//W3C//DTD SVG 1.1//EN"
 "http://www.w3.org/Graphics/SVG/1.1/DTD/svg11.dtd">
<!-- Generated by graphviz version 8.1.0 (20230707.0739)
 -->
<!-- Title: GamR::TK::Gate::GetHigh Pages: 1 -->
<!--zoomable 503 -->

<svg id="main" version="1.1" xmlns="http://www.w3.org/2000/svg" xmlns:xlink="http://www.w3.org/1999/xlink" xml:space="preserve" onload="init(evt)">
<style type="text/css"><![CDATA[
.node, .edge {opacity: 0.7;}
.node.selected, .edge.selected {opacity: 1;}
.edge:hover path { stroke: red; }
.edge:hover polygon { stroke: red; fill: red; }
]]></style>

<defs>
  <circle id="rim" cx="0" cy="0" r="7"/>
  <circle id="rim2" cx="0" cy="0" r="3.5"/>
  <g id="zoomPlus">
    <use xlink:href="#rim" fill="#404040"><set attributeName="fill" to="#808080" begin="zoomplus.mouseover" end="zoomplus.mouseout"/></use>
    <path d="M-4,0h8M0,-4v8" fill="none" stroke="white" stroke-width="1.5" pointer-events="none"/>
  </g>
  <g id="zoomMin">
    <use xlink:href="#rim" fill="#404040"><set attributeName="fill" to="#808080" begin="zoomminus.mouseover" end="zoomminus.mouseout"/></use>
    <path d="M-4,0h8" fill="none" stroke="white" stroke-width="1.5" pointer-events="none"/>
  </g>
  <g id="arrowUp" transform="translate(30 24)">
    <use xlink:href="#rim"/>
    <path pointer-events="none" fill="none" stroke="white" stroke-width="1.5" d="M0,-3.0v7 M-2.5,-0.5L0,-3.0L2.5,-0.5"/>
  </g>
  <g id="arrowRight" transform="rotate(90) translate(36 -43)">
    <use xlink:href="#rim"/>
    <path pointer-events="none" fill="none" stroke="white" stroke-width="1.5" d="M0,-3.0v7 M-2.5,-0.5L0,-3.0L2.5,-0.5"/>
  </g>
  <g id="arrowDown" transform="rotate(180) translate(-30 -48)">
    <use xlink:href="#rim"/>
    <path pointer-events="none" fill="none" stroke="white" stroke-width="1.5" d="M0,-3.0v7 M-2.5,-0.5L0,-3.0L2.5,-0.5"/>
  </g>
  <g id="arrowLeft" transform="rotate(270) translate(-36 17)">
    <use xlink:href="#rim"/>
    <path pointer-events="none" fill="none" stroke="white" stroke-width="1.5" d="M0,-3.0v7 M-2.5,-0.5L0,-3.0L2.5,-0.5"/>
  </g>
  <g id="resetDef">
    <use xlink:href="#rim2" fill="#404040"><set attributeName="fill" to="#808080" begin="reset.mouseover" end="reset.mouseout"/></use>
  </g>
</defs>
<script type="application/ecmascript">
var viewWidth = 631;
var viewHeight = 503;
var sectionId = 'dynsection-42';
</script>
<script type="application/ecmascript" xlink:href="../../svg.min.js"/>
<svg id="graph" class="graph">
<g id="viewport">
<title>GamR::TK::Gate::GetHigh</title>
<!-- Node1 -->
<g id="Node000001" class="node">
<title>Node1</title>
<g id="a_Node000001"><a xlink:title=" ">
<polygon fill="#999999" stroke="#666666" points="622.75,-254.88 495.75,-254.88 495.75,-235.62 622.75,-235.62 622.75,-254.88"/>
<text text-anchor="middle" x="559.25" y="-241.38" font-family="Helvetica,sans-Serif" font-size="10.00">GamR::TK::Gate::GetHigh</text>
</a>
</g>
</g>
<!-- Node2 -->
<g id="Node000002" class="node">
<title>Node2</title>
<g id="a_Node000002"><a xlink:href="../../df/d67/class_gam_r_1_1_spect_1_1_back_sub2_d.html#ab41f6103abf9bef99411b19c8145d66a" target="_top" xlink:title=" ">
<polygon fill="white" stroke="#666666" points="455.25,-494.5 325.25,-494.5 325.25,-464 455.25,-464 455.25,-494.5"/>
<text text-anchor="start" x="333.25" y="-481" font-family="Helvetica,sans-Serif" font-size="10.00">GamR::Spect::BackSub2D</text>
<text text-anchor="middle" x="390.25" y="-469.75" font-family="Helvetica,sans-Serif" font-size="10.00">::AddBackX</text>
</a>
</g>
</g>
<!-- Node1&#45;&gt;Node2 -->
<g id="edge1_Node000001_Node000002" class="edge">
<title>Node1&#45;&gt;Node2</title>
<g id="a_edge1_Node000001_Node000002"><a xlink:title=" ">
<path fill="none" stroke="#63b8ff" d="M554.07,-265.77C544.61,-307.19 517.71,-401.31 459.75,-454.25 455.82,-457.84 451.34,-460.92 446.59,-463.57"/>
<polygon fill="#63b8ff" stroke="#63b8ff" points="557.68,-266.65 556.38,-256.14 550.84,-265.17 557.68,-266.65"/>
</a>
</g>
</g>
<!-- Node3 -->
<g id="Node000003" class="node">
<title>Node3</title>
<g id="a_Node000003"><a xlink:href="../../df/d67/class_gam_r_1_1_spect_1_1_back_sub2_d.html#ad19c3edf9ea02ea2769157f735a799c1" target="_top" xlink:title=" ">
<polygon fill="white" stroke="#666666" points="455.25,-445.5 325.25,-445.5 325.25,-415 455.25,-415 455.25,-445.5"/>
<text text-anchor="start" x="333.25" y="-432" font-family="Helvetica,sans-Serif" font-size="10.00">GamR::Spect::BackSub2D</text>
<text text-anchor="middle" x="390.25" y="-420.75" font-family="Helvetica,sans-Serif" font-size="10.00">::AddBackY</text>
</a>
</g>
</g>
<!-- Node1&#45;&gt;Node3 -->
<g id="edge2_Node000001_Node000003" class="edge">
<title>Node1&#45;&gt;Node3</title>
<g id="a_edge2_Node000001_Node000003"><a xlink:title=" ">
<path fill="none" stroke="#63b8ff" d="M551.19,-265.22C538.26,-299.02 507.62,-367.59 459.75,-406.25 455.83,-409.42 451.46,-412.18 446.88,-414.59"/>
<polygon fill="#63b8ff" stroke="#63b8ff" points="554.72,-266.78 554.9,-256.19 548.15,-264.36 554.72,-266.78"/>
</a>
</g>
</g>
<!-- Node4 -->
<g id="Node000004" class="node">
<title>Node4</title>
<g id="a_Node000004"><a xlink:href="../../dc/d89/namespace_gam_r_1_1_spect.html#a02f79fc5532999bf21539d9a7cd9b415" target="_top" xlink:title=" ">
<polygon fill="white" stroke="#666666" points="451.5,-396.88 329,-396.88 329,-377.62 451.5,-377.62 451.5,-396.88"/>
<text text-anchor="middle" x="390.25" y="-383.38" font-family="Helvetica,sans-Serif" font-size="10.00">GamR::Spect::CountsBS</text>
</a>
</g>
</g>
<!-- Node1&#45;&gt;Node4 -->
<g id="edge3_Node000001_Node000004" class="edge">
<title>Node1&#45;&gt;Node4</title>
<g id="a_edge3_Node000001_Node000004"><a xlink:title=" ">
<path fill="none" stroke="#63b8ff" d="M548.32,-264.39C533.05,-291.88 501.19,-342.2 459.75,-369.25 454.91,-372.41 449.54,-375.01 443.99,-377.16"/>
<polygon fill="#63b8ff" stroke="#63b8ff" points="551.68,-266.54 553.34,-256.07 545.52,-263.21 551.68,-266.54"/>
</a>
</g>
</g>
<!-- Node5 -->
<g id="Node000005" class="node">
<title>Node5</title>
<g id="a_Node000005"><a xlink:href="../../dc/d89/namespace_gam_r_1_1_spect.html#ae4617cc4b723ae8ff59b0521c25ee484" target="_top" xlink:title=" ">
<polygon fill="white" stroke="#666666" points="451.5,-359.88 329,-359.88 329,-340.62 451.5,-340.62 451.5,-359.88"/>
<text text-anchor="middle" x="390.25" y="-346.38" font-family="Helvetica,sans-Serif" font-size="10.00">GamR::Spect::CountsBS</text>
</a>
</g>
</g>
<!-- Node1&#45;&gt;Node5 -->
<g id="edge4_Node000001_Node000005" class="edge">
<title>Node1&#45;&gt;Node5</title>
<g id="a_edge4_Node000001_Node000005"><a xlink:title=" ">
<path fill="none" stroke="#63b8ff" d="M542.18,-263.47C524.02,-282.98 492.68,-313.51 459.75,-331.25 453.12,-334.82 445.76,-337.77 438.4,-340.19"/>
<polygon fill="#63b8ff" stroke="#63b8ff" points="544.41,-266.12 548.56,-256.37 539.24,-261.41 544.41,-266.12"/>
</a>
</g>
</g>
<!-- Node6 -->
<g id="Node000006" class="node">
<title>Node6</title>
<g id="a_Node000006"><a xlink:href="../../d0/d74/group___t_k.html#gabe9febe06ad5c3011ce247254014b145" target="_top" xlink:title=" ">
<polygon fill="white" stroke="#666666" points="459.75,-322.5 320.75,-322.5 320.75,-292 459.75,-292 459.75,-322.5"/>
<text text-anchor="start" x="328.75" y="-309" font-family="Helvetica,sans-Serif" font-size="10.00">GamR::TK::Gate::GetIntegral</text>
<text text-anchor="middle" x="390.25" y="-297.75" font-family="Helvetica,sans-Serif" font-size="10.00">Error</text>
</a>
</g>
</g>
<!-- Node1&#45;&gt;Node6 -->
<g id="edge5_Node000001_Node000006" class="edge">
<title>Node1&#45;&gt;Node6</title>
<g id="a_edge5_Node000001_Node000006"><a xlink:title=" ">
<path fill="none" stroke="#63b8ff" d="M522.69,-259.28C504,-266.57 480.7,-275.54 459.75,-283.25 452.3,-285.99 444.37,-288.84 436.64,-291.57"/>
<polygon fill="#63b8ff" stroke="#63b8ff" points="523.79,-262.21 531.82,-255.31 521.23,-255.7 523.79,-262.21"/>
</a>
</g>
</g>
<!-- Node7 -->
<g id="Node000007" class="node">
<title>Node7</title>
<g id="a_Node000007"><a xlink:href="../../dc/d89/namespace_gam_r_1_1_spect.html#a65b45f6deafa9285890fe026d37bff2e" target="_top" xlink:title=" ">
<polygon fill="white" stroke="#666666" points="452.25,-273.88 328.25,-273.88 328.25,-254.62 452.25,-254.62 452.25,-273.88"/>
<text text-anchor="middle" x="390.25" y="-260.38" font-family="Helvetica,sans-Serif" font-size="10.00">GamR::Spect::IntegralBS</text>
</a>
</g>
</g>
<!-- Node1&#45;&gt;Node7 -->
<g id="edge6_Node000001_Node000007" class="edge">
<title>Node1&#45;&gt;Node7</title>
<g id="a_edge6_Node000001_Node000007"><a xlink:title=" ">
<path fill="none" stroke="#63b8ff" d="M484.91,-253.59C474.12,-254.82 463.11,-256.07 452.6,-257.27"/>
<polygon fill="#63b8ff" stroke="#63b8ff" points="485.05,-256.99 494.59,-252.38 484.26,-250.03 485.05,-256.99"/>
</a>
</g>
</g>
<!-- Node8 -->
<g id="Node000008" class="node">
<title>Node8</title>
<g id="a_Node000008"><a xlink:href="../../d0/d74/group___t_k.html#ga5bf69c953a7d38ac9c165570859d4cb6" target="_top" xlink:title=" ">
<polygon fill="white" stroke="#666666" points="439.5,-236.88 341,-236.88 341,-217.62 439.5,-217.62 439.5,-236.88"/>
<text text-anchor="middle" x="390.25" y="-223.38" font-family="Helvetica,sans-Serif" font-size="10.00">GamR::TK::Gate::ls</text>
</a>
</g>
</g>
<!-- Node1&#45;&gt;Node8 -->
<g id="edge7_Node000001_Node000008" class="edge">
<title>Node1&#45;&gt;Node8</title>
<g id="a_edge7_Node000001_Node000008"><a xlink:title=" ">
<path fill="none" stroke="#63b8ff" d="M484.66,-237.32C469.51,-235.68 453.91,-234 439.91,-232.49"/>
<polygon fill="#63b8ff" stroke="#63b8ff" points="484.27,-240.9 494.59,-238.5 485.02,-233.94 484.27,-240.9"/>
</a>
</g>
</g>
<!-- Node9 -->
<g id="Node000009" class="node">
<title>Node9</title>
<g id="a_Node000009"><a xlink:href="../../d0/d74/group___t_k.html#gaeb0a298da3a5064e12a51874e877c098" target="_top" xlink:title=" ">
<polygon fill="white" stroke="#666666" points="446.62,-199.88 333.88,-199.88 333.88,-180.62 446.62,-180.62 446.62,-199.88"/>
<text text-anchor="middle" x="390.25" y="-186.38" font-family="Helvetica,sans-Serif" font-size="10.00">GamR::TK::operator&lt;&lt;</text>
</a>
</g>
</g>
<!-- Node1&#45;&gt;Node9 -->
<g id="edge8_Node000001_Node000009" class="edge">
<title>Node1&#45;&gt;Node9</title>
<g id="a_edge8_Node000001_Node000009"><a xlink:title=" ">
<path fill="none" stroke="#63b8ff" d="M523.66,-231.27C504.91,-223.94 481.24,-215.09 459.75,-208.25 450.96,-205.45 441.44,-202.75 432.38,-200.33"/>
<polygon fill="#63b8ff" stroke="#63b8ff" points="522.22,-234.85 532.8,-235.27 524.79,-228.34 522.22,-234.85"/>
</a>
</g>
</g>
<!-- Node10 -->
<g id="Node000010" class="node">
<title>Node10</title>
<g id="a_Node000010"><a xlink:href="../../d0/d74/group___t_k.html#ga4f526f6f266c468a27e072932764f83a" target="_top" xlink:title=" ">
<polygon fill="white" stroke="#666666" points="447.38,-162.88 333.12,-162.88 333.12,-143.62 447.38,-143.62 447.38,-162.88"/>
<text text-anchor="middle" x="390.25" y="-149.38" font-family="Helvetica,sans-Serif" font-size="10.00">GamR::TK::BPeak::Set</text>
</a>
</g>
</g>
<!-- Node1&#45;&gt;Node10 -->
<g id="edge9_Node000001_Node000010" class="edge">
<title>Node1&#45;&gt;Node10</title>
<g id="a_edge9_Node000001_Node000010"><a xlink:title=" ">
<path fill="none" stroke="#63b8ff" d="M539.98,-228.03C521.22,-211.24 490.5,-186.13 459.75,-171.25 453.33,-168.14 446.3,-165.52 439.27,-163.32"/>
<polygon fill="#63b8ff" stroke="#63b8ff" points="537.2,-230.15 546.94,-234.31 541.92,-224.98 537.2,-230.15"/>
</a>
</g>
</g>
<!-- Node11 -->
<g id="Node000011" class="node">
<title>Node11</title>
<g id="a_Node000011"><a xlink:href="../../d0/d74/group___t_k.html#ga556295172c5041f83e4d5fc8b1345850" target="_top" xlink:title=" ">
<polygon fill="white" stroke="#666666" points="284.75,-143.88 150.25,-143.88 150.25,-124.62 284.75,-124.62 284.75,-143.88"/>
<text text-anchor="middle" x="217.5" y="-130.38" font-family="Helvetica,sans-Serif" font-size="10.00">GamR::TK::BPeak::SetCont</text>
</a>
</g>
</g>
<!-- Node1&#45;&gt;Node11 -->
<g id="edge10_Node000001_Node000011" class="edge">
<title>Node1&#45;&gt;Node11</title>
<g id="a_edge10_Node000001_Node000011"><a xlink:title=" ">
<path fill="none" stroke="#63b8ff" d="M548.12,-226C532.97,-199.54 501.65,-153.09 459.75,-134.25 395.19,-105.23 310.73,-114.52 260.78,-124.19"/>
<polygon fill="#63b8ff" stroke="#63b8ff" points="545.39,-227.3 553.29,-234.37 551.52,-223.92 545.39,-227.3"/>
</a>
</g>
</g>
<!-- Node13 -->
<g id="Node000013" class="node">
<title>Node13</title>
<g id="a_Node000013"><a xlink:href="../../d0/d74/group___t_k.html#gad601087ac09d19e8549128df1f07c4c1" target="_top" xlink:title=" ">
<polygon fill="white" stroke="#666666" points="458.62,-86.88 321.88,-86.88 321.88,-67.62 458.62,-67.62 458.62,-86.88"/>
<text text-anchor="middle" x="390.25" y="-73.38" font-family="Helvetica,sans-Serif" font-size="10.00">GamR::TK::BPeak::SetPoint</text>
</a>
</g>
</g>
<!-- Node1&#45;&gt;Node13 -->
<g id="edge12_Node000001_Node000013" class="edge">
<title>Node1&#45;&gt;Node13</title>
<g id="a_edge12_Node000001_Node000013"><a xlink:title=" ">
<path fill="none" stroke="#63b8ff" d="M549.63,-225.26C535.33,-194.37 503.86,-135.05 459.75,-101.25 451.95,-95.27 442.54,-90.71 433.23,-87.25"/>
<polygon fill="#63b8ff" stroke="#63b8ff" points="546.83,-226.57 554.11,-234.26 553.22,-223.7 546.83,-226.57"/>
</a>
</g>
</g>
<!-- Node15 -->
<g id="Node000015" class="node">
<title>Node15</title>
<g id="a_Node000015"><a xlink:href="../../df/d67/class_gam_r_1_1_spect_1_1_back_sub2_d.html#a9a5803edfc6d768c32ed659cabae8847" target="_top" xlink:title=" ">
<polygon fill="white" stroke="#666666" points="455.25,-49.5 325.25,-49.5 325.25,-19 455.25,-19 455.25,-49.5"/>
<text text-anchor="start" x="333.25" y="-36" font-family="Helvetica,sans-Serif" font-size="10.00">GamR::Spect::BackSub2D</text>
<text text-anchor="middle" x="390.25" y="-24.75" font-family="Helvetica,sans-Serif" font-size="10.00">::Subtract</text>
</a>
</g>
</g>
<!-- Node1&#45;&gt;Node15 -->
<g id="edge16_Node000001_Node000015" class="edge">
<title>Node1&#45;&gt;Node15</title>
<g id="a_edge16_Node000001_Node000015"><a xlink:title=" ">
<path fill="none" stroke="#63b8ff" d="M553.04,-225.27C542.14,-187.32 513.4,-104.5 459.75,-58.25 456.03,-55.04 451.85,-52.25 447.44,-49.83"/>
<polygon fill="#63b8ff" stroke="#63b8ff" points="549.83,-225.8 555.86,-234.51 556.58,-223.94 549.83,-225.8"/>
</a>
</g>
</g>
<!-- Node12 -->
<g id="Node000012" class="node">
<title>Node12</title>
<g id="a_Node000012"><a xlink:href="../../d0/d74/group___t_k.html#gacea94387106c6b07d16c53a1614a86b9" target="_top" xlink:title=" ">
<polygon fill="white" stroke="#666666" points="114.25,-105.88 0,-105.88 0,-86.62 114.25,-86.62 114.25,-105.88"/>
<text text-anchor="middle" x="57.13" y="-92.38" font-family="Helvetica,sans-Serif" font-size="10.00">GamR::TK::BPeak::Set</text>
</a>
</g>
</g>
<!-- Node11&#45;&gt;Node12 -->
<g id="edge11_Node000011_Node000012" class="edge">
<title>Node11&#45;&gt;Node12</title>
<g id="a_edge11_Node000011_Node000012"><a xlink:title=" ">
<path fill="none" stroke="#63b8ff" d="M163.91,-121.63C143.16,-116.65 119.65,-111.01 100.07,-106.31"/>
<polygon fill="#63b8ff" stroke="#63b8ff" points="162.93,-125.24 173.47,-124.17 164.57,-118.43 162.93,-125.24"/>
</a>
</g>
</g>
<!-- Node13&#45;&gt;Node12 -->
<g id="edge13_Node000013_Node000012" class="edge">
<title>Node13&#45;&gt;Node12</title>
<g id="a_edge13_Node000013_Node000012"><a xlink:title=" ">
<path fill="none" stroke="#63b8ff" d="M310.82,-81.75C250.48,-85.21 168.56,-89.91 114.56,-93.01"/>
<polygon fill="#63b8ff" stroke="#63b8ff" points="310.66,-85.21 320.44,-81.14 310.26,-78.22 310.66,-85.21"/>
</a>
</g>
</g>
<!-- Node14 -->
<g id="Node000014" class="node">
<title>Node14</title>
<g id="a_Node000014"><a xlink:href="../../d0/d74/group___t_k.html#ga705f798b5ced39a94fe9582dd39c55ed" target="_top" xlink:title=" ">
<polygon fill="white" stroke="#666666" points="284.75,-67.88 150.25,-67.88 150.25,-48.62 284.75,-48.62 284.75,-67.88"/>
<text text-anchor="middle" x="217.5" y="-54.38" font-family="Helvetica,sans-Serif" font-size="10.00">GamR::TK::BPeak::SetStep</text>
</a>
</g>
</g>
<!-- Node13&#45;&gt;Node14 -->
<g id="edge14_Node000013_Node000014" class="edge">
<title>Node13&#45;&gt;Node14</title>
<g id="a_edge14_Node000013_Node000014"><a xlink:title=" ">
<path fill="none" stroke="#63b8ff" d="M310.95,-68.54C302.35,-67.58 293.66,-66.61 285.22,-65.67"/>
<polygon fill="#63b8ff" stroke="#63b8ff" points="310.44,-72.11 320.77,-69.74 311.21,-65.16 310.44,-72.11"/>
</a>
</g>
</g>
<!-- Node14&#45;&gt;Node12 -->
<g id="edge15_Node000014_Node000012" class="edge">
<title>Node14&#45;&gt;Node12</title>
<g id="a_edge15_Node000014_Node000012"><a xlink:title=" ">
<path fill="none" stroke="#63b8ff" d="M163.91,-70.87C143.16,-75.85 119.65,-81.49 100.07,-86.19"/>
<polygon fill="#63b8ff" stroke="#63b8ff" points="164.57,-74.07 173.47,-68.33 162.93,-67.26 164.57,-74.07"/>
</a>
</g>
</g>
<!-- Node16 -->
<g id="Node000016" class="node">
<title>Node16</title>
<g id="a_Node000016"><a xlink:href="../../df/d67/class_gam_r_1_1_spect_1_1_back_sub2_d.html#a664a3f650a48e86467a5ddcb2e8cadb8" target="_top" xlink:title=" ">
<polygon fill="white" stroke="#666666" points="282.5,-30.5 152.5,-30.5 152.5,0 282.5,0 282.5,-30.5"/>
<text text-anchor="start" x="160.5" y="-17" font-family="Helvetica,sans-Serif" font-size="10.00">GamR::Spect::BackSub2D</text>
<text text-anchor="middle" x="217.5" y="-5.75" font-family="Helvetica,sans-Serif" font-size="10.00">::BackSub2D</text>
</a>
</g>
</g>
<!-- Node15&#45;&gt;Node16 -->
<g id="edge17_Node000015_Node000016" class="edge">
<title>Node15&#45;&gt;Node16</title>
<g id="a_edge17_Node000015_Node000016"><a xlink:title=" ">
<path fill="none" stroke="#63b8ff" d="M314.37,-25.92C303.89,-24.75 293.19,-23.56 282.93,-22.42"/>
<polygon fill="#63b8ff" stroke="#63b8ff" points="313.86,-29.49 324.18,-27.12 314.63,-22.54 313.86,-29.49"/>
</a>
</g>
</g>
</g>
</svg>

<g id="navigator" transform="translate(0 0)" fill="#404254">
  <rect fill="#f2f5e9" fill-opacity="0.5" stroke="#606060" stroke-width=".5" x="0" y="0" width="60" height="60"/>
  <use id="zoomplus" xlink:href="#zoomPlus" x="17" y="9" onmousedown="handleZoom(evt,'in')"/>
  <use id="zoomminus" xlink:href="#zoomMin" x="42" y="9" onmousedown="handleZoom(evt,'out')"/>
  <use id="reset" xlink:href="#resetDef" x="30" y="36" onmousedown="handleReset()"/>
   <use id="arrowup" xlink:href="#arrowUp" x="0" y="0" onmousedown="handlePan(0,-1)"/>
  <use id="arrowright" xlink:href="#arrowRight" x="0" y="0" onmousedown="handlePan(1,0)"/>
  <use id="arrowdown" xlink:href="#arrowDown" x="0" y="0" onmousedown="handlePan(0,1)"/>
  <use id="arrowleft" xlink:href="#arrowLeft" x="0" y="0" onmousedown="handlePan(-1,0)"/>
</g>
<svg viewBox="0 0 15 15" width="100%" height="30px" preserveAspectRatio="xMaxYMin meet">
 <g id="arrow_out" transform="scale(0.3 0.3)">
  <a xlink:href="group___t_k_gac1c2149596c0bc3ee71f38a871d0aa98_icgraph_org.svg" target="_base">
   <rect id="button" ry="5" rx="5" y="6" x="6" height="38" width="38"
        fill="#f2f5e9" fill-opacity="0.5" stroke="#606060" stroke-width="1.0"/>
   <path id="arrow"
     d="M 11.500037,31.436501 C 11.940474,20.09759 22.043105,11.32322 32.158766,21.979434 L 37.068811,17.246167 C 37.068811,17.246167 37.088388,32 37.088388,32 L 22.160133,31.978069 C 22.160133,31.978069 26.997745,27.140456 26.997745,27.140456 C 18.528582,18.264221 13.291696,25.230495 11.500037,31.436501 z"
     style="fill:#404040;"/>
  </a>
 </g>
</svg>

<style type='text/css'>
<![CDATA[
[data-mouse-over-selected='false'] { opacity: 0.7; }
[data-mouse-over-selected='true']  { opacity: 1.0; }
]]>
</style>
<script type="application/ecmascript"><![CDATA[
document.addEventListener('DOMContentLoaded', (event) => {
  highlightEdges();
  highlightAdjacentNodes();
});
]]></script>
</svg>
