<?xml version="1.0" encoding="UTF-8" standalone="no"?>
<!DOCTYPE svg PUBLIC "-//W3C//DTD SVG 1.1//EN"
 "http://www.w3.org/Graphics/SVG/1.1/DTD/svg11.dtd">
<!-- Generated by graphviz version 9.0.0 (20230911.1827)
 -->
<!-- Title: GamR::TK::Gate::Valid Pages: 1 -->
<svg width="284pt" height="249pt"
 viewBox="0.00 0.00 283.75 249.25" xmlns="http://www.w3.org/2000/svg" xmlns:xlink="http://www.w3.org/1999/xlink">

<svg id="main" version="1.1" xmlns="http://www.w3.org/2000/svg" xmlns:xlink="http://www.w3.org/1999/xlink" xml:space="preserve" onload="init(evt)">
<style type="text/css"><![CDATA[
.node, .edge {opacity: 0.7;}
.node.selected, .edge.selected {opacity: 1;}
.edge:hover path { stroke: red; }
.edge:hover polygon { stroke: red; fill: red; }
]]></style>
<script type="application/ecmascript" xlink:href="../../svg.min.js"/>
<svg id="graph" class="graph">
<g id="graph0" class="graph" transform="scale(1 1) rotate(0) translate(4 245.25)">
<title>GamR::TK::Gate::Valid</title>
<!-- Node1 -->
<g id="Node000001" class="node">
<title>Node1</title>
<g id="a_Node000001"><a xlink:title=" ">
<polygon fill="#999999" stroke="#666666" points="275.75,-130.25 163,-130.25 163,-111 275.75,-111 275.75,-130.25"/>
<text text-anchor="middle" x="219.38" y="-116.75" font-family="Helvetica,sans-Serif" font-size="10.00">GamR::TK::Gate::Valid</text>
</a>
</g>
</g>
<!-- Node2 -->
<g id="Node000002" class="node">
<title>Node2</title>
<g id="a_Node000002"><a xlink:href="../../d0/d74/group___t_k.html#ga94e7befb6a3809594ea27ea924ec8779" target="_top" xlink:title=" ">
<polygon fill="white" stroke="#666666" points="119.5,-241.25 7.5,-241.25 7.5,-222 119.5,-222 119.5,-241.25"/>
<text text-anchor="middle" x="63.5" y="-227.75" font-family="Helvetica,sans-Serif" font-size="10.00">GamR::TK::Gate::Gate</text>
</a>
</g>
</g>
<!-- Node1&#45;&gt;Node2 -->
<g id="edge1_Node000001_Node000002" class="edge">
<title>Node1&#45;&gt;Node2</title>
<g id="a_edge1_Node000001_Node000002"><a xlink:title=" ">
<path fill="none" stroke="#63b8ff" d="M204.58,-139.66C188.33,-160.75 159.4,-194.32 127,-213.62 121.76,-216.75 115.95,-219.35 110.05,-221.52"/>
<polygon fill="#63b8ff" stroke="#63b8ff" points="207.21,-142 210.41,-131.9 201.61,-137.8 207.21,-142"/>
</a>
</g>
</g>
<!-- Node3 -->
<g id="Node000003" class="node">
<title>Node3</title>
<g id="a_Node000003"><a xlink:href="../../d0/d74/group___t_k.html#ga377441513b80802075538509e857dd60" target="_top" xlink:title=" ">
<polygon fill="white" stroke="#666666" points="127,-204.25 0,-204.25 0,-185 127,-185 127,-204.25"/>
<text text-anchor="middle" x="63.5" y="-190.75" font-family="Helvetica,sans-Serif" font-size="10.00">GamR::TK::Gate::SetGate</text>
</a>
</g>
</g>
<!-- Node1&#45;&gt;Node3 -->
<g id="edge2_Node000001_Node000003" class="edge">
<title>Node1&#45;&gt;Node3</title>
<g id="a_edge2_Node000001_Node000003"><a xlink:title=" ">
<path fill="none" stroke="#63b8ff" d="M195.46,-137.08C177.53,-149.35 151.59,-165.79 127,-176.62 120.18,-179.63 112.72,-182.28 105.41,-184.56"/>
<polygon fill="#63b8ff" stroke="#63b8ff" points="197.33,-140.04 203.53,-131.45 193.33,-134.3 197.33,-140.04"/>
</a>
</g>
</g>
<!-- Node4 -->
<g id="Node000004" class="node">
<title>Node4</title>
<g id="a_Node000004"><a xlink:href="../../d0/d74/group___t_k.html#ga18b5a652ff9ff4cff197e8d12d39fa29" target="_top" xlink:title=" ">
<polygon fill="white" stroke="#666666" points="127,-167.25 0,-167.25 0,-148 127,-148 127,-167.25"/>
<text text-anchor="middle" x="63.5" y="-153.75" font-family="Helvetica,sans-Serif" font-size="10.00">GamR::TK::Gate::SetGate</text>
</a>
</g>
</g>
<!-- Node1&#45;&gt;Node4 -->
<g id="edge3_Node000001_Node000004" class="edge">
<title>Node1&#45;&gt;Node4</title>
<g id="a_edge3_Node000001_Node000004"><a xlink:title=" ">
<path fill="none" stroke="#63b8ff" d="M165.3,-133.39C146.08,-138.01 124.64,-143.16 106.5,-147.53"/>
<polygon fill="#63b8ff" stroke="#63b8ff" points="165.95,-136.83 174.86,-131.09 164.32,-130.02 165.95,-136.83"/>
</a>
</g>
</g>
<!-- Node5 -->
<g id="Node000005" class="node">
<title>Node5</title>
<g id="a_Node000005"><a xlink:href="../../d0/d74/group___t_k.html#ga24e2d56f90a7edc294ea9beef1ae7c91" target="_top" xlink:title=" ">
<polygon fill="white" stroke="#666666" points="126.62,-130.25 0.38,-130.25 0.38,-111 126.62,-111 126.62,-130.25"/>
<text text-anchor="middle" x="63.5" y="-116.75" font-family="Helvetica,sans-Serif" font-size="10.00">GamR::TK::Gate::SetHigh</text>
</a>
</g>
</g>
<!-- Node1&#45;&gt;Node5 -->
<g id="edge4_Node000001_Node000005" class="edge">
<title>Node1&#45;&gt;Node5</title>
<g id="a_edge4_Node000001_Node000005"><a xlink:title=" ">
<path fill="none" stroke="#63b8ff" d="M151.48,-120.62C143.35,-120.62 135.08,-120.62 127.02,-120.62"/>
<polygon fill="#63b8ff" stroke="#63b8ff" points="151.31,-124.13 161.31,-120.63 151.31,-117.13 151.31,-124.13"/>
</a>
</g>
</g>
<!-- Node6 -->
<g id="Node000006" class="node">
<title>Node6</title>
<g id="a_Node000006"><a xlink:href="../../d0/d74/group___t_k.html#gaa651a72cdf22944bdd51fe337e82b550" target="_top" xlink:title=" ">
<polygon fill="white" stroke="#666666" points="126.62,-93.25 0.38,-93.25 0.38,-74 126.62,-74 126.62,-93.25"/>
<text text-anchor="middle" x="63.5" y="-79.75" font-family="Helvetica,sans-Serif" font-size="10.00">GamR::TK::Gate::SetHigh</text>
</a>
</g>
</g>
<!-- Node1&#45;&gt;Node6 -->
<g id="edge5_Node000001_Node000006" class="edge">
<title>Node1&#45;&gt;Node6</title>
<g id="a_edge5_Node000001_Node000006"><a xlink:title=" ">
<path fill="none" stroke="#63b8ff" d="M165.3,-107.86C146.08,-103.24 124.64,-98.09 106.5,-93.72"/>
<polygon fill="#63b8ff" stroke="#63b8ff" points="164.32,-111.23 174.86,-110.16 165.95,-104.42 164.32,-111.23"/>
</a>
</g>
</g>
<!-- Node7 -->
<g id="Node000007" class="node">
<title>Node7</title>
<g id="a_Node000007"><a xlink:href="../../d0/d74/group___t_k.html#ga3d39e18fbcfe0cf3971a10e61f0d9191" target="_top" xlink:title=" ">
<polygon fill="white" stroke="#666666" points="125.88,-56.25 1.13,-56.25 1.13,-37 125.88,-37 125.88,-56.25"/>
<text text-anchor="middle" x="63.5" y="-42.75" font-family="Helvetica,sans-Serif" font-size="10.00">GamR::TK::Gate::SetLow</text>
</a>
</g>
</g>
<!-- Node1&#45;&gt;Node7 -->
<g id="edge6_Node000001_Node000007" class="edge">
<title>Node1&#45;&gt;Node7</title>
<g id="a_edge6_Node000001_Node000007"><a xlink:title=" ">
<path fill="none" stroke="#63b8ff" d="M195.46,-104.17C177.53,-91.9 151.59,-75.46 127,-64.62 120.18,-61.62 112.72,-58.97 105.41,-56.69"/>
<polygon fill="#63b8ff" stroke="#63b8ff" points="193.33,-106.95 203.53,-109.8 197.33,-101.21 193.33,-106.95"/>
</a>
</g>
</g>
<!-- Node8 -->
<g id="Node000008" class="node">
<title>Node8</title>
<g id="a_Node000008"><a xlink:href="../../d0/d74/group___t_k.html#ga70c86ffda923e199ce6625fb73b75f4b" target="_top" xlink:title=" ">
<polygon fill="white" stroke="#666666" points="125.88,-19.25 1.13,-19.25 1.13,0 125.88,0 125.88,-19.25"/>
<text text-anchor="middle" x="63.5" y="-5.75" font-family="Helvetica,sans-Serif" font-size="10.00">GamR::TK::Gate::SetLow</text>
</a>
</g>
</g>
<!-- Node1&#45;&gt;Node8 -->
<g id="edge7_Node000001_Node000008" class="edge">
<title>Node1&#45;&gt;Node8</title>
<g id="a_edge7_Node000001_Node000008"><a xlink:title=" ">
<path fill="none" stroke="#63b8ff" d="M204.58,-101.59C188.33,-80.5 159.4,-46.93 127,-27.62 121.76,-24.5 115.95,-21.9 110.05,-19.73"/>
<polygon fill="#63b8ff" stroke="#63b8ff" points="201.61,-103.45 210.41,-109.35 207.21,-99.25 201.61,-103.45"/>
</a>
</g>
</g>
</g>
</svg>
</svg>

<style type='text/css'>
<![CDATA[
[data-mouse-over-selected='false'] { opacity: 0.7; }
[data-mouse-over-selected='true']  { opacity: 1.0; }
]]>
</style>
<script type="application/ecmascript"><![CDATA[
document.addEventListener('DOMContentLoaded', (event) => {
  highlightEdges();
  highlightAdjacentNodes();
});
]]></script>
</svg>
