<?xml version="1.0" encoding="UTF-8" standalone="no"?>
<!DOCTYPE svg PUBLIC "-//W3C//DTD SVG 1.1//EN"
 "http://www.w3.org/Graphics/SVG/1.1/DTD/svg11.dtd">
<!-- Generated by graphviz version 8.1.0 (20230707.0739)
 -->
<!-- Title: GamR::TK::BPeak::Set Pages: 1 -->
<svg width="285pt" height="45pt"
 viewBox="0.00 0.00 285.25 45.25" xmlns="http://www.w3.org/2000/svg" xmlns:xlink="http://www.w3.org/1999/xlink">
<g id="graph0" class="graph" transform="scale(1 1) rotate(0) translate(4 41.25)">
<title>GamR::TK::BPeak::Set</title>
<!-- Node1 -->
<g id="Node000001" class="node">
<title>Node1</title>
<g id="a_Node000001"><a xlink:title=" ">
<polygon fill="#999999" stroke="#666666" points="114.25,-19.25 0,-19.25 0,0 114.25,0 114.25,-19.25"/>
<text text-anchor="middle" x="57.12" y="-5.75" font-family="Helvetica,sans-Serif" font-size="10.00">GamR::TK::BPeak::Set</text>
</a>
</g>
</g>
<!-- Node2 -->
<g id="Node000002" class="node">
<title>Node2</title>
<g id="a_Node000002"><a xlink:href="../../d0/d74/group___t_k.html#ga78f4477af7c95058e8a572065086f68a" target="_top" xlink:title=" ">
<polygon fill="white" stroke="#666666" points="277.25,-19.25 150.25,-19.25 150.25,0 277.25,0 277.25,-19.25"/>
<text text-anchor="middle" x="213.75" y="-5.75" font-family="Helvetica,sans-Serif" font-size="10.00">GamR::TK::Gate::SetGate</text>
</a>
</g>
</g>
<!-- Node1&#45;&gt;Node2 -->
<g id="edge1_Node000001_Node000002" class="edge">
<title>Node1&#45;&gt;Node2</title>
<g id="a_edge1_Node000001_Node000002"><a xlink:title=" ">
<path fill="none" stroke="#63b8ff" d="M114.39,-9.62C122.43,-9.62 130.81,-9.62 139.12,-9.62"/>
<polygon fill="#63b8ff" stroke="#63b8ff" points="138.99,-13.13 148.99,-9.62 138.99,-6.13 138.99,-13.13"/>
</a>
</g>
</g>
<!-- Node2&#45;&gt;Node2 -->
<g id="edge2_Node000002_Node000002" class="edge">
<title>Node2&#45;&gt;Node2</title>
<g id="a_edge2_Node000002_Node000002"><a xlink:title=" ">
<path fill="none" stroke="#63b8ff" d="M189.23,-19.54C178.04,-28.15 186.22,-37.25 213.75,-37.25 230.1,-37.25 239.62,-34.04 242.32,-29.63"/>
<polygon fill="#63b8ff" stroke="#63b8ff" points="245.24,-28.52 238.27,-20.54 238.74,-31.12 245.24,-28.52"/>
</a>
</g>
</g>
</g>
</svg>
