<?xml version="1.0" encoding="UTF-8" standalone="no"?>
<!DOCTYPE svg PUBLIC "-//W3C//DTD SVG 1.1//EN"
 "http://www.w3.org/Graphics/SVG/1.1/DTD/svg11.dtd">
<!-- Generated by graphviz version 12.2.1 (20241206.2353)
 -->
<!-- Title: GamR::TK::Gate::ApplyX Pages: 1 -->
<!--zoomable 452 -->

<svg id="main" version="1.1" xmlns="http://www.w3.org/2000/svg" xmlns:xlink="http://www.w3.org/1999/xlink" xml:space="preserve" onload="init(evt)">

<style type="text/css"><![CDATA[
.node, .edge {opacity: 0.7;}
.node.selected, .edge.selected {opacity: 1;}
.edge:hover path { stroke: red; }
.edge:hover polygon { stroke: red; fill: red; }
]]></style>

<defs>
  <circle id="rim" cx="0" cy="0" r="7"/>
  <circle id="rim2" cx="0" cy="0" r="3.5"/>
  <g id="zoomPlus">
    <use xlink:href="#rim" fill="#404040"><set attributeName="fill" to="#808080" begin="zoomplus.mouseover" end="zoomplus.mouseout"/></use>
    <path d="M-4,0h8M0,-4v8" fill="none" stroke="white" stroke-width="1.5" pointer-events="none"/>
  </g>
  <g id="zoomMin">
    <use xlink:href="#rim" fill="#404040"><set attributeName="fill" to="#808080" begin="zoomminus.mouseover" end="zoomminus.mouseout"/></use>
    <path d="M-4,0h8" fill="none" stroke="white" stroke-width="1.5" pointer-events="none"/>
  </g>
  <g id="arrowUp" transform="translate(30 24)">
    <use xlink:href="#rim"/>
    <path pointer-events="none" fill="none" stroke="white" stroke-width="1.5" d="M0,-3.0v7 M-2.5,-0.5L0,-3.0L2.5,-0.5"/>
  </g>
  <g id="arrowRight" transform="rotate(90) translate(36 -43)">
    <use xlink:href="#rim"/>
    <path pointer-events="none" fill="none" stroke="white" stroke-width="1.5" d="M0,-3.0v7 M-2.5,-0.5L0,-3.0L2.5,-0.5"/>
  </g>
  <g id="arrowDown" transform="rotate(180) translate(-30 -48)">
    <use xlink:href="#rim"/>
    <path pointer-events="none" fill="none" stroke="white" stroke-width="1.5" d="M0,-3.0v7 M-2.5,-0.5L0,-3.0L2.5,-0.5"/>
  </g>
  <g id="arrowLeft" transform="rotate(270) translate(-36 17)">
    <use xlink:href="#rim"/>
    <path pointer-events="none" fill="none" stroke="white" stroke-width="1.5" d="M0,-3.0v7 M-2.5,-0.5L0,-3.0L2.5,-0.5"/>
  </g>
  <g id="resetDef">
    <use xlink:href="#rim2" fill="#404040"><set attributeName="fill" to="#808080" begin="reset.mouseover" end="reset.mouseout"/></use>
  </g>
</defs>
<script type="application/ecmascript">
var viewWidth = 549;
var viewHeight = 452;
var sectionId = 'dynsection-14';
</script>
<script type="application/ecmascript" xlink:href="../../svg.min.js"/>
<svg id="graph" class="graph">
<g id="viewport">
<title>GamR::TK::Gate::ApplyX</title>
<!-- Node1 -->
<g id="Node000001" class="node">
<title>Node1</title>
<g id="a_Node000001"><a xlink:title=" ">
<polygon fill="#999999" stroke="#666666" points="540.75,-93.25 419,-93.25 419,-74 540.75,-74 540.75,-93.25"/>
<text text-anchor="middle" x="479.88" y="-79.75" font-family="Helvetica,sans-Serif" font-size="10.00">GamR::TK::Gate::ApplyX</text>
</a>
</g>
</g>
<!-- Node2 -->
<g id="Node000002" class="node">
<title>Node2</title>
<g id="a_Node000002"><a xlink:href="../../dc/d89/namespace_gam_r_1_1_spect.html#a796934a2403375f7aaef94f590ea1547" target="_top" xlink:title=" ">
<polygon fill="white" stroke="#666666" points="383,-277.25 209.5,-277.25 209.5,-258 383,-258 383,-277.25"/>
<text text-anchor="middle" x="296.25" y="-263.75" font-family="Helvetica,sans-Serif" font-size="10.00">GamR::Spect::BackgroundSubtractX</text>
</a>
</g>
</g>
<!-- Node1&#45;&gt;Node2 -->
<g id="edge1_Node000001_Node000002" class="edge">
<title>Node1&#45;&gt;Node2</title>
<g id="a_edge1_Node000001_Node000002"><a xlink:title=" ">
<path fill="none" stroke="#63b8ff" d="M461.03,-101.7C423.26,-139.96 336.32,-228.04 307.06,-257.68"/>
<polygon fill="#63b8ff" stroke="#63b8ff" points="463.51,-104.17 468.05,-94.59 458.53,-99.25 463.51,-104.17"/>
</a>
</g>
</g>
<!-- Node12 -->
<g id="Node000012" class="node">
<title>Node12</title>
<g id="a_Node000012"><a xlink:href="../../dc/d89/namespace_gam_r_1_1_spect.html#ab1d61863e9133408fa8887cca2870f6b" target="_top" xlink:title=" ">
<polygon fill="white" stroke="#666666" points="349.25,-130.25 243.25,-130.25 243.25,-111 349.25,-111 349.25,-130.25"/>
<text text-anchor="middle" x="296.25" y="-116.75" font-family="Helvetica,sans-Serif" font-size="10.00">GamR::Spect::GateX</text>
</a>
</g>
</g>
<!-- Node1&#45;&gt;Node12 -->
<g id="edge11_Node000001_Node000012" class="edge">
<title>Node1&#45;&gt;Node12</title>
<g id="a_edge11_Node000001_Node000012"><a xlink:title=" ">
<path fill="none" stroke="#63b8ff" d="M418.14,-96C394.96,-100.72 368.84,-106.04 346.82,-110.53"/>
<polygon fill="#63b8ff" stroke="#63b8ff" points="418.66,-99.46 427.76,-94.04 417.26,-92.6 418.66,-99.46"/>
</a>
</g>
</g>
<!-- Node13 -->
<g id="Node000013" class="node">
<title>Node13</title>
<g id="a_Node000013"><a xlink:href="../../dc/d89/namespace_gam_r_1_1_spect.html#afc1d3c98f1aa4fdc052b238ab931a9f9" target="_top" xlink:title=" ">
<polygon fill="white" stroke="#666666" points="349.25,-93.25 243.25,-93.25 243.25,-74 349.25,-74 349.25,-93.25"/>
<text text-anchor="middle" x="296.25" y="-79.75" font-family="Helvetica,sans-Serif" font-size="10.00">GamR::Spect::GateX</text>
</a>
</g>
</g>
<!-- Node1&#45;&gt;Node13 -->
<g id="edge12_Node000001_Node000013" class="edge">
<title>Node1&#45;&gt;Node13</title>
<g id="a_edge12_Node000001_Node000013"><a xlink:title=" ">
<path fill="none" stroke="#63b8ff" d="M407.2,-83.62C388.02,-83.62 367.63,-83.62 349.7,-83.62"/>
<polygon fill="#63b8ff" stroke="#63b8ff" points="407.14,-87.13 417.14,-83.63 407.14,-80.13 407.14,-87.13"/>
</a>
</g>
</g>
<!-- Node17 -->
<g id="Node000017" class="node">
<title>Node17</title>
<g id="a_Node000017"><a xlink:href="../../d1/dab/namespace_gam_r_1_1_ang_dist.html#ac8de6ea6d44aec17b159e42321fae371" target="_top" xlink:title=" ">
<polygon fill="white" stroke="#666666" points="369.88,-56.25 222.62,-56.25 222.62,-37 369.88,-37 369.88,-56.25"/>
<text text-anchor="middle" x="296.25" y="-42.75" font-family="Helvetica,sans-Serif" font-size="10.00">GamR::AngDist::RatioFunction</text>
</a>
</g>
</g>
<!-- Node1&#45;&gt;Node17 -->
<g id="edge16_Node000001_Node000017" class="edge">
<title>Node1&#45;&gt;Node17</title>
<g id="a_edge16_Node000001_Node000017"><a xlink:title=" ">
<path fill="none" stroke="#63b8ff" d="M418.14,-71.25C394.96,-66.53 368.84,-61.21 346.82,-56.72"/>
<polygon fill="#63b8ff" stroke="#63b8ff" points="417.26,-74.65 427.76,-73.21 418.66,-67.79 417.26,-74.65"/>
</a>
</g>
</g>
<!-- Node18 -->
<g id="Node000018" class="node">
<title>Node18</title>
<g id="a_Node000018"><a xlink:href="../../d0/d74/group___t_k.html#ga4f526f6f266c468a27e072932764f83a" target="_top" xlink:title=" ">
<polygon fill="white" stroke="#666666" points="353.38,-19.25 239.12,-19.25 239.12,0 353.38,0 353.38,-19.25"/>
<text text-anchor="middle" x="296.25" y="-5.75" font-family="Helvetica,sans-Serif" font-size="10.00">GamR::TK::BPeak::Set</text>
</a>
</g>
</g>
<!-- Node1&#45;&gt;Node18 -->
<g id="edge17_Node000001_Node000018" class="edge">
<title>Node1&#45;&gt;Node18</title>
<g id="a_edge17_Node000001_Node000018"><a xlink:title=" ">
<path fill="none" stroke="#63b8ff" d="M455.52,-67.09C436.74,-54.53 409.26,-37.74 383,-27.62 373.77,-24.07 363.7,-21.16 353.82,-18.8"/>
<polygon fill="#63b8ff" stroke="#63b8ff" points="453.51,-69.96 463.74,-72.71 457.46,-64.18 453.51,-69.96"/>
</a>
</g>
</g>
<!-- Node3 -->
<g id="Node000003" class="node">
<title>Node3</title>
<g id="a_Node000003"><a xlink:href="../../dc/d89/namespace_gam_r_1_1_spect.html#a9ca36cc95dbd271270ca12575c69d826" target="_top" xlink:title=" ">
<polygon fill="white" stroke="#666666" points="173.5,-444.25 0,-444.25 0,-425 173.5,-425 173.5,-444.25"/>
<text text-anchor="middle" x="86.75" y="-430.75" font-family="Helvetica,sans-Serif" font-size="10.00">GamR::Spect::BackgroundSubtractX</text>
</a>
</g>
</g>
<!-- Node2&#45;&gt;Node3 -->
<g id="edge2_Node000002_Node000003" class="edge">
<title>Node2&#45;&gt;Node3</title>
<g id="a_edge2_Node000002_Node000003"><a xlink:title=" ">
<path fill="none" stroke="#63b8ff" d="M284.85,-287.68C266.83,-320.27 226.61,-384.33 173.5,-416.62 168.3,-419.79 162.63,-422.4 156.77,-424.56"/>
<polygon fill="#63b8ff" stroke="#63b8ff" points="287.91,-289.37 289.56,-278.9 281.75,-286.06 287.91,-289.37"/>
</a>
</g>
</g>
<!-- Node4 -->
<g id="Node000004" class="node">
<title>Node4</title>
<g id="a_Node000004"><a xlink:href="../../dc/d89/namespace_gam_r_1_1_spect.html#ac28aecfca0ea36bb200357332620c979" target="_top" xlink:title=" ">
<polygon fill="white" stroke="#666666" points="173.5,-407.25 0,-407.25 0,-388 173.5,-388 173.5,-407.25"/>
<text text-anchor="middle" x="86.75" y="-393.75" font-family="Helvetica,sans-Serif" font-size="10.00">GamR::Spect::BackgroundSubtractX</text>
</a>
</g>
</g>
<!-- Node2&#45;&gt;Node4 -->
<g id="edge3_Node000002_Node000004" class="edge">
<title>Node2&#45;&gt;Node4</title>
<g id="a_edge3_Node000002_Node000004"><a xlink:title=" ">
<path fill="none" stroke="#63b8ff" d="M280.66,-286.25C259.76,-311.55 218.79,-356.32 173.5,-379.62 167.28,-382.83 160.52,-385.46 153.63,-387.62"/>
<polygon fill="#63b8ff" stroke="#63b8ff" points="283.14,-288.74 286.7,-278.76 277.7,-284.34 283.14,-288.74"/>
</a>
</g>
</g>
<!-- Node5 -->
<g id="Node000005" class="node">
<title>Node5</title>
<g id="a_Node000005"><a xlink:href="../../dc/d89/namespace_gam_r_1_1_spect.html#a455e119a674e52ef5070c2ff156aed53" target="_top" xlink:title=" ">
<polygon fill="white" stroke="#666666" points="173.5,-370.25 0,-370.25 0,-351 173.5,-351 173.5,-370.25"/>
<text text-anchor="middle" x="86.75" y="-356.75" font-family="Helvetica,sans-Serif" font-size="10.00">GamR::Spect::BackgroundSubtractX</text>
</a>
</g>
</g>
<!-- Node2&#45;&gt;Node5 -->
<g id="edge4_Node000002_Node000005" class="edge">
<title>Node2&#45;&gt;Node5</title>
<g id="a_edge4_Node000002_Node000005"><a xlink:title=" ">
<path fill="none" stroke="#63b8ff" d="M273.49,-284.27C250.05,-301.41 211.03,-327.66 173.5,-342.62 165.59,-345.78 157.03,-348.42 148.5,-350.61"/>
<polygon fill="#63b8ff" stroke="#63b8ff" points="275.39,-287.22 281.33,-278.45 271.21,-281.61 275.39,-287.22"/>
</a>
</g>
</g>
<!-- Node6 -->
<g id="Node000006" class="node">
<title>Node6</title>
<g id="a_Node000006"><a xlink:href="../../dc/d89/namespace_gam_r_1_1_spect.html#a93f3a6a85d6f7ae25c767d3826e29607" target="_top" xlink:title=" ">
<polygon fill="white" stroke="#666666" points="173.5,-333.25 0,-333.25 0,-314 173.5,-314 173.5,-333.25"/>
<text text-anchor="middle" x="86.75" y="-319.75" font-family="Helvetica,sans-Serif" font-size="10.00">GamR::Spect::BackgroundSubtractX</text>
</a>
</g>
</g>
<!-- Node2&#45;&gt;Node6 -->
<g id="edge5_Node000002_Node000006" class="edge">
<title>Node2&#45;&gt;Node6</title>
<g id="a_edge5_Node000002_Node000006"><a xlink:title=" ">
<path fill="none" stroke="#63b8ff" d="M255.29,-281.16C231.66,-288.89 201.06,-298.45 173.5,-305.62 162.61,-308.46 150.85,-311.16 139.63,-313.57"/>
<polygon fill="#63b8ff" stroke="#63b8ff" points="256.12,-284.57 264.52,-278.11 253.92,-277.92 256.12,-284.57"/>
</a>
</g>
</g>
<!-- Node7 -->
<g id="Node000007" class="node">
<title>Node7</title>
<g id="a_Node000007"><a xlink:href="../../dc/d89/namespace_gam_r_1_1_spect.html#ad69fd1bb182c3425d44c6ed261c3a707" target="_top" xlink:title=" ">
<polygon fill="white" stroke="#666666" points="173.5,-296.25 0,-296.25 0,-277 173.5,-277 173.5,-296.25"/>
<text text-anchor="middle" x="86.75" y="-282.75" font-family="Helvetica,sans-Serif" font-size="10.00">GamR::Spect::BackgroundSubtractX</text>
</a>
</g>
</g>
<!-- Node2&#45;&gt;Node7 -->
<g id="edge6_Node000002_Node000007" class="edge">
<title>Node2&#45;&gt;Node7</title>
<g id="a_edge6_Node000002_Node000007"><a xlink:title=" ">
<path fill="none" stroke="#63b8ff" d="M197.75,-276.55C189.71,-277.29 181.62,-278.03 173.68,-278.76"/>
<polygon fill="#63b8ff" stroke="#63b8ff" points="197.91,-280.05 207.55,-275.66 197.27,-273.08 197.91,-280.05"/>
</a>
</g>
</g>
<!-- Node8 -->
<g id="Node000008" class="node">
<title>Node8</title>
<g id="a_Node000008"><a xlink:href="../../dc/d89/namespace_gam_r_1_1_spect.html#a8f877017aa2ddc563b123091ac4510f5" target="_top" xlink:title=" ">
<polygon fill="white" stroke="#666666" points="173.5,-259.25 0,-259.25 0,-240 173.5,-240 173.5,-259.25"/>
<text text-anchor="middle" x="86.75" y="-245.75" font-family="Helvetica,sans-Serif" font-size="10.00">GamR::Spect::BackgroundSubtractX</text>
</a>
</g>
</g>
<!-- Node2&#45;&gt;Node8 -->
<g id="edge7_Node000002_Node000008" class="edge">
<title>Node2&#45;&gt;Node8</title>
<g id="a_edge7_Node000002_Node000008"><a xlink:title=" ">
<path fill="none" stroke="#63b8ff" d="M197.75,-259.17C189.71,-258.47 181.62,-257.77 173.68,-257.08"/>
<polygon fill="#63b8ff" stroke="#63b8ff" points="197.28,-262.64 207.55,-260.02 197.89,-255.67 197.28,-262.64"/>
</a>
</g>
</g>
<!-- Node9 -->
<g id="Node000009" class="node">
<title>Node9</title>
<g id="a_Node000009"><a xlink:href="../../dc/d89/namespace_gam_r_1_1_spect.html#add80c1be39bf712a6792454b88bba02d" target="_top" xlink:title=" ">
<polygon fill="white" stroke="#666666" points="173.5,-222.25 0,-222.25 0,-203 173.5,-203 173.5,-222.25"/>
<text text-anchor="middle" x="86.75" y="-208.75" font-family="Helvetica,sans-Serif" font-size="10.00">GamR::Spect::BackgroundSubtractX</text>
</a>
</g>
</g>
<!-- Node2&#45;&gt;Node9 -->
<g id="edge8_Node000002_Node000009" class="edge">
<title>Node2&#45;&gt;Node9</title>
<g id="a_edge8_Node000002_Node000009"><a xlink:title=" ">
<path fill="none" stroke="#63b8ff" d="M253.75,-254.02C230.33,-246.59 200.44,-237.53 173.5,-230.62 162.6,-227.83 150.83,-225.15 139.61,-222.74"/>
<polygon fill="#63b8ff" stroke="#63b8ff" points="252.66,-257.35 263.25,-257.06 254.79,-250.68 252.66,-257.35"/>
</a>
</g>
</g>
<!-- Node10 -->
<g id="Node000010" class="node">
<title>Node10</title>
<g id="a_Node000010"><a xlink:href="../../d0/d17/_abbreviations_8cc.html#aef6a8ea45b0f28181d783909d2ba41e9" target="_top" xlink:title=" ">
<polygon fill="white" stroke="#666666" points="102.25,-185.25 71.25,-185.25 71.25,-166 102.25,-166 102.25,-185.25"/>
<text text-anchor="middle" x="86.75" y="-171.75" font-family="Helvetica,sans-Serif" font-size="10.00">bsx</text>
</a>
</g>
</g>
<!-- Node2&#45;&gt;Node10 -->
<g id="edge9_Node000002_Node000010" class="edge">
<title>Node2&#45;&gt;Node10</title>
<g id="a_edge9_Node000002_Node000010"><a xlink:title=" ">
<path fill="none" stroke="#63b8ff" d="M273.08,-250.94C249.56,-234.04 210.74,-208.35 173.5,-193.62 149.59,-184.17 119.88,-179.36 102.45,-177.17"/>
<polygon fill="#63b8ff" stroke="#63b8ff" points="270.81,-253.62 280.95,-256.7 274.94,-247.97 270.81,-253.62"/>
</a>
</g>
</g>
<!-- Node11 -->
<g id="Node000011" class="node">
<title>Node11</title>
<g id="a_Node000011"><a xlink:href="../../d0/d17/_abbreviations_8cc.html#abfc712cfb8b010c872d04159d1865eb8" target="_top" xlink:title=" ">
<polygon fill="white" stroke="#666666" points="102.25,-148.25 71.25,-148.25 71.25,-129 102.25,-129 102.25,-148.25"/>
<text text-anchor="middle" x="86.75" y="-134.75" font-family="Helvetica,sans-Serif" font-size="10.00">bsx</text>
</a>
</g>
</g>
<!-- Node2&#45;&gt;Node11 -->
<g id="edge10_Node000002_Node000011" class="edge">
<title>Node2&#45;&gt;Node11</title>
<g id="a_edge10_Node000002_Node000011"><a xlink:title=" ">
<path fill="none" stroke="#63b8ff" d="M280.62,-249.17C259.68,-224.1 218.65,-179.74 173.5,-156.62 150.48,-144.84 120.22,-140.77 102.49,-139.37"/>
<polygon fill="#63b8ff" stroke="#63b8ff" points="277.64,-251.05 286.67,-256.58 283.06,-246.63 277.64,-251.05"/>
</a>
</g>
</g>
<!-- Node14 -->
<g id="Node000014" class="node">
<title>Node14</title>
<g id="a_Node000014"><a xlink:href="../../dc/d89/namespace_gam_r_1_1_spect.html#a7bdcd7f945fa81ab5c0afcbcfcfacbc1" target="_top" xlink:title=" ">
<polygon fill="white" stroke="#666666" points="139.75,-111.25 33.75,-111.25 33.75,-92 139.75,-92 139.75,-111.25"/>
<text text-anchor="middle" x="86.75" y="-97.75" font-family="Helvetica,sans-Serif" font-size="10.00">GamR::Spect::GateX</text>
</a>
</g>
</g>
<!-- Node13&#45;&gt;Node14 -->
<g id="edge13_Node000013_Node000014" class="edge">
<title>Node13&#45;&gt;Node14</title>
<g id="a_edge13_Node000013_Node000014"><a xlink:title=" ">
<path fill="none" stroke="#63b8ff" d="M231.51,-89.15C202.2,-91.7 167.86,-94.68 140.09,-97.08"/>
<polygon fill="#63b8ff" stroke="#63b8ff" points="231.72,-92.65 241.38,-88.3 231.12,-85.68 231.72,-92.65"/>
</a>
</g>
</g>
<!-- Node15 -->
<g id="Node000015" class="node">
<title>Node15</title>
<g id="a_Node000015"><a xlink:href="../../dc/d89/namespace_gam_r_1_1_spect.html#a85ffe93e2637ab66c5e1ce47f3af0eb3" target="_top" xlink:title=" ">
<polygon fill="white" stroke="#666666" points="139.75,-74.25 33.75,-74.25 33.75,-55 139.75,-55 139.75,-74.25"/>
<text text-anchor="middle" x="86.75" y="-60.75" font-family="Helvetica,sans-Serif" font-size="10.00">GamR::Spect::GateX</text>
</a>
</g>
</g>
<!-- Node13&#45;&gt;Node15 -->
<g id="edge14_Node000013_Node000015" class="edge">
<title>Node13&#45;&gt;Node15</title>
<g id="a_edge14_Node000013_Node000015"><a xlink:title=" ">
<path fill="none" stroke="#63b8ff" d="M231.51,-77.79C202.2,-75.1 167.86,-71.96 140.09,-69.42"/>
<polygon fill="#63b8ff" stroke="#63b8ff" points="231.1,-81.27 241.38,-78.69 231.74,-74.3 231.1,-81.27"/>
</a>
</g>
</g>
<!-- Node16 -->
<g id="Node000016" class="node">
<title>Node16</title>
<g id="a_Node000016"><a xlink:href="../../d0/d17/_abbreviations_8cc.html#af319b430bbcb0f06392d14d9fa605ac7" target="_top" xlink:title=" ">
<polygon fill="white" stroke="#666666" points="101.15,-37.25 72.35,-37.25 72.35,-18 101.15,-18 101.15,-37.25"/>
<text text-anchor="middle" x="86.75" y="-23.75" font-family="Helvetica,sans-Serif" font-size="10.00">gx</text>
</a>
</g>
</g>
<!-- Node13&#45;&gt;Node16 -->
<g id="edge15_Node000013_Node000016" class="edge">
<title>Node13&#45;&gt;Node16</title>
<g id="a_edge15_Node000013_Node000016"><a xlink:title=" ">
<path fill="none" stroke="#63b8ff" d="M231.75,-72.55C224.15,-70.56 216.59,-68.27 209.5,-65.62 192.35,-59.23 190.65,-52.02 173.5,-45.62 148.99,-36.48 118.7,-31.5 101.47,-29.21"/>
<polygon fill="#63b8ff" stroke="#63b8ff" points="230.83,-75.93 241.37,-74.88 232.48,-69.12 230.83,-75.93"/>
</a>
</g>
</g>
</g>
</svg>

<g id="navigator" transform="translate(0 0)" fill="#404254">
  <rect fill="#f2f5e9" fill-opacity="0.5" stroke="#606060" stroke-width=".5" x="0" y="0" width="60" height="60"/>
  <use id="zoomplus" xlink:href="#zoomPlus" x="17" y="9" onmousedown="handleZoom(evt,'in')"/>
  <use id="zoomminus" xlink:href="#zoomMin" x="42" y="9" onmousedown="handleZoom(evt,'out')"/>
  <use id="reset" xlink:href="#resetDef" x="30" y="36" onmousedown="handleReset()"/>
   <use id="arrowup" xlink:href="#arrowUp" x="0" y="0" onmousedown="handlePan(0,-1)"/>
  <use id="arrowright" xlink:href="#arrowRight" x="0" y="0" onmousedown="handlePan(1,0)"/>
  <use id="arrowdown" xlink:href="#arrowDown" x="0" y="0" onmousedown="handlePan(0,1)"/>
  <use id="arrowleft" xlink:href="#arrowLeft" x="0" y="0" onmousedown="handlePan(-1,0)"/>
</g>
<svg viewBox="0 0 15 15" width="100%" height="30px" preserveAspectRatio="xMaxYMin meet">
 <g id="arrow_out" transform="scale(0.3 0.3)">
  <a xlink:href="group___t_k_ga6a034a8dfa2c1699aabb9e4111d79cbf_icgraph_org.svg" target="_base">
   <rect id="button" ry="5" rx="5" y="6" x="6" height="38" width="38"
        fill="#f2f5e9" fill-opacity="0.5" stroke="#606060" stroke-width="1.0"/>
   <path id="arrow"
     d="M 11.500037,31.436501 C 11.940474,20.09759 22.043105,11.32322 32.158766,21.979434 L 37.068811,17.246167 C 37.068811,17.246167 37.088388,32 37.088388,32 L 22.160133,31.978069 C 22.160133,31.978069 26.997745,27.140456 26.997745,27.140456 C 18.528582,18.264221 13.291696,25.230495 11.500037,31.436501 z"
     style="fill:#404040;"/>
  </a>
 </g>
</svg>

<style type='text/css'>
<![CDATA[
[data-mouse-over-selected='false'] { opacity: 0.7; }
[data-mouse-over-selected='true']  { opacity: 1.0; }
]]>
</style>
<script type="application/ecmascript"><![CDATA[
document.addEventListener('DOMContentLoaded', (event) => {
  highlightEdges();
  highlightAdjacentNodes();
});
]]></script>
</svg>
