<?xml version="1.0" encoding="UTF-8" standalone="no"?>
<!DOCTYPE svg PUBLIC "-//W3C//DTD SVG 1.1//EN"
 "http://www.w3.org/Graphics/SVG/1.1/DTD/svg11.dtd">
<!-- Generated by graphviz version 8.1.0 (20230707.0739)
 -->
<!-- Title: GamR::TK::BPeak::Print Pages: 1 -->
<svg width="524pt" height="70pt"
 viewBox="0.00 0.00 524.25 69.88" xmlns="http://www.w3.org/2000/svg" xmlns:xlink="http://www.w3.org/1999/xlink">
<g id="graph0" class="graph" transform="scale(1 1) rotate(0) translate(4 65.88)">
<title>GamR::TK::BPeak::Print</title>
<!-- Node1 -->
<g id="Node000001" class="node">
<title>Node1</title>
<g id="a_Node000001"><a xlink:title=" ">
<polygon fill="#999999" stroke="#666666" points="516.25,-42.88 396.75,-42.88 396.75,-23.62 516.25,-23.62 516.25,-42.88"/>
<text text-anchor="middle" x="456.5" y="-29.38" font-family="Helvetica,sans-Serif" font-size="10.00">GamR::TK::BPeak::Print</text>
</a>
</g>
</g>
<!-- Node2 -->
<g id="Node000002" class="node">
<title>Node2</title>
<g id="a_Node000002"><a xlink:href="../../d0/d74/group___t_k.html#gab9295d2a9e654d7540ee264d036590cd" target="_top" xlink:title=" ">
<polygon fill="white" stroke="#666666" points="360.75,-61.88 244.25,-61.88 244.25,-42.62 360.75,-42.62 360.75,-61.88"/>
<text text-anchor="middle" x="302.5" y="-48.38" font-family="Helvetica,sans-Serif" font-size="10.00">GamR::TK::ClickBPeak</text>
</a>
</g>
</g>
<!-- Node1&#45;&gt;Node2 -->
<g id="edge1_Node000001_Node000002" class="edge">
<title>Node1&#45;&gt;Node2</title>
<g id="a_edge1_Node000001_Node000002"><a xlink:title=" ">
<path fill="none" stroke="#63b8ff" d="M385.51,-42C377.23,-43.03 368.87,-44.08 360.8,-45.09"/>
<polygon fill="#63b8ff" stroke="#63b8ff" points="385.81,-45.36 395.3,-40.65 384.94,-38.42 385.81,-45.36"/>
</a>
</g>
</g>
<!-- Node4 -->
<g id="Node000004" class="node">
<title>Node4</title>
<g id="a_Node000004"><a xlink:href="../../d0/d74/group___t_k.html#gaf641b8c1f292803f8695310a0aee1896" target="_top" xlink:title=" ">
<polygon fill="white" stroke="#666666" points="355.5,-24.88 249.5,-24.88 249.5,-5.63 355.5,-5.63 355.5,-24.88"/>
<text text-anchor="middle" x="302.5" y="-11.38" font-family="Helvetica,sans-Serif" font-size="10.00">GamR::TK::FitBPeak</text>
</a>
</g>
</g>
<!-- Node1&#45;&gt;Node4 -->
<g id="edge3_Node000001_Node000004" class="edge">
<title>Node1&#45;&gt;Node4</title>
<g id="a_edge3_Node000001_Node000004"><a xlink:title=" ">
<path fill="none" stroke="#63b8ff" d="M385.55,-24.97C375.56,-23.78 365.43,-22.58 355.86,-21.45"/>
<polygon fill="#63b8ff" stroke="#63b8ff" points="384.96,-28.54 395.3,-26.24 385.78,-21.59 384.96,-28.54"/>
</a>
</g>
</g>
<!-- Node3 -->
<g id="Node000003" class="node">
<title>Node3</title>
<g id="a_Node000003"><a xlink:href="../../d0/d17/_abbreviations_8cc.html#a56da1b89cd1ce3720264ffb38d8505aa" target="_top" xlink:title=" ">
<polygon fill="white" stroke="#666666" points="208.25,-61.88 176.5,-61.88 176.5,-42.62 208.25,-42.62 208.25,-61.88"/>
<text text-anchor="middle" x="192.38" y="-48.38" font-family="Helvetica,sans-Serif" font-size="10.00">cbp</text>
</a>
</g>
</g>
<!-- Node2&#45;&gt;Node3 -->
<g id="edge2_Node000002_Node000003" class="edge">
<title>Node2&#45;&gt;Node3</title>
<g id="a_edge2_Node000002_Node000003"><a xlink:title=" ">
<path fill="none" stroke="#63b8ff" d="M233.03,-52.25C223.89,-52.25 215.34,-52.25 208.54,-52.25"/>
<polygon fill="#63b8ff" stroke="#63b8ff" points="232.96,-55.75 242.96,-52.25 232.96,-48.75 232.96,-55.75"/>
</a>
</g>
</g>
<!-- Node5 -->
<g id="Node000005" class="node">
<title>Node5</title>
<g id="a_Node000005"><a xlink:href="../../d0/d17/_abbreviations_8cc.html#a544c36017b9d9387f39e84863d9ae9a4" target="_top" xlink:title=" ">
<polygon fill="white" stroke="#666666" points="206.78,-24.88 177.97,-24.88 177.97,-5.63 206.78,-5.63 206.78,-24.88"/>
<text text-anchor="middle" x="192.38" y="-11.38" font-family="Helvetica,sans-Serif" font-size="10.00">bp</text>
</a>
</g>
</g>
<!-- Node4&#45;&gt;Node5 -->
<g id="edge4_Node000004_Node000005" class="edge">
<title>Node4&#45;&gt;Node5</title>
<g id="a_edge4_Node000004_Node000005"><a xlink:title=" ">
<path fill="none" stroke="#63b8ff" d="M238.16,-15.25C226.45,-15.25 215.34,-15.25 207.11,-15.25"/>
<polygon fill="#63b8ff" stroke="#63b8ff" points="238.02,-18.75 248.02,-15.25 238.02,-11.75 238.02,-18.75"/>
</a>
</g>
</g>
<!-- Node6 -->
<g id="Node000006" class="node">
<title>Node6</title>
<g id="a_Node000006"><a xlink:href="../../d3/d48/class_gam_r_1_1_processor_1_1_time_walk.html#a10cdc74a1e9f4a14e1c449c9712ba085" target="_top" xlink:title="Iterating through calibration peaks for each detector pair: calculate the time difference spectrum (w...">
<polygon fill="white" stroke="#666666" points="140.5,-30.5 0,-30.5 0,0 140.5,0 140.5,-30.5"/>
<text text-anchor="start" x="8" y="-17" font-family="Helvetica,sans-Serif" font-size="10.00">GamR::Processor::TimeWalk</text>
<text text-anchor="middle" x="70.25" y="-5.75" font-family="Helvetica,sans-Serif" font-size="10.00">::MakeGraphs</text>
</a>
</g>
</g>
<!-- Node5&#45;&gt;Node6 -->
<g id="edge5_Node000005_Node000006" class="edge">
<title>Node5&#45;&gt;Node6</title>
<g id="a_edge5_Node000005_Node000006"><a xlink:title=" ">
<path fill="none" stroke="#63b8ff" d="M166.63,-15.25C158.95,-15.25 150.06,-15.25 140.87,-15.25"/>
<polygon fill="#63b8ff" stroke="#63b8ff" points="166.6,-18.75 176.6,-15.25 166.6,-11.75 166.6,-18.75"/>
</a>
</g>
</g>
</g>
</svg>
