<?xml version="1.0" encoding="UTF-8" standalone="no"?>
<!DOCTYPE svg PUBLIC "-//W3C//DTD SVG 1.1//EN"
 "http://www.w3.org/Graphics/SVG/1.1/DTD/svg11.dtd">
<!-- Generated by graphviz version 6.0.2 (20221011.1828)
 -->
<!-- Title: GamR::TK::Gate::GetBinLow Pages: 1 -->
<svg width="336pt" height="113pt"
 viewBox="0.00 0.00 336.00 113.00" xmlns="http://www.w3.org/2000/svg" xmlns:xlink="http://www.w3.org/1999/xlink">
<g id="graph0" class="graph" transform="scale(1 1) rotate(0) translate(4 109)">
<title>GamR::TK::Gate::GetBinLow</title>
<!-- Node1 -->
<g id="node1" class="node">
<title>Node1</title>
<g id="a_node1"><a xlink:title=" ">
<polygon fill="#999999" stroke="#666666" points="328,-62 188,-62 188,-43 328,-43 328,-62"/>
<text text-anchor="middle" x="258" y="-50" font-family="Helvetica,sans-Serif" font-size="10.00">GamR::TK::Gate::GetBinLow</text>
</a>
</g>
</g>
<!-- Node2 -->
<g id="node2" class="node">
<title>Node2</title>
<g id="a_node2"><a xlink:href="../../d0/d74/group___t_k.html#ga4f4e1356e85afcbad3ed0d433b0e0295" target="_top" xlink:title=" ">
<polygon fill="white" stroke="#666666" points="146,-105 6,-105 6,-86 146,-86 146,-105"/>
<text text-anchor="middle" x="76" y="-93" font-family="Helvetica,sans-Serif" font-size="10.00">GamR::TK::Gate::GetIntegral</text>
</a>
</g>
</g>
<!-- Node1&#45;&gt;Node2 -->
<g id="edge1" class="edge">
<title>Node1&#45;&gt;Node2</title>
<path fill="none" stroke="#63b8ff" d="M207.28,-64.38C178.78,-71.19 143.5,-79.62 116.84,-85.98"/>
<polygon fill="#63b8ff" stroke="#63b8ff" points="208.14,-67.77 217.05,-62.04 206.51,-60.96 208.14,-67.77"/>
</g>
<!-- Node3 -->
<g id="node3" class="node">
<title>Node3</title>
<g id="a_node3"><a xlink:href="../../d0/d74/group___t_k.html#gabe9febe06ad5c3011ce247254014b145" target="_top" xlink:title=" ">
<polygon fill="white" stroke="#666666" points="146,-67.5 6,-67.5 6,-37.5 146,-37.5 146,-67.5"/>
<text text-anchor="start" x="14" y="-55.5" font-family="Helvetica,sans-Serif" font-size="10.00">GamR::TK::Gate::GetIntegral</text>
<text text-anchor="middle" x="76" y="-44.5" font-family="Helvetica,sans-Serif" font-size="10.00">Error</text>
</a>
</g>
</g>
<!-- Node1&#45;&gt;Node3 -->
<g id="edge2" class="edge">
<title>Node1&#45;&gt;Node3</title>
<path fill="none" stroke="#63b8ff" d="M177.88,-52.5C167.32,-52.5 156.56,-52.5 146.19,-52.5"/>
<polygon fill="#63b8ff" stroke="#63b8ff" points="177.92,-56 187.92,-52.5 177.92,-49 177.92,-56"/>
</g>
<!-- Node4 -->
<g id="node4" class="node">
<title>Node4</title>
<g id="a_node4"><a xlink:href="../../d0/d74/group___t_k.html#ga84a72e718fe092a81a685c6fc873621c" target="_top" xlink:title=" ">
<polygon fill="white" stroke="#666666" points="152,-19 0,-19 0,0 152,0 152,-19"/>
<text text-anchor="middle" x="76" y="-7" font-family="Helvetica,sans-Serif" font-size="10.00">GamR::TK::Gate::GetTrueWidth</text>
</a>
</g>
</g>
<!-- Node1&#45;&gt;Node4 -->
<g id="edge3" class="edge">
<title>Node1&#45;&gt;Node4</title>
<path fill="none" stroke="#63b8ff" d="M207.28,-40.62C178.78,-33.81 143.5,-25.38 116.84,-19.02"/>
<polygon fill="#63b8ff" stroke="#63b8ff" points="206.51,-44.04 217.05,-42.96 208.14,-37.23 206.51,-44.04"/>
</g>
</g>
</svg>
