<?xml version="1.0" encoding="UTF-8" standalone="no"?>
<!DOCTYPE svg PUBLIC "-//W3C//DTD SVG 1.1//EN"
 "http://www.w3.org/Graphics/SVG/1.1/DTD/svg11.dtd">
<!-- Generated by graphviz version 12.0.0 (20240704.0754)
 -->
<!-- Title: GamR::TK::Gate::GetBinHigh Pages: 1 -->
<svg width="336pt" height="150pt"
 viewBox="0.00 0.00 336.25 150.25" xmlns="http://www.w3.org/2000/svg" xmlns:xlink="http://www.w3.org/1999/xlink">

<svg id="main" version="1.1" xmlns="http://www.w3.org/2000/svg" xmlns:xlink="http://www.w3.org/1999/xlink" xml:space="preserve" onload="init(evt)">
<style type="text/css"><![CDATA[
.node, .edge {opacity: 0.7;}
.node.selected, .edge.selected {opacity: 1;}
.edge:hover path { stroke: red; }
.edge:hover polygon { stroke: red; fill: red; }
]]></style>
<script type="application/ecmascript" xlink:href="../../svg.min.js"/>
<svg id="graph" class="graph">
<g id="graph0" class="graph" transform="scale(1 1) rotate(0) translate(4 146.25)">
<title>GamR::TK::Gate::GetBinHigh</title>
<!-- Node1 -->
<g id="Node000001" class="node">
<title>Node1</title>
<g id="a_Node000001"><a xlink:title=" ">
<polygon fill="#999999" stroke="#666666" points="328.25,-83.25 187,-83.25 187,-64 328.25,-64 328.25,-83.25"/>
<text text-anchor="middle" x="257.62" y="-69.75" font-family="Helvetica,sans-Serif" font-size="10.00">GamR::TK::Gate::GetBinHigh</text>
</a>
</g>
</g>
<!-- Node2 -->
<g id="Node000002" class="node">
<title>Node2</title>
<g id="a_Node000002"><a xlink:href="../../d0/d74/group___t_k.html#gad55816100f4c329653bde4e2884d0a54" target="_top" xlink:title=" ">
<polygon fill="white" stroke="#666666" points="145,-142.25 6,-142.25 6,-123 145,-123 145,-142.25"/>
<text text-anchor="middle" x="75.5" y="-128.75" font-family="Helvetica,sans-Serif" font-size="10.00">GamR::TK::Gate::GetIntegral</text>
</a>
</g>
</g>
<!-- Node1&#45;&gt;Node2 -->
<g id="edge1_Node000001_Node000002" class="edge">
<title>Node1&#45;&gt;Node2</title>
<g id="a_edge1_Node000001_Node000002"><a xlink:title=" ">
<path fill="none" stroke="#63b8ff" d="M223.04,-87.98C202.48,-96.44 175.5,-106.95 151,-114.62 141.86,-117.49 131.97,-120.17 122.47,-122.54"/>
<polygon fill="#63b8ff" stroke="#63b8ff" points="224.16,-91.31 232.05,-84.23 221.47,-84.84 224.16,-91.31"/>
</a>
</g>
</g>
<!-- Node3 -->
<g id="Node000003" class="node">
<title>Node3</title>
<g id="a_Node000003"><a xlink:href="../../d0/d74/group___t_k.html#ga4f4e1356e85afcbad3ed0d433b0e0295" target="_top" xlink:title=" ">
<polygon fill="white" stroke="#666666" points="145,-105.25 6,-105.25 6,-86 145,-86 145,-105.25"/>
<text text-anchor="middle" x="75.5" y="-91.75" font-family="Helvetica,sans-Serif" font-size="10.00">GamR::TK::Gate::GetIntegral</text>
</a>
</g>
</g>
<!-- Node1&#45;&gt;Node3 -->
<g id="edge2_Node000001_Node000003" class="edge">
<title>Node1&#45;&gt;Node3</title>
<g id="a_edge2_Node000001_Node000003"><a xlink:title=" ">
<path fill="none" stroke="#63b8ff" d="M175.5,-83.53C165.47,-84.76 155.29,-86 145.47,-87.2"/>
<polygon fill="#63b8ff" stroke="#63b8ff" points="175.72,-87.03 185.22,-82.35 174.87,-80.08 175.72,-87.03"/>
</a>
</g>
</g>
<!-- Node4 -->
<g id="Node000004" class="node">
<title>Node4</title>
<g id="a_Node000004"><a xlink:href="../../d0/d74/group___t_k.html#gabe9febe06ad5c3011ce247254014b145" target="_top" xlink:title=" ">
<polygon fill="white" stroke="#666666" points="145,-67.88 6,-67.88 6,-37.38 145,-37.38 145,-67.88"/>
<text text-anchor="start" x="14" y="-54.38" font-family="Helvetica,sans-Serif" font-size="10.00">GamR::TK::Gate::GetIntegral</text>
<text text-anchor="middle" x="75.5" y="-43.12" font-family="Helvetica,sans-Serif" font-size="10.00">Error</text>
</a>
</g>
</g>
<!-- Node1&#45;&gt;Node4 -->
<g id="edge3_Node000001_Node000004" class="edge">
<title>Node1&#45;&gt;Node4</title>
<g id="a_edge3_Node000001_Node000004"><a xlink:title=" ">
<path fill="none" stroke="#63b8ff" d="M175.5,-64.17C165.47,-63 155.29,-61.81 145.47,-60.67"/>
<polygon fill="#63b8ff" stroke="#63b8ff" points="174.88,-67.62 185.22,-65.3 175.7,-60.67 174.88,-67.62"/>
</a>
</g>
</g>
<!-- Node5 -->
<g id="Node000005" class="node">
<title>Node5</title>
<g id="a_Node000005"><a xlink:href="../../d0/d74/group___t_k.html#ga84a72e718fe092a81a685c6fc873621c" target="_top" xlink:title=" ">
<polygon fill="white" stroke="#666666" points="151,-19.25 0,-19.25 0,0 151,0 151,-19.25"/>
<text text-anchor="middle" x="75.5" y="-5.75" font-family="Helvetica,sans-Serif" font-size="10.00">GamR::TK::Gate::GetTrueWidth</text>
</a>
</g>
</g>
<!-- Node1&#45;&gt;Node5 -->
<g id="edge4_Node000001_Node000005" class="edge">
<title>Node1&#45;&gt;Node5</title>
<g id="a_edge4_Node000001_Node000005"><a xlink:title=" ">
<path fill="none" stroke="#63b8ff" d="M225.12,-58.7C204.38,-49.25 176.45,-37.23 151,-28.62 141.26,-25.33 130.64,-22.3 120.55,-19.67"/>
<polygon fill="#63b8ff" stroke="#63b8ff" points="223.63,-61.87 234.18,-62.88 226.56,-55.51 223.63,-61.87"/>
</a>
</g>
</g>
</g>
</svg>
</svg>

<style type='text/css'>
<![CDATA[
[data-mouse-over-selected='false'] { opacity: 0.7; }
[data-mouse-over-selected='true']  { opacity: 1.0; }
]]>
</style>
<script type="application/ecmascript"><![CDATA[
document.addEventListener('DOMContentLoaded', (event) => {
  highlightEdges();
  highlightAdjacentNodes();
});
]]></script>
</svg>
