<?xml version="1.0" encoding="UTF-8" standalone="no"?>
<!DOCTYPE svg PUBLIC "-//W3C//DTD SVG 1.1//EN"
 "http://www.w3.org/Graphics/SVG/1.1/DTD/svg11.dtd">
<!-- Generated by graphviz version 12.2.1 (20241206.2353)
 -->
<!-- Title: GamR::TK::FPeak::FPeak Pages: 1 -->
<svg width="333pt" height="284pt"
 viewBox="0.00 0.00 332.50 283.50" xmlns="http://www.w3.org/2000/svg" xmlns:xlink="http://www.w3.org/1999/xlink">

<svg id="main" version="1.1" xmlns="http://www.w3.org/2000/svg" xmlns:xlink="http://www.w3.org/1999/xlink" xml:space="preserve">

<style type="text/css"><![CDATA[
.node, .edge {opacity: 0.7;}
.node.selected, .edge.selected {opacity: 1;}
.edge:hover path { stroke: red; }
.edge:hover polygon { stroke: red; fill: red; }
]]></style>
<script type="application/ecmascript" xlink:href="../../svg.min.js"/>
<svg id="graph" class="graph">
<g id="graph0" class="graph" transform="scale(1 1) rotate(0) translate(4 279.5)">
<title>GamR::TK::FPeak::FPeak</title>
<!-- Node1 -->
<g id="Node000001" class="node">
<title>Node1</title>
<g id="a_Node000001"><a xlink:title=" ">
<polygon fill="#999999" stroke="#666666" points="324.5,-146.88 197.5,-146.88 197.5,-127.62 324.5,-127.62 324.5,-146.88"/>
<text text-anchor="middle" x="261" y="-133.38" font-family="Helvetica,sans-Serif" font-size="10.00">GamR::TK::FPeak::FPeak</text>
</a>
</g>
</g>
<!-- Node2 -->
<g id="Node000002" class="node">
<title>Node2</title>
<g id="a_Node000002"><a xlink:href="../../d0/d74/group___t_k.html#ga67d3599343cd2559f2780f7f51f0318d" target="_top" xlink:title=" ">
<polygon fill="white" stroke="#666666" points="145.38,-275.5 16.12,-275.5 16.12,-245 145.38,-245 145.38,-275.5"/>
<text text-anchor="start" x="24.12" y="-262" font-family="Helvetica,sans-Serif" font-size="10.00">GamR::TK::GaussianPeak</text>
<text text-anchor="middle" x="80.75" y="-250.75" font-family="Helvetica,sans-Serif" font-size="10.00">::GaussianPeak</text>
</a>
</g>
</g>
<!-- Node1&#45;&gt;Node2 -->
<g id="edge1_Node000001_Node000002" class="edge">
<title>Node1&#45;&gt;Node2</title>
<g id="a_edge1_Node000001_Node000002"><a xlink:title=" ">
<path fill="none" stroke="#63b8ff" d="M245.73,-156.17C228.18,-178.17 196.42,-214.16 161.5,-235.25 155.66,-238.78 149.28,-241.85 142.75,-244.52"/>
<polygon fill="#63b8ff" stroke="#63b8ff" points="248.44,-158.39 251.82,-148.34 242.91,-154.09 248.44,-158.39"/>
</a>
</g>
</g>
<!-- Node3 -->
<g id="Node000003" class="node">
<title>Node3</title>
<g id="a_Node000003"><a xlink:href="../../d0/d74/group___t_k.html#ga4d9185c8e5f5d90747c81359066bdc8e" target="_top" xlink:title=" ">
<polygon fill="white" stroke="#666666" points="151,-226.5 10.5,-226.5 10.5,-196 151,-196 151,-226.5"/>
<text text-anchor="start" x="18.5" y="-213" font-family="Helvetica,sans-Serif" font-size="10.00">GamR::TK::OneTailGaussian</text>
<text text-anchor="middle" x="80.75" y="-201.75" font-family="Helvetica,sans-Serif" font-size="10.00">Peak::OneTailGaussianPeak</text>
</a>
</g>
</g>
<!-- Node1&#45;&gt;Node3 -->
<g id="edge2_Node000001_Node000003" class="edge">
<title>Node1&#45;&gt;Node3</title>
<g id="a_edge2_Node000001_Node000003"><a xlink:title=" ">
<path fill="none" stroke="#63b8ff" d="M231.9,-152.72C212.48,-163.03 185.87,-176.44 161.5,-186.25 153.29,-189.56 144.46,-192.7 135.78,-195.59"/>
<polygon fill="#63b8ff" stroke="#63b8ff" points="233.4,-155.88 240.55,-148.07 230.08,-149.72 233.4,-155.88"/>
</a>
</g>
</g>
<!-- Node4 -->
<g id="Node000004" class="node">
<title>Node4</title>
<g id="a_Node000004"><a xlink:href="../../d0/d74/group___t_k.html#ga1a0a6c39d679d189f923e01c9cfa521b" target="_top" xlink:title=" ">
<polygon fill="white" stroke="#666666" points="161.12,-177.5 0.38,-177.5 0.38,-147 161.12,-147 161.12,-177.5"/>
<text text-anchor="start" x="8.38" y="-164" font-family="Helvetica,sans-Serif" font-size="10.00">GamR::TK::OneTailStepGaussian</text>
<text text-anchor="middle" x="80.75" y="-152.75" font-family="Helvetica,sans-Serif" font-size="10.00">Peak::OneTailStepGaussianPeak</text>
</a>
</g>
</g>
<!-- Node1&#45;&gt;Node4 -->
<g id="edge3_Node000001_Node000004" class="edge">
<title>Node1&#45;&gt;Node4</title>
<g id="a_edge3_Node000001_Node000004"><a xlink:title=" ">
<path fill="none" stroke="#63b8ff" d="M185.91,-147.64C177.86,-148.77 169.63,-149.92 161.51,-151.06"/>
<polygon fill="#63b8ff" stroke="#63b8ff" points="186.24,-151.13 195.66,-146.27 185.27,-144.2 186.24,-151.13"/>
</a>
</g>
</g>
<!-- Node5 -->
<g id="Node000005" class="node">
<title>Node5</title>
<g id="a_Node000005"><a xlink:href="../../d0/d74/group___t_k.html#ga2f1f26cef083303659877cac569fd0df" target="_top" xlink:title=" ">
<polygon fill="white" stroke="#666666" points="155.5,-128.5 6,-128.5 6,-98 155.5,-98 155.5,-128.5"/>
<text text-anchor="start" x="14" y="-115" font-family="Helvetica,sans-Serif" font-size="10.00">GamR::TK::StepGaussianPeak</text>
<text text-anchor="middle" x="80.75" y="-103.75" font-family="Helvetica,sans-Serif" font-size="10.00">::StepGaussianPeak</text>
</a>
</g>
</g>
<!-- Node1&#45;&gt;Node5 -->
<g id="edge4_Node000001_Node000005" class="edge">
<title>Node1&#45;&gt;Node5</title>
<g id="a_edge4_Node000001_Node000005"><a xlink:title=" ">
<path fill="none" stroke="#63b8ff" d="M186.05,-127.29C176.1,-125.95 165.88,-124.58 155.93,-123.24"/>
<polygon fill="#63b8ff" stroke="#63b8ff" points="185.28,-130.72 195.66,-128.59 186.21,-123.78 185.28,-130.72"/>
</a>
</g>
</g>
<!-- Node6 -->
<g id="Node000006" class="node">
<title>Node6</title>
<g id="a_Node000006"><a xlink:href="../../d0/d74/group___t_k.html#gab3dd4614acc85c8239f998236c757b04" target="_top" xlink:title=" ">
<polygon fill="white" stroke="#666666" points="151.38,-79.5 10.12,-79.5 10.12,-49 151.38,-49 151.38,-79.5"/>
<text text-anchor="start" x="18.12" y="-66" font-family="Helvetica,sans-Serif" font-size="10.00">GamR::TK::TwoTailGaussian</text>
<text text-anchor="middle" x="80.75" y="-54.75" font-family="Helvetica,sans-Serif" font-size="10.00">Peak::TwoTailGaussianPeak</text>
</a>
</g>
</g>
<!-- Node1&#45;&gt;Node6 -->
<g id="edge5_Node000001_Node000006" class="edge">
<title>Node1&#45;&gt;Node6</title>
<g id="a_edge5_Node000001_Node000006"><a xlink:title=" ">
<path fill="none" stroke="#63b8ff" d="M231.5,-121.95C212.1,-111.89 185.66,-98.86 161.5,-89.25 153.28,-85.98 144.44,-82.85 135.76,-79.97"/>
<polygon fill="#63b8ff" stroke="#63b8ff" points="229.67,-124.95 240.15,-126.49 232.92,-118.75 229.67,-124.95"/>
</a>
</g>
</g>
<!-- Node7 -->
<g id="Node000007" class="node">
<title>Node7</title>
<g id="a_Node000007"><a xlink:href="../../d0/d74/group___t_k.html#ga25f8fc800e760616a150144af8397158" target="_top" xlink:title=" ">
<polygon fill="white" stroke="#666666" points="161.5,-30.5 0,-30.5 0,0 161.5,0 161.5,-30.5"/>
<text text-anchor="start" x="8" y="-17" font-family="Helvetica,sans-Serif" font-size="10.00">GamR::TK::TwoTailStepGaussian</text>
<text text-anchor="middle" x="80.75" y="-5.75" font-family="Helvetica,sans-Serif" font-size="10.00">Peak::TwoTailStepGaussianPeak</text>
</a>
</g>
</g>
<!-- Node1&#45;&gt;Node7 -->
<g id="edge6_Node000001_Node000007" class="edge">
<title>Node1&#45;&gt;Node7</title>
<g id="a_edge6_Node000001_Node000007"><a xlink:title=" ">
<path fill="none" stroke="#63b8ff" d="M245.41,-118.19C227.77,-96.39 196.12,-61.04 161.5,-40.25 155.53,-36.66 148.99,-33.54 142.31,-30.84"/>
<polygon fill="#63b8ff" stroke="#63b8ff" points="242.61,-120.29 251.55,-125.97 248.1,-115.95 242.61,-120.29"/>
</a>
</g>
</g>
</g>
</svg>
</svg>

<style type='text/css'>
<![CDATA[
[data-mouse-over-selected='false'] { opacity: 0.7; }
[data-mouse-over-selected='true']  { opacity: 1.0; }
]]>
</style>
<script type="application/ecmascript"><![CDATA[
document.addEventListener('DOMContentLoaded', (event) => {
  highlightEdges();
  highlightAdjacentNodes();
});
]]></script>
</svg>
