<?xml version="1.0" encoding="UTF-8" standalone="no"?>
<!DOCTYPE svg PUBLIC "-//W3C//DTD SVG 1.1//EN"
 "http://www.w3.org/Graphics/SVG/1.1/DTD/svg11.dtd">
<!-- Generated by graphviz version 8.1.0 (20230707.0739)
 -->
<!-- Title: GamR::TK::TwoTailStepGaussianPeak::GetAreaError Pages: 1 -->
<svg width="347pt" height="76pt"
 viewBox="0.00 0.00 346.75 75.88" xmlns="http://www.w3.org/2000/svg" xmlns:xlink="http://www.w3.org/1999/xlink">
<g id="graph0" class="graph" transform="scale(1 1) rotate(0) translate(4 71.88)">
<title>GamR::TK::TwoTailStepGaussianPeak::GetAreaError</title>
<!-- Node1 -->
<g id="Node000001" class="node">
<title>Node1</title>
<g id="a_Node000001"><a xlink:title=" ">
<polygon fill="#999999" stroke="#666666" points="161.5,-45.88 0,-45.88 0,-15.37 161.5,-15.37 161.5,-45.88"/>
<text text-anchor="start" x="8" y="-32.38" font-family="Helvetica,sans-Serif" font-size="10.00">GamR::TK::TwoTailStepGaussian</text>
<text text-anchor="middle" x="80.75" y="-21.12" font-family="Helvetica,sans-Serif" font-size="10.00">Peak::GetAreaError</text>
</a>
</g>
</g>
<!-- Node2 -->
<g id="Node000002" class="node">
<title>Node2</title>
<g id="a_Node000002"><a xlink:href="../../d0/d74/group___t_k.html#gaf14b0576fa0e1133f8991aa186d50fb8" target="_top" xlink:title=" ">
<polygon fill="white" stroke="#666666" points="338.75,-67.88 197.5,-67.88 197.5,-37.38 338.75,-37.38 338.75,-67.88"/>
<text text-anchor="start" x="205.5" y="-54.38" font-family="Helvetica,sans-Serif" font-size="10.00">GamR::TK::TwoTailGaussian</text>
<text text-anchor="middle" x="268.12" y="-43.12" font-family="Helvetica,sans-Serif" font-size="10.00">Peak::GetAreaError</text>
</a>
</g>
</g>
<!-- Node1&#45;&gt;Node2 -->
<g id="edge1_Node000001_Node000002" class="edge">
<title>Node1&#45;&gt;Node2</title>
<g id="a_edge1_Node000001_Node000002"><a xlink:title=" ">
<path fill="none" stroke="#63b8ff" d="M161.98,-40.15C170.05,-41.1 178.25,-42.08 186.33,-43.04"/>
<polygon fill="#63b8ff" stroke="#63b8ff" points="185.91,-46.63 196.25,-44.33 186.73,-39.68 185.91,-46.63"/>
</a>
</g>
</g>
<!-- Node3 -->
<g id="Node000003" class="node">
<title>Node3</title>
<g id="a_Node000003"><a xlink:href="../../d0/d74/group___t_k.html#gaea3f5cb2c25b5827dafe494c5c284d31" target="_top" xlink:title=" ">
<polygon fill="white" stroke="#666666" points="336.12,-19.25 200.12,-19.25 200.12,0 336.12,0 336.12,-19.25"/>
<text text-anchor="middle" x="268.12" y="-5.75" font-family="Helvetica,sans-Serif" font-size="10.00">GamR::TK::FPeak::GetFunc</text>
</a>
</g>
</g>
<!-- Node1&#45;&gt;Node3 -->
<g id="edge2_Node000001_Node000003" class="edge">
<title>Node1&#45;&gt;Node3</title>
<g id="a_edge2_Node000001_Node000003"><a xlink:title=" ">
<path fill="none" stroke="#63b8ff" d="M161.98,-21.54C170.95,-20.52 180.09,-19.49 189.03,-18.47"/>
<polygon fill="#63b8ff" stroke="#63b8ff" points="189.29,-21.85 198.83,-17.25 188.5,-14.9 189.29,-21.85"/>
</a>
</g>
</g>
</g>
</svg>
