<?xml version="1.0" encoding="UTF-8" standalone="no"?>
<!DOCTYPE svg PUBLIC "-//W3C//DTD SVG 1.1//EN"
 "http://www.w3.org/Graphics/SVG/1.1/DTD/svg11.dtd">
<!-- Generated by graphviz version 6.0.2 (20221011.1828)
 -->
<!-- Title: GamR::TK::Gate::GetIntegral Pages: 1 -->
<svg width="330pt" height="64pt"
 viewBox="0.00 0.00 330.00 64.00" xmlns="http://www.w3.org/2000/svg" xmlns:xlink="http://www.w3.org/1999/xlink">
<g id="graph0" class="graph" transform="scale(1 1) rotate(0) translate(4 60)">
<title>GamR::TK::Gate::GetIntegral</title>
<!-- Node1 -->
<g id="node1" class="node">
<title>Node1</title>
<g id="a_node1"><a xlink:title=" ">
<polygon fill="#999999" stroke="#666666" points="140,-37 0,-37 0,-18 140,-18 140,-37"/>
<text text-anchor="middle" x="70" y="-25" font-family="Helvetica,sans-Serif" font-size="10.00">GamR::TK::Gate::GetIntegral</text>
</a>
</g>
</g>
<!-- Node2 -->
<g id="node2" class="node">
<title>Node2</title>
<g id="a_node2"><a xlink:href="../../d0/d74/group___t_k.html#ga19210db8af7134007ff4fc26878b5dc2" target="_top" xlink:title=" ">
<polygon fill="white" stroke="#666666" points="322,-56 176,-56 176,-37 322,-37 322,-56"/>
<text text-anchor="middle" x="249" y="-44" font-family="Helvetica,sans-Serif" font-size="10.00">GamR::TK::Gate::GetBinWidth</text>
</a>
</g>
</g>
<!-- Node1&#45;&gt;Node2 -->
<g id="edge1" class="edge">
<title>Node1&#45;&gt;Node2</title>
<path fill="none" stroke="#63b8ff" d="M140.19,-34.93C148.63,-35.83 157.3,-36.76 165.9,-37.69"/>
<polygon fill="#63b8ff" stroke="#63b8ff" points="165.62,-41.18 175.94,-38.76 166.37,-34.22 165.62,-41.18"/>
</g>
<!-- Node3 -->
<g id="node3" class="node">
<title>Node3</title>
<g id="a_node3"><a xlink:href="../../d0/d74/group___t_k.html#gaae543a7d595e5faacbfb4da05718e3f3" target="_top" xlink:title=" ">
<polygon fill="white" stroke="#666666" points="319,-19 179,-19 179,0 319,0 319,-19"/>
<text text-anchor="middle" x="249" y="-7" font-family="Helvetica,sans-Serif" font-size="10.00">GamR::TK::Gate::GetIntegral</text>
</a>
</g>
</g>
<!-- Node1&#45;&gt;Node3 -->
<g id="edge2" class="edge">
<title>Node1&#45;&gt;Node3</title>
<path fill="none" stroke="#63b8ff" d="M140.19,-20.46C149.52,-19.51 159.15,-18.54 168.64,-17.57"/>
<polygon fill="#63b8ff" stroke="#63b8ff" points="169.26,-21.03 178.85,-16.53 168.55,-14.06 169.26,-21.03"/>
</g>
</g>
</svg>
