<?xml version="1.0" encoding="UTF-8" standalone="no"?>
<!DOCTYPE svg PUBLIC "-//W3C//DTD SVG 1.1//EN"
 "http://www.w3.org/Graphics/SVG/1.1/DTD/svg11.dtd">
<!-- Generated by graphviz version 6.0.2 (20221011.1828)
 -->
<!-- Title: GamR::TK::BPeak::SetPoint Pages: 1 -->
<svg width="467pt" height="46pt"
 viewBox="0.00 0.00 467.00 46.00" xmlns="http://www.w3.org/2000/svg" xmlns:xlink="http://www.w3.org/1999/xlink">
<g id="graph0" class="graph" transform="scale(1 1) rotate(0) translate(4 42)">
<title>GamR::TK::BPeak::SetPoint</title>
<!-- Node1 -->
<g id="node1" class="node">
<title>Node1</title>
<g id="a_node1"><a xlink:title=" ">
<polygon fill="#999999" stroke="#666666" points="459,-38 322,-38 322,-19 459,-19 459,-38"/>
<text text-anchor="middle" x="390.5" y="-26" font-family="Helvetica,sans-Serif" font-size="10.00">GamR::TK::BPeak::SetPoint</text>
</a>
</g>
</g>
<!-- Node2 -->
<g id="node2" class="node">
<title>Node2</title>
<g id="a_node2"><a xlink:href="../../d0/d74/group___t_k.html#gacea94387106c6b07d16c53a1614a86b9" target="_top" xlink:title=" ">
<polygon fill="white" stroke="#666666" points="115,-38 0,-38 0,-19 115,-19 115,-38"/>
<text text-anchor="middle" x="57.5" y="-26" font-family="Helvetica,sans-Serif" font-size="10.00">GamR::TK::BPeak::Set</text>
</a>
</g>
</g>
<!-- Node1&#45;&gt;Node2 -->
<g id="edge1" class="edge">
<title>Node1&#45;&gt;Node2</title>
<path fill="none" stroke="#63b8ff" d="M311.49,-28.5C251.24,-28.5 169.28,-28.5 115.18,-28.5"/>
<polygon fill="#63b8ff" stroke="#63b8ff" points="311.72,-32 321.72,-28.5 311.72,-25 311.72,-32"/>
</g>
<!-- Node3 -->
<g id="node3" class="node">
<title>Node3</title>
<g id="a_node3"><a xlink:href="../../d0/d74/group___t_k.html#ga705f798b5ced39a94fe9582dd39c55ed" target="_top" xlink:title=" ">
<polygon fill="white" stroke="#666666" points="286,-19 151,-19 151,0 286,0 286,-19"/>
<text text-anchor="middle" x="218.5" y="-7" font-family="Helvetica,sans-Serif" font-size="10.00">GamR::TK::BPeak::SetStep</text>
</a>
</g>
</g>
<!-- Node1&#45;&gt;Node3 -->
<g id="edge2" class="edge">
<title>Node1&#45;&gt;Node3</title>
<path fill="none" stroke="#63b8ff" d="M311.81,-19.82C303.23,-18.86 294.54,-17.89 286.11,-16.94"/>
<polygon fill="#63b8ff" stroke="#63b8ff" points="311.5,-23.3 321.82,-20.94 312.27,-16.35 311.5,-23.3"/>
</g>
<!-- Node3&#45;&gt;Node2 -->
<g id="edge3" class="edge">
<title>Node3&#45;&gt;Node2</title>
<path fill="none" stroke="#63b8ff" d="M140.87,-18.66C132.21,-19.69 123.5,-20.73 115.16,-21.73"/>
<polygon fill="#63b8ff" stroke="#63b8ff" points="141.48,-22.11 150.99,-17.45 140.65,-15.16 141.48,-22.11"/>
</g>
</g>
</svg>
