<?xml version="1.0" encoding="UTF-8" standalone="no"?>
<!DOCTYPE svg PUBLIC "-//W3C//DTD SVG 1.1//EN"
 "http://www.w3.org/Graphics/SVG/1.1/DTD/svg11.dtd">
<!-- Generated by graphviz version 8.1.0 (20230707.0739)
 -->
<!-- Title: GamR::TK::Gate::GetCounts Pages: 1 -->
<svg width="327pt" height="64pt"
 viewBox="0.00 0.00 327.25 64.25" xmlns="http://www.w3.org/2000/svg" xmlns:xlink="http://www.w3.org/1999/xlink">
<g id="graph0" class="graph" transform="scale(1 1) rotate(0) translate(4 60.25)">
<title>GamR::TK::Gate::GetCounts</title>
<!-- Node1 -->
<g id="Node000001" class="node">
<title>Node1</title>
<g id="a_Node000001"><a xlink:title=" ">
<polygon fill="#999999" stroke="#666666" points="137.5,-37.25 0,-37.25 0,-18 137.5,-18 137.5,-37.25"/>
<text text-anchor="middle" x="68.75" y="-23.75" font-family="Helvetica,sans-Serif" font-size="10.00">GamR::TK::Gate::GetCounts</text>
</a>
</g>
</g>
<!-- Node2 -->
<g id="Node000002" class="node">
<title>Node2</title>
<g id="a_Node000002"><a xlink:href="../../d0/d74/group___t_k.html#ga19210db8af7134007ff4fc26878b5dc2" target="_top" xlink:title=" ">
<polygon fill="white" stroke="#666666" points="319.25,-56.25 173.5,-56.25 173.5,-37 319.25,-37 319.25,-56.25"/>
<text text-anchor="middle" x="246.38" y="-42.75" font-family="Helvetica,sans-Serif" font-size="10.00">GamR::TK::Gate::GetBinWidth</text>
</a>
</g>
</g>
<!-- Node1&#45;&gt;Node2 -->
<g id="edge1_Node000001_Node000002" class="edge">
<title>Node1&#45;&gt;Node2</title>
<g id="a_edge1_Node000001_Node000002"><a xlink:title=" ">
<path fill="none" stroke="#63b8ff" d="M137.9,-35C145.95,-35.87 154.22,-36.76 162.44,-37.65"/>
<polygon fill="#63b8ff" stroke="#63b8ff" points="161.87,-41.22 172.19,-38.82 162.63,-34.26 161.87,-41.22"/>
</a>
</g>
</g>
<!-- Node3 -->
<g id="Node000003" class="node">
<title>Node3</title>
<g id="a_Node000003"><a xlink:href="../../d0/d74/group___t_k.html#ga4607d5e3d8f5d83d75f4ca038572a7f8" target="_top" xlink:title=" ">
<polygon fill="white" stroke="#666666" points="315.12,-19.25 177.62,-19.25 177.62,0 315.12,0 315.12,-19.25"/>
<text text-anchor="middle" x="246.38" y="-5.75" font-family="Helvetica,sans-Serif" font-size="10.00">GamR::TK::Gate::GetCounts</text>
</a>
</g>
</g>
<!-- Node1&#45;&gt;Node3 -->
<g id="edge2_Node000001_Node000003" class="edge">
<title>Node1&#45;&gt;Node3</title>
<g id="a_edge2_Node000001_Node000003"><a xlink:title=" ">
<path fill="none" stroke="#63b8ff" d="M137.9,-20.64C147.29,-19.68 156.99,-18.68 166.55,-17.7"/>
<polygon fill="#63b8ff" stroke="#63b8ff" points="166.67,-21.11 176.26,-16.61 165.96,-14.14 166.67,-21.11"/>
</a>
</g>
</g>
</g>
</svg>
