<?xml version="1.0" encoding="UTF-8" standalone="no"?>
<!DOCTYPE svg PUBLIC "-//W3C//DTD SVG 1.1//EN"
 "http://www.w3.org/Graphics/SVG/1.1/DTD/svg11.dtd">
<!-- Generated by graphviz version 5.0.0 (20220708.1001)
 -->
<!-- Title: GamR::TK::Gate::GetBinWidth Pages: 1 -->
<svg width="744pt" height="413pt"
 viewBox="0.00 0.00 744.00 413.00" xmlns="http://www.w3.org/2000/svg" xmlns:xlink="http://www.w3.org/1999/xlink">
<g id="graph0" class="graph" transform="scale(1 1) rotate(0) translate(4 409)">
<title>GamR::TK::Gate::GetBinWidth</title>
<polygon fill="white" stroke="transparent" points="-4,4 -4,-409 740,-409 740,4 -4,4"/>
<!-- Node1 -->
<g id="node1" class="node">
<title>Node1</title>
<g id="a_node1"><a xlink:title=" ">
<polygon fill="#bfbfbf" stroke="black" points="590,-164.5 590,-183.5 736,-183.5 736,-164.5 590,-164.5"/>
<text text-anchor="middle" x="663" y="-171.5" font-family="Helvetica,sans-Serif" font-size="10.00">GamR::TK::Gate::GetBinWidth</text>
</a>
</g>
</g>
<!-- Node2 -->
<g id="node2" class="node">
<title>Node2</title>
<g id="a_node2"><a xlink:href="../../dc/d89/namespace_gam_r_1_1_spect.html#a796934a2403375f7aaef94f590ea1547" target="_top" xlink:title=" ">
<polygon fill="white" stroke="black" points="380,-347.5 380,-366.5 554,-366.5 554,-347.5 380,-347.5"/>
<text text-anchor="middle" x="467" y="-354.5" font-family="Helvetica,sans-Serif" font-size="10.00">GamR::Spect::BackgroundSubtractX</text>
</a>
</g>
</g>
<!-- Node1&#45;&gt;Node2 -->
<g id="edge1" class="edge">
<title>Node1&#45;&gt;Node2</title>
<path fill="none" stroke="midnightblue" d="M652.18,-192.88C635.61,-223.14 599.41,-282.77 554,-319 537.92,-331.83 516.84,-341.23 499.57,-347.48"/>
<polygon fill="midnightblue" stroke="midnightblue" points="655.4,-194.29 657.03,-183.82 649.23,-190.98 655.4,-194.29"/>
</g>
<!-- Node5 -->
<g id="node5" class="node">
<title>Node5</title>
<g id="a_node5"><a xlink:href="../../dc/d89/namespace_gam_r_1_1_spect.html#a30e3d5141c8253d594aae4bf21b2ffe8" target="_top" xlink:title=" ">
<polygon fill="white" stroke="black" points="380,-290.5 380,-309.5 554,-309.5 554,-290.5 380,-290.5"/>
<text text-anchor="middle" x="467" y="-297.5" font-family="Helvetica,sans-Serif" font-size="10.00">GamR::Spect::BackgroundSubtractY</text>
</a>
</g>
</g>
<!-- Node1&#45;&gt;Node5 -->
<g id="edge4" class="edge">
<title>Node1&#45;&gt;Node5</title>
<path fill="none" stroke="midnightblue" d="M649.04,-192.11C630.72,-216.31 594.89,-258.71 554,-281 546.88,-284.88 539.03,-287.97 531.05,-290.42"/>
<polygon fill="midnightblue" stroke="midnightblue" points="652.05,-193.93 655.18,-183.81 646.42,-189.77 652.05,-193.93"/>
</g>
<!-- Node10 -->
<g id="node10" class="node">
<title>Node10</title>
<g id="a_node10"><a xlink:href="../../d0/d74/group___t_k.html#gab381e88d04607d0734a48c8d691fca0d" target="_top" xlink:title=" ">
<polygon fill="white" stroke="black" points="398,-252.5 398,-271.5 536,-271.5 536,-252.5 398,-252.5"/>
<text text-anchor="middle" x="467" y="-259.5" font-family="Helvetica,sans-Serif" font-size="10.00">GamR::TK::Gate::GetCounts</text>
</a>
</g>
</g>
<!-- Node1&#45;&gt;Node10 -->
<g id="edge9" class="edge">
<title>Node1&#45;&gt;Node10</title>
<path fill="none" stroke="midnightblue" d="M642.09,-189.79C621.28,-205.53 587.09,-229.28 554,-243 544.82,-246.81 534.76,-249.9 524.85,-252.41"/>
<polygon fill="midnightblue" stroke="midnightblue" points="644.36,-192.46 650.15,-183.58 640.09,-186.91 644.36,-192.46"/>
</g>
<!-- Node11 -->
<g id="node11" class="node">
<title>Node11</title>
<g id="a_node11"><a xlink:href="../../d0/d74/group___t_k.html#gad0279e78c3bed6506c1a54a945bc169a" target="_top" xlink:title=" ">
<polygon fill="white" stroke="black" points="398,-203 398,-233 536,-233 536,-203 398,-203"/>
<text text-anchor="start" x="406" y="-221" font-family="Helvetica,sans-Serif" font-size="10.00">GamR::TK::Gate::GetCounts</text>
<text text-anchor="middle" x="467" y="-210" font-family="Helvetica,sans-Serif" font-size="10.00">Error</text>
</a>
</g>
</g>
<!-- Node1&#45;&gt;Node11 -->
<g id="edge10" class="edge">
<title>Node1&#45;&gt;Node11</title>
<path fill="none" stroke="midnightblue" d="M609.91,-185.81C586.71,-191.08 559.1,-197.34 534.42,-202.93"/>
<polygon fill="midnightblue" stroke="midnightblue" points="610.93,-189.17 619.9,-183.55 609.38,-182.35 610.93,-189.17"/>
</g>
<!-- Node12 -->
<g id="node12" class="node">
<title>Node12</title>
<g id="a_node12"><a xlink:href="../../d0/d74/group___t_k.html#gaeca0e4de9fa391610a005e6a1db09d65" target="_top" xlink:title=" ">
<polygon fill="white" stroke="black" points="397,-164.5 397,-183.5 537,-183.5 537,-164.5 397,-164.5"/>
<text text-anchor="middle" x="467" y="-171.5" font-family="Helvetica,sans-Serif" font-size="10.00">GamR::TK::Gate::GetIntegral</text>
</a>
</g>
</g>
<!-- Node1&#45;&gt;Node12 -->
<g id="edge11" class="edge">
<title>Node1&#45;&gt;Node12</title>
<path fill="none" stroke="midnightblue" d="M579.55,-174C565.4,-174 550.83,-174 537.08,-174"/>
<polygon fill="midnightblue" stroke="midnightblue" points="579.76,-177.5 589.76,-174 579.76,-170.5 579.76,-177.5"/>
</g>
<!-- Node13 -->
<g id="node13" class="node">
<title>Node13</title>
<g id="a_node13"><a xlink:href="../../d0/d74/group___t_k.html#ga45f3e8e6347e8da6dc3959632221248b" target="_top" xlink:title=" ">
<polygon fill="white" stroke="black" points="397,-115 397,-145 537,-145 537,-115 397,-115"/>
<text text-anchor="start" x="405" y="-133" font-family="Helvetica,sans-Serif" font-size="10.00">GamR::TK::Gate::GetIntegral</text>
<text text-anchor="middle" x="467" y="-122" font-family="Helvetica,sans-Serif" font-size="10.00">Error</text>
</a>
</g>
</g>
<!-- Node1&#45;&gt;Node13 -->
<g id="edge12" class="edge">
<title>Node1&#45;&gt;Node13</title>
<path fill="none" stroke="midnightblue" d="M609.91,-162.19C586.71,-156.92 559.1,-150.66 534.42,-145.07"/>
<polygon fill="midnightblue" stroke="midnightblue" points="609.38,-165.65 619.9,-164.45 610.93,-158.83 609.38,-165.65"/>
</g>
<!-- Node14 -->
<g id="node14" class="node">
<title>Node14</title>
<g id="a_node14"><a xlink:href="../../d0/d74/group___t_k.html#ga9db1ed9dd4cd4818f5399fbddf5ee388" target="_top" xlink:title=" ">
<polygon fill="white" stroke="black" points="389.5,-76.5 389.5,-95.5 544.5,-95.5 544.5,-76.5 389.5,-76.5"/>
<text text-anchor="middle" x="467" y="-83.5" font-family="Helvetica,sans-Serif" font-size="10.00">GamR::TK::Gate::NormBackSub</text>
</a>
</g>
</g>
<!-- Node1&#45;&gt;Node14 -->
<g id="edge13" class="edge">
<title>Node1&#45;&gt;Node14</title>
<path fill="none" stroke="midnightblue" d="M641.68,-158.28C620.78,-142.84 586.74,-119.66 554,-106 543.81,-101.75 532.55,-98.31 521.63,-95.56"/>
<polygon fill="midnightblue" stroke="midnightblue" points="639.69,-161.16 649.79,-164.37 643.9,-155.57 639.69,-161.16"/>
</g>
<!-- Node18 -->
<g id="node18" class="node">
<title>Node18</title>
<g id="a_node18"><a xlink:href="../../d1/dab/namespace_gam_r_1_1_ang_dist.html#ac8de6ea6d44aec17b159e42321fae371" target="_top" xlink:title=" ">
<polygon fill="white" stroke="black" points="393,-38.5 393,-57.5 541,-57.5 541,-38.5 393,-38.5"/>
<text text-anchor="middle" x="467" y="-45.5" font-family="Helvetica,sans-Serif" font-size="10.00">GamR::AngDist::RatioFunction</text>
</a>
</g>
</g>
<!-- Node1&#45;&gt;Node18 -->
<g id="edge17" class="edge">
<title>Node1&#45;&gt;Node18</title>
<path fill="none" stroke="midnightblue" d="M649.04,-155.89C630.72,-131.69 594.89,-89.29 554,-67 546.88,-63.12 539.03,-60.03 531.05,-57.58"/>
<polygon fill="midnightblue" stroke="midnightblue" points="646.42,-158.23 655.18,-164.19 652.05,-154.07 646.42,-158.23"/>
</g>
<!-- Node19 -->
<g id="node19" class="node">
<title>Node19</title>
<g id="a_node19"><a xlink:href="../../d0/d74/group___t_k.html#ga4f526f6f266c468a27e072932764f83a" target="_top" xlink:title=" ">
<polygon fill="white" stroke="black" points="409.5,-0.5 409.5,-19.5 524.5,-19.5 524.5,-0.5 409.5,-0.5"/>
<text text-anchor="middle" x="467" y="-7.5" font-family="Helvetica,sans-Serif" font-size="10.00">GamR::TK::BPeak::Set</text>
</a>
</g>
</g>
<!-- Node1&#45;&gt;Node19 -->
<g id="edge18" class="edge">
<title>Node1&#45;&gt;Node19</title>
<path fill="none" stroke="midnightblue" d="M653.4,-154.96C638.15,-123.47 603.26,-60.85 554,-29 545.27,-23.35 535.11,-19.37 524.89,-16.56"/>
<polygon fill="midnightblue" stroke="midnightblue" points="650.4,-156.79 657.82,-164.36 656.73,-153.82 650.4,-156.79"/>
</g>
<!-- Node3 -->
<g id="node3" class="node">
<title>Node3</title>
<g id="a_node3"><a xlink:href="../../dc/d89/namespace_gam_r_1_1_spect.html#add80c1be39bf712a6792454b88bba02d" target="_top" xlink:title=" ">
<polygon fill="white" stroke="black" points="170,-385.5 170,-404.5 344,-404.5 344,-385.5 170,-385.5"/>
<text text-anchor="middle" x="257" y="-392.5" font-family="Helvetica,sans-Serif" font-size="10.00">GamR::Spect::BackgroundSubtractX</text>
</a>
</g>
</g>
<!-- Node2&#45;&gt;Node3 -->
<g id="edge2" class="edge">
<title>Node2&#45;&gt;Node3</title>
<path fill="none" stroke="midnightblue" d="M403.89,-368.35C374.05,-373.8 338.68,-380.26 310.24,-385.46"/>
<polygon fill="midnightblue" stroke="midnightblue" points="404.57,-371.78 413.78,-366.54 403.32,-364.89 404.57,-371.78"/>
</g>
<!-- Node4 -->
<g id="node4" class="node">
<title>Node4</title>
<g id="a_node4"><a xlink:href="../../d0/d17/_abbreviations_8cc.html#aef6a8ea45b0f28181d783909d2ba41e9" target="_top" xlink:title=" ">
<polygon fill="white" stroke="black" points="241,-347.5 241,-366.5 273,-366.5 273,-347.5 241,-347.5"/>
<text text-anchor="middle" x="257" y="-354.5" font-family="Helvetica,sans-Serif" font-size="10.00">bsx</text>
</a>
</g>
</g>
<!-- Node2&#45;&gt;Node4 -->
<g id="edge3" class="edge">
<title>Node2&#45;&gt;Node4</title>
<path fill="none" stroke="midnightblue" d="M369.46,-357C332.27,-357 293.81,-357 273.21,-357"/>
<polygon fill="midnightblue" stroke="midnightblue" points="369.9,-360.5 379.9,-357 369.9,-353.5 369.9,-360.5"/>
</g>
<!-- Node6 -->
<g id="node6" class="node">
<title>Node6</title>
<g id="a_node6"><a xlink:href="../../dc/d89/namespace_gam_r_1_1_spect.html#aa46918fe9f40f4f0dcadec10181a1f5f" target="_top" xlink:title=" ">
<polygon fill="white" stroke="black" points="170,-309.5 170,-328.5 344,-328.5 344,-309.5 170,-309.5"/>
<text text-anchor="middle" x="257" y="-316.5" font-family="Helvetica,sans-Serif" font-size="10.00">GamR::Spect::BackgroundSubtractY</text>
</a>
</g>
</g>
<!-- Node5&#45;&gt;Node6 -->
<g id="edge5" class="edge">
<title>Node5&#45;&gt;Node6</title>
<path fill="none" stroke="midnightblue" d="M369.84,-308.78C361.23,-309.57 352.55,-310.36 344.04,-311.14"/>
<polygon fill="midnightblue" stroke="midnightblue" points="370.26,-312.26 379.9,-307.87 369.62,-305.29 370.26,-312.26"/>
</g>
<!-- Node7 -->
<g id="node7" class="node">
<title>Node7</title>
<g id="a_node7"><a xlink:href="../../d0/d17/_abbreviations_8cc.html#a4ce2a9b78d35f59e1431d654198b17ae" target="_top" xlink:title=" ">
<polygon fill="white" stroke="black" points="241,-271.5 241,-290.5 273,-290.5 273,-271.5 241,-271.5"/>
<text text-anchor="middle" x="257" y="-278.5" font-family="Helvetica,sans-Serif" font-size="10.00">bsy</text>
</a>
</g>
</g>
<!-- Node5&#45;&gt;Node7 -->
<g id="edge6" class="edge">
<title>Node5&#45;&gt;Node7</title>
<path fill="none" stroke="midnightblue" d="M369.94,-291.22C332.6,-287.81 293.9,-284.28 273.21,-282.39"/>
<polygon fill="midnightblue" stroke="midnightblue" points="369.62,-294.71 379.9,-292.13 370.26,-287.74 369.62,-294.71"/>
</g>
<!-- Node8 -->
<g id="node8" class="node">
<title>Node8</title>
<g id="a_node8"><a xlink:href="../../d2/da9/class_gam_r_1_1_ang_dist_1_1_ang_corr_fit.html#a7d0d1589078b53be7a8da0372924c349" target="_top" xlink:title=" ">
<polygon fill="white" stroke="black" points="190,-222 190,-252 324,-252 324,-222 190,-222"/>
<text text-anchor="start" x="198" y="-240" font-family="Helvetica,sans-Serif" font-size="10.00">GamR::AngDist::AngCorrFit</text>
<text text-anchor="middle" x="257" y="-229" font-family="Helvetica,sans-Serif" font-size="10.00">::SetData</text>
</a>
</g>
</g>
<!-- Node5&#45;&gt;Node8 -->
<g id="edge7" class="edge">
<title>Node5&#45;&gt;Node8</title>
<path fill="none" stroke="midnightblue" d="M402.21,-287.93C394.64,-285.9 387.09,-283.6 380,-281 363.01,-274.77 360.77,-268.78 344,-262 335.06,-258.39 325.41,-255.06 315.91,-252.09"/>
<polygon fill="midnightblue" stroke="midnightblue" points="401.59,-291.38 412.14,-290.43 403.3,-284.59 401.59,-291.38"/>
</g>
<!-- Node9 -->
<g id="node9" class="node">
<title>Node9</title>
<g id="a_node9"><a xlink:href="../../d2/da9/class_gam_r_1_1_ang_dist_1_1_ang_corr_fit.html#ade67fbd9efac760657e3d1455a2f5592" target="_top" xlink:title=" ">
<polygon fill="white" stroke="black" points="0,-222 0,-252 134,-252 134,-222 0,-222"/>
<text text-anchor="start" x="8" y="-240" font-family="Helvetica,sans-Serif" font-size="10.00">GamR::AngDist::AngCorrFit</text>
<text text-anchor="middle" x="67" y="-229" font-family="Helvetica,sans-Serif" font-size="10.00">::AngCorrFit</text>
</a>
</g>
</g>
<!-- Node8&#45;&gt;Node9 -->
<g id="edge8" class="edge">
<title>Node8&#45;&gt;Node9</title>
<path fill="none" stroke="midnightblue" d="M179.67,-237C164.59,-237 148.88,-237 134.18,-237"/>
<polygon fill="midnightblue" stroke="midnightblue" points="179.98,-240.5 189.98,-237 179.98,-233.5 179.98,-240.5"/>
</g>
<!-- Node15 -->
<g id="node15" class="node">
<title>Node15</title>
<g id="a_node15"><a xlink:href="../../dc/d89/namespace_gam_r_1_1_spect.html#a7b2279e1335941677826aeafb539e6b8" target="_top" xlink:title=" ">
<polygon fill="white" stroke="black" points="185.5,-98.5 185.5,-117.5 328.5,-117.5 328.5,-98.5 185.5,-98.5"/>
<text text-anchor="middle" x="257" y="-105.5" font-family="Helvetica,sans-Serif" font-size="10.00">GamR::Spect::NormBackSub</text>
</a>
</g>
</g>
<!-- Node14&#45;&gt;Node15 -->
<g id="edge14" class="edge">
<title>Node14&#45;&gt;Node15</title>
<path fill="none" stroke="midnightblue" d="M379.05,-95.2C362.22,-96.98 344.77,-98.82 328.54,-100.54"/>
<polygon fill="midnightblue" stroke="midnightblue" points="379.86,-98.63 389.43,-94.1 379.12,-91.67 379.86,-98.63"/>
</g>
<!-- Node16 -->
<g id="node16" class="node">
<title>Node16</title>
<g id="a_node16"><a xlink:href="../../dc/d89/namespace_gam_r_1_1_spect.html#aa4da6909a49d9510105c06b27cd4bffc" target="_top" xlink:title=" ">
<polygon fill="white" stroke="black" points="188.5,-49 188.5,-79 325.5,-79 325.5,-49 188.5,-49"/>
<text text-anchor="start" x="196.5" y="-67" font-family="Helvetica,sans-Serif" font-size="10.00">GamR::Spect::NormSpectra</text>
<text text-anchor="middle" x="257" y="-56" font-family="Helvetica,sans-Serif" font-size="10.00">BackSub</text>
</a>
</g>
</g>
<!-- Node14&#45;&gt;Node16 -->
<g id="edge15" class="edge">
<title>Node14&#45;&gt;Node16</title>
<path fill="none" stroke="midnightblue" d="M379.06,-76.8C361.28,-74.92 342.81,-72.97 325.82,-71.17"/>
<polygon fill="midnightblue" stroke="midnightblue" points="379.12,-80.33 389.43,-77.9 379.86,-73.37 379.12,-80.33"/>
</g>
<!-- Node17 -->
<g id="node17" class="node">
<title>Node17</title>
<g id="a_node17"><a xlink:href="../../d0/d17/_abbreviations_8cc.html#ae47533f48063bc9ba85ff0be37004a05" target="_top" xlink:title=" ">
<polygon fill="white" stroke="black" points="48,-54.5 48,-73.5 86,-73.5 86,-54.5 48,-54.5"/>
<text text-anchor="middle" x="67" y="-61.5" font-family="Helvetica,sans-Serif" font-size="10.00">nsbs</text>
</a>
</g>
</g>
<!-- Node16&#45;&gt;Node17 -->
<g id="edge16" class="edge">
<title>Node16&#45;&gt;Node17</title>
<path fill="none" stroke="midnightblue" d="M178.02,-64C144.23,-64 107.59,-64 86.27,-64"/>
<polygon fill="midnightblue" stroke="midnightblue" points="178.39,-67.5 188.39,-64 178.39,-60.5 178.39,-67.5"/>
</g>
</g>
</svg>
