<?xml version="1.0" encoding="UTF-8" standalone="no"?>
<!DOCTYPE svg PUBLIC "-//W3C//DTD SVG 1.1//EN"
 "http://www.w3.org/Graphics/SVG/1.1/DTD/svg11.dtd">
<!-- Generated by graphviz version 6.0.2 (20221011.1828)
 -->
<!-- Title: GamR::Spect::BackSub2D::AddBackDiag Pages: 1 -->
<svg width="306pt" height="86pt"
 viewBox="0.00 0.00 306.00 86.00" xmlns="http://www.w3.org/2000/svg" xmlns:xlink="http://www.w3.org/1999/xlink">
<g id="graph0" class="graph" transform="scale(1 1) rotate(0) translate(4 82)">
<title>GamR::Spect::BackSub2D::AddBackDiag</title>
<!-- Node1 -->
<g id="node1" class="node">
<title>Node1</title>
<g id="a_node1"><a xlink:title=" ">
<polygon fill="#999999" stroke="#666666" points="298,-54 167,-54 167,-24 298,-24 298,-54"/>
<text text-anchor="start" x="175" y="-42" font-family="Helvetica,sans-Serif" font-size="10.00">GamR::Spect::BackSub2D</text>
<text text-anchor="middle" x="232.5" y="-31" font-family="Helvetica,sans-Serif" font-size="10.00">::AddBackDiag</text>
</a>
</g>
</g>
<!-- Node2 -->
<g id="node2" class="node">
<title>Node2</title>
<g id="a_node2"><a xlink:href="../../df/d67/class_gam_r_1_1_spect_1_1_back_sub2_d.html#a664a3f650a48e86467a5ddcb2e8cadb8" target="_top" xlink:title=" ">
<polygon fill="white" stroke="#666666" points="131,-78 0,-78 0,-48 131,-48 131,-78"/>
<text text-anchor="start" x="8" y="-66" font-family="Helvetica,sans-Serif" font-size="10.00">GamR::Spect::BackSub2D</text>
<text text-anchor="middle" x="65.5" y="-55" font-family="Helvetica,sans-Serif" font-size="10.00">::BackSub2D</text>
</a>
</g>
</g>
<!-- Node1&#45;&gt;Node2 -->
<g id="edge1" class="edge">
<title>Node1&#45;&gt;Node2</title>
<path fill="none" stroke="#63b8ff" d="M156.76,-49.87C148.18,-51.12 139.48,-52.38 131.05,-53.61"/>
<polygon fill="#63b8ff" stroke="#63b8ff" points="157.37,-53.32 166.76,-48.42 156.36,-46.39 157.37,-53.32"/>
</g>
<!-- Node3 -->
<g id="node3" class="node">
<title>Node3</title>
<g id="a_node3"><a xlink:href="../../df/d67/class_gam_r_1_1_spect_1_1_back_sub2_d.html#a17eeaab203866512aac21a93534f38d6" target="_top" xlink:title=" ">
<polygon fill="white" stroke="#666666" points="131,-30 0,-30 0,0 131,0 131,-30"/>
<text text-anchor="start" x="8" y="-18" font-family="Helvetica,sans-Serif" font-size="10.00">GamR::Spect::BackSub2D</text>
<text text-anchor="middle" x="65.5" y="-7" font-family="Helvetica,sans-Serif" font-size="10.00">::AddBackDiag</text>
</a>
</g>
</g>
<!-- Node1&#45;&gt;Node3 -->
<g id="edge2" class="edge">
<title>Node1&#45;&gt;Node3</title>
<path fill="none" stroke="#63b8ff" d="M156.76,-28.13C148.18,-26.88 139.48,-25.62 131.05,-24.39"/>
<polygon fill="#63b8ff" stroke="#63b8ff" points="156.36,-31.61 166.76,-29.58 157.37,-24.68 156.36,-31.61"/>
</g>
</g>
</svg>
