<?xml version="1.0" encoding="UTF-8" standalone="no"?>
<!DOCTYPE svg PUBLIC "-//W3C//DTD SVG 1.1//EN"
 "http://www.w3.org/Graphics/SVG/1.1/DTD/svg11.dtd">
<!-- Generated by graphviz version 8.1.0 (20230707.0739)
 -->
<!-- Title: GamR::Spect::BackSub2D::AddBackBack Pages: 1 -->
<svg width="304pt" height="88pt"
 viewBox="0.00 0.00 304.00 87.50" xmlns="http://www.w3.org/2000/svg" xmlns:xlink="http://www.w3.org/1999/xlink">
<g id="graph0" class="graph" transform="scale(1 1) rotate(0) translate(4 83.5)">
<title>GamR::Spect::BackSub2D::AddBackBack</title>
<!-- Node1 -->
<g id="Node000001" class="node">
<title>Node1</title>
<g id="a_Node000001"><a xlink:title=" ">
<polygon fill="#999999" stroke="#666666" points="296,-54.5 166,-54.5 166,-24 296,-24 296,-54.5"/>
<text text-anchor="start" x="174" y="-41" font-family="Helvetica,sans-Serif" font-size="10.00">GamR::Spect::BackSub2D</text>
<text text-anchor="middle" x="231" y="-29.75" font-family="Helvetica,sans-Serif" font-size="10.00">::AddBackBack</text>
</a>
</g>
</g>
<!-- Node2 -->
<g id="Node000002" class="node">
<title>Node2</title>
<g id="a_Node000002"><a xlink:href="../../df/d67/class_gam_r_1_1_spect_1_1_back_sub2_d.html#a664a3f650a48e86467a5ddcb2e8cadb8" target="_top" xlink:title=" ">
<polygon fill="white" stroke="#666666" points="130,-79.5 0,-79.5 0,-49 130,-49 130,-79.5"/>
<text text-anchor="start" x="8" y="-66" font-family="Helvetica,sans-Serif" font-size="10.00">GamR::Spect::BackSub2D</text>
<text text-anchor="middle" x="65" y="-54.75" font-family="Helvetica,sans-Serif" font-size="10.00">::BackSub2D</text>
</a>
</g>
</g>
<!-- Node1&#45;&gt;Node2 -->
<g id="edge1_Node000001_Node000002" class="edge">
<title>Node1&#45;&gt;Node2</title>
<g id="a_edge1_Node000001_Node000002"><a xlink:title=" ">
<path fill="none" stroke="#63b8ff" d="M154.96,-50.69C146.77,-51.94 138.48,-53.2 130.43,-54.43"/>
<polygon fill="#63b8ff" stroke="#63b8ff" points="155.3,-54.03 164.65,-49.06 154.24,-47.11 155.3,-54.03"/>
</a>
</g>
</g>
<!-- Node3 -->
<g id="Node000003" class="node">
<title>Node3</title>
<g id="a_Node000003"><a xlink:href="../../df/d67/class_gam_r_1_1_spect_1_1_back_sub2_d.html#ae5f442495b00b156ec77a901861e565d" target="_top" xlink:title=" ">
<polygon fill="white" stroke="#666666" points="130,-30.5 0,-30.5 0,0 130,0 130,-30.5"/>
<text text-anchor="start" x="8" y="-17" font-family="Helvetica,sans-Serif" font-size="10.00">GamR::Spect::BackSub2D</text>
<text text-anchor="middle" x="65" y="-5.75" font-family="Helvetica,sans-Serif" font-size="10.00">::AddBackBack</text>
</a>
</g>
</g>
<!-- Node1&#45;&gt;Node3 -->
<g id="edge2_Node000001_Node000003" class="edge">
<title>Node1&#45;&gt;Node3</title>
<g id="a_edge2_Node000001_Node000003"><a xlink:title=" ">
<path fill="none" stroke="#63b8ff" d="M154.96,-28.27C146.77,-27.07 138.48,-25.86 130.43,-24.68"/>
<polygon fill="#63b8ff" stroke="#63b8ff" points="154.25,-31.85 164.65,-29.83 155.27,-24.92 154.25,-31.85"/>
</a>
</g>
</g>
</g>
</svg>
