<?xml version="1.0" encoding="UTF-8" standalone="no"?>
<!DOCTYPE svg PUBLIC "-//W3C//DTD SVG 1.1//EN"
 "http://www.w3.org/Graphics/SVG/1.1/DTD/svg11.dtd">
<!-- Generated by graphviz version 2.50.0 (20220203.2022)
 -->
<!-- Title: GamR::AngDist::AngCorrFit Pages: 1 -->
<svg width="959pt" height="909pt"
 viewBox="0.00 0.00 958.50 909.00" xmlns="http://www.w3.org/2000/svg" xmlns:xlink="http://www.w3.org/1999/xlink">
<g id="graph0" class="graph" transform="scale(1 1) rotate(0) translate(4 905)">
<title>GamR::AngDist::AngCorrFit</title>
<polygon fill="white" stroke="transparent" points="-4,4 -4,-905 954.5,-905 954.5,4 -4,4"/>
<!-- Node1 -->
<g id="node1" class="node">
<title>Node1</title>
<g id="a_node1"><a xlink:title=" ">
<polygon fill="#bfbfbf" stroke="black" points="347,-0.5 347,-288.5 481,-288.5 481,-0.5 347,-0.5"/>
<text text-anchor="middle" x="414" y="-276.5" font-family="Helvetica,sans-Serif" font-size="10.00">GamR::AngDist::AngCorrFit</text>
<polyline fill="none" stroke="black" points="347,-269.5 481,-269.5 "/>
<text text-anchor="middle" x="414" y="-257.5" font-family="Helvetica,sans-Serif" font-size="10.00"> </text>
<polyline fill="none" stroke="black" points="347,-250.5 481,-250.5 "/>
<text text-anchor="start" x="355" y="-238.5" font-family="Helvetica,sans-Serif" font-size="10.00">+ SetData()</text>
<text text-anchor="start" x="355" y="-227.5" font-family="Helvetica,sans-Serif" font-size="10.00">+ SetSpins()</text>
<text text-anchor="start" x="355" y="-216.5" font-family="Helvetica,sans-Serif" font-size="10.00">+ SetQk()</text>
<text text-anchor="start" x="355" y="-205.5" font-family="Helvetica,sans-Serif" font-size="10.00">+ AngCorrFit()</text>
<text text-anchor="start" x="355" y="-194.5" font-family="Helvetica,sans-Serif" font-size="10.00">+ AngCorrFit()</text>
<text text-anchor="start" x="355" y="-183.5" font-family="Helvetica,sans-Serif" font-size="10.00">+ FixDel1()</text>
<text text-anchor="start" x="355" y="-172.5" font-family="Helvetica,sans-Serif" font-size="10.00">+ FixDel2()</text>
<text text-anchor="start" x="355" y="-161.5" font-family="Helvetica,sans-Serif" font-size="10.00">+ GetNPoints()</text>
<text text-anchor="start" x="355" y="-150.5" font-family="Helvetica,sans-Serif" font-size="10.00">+ GetNCombs()</text>
<text text-anchor="start" x="355" y="-139.5" font-family="Helvetica,sans-Serif" font-size="10.00">+ ErasePoint()</text>
<text text-anchor="start" x="355" y="-128.5" font-family="Helvetica,sans-Serif" font-size="10.00">+ Average()</text>
<text text-anchor="start" x="355" y="-117.5" font-family="Helvetica,sans-Serif" font-size="10.00">+ GetGraph()</text>
<text text-anchor="start" x="355" y="-106.5" font-family="Helvetica,sans-Serif" font-size="10.00">+ GetDispGraph()</text>
<text text-anchor="start" x="355" y="-95.5" font-family="Helvetica,sans-Serif" font-size="10.00">+ Fit()</text>
<text text-anchor="start" x="355" y="-84.5" font-family="Helvetica,sans-Serif" font-size="10.00">+ GetChiGraph()</text>
<text text-anchor="start" x="355" y="-73.5" font-family="Helvetica,sans-Serif" font-size="10.00">+ DrawChiGraph()</text>
<text text-anchor="start" x="355" y="-62.5" font-family="Helvetica,sans-Serif" font-size="10.00">+ DrawAngCorr()</text>
<text text-anchor="start" x="355" y="-51.5" font-family="Helvetica,sans-Serif" font-size="10.00">+ PrintDelta1()</text>
<text text-anchor="start" x="355" y="-40.5" font-family="Helvetica,sans-Serif" font-size="10.00">+ PrintDelta2()</text>
<text text-anchor="start" x="355" y="-29.5" font-family="Helvetica,sans-Serif" font-size="10.00">+ Save()</text>
<text text-anchor="start" x="355" y="-18.5" font-family="Helvetica,sans-Serif" font-size="10.00">+ SaveChiGraph()</text>
<text text-anchor="start" x="355" y="-7.5" font-family="Helvetica,sans-Serif" font-size="10.00">+ ClassDef()</text>
</a>
</g>
</g>
<!-- Node2 -->
<g id="node2" class="node">
<title>Node2</title>
<g id="a_node2"><a xlink:title=" ">
<polygon fill="white" stroke="black" points="0,-452 0,-509 54,-509 54,-452 0,-452"/>
<text text-anchor="middle" x="27" y="-497" font-family="Helvetica,sans-Serif" font-size="10.00">TNamed</text>
<polyline fill="none" stroke="black" points="0,-490 54,-490 "/>
<text text-anchor="middle" x="27" y="-478" font-family="Helvetica,sans-Serif" font-size="10.00"> </text>
<polyline fill="none" stroke="black" points="0,-471 54,-471 "/>
<text text-anchor="middle" x="27" y="-459" font-family="Helvetica,sans-Serif" font-size="10.00"> </text>
</a>
</g>
</g>
<!-- Node2&#45;&gt;Node1 -->
<g id="edge1" class="edge">
<title>Node2&#45;&gt;Node1</title>
<path fill="none" stroke="midnightblue" d="M26.82,-441.65C28.56,-403.65 36.72,-345.39 68,-307 139.08,-219.76 268.03,-177.21 346.85,-158.44"/>
<polygon fill="none" stroke="midnightblue" points="23.32,-441.69 26.48,-451.8 30.31,-441.92 23.32,-441.69"/>
</g>
<!-- Node3 -->
<g id="node3" class="node">
<title>Node3</title>
<g id="a_node3"><a xlink:title=" ">
<polygon fill="white" stroke="black" points="233.5,-452 233.5,-509 342.5,-509 342.5,-452 233.5,-452"/>
<text text-anchor="middle" x="288" y="-497" font-family="Helvetica,sans-Serif" font-size="10.00">std::vector&lt; Color_t &gt;</text>
<polyline fill="none" stroke="black" points="233.5,-490 342.5,-490 "/>
<text text-anchor="start" x="241.5" y="-478" font-family="Helvetica,sans-Serif" font-size="10.00">+ elements</text>
<polyline fill="none" stroke="black" points="233.5,-471 342.5,-471 "/>
<text text-anchor="middle" x="288" y="-459" font-family="Helvetica,sans-Serif" font-size="10.00"> </text>
</a>
</g>
</g>
<!-- Node3&#45;&gt;Node1 -->
<g id="edge2" class="edge">
<title>Node3&#45;&gt;Node1</title>
<path fill="none" stroke="#404040" d="M298.42,-451.88C311.16,-418.11 333.73,-358.27 355.57,-300.38"/>
<polygon fill="none" stroke="#404040" points="355.69,-300.06 354.07,-293.04 359.93,-288.83 361.55,-295.86 355.69,-300.06"/>
<text text-anchor="middle" x="371" y="-365" font-family="Helvetica,sans-Serif" font-size="10.00"> +fColors</text>
</g>
<!-- Node4 -->
<g id="node4" class="node">
<title>Node4</title>
<g id="a_node4"><a xlink:title=" ">
<polygon fill="white" stroke="black" points="494,-623 494,-680 578,-680 578,-623 494,-623"/>
<text text-anchor="middle" x="536" y="-668" font-family="Helvetica,sans-Serif" font-size="10.00">std::vector&lt; T &gt;</text>
<polyline fill="none" stroke="black" points="494,-661 578,-661 "/>
<text text-anchor="middle" x="536" y="-649" font-family="Helvetica,sans-Serif" font-size="10.00"> </text>
<polyline fill="none" stroke="black" points="494,-642 578,-642 "/>
<text text-anchor="middle" x="536" y="-630" font-family="Helvetica,sans-Serif" font-size="10.00"> </text>
</a>
</g>
</g>
<!-- Node4&#45;&gt;Node3 -->
<g id="edge3" class="edge">
<title>Node4&#45;&gt;Node3</title>
<path fill="none" stroke="orange" d="M488.04,-617.18C461.92,-598.94 429.08,-575.87 400,-555 386.57,-545.36 383.68,-542.29 370,-533 358.32,-525.06 345.48,-516.79 333.49,-509.26"/>
<polygon fill="orange" stroke="orange" points="486.07,-620.07 496.27,-622.92 490.07,-614.33 486.07,-620.07"/>
<text text-anchor="middle" x="425" y="-541.5" font-family="Helvetica,sans-Serif" font-size="10.00"> &lt; Color_t &gt;</text>
</g>
<!-- Node6 -->
<g id="node6" class="node">
<title>Node6</title>
<g id="a_node6"><a xlink:title=" ">
<polygon fill="white" stroke="black" points="360.5,-452 360.5,-509 467.5,-509 467.5,-452 360.5,-452"/>
<text text-anchor="middle" x="414" y="-497" font-family="Helvetica,sans-Serif" font-size="10.00">std::vector&lt; double &gt;</text>
<polyline fill="none" stroke="black" points="360.5,-490 467.5,-490 "/>
<text text-anchor="start" x="368.5" y="-478" font-family="Helvetica,sans-Serif" font-size="10.00">+ elements</text>
<polyline fill="none" stroke="black" points="360.5,-471 467.5,-471 "/>
<text text-anchor="middle" x="414" y="-459" font-family="Helvetica,sans-Serif" font-size="10.00"> </text>
</a>
</g>
</g>
<!-- Node4&#45;&gt;Node6 -->
<g id="edge6" class="edge">
<title>Node4&#45;&gt;Node6</title>
<path fill="none" stroke="orange" d="M510.27,-614.86C487.48,-583.29 454.69,-537.86 433.86,-509.02"/>
<polygon fill="orange" stroke="orange" points="507.44,-616.91 516.13,-622.97 513.11,-612.81 507.44,-616.91"/>
<text text-anchor="middle" x="489" y="-541.5" font-family="Helvetica,sans-Serif" font-size="10.00"> &lt; double &gt;</text>
</g>
<!-- Node7 -->
<g id="node7" class="node">
<title>Node7</title>
<g id="a_node7"><a xlink:title=" ">
<polygon fill="white" stroke="black" points="110.5,-446.5 110.5,-514.5 215.5,-514.5 215.5,-446.5 110.5,-446.5"/>
<text text-anchor="start" x="118.5" y="-502.5" font-family="Helvetica,sans-Serif" font-size="10.00">std::vector&lt; GamR::</text>
<text text-anchor="middle" x="163" y="-491.5" font-family="Helvetica,sans-Serif" font-size="10.00">AngDist::AngCorr * &gt;</text>
<polyline fill="none" stroke="black" points="110.5,-484.5 215.5,-484.5 "/>
<text text-anchor="middle" x="163" y="-472.5" font-family="Helvetica,sans-Serif" font-size="10.00"> </text>
<polyline fill="none" stroke="black" points="110.5,-465.5 215.5,-465.5 "/>
<text text-anchor="middle" x="163" y="-453.5" font-family="Helvetica,sans-Serif" font-size="10.00"> </text>
</a>
</g>
</g>
<!-- Node4&#45;&gt;Node7 -->
<g id="edge10" class="edge">
<title>Node4&#45;&gt;Node7</title>
<path fill="none" stroke="orange" d="M483.87,-642.58C420.71,-631.14 312.96,-605.57 234,-555 222.87,-547.87 223.1,-542.59 214,-533 208.28,-526.98 202.12,-520.63 196.13,-514.54"/>
<polygon fill="orange" stroke="orange" points="483.54,-646.08 493.99,-644.36 484.75,-639.18 483.54,-646.08"/>
<text text-anchor="middle" x="300" y="-541.5" font-family="Helvetica,sans-Serif" font-size="10.00"> &lt; GamR::AngDist::AngCorr * &gt;</text>
</g>
<!-- Node10 -->
<g id="node10" class="node">
<title>Node10</title>
<g id="a_node10"><a xlink:title=" ">
<polygon fill="white" stroke="black" points="485.5,-452 485.5,-509 586.5,-509 586.5,-452 485.5,-452"/>
<text text-anchor="middle" x="536" y="-497" font-family="Helvetica,sans-Serif" font-size="10.00">std::vector&lt; TF1 * &gt;</text>
<polyline fill="none" stroke="black" points="485.5,-490 586.5,-490 "/>
<text text-anchor="start" x="493.5" y="-478" font-family="Helvetica,sans-Serif" font-size="10.00">+ elements</text>
<polyline fill="none" stroke="black" points="485.5,-471 586.5,-471 "/>
<text text-anchor="middle" x="536" y="-459" font-family="Helvetica,sans-Serif" font-size="10.00"> </text>
</a>
</g>
</g>
<!-- Node4&#45;&gt;Node10 -->
<g id="edge12" class="edge">
<title>Node4&#45;&gt;Node10</title>
<path fill="none" stroke="orange" d="M536,-612.83C536,-581.37 536,-537.25 536,-509.02"/>
<polygon fill="orange" stroke="orange" points="532.5,-612.97 536,-622.97 539.5,-612.97 532.5,-612.97"/>
<text text-anchor="middle" x="557.5" y="-541.5" font-family="Helvetica,sans-Serif" font-size="10.00"> &lt; TF1 * &gt;</text>
</g>
<!-- Node11 -->
<g id="node11" class="node">
<title>Node11</title>
<g id="a_node11"><a xlink:title=" ">
<polygon fill="white" stroke="black" points="605,-452 605,-509 721,-509 721,-452 605,-452"/>
<text text-anchor="middle" x="663" y="-497" font-family="Helvetica,sans-Serif" font-size="10.00">std::vector&lt; TGraph * &gt;</text>
<polyline fill="none" stroke="black" points="605,-490 721,-490 "/>
<text text-anchor="start" x="613" y="-478" font-family="Helvetica,sans-Serif" font-size="10.00">+ elements</text>
<polyline fill="none" stroke="black" points="605,-471 721,-471 "/>
<text text-anchor="middle" x="663" y="-459" font-family="Helvetica,sans-Serif" font-size="10.00"> </text>
</a>
</g>
</g>
<!-- Node4&#45;&gt;Node11 -->
<g id="edge14" class="edge">
<title>Node4&#45;&gt;Node11</title>
<path fill="none" stroke="orange" d="M562.78,-614.86C586.51,-583.29 620.65,-537.86 642.32,-509.02"/>
<polygon fill="orange" stroke="orange" points="559.9,-612.87 556.69,-622.97 565.49,-617.08 559.9,-612.87"/>
<text text-anchor="middle" x="650" y="-541.5" font-family="Helvetica,sans-Serif" font-size="10.00"> &lt; TGraph * &gt;</text>
</g>
<!-- Node12 -->
<g id="node12" class="node">
<title>Node12</title>
<g id="a_node12"><a xlink:title=" ">
<polygon fill="white" stroke="black" points="739,-446.5 739,-514.5 843,-514.5 843,-446.5 739,-446.5"/>
<text text-anchor="start" x="747" y="-502.5" font-family="Helvetica,sans-Serif" font-size="10.00">std::vector&lt; std::pair</text>
<text text-anchor="middle" x="791" y="-491.5" font-family="Helvetica,sans-Serif" font-size="10.00">&lt; double, double &gt; &gt;</text>
<polyline fill="none" stroke="black" points="739,-484.5 843,-484.5 "/>
<text text-anchor="start" x="747" y="-472.5" font-family="Helvetica,sans-Serif" font-size="10.00">+ elements</text>
<polyline fill="none" stroke="black" points="739,-465.5 843,-465.5 "/>
<text text-anchor="middle" x="791" y="-453.5" font-family="Helvetica,sans-Serif" font-size="10.00"> </text>
</a>
</g>
</g>
<!-- Node4&#45;&gt;Node12 -->
<g id="edge16" class="edge">
<title>Node4&#45;&gt;Node12</title>
<path fill="none" stroke="orange" d="M586.85,-617.85C615.24,-599.52 651.19,-576.15 683,-555 702.64,-541.94 724.15,-527.36 742.76,-514.65"/>
<polygon fill="orange" stroke="orange" points="584.8,-615 578.29,-623.36 588.59,-620.88 584.8,-615"/>
<text text-anchor="start" x="712" y="-547" font-family="Helvetica,sans-Serif" font-size="10.00"> &lt; std::pair&lt; double,</text>
<text text-anchor="middle" x="754.5" y="-536" font-family="Helvetica,sans-Serif" font-size="10.00"> double &gt; &gt;</text>
</g>
<!-- Node13 -->
<g id="node13" class="node">
<title>Node13</title>
<g id="a_node13"><a xlink:title=" ">
<polygon fill="white" stroke="black" points="861.5,-452 861.5,-509 950.5,-509 950.5,-452 861.5,-452"/>
<text text-anchor="middle" x="906" y="-497" font-family="Helvetica,sans-Serif" font-size="10.00">std::vector&lt; int &gt;</text>
<polyline fill="none" stroke="black" points="861.5,-490 950.5,-490 "/>
<text text-anchor="start" x="869.5" y="-478" font-family="Helvetica,sans-Serif" font-size="10.00">+ elements</text>
<polyline fill="none" stroke="black" points="861.5,-471 950.5,-471 "/>
<text text-anchor="middle" x="906" y="-459" font-family="Helvetica,sans-Serif" font-size="10.00"> </text>
</a>
</g>
</g>
<!-- Node4&#45;&gt;Node13 -->
<g id="edge18" class="edge">
<title>Node4&#45;&gt;Node13</title>
<path fill="none" stroke="orange" d="M588.1,-636.19C642.81,-620.16 730.5,-591.55 801,-555 825.89,-542.1 851.72,-524.09 871.53,-509.13"/>
<polygon fill="orange" stroke="orange" points="586.91,-632.89 578.28,-639.04 588.86,-639.62 586.91,-632.89"/>
<text text-anchor="middle" x="852" y="-541.5" font-family="Helvetica,sans-Serif" font-size="10.00"> &lt; int &gt;</text>
</g>
<!-- Node5 -->
<g id="node5" class="node">
<title>Node5</title>
<g id="a_node5"><a xlink:title=" ">
<polygon fill="white" stroke="black" points="521.5,-810.5 521.5,-867.5 550.5,-867.5 550.5,-810.5 521.5,-810.5"/>
<text text-anchor="middle" x="536" y="-855.5" font-family="Helvetica,sans-Serif" font-size="10.00">T</text>
<polyline fill="none" stroke="black" points="521.5,-848.5 550.5,-848.5 "/>
<text text-anchor="middle" x="536" y="-836.5" font-family="Helvetica,sans-Serif" font-size="10.00"> </text>
<polyline fill="none" stroke="black" points="521.5,-829.5 550.5,-829.5 "/>
<text text-anchor="middle" x="536" y="-817.5" font-family="Helvetica,sans-Serif" font-size="10.00"> </text>
</a>
</g>
</g>
<!-- Node5&#45;&gt;Node4 -->
<g id="edge4" class="edge">
<title>Node5&#45;&gt;Node4</title>
<path fill="none" stroke="#404040" d="M536,-810.23C536,-778.99 536,-728 536,-692.48"/>
<polygon fill="none" stroke="#404040" points="536,-692.16 532,-686.16 536,-680.16 540,-686.16 536,-692.16"/>
<text text-anchor="middle" x="560.5" y="-751" font-family="Helvetica,sans-Serif" font-size="10.00"> +elements</text>
</g>
<!-- Node6&#45;&gt;Node1 -->
<g id="edge5" class="edge">
<title>Node6&#45;&gt;Node1</title>
<path fill="none" stroke="#404040" d="M414,-451.88C414,-418.25 414,-358.77 414,-301.1"/>
<polygon fill="none" stroke="#404040" points="414,-300.83 410,-294.83 414,-288.83 418,-294.83 414,-300.83"/>
<text text-anchor="middle" x="444" y="-420" font-family="Helvetica,sans-Serif" font-size="10.00"> +fAngles</text>
<text text-anchor="middle" x="444" y="-409" font-family="Helvetica,sans-Serif" font-size="10.00">+fChiSquared</text>
<text text-anchor="middle" x="444" y="-398" font-family="Helvetica,sans-Serif" font-size="10.00">+fDelta1</text>
<text text-anchor="middle" x="444" y="-387" font-family="Helvetica,sans-Serif" font-size="10.00">+fDelta2</text>
<text text-anchor="middle" x="444" y="-376" font-family="Helvetica,sans-Serif" font-size="10.00">+fErrors</text>
<text text-anchor="middle" x="444" y="-365" font-family="Helvetica,sans-Serif" font-size="10.00">+fIntensities</text>
<text text-anchor="middle" x="444" y="-354" font-family="Helvetica,sans-Serif" font-size="10.00">+fixDelta</text>
<text text-anchor="middle" x="444" y="-343" font-family="Helvetica,sans-Serif" font-size="10.00">+spin1s</text>
<text text-anchor="middle" x="444" y="-332" font-family="Helvetica,sans-Serif" font-size="10.00">+spin2s</text>
<text text-anchor="middle" x="444" y="-321" font-family="Helvetica,sans-Serif" font-size="10.00">+spin3s</text>
<text text-anchor="middle" x="444" y="-310" font-family="Helvetica,sans-Serif" font-size="10.00">...</text>
</g>
<!-- Node7&#45;&gt;Node1 -->
<g id="edge7" class="edge">
<title>Node7&#45;&gt;Node1</title>
<path fill="none" stroke="#404040" d="M181.56,-446.33C201.95,-410.8 236.41,-353.27 271,-307 291.67,-279.35 316,-250.68 338.67,-225.3"/>
<polygon fill="none" stroke="#404040" points="338.91,-225.03 339.95,-217.89 346.93,-216.1 345.9,-223.24 338.91,-225.03"/>
<text text-anchor="middle" x="288.5" y="-365" font-family="Helvetica,sans-Serif" font-size="10.00"> +fCorrs</text>
</g>
<!-- Node8 -->
<g id="node8" class="node">
<title>Node8</title>
<g id="a_node8"><a xlink:href="../../da/d73/class_gam_r_1_1_ang_dist_1_1_ang_corr.html" target="_top" xlink:title=" ">
<polygon fill="white" stroke="black" points="110.5,-573.5 110.5,-729.5 233.5,-729.5 233.5,-573.5 110.5,-573.5"/>
<text text-anchor="middle" x="172" y="-717.5" font-family="Helvetica,sans-Serif" font-size="10.00">GamR::AngDist::AngCorr</text>
<polyline fill="none" stroke="black" points="110.5,-710.5 233.5,-710.5 "/>
<text text-anchor="start" x="118.5" y="-698.5" font-family="Helvetica,sans-Serif" font-size="10.00">+ spin1</text>
<text text-anchor="start" x="118.5" y="-687.5" font-family="Helvetica,sans-Serif" font-size="10.00">+ spin2</text>
<text text-anchor="start" x="118.5" y="-676.5" font-family="Helvetica,sans-Serif" font-size="10.00">+ spin3</text>
<polyline fill="none" stroke="black" points="110.5,-669.5 233.5,-669.5 "/>
<text text-anchor="start" x="118.5" y="-657.5" font-family="Helvetica,sans-Serif" font-size="10.00">+ AngCorr()</text>
<text text-anchor="start" x="118.5" y="-646.5" font-family="Helvetica,sans-Serif" font-size="10.00">+ AngCorr()</text>
<text text-anchor="start" x="118.5" y="-635.5" font-family="Helvetica,sans-Serif" font-size="10.00">+ Ak()</text>
<text text-anchor="start" x="118.5" y="-624.5" font-family="Helvetica,sans-Serif" font-size="10.00">+ operator()()</text>
<text text-anchor="start" x="118.5" y="-613.5" font-family="Helvetica,sans-Serif" font-size="10.00">+ Mixed()</text>
<text text-anchor="start" x="118.5" y="-602.5" font-family="Helvetica,sans-Serif" font-size="10.00">+ Mixed()</text>
<text text-anchor="start" x="118.5" y="-591.5" font-family="Helvetica,sans-Serif" font-size="10.00">+ Mixed1()</text>
<text text-anchor="start" x="118.5" y="-580.5" font-family="Helvetica,sans-Serif" font-size="10.00">+ Mixed2()</text>
</a>
</g>
</g>
<!-- Node8&#45;&gt;Node7 -->
<g id="edge8" class="edge">
<title>Node8&#45;&gt;Node7</title>
<path fill="none" stroke="#404040" d="M166.04,-573.38C165.65,-567.16 165.3,-560.98 165,-555 164.55,-545.97 164.19,-536.31 163.91,-527.07"/>
<polygon fill="none" stroke="#404040" points="163.91,-526.8 159.75,-520.91 163.58,-514.81 167.74,-520.7 163.91,-526.8"/>
<text text-anchor="middle" x="189.5" y="-541.5" font-family="Helvetica,sans-Serif" font-size="10.00"> +elements</text>
</g>
<!-- Node9 -->
<g id="node9" class="node">
<title>Node9</title>
<g id="a_node9"><a xlink:href="../../d2/dbb/class_gam_r_1_1_ang_dist_1_1_solid_attenuation.html" target="_top" xlink:title=" ">
<polygon fill="white" stroke="black" points="33.5,-777.5 33.5,-900.5 192.5,-900.5 192.5,-777.5 33.5,-777.5"/>
<text text-anchor="middle" x="113" y="-888.5" font-family="Helvetica,sans-Serif" font-size="10.00">GamR::AngDist::SolidAttenuation</text>
<polyline fill="none" stroke="black" points="33.5,-881.5 192.5,-881.5 "/>
<text text-anchor="middle" x="113" y="-869.5" font-family="Helvetica,sans-Serif" font-size="10.00"> </text>
<polyline fill="none" stroke="black" points="33.5,-862.5 192.5,-862.5 "/>
<text text-anchor="start" x="41.5" y="-850.5" font-family="Helvetica,sans-Serif" font-size="10.00">+ SolidAttenuation()</text>
<text text-anchor="start" x="41.5" y="-839.5" font-family="Helvetica,sans-Serif" font-size="10.00">+ SolidAttenuation()</text>
<text text-anchor="start" x="41.5" y="-828.5" font-family="Helvetica,sans-Serif" font-size="10.00">+ SolidAttenuation()</text>
<text text-anchor="start" x="41.5" y="-817.5" font-family="Helvetica,sans-Serif" font-size="10.00">+ Get()</text>
<text text-anchor="start" x="41.5" y="-806.5" font-family="Helvetica,sans-Serif" font-size="10.00">+ Get()</text>
<text text-anchor="start" x="41.5" y="-795.5" font-family="Helvetica,sans-Serif" font-size="10.00">+ Set()</text>
<text text-anchor="start" x="41.5" y="-784.5" font-family="Helvetica,sans-Serif" font-size="10.00">+ Print()</text>
</a>
</g>
</g>
<!-- Node9&#45;&gt;Node1 -->
<g id="edge19" class="edge">
<title>Node9&#45;&gt;Node1</title>
<path fill="none" stroke="#404040" d="M99.63,-777.4C84.94,-699.07 67.53,-559.29 101,-446 136.14,-327.08 255.5,-236.85 336.24,-187.58"/>
<polygon fill="none" stroke="#404040" points="336.59,-187.37 339.67,-180.86 346.88,-181.19 343.79,-187.71 336.59,-187.37"/>
<text text-anchor="middle" x="96" y="-541.5" font-family="Helvetica,sans-Serif" font-size="10.00"> +Qk</text>
</g>
<!-- Node9&#45;&gt;Node8 -->
<g id="edge9" class="edge">
<title>Node9&#45;&gt;Node8</title>
<path fill="none" stroke="#404040" d="M132.32,-777.26C135.99,-765.73 139.89,-753.45 143.77,-741.26"/>
<polygon fill="none" stroke="#404040" points="143.83,-741.06 141.84,-734.13 147.47,-729.62 149.46,-736.55 143.83,-741.06"/>
<text text-anchor="middle" x="152" y="-751" font-family="Helvetica,sans-Serif" font-size="10.00"> +Qk</text>
</g>
<!-- Node10&#45;&gt;Node1 -->
<g id="edge11" class="edge">
<title>Node10&#45;&gt;Node1</title>
<path fill="none" stroke="#404040" d="M527.2,-451.86C516.21,-417.66 496.57,-357.74 478,-307 477.18,-304.77 476.36,-302.52 475.52,-300.27"/>
<polygon fill="none" stroke="#404040" points="475.47,-300.13 469.63,-295.9 471.28,-288.88 477.12,-293.11 475.47,-300.13"/>
<text text-anchor="middle" x="547.5" y="-365" font-family="Helvetica,sans-Serif" font-size="10.00"> +fCorrFuncs</text>
</g>
<!-- Node11&#45;&gt;Node1 -->
<g id="edge13" class="edge">
<title>Node11&#45;&gt;Node1</title>
<path fill="none" stroke="#404040" d="M653.19,-451.88C639.83,-416.4 613.68,-353.8 580,-307 554.46,-271.5 520.65,-237.02 490.22,-209.09"/>
<polygon fill="none" stroke="#404040" points="490.21,-209.08 483.07,-208.01 481.32,-201.02 488.45,-202.09 490.21,-209.08"/>
<text text-anchor="middle" x="672" y="-365" font-family="Helvetica,sans-Serif" font-size="10.00"> +fChiGraphs</text>
</g>
<!-- Node12&#45;&gt;Node1 -->
<g id="edge15" class="edge">
<title>Node12&#45;&gt;Node1</title>
<path fill="none" stroke="#404040" d="M781.17,-446.43C768.61,-408.85 743.75,-347.5 705,-307 645.37,-244.67 556.33,-200.12 492.45,-173.8"/>
<polygon fill="none" stroke="#404040" points="492.36,-173.76 485.29,-175.22 481.23,-169.26 488.3,-167.8 492.36,-173.76"/>
<text text-anchor="middle" x="799" y="-370.5" font-family="Helvetica,sans-Serif" font-size="10.00"> +fDelta1Err</text>
<text text-anchor="middle" x="799" y="-359.5" font-family="Helvetica,sans-Serif" font-size="10.00">+fDelta2Err</text>
</g>
<!-- Node13&#45;&gt;Node1 -->
<g id="edge17" class="edge">
<title>Node13&#45;&gt;Node1</title>
<path fill="none" stroke="#404040" d="M900.54,-451.79C891.75,-414.17 871.03,-347.04 829,-307 734.57,-217.06 584.41,-175.53 492.96,-157.66"/>
<polygon fill="none" stroke="#404040" points="492.79,-157.63 486.15,-160.44 481,-155.39 487.64,-152.58 492.79,-157.63"/>
<text text-anchor="middle" x="907" y="-365" font-family="Helvetica,sans-Serif" font-size="10.00"> +fDel</text>
</g>
</g>
</svg>
