<?xml version="1.0" encoding="UTF-8" standalone="no"?>
<!DOCTYPE svg PUBLIC "-//W3C//DTD SVG 1.1//EN"
 "http://www.w3.org/Graphics/SVG/1.1/DTD/svg11.dtd">
<!-- Generated by graphviz version 2.49.3 (20211023.0002)
 -->
<!-- Title: GamR::Utils::wrresult Pages: 1 -->
<svg width="727pt" height="362pt"
 viewBox="0.00 0.00 727.00 361.50" xmlns="http://www.w3.org/2000/svg" xmlns:xlink="http://www.w3.org/1999/xlink">
<g id="graph0" class="graph" transform="scale(1 1) rotate(0) translate(4 357.5)">
<title>GamR::Utils::wrresult</title>
<polygon fill="white" stroke="transparent" points="-4,4 -4,-357.5 723,-357.5 723,4 -4,4"/>
<!-- Node1 -->
<g id="node1" class="node">
<title>Node1</title>
<g id="a_node1"><a xlink:title=" ">
<polygon fill="#bfbfbf" stroke="black" points="608,-159.5 608,-178.5 719,-178.5 719,-159.5 608,-159.5"/>
<text text-anchor="middle" x="663.5" y="-166.5" font-family="Helvetica,sans-Serif" font-size="10.00">GamR::Utils::wrresult</text>
</a>
</g>
</g>
<!-- Node2 -->
<g id="node2" class="node">
<title>Node2</title>
<g id="a_node2"><a xlink:href="../../d6/dc7/class_gam_r_1_1_nucleus_1_1_level_scheme_1_1_state.html#a38cac86e363a9c30dd653be96e98c62f" target="_top" xlink:title=" ">
<polygon fill="white" stroke="black" points="413,-323 413,-353 566,-353 566,-323 413,-323"/>
<text text-anchor="start" x="421" y="-341" font-family="Helvetica,sans-Serif" font-size="10.00">GamR::Nucleus::LevelScheme</text>
<text text-anchor="middle" x="489.5" y="-330" font-family="Helvetica,sans-Serif" font-size="10.00">::State::Paint</text>
</a>
</g>
</g>
<!-- Node1&#45;&gt;Node2 -->
<g id="edge1" class="edge">
<title>Node1&#45;&gt;Node2</title>
<path fill="none" stroke="midnightblue" d="M655.6,-188.53C643.56,-219.75 615.76,-280.76 572,-314 567.54,-317.39 562.6,-320.3 557.44,-322.8"/>
<polygon fill="midnightblue" stroke="midnightblue" points="659,-189.41 659.2,-178.82 652.44,-186.98 659,-189.41"/>
</g>
<!-- Node3 -->
<g id="node3" class="node">
<title>Node3</title>
<g id="a_node3"><a xlink:href="../../d5/d3a/class_gam_r_1_1_nucleus_1_1_level_scheme_1_1_transition.html#af663ba1e8174f1628febd81eeaa6059a" target="_top" xlink:title=" ">
<polygon fill="white" stroke="black" points="413,-274 413,-304 566,-304 566,-274 413,-274"/>
<text text-anchor="start" x="421" y="-292" font-family="Helvetica,sans-Serif" font-size="10.00">GamR::Nucleus::LevelScheme</text>
<text text-anchor="middle" x="489.5" y="-281" font-family="Helvetica,sans-Serif" font-size="10.00">::Transition::Paint</text>
</a>
</g>
</g>
<!-- Node1&#45;&gt;Node3 -->
<g id="edge2" class="edge">
<title>Node1&#45;&gt;Node3</title>
<path fill="none" stroke="midnightblue" d="M650.13,-187.09C634.42,-208.72 605.31,-244.55 572,-265 566.47,-268.4 560.43,-271.33 554.23,-273.87"/>
<polygon fill="midnightblue" stroke="midnightblue" points="653.09,-188.96 656.02,-178.77 647.38,-184.91 653.09,-188.96"/>
</g>
<!-- Node4 -->
<g id="node4" class="node">
<title>Node4</title>
<g id="a_node4"><a xlink:href="../../d0/d66/class_gam_r_1_1_ang_dist_1_1_gaussian_distr.html#abe2779b9bf1a77cbb982c99eba1df80e" target="_top" xlink:title=" ">
<polygon fill="white" stroke="black" points="412.5,-225 412.5,-255 566.5,-255 566.5,-225 412.5,-225"/>
<text text-anchor="start" x="420.5" y="-243" font-family="Helvetica,sans-Serif" font-size="10.00">GamR::AngDist::GaussianDistr</text>
<text text-anchor="middle" x="489.5" y="-232" font-family="Helvetica,sans-Serif" font-size="10.00">::Print</text>
</a>
</g>
</g>
<!-- Node1&#45;&gt;Node4 -->
<g id="edge3" class="edge">
<title>Node1&#45;&gt;Node4</title>
<path fill="none" stroke="midnightblue" d="M637.13,-183.86C619.33,-193.86 594.73,-206.85 572,-216 564.06,-219.19 555.54,-222.17 547.1,-224.87"/>
<polygon fill="midnightblue" stroke="midnightblue" points="639.32,-186.64 646.27,-178.65 635.85,-180.56 639.32,-186.64"/>
</g>
<!-- Node5 -->
<g id="node5" class="node">
<title>Node5</title>
<g id="a_node5"><a xlink:href="../../d3/d7a/class_gam_r_1_1_ang_dist_1_1_double_gaussian_distr.html#ac019d45ea1678772bdc4dc7b542a8e4c" target="_top" xlink:title=" ">
<polygon fill="white" stroke="black" points="407,-176 407,-206 572,-206 572,-176 407,-176"/>
<text text-anchor="start" x="415" y="-194" font-family="Helvetica,sans-Serif" font-size="10.00">GamR::AngDist::DoubleGaussian</text>
<text text-anchor="middle" x="489.5" y="-183" font-family="Helvetica,sans-Serif" font-size="10.00">Distr::Print</text>
</a>
</g>
</g>
<!-- Node1&#45;&gt;Node5 -->
<g id="edge4" class="edge">
<title>Node1&#45;&gt;Node5</title>
<path fill="none" stroke="midnightblue" d="M597.62,-177.3C589.29,-178.36 580.69,-179.46 572.14,-180.56"/>
<polygon fill="midnightblue" stroke="midnightblue" points="598.13,-180.76 607.61,-176.02 597.24,-173.82 598.13,-180.76"/>
</g>
<!-- Node6 -->
<g id="node6" class="node">
<title>Node6</title>
<g id="a_node6"><a xlink:href="../../d0/d74/group___t_k.html#gaa496d15cf9600fa5790ff50c9392b0fd" target="_top" xlink:title=" ">
<polygon fill="white" stroke="black" points="427,-137.5 427,-156.5 552,-156.5 552,-137.5 427,-137.5"/>
<text text-anchor="middle" x="489.5" y="-144.5" font-family="Helvetica,sans-Serif" font-size="10.00">GamR::TK::BPeak::Print</text>
</a>
</g>
</g>
<!-- Node1&#45;&gt;Node6 -->
<g id="edge5" class="edge">
<title>Node1&#45;&gt;Node6</title>
<path fill="none" stroke="midnightblue" d="M597.46,-160.68C582.57,-158.78 566.78,-156.76 552.04,-154.87"/>
<polygon fill="midnightblue" stroke="midnightblue" points="597.24,-164.18 607.61,-161.98 598.13,-157.24 597.24,-164.18"/>
</g>
<!-- Node12 -->
<g id="node12" class="node">
<title>Node12</title>
<g id="a_node12"><a xlink:href="../../df/d69/class_gam_r_1_1_spect_1_1_peak_fit.html#a392759dbcf7aa7088cf847fb88f4fbae" target="_top" xlink:title=" ">
<polygon fill="white" stroke="black" points="431.5,-88 431.5,-118 547.5,-118 547.5,-88 431.5,-88"/>
<text text-anchor="start" x="439.5" y="-106" font-family="Helvetica,sans-Serif" font-size="10.00">GamR::Spect::PeakFit</text>
<text text-anchor="middle" x="489.5" y="-95" font-family="Helvetica,sans-Serif" font-size="10.00">::PrintResults</text>
</a>
</g>
</g>
<!-- Node1&#45;&gt;Node12 -->
<g id="edge11" class="edge">
<title>Node1&#45;&gt;Node12</title>
<path fill="none" stroke="midnightblue" d="M634.21,-155.06C616.56,-146.64 593.24,-136.03 572,-128 562.72,-124.49 552.72,-121.11 543.01,-118.02"/>
<polygon fill="midnightblue" stroke="midnightblue" points="632.85,-158.29 643.38,-159.48 635.89,-151.98 632.85,-158.29"/>
</g>
<!-- Node14 -->
<g id="node14" class="node">
<title>Node14</title>
<g id="a_node14"><a xlink:href="../../dc/def/class_gam_r_1_1_nucleus_1_1_level_scheme_1_1_scheme.html#ad5f3185a8529d97bb370294557c77cf8" target="_top" xlink:title=" ">
<polygon fill="white" stroke="black" points="413,-39 413,-69 566,-69 566,-39 413,-39"/>
<text text-anchor="start" x="421" y="-57" font-family="Helvetica,sans-Serif" font-size="10.00">GamR::Nucleus::LevelScheme</text>
<text text-anchor="middle" x="489.5" y="-46" font-family="Helvetica,sans-Serif" font-size="10.00">::Scheme::SaveTable</text>
</a>
</g>
</g>
<!-- Node1&#45;&gt;Node14 -->
<g id="edge13" class="edge">
<title>Node1&#45;&gt;Node14</title>
<path fill="none" stroke="midnightblue" d="M649.45,-151.29C633.43,-130.75 604.35,-97.27 572,-78 566.3,-74.6 560.08,-71.66 553.71,-69.11"/>
<polygon fill="midnightblue" stroke="midnightblue" points="646.84,-153.63 655.68,-159.47 652.41,-149.39 646.84,-153.63"/>
</g>
<!-- Node15 -->
<g id="node15" class="node">
<title>Node15</title>
<g id="a_node15"><a xlink:href="../../d0/db7/namespace_gam_r_1_1_utils.html#ac40ffec6ca9461e9f22e68cad4e88a47" target="_top" xlink:title=" ">
<polygon fill="white" stroke="black" points="434,-0.5 434,-19.5 545,-19.5 545,-0.5 434,-0.5"/>
<text text-anchor="middle" x="489.5" y="-7.5" font-family="Helvetica,sans-Serif" font-size="10.00">GamR::Utils::wrresult</text>
</a>
</g>
</g>
<!-- Node1&#45;&gt;Node15 -->
<g id="edge14" class="edge">
<title>Node1&#45;&gt;Node15</title>
<path fill="none" stroke="midnightblue" d="M655.62,-149.86C643.6,-119.31 615.83,-59.83 572,-29 564.04,-23.4 554.66,-19.43 545.16,-16.62"/>
<polygon fill="midnightblue" stroke="midnightblue" points="652.4,-151.25 659.21,-159.36 658.95,-148.77 652.4,-151.25"/>
</g>
<!-- Node7 -->
<g id="node7" class="node">
<title>Node7</title>
<g id="a_node7"><a xlink:href="../../d0/d74/group___t_k.html#gab9295d2a9e654d7540ee264d036590cd" target="_top" xlink:title=" ">
<polygon fill="white" stroke="black" points="250.5,-172.5 250.5,-191.5 370.5,-191.5 370.5,-172.5 250.5,-172.5"/>
<text text-anchor="middle" x="310.5" y="-179.5" font-family="Helvetica,sans-Serif" font-size="10.00">GamR::TK::ClickBPeak</text>
</a>
</g>
</g>
<!-- Node6&#45;&gt;Node7 -->
<g id="edge6" class="edge">
<title>Node6&#45;&gt;Node7</title>
<path fill="none" stroke="midnightblue" d="M430.23,-158.52C407.42,-163.03 381.56,-168.15 359.81,-172.45"/>
<polygon fill="midnightblue" stroke="midnightblue" points="431,-161.94 440.13,-156.56 429.64,-155.07 431,-161.94"/>
</g>
<!-- Node9 -->
<g id="node9" class="node">
<title>Node9</title>
<g id="a_node9"><a xlink:href="../../d0/d74/group___t_k.html#gaf641b8c1f292803f8695310a0aee1896" target="_top" xlink:title=" ">
<polygon fill="white" stroke="black" points="255.5,-134.5 255.5,-153.5 365.5,-153.5 365.5,-134.5 255.5,-134.5"/>
<text text-anchor="middle" x="310.5" y="-141.5" font-family="Helvetica,sans-Serif" font-size="10.00">GamR::TK::FitBPeak</text>
</a>
</g>
</g>
<!-- Node6&#45;&gt;Node9 -->
<g id="edge8" class="edge">
<title>Node6&#45;&gt;Node9</title>
<path fill="none" stroke="midnightblue" d="M416.21,-145.77C399.34,-145.49 381.64,-145.19 365.71,-144.92"/>
<polygon fill="midnightblue" stroke="midnightblue" points="416.54,-149.28 426.59,-145.95 416.65,-142.28 416.54,-149.28"/>
</g>
<!-- Node8 -->
<g id="node8" class="node">
<title>Node8</title>
<g id="a_node8"><a xlink:href="../../d0/d17/_abbreviations_8cc.html#a56da1b89cd1ce3720264ffb38d8505aa" target="_top" xlink:title=" ">
<polygon fill="white" stroke="black" points="181,-172.5 181,-191.5 214,-191.5 214,-172.5 181,-172.5"/>
<text text-anchor="middle" x="197.5" y="-179.5" font-family="Helvetica,sans-Serif" font-size="10.00">cbp</text>
</a>
</g>
</g>
<!-- Node7&#45;&gt;Node8 -->
<g id="edge7" class="edge">
<title>Node7&#45;&gt;Node8</title>
<path fill="none" stroke="midnightblue" d="M240.12,-182C230.4,-182 221.28,-182 214.07,-182"/>
<polygon fill="midnightblue" stroke="midnightblue" points="240.43,-185.5 250.43,-182 240.43,-178.5 240.43,-185.5"/>
</g>
<!-- Node10 -->
<g id="node10" class="node">
<title>Node10</title>
<g id="a_node10"><a xlink:href="../../d0/d17/_abbreviations_8cc.html#a544c36017b9d9387f39e84863d9ae9a4" target="_top" xlink:title=" ">
<polygon fill="white" stroke="black" points="183,-134.5 183,-153.5 212,-153.5 212,-134.5 183,-134.5"/>
<text text-anchor="middle" x="197.5" y="-141.5" font-family="Helvetica,sans-Serif" font-size="10.00">bp</text>
</a>
</g>
</g>
<!-- Node9&#45;&gt;Node10 -->
<g id="edge9" class="edge">
<title>Node9&#45;&gt;Node10</title>
<path fill="none" stroke="midnightblue" d="M245.16,-144C232.62,-144 220.7,-144 212.05,-144"/>
<polygon fill="midnightblue" stroke="midnightblue" points="245.3,-147.5 255.3,-144 245.3,-140.5 245.3,-147.5"/>
</g>
<!-- Node11 -->
<g id="node11" class="node">
<title>Node11</title>
<g id="a_node11"><a xlink:href="../../d3/d48/class_gam_r_1_1_processor_1_1_time_walk.html#a10cdc74a1e9f4a14e1c449c9712ba085" target="_top" xlink:title="Iterating through calibration peaks for each detector pair: calculate the time difference spectrum (w...">
<polygon fill="white" stroke="black" points="0,-129 0,-159 145,-159 145,-129 0,-129"/>
<text text-anchor="start" x="8" y="-147" font-family="Helvetica,sans-Serif" font-size="10.00">GamR::Processor::TimeWalk</text>
<text text-anchor="middle" x="72.5" y="-136" font-family="Helvetica,sans-Serif" font-size="10.00">::MakeGraphs</text>
</a>
</g>
</g>
<!-- Node10&#45;&gt;Node11 -->
<g id="edge10" class="edge">
<title>Node10&#45;&gt;Node11</title>
<path fill="none" stroke="midnightblue" d="M172.74,-144C164.58,-144 154.97,-144 145.01,-144"/>
<polygon fill="midnightblue" stroke="midnightblue" points="172.87,-147.5 182.87,-144 172.87,-140.5 172.87,-147.5"/>
</g>
<!-- Node13 -->
<g id="node13" class="node">
<title>Node13</title>
<g id="a_node13"><a xlink:href="../../dc/d89/namespace_gam_r_1_1_spect.html#a509e9d3432c6d23f1db25ab0363497b8" target="_top" xlink:title=" ">
<polygon fill="white" stroke="black" points="250,-93.5 250,-112.5 371,-112.5 371,-93.5 250,-93.5"/>
<text text-anchor="middle" x="310.5" y="-100.5" font-family="Helvetica,sans-Serif" font-size="10.00">GamR::Spect::FitPeaks</text>
</a>
</g>
</g>
<!-- Node12&#45;&gt;Node13 -->
<g id="edge12" class="edge">
<title>Node12&#45;&gt;Node13</title>
<path fill="none" stroke="midnightblue" d="M420.97,-103C404.56,-103 387.12,-103 371.11,-103"/>
<polygon fill="midnightblue" stroke="midnightblue" points="421.03,-106.5 431.03,-103 421.03,-99.5 421.03,-106.5"/>
</g>
</g>
</svg>
