<?xml version="1.0" encoding="UTF-8" standalone="no"?>
<!DOCTYPE svg PUBLIC "-//W3C//DTD SVG 1.1//EN"
 "http://www.w3.org/Graphics/SVG/1.1/DTD/svg11.dtd">
<!-- Generated by graphviz version 2.49.3 (20211023.0002)
 -->
<!-- Title: GamR::Utils::for_both_in_tuple Pages: 1 -->
<svg width="588pt" height="161pt"
 viewBox="0.00 0.00 588.00 161.00" xmlns="http://www.w3.org/2000/svg" xmlns:xlink="http://www.w3.org/1999/xlink">
<g id="graph0" class="graph" transform="scale(1 1) rotate(0) translate(4 157)">
<title>GamR::Utils::for_both_in_tuple</title>
<polygon fill="white" stroke="transparent" points="-4,4 -4,-157 584,-157 584,4 -4,4"/>
<!-- Node1 -->
<g id="node1" class="node">
<title>Node1</title>
<g id="a_node1"><a xlink:title="Applies function taking both elements of tuple as arguments.">
<polygon fill="#bfbfbf" stroke="black" points="467,-49.5 467,-79.5 580,-79.5 580,-49.5 467,-49.5"/>
<text text-anchor="start" x="475" y="-67.5" font-family="Helvetica,sans-Serif" font-size="10.00">GamR::Utils::for_both</text>
<text text-anchor="middle" x="523.5" y="-56.5" font-family="Helvetica,sans-Serif" font-size="10.00">_in_tuple</text>
</a>
</g>
</g>
<!-- Node2 -->
<g id="node2" class="node">
<title>Node2</title>
<g id="a_node2"><a xlink:href="../../d4/d79/class_gam_r_1_1_tree_1_1_t_det_defn.html#ab07152fb360c8aed5fa35ef70a253ba1" target="_top" xlink:title=" ">
<polygon fill="white" stroke="black" points="312,-98.5 312,-128.5 431,-128.5 431,-98.5 312,-98.5"/>
<text text-anchor="start" x="320" y="-116.5" font-family="Helvetica,sans-Serif" font-size="10.00">GamR::Tree::TDetDefn</text>
<text text-anchor="middle" x="371.5" y="-105.5" font-family="Helvetica,sans-Serif" font-size="10.00">::Calibrate</text>
</a>
</g>
</g>
<!-- Node1&#45;&gt;Node2 -->
<g id="edge1" class="edge">
<title>Node1&#45;&gt;Node2</title>
<path fill="none" stroke="midnightblue" d="M466.6,-82.76C450.78,-87.93 433.75,-93.49 418.58,-98.45"/>
<polygon fill="midnightblue" stroke="midnightblue" points="467.85,-86.03 476.27,-79.6 465.68,-79.38 467.85,-86.03"/>
</g>
<!-- Node6 -->
<g id="node6" class="node">
<title>Node6</title>
<g id="a_node6"><a xlink:href="../../da/d95/class_gam_r_1_1_tree_1_1_t_event.html#ab2423d2c884f5f8d79c970fbee53caa8" target="_top" xlink:title=" ">
<polygon fill="white" stroke="black" points="317.5,-49.5 317.5,-79.5 425.5,-79.5 425.5,-49.5 317.5,-49.5"/>
<text text-anchor="start" x="325.5" y="-67.5" font-family="Helvetica,sans-Serif" font-size="10.00">GamR::Tree::TEvent</text>
<text text-anchor="middle" x="371.5" y="-56.5" font-family="Helvetica,sans-Serif" font-size="10.00">::FillEvent</text>
</a>
</g>
</g>
<!-- Node1&#45;&gt;Node6 -->
<g id="edge5" class="edge">
<title>Node1&#45;&gt;Node6</title>
<path fill="none" stroke="midnightblue" d="M456.52,-64.5C446.28,-64.5 435.82,-64.5 425.91,-64.5"/>
<polygon fill="midnightblue" stroke="midnightblue" points="456.65,-68 466.65,-64.5 456.65,-61 456.65,-68"/>
</g>
<!-- Node7 -->
<g id="node7" class="node">
<title>Node7</title>
<g id="a_node7"><a xlink:href="../../d4/d79/class_gam_r_1_1_tree_1_1_t_det_defn.html#a24e334f3a0ed59b61698aebc80f7419c" target="_top" xlink:title=" ">
<polygon fill="white" stroke="black" points="312,-0.5 312,-30.5 431,-30.5 431,-0.5 312,-0.5"/>
<text text-anchor="start" x="320" y="-18.5" font-family="Helvetica,sans-Serif" font-size="10.00">GamR::Tree::TDetDefn</text>
<text text-anchor="middle" x="371.5" y="-7.5" font-family="Helvetica,sans-Serif" font-size="10.00">::IsGood</text>
</a>
</g>
</g>
<!-- Node1&#45;&gt;Node7 -->
<g id="edge6" class="edge">
<title>Node1&#45;&gt;Node7</title>
<path fill="none" stroke="midnightblue" d="M466.6,-46.24C450.78,-41.07 433.75,-35.51 418.58,-30.55"/>
<polygon fill="midnightblue" stroke="midnightblue" points="465.68,-49.62 476.27,-49.4 467.85,-42.97 465.68,-49.62"/>
</g>
<!-- Node3 -->
<g id="node3" class="node">
<title>Node3</title>
<g id="a_node3"><a xlink:href="../../d4/d79/class_gam_r_1_1_tree_1_1_t_det_defn.html#a70d0e35cffd2b1eee9b2313a5ce5f35b" target="_top" xlink:title=" ">
<polygon fill="white" stroke="black" points="157,-122.5 157,-152.5 276,-152.5 276,-122.5 157,-122.5"/>
<text text-anchor="start" x="165" y="-140.5" font-family="Helvetica,sans-Serif" font-size="10.00">GamR::Tree::TDetDefn</text>
<text text-anchor="middle" x="216.5" y="-129.5" font-family="Helvetica,sans-Serif" font-size="10.00">::GetAllDatums</text>
</a>
</g>
</g>
<!-- Node2&#45;&gt;Node3 -->
<g id="edge2" class="edge">
<title>Node2&#45;&gt;Node3</title>
<path fill="none" stroke="midnightblue" d="M301.79,-124.28C293.2,-125.63 284.47,-126.99 276.06,-128.31"/>
<polygon fill="midnightblue" stroke="midnightblue" points="302.45,-127.72 311.78,-122.71 301.36,-120.8 302.45,-127.72"/>
</g>
<!-- Node5 -->
<g id="node5" class="node">
<title>Node5</title>
<g id="a_node5"><a xlink:href="../../d4/d79/class_gam_r_1_1_tree_1_1_t_det_defn.html#acafb707e753a944c720f24084fa3042d" target="_top" xlink:title=" ">
<polygon fill="white" stroke="black" points="157,-73.5 157,-103.5 276,-103.5 276,-73.5 157,-73.5"/>
<text text-anchor="start" x="165" y="-91.5" font-family="Helvetica,sans-Serif" font-size="10.00">GamR::Tree::TDetDefn</text>
<text text-anchor="middle" x="216.5" y="-80.5" font-family="Helvetica,sans-Serif" font-size="10.00">::GetDatum</text>
</a>
</g>
</g>
<!-- Node2&#45;&gt;Node5 -->
<g id="edge4" class="edge">
<title>Node2&#45;&gt;Node5</title>
<path fill="none" stroke="midnightblue" d="M301.79,-102.27C293.2,-100.87 284.47,-99.44 276.06,-98.07"/>
<polygon fill="midnightblue" stroke="midnightblue" points="301.35,-105.75 311.78,-103.91 302.48,-98.84 301.35,-105.75"/>
</g>
<!-- Node4 -->
<g id="node4" class="node">
<title>Node4</title>
<g id="a_node4"><a xlink:href="../../dd/d16/class_gam_r_1_1_tree_1_1_t_detector.html#a6225e05e399f2b30913ae6074d9db7cf" target="_top" xlink:title=" ">
<polygon fill="white" stroke="black" points="0,-122.5 0,-152.5 121,-152.5 121,-122.5 0,-122.5"/>
<text text-anchor="start" x="8" y="-140.5" font-family="Helvetica,sans-Serif" font-size="10.00">GamR::Tree::TDetector</text>
<text text-anchor="middle" x="60.5" y="-129.5" font-family="Helvetica,sans-Serif" font-size="10.00">::TDetector</text>
</a>
</g>
</g>
<!-- Node3&#45;&gt;Node4 -->
<g id="edge3" class="edge">
<title>Node3&#45;&gt;Node4</title>
<path fill="none" stroke="midnightblue" d="M146.83,-137.5C138.22,-137.5 129.47,-137.5 121.02,-137.5"/>
<polygon fill="midnightblue" stroke="midnightblue" points="146.84,-141 156.84,-137.5 146.84,-134 146.84,-141"/>
</g>
</g>
</svg>
