<?xml version="1.0" encoding="UTF-8" standalone="no"?>
<!DOCTYPE svg PUBLIC "-//W3C//DTD SVG 1.1//EN"
 "http://www.w3.org/Graphics/SVG/1.1/DTD/svg11.dtd">
<!-- Generated by graphviz version 12.2.1 (20241206.2353)
 -->
<!-- Title: src/lib/angdist/GaussianDistr.hh Pages: 1 -->
<!--zoomable 204 -->

<svg id="main" version="1.1" xmlns="http://www.w3.org/2000/svg" xmlns:xlink="http://www.w3.org/1999/xlink" xml:space="preserve" onload="init(evt)">

<style type="text/css"><![CDATA[
.node, .edge {opacity: 0.7;}
.node.selected, .edge.selected {opacity: 1;}
.edge:hover path { stroke: red; }
.edge:hover polygon { stroke: red; fill: red; }
]]></style>

<defs>
  <circle id="rim" cx="0" cy="0" r="7"/>
  <circle id="rim2" cx="0" cy="0" r="3.5"/>
  <g id="zoomPlus">
    <use xlink:href="#rim" fill="#404040"><set attributeName="fill" to="#808080" begin="zoomplus.mouseover" end="zoomplus.mouseout"/></use>
    <path d="M-4,0h8M0,-4v8" fill="none" stroke="white" stroke-width="1.5" pointer-events="none"/>
  </g>
  <g id="zoomMin">
    <use xlink:href="#rim" fill="#404040"><set attributeName="fill" to="#808080" begin="zoomminus.mouseover" end="zoomminus.mouseout"/></use>
    <path d="M-4,0h8" fill="none" stroke="white" stroke-width="1.5" pointer-events="none"/>
  </g>
  <g id="arrowUp" transform="translate(30 24)">
    <use xlink:href="#rim"/>
    <path pointer-events="none" fill="none" stroke="white" stroke-width="1.5" d="M0,-3.0v7 M-2.5,-0.5L0,-3.0L2.5,-0.5"/>
  </g>
  <g id="arrowRight" transform="rotate(90) translate(36 -43)">
    <use xlink:href="#rim"/>
    <path pointer-events="none" fill="none" stroke="white" stroke-width="1.5" d="M0,-3.0v7 M-2.5,-0.5L0,-3.0L2.5,-0.5"/>
  </g>
  <g id="arrowDown" transform="rotate(180) translate(-30 -48)">
    <use xlink:href="#rim"/>
    <path pointer-events="none" fill="none" stroke="white" stroke-width="1.5" d="M0,-3.0v7 M-2.5,-0.5L0,-3.0L2.5,-0.5"/>
  </g>
  <g id="arrowLeft" transform="rotate(270) translate(-36 17)">
    <use xlink:href="#rim"/>
    <path pointer-events="none" fill="none" stroke="white" stroke-width="1.5" d="M0,-3.0v7 M-2.5,-0.5L0,-3.0L2.5,-0.5"/>
  </g>
  <g id="resetDef">
    <use xlink:href="#rim2" fill="#404040"><set attributeName="fill" to="#808080" begin="reset.mouseover" end="reset.mouseout"/></use>
  </g>
</defs>
<script type="application/ecmascript">
var viewWidth = 962;
var viewHeight = 204;
var sectionId = 'dynsection-0';
</script>
<script type="application/ecmascript" xlink:href="../../svg.min.js"/>
<svg id="graph" class="graph">
<g id="viewport">
<title>src/lib/angdist/GaussianDistr.hh</title>
<!-- Node1 -->
<g id="Node000001" class="node">
<title>Node1</title>
<g id="a_Node000001"><a xlink:title=" ">
<polygon fill="#999999" stroke="#666666" points="454,-196.25 333,-196.25 333,-165.75 454,-165.75 454,-196.25"/>
<text text-anchor="start" x="341" y="-182.75" font-family="Helvetica,sans-Serif" font-size="10.00">src/lib/angdist/Gaussian</text>
<text text-anchor="middle" x="393.5" y="-171.5" font-family="Helvetica,sans-Serif" font-size="10.00">Distr.hh</text>
</a>
</g>
</g>
<!-- Node2 -->
<g id="Node000002" class="node">
<title>Node2</title>
<g id="a_Node000002"><a xlink:title=" ">
<polygon fill="#e0e0e0" stroke="#999999" points="451.5,-19.25 411.5,-19.25 411.5,0 451.5,0 451.5,-19.25"/>
<text text-anchor="middle" x="431.5" y="-5.75" font-family="Helvetica,sans-Serif" font-size="10.00">string</text>
</a>
</g>
</g>
<!-- Node1&#45;&gt;Node2 -->
<g id="edge1_Node000001_Node000002" class="edge">
<title>Node1&#45;&gt;Node2</title>
<g id="a_edge1_Node000001_Node000002"><a xlink:title=" ">
<path fill="none" stroke="#63b8ff" d="M396.81,-165.27C403.62,-134.87 419.26,-65.19 426.99,-30.71"/>
<polygon fill="#63b8ff" stroke="#63b8ff" points="430.35,-31.74 429.12,-21.21 423.52,-30.2 430.35,-31.74"/>
</a>
</g>
</g>
<!-- Node3 -->
<g id="Node000003" class="node">
<title>Node3</title>
<g id="a_Node000003"><a xlink:title=" ">
<polygon fill="#e0e0e0" stroke="#999999" points="307,-129.75 264,-129.75 264,-110.5 307,-110.5 307,-129.75"/>
<text text-anchor="middle" x="285.5" y="-116.25" font-family="Helvetica,sans-Serif" font-size="10.00">vector</text>
</a>
</g>
</g>
<!-- Node1&#45;&gt;Node3 -->
<g id="edge2_Node000001_Node000003" class="edge">
<title>Node1&#45;&gt;Node3</title>
<g id="a_edge2_Node000001_Node000003"><a xlink:title=" ">
<path fill="none" stroke="#63b8ff" d="M366.53,-165.3C349.92,-156.24 328.72,-144.69 312.17,-135.66"/>
<polygon fill="#63b8ff" stroke="#63b8ff" points="313.85,-132.59 303.39,-130.88 310.5,-138.74 313.85,-132.59"/>
</a>
</g>
</g>
<!-- Node4 -->
<g id="Node000004" class="node">
<title>Node4</title>
<g id="a_Node000004"><a xlink:title=" ">
<polygon fill="#e0e0e0" stroke="#999999" points="365.88,-129.75 325.12,-129.75 325.12,-110.5 365.88,-110.5 365.88,-129.75"/>
<text text-anchor="middle" x="345.5" y="-116.25" font-family="Helvetica,sans-Serif" font-size="10.00">TF1.h</text>
</a>
</g>
</g>
<!-- Node1&#45;&gt;Node4 -->
<g id="edge3_Node000001_Node000004" class="edge">
<title>Node1&#45;&gt;Node4</title>
<g id="a_edge3_Node000001_Node000004"><a xlink:title=" ">
<path fill="none" stroke="#63b8ff" d="M381.63,-165.45C375.1,-157.43 366.93,-147.42 360.02,-138.94"/>
<polygon fill="#63b8ff" stroke="#63b8ff" points="362.89,-136.91 353.86,-131.37 357.46,-141.34 362.89,-136.91"/>
</a>
</g>
</g>
<!-- Node5 -->
<g id="Node000005" class="node">
<title>Node5</title>
<g id="a_Node000005"><a xlink:title=" ">
<polygon fill="#e0e0e0" stroke="#999999" points="179.62,-19.25 137.38,-19.25 137.38,0 179.62,0 179.62,-19.25"/>
<text text-anchor="middle" x="158.5" y="-5.75" font-family="Helvetica,sans-Serif" font-size="10.00">TH1.h</text>
</a>
</g>
</g>
<!-- Node1&#45;&gt;Node5 -->
<g id="edge4_Node000001_Node000005" class="edge">
<title>Node1&#45;&gt;Node5</title>
<g id="a_edge4_Node000001_Node000005"><a xlink:title=" ">
<path fill="none" stroke="#63b8ff" d="M332.69,-165.58C307.31,-157.68 278.46,-146.08 255.5,-129.75 216.71,-102.15 184.85,-55.13 169.12,-29.18"/>
<polygon fill="#63b8ff" stroke="#63b8ff" points="172.26,-27.61 164.16,-20.77 166.23,-31.16 172.26,-27.61"/>
</a>
</g>
</g>
<!-- Node6 -->
<g id="Node000006" class="node">
<title>Node6</title>
<g id="a_Node000006"><a xlink:href="../../d7/db9/_utilities_8hh.html" target="_top" xlink:title=" ">
<polygon fill="white" stroke="#666666" points="317.88,-74.5 235.12,-74.5 235.12,-55.25 317.88,-55.25 317.88,-74.5"/>
<text text-anchor="middle" x="276.5" y="-61" font-family="Helvetica,sans-Serif" font-size="10.00">utils/Utilities.hh</text>
</a>
</g>
</g>
<!-- Node1&#45;&gt;Node6 -->
<g id="edge5_Node000001_Node000006" class="edge">
<title>Node1&#45;&gt;Node6</title>
<g id="a_edge5_Node000001_Node000006"><a xlink:title=" ">
<path fill="none" stroke="#63b8ff" d="M393.03,-165.29C391.8,-149.96 387.72,-126.03 374.5,-110.5 361.96,-95.76 343.53,-85.65 326.04,-78.83"/>
<polygon fill="#63b8ff" stroke="#63b8ff" points="327.34,-75.58 316.75,-75.5 324.98,-82.17 327.34,-75.58"/>
</a>
</g>
</g>
<!-- Node12 -->
<g id="Node000012" class="node">
<title>Node12</title>
<g id="a_Node000012"><a xlink:href="../../dd/d50/_gate_8hh.html" target="_top" xlink:title=" ">
<polygon fill="white" stroke="#666666" points="609,-74.5 530,-74.5 530,-55.25 609,-55.25 609,-74.5"/>
<text text-anchor="middle" x="569.5" y="-61" font-family="Helvetica,sans-Serif" font-size="10.00">toolkit/Gate.hh</text>
</a>
</g>
</g>
<!-- Node1&#45;&gt;Node12 -->
<g id="edge13_Node000001_Node000012" class="edge">
<title>Node1&#45;&gt;Node12</title>
<g id="a_edge13_Node000001_Node000012"><a xlink:title=" ">
<path fill="none" stroke="#63b8ff" d="M416.15,-165.31C449.64,-143.6 512.05,-103.13 546.01,-81.11"/>
<polygon fill="#63b8ff" stroke="#63b8ff" points="547.82,-84.11 554.3,-75.73 544.01,-78.23 547.82,-84.11"/>
</a>
</g>
</g>
<!-- Node20 -->
<g id="Node000020" class="node">
<title>Node20</title>
<g id="a_Node000020"><a xlink:href="../../d3/d2c/_transition_8hh.html" target="_top" xlink:title=" ">
<polygon fill="white" stroke="#666666" points="777.62,-129.75 669.38,-129.75 669.38,-110.5 777.62,-110.5 777.62,-129.75"/>
<text text-anchor="middle" x="723.5" y="-116.25" font-family="Helvetica,sans-Serif" font-size="10.00">nucleus/Transition.hh</text>
</a>
</g>
</g>
<!-- Node1&#45;&gt;Node20 -->
<g id="edge25_Node000001_Node000020" class="edge">
<title>Node1&#45;&gt;Node20</title>
<g id="a_edge25_Node000001_Node000020"><a xlink:title=" ">
<path fill="none" stroke="#63b8ff" d="M454.41,-169.13C513.28,-158.63 602.04,-142.79 661.33,-132.22"/>
<polygon fill="#63b8ff" stroke="#63b8ff" points="661.7,-135.71 670.92,-130.5 660.47,-128.82 661.7,-135.71"/>
</a>
</g>
</g>
<!-- Node6&#45;&gt;Node2 -->
<g id="edge6_Node000006_Node000002" class="edge">
<title>Node6&#45;&gt;Node2</title>
<g id="a_edge6_Node000006_Node000002"><a xlink:title=" ">
<path fill="none" stroke="#63b8ff" d="M302.79,-54.84C329.79,-45.57 371.78,-31.14 400.4,-21.31"/>
<polygon fill="#63b8ff" stroke="#63b8ff" points="401.28,-24.71 409.6,-18.15 399,-18.09 401.28,-24.71"/>
</a>
</g>
</g>
<!-- Node6&#45;&gt;Node5 -->
<g id="edge10_Node000006_Node000005" class="edge">
<title>Node6&#45;&gt;Node5</title>
<g id="a_edge10_Node000006_Node000005"><a xlink:title=" ">
<path fill="none" stroke="#63b8ff" d="M256.48,-54.84C238.01,-46.5 210.29,-34 189.05,-24.41"/>
<polygon fill="#63b8ff" stroke="#63b8ff" points="190.55,-21.25 179.99,-20.33 187.67,-27.63 190.55,-21.25"/>
</a>
</g>
</g>
<!-- Node7 -->
<g id="Node000007" class="node">
<title>Node7</title>
<g id="a_Node000007"><a xlink:title=" ">
<polygon fill="#e0e0e0" stroke="#999999" points="49,-19.25 0,-19.25 0,0 49,0 49,-19.25"/>
<text text-anchor="middle" x="24.5" y="-5.75" font-family="Helvetica,sans-Serif" font-size="10.00">fstream</text>
</a>
</g>
</g>
<!-- Node6&#45;&gt;Node7 -->
<g id="edge7_Node000006_Node000007" class="edge">
<title>Node6&#45;&gt;Node7</title>
<g id="a_edge7_Node000006_Node000007"><a xlink:title=" ">
<path fill="none" stroke="#63b8ff" d="M234.99,-55.97C193.36,-47.92 127.14,-34.75 60.48,-19.62"/>
<polygon fill="#63b8ff" stroke="#63b8ff" points="61.35,-16.22 50.83,-17.41 59.79,-23.05 61.35,-16.22"/>
</a>
</g>
</g>
<!-- Node8 -->
<g id="Node000008" class="node">
<title>Node8</title>
<g id="a_Node000008"><a xlink:title=" ">
<polygon fill="#e0e0e0" stroke="#999999" points="119.5,-19.25 67.5,-19.25 67.5,0 119.5,0 119.5,-19.25"/>
<text text-anchor="middle" x="93.5" y="-5.75" font-family="Helvetica,sans-Serif" font-size="10.00">complex</text>
</a>
</g>
</g>
<!-- Node6&#45;&gt;Node8 -->
<g id="edge8_Node000006_Node000008" class="edge">
<title>Node6&#45;&gt;Node8</title>
<g id="a_edge8_Node000006_Node000008"><a xlink:title=" ">
<path fill="none" stroke="#63b8ff" d="M245.46,-54.84C213.76,-45.62 164.53,-31.29 130.75,-21.46"/>
<polygon fill="#63b8ff" stroke="#63b8ff" points="131.97,-18.17 121.39,-18.74 130.01,-24.89 131.97,-18.17"/>
</a>
</g>
</g>
<!-- Node9 -->
<g id="Node000009" class="node">
<title>Node9</title>
<g id="a_Node000009"><a xlink:title=" ">
<polygon fill="#e0e0e0" stroke="#999999" points="393.75,-19.25 331.25,-19.25 331.25,0 393.75,0 393.75,-19.25"/>
<text text-anchor="middle" x="362.5" y="-5.75" font-family="Helvetica,sans-Serif" font-size="10.00">TCanvas.h</text>
</a>
</g>
</g>
<!-- Node6&#45;&gt;Node9 -->
<g id="edge9_Node000006_Node000009" class="edge">
<title>Node6&#45;&gt;Node9</title>
<g id="a_edge9_Node000006_Node000009"><a xlink:title=" ">
<path fill="none" stroke="#63b8ff" d="M291.09,-54.84C303.94,-46.89 322.91,-35.14 338.07,-25.75"/>
<polygon fill="#63b8ff" stroke="#63b8ff" points="339.89,-28.74 346.55,-20.5 336.21,-22.79 339.89,-28.74"/>
</a>
</g>
</g>
<!-- Node10 -->
<g id="Node000010" class="node">
<title>Node10</title>
<g id="a_Node000010"><a xlink:title=" ">
<polygon fill="#e0e0e0" stroke="#999999" points="313.62,-19.25 271.38,-19.25 271.38,0 313.62,0 313.62,-19.25"/>
<text text-anchor="middle" x="292.5" y="-5.75" font-family="Helvetica,sans-Serif" font-size="10.00">TH2.h</text>
</a>
</g>
</g>
<!-- Node6&#45;&gt;Node10 -->
<g id="edge11_Node000006_Node000010" class="edge">
<title>Node6&#45;&gt;Node10</title>
<g id="a_edge11_Node000006_Node000010"><a xlink:title=" ">
<path fill="none" stroke="#63b8ff" d="M279.14,-55.08C281.14,-48.42 283.98,-38.99 286.52,-30.53"/>
<polygon fill="#63b8ff" stroke="#63b8ff" points="289.84,-31.64 289.36,-21.06 283.14,-29.63 289.84,-31.64"/>
</a>
</g>
</g>
<!-- Node11 -->
<g id="Node000011" class="node">
<title>Node11</title>
<g id="a_Node000011"><a xlink:title=" ">
<polygon fill="#e0e0e0" stroke="#999999" points="253.38,-19.25 197.62,-19.25 197.62,0 253.38,0 253.38,-19.25"/>
<text text-anchor="middle" x="225.5" y="-5.75" font-family="Helvetica,sans-Serif" font-size="10.00">TGraph.h</text>
</a>
</g>
</g>
<!-- Node6&#45;&gt;Node11 -->
<g id="edge12_Node000006_Node000011" class="edge">
<title>Node6&#45;&gt;Node11</title>
<g id="a_edge12_Node000006_Node000011"><a xlink:title=" ">
<path fill="none" stroke="#63b8ff" d="M268.08,-55.08C260.96,-47.65 250.56,-36.79 241.81,-27.66"/>
<polygon fill="#63b8ff" stroke="#63b8ff" points="244.6,-25.5 235.15,-20.7 239.54,-30.35 244.6,-25.5"/>
</a>
</g>
</g>
<!-- Node12&#45;&gt;Node2 -->
<g id="edge17_Node000012_Node000002" class="edge">
<title>Node12&#45;&gt;Node2</title>
<g id="a_edge17_Node000012_Node000002"><a xlink:title=" ">
<path fill="none" stroke="#63b8ff" d="M546.09,-54.84C523.05,-45.95 487.73,-32.32 462.39,-22.54"/>
<polygon fill="#63b8ff" stroke="#63b8ff" points="463.87,-19.37 453.28,-19.03 461.35,-25.9 463.87,-19.37"/>
</a>
</g>
</g>
<!-- Node12&#45;&gt;Node5 -->
<g id="edge22_Node000012_Node000005" class="edge">
<title>Node12&#45;&gt;Node5</title>
<g id="a_edge22_Node000012_Node000005"><a xlink:title=" ">
<path fill="none" stroke="#63b8ff" d="M529.67,-61.36C461.95,-56.62 319.92,-44.68 191.24,-19.5"/>
<polygon fill="#63b8ff" stroke="#63b8ff" points="192,-16.09 181.51,-17.57 190.63,-22.95 192,-16.09"/>
</a>
</g>
</g>
<!-- Node12&#45;&gt;Node9 -->
<g id="edge21_Node000012_Node000009" class="edge">
<title>Node12&#45;&gt;Node9</title>
<g id="a_edge21_Node000012_Node000009"><a xlink:title=" ">
<path fill="none" stroke="#63b8ff" d="M534.39,-54.84C498.59,-45.63 443.03,-31.34 404.82,-21.51"/>
<polygon fill="#63b8ff" stroke="#63b8ff" points="406.07,-18.22 395.52,-19.12 404.33,-25 406.07,-18.22"/>
</a>
</g>
</g>
<!-- Node12&#45;&gt;Node10 -->
<g id="edge23_Node000012_Node000010" class="edge">
<title>Node12&#45;&gt;Node10</title>
<g id="a_edge23_Node000012_Node000010"><a xlink:title=" ">
<path fill="none" stroke="#63b8ff" d="M529.89,-57.99C483.1,-50.75 402.7,-37.45 325,-19.65"/>
<polygon fill="#63b8ff" stroke="#63b8ff" points="326.07,-16.3 315.54,-17.45 324.48,-23.12 326.07,-16.3"/>
</a>
</g>
</g>
<!-- Node13 -->
<g id="Node000013" class="node">
<title>Node13</title>
<g id="a_Node000013"><a xlink:title=" ">
<polygon fill="#e0e0e0" stroke="#999999" points="525.38,-19.25 469.62,-19.25 469.62,0 525.38,0 525.38,-19.25"/>
<text text-anchor="middle" x="497.5" y="-5.75" font-family="Helvetica,sans-Serif" font-size="10.00">algorithm</text>
</a>
</g>
</g>
<!-- Node12&#45;&gt;Node13 -->
<g id="edge14_Node000012_Node000013" class="edge">
<title>Node12&#45;&gt;Node13</title>
<g id="a_edge14_Node000012_Node000013"><a xlink:title=" ">
<path fill="none" stroke="#63b8ff" d="M557.29,-54.84C546.67,-46.99 531.06,-35.45 518.46,-26.12"/>
<polygon fill="#63b8ff" stroke="#63b8ff" points="520.87,-23.56 510.75,-20.42 516.71,-29.19 520.87,-23.56"/>
</a>
</g>
</g>
<!-- Node14 -->
<g id="Node000014" class="node">
<title>Node14</title>
<g id="a_Node000014"><a xlink:title=" ">
<polygon fill="#e0e0e0" stroke="#999999" points="953.88,-19.25 919.12,-19.25 919.12,0 953.88,0 953.88,-19.25"/>
<text text-anchor="middle" x="936.5" y="-5.75" font-family="Helvetica,sans-Serif" font-size="10.00">map</text>
</a>
</g>
</g>
<!-- Node12&#45;&gt;Node14 -->
<g id="edge15_Node000012_Node000014" class="edge">
<title>Node12&#45;&gt;Node14</title>
<g id="a_edge15_Node000012_Node000014"><a xlink:title=" ">
<path fill="none" stroke="#63b8ff" d="M609.31,-61.13C671.34,-56.33 794.83,-44.64 907.51,-19.57"/>
<polygon fill="#63b8ff" stroke="#63b8ff" points="908.27,-22.98 917.25,-17.35 906.72,-16.16 908.27,-22.98"/>
</a>
</g>
</g>
<!-- Node15 -->
<g id="Node000015" class="node">
<title>Node15</title>
<g id="a_Node000015"><a xlink:title=" ">
<polygon fill="#e0e0e0" stroke="#999999" points="595.12,-19.25 543.88,-19.25 543.88,0 595.12,0 595.12,-19.25"/>
<text text-anchor="middle" x="569.5" y="-5.75" font-family="Helvetica,sans-Serif" font-size="10.00">sstream</text>
</a>
</g>
</g>
<!-- Node12&#45;&gt;Node15 -->
<g id="edge16_Node000012_Node000015" class="edge">
<title>Node12&#45;&gt;Node15</title>
<g id="a_edge16_Node000012_Node000015"><a xlink:title=" ">
<path fill="none" stroke="#63b8ff" d="M569.5,-55.08C569.5,-48.57 569.5,-39.42 569.5,-31.12"/>
<polygon fill="#63b8ff" stroke="#63b8ff" points="573,-31.12 569.5,-21.12 566,-31.12 573,-31.12"/>
</a>
</g>
</g>
<!-- Node16 -->
<g id="Node000016" class="node">
<title>Node16</title>
<g id="a_Node000016"><a xlink:title=" ">
<polygon fill="#e0e0e0" stroke="#999999" points="750.25,-19.25 696.75,-19.25 696.75,0 750.25,0 750.25,-19.25"/>
<text text-anchor="middle" x="723.5" y="-5.75" font-family="Helvetica,sans-Serif" font-size="10.00">iostream</text>
</a>
</g>
</g>
<!-- Node12&#45;&gt;Node16 -->
<g id="edge18_Node000012_Node000016" class="edge">
<title>Node12&#45;&gt;Node16</title>
<g id="a_edge18_Node000012_Node000016"><a xlink:title=" ">
<path fill="none" stroke="#63b8ff" d="M595.62,-54.84C620.62,-46.2 658.58,-33.07 686.65,-23.37"/>
<polygon fill="#63b8ff" stroke="#63b8ff" points="687.51,-26.77 695.82,-20.2 685.22,-20.16 687.51,-26.77"/>
</a>
</g>
</g>
<!-- Node17 -->
<g id="Node000017" class="node">
<title>Node17</title>
<g id="a_Node000017"><a xlink:title=" ">
<polygon fill="#e0e0e0" stroke="#999999" points="822.25,-19.25 768.75,-19.25 768.75,0 822.25,0 822.25,-19.25"/>
<text text-anchor="middle" x="795.5" y="-5.75" font-family="Helvetica,sans-Serif" font-size="10.00">Rtypes.h</text>
</a>
</g>
</g>
<!-- Node12&#45;&gt;Node17 -->
<g id="edge19_Node000012_Node000017" class="edge">
<title>Node12&#45;&gt;Node17</title>
<g id="a_edge19_Node000012_Node000017"><a xlink:title=" ">
<path fill="none" stroke="#63b8ff" d="M608.45,-54.78C644.54,-46.34 700.01,-33.34 757.29,-19.77"/>
<polygon fill="#63b8ff" stroke="#63b8ff" points="757.98,-23.2 766.9,-17.49 756.37,-16.39 757.98,-23.2"/>
</a>
</g>
</g>
<!-- Node18 -->
<g id="Node000018" class="node">
<title>Node18</title>
<g id="a_Node000018"><a xlink:title=" ">
<polygon fill="#e0e0e0" stroke="#999999" points="678.25,-19.25 612.75,-19.25 612.75,0 678.25,0 678.25,-19.25"/>
<text text-anchor="middle" x="645.5" y="-5.75" font-family="Helvetica,sans-Serif" font-size="10.00">TBrowser.h</text>
</a>
</g>
</g>
<!-- Node12&#45;&gt;Node18 -->
<g id="edge20_Node000012_Node000018" class="edge">
<title>Node12&#45;&gt;Node18</title>
<g id="a_edge20_Node000012_Node000018"><a xlink:title=" ">
<path fill="none" stroke="#63b8ff" d="M582.39,-54.84C593.53,-47.04 609.87,-35.59 623.14,-26.29"/>
<polygon fill="#63b8ff" stroke="#63b8ff" points="625.12,-29.18 631.3,-20.57 621.11,-23.44 625.12,-29.18"/>
</a>
</g>
</g>
<!-- Node19 -->
<g id="Node000019" class="node">
<title>Node19</title>
<g id="a_Node000019"><a xlink:title=" ">
<polygon fill="#e0e0e0" stroke="#999999" points="901,-19.25 840,-19.25 840,0 901,0 901,-19.25"/>
<text text-anchor="middle" x="870.5" y="-5.75" font-family="Helvetica,sans-Serif" font-size="10.00">TNamed.h</text>
</a>
</g>
</g>
<!-- Node12&#45;&gt;Node19 -->
<g id="edge24_Node000012_Node000019" class="edge">
<title>Node12&#45;&gt;Node19</title>
<g id="a_edge24_Node000012_Node000019"><a xlink:title=" ">
<path fill="none" stroke="#63b8ff" d="M609.11,-57.75C658.31,-50 745.07,-35.9 828.64,-19.74"/>
<polygon fill="#63b8ff" stroke="#63b8ff" points="829.24,-23.18 838.39,-17.84 827.9,-16.31 829.24,-23.18"/>
</a>
</g>
</g>
<!-- Node20&#45;&gt;Node2 -->
<g id="edge28_Node000020_Node000002" class="edge">
<title>Node20&#45;&gt;Node2</title>
<g id="a_edge28_Node000020_Node000002"><a xlink:title=" ">
<path fill="none" stroke="#63b8ff" d="M668.92,-113.07C627.19,-107.04 568.94,-95.53 521.5,-74.5 494.31,-62.44 467,-41.52 449.71,-26.92"/>
<polygon fill="#63b8ff" stroke="#63b8ff" points="452.2,-24.44 442.35,-20.54 447.62,-29.73 452.2,-24.44"/>
</a>
</g>
</g>
<!-- Node20&#45;&gt;Node12 -->
<g id="edge31_Node000020_Node000012" class="edge">
<title>Node20&#45;&gt;Node12</title>
<g id="a_edge31_Node000020_Node000012"><a xlink:title=" ">
<path fill="none" stroke="#63b8ff" d="M697.38,-110.09C672.38,-101.45 634.42,-88.32 606.35,-78.62"/>
<polygon fill="#63b8ff" stroke="#63b8ff" points="607.78,-75.41 597.18,-75.45 605.49,-82.02 607.78,-75.41"/>
</a>
</g>
</g>
<!-- Node20&#45;&gt;Node14 -->
<g id="edge26_Node000020_Node000014" class="edge">
<title>Node20&#45;&gt;Node14</title>
<g id="a_edge26_Node000020_Node000014"><a xlink:title=" ">
<path fill="none" stroke="#63b8ff" d="M741.37,-110.08C759.16,-101.08 787.23,-86.86 811.5,-74.5 844.95,-57.47 883.39,-37.82 908.71,-24.86"/>
<polygon fill="#63b8ff" stroke="#63b8ff" points="910.05,-28.1 917.36,-20.43 906.86,-21.87 910.05,-28.1"/>
</a>
</g>
</g>
<!-- Node20&#45;&gt;Node16 -->
<g id="edge27_Node000020_Node000016" class="edge">
<title>Node20&#45;&gt;Node16</title>
<g id="a_edge27_Node000020_Node000016"><a xlink:title=" ">
<path fill="none" stroke="#63b8ff" d="M723.5,-110.25C723.5,-93 723.5,-54.58 723.5,-30.81"/>
<polygon fill="#63b8ff" stroke="#63b8ff" points="727,-31.14 723.5,-21.14 720,-31.14 727,-31.14"/>
</a>
</g>
</g>
<!-- Node20&#45;&gt;Node17 -->
<g id="edge29_Node000020_Node000017" class="edge">
<title>Node20&#45;&gt;Node17</title>
<g id="a_edge29_Node000020_Node000017"><a xlink:title=" ">
<path fill="none" stroke="#63b8ff" d="M729.39,-110.25C741.1,-92.6 767.51,-52.8 783.18,-29.2"/>
<polygon fill="#63b8ff" stroke="#63b8ff" points="786.08,-31.16 788.69,-20.89 780.24,-27.28 786.08,-31.16"/>
</a>
</g>
</g>
<!-- Node20&#45;&gt;Node19 -->
<g id="edge30_Node000020_Node000019" class="edge">
<title>Node20&#45;&gt;Node19</title>
<g id="a_edge30_Node000020_Node000019"><a xlink:title=" ">
<path fill="none" stroke="#63b8ff" d="M735.78,-110.06C760.81,-91.59 818,-49.38 849.21,-26.34"/>
<polygon fill="#63b8ff" stroke="#63b8ff" points="851.17,-29.24 857.14,-20.49 847.02,-23.61 851.17,-29.24"/>
</a>
</g>
</g>
</g>
</svg>

<g id="navigator" transform="translate(0 0)" fill="#404254">
  <rect fill="#f2f5e9" fill-opacity="0.5" stroke="#606060" stroke-width=".5" x="0" y="0" width="60" height="60"/>
  <use id="zoomplus" xlink:href="#zoomPlus" x="17" y="9" onmousedown="handleZoom(evt,'in')"/>
  <use id="zoomminus" xlink:href="#zoomMin" x="42" y="9" onmousedown="handleZoom(evt,'out')"/>
  <use id="reset" xlink:href="#resetDef" x="30" y="36" onmousedown="handleReset()"/>
   <use id="arrowup" xlink:href="#arrowUp" x="0" y="0" onmousedown="handlePan(0,-1)"/>
  <use id="arrowright" xlink:href="#arrowRight" x="0" y="0" onmousedown="handlePan(1,0)"/>
  <use id="arrowdown" xlink:href="#arrowDown" x="0" y="0" onmousedown="handlePan(0,1)"/>
  <use id="arrowleft" xlink:href="#arrowLeft" x="0" y="0" onmousedown="handlePan(-1,0)"/>
</g>
<svg viewBox="0 0 15 15" width="100%" height="30px" preserveAspectRatio="xMaxYMin meet">
 <g id="arrow_out" transform="scale(0.3 0.3)">
  <a xlink:href="_gaussian_distr_8hh__incl_org.svg" target="_base">
   <rect id="button" ry="5" rx="5" y="6" x="6" height="38" width="38"
        fill="#f2f5e9" fill-opacity="0.5" stroke="#606060" stroke-width="1.0"/>
   <path id="arrow"
     d="M 11.500037,31.436501 C 11.940474,20.09759 22.043105,11.32322 32.158766,21.979434 L 37.068811,17.246167 C 37.068811,17.246167 37.088388,32 37.088388,32 L 22.160133,31.978069 C 22.160133,31.978069 26.997745,27.140456 26.997745,27.140456 C 18.528582,18.264221 13.291696,25.230495 11.500037,31.436501 z"
     style="fill:#404040;"/>
  </a>
 </g>
</svg>

<style type='text/css'>
<![CDATA[
[data-mouse-over-selected='false'] { opacity: 0.7; }
[data-mouse-over-selected='true']  { opacity: 1.0; }
]]>
</style>
<script type="application/ecmascript"><![CDATA[
document.addEventListener('DOMContentLoaded', (event) => {
  highlightEdges();
  highlightAdjacentNodes();
});
]]></script>
</svg>
