<?xml version="1.0" encoding="UTF-8" standalone="no"?>
<!DOCTYPE svg PUBLIC "-//W3C//DTD SVG 1.1//EN"
 "http://www.w3.org/Graphics/SVG/1.1/DTD/svg11.dtd">
<!-- Generated by graphviz version 12.2.1 (20241206.2353)
 -->
<!-- Title: GamR::Nucleus::LevelSchemeDraw::Transition::PaintArrow Pages: 1 -->
<!--zoomable 277 -->

<svg id="main" version="1.1" xmlns="http://www.w3.org/2000/svg" xmlns:xlink="http://www.w3.org/1999/xlink" xml:space="preserve" onload="init(evt)">

<style type="text/css"><![CDATA[
.node, .edge {opacity: 0.7;}
.node.selected, .edge.selected {opacity: 1;}
.edge:hover path { stroke: red; }
.edge:hover polygon { stroke: red; fill: red; }
]]></style>

<defs>
  <circle id="rim" cx="0" cy="0" r="7"/>
  <circle id="rim2" cx="0" cy="0" r="3.5"/>
  <g id="zoomPlus">
    <use xlink:href="#rim" fill="#404040"><set attributeName="fill" to="#808080" begin="zoomplus.mouseover" end="zoomplus.mouseout"/></use>
    <path d="M-4,0h8M0,-4v8" fill="none" stroke="white" stroke-width="1.5" pointer-events="none"/>
  </g>
  <g id="zoomMin">
    <use xlink:href="#rim" fill="#404040"><set attributeName="fill" to="#808080" begin="zoomminus.mouseover" end="zoomminus.mouseout"/></use>
    <path d="M-4,0h8" fill="none" stroke="white" stroke-width="1.5" pointer-events="none"/>
  </g>
  <g id="arrowUp" transform="translate(30 24)">
    <use xlink:href="#rim"/>
    <path pointer-events="none" fill="none" stroke="white" stroke-width="1.5" d="M0,-3.0v7 M-2.5,-0.5L0,-3.0L2.5,-0.5"/>
  </g>
  <g id="arrowRight" transform="rotate(90) translate(36 -43)">
    <use xlink:href="#rim"/>
    <path pointer-events="none" fill="none" stroke="white" stroke-width="1.5" d="M0,-3.0v7 M-2.5,-0.5L0,-3.0L2.5,-0.5"/>
  </g>
  <g id="arrowDown" transform="rotate(180) translate(-30 -48)">
    <use xlink:href="#rim"/>
    <path pointer-events="none" fill="none" stroke="white" stroke-width="1.5" d="M0,-3.0v7 M-2.5,-0.5L0,-3.0L2.5,-0.5"/>
  </g>
  <g id="arrowLeft" transform="rotate(270) translate(-36 17)">
    <use xlink:href="#rim"/>
    <path pointer-events="none" fill="none" stroke="white" stroke-width="1.5" d="M0,-3.0v7 M-2.5,-0.5L0,-3.0L2.5,-0.5"/>
  </g>
  <g id="resetDef">
    <use xlink:href="#rim2" fill="#404040"><set attributeName="fill" to="#808080" begin="reset.mouseover" end="reset.mouseout"/></use>
  </g>
</defs>
<script type="application/ecmascript">
var viewWidth = 1100;
var viewHeight = 277;
var sectionId = 'dynsection-28';
</script>
<script type="application/ecmascript" xlink:href="../../svg.min.js"/>
<svg id="graph" class="graph">
<g id="viewport">
<title>GamR::Nucleus::LevelSchemeDraw::Transition::PaintArrow</title>
<!-- Node1 -->
<g id="Node000001" class="node">
<title>Node1</title>
<g id="a_Node000001"><a xlink:title=" ">
<polygon fill="#999999" stroke="#666666" points="148.75,-137.5 0,-137.5 0,-107 148.75,-107 148.75,-137.5"/>
<text text-anchor="start" x="8" y="-124" font-family="Helvetica,sans-Serif" font-size="10.00">GamR::Nucleus::LevelScheme</text>
<text text-anchor="middle" x="74.38" y="-112.75" font-family="Helvetica,sans-Serif" font-size="10.00">Draw::Transition::PaintArrow</text>
</a>
</g>
</g>
<!-- Node2 -->
<g id="Node000002" class="node">
<title>Node2</title>
<g id="a_Node000002"><a xlink:href="../../d9/d6a/class_gam_r_1_1_nucleus_1_1_level_scheme_draw_1_1_transition.html#a1dff65426577e436fc8b877e47a71cb1" target="_top" xlink:title=" ">
<polygon fill="white" stroke="#666666" points="344.75,-257.5 185.5,-257.5 185.5,-227 344.75,-227 344.75,-257.5"/>
<text text-anchor="start" x="193.5" y="-244" font-family="Helvetica,sans-Serif" font-size="10.00">GamR::Nucleus::LevelScheme</text>
<text text-anchor="middle" x="265.12" y="-232.75" font-family="Helvetica,sans-Serif" font-size="10.00">Draw::Transition::GetHeadLength</text>
</a>
</g>
</g>
<!-- Node1&#45;&gt;Node2 -->
<g id="edge1_Node000001_Node000002" class="edge">
<title>Node1&#45;&gt;Node2</title>
<g id="a_edge1_Node000001_Node000002"><a xlink:title=" ">
<path fill="none" stroke="#63b8ff" d="M89.43,-137.95C108.91,-158.84 146.12,-195.63 184.75,-217.25 187.9,-219.01 191.2,-220.67 194.57,-222.23"/>
<polygon fill="#63b8ff" stroke="#63b8ff" points="192.93,-225.33 203.5,-226 195.65,-218.88 192.93,-225.33"/>
</a>
</g>
</g>
<!-- Node4 -->
<g id="Node000004" class="node">
<title>Node4</title>
<g id="a_Node000004"><a xlink:href="../../d9/d6a/class_gam_r_1_1_nucleus_1_1_level_scheme_draw_1_1_transition.html#abcedf04d6777f5d4f01f76582891414a" target="_top" xlink:title=" ">
<polygon fill="white" stroke="#666666" points="720.25,-78.5 571.5,-78.5 571.5,-48 720.25,-48 720.25,-78.5"/>
<text text-anchor="start" x="579.5" y="-65" font-family="Helvetica,sans-Serif" font-size="10.00">GamR::Nucleus::LevelScheme</text>
<text text-anchor="middle" x="645.88" y="-53.75" font-family="Helvetica,sans-Serif" font-size="10.00">Draw::Transition::GetWidth</text>
</a>
</g>
</g>
<!-- Node1&#45;&gt;Node4 -->
<g id="edge20_Node000001_Node000004" class="edge">
<title>Node1&#45;&gt;Node4</title>
<g id="a_edge20_Node000001_Node000004"><a xlink:title=" ">
<path fill="none" stroke="#63b8ff" d="M149.14,-109.01C161.04,-107 173.22,-105.01 184.75,-103.25 271.94,-89.92 293.67,-85.38 381.5,-77.25 440.95,-71.75 508.17,-68.22 559.81,-66.08"/>
<polygon fill="#63b8ff" stroke="#63b8ff" points="559.89,-69.58 569.74,-65.68 559.61,-62.59 559.89,-69.58"/>
</a>
</g>
</g>
<!-- Node11 -->
<g id="Node000011" class="node">
<title>Node11</title>
<g id="a_Node000011"><a xlink:href="../../d9/d6a/class_gam_r_1_1_nucleus_1_1_level_scheme_draw_1_1_transition.html#a2acc25e149beb76d03eecda6278ffde9" target="_top" xlink:title=" ">
<polygon fill="white" stroke="#666666" points="345.5,-208.5 184.75,-208.5 184.75,-178 345.5,-178 345.5,-208.5"/>
<text text-anchor="start" x="192.75" y="-195" font-family="Helvetica,sans-Serif" font-size="10.00">GamR::Nucleus::LevelScheme</text>
<text text-anchor="middle" x="265.12" y="-183.75" font-family="Helvetica,sans-Serif" font-size="10.00">Draw::Transition::GetHeadWidthX</text>
</a>
</g>
</g>
<!-- Node1&#45;&gt;Node11 -->
<g id="edge14_Node000001_Node000011" class="edge">
<title>Node1&#45;&gt;Node11</title>
<g id="a_edge14_Node000001_Node000011"><a xlink:title=" ">
<path fill="none" stroke="#63b8ff" d="M110.02,-137.79C131.37,-147.13 159.42,-158.96 184.75,-168.25 190.04,-170.19 195.56,-172.12 201.12,-174"/>
<polygon fill="#63b8ff" stroke="#63b8ff" points="199.77,-177.24 210.36,-177.06 201.97,-170.59 199.77,-177.24"/>
</a>
</g>
</g>
<!-- Node12 -->
<g id="Node000012" class="node">
<title>Node12</title>
<g id="a_Node000012"><a xlink:href="../../d9/d6a/class_gam_r_1_1_nucleus_1_1_level_scheme_draw_1_1_transition.html#ae28ea5cc2f62c6fee73cb7c4565219b1" target="_top" xlink:title=" ">
<polygon fill="white" stroke="#666666" points="345.5,-159.5 184.75,-159.5 184.75,-129 345.5,-129 345.5,-159.5"/>
<text text-anchor="start" x="192.75" y="-146" font-family="Helvetica,sans-Serif" font-size="10.00">GamR::Nucleus::LevelScheme</text>
<text text-anchor="middle" x="265.12" y="-134.75" font-family="Helvetica,sans-Serif" font-size="10.00">Draw::Transition::GetHeadWidthY</text>
</a>
</g>
</g>
<!-- Node1&#45;&gt;Node12 -->
<g id="edge17_Node000001_Node000012" class="edge">
<title>Node1&#45;&gt;Node12</title>
<g id="a_edge17_Node000001_Node000012"><a xlink:title=" ">
<path fill="none" stroke="#63b8ff" d="M149.16,-130.85C157.03,-131.77 165.1,-132.71 173.14,-133.65"/>
<polygon fill="#63b8ff" stroke="#63b8ff" points="172.62,-137.11 182.96,-134.79 173.43,-130.16 172.62,-137.11"/>
</a>
</g>
</g>
<!-- Node13 -->
<g id="Node000013" class="node">
<title>Node13</title>
<g id="a_Node000013"><a xlink:href="../../d9/d6a/class_gam_r_1_1_nucleus_1_1_level_scheme_draw_1_1_transition.html#aca067cbfaf8548be395dc571f62d9381" target="_top" xlink:title=" ">
<polygon fill="white" stroke="#666666" points="532.88,-30.5 384.12,-30.5 384.12,0 532.88,0 532.88,-30.5"/>
<text text-anchor="start" x="392.12" y="-17" font-family="Helvetica,sans-Serif" font-size="10.00">GamR::Nucleus::LevelScheme</text>
<text text-anchor="middle" x="458.5" y="-5.75" font-family="Helvetica,sans-Serif" font-size="10.00">Draw::Transition::GetWidthX</text>
</a>
</g>
</g>
<!-- Node1&#45;&gt;Node13 -->
<g id="edge21_Node000001_Node000013" class="edge">
<title>Node1&#45;&gt;Node13</title>
<g id="a_edge21_Node000001_Node000013"><a xlink:title=" ">
<path fill="none" stroke="#63b8ff" d="M91.56,-106.52C111.61,-88.1 147.68,-58.32 184.75,-44.25 244.71,-21.5 317.06,-14.66 372.18,-13.28"/>
<polygon fill="#63b8ff" stroke="#63b8ff" points="372.22,-16.78 382.15,-13.1 372.09,-9.79 372.22,-16.78"/>
</a>
</g>
</g>
<!-- Node14 -->
<g id="Node000014" class="node">
<title>Node14</title>
<g id="a_Node000014"><a xlink:href="../../d9/d6a/class_gam_r_1_1_nucleus_1_1_level_scheme_draw_1_1_transition.html#a7944ba7d468a63fcc52f3f1dcd2ffaa5" target="_top" xlink:title=" ">
<polygon fill="white" stroke="#666666" points="532.88,-116.5 384.12,-116.5 384.12,-86 532.88,-86 532.88,-116.5"/>
<text text-anchor="start" x="392.12" y="-103" font-family="Helvetica,sans-Serif" font-size="10.00">GamR::Nucleus::LevelScheme</text>
<text text-anchor="middle" x="458.5" y="-91.75" font-family="Helvetica,sans-Serif" font-size="10.00">Draw::Transition::GetWidthY</text>
</a>
</g>
</g>
<!-- Node1&#45;&gt;Node14 -->
<g id="edge24_Node000001_Node000014" class="edge">
<title>Node1&#45;&gt;Node14</title>
<g id="a_edge24_Node000001_Node000014"><a xlink:title=" ">
<path fill="none" stroke="#63b8ff" d="M149.05,-118.2C212.92,-114.69 305.35,-109.61 372.36,-105.93"/>
<polygon fill="#63b8ff" stroke="#63b8ff" points="372.42,-109.43 382.21,-105.39 372.04,-102.44 372.42,-109.43"/>
</a>
</g>
</g>
<!-- Node3 -->
<g id="Node000003" class="node">
<title>Node3</title>
<g id="a_Node000003"><a xlink:href="../../d9/d6a/class_gam_r_1_1_nucleus_1_1_level_scheme_draw_1_1_transition.html#a2152d1ab40683e52d72746545848d0a7" target="_top" xlink:title=" ">
<polygon fill="white" stroke="#666666" points="535.5,-202.5 381.5,-202.5 381.5,-172 535.5,-172 535.5,-202.5"/>
<text text-anchor="start" x="389.5" y="-189" font-family="Helvetica,sans-Serif" font-size="10.00">GamR::Nucleus::LevelScheme</text>
<text text-anchor="middle" x="458.5" y="-177.75" font-family="Helvetica,sans-Serif" font-size="10.00">Draw::Transition::GetHeadWidth</text>
</a>
</g>
</g>
<!-- Node2&#45;&gt;Node3 -->
<g id="edge2_Node000002_Node000003" class="edge">
<title>Node2&#45;&gt;Node3</title>
<g id="a_edge2_Node000002_Node000003"><a xlink:title=" ">
<path fill="none" stroke="#63b8ff" d="M320.71,-226.56C342.93,-220.18 368.81,-212.74 392.03,-206.07"/>
<polygon fill="#63b8ff" stroke="#63b8ff" points="392.74,-209.5 401.39,-203.38 390.81,-202.77 392.74,-209.5"/>
</a>
</g>
</g>
<!-- Node10 -->
<g id="Node000010" class="node">
<title>Node10</title>
<g id="a_Node000010"><a xlink:href="../../d9/d6a/class_gam_r_1_1_nucleus_1_1_level_scheme_draw_1_1_transition.html#ac68606c67221fcd3748aa115be80fd9e" target="_top" xlink:title=" ">
<polygon fill="white" stroke="#666666" points="906.12,-189.5 757.38,-189.5 757.38,-159 906.12,-159 906.12,-189.5"/>
<text text-anchor="start" x="765.38" y="-176" font-family="Helvetica,sans-Serif" font-size="10.00">GamR::Nucleus::LevelScheme</text>
<text text-anchor="middle" x="831.75" y="-164.75" font-family="Helvetica,sans-Serif" font-size="10.00">Draw::Transition::GetLength</text>
</a>
</g>
</g>
<!-- Node2&#45;&gt;Node10 -->
<g id="edge9_Node000002_Node000010" class="edge">
<title>Node2&#45;&gt;Node10</title>
<g id="a_edge9_Node000002_Node000010"><a xlink:title=" ">
<path fill="none" stroke="#63b8ff" d="M345.12,-255.88C437.22,-268.76 593.04,-281.15 720.25,-244.25 751.98,-235.05 783.33,-213.7 804.49,-196.98"/>
<polygon fill="#63b8ff" stroke="#63b8ff" points="806.45,-199.9 812,-190.87 802.03,-194.46 806.45,-199.9"/>
</a>
</g>
</g>
<!-- Node3&#45;&gt;Node4 -->
<g id="edge3_Node000003_Node000004" class="edge">
<title>Node3&#45;&gt;Node4</title>
<g id="a_edge3_Node000003_Node000004"><a xlink:title=" ">
<path fill="none" stroke="#63b8ff" d="M482.98,-171.55C515.71,-149.65 575.2,-109.86 612.23,-85.09"/>
<polygon fill="#63b8ff" stroke="#63b8ff" points="613.96,-88.14 620.33,-79.67 610.07,-82.32 613.96,-88.14"/>
</a>
</g>
</g>
<!-- Node5 -->
<g id="Node000005" class="node">
<title>Node5</title>
<g id="a_Node000005"><a xlink:href="../../d9/d6a/class_gam_r_1_1_nucleus_1_1_level_scheme_draw_1_1_transition.html#a446c07e96e5a62e16d4f6245b93e8745" target="_top" xlink:title=" ">
<polygon fill="white" stroke="#666666" points="907.25,-140.5 756.25,-140.5 756.25,-110 907.25,-110 907.25,-140.5"/>
<text text-anchor="start" x="764.25" y="-127" font-family="Helvetica,sans-Serif" font-size="10.00">GamR::Nucleus::LevelScheme</text>
<text text-anchor="middle" x="831.75" y="-115.75" font-family="Helvetica,sans-Serif" font-size="10.00">Draw::Transition::GetPerpTheta</text>
</a>
</g>
</g>
<!-- Node4&#45;&gt;Node5 -->
<g id="edge4_Node000004_Node000005" class="edge">
<title>Node4&#45;&gt;Node5</title>
<g id="a_edge4_Node000004_Node000005"><a xlink:title=" ">
<path fill="none" stroke="#63b8ff" d="M693.27,-78.9C717.57,-87.09 747.54,-97.19 773.3,-105.88"/>
<polygon fill="#63b8ff" stroke="#63b8ff" points="772.02,-109.14 782.61,-109.02 774.25,-102.51 772.02,-109.14"/>
</a>
</g>
</g>
<!-- Node6 -->
<g id="Node000006" class="node">
<title>Node6</title>
<g id="a_Node000006"><a xlink:href="../../d9/d6a/class_gam_r_1_1_nucleus_1_1_level_scheme_draw_1_1_transition.html#a363fddf60003acf60803f9c139a9f33e" target="_top" xlink:title=" ">
<polygon fill="white" stroke="#666666" points="1092,-140.5 943.25,-140.5 943.25,-110 1092,-110 1092,-140.5"/>
<text text-anchor="start" x="951.25" y="-127" font-family="Helvetica,sans-Serif" font-size="10.00">GamR::Nucleus::LevelScheme</text>
<text text-anchor="middle" x="1017.62" y="-115.75" font-family="Helvetica,sans-Serif" font-size="10.00">Draw::Transition::GetX1</text>
</a>
</g>
</g>
<!-- Node5&#45;&gt;Node6 -->
<g id="edge5_Node000005_Node000006" class="edge">
<title>Node5&#45;&gt;Node6</title>
<g id="a_edge5_Node000005_Node000006"><a xlink:title=" ">
<path fill="none" stroke="#63b8ff" d="M907.54,-125.25C915.45,-125.25 923.53,-125.25 931.54,-125.25"/>
<polygon fill="#63b8ff" stroke="#63b8ff" points="931.28,-128.75 941.28,-125.25 931.28,-121.75 931.28,-128.75"/>
</a>
</g>
</g>
<!-- Node7 -->
<g id="Node000007" class="node">
<title>Node7</title>
<g id="a_Node000007"><a xlink:href="../../d9/d6a/class_gam_r_1_1_nucleus_1_1_level_scheme_draw_1_1_transition.html#a9c11d11111db2f88c9c20abd9539b03f" target="_top" xlink:title=" ">
<polygon fill="white" stroke="#666666" points="1092,-91.5 943.25,-91.5 943.25,-61 1092,-61 1092,-91.5"/>
<text text-anchor="start" x="951.25" y="-78" font-family="Helvetica,sans-Serif" font-size="10.00">GamR::Nucleus::LevelScheme</text>
<text text-anchor="middle" x="1017.62" y="-66.75" font-family="Helvetica,sans-Serif" font-size="10.00">Draw::Transition::GetX2</text>
</a>
</g>
</g>
<!-- Node5&#45;&gt;Node7 -->
<g id="edge6_Node000005_Node000007" class="edge">
<title>Node5&#45;&gt;Node7</title>
<g id="a_edge6_Node000005_Node000007"><a xlink:title=" ">
<path fill="none" stroke="#63b8ff" d="M891.69,-109.54C909.17,-104.88 928.49,-99.74 946.61,-94.91"/>
<polygon fill="#63b8ff" stroke="#63b8ff" points="947.48,-98.3 956.24,-92.34 945.68,-91.53 947.48,-98.3"/>
</a>
</g>
</g>
<!-- Node8 -->
<g id="Node000008" class="node">
<title>Node8</title>
<g id="a_Node000008"><a xlink:href="../../d9/d6a/class_gam_r_1_1_nucleus_1_1_level_scheme_draw_1_1_transition.html#a2c8c938a3ae417d75d773190da2db8c6" target="_top" xlink:title=" ">
<polygon fill="white" stroke="#666666" points="1092,-238.5 943.25,-238.5 943.25,-208 1092,-208 1092,-238.5"/>
<text text-anchor="start" x="951.25" y="-225" font-family="Helvetica,sans-Serif" font-size="10.00">GamR::Nucleus::LevelScheme</text>
<text text-anchor="middle" x="1017.62" y="-213.75" font-family="Helvetica,sans-Serif" font-size="10.00">Draw::Transition::GetY1</text>
</a>
</g>
</g>
<!-- Node5&#45;&gt;Node8 -->
<g id="edge7_Node000005_Node000008" class="edge">
<title>Node5&#45;&gt;Node8</title>
<g id="a_edge7_Node000005_Node000008"><a xlink:title=" ">
<path fill="none" stroke="#63b8ff" d="M891.01,-140.88C896.74,-143.55 902.27,-146.66 907.25,-150.25 928.87,-165.86 921.67,-182.59 943.25,-198.25 945.24,-199.7 947.32,-201.06 949.47,-202.35"/>
<polygon fill="#63b8ff" stroke="#63b8ff" points="947.43,-205.23 957.91,-206.84 950.72,-199.05 947.43,-205.23"/>
</a>
</g>
</g>
<!-- Node9 -->
<g id="Node000009" class="node">
<title>Node9</title>
<g id="a_Node000009"><a xlink:href="../../d9/d6a/class_gam_r_1_1_nucleus_1_1_level_scheme_draw_1_1_transition.html#a6153e44bb7e3dd553328f23a38dfbfea" target="_top" xlink:title=" ">
<polygon fill="white" stroke="#666666" points="1092,-189.5 943.25,-189.5 943.25,-159 1092,-159 1092,-189.5"/>
<text text-anchor="start" x="951.25" y="-176" font-family="Helvetica,sans-Serif" font-size="10.00">GamR::Nucleus::LevelScheme</text>
<text text-anchor="middle" x="1017.62" y="-164.75" font-family="Helvetica,sans-Serif" font-size="10.00">Draw::Transition::GetY2</text>
</a>
</g>
</g>
<!-- Node5&#45;&gt;Node9 -->
<g id="edge8_Node000005_Node000009" class="edge">
<title>Node5&#45;&gt;Node9</title>
<g id="a_edge8_Node000005_Node000009"><a xlink:title=" ">
<path fill="none" stroke="#63b8ff" d="M891.69,-140.96C909.17,-145.62 928.49,-150.76 946.61,-155.59"/>
<polygon fill="#63b8ff" stroke="#63b8ff" points="945.68,-158.97 956.24,-158.16 947.48,-152.2 945.68,-158.97"/>
</a>
</g>
</g>
<!-- Node10&#45;&gt;Node6 -->
<g id="edge10_Node000010_Node000006" class="edge">
<title>Node10&#45;&gt;Node6</title>
<g id="a_edge10_Node000010_Node000006"><a xlink:title=" ">
<path fill="none" stroke="#63b8ff" d="M891.69,-158.54C909.17,-153.88 928.49,-148.74 946.61,-143.91"/>
<polygon fill="#63b8ff" stroke="#63b8ff" points="947.48,-147.3 956.24,-141.34 945.68,-140.53 947.48,-147.3"/>
</a>
</g>
</g>
<!-- Node10&#45;&gt;Node7 -->
<g id="edge11_Node000010_Node000007" class="edge">
<title>Node10&#45;&gt;Node7</title>
<g id="a_edge11_Node000010_Node000007"><a xlink:title=" ">
<path fill="none" stroke="#63b8ff" d="M891.01,-158.62C896.74,-155.95 902.27,-152.84 907.25,-149.25 928.87,-133.64 921.67,-116.91 943.25,-101.25 945.24,-99.8 947.32,-98.44 949.47,-97.15"/>
<polygon fill="#63b8ff" stroke="#63b8ff" points="950.72,-100.45 957.91,-92.66 947.43,-94.27 950.72,-100.45"/>
</a>
</g>
</g>
<!-- Node10&#45;&gt;Node8 -->
<g id="edge12_Node000010_Node000008" class="edge">
<title>Node10&#45;&gt;Node8</title>
<g id="a_edge12_Node000010_Node000008"><a xlink:title=" ">
<path fill="none" stroke="#63b8ff" d="M891.69,-189.96C909.17,-194.62 928.49,-199.76 946.61,-204.59"/>
<polygon fill="#63b8ff" stroke="#63b8ff" points="945.68,-207.97 956.24,-207.16 947.48,-201.2 945.68,-207.97"/>
</a>
</g>
</g>
<!-- Node10&#45;&gt;Node9 -->
<g id="edge13_Node000010_Node000009" class="edge">
<title>Node10&#45;&gt;Node9</title>
<g id="a_edge13_Node000010_Node000009"><a xlink:title=" ">
<path fill="none" stroke="#63b8ff" d="M906.48,-174.25C914.72,-174.25 923.17,-174.25 931.54,-174.25"/>
<polygon fill="#63b8ff" stroke="#63b8ff" points="931.37,-177.75 941.37,-174.25 931.37,-170.75 931.37,-177.75"/>
</a>
</g>
</g>
<!-- Node11&#45;&gt;Node3 -->
<g id="edge15_Node000011_Node000003" class="edge">
<title>Node11&#45;&gt;Node3</title>
<g id="a_edge15_Node000011_Node000003"><a xlink:title=" ">
<path fill="none" stroke="#63b8ff" d="M345.9,-190.75C353.85,-190.5 361.94,-190.25 369.96,-189.99"/>
<polygon fill="#63b8ff" stroke="#63b8ff" points="369.83,-193.5 379.72,-189.69 369.61,-186.5 369.83,-193.5"/>
</a>
</g>
</g>
<!-- Node11&#45;&gt;Node5 -->
<g id="edge16_Node000011_Node000005" class="edge">
<title>Node11&#45;&gt;Node5</title>
<g id="a_edge16_Node000011_Node000005"><a xlink:title=" ">
<path fill="none" stroke="#63b8ff" d="M345.69,-207.31C357.66,-208.94 369.88,-210.35 381.5,-211.25 449.74,-216.54 467.74,-220.92 535.5,-211.25 581.25,-204.72 700.14,-167.7 772.33,-144.41"/>
<polygon fill="#63b8ff" stroke="#63b8ff" points="773.18,-147.81 781.62,-141.4 771.03,-141.15 773.18,-147.81"/>
</a>
</g>
</g>
<!-- Node12&#45;&gt;Node3 -->
<g id="edge18_Node000012_Node000003" class="edge">
<title>Node12&#45;&gt;Node3</title>
<g id="a_edge18_Node000012_Node000003"><a xlink:title=" ">
<path fill="none" stroke="#63b8ff" d="M336.03,-159.96C349.12,-162.9 362.92,-166 376.32,-169.01"/>
<polygon fill="#63b8ff" stroke="#63b8ff" points="375.47,-172.4 385.99,-171.18 377,-165.58 375.47,-172.4"/>
</a>
</g>
</g>
<!-- Node12&#45;&gt;Node5 -->
<g id="edge19_Node000012_Node000005" class="edge">
<title>Node12&#45;&gt;Node5</title>
<g id="a_edge19_Node000012_Node000005"><a xlink:title=" ">
<path fill="none" stroke="#63b8ff" d="M345.82,-141.57C451.22,-138.02 636.26,-131.79 744.73,-128.14"/>
<polygon fill="#63b8ff" stroke="#63b8ff" points="744.57,-131.65 754.44,-127.82 744.33,-124.66 744.57,-131.65"/>
</a>
</g>
</g>
<!-- Node13&#45;&gt;Node4 -->
<g id="edge23_Node000013_Node000004" class="edge">
<title>Node13&#45;&gt;Node4</title>
<g id="a_edge23_Node000013_Node000004"><a xlink:title=" ">
<path fill="none" stroke="#63b8ff" d="M520.2,-30.97C537.25,-35.38 555.95,-40.22 573.56,-44.78"/>
<polygon fill="#63b8ff" stroke="#63b8ff" points="572.33,-48.08 582.89,-47.2 574.09,-41.31 572.33,-48.08"/>
</a>
</g>
</g>
<!-- Node13&#45;&gt;Node5 -->
<g id="edge22_Node000013_Node000005" class="edge">
<title>Node13&#45;&gt;Node5</title>
<g id="a_edge22_Node000013_Node000005"><a xlink:title=" ">
<path fill="none" stroke="#63b8ff" d="M533.14,-11.16C586.82,-10.74 660.33,-15.55 720.25,-39.25 755.02,-53 787.9,-81.27 808.61,-101.65"/>
<polygon fill="#63b8ff" stroke="#63b8ff" points="805.86,-103.85 815.38,-108.49 810.83,-98.92 805.86,-103.85"/>
</a>
</g>
</g>
<!-- Node14&#45;&gt;Node4 -->
<g id="edge26_Node000014_Node000004" class="edge">
<title>Node14&#45;&gt;Node4</title>
<g id="a_edge26_Node000014_Node000004"><a xlink:title=" ">
<path fill="none" stroke="#63b8ff" d="M533.3,-86.12C542.03,-84.33 551,-82.49 559.87,-80.68"/>
<polygon fill="#63b8ff" stroke="#63b8ff" points="560.45,-84.13 569.55,-78.69 559.05,-77.27 560.45,-84.13"/>
</a>
</g>
</g>
<!-- Node14&#45;&gt;Node5 -->
<g id="edge25_Node000014_Node000005" class="edge">
<title>Node14&#45;&gt;Node5</title>
<g id="a_edge25_Node000014_Node000005"><a xlink:title=" ">
<path fill="none" stroke="#63b8ff" d="M533.29,-106.02C594.13,-109.95 680.53,-115.54 744.55,-119.68"/>
<polygon fill="#63b8ff" stroke="#63b8ff" points="744.11,-123.16 754.32,-120.31 744.56,-116.17 744.11,-123.16"/>
</a>
</g>
</g>
</g>
</svg>

<g id="navigator" transform="translate(0 0)" fill="#404254">
  <rect fill="#f2f5e9" fill-opacity="0.5" stroke="#606060" stroke-width=".5" x="0" y="0" width="60" height="60"/>
  <use id="zoomplus" xlink:href="#zoomPlus" x="17" y="9" onmousedown="handleZoom(evt,'in')"/>
  <use id="zoomminus" xlink:href="#zoomMin" x="42" y="9" onmousedown="handleZoom(evt,'out')"/>
  <use id="reset" xlink:href="#resetDef" x="30" y="36" onmousedown="handleReset()"/>
   <use id="arrowup" xlink:href="#arrowUp" x="0" y="0" onmousedown="handlePan(0,-1)"/>
  <use id="arrowright" xlink:href="#arrowRight" x="0" y="0" onmousedown="handlePan(1,0)"/>
  <use id="arrowdown" xlink:href="#arrowDown" x="0" y="0" onmousedown="handlePan(0,1)"/>
  <use id="arrowleft" xlink:href="#arrowLeft" x="0" y="0" onmousedown="handlePan(-1,0)"/>
</g>
<svg viewBox="0 0 15 15" width="100%" height="30px" preserveAspectRatio="xMaxYMin meet">
 <g id="arrow_out" transform="scale(0.3 0.3)">
  <a xlink:href="class_gam_r_1_1_nucleus_1_1_level_scheme_draw_1_1_transition_a81da29d9ed290b48be5b2b06e4806ee5_cgraph_org.svg" target="_base">
   <rect id="button" ry="5" rx="5" y="6" x="6" height="38" width="38"
        fill="#f2f5e9" fill-opacity="0.5" stroke="#606060" stroke-width="1.0"/>
   <path id="arrow"
     d="M 11.500037,31.436501 C 11.940474,20.09759 22.043105,11.32322 32.158766,21.979434 L 37.068811,17.246167 C 37.068811,17.246167 37.088388,32 37.088388,32 L 22.160133,31.978069 C 22.160133,31.978069 26.997745,27.140456 26.997745,27.140456 C 18.528582,18.264221 13.291696,25.230495 11.500037,31.436501 z"
     style="fill:#404040;"/>
  </a>
 </g>
</svg>

<style type='text/css'>
<![CDATA[
[data-mouse-over-selected='false'] { opacity: 0.7; }
[data-mouse-over-selected='true']  { opacity: 1.0; }
]]>
</style>
<script type="application/ecmascript"><![CDATA[
document.addEventListener('DOMContentLoaded', (event) => {
  highlightEdges();
  highlightAdjacentNodes();
});
]]></script>
</svg>
