<?xml version="1.0" encoding="UTF-8" standalone="no"?>
<!DOCTYPE svg PUBLIC "-//W3C//DTD SVG 1.1//EN"
 "http://www.w3.org/Graphics/SVG/1.1/DTD/svg11.dtd">
<!-- Generated by graphviz version 6.0.2 (20221011.1828)
 -->
<!-- Title: GamR::Nucleus::LevelSchemeDraw::Transition::GetLength Pages: 1 -->
<svg width="342pt" height="182pt"
 viewBox="0.00 0.00 342.00 182.00" xmlns="http://www.w3.org/2000/svg" xmlns:xlink="http://www.w3.org/1999/xlink">
<g id="graph0" class="graph" transform="scale(1 1) rotate(0) translate(4 178)">
<title>GamR::Nucleus::LevelSchemeDraw::Transition::GetLength</title>
<!-- Node1 -->
<g id="node1" class="node">
<title>Node1</title>
<g id="a_node1"><a xlink:title=" ">
<polygon fill="#999999" stroke="#666666" points="149,-102 0,-102 0,-72 149,-72 149,-102"/>
<text text-anchor="start" x="8" y="-90" font-family="Helvetica,sans-Serif" font-size="10.00">GamR::Nucleus::LevelScheme</text>
<text text-anchor="middle" x="74.5" y="-79" font-family="Helvetica,sans-Serif" font-size="10.00">Draw::Transition::GetLength</text>
</a>
</g>
</g>
<!-- Node2 -->
<g id="node2" class="node">
<title>Node2</title>
<g id="a_node2"><a xlink:href="../../d9/d6a/class_gam_r_1_1_nucleus_1_1_level_scheme_draw_1_1_transition.html#a363fddf60003acf60803f9c139a9f33e" target="_top" xlink:title=" ">
<polygon fill="white" stroke="#666666" points="334,-174 185,-174 185,-144 334,-144 334,-174"/>
<text text-anchor="start" x="193" y="-162" font-family="Helvetica,sans-Serif" font-size="10.00">GamR::Nucleus::LevelScheme</text>
<text text-anchor="middle" x="259.5" y="-151" font-family="Helvetica,sans-Serif" font-size="10.00">Draw::Transition::GetX1</text>
</a>
</g>
</g>
<!-- Node1&#45;&gt;Node2 -->
<g id="edge1" class="edge">
<title>Node1&#45;&gt;Node2</title>
<path fill="none" stroke="#63b8ff" d="M107.74,-102.12C129.37,-112.02 158.62,-124.94 185,-135 190.02,-136.91 195.26,-138.81 200.54,-140.66"/>
<polygon fill="#63b8ff" stroke="#63b8ff" points="199.44,-143.98 210.03,-143.92 201.71,-137.36 199.44,-143.98"/>
</g>
<!-- Node3 -->
<g id="node3" class="node">
<title>Node3</title>
<g id="a_node3"><a xlink:href="../../d9/d6a/class_gam_r_1_1_nucleus_1_1_level_scheme_draw_1_1_transition.html#a9c11d11111db2f88c9c20abd9539b03f" target="_top" xlink:title=" ">
<polygon fill="white" stroke="#666666" points="334,-126 185,-126 185,-96 334,-96 334,-126"/>
<text text-anchor="start" x="193" y="-114" font-family="Helvetica,sans-Serif" font-size="10.00">GamR::Nucleus::LevelScheme</text>
<text text-anchor="middle" x="259.5" y="-103" font-family="Helvetica,sans-Serif" font-size="10.00">Draw::Transition::GetX2</text>
</a>
</g>
</g>
<!-- Node1&#45;&gt;Node3 -->
<g id="edge2" class="edge">
<title>Node1&#45;&gt;Node3</title>
<path fill="none" stroke="#63b8ff" d="M149.14,-96.66C157.57,-97.76 166.2,-98.89 174.74,-100.02"/>
<polygon fill="#63b8ff" stroke="#63b8ff" points="174.34,-103.49 184.71,-101.32 175.25,-96.55 174.34,-103.49"/>
</g>
<!-- Node4 -->
<g id="node4" class="node">
<title>Node4</title>
<g id="a_node4"><a xlink:href="../../d9/d6a/class_gam_r_1_1_nucleus_1_1_level_scheme_draw_1_1_transition.html#a2c8c938a3ae417d75d773190da2db8c6" target="_top" xlink:title=" ">
<polygon fill="white" stroke="#666666" points="334,-78 185,-78 185,-48 334,-48 334,-78"/>
<text text-anchor="start" x="193" y="-66" font-family="Helvetica,sans-Serif" font-size="10.00">GamR::Nucleus::LevelScheme</text>
<text text-anchor="middle" x="259.5" y="-55" font-family="Helvetica,sans-Serif" font-size="10.00">Draw::Transition::GetY1</text>
</a>
</g>
</g>
<!-- Node1&#45;&gt;Node4 -->
<g id="edge3" class="edge">
<title>Node1&#45;&gt;Node4</title>
<path fill="none" stroke="#63b8ff" d="M149.14,-77.34C157.57,-76.24 166.2,-75.11 174.74,-73.98"/>
<polygon fill="#63b8ff" stroke="#63b8ff" points="175.25,-77.45 184.71,-72.68 174.34,-70.51 175.25,-77.45"/>
</g>
<!-- Node5 -->
<g id="node5" class="node">
<title>Node5</title>
<g id="a_node5"><a xlink:href="../../d9/d6a/class_gam_r_1_1_nucleus_1_1_level_scheme_draw_1_1_transition.html#a6153e44bb7e3dd553328f23a38dfbfea" target="_top" xlink:title=" ">
<polygon fill="white" stroke="#666666" points="334,-30 185,-30 185,0 334,0 334,-30"/>
<text text-anchor="start" x="193" y="-18" font-family="Helvetica,sans-Serif" font-size="10.00">GamR::Nucleus::LevelScheme</text>
<text text-anchor="middle" x="259.5" y="-7" font-family="Helvetica,sans-Serif" font-size="10.00">Draw::Transition::GetY2</text>
</a>
</g>
</g>
<!-- Node1&#45;&gt;Node5 -->
<g id="edge4" class="edge">
<title>Node1&#45;&gt;Node5</title>
<path fill="none" stroke="#63b8ff" d="M107.74,-71.88C129.37,-61.98 158.62,-49.06 185,-39 190.02,-37.09 195.26,-35.19 200.54,-33.34"/>
<polygon fill="#63b8ff" stroke="#63b8ff" points="201.71,-36.64 210.03,-30.08 199.44,-30.02 201.71,-36.64"/>
</g>
</g>
</svg>
