<?xml version="1.0" encoding="UTF-8" standalone="no"?>
<!DOCTYPE svg PUBLIC "-//W3C//DTD SVG 1.1//EN"
 "http://www.w3.org/Graphics/SVG/1.1/DTD/svg11.dtd">
<!-- Generated by graphviz version 6.0.2 (20221011.1828)
 -->
<!-- Title: GamR::Nucleus::LevelSchemeDraw::Transition::GetWidth Pages: 1 -->
<!--zoomable 268 -->
<svg id="main" version="1.1" xmlns="http://www.w3.org/2000/svg" xmlns:xlink="http://www.w3.org/1999/xlink" xml:space="preserve" onload="init(evt)">
<style type="text/css"><![CDATA[
.edge:hover path { stroke: red; }
.edge:hover polygon { stroke: red; fill: red; }
]]></style>
<script type="text/javascript"><![CDATA[
var edges = document.getElementsByTagName('g');
if (edges && edges.length) {
  for (var i=0;i<edges.length;i++) {
    if (edges[i].id.substr(0,4)=='edge') {
      edges[i].setAttribute('class','edge');
    }
  }
}
]]></script>
        <defs>
                <circle id="rim" cx="0" cy="0" r="7"/>
                <circle id="rim2" cx="0" cy="0" r="3.5"/>
                <g id="zoomPlus">
                        <use xlink:href="#rim" fill="#404040">
                                <set attributeName="fill" to="#808080" begin="zoomplus.mouseover" end="zoomplus.mouseout"/>
                        </use>
                        <path d="M-4,0h8M0,-4v8" fill="none" stroke="white" stroke-width="1.5" pointer-events="none"/>
                </g>
                <g id="zoomMin">
                        <use xlink:href="#rim" fill="#404040">
                                <set attributeName="fill" to="#808080" begin="zoomminus.mouseover" end="zoomminus.mouseout"/>
                        </use>
                        <path d="M-4,0h8" fill="none" stroke="white" stroke-width="1.5" pointer-events="none"/>
                </g>
                <g id="dirArrow">
                        <path fill="none" stroke="white" stroke-width="1.5" d="M0,-3.0v7 M-2.5,-0.5L0,-3.0L2.5,-0.5"/>
                </g>
               <g id="resetDef">
                       <use xlink:href="#rim2" fill="#404040">
                               <set attributeName="fill" to="#808080" begin="reset.mouseover" end="reset.mouseout"/>
                       </use>
               </g>
        </defs>

<script type="text/javascript">
var viewWidth = 915;
var viewHeight = 268;
var sectionId = 'dynsection-18';
</script>
<script xlink:href="../../svgpan.js"/>
<svg id="graph" class="graph">
<g id="viewport">
<title>GamR::Nucleus::LevelSchemeDraw::Transition::GetWidth</title>
<!-- Node1 -->
<g id="node1" class="node">
<title>Node1</title>
<g id="a_node1"><a xlink:title=" ">
<polygon fill="#999999" stroke="#666666" points="907,-99 758,-99 758,-69 907,-69 907,-99"/>
<text text-anchor="start" x="766" y="-87" font-family="Helvetica,sans-Serif" font-size="10.00">GamR::Nucleus::LevelScheme</text>
<text text-anchor="middle" x="832.5" y="-76" font-family="Helvetica,sans-Serif" font-size="10.00">Draw::Transition::GetWidth</text>
</a>
</g>
</g>
<!-- Node2 -->
<g id="node2" class="node">
<title>Node2</title>
<g id="a_node2"><a xlink:href="../../d9/d6a/class_gam_r_1_1_nucleus_1_1_level_scheme_draw_1_1_transition.html#a2152d1ab40683e52d72746545848d0a7" target="_top" xlink:title=" ">
<polygon fill="white" stroke="#666666" points="722,-188 567,-188 567,-158 722,-158 722,-188"/>
<text text-anchor="start" x="575" y="-176" font-family="Helvetica,sans-Serif" font-size="10.00">GamR::Nucleus::LevelScheme</text>
<text text-anchor="middle" x="644.5" y="-165" font-family="Helvetica,sans-Serif" font-size="10.00">Draw::Transition::GetHeadWidth</text>
</a>
</g>
</g>
<!-- Node1&#45;&gt;Node2 -->
<g id="edge1" class="edge">
<title>Node1&#45;&gt;Node2</title>
<path fill="none" stroke="#63b8ff" d="M790.68,-103.53C756.42,-119.92 708.2,-143 676.9,-157.98"/>
<polygon fill="#63b8ff" stroke="#63b8ff" points="792.44,-106.57 799.95,-99.1 789.42,-100.26 792.44,-106.57"/>
</g>
<!-- Node4 -->
<g id="node4" class="node">
<title>Node4</title>
<g id="a_node4"><a xlink:href="../../d9/d6a/class_gam_r_1_1_nucleus_1_1_level_scheme_draw_1_1_transition.html#a81da29d9ed290b48be5b2b06e4806ee5" target="_top" xlink:title=" ">
<polygon fill="white" stroke="#666666" points="334,-142 185,-142 185,-112 334,-112 334,-142"/>
<text text-anchor="start" x="193" y="-130" font-family="Helvetica,sans-Serif" font-size="10.00">GamR::Nucleus::LevelScheme</text>
<text text-anchor="middle" x="259.5" y="-119" font-family="Helvetica,sans-Serif" font-size="10.00">Draw::Transition::PaintArrow</text>
</a>
</g>
</g>
<!-- Node1&#45;&gt;Node4 -->
<g id="edge13" class="edge">
<title>Node1&#45;&gt;Node4</title>
<path fill="none" stroke="#63b8ff" d="M747.52,-90.32C635.84,-98.73 440.22,-113.47 334.06,-121.46"/>
<polygon fill="#63b8ff" stroke="#63b8ff" points="748.02,-93.8 757.73,-89.56 747.49,-86.82 748.02,-93.8"/>
</g>
<!-- Node8 -->
<g id="node8" class="node">
<title>Node8</title>
<g id="a_node8"><a xlink:href="../../d9/d6a/class_gam_r_1_1_nucleus_1_1_level_scheme_draw_1_1_transition.html#aca067cbfaf8548be395dc571f62d9381" target="_top" xlink:title=" ">
<polygon fill="white" stroke="#666666" points="719,-78 570,-78 570,-48 719,-48 719,-78"/>
<text text-anchor="start" x="578" y="-66" font-family="Helvetica,sans-Serif" font-size="10.00">GamR::Nucleus::LevelScheme</text>
<text text-anchor="middle" x="644.5" y="-55" font-family="Helvetica,sans-Serif" font-size="10.00">Draw::Transition::GetWidthX</text>
</a>
</g>
</g>
<!-- Node1&#45;&gt;Node8 -->
<g id="edge9" class="edge">
<title>Node1&#45;&gt;Node8</title>
<path fill="none" stroke="#63b8ff" d="M748.01,-74.57C738.36,-73.48 728.58,-72.38 719.09,-71.31"/>
<polygon fill="#63b8ff" stroke="#63b8ff" points="747.66,-78.06 757.99,-75.7 748.44,-71.1 747.66,-78.06"/>
</g>
<!-- Node9 -->
<g id="node9" class="node">
<title>Node9</title>
<g id="a_node9"><a xlink:href="../../d9/d6a/class_gam_r_1_1_nucleus_1_1_level_scheme_draw_1_1_transition.html#a7944ba7d468a63fcc52f3f1dcd2ffaa5" target="_top" xlink:title=" ">
<polygon fill="white" stroke="#666666" points="719,-30 570,-30 570,0 719,0 719,-30"/>
<text text-anchor="start" x="578" y="-18" font-family="Helvetica,sans-Serif" font-size="10.00">GamR::Nucleus::LevelScheme</text>
<text text-anchor="middle" x="644.5" y="-7" font-family="Helvetica,sans-Serif" font-size="10.00">Draw::Transition::GetWidthY</text>
</a>
</g>
</g>
<!-- Node1&#45;&gt;Node9 -->
<g id="edge11" class="edge">
<title>Node1&#45;&gt;Node9</title>
<path fill="none" stroke="#63b8ff" d="M787.39,-64.86C767.56,-56.52 743.76,-46.87 722,-39 713.49,-35.92 704.37,-32.86 695.5,-30.01"/>
<polygon fill="#63b8ff" stroke="#63b8ff" points="786.21,-68.16 796.78,-68.84 788.94,-61.72 786.21,-68.16"/>
</g>
<!-- Node3 -->
<g id="node3" class="node">
<title>Node3</title>
<g id="a_node3"><a xlink:href="../../d9/d6a/class_gam_r_1_1_nucleus_1_1_level_scheme_draw_1_1_transition.html#a1dff65426577e436fc8b877e47a71cb1" target="_top" xlink:title=" ">
<polygon fill="white" stroke="#666666" points="530.5,-260 370.5,-260 370.5,-230 530.5,-230 530.5,-260"/>
<text text-anchor="start" x="378.5" y="-248" font-family="Helvetica,sans-Serif" font-size="10.00">GamR::Nucleus::LevelScheme</text>
<text text-anchor="middle" x="450.5" y="-237" font-family="Helvetica,sans-Serif" font-size="10.00">Draw::Transition::GetHeadLength</text>
</a>
</g>
</g>
<!-- Node2&#45;&gt;Node3 -->
<g id="edge2" class="edge">
<title>Node2&#45;&gt;Node3</title>
<path fill="none" stroke="#63b8ff" d="M601.63,-192.16C580.65,-201.44 554.71,-212.39 531,-221 522.46,-224.1 513.31,-227.13 504.37,-229.93"/>
<polygon fill="#63b8ff" stroke="#63b8ff" points="603.19,-195.3 610.9,-188.04 600.34,-188.91 603.19,-195.3"/>
</g>
<!-- Node6 -->
<g id="node6" class="node">
<title>Node6</title>
<g id="a_node6"><a xlink:href="../../d9/d6a/class_gam_r_1_1_nucleus_1_1_level_scheme_draw_1_1_transition.html#a2acc25e149beb76d03eecda6278ffde9" target="_top" xlink:title=" ">
<polygon fill="white" stroke="#666666" points="531,-212 370,-212 370,-182 531,-182 531,-212"/>
<text text-anchor="start" x="378" y="-200" font-family="Helvetica,sans-Serif" font-size="10.00">GamR::Nucleus::LevelScheme</text>
<text text-anchor="middle" x="450.5" y="-189" font-family="Helvetica,sans-Serif" font-size="10.00">Draw::Transition::GetHeadWidthX</text>
</a>
</g>
</g>
<!-- Node2&#45;&gt;Node6 -->
<g id="edge5" class="edge">
<title>Node2&#45;&gt;Node6</title>
<path fill="none" stroke="#63b8ff" d="M556.84,-183.83C548.31,-184.9 539.68,-185.98 531.23,-187.03"/>
<polygon fill="#63b8ff" stroke="#63b8ff" points="557.3,-187.3 566.79,-182.59 556.43,-180.36 557.3,-187.3"/>
</g>
<!-- Node7 -->
<g id="node7" class="node">
<title>Node7</title>
<g id="a_node7"><a xlink:href="../../d9/d6a/class_gam_r_1_1_nucleus_1_1_level_scheme_draw_1_1_transition.html#ae28ea5cc2f62c6fee73cb7c4565219b1" target="_top" xlink:title=" ">
<polygon fill="white" stroke="#666666" points="531,-164 370,-164 370,-134 531,-134 531,-164"/>
<text text-anchor="start" x="378" y="-152" font-family="Helvetica,sans-Serif" font-size="10.00">GamR::Nucleus::LevelScheme</text>
<text text-anchor="middle" x="450.5" y="-141" font-family="Helvetica,sans-Serif" font-size="10.00">Draw::Transition::GetHeadWidthY</text>
</a>
</g>
</g>
<!-- Node2&#45;&gt;Node7 -->
<g id="edge7" class="edge">
<title>Node2&#45;&gt;Node7</title>
<path fill="none" stroke="#63b8ff" d="M556.84,-162.17C548.31,-161.1 539.68,-160.02 531.23,-158.97"/>
<polygon fill="#63b8ff" stroke="#63b8ff" points="556.43,-165.64 566.79,-163.41 557.3,-158.7 556.43,-165.64"/>
</g>
<!-- Node3&#45;&gt;Node4 -->
<g id="edge3" class="edge">
<title>Node3&#45;&gt;Node4</title>
<path fill="none" stroke="#63b8ff" d="M380.27,-226.06C376.74,-224.49 373.29,-222.8 370,-221 331.11,-199.69 293.65,-162.91 274.24,-142.24"/>
<polygon fill="#63b8ff" stroke="#63b8ff" points="379.19,-229.4 389.77,-229.96 381.85,-222.93 379.19,-229.4"/>
</g>
<!-- Node5 -->
<g id="node5" class="node">
<title>Node5</title>
<g id="a_node5"><a xlink:href="../../d9/d6a/class_gam_r_1_1_nucleus_1_1_level_scheme_draw_1_1_transition.html#ad71d5d8d4386caf0427b1ce89516bd93" target="_top" xlink:title=" ">
<polygon fill="white" stroke="#666666" points="149,-142 0,-142 0,-112 149,-112 149,-142"/>
<text text-anchor="start" x="8" y="-130" font-family="Helvetica,sans-Serif" font-size="10.00">GamR::Nucleus::LevelScheme</text>
<text text-anchor="middle" x="74.5" y="-119" font-family="Helvetica,sans-Serif" font-size="10.00">Draw::Transition::Paint</text>
</a>
</g>
</g>
<!-- Node4&#45;&gt;Node5 -->
<g id="edge4" class="edge">
<title>Node4&#45;&gt;Node5</title>
<path fill="none" stroke="#63b8ff" d="M174.61,-127C166.16,-127 157.62,-127 149.29,-127"/>
<polygon fill="#63b8ff" stroke="#63b8ff" points="174.86,-130.5 184.86,-127 174.86,-123.5 174.86,-130.5"/>
</g>
<!-- Node6&#45;&gt;Node4 -->
<g id="edge6" class="edge">
<title>Node6&#45;&gt;Node4</title>
<path fill="none" stroke="#63b8ff" d="M386.96,-178.8C381.2,-176.92 375.47,-174.97 370,-173 344,-163.64 315.22,-151.48 293.69,-142.01"/>
<polygon fill="#63b8ff" stroke="#63b8ff" points="386.06,-182.18 396.65,-181.89 388.19,-175.51 386.06,-182.18"/>
</g>
<!-- Node7&#45;&gt;Node4 -->
<g id="edge8" class="edge">
<title>Node7&#45;&gt;Node4</title>
<path fill="none" stroke="#63b8ff" d="M359.88,-138.57C351.31,-137.57 342.69,-136.57 334.29,-135.59"/>
<polygon fill="#63b8ff" stroke="#63b8ff" points="359.56,-142.05 369.89,-139.73 360.37,-135.1 359.56,-142.05"/>
</g>
<!-- Node8&#45;&gt;Node4 -->
<g id="edge10" class="edge">
<title>Node8&#45;&gt;Node4</title>
<path fill="none" stroke="#63b8ff" d="M559.43,-67.47C504.98,-71.45 432.77,-78.78 370,-92 346.66,-96.91 321.25,-104.87 300.79,-111.95"/>
<polygon fill="#63b8ff" stroke="#63b8ff" points="560.01,-70.94 569.73,-66.74 559.51,-63.96 560.01,-70.94"/>
</g>
<!-- Node9&#45;&gt;Node4 -->
<g id="edge12" class="edge">
<title>Node9&#45;&gt;Node4</title>
<path fill="none" stroke="#63b8ff" d="M559.75,-23.49C504.65,-30.79 431.59,-43.77 370,-66 337.86,-77.6 303.96,-97.91 282.54,-111.89"/>
<polygon fill="#63b8ff" stroke="#63b8ff" points="560.35,-26.94 569.82,-22.19 559.46,-19.99 560.35,-26.94"/>
</g>
</g>
</svg>
        <g id="navigator" transform="translate(0 0)" fill="#404254">
                <rect fill="#f2f5e9" fill-opacity="0.5" stroke="#606060" stroke-width=".5" x="0" y="0" width="60" height="60"/>
                <use id="zoomplus" xlink:href="#zoomPlus" x="17" y="9" onmousedown="handleZoom(evt,'in')"/>
                <use id="zoomminus" xlink:href="#zoomMin" x="42" y="9" onmousedown="handleZoom(evt,'out')"/>
                <use id="reset" xlink:href="#resetDef" x="30" y="36" onmousedown="handleReset()"/>
                <g id="arrowUp" xlink:href="#dirArrow" transform="translate(30 24)" onmousedown="handlePan(0,-1)">
                  <use xlink:href="#rim" fill="#404040">
                        <set attributeName="fill" to="#808080" begin="arrowUp.mouseover" end="arrowUp.mouseout"/>
                  </use>
                  <path fill="none" stroke="white" stroke-width="1.5" d="M0,-3.0v7 M-2.5,-0.5L0,-3.0L2.5,-0.5"/>
                </g>
                <g id="arrowRight" xlink:href="#dirArrow" transform="rotate(90) translate(36 -43)" onmousedown="handlePan(1,0)">
                  <use xlink:href="#rim" fill="#404040">
                        <set attributeName="fill" to="#808080" begin="arrowRight.mouseover" end="arrowRight.mouseout"/>
                  </use>
                  <path fill="none" stroke="white" stroke-width="1.5" d="M0,-3.0v7 M-2.5,-0.5L0,-3.0L2.5,-0.5"/>
                </g>
                <g id="arrowDown" xlink:href="#dirArrow" transform="rotate(180) translate(-30 -48)" onmousedown="handlePan(0,1)">
                  <use xlink:href="#rim" fill="#404040">
                        <set attributeName="fill" to="#808080" begin="arrowDown.mouseover" end="arrowDown.mouseout"/>
                  </use>
                  <path fill="none" stroke="white" stroke-width="1.5" d="M0,-3.0v7 M-2.5,-0.5L0,-3.0L2.5,-0.5"/>
                </g>
                <g id="arrowLeft" xlink:href="#dirArrow" transform="rotate(270) translate(-36 17)" onmousedown="handlePan(-1,0)">
                  <use xlink:href="#rim" fill="#404040">
                        <set attributeName="fill" to="#808080" begin="arrowLeft.mouseover" end="arrowLeft.mouseout"/>
                  </use>
                  <path fill="none" stroke="white" stroke-width="1.5" d="M0,-3.0v7 M-2.5,-0.5L0,-3.0L2.5,-0.5"/>
                </g>
        </g>
        <svg viewBox="0 0 15 15" width="100%" height="30px" preserveAspectRatio="xMaxYMin meet">
         <g id="arrow_out" transform="scale(0.3 0.3)">
          <a xlink:href="class_gam_r_1_1_nucleus_1_1_level_scheme_draw_1_1_transition_abcedf04d6777f5d4f01f76582891414a_icgraph_org.svg" target="_base">
           <rect id="button" ry="5" rx="5" y="6" x="6" height="38" width="38"
                fill="#f2f5e9" fill-opacity="0.5" stroke="#606060" stroke-width="1.0"/>
           <path id="arrow"
             d="M 11.500037,31.436501 C 11.940474,20.09759 22.043105,11.32322 32.158766,21.979434 L 37.068811,17.246167 C 37.068811,17.246167 37.088388,32 37.088388,32 L 22.160133,31.978069 C 22.160133,31.978069 26.997745,27.140456 26.997745,27.140456 C 18.528582,18.264221 13.291696,25.230495 11.500037,31.436501 z"
             style="fill:#404040;"/>
          </a>
         </g>
        </svg>
</svg>
