<?xml version="1.0" encoding="UTF-8" standalone="no"?>
<!DOCTYPE svg PUBLIC "-//W3C//DTD SVG 1.1//EN"
 "http://www.w3.org/Graphics/SVG/1.1/DTD/svg11.dtd">
<!-- Generated by graphviz version 6.0.2 (20221011.1828)
 -->
<!-- Title: GamR::Nucleus::LevelSchemeDraw::Transition::DistancetoPrimitive Pages: 1 -->
<svg width="508pt" height="257pt"
 viewBox="0.00 0.00 508.00 256.50" xmlns="http://www.w3.org/2000/svg" xmlns:xlink="http://www.w3.org/1999/xlink">
<g id="graph0" class="graph" transform="scale(1 1) rotate(0) translate(4 252.5)">
<title>GamR::Nucleus::LevelSchemeDraw::Transition::DistancetoPrimitive</title>
<!-- Node1 -->
<g id="node1" class="node">
<title>Node1</title>
<g id="a_node1"><a xlink:title=" ">
<polygon fill="#999999" stroke="#666666" points="176,-128.5 0,-128.5 0,-98.5 176,-98.5 176,-128.5"/>
<text text-anchor="start" x="8" y="-116.5" font-family="Helvetica,sans-Serif" font-size="10.00">GamR::Nucleus::LevelScheme</text>
<text text-anchor="middle" x="88" y="-105.5" font-family="Helvetica,sans-Serif" font-size="10.00">Draw::Transition::DistancetoPrimitive</text>
</a>
</g>
</g>
<!-- Node2 -->
<g id="node2" class="node">
<title>Node2</title>
<g id="a_node2"><a xlink:href="../../d9/d6a/class_gam_r_1_1_nucleus_1_1_level_scheme_draw_1_1_transition.html#a363fddf60003acf60803f9c139a9f33e" target="_top" xlink:title=" ">
<polygon fill="white" stroke="#666666" points="361,-248.5 212,-248.5 212,-218.5 361,-218.5 361,-248.5"/>
<text text-anchor="start" x="220" y="-236.5" font-family="Helvetica,sans-Serif" font-size="10.00">GamR::Nucleus::LevelScheme</text>
<text text-anchor="middle" x="286.5" y="-225.5" font-family="Helvetica,sans-Serif" font-size="10.00">Draw::Transition::GetX1</text>
</a>
</g>
</g>
<!-- Node1&#45;&gt;Node2 -->
<g id="edge1" class="edge">
<title>Node1&#45;&gt;Node2</title>
<path fill="none" stroke="#63b8ff" d="M104.82,-128.85C127.08,-149.7 169.68,-186.97 212,-209.5 215.43,-211.33 219.03,-213.05 222.72,-214.67"/>
<polygon fill="#63b8ff" stroke="#63b8ff" points="221.41,-217.91 231.99,-218.47 224.07,-211.44 221.41,-217.91"/>
</g>
<!-- Node3 -->
<g id="node3" class="node">
<title>Node3</title>
<g id="a_node3"><a xlink:href="../../d9/d6a/class_gam_r_1_1_nucleus_1_1_level_scheme_draw_1_1_transition.html#a9c11d11111db2f88c9c20abd9539b03f" target="_top" xlink:title=" ">
<polygon fill="white" stroke="#666666" points="361,-200.5 212,-200.5 212,-170.5 361,-170.5 361,-200.5"/>
<text text-anchor="start" x="220" y="-188.5" font-family="Helvetica,sans-Serif" font-size="10.00">GamR::Nucleus::LevelScheme</text>
<text text-anchor="middle" x="286.5" y="-177.5" font-family="Helvetica,sans-Serif" font-size="10.00">Draw::Transition::GetX2</text>
</a>
</g>
</g>
<!-- Node1&#45;&gt;Node3 -->
<g id="edge2" class="edge">
<title>Node1&#45;&gt;Node3</title>
<path fill="none" stroke="#63b8ff" d="M125.93,-128.54C150.25,-138.29 182.87,-151.07 212,-161.5 217.21,-163.37 222.65,-165.25 228.12,-167.11"/>
<polygon fill="#63b8ff" stroke="#63b8ff" points="227.33,-170.54 237.92,-170.4 229.55,-163.9 227.33,-170.54"/>
</g>
<!-- Node4 -->
<g id="node4" class="node">
<title>Node4</title>
<g id="a_node4"><a xlink:href="../../d9/d6a/class_gam_r_1_1_nucleus_1_1_level_scheme_draw_1_1_transition.html#a2c8c938a3ae417d75d773190da2db8c6" target="_top" xlink:title=" ">
<polygon fill="white" stroke="#666666" points="361,-152.5 212,-152.5 212,-122.5 361,-122.5 361,-152.5"/>
<text text-anchor="start" x="220" y="-140.5" font-family="Helvetica,sans-Serif" font-size="10.00">GamR::Nucleus::LevelScheme</text>
<text text-anchor="middle" x="286.5" y="-129.5" font-family="Helvetica,sans-Serif" font-size="10.00">Draw::Transition::GetY1</text>
</a>
</g>
</g>
<!-- Node1&#45;&gt;Node4 -->
<g id="edge3" class="edge">
<title>Node1&#45;&gt;Node4</title>
<path fill="none" stroke="#63b8ff" d="M176.05,-124.13C184.51,-125.17 193.09,-126.21 201.53,-127.24"/>
<polygon fill="#63b8ff" stroke="#63b8ff" points="201.38,-130.75 211.73,-128.49 202.22,-123.8 201.38,-130.75"/>
</g>
<!-- Node5 -->
<g id="node5" class="node">
<title>Node5</title>
<g id="a_node5"><a xlink:href="../../d9/d6a/class_gam_r_1_1_nucleus_1_1_level_scheme_draw_1_1_transition.html#a6153e44bb7e3dd553328f23a38dfbfea" target="_top" xlink:title=" ">
<polygon fill="white" stroke="#666666" points="361,-104.5 212,-104.5 212,-74.5 361,-74.5 361,-104.5"/>
<text text-anchor="start" x="220" y="-92.5" font-family="Helvetica,sans-Serif" font-size="10.00">GamR::Nucleus::LevelScheme</text>
<text text-anchor="middle" x="286.5" y="-81.5" font-family="Helvetica,sans-Serif" font-size="10.00">Draw::Transition::GetY2</text>
</a>
</g>
</g>
<!-- Node1&#45;&gt;Node5 -->
<g id="edge4" class="edge">
<title>Node1&#45;&gt;Node5</title>
<path fill="none" stroke="#63b8ff" d="M176.05,-102.87C184.51,-101.83 193.09,-100.79 201.53,-99.76"/>
<polygon fill="#63b8ff" stroke="#63b8ff" points="202.22,-103.2 211.73,-98.51 201.38,-96.25 202.22,-103.2"/>
</g>
<!-- Node6 -->
<g id="node6" class="node">
<title>Node6</title>
<g id="a_node6"><a xlink:href="../../d0/d17/_abbreviations_8cc.html#addb21d32acc58c64bf98c616bebe77fc" target="_top" xlink:title=" ">
<polygon fill="white" stroke="#666666" points="301,-56 272,-56 272,-37 301,-37 301,-56"/>
<text text-anchor="middle" x="286.5" y="-44" font-family="Helvetica,sans-Serif" font-size="10.00">px</text>
</a>
</g>
</g>
<!-- Node1&#45;&gt;Node6 -->
<g id="edge5" class="edge">
<title>Node1&#45;&gt;Node6</title>
<path fill="none" stroke="#63b8ff" d="M124.39,-98.4C148.75,-88.32 182.01,-75.19 212,-65.5 228.39,-60.2 247.2,-55.36 261.69,-51.89"/>
<polygon fill="#63b8ff" stroke="#63b8ff" points="262.88,-55.21 271.81,-49.52 261.28,-48.4 262.88,-55.21"/>
</g>
<!-- Node8 -->
<g id="node8" class="node">
<title>Node8</title>
<g id="a_node8"><a xlink:href="../../d0/d17/_abbreviations_8cc.html#ada52d00d8b5e1ca20ee1be4110ac3175" target="_top" xlink:title=" ">
<polygon fill="white" stroke="#666666" points="301,-19 272,-19 272,0 301,0 301,-19"/>
<text text-anchor="middle" x="286.5" y="-7" font-family="Helvetica,sans-Serif" font-size="10.00">py</text>
</a>
</g>
</g>
<!-- Node1&#45;&gt;Node8 -->
<g id="edge7" class="edge">
<title>Node1&#45;&gt;Node8</title>
<path fill="none" stroke="#63b8ff" d="M106.06,-98.44C128.72,-79.21 170.7,-46.2 212,-27.5 227.89,-20.31 247.07,-15.73 261.85,-13"/>
<polygon fill="#63b8ff" stroke="#63b8ff" points="262.45,-16.44 271.73,-11.32 261.28,-9.54 262.45,-16.44"/>
</g>
<!-- Node7 -->
<g id="node7" class="node">
<title>Node7</title>
<g id="a_node7"><a xlink:href="../../dc/d89/namespace_gam_r_1_1_spect.html#aab35a8f2d75f6fd8f3175f37c4f5f0cd" target="_top" xlink:title=" ">
<polygon fill="white" stroke="#666666" points="500,-56 397,-56 397,-37 500,-37 500,-56"/>
<text text-anchor="middle" x="448.5" y="-44" font-family="Helvetica,sans-Serif" font-size="10.00">GamR::Spect::ProjX</text>
</a>
</g>
</g>
<!-- Node6&#45;&gt;Node7 -->
<g id="edge6" class="edge">
<title>Node6&#45;&gt;Node7</title>
<path fill="none" stroke="#63b8ff" d="M301.14,-46.5C320.02,-46.5 355.31,-46.5 386.5,-46.5"/>
<polygon fill="#63b8ff" stroke="#63b8ff" points="386.9,-50 396.9,-46.5 386.9,-43 386.9,-50"/>
</g>
<!-- Node9 -->
<g id="node9" class="node">
<title>Node9</title>
<g id="a_node9"><a xlink:href="../../dc/d89/namespace_gam_r_1_1_spect.html#a16ff9da3440d1c99c085b58a70b447b9" target="_top" xlink:title=" ">
<polygon fill="white" stroke="#666666" points="500,-19 397,-19 397,0 500,0 500,-19"/>
<text text-anchor="middle" x="448.5" y="-7" font-family="Helvetica,sans-Serif" font-size="10.00">GamR::Spect::ProjY</text>
</a>
</g>
</g>
<!-- Node8&#45;&gt;Node9 -->
<g id="edge8" class="edge">
<title>Node8&#45;&gt;Node9</title>
<path fill="none" stroke="#63b8ff" d="M301.14,-9.5C320.02,-9.5 355.31,-9.5 386.5,-9.5"/>
<polygon fill="#63b8ff" stroke="#63b8ff" points="386.9,-13 396.9,-9.5 386.9,-6 386.9,-13"/>
</g>
</g>
</svg>
