<?xml version="1.0" encoding="UTF-8" standalone="no"?>
<!DOCTYPE svg PUBLIC "-//W3C//DTD SVG 1.1//EN"
 "http://www.w3.org/Graphics/SVG/1.1/DTD/svg11.dtd">
<!-- Generated by graphviz version 6.0.2 (20221011.1828)
 -->
<!-- Title: GamR::Nucleus::LevelSchemeDraw::Transition::GetWidth Pages: 1 -->
<!--zoomable 182 -->
<svg id="main" version="1.1" xmlns="http://www.w3.org/2000/svg" xmlns:xlink="http://www.w3.org/1999/xlink" xml:space="preserve" onload="init(evt)">
<style type="text/css"><![CDATA[
.edge:hover path { stroke: red; }
.edge:hover polygon { stroke: red; fill: red; }
]]></style>
<script type="text/javascript"><![CDATA[
var edges = document.getElementsByTagName('g');
if (edges && edges.length) {
  for (var i=0;i<edges.length;i++) {
    if (edges[i].id.substr(0,4)=='edge') {
      edges[i].setAttribute('class','edge');
    }
  }
}
]]></script>
        <defs>
                <circle id="rim" cx="0" cy="0" r="7"/>
                <circle id="rim2" cx="0" cy="0" r="3.5"/>
                <g id="zoomPlus">
                        <use xlink:href="#rim" fill="#404040">
                                <set attributeName="fill" to="#808080" begin="zoomplus.mouseover" end="zoomplus.mouseout"/>
                        </use>
                        <path d="M-4,0h8M0,-4v8" fill="none" stroke="white" stroke-width="1.5" pointer-events="none"/>
                </g>
                <g id="zoomMin">
                        <use xlink:href="#rim" fill="#404040">
                                <set attributeName="fill" to="#808080" begin="zoomminus.mouseover" end="zoomminus.mouseout"/>
                        </use>
                        <path d="M-4,0h8" fill="none" stroke="white" stroke-width="1.5" pointer-events="none"/>
                </g>
                <g id="dirArrow">
                        <path fill="none" stroke="white" stroke-width="1.5" d="M0,-3.0v7 M-2.5,-0.5L0,-3.0L2.5,-0.5"/>
                </g>
               <g id="resetDef">
                       <use xlink:href="#rim2" fill="#404040">
                               <set attributeName="fill" to="#808080" begin="reset.mouseover" end="reset.mouseout"/>
                       </use>
               </g>
        </defs>

<script type="text/javascript">
var viewWidth = 530;
var viewHeight = 182;
var sectionId = 'dynsection-17';
</script>
<script xlink:href="../../svgpan.js"/>
<svg id="graph" class="graph">
<g id="viewport">
<title>GamR::Nucleus::LevelSchemeDraw::Transition::GetWidth</title>
<!-- Node1 -->
<g id="node1" class="node">
<title>Node1</title>
<g id="a_node1"><a xlink:title=" ">
<polygon fill="#999999" stroke="#666666" points="149,-102 0,-102 0,-72 149,-72 149,-102"/>
<text text-anchor="start" x="8" y="-90" font-family="Helvetica,sans-Serif" font-size="10.00">GamR::Nucleus::LevelScheme</text>
<text text-anchor="middle" x="74.5" y="-79" font-family="Helvetica,sans-Serif" font-size="10.00">Draw::Transition::GetWidth</text>
</a>
</g>
</g>
<!-- Node2 -->
<g id="node2" class="node">
<title>Node2</title>
<g id="a_node2"><a xlink:href="../../d9/d6a/class_gam_r_1_1_nucleus_1_1_level_scheme_draw_1_1_transition.html#a446c07e96e5a62e16d4f6245b93e8745" target="_top" xlink:title=" ">
<polygon fill="white" stroke="#666666" points="337,-102 185,-102 185,-72 337,-72 337,-102"/>
<text text-anchor="start" x="193" y="-90" font-family="Helvetica,sans-Serif" font-size="10.00">GamR::Nucleus::LevelScheme</text>
<text text-anchor="middle" x="261" y="-79" font-family="Helvetica,sans-Serif" font-size="10.00">Draw::Transition::GetPerpTheta</text>
</a>
</g>
</g>
<!-- Node1&#45;&gt;Node2 -->
<g id="edge1" class="edge">
<title>Node1&#45;&gt;Node2</title>
<path fill="none" stroke="#63b8ff" d="M149.21,-87C157.66,-87 166.31,-87 174.89,-87"/>
<polygon fill="#63b8ff" stroke="#63b8ff" points="174.89,-90.5 184.89,-87 174.89,-83.5 174.89,-90.5"/>
</g>
<!-- Node3 -->
<g id="node3" class="node">
<title>Node3</title>
<g id="a_node3"><a xlink:href="../../d9/d6a/class_gam_r_1_1_nucleus_1_1_level_scheme_draw_1_1_transition.html#a363fddf60003acf60803f9c139a9f33e" target="_top" xlink:title=" ">
<polygon fill="white" stroke="#666666" points="522,-174 373,-174 373,-144 522,-144 522,-174"/>
<text text-anchor="start" x="381" y="-162" font-family="Helvetica,sans-Serif" font-size="10.00">GamR::Nucleus::LevelScheme</text>
<text text-anchor="middle" x="447.5" y="-151" font-family="Helvetica,sans-Serif" font-size="10.00">Draw::Transition::GetX1</text>
</a>
</g>
</g>
<!-- Node2&#45;&gt;Node3 -->
<g id="edge2" class="edge">
<title>Node2&#45;&gt;Node3</title>
<path fill="none" stroke="#63b8ff" d="M294.7,-102.09C316.64,-111.98 346.3,-124.89 373,-135 378.02,-136.9 383.27,-138.79 388.55,-140.63"/>
<polygon fill="#63b8ff" stroke="#63b8ff" points="387.45,-143.96 398.04,-143.88 389.71,-137.33 387.45,-143.96"/>
</g>
<!-- Node4 -->
<g id="node4" class="node">
<title>Node4</title>
<g id="a_node4"><a xlink:href="../../d9/d6a/class_gam_r_1_1_nucleus_1_1_level_scheme_draw_1_1_transition.html#a9c11d11111db2f88c9c20abd9539b03f" target="_top" xlink:title=" ">
<polygon fill="white" stroke="#666666" points="522,-126 373,-126 373,-96 522,-96 522,-126"/>
<text text-anchor="start" x="381" y="-114" font-family="Helvetica,sans-Serif" font-size="10.00">GamR::Nucleus::LevelScheme</text>
<text text-anchor="middle" x="447.5" y="-103" font-family="Helvetica,sans-Serif" font-size="10.00">Draw::Transition::GetX2</text>
</a>
</g>
</g>
<!-- Node2&#45;&gt;Node4 -->
<g id="edge3" class="edge">
<title>Node2&#45;&gt;Node4</title>
<path fill="none" stroke="#63b8ff" d="M337.04,-96.76C345.5,-97.86 354.17,-98.99 362.73,-100.1"/>
<polygon fill="#63b8ff" stroke="#63b8ff" points="362.35,-103.58 372.72,-101.4 363.25,-96.64 362.35,-103.58"/>
</g>
<!-- Node5 -->
<g id="node5" class="node">
<title>Node5</title>
<g id="a_node5"><a xlink:href="../../d9/d6a/class_gam_r_1_1_nucleus_1_1_level_scheme_draw_1_1_transition.html#a2c8c938a3ae417d75d773190da2db8c6" target="_top" xlink:title=" ">
<polygon fill="white" stroke="#666666" points="522,-78 373,-78 373,-48 522,-48 522,-78"/>
<text text-anchor="start" x="381" y="-66" font-family="Helvetica,sans-Serif" font-size="10.00">GamR::Nucleus::LevelScheme</text>
<text text-anchor="middle" x="447.5" y="-55" font-family="Helvetica,sans-Serif" font-size="10.00">Draw::Transition::GetY1</text>
</a>
</g>
</g>
<!-- Node2&#45;&gt;Node5 -->
<g id="edge4" class="edge">
<title>Node2&#45;&gt;Node5</title>
<path fill="none" stroke="#63b8ff" d="M337.04,-77.24C345.5,-76.14 354.17,-75.01 362.73,-73.9"/>
<polygon fill="#63b8ff" stroke="#63b8ff" points="363.25,-77.36 372.72,-72.6 362.35,-70.42 363.25,-77.36"/>
</g>
<!-- Node6 -->
<g id="node6" class="node">
<title>Node6</title>
<g id="a_node6"><a xlink:href="../../d9/d6a/class_gam_r_1_1_nucleus_1_1_level_scheme_draw_1_1_transition.html#a6153e44bb7e3dd553328f23a38dfbfea" target="_top" xlink:title=" ">
<polygon fill="white" stroke="#666666" points="522,-30 373,-30 373,0 522,0 522,-30"/>
<text text-anchor="start" x="381" y="-18" font-family="Helvetica,sans-Serif" font-size="10.00">GamR::Nucleus::LevelScheme</text>
<text text-anchor="middle" x="447.5" y="-7" font-family="Helvetica,sans-Serif" font-size="10.00">Draw::Transition::GetY2</text>
</a>
</g>
</g>
<!-- Node2&#45;&gt;Node6 -->
<g id="edge5" class="edge">
<title>Node2&#45;&gt;Node6</title>
<path fill="none" stroke="#63b8ff" d="M294.7,-71.91C316.64,-62.02 346.3,-49.11 373,-39 378.02,-37.1 383.27,-35.21 388.55,-33.37"/>
<polygon fill="#63b8ff" stroke="#63b8ff" points="389.71,-36.67 398.04,-30.12 387.45,-30.04 389.71,-36.67"/>
</g>
</g>
</svg>
        <g id="navigator" transform="translate(0 0)" fill="#404254">
                <rect fill="#f2f5e9" fill-opacity="0.5" stroke="#606060" stroke-width=".5" x="0" y="0" width="60" height="60"/>
                <use id="zoomplus" xlink:href="#zoomPlus" x="17" y="9" onmousedown="handleZoom(evt,'in')"/>
                <use id="zoomminus" xlink:href="#zoomMin" x="42" y="9" onmousedown="handleZoom(evt,'out')"/>
                <use id="reset" xlink:href="#resetDef" x="30" y="36" onmousedown="handleReset()"/>
                <g id="arrowUp" xlink:href="#dirArrow" transform="translate(30 24)" onmousedown="handlePan(0,-1)">
                  <use xlink:href="#rim" fill="#404040">
                        <set attributeName="fill" to="#808080" begin="arrowUp.mouseover" end="arrowUp.mouseout"/>
                  </use>
                  <path fill="none" stroke="white" stroke-width="1.5" d="M0,-3.0v7 M-2.5,-0.5L0,-3.0L2.5,-0.5"/>
                </g>
                <g id="arrowRight" xlink:href="#dirArrow" transform="rotate(90) translate(36 -43)" onmousedown="handlePan(1,0)">
                  <use xlink:href="#rim" fill="#404040">
                        <set attributeName="fill" to="#808080" begin="arrowRight.mouseover" end="arrowRight.mouseout"/>
                  </use>
                  <path fill="none" stroke="white" stroke-width="1.5" d="M0,-3.0v7 M-2.5,-0.5L0,-3.0L2.5,-0.5"/>
                </g>
                <g id="arrowDown" xlink:href="#dirArrow" transform="rotate(180) translate(-30 -48)" onmousedown="handlePan(0,1)">
                  <use xlink:href="#rim" fill="#404040">
                        <set attributeName="fill" to="#808080" begin="arrowDown.mouseover" end="arrowDown.mouseout"/>
                  </use>
                  <path fill="none" stroke="white" stroke-width="1.5" d="M0,-3.0v7 M-2.5,-0.5L0,-3.0L2.5,-0.5"/>
                </g>
                <g id="arrowLeft" xlink:href="#dirArrow" transform="rotate(270) translate(-36 17)" onmousedown="handlePan(-1,0)">
                  <use xlink:href="#rim" fill="#404040">
                        <set attributeName="fill" to="#808080" begin="arrowLeft.mouseover" end="arrowLeft.mouseout"/>
                  </use>
                  <path fill="none" stroke="white" stroke-width="1.5" d="M0,-3.0v7 M-2.5,-0.5L0,-3.0L2.5,-0.5"/>
                </g>
        </g>
        <svg viewBox="0 0 15 15" width="100%" height="30px" preserveAspectRatio="xMaxYMin meet">
         <g id="arrow_out" transform="scale(0.3 0.3)">
          <a xlink:href="class_gam_r_1_1_nucleus_1_1_level_scheme_draw_1_1_transition_abcedf04d6777f5d4f01f76582891414a_cgraph_org.svg" target="_base">
           <rect id="button" ry="5" rx="5" y="6" x="6" height="38" width="38"
                fill="#f2f5e9" fill-opacity="0.5" stroke="#606060" stroke-width="1.0"/>
           <path id="arrow"
             d="M 11.500037,31.436501 C 11.940474,20.09759 22.043105,11.32322 32.158766,21.979434 L 37.068811,17.246167 C 37.068811,17.246167 37.088388,32 37.088388,32 L 22.160133,31.978069 C 22.160133,31.978069 26.997745,27.140456 26.997745,27.140456 C 18.528582,18.264221 13.291696,25.230495 11.500037,31.436501 z"
             style="fill:#404040;"/>
          </a>
         </g>
        </svg>
</svg>
