<?xml version="1.0" encoding="UTF-8" standalone="no"?>
<!DOCTYPE svg PUBLIC "-//W3C//DTD SVG 1.1//EN"
 "http://www.w3.org/Graphics/SVG/1.1/DTD/svg11.dtd">
<!-- Generated by graphviz version 12.2.1 (20241206.2353)
 -->
<!-- Title: GamR::Nucleus::LevelSchemeDraw::Transition::DistancetoPrimitive Pages: 1 -->
<!--zoomable 260 -->

<svg id="main" version="1.1" xmlns="http://www.w3.org/2000/svg" xmlns:xlink="http://www.w3.org/1999/xlink" xml:space="preserve" onload="init(evt)">

<style type="text/css"><![CDATA[
.node, .edge {opacity: 0.7;}
.node.selected, .edge.selected {opacity: 1;}
.edge:hover path { stroke: red; }
.edge:hover polygon { stroke: red; fill: red; }
]]></style>

<defs>
  <circle id="rim" cx="0" cy="0" r="7"/>
  <circle id="rim2" cx="0" cy="0" r="3.5"/>
  <g id="zoomPlus">
    <use xlink:href="#rim" fill="#404040"><set attributeName="fill" to="#808080" begin="zoomplus.mouseover" end="zoomplus.mouseout"/></use>
    <path d="M-4,0h8M0,-4v8" fill="none" stroke="white" stroke-width="1.5" pointer-events="none"/>
  </g>
  <g id="zoomMin">
    <use xlink:href="#rim" fill="#404040"><set attributeName="fill" to="#808080" begin="zoomminus.mouseover" end="zoomminus.mouseout"/></use>
    <path d="M-4,0h8" fill="none" stroke="white" stroke-width="1.5" pointer-events="none"/>
  </g>
  <g id="arrowUp" transform="translate(30 24)">
    <use xlink:href="#rim"/>
    <path pointer-events="none" fill="none" stroke="white" stroke-width="1.5" d="M0,-3.0v7 M-2.5,-0.5L0,-3.0L2.5,-0.5"/>
  </g>
  <g id="arrowRight" transform="rotate(90) translate(36 -43)">
    <use xlink:href="#rim"/>
    <path pointer-events="none" fill="none" stroke="white" stroke-width="1.5" d="M0,-3.0v7 M-2.5,-0.5L0,-3.0L2.5,-0.5"/>
  </g>
  <g id="arrowDown" transform="rotate(180) translate(-30 -48)">
    <use xlink:href="#rim"/>
    <path pointer-events="none" fill="none" stroke="white" stroke-width="1.5" d="M0,-3.0v7 M-2.5,-0.5L0,-3.0L2.5,-0.5"/>
  </g>
  <g id="arrowLeft" transform="rotate(270) translate(-36 17)">
    <use xlink:href="#rim"/>
    <path pointer-events="none" fill="none" stroke="white" stroke-width="1.5" d="M0,-3.0v7 M-2.5,-0.5L0,-3.0L2.5,-0.5"/>
  </g>
  <g id="resetDef">
    <use xlink:href="#rim2" fill="#404040"><set attributeName="fill" to="#808080" begin="reset.mouseover" end="reset.mouseout"/></use>
  </g>
</defs>
<script type="application/ecmascript">
var viewWidth = 506;
var viewHeight = 260;
var sectionId = 'dynsection-2';
</script>
<script type="application/ecmascript" xlink:href="../../svg.min.js"/>
<svg id="graph" class="graph">
<g id="viewport">
<title>GamR::Nucleus::LevelSchemeDraw::Transition::DistancetoPrimitive</title>
<!-- Node1 -->
<g id="Node000001" class="node">
<title>Node1</title>
<g id="a_Node000001"><a xlink:title=" ">
<polygon fill="#999999" stroke="#666666" points="175,-128.88 0,-128.88 0,-98.38 175,-98.38 175,-128.88"/>
<text text-anchor="start" x="8" y="-115.38" font-family="Helvetica,sans-Serif" font-size="10.00">GamR::Nucleus::LevelScheme</text>
<text text-anchor="middle" x="87.5" y="-104.12" font-family="Helvetica,sans-Serif" font-size="10.00">Draw::Transition::DistancetoPrimitive</text>
</a>
</g>
</g>
<!-- Node2 -->
<g id="Node000002" class="node">
<title>Node2</title>
<g id="a_Node000002"><a xlink:href="../../d9/d6a/class_gam_r_1_1_nucleus_1_1_level_scheme_draw_1_1_transition.html#a363fddf60003acf60803f9c139a9f33e" target="_top" xlink:title=" ">
<polygon fill="white" stroke="#666666" points="359.75,-251.88 211,-251.88 211,-221.38 359.75,-221.38 359.75,-251.88"/>
<text text-anchor="start" x="219" y="-238.38" font-family="Helvetica,sans-Serif" font-size="10.00">GamR::Nucleus::LevelScheme</text>
<text text-anchor="middle" x="285.38" y="-227.12" font-family="Helvetica,sans-Serif" font-size="10.00">Draw::Transition::GetX1</text>
</a>
</g>
</g>
<!-- Node1&#45;&gt;Node2 -->
<g id="edge1_Node000001_Node000002" class="edge">
<title>Node1&#45;&gt;Node2</title>
<g id="a_edge1_Node000001_Node000002"><a xlink:title=" ">
<path fill="none" stroke="#63b8ff" d="M104.22,-129.24C126.35,-150.47 168.73,-188.45 211,-211.62 214.19,-213.37 217.52,-215.03 220.92,-216.59"/>
<polygon fill="#63b8ff" stroke="#63b8ff" points="219.35,-219.73 229.93,-220.43 222.1,-213.29 219.35,-219.73"/>
</a>
</g>
</g>
<!-- Node3 -->
<g id="Node000003" class="node">
<title>Node3</title>
<g id="a_Node000003"><a xlink:href="../../d9/d6a/class_gam_r_1_1_nucleus_1_1_level_scheme_draw_1_1_transition.html#a9c11d11111db2f88c9c20abd9539b03f" target="_top" xlink:title=" ">
<polygon fill="white" stroke="#666666" points="359.75,-202.88 211,-202.88 211,-172.38 359.75,-172.38 359.75,-202.88"/>
<text text-anchor="start" x="219" y="-189.38" font-family="Helvetica,sans-Serif" font-size="10.00">GamR::Nucleus::LevelScheme</text>
<text text-anchor="middle" x="285.38" y="-178.12" font-family="Helvetica,sans-Serif" font-size="10.00">Draw::Transition::GetX2</text>
</a>
</g>
</g>
<!-- Node1&#45;&gt;Node3 -->
<g id="edge2_Node000001_Node000003" class="edge">
<title>Node1&#45;&gt;Node3</title>
<g id="a_edge2_Node000001_Node000003"><a xlink:title=" ">
<path fill="none" stroke="#63b8ff" d="M126.38,-129.37C150.48,-139.24 182.43,-152.05 211,-162.62 216.02,-164.48 221.25,-166.37 226.51,-168.22"/>
<polygon fill="#63b8ff" stroke="#63b8ff" points="225.25,-171.49 235.85,-171.48 227.56,-164.88 225.25,-171.49"/>
</a>
</g>
</g>
<!-- Node4 -->
<g id="Node000004" class="node">
<title>Node4</title>
<g id="a_Node000004"><a xlink:href="../../d9/d6a/class_gam_r_1_1_nucleus_1_1_level_scheme_draw_1_1_transition.html#a2c8c938a3ae417d75d773190da2db8c6" target="_top" xlink:title=" ">
<polygon fill="white" stroke="#666666" points="359.75,-153.88 211,-153.88 211,-123.38 359.75,-123.38 359.75,-153.88"/>
<text text-anchor="start" x="219" y="-140.38" font-family="Helvetica,sans-Serif" font-size="10.00">GamR::Nucleus::LevelScheme</text>
<text text-anchor="middle" x="285.38" y="-129.12" font-family="Helvetica,sans-Serif" font-size="10.00">Draw::Transition::GetY1</text>
</a>
</g>
</g>
<!-- Node1&#45;&gt;Node4 -->
<g id="edge3_Node000001_Node000004" class="edge">
<title>Node1&#45;&gt;Node4</title>
<g id="a_edge3_Node000001_Node000004"><a xlink:title=" ">
<path fill="none" stroke="#63b8ff" d="M175.27,-124.7C183.27,-125.72 191.37,-126.75 199.35,-127.77"/>
<polygon fill="#63b8ff" stroke="#63b8ff" points="198.67,-131.21 209.03,-129.01 199.56,-124.27 198.67,-131.21"/>
</a>
</g>
</g>
<!-- Node5 -->
<g id="Node000005" class="node">
<title>Node5</title>
<g id="a_Node000005"><a xlink:href="../../d9/d6a/class_gam_r_1_1_nucleus_1_1_level_scheme_draw_1_1_transition.html#a6153e44bb7e3dd553328f23a38dfbfea" target="_top" xlink:title=" ">
<polygon fill="white" stroke="#666666" points="359.75,-104.88 211,-104.88 211,-74.38 359.75,-74.38 359.75,-104.88"/>
<text text-anchor="start" x="219" y="-91.38" font-family="Helvetica,sans-Serif" font-size="10.00">GamR::Nucleus::LevelScheme</text>
<text text-anchor="middle" x="285.38" y="-80.12" font-family="Helvetica,sans-Serif" font-size="10.00">Draw::Transition::GetY2</text>
</a>
</g>
</g>
<!-- Node1&#45;&gt;Node5 -->
<g id="edge4_Node000001_Node000005" class="edge">
<title>Node1&#45;&gt;Node5</title>
<g id="a_edge4_Node000001_Node000005"><a xlink:title=" ">
<path fill="none" stroke="#63b8ff" d="M175.27,-102.99C183.27,-102.01 191.37,-101.02 199.35,-100.04"/>
<polygon fill="#63b8ff" stroke="#63b8ff" points="199.53,-103.55 209.03,-98.86 198.68,-96.6 199.53,-103.55"/>
</a>
</g>
</g>
<!-- Node6 -->
<g id="Node000006" class="node">
<title>Node6</title>
<g id="a_Node000006"><a xlink:href="../../d0/d17/_abbreviations_8cc.html#addb21d32acc58c64bf98c616bebe77fc" target="_top" xlink:title=" ">
<polygon fill="white" stroke="#666666" points="299.77,-56.25 270.98,-56.25 270.98,-37 299.77,-37 299.77,-56.25"/>
<text text-anchor="middle" x="285.38" y="-42.75" font-family="Helvetica,sans-Serif" font-size="10.00">px</text>
</a>
</g>
</g>
<!-- Node1&#45;&gt;Node6 -->
<g id="edge5_Node000001_Node000006" class="edge">
<title>Node1&#45;&gt;Node6</title>
<g id="a_edge5_Node000001_Node000006"><a xlink:title=" ">
<path fill="none" stroke="#63b8ff" d="M125.07,-97.96C149.2,-87.96 181.67,-75.13 211,-65.62 227.04,-60.43 245.4,-55.67 259.75,-52.22"/>
<polygon fill="#63b8ff" stroke="#63b8ff" points="260.3,-55.68 269.24,-49.99 258.7,-48.87 260.3,-55.68"/>
</a>
</g>
</g>
<!-- Node8 -->
<g id="Node000008" class="node">
<title>Node8</title>
<g id="a_Node000008"><a xlink:href="../../d0/d17/_abbreviations_8cc.html#ada52d00d8b5e1ca20ee1be4110ac3175" target="_top" xlink:title=" ">
<polygon fill="white" stroke="#666666" points="299.77,-19.25 270.98,-19.25 270.98,0 299.77,0 299.77,-19.25"/>
<text text-anchor="middle" x="285.38" y="-5.75" font-family="Helvetica,sans-Serif" font-size="10.00">py</text>
</a>
</g>
</g>
<!-- Node1&#45;&gt;Node8 -->
<g id="edge7_Node000001_Node000008" class="edge">
<title>Node1&#45;&gt;Node8</title>
<g id="a_edge7_Node000001_Node000008"><a xlink:title=" ">
<path fill="none" stroke="#63b8ff" d="M106.27,-97.89C129,-78.58 170.31,-46.11 211,-27.62 226.39,-20.63 244.89,-16.12 259.46,-13.36"/>
<polygon fill="#63b8ff" stroke="#63b8ff" points="259.87,-16.84 269.13,-11.7 258.68,-9.94 259.87,-16.84"/>
</a>
</g>
</g>
<!-- Node7 -->
<g id="Node000007" class="node">
<title>Node7</title>
<g id="a_Node000007"><a xlink:href="../../dc/d89/namespace_gam_r_1_1_spect.html#aab35a8f2d75f6fd8f3175f37c4f5f0cd" target="_top" xlink:title=" ">
<polygon fill="white" stroke="#666666" points="498,-56.25 395.75,-56.25 395.75,-37 498,-37 498,-56.25"/>
<text text-anchor="middle" x="446.88" y="-42.75" font-family="Helvetica,sans-Serif" font-size="10.00">GamR::Spect::ProjX</text>
</a>
</g>
</g>
<!-- Node6&#45;&gt;Node7 -->
<g id="edge6_Node000006_Node000007" class="edge">
<title>Node6&#45;&gt;Node7</title>
<g id="a_edge6_Node000006_Node000007"><a xlink:title=" ">
<path fill="none" stroke="#63b8ff" d="M300.25,-46.62C318.95,-46.62 353.44,-46.62 384.16,-46.62"/>
<polygon fill="#63b8ff" stroke="#63b8ff" points="383.76,-50.13 393.76,-46.63 383.76,-43.13 383.76,-50.13"/>
</a>
</g>
</g>
<!-- Node9 -->
<g id="Node000009" class="node">
<title>Node9</title>
<g id="a_Node000009"><a xlink:href="../../dc/d89/namespace_gam_r_1_1_spect.html#a16ff9da3440d1c99c085b58a70b447b9" target="_top" xlink:title=" ">
<polygon fill="white" stroke="#666666" points="498,-19.25 395.75,-19.25 395.75,0 498,0 498,-19.25"/>
<text text-anchor="middle" x="446.88" y="-5.75" font-family="Helvetica,sans-Serif" font-size="10.00">GamR::Spect::ProjY</text>
</a>
</g>
</g>
<!-- Node8&#45;&gt;Node9 -->
<g id="edge8_Node000008_Node000009" class="edge">
<title>Node8&#45;&gt;Node9</title>
<g id="a_edge8_Node000008_Node000009"><a xlink:title=" ">
<path fill="none" stroke="#63b8ff" d="M300.25,-9.62C318.95,-9.62 353.44,-9.62 384.16,-9.62"/>
<polygon fill="#63b8ff" stroke="#63b8ff" points="383.76,-13.13 393.76,-9.63 383.76,-6.13 383.76,-13.13"/>
</a>
</g>
</g>
</g>
</svg>

<g id="navigator" transform="translate(0 0)" fill="#404254">
  <rect fill="#f2f5e9" fill-opacity="0.5" stroke="#606060" stroke-width=".5" x="0" y="0" width="60" height="60"/>
  <use id="zoomplus" xlink:href="#zoomPlus" x="17" y="9" onmousedown="handleZoom(evt,'in')"/>
  <use id="zoomminus" xlink:href="#zoomMin" x="42" y="9" onmousedown="handleZoom(evt,'out')"/>
  <use id="reset" xlink:href="#resetDef" x="30" y="36" onmousedown="handleReset()"/>
   <use id="arrowup" xlink:href="#arrowUp" x="0" y="0" onmousedown="handlePan(0,-1)"/>
  <use id="arrowright" xlink:href="#arrowRight" x="0" y="0" onmousedown="handlePan(1,0)"/>
  <use id="arrowdown" xlink:href="#arrowDown" x="0" y="0" onmousedown="handlePan(0,1)"/>
  <use id="arrowleft" xlink:href="#arrowLeft" x="0" y="0" onmousedown="handlePan(-1,0)"/>
</g>
<svg viewBox="0 0 15 15" width="100%" height="30px" preserveAspectRatio="xMaxYMin meet">
 <g id="arrow_out" transform="scale(0.3 0.3)">
  <a xlink:href="class_gam_r_1_1_nucleus_1_1_level_scheme_draw_1_1_transition_ab2488df573a655a860d1aad03120041f_cgraph_org.svg" target="_base">
   <rect id="button" ry="5" rx="5" y="6" x="6" height="38" width="38"
        fill="#f2f5e9" fill-opacity="0.5" stroke="#606060" stroke-width="1.0"/>
   <path id="arrow"
     d="M 11.500037,31.436501 C 11.940474,20.09759 22.043105,11.32322 32.158766,21.979434 L 37.068811,17.246167 C 37.068811,17.246167 37.088388,32 37.088388,32 L 22.160133,31.978069 C 22.160133,31.978069 26.997745,27.140456 26.997745,27.140456 C 18.528582,18.264221 13.291696,25.230495 11.500037,31.436501 z"
     style="fill:#404040;"/>
  </a>
 </g>
</svg>

<style type='text/css'>
<![CDATA[
[data-mouse-over-selected='false'] { opacity: 0.7; }
[data-mouse-over-selected='true']  { opacity: 1.0; }
]]>
</style>
<script type="application/ecmascript"><![CDATA[
document.addEventListener('DOMContentLoaded', (event) => {
  highlightEdges();
  highlightAdjacentNodes();
});
]]></script>
</svg>
