<?xml version="1.0" encoding="UTF-8" standalone="no"?>
<!DOCTYPE svg PUBLIC "-//W3C//DTD SVG 1.1//EN"
 "http://www.w3.org/Graphics/SVG/1.1/DTD/svg11.dtd">
<!-- Generated by graphviz version 2.50.0 (20220203.2022)
 -->
<!-- Title: src/lib/angdist/WignerD.hh Pages: 1 -->
<svg width="392pt" height="140pt"
 viewBox="0.00 0.00 392.00 140.00" xmlns="http://www.w3.org/2000/svg" xmlns:xlink="http://www.w3.org/1999/xlink">
<g id="graph0" class="graph" transform="scale(1 1) rotate(0) translate(4 136)">
<title>src/lib/angdist/WignerD.hh</title>
<polygon fill="white" stroke="transparent" points="-4,4 -4,-136 388,-136 388,4 -4,4"/>
<!-- Node1 -->
<g id="node1" class="node">
<title>Node1</title>
<g id="a_node1"><a xlink:title=" ">
<polygon fill="#bfbfbf" stroke="black" points="26.5,-112.5 26.5,-131.5 156.5,-131.5 156.5,-112.5 26.5,-112.5"/>
<text text-anchor="middle" x="91.5" y="-119.5" font-family="Helvetica,sans-Serif" font-size="10.00">src/lib/angdist/WignerD.hh</text>
</a>
</g>
</g>
<!-- Node2 -->
<g id="node2" class="node">
<title>Node2</title>
<g id="a_node2"><a xlink:title=" ">
<polygon fill="white" stroke="#bfbfbf" points="0,-0.5 0,-19.5 53,-19.5 53,-0.5 0,-0.5"/>
<text text-anchor="middle" x="26.5" y="-7.5" font-family="Helvetica,sans-Serif" font-size="10.00">complex</text>
</a>
</g>
</g>
<!-- Node1&#45;&gt;Node2 -->
<g id="edge1" class="edge">
<title>Node1&#45;&gt;Node2</title>
<path fill="none" stroke="midnightblue" d="M86.4,-112.37C75.72,-94.3 50.83,-52.18 36.73,-28.31"/>
<polygon fill="midnightblue" stroke="midnightblue" points="39.68,-26.42 31.58,-19.59 33.65,-29.98 39.68,-26.42"/>
</g>
<!-- Node3 -->
<g id="node3" class="node">
<title>Node3</title>
<g id="a_node3"><a xlink:href="../../d7/db9/_utilities_8hh.html" target="_top" xlink:title=" ">
<polygon fill="white" stroke="black" points="114,-56.5 114,-75.5 197,-75.5 197,-56.5 114,-56.5"/>
<text text-anchor="middle" x="155.5" y="-63.5" font-family="Helvetica,sans-Serif" font-size="10.00">utils/Utilities.hh</text>
</a>
</g>
</g>
<!-- Node1&#45;&gt;Node3 -->
<g id="edge2" class="edge">
<title>Node1&#45;&gt;Node3</title>
<path fill="none" stroke="midnightblue" d="M101.78,-112.32C111.34,-104.26 125.78,-92.08 137.28,-82.37"/>
<polygon fill="midnightblue" stroke="midnightblue" points="139.64,-84.96 145.03,-75.83 135.13,-79.61 139.64,-84.96"/>
</g>
<!-- Node3&#45;&gt;Node2 -->
<g id="edge5" class="edge">
<title>Node3&#45;&gt;Node2</title>
<path fill="none" stroke="midnightblue" d="M135.06,-56.44C113.83,-47.56 80.4,-33.56 56.25,-23.45"/>
<polygon fill="midnightblue" stroke="midnightblue" points="57.42,-20.15 46.84,-19.52 54.72,-26.61 57.42,-20.15"/>
</g>
<!-- Node4 -->
<g id="node4" class="node">
<title>Node4</title>
<g id="a_node4"><a xlink:title=" ">
<polygon fill="white" stroke="#bfbfbf" points="71,-0.5 71,-19.5 112,-19.5 112,-0.5 71,-0.5"/>
<text text-anchor="middle" x="91.5" y="-7.5" font-family="Helvetica,sans-Serif" font-size="10.00">string</text>
</a>
</g>
</g>
<!-- Node3&#45;&gt;Node4 -->
<g id="edge3" class="edge">
<title>Node3&#45;&gt;Node4</title>
<path fill="none" stroke="midnightblue" d="M145.22,-56.32C135.66,-48.26 121.22,-36.08 109.72,-26.37"/>
<polygon fill="midnightblue" stroke="midnightblue" points="111.87,-23.61 101.97,-19.83 107.36,-28.96 111.87,-23.61"/>
</g>
<!-- Node5 -->
<g id="node5" class="node">
<title>Node5</title>
<g id="a_node5"><a xlink:title=" ">
<polygon fill="white" stroke="#bfbfbf" points="130.5,-0.5 130.5,-19.5 180.5,-19.5 180.5,-0.5 130.5,-0.5"/>
<text text-anchor="middle" x="155.5" y="-7.5" font-family="Helvetica,sans-Serif" font-size="10.00">fstream</text>
</a>
</g>
</g>
<!-- Node3&#45;&gt;Node5 -->
<g id="edge4" class="edge">
<title>Node3&#45;&gt;Node5</title>
<path fill="none" stroke="midnightblue" d="M155.5,-56.08C155.5,-49.01 155.5,-38.86 155.5,-29.99"/>
<polygon fill="midnightblue" stroke="midnightblue" points="159,-29.75 155.5,-19.75 152,-29.75 159,-29.75"/>
</g>
<!-- Node6 -->
<g id="node6" class="node">
<title>Node6</title>
<g id="a_node6"><a xlink:title=" ">
<polygon fill="white" stroke="#bfbfbf" points="199,-0.5 199,-19.5 262,-19.5 262,-0.5 199,-0.5"/>
<text text-anchor="middle" x="230.5" y="-7.5" font-family="Helvetica,sans-Serif" font-size="10.00">TCanvas.h</text>
</a>
</g>
</g>
<!-- Node3&#45;&gt;Node6 -->
<g id="edge6" class="edge">
<title>Node3&#45;&gt;Node6</title>
<path fill="none" stroke="midnightblue" d="M167.55,-56.32C178.96,-48.11 196.33,-35.6 209.93,-25.81"/>
<polygon fill="midnightblue" stroke="midnightblue" points="212.16,-28.52 218.23,-19.83 208.07,-22.84 212.16,-28.52"/>
</g>
<!-- Node7 -->
<g id="node7" class="node">
<title>Node7</title>
<g id="a_node7"><a xlink:title=" ">
<polygon fill="white" stroke="#bfbfbf" points="280,-0.5 280,-19.5 323,-19.5 323,-0.5 280,-0.5"/>
<text text-anchor="middle" x="301.5" y="-7.5" font-family="Helvetica,sans-Serif" font-size="10.00">TH1.h</text>
</a>
</g>
</g>
<!-- Node3&#45;&gt;Node7 -->
<g id="edge7" class="edge">
<title>Node3&#45;&gt;Node7</title>
<path fill="none" stroke="midnightblue" d="M178.63,-56.44C203.41,-47.28 242.87,-32.68 270.36,-22.52"/>
<polygon fill="midnightblue" stroke="midnightblue" points="271.74,-25.74 279.9,-18.99 269.31,-19.17 271.74,-25.74"/>
</g>
<!-- Node8 -->
<g id="node8" class="node">
<title>Node8</title>
<g id="a_node8"><a xlink:title=" ">
<polygon fill="white" stroke="#bfbfbf" points="341,-0.5 341,-19.5 384,-19.5 384,-0.5 341,-0.5"/>
<text text-anchor="middle" x="362.5" y="-7.5" font-family="Helvetica,sans-Serif" font-size="10.00">TH2.h</text>
</a>
</g>
</g>
<!-- Node3&#45;&gt;Node8 -->
<g id="edge8" class="edge">
<title>Node3&#45;&gt;Node8</title>
<path fill="none" stroke="midnightblue" d="M190.88,-56.47C224.66,-48.23 277.23,-35.13 331.17,-20.29"/>
<polygon fill="midnightblue" stroke="midnightblue" points="332.2,-23.64 340.9,-17.6 330.33,-16.89 332.2,-23.64"/>
</g>
</g>
</svg>
