<?xml version="1.0" encoding="UTF-8" standalone="no"?>
<!DOCTYPE svg PUBLIC "-//W3C//DTD SVG 1.1//EN"
 "http://www.w3.org/Graphics/SVG/1.1/DTD/svg11.dtd">
<!-- Generated by graphviz version 2.49.3 (20211023.0002)
 -->
<!-- Title: bp Pages: 1 -->
<svg width="543pt" height="456pt"
 viewBox="0.00 0.00 543.00 456.00" xmlns="http://www.w3.org/2000/svg" xmlns:xlink="http://www.w3.org/1999/xlink">
<g id="graph0" class="graph" transform="scale(1 1) rotate(0) translate(4 452)">
<title>bp</title>
<polygon fill="white" stroke="transparent" points="-4,4 -4,-452 539,-452 539,4 -4,4"/>
<!-- Node1 -->
<g id="node1" class="node">
<title>Node1</title>
<g id="a_node1"><a xlink:title=" ">
<polygon fill="#bfbfbf" stroke="black" points="0,-239.5 0,-258.5 29,-258.5 29,-239.5 0,-239.5"/>
<text text-anchor="middle" x="14.5" y="-246.5" font-family="Helvetica,sans-Serif" font-size="10.00">bp</text>
</a>
</g>
</g>
<!-- Node2 -->
<g id="node2" class="node">
<title>Node2</title>
<g id="a_node2"><a xlink:href="../../d0/d74/group___t_k.html#gaf641b8c1f292803f8695310a0aee1896" target="_top" xlink:title=" ">
<polygon fill="white" stroke="black" points="65,-239.5 65,-258.5 175,-258.5 175,-239.5 65,-239.5"/>
<text text-anchor="middle" x="120" y="-246.5" font-family="Helvetica,sans-Serif" font-size="10.00">GamR::TK::FitBPeak</text>
</a>
</g>
</g>
<!-- Node1&#45;&gt;Node2 -->
<g id="edge1" class="edge">
<title>Node1&#45;&gt;Node2</title>
<path fill="none" stroke="midnightblue" d="M29.03,-249C35.94,-249 44.91,-249 54.51,-249"/>
<polygon fill="midnightblue" stroke="midnightblue" points="54.67,-252.5 64.67,-249 54.67,-245.5 54.67,-252.5"/>
</g>
<!-- Node3 -->
<g id="node3" class="node">
<title>Node3</title>
<g id="a_node3"><a xlink:href="../../d0/db7/namespace_gam_r_1_1_utils.html#a31f74a9ca644d560dc14e19c4dbd773b" target="_top" xlink:title=" ">
<polygon fill="white" stroke="black" points="212.5,-258.5 212.5,-277.5 334.5,-277.5 334.5,-258.5 212.5,-258.5"/>
<text text-anchor="middle" x="273.5" y="-265.5" font-family="Helvetica,sans-Serif" font-size="10.00">GamR::Utils::GetHist1D</text>
</a>
</g>
</g>
<!-- Node2&#45;&gt;Node3 -->
<g id="edge2" class="edge">
<title>Node2&#45;&gt;Node3</title>
<path fill="none" stroke="midnightblue" d="M175.27,-255.81C184.03,-256.9 193.2,-258.06 202.28,-259.19"/>
<polygon fill="midnightblue" stroke="midnightblue" points="202.09,-262.7 212.44,-260.47 202.96,-255.75 202.09,-262.7"/>
</g>
<!-- Node4 -->
<g id="node4" class="node">
<title>Node4</title>
<g id="a_node4"><a xlink:href="../../d0/d74/group___t_k.html#gaa496d15cf9600fa5790ff50c9392b0fd" target="_top" xlink:title=" ">
<polygon fill="white" stroke="black" points="211,-220.5 211,-239.5 336,-239.5 336,-220.5 211,-220.5"/>
<text text-anchor="middle" x="273.5" y="-227.5" font-family="Helvetica,sans-Serif" font-size="10.00">GamR::TK::BPeak::Print</text>
</a>
</g>
</g>
<!-- Node2&#45;&gt;Node4 -->
<g id="edge3" class="edge">
<title>Node2&#45;&gt;Node4</title>
<path fill="none" stroke="midnightblue" d="M175.27,-242.19C183.57,-241.15 192.24,-240.07 200.84,-238.99"/>
<polygon fill="midnightblue" stroke="midnightblue" points="201.4,-242.44 210.89,-237.73 200.53,-235.5 201.4,-242.44"/>
</g>
<!-- Node5 -->
<g id="node5" class="node">
<title>Node5</title>
<g id="a_node5"><a xlink:href="../../d0/d74/group___t_k.html#ga0133d6b49ae4051d478518e61ae0c8a5" target="_top" xlink:title=" ">
<polygon fill="white" stroke="black" points="383,-428.5 383,-447.5 524,-447.5 524,-428.5 383,-428.5"/>
<text text-anchor="middle" x="453.5" y="-435.5" font-family="Helvetica,sans-Serif" font-size="10.00">GamR::TK::BPeak::GetAmp</text>
</a>
</g>
</g>
<!-- Node4&#45;&gt;Node5 -->
<g id="edge4" class="edge">
<title>Node4&#45;&gt;Node5</title>
<path fill="none" stroke="midnightblue" d="M323.46,-239.56C328.14,-242.03 332.46,-245.12 336,-249 388.07,-306.04 318.02,-363.76 372,-419 373.28,-420.31 374.62,-421.53 376.03,-422.68"/>
<polygon fill="midnightblue" stroke="midnightblue" points="374.44,-425.82 384.71,-428.42 378.3,-419.98 374.44,-425.82"/>
</g>
<!-- Node6 -->
<g id="node6" class="node">
<title>Node6</title>
<g id="a_node6"><a xlink:href="../../d0/d74/group___t_k.html#gaa14fdc374518d186c18b0aabeb91898f" target="_top" xlink:title=" ">
<polygon fill="white" stroke="black" points="372,-390.5 372,-409.5 535,-409.5 535,-390.5 372,-390.5"/>
<text text-anchor="middle" x="453.5" y="-397.5" font-family="Helvetica,sans-Serif" font-size="10.00">GamR::TK::BPeak::GetAmpError</text>
</a>
</g>
</g>
<!-- Node4&#45;&gt;Node6 -->
<g id="edge5" class="edge">
<title>Node4&#45;&gt;Node6</title>
<path fill="none" stroke="midnightblue" d="M322.94,-239.61C327.78,-242.07 332.27,-245.14 336,-249 378.27,-292.71 328.27,-338.75 372,-381 373.47,-382.42 375.03,-383.74 376.66,-384.97"/>
<polygon fill="midnightblue" stroke="midnightblue" points="374.99,-388.06 385.33,-390.38 378.7,-382.12 374.99,-388.06"/>
</g>
<!-- Node7 -->
<g id="node7" class="node">
<title>Node7</title>
<g id="a_node7"><a xlink:href="../../d0/d74/group___t_k.html#gad927a2d29f50b92c440bc6ece786ef72" target="_top" xlink:title=" ">
<polygon fill="white" stroke="black" points="382.5,-352.5 382.5,-371.5 524.5,-371.5 524.5,-352.5 382.5,-352.5"/>
<text text-anchor="middle" x="453.5" y="-359.5" font-family="Helvetica,sans-Serif" font-size="10.00">GamR::TK::BPeak::GetArea</text>
</a>
</g>
</g>
<!-- Node4&#45;&gt;Node7 -->
<g id="edge6" class="edge">
<title>Node4&#45;&gt;Node7</title>
<path fill="none" stroke="midnightblue" d="M321.65,-239.55C326.9,-242.01 331.84,-245.11 336,-249 368.66,-279.57 338.32,-313.55 372,-343 373.76,-344.54 375.61,-345.95 377.55,-347.26"/>
<polygon fill="midnightblue" stroke="midnightblue" points="376.09,-350.45 386.52,-352.32 379.53,-344.36 376.09,-350.45"/>
</g>
<!-- Node8 -->
<g id="node8" class="node">
<title>Node8</title>
<g id="a_node8"><a xlink:href="../../d0/d74/group___t_k.html#ga4aaec131e418c8788ab191a4eb6a7fa9" target="_top" xlink:title=" ">
<polygon fill="white" stroke="black" points="382.5,-303 382.5,-333 524.5,-333 524.5,-303 382.5,-303"/>
<text text-anchor="start" x="390.5" y="-321" font-family="Helvetica,sans-Serif" font-size="10.00">GamR::TK::BPeak::GetArea</text>
<text text-anchor="middle" x="453.5" y="-310" font-family="Helvetica,sans-Serif" font-size="10.00">Error</text>
</a>
</g>
</g>
<!-- Node4&#45;&gt;Node8 -->
<g id="edge7" class="edge">
<title>Node4&#45;&gt;Node8</title>
<path fill="none" stroke="midnightblue" d="M317.02,-239.53C323.68,-242.02 330.25,-245.13 336,-249 356.96,-263.11 351.05,-278.88 372,-293 374.94,-294.98 378.05,-296.81 381.26,-298.5"/>
<polygon fill="midnightblue" stroke="midnightblue" points="380.01,-301.79 390.55,-302.91 383.01,-295.46 380.01,-301.79"/>
</g>
<!-- Node9 -->
<g id="node9" class="node">
<title>Node9</title>
<g id="a_node9"><a xlink:href="../../d0/d74/group___t_k.html#ga2bc60e269306be300511aa630417506d" target="_top" xlink:title=" ">
<polygon fill="white" stroke="black" points="382.5,-264.5 382.5,-283.5 524.5,-283.5 524.5,-264.5 382.5,-264.5"/>
<text text-anchor="middle" x="453.5" y="-271.5" font-family="Helvetica,sans-Serif" font-size="10.00">GamR::TK::BPeak::GetCent</text>
</a>
</g>
</g>
<!-- Node4&#45;&gt;Node9 -->
<g id="edge8" class="edge">
<title>Node4&#45;&gt;Node9</title>
<path fill="none" stroke="midnightblue" d="M311.03,-239.55C329.32,-244.28 351.81,-250.03 372,-255 381.52,-257.34 391.69,-259.79 401.48,-262.11"/>
<polygon fill="midnightblue" stroke="midnightblue" points="400.97,-265.59 411.51,-264.49 402.58,-258.78 400.97,-265.59"/>
</g>
<!-- Node10 -->
<g id="node10" class="node">
<title>Node10</title>
<g id="a_node10"><a xlink:href="../../d0/d74/group___t_k.html#ga32d918b4d80ea9e892c18f5936ae1c49" target="_top" xlink:title=" ">
<polygon fill="white" stroke="black" points="382.5,-215 382.5,-245 524.5,-245 524.5,-215 382.5,-215"/>
<text text-anchor="start" x="390.5" y="-233" font-family="Helvetica,sans-Serif" font-size="10.00">GamR::TK::BPeak::GetCent</text>
<text text-anchor="middle" x="453.5" y="-222" font-family="Helvetica,sans-Serif" font-size="10.00">Error</text>
</a>
</g>
</g>
<!-- Node4&#45;&gt;Node10 -->
<g id="edge9" class="edge">
<title>Node4&#45;&gt;Node10</title>
<path fill="none" stroke="midnightblue" d="M336.26,-230C347.87,-230 360.16,-230 372.24,-230"/>
<polygon fill="midnightblue" stroke="midnightblue" points="372.31,-233.5 382.31,-230 372.31,-226.5 372.31,-233.5"/>
</g>
<!-- Node11 -->
<g id="node11" class="node">
<title>Node11</title>
<g id="a_node11"><a xlink:href="../../d0/d74/group___t_k.html#ga86fb9a62fe918832b4fb6f6ae42f1965" target="_top" xlink:title=" ">
<polygon fill="white" stroke="black" points="377.5,-176.5 377.5,-195.5 529.5,-195.5 529.5,-176.5 377.5,-176.5"/>
<text text-anchor="middle" x="453.5" y="-183.5" font-family="Helvetica,sans-Serif" font-size="10.00">GamR::TK::BPeak::GetCounts</text>
</a>
</g>
</g>
<!-- Node4&#45;&gt;Node11 -->
<g id="edge10" class="edge">
<title>Node4&#45;&gt;Node11</title>
<path fill="none" stroke="midnightblue" d="M313.12,-220.45C339.83,-213.85 375.56,-205.02 404.16,-197.95"/>
<polygon fill="midnightblue" stroke="midnightblue" points="405.08,-201.33 413.95,-195.53 403.4,-194.53 405.08,-201.33"/>
</g>
<!-- Node12 -->
<g id="node12" class="node">
<title>Node12</title>
<g id="a_node12"><a xlink:href="../../d0/d74/group___t_k.html#gac083ac86c150085adae965936f41bb49" target="_top" xlink:title=" ">
<polygon fill="white" stroke="black" points="377.5,-127 377.5,-157 529.5,-157 529.5,-127 377.5,-127"/>
<text text-anchor="start" x="385.5" y="-145" font-family="Helvetica,sans-Serif" font-size="10.00">GamR::TK::BPeak::GetCounts</text>
<text text-anchor="middle" x="453.5" y="-134" font-family="Helvetica,sans-Serif" font-size="10.00">Error</text>
</a>
</g>
</g>
<!-- Node4&#45;&gt;Node12 -->
<g id="edge11" class="edge">
<title>Node4&#45;&gt;Node12</title>
<path fill="none" stroke="midnightblue" d="M286.79,-220.48C304.67,-206.99 339.32,-182.28 372,-167 376.89,-164.71 382.04,-162.57 387.27,-160.57"/>
<polygon fill="midnightblue" stroke="midnightblue" points="388.54,-163.83 396.75,-157.13 386.16,-157.25 388.54,-163.83"/>
</g>
<!-- Node13 -->
<g id="node13" class="node">
<title>Node13</title>
<g id="a_node13"><a xlink:href="../../d0/d74/group___t_k.html#gaa2200a38a3956d5e129aeeca03b2952a" target="_top" xlink:title=" ">
<polygon fill="white" stroke="black" points="380.5,-88.5 380.5,-107.5 526.5,-107.5 526.5,-88.5 380.5,-88.5"/>
<text text-anchor="middle" x="453.5" y="-95.5" font-family="Helvetica,sans-Serif" font-size="10.00">GamR::TK::BPeak::GetWidth</text>
</a>
</g>
</g>
<!-- Node4&#45;&gt;Node13 -->
<g id="edge12" class="edge">
<title>Node4&#45;&gt;Node13</title>
<path fill="none" stroke="midnightblue" d="M279.95,-220.46C292.9,-198.66 327.8,-145.04 372,-118 376.34,-115.34 381.02,-113.04 385.86,-111.04"/>
<polygon fill="midnightblue" stroke="midnightblue" points="387.13,-114.3 395.31,-107.56 384.72,-107.73 387.13,-114.3"/>
</g>
<!-- Node14 -->
<g id="node14" class="node">
<title>Node14</title>
<g id="a_node14"><a xlink:href="../../d0/d74/group___t_k.html#ga7673c2803d0941563430bf8ef217da80" target="_top" xlink:title=" ">
<polygon fill="white" stroke="black" points="380.5,-39 380.5,-69 526.5,-69 526.5,-39 380.5,-39"/>
<text text-anchor="start" x="388.5" y="-57" font-family="Helvetica,sans-Serif" font-size="10.00">GamR::TK::BPeak::GetWidth</text>
<text text-anchor="middle" x="453.5" y="-46" font-family="Helvetica,sans-Serif" font-size="10.00">Error</text>
</a>
</g>
</g>
<!-- Node4&#45;&gt;Node14 -->
<g id="edge13" class="edge">
<title>Node4&#45;&gt;Node14</title>
<path fill="none" stroke="midnightblue" d="M278.05,-220.2C288.25,-193.4 320.3,-118.24 372,-79 374.48,-77.11 377.11,-75.37 379.84,-73.75"/>
<polygon fill="midnightblue" stroke="midnightblue" points="381.63,-76.77 388.87,-69.03 378.39,-70.57 381.63,-76.77"/>
</g>
<!-- Node15 -->
<g id="node15" class="node">
<title>Node15</title>
<g id="a_node15"><a xlink:href="../../d0/db7/namespace_gam_r_1_1_utils.html#a80bc6c0c1ecd5d28cd4f9e3ae38f92ed" target="_top" xlink:title=" ">
<polygon fill="white" stroke="black" points="398,-0.5 398,-19.5 509,-19.5 509,-0.5 398,-0.5"/>
<text text-anchor="middle" x="453.5" y="-7.5" font-family="Helvetica,sans-Serif" font-size="10.00">GamR::Utils::wrresult</text>
</a>
</g>
</g>
<!-- Node4&#45;&gt;Node15 -->
<g id="edge14" class="edge">
<title>Node4&#45;&gt;Node15</title>
<path fill="none" stroke="midnightblue" d="M276.23,-220.27C282.55,-187.8 307.44,-82.25 372,-30 376.92,-26.02 382.53,-22.81 388.44,-20.24"/>
<polygon fill="midnightblue" stroke="midnightblue" points="389.78,-23.47 397.92,-16.68 387.33,-16.91 389.78,-23.47"/>
</g>
</g>
</svg>
