<?xml version="1.0" encoding="UTF-8" standalone="no"?>
<!DOCTYPE svg PUBLIC "-//W3C//DTD SVG 1.1//EN"
 "http://www.w3.org/Graphics/SVG/1.1/DTD/svg11.dtd">
<!-- Generated by graphviz version 2.49.3 (20211023.0002)
 -->
<!-- Title: uzy Pages: 1 -->
<svg width="372pt" height="104pt"
 viewBox="0.00 0.00 372.00 104.00" xmlns="http://www.w3.org/2000/svg" xmlns:xlink="http://www.w3.org/1999/xlink">
<g id="graph0" class="graph" transform="scale(1 1) rotate(0) translate(4 100)">
<title>uzy</title>
<polygon fill="white" stroke="transparent" points="-4,4 -4,-100 368,-100 368,4 -4,4"/>
<!-- Node1 -->
<g id="node1" class="node">
<title>Node1</title>
<g id="a_node1"><a xlink:title=" ">
<polygon fill="#bfbfbf" stroke="black" points="0,-38.5 0,-57.5 32,-57.5 32,-38.5 0,-38.5"/>
<text text-anchor="middle" x="16" y="-45.5" font-family="Helvetica,sans-Serif" font-size="10.00">uzy</text>
</a>
</g>
</g>
<!-- Node2 -->
<g id="node2" class="node">
<title>Node2</title>
<g id="a_node2"><a xlink:href="../../dc/d89/namespace_gam_r_1_1_spect.html#a90aeaeedf126cc4509bf93387bba317c" target="_top" xlink:title=" ">
<polygon fill="white" stroke="black" points="68,-38.5 68,-57.5 206,-57.5 206,-38.5 68,-38.5"/>
<text text-anchor="middle" x="137" y="-45.5" font-family="Helvetica,sans-Serif" font-size="10.00">GamR::Spect::UnZoomAllY</text>
</a>
</g>
</g>
<!-- Node1&#45;&gt;Node2 -->
<g id="edge1" class="edge">
<title>Node1&#45;&gt;Node2</title>
<path fill="none" stroke="midnightblue" d="M32.07,-48C39.08,-48 48,-48 57.66,-48"/>
<polygon fill="midnightblue" stroke="midnightblue" points="57.94,-51.5 67.94,-48 57.94,-44.5 57.94,-51.5"/>
</g>
<!-- Node2&#45;&gt;Node2 -->
<g id="edge5" class="edge">
<title>Node2&#45;&gt;Node2</title>
<path fill="none" stroke="midnightblue" d="M118.5,-57.76C109.51,-66.57 115.67,-76 137,-76 150.66,-76 158.1,-72.13 159.32,-67.03"/>
<polygon fill="midnightblue" stroke="midnightblue" points="162.55,-65.67 155.5,-57.76 156.07,-68.34 162.55,-65.67"/>
</g>
<!-- Node3 -->
<g id="node3" class="node">
<title>Node3</title>
<g id="a_node3"><a xlink:href="../../d0/db7/namespace_gam_r_1_1_utils.html#a31f74a9ca644d560dc14e19c4dbd773b" target="_top" xlink:title=" ">
<polygon fill="white" stroke="black" points="242,-76.5 242,-95.5 364,-95.5 364,-76.5 242,-76.5"/>
<text text-anchor="middle" x="303" y="-83.5" font-family="Helvetica,sans-Serif" font-size="10.00">GamR::Utils::GetHist1D</text>
</a>
</g>
</g>
<!-- Node2&#45;&gt;Node3 -->
<g id="edge2" class="edge">
<title>Node2&#45;&gt;Node3</title>
<path fill="none" stroke="midnightblue" d="M179.38,-57.59C201.12,-62.63 227.96,-68.84 250.97,-74.18"/>
<polygon fill="midnightblue" stroke="midnightblue" points="250.38,-77.63 260.91,-76.48 251.96,-70.81 250.38,-77.63"/>
</g>
<!-- Node4 -->
<g id="node4" class="node">
<title>Node4</title>
<g id="a_node4"><a xlink:href="../../d0/db7/namespace_gam_r_1_1_utils.html#ae51db26569561ca73c083a6c9276f148" target="_top" xlink:title=" ">
<polygon fill="white" stroke="black" points="242,-38.5 242,-57.5 364,-57.5 364,-38.5 242,-38.5"/>
<text text-anchor="middle" x="303" y="-45.5" font-family="Helvetica,sans-Serif" font-size="10.00">GamR::Utils::GetHist2D</text>
</a>
</g>
</g>
<!-- Node2&#45;&gt;Node4 -->
<g id="edge3" class="edge">
<title>Node2&#45;&gt;Node4</title>
<path fill="none" stroke="midnightblue" d="M206.13,-48C214.57,-48 223.22,-48 231.7,-48"/>
<polygon fill="midnightblue" stroke="midnightblue" points="231.93,-51.5 241.93,-48 231.93,-44.5 231.93,-51.5"/>
</g>
<!-- Node5 -->
<g id="node5" class="node">
<title>Node5</title>
<g id="a_node5"><a xlink:href="../../d0/db7/namespace_gam_r_1_1_utils.html#a0adbf2bb55ef0a9adfc45b00210c92c0" target="_top" xlink:title=" ">
<polygon fill="white" stroke="black" points="242,-0.5 242,-19.5 364,-19.5 364,-0.5 242,-0.5"/>
<text text-anchor="middle" x="303" y="-7.5" font-family="Helvetica,sans-Serif" font-size="10.00">GamR::Utils::GetNPads</text>
</a>
</g>
</g>
<!-- Node2&#45;&gt;Node5 -->
<g id="edge4" class="edge">
<title>Node2&#45;&gt;Node5</title>
<path fill="none" stroke="midnightblue" d="M179.38,-38.41C201.12,-33.37 227.96,-27.16 250.97,-21.82"/>
<polygon fill="midnightblue" stroke="midnightblue" points="251.96,-25.19 260.91,-19.52 250.38,-18.37 251.96,-25.19"/>
</g>
</g>
</svg>
