<?xml version="1.0" encoding="UTF-8" standalone="no"?>
<!DOCTYPE svg PUBLIC "-//W3C//DTD SVG 1.1//EN"
 "http://www.w3.org/Graphics/SVG/1.1/DTD/svg11.dtd">
<!-- Generated by graphviz version 12.2.1 (20241206.2353)
 -->
<!-- Title: src/lib/toolkit/Gate.cc Pages: 1 -->
<!--zoomable 138 -->

<svg id="main" version="1.1" xmlns="http://www.w3.org/2000/svg" xmlns:xlink="http://www.w3.org/1999/xlink" xml:space="preserve" onload="init(evt)">

<style type="text/css"><![CDATA[
.node, .edge {opacity: 0.7;}
.node.selected, .edge.selected {opacity: 1;}
.edge:hover path { stroke: red; }
.edge:hover polygon { stroke: red; fill: red; }
]]></style>

<defs>
  <circle id="rim" cx="0" cy="0" r="7"/>
  <circle id="rim2" cx="0" cy="0" r="3.5"/>
  <g id="zoomPlus">
    <use xlink:href="#rim" fill="#404040"><set attributeName="fill" to="#808080" begin="zoomplus.mouseover" end="zoomplus.mouseout"/></use>
    <path d="M-4,0h8M0,-4v8" fill="none" stroke="white" stroke-width="1.5" pointer-events="none"/>
  </g>
  <g id="zoomMin">
    <use xlink:href="#rim" fill="#404040"><set attributeName="fill" to="#808080" begin="zoomminus.mouseover" end="zoomminus.mouseout"/></use>
    <path d="M-4,0h8" fill="none" stroke="white" stroke-width="1.5" pointer-events="none"/>
  </g>
  <g id="arrowUp" transform="translate(30 24)">
    <use xlink:href="#rim"/>
    <path pointer-events="none" fill="none" stroke="white" stroke-width="1.5" d="M0,-3.0v7 M-2.5,-0.5L0,-3.0L2.5,-0.5"/>
  </g>
  <g id="arrowRight" transform="rotate(90) translate(36 -43)">
    <use xlink:href="#rim"/>
    <path pointer-events="none" fill="none" stroke="white" stroke-width="1.5" d="M0,-3.0v7 M-2.5,-0.5L0,-3.0L2.5,-0.5"/>
  </g>
  <g id="arrowDown" transform="rotate(180) translate(-30 -48)">
    <use xlink:href="#rim"/>
    <path pointer-events="none" fill="none" stroke="white" stroke-width="1.5" d="M0,-3.0v7 M-2.5,-0.5L0,-3.0L2.5,-0.5"/>
  </g>
  <g id="arrowLeft" transform="rotate(270) translate(-36 17)">
    <use xlink:href="#rim"/>
    <path pointer-events="none" fill="none" stroke="white" stroke-width="1.5" d="M0,-3.0v7 M-2.5,-0.5L0,-3.0L2.5,-0.5"/>
  </g>
  <g id="resetDef">
    <use xlink:href="#rim2" fill="#404040"><set attributeName="fill" to="#808080" begin="reset.mouseover" end="reset.mouseout"/></use>
  </g>
</defs>
<script type="application/ecmascript">
var viewWidth = 1390;
var viewHeight = 138;
var sectionId = 'dynsection-0';
</script>
<script type="application/ecmascript" xlink:href="../../svg.min.js"/>
<svg id="graph" class="graph">
<g id="viewport">
<title>src/lib/toolkit/Gate.cc</title>
<!-- Node1 -->
<g id="Node000001" class="node">
<title>Node1</title>
<g id="a_Node000001"><a xlink:title=" ">
<polygon fill="#999999" stroke="#666666" points="858.12,-129.75 749.88,-129.75 749.88,-110.5 858.12,-110.5 858.12,-129.75"/>
<text text-anchor="middle" x="804" y="-116.25" font-family="Helvetica,sans-Serif" font-size="10.00">src/lib/toolkit/Gate.cc</text>
</a>
</g>
</g>
<!-- Node2 -->
<g id="Node000002" class="node">
<title>Node2</title>
<g id="a_Node000002"><a xlink:title=" ">
<polygon fill="#e0e0e0" stroke="#999999" points="263.75,-19.25 210.25,-19.25 210.25,0 263.75,0 263.75,-19.25"/>
<text text-anchor="middle" x="237" y="-5.75" font-family="Helvetica,sans-Serif" font-size="10.00">iostream</text>
</a>
</g>
</g>
<!-- Node1&#45;&gt;Node2 -->
<g id="edge1_Node000001_Node000002" class="edge">
<title>Node1&#45;&gt;Node2</title>
<g id="a_edge1_Node000001_Node000002"><a xlink:title=" ">
<path fill="none" stroke="#63b8ff" d="M749.53,-119.96C632.98,-120.88 363.61,-118.06 285,-74.5 267.02,-64.53 253.77,-44.7 245.8,-29.76"/>
<polygon fill="#63b8ff" stroke="#63b8ff" points="248.98,-28.3 241.41,-20.89 242.71,-31.41 248.98,-28.3"/>
</a>
</g>
</g>
<!-- Node3 -->
<g id="Node000003" class="node">
<title>Node3</title>
<g id="a_Node000003"><a xlink:title=" ">
<polygon fill="#e0e0e0" stroke="#999999" points="682.62,-74.5 625.38,-74.5 625.38,-55.25 682.62,-55.25 682.62,-74.5"/>
<text text-anchor="middle" x="654" y="-61" font-family="Helvetica,sans-Serif" font-size="10.00">Buttons.h</text>
</a>
</g>
</g>
<!-- Node1&#45;&gt;Node3 -->
<g id="edge2_Node000001_Node000003" class="edge">
<title>Node1&#45;&gt;Node3</title>
<g id="a_edge2_Node000001_Node000003"><a xlink:title=" ">
<path fill="none" stroke="#63b8ff" d="M778.55,-110.09C754.31,-101.49 717.57,-88.44 690.26,-78.75"/>
<polygon fill="#63b8ff" stroke="#63b8ff" points="691.59,-75.51 681,-75.46 689.25,-82.1 691.59,-75.51"/>
</a>
</g>
</g>
<!-- Node4 -->
<g id="Node000004" class="node">
<title>Node4</title>
<g id="a_Node000004"><a xlink:title=" ">
<polygon fill="#e0e0e0" stroke="#999999" points="755.5,-74.5 700.5,-74.5 700.5,-55.25 755.5,-55.25 755.5,-74.5"/>
<text text-anchor="middle" x="728" y="-61" font-family="Helvetica,sans-Serif" font-size="10.00">TAttFill.h</text>
</a>
</g>
</g>
<!-- Node1&#45;&gt;Node4 -->
<g id="edge3_Node000001_Node000004" class="edge">
<title>Node1&#45;&gt;Node4</title>
<g id="a_edge3_Node000001_Node000004"><a xlink:title=" ">
<path fill="none" stroke="#63b8ff" d="M791.11,-110.09C779.97,-102.29 763.63,-90.84 750.36,-81.54"/>
<polygon fill="#63b8ff" stroke="#63b8ff" points="752.39,-78.69 742.2,-75.82 748.38,-84.43 752.39,-78.69"/>
</a>
</g>
</g>
<!-- Node5 -->
<g id="Node000005" class="node">
<title>Node5</title>
<g id="a_Node000005"><a xlink:title=" ">
<polygon fill="#e0e0e0" stroke="#999999" points="834.5,-74.5 773.5,-74.5 773.5,-55.25 834.5,-55.25 834.5,-74.5"/>
<text text-anchor="middle" x="804" y="-61" font-family="Helvetica,sans-Serif" font-size="10.00">TAttLine.h</text>
</a>
</g>
</g>
<!-- Node1&#45;&gt;Node5 -->
<g id="edge4_Node000001_Node000005" class="edge">
<title>Node1&#45;&gt;Node5</title>
<g id="a_edge4_Node000001_Node000005"><a xlink:title=" ">
<path fill="none" stroke="#63b8ff" d="M804,-110.33C804,-103.82 804,-94.67 804,-86.37"/>
<polygon fill="#63b8ff" stroke="#63b8ff" points="807.5,-86.37 804,-76.37 800.5,-86.37 807.5,-86.37"/>
</a>
</g>
</g>
<!-- Node6 -->
<g id="Node000006" class="node">
<title>Node6</title>
<g id="a_Node000006"><a xlink:title=" ">
<polygon fill="#e0e0e0" stroke="#999999" points="522.25,-19.25 459.75,-19.25 459.75,0 522.25,0 522.25,-19.25"/>
<text text-anchor="middle" x="491" y="-5.75" font-family="Helvetica,sans-Serif" font-size="10.00">TCanvas.h</text>
</a>
</g>
</g>
<!-- Node1&#45;&gt;Node6 -->
<g id="edge5_Node000001_Node000006" class="edge">
<title>Node1&#45;&gt;Node6</title>
<g id="a_edge5_Node000001_Node000006"><a xlink:title=" ">
<path fill="none" stroke="#63b8ff" d="M749.67,-117.67C674.71,-114.56 544.85,-104.83 510,-74.5 497.58,-63.69 493.1,-45.16 491.56,-30.83"/>
<polygon fill="#63b8ff" stroke="#63b8ff" points="495.08,-30.89 490.95,-21.13 488.09,-31.34 495.08,-30.89"/>
</a>
</g>
</g>
<!-- Node7 -->
<g id="Node000007" class="node">
<title>Node7</title>
<g id="a_Node000007"><a xlink:title=" ">
<polygon fill="#e0e0e0" stroke="#999999" points="901.12,-74.5 852.88,-74.5 852.88,-55.25 901.12,-55.25 901.12,-74.5"/>
<text text-anchor="middle" x="877" y="-61" font-family="Helvetica,sans-Serif" font-size="10.00">TLine.h</text>
</a>
</g>
</g>
<!-- Node1&#45;&gt;Node7 -->
<g id="edge6_Node000001_Node000007" class="edge">
<title>Node1&#45;&gt;Node7</title>
<g id="a_edge6_Node000001_Node000007"><a xlink:title=" ">
<path fill="none" stroke="#63b8ff" d="M816.38,-110.09C827.15,-102.24 842.97,-90.7 855.75,-81.37"/>
<polygon fill="#63b8ff" stroke="#63b8ff" points="857.56,-84.39 863.58,-75.67 853.44,-78.73 857.56,-84.39"/>
</a>
</g>
</g>
<!-- Node8 -->
<g id="Node000008" class="node">
<title>Node8</title>
<g id="a_Node000008"><a xlink:title=" ">
<polygon fill="#e0e0e0" stroke="#999999" points="978.75,-74.5 919.25,-74.5 919.25,-55.25 978.75,-55.25 978.75,-74.5"/>
<text text-anchor="middle" x="949" y="-61" font-family="Helvetica,sans-Serif" font-size="10.00">TMarker.h</text>
</a>
</g>
</g>
<!-- Node1&#45;&gt;Node8 -->
<g id="edge7_Node000001_Node000008" class="edge">
<title>Node1&#45;&gt;Node8</title>
<g id="a_edge7_Node000001_Node000008"><a xlink:title=" ">
<path fill="none" stroke="#63b8ff" d="M828.6,-110.09C851.93,-101.52 887.24,-88.56 913.6,-78.88"/>
<polygon fill="#63b8ff" stroke="#63b8ff" points="914.68,-82.21 922.86,-75.47 912.27,-75.64 914.68,-82.21"/>
</a>
</g>
</g>
<!-- Node9 -->
<g id="Node000009" class="node">
<title>Node9</title>
<g id="a_Node000009"><a xlink:title=" ">
<polygon fill="#e0e0e0" stroke="#999999" points="952.5,-19.25 891.5,-19.25 891.5,0 952.5,0 952.5,-19.25"/>
<text text-anchor="middle" x="922" y="-5.75" font-family="Helvetica,sans-Serif" font-size="10.00">TNamed.h</text>
</a>
</g>
</g>
<!-- Node1&#45;&gt;Node9 -->
<g id="edge8_Node000001_Node000009" class="edge">
<title>Node1&#45;&gt;Node9</title>
<g id="a_edge8_Node000001_Node000009"><a xlink:title=" ">
<path fill="none" stroke="#63b8ff" d="M749.58,-117.74C680.8,-114.11 575.91,-101.13 616,-55.25 653.26,-12.61 806.51,-27.76 879.96,-19.15"/>
<polygon fill="#63b8ff" stroke="#63b8ff" points="880.14,-22.66 889.54,-17.77 879.14,-15.73 880.14,-22.66"/>
</a>
</g>
</g>
<!-- Node10 -->
<g id="Node000010" class="node">
<title>Node10</title>
<g id="a_Node000010"><a xlink:title=" ">
<polygon fill="#e0e0e0" stroke="#999999" points="1071.25,-74.5 996.75,-74.5 996.75,-55.25 1071.25,-55.25 1071.25,-74.5"/>
<text text-anchor="middle" x="1034" y="-61" font-family="Helvetica,sans-Serif" font-size="10.00">TParameter.h</text>
</a>
</g>
</g>
<!-- Node1&#45;&gt;Node10 -->
<g id="edge9_Node000001_Node000010" class="edge">
<title>Node1&#45;&gt;Node10</title>
<g id="a_edge9_Node000001_Node000010"><a xlink:title=" ">
<path fill="none" stroke="#63b8ff" d="M843.28,-110.03C882.53,-100.94 942.97,-86.95 985.27,-77.16"/>
<polygon fill="#63b8ff" stroke="#63b8ff" points="985.98,-80.58 994.94,-74.92 984.4,-73.76 985.98,-80.58"/>
</a>
</g>
</g>
<!-- Node11 -->
<g id="Node000011" class="node">
<title>Node11</title>
<g id="a_Node000011"><a xlink:title=" ">
<polygon fill="#e0e0e0" stroke="#999999" points="1146.62,-74.5 1089.38,-74.5 1089.38,-55.25 1146.62,-55.25 1146.62,-74.5"/>
<text text-anchor="middle" x="1118" y="-61" font-family="Helvetica,sans-Serif" font-size="10.00">TROOT.h</text>
</a>
</g>
</g>
<!-- Node1&#45;&gt;Node11 -->
<g id="edge10_Node000001_Node000011" class="edge">
<title>Node1&#45;&gt;Node11</title>
<g id="a_edge10_Node000001_Node000011"><a xlink:title=" ">
<path fill="none" stroke="#63b8ff" d="M858.38,-111.36C911.72,-103.52 995.63,-90.57 1077.69,-74.84"/>
<polygon fill="#63b8ff" stroke="#63b8ff" points="1078.35,-78.28 1087.51,-72.94 1077.02,-71.41 1078.35,-78.28"/>
</a>
</g>
</g>
<!-- Node12 -->
<g id="Node000012" class="node">
<title>Node12</title>
<g id="a_Node000012"><a xlink:title=" ">
<polygon fill="#e0e0e0" stroke="#999999" points="1215.62,-74.5 1164.38,-74.5 1164.38,-55.25 1215.62,-55.25 1215.62,-74.5"/>
<text text-anchor="middle" x="1190" y="-61" font-family="Helvetica,sans-Serif" font-size="10.00">TMath.h</text>
</a>
</g>
</g>
<!-- Node1&#45;&gt;Node12 -->
<g id="edge11_Node000001_Node000012" class="edge">
<title>Node1&#45;&gt;Node12</title>
<g id="a_edge11_Node000001_Node000012"><a xlink:title=" ">
<path fill="none" stroke="#63b8ff" d="M858.59,-114.29C925.76,-107.89 1043.45,-95.16 1152.85,-74.91"/>
<polygon fill="#63b8ff" stroke="#63b8ff" points="1153.42,-78.36 1162.6,-73.08 1152.12,-71.49 1153.42,-78.36"/>
</a>
</g>
</g>
<!-- Node13 -->
<g id="Node000013" class="node">
<title>Node13</title>
<g id="a_Node000013"><a xlink:title=" ">
<polygon fill="#e0e0e0" stroke="#999999" points="1298,-74.5 1234,-74.5 1234,-55.25 1298,-55.25 1298,-74.5"/>
<text text-anchor="middle" x="1266" y="-61" font-family="Helvetica,sans-Serif" font-size="10.00">TVirtualX.h</text>
</a>
</g>
</g>
<!-- Node1&#45;&gt;Node13 -->
<g id="edge12_Node000001_Node000013" class="edge">
<title>Node1&#45;&gt;Node13</title>
<g id="a_edge12_Node000001_Node000013"><a xlink:title=" ">
<path fill="none" stroke="#63b8ff" d="M858.39,-115.14C936.72,-109.01 1086,-95.86 1222.75,-74.7"/>
<polygon fill="#63b8ff" stroke="#63b8ff" points="1223,-78.21 1232.33,-73.2 1221.91,-71.29 1223,-78.21"/>
</a>
</g>
</g>
<!-- Node14 -->
<g id="Node000014" class="node">
<title>Node14</title>
<g id="a_Node000014"><a xlink:title=" ">
<polygon fill="#e0e0e0" stroke="#999999" points="1381.75,-74.5 1316.25,-74.5 1316.25,-55.25 1381.75,-55.25 1381.75,-74.5"/>
<text text-anchor="middle" x="1349" y="-61" font-family="Helvetica,sans-Serif" font-size="10.00">TQObject.h</text>
</a>
</g>
</g>
<!-- Node1&#45;&gt;Node14 -->
<g id="edge13_Node000001_Node000014" class="edge">
<title>Node1&#45;&gt;Node14</title>
<g id="a_edge13_Node000001_Node000014"><a xlink:title=" ">
<path fill="none" stroke="#63b8ff" d="M858.57,-116.33C949.13,-111.24 1136.33,-98.83 1304.73,-74.66"/>
<polygon fill="#63b8ff" stroke="#63b8ff" points="1305.16,-78.13 1314.55,-73.23 1304.15,-71.21 1305.16,-78.13"/>
</a>
</g>
</g>
<!-- Node15 -->
<g id="Node000015" class="node">
<title>Node15</title>
<g id="a_Node000015"><a xlink:href="../../d7/db9/_utilities_8hh.html" target="_top" xlink:title=" ">
<polygon fill="white" stroke="#666666" points="376.38,-74.5 293.62,-74.5 293.62,-55.25 376.38,-55.25 376.38,-74.5"/>
<text text-anchor="middle" x="335" y="-61" font-family="Helvetica,sans-Serif" font-size="10.00">utils/Utilities.hh</text>
</a>
</g>
</g>
<!-- Node1&#45;&gt;Node15 -->
<g id="edge14_Node000001_Node000015" class="edge">
<title>Node1&#45;&gt;Node15</title>
<g id="a_edge14_Node000001_Node000015"><a xlink:title=" ">
<path fill="none" stroke="#63b8ff" d="M749.74,-112.96C659.07,-102.67 477.89,-82.1 388.04,-71.9"/>
<polygon fill="#63b8ff" stroke="#63b8ff" points="388.6,-68.44 378.27,-70.79 387.81,-75.39 388.6,-68.44"/>
</a>
</g>
</g>
<!-- Node22 -->
<g id="Node000022" class="node">
<title>Node22</title>
<g id="a_Node000022"><a xlink:href="../../dd/d50/_gate_8hh.html" target="_top" xlink:title=" ">
<polygon fill="white" stroke="#666666" points="568.88,-74.5 519.12,-74.5 519.12,-55.25 568.88,-55.25 568.88,-74.5"/>
<text text-anchor="middle" x="544" y="-61" font-family="Helvetica,sans-Serif" font-size="10.00">Gate.hh</text>
</a>
</g>
</g>
<!-- Node1&#45;&gt;Node22 -->
<g id="edge22_Node000001_Node000022" class="edge">
<title>Node1&#45;&gt;Node22</title>
<g id="a_edge22_Node000001_Node000022"><a xlink:title=" ">
<path fill="none" stroke="#63b8ff" d="M757.81,-110.06C713.07,-101.21 643.31,-87.26 583,-74.5 582.02,-74.29 581.03,-74.08 580.03,-73.87"/>
<polygon fill="#63b8ff" stroke="#63b8ff" points="581.15,-70.53 570.64,-71.83 579.67,-77.37 581.15,-70.53"/>
</a>
</g>
</g>
<!-- Node15&#45;&gt;Node6 -->
<g id="edge18_Node000015_Node000006" class="edge">
<title>Node15&#45;&gt;Node6</title>
<g id="a_edge18_Node000015_Node000006"><a xlink:title=" ">
<path fill="none" stroke="#63b8ff" d="M361.46,-54.84C386.79,-46.2 425.23,-33.07 453.67,-23.37"/>
<polygon fill="#63b8ff" stroke="#63b8ff" points="454.64,-26.73 462.97,-20.19 452.38,-20.11 454.64,-26.73"/>
</a>
</g>
</g>
<!-- Node16 -->
<g id="Node000016" class="node">
<title>Node16</title>
<g id="a_Node000016"><a xlink:title=" ">
<polygon fill="#e0e0e0" stroke="#999999" points="442,-19.25 402,-19.25 402,0 442,0 442,-19.25"/>
<text text-anchor="middle" x="422" y="-5.75" font-family="Helvetica,sans-Serif" font-size="10.00">string</text>
</a>
</g>
</g>
<!-- Node15&#45;&gt;Node16 -->
<g id="edge15_Node000015_Node000016" class="edge">
<title>Node15&#45;&gt;Node16</title>
<g id="a_edge15_Node000015_Node000016"><a xlink:title=" ">
<path fill="none" stroke="#63b8ff" d="M349.76,-54.84C362.88,-46.81 382.32,-34.91 397.73,-25.48"/>
<polygon fill="#63b8ff" stroke="#63b8ff" points="399.18,-28.7 405.88,-20.49 395.52,-22.73 399.18,-28.7"/>
</a>
</g>
</g>
<!-- Node17 -->
<g id="Node000017" class="node">
<title>Node17</title>
<g id="a_Node000017"><a xlink:title=" ">
<polygon fill="#e0e0e0" stroke="#999999" points="192.5,-19.25 143.5,-19.25 143.5,0 192.5,0 192.5,-19.25"/>
<text text-anchor="middle" x="168" y="-5.75" font-family="Helvetica,sans-Serif" font-size="10.00">fstream</text>
</a>
</g>
</g>
<!-- Node15&#45;&gt;Node17 -->
<g id="edge16_Node000015_Node000017" class="edge">
<title>Node15&#45;&gt;Node17</title>
<g id="a_edge16_Node000015_Node000017"><a xlink:title=" ">
<path fill="none" stroke="#63b8ff" d="M306.67,-54.84C278.24,-45.78 234.37,-31.79 203.61,-21.98"/>
<polygon fill="#63b8ff" stroke="#63b8ff" points="204.95,-18.73 194.36,-19.03 202.82,-25.4 204.95,-18.73"/>
</a>
</g>
</g>
<!-- Node18 -->
<g id="Node000018" class="node">
<title>Node18</title>
<g id="a_Node000018"><a xlink:title=" ">
<polygon fill="#e0e0e0" stroke="#999999" points="52,-19.25 0,-19.25 0,0 52,0 52,-19.25"/>
<text text-anchor="middle" x="26" y="-5.75" font-family="Helvetica,sans-Serif" font-size="10.00">complex</text>
</a>
</g>
</g>
<!-- Node15&#45;&gt;Node18 -->
<g id="edge17_Node000015_Node000018" class="edge">
<title>Node15&#45;&gt;Node18</title>
<g id="a_edge17_Node000015_Node000018"><a xlink:title=" ">
<path fill="none" stroke="#63b8ff" d="M293.5,-58.17C241.87,-50.85 150.79,-37.17 63.5,-19.62"/>
<polygon fill="#63b8ff" stroke="#63b8ff" points="64.3,-16.22 53.81,-17.65 62.91,-23.08 64.3,-16.22"/>
</a>
</g>
</g>
<!-- Node19 -->
<g id="Node000019" class="node">
<title>Node19</title>
<g id="a_Node000019"><a xlink:title=" ">
<polygon fill="#e0e0e0" stroke="#999999" points="324.12,-19.25 281.88,-19.25 281.88,0 324.12,0 324.12,-19.25"/>
<text text-anchor="middle" x="303" y="-5.75" font-family="Helvetica,sans-Serif" font-size="10.00">TH1.h</text>
</a>
</g>
</g>
<!-- Node15&#45;&gt;Node19 -->
<g id="edge19_Node000015_Node000019" class="edge">
<title>Node15&#45;&gt;Node19</title>
<g id="a_edge19_Node000015_Node000019"><a xlink:title=" ">
<path fill="none" stroke="#63b8ff" d="M329.72,-55.08C325.53,-48.11 319.52,-38.12 314.27,-29.37"/>
<polygon fill="#63b8ff" stroke="#63b8ff" points="317.33,-27.68 309.18,-20.91 311.33,-31.28 317.33,-27.68"/>
</a>
</g>
</g>
<!-- Node20 -->
<g id="Node000020" class="node">
<title>Node20</title>
<g id="a_Node000020"><a xlink:title=" ">
<polygon fill="#e0e0e0" stroke="#999999" points="384.12,-19.25 341.88,-19.25 341.88,0 384.12,0 384.12,-19.25"/>
<text text-anchor="middle" x="363" y="-5.75" font-family="Helvetica,sans-Serif" font-size="10.00">TH2.h</text>
</a>
</g>
</g>
<!-- Node15&#45;&gt;Node20 -->
<g id="edge20_Node000015_Node000020" class="edge">
<title>Node15&#45;&gt;Node20</title>
<g id="a_edge20_Node000015_Node000020"><a xlink:title=" ">
<path fill="none" stroke="#63b8ff" d="M339.62,-55.08C343.25,-48.19 348.43,-38.34 352.99,-29.66"/>
<polygon fill="#63b8ff" stroke="#63b8ff" points="356.02,-31.43 357.57,-20.95 349.82,-28.17 356.02,-31.43"/>
</a>
</g>
</g>
<!-- Node21 -->
<g id="Node000021" class="node">
<title>Node21</title>
<g id="a_Node000021"><a xlink:title=" ">
<polygon fill="#e0e0e0" stroke="#999999" points="125.88,-19.25 70.12,-19.25 70.12,0 125.88,0 125.88,-19.25"/>
<text text-anchor="middle" x="98" y="-5.75" font-family="Helvetica,sans-Serif" font-size="10.00">TGraph.h</text>
</a>
</g>
</g>
<!-- Node15&#45;&gt;Node21 -->
<g id="edge21_Node000015_Node000021" class="edge">
<title>Node15&#45;&gt;Node21</title>
<g id="a_edge21_Node000015_Node000021"><a xlink:title=" ">
<path fill="none" stroke="#63b8ff" d="M293.38,-54.85C255.08,-46.49 196.41,-33.58 137.32,-19.99"/>
<polygon fill="#63b8ff" stroke="#63b8ff" points="138.29,-16.62 127.76,-17.79 136.72,-23.45 138.29,-16.62"/>
</a>
</g>
</g>
<!-- Node22&#45;&gt;Node2 -->
<g id="edge27_Node000022_Node000002" class="edge">
<title>Node22&#45;&gt;Node2</title>
<g id="a_edge27_Node000022_Node000002"><a xlink:title=" ">
<path fill="none" stroke="#63b8ff" d="M518.86,-60.35C472.65,-53.75 370.9,-38.59 275.12,-19.55"/>
<polygon fill="#63b8ff" stroke="#63b8ff" points="276.06,-16.17 265.56,-17.63 274.68,-23.03 276.06,-16.17"/>
</a>
</g>
</g>
<!-- Node22&#45;&gt;Node6 -->
<g id="edge30_Node000022_Node000006" class="edge">
<title>Node22&#45;&gt;Node6</title>
<g id="a_edge30_Node000022_Node000006"><a xlink:title=" ">
<path fill="none" stroke="#63b8ff" d="M535.25,-55.08C527.85,-47.65 517.04,-36.79 507.95,-27.66"/>
<polygon fill="#63b8ff" stroke="#63b8ff" points="510.54,-25.3 501.01,-20.68 505.58,-30.24 510.54,-25.3"/>
</a>
</g>
</g>
<!-- Node22&#45;&gt;Node9 -->
<g id="edge33_Node000022_Node000009" class="edge">
<title>Node22&#45;&gt;Node9</title>
<g id="a_edge33_Node000022_Node000009"><a xlink:title=" ">
<path fill="none" stroke="#63b8ff" d="M569.1,-57.94C573.71,-56.96 578.49,-56.02 583,-55.25 711.34,-33.39 748,-40.93 879.71,-19.48"/>
<polygon fill="#63b8ff" stroke="#63b8ff" points="880.26,-22.93 889.55,-17.84 879.11,-16.03 880.26,-22.93"/>
</a>
</g>
</g>
<!-- Node22&#45;&gt;Node16 -->
<g id="edge26_Node000022_Node000016" class="edge">
<title>Node22&#45;&gt;Node16</title>
<g id="a_edge26_Node000022_Node000016"><a xlink:title=" ">
<path fill="none" stroke="#63b8ff" d="M523.3,-54.84C504,-46.41 474.94,-33.73 452.89,-24.11"/>
<polygon fill="#63b8ff" stroke="#63b8ff" points="454.34,-20.92 443.78,-20.13 451.54,-27.34 454.34,-20.92"/>
</a>
</g>
</g>
<!-- Node22&#45;&gt;Node19 -->
<g id="edge31_Node000022_Node000019" class="edge">
<title>Node22&#45;&gt;Node19</title>
<g id="a_edge31_Node000022_Node000019"><a xlink:title=" ">
<path fill="none" stroke="#63b8ff" d="M518.86,-59.16C481.11,-51.96 407.34,-37.38 335.61,-19.76"/>
<polygon fill="#63b8ff" stroke="#63b8ff" points="336.6,-16.4 326.05,-17.39 334.91,-23.2 336.6,-16.4"/>
</a>
</g>
</g>
<!-- Node22&#45;&gt;Node20 -->
<g id="edge32_Node000022_Node000020" class="edge">
<title>Node22&#45;&gt;Node20</title>
<g id="a_edge32_Node000022_Node000020"><a xlink:title=" ">
<path fill="none" stroke="#63b8ff" d="M518.83,-56.47C486.58,-46.98 430.61,-30.52 395.26,-20.12"/>
<polygon fill="#63b8ff" stroke="#63b8ff" points="396.6,-16.86 386.02,-17.4 394.62,-23.58 396.6,-16.86"/>
</a>
</g>
</g>
<!-- Node23 -->
<g id="Node000023" class="node">
<title>Node23</title>
<g id="a_Node000023"><a xlink:title=" ">
<polygon fill="#e0e0e0" stroke="#999999" points="820.88,-19.25 765.12,-19.25 765.12,0 820.88,0 820.88,-19.25"/>
<text text-anchor="middle" x="793" y="-5.75" font-family="Helvetica,sans-Serif" font-size="10.00">algorithm</text>
</a>
</g>
</g>
<!-- Node22&#45;&gt;Node23 -->
<g id="edge23_Node000022_Node000023" class="edge">
<title>Node22&#45;&gt;Node23</title>
<g id="a_edge23_Node000022_Node000023"><a xlink:title=" ">
<path fill="none" stroke="#63b8ff" d="M569.17,-58.26C573.77,-57.25 578.53,-56.21 583,-55.25 656.34,-39.51 677.44,-36.43 753.61,-19.74"/>
<polygon fill="#63b8ff" stroke="#63b8ff" points="754.24,-23.18 763.26,-17.61 752.74,-16.34 754.24,-23.18"/>
</a>
</g>
</g>
<!-- Node24 -->
<g id="Node000024" class="node">
<title>Node24</title>
<g id="a_Node000024"><a xlink:title=" ">
<polygon fill="#e0e0e0" stroke="#999999" points="873.38,-19.25 838.62,-19.25 838.62,0 873.38,0 873.38,-19.25"/>
<text text-anchor="middle" x="856" y="-5.75" font-family="Helvetica,sans-Serif" font-size="10.00">map</text>
</a>
</g>
</g>
<!-- Node22&#45;&gt;Node24 -->
<g id="edge24_Node000022_Node000024" class="edge">
<title>Node22&#45;&gt;Node24</title>
<g id="a_edge24_Node000022_Node000024"><a xlink:title=" ">
<path fill="none" stroke="#63b8ff" d="M569.12,-58.04C573.73,-57.05 578.5,-56.07 583,-55.25 688.6,-35.9 720.04,-44.23 827.25,-19.56"/>
<polygon fill="#63b8ff" stroke="#63b8ff" points="827.81,-23.02 836.74,-17.33 826.21,-16.21 827.81,-23.02"/>
</a>
</g>
</g>
<!-- Node25 -->
<g id="Node000025" class="node">
<title>Node25</title>
<g id="a_Node000025"><a xlink:title=" ">
<polygon fill="#e0e0e0" stroke="#999999" points="591.62,-19.25 540.38,-19.25 540.38,0 591.62,0 591.62,-19.25"/>
<text text-anchor="middle" x="566" y="-5.75" font-family="Helvetica,sans-Serif" font-size="10.00">sstream</text>
</a>
</g>
</g>
<!-- Node22&#45;&gt;Node25 -->
<g id="edge25_Node000022_Node000025" class="edge">
<title>Node22&#45;&gt;Node25</title>
<g id="a_edge25_Node000022_Node000025"><a xlink:title=" ">
<path fill="none" stroke="#63b8ff" d="M547.63,-55.08C550.42,-48.34 554.37,-38.77 557.9,-30.24"/>
<polygon fill="#63b8ff" stroke="#63b8ff" points="561.13,-31.59 561.71,-21.01 554.66,-28.91 561.13,-31.59"/>
</a>
</g>
</g>
<!-- Node26 -->
<g id="Node000026" class="node">
<title>Node26</title>
<g id="a_Node000026"><a xlink:title=" ">
<polygon fill="#e0e0e0" stroke="#999999" points="662.75,-19.25 609.25,-19.25 609.25,0 662.75,0 662.75,-19.25"/>
<text text-anchor="middle" x="636" y="-5.75" font-family="Helvetica,sans-Serif" font-size="10.00">Rtypes.h</text>
</a>
</g>
</g>
<!-- Node22&#45;&gt;Node26 -->
<g id="edge28_Node000022_Node000026" class="edge">
<title>Node22&#45;&gt;Node26</title>
<g id="a_edge28_Node000022_Node000026"><a xlink:title=" ">
<path fill="none" stroke="#63b8ff" d="M559.61,-54.84C573.62,-46.73 594.43,-34.68 610.8,-25.21"/>
<polygon fill="#63b8ff" stroke="#63b8ff" points="612.11,-28.5 619.01,-20.46 608.6,-22.44 612.11,-28.5"/>
</a>
</g>
</g>
<!-- Node27 -->
<g id="Node000027" class="node">
<title>Node27</title>
<g id="a_Node000027"><a xlink:title=" ">
<polygon fill="#e0e0e0" stroke="#999999" points="746.75,-19.25 681.25,-19.25 681.25,0 746.75,0 746.75,-19.25"/>
<text text-anchor="middle" x="714" y="-5.75" font-family="Helvetica,sans-Serif" font-size="10.00">TBrowser.h</text>
</a>
</g>
</g>
<!-- Node22&#45;&gt;Node27 -->
<g id="edge29_Node000022_Node000027" class="edge">
<title>Node22&#45;&gt;Node27</title>
<g id="a_edge29_Node000022_Node000027"><a xlink:title=" ">
<path fill="none" stroke="#63b8ff" d="M569.08,-56.02C596.76,-47.35 641.68,-33.28 674.18,-23.1"/>
<polygon fill="#63b8ff" stroke="#63b8ff" points="675.17,-26.46 683.67,-20.13 673.08,-19.78 675.17,-26.46"/>
</a>
</g>
</g>
</g>
</svg>

<g id="navigator" transform="translate(0 0)" fill="#404254">
  <rect fill="#f2f5e9" fill-opacity="0.5" stroke="#606060" stroke-width=".5" x="0" y="0" width="60" height="60"/>
  <use id="zoomplus" xlink:href="#zoomPlus" x="17" y="9" onmousedown="handleZoom(evt,'in')"/>
  <use id="zoomminus" xlink:href="#zoomMin" x="42" y="9" onmousedown="handleZoom(evt,'out')"/>
  <use id="reset" xlink:href="#resetDef" x="30" y="36" onmousedown="handleReset()"/>
   <use id="arrowup" xlink:href="#arrowUp" x="0" y="0" onmousedown="handlePan(0,-1)"/>
  <use id="arrowright" xlink:href="#arrowRight" x="0" y="0" onmousedown="handlePan(1,0)"/>
  <use id="arrowdown" xlink:href="#arrowDown" x="0" y="0" onmousedown="handlePan(0,1)"/>
  <use id="arrowleft" xlink:href="#arrowLeft" x="0" y="0" onmousedown="handlePan(-1,0)"/>
</g>
<svg viewBox="0 0 15 15" width="100%" height="30px" preserveAspectRatio="xMaxYMin meet">
 <g id="arrow_out" transform="scale(0.3 0.3)">
  <a xlink:href="_gate_8cc__incl_org.svg" target="_base">
   <rect id="button" ry="5" rx="5" y="6" x="6" height="38" width="38"
        fill="#f2f5e9" fill-opacity="0.5" stroke="#606060" stroke-width="1.0"/>
   <path id="arrow"
     d="M 11.500037,31.436501 C 11.940474,20.09759 22.043105,11.32322 32.158766,21.979434 L 37.068811,17.246167 C 37.068811,17.246167 37.088388,32 37.088388,32 L 22.160133,31.978069 C 22.160133,31.978069 26.997745,27.140456 26.997745,27.140456 C 18.528582,18.264221 13.291696,25.230495 11.500037,31.436501 z"
     style="fill:#404040;"/>
  </a>
 </g>
</svg>

<style type='text/css'>
<![CDATA[
[data-mouse-over-selected='false'] { opacity: 0.7; }
[data-mouse-over-selected='true']  { opacity: 1.0; }
]]>
</style>
<script type="application/ecmascript"><![CDATA[
document.addEventListener('DOMContentLoaded', (event) => {
  highlightEdges();
  highlightAdjacentNodes();
});
]]></script>
</svg>
