<?xml version="1.0" encoding="UTF-8" standalone="no"?>
<!DOCTYPE svg PUBLIC "-//W3C//DTD SVG 1.1//EN"
 "http://www.w3.org/Graphics/SVG/1.1/DTD/svg11.dtd">
<!-- Generated by graphviz version 12.0.0 (20240704.0754)
 -->
<!-- Title: src/lib/toolkit/Gate.cc Pages: 1 -->
<!--zoomable 138 -->

<svg id="main" version="1.1" xmlns="http://www.w3.org/2000/svg" xmlns:xlink="http://www.w3.org/1999/xlink" xml:space="preserve" onload="init(evt)">
<style type="text/css"><![CDATA[
.node, .edge {opacity: 0.7;}
.node.selected, .edge.selected {opacity: 1;}
.edge:hover path { stroke: red; }
.edge:hover polygon { stroke: red; fill: red; }
]]></style>

<defs>
  <circle id="rim" cx="0" cy="0" r="7"/>
  <circle id="rim2" cx="0" cy="0" r="3.5"/>
  <g id="zoomPlus">
    <use xlink:href="#rim" fill="#404040"><set attributeName="fill" to="#808080" begin="zoomplus.mouseover" end="zoomplus.mouseout"/></use>
    <path d="M-4,0h8M0,-4v8" fill="none" stroke="white" stroke-width="1.5" pointer-events="none"/>
  </g>
  <g id="zoomMin">
    <use xlink:href="#rim" fill="#404040"><set attributeName="fill" to="#808080" begin="zoomminus.mouseover" end="zoomminus.mouseout"/></use>
    <path d="M-4,0h8" fill="none" stroke="white" stroke-width="1.5" pointer-events="none"/>
  </g>
  <g id="arrowUp" transform="translate(30 24)">
    <use xlink:href="#rim"/>
    <path pointer-events="none" fill="none" stroke="white" stroke-width="1.5" d="M0,-3.0v7 M-2.5,-0.5L0,-3.0L2.5,-0.5"/>
  </g>
  <g id="arrowRight" transform="rotate(90) translate(36 -43)">
    <use xlink:href="#rim"/>
    <path pointer-events="none" fill="none" stroke="white" stroke-width="1.5" d="M0,-3.0v7 M-2.5,-0.5L0,-3.0L2.5,-0.5"/>
  </g>
  <g id="arrowDown" transform="rotate(180) translate(-30 -48)">
    <use xlink:href="#rim"/>
    <path pointer-events="none" fill="none" stroke="white" stroke-width="1.5" d="M0,-3.0v7 M-2.5,-0.5L0,-3.0L2.5,-0.5"/>
  </g>
  <g id="arrowLeft" transform="rotate(270) translate(-36 17)">
    <use xlink:href="#rim"/>
    <path pointer-events="none" fill="none" stroke="white" stroke-width="1.5" d="M0,-3.0v7 M-2.5,-0.5L0,-3.0L2.5,-0.5"/>
  </g>
  <g id="resetDef">
    <use xlink:href="#rim2" fill="#404040"><set attributeName="fill" to="#808080" begin="reset.mouseover" end="reset.mouseout"/></use>
  </g>
</defs>
<script type="application/ecmascript">
var viewWidth = 1190;
var viewHeight = 138;
var sectionId = 'dynsection-0';
</script>
<script type="application/ecmascript" xlink:href="../../svg.min.js"/>
<svg id="graph" class="graph">
<g id="viewport">
<title>src/lib/toolkit/Gate.cc</title>
<!-- Node1 -->
<g id="Node000001" class="node">
<title>Node1</title>
<g id="a_Node000001"><a xlink:title=" ">
<polygon fill="#999999" stroke="#666666" points="703.88,-129.75 595.62,-129.75 595.62,-110.5 703.88,-110.5 703.88,-129.75"/>
<text text-anchor="middle" x="649.75" y="-116.25" font-family="Helvetica,sans-Serif" font-size="10.00">src/lib/toolkit/Gate.cc</text>
</a>
</g>
</g>
<!-- Node2 -->
<g id="Node000002" class="node">
<title>Node2</title>
<g id="a_Node000002"><a xlink:title=" ">
<polygon fill="#e0e0e0" stroke="#999999" points="53.5,-19.25 0,-19.25 0,0 53.5,0 53.5,-19.25"/>
<text text-anchor="middle" x="26.75" y="-5.75" font-family="Helvetica,sans-Serif" font-size="10.00">iostream</text>
</a>
</g>
</g>
<!-- Node1&#45;&gt;Node2 -->
<g id="edge1_Node000001_Node000002" class="edge">
<title>Node1&#45;&gt;Node2</title>
<g id="a_edge1_Node000001_Node000002"><a xlink:title=" ">
<path fill="none" stroke="#63b8ff" d="M595.33,-117.2C513.3,-113.46 353.47,-102.91 220.75,-74.5 162.68,-62.07 97.57,-38.57 59.47,-23.8"/>
<polygon fill="#63b8ff" stroke="#63b8ff" points="61.01,-20.64 50.42,-20.25 58.46,-27.16 61.01,-20.64"/>
</a>
</g>
</g>
<!-- Node3 -->
<g id="Node000003" class="node">
<title>Node3</title>
<g id="a_Node000003"><a xlink:title=" ">
<polygon fill="#e0e0e0" stroke="#999999" points="566.38,-74.5 509.12,-74.5 509.12,-55.25 566.38,-55.25 566.38,-74.5"/>
<text text-anchor="middle" x="537.75" y="-61" font-family="Helvetica,sans-Serif" font-size="10.00">Buttons.h</text>
</a>
</g>
</g>
<!-- Node1&#45;&gt;Node3 -->
<g id="edge2_Node000001_Node000003" class="edge">
<title>Node1&#45;&gt;Node3</title>
<g id="a_edge2_Node000001_Node000003"><a xlink:title=" ">
<path fill="none" stroke="#63b8ff" d="M630.75,-110.09C613.29,-101.79 587.15,-89.36 567.03,-79.79"/>
<polygon fill="#63b8ff" stroke="#63b8ff" points="568.74,-76.74 558.21,-75.6 565.74,-83.06 568.74,-76.74"/>
</a>
</g>
</g>
<!-- Node4 -->
<g id="Node000004" class="node">
<title>Node4</title>
<g id="a_Node000004"><a xlink:title=" ">
<polygon fill="#e0e0e0" stroke="#999999" points="639.25,-74.5 584.25,-74.5 584.25,-55.25 639.25,-55.25 639.25,-74.5"/>
<text text-anchor="middle" x="611.75" y="-61" font-family="Helvetica,sans-Serif" font-size="10.00">TAttFill.h</text>
</a>
</g>
</g>
<!-- Node1&#45;&gt;Node4 -->
<g id="edge3_Node000001_Node000004" class="edge">
<title>Node1&#45;&gt;Node4</title>
<g id="a_edge3_Node000001_Node000004"><a xlink:title=" ">
<path fill="none" stroke="#63b8ff" d="M643.48,-110.33C638.39,-103.21 631.05,-92.93 624.72,-84.05"/>
<polygon fill="#63b8ff" stroke="#63b8ff" points="627.7,-82.2 619.04,-76.09 622,-86.26 627.7,-82.2"/>
</a>
</g>
</g>
<!-- Node5 -->
<g id="Node000005" class="node">
<title>Node5</title>
<g id="a_Node000005"><a xlink:title=" ">
<polygon fill="#e0e0e0" stroke="#999999" points="718.25,-74.5 657.25,-74.5 657.25,-55.25 718.25,-55.25 718.25,-74.5"/>
<text text-anchor="middle" x="687.75" y="-61" font-family="Helvetica,sans-Serif" font-size="10.00">TAttLine.h</text>
</a>
</g>
</g>
<!-- Node1&#45;&gt;Node5 -->
<g id="edge4_Node000001_Node000005" class="edge">
<title>Node1&#45;&gt;Node5</title>
<g id="a_edge4_Node000001_Node000005"><a xlink:title=" ">
<path fill="none" stroke="#63b8ff" d="M656.02,-110.33C661.11,-103.21 668.45,-92.93 674.78,-84.05"/>
<polygon fill="#63b8ff" stroke="#63b8ff" points="677.5,-86.26 680.46,-76.09 671.8,-82.2 677.5,-86.26"/>
</a>
</g>
</g>
<!-- Node6 -->
<g id="Node000006" class="node">
<title>Node6</title>
<g id="a_Node000006"><a xlink:title=" ">
<polygon fill="#e0e0e0" stroke="#999999" points="201,-19.25 138.5,-19.25 138.5,0 201,0 201,-19.25"/>
<text text-anchor="middle" x="169.75" y="-5.75" font-family="Helvetica,sans-Serif" font-size="10.00">TCanvas.h</text>
</a>
</g>
</g>
<!-- Node1&#45;&gt;Node6 -->
<g id="edge5_Node000001_Node000006" class="edge">
<title>Node1&#45;&gt;Node6</title>
<g id="a_edge5_Node000001_Node000006"><a xlink:title=" ">
<path fill="none" stroke="#63b8ff" d="M595.43,-116.31C502.91,-110.95 318.91,-97.7 258.75,-74.5 230.9,-63.76 203.75,-42.18 186.91,-27.09"/>
<polygon fill="#63b8ff" stroke="#63b8ff" points="189.5,-24.73 179.78,-20.51 184.75,-29.87 189.5,-24.73"/>
</a>
</g>
</g>
<!-- Node7 -->
<g id="Node000007" class="node">
<title>Node7</title>
<g id="a_Node000007"><a xlink:title=" ">
<polygon fill="#e0e0e0" stroke="#999999" points="784.88,-74.5 736.62,-74.5 736.62,-55.25 784.88,-55.25 784.88,-74.5"/>
<text text-anchor="middle" x="760.75" y="-61" font-family="Helvetica,sans-Serif" font-size="10.00">TLine.h</text>
</a>
</g>
</g>
<!-- Node1&#45;&gt;Node7 -->
<g id="edge6_Node000001_Node000007" class="edge">
<title>Node1&#45;&gt;Node7</title>
<g id="a_edge6_Node000001_Node000007"><a xlink:title=" ">
<path fill="none" stroke="#63b8ff" d="M668.58,-110.09C685.8,-101.83 711.55,-89.48 731.46,-79.93"/>
<polygon fill="#63b8ff" stroke="#63b8ff" points="732.96,-83.09 740.46,-75.61 729.93,-76.78 732.96,-83.09"/>
</a>
</g>
</g>
<!-- Node8 -->
<g id="Node000008" class="node">
<title>Node8</title>
<g id="a_Node000008"><a xlink:title=" ">
<polygon fill="#e0e0e0" stroke="#999999" points="862.5,-74.5 803,-74.5 803,-55.25 862.5,-55.25 862.5,-74.5"/>
<text text-anchor="middle" x="832.75" y="-61" font-family="Helvetica,sans-Serif" font-size="10.00">TMarker.h</text>
</a>
</g>
</g>
<!-- Node1&#45;&gt;Node8 -->
<g id="edge7_Node000001_Node000008" class="edge">
<title>Node1&#45;&gt;Node8</title>
<g id="a_edge7_Node000001_Node000008"><a xlink:title=" ">
<path fill="none" stroke="#63b8ff" d="M680.79,-110.09C711.39,-101.19 758.32,-87.53 791.93,-77.75"/>
<polygon fill="#63b8ff" stroke="#63b8ff" points="792.69,-81.18 801.32,-75.02 790.74,-74.45 792.69,-81.18"/>
</a>
</g>
</g>
<!-- Node9 -->
<g id="Node000009" class="node">
<title>Node9</title>
<g id="a_Node000009"><a xlink:title=" ">
<polygon fill="#e0e0e0" stroke="#999999" points="878.25,-19.25 817.25,-19.25 817.25,0 878.25,0 878.25,-19.25"/>
<text text-anchor="middle" x="847.75" y="-5.75" font-family="Helvetica,sans-Serif" font-size="10.00">TNamed.h</text>
</a>
</g>
</g>
<!-- Node1&#45;&gt;Node9 -->
<g id="edge8_Node000001_Node000009" class="edge">
<title>Node1&#45;&gt;Node9</title>
<g id="a_edge8_Node000001_Node000009"><a xlink:title=" ">
<path fill="none" stroke="#63b8ff" d="M595.58,-114C540.85,-106.78 468.51,-90.34 499.75,-55.25 543.61,-5.99 723,-28.41 805.89,-19.25"/>
<polygon fill="#63b8ff" stroke="#63b8ff" points="806.22,-22.74 815.65,-17.91 805.27,-15.8 806.22,-22.74"/>
</a>
</g>
</g>
<!-- Node10 -->
<g id="Node000010" class="node">
<title>Node10</title>
<g id="a_Node000010"><a xlink:title=" ">
<polygon fill="#e0e0e0" stroke="#999999" points="955,-74.5 880.5,-74.5 880.5,-55.25 955,-55.25 955,-74.5"/>
<text text-anchor="middle" x="917.75" y="-61" font-family="Helvetica,sans-Serif" font-size="10.00">TParameter.h</text>
</a>
</g>
</g>
<!-- Node1&#45;&gt;Node10 -->
<g id="edge9_Node000001_Node000010" class="edge">
<title>Node1&#45;&gt;Node10</title>
<g id="a_edge9_Node000001_Node000010"><a xlink:title=" ">
<path fill="none" stroke="#63b8ff" d="M695.52,-110.03C743.92,-100.41 819.98,-85.3 869.36,-75.49"/>
<polygon fill="#63b8ff" stroke="#63b8ff" points="869.77,-78.98 878.9,-73.59 868.41,-72.11 869.77,-78.98"/>
</a>
</g>
</g>
<!-- Node11 -->
<g id="Node000011" class="node">
<title>Node11</title>
<g id="a_Node000011"><a xlink:title=" ">
<polygon fill="#e0e0e0" stroke="#999999" points="1030.38,-74.5 973.12,-74.5 973.12,-55.25 1030.38,-55.25 1030.38,-74.5"/>
<text text-anchor="middle" x="1001.75" y="-61" font-family="Helvetica,sans-Serif" font-size="10.00">TROOT.h</text>
</a>
</g>
</g>
<!-- Node1&#45;&gt;Node11 -->
<g id="edge10_Node000001_Node000011" class="edge">
<title>Node1&#45;&gt;Node11</title>
<g id="a_edge10_Node000001_Node000011"><a xlink:title=" ">
<path fill="none" stroke="#63b8ff" d="M704.14,-112.77C764.6,-105.4 865.36,-92.21 961.64,-74.75"/>
<polygon fill="#63b8ff" stroke="#63b8ff" points="962.06,-78.23 971.27,-72.99 960.8,-71.35 962.06,-78.23"/>
</a>
</g>
</g>
<!-- Node12 -->
<g id="Node000012" class="node">
<title>Node12</title>
<g id="a_Node000012"><a xlink:title=" ">
<polygon fill="#e0e0e0" stroke="#999999" points="1099.38,-74.5 1048.12,-74.5 1048.12,-55.25 1099.38,-55.25 1099.38,-74.5"/>
<text text-anchor="middle" x="1073.75" y="-61" font-family="Helvetica,sans-Serif" font-size="10.00">TMath.h</text>
</a>
</g>
</g>
<!-- Node1&#45;&gt;Node12 -->
<g id="edge11_Node000001_Node000012" class="edge">
<title>Node1&#45;&gt;Node12</title>
<g id="a_edge11_Node000001_Node000012"><a xlink:title=" ">
<path fill="none" stroke="#63b8ff" d="M704.35,-115.21C777.86,-109.42 912.89,-96.99 1036.67,-74.86"/>
<polygon fill="#63b8ff" stroke="#63b8ff" points="1037.14,-78.33 1046.35,-73.1 1035.89,-71.44 1037.14,-78.33"/>
</a>
</g>
</g>
<!-- Node13 -->
<g id="Node000013" class="node">
<title>Node13</title>
<g id="a_Node000013"><a xlink:title=" ">
<polygon fill="#e0e0e0" stroke="#999999" points="1181.75,-74.5 1117.75,-74.5 1117.75,-55.25 1181.75,-55.25 1181.75,-74.5"/>
<text text-anchor="middle" x="1149.75" y="-61" font-family="Helvetica,sans-Serif" font-size="10.00">TVirtualX.h</text>
</a>
</g>
</g>
<!-- Node1&#45;&gt;Node13 -->
<g id="edge12_Node000001_Node000013" class="edge">
<title>Node1&#45;&gt;Node13</title>
<g id="a_edge12_Node000001_Node000013"><a xlink:title=" ">
<path fill="none" stroke="#63b8ff" d="M704.05,-115.8C788.09,-110.21 954.93,-97.44 1106.25,-74.72"/>
<polygon fill="#63b8ff" stroke="#63b8ff" points="1106.73,-78.19 1116.09,-73.22 1105.67,-71.26 1106.73,-78.19"/>
</a>
</g>
</g>
<!-- Node14 -->
<g id="Node000014" class="node">
<title>Node14</title>
<g id="a_Node000014"><a xlink:href="../../d7/db9/_utilities_8hh.html" target="_top" xlink:title=" ">
<polygon fill="white" stroke="#666666" points="350.12,-74.5 267.38,-74.5 267.38,-55.25 350.12,-55.25 350.12,-74.5"/>
<text text-anchor="middle" x="308.75" y="-61" font-family="Helvetica,sans-Serif" font-size="10.00">utils/Utilities.hh</text>
</a>
</g>
</g>
<!-- Node1&#45;&gt;Node14 -->
<g id="edge13_Node000001_Node000014" class="edge">
<title>Node1&#45;&gt;Node14</title>
<g id="a_edge13_Node000001_Node000014"><a xlink:title=" ">
<path fill="none" stroke="#63b8ff" d="M595.34,-110.63C531.26,-100.62 425.52,-84.11 361.96,-74.18"/>
<polygon fill="#63b8ff" stroke="#63b8ff" points="362.52,-70.73 352.1,-72.64 361.44,-77.65 362.52,-70.73"/>
</a>
</g>
</g>
<!-- Node20 -->
<g id="Node000020" class="node">
<title>Node20</title>
<g id="a_Node000020"><a xlink:href="../../dd/d50/_gate_8hh.html" target="_top" xlink:title=" ">
<polygon fill="white" stroke="#666666" points="452.62,-74.5 402.88,-74.5 402.88,-55.25 452.62,-55.25 452.62,-74.5"/>
<text text-anchor="middle" x="427.75" y="-61" font-family="Helvetica,sans-Serif" font-size="10.00">Gate.hh</text>
</a>
</g>
</g>
<!-- Node1&#45;&gt;Node20 -->
<g id="edge20_Node000001_Node000020" class="edge">
<title>Node1&#45;&gt;Node20</title>
<g id="a_edge20_Node000001_Node000020"><a xlink:title=" ">
<path fill="none" stroke="#63b8ff" d="M611.84,-110.03C570.5,-100.12 504.81,-84.36 464.09,-74.59"/>
<polygon fill="#63b8ff" stroke="#63b8ff" points="465.08,-71.23 454.54,-72.3 463.44,-78.04 465.08,-71.23"/>
</a>
</g>
</g>
<!-- Node14&#45;&gt;Node6 -->
<g id="edge17_Node000014_Node000006" class="edge">
<title>Node14&#45;&gt;Node6</title>
<g id="a_edge17_Node000014_Node000006"><a xlink:title=" ">
<path fill="none" stroke="#63b8ff" d="M285.17,-54.84C262.91,-46.31 229.26,-33.42 204.03,-23.76"/>
<polygon fill="#63b8ff" stroke="#63b8ff" points="205.45,-20.55 194.86,-20.24 202.94,-27.09 205.45,-20.55"/>
</a>
</g>
</g>
<!-- Node15 -->
<g id="Node000015" class="node">
<title>Node15</title>
<g id="a_Node000015"><a xlink:title=" ">
<polygon fill="#e0e0e0" stroke="#999999" points="328.75,-19.25 288.75,-19.25 288.75,0 328.75,0 328.75,-19.25"/>
<text text-anchor="middle" x="308.75" y="-5.75" font-family="Helvetica,sans-Serif" font-size="10.00">string</text>
</a>
</g>
</g>
<!-- Node14&#45;&gt;Node15 -->
<g id="edge14_Node000014_Node000015" class="edge">
<title>Node14&#45;&gt;Node15</title>
<g id="a_edge14_Node000014_Node000015"><a xlink:title=" ">
<path fill="none" stroke="#63b8ff" d="M308.75,-55.08C308.75,-48.57 308.75,-39.42 308.75,-31.12"/>
<polygon fill="#63b8ff" stroke="#63b8ff" points="312.25,-31.12 308.75,-21.12 305.25,-31.12 312.25,-31.12"/>
</a>
</g>
</g>
<!-- Node16 -->
<g id="Node000016" class="node">
<title>Node16</title>
<g id="a_Node000016"><a xlink:title=" ">
<polygon fill="#e0e0e0" stroke="#999999" points="120.25,-19.25 71.25,-19.25 71.25,0 120.25,0 120.25,-19.25"/>
<text text-anchor="middle" x="95.75" y="-5.75" font-family="Helvetica,sans-Serif" font-size="10.00">fstream</text>
</a>
</g>
</g>
<!-- Node14&#45;&gt;Node16 -->
<g id="edge15_Node000014_Node000016" class="edge">
<title>Node14&#45;&gt;Node16</title>
<g id="a_edge15_Node000014_Node000016"><a xlink:title=" ">
<path fill="none" stroke="#63b8ff" d="M272.06,-54.77C238.13,-46.35 186.01,-33.38 131.55,-19.69"/>
<polygon fill="#63b8ff" stroke="#63b8ff" points="132.65,-16.36 122.1,-17.32 130.94,-23.15 132.65,-16.36"/>
</a>
</g>
</g>
<!-- Node17 -->
<g id="Node000017" class="node">
<title>Node17</title>
<g id="a_Node000017"><a xlink:title=" ">
<polygon fill="#e0e0e0" stroke="#999999" points="270.75,-19.25 218.75,-19.25 218.75,0 270.75,0 270.75,-19.25"/>
<text text-anchor="middle" x="244.75" y="-5.75" font-family="Helvetica,sans-Serif" font-size="10.00">complex</text>
</a>
</g>
</g>
<!-- Node14&#45;&gt;Node17 -->
<g id="edge16_Node000014_Node000017" class="edge">
<title>Node14&#45;&gt;Node17</title>
<g id="a_edge16_Node000014_Node000017"><a xlink:title=" ">
<path fill="none" stroke="#63b8ff" d="M297.89,-54.84C288.64,-47.15 275.13,-35.9 264.04,-26.68"/>
<polygon fill="#63b8ff" stroke="#63b8ff" points="266.54,-24.2 256.61,-20.49 262.06,-29.58 266.54,-24.2"/>
</a>
</g>
</g>
<!-- Node18 -->
<g id="Node000018" class="node">
<title>Node18</title>
<g id="a_Node000018"><a xlink:title=" ">
<polygon fill="#e0e0e0" stroke="#999999" points="388.88,-19.25 346.62,-19.25 346.62,0 388.88,0 388.88,-19.25"/>
<text text-anchor="middle" x="367.75" y="-5.75" font-family="Helvetica,sans-Serif" font-size="10.00">TH1.h</text>
</a>
</g>
</g>
<!-- Node14&#45;&gt;Node18 -->
<g id="edge18_Node000014_Node000018" class="edge">
<title>Node14&#45;&gt;Node18</title>
<g id="a_edge18_Node000014_Node000018"><a xlink:title=" ">
<path fill="none" stroke="#63b8ff" d="M318.76,-54.84C327.12,-47.3 339.25,-36.35 349.35,-27.23"/>
<polygon fill="#63b8ff" stroke="#63b8ff" points="351.69,-29.84 356.77,-20.54 347,-24.64 351.69,-29.84"/>
</a>
</g>
</g>
<!-- Node19 -->
<g id="Node000019" class="node">
<title>Node19</title>
<g id="a_Node000019"><a xlink:title=" ">
<polygon fill="#e0e0e0" stroke="#999999" points="448.88,-19.25 406.62,-19.25 406.62,0 448.88,0 448.88,-19.25"/>
<text text-anchor="middle" x="427.75" y="-5.75" font-family="Helvetica,sans-Serif" font-size="10.00">TH2.h</text>
</a>
</g>
</g>
<!-- Node14&#45;&gt;Node19 -->
<g id="edge19_Node000014_Node000019" class="edge">
<title>Node14&#45;&gt;Node19</title>
<g id="a_edge19_Node000014_Node000019"><a xlink:title=" ">
<path fill="none" stroke="#63b8ff" d="M328.94,-54.84C347.66,-46.47 375.77,-33.88 397.23,-24.28"/>
<polygon fill="#63b8ff" stroke="#63b8ff" points="398.38,-27.6 406.08,-20.32 395.53,-21.21 398.38,-27.6"/>
</a>
</g>
</g>
<!-- Node20&#45;&gt;Node2 -->
<g id="edge25_Node000020_Node000002" class="edge">
<title>Node20&#45;&gt;Node2</title>
<g id="a_edge25_Node000020_Node000002"><a xlink:title=" ">
<path fill="none" stroke="#63b8ff" d="M402.52,-60.7C389.46,-59.06 373.25,-57.03 358.75,-55.25 230.39,-39.45 194.49,-42.99 64.96,-19.67"/>
<polygon fill="#63b8ff" stroke="#63b8ff" points="65.77,-16.26 55.3,-17.91 64.51,-23.14 65.77,-16.26"/>
</a>
</g>
</g>
<!-- Node20&#45;&gt;Node6 -->
<g id="edge28_Node000020_Node000006" class="edge">
<title>Node20&#45;&gt;Node6</title>
<g id="a_edge28_Node000020_Node000006"><a xlink:title=" ">
<path fill="none" stroke="#63b8ff" d="M402.56,-58.81C363.85,-51 287.14,-35.46 212.22,-19.75"/>
<polygon fill="#63b8ff" stroke="#63b8ff" points="213.17,-16.38 202.67,-17.75 211.73,-23.23 213.17,-16.38"/>
</a>
</g>
</g>
<!-- Node20&#45;&gt;Node9 -->
<g id="edge31_Node000020_Node000009" class="edge">
<title>Node20&#45;&gt;Node9</title>
<g id="a_edge31_Node000020_Node000009"><a xlink:title=" ">
<path fill="none" stroke="#63b8ff" d="M452.84,-57.89C457.45,-56.91 462.23,-55.98 466.75,-55.25 614.07,-31.28 655.94,-43.2 806.15,-19.5"/>
<polygon fill="#63b8ff" stroke="#63b8ff" points="806.34,-23.02 815.66,-17.97 805.23,-16.1 806.34,-23.02"/>
</a>
</g>
</g>
<!-- Node20&#45;&gt;Node15 -->
<g id="edge24_Node000020_Node000015" class="edge">
<title>Node20&#45;&gt;Node15</title>
<g id="a_edge24_Node000020_Node000015"><a xlink:title=" ">
<path fill="none" stroke="#63b8ff" d="M407.56,-54.84C388.84,-46.47 360.73,-33.88 339.27,-24.28"/>
<polygon fill="#63b8ff" stroke="#63b8ff" points="340.97,-21.21 330.42,-20.32 338.12,-27.6 340.97,-21.21"/>
</a>
</g>
</g>
<!-- Node20&#45;&gt;Node18 -->
<g id="edge29_Node000020_Node000018" class="edge">
<title>Node20&#45;&gt;Node18</title>
<g id="a_edge29_Node000020_Node000018"><a xlink:title=" ">
<path fill="none" stroke="#63b8ff" d="M417.57,-54.84C408.99,-47.22 396.48,-36.12 386.15,-26.95"/>
<polygon fill="#63b8ff" stroke="#63b8ff" points="388.71,-24.55 378.91,-20.53 384.07,-29.79 388.71,-24.55"/>
</a>
</g>
</g>
<!-- Node20&#45;&gt;Node19 -->
<g id="edge30_Node000020_Node000019" class="edge">
<title>Node20&#45;&gt;Node19</title>
<g id="a_edge30_Node000020_Node000019"><a xlink:title=" ">
<path fill="none" stroke="#63b8ff" d="M427.75,-55.08C427.75,-48.57 427.75,-39.42 427.75,-31.12"/>
<polygon fill="#63b8ff" stroke="#63b8ff" points="431.25,-31.12 427.75,-21.12 424.25,-31.12 431.25,-31.12"/>
</a>
</g>
</g>
<!-- Node21 -->
<g id="Node000021" class="node">
<title>Node21</title>
<g id="a_Node000021"><a xlink:title=" ">
<polygon fill="#e0e0e0" stroke="#999999" points="606.62,-19.25 550.88,-19.25 550.88,0 606.62,0 606.62,-19.25"/>
<text text-anchor="middle" x="578.75" y="-5.75" font-family="Helvetica,sans-Serif" font-size="10.00">algorithm</text>
</a>
</g>
</g>
<!-- Node20&#45;&gt;Node21 -->
<g id="edge21_Node000020_Node000021" class="edge">
<title>Node20&#45;&gt;Node21</title>
<g id="a_edge21_Node000020_Node000021"><a xlink:title=" ">
<path fill="none" stroke="#63b8ff" d="M453.02,-54.96C477.37,-46.37 514.48,-33.29 542.08,-23.56"/>
<polygon fill="#63b8ff" stroke="#63b8ff" points="543.19,-26.88 551.46,-20.25 540.87,-20.27 543.19,-26.88"/>
</a>
</g>
</g>
<!-- Node22 -->
<g id="Node000022" class="node">
<title>Node22</title>
<g id="a_Node000022"><a xlink:title=" ">
<polygon fill="#e0e0e0" stroke="#999999" points="659.12,-19.25 624.38,-19.25 624.38,0 659.12,0 659.12,-19.25"/>
<text text-anchor="middle" x="641.75" y="-5.75" font-family="Helvetica,sans-Serif" font-size="10.00">map</text>
</a>
</g>
</g>
<!-- Node20&#45;&gt;Node22 -->
<g id="edge22_Node000020_Node000022" class="edge">
<title>Node20&#45;&gt;Node22</title>
<g id="a_edge22_Node000020_Node000022"><a xlink:title=" ">
<path fill="none" stroke="#63b8ff" d="M453.03,-58.16C493.08,-49.07 570.32,-31.34 612.89,-19.84"/>
<polygon fill="#63b8ff" stroke="#63b8ff" points="613.76,-23.23 622.45,-17.18 611.88,-16.48 613.76,-23.23"/>
</a>
</g>
</g>
<!-- Node23 -->
<g id="Node000023" class="node">
<title>Node23</title>
<g id="a_Node000023"><a xlink:title=" ">
<polygon fill="#e0e0e0" stroke="#999999" points="728.38,-19.25 677.12,-19.25 677.12,0 728.38,0 728.38,-19.25"/>
<text text-anchor="middle" x="702.75" y="-5.75" font-family="Helvetica,sans-Serif" font-size="10.00">sstream</text>
</a>
</g>
</g>
<!-- Node20&#45;&gt;Node23 -->
<g id="edge23_Node000020_Node000023" class="edge">
<title>Node20&#45;&gt;Node23</title>
<g id="a_edge23_Node000020_Node000023"><a xlink:title=" ">
<path fill="none" stroke="#63b8ff" d="M452.89,-58.16C457.5,-57.16 462.26,-56.15 466.75,-55.25 552.27,-38.14 577.06,-38.09 665.67,-19.57"/>
<polygon fill="#63b8ff" stroke="#63b8ff" points="666.26,-23.02 675.32,-17.53 664.81,-16.17 666.26,-23.02"/>
</a>
</g>
</g>
<!-- Node24 -->
<g id="Node000024" class="node">
<title>Node24</title>
<g id="a_Node000024"><a xlink:title=" ">
<polygon fill="#e0e0e0" stroke="#999999" points="799.5,-19.25 746,-19.25 746,0 799.5,0 799.5,-19.25"/>
<text text-anchor="middle" x="772.75" y="-5.75" font-family="Helvetica,sans-Serif" font-size="10.00">Rtypes.h</text>
</a>
</g>
</g>
<!-- Node20&#45;&gt;Node24 -->
<g id="edge26_Node000020_Node000024" class="edge">
<title>Node20&#45;&gt;Node24</title>
<g id="a_edge26_Node000020_Node000024"><a xlink:title=" ">
<path fill="none" stroke="#63b8ff" d="M452.86,-57.99C457.47,-57.01 462.24,-56.05 466.75,-55.25 582.78,-34.75 616.35,-41.38 734.38,-19.72"/>
<polygon fill="#63b8ff" stroke="#63b8ff" points="735.01,-23.16 744.19,-17.88 733.72,-16.28 735.01,-23.16"/>
</a>
</g>
</g>
<!-- Node25 -->
<g id="Node000025" class="node">
<title>Node25</title>
<g id="a_Node000025"><a xlink:title=" ">
<polygon fill="#e0e0e0" stroke="#999999" points="532.5,-19.25 467,-19.25 467,0 532.5,0 532.5,-19.25"/>
<text text-anchor="middle" x="499.75" y="-5.75" font-family="Helvetica,sans-Serif" font-size="10.00">TBrowser.h</text>
</a>
</g>
</g>
<!-- Node20&#45;&gt;Node25 -->
<g id="edge27_Node000020_Node000025" class="edge">
<title>Node20&#45;&gt;Node25</title>
<g id="a_edge27_Node000020_Node000025"><a xlink:title=" ">
<path fill="none" stroke="#63b8ff" d="M439.96,-54.84C450.58,-46.99 466.19,-35.45 478.79,-26.12"/>
<polygon fill="#63b8ff" stroke="#63b8ff" points="480.54,-29.19 486.5,-20.42 476.38,-23.56 480.54,-29.19"/>
</a>
</g>
</g>
</g>
</svg>

<g id="navigator" transform="translate(0 0)" fill="#404254">
  <rect fill="#f2f5e9" fill-opacity="0.5" stroke="#606060" stroke-width=".5" x="0" y="0" width="60" height="60"/>
  <use id="zoomplus" xlink:href="#zoomPlus" x="17" y="9" onmousedown="handleZoom(evt,'in')"/>
  <use id="zoomminus" xlink:href="#zoomMin" x="42" y="9" onmousedown="handleZoom(evt,'out')"/>
  <use id="reset" xlink:href="#resetDef" x="30" y="36" onmousedown="handleReset()"/>
   <use id="arrowup" xlink:href="#arrowUp" x="0" y="0" onmousedown="handlePan(0,-1)"/>
  <use id="arrowright" xlink:href="#arrowRight" x="0" y="0" onmousedown="handlePan(1,0)"/>
  <use id="arrowdown" xlink:href="#arrowDown" x="0" y="0" onmousedown="handlePan(0,1)"/>
  <use id="arrowleft" xlink:href="#arrowLeft" x="0" y="0" onmousedown="handlePan(-1,0)"/>
</g>
<svg viewBox="0 0 15 15" width="100%" height="30px" preserveAspectRatio="xMaxYMin meet">
 <g id="arrow_out" transform="scale(0.3 0.3)">
  <a xlink:href="_gate_8cc__incl_org.svg" target="_base">
   <rect id="button" ry="5" rx="5" y="6" x="6" height="38" width="38"
        fill="#f2f5e9" fill-opacity="0.5" stroke="#606060" stroke-width="1.0"/>
   <path id="arrow"
     d="M 11.500037,31.436501 C 11.940474,20.09759 22.043105,11.32322 32.158766,21.979434 L 37.068811,17.246167 C 37.068811,17.246167 37.088388,32 37.088388,32 L 22.160133,31.978069 C 22.160133,31.978069 26.997745,27.140456 26.997745,27.140456 C 18.528582,18.264221 13.291696,25.230495 11.500037,31.436501 z"
     style="fill:#404040;"/>
  </a>
 </g>
</svg>

<style type='text/css'>
<![CDATA[
[data-mouse-over-selected='false'] { opacity: 0.7; }
[data-mouse-over-selected='true']  { opacity: 1.0; }
]]>
</style>
<script type="application/ecmascript"><![CDATA[
document.addEventListener('DOMContentLoaded', (event) => {
  highlightEdges();
  highlightAdjacentNodes();
});
]]></script>
</svg>
