<?xml version="1.0" encoding="UTF-8" standalone="no"?>
<!DOCTYPE svg PUBLIC "-//W3C//DTD SVG 1.1//EN"
 "http://www.w3.org/Graphics/SVG/1.1/DTD/svg11.dtd">
<!-- Generated by graphviz version 2.50.0 (20220203.2022)
 -->
<!-- Title: GamR::Coulex::LevelScheme::AddLevel Pages: 1 -->
<svg width="717pt" height="130pt"
 viewBox="0.00 0.00 717.00 130.00" xmlns="http://www.w3.org/2000/svg" xmlns:xlink="http://www.w3.org/1999/xlink">
<g id="graph0" class="graph" transform="scale(1 1) rotate(0) translate(4 126)">
<title>GamR::Coulex::LevelScheme::AddLevel</title>
<polygon fill="white" stroke="transparent" points="-4,4 -4,-126 713,-126 713,4 -4,4"/>
<!-- Node1 -->
<g id="node1" class="node">
<title>Node1</title>
<g id="a_node1"><a xlink:title=" ">
<polygon fill="#bfbfbf" stroke="black" points="566,-47.5 566,-77.5 709,-77.5 709,-47.5 566,-47.5"/>
<text text-anchor="start" x="574" y="-65.5" font-family="Helvetica,sans-Serif" font-size="10.00">GamR::Coulex::LevelScheme</text>
<text text-anchor="middle" x="637.5" y="-54.5" font-family="Helvetica,sans-Serif" font-size="10.00">::AddLevel</text>
</a>
</g>
</g>
<!-- Node2 -->
<g id="node2" class="node">
<title>Node2</title>
<g id="a_node2"><a xlink:href="../../db/d16/class_gam_r_1_1_coulex_1_1_level_scheme.html#a160dc2ca214bb7c945ac1516086bd18e" target="_top" xlink:title=" ">
<polygon fill="white" stroke="black" points="378.5,-91.5 378.5,-121.5 521.5,-121.5 521.5,-91.5 378.5,-91.5"/>
<text text-anchor="start" x="386.5" y="-109.5" font-family="Helvetica,sans-Serif" font-size="10.00">GamR::Coulex::LevelScheme</text>
<text text-anchor="middle" x="450" y="-98.5" font-family="Helvetica,sans-Serif" font-size="10.00">::AddLevel</text>
</a>
</g>
</g>
<!-- Node1&#45;&gt;Node2 -->
<g id="edge1" class="edge">
<title>Node1&#45;&gt;Node2</title>
<path fill="none" stroke="midnightblue" d="M563.24,-79.88C547.08,-83.71 530.08,-87.74 514.35,-91.47"/>
<polygon fill="midnightblue" stroke="midnightblue" points="564.26,-83.23 573.18,-77.52 562.64,-76.42 564.26,-83.23"/>
</g>
<!-- Node3 -->
<g id="node3" class="node">
<title>Node3</title>
<g id="a_node3"><a xlink:href="../../dd/d3e/class_gam_r_1_1_coulex_1_1_coulex_calculation.html#a79a4ea8f06954b1cf8b8431010fedbf3" target="_top" xlink:title=" ">
<polygon fill="white" stroke="black" points="174,-49.5 174,-79.5 334,-79.5 334,-49.5 174,-49.5"/>
<text text-anchor="start" x="182" y="-67.5" font-family="Helvetica,sans-Serif" font-size="10.00">GamR::Coulex::CoulexCalculation</text>
<text text-anchor="middle" x="254" y="-56.5" font-family="Helvetica,sans-Serif" font-size="10.00">::ReadFromFile</text>
</a>
</g>
</g>
<!-- Node1&#45;&gt;Node3 -->
<g id="edge2" class="edge">
<title>Node1&#45;&gt;Node3</title>
<path fill="none" stroke="midnightblue" d="M555.39,-62.93C490.07,-63.27 398.8,-63.75 334.04,-64.09"/>
<polygon fill="midnightblue" stroke="midnightblue" points="555.66,-66.42 565.64,-62.87 555.62,-59.42 555.66,-66.42"/>
</g>
<!-- Node6 -->
<g id="node6" class="node">
<title>Node6</title>
<g id="a_node6"><a xlink:href="../../dd/d3e/class_gam_r_1_1_coulex_1_1_coulex_calculation.html#a46d4f1bd67b5c6c438efd93b9f1e4838" target="_top" xlink:title=" ">
<polygon fill="white" stroke="black" points="370,-2.5 370,-32.5 530,-32.5 530,-2.5 370,-2.5"/>
<text text-anchor="start" x="378" y="-20.5" font-family="Helvetica,sans-Serif" font-size="10.00">GamR::Coulex::CoulexCalculation</text>
<text text-anchor="middle" x="450" y="-9.5" font-family="Helvetica,sans-Serif" font-size="10.00">::SetLevelScheme</text>
</a>
</g>
</g>
<!-- Node1&#45;&gt;Node6 -->
<g id="edge5" class="edge">
<title>Node1&#45;&gt;Node6</title>
<path fill="none" stroke="midnightblue" d="M564.58,-45.05C547.54,-40.92 529.52,-36.55 512.97,-32.53"/>
<polygon fill="midnightblue" stroke="midnightblue" points="563.93,-48.5 574.47,-47.45 565.58,-41.69 563.93,-48.5"/>
</g>
<!-- Node4 -->
<g id="node4" class="node">
<title>Node4</title>
<g id="a_node4"><a xlink:href="../../d6/d76/namespace_gam_r_1_1_coulex.html#a41b07b0aa204c45d637b7c5a4e57d989" target="_top" xlink:title=" ">
<polygon fill="white" stroke="black" points="7,-53 7,-72 131,-72 131,-53 7,-53"/>
<text text-anchor="middle" x="69" y="-60" font-family="Helvetica,sans-Serif" font-size="10.00">GamR::Coulex::DoCoulex</text>
</a>
</g>
</g>
<!-- Node3&#45;&gt;Node4 -->
<g id="edge3" class="edge">
<title>Node3&#45;&gt;Node4</title>
<path fill="none" stroke="midnightblue" d="M163.7,-63.52C152.66,-63.4 141.59,-63.28 131.12,-63.17"/>
<polygon fill="midnightblue" stroke="midnightblue" points="163.76,-67.02 173.8,-63.63 163.84,-60.03 163.76,-67.02"/>
</g>
<!-- Node5 -->
<g id="node5" class="node">
<title>Node5</title>
<g id="a_node5"><a xlink:href="../../d6/d76/namespace_gam_r_1_1_coulex.html#a2551a0108b265de32e08ef2042a02212" target="_top" xlink:title=" ">
<polygon fill="white" stroke="black" points="0,-2.5 0,-32.5 138,-32.5 138,-2.5 0,-2.5"/>
<text text-anchor="start" x="8" y="-20.5" font-family="Helvetica,sans-Serif" font-size="10.00">GamR::Coulex::Experimental</text>
<text text-anchor="middle" x="69" y="-9.5" font-family="Helvetica,sans-Serif" font-size="10.00">Setup</text>
</a>
</g>
</g>
<!-- Node3&#45;&gt;Node5 -->
<g id="edge4" class="edge">
<title>Node3&#45;&gt;Node5</title>
<path fill="none" stroke="midnightblue" d="M184.77,-46.98C166.26,-42.22 146.39,-37.12 128.48,-32.52"/>
<polygon fill="midnightblue" stroke="midnightblue" points="184.04,-50.4 194.59,-49.5 185.78,-43.62 184.04,-50.4"/>
</g>
<!-- Node7 -->
<g id="node7" class="node">
<title>Node7</title>
<g id="a_node7"><a xlink:href="../../dd/d3e/class_gam_r_1_1_coulex_1_1_coulex_calculation.html#ae8ce7427467c968c1a44f74a06ce4a30" target="_top" xlink:title=" ">
<polygon fill="white" stroke="black" points="174,-0.5 174,-30.5 334,-30.5 334,-0.5 174,-0.5"/>
<text text-anchor="start" x="182" y="-18.5" font-family="Helvetica,sans-Serif" font-size="10.00">GamR::Coulex::CoulexCalculation</text>
<text text-anchor="middle" x="254" y="-7.5" font-family="Helvetica,sans-Serif" font-size="10.00">::ExperimentalSetup</text>
</a>
</g>
</g>
<!-- Node6&#45;&gt;Node7 -->
<g id="edge6" class="edge">
<title>Node6&#45;&gt;Node7</title>
<path fill="none" stroke="midnightblue" d="M359.56,-16.58C351.12,-16.49 342.59,-16.4 334.25,-16.32"/>
<polygon fill="midnightblue" stroke="midnightblue" points="359.78,-20.08 369.81,-16.68 359.85,-13.08 359.78,-20.08"/>
</g>
<!-- Node7&#45;&gt;Node4 -->
<g id="edge7" class="edge">
<title>Node7&#45;&gt;Node4</title>
<path fill="none" stroke="midnightblue" d="M184.68,-33.05C158.42,-39.79 129.42,-47.24 107.16,-52.96"/>
<polygon fill="midnightblue" stroke="midnightblue" points="185.78,-36.38 194.59,-30.5 184.04,-29.6 185.78,-36.38"/>
</g>
<!-- Node7&#45;&gt;Node5 -->
<g id="edge8" class="edge">
<title>Node7&#45;&gt;Node5</title>
<path fill="none" stroke="midnightblue" d="M163.72,-16.48C155.12,-16.57 146.48,-16.66 138.13,-16.76"/>
<polygon fill="midnightblue" stroke="midnightblue" points="163.84,-19.97 173.8,-16.37 163.76,-12.98 163.84,-19.97"/>
</g>
</g>
</svg>
