<?xml version="1.0" encoding="UTF-8" standalone="no"?>
<!DOCTYPE svg PUBLIC "-//W3C//DTD SVG 1.1//EN"
 "http://www.w3.org/Graphics/SVG/1.1/DTD/svg11.dtd">
<!-- Generated by graphviz version 12.2.1 (20241206.2353)
 -->
<!-- Title: GamR::Coulex::LevelScheme::Print Pages: 1 -->
<svg width="667pt" height="235pt"
 viewBox="0.00 0.00 666.75 234.50" xmlns="http://www.w3.org/2000/svg" xmlns:xlink="http://www.w3.org/1999/xlink">
<g id="graph0" class="graph" transform="scale(1 1) rotate(0) translate(4 230.5)">
<title>GamR::Coulex::LevelScheme::Print</title>
<!-- Node1 -->
<g id="Node000001" class="node">
<title>Node1</title>
<g id="a_Node000001"><a xlink:title=" ">
<polygon fill="#999999" stroke="#666666" points="142,-127.5 0,-127.5 0,-97 142,-97 142,-127.5"/>
<text text-anchor="start" x="8" y="-114" font-family="Helvetica,sans-Serif" font-size="10.00">GamR::Coulex::LevelScheme</text>
<text text-anchor="middle" x="71" y="-102.75" font-family="Helvetica,sans-Serif" font-size="10.00">::Print</text>
</a>
</g>
</g>
<!-- Node2 -->
<g id="Node000002" class="node">
<title>Node2</title>
<g id="a_Node000002"><a xlink:href="../../db/d16/class_gam_r_1_1_coulex_1_1_level_scheme.html#a4b86aa22b5d902bb4bd3a0103744e423" target="_top" xlink:title=" ">
<polygon fill="white" stroke="#666666" points="320,-164.5 178,-164.5 178,-134 320,-134 320,-164.5"/>
<text text-anchor="start" x="186" y="-151" font-family="Helvetica,sans-Serif" font-size="10.00">GamR::Coulex::LevelScheme</text>
<text text-anchor="middle" x="249" y="-139.75" font-family="Helvetica,sans-Serif" font-size="10.00">::PrintLevels</text>
</a>
</g>
</g>
<!-- Node1&#45;&gt;Node2 -->
<g id="edge1_Node000001_Node000002" class="edge">
<title>Node1&#45;&gt;Node2</title>
<g id="a_edge1_Node000001_Node000002"><a xlink:title=" ">
<path fill="none" stroke="#63b8ff" d="M142.32,-127.03C150.19,-128.69 158.26,-130.39 166.27,-132.07"/>
<polygon fill="#63b8ff" stroke="#63b8ff" points="165.52,-135.49 176.02,-134.12 166.96,-128.64 165.52,-135.49"/>
</a>
</g>
</g>
<!-- Node6 -->
<g id="Node000006" class="node">
<title>Node6</title>
<g id="a_Node000006"><a xlink:href="../../db/d16/class_gam_r_1_1_coulex_1_1_level_scheme.html#aec7be097855daffdbd46cf158993ed67" target="_top" xlink:title=" ">
<polygon fill="white" stroke="#666666" points="320,-103.5 178,-103.5 178,-73 320,-73 320,-103.5"/>
<text text-anchor="start" x="186" y="-90" font-family="Helvetica,sans-Serif" font-size="10.00">GamR::Coulex::LevelScheme</text>
<text text-anchor="middle" x="249" y="-78.75" font-family="Helvetica,sans-Serif" font-size="10.00">::PrintTransitions</text>
</a>
</g>
</g>
<!-- Node1&#45;&gt;Node6 -->
<g id="edge5_Node000001_Node000006" class="edge">
<title>Node1&#45;&gt;Node6</title>
<g id="a_edge5_Node000001_Node000006"><a xlink:title=" ">
<path fill="none" stroke="#63b8ff" d="M142.32,-102.66C150.19,-101.59 158.26,-100.49 166.27,-99.4"/>
<polygon fill="#63b8ff" stroke="#63b8ff" points="166.57,-102.89 176.01,-98.07 165.62,-95.95 166.57,-102.89"/>
</a>
</g>
</g>
<!-- Node3 -->
<g id="Node000003" class="node">
<title>Node3</title>
<g id="a_Node000003"><a xlink:href="../../db/d16/class_gam_r_1_1_coulex_1_1_level_scheme.html#a0084c39cedee838191658398fa05f16a" target="_top" xlink:title=" ">
<polygon fill="white" stroke="#666666" points="498,-226.5 356,-226.5 356,-196 498,-196 498,-226.5"/>
<text text-anchor="start" x="364" y="-213" font-family="Helvetica,sans-Serif" font-size="10.00">GamR::Coulex::LevelScheme</text>
<text text-anchor="middle" x="427" y="-201.75" font-family="Helvetica,sans-Serif" font-size="10.00">::GetLevelByIndex</text>
</a>
</g>
</g>
<!-- Node2&#45;&gt;Node3 -->
<g id="edge2_Node000002_Node000003" class="edge">
<title>Node2&#45;&gt;Node3</title>
<g id="a_edge2_Node000002_Node000003"><a xlink:title=" ">
<path fill="none" stroke="#63b8ff" d="M294.41,-164.9C317.56,-173.05 346.1,-183.1 370.68,-191.76"/>
<polygon fill="#63b8ff" stroke="#63b8ff" points="369.27,-194.98 379.87,-195 371.6,-188.38 369.27,-194.98"/>
</a>
</g>
</g>
<!-- Node4 -->
<g id="Node000004" class="node">
<title>Node4</title>
<g id="a_Node000004"><a xlink:href="../../d1/d65/class_gam_r_1_1_coulex_1_1_level.html#a5b8c0227f0d4f75f5e57c58d61b9bf4b" target="_top" xlink:title=" ">
<polygon fill="white" stroke="#666666" points="480,-177.5 374,-177.5 374,-147 480,-147 480,-177.5"/>
<text text-anchor="start" x="382" y="-164" font-family="Helvetica,sans-Serif" font-size="10.00">GamR::Coulex::Level</text>
<text text-anchor="middle" x="427" y="-152.75" font-family="Helvetica,sans-Serif" font-size="10.00">::PrintSP</text>
</a>
</g>
</g>
<!-- Node2&#45;&gt;Node4 -->
<g id="edge3_Node000002_Node000004" class="edge">
<title>Node2&#45;&gt;Node4</title>
<g id="a_edge3_Node000002_Node000004"><a xlink:title=" ">
<path fill="none" stroke="#63b8ff" d="M320.32,-154.44C334.23,-155.47 348.76,-156.54 362.43,-157.55"/>
<polygon fill="#63b8ff" stroke="#63b8ff" points="361.95,-161.03 372.18,-158.27 362.46,-154.05 361.95,-161.03"/>
</a>
</g>
</g>
<!-- Node5 -->
<g id="Node000005" class="node">
<title>Node5</title>
<g id="a_Node000005"><a xlink:href="../../db/d16/class_gam_r_1_1_coulex_1_1_level_scheme.html#a807279006620a7c5d147431f72ed5be6" target="_top" xlink:title=" ">
<polygon fill="white" stroke="#666666" points="498,-128.5 356,-128.5 356,-98 498,-98 498,-128.5"/>
<text text-anchor="start" x="364" y="-115" font-family="Helvetica,sans-Serif" font-size="10.00">GamR::Coulex::LevelScheme</text>
<text text-anchor="middle" x="427" y="-103.75" font-family="Helvetica,sans-Serif" font-size="10.00">::SetIndices</text>
</a>
</g>
</g>
<!-- Node2&#45;&gt;Node5 -->
<g id="edge4_Node000002_Node000005" class="edge">
<title>Node2&#45;&gt;Node5</title>
<g id="a_edge4_Node000002_Node000005"><a xlink:title=" ">
<path fill="none" stroke="#63b8ff" d="M320.32,-134.87C328.19,-133.26 336.26,-131.6 344.27,-129.97"/>
<polygon fill="#63b8ff" stroke="#63b8ff" points="344.93,-133.41 354.02,-127.97 343.52,-126.55 344.93,-133.41"/>
</a>
</g>
</g>
<!-- Node6&#45;&gt;Node5 -->
<g id="edge7_Node000006_Node000005" class="edge">
<title>Node6&#45;&gt;Node5</title>
<g id="a_edge7_Node000006_Node000005"><a xlink:title=" ">
<path fill="none" stroke="#63b8ff" d="M320.32,-98.24C328.19,-99.36 336.26,-100.5 344.27,-101.64"/>
<polygon fill="#63b8ff" stroke="#63b8ff" points="343.61,-105.08 354.01,-103.02 344.6,-98.15 343.61,-105.08"/>
</a>
</g>
</g>
<!-- Node7 -->
<g id="Node000007" class="node">
<title>Node7</title>
<g id="a_Node000007"><a xlink:href="../../d1/d57/class_gam_r_1_1_coulex_1_1_transition.html#a968f19b8a7d201a680099e8b0830ebcb" target="_top" xlink:title=" ">
<polygon fill="white" stroke="#666666" points="489.38,-79.5 364.62,-79.5 364.62,-49 489.38,-49 489.38,-79.5"/>
<text text-anchor="start" x="372.62" y="-66" font-family="Helvetica,sans-Serif" font-size="10.00">GamR::Coulex::Transition</text>
<text text-anchor="middle" x="427" y="-54.75" font-family="Helvetica,sans-Serif" font-size="10.00">::Energy</text>
</a>
</g>
</g>
<!-- Node6&#45;&gt;Node7 -->
<g id="edge6_Node000006_Node000007" class="edge">
<title>Node6&#45;&gt;Node7</title>
<g id="a_edge6_Node000006_Node000007"><a xlink:title=" ">
<path fill="none" stroke="#63b8ff" d="M320.32,-78.66C331.12,-77.19 342.29,-75.66 353.15,-74.18"/>
<polygon fill="#63b8ff" stroke="#63b8ff" points="353.38,-77.69 362.82,-72.87 352.44,-70.75 353.38,-77.69"/>
</a>
</g>
</g>
<!-- Node8 -->
<g id="Node000008" class="node">
<title>Node8</title>
<g id="a_Node000008"><a xlink:href="../../d1/d57/class_gam_r_1_1_coulex_1_1_transition.html#a1eb0854064b55ad398a44509b3bf799a" target="_top" xlink:title=" ">
<polygon fill="white" stroke="#666666" points="489.38,-30.5 364.62,-30.5 364.62,0 489.38,0 489.38,-30.5"/>
<text text-anchor="start" x="372.62" y="-17" font-family="Helvetica,sans-Serif" font-size="10.00">GamR::Coulex::Transition</text>
<text text-anchor="middle" x="427" y="-5.75" font-family="Helvetica,sans-Serif" font-size="10.00">::Type</text>
</a>
</g>
</g>
<!-- Node6&#45;&gt;Node8 -->
<g id="edge8_Node000006_Node000008" class="edge">
<title>Node6&#45;&gt;Node8</title>
<g id="a_edge8_Node000006_Node000008"><a xlink:title=" ">
<path fill="none" stroke="#63b8ff" d="M282.64,-72.63C303.45,-62.88 331.09,-50.32 356,-40.25 360.37,-38.48 364.93,-36.71 369.52,-34.97"/>
<polygon fill="#63b8ff" stroke="#63b8ff" points="370.66,-38.28 378.81,-31.51 368.22,-31.72 370.66,-38.28"/>
</a>
</g>
</g>
<!-- Node9 -->
<g id="Node000009" class="node">
<title>Node9</title>
<g id="a_Node000009"><a xlink:href="../../d1/d57/class_gam_r_1_1_coulex_1_1_transition.html#ad14d319ec7f096d0a48f2ad1c6760a4e" target="_top" xlink:title=" ">
<polygon fill="white" stroke="#666666" points="658.75,-30.5 534,-30.5 534,0 658.75,0 658.75,-30.5"/>
<text text-anchor="start" x="542" y="-17" font-family="Helvetica,sans-Serif" font-size="10.00">GamR::Coulex::Transition</text>
<text text-anchor="middle" x="596.38" y="-5.75" font-family="Helvetica,sans-Serif" font-size="10.00">::Character</text>
</a>
</g>
</g>
<!-- Node8&#45;&gt;Node9 -->
<g id="edge9_Node000008_Node000009" class="edge">
<title>Node8&#45;&gt;Node9</title>
<g id="a_edge9_Node000008_Node000009"><a xlink:title=" ">
<path fill="none" stroke="#63b8ff" d="M489.85,-15.25C500.31,-15.25 511.26,-15.25 521.99,-15.25"/>
<polygon fill="#63b8ff" stroke="#63b8ff" points="521.99,-18.75 531.99,-15.25 521.99,-11.75 521.99,-18.75"/>
</a>
</g>
</g>
</g>
</svg>
