<?xml version="1.0" encoding="UTF-8" standalone="no"?>
<!DOCTYPE svg PUBLIC "-//W3C//DTD SVG 1.1//EN"
 "http://www.w3.org/Graphics/SVG/1.1/DTD/svg11.dtd">
<!-- Generated by graphviz version 12.0.0 (20240704.0754)
 -->
<!-- Title: GamR::Coulex::LevelScheme::GetLevelByIndex Pages: 1 -->
<svg width="892pt" height="137pt"
 viewBox="0.00 0.00 892.00 136.50" xmlns="http://www.w3.org/2000/svg" xmlns:xlink="http://www.w3.org/1999/xlink">
<g id="graph0" class="graph" transform="scale(1 1) rotate(0) translate(4 132.5)">
<title>GamR::Coulex::LevelScheme::GetLevelByIndex</title>
<!-- Node1 -->
<g id="Node000001" class="node">
<title>Node1</title>
<g id="a_Node000001"><a xlink:title=" ">
<polygon fill="#999999" stroke="#666666" points="884,-73.5 742,-73.5 742,-43 884,-43 884,-73.5"/>
<text text-anchor="start" x="750" y="-60" font-family="Helvetica,sans-Serif" font-size="10.00">GamR::Coulex::LevelScheme</text>
<text text-anchor="middle" x="813" y="-48.75" font-family="Helvetica,sans-Serif" font-size="10.00">::GetLevelByIndex</text>
</a>
</g>
</g>
<!-- Node2 -->
<g id="Node000002" class="node">
<title>Node2</title>
<g id="a_Node000002"><a xlink:href="../../db/d16/class_gam_r_1_1_coulex_1_1_level_scheme.html#a4b86aa22b5d902bb4bd3a0103744e423" target="_top" xlink:title=" ">
<polygon fill="white" stroke="#666666" points="706,-116.5 564,-116.5 564,-86 706,-86 706,-116.5"/>
<text text-anchor="start" x="572" y="-103" font-family="Helvetica,sans-Serif" font-size="10.00">GamR::Coulex::LevelScheme</text>
<text text-anchor="middle" x="635" y="-91.75" font-family="Helvetica,sans-Serif" font-size="10.00">::PrintLevels</text>
</a>
</g>
</g>
<!-- Node1&#45;&gt;Node2 -->
<g id="edge1_Node000001_Node000002" class="edge">
<title>Node1&#45;&gt;Node2</title>
<g id="a_edge1_Node000001_Node000002"><a xlink:title=" ">
<path fill="none" stroke="#63b8ff" d="M736.89,-76.6C724.71,-79.58 712.18,-82.64 700.29,-85.54"/>
<polygon fill="#63b8ff" stroke="#63b8ff" points="737.61,-80.03 746.49,-74.25 735.95,-73.23 737.61,-80.03"/>
</a>
</g>
</g>
<!-- Node7 -->
<g id="Node000007" class="node">
<title>Node7</title>
<g id="a_Node000007"><a xlink:href="../../dd/d3e/class_gam_r_1_1_coulex_1_1_coulex_calculation.html#a46d4f1bd67b5c6c438efd93b9f1e4838" target="_top" xlink:title=" ">
<polygon fill="white" stroke="#666666" points="528,-79.5 368.75,-79.5 368.75,-49 528,-49 528,-79.5"/>
<text text-anchor="start" x="376.75" y="-66" font-family="Helvetica,sans-Serif" font-size="10.00">GamR::Coulex::CoulexCalculation</text>
<text text-anchor="middle" x="448.38" y="-54.75" font-family="Helvetica,sans-Serif" font-size="10.00">::SetLevelScheme</text>
</a>
</g>
</g>
<!-- Node1&#45;&gt;Node7 -->
<g id="edge13_Node000001_Node000007" class="edge">
<title>Node1&#45;&gt;Node7</title>
<g id="a_edge13_Node000001_Node000007"><a xlink:title=" ">
<path fill="none" stroke="#63b8ff" d="M730.25,-59.6C669.85,-60.6 588.08,-61.95 528.35,-62.94"/>
<polygon fill="#63b8ff" stroke="#63b8ff" points="730.2,-63.1 740.14,-59.44 730.08,-56.11 730.2,-63.1"/>
</a>
</g>
</g>
<!-- Node9 -->
<g id="Node000009" class="node">
<title>Node9</title>
<g id="a_Node000009"><a xlink:href="../../dd/d3e/class_gam_r_1_1_coulex_1_1_coulex_calculation.html#a73b102e9bab00f6460caf510c0acb1d1" target="_top" xlink:title=" ">
<polygon fill="white" stroke="#666666" points="332.75,-30.5 173.5,-30.5 173.5,0 332.75,0 332.75,-30.5"/>
<text text-anchor="start" x="181.5" y="-17" font-family="Helvetica,sans-Serif" font-size="10.00">GamR::Coulex::CoulexCalculation</text>
<text text-anchor="middle" x="253.12" y="-5.75" font-family="Helvetica,sans-Serif" font-size="10.00">::SaveToFile</text>
</a>
</g>
</g>
<!-- Node1&#45;&gt;Node9 -->
<g id="edge10_Node000001_Node000009" class="edge">
<title>Node1&#45;&gt;Node9</title>
<g id="a_edge10_Node000001_Node000009"><a xlink:title=" ">
<path fill="none" stroke="#63b8ff" d="M730.28,-51.95C623.57,-43.73 438.01,-29.42 332.82,-21.32"/>
<polygon fill="#63b8ff" stroke="#63b8ff" points="729.88,-55.43 740.12,-52.71 730.42,-48.45 729.88,-55.43"/>
</a>
</g>
</g>
<!-- Node3 -->
<g id="Node000003" class="node">
<title>Node3</title>
<g id="a_Node000003"><a xlink:href="../../db/d16/class_gam_r_1_1_coulex_1_1_level_scheme.html#a43e42d464d621adff7a959aeeef6b690" target="_top" xlink:title=" ">
<polygon fill="white" stroke="#666666" points="519.38,-128.5 377.38,-128.5 377.38,-98 519.38,-98 519.38,-128.5"/>
<text text-anchor="start" x="385.38" y="-115" font-family="Helvetica,sans-Serif" font-size="10.00">GamR::Coulex::LevelScheme</text>
<text text-anchor="middle" x="448.38" y="-103.75" font-family="Helvetica,sans-Serif" font-size="10.00">::Print</text>
</a>
</g>
</g>
<!-- Node2&#45;&gt;Node3 -->
<g id="edge2_Node000002_Node000003" class="edge">
<title>Node2&#45;&gt;Node3</title>
<g id="a_edge2_Node000002_Node000003"><a xlink:title=" ">
<path fill="none" stroke="#63b8ff" d="M552.44,-106.55C541.56,-107.26 530.48,-107.98 519.81,-108.67"/>
<polygon fill="#63b8ff" stroke="#63b8ff" points="552.41,-110.06 562.16,-105.92 551.96,-103.08 552.41,-110.06"/>
</a>
</g>
</g>
<!-- Node2&#45;&gt;Node7 -->
<g id="edge6_Node000002_Node000007" class="edge">
<title>Node2&#45;&gt;Node7</title>
<g id="a_edge6_Node000002_Node000007"><a xlink:title=" ">
<path fill="none" stroke="#63b8ff" d="M552.57,-84.93C544.35,-83.28 536.01,-81.61 527.83,-79.97"/>
<polygon fill="#63b8ff" stroke="#63b8ff" points="551.7,-88.33 562.19,-86.86 553.07,-81.46 551.7,-88.33"/>
</a>
</g>
</g>
<!-- Node4 -->
<g id="Node000004" class="node">
<title>Node4</title>
<g id="a_Node000004"><a xlink:href="../../dd/d3e/class_gam_r_1_1_coulex_1_1_coulex_calculation.html#ada06a036781b741ca462ac5b17347cf6" target="_top" xlink:title=" ">
<polygon fill="white" stroke="#666666" points="332.75,-128.5 173.5,-128.5 173.5,-98 332.75,-98 332.75,-128.5"/>
<text text-anchor="start" x="181.5" y="-115" font-family="Helvetica,sans-Serif" font-size="10.00">GamR::Coulex::CoulexCalculation</text>
<text text-anchor="middle" x="253.12" y="-103.75" font-family="Helvetica,sans-Serif" font-size="10.00">::Print</text>
</a>
</g>
</g>
<!-- Node3&#45;&gt;Node4 -->
<g id="edge3_Node000003_Node000004" class="edge">
<title>Node3&#45;&gt;Node4</title>
<g id="a_edge3_Node000003_Node000004"><a xlink:title=" ">
<path fill="none" stroke="#63b8ff" d="M365.56,-113.25C354.85,-113.25 343.89,-113.25 333.22,-113.25"/>
<polygon fill="#63b8ff" stroke="#63b8ff" points="365.55,-116.75 375.55,-113.25 365.55,-109.75 365.55,-116.75"/>
</a>
</g>
</g>
<!-- Node5 -->
<g id="Node000005" class="node">
<title>Node5</title>
<g id="a_Node000005"><a xlink:href="../../d6/d76/namespace_gam_r_1_1_coulex.html#a41b07b0aa204c45d637b7c5a4e57d989" target="_top" xlink:title=" ">
<polygon fill="white" stroke="#666666" points="130.38,-94.88 7.12,-94.88 7.12,-75.62 130.38,-75.62 130.38,-94.88"/>
<text text-anchor="middle" x="68.75" y="-81.38" font-family="Helvetica,sans-Serif" font-size="10.00">GamR::Coulex::DoCoulex</text>
</a>
</g>
</g>
<!-- Node4&#45;&gt;Node5 -->
<g id="edge4_Node000004_Node000005" class="edge">
<title>Node4&#45;&gt;Node5</title>
<g id="a_edge4_Node000004_Node000005"><a xlink:title=" ">
<path fill="none" stroke="#63b8ff" d="M162.12,-99.43C151.46,-97.79 140.78,-96.15 130.66,-94.6"/>
<polygon fill="#63b8ff" stroke="#63b8ff" points="161.28,-102.84 171.7,-100.9 162.34,-95.92 161.28,-102.84"/>
</a>
</g>
</g>
<!-- Node6 -->
<g id="Node000006" class="node">
<title>Node6</title>
<g id="a_Node000006"><a xlink:href="../../d6/d76/namespace_gam_r_1_1_coulex.html#a2551a0108b265de32e08ef2042a02212" target="_top" xlink:title=" ">
<polygon fill="white" stroke="#666666" points="137.5,-57.5 0,-57.5 0,-27 137.5,-27 137.5,-57.5"/>
<text text-anchor="start" x="8" y="-44" font-family="Helvetica,sans-Serif" font-size="10.00">GamR::Coulex::Experimental</text>
<text text-anchor="middle" x="68.75" y="-32.75" font-family="Helvetica,sans-Serif" font-size="10.00">Setup</text>
</a>
</g>
</g>
<!-- Node4&#45;&gt;Node6 -->
<g id="edge5_Node000004_Node000006" class="edge">
<title>Node4&#45;&gt;Node6</title>
<g id="a_edge5_Node000004_Node000006"><a xlink:title=" ">
<path fill="none" stroke="#63b8ff" d="M186.48,-93.71C182.04,-91.98 177.68,-90.16 173.5,-88.25 156.44,-80.46 154.43,-74.31 137.5,-66.25 131.3,-63.3 124.64,-60.51 118,-57.94"/>
<polygon fill="#63b8ff" stroke="#63b8ff" points="184.91,-96.86 195.5,-97.04 187.33,-90.29 184.91,-96.86"/>
</a>
</g>
</g>
<!-- Node8 -->
<g id="Node000008" class="node">
<title>Node8</title>
<g id="a_Node000008"><a xlink:href="../../dd/d3e/class_gam_r_1_1_coulex_1_1_coulex_calculation.html#ae8ce7427467c968c1a44f74a06ce4a30" target="_top" xlink:title=" ">
<polygon fill="white" stroke="#666666" points="332.75,-79.5 173.5,-79.5 173.5,-49 332.75,-49 332.75,-79.5"/>
<text text-anchor="start" x="181.5" y="-66" font-family="Helvetica,sans-Serif" font-size="10.00">GamR::Coulex::CoulexCalculation</text>
<text text-anchor="middle" x="253.12" y="-54.75" font-family="Helvetica,sans-Serif" font-size="10.00">::ExperimentalSetup</text>
</a>
</g>
</g>
<!-- Node7&#45;&gt;Node8 -->
<g id="edge7_Node000007_Node000008" class="edge">
<title>Node7&#45;&gt;Node8</title>
<g id="a_edge7_Node000007_Node000008"><a xlink:title=" ">
<path fill="none" stroke="#63b8ff" d="M357.17,-64.25C349.12,-64.25 341.01,-64.25 333.07,-64.25"/>
<polygon fill="#63b8ff" stroke="#63b8ff" points="356.98,-67.75 366.98,-64.25 356.98,-60.75 356.98,-67.75"/>
</a>
</g>
</g>
<!-- Node8&#45;&gt;Node5 -->
<g id="edge8_Node000008_Node000005" class="edge">
<title>Node8&#45;&gt;Node5</title>
<g id="a_edge8_Node000008_Node000005"><a xlink:title=" ">
<path fill="none" stroke="#63b8ff" d="M161.78,-74.65C151.23,-75.87 140.67,-77.08 130.66,-78.24"/>
<polygon fill="#63b8ff" stroke="#63b8ff" points="162.16,-78.13 171.69,-73.51 161.36,-71.18 162.16,-78.13"/>
</a>
</g>
</g>
<!-- Node8&#45;&gt;Node6 -->
<g id="edge9_Node000008_Node000006" class="edge">
<title>Node8&#45;&gt;Node6</title>
<g id="a_edge9_Node000008_Node000006"><a xlink:title=" ">
<path fill="none" stroke="#63b8ff" d="M161.85,-53.36C153.8,-52.39 145.74,-51.42 137.93,-50.47"/>
<polygon fill="#63b8ff" stroke="#63b8ff" points="161.34,-56.82 171.69,-54.55 162.18,-49.87 161.34,-56.82"/>
</a>
</g>
</g>
<!-- Node9&#45;&gt;Node5 -->
<g id="edge11_Node000009_Node000005" class="edge">
<title>Node9&#45;&gt;Node5</title>
<g id="a_edge11_Node000009_Node000005"><a xlink:title=" ">
<path fill="none" stroke="#63b8ff" d="M184.92,-35.01C181,-36.65 177.17,-38.4 173.5,-40.25 155.87,-49.13 155.28,-57.68 137.5,-66.25 130.24,-69.75 122.22,-72.71 114.31,-75.18"/>
<polygon fill="#63b8ff" stroke="#63b8ff" points="185.98,-38.35 194.01,-31.44 183.43,-31.83 185.98,-38.35"/>
</a>
</g>
</g>
<!-- Node9&#45;&gt;Node6 -->
<g id="edge12_Node000009_Node000006" class="edge">
<title>Node9&#45;&gt;Node6</title>
<g id="a_edge12_Node000009_Node000006"><a xlink:title=" ">
<path fill="none" stroke="#63b8ff" d="M161.85,-28.62C153.8,-29.81 145.74,-31 137.93,-32.16"/>
<polygon fill="#63b8ff" stroke="#63b8ff" points="162.32,-32.08 171.7,-27.16 161.29,-25.16 162.32,-32.08"/>
</a>
</g>
</g>
</g>
</svg>
