<?xml version="1.0" encoding="UTF-8" standalone="no"?>
<!DOCTYPE svg PUBLIC "-//W3C//DTD SVG 1.1//EN"
 "http://www.w3.org/Graphics/SVG/1.1/DTD/svg11.dtd">
<!-- Generated by graphviz version 5.0.0 (20220708.1001)
 -->
<!-- Title: GamR::Coulex::LevelScheme::SetIndices Pages: 1 -->
<svg width="896pt" height="186pt"
 viewBox="0.00 0.00 896.00 186.00" xmlns="http://www.w3.org/2000/svg" xmlns:xlink="http://www.w3.org/1999/xlink">
<g id="graph0" class="graph" transform="scale(1 1) rotate(0) translate(4 182)">
<title>GamR::Coulex::LevelScheme::SetIndices</title>
<polygon fill="white" stroke="transparent" points="-4,4 -4,-182 892,-182 892,4 -4,4"/>
<!-- Node1 -->
<g id="node1" class="node">
<title>Node1</title>
<g id="a_node1"><a xlink:title=" ">
<polygon fill="#bfbfbf" stroke="black" points="745,-72.5 745,-102.5 888,-102.5 888,-72.5 745,-72.5"/>
<text text-anchor="start" x="753" y="-90.5" font-family="Helvetica,sans-Serif" font-size="10.00">GamR::Coulex::LevelScheme</text>
<text text-anchor="middle" x="816.5" y="-79.5" font-family="Helvetica,sans-Serif" font-size="10.00">::SetIndices</text>
</a>
</g>
</g>
<!-- Node2 -->
<g id="node2" class="node">
<title>Node2</title>
<g id="a_node2"><a xlink:href="../../db/d16/class_gam_r_1_1_coulex_1_1_level_scheme.html#a4b86aa22b5d902bb4bd3a0103744e423" target="_top" xlink:title=" ">
<polygon fill="white" stroke="black" points="566,-96.5 566,-126.5 709,-126.5 709,-96.5 566,-96.5"/>
<text text-anchor="start" x="574" y="-114.5" font-family="Helvetica,sans-Serif" font-size="10.00">GamR::Coulex::LevelScheme</text>
<text text-anchor="middle" x="637.5" y="-103.5" font-family="Helvetica,sans-Serif" font-size="10.00">::PrintLevels</text>
</a>
</g>
</g>
<!-- Node1&#45;&gt;Node2 -->
<g id="edge1" class="edge">
<title>Node1&#45;&gt;Node2</title>
<path fill="none" stroke="midnightblue" d="M734.79,-98.44C726.22,-99.61 717.55,-100.78 709.11,-101.93"/>
<polygon fill="midnightblue" stroke="midnightblue" points="735.34,-101.9 744.78,-97.09 734.4,-94.96 735.34,-101.9"/>
</g>
<!-- Node9 -->
<g id="node9" class="node">
<title>Node9</title>
<g id="a_node9"><a xlink:href="../../db/d16/class_gam_r_1_1_coulex_1_1_level_scheme.html#aec7be097855daffdbd46cf158993ed67" target="_top" xlink:title=" ">
<polygon fill="white" stroke="black" points="566,-145.5 566,-175.5 709,-175.5 709,-145.5 566,-145.5"/>
<text text-anchor="start" x="574" y="-163.5" font-family="Helvetica,sans-Serif" font-size="10.00">GamR::Coulex::LevelScheme</text>
<text text-anchor="middle" x="637.5" y="-152.5" font-family="Helvetica,sans-Serif" font-size="10.00">::PrintTransitions</text>
</a>
</g>
</g>
<!-- Node1&#45;&gt;Node9 -->
<g id="edge10" class="edge">
<title>Node1&#45;&gt;Node9</title>
<path fill="none" stroke="midnightblue" d="M775.6,-107.04C755.79,-116.44 731.36,-127.58 709,-136.5 701.31,-139.57 693.07,-142.6 685.02,-145.43"/>
<polygon fill="midnightblue" stroke="midnightblue" points="777.13,-110.19 784.64,-102.72 774.11,-103.87 777.13,-110.19"/>
</g>
<!-- Node10 -->
<g id="node10" class="node">
<title>Node10</title>
<g id="a_node10"><a xlink:href="../../dd/d3e/class_gam_r_1_1_coulex_1_1_coulex_calculation.html#a79a4ea8f06954b1cf8b8431010fedbf3" target="_top" xlink:title=" ">
<polygon fill="white" stroke="black" points="174,-49.5 174,-79.5 334,-79.5 334,-49.5 174,-49.5"/>
<text text-anchor="start" x="182" y="-67.5" font-family="Helvetica,sans-Serif" font-size="10.00">GamR::Coulex::CoulexCalculation</text>
<text text-anchor="middle" x="254" y="-56.5" font-family="Helvetica,sans-Serif" font-size="10.00">::ReadFromFile</text>
</a>
</g>
</g>
<!-- Node1&#45;&gt;Node10 -->
<g id="edge12" class="edge">
<title>Node1&#45;&gt;Node10</title>
<path fill="none" stroke="midnightblue" d="M734.7,-84.18C627.7,-79.79 440.18,-72.1 334.06,-67.74"/>
<polygon fill="midnightblue" stroke="midnightblue" points="734.66,-87.69 744.8,-84.6 734.95,-80.69 734.66,-87.69"/>
</g>
<!-- Node11 -->
<g id="node11" class="node">
<title>Node11</title>
<g id="a_node11"><a xlink:href="../../dd/d3e/class_gam_r_1_1_coulex_1_1_coulex_calculation.html#a73b102e9bab00f6460caf510c0acb1d1" target="_top" xlink:title=" ">
<polygon fill="white" stroke="black" points="174,-0.5 174,-30.5 334,-30.5 334,-0.5 174,-0.5"/>
<text text-anchor="start" x="182" y="-18.5" font-family="Helvetica,sans-Serif" font-size="10.00">GamR::Coulex::CoulexCalculation</text>
<text text-anchor="middle" x="254" y="-7.5" font-family="Helvetica,sans-Serif" font-size="10.00">::SaveToFile</text>
</a>
</g>
</g>
<!-- Node1&#45;&gt;Node11 -->
<g id="edge15" class="edge">
<title>Node1&#45;&gt;Node11</title>
<path fill="none" stroke="midnightblue" d="M734.63,-76.84C725.98,-75.71 717.31,-74.58 709,-73.5 577.6,-56.47 424.76,-37.02 334.15,-25.52"/>
<polygon fill="midnightblue" stroke="midnightblue" points="734.39,-80.34 744.76,-78.16 735.29,-73.39 734.39,-80.34"/>
</g>
<!-- Node3 -->
<g id="node3" class="node">
<title>Node3</title>
<g id="a_node3"><a xlink:href="../../db/d16/class_gam_r_1_1_coulex_1_1_level_scheme.html#a43e42d464d621adff7a959aeeef6b690" target="_top" xlink:title=" ">
<polygon fill="white" stroke="black" points="378.5,-145.5 378.5,-175.5 521.5,-175.5 521.5,-145.5 378.5,-145.5"/>
<text text-anchor="start" x="386.5" y="-163.5" font-family="Helvetica,sans-Serif" font-size="10.00">GamR::Coulex::LevelScheme</text>
<text text-anchor="middle" x="450" y="-152.5" font-family="Helvetica,sans-Serif" font-size="10.00">::Print</text>
</a>
</g>
</g>
<!-- Node2&#45;&gt;Node3 -->
<g id="edge2" class="edge">
<title>Node2&#45;&gt;Node3</title>
<path fill="none" stroke="midnightblue" d="M569.78,-129.12C549.49,-134.48 527.39,-140.32 507.81,-145.49"/>
<polygon fill="midnightblue" stroke="midnightblue" points="570.81,-132.47 579.58,-126.53 569.02,-125.7 570.81,-132.47"/>
</g>
<!-- Node7 -->
<g id="node7" class="node">
<title>Node7</title>
<g id="a_node7"><a xlink:href="../../dd/d3e/class_gam_r_1_1_coulex_1_1_coulex_calculation.html#a46d4f1bd67b5c6c438efd93b9f1e4838" target="_top" xlink:title=" ">
<polygon fill="white" stroke="black" points="370,-96.5 370,-126.5 530,-126.5 530,-96.5 370,-96.5"/>
<text text-anchor="start" x="378" y="-114.5" font-family="Helvetica,sans-Serif" font-size="10.00">GamR::Coulex::CoulexCalculation</text>
<text text-anchor="middle" x="450" y="-103.5" font-family="Helvetica,sans-Serif" font-size="10.00">::SetLevelScheme</text>
</a>
</g>
</g>
<!-- Node2&#45;&gt;Node7 -->
<g id="edge6" class="edge">
<title>Node2&#45;&gt;Node7</title>
<path fill="none" stroke="midnightblue" d="M555.61,-111.5C547.16,-111.5 538.57,-111.5 530.14,-111.5"/>
<polygon fill="midnightblue" stroke="midnightblue" points="555.84,-115 565.84,-111.5 555.84,-108 555.84,-115"/>
</g>
<!-- Node4 -->
<g id="node4" class="node">
<title>Node4</title>
<g id="a_node4"><a xlink:href="../../dd/d3e/class_gam_r_1_1_coulex_1_1_coulex_calculation.html#ada06a036781b741ca462ac5b17347cf6" target="_top" xlink:title=" ">
<polygon fill="white" stroke="black" points="174,-147.5 174,-177.5 334,-177.5 334,-147.5 174,-147.5"/>
<text text-anchor="start" x="182" y="-165.5" font-family="Helvetica,sans-Serif" font-size="10.00">GamR::Coulex::CoulexCalculation</text>
<text text-anchor="middle" x="254" y="-154.5" font-family="Helvetica,sans-Serif" font-size="10.00">::Print</text>
</a>
</g>
</g>
<!-- Node3&#45;&gt;Node4 -->
<g id="edge3" class="edge">
<title>Node3&#45;&gt;Node4</title>
<path fill="none" stroke="midnightblue" d="M368.16,-161.33C356.89,-161.45 345.31,-161.57 334.07,-161.68"/>
<polygon fill="midnightblue" stroke="midnightblue" points="368.45,-164.83 378.41,-161.23 368.38,-157.83 368.45,-164.83"/>
</g>
<!-- Node5 -->
<g id="node5" class="node">
<title>Node5</title>
<g id="a_node5"><a xlink:href="../../d6/d76/namespace_gam_r_1_1_coulex.html#a41b07b0aa204c45d637b7c5a4e57d989" target="_top" xlink:title=" ">
<polygon fill="white" stroke="black" points="7,-102 7,-121 131,-121 131,-102 7,-102"/>
<text text-anchor="middle" x="69" y="-109" font-family="Helvetica,sans-Serif" font-size="10.00">GamR::Coulex::DoCoulex</text>
</a>
</g>
</g>
<!-- Node4&#45;&gt;Node5 -->
<g id="edge4" class="edge">
<title>Node4&#45;&gt;Node5</title>
<path fill="none" stroke="midnightblue" d="M189.17,-144.71C160.61,-136.75 128.09,-127.69 104.24,-121.04"/>
<polygon fill="midnightblue" stroke="midnightblue" points="188.51,-148.16 199.08,-147.47 190.39,-141.42 188.51,-148.16"/>
</g>
<!-- Node6 -->
<g id="node6" class="node">
<title>Node6</title>
<g id="a_node6"><a xlink:href="../../d6/d76/namespace_gam_r_1_1_coulex.html#a2551a0108b265de32e08ef2042a02212" target="_top" xlink:title=" ">
<polygon fill="white" stroke="black" points="0,-51.5 0,-81.5 138,-81.5 138,-51.5 0,-51.5"/>
<text text-anchor="start" x="8" y="-69.5" font-family="Helvetica,sans-Serif" font-size="10.00">GamR::Coulex::Experimental</text>
<text text-anchor="middle" x="69" y="-58.5" font-family="Helvetica,sans-Serif" font-size="10.00">Setup</text>
</a>
</g>
</g>
<!-- Node4&#45;&gt;Node6 -->
<g id="edge5" class="edge">
<title>Node4&#45;&gt;Node6</title>
<path fill="none" stroke="midnightblue" d="M181.03,-142.84C178.6,-141.49 176.25,-140.04 174,-138.5 152.59,-123.82 158.89,-107.92 138,-92.5 132.31,-88.3 125.85,-84.69 119.24,-81.61"/>
<polygon fill="midnightblue" stroke="midnightblue" points="179.58,-146.03 190.09,-147.36 182.7,-139.77 179.58,-146.03"/>
</g>
<!-- Node8 -->
<g id="node8" class="node">
<title>Node8</title>
<g id="a_node8"><a xlink:href="../../dd/d3e/class_gam_r_1_1_coulex_1_1_coulex_calculation.html#ae8ce7427467c968c1a44f74a06ce4a30" target="_top" xlink:title=" ">
<polygon fill="white" stroke="black" points="174,-98.5 174,-128.5 334,-128.5 334,-98.5 174,-98.5"/>
<text text-anchor="start" x="182" y="-116.5" font-family="Helvetica,sans-Serif" font-size="10.00">GamR::Coulex::CoulexCalculation</text>
<text text-anchor="middle" x="254" y="-105.5" font-family="Helvetica,sans-Serif" font-size="10.00">::ExperimentalSetup</text>
</a>
</g>
</g>
<!-- Node7&#45;&gt;Node8 -->
<g id="edge7" class="edge">
<title>Node7&#45;&gt;Node8</title>
<path fill="none" stroke="midnightblue" d="M359.56,-112.42C351.12,-112.51 342.59,-112.6 334.25,-112.68"/>
<polygon fill="midnightblue" stroke="midnightblue" points="359.85,-115.92 369.81,-112.32 359.78,-108.92 359.85,-115.92"/>
</g>
<!-- Node8&#45;&gt;Node5 -->
<g id="edge8" class="edge">
<title>Node8&#45;&gt;Node5</title>
<path fill="none" stroke="midnightblue" d="M163.7,-112.52C152.66,-112.4 141.59,-112.28 131.12,-112.17"/>
<polygon fill="midnightblue" stroke="midnightblue" points="163.76,-116.02 173.8,-112.63 163.84,-109.03 163.76,-116.02"/>
</g>
<!-- Node8&#45;&gt;Node6 -->
<g id="edge9" class="edge">
<title>Node8&#45;&gt;Node6</title>
<path fill="none" stroke="midnightblue" d="M184.77,-95.98C166.26,-91.22 146.39,-86.12 128.48,-81.52"/>
<polygon fill="midnightblue" stroke="midnightblue" points="184.04,-99.4 194.59,-98.5 185.78,-92.62 184.04,-99.4"/>
</g>
<!-- Node9&#45;&gt;Node3 -->
<g id="edge11" class="edge">
<title>Node9&#45;&gt;Node3</title>
<path fill="none" stroke="midnightblue" d="M555.59,-160.5C544.32,-160.5 532.83,-160.5 521.77,-160.5"/>
<polygon fill="midnightblue" stroke="midnightblue" points="555.84,-164 565.84,-160.5 555.84,-157 555.84,-164"/>
</g>
<!-- Node10&#45;&gt;Node5 -->
<g id="edge13" class="edge">
<title>Node10&#45;&gt;Node5</title>
<path fill="none" stroke="midnightblue" d="M184.68,-82.05C158.42,-88.79 129.42,-96.24 107.16,-101.96"/>
<polygon fill="midnightblue" stroke="midnightblue" points="185.78,-85.38 194.59,-79.5 184.04,-78.6 185.78,-85.38"/>
</g>
<!-- Node10&#45;&gt;Node6 -->
<g id="edge14" class="edge">
<title>Node10&#45;&gt;Node6</title>
<path fill="none" stroke="midnightblue" d="M163.72,-65.48C155.12,-65.57 146.48,-65.66 138.13,-65.76"/>
<polygon fill="midnightblue" stroke="midnightblue" points="163.84,-68.97 173.8,-65.37 163.76,-61.98 163.84,-68.97"/>
</g>
<!-- Node11&#45;&gt;Node5 -->
<g id="edge16" class="edge">
<title>Node11&#45;&gt;Node5</title>
<path fill="none" stroke="midnightblue" d="M180.52,-35.26C178.26,-36.58 176.08,-37.99 174,-39.5 151.51,-55.75 160.45,-74.2 138,-90.5 131.4,-95.29 123.68,-99.01 115.87,-101.88"/>
<polygon fill="midnightblue" stroke="midnightblue" points="182.26,-38.29 189.51,-30.57 179.03,-32.09 182.26,-38.29"/>
</g>
<!-- Node11&#45;&gt;Node6 -->
<g id="edge17" class="edge">
<title>Node11&#45;&gt;Node6</title>
<path fill="none" stroke="midnightblue" d="M189.44,-33.21C168.05,-39.17 144.41,-45.76 123.85,-51.49"/>
<polygon fill="midnightblue" stroke="midnightblue" points="190.39,-36.58 199.08,-30.53 188.51,-29.84 190.39,-36.58"/>
</g>
</g>
</svg>
