<?xml version="1.0" encoding="UTF-8" standalone="no"?>
<!DOCTYPE svg PUBLIC "-//W3C//DTD SVG 1.1//EN"
 "http://www.w3.org/Graphics/SVG/1.1/DTD/svg11.dtd">
<!-- Generated by graphviz version 2.50.0 (20220203.2022)
 -->
<!-- Title: GamR::Coulex::LevelScheme::GetNLevels Pages: 1 -->
<svg width="717pt" height="88pt"
 viewBox="0.00 0.00 717.00 88.00" xmlns="http://www.w3.org/2000/svg" xmlns:xlink="http://www.w3.org/1999/xlink">
<g id="graph0" class="graph" transform="scale(1 1) rotate(0) translate(4 84)">
<title>GamR::Coulex::LevelScheme::GetNLevels</title>
<polygon fill="white" stroke="transparent" points="-4,4 -4,-84 713,-84 713,4 -4,4"/>
<!-- Node1 -->
<g id="node1" class="node">
<title>Node1</title>
<g id="a_node1"><a xlink:title=" ">
<polygon fill="#bfbfbf" stroke="black" points="566,-24.5 566,-54.5 709,-54.5 709,-24.5 566,-24.5"/>
<text text-anchor="start" x="574" y="-42.5" font-family="Helvetica,sans-Serif" font-size="10.00">GamR::Coulex::LevelScheme</text>
<text text-anchor="middle" x="637.5" y="-31.5" font-family="Helvetica,sans-Serif" font-size="10.00">::GetNLevels</text>
</a>
</g>
</g>
<!-- Node2 -->
<g id="node2" class="node">
<title>Node2</title>
<g id="a_node2"><a xlink:href="../../dd/d3e/class_gam_r_1_1_coulex_1_1_coulex_calculation.html#a73b102e9bab00f6460caf510c0acb1d1" target="_top" xlink:title=" ">
<polygon fill="white" stroke="black" points="174,-49.5 174,-79.5 334,-79.5 334,-49.5 174,-49.5"/>
<text text-anchor="start" x="182" y="-67.5" font-family="Helvetica,sans-Serif" font-size="10.00">GamR::Coulex::CoulexCalculation</text>
<text text-anchor="middle" x="254" y="-56.5" font-family="Helvetica,sans-Serif" font-size="10.00">::SaveToFile</text>
</a>
</g>
</g>
<!-- Node1&#45;&gt;Node2 -->
<g id="edge1" class="edge">
<title>Node1&#45;&gt;Node2</title>
<path fill="none" stroke="midnightblue" d="M555.39,-44.82C490.07,-49.1 398.8,-55.08 334.04,-59.32"/>
<polygon fill="midnightblue" stroke="midnightblue" points="555.89,-48.29 565.64,-44.14 555.43,-41.31 555.89,-48.29"/>
</g>
<!-- Node5 -->
<g id="node5" class="node">
<title>Node5</title>
<g id="a_node5"><a xlink:href="../../dd/d3e/class_gam_r_1_1_coulex_1_1_coulex_calculation.html#a46d4f1bd67b5c6c438efd93b9f1e4838" target="_top" xlink:title=" ">
<polygon fill="white" stroke="black" points="370,-2.5 370,-32.5 530,-32.5 530,-2.5 370,-2.5"/>
<text text-anchor="start" x="378" y="-20.5" font-family="Helvetica,sans-Serif" font-size="10.00">GamR::Coulex::CoulexCalculation</text>
<text text-anchor="middle" x="450" y="-9.5" font-family="Helvetica,sans-Serif" font-size="10.00">::SetLevelScheme</text>
</a>
</g>
</g>
<!-- Node1&#45;&gt;Node5 -->
<g id="edge4" class="edge">
<title>Node1&#45;&gt;Node5</title>
<path fill="none" stroke="midnightblue" d="M555.89,-29.94C547.35,-28.93 538.66,-27.9 530.14,-26.89"/>
<polygon fill="midnightblue" stroke="midnightblue" points="555.5,-33.42 565.84,-31.12 556.32,-26.47 555.5,-33.42"/>
</g>
<!-- Node3 -->
<g id="node3" class="node">
<title>Node3</title>
<g id="a_node3"><a xlink:href="../../d6/d76/namespace_gam_r_1_1_coulex.html#a41b07b0aa204c45d637b7c5a4e57d989" target="_top" xlink:title=" ">
<polygon fill="white" stroke="black" points="7,-53 7,-72 131,-72 131,-53 7,-53"/>
<text text-anchor="middle" x="69" y="-60" font-family="Helvetica,sans-Serif" font-size="10.00">GamR::Coulex::DoCoulex</text>
</a>
</g>
</g>
<!-- Node2&#45;&gt;Node3 -->
<g id="edge2" class="edge">
<title>Node2&#45;&gt;Node3</title>
<path fill="none" stroke="midnightblue" d="M163.7,-63.52C152.66,-63.4 141.59,-63.28 131.12,-63.17"/>
<polygon fill="midnightblue" stroke="midnightblue" points="163.76,-67.02 173.8,-63.63 163.84,-60.03 163.76,-67.02"/>
</g>
<!-- Node4 -->
<g id="node4" class="node">
<title>Node4</title>
<g id="a_node4"><a xlink:href="../../d6/d76/namespace_gam_r_1_1_coulex.html#a2551a0108b265de32e08ef2042a02212" target="_top" xlink:title=" ">
<polygon fill="white" stroke="black" points="0,-2.5 0,-32.5 138,-32.5 138,-2.5 0,-2.5"/>
<text text-anchor="start" x="8" y="-20.5" font-family="Helvetica,sans-Serif" font-size="10.00">GamR::Coulex::Experimental</text>
<text text-anchor="middle" x="69" y="-9.5" font-family="Helvetica,sans-Serif" font-size="10.00">Setup</text>
</a>
</g>
</g>
<!-- Node2&#45;&gt;Node4 -->
<g id="edge3" class="edge">
<title>Node2&#45;&gt;Node4</title>
<path fill="none" stroke="midnightblue" d="M184.77,-46.98C166.26,-42.22 146.39,-37.12 128.48,-32.52"/>
<polygon fill="midnightblue" stroke="midnightblue" points="184.04,-50.4 194.59,-49.5 185.78,-43.62 184.04,-50.4"/>
</g>
<!-- Node6 -->
<g id="node6" class="node">
<title>Node6</title>
<g id="a_node6"><a xlink:href="../../dd/d3e/class_gam_r_1_1_coulex_1_1_coulex_calculation.html#ae8ce7427467c968c1a44f74a06ce4a30" target="_top" xlink:title=" ">
<polygon fill="white" stroke="black" points="174,-0.5 174,-30.5 334,-30.5 334,-0.5 174,-0.5"/>
<text text-anchor="start" x="182" y="-18.5" font-family="Helvetica,sans-Serif" font-size="10.00">GamR::Coulex::CoulexCalculation</text>
<text text-anchor="middle" x="254" y="-7.5" font-family="Helvetica,sans-Serif" font-size="10.00">::ExperimentalSetup</text>
</a>
</g>
</g>
<!-- Node5&#45;&gt;Node6 -->
<g id="edge5" class="edge">
<title>Node5&#45;&gt;Node6</title>
<path fill="none" stroke="midnightblue" d="M359.56,-16.58C351.12,-16.49 342.59,-16.4 334.25,-16.32"/>
<polygon fill="midnightblue" stroke="midnightblue" points="359.78,-20.08 369.81,-16.68 359.85,-13.08 359.78,-20.08"/>
</g>
<!-- Node6&#45;&gt;Node3 -->
<g id="edge6" class="edge">
<title>Node6&#45;&gt;Node3</title>
<path fill="none" stroke="midnightblue" d="M184.68,-33.05C158.42,-39.79 129.42,-47.24 107.16,-52.96"/>
<polygon fill="midnightblue" stroke="midnightblue" points="185.78,-36.38 194.59,-30.5 184.04,-29.6 185.78,-36.38"/>
</g>
<!-- Node6&#45;&gt;Node4 -->
<g id="edge7" class="edge">
<title>Node6&#45;&gt;Node4</title>
<path fill="none" stroke="midnightblue" d="M163.72,-16.48C155.12,-16.57 146.48,-16.66 138.13,-16.76"/>
<polygon fill="midnightblue" stroke="midnightblue" points="163.84,-19.97 173.8,-16.37 163.76,-12.98 163.84,-19.97"/>
</g>
</g>
</svg>
