<?xml version="1.0" encoding="UTF-8" standalone="no"?>
<!DOCTYPE svg PUBLIC "-//W3C//DTD SVG 1.1//EN"
 "http://www.w3.org/Graphics/SVG/1.1/DTD/svg11.dtd">
<!-- Generated by graphviz version 6.0.2 (20221011.1828)
 -->
<!-- Title: src/lib/spect/Fit.cc Pages: 1 -->
<svg width="1444pt" height="247pt"
 viewBox="0.00 0.00 1443.50 247.00" xmlns="http://www.w3.org/2000/svg" xmlns:xlink="http://www.w3.org/1999/xlink">
<g id="graph0" class="graph" transform="scale(1 1) rotate(0) translate(4 243)">
<title>src/lib/spect/Fit.cc</title>
<!-- Node1 -->
<g id="node1" class="node">
<title>Node1</title>
<g id="a_node1"><a xlink:title=" ">
<polygon fill="#999999" stroke="#666666" points="846.5,-239 749.5,-239 749.5,-220 846.5,-220 846.5,-239"/>
<text text-anchor="middle" x="798" y="-227" font-family="Helvetica,sans-Serif" font-size="10.00">src/lib/spect/Fit.cc</text>
</a>
</g>
</g>
<!-- Node2 -->
<g id="node2" class="node">
<title>Node2</title>
<g id="a_node2"><a xlink:title=" ">
<polygon fill="#e0e0e0" stroke="#999999" points="54,-19 0,-19 0,0 54,0 54,-19"/>
<text text-anchor="middle" x="27" y="-7" font-family="Helvetica,sans-Serif" font-size="10.00">iostream</text>
</a>
</g>
</g>
<!-- Node1&#45;&gt;Node2 -->
<g id="edge1" class="edge">
<title>Node1&#45;&gt;Node2</title>
<path fill="none" stroke="#63b8ff" d="M749.33,-228.24C660.01,-226.86 464.35,-219.61 304,-184 233.87,-168.43 213.14,-166.73 152,-129 105.56,-100.34 61.81,-52.33 40.52,-27.11"/>
<polygon fill="#63b8ff" stroke="#63b8ff" points="43.04,-24.67 33.95,-19.22 37.65,-29.14 43.04,-24.67"/>
</g>
<!-- Node3 -->
<g id="node3" class="node">
<title>Node3</title>
<g id="a_node3"><a xlink:title=" ">
<polygon fill="#e0e0e0" stroke="#999999" points="787,-184 739,-184 739,-165 787,-165 787,-184"/>
<text text-anchor="middle" x="763" y="-172" font-family="Helvetica,sans-Serif" font-size="10.00">string.h</text>
</a>
</g>
</g>
<!-- Node1&#45;&gt;Node3 -->
<g id="edge2" class="edge">
<title>Node1&#45;&gt;Node3</title>
<path fill="none" stroke="#63b8ff" d="M792.22,-219.75C787.38,-212.42 780.32,-201.73 774.36,-192.7"/>
<polygon fill="#63b8ff" stroke="#63b8ff" points="777.1,-190.5 768.67,-184.09 771.26,-194.36 777.1,-190.5"/>
</g>
<!-- Node4 -->
<g id="node4" class="node">
<title>Node4</title>
<g id="a_node4"><a xlink:title=" ">
<polygon fill="#e0e0e0" stroke="#999999" points="861,-184 805,-184 805,-165 861,-165 861,-184"/>
<text text-anchor="middle" x="833" y="-172" font-family="Helvetica,sans-Serif" font-size="10.00">TArrow.h</text>
</a>
</g>
</g>
<!-- Node1&#45;&gt;Node4 -->
<g id="edge3" class="edge">
<title>Node1&#45;&gt;Node4</title>
<path fill="none" stroke="#63b8ff" d="M803.78,-219.75C808.62,-212.42 815.68,-201.73 821.64,-192.7"/>
<polygon fill="#63b8ff" stroke="#63b8ff" points="824.74,-194.36 827.33,-184.09 818.9,-190.5 824.74,-194.36"/>
</g>
<!-- Node5 -->
<g id="node5" class="node">
<title>Node5</title>
<g id="a_node5"><a xlink:title=" ">
<polygon fill="#e0e0e0" stroke="#999999" points="411.5,-19 368.5,-19 368.5,0 411.5,0 411.5,-19"/>
<text text-anchor="middle" x="390" y="-7" font-family="Helvetica,sans-Serif" font-size="10.00">TH1.h</text>
</a>
</g>
</g>
<!-- Node1&#45;&gt;Node5 -->
<g id="edge4" class="edge">
<title>Node1&#45;&gt;Node5</title>
<path fill="none" stroke="#63b8ff" d="M749.27,-225.69C604.65,-216.17 183.27,-179.68 108,-74 103.1,-67.12 102.51,-61.42 108,-55 139.87,-17.7 291.11,-11.48 358.02,-10.57"/>
<polygon fill="#63b8ff" stroke="#63b8ff" points="358.41,-14.07 368.38,-10.47 358.34,-7.07 358.41,-14.07"/>
</g>
<!-- Node6 -->
<g id="node6" class="node">
<title>Node6</title>
<g id="a_node6"><a xlink:title=" ">
<polygon fill="#e0e0e0" stroke="#999999" points="939,-184 879,-184 879,-165 939,-165 939,-184"/>
<text text-anchor="middle" x="909" y="-172" font-family="Helvetica,sans-Serif" font-size="10.00">TMarker.h</text>
</a>
</g>
</g>
<!-- Node1&#45;&gt;Node6 -->
<g id="edge5" class="edge">
<title>Node1&#45;&gt;Node6</title>
<path fill="none" stroke="#63b8ff" d="M815.83,-219.98C833.61,-211.5 861.15,-198.35 881.68,-188.54"/>
<polygon fill="#63b8ff" stroke="#63b8ff" points="883.33,-191.64 890.84,-184.17 880.31,-185.32 883.33,-191.64"/>
</g>
<!-- Node7 -->
<g id="node7" class="node">
<title>Node7</title>
<g id="a_node7"><a xlink:title=" ">
<polygon fill="#e0e0e0" stroke="#999999" points="765,-74 713,-74 713,-55 765,-55 765,-74"/>
<text text-anchor="middle" x="739" y="-62" font-family="Helvetica,sans-Serif" font-size="10.00">TMath.h</text>
</a>
</g>
</g>
<!-- Node1&#45;&gt;Node7 -->
<g id="edge6" class="edge">
<title>Node1&#45;&gt;Node7</title>
<path fill="none" stroke="#63b8ff" d="M769.61,-219.92C752.54,-213.13 732.19,-201.77 722,-184 703.73,-152.13 718.79,-107.78 729.87,-83.38"/>
<polygon fill="#63b8ff" stroke="#63b8ff" points="733.09,-84.76 734.26,-74.23 726.78,-81.73 733.09,-84.76"/>
</g>
<!-- Node8 -->
<g id="node8" class="node">
<title>Node8</title>
<g id="a_node8"><a xlink:title=" ">
<polygon fill="#e0e0e0" stroke="#999999" points="1020.5,-184 957.5,-184 957.5,-165 1020.5,-165 1020.5,-184"/>
<text text-anchor="middle" x="989" y="-172" font-family="Helvetica,sans-Serif" font-size="10.00">TMatrixD.h</text>
</a>
</g>
</g>
<!-- Node1&#45;&gt;Node8 -->
<g id="edge7" class="edge">
<title>Node1&#45;&gt;Node8</title>
<path fill="none" stroke="#63b8ff" d="M828.69,-219.98C861.17,-210.97 912.6,-196.7 948.41,-186.76"/>
<polygon fill="#63b8ff" stroke="#63b8ff" points="949.37,-190.13 958.07,-184.08 947.5,-183.38 949.37,-190.13"/>
</g>
<!-- Node9 -->
<g id="node9" class="node">
<title>Node9</title>
<g id="a_node9"><a xlink:title=" ">
<polygon fill="#e0e0e0" stroke="#999999" points="1095,-184 1039,-184 1039,-165 1095,-165 1095,-184"/>
<text text-anchor="middle" x="1067" y="-172" font-family="Helvetica,sans-Serif" font-size="10.00">TString.h</text>
</a>
</g>
</g>
<!-- Node1&#45;&gt;Node9 -->
<g id="edge8" class="edge">
<title>Node1&#45;&gt;Node9</title>
<path fill="none" stroke="#63b8ff" d="M844.54,-219.96C891.25,-211.28 965.22,-197.27 1029,-184 1029.1,-183.98 1029.2,-183.96 1029.3,-183.94"/>
<polygon fill="#63b8ff" stroke="#63b8ff" points="1029.75,-187.42 1038.8,-181.91 1028.29,-180.57 1029.75,-187.42"/>
</g>
<!-- Node10 -->
<g id="node10" class="node">
<title>Node10</title>
<g id="a_node10"><a xlink:title=" ">
<polygon fill="#e0e0e0" stroke="#999999" points="1162.5,-184 1113.5,-184 1113.5,-165 1162.5,-165 1162.5,-184"/>
<text text-anchor="middle" x="1138" y="-172" font-family="Helvetica,sans-Serif" font-size="10.00">TText.h</text>
</a>
</g>
</g>
<!-- Node1&#45;&gt;Node10 -->
<g id="edge9" class="edge">
<title>Node1&#45;&gt;Node10</title>
<path fill="none" stroke="#63b8ff" d="M846.75,-222.95C905.34,-215.93 1006.78,-202.7 1103.26,-183.96"/>
<polygon fill="#63b8ff" stroke="#63b8ff" points="1104.05,-187.37 1113.18,-182.01 1102.7,-180.51 1104.05,-187.37"/>
</g>
<!-- Node11 -->
<g id="node11" class="node">
<title>Node11</title>
<g id="a_node11"><a xlink:title=" ">
<polygon fill="#e0e0e0" stroke="#999999" points="1259.5,-184 1180.5,-184 1180.5,-165 1259.5,-165 1259.5,-184"/>
<text text-anchor="middle" x="1220" y="-172" font-family="Helvetica,sans-Serif" font-size="10.00">TPolyMarker.h</text>
</a>
</g>
</g>
<!-- Node1&#45;&gt;Node11 -->
<g id="edge10" class="edge">
<title>Node1&#45;&gt;Node11</title>
<path fill="none" stroke="#63b8ff" d="M846.69,-223.52C916.13,-216.24 1047.83,-201.76 1170.5,-184"/>
<polygon fill="#63b8ff" stroke="#63b8ff" points="1171.06,-187.45 1180.45,-182.55 1170.05,-180.53 1171.06,-187.45"/>
</g>
<!-- Node12 -->
<g id="node12" class="node">
<title>Node12</title>
<g id="a_node12"><a xlink:title=" ">
<polygon fill="#e0e0e0" stroke="#999999" points="1348,-184 1278,-184 1278,-165 1348,-165 1348,-184"/>
<text text-anchor="middle" x="1313" y="-172" font-family="Helvetica,sans-Serif" font-size="10.00">TRatioPlot.h</text>
</a>
</g>
</g>
<!-- Node1&#45;&gt;Node12 -->
<g id="edge11" class="edge">
<title>Node1&#45;&gt;Node12</title>
<path fill="none" stroke="#63b8ff" d="M846.55,-225.39C930.27,-219.7 1107.37,-206.24 1267.63,-183.91"/>
<polygon fill="#63b8ff" stroke="#63b8ff" points="1268.26,-187.35 1277.68,-182.49 1267.29,-180.42 1268.26,-187.35"/>
</g>
<!-- Node13 -->
<g id="node13" class="node">
<title>Node13</title>
<g id="a_node13"><a xlink:title=" ">
<polygon fill="#e0e0e0" stroke="#999999" points="1435.5,-184 1366.5,-184 1366.5,-165 1435.5,-165 1435.5,-184"/>
<text text-anchor="middle" x="1401" y="-172" font-family="Helvetica,sans-Serif" font-size="10.00">TFitResult.h</text>
</a>
</g>
</g>
<!-- Node1&#45;&gt;Node13 -->
<g id="edge12" class="edge">
<title>Node1&#45;&gt;Node13</title>
<path fill="none" stroke="#63b8ff" d="M846.8,-226.45C942.51,-222.02 1161.71,-209.93 1356.34,-183.92"/>
<polygon fill="#63b8ff" stroke="#63b8ff" points="1357.03,-187.36 1366.47,-182.55 1356.09,-180.42 1357.03,-187.36"/>
</g>
<!-- Node14 -->
<g id="node14" class="node">
<title>Node14</title>
<g id="a_node14"><a xlink:href="../../db/dec/_fit_8hh.html" target="_top" xlink:title=" ">
<polygon fill="white" stroke="#666666" points="595.5,-184 554.5,-184 554.5,-165 595.5,-165 595.5,-184"/>
<text text-anchor="middle" x="575" y="-172" font-family="Helvetica,sans-Serif" font-size="10.00">Fit.hh</text>
</a>
</g>
</g>
<!-- Node1&#45;&gt;Node14 -->
<g id="edge13" class="edge">
<title>Node1&#45;&gt;Node14</title>
<path fill="none" stroke="#63b8ff" d="M762.17,-219.98C718.79,-209.67 646.48,-192.49 605.6,-182.77"/>
<polygon fill="#63b8ff" stroke="#63b8ff" points="606.22,-179.32 595.68,-180.41 604.6,-186.13 606.22,-179.32"/>
</g>
<!-- Node21 -->
<g id="node21" class="node">
<title>Node21</title>
<g id="a_node21"><a xlink:href="../../d9/db5/_peak_8hh.html" target="_top" xlink:title=" ">
<polygon fill="white" stroke="#666666" points="928.5,-129 847.5,-129 847.5,-110 928.5,-110 928.5,-129"/>
<text text-anchor="middle" x="888" y="-117" font-family="Helvetica,sans-Serif" font-size="10.00">toolkit/Peak.hh</text>
</a>
</g>
</g>
<!-- Node1&#45;&gt;Node21 -->
<g id="edge64" class="edge">
<title>Node1&#45;&gt;Node21</title>
<path fill="none" stroke="#63b8ff" d="M775.87,-219.83C750.12,-208.44 713.13,-187.28 730,-165 743.07,-147.74 796.3,-135.29 837.41,-128.02"/>
<polygon fill="#63b8ff" stroke="#63b8ff" points="838.03,-131.47 847.3,-126.33 836.85,-124.57 838.03,-131.47"/>
</g>
<!-- Node31 -->
<g id="node31" class="node">
<title>Node31</title>
<g id="a_node31"><a xlink:href="../../d7/d23/_fit_guesses_8hh.html" target="_top" xlink:title=" ">
<polygon fill="white" stroke="#666666" points="462,-129 382,-129 382,-110 462,-110 462,-129"/>
<text text-anchor="middle" x="422" y="-117" font-family="Helvetica,sans-Serif" font-size="10.00">FitGuesses.hh</text>
</a>
</g>
</g>
<!-- Node1&#45;&gt;Node31 -->
<g id="edge56" class="edge">
<title>Node1&#45;&gt;Node31</title>
<path fill="none" stroke="#63b8ff" d="M749.36,-224.35C697.62,-218.92 613.88,-207.24 545,-184 507.81,-171.45 468.01,-149.07 444.07,-134.51"/>
<polygon fill="#63b8ff" stroke="#63b8ff" points="445.76,-131.44 435.41,-129.16 442.08,-137.4 445.76,-131.44"/>
</g>
<!-- Node33 -->
<g id="node33" class="node">
<title>Node33</title>
<g id="a_node33"><a xlink:href="../../d7/db9/_utilities_8hh.html" target="_top" xlink:title=" ">
<polygon fill="white" stroke="#666666" points="200.5,-74 117.5,-74 117.5,-55 200.5,-55 200.5,-74"/>
<text text-anchor="middle" x="159" y="-62" font-family="Helvetica,sans-Serif" font-size="10.00">utils/Utilities.hh</text>
</a>
</g>
</g>
<!-- Node1&#45;&gt;Node33 -->
<g id="edge57" class="edge">
<title>Node1&#45;&gt;Node33</title>
<path fill="none" stroke="#63b8ff" d="M749.37,-223.76C689.82,-217.38 586.12,-204.43 499,-184 421.69,-165.87 403.99,-155.12 329,-129 280.26,-112.02 224.28,-90.77 190.29,-77.66"/>
<polygon fill="#63b8ff" stroke="#63b8ff" points="191.48,-74.37 180.89,-74.03 188.96,-80.9 191.48,-74.37"/>
</g>
<!-- Node15 -->
<g id="node15" class="node">
<title>Node15</title>
<g id="a_node15"><a xlink:title=" ">
<polygon fill="#e0e0e0" stroke="#999999" points="597,-74 553,-74 553,-55 597,-55 597,-74"/>
<text text-anchor="middle" x="575" y="-62" font-family="Helvetica,sans-Serif" font-size="10.00">vector</text>
</a>
</g>
</g>
<!-- Node14&#45;&gt;Node15 -->
<g id="edge14" class="edge">
<title>Node14&#45;&gt;Node15</title>
<path fill="none" stroke="#63b8ff" d="M575,-164.66C575,-147.17 575,-107.8 575,-84.27"/>
<polygon fill="#63b8ff" stroke="#63b8ff" points="578.5,-84.16 575,-74.16 571.5,-84.16 578.5,-84.16"/>
</g>
<!-- Node16 -->
<g id="node16" class="node">
<title>Node16</title>
<g id="a_node16"><a xlink:title=" ">
<polygon fill="#e0e0e0" stroke="#999999" points="459,-74 385,-74 385,-55 459,-55 459,-74"/>
<text text-anchor="middle" x="422" y="-62" font-family="Helvetica,sans-Serif" font-size="10.00">RtypesCore.h</text>
</a>
</g>
</g>
<!-- Node14&#45;&gt;Node16 -->
<g id="edge15" class="edge">
<title>Node14&#45;&gt;Node16</title>
<path fill="none" stroke="#63b8ff" d="M562.74,-164.84C536.55,-146.36 474.93,-102.86 442.61,-80.05"/>
<polygon fill="#63b8ff" stroke="#63b8ff" points="444.51,-77.1 434.32,-74.2 440.47,-82.82 444.51,-77.1"/>
</g>
<!-- Node17 -->
<g id="node17" class="node">
<title>Node17</title>
<g id="a_node17"><a xlink:title=" ">
<polygon fill="#e0e0e0" stroke="#999999" points="716.5,-19 653.5,-19 653.5,0 716.5,0 716.5,-19"/>
<text text-anchor="middle" x="685" y="-7" font-family="Helvetica,sans-Serif" font-size="10.00">TCanvas.h</text>
</a>
</g>
</g>
<!-- Node14&#45;&gt;Node17 -->
<g id="edge16" class="edge">
<title>Node14&#45;&gt;Node17</title>
<path fill="none" stroke="#63b8ff" d="M585.67,-164.83C604.58,-148.88 643.96,-112.93 665,-74 672.65,-59.84 677.89,-42.3 681.09,-29.25"/>
<polygon fill="#63b8ff" stroke="#63b8ff" points="684.58,-29.65 683.37,-19.13 677.76,-28.11 684.58,-29.65"/>
</g>
<!-- Node18 -->
<g id="node18" class="node">
<title>Node18</title>
<g id="a_node18"><a xlink:title=" ">
<polygon fill="#e0e0e0" stroke="#999999" points="656.5,-74 615.5,-74 615.5,-55 656.5,-55 656.5,-74"/>
<text text-anchor="middle" x="636" y="-62" font-family="Helvetica,sans-Serif" font-size="10.00">TF1.h</text>
</a>
</g>
</g>
<!-- Node14&#45;&gt;Node18 -->
<g id="edge17" class="edge">
<title>Node14&#45;&gt;Node18</title>
<path fill="none" stroke="#63b8ff" d="M579.99,-164.66C590.05,-146.85 612.92,-106.37 626.11,-83.01"/>
<polygon fill="#63b8ff" stroke="#63b8ff" points="629.24,-84.59 631.11,-74.16 623.14,-81.14 629.24,-84.59"/>
</g>
<!-- Node19 -->
<g id="node19" class="node">
<title>Node19</title>
<g id="a_node19"><a xlink:title=" ">
<polygon fill="#e0e0e0" stroke="#999999" points="535,-74 477,-74 477,-55 535,-55 535,-74"/>
<text text-anchor="middle" x="506" y="-62" font-family="Helvetica,sans-Serif" font-size="10.00">TROOT.h</text>
</a>
</g>
</g>
<!-- Node14&#45;&gt;Node19 -->
<g id="edge18" class="edge">
<title>Node14&#45;&gt;Node19</title>
<path fill="none" stroke="#63b8ff" d="M569.35,-164.66C557.92,-146.77 531.88,-106 516.98,-82.69"/>
<polygon fill="#63b8ff" stroke="#63b8ff" points="519.87,-80.7 511.53,-74.16 513.97,-84.47 519.87,-80.7"/>
</g>
<!-- Node20 -->
<g id="node20" class="node">
<title>Node20</title>
<g id="a_node20"><a xlink:title=" ">
<polygon fill="#e0e0e0" stroke="#999999" points="291,-74 219,-74 219,-55 291,-55 291,-74"/>
<text text-anchor="middle" x="255" y="-62" font-family="Helvetica,sans-Serif" font-size="10.00">TSpectrum.h</text>
</a>
</g>
</g>
<!-- Node14&#45;&gt;Node20 -->
<g id="edge19" class="edge">
<title>Node14&#45;&gt;Node20</title>
<path fill="none" stroke="#63b8ff" d="M554.4,-170.88C517.25,-165.75 436.97,-152.73 373,-129 337.73,-115.91 299.93,-94.02 276.87,-79.67"/>
<polygon fill="#63b8ff" stroke="#63b8ff" points="278.55,-76.59 268.23,-74.21 274.81,-82.51 278.55,-76.59"/>
</g>
<!-- Node14&#45;&gt;Node21 -->
<g id="edge20" class="edge">
<title>Node14&#45;&gt;Node21</title>
<path fill="none" stroke="#63b8ff" d="M595.54,-170.02C644.15,-161.79 767.41,-140.92 837.42,-129.07"/>
<polygon fill="#63b8ff" stroke="#63b8ff" points="838.07,-132.51 847.34,-127.38 836.9,-125.6 838.07,-132.51"/>
</g>
<!-- Node14&#45;&gt;Node31 -->
<g id="edge46" class="edge">
<title>Node14&#45;&gt;Node31</title>
<path fill="none" stroke="#63b8ff" d="M554.37,-166.35C529.23,-157.64 486.4,-142.81 456.28,-132.38"/>
<polygon fill="#63b8ff" stroke="#63b8ff" points="457.19,-128.99 446.6,-129.02 454.9,-135.6 457.19,-128.99"/>
</g>
<!-- Node21&#45;&gt;Node5 -->
<g id="edge29" class="edge">
<title>Node21&#45;&gt;Node5</title>
<path fill="none" stroke="#63b8ff" d="M872.12,-109.9C855.75,-101 829.51,-86.66 807,-74 792.25,-65.7 790.09,-60.23 774,-55 630.75,-8.42 586.1,-40.42 437,-19 432.13,-18.3 426.99,-17.47 421.96,-16.6"/>
<polygon fill="#63b8ff" stroke="#63b8ff" points="422.4,-13.12 411.94,-14.81 421.17,-20.02 422.4,-13.12"/>
</g>
<!-- Node21&#45;&gt;Node7 -->
<g id="edge33" class="edge">
<title>Node21&#45;&gt;Node7</title>
<path fill="none" stroke="#63b8ff" d="M864.06,-109.98C839.44,-101.23 800.88,-87.51 773.08,-77.62"/>
<polygon fill="#63b8ff" stroke="#63b8ff" points="773.97,-74.22 763.38,-74.17 771.62,-80.82 773.97,-74.22"/>
</g>
<!-- Node21&#45;&gt;Node15 -->
<g id="edge22" class="edge">
<title>Node21&#45;&gt;Node15</title>
<path fill="none" stroke="#63b8ff" d="M847.11,-113.5C793.95,-106.68 698.08,-93.29 607.19,-74.05"/>
<polygon fill="#63b8ff" stroke="#63b8ff" points="607.79,-70.6 597.28,-71.93 606.32,-77.45 607.79,-70.6"/>
</g>
<!-- Node21&#45;&gt;Node17 -->
<g id="edge28" class="edge">
<title>Node21&#45;&gt;Node17</title>
<path fill="none" stroke="#63b8ff" d="M884.43,-109.65C878.4,-95.85 864.89,-69.3 845,-55 810,-29.83 761.3,-18.88 726.84,-14.13"/>
<polygon fill="#63b8ff" stroke="#63b8ff" points="727,-10.62 716.64,-12.84 726.12,-17.57 727,-10.62"/>
</g>
<!-- Node21&#45;&gt;Node18 -->
<g id="edge32" class="edge">
<title>Node21&#45;&gt;Node18</title>
<path fill="none" stroke="#63b8ff" d="M847.51,-109.98C797.04,-99.37 711.92,-81.47 666.58,-71.93"/>
<polygon fill="#63b8ff" stroke="#63b8ff" points="667.25,-68.5 656.74,-69.86 665.81,-75.35 667.25,-68.5"/>
</g>
<!-- Node22 -->
<g id="node22" class="node">
<title>Node22</title>
<g id="a_node22"><a xlink:title=" ">
<polygon fill="#e0e0e0" stroke="#999999" points="958,-19 902,-19 902,0 958,0 958,-19"/>
<text text-anchor="middle" x="930" y="-7" font-family="Helvetica,sans-Serif" font-size="10.00">algorithm</text>
</a>
</g>
</g>
<!-- Node21&#45;&gt;Node22 -->
<g id="edge21" class="edge">
<title>Node21&#45;&gt;Node22</title>
<path fill="none" stroke="#63b8ff" d="M891.44,-109.66C898.3,-92.01 913.83,-52.09 922.95,-28.64"/>
<polygon fill="#63b8ff" stroke="#63b8ff" points="926.27,-29.75 926.63,-19.16 919.75,-27.21 926.27,-29.75"/>
</g>
<!-- Node23 -->
<g id="node23" class="node">
<title>Node23</title>
<g id="a_node23"><a xlink:title=" ">
<polygon fill="#e0e0e0" stroke="#999999" points="1011.5,-19 976.5,-19 976.5,0 1011.5,0 1011.5,-19"/>
<text text-anchor="middle" x="994" y="-7" font-family="Helvetica,sans-Serif" font-size="10.00">map</text>
</a>
</g>
</g>
<!-- Node21&#45;&gt;Node23 -->
<g id="edge23" class="edge">
<title>Node21&#45;&gt;Node23</title>
<path fill="none" stroke="#63b8ff" d="M928.63,-118.26C962.36,-115.63 1008.47,-105.9 1032,-74 1043.58,-58.3 1028.05,-38.88 1013.49,-25.68"/>
<polygon fill="#63b8ff" stroke="#63b8ff" points="1015.58,-22.85 1005.69,-19.05 1011.04,-28.19 1015.58,-22.85"/>
</g>
<!-- Node24 -->
<g id="node24" class="node">
<title>Node24</title>
<g id="a_node24"><a xlink:title=" ">
<polygon fill="#e0e0e0" stroke="#999999" points="1082,-19 1030,-19 1030,0 1082,0 1082,-19"/>
<text text-anchor="middle" x="1056" y="-7" font-family="Helvetica,sans-Serif" font-size="10.00">sstream</text>
</a>
</g>
</g>
<!-- Node21&#45;&gt;Node24 -->
<g id="edge24" class="edge">
<title>Node21&#45;&gt;Node24</title>
<path fill="none" stroke="#63b8ff" d="M928.69,-112.53C971.09,-105.44 1033.49,-92.21 1049,-74 1059.44,-61.74 1060.29,-42.96 1059.07,-29"/>
<polygon fill="#63b8ff" stroke="#63b8ff" points="1062.54,-28.53 1057.79,-19.06 1055.59,-29.42 1062.54,-28.53"/>
</g>
<!-- Node25 -->
<g id="node25" class="node">
<title>Node25</title>
<g id="a_node25"><a xlink:title=" ">
<polygon fill="#e0e0e0" stroke="#999999" points="487.5,-19 446.5,-19 446.5,0 487.5,0 487.5,-19"/>
<text text-anchor="middle" x="467" y="-7" font-family="Helvetica,sans-Serif" font-size="10.00">string</text>
</a>
</g>
</g>
<!-- Node21&#45;&gt;Node25 -->
<g id="edge25" class="edge">
<title>Node21&#45;&gt;Node25</title>
<path fill="none" stroke="#63b8ff" d="M880.02,-109.74C866.52,-95.56 837.64,-67.87 807,-55 751.4,-31.65 570.85,-17.39 497.95,-12.45"/>
<polygon fill="#63b8ff" stroke="#63b8ff" points="497.82,-8.94 487.61,-11.77 497.35,-15.92 497.82,-8.94"/>
</g>
<!-- Node26 -->
<g id="node26" class="node">
<title>Node26</title>
<g id="a_node26"><a xlink:title=" ">
<polygon fill="#e0e0e0" stroke="#999999" points="1154,-19 1100,-19 1100,0 1154,0 1154,-19"/>
<text text-anchor="middle" x="1127" y="-7" font-family="Helvetica,sans-Serif" font-size="10.00">Rtypes.h</text>
</a>
</g>
</g>
<!-- Node21&#45;&gt;Node26 -->
<g id="edge26" class="edge">
<title>Node21&#45;&gt;Node26</title>
<path fill="none" stroke="#63b8ff" d="M928.76,-115.14C966.99,-110.5 1024.59,-99.57 1068,-74 1087.57,-62.47 1104.57,-42.46 1115.23,-27.98"/>
<polygon fill="#63b8ff" stroke="#63b8ff" points="1118.38,-29.6 1121.29,-19.41 1112.66,-25.56 1118.38,-29.6"/>
</g>
<!-- Node27 -->
<g id="node27" class="node">
<title>Node27</title>
<g id="a_node27"><a xlink:title=" ">
<polygon fill="#e0e0e0" stroke="#999999" points="1238,-19 1172,-19 1172,0 1238,0 1238,-19"/>
<text text-anchor="middle" x="1205" y="-7" font-family="Helvetica,sans-Serif" font-size="10.00">TBrowser.h</text>
</a>
</g>
</g>
<!-- Node21&#45;&gt;Node27 -->
<g id="edge27" class="edge">
<title>Node21&#45;&gt;Node27</title>
<path fill="none" stroke="#63b8ff" d="M928.75,-113.56C971.3,-107.54 1039.43,-95.4 1095,-74 1128.31,-61.17 1163.48,-39.18 1184.83,-24.74"/>
<polygon fill="#63b8ff" stroke="#63b8ff" points="1186.83,-27.61 1193.09,-19.06 1182.87,-21.84 1186.83,-27.61"/>
</g>
<!-- Node28 -->
<g id="node28" class="node">
<title>Node28</title>
<g id="a_node28"><a xlink:title=" ">
<polygon fill="#e0e0e0" stroke="#999999" points="883.5,-19 840.5,-19 840.5,0 883.5,0 883.5,-19"/>
<text text-anchor="middle" x="862" y="-7" font-family="Helvetica,sans-Serif" font-size="10.00">TH2.h</text>
</a>
</g>
</g>
<!-- Node21&#45;&gt;Node28 -->
<g id="edge30" class="edge">
<title>Node21&#45;&gt;Node28</title>
<path fill="none" stroke="#63b8ff" d="M888.3,-109.71C888.5,-97.29 888.06,-74.02 883,-55 880.53,-45.71 876.18,-35.99 872.07,-28.02"/>
<polygon fill="#63b8ff" stroke="#63b8ff" points="875.02,-26.11 867.16,-19.01 868.87,-29.46 875.02,-26.11"/>
</g>
<!-- Node29 -->
<g id="node29" class="node">
<title>Node29</title>
<g id="a_node29"><a xlink:title=" ">
<polygon fill="#e0e0e0" stroke="#999999" points="1318,-19 1256,-19 1256,0 1318,0 1318,-19"/>
<text text-anchor="middle" x="1287" y="-7" font-family="Helvetica,sans-Serif" font-size="10.00">TNamed.h</text>
</a>
</g>
</g>
<!-- Node21&#45;&gt;Node29 -->
<g id="edge31" class="edge">
<title>Node21&#45;&gt;Node29</title>
<path fill="none" stroke="#63b8ff" d="M928.91,-113.41C977.14,-106.85 1059.41,-93.85 1128,-74 1175.41,-60.28 1228.2,-37.65 1259.45,-23.43"/>
<polygon fill="#63b8ff" stroke="#63b8ff" points="1261.18,-26.49 1268.81,-19.14 1258.26,-20.13 1261.18,-26.49"/>
</g>
<!-- Node30 -->
<g id="node30" class="node">
<title>Node30</title>
<g id="a_node30"><a xlink:href="../../dd/d50/_gate_8hh.html" target="_top" xlink:title=" ">
<polygon fill="white" stroke="#666666" points="1023,-74 973,-74 973,-55 1023,-55 1023,-74"/>
<text text-anchor="middle" x="998" y="-62" font-family="Helvetica,sans-Serif" font-size="10.00">Gate.hh</text>
</a>
</g>
</g>
<!-- Node21&#45;&gt;Node30 -->
<g id="edge34" class="edge">
<title>Node21&#45;&gt;Node30</title>
<path fill="none" stroke="#63b8ff" d="M905.67,-109.98C923.29,-101.5 950.58,-88.35 970.93,-78.54"/>
<polygon fill="#63b8ff" stroke="#63b8ff" points="972.52,-81.66 980.01,-74.17 969.48,-75.36 972.52,-81.66"/>
</g>
<!-- Node30&#45;&gt;Node2 -->
<g id="edge39" class="edge">
<title>Node30&#45;&gt;Node2</title>
<path fill="none" stroke="#63b8ff" d="M972.93,-62.44C834.6,-56.56 167.36,-28 64.09,-18.55"/>
<polygon fill="#63b8ff" stroke="#63b8ff" points="64.35,-15.06 54.03,-17.44 63.58,-22.01 64.35,-15.06"/>
</g>
<!-- Node30&#45;&gt;Node5 -->
<g id="edge43" class="edge">
<title>Node30&#45;&gt;Node5</title>
<path fill="none" stroke="#63b8ff" d="M972.75,-62.4C893.52,-58.74 642.89,-45.72 437,-19 432.12,-18.37 426.97,-17.57 421.95,-16.72"/>
<polygon fill="#63b8ff" stroke="#63b8ff" points="422.39,-13.24 411.93,-14.93 421.16,-20.13 422.39,-13.24"/>
</g>
<!-- Node30&#45;&gt;Node17 -->
<g id="edge42" class="edge">
<title>Node30&#45;&gt;Node17</title>
<path fill="none" stroke="#63b8ff" d="M972.91,-59.25C919.21,-50.16 792.65,-28.73 726.66,-17.55"/>
<polygon fill="#63b8ff" stroke="#63b8ff" points="727.06,-14.07 716.61,-15.85 725.89,-20.97 727.06,-14.07"/>
</g>
<!-- Node30&#45;&gt;Node22 -->
<g id="edge35" class="edge">
<title>Node30&#45;&gt;Node22</title>
<path fill="none" stroke="#63b8ff" d="M987.07,-54.98C976.92,-47.07 961.58,-35.11 949.35,-25.58"/>
<polygon fill="#63b8ff" stroke="#63b8ff" points="951.16,-22.56 941.12,-19.17 946.86,-28.08 951.16,-22.56"/>
</g>
<!-- Node30&#45;&gt;Node23 -->
<g id="edge36" class="edge">
<title>Node30&#45;&gt;Node23</title>
<path fill="none" stroke="#63b8ff" d="M997.34,-54.75C996.82,-47.8 996.06,-37.85 995.41,-29.13"/>
<polygon fill="#63b8ff" stroke="#63b8ff" points="998.89,-28.8 994.65,-19.09 991.91,-29.32 998.89,-28.8"/>
</g>
<!-- Node30&#45;&gt;Node24 -->
<g id="edge37" class="edge">
<title>Node30&#45;&gt;Node24</title>
<path fill="none" stroke="#63b8ff" d="M1007.32,-54.98C1015.81,-47.23 1028.56,-35.58 1038.88,-26.14"/>
<polygon fill="#63b8ff" stroke="#63b8ff" points="1041.49,-28.5 1046.51,-19.17 1036.77,-23.33 1041.49,-28.5"/>
</g>
<!-- Node30&#45;&gt;Node25 -->
<g id="edge38" class="edge">
<title>Node30&#45;&gt;Node25</title>
<path fill="none" stroke="#63b8ff" d="M972.75,-60.98C885.03,-52.22 593.69,-23.14 497.85,-13.58"/>
<polygon fill="#63b8ff" stroke="#63b8ff" points="497.97,-10.07 487.67,-12.56 497.27,-17.04 497.97,-10.07"/>
</g>
<!-- Node30&#45;&gt;Node26 -->
<g id="edge40" class="edge">
<title>Node30&#45;&gt;Node26</title>
<path fill="none" stroke="#63b8ff" d="M1018.73,-54.98C1039.76,-46.34 1072.55,-32.87 1096.54,-23.02"/>
<polygon fill="#63b8ff" stroke="#63b8ff" points="1097.98,-26.21 1105.9,-19.17 1095.32,-19.73 1097.98,-26.21"/>
</g>
<!-- Node30&#45;&gt;Node27 -->
<g id="edge41" class="edge">
<title>Node30&#45;&gt;Node27</title>
<path fill="none" stroke="#63b8ff" d="M1023.38,-57C1057.89,-48.17 1120.1,-32.24 1161.97,-21.52"/>
<polygon fill="#63b8ff" stroke="#63b8ff" points="1163.07,-24.85 1171.89,-18.98 1161.33,-18.07 1163.07,-24.85"/>
</g>
<!-- Node30&#45;&gt;Node28 -->
<g id="edge44" class="edge">
<title>Node30&#45;&gt;Node28</title>
<path fill="none" stroke="#63b8ff" d="M976.15,-54.98C953.74,-46.25 918.68,-32.59 893.33,-22.71"/>
<polygon fill="#63b8ff" stroke="#63b8ff" points="894.38,-19.36 883.8,-18.99 891.84,-25.89 894.38,-19.36"/>
</g>
<!-- Node30&#45;&gt;Node29 -->
<g id="edge45" class="edge">
<title>Node30&#45;&gt;Node29</title>
<path fill="none" stroke="#63b8ff" d="M1023.14,-59.28C1066.46,-51.96 1158.19,-36.2 1245.5,-19.24"/>
<polygon fill="#63b8ff" stroke="#63b8ff" points="1246.43,-22.63 1255.58,-17.28 1245.09,-15.76 1246.43,-22.63"/>
</g>
<!-- Node31&#45;&gt;Node2 -->
<g id="edge48" class="edge">
<title>Node31&#45;&gt;Node2</title>
<path fill="none" stroke="#63b8ff" d="M381.86,-116.13C305.88,-111.15 144.14,-98.02 94,-74 71.53,-63.24 51.64,-42.12 39.48,-27.2"/>
<polygon fill="#63b8ff" stroke="#63b8ff" points="42.18,-24.97 33.26,-19.26 36.67,-29.29 42.18,-24.97"/>
</g>
<!-- Node31&#45;&gt;Node15 -->
<g id="edge47" class="edge">
<title>Node31&#45;&gt;Node15</title>
<path fill="none" stroke="#63b8ff" d="M446.58,-109.98C472.88,-100.88 514.67,-86.4 543.39,-76.45"/>
<polygon fill="#63b8ff" stroke="#63b8ff" points="544.66,-79.71 552.96,-73.13 542.37,-73.1 544.66,-79.71"/>
</g>
<!-- Node31&#45;&gt;Node16 -->
<g id="edge51" class="edge">
<title>Node31&#45;&gt;Node16</title>
<path fill="none" stroke="#63b8ff" d="M422,-109.75C422,-102.8 422,-92.85 422,-84.13"/>
<polygon fill="#63b8ff" stroke="#63b8ff" points="425.5,-84.09 422,-74.09 418.5,-84.09 425.5,-84.09"/>
</g>
<!-- Node31&#45;&gt;Node17 -->
<g id="edge52" class="edge">
<title>Node31&#45;&gt;Node17</title>
<path fill="none" stroke="#63b8ff" d="M408,-109.93C389.22,-97.39 359.96,-73.52 376,-55 393.26,-35.08 562.69,-19.74 643.08,-13.52"/>
<polygon fill="#63b8ff" stroke="#63b8ff" points="643.64,-16.99 653.34,-12.74 643.11,-10.01 643.64,-16.99"/>
</g>
<!-- Node31&#45;&gt;Node18 -->
<g id="edge53" class="edge">
<title>Node31&#45;&gt;Node18</title>
<path fill="none" stroke="#63b8ff" d="M459.11,-109.97C494.31,-101.78 548.91,-88.82 605.53,-74.04"/>
<polygon fill="#63b8ff" stroke="#63b8ff" points="606.59,-77.38 615.37,-71.46 604.81,-70.61 606.59,-77.38"/>
</g>
<!-- Node31&#45;&gt;Node19 -->
<g id="edge54" class="edge">
<title>Node31&#45;&gt;Node19</title>
<path fill="none" stroke="#63b8ff" d="M435.5,-109.98C448.4,-101.84 468.1,-89.41 483.4,-79.76"/>
<polygon fill="#63b8ff" stroke="#63b8ff" points="485.67,-82.47 492.26,-74.17 481.93,-76.55 485.67,-82.47"/>
</g>
<!-- Node31&#45;&gt;Node20 -->
<g id="edge55" class="edge">
<title>Node31&#45;&gt;Node20</title>
<path fill="none" stroke="#63b8ff" d="M395.17,-109.98C367.13,-101.09 322.95,-87.07 291.7,-77.15"/>
<polygon fill="#63b8ff" stroke="#63b8ff" points="292.63,-73.77 282.04,-74.08 290.51,-80.44 292.63,-73.77"/>
</g>
<!-- Node31&#45;&gt;Node25 -->
<g id="edge49" class="edge">
<title>Node31&#45;&gt;Node25</title>
<path fill="none" stroke="#63b8ff" d="M394.9,-109.91C365.8,-99.2 325.89,-79.32 343,-55 353.99,-39.39 403.37,-25.21 436.4,-17.24"/>
<polygon fill="#63b8ff" stroke="#63b8ff" points="437.55,-20.57 446.49,-14.88 435.95,-13.75 437.55,-20.57"/>
</g>
<!-- Node32 -->
<g id="node32" class="node">
<title>Node32</title>
<g id="a_node32"><a xlink:title=" ">
<polygon fill="#e0e0e0" stroke="#999999" points="122,-19 72,-19 72,0 122,0 122,-19"/>
<text text-anchor="middle" x="97" y="-7" font-family="Helvetica,sans-Serif" font-size="10.00">fstream</text>
</a>
</g>
</g>
<!-- Node31&#45;&gt;Node32 -->
<g id="edge50" class="edge">
<title>Node31&#45;&gt;Node32</title>
<path fill="none" stroke="#63b8ff" d="M381.83,-118.47C306.07,-117.53 146.24,-111.08 108,-74 96.34,-62.69 94.37,-43.79 94.84,-29.54"/>
<polygon fill="#63b8ff" stroke="#63b8ff" points="98.35,-29.58 95.61,-19.34 91.37,-29.05 98.35,-29.58"/>
</g>
<!-- Node33&#45;&gt;Node5 -->
<g id="edge62" class="edge">
<title>Node33&#45;&gt;Node5</title>
<path fill="none" stroke="#63b8ff" d="M196.11,-54.98C241.12,-44.66 316.2,-27.43 358.51,-17.73"/>
<polygon fill="#63b8ff" stroke="#63b8ff" points="359.31,-21.13 368.27,-15.49 357.74,-14.31 359.31,-21.13"/>
</g>
<!-- Node33&#45;&gt;Node17 -->
<g id="edge61" class="edge">
<title>Node33&#45;&gt;Node17</title>
<path fill="none" stroke="#63b8ff" d="M200.71,-56.3C203.85,-55.83 206.97,-55.39 210,-55 369.5,-34.26 560.35,-19.38 643.2,-13.4"/>
<polygon fill="#63b8ff" stroke="#63b8ff" points="643.5,-16.89 653.23,-12.69 643,-9.91 643.5,-16.89"/>
</g>
<!-- Node33&#45;&gt;Node25 -->
<g id="edge58" class="edge">
<title>Node33&#45;&gt;Node25</title>
<path fill="none" stroke="#63b8ff" d="M200.61,-56.54C252.14,-47.89 342.58,-32.6 420,-19 425.28,-18.07 430.88,-17.07 436.31,-16.1"/>
<polygon fill="#63b8ff" stroke="#63b8ff" points="437.2,-19.49 446.42,-14.27 435.95,-12.6 437.2,-19.49"/>
</g>
<!-- Node33&#45;&gt;Node28 -->
<g id="edge63" class="edge">
<title>Node33&#45;&gt;Node28</title>
<path fill="none" stroke="#63b8ff" d="M200.7,-56.21C203.84,-55.77 206.97,-55.36 210,-55 271.87,-47.75 707.45,-20.19 829.99,-12.5"/>
<polygon fill="#63b8ff" stroke="#63b8ff" points="830.45,-15.98 840.21,-11.86 830.01,-8.99 830.45,-15.98"/>
</g>
<!-- Node33&#45;&gt;Node32 -->
<g id="edge59" class="edge">
<title>Node33&#45;&gt;Node32</title>
<path fill="none" stroke="#63b8ff" d="M149.04,-54.98C139.87,-47.15 126.06,-35.34 114.97,-25.86"/>
<polygon fill="#63b8ff" stroke="#63b8ff" points="117.02,-23.01 107.14,-19.17 112.47,-28.33 117.02,-23.01"/>
</g>
<!-- Node34 -->
<g id="node34" class="node">
<title>Node34</title>
<g id="a_node34"><a xlink:title=" ">
<polygon fill="#e0e0e0" stroke="#999999" points="193.5,-19 140.5,-19 140.5,0 193.5,0 193.5,-19"/>
<text text-anchor="middle" x="167" y="-7" font-family="Helvetica,sans-Serif" font-size="10.00">complex</text>
</a>
</g>
</g>
<!-- Node33&#45;&gt;Node34 -->
<g id="edge60" class="edge">
<title>Node33&#45;&gt;Node34</title>
<path fill="none" stroke="#63b8ff" d="M160.32,-54.75C161.37,-47.8 162.87,-37.85 164.19,-29.13"/>
<polygon fill="#63b8ff" stroke="#63b8ff" points="167.67,-29.5 165.7,-19.09 160.75,-28.45 167.67,-29.5"/>
</g>
</g>
</svg>
