<?xml version="1.0" encoding="UTF-8" standalone="no"?>
<!DOCTYPE svg PUBLIC "-//W3C//DTD SVG 1.1//EN"
 "http://www.w3.org/Graphics/SVG/1.1/DTD/svg11.dtd">
<!-- Generated by graphviz version 12.2.1 (20241206.2353)
 -->
<!-- Title: src/lib/spect/Fit.cc Pages: 1 -->
<svg width="1842pt" height="248pt"
 viewBox="0.00 0.00 1842.12 248.25" xmlns="http://www.w3.org/2000/svg" xmlns:xlink="http://www.w3.org/1999/xlink">
<g id="graph0" class="graph" transform="scale(1 1) rotate(0) translate(4 244.25)">
<title>src/lib/spect/Fit.cc</title>
<!-- Node1 -->
<g id="Node000001" class="node">
<title>Node1</title>
<g id="a_Node000001"><a xlink:title=" ">
<polygon fill="#999999" stroke="#666666" points="1252,-240.25 1155.75,-240.25 1155.75,-221 1252,-221 1252,-240.25"/>
<text text-anchor="middle" x="1203.88" y="-226.75" font-family="Helvetica,sans-Serif" font-size="10.00">src/lib/spect/Fit.cc</text>
</a>
</g>
</g>
<!-- Node2 -->
<g id="Node000002" class="node">
<title>Node2</title>
<g id="a_Node000002"><a xlink:title=" ">
<polygon fill="#e0e0e0" stroke="#999999" points="937.62,-19.25 884.12,-19.25 884.12,0 937.62,0 937.62,-19.25"/>
<text text-anchor="middle" x="910.88" y="-5.75" font-family="Helvetica,sans-Serif" font-size="10.00">iostream</text>
</a>
</g>
</g>
<!-- Node1&#45;&gt;Node2 -->
<g id="edge1_Node000001_Node000002" class="edge">
<title>Node1&#45;&gt;Node2</title>
<g id="a_edge1_Node000001_Node000002"><a xlink:title=" ">
<path fill="none" stroke="#63b8ff" d="M1181.14,-220.66C1157.14,-209.71 1124.38,-189.68 1136.88,-165.75 1172.13,-98.23 1318.64,-112.03 1267.88,-55.25 1222.13,-4.09 1035.07,-29.17 949.12,-19.11"/>
<polygon fill="#63b8ff" stroke="#63b8ff" points="949.82,-15.67 939.42,-17.7 948.82,-22.6 949.82,-15.67"/>
</a>
</g>
</g>
<!-- Node3 -->
<g id="Node000003" class="node">
<title>Node3</title>
<g id="a_Node000003"><a xlink:title=" ">
<polygon fill="#e0e0e0" stroke="#999999" points="1193.62,-185 1146.12,-185 1146.12,-165.75 1193.62,-165.75 1193.62,-185"/>
<text text-anchor="middle" x="1169.88" y="-171.5" font-family="Helvetica,sans-Serif" font-size="10.00">string.h</text>
</a>
</g>
</g>
<!-- Node1&#45;&gt;Node3 -->
<g id="edge2_Node000001_Node000003" class="edge">
<title>Node1&#45;&gt;Node3</title>
<g id="a_edge2_Node000001_Node000003"><a xlink:title=" ">
<path fill="none" stroke="#63b8ff" d="M1198.26,-220.83C1193.76,-213.78 1187.29,-203.65 1181.66,-194.83"/>
<polygon fill="#63b8ff" stroke="#63b8ff" points="1184.76,-193.18 1176.43,-186.63 1178.86,-196.95 1184.76,-193.18"/>
</a>
</g>
</g>
<!-- Node4 -->
<g id="Node000004" class="node">
<title>Node4</title>
<g id="a_Node000004"><a xlink:title=" ">
<polygon fill="#e0e0e0" stroke="#999999" points="1266.38,-185 1211.38,-185 1211.38,-165.75 1266.38,-165.75 1266.38,-185"/>
<text text-anchor="middle" x="1238.88" y="-171.5" font-family="Helvetica,sans-Serif" font-size="10.00">TArrow.h</text>
</a>
</g>
</g>
<!-- Node1&#45;&gt;Node4 -->
<g id="edge3_Node000001_Node000004" class="edge">
<title>Node1&#45;&gt;Node4</title>
<g id="a_edge3_Node000001_Node000004"><a xlink:title=" ">
<path fill="none" stroke="#63b8ff" d="M1209.65,-220.83C1214.29,-213.78 1220.95,-203.65 1226.74,-194.83"/>
<polygon fill="#63b8ff" stroke="#63b8ff" points="1229.57,-196.9 1232.14,-186.62 1223.72,-193.06 1229.57,-196.9"/>
</a>
</g>
</g>
<!-- Node5 -->
<g id="Node000005" class="node">
<title>Node5</title>
<g id="a_Node000005"><a xlink:title=" ">
<polygon fill="#e0e0e0" stroke="#999999" points="372,-19.25 329.75,-19.25 329.75,0 372,0 372,-19.25"/>
<text text-anchor="middle" x="350.88" y="-5.75" font-family="Helvetica,sans-Serif" font-size="10.00">TH1.h</text>
</a>
</g>
</g>
<!-- Node1&#45;&gt;Node5 -->
<g id="edge4_Node000001_Node000005" class="edge">
<title>Node1&#45;&gt;Node5</title>
<g id="a_edge4_Node000001_Node000005"><a xlink:title=" ">
<path fill="none" stroke="#63b8ff" d="M1155.25,-229.24C998.69,-227.65 508.89,-219.95 354.88,-185 242.71,-159.55 179.52,-173.43 120.88,-74.5 116.51,-67.14 115.43,-61.85 120.88,-55.25 145.52,-25.37 260.79,-15.25 318.21,-12.03"/>
<polygon fill="#63b8ff" stroke="#63b8ff" points="318.21,-15.53 328.02,-11.52 317.85,-8.54 318.21,-15.53"/>
</a>
</g>
</g>
<!-- Node6 -->
<g id="Node000006" class="node">
<title>Node6</title>
<g id="a_Node000006"><a xlink:title=" ">
<polygon fill="#e0e0e0" stroke="#999999" points="1343.62,-185 1284.12,-185 1284.12,-165.75 1343.62,-165.75 1343.62,-185"/>
<text text-anchor="middle" x="1313.88" y="-171.5" font-family="Helvetica,sans-Serif" font-size="10.00">TMarker.h</text>
</a>
</g>
</g>
<!-- Node1&#45;&gt;Node6 -->
<g id="edge5_Node000001_Node000006" class="edge">
<title>Node1&#45;&gt;Node6</title>
<g id="a_edge5_Node000001_Node000006"><a xlink:title=" ">
<path fill="none" stroke="#63b8ff" d="M1222.54,-220.59C1239.6,-212.33 1265.12,-199.98 1284.85,-190.43"/>
<polygon fill="#63b8ff" stroke="#63b8ff" points="1286.29,-193.62 1293.76,-186.11 1283.24,-187.32 1286.29,-193.62"/>
</a>
</g>
</g>
<!-- Node7 -->
<g id="Node000007" class="node">
<title>Node7</title>
<g id="a_Node000007"><a xlink:title=" ">
<polygon fill="#e0e0e0" stroke="#999999" points="1258.5,-74.5 1207.25,-74.5 1207.25,-55.25 1258.5,-55.25 1258.5,-74.5"/>
<text text-anchor="middle" x="1232.88" y="-61" font-family="Helvetica,sans-Serif" font-size="10.00">TMath.h</text>
</a>
</g>
</g>
<!-- Node1&#45;&gt;Node7 -->
<g id="edge6_Node000001_Node000007" class="edge">
<title>Node1&#45;&gt;Node7</title>
<g id="a_edge6_Node000001_Node000007"><a xlink:title=" ">
<path fill="none" stroke="#63b8ff" d="M1161.27,-220.58C1128.18,-211.22 1090.04,-193.96 1103.88,-165.75 1124.04,-124.63 1170.21,-95.6 1201.48,-79.8"/>
<polygon fill="#63b8ff" stroke="#63b8ff" points="1202.63,-83.14 1210.09,-75.62 1199.57,-76.84 1202.63,-83.14"/>
</a>
</g>
</g>
<!-- Node8 -->
<g id="Node000008" class="node">
<title>Node8</title>
<g id="a_Node000008"><a xlink:title=" ">
<polygon fill="#e0e0e0" stroke="#999999" points="1424.12,-185 1361.62,-185 1361.62,-165.75 1424.12,-165.75 1424.12,-185"/>
<text text-anchor="middle" x="1392.88" y="-171.5" font-family="Helvetica,sans-Serif" font-size="10.00">TMatrixD.h</text>
</a>
</g>
</g>
<!-- Node1&#45;&gt;Node8 -->
<g id="edge7_Node000001_Node000008" class="edge">
<title>Node1&#45;&gt;Node8</title>
<g id="a_edge7_Node000001_Node000008"><a xlink:title=" ">
<path fill="none" stroke="#63b8ff" d="M1235.94,-220.59C1267.49,-211.7 1315.85,-198.08 1350.54,-188.3"/>
<polygon fill="#63b8ff" stroke="#63b8ff" points="1351.15,-191.77 1359.83,-185.69 1349.26,-185.03 1351.15,-191.77"/>
</a>
</g>
</g>
<!-- Node9 -->
<g id="Node000009" class="node">
<title>Node9</title>
<g id="a_Node000009"><a xlink:title=" ">
<polygon fill="#e0e0e0" stroke="#999999" points="1497.38,-185 1442.38,-185 1442.38,-165.75 1497.38,-165.75 1497.38,-185"/>
<text text-anchor="middle" x="1469.88" y="-171.5" font-family="Helvetica,sans-Serif" font-size="10.00">TString.h</text>
</a>
</g>
</g>
<!-- Node1&#45;&gt;Node9 -->
<g id="edge8_Node000001_Node000009" class="edge">
<title>Node1&#45;&gt;Node9</title>
<g id="a_edge8_Node000001_Node000009"><a xlink:title=" ">
<path fill="none" stroke="#63b8ff" d="M1252.23,-220.73C1296.29,-212.51 1363.44,-199.69 1431.15,-185.3"/>
<polygon fill="#63b8ff" stroke="#63b8ff" points="1431.49,-188.81 1440.54,-183.3 1430.03,-181.97 1431.49,-188.81"/>
</a>
</g>
</g>
<!-- Node10 -->
<g id="Node000010" class="node">
<title>Node10</title>
<g id="a_Node000010"><a xlink:title=" ">
<polygon fill="#e0e0e0" stroke="#999999" points="1564,-185 1515.75,-185 1515.75,-165.75 1564,-165.75 1564,-185"/>
<text text-anchor="middle" x="1539.88" y="-171.5" font-family="Helvetica,sans-Serif" font-size="10.00">TText.h</text>
</a>
</g>
</g>
<!-- Node1&#45;&gt;Node10 -->
<g id="edge9_Node000001_Node000010" class="edge">
<title>Node1&#45;&gt;Node10</title>
<g id="a_edge9_Node000001_Node000010"><a xlink:title=" ">
<path fill="none" stroke="#63b8ff" d="M1252.44,-224.13C1310.23,-217.23 1409.83,-204.19 1504.25,-185.35"/>
<polygon fill="#63b8ff" stroke="#63b8ff" points="1504.85,-188.8 1513.95,-183.38 1503.46,-181.94 1504.85,-188.8"/>
</a>
</g>
</g>
<!-- Node11 -->
<g id="Node000011" class="node">
<title>Node11</title>
<g id="a_Node000011"><a xlink:title=" ">
<polygon fill="#e0e0e0" stroke="#999999" points="1660,-185 1581.75,-185 1581.75,-165.75 1660,-165.75 1660,-185"/>
<text text-anchor="middle" x="1620.88" y="-171.5" font-family="Helvetica,sans-Serif" font-size="10.00">TPolyMarker.h</text>
</a>
</g>
</g>
<!-- Node1&#45;&gt;Node11 -->
<g id="edge10_Node000001_Node000011" class="edge">
<title>Node1&#45;&gt;Node11</title>
<g id="a_edge10_Node000001_Node000011"><a xlink:title=" ">
<path fill="none" stroke="#63b8ff" d="M1252.35,-224.66C1320.86,-217.45 1450.2,-203.11 1570.15,-185.34"/>
<polygon fill="#63b8ff" stroke="#63b8ff" points="1570.48,-188.83 1579.86,-183.89 1569.45,-181.9 1570.48,-188.83"/>
</a>
</g>
</g>
<!-- Node12 -->
<g id="Node000012" class="node">
<title>Node12</title>
<g id="a_Node000012"><a xlink:title=" ">
<polygon fill="#e0e0e0" stroke="#999999" points="1747.5,-185 1678.25,-185 1678.25,-165.75 1747.5,-165.75 1747.5,-185"/>
<text text-anchor="middle" x="1712.88" y="-171.5" font-family="Helvetica,sans-Serif" font-size="10.00">TRatioPlot.h</text>
</a>
</g>
</g>
<!-- Node1&#45;&gt;Node12 -->
<g id="edge11_Node000001_Node000012" class="edge">
<title>Node1&#45;&gt;Node12</title>
<g id="a_edge11_Node000001_Node000012"><a xlink:title=" ">
<path fill="none" stroke="#63b8ff" d="M1252.26,-226.55C1335,-220.95 1509.18,-207.67 1666.56,-185.19"/>
<polygon fill="#63b8ff" stroke="#63b8ff" points="1666.97,-188.67 1676.37,-183.78 1665.97,-181.74 1666.97,-188.67"/>
</a>
</g>
</g>
<!-- Node13 -->
<g id="Node000013" class="node">
<title>Node13</title>
<g id="a_Node000013"><a xlink:title=" ">
<polygon fill="#e0e0e0" stroke="#999999" points="1834.12,-185 1765.62,-185 1765.62,-165.75 1834.12,-165.75 1834.12,-185"/>
<text text-anchor="middle" x="1799.88" y="-171.5" font-family="Helvetica,sans-Serif" font-size="10.00">TFitResult.h</text>
</a>
</g>
</g>
<!-- Node1&#45;&gt;Node13 -->
<g id="edge12_Node000001_Node000013" class="edge">
<title>Node1&#45;&gt;Node13</title>
<g id="a_edge12_Node000001_Node000013"><a xlink:title=" ">
<path fill="none" stroke="#63b8ff" d="M1252.16,-227.64C1346.64,-223.34 1562.69,-211.48 1753.81,-185.28"/>
<polygon fill="#63b8ff" stroke="#63b8ff" points="1754.28,-188.74 1763.7,-183.9 1753.32,-181.81 1754.28,-188.74"/>
</a>
</g>
</g>
<!-- Node14 -->
<g id="Node000014" class="node">
<title>Node14</title>
<g id="a_Node000014"><a xlink:href="../../db/dec/_fit_8hh.html" target="_top" xlink:title=" ">
<polygon fill="white" stroke="#666666" points="523.88,-185 483.88,-185 483.88,-165.75 523.88,-165.75 523.88,-185"/>
<text text-anchor="middle" x="503.88" y="-171.5" font-family="Helvetica,sans-Serif" font-size="10.00">Fit.hh</text>
</a>
</g>
</g>
<!-- Node1&#45;&gt;Node14 -->
<g id="edge13_Node000001_Node000014" class="edge">
<title>Node1&#45;&gt;Node14</title>
<g id="a_edge13_Node000001_Node000014"><a xlink:title=" ">
<path fill="none" stroke="#63b8ff" d="M1155.48,-225.94C1021.26,-215.73 646.82,-187.25 535.48,-178.78"/>
<polygon fill="#63b8ff" stroke="#63b8ff" points="535.85,-175.3 525.61,-178.03 535.31,-182.28 535.85,-175.3"/>
</a>
</g>
</g>
<!-- Node22 -->
<g id="Node000022" class="node">
<title>Node22</title>
<g id="a_Node000022"><a xlink:href="../../d9/db5/_peak_8hh.html" target="_top" xlink:title=" ">
<polygon fill="white" stroke="#666666" points="987.12,-129.75 906.62,-129.75 906.62,-110.5 987.12,-110.5 987.12,-129.75"/>
<text text-anchor="middle" x="946.88" y="-116.25" font-family="Helvetica,sans-Serif" font-size="10.00">toolkit/Peak.hh</text>
</a>
</g>
</g>
<!-- Node1&#45;&gt;Node22 -->
<g id="edge66_Node000001_Node000022" class="edge">
<title>Node1&#45;&gt;Node22</title>
<g id="a_edge66_Node000001_Node000022"><a xlink:title=" ">
<path fill="none" stroke="#63b8ff" d="M1170.08,-220.54C1141.75,-212.49 1100.51,-199.75 1065.88,-185 1032.02,-170.58 994.94,-149.83 971.32,-135.93"/>
<polygon fill="#63b8ff" stroke="#63b8ff" points="973.16,-132.95 962.78,-130.85 969.58,-138.97 973.16,-132.95"/>
</a>
</g>
</g>
<!-- Node32 -->
<g id="Node000032" class="node">
<title>Node32</title>
<g id="a_Node000032"><a xlink:href="../../d7/d23/_fit_guesses_8hh.html" target="_top" xlink:title=" ">
<polygon fill="white" stroke="#666666" points="577.38,-129.75 498.38,-129.75 498.38,-110.5 577.38,-110.5 577.38,-129.75"/>
<text text-anchor="middle" x="537.88" y="-116.25" font-family="Helvetica,sans-Serif" font-size="10.00">FitGuesses.hh</text>
</a>
</g>
</g>
<!-- Node1&#45;&gt;Node32 -->
<g id="edge57_Node000001_Node000032" class="edge">
<title>Node1&#45;&gt;Node32</title>
<g id="a_edge57_Node000001_Node000032"><a xlink:title=" ">
<path fill="none" stroke="#63b8ff" d="M1155.44,-221.73C1033.24,-201.83 713.27,-149.7 588.61,-129.39"/>
<polygon fill="#63b8ff" stroke="#63b8ff" points="589.45,-125.98 579.02,-127.83 588.32,-132.89 589.45,-125.98"/>
</a>
</g>
</g>
<!-- Node34 -->
<g id="Node000034" class="node">
<title>Node34</title>
<g id="a_Node000034"><a xlink:href="../../d7/db9/_utilities_8hh.html" target="_top" xlink:title=" ">
<polygon fill="white" stroke="#666666" points="212.25,-74.5 129.5,-74.5 129.5,-55.25 212.25,-55.25 212.25,-74.5"/>
<text text-anchor="middle" x="170.88" y="-61" font-family="Helvetica,sans-Serif" font-size="10.00">utils/Utilities.hh</text>
</a>
</g>
</g>
<!-- Node1&#45;&gt;Node34 -->
<g id="edge58_Node000001_Node000034" class="edge">
<title>Node1&#45;&gt;Node34</title>
<g id="a_edge58_Node000001_Node000034"><a xlink:title=" ">
<path fill="none" stroke="#63b8ff" d="M1155.34,-229.81C1037.8,-229.58 728.85,-224.89 474.88,-185 376.98,-169.63 348.56,-171.88 258.88,-129.75 232.49,-117.36 205.92,-96.68 188.99,-82.21"/>
<polygon fill="#63b8ff" stroke="#63b8ff" points="191.61,-79.85 181.77,-75.91 187,-85.12 191.61,-79.85"/>
</a>
</g>
</g>
<!-- Node15 -->
<g id="Node000015" class="node">
<title>Node15</title>
<g id="a_Node000015"><a xlink:title=" ">
<polygon fill="#e0e0e0" stroke="#999999" points="682.38,-74.5 639.38,-74.5 639.38,-55.25 682.38,-55.25 682.38,-74.5"/>
<text text-anchor="middle" x="660.88" y="-61" font-family="Helvetica,sans-Serif" font-size="10.00">vector</text>
</a>
</g>
</g>
<!-- Node14&#45;&gt;Node15 -->
<g id="edge14_Node000014_Node000015" class="edge">
<title>Node14&#45;&gt;Node15</title>
<g id="a_edge14_Node000014_Node000015"><a xlink:title=" ">
<path fill="none" stroke="#63b8ff" d="M523.09,-165.34C540.14,-156.99 565.44,-143.79 585.88,-129.75 606.89,-115.31 628.86,-96.03 643.55,-82.44"/>
<polygon fill="#63b8ff" stroke="#63b8ff" points="645.68,-85.24 650.58,-75.85 640.89,-80.14 645.68,-85.24"/>
</a>
</g>
</g>
<!-- Node16 -->
<g id="Node000016" class="node">
<title>Node16</title>
<g id="a_Node000016"><a xlink:title=" ">
<polygon fill="#e0e0e0" stroke="#999999" points="506.75,-74.5 433,-74.5 433,-55.25 506.75,-55.25 506.75,-74.5"/>
<text text-anchor="middle" x="469.88" y="-61" font-family="Helvetica,sans-Serif" font-size="10.00">RtypesCore.h</text>
</a>
</g>
</g>
<!-- Node14&#45;&gt;Node16 -->
<g id="edge15_Node000014_Node000016" class="edge">
<title>Node14&#45;&gt;Node16</title>
<g id="a_edge15_Node000014_Node000016"><a xlink:title=" ">
<path fill="none" stroke="#63b8ff" d="M500.79,-165.51C497.7,-156.53 492.82,-142.22 488.88,-129.75 484.21,-115.03 479.25,-98.29 475.56,-85.64"/>
<polygon fill="#63b8ff" stroke="#63b8ff" points="478.92,-84.67 472.78,-76.04 472.2,-86.62 478.92,-84.67"/>
</a>
</g>
</g>
<!-- Node17 -->
<g id="Node000017" class="node">
<title>Node17</title>
<g id="a_Node000017"><a xlink:title=" ">
<polygon fill="#e0e0e0" stroke="#999999" points="566.12,-19.25 503.62,-19.25 503.62,0 566.12,0 566.12,-19.25"/>
<text text-anchor="middle" x="534.88" y="-5.75" font-family="Helvetica,sans-Serif" font-size="10.00">TCanvas.h</text>
</a>
</g>
</g>
<!-- Node14&#45;&gt;Node17 -->
<g id="edge16_Node000014_Node000017" class="edge">
<title>Node14&#45;&gt;Node17</title>
<g id="a_edge16_Node000014_Node000017"><a xlink:title=" ">
<path fill="none" stroke="#63b8ff" d="M483.44,-172.31C413.62,-164.51 192.5,-133.22 258.88,-55.25 273.81,-37.71 418.38,-21.64 492.1,-14.51"/>
<polygon fill="#63b8ff" stroke="#63b8ff" points="492.16,-18.02 501.78,-13.59 491.5,-11.05 492.16,-18.02"/>
</a>
</g>
</g>
<!-- Node18 -->
<g id="Node000018" class="node">
<title>Node18</title>
<g id="a_Node000018"><a xlink:title=" ">
<polygon fill="#e0e0e0" stroke="#999999" points="741.25,-74.5 700.5,-74.5 700.5,-55.25 741.25,-55.25 741.25,-74.5"/>
<text text-anchor="middle" x="720.88" y="-61" font-family="Helvetica,sans-Serif" font-size="10.00">TF1.h</text>
</a>
</g>
</g>
<!-- Node14&#45;&gt;Node18 -->
<g id="edge17_Node000014_Node000018" class="edge">
<title>Node14&#45;&gt;Node18</title>
<g id="a_edge17_Node000014_Node000018"><a xlink:title=" ">
<path fill="none" stroke="#63b8ff" d="M524.15,-166.96C546.13,-158.7 582.08,-144.55 611.88,-129.75 642.09,-114.74 675.35,-94.71 697.09,-81.11"/>
<polygon fill="#63b8ff" stroke="#63b8ff" points="698.9,-84.1 705.49,-75.8 695.16,-78.18 698.9,-84.1"/>
</a>
</g>
</g>
<!-- Node19 -->
<g id="Node000019" class="node">
<title>Node19</title>
<g id="a_Node000019"><a xlink:title=" ">
<polygon fill="#e0e0e0" stroke="#999999" points="55.75,-19.25 0,-19.25 0,0 55.75,0 55.75,-19.25"/>
<text text-anchor="middle" x="27.88" y="-5.75" font-family="Helvetica,sans-Serif" font-size="10.00">TGraph.h</text>
</a>
</g>
</g>
<!-- Node14&#45;&gt;Node19 -->
<g id="edge18_Node000014_Node000019" class="edge">
<title>Node14&#45;&gt;Node19</title>
<g id="a_edge18_Node000014_Node000019"><a xlink:title=" ">
<path fill="none" stroke="#63b8ff" d="M483.72,-173.2C422.55,-168.85 235.2,-149.81 103.88,-74.5 81.34,-61.58 59,-41.73 44.43,-27.59"/>
<polygon fill="#63b8ff" stroke="#63b8ff" points="47.07,-25.28 37.51,-20.71 42.13,-30.24 47.07,-25.28"/>
</a>
</g>
</g>
<!-- Node20 -->
<g id="Node000020" class="node">
<title>Node20</title>
<g id="a_Node000020"><a xlink:title=" ">
<polygon fill="#e0e0e0" stroke="#999999" points="325.5,-74.5 268.25,-74.5 268.25,-55.25 325.5,-55.25 325.5,-74.5"/>
<text text-anchor="middle" x="296.88" y="-61" font-family="Helvetica,sans-Serif" font-size="10.00">TROOT.h</text>
</a>
</g>
</g>
<!-- Node14&#45;&gt;Node20 -->
<g id="edge19_Node000014_Node000020" class="edge">
<title>Node14&#45;&gt;Node20</title>
<g id="a_edge19_Node000014_Node000020"><a xlink:title=" ">
<path fill="none" stroke="#63b8ff" d="M486.58,-165.31C450.66,-146.48 367.72,-103.01 324.38,-80.29"/>
<polygon fill="#63b8ff" stroke="#63b8ff" points="326.09,-77.23 315.6,-75.69 322.84,-83.43 326.09,-77.23"/>
</a>
</g>
</g>
<!-- Node21 -->
<g id="Node000021" class="node">
<title>Node21</title>
<g id="a_Node000021"><a xlink:title=" ">
<polygon fill="#e0e0e0" stroke="#999999" points="414.62,-74.5 343.12,-74.5 343.12,-55.25 414.62,-55.25 414.62,-74.5"/>
<text text-anchor="middle" x="378.88" y="-61" font-family="Helvetica,sans-Serif" font-size="10.00">TSpectrum.h</text>
</a>
</g>
</g>
<!-- Node14&#45;&gt;Node21 -->
<g id="edge20_Node000014_Node000021" class="edge">
<title>Node14&#45;&gt;Node21</title>
<g id="a_edge20_Node000014_Node000021"><a xlink:title=" ">
<path fill="none" stroke="#63b8ff" d="M493.65,-165.5C472.68,-147.3 424.55,-105.52 397.75,-82.26"/>
<polygon fill="#63b8ff" stroke="#63b8ff" points="400.23,-79.78 390.39,-75.87 395.65,-85.07 400.23,-79.78"/>
</a>
</g>
</g>
<!-- Node14&#45;&gt;Node22 -->
<g id="edge21_Node000014_Node000022" class="edge">
<title>Node14&#45;&gt;Node22</title>
<g id="a_edge21_Node000014_Node000022"><a xlink:title=" ">
<path fill="none" stroke="#63b8ff" d="M524.35,-171.91C590.09,-164.01 797.15,-139.12 894.86,-127.38"/>
<polygon fill="#63b8ff" stroke="#63b8ff" points="895.21,-130.86 904.72,-126.19 894.37,-123.91 895.21,-130.86"/>
</a>
</g>
</g>
<!-- Node14&#45;&gt;Node32 -->
<g id="edge47_Node000014_Node000032" class="edge">
<title>Node14&#45;&gt;Node32</title>
<g id="a_edge47_Node000014_Node000032"><a xlink:title=" ">
<path fill="none" stroke="#63b8ff" d="M509.49,-165.58C513.99,-158.53 520.46,-148.4 526.09,-139.58"/>
<polygon fill="#63b8ff" stroke="#63b8ff" points="528.89,-141.7 531.32,-131.38 522.99,-137.93 528.89,-141.7"/>
</a>
</g>
</g>
<!-- Node22&#45;&gt;Node5 -->
<g id="edge30_Node000022_Node000005" class="edge">
<title>Node22&#45;&gt;Node5</title>
<g id="a_edge30_Node000022_Node000005"><a xlink:title=" ">
<path fill="none" stroke="#63b8ff" d="M906.46,-111.23C872.66,-103.91 823.56,-91.55 782.88,-74.5 767.22,-67.94 765.99,-60.59 749.88,-55.25 681.99,-32.77 466.6,-17.66 383.77,-12.54"/>
<polygon fill="#63b8ff" stroke="#63b8ff" points="384.03,-9.05 373.83,-11.94 383.6,-16.04 384.03,-9.05"/>
</a>
</g>
</g>
<!-- Node22&#45;&gt;Node7 -->
<g id="edge34_Node000022_Node000007" class="edge">
<title>Node22&#45;&gt;Node7</title>
<g id="a_edge34_Node000022_Node000007"><a xlink:title=" ">
<path fill="none" stroke="#63b8ff" d="M987.44,-112.19C1036.26,-103.74 1120.71,-88.82 1192.88,-74.5 1193.88,-74.3 1194.9,-74.1 1195.93,-73.89"/>
<polygon fill="#63b8ff" stroke="#63b8ff" points="1196.52,-77.34 1205.6,-71.88 1195.1,-70.49 1196.52,-77.34"/>
</a>
</g>
</g>
<!-- Node22&#45;&gt;Node15 -->
<g id="edge23_Node000022_Node000015" class="edge">
<title>Node22&#45;&gt;Node15</title>
<g id="a_edge23_Node000022_Node000015"><a xlink:title=" ">
<path fill="none" stroke="#63b8ff" d="M906.44,-113.3C858.12,-106.07 774.62,-92.71 693.7,-74.72"/>
<polygon fill="#63b8ff" stroke="#63b8ff" points="694.82,-71.38 684.3,-72.6 693.29,-78.21 694.82,-71.38"/>
</a>
</g>
</g>
<!-- Node22&#45;&gt;Node17 -->
<g id="edge29_Node000022_Node000017" class="edge">
<title>Node22&#45;&gt;Node17</title>
<g id="a_edge29_Node000022_Node000017"><a xlink:title=" ">
<path fill="none" stroke="#63b8ff" d="M917.95,-110.05C892.15,-101.69 853.51,-88.48 820.88,-74.5 803.47,-67.05 800.83,-61.27 782.88,-55.25 713.18,-31.89 628.13,-19.97 577.91,-14.53"/>
<polygon fill="#63b8ff" stroke="#63b8ff" points="578.35,-11.06 568.04,-13.51 577.62,-18.02 578.35,-11.06"/>
</a>
</g>
</g>
<!-- Node22&#45;&gt;Node18 -->
<g id="edge33_Node000022_Node000018" class="edge">
<title>Node22&#45;&gt;Node18</title>
<g id="a_edge33_Node000022_Node000018"><a xlink:title=" ">
<path fill="none" stroke="#63b8ff" d="M906.74,-110.04C867.85,-101.19 807.25,-87.23 754.88,-74.5 754.21,-74.34 753.54,-74.17 752.86,-74.01"/>
<polygon fill="#63b8ff" stroke="#63b8ff" points="753.73,-70.62 743.19,-71.6 752.04,-77.41 753.73,-70.62"/>
</a>
</g>
</g>
<!-- Node23 -->
<g id="Node000023" class="node">
<title>Node23</title>
<g id="a_Node000023"><a xlink:title=" ">
<polygon fill="#e0e0e0" stroke="#999999" points="865.75,-19.25 810,-19.25 810,0 865.75,0 865.75,-19.25"/>
<text text-anchor="middle" x="837.88" y="-5.75" font-family="Helvetica,sans-Serif" font-size="10.00">algorithm</text>
</a>
</g>
</g>
<!-- Node22&#45;&gt;Node23 -->
<g id="edge22_Node000022_Node000023" class="edge">
<title>Node22&#45;&gt;Node23</title>
<g id="a_edge22_Node000022_Node000023"><a xlink:title=" ">
<path fill="none" stroke="#63b8ff" d="M941.05,-110.28C932.32,-97.38 914.95,-73.03 896.88,-55.25 885.97,-44.52 872.44,-34.12 861.09,-26.06"/>
<polygon fill="#63b8ff" stroke="#63b8ff" points="863.25,-23.3 853.04,-20.49 859.27,-29.06 863.25,-23.3"/>
</a>
</g>
</g>
<!-- Node24 -->
<g id="Node000024" class="node">
<title>Node24</title>
<g id="a_Node000024"><a xlink:title=" ">
<polygon fill="#e0e0e0" stroke="#999999" points="990.25,-19.25 955.5,-19.25 955.5,0 990.25,0 990.25,-19.25"/>
<text text-anchor="middle" x="972.88" y="-5.75" font-family="Helvetica,sans-Serif" font-size="10.00">map</text>
</a>
</g>
</g>
<!-- Node22&#45;&gt;Node24 -->
<g id="edge24_Node000022_Node000024" class="edge">
<title>Node22&#45;&gt;Node24</title>
<g id="a_edge24_Node000022_Node000024"><a xlink:title=" ">
<path fill="none" stroke="#63b8ff" d="M967.98,-110.03C982.1,-102.69 999.56,-90.88 1007.88,-74.5 1016.06,-58.38 1004.18,-40.33 992.1,-27.55"/>
<polygon fill="#63b8ff" stroke="#63b8ff" points="994.64,-25.14 985.03,-20.68 989.76,-30.16 994.64,-25.14"/>
</a>
</g>
</g>
<!-- Node25 -->
<g id="Node000025" class="node">
<title>Node25</title>
<g id="a_Node000025"><a xlink:title=" ">
<polygon fill="#e0e0e0" stroke="#999999" points="1059.5,-19.25 1008.25,-19.25 1008.25,0 1059.5,0 1059.5,-19.25"/>
<text text-anchor="middle" x="1033.88" y="-5.75" font-family="Helvetica,sans-Serif" font-size="10.00">sstream</text>
</a>
</g>
</g>
<!-- Node22&#45;&gt;Node25 -->
<g id="edge25_Node000022_Node000025" class="edge">
<title>Node22&#45;&gt;Node25</title>
<g id="a_edge25_Node000022_Node000025"><a xlink:title=" ">
<path fill="none" stroke="#63b8ff" d="M973.88,-110.03C990.63,-102.97 1011.12,-91.49 1022.88,-74.5 1031.7,-61.74 1034.21,-44.19 1034.65,-30.71"/>
<polygon fill="#63b8ff" stroke="#63b8ff" points="1038.15,-30.82 1034.58,-20.84 1031.15,-30.87 1038.15,-30.82"/>
</a>
</g>
</g>
<!-- Node26 -->
<g id="Node000026" class="node">
<title>Node26</title>
<g id="a_Node000026"><a xlink:title=" ">
<polygon fill="#e0e0e0" stroke="#999999" points="678.88,-19.25 638.88,-19.25 638.88,0 678.88,0 678.88,-19.25"/>
<text text-anchor="middle" x="658.88" y="-5.75" font-family="Helvetica,sans-Serif" font-size="10.00">string</text>
</a>
</g>
</g>
<!-- Node22&#45;&gt;Node26 -->
<g id="edge26_Node000022_Node000026" class="edge">
<title>Node22&#45;&gt;Node26</title>
<g id="a_edge26_Node000022_Node000026"><a xlink:title=" ">
<path fill="none" stroke="#63b8ff" d="M929.15,-110.13C894.52,-92.57 821.22,-55.39 820.88,-55.25 776.77,-38.19 723.57,-24.85 690.47,-17.35"/>
<polygon fill="#63b8ff" stroke="#63b8ff" points="691.24,-13.93 680.72,-15.18 689.73,-20.77 691.24,-13.93"/>
</a>
</g>
</g>
<!-- Node27 -->
<g id="Node000027" class="node">
<title>Node27</title>
<g id="a_Node000027"><a xlink:title=" ">
<polygon fill="#e0e0e0" stroke="#999999" points="1130.62,-19.25 1077.12,-19.25 1077.12,0 1130.62,0 1130.62,-19.25"/>
<text text-anchor="middle" x="1103.88" y="-5.75" font-family="Helvetica,sans-Serif" font-size="10.00">Rtypes.h</text>
</a>
</g>
</g>
<!-- Node22&#45;&gt;Node27 -->
<g id="edge27_Node000022_Node000027" class="edge">
<title>Node22&#45;&gt;Node27</title>
<g id="a_edge27_Node000022_Node000027"><a xlink:title=" ">
<path fill="none" stroke="#63b8ff" d="M971.71,-110.11C991.45,-102.31 1019.23,-89.88 1040.88,-74.5 1059.65,-61.16 1077.76,-41.92 1089.7,-28.04"/>
<polygon fill="#63b8ff" stroke="#63b8ff" points="1092.2,-30.51 1095.95,-20.6 1086.84,-26.01 1092.2,-30.51"/>
</a>
</g>
</g>
<!-- Node28 -->
<g id="Node000028" class="node">
<title>Node28</title>
<g id="a_Node000028"><a xlink:title=" ">
<polygon fill="#e0e0e0" stroke="#999999" points="1214.62,-19.25 1149.12,-19.25 1149.12,0 1214.62,0 1214.62,-19.25"/>
<text text-anchor="middle" x="1181.88" y="-5.75" font-family="Helvetica,sans-Serif" font-size="10.00">TBrowser.h</text>
</a>
</g>
</g>
<!-- Node22&#45;&gt;Node28 -->
<g id="edge28_Node000022_Node000028" class="edge">
<title>Node22&#45;&gt;Node28</title>
<g id="a_edge28_Node000022_Node000028"><a xlink:title=" ">
<path fill="none" stroke="#63b8ff" d="M974.27,-110.12C998.69,-101.79 1035.2,-88.61 1065.88,-74.5 1098.48,-59.51 1134.45,-39.05 1157.56,-25.37"/>
<polygon fill="#63b8ff" stroke="#63b8ff" points="1159.12,-28.51 1165.92,-20.38 1155.54,-22.5 1159.12,-28.51"/>
</a>
</g>
</g>
<!-- Node29 -->
<g id="Node000029" class="node">
<title>Node29</title>
<g id="a_Node000029"><a xlink:title=" ">
<polygon fill="#e0e0e0" stroke="#999999" points="792,-19.25 749.75,-19.25 749.75,0 792,0 792,-19.25"/>
<text text-anchor="middle" x="770.88" y="-5.75" font-family="Helvetica,sans-Serif" font-size="10.00">TH2.h</text>
</a>
</g>
</g>
<!-- Node22&#45;&gt;Node29 -->
<g id="edge31_Node000022_Node000029" class="edge">
<title>Node22&#45;&gt;Node29</title>
<g id="a_edge31_Node000022_Node000029"><a xlink:title=" ">
<path fill="none" stroke="#63b8ff" d="M935.61,-110.05C919.24,-97.08 887.71,-72.87 858.88,-55.25 840.23,-43.86 818.33,-32.74 801.03,-24.45"/>
<polygon fill="#63b8ff" stroke="#63b8ff" points="802.84,-21.43 792.3,-20.33 799.85,-27.76 802.84,-21.43"/>
</a>
</g>
</g>
<!-- Node30 -->
<g id="Node000030" class="node">
<title>Node30</title>
<g id="a_Node000030"><a xlink:title=" ">
<polygon fill="#e0e0e0" stroke="#999999" points="1293.38,-19.25 1232.38,-19.25 1232.38,0 1293.38,0 1293.38,-19.25"/>
<text text-anchor="middle" x="1262.88" y="-5.75" font-family="Helvetica,sans-Serif" font-size="10.00">TNamed.h</text>
</a>
</g>
</g>
<!-- Node22&#45;&gt;Node30 -->
<g id="edge32_Node000022_Node000030" class="edge">
<title>Node22&#45;&gt;Node30</title>
<g id="a_edge32_Node000022_Node000030"><a xlink:title=" ">
<path fill="none" stroke="#63b8ff" d="M980.41,-110.07C1011.17,-101.55 1057.9,-88.12 1097.88,-74.5 1144.64,-58.57 1197.76,-37.45 1230.8,-23.94"/>
<polygon fill="#63b8ff" stroke="#63b8ff" points="1231.88,-27.28 1239.8,-20.25 1229.22,-20.81 1231.88,-27.28"/>
</a>
</g>
</g>
<!-- Node31 -->
<g id="Node000031" class="node">
<title>Node31</title>
<g id="a_Node000031"><a xlink:href="../../dd/d50/_gate_8hh.html" target="_top" xlink:title=" ">
<polygon fill="white" stroke="#666666" points="998.75,-74.5 949,-74.5 949,-55.25 998.75,-55.25 998.75,-74.5"/>
<text text-anchor="middle" x="973.88" y="-61" font-family="Helvetica,sans-Serif" font-size="10.00">Gate.hh</text>
</a>
</g>
</g>
<!-- Node22&#45;&gt;Node31 -->
<g id="edge35_Node000022_Node000031" class="edge">
<title>Node22&#45;&gt;Node31</title>
<g id="a_edge35_Node000022_Node000031"><a xlink:title=" ">
<path fill="none" stroke="#63b8ff" d="M951.33,-110.33C954.83,-103.44 959.82,-93.59 964.22,-84.91"/>
<polygon fill="#63b8ff" stroke="#63b8ff" points="967.23,-86.71 968.64,-76.21 960.99,-83.55 967.23,-86.71"/>
</a>
</g>
</g>
<!-- Node31&#45;&gt;Node2 -->
<g id="edge40_Node000031_Node000002" class="edge">
<title>Node31&#45;&gt;Node2</title>
<g id="a_edge40_Node000031_Node000002"><a xlink:title=" ">
<path fill="none" stroke="#63b8ff" d="M963.19,-54.84C954.17,-47.22 941.04,-36.12 930.19,-26.95"/>
<polygon fill="#63b8ff" stroke="#63b8ff" points="932.46,-24.28 922.56,-20.5 927.94,-29.63 932.46,-24.28"/>
</a>
</g>
</g>
<!-- Node31&#45;&gt;Node5 -->
<g id="edge44_Node000031_Node000005" class="edge">
<title>Node31&#45;&gt;Node5</title>
<g id="a_edge44_Node000031_Node000005"><a xlink:title=" ">
<path fill="none" stroke="#63b8ff" d="M948.68,-61.72C850.6,-53.34 494.27,-22.88 383.78,-13.44"/>
<polygon fill="#63b8ff" stroke="#63b8ff" points="384.18,-9.96 373.92,-12.59 383.59,-16.93 384.18,-9.96"/>
</a>
</g>
</g>
<!-- Node31&#45;&gt;Node17 -->
<g id="edge43_Node000031_Node000017" class="edge">
<title>Node31&#45;&gt;Node17</title>
<g id="a_edge43_Node000031_Node000017"><a xlink:title=" ">
<path fill="none" stroke="#63b8ff" d="M948.7,-60.82C876.52,-52.07 668.31,-26.81 577.77,-15.83"/>
<polygon fill="#63b8ff" stroke="#63b8ff" points="578.42,-12.38 568.07,-14.65 577.57,-19.33 578.42,-12.38"/>
</a>
</g>
</g>
<!-- Node31&#45;&gt;Node23 -->
<g id="edge36_Node000031_Node000023" class="edge">
<title>Node31&#45;&gt;Node23</title>
<g id="a_edge36_Node000031_Node000023"><a xlink:title=" ">
<path fill="none" stroke="#63b8ff" d="M950.8,-54.84C929.12,-46.35 896.39,-33.54 871.75,-23.89"/>
<polygon fill="#63b8ff" stroke="#63b8ff" points="873.06,-20.64 862.47,-20.25 870.5,-27.16 873.06,-20.64"/>
</a>
</g>
</g>
<!-- Node31&#45;&gt;Node24 -->
<g id="edge37_Node000031_Node000024" class="edge">
<title>Node31&#45;&gt;Node24</title>
<g id="a_edge37_Node000031_Node000024"><a xlink:title=" ">
<path fill="none" stroke="#63b8ff" d="M973.71,-55.08C973.59,-48.57 973.42,-39.42 973.26,-31.12"/>
<polygon fill="#63b8ff" stroke="#63b8ff" points="976.76,-31.05 973.07,-21.12 969.76,-31.19 976.76,-31.05"/>
</a>
</g>
</g>
<!-- Node31&#45;&gt;Node25 -->
<g id="edge38_Node000031_Node000025" class="edge">
<title>Node31&#45;&gt;Node25</title>
<g id="a_edge38_Node000031_Node000025"><a xlink:title=" ">
<path fill="none" stroke="#63b8ff" d="M984.05,-54.84C992.64,-47.22 1005.14,-36.12 1015.48,-26.95"/>
<polygon fill="#63b8ff" stroke="#63b8ff" points="1017.56,-29.79 1022.72,-20.53 1012.91,-24.55 1017.56,-29.79"/>
</a>
</g>
</g>
<!-- Node31&#45;&gt;Node26 -->
<g id="edge39_Node000031_Node000026" class="edge">
<title>Node31&#45;&gt;Node26</title>
<g id="a_edge39_Node000031_Node000026"><a xlink:title=" ">
<path fill="none" stroke="#63b8ff" d="M948.63,-59.61C891.57,-49.96 752.8,-26.5 690.3,-15.94"/>
<polygon fill="#63b8ff" stroke="#63b8ff" points="691.15,-12.53 680.7,-14.31 689.98,-19.43 691.15,-12.53"/>
</a>
</g>
</g>
<!-- Node31&#45;&gt;Node27 -->
<g id="edge41_Node000031_Node000027" class="edge">
<title>Node31&#45;&gt;Node27</title>
<g id="a_edge41_Node000031_Node000027"><a xlink:title=" ">
<path fill="none" stroke="#63b8ff" d="M995.93,-54.84C1016.56,-46.39 1047.66,-33.65 1071.18,-24.02"/>
<polygon fill="#63b8ff" stroke="#63b8ff" points="1072.39,-27.31 1080.31,-20.28 1069.73,-20.83 1072.39,-27.31"/>
</a>
</g>
</g>
<!-- Node31&#45;&gt;Node28 -->
<g id="edge42_Node000031_Node000028" class="edge">
<title>Node31&#45;&gt;Node28</title>
<g id="a_edge42_Node000031_Node000028"><a xlink:title=" ">
<path fill="none" stroke="#63b8ff" d="M998.96,-57.45C1033.31,-48.66 1095.51,-32.74 1137.74,-21.92"/>
<polygon fill="#63b8ff" stroke="#63b8ff" points="1138.53,-25.34 1147.35,-19.46 1136.79,-18.55 1138.53,-25.34"/>
</a>
</g>
</g>
<!-- Node31&#45;&gt;Node29 -->
<g id="edge45_Node000031_Node000029" class="edge">
<title>Node31&#45;&gt;Node29</title>
<g id="a_edge45_Node000031_Node000029"><a xlink:title=" ">
<path fill="none" stroke="#63b8ff" d="M948.6,-57.59C916.9,-49.65 860.6,-35.39 803.52,-19.92"/>
<polygon fill="#63b8ff" stroke="#63b8ff" points="804.51,-16.56 793.95,-17.31 802.67,-23.32 804.51,-16.56"/>
</a>
</g>
</g>
<!-- Node31&#45;&gt;Node30 -->
<g id="edge46_Node000031_Node000030" class="edge">
<title>Node31&#45;&gt;Node30</title>
<g id="a_edge46_Node000031_Node000030"><a xlink:title=" ">
<path fill="none" stroke="#63b8ff" d="M999.13,-59.72C1042.47,-52.51 1134.03,-36.96 1221.1,-19.74"/>
<polygon fill="#63b8ff" stroke="#63b8ff" points="1221.63,-23.2 1230.76,-17.82 1220.27,-16.34 1221.63,-23.2"/>
</a>
</g>
</g>
<!-- Node32&#45;&gt;Node2 -->
<g id="edge49_Node000032_Node000002" class="edge">
<title>Node32&#45;&gt;Node2</title>
<g id="a_edge49_Node000032_Node000002"><a xlink:title=" ">
<path fill="none" stroke="#63b8ff" d="M549.32,-110.18C569.89,-94.27 612.61,-62.08 629.88,-55.25 728.93,-16.1 764.51,-38.53 872.75,-19.43"/>
<polygon fill="#63b8ff" stroke="#63b8ff" points="873.12,-22.92 882.32,-17.66 871.85,-16.04 873.12,-22.92"/>
</a>
</g>
</g>
<!-- Node32&#45;&gt;Node15 -->
<g id="edge48_Node000032_Node000015" class="edge">
<title>Node32&#45;&gt;Node15</title>
<g id="a_edge48_Node000032_Node000015"><a xlink:title=" ">
<path fill="none" stroke="#63b8ff" d="M558.74,-110.09C578.18,-101.68 607.42,-89.02 629.64,-79.4"/>
<polygon fill="#63b8ff" stroke="#63b8ff" points="630.73,-82.74 638.52,-75.55 627.95,-76.31 630.73,-82.74"/>
</a>
</g>
</g>
<!-- Node32&#45;&gt;Node16 -->
<g id="edge52_Node000032_Node000016" class="edge">
<title>Node32&#45;&gt;Node16</title>
<g id="a_edge52_Node000032_Node000016"><a xlink:title=" ">
<path fill="none" stroke="#63b8ff" d="M526.34,-110.09C516.41,-102.32 501.86,-90.92 490.02,-81.65"/>
<polygon fill="#63b8ff" stroke="#63b8ff" points="492.46,-79.12 482.43,-75.71 488.15,-84.63 492.46,-79.12"/>
</a>
</g>
</g>
<!-- Node32&#45;&gt;Node17 -->
<g id="edge53_Node000032_Node000017" class="edge">
<title>Node32&#45;&gt;Node17</title>
<g id="a_edge53_Node000032_Node000017"><a xlink:title=" ">
<path fill="none" stroke="#63b8ff" d="M537.63,-110.25C537.15,-93 536.09,-54.58 535.43,-30.81"/>
<polygon fill="#63b8ff" stroke="#63b8ff" points="538.94,-31.04 535.17,-21.14 531.94,-31.23 538.94,-31.04"/>
</a>
</g>
</g>
<!-- Node32&#45;&gt;Node18 -->
<g id="edge54_Node000032_Node000018" class="edge">
<title>Node32&#45;&gt;Node18</title>
<g id="a_edge54_Node000032_Node000018"><a xlink:title=" ">
<path fill="none" stroke="#63b8ff" d="M568.92,-110.09C602.54,-100.31 655.88,-84.79 689.6,-74.98"/>
<polygon fill="#63b8ff" stroke="#63b8ff" points="690.14,-78.46 698.77,-72.31 688.19,-71.74 690.14,-78.46"/>
</a>
</g>
</g>
<!-- Node32&#45;&gt;Node20 -->
<g id="edge55_Node000032_Node000020" class="edge">
<title>Node32&#45;&gt;Node20</title>
<g id="a_edge55_Node000032_Node000020"><a xlink:title=" ">
<path fill="none" stroke="#63b8ff" d="M497.97,-110.56C459.15,-102.2 398.21,-88.97 336.98,-75.18"/>
<polygon fill="#63b8ff" stroke="#63b8ff" points="337.95,-71.81 327.43,-73.03 336.41,-78.64 337.95,-71.81"/>
</a>
</g>
</g>
<!-- Node32&#45;&gt;Node21 -->
<g id="edge56_Node000032_Node000021" class="edge">
<title>Node32&#45;&gt;Node21</title>
<g id="a_edge56_Node000032_Node000021"><a xlink:title=" ">
<path fill="none" stroke="#63b8ff" d="M510.9,-110.09C484.98,-101.41 445.56,-88.21 416.54,-78.49"/>
<polygon fill="#63b8ff" stroke="#63b8ff" points="418.01,-75.29 407.41,-75.43 415.79,-81.93 418.01,-75.29"/>
</a>
</g>
</g>
<!-- Node32&#45;&gt;Node26 -->
<g id="edge50_Node000032_Node000026" class="edge">
<title>Node32&#45;&gt;Node26</title>
<g id="a_edge50_Node000032_Node000026"><a xlink:title=" ">
<path fill="none" stroke="#63b8ff" d="M545.01,-110.34C555.62,-97.52 576.53,-73.26 596.88,-55.25 608.9,-44.61 623.42,-34.05 635.39,-25.87"/>
<polygon fill="#63b8ff" stroke="#63b8ff" points="637.11,-28.94 643.47,-20.46 633.21,-23.12 637.11,-28.94"/>
</a>
</g>
</g>
<!-- Node33 -->
<g id="Node000033" class="node">
<title>Node33</title>
<g id="a_Node000033"><a xlink:title=" ">
<polygon fill="#e0e0e0" stroke="#999999" points="125.38,-19.25 76.38,-19.25 76.38,0 125.38,0 125.38,-19.25"/>
<text text-anchor="middle" x="100.88" y="-5.75" font-family="Helvetica,sans-Serif" font-size="10.00">fstream</text>
</a>
</g>
</g>
<!-- Node32&#45;&gt;Node33 -->
<g id="edge51_Node000032_Node000033" class="edge">
<title>Node32&#45;&gt;Node33</title>
<g id="a_edge51_Node000032_Node000033"><a xlink:title=" ">
<path fill="none" stroke="#63b8ff" d="M497.89,-117.32C399.16,-112.51 149.69,-98.14 120.88,-74.5 108.09,-64.01 103.34,-45.45 101.64,-31.02"/>
<polygon fill="#63b8ff" stroke="#63b8ff" points="105.14,-30.95 100.92,-21.23 98.16,-31.46 105.14,-30.95"/>
</a>
</g>
</g>
<!-- Node34&#45;&gt;Node5 -->
<g id="edge63_Node000034_Node000005" class="edge">
<title>Node34&#45;&gt;Node5</title>
<g id="a_edge63_Node000034_Node000005"><a xlink:title=" ">
<path fill="none" stroke="#63b8ff" d="M201.41,-54.84C233.89,-45.23 285.07,-30.09 318.31,-20.26"/>
<polygon fill="#63b8ff" stroke="#63b8ff" points="319.21,-23.64 327.8,-17.45 317.22,-16.93 319.21,-23.64"/>
</a>
</g>
</g>
<!-- Node34&#45;&gt;Node17 -->
<g id="edge62_Node000034_Node000017" class="edge">
<title>Node34&#45;&gt;Node17</title>
<g id="a_edge62_Node000034_Node000017"><a xlink:title=" ">
<path fill="none" stroke="#63b8ff" d="M212.61,-57.28C217.09,-56.58 221.57,-55.9 225.88,-55.25 320.84,-40.95 432.38,-25.07 492.05,-16.64"/>
<polygon fill="#63b8ff" stroke="#63b8ff" points="492.36,-20.13 501.77,-15.27 491.38,-13.2 492.36,-20.13"/>
</a>
</g>
</g>
<!-- Node34&#45;&gt;Node19 -->
<g id="edge65_Node000034_Node000019" class="edge">
<title>Node34&#45;&gt;Node19</title>
<g id="a_edge65_Node000034_Node000019"><a xlink:title=" ">
<path fill="none" stroke="#63b8ff" d="M146.62,-54.84C123.61,-46.27 88.78,-33.31 62.79,-23.63"/>
<polygon fill="#63b8ff" stroke="#63b8ff" points="64.26,-20.44 53.67,-20.23 61.82,-27 64.26,-20.44"/>
</a>
</g>
</g>
<!-- Node34&#45;&gt;Node26 -->
<g id="edge59_Node000034_Node000026" class="edge">
<title>Node34&#45;&gt;Node26</title>
<g id="a_edge59_Node000034_Node000026"><a xlink:title=" ">
<path fill="none" stroke="#63b8ff" d="M212.48,-59.33C308.14,-48.9 542.04,-23.37 627.2,-14.08"/>
<polygon fill="#63b8ff" stroke="#63b8ff" points="627.36,-17.58 636.92,-13.02 626.6,-10.63 627.36,-17.58"/>
</a>
</g>
</g>
<!-- Node34&#45;&gt;Node29 -->
<g id="edge64_Node000034_Node000029" class="edge">
<title>Node34&#45;&gt;Node29</title>
<g id="a_edge64_Node000034_Node000029"><a xlink:title=" ">
<path fill="none" stroke="#63b8ff" d="M212.49,-59.68C227.15,-58.23 243.74,-56.63 258.88,-55.25 449.43,-37.92 497.38,-37.14 687.88,-19.25 704.54,-17.68 723.07,-15.78 738.39,-14.15"/>
<polygon fill="#63b8ff" stroke="#63b8ff" points="738.31,-17.68 747.89,-13.14 737.57,-10.72 738.31,-17.68"/>
</a>
</g>
</g>
<!-- Node34&#45;&gt;Node33 -->
<g id="edge60_Node000034_Node000033" class="edge">
<title>Node34&#45;&gt;Node33</title>
<g id="a_edge60_Node000034_Node000033"><a xlink:title=" ">
<path fill="none" stroke="#63b8ff" d="M159,-54.84C148.78,-47.07 133.8,-35.67 121.61,-26.4"/>
<polygon fill="#63b8ff" stroke="#63b8ff" points="123.86,-23.71 113.78,-20.44 119.62,-29.28 123.86,-23.71"/>
</a>
</g>
</g>
<!-- Node35 -->
<g id="Node000035" class="node">
<title>Node35</title>
<g id="a_Node000035"><a xlink:title=" ">
<polygon fill="#e0e0e0" stroke="#999999" points="196.88,-19.25 144.88,-19.25 144.88,0 196.88,0 196.88,-19.25"/>
<text text-anchor="middle" x="170.88" y="-5.75" font-family="Helvetica,sans-Serif" font-size="10.00">complex</text>
</a>
</g>
</g>
<!-- Node34&#45;&gt;Node35 -->
<g id="edge61_Node000034_Node000035" class="edge">
<title>Node34&#45;&gt;Node35</title>
<g id="a_edge61_Node000034_Node000035"><a xlink:title=" ">
<path fill="none" stroke="#63b8ff" d="M170.88,-55.08C170.88,-48.57 170.88,-39.42 170.88,-31.12"/>
<polygon fill="#63b8ff" stroke="#63b8ff" points="174.38,-31.12 170.88,-21.12 167.38,-31.12 174.38,-31.12"/>
</a>
</g>
</g>
</g>
</svg>
