<?xml version="1.0" encoding="UTF-8" standalone="no"?>
<!DOCTYPE svg PUBLIC "-//W3C//DTD SVG 1.1//EN"
 "http://www.w3.org/Graphics/SVG/1.1/DTD/svg11.dtd">
<!-- Generated by graphviz version 12.0.0 (20240704.0754)
 -->
<!-- Title: GamR::TK::StepGaussianPeak Pages: 1 -->
<svg width="151pt" height="887pt"
 viewBox="0.00 0.00 151.00 887.00" xmlns="http://www.w3.org/2000/svg" xmlns:xlink="http://www.w3.org/1999/xlink">
<g id="graph0" class="graph" transform="scale(1 1) rotate(0) translate(4 883)">
<title>GamR::TK::StepGaussianPeak</title>
<!-- Node1 -->
<g id="Node000001" class="node">
<title>Node1</title>
<g id="a_Node000001"><a xlink:title=" ">
<polygon fill="#999999" stroke="none" points="143,-349 0,-349 0,0 143,0 143,-349"/>
<text text-anchor="start" x="4.75" y="-335.5" font-family="Helvetica,sans-Serif" font-size="10.00">GamR::TK::StepGaussianPeak</text>
<text text-anchor="start" x="70" y="-320.5" font-family="Helvetica,sans-Serif" font-size="10.00"> </text>
<text text-anchor="start" x="11.5" y="-305.5" font-family="Helvetica,sans-Serif" font-size="10.00">+</text>
<text text-anchor="start" x="29" y="-305.5" font-family="Helvetica,sans-Serif" font-size="10.00">StepGaussianPeak()</text>
<text text-anchor="start" x="11.5" y="-290.5" font-family="Helvetica,sans-Serif" font-size="10.00">+</text>
<text text-anchor="start" x="29" y="-290.5" font-family="Helvetica,sans-Serif" font-size="10.00">StepGaussianPeak()</text>
<text text-anchor="start" x="11.5" y="-275.5" font-family="Helvetica,sans-Serif" font-size="10.00">+</text>
<text text-anchor="start" x="29" y="-275.5" font-family="Helvetica,sans-Serif" font-size="10.00">~StepGaussianPeak()</text>
<text text-anchor="start" x="11.5" y="-260.5" font-family="Helvetica,sans-Serif" font-size="10.00">+</text>
<text text-anchor="start" x="29" y="-260.5" font-family="Helvetica,sans-Serif" font-size="10.00">GetArea()</text>
<text text-anchor="start" x="11.5" y="-245.5" font-family="Helvetica,sans-Serif" font-size="10.00">+</text>
<text text-anchor="start" x="29" y="-245.5" font-family="Helvetica,sans-Serif" font-size="10.00">GetAreaError()</text>
<text text-anchor="start" x="11.5" y="-230.5" font-family="Helvetica,sans-Serif" font-size="10.00">+</text>
<text text-anchor="start" x="29" y="-230.5" font-family="Helvetica,sans-Serif" font-size="10.00">GetAmp()</text>
<text text-anchor="start" x="11.5" y="-215.5" font-family="Helvetica,sans-Serif" font-size="10.00">+</text>
<text text-anchor="start" x="29" y="-215.5" font-family="Helvetica,sans-Serif" font-size="10.00">GetAmpError()</text>
<text text-anchor="start" x="11.5" y="-200.5" font-family="Helvetica,sans-Serif" font-size="10.00">+</text>
<text text-anchor="start" x="29" y="-200.5" font-family="Helvetica,sans-Serif" font-size="10.00">GetCent()</text>
<text text-anchor="start" x="11.5" y="-185.5" font-family="Helvetica,sans-Serif" font-size="10.00">+</text>
<text text-anchor="start" x="29" y="-185.5" font-family="Helvetica,sans-Serif" font-size="10.00">GetCentError()</text>
<text text-anchor="start" x="11.5" y="-170.5" font-family="Helvetica,sans-Serif" font-size="10.00">+</text>
<text text-anchor="start" x="29" y="-170.5" font-family="Helvetica,sans-Serif" font-size="10.00">GetWidth()</text>
<text text-anchor="start" x="11.5" y="-155.5" font-family="Helvetica,sans-Serif" font-size="10.00">+</text>
<text text-anchor="start" x="29" y="-155.5" font-family="Helvetica,sans-Serif" font-size="10.00">GetWidthError()</text>
<text text-anchor="start" x="11.5" y="-140.5" font-family="Helvetica,sans-Serif" font-size="10.00">+</text>
<text text-anchor="start" x="29" y="-140.5" font-family="Helvetica,sans-Serif" font-size="10.00">SetParameters()</text>
<text text-anchor="start" x="11.5" y="-125.5" font-family="Helvetica,sans-Serif" font-size="10.00">+</text>
<text text-anchor="start" x="29" y="-125.5" font-family="Helvetica,sans-Serif" font-size="10.00">SetParErrors()</text>
<text text-anchor="start" x="11.5" y="-110.5" font-family="Helvetica,sans-Serif" font-size="10.00">+</text>
<text text-anchor="start" x="29" y="-110.5" font-family="Helvetica,sans-Serif" font-size="10.00">SetAmp()</text>
<text text-anchor="start" x="11.5" y="-95.5" font-family="Helvetica,sans-Serif" font-size="10.00">+</text>
<text text-anchor="start" x="29" y="-95.5" font-family="Helvetica,sans-Serif" font-size="10.00">SetAmpError()</text>
<text text-anchor="start" x="11.5" y="-80.5" font-family="Helvetica,sans-Serif" font-size="10.00">+</text>
<text text-anchor="start" x="29" y="-80.5" font-family="Helvetica,sans-Serif" font-size="10.00">SetCent()</text>
<text text-anchor="start" x="11.5" y="-65.5" font-family="Helvetica,sans-Serif" font-size="10.00">+</text>
<text text-anchor="start" x="29" y="-65.5" font-family="Helvetica,sans-Serif" font-size="10.00">SetCentError()</text>
<text text-anchor="start" x="11.5" y="-50.5" font-family="Helvetica,sans-Serif" font-size="10.00">+</text>
<text text-anchor="start" x="29" y="-50.5" font-family="Helvetica,sans-Serif" font-size="10.00">SetWidth()</text>
<text text-anchor="start" x="11.5" y="-35.5" font-family="Helvetica,sans-Serif" font-size="10.00">+</text>
<text text-anchor="start" x="29" y="-35.5" font-family="Helvetica,sans-Serif" font-size="10.00">SetWidthError()</text>
<text text-anchor="start" x="11.5" y="-20.5" font-family="Helvetica,sans-Serif" font-size="10.00">+</text>
<text text-anchor="start" x="29" y="-20.5" font-family="Helvetica,sans-Serif" font-size="10.00">GetStepFunc()</text>
<text text-anchor="start" x="11.5" y="-5.5" font-family="Helvetica,sans-Serif" font-size="10.00">+</text>
<text text-anchor="start" x="29" y="-5.5" font-family="Helvetica,sans-Serif" font-size="10.00">GetGaussFunc()</text>
<polygon fill="#666666" stroke="#666666" points="0,-332 0,-332 143,-332 143,-332 0,-332"/>
<polygon fill="#666666" stroke="#666666" points="0,-317 0,-317 143,-317 143,-317 0,-317"/>
<polygon fill="none" stroke="#666666" points="0,0 0,-349 143,-349 143,0 0,0"/>
</a>
</g>
</g>
<!-- Node2 -->
<g id="Node000002" class="node">
<title>Node2</title>
<g id="a_Node000002"><a xlink:href="../../da/d4a/class_gam_r_1_1_t_k_1_1_f_peak.html" target="_top" xlink:title=" ">
<polygon fill="white" stroke="none" points="116.5,-599 26.5,-599 26.5,-385 116.5,-385 116.5,-599"/>
<text text-anchor="start" x="32.5" y="-585.5" font-family="Helvetica,sans-Serif" font-size="10.00">GamR::TK::FPeak</text>
<text text-anchor="start" x="30.88" y="-570.5" font-family="Helvetica,sans-Serif" font-size="10.00">#</text>
<text text-anchor="start" x="40.5" y="-570.5" font-family="Helvetica,sans-Serif" font-size="10.00">fPeakFunc</text>
<text text-anchor="start" x="30.88" y="-555.5" font-family="Helvetica,sans-Serif" font-size="10.00">#</text>
<text text-anchor="start" x="40.5" y="-555.5" font-family="Helvetica,sans-Serif" font-size="10.00">fLow</text>
<text text-anchor="start" x="30.88" y="-540.5" font-family="Helvetica,sans-Serif" font-size="10.00">#</text>
<text text-anchor="start" x="40.5" y="-540.5" font-family="Helvetica,sans-Serif" font-size="10.00">fHigh</text>
<text text-anchor="start" x="30.88" y="-525.5" font-family="Helvetica,sans-Serif" font-size="10.00">#</text>
<text text-anchor="start" x="40.5" y="-525.5" font-family="Helvetica,sans-Serif" font-size="10.00">fPeakType</text>
<text text-anchor="start" x="30.5" y="-510.5" font-family="Helvetica,sans-Serif" font-size="10.00">+</text>
<text text-anchor="start" x="40.5" y="-510.5" font-family="Helvetica,sans-Serif" font-size="10.00">FPeak()</text>
<text text-anchor="start" x="30.5" y="-495.5" font-family="Helvetica,sans-Serif" font-size="10.00">+</text>
<text text-anchor="start" x="40.5" y="-495.5" font-family="Helvetica,sans-Serif" font-size="10.00">FPeak()</text>
<text text-anchor="start" x="30.5" y="-480.5" font-family="Helvetica,sans-Serif" font-size="10.00">+</text>
<text text-anchor="start" x="40.5" y="-480.5" font-family="Helvetica,sans-Serif" font-size="10.00">~FPeak()</text>
<text text-anchor="start" x="30.5" y="-465.5" font-family="Helvetica,sans-Serif" font-size="10.00">+</text>
<text text-anchor="start" x="40.5" y="-465.5" font-family="Helvetica,sans-Serif" font-size="10.00">GetFunc()</text>
<text text-anchor="start" x="30.5" y="-450.5" font-family="Helvetica,sans-Serif" font-size="10.00">+</text>
<text text-anchor="start" x="40.5" y="-450.5" font-family="Helvetica,sans-Serif" font-size="10.00">GetPeakType()</text>
<text text-anchor="start" x="30.5" y="-435.5" font-family="Helvetica,sans-Serif" font-size="10.00">+</text>
<text text-anchor="start" x="40.5" y="-435.5" font-family="Helvetica,sans-Serif" font-size="10.00">GetStepFunc()</text>
<text text-anchor="start" x="30.5" y="-420.5" font-family="Helvetica,sans-Serif" font-size="10.00">+</text>
<text text-anchor="start" x="40.5" y="-420.5" font-family="Helvetica,sans-Serif" font-size="10.00">GetGaussFunc()</text>
<text text-anchor="start" x="30.5" y="-405.5" font-family="Helvetica,sans-Serif" font-size="10.00">+</text>
<text text-anchor="start" x="40.5" y="-405.5" font-family="Helvetica,sans-Serif" font-size="10.00">SetParameters()</text>
<text text-anchor="start" x="30.5" y="-390.5" font-family="Helvetica,sans-Serif" font-size="10.00">+</text>
<text text-anchor="start" x="40.5" y="-390.5" font-family="Helvetica,sans-Serif" font-size="10.00">SetParErrors()</text>
<polygon fill="#666666" stroke="#666666" points="26.5,-582 26.5,-582 116.5,-582 116.5,-582 26.5,-582"/>
<polygon fill="#666666" stroke="#666666" points="26.5,-522 26.5,-522 38.5,-522 38.5,-522 26.5,-522"/>
<polygon fill="#666666" stroke="#666666" points="38.5,-522 38.5,-522 116.5,-522 116.5,-522 38.5,-522"/>
<polygon fill="none" stroke="#666666" points="26.5,-385 26.5,-599 116.5,-599 116.5,-385 26.5,-385"/>
</a>
</g>
</g>
<!-- Node2&#45;&gt;Node1 -->
<g id="edge1_Node000001_Node000002" class="edge">
<title>Node2&#45;&gt;Node1</title>
<g id="a_edge1_Node000001_Node000002"><a xlink:title=" ">
<path fill="none" stroke="#63b8ff" d="M71.5,-373.68C71.5,-365.54 71.5,-357.25 71.5,-348.9"/>
<polygon fill="none" stroke="#63b8ff" points="68,-373.55 71.5,-383.55 75,-373.55 68,-373.55"/>
</a>
</g>
</g>
<!-- Node3 -->
<g id="Node000003" class="node">
<title>Node3</title>
<g id="a_Node000003"><a xlink:href="../../d3/d75/class_gam_r_1_1_t_k_1_1_peak.html" target="_top" xlink:title=" ">
<polygon fill="white" stroke="none" points="113.5,-879 29.5,-879 29.5,-635 113.5,-635 113.5,-879"/>
<text text-anchor="start" x="35.5" y="-865.5" font-family="Helvetica,sans-Serif" font-size="10.00">GamR::TK::Peak</text>
<text text-anchor="start" x="70" y="-850.5" font-family="Helvetica,sans-Serif" font-size="10.00"> </text>
<text text-anchor="start" x="33.5" y="-835.5" font-family="Helvetica,sans-Serif" font-size="10.00">+</text>
<text text-anchor="start" x="43.5" y="-835.5" font-family="Helvetica,sans-Serif" font-size="10.00">GetArea()</text>
<text text-anchor="start" x="33.5" y="-820.5" font-family="Helvetica,sans-Serif" font-size="10.00">+</text>
<text text-anchor="start" x="43.5" y="-820.5" font-family="Helvetica,sans-Serif" font-size="10.00">GetAreaError()</text>
<text text-anchor="start" x="33.5" y="-805.5" font-family="Helvetica,sans-Serif" font-size="10.00">+</text>
<text text-anchor="start" x="43.5" y="-805.5" font-family="Helvetica,sans-Serif" font-size="10.00">GetAmp()</text>
<text text-anchor="start" x="33.5" y="-790.5" font-family="Helvetica,sans-Serif" font-size="10.00">+</text>
<text text-anchor="start" x="43.5" y="-790.5" font-family="Helvetica,sans-Serif" font-size="10.00">GetAmpError()</text>
<text text-anchor="start" x="33.5" y="-775.5" font-family="Helvetica,sans-Serif" font-size="10.00">+</text>
<text text-anchor="start" x="43.5" y="-775.5" font-family="Helvetica,sans-Serif" font-size="10.00">GetCent()</text>
<text text-anchor="start" x="33.5" y="-760.5" font-family="Helvetica,sans-Serif" font-size="10.00">+</text>
<text text-anchor="start" x="43.5" y="-760.5" font-family="Helvetica,sans-Serif" font-size="10.00">GetCentError()</text>
<text text-anchor="start" x="33.5" y="-745.5" font-family="Helvetica,sans-Serif" font-size="10.00">+</text>
<text text-anchor="start" x="43.5" y="-745.5" font-family="Helvetica,sans-Serif" font-size="10.00">GetWidth()</text>
<text text-anchor="start" x="33.5" y="-730.5" font-family="Helvetica,sans-Serif" font-size="10.00">+</text>
<text text-anchor="start" x="43.5" y="-730.5" font-family="Helvetica,sans-Serif" font-size="10.00">GetWidthError()</text>
<text text-anchor="start" x="33.5" y="-715.5" font-family="Helvetica,sans-Serif" font-size="10.00">+</text>
<text text-anchor="start" x="43.5" y="-715.5" font-family="Helvetica,sans-Serif" font-size="10.00">SetAmp()</text>
<text text-anchor="start" x="33.5" y="-700.5" font-family="Helvetica,sans-Serif" font-size="10.00">+</text>
<text text-anchor="start" x="43.5" y="-700.5" font-family="Helvetica,sans-Serif" font-size="10.00">SetAmpError()</text>
<text text-anchor="start" x="33.5" y="-685.5" font-family="Helvetica,sans-Serif" font-size="10.00">+</text>
<text text-anchor="start" x="43.5" y="-685.5" font-family="Helvetica,sans-Serif" font-size="10.00">SetCent()</text>
<text text-anchor="start" x="33.5" y="-670.5" font-family="Helvetica,sans-Serif" font-size="10.00">+</text>
<text text-anchor="start" x="43.5" y="-670.5" font-family="Helvetica,sans-Serif" font-size="10.00">SetCentError()</text>
<text text-anchor="start" x="33.5" y="-655.5" font-family="Helvetica,sans-Serif" font-size="10.00">+</text>
<text text-anchor="start" x="43.5" y="-655.5" font-family="Helvetica,sans-Serif" font-size="10.00">SetWidth()</text>
<text text-anchor="start" x="33.5" y="-640.5" font-family="Helvetica,sans-Serif" font-size="10.00">+</text>
<text text-anchor="start" x="43.5" y="-640.5" font-family="Helvetica,sans-Serif" font-size="10.00">SetWidthError()</text>
<polygon fill="#666666" stroke="#666666" points="29.5,-862 29.5,-862 113.5,-862 113.5,-862 29.5,-862"/>
<polygon fill="#666666" stroke="#666666" points="29.5,-847 29.5,-847 113.5,-847 113.5,-847 29.5,-847"/>
<polygon fill="none" stroke="#666666" points="29.5,-635 29.5,-879 113.5,-879 113.5,-635 29.5,-635"/>
</a>
</g>
</g>
<!-- Node3&#45;&gt;Node2 -->
<g id="edge2_Node000002_Node000003" class="edge">
<title>Node3&#45;&gt;Node2</title>
<g id="a_edge2_Node000002_Node000003"><a xlink:title=" ">
<path fill="none" stroke="#63b8ff" d="M71.5,-623.86C71.5,-615.48 71.5,-607.1 71.5,-598.86"/>
<polygon fill="none" stroke="#63b8ff" points="68,-623.76 71.5,-633.76 75,-623.76 68,-623.76"/>
</a>
</g>
</g>
</g>
</svg>
