<?xml version="1.0" encoding="UTF-8" standalone="no"?>
<!DOCTYPE svg PUBLIC "-//W3C//DTD SVG 1.1//EN"
 "http://www.w3.org/Graphics/SVG/1.1/DTD/svg11.dtd">
<!-- Generated by graphviz version 9.0.0 (20230911.1827)
 -->
<!-- Title: src/lib/bateman/Nucleus.hh Pages: 1 -->
<svg width="385pt" height="193pt"
 viewBox="0.00 0.00 385.38 193.00" xmlns="http://www.w3.org/2000/svg" xmlns:xlink="http://www.w3.org/1999/xlink">
<g id="graph0" class="graph" transform="scale(1 1) rotate(0) translate(4 189)">
<title>src/lib/bateman/Nucleus.hh</title>
<!-- Node1 -->
<g id="Node000001" class="node">
<title>Node1</title>
<g id="a_Node000001"><a xlink:title=" ">
<polygon fill="#999999" stroke="#666666" points="276.5,-185 142,-185 142,-165.75 276.5,-165.75 276.5,-185"/>
<text text-anchor="middle" x="209.25" y="-171.5" font-family="Helvetica,sans-Serif" font-size="10.00">src/lib/bateman/Nucleus.hh</text>
</a>
</g>
</g>
<!-- Node2 -->
<g id="Node000002" class="node">
<title>Node2</title>
<g id="a_Node000002"><a xlink:href="../../d4/d7b/_nucleus_8cc.html" target="_top" xlink:title=" ">
<polygon fill="white" stroke="#666666" points="134.5,-129.75 0,-129.75 0,-110.5 134.5,-110.5 134.5,-129.75"/>
<text text-anchor="middle" x="67.25" y="-116.25" font-family="Helvetica,sans-Serif" font-size="10.00">src/lib/bateman/Nucleus.cc</text>
</a>
</g>
</g>
<!-- Node1&#45;&gt;Node2 -->
<g id="edge1_Node000001_Node000002" class="edge">
<title>Node1&#45;&gt;Node2</title>
<g id="a_edge1_Node000001_Node000002"><a xlink:title=" ">
<path fill="none" stroke="#63b8ff" d="M174.71,-161.42C148.93,-151.75 114.34,-138.79 91.46,-130.2"/>
<polygon fill="#63b8ff" stroke="#63b8ff" points="173.15,-164.58 183.74,-164.81 175.61,-158.02 173.15,-164.58"/>
</a>
</g>
</g>
<!-- Node3 -->
<g id="Node000003" class="node">
<title>Node3</title>
<g id="a_Node000003"><a xlink:href="../../d2/dc7/_scheme_8hh.html" target="_top" xlink:title=" ">
<polygon fill="white" stroke="#666666" points="324.5,-129.75 190,-129.75 190,-110.5 324.5,-110.5 324.5,-129.75"/>
<text text-anchor="middle" x="257.25" y="-116.25" font-family="Helvetica,sans-Serif" font-size="10.00">src/lib/bateman/Scheme.hh</text>
</a>
</g>
</g>
<!-- Node1&#45;&gt;Node3 -->
<g id="edge2_Node000001_Node000003" class="edge">
<title>Node1&#45;&gt;Node3</title>
<g id="a_edge2_Node000001_Node000003"><a xlink:title=" ">
<path fill="none" stroke="#63b8ff" d="M224.65,-157.29C232.8,-148.25 242.47,-137.52 249.15,-130.11"/>
<polygon fill="#63b8ff" stroke="#63b8ff" points="222.29,-154.69 218.19,-164.46 227.48,-159.37 222.29,-154.69"/>
</a>
</g>
</g>
<!-- Node5 -->
<g id="Node000005" class="node">
<title>Node5</title>
<g id="a_Node000005"><a xlink:href="../../d2/de3/_solver_8cc.html" target="_top" xlink:title=" ">
<polygon fill="white" stroke="#666666" points="377.38,-19.25 251.12,-19.25 251.12,0 377.38,0 377.38,-19.25"/>
<text text-anchor="middle" x="314.25" y="-5.75" font-family="Helvetica,sans-Serif" font-size="10.00">src/lib/bateman/Solver.cc</text>
</a>
</g>
</g>
<!-- Node1&#45;&gt;Node5 -->
<g id="edge8_Node000001_Node000005" class="edge">
<title>Node1&#45;&gt;Node5</title>
<g id="a_edge8_Node000001_Node000005"><a xlink:title=" ">
<path fill="none" stroke="#63b8ff" d="M287.77,-162.01C305.54,-155.39 322.36,-145.25 333.25,-129.75 357.58,-95.14 331.68,-40.98 319.68,-19.67"/>
<polygon fill="#63b8ff" stroke="#63b8ff" points="286.76,-158.66 278.37,-165.14 288.97,-165.31 286.76,-158.66"/>
</a>
</g>
</g>
<!-- Node6 -->
<g id="Node000006" class="node">
<title>Node6</title>
<g id="a_Node000006"><a xlink:href="../../db/d8d/_solver_8hh.html" target="_top" xlink:title=" ">
<polygon fill="white" stroke="#666666" points="229.38,-74.5 103.12,-74.5 103.12,-55.25 229.38,-55.25 229.38,-74.5"/>
<text text-anchor="middle" x="166.25" y="-61" font-family="Helvetica,sans-Serif" font-size="10.00">src/lib/bateman/Solver.hh</text>
</a>
</g>
</g>
<!-- Node1&#45;&gt;Node6 -->
<g id="edge9_Node000001_Node000006" class="edge">
<title>Node1&#45;&gt;Node6</title>
<g id="a_edge9_Node000001_Node000006"><a xlink:title=" ">
<path fill="none" stroke="#63b8ff" d="M195.7,-155.85C190.56,-148.1 185.03,-138.8 181.25,-129.75 173.44,-111.04 169.24,-87.47 167.4,-74.84"/>
<polygon fill="#63b8ff" stroke="#63b8ff" points="192.83,-157.85 201.42,-164.05 198.57,-153.85 192.83,-157.85"/>
</a>
</g>
</g>
<!-- Node4 -->
<g id="Node000004" class="node">
<title>Node4</title>
<g id="a_Node000004"><a xlink:href="../../dc/d62/_scheme_8cc.html" target="_top" xlink:title=" ">
<polygon fill="white" stroke="#666666" points="233.5,-19.25 99,-19.25 99,0 233.5,0 233.5,-19.25"/>
<text text-anchor="middle" x="166.25" y="-5.75" font-family="Helvetica,sans-Serif" font-size="10.00">src/lib/bateman/Scheme.cc</text>
</a>
</g>
</g>
<!-- Node3&#45;&gt;Node4 -->
<g id="edge3_Node000003_Node000004" class="edge">
<title>Node3&#45;&gt;Node4</title>
<g id="a_edge3_Node000003_Node000004"><a xlink:title=" ">
<path fill="none" stroke="#63b8ff" d="M255.11,-99.4C252.8,-85.85 248.04,-68.06 238.25,-55.25 225.75,-38.89 205.39,-27.08 189.5,-19.73"/>
<polygon fill="#63b8ff" stroke="#63b8ff" points="251.58,-99.46 256.41,-108.89 258.52,-98.51 251.58,-99.46"/>
</a>
</g>
</g>
<!-- Node3&#45;&gt;Node5 -->
<g id="edge4_Node000003_Node000005" class="edge">
<title>Node3&#45;&gt;Node5</title>
<g id="a_edge4_Node000003_Node000005"><a xlink:title=" ">
<path fill="none" stroke="#63b8ff" d="M267.26,-100.08C279.66,-76.47 300.28,-37.21 309.52,-19.63"/>
<polygon fill="#63b8ff" stroke="#63b8ff" points="264.17,-98.43 262.62,-108.91 270.37,-101.68 264.17,-98.43"/>
</a>
</g>
</g>
<!-- Node3&#45;&gt;Node6 -->
<g id="edge5_Node000003_Node000006" class="edge">
<title>Node3&#45;&gt;Node6</title>
<g id="a_edge5_Node000003_Node000006"><a xlink:title=" ">
<path fill="none" stroke="#63b8ff" d="M231.96,-104.32C215.85,-94.9 195.51,-83 181.76,-74.95"/>
<polygon fill="#63b8ff" stroke="#63b8ff" points="230.11,-107.3 240.51,-109.33 233.64,-101.26 230.11,-107.3"/>
</a>
</g>
</g>
<!-- Node6&#45;&gt;Node4 -->
<g id="edge6_Node000006_Node000004" class="edge">
<title>Node6&#45;&gt;Node4</title>
<g id="a_edge6_Node000006_Node000004"><a xlink:title=" ">
<path fill="none" stroke="#63b8ff" d="M166.25,-43.63C166.25,-35.34 166.25,-26.17 166.25,-19.61"/>
<polygon fill="#63b8ff" stroke="#63b8ff" points="162.75,-43.57 166.25,-53.57 169.75,-43.57 162.75,-43.57"/>
</a>
</g>
</g>
<!-- Node6&#45;&gt;Node5 -->
<g id="edge7_Node000006_Node000005" class="edge">
<title>Node6&#45;&gt;Node5</title>
<g id="a_edge7_Node000006_Node000005"><a xlink:title=" ">
<path fill="none" stroke="#63b8ff" d="M201.89,-51.05C228.8,-41.37 265.06,-28.32 289.02,-19.7"/>
<polygon fill="#63b8ff" stroke="#63b8ff" points="201,-47.65 192.78,-54.33 203.37,-54.24 201,-47.65"/>
</a>
</g>
</g>
</g>
</svg>
