<?xml version="1.0" encoding="UTF-8" standalone="no"?>
<!DOCTYPE svg PUBLIC "-//W3C//DTD SVG 1.1//EN"
 "http://www.w3.org/Graphics/SVG/1.1/DTD/svg11.dtd">
<!-- Generated by graphviz version 9.0.0 (20230911.1827)
 -->
<!-- Title: GamR::Tree::TDetDefn&lt; Ts &gt;::CalFunctor Pages: 1 -->
<svg width="133pt" height="561pt"
 viewBox="0.00 0.00 133.00 561.25" xmlns="http://www.w3.org/2000/svg" xmlns:xlink="http://www.w3.org/1999/xlink">
<g id="graph0" class="graph" transform="scale(1 1) rotate(0) translate(4 557.25)">
<title>GamR::Tree::TDetDefn&lt; Ts &gt;::CalFunctor</title>
<!-- Node1 -->
<g id="Node000001" class="node">
<title>Node1</title>
<g id="a_Node000001"><a xlink:title=" ">
<polygon fill="#999999" stroke="none" points="116,-150 9,-150 9,0 116,0 116,-150"/>
<text text-anchor="start" x="13.75" y="-136.5" font-family="Helvetica,sans-Serif" font-size="10.00">GamR::Tree::TDetDefn</text>
<text text-anchor="start" x="22.75" y="-125.25" font-family="Helvetica,sans-Serif" font-size="10.00">&lt; Ts &gt;::CalFunctor</text>
<text text-anchor="start" x="22" y="-110.5" font-family="Helvetica,sans-Serif" font-size="10.00">+</text>
<text text-anchor="start" x="41" y="-110.5" font-family="Helvetica,sans-Serif" font-size="10.00">CalFuncN</text>
<text text-anchor="start" x="22" y="-95.5" font-family="Helvetica,sans-Serif" font-size="10.00">+</text>
<text text-anchor="start" x="41" y="-95.5" font-family="Helvetica,sans-Serif" font-size="10.00">CalParN</text>
<text text-anchor="start" x="22" y="-80.5" font-family="Helvetica,sans-Serif" font-size="10.00">+</text>
<text text-anchor="start" x="41" y="-80.5" font-family="Helvetica,sans-Serif" font-size="10.00">dRand1</text>
<text text-anchor="start" x="22" y="-65.5" font-family="Helvetica,sans-Serif" font-size="10.00">+</text>
<text text-anchor="start" x="41" y="-65.5" font-family="Helvetica,sans-Serif" font-size="10.00">dRand2</text>
<text text-anchor="start" x="22" y="-50.5" font-family="Helvetica,sans-Serif" font-size="10.00">+</text>
<text text-anchor="start" x="41" y="-50.5" font-family="Helvetica,sans-Serif" font-size="10.00">dStdDev</text>
<text text-anchor="start" x="22" y="-35.5" font-family="Helvetica,sans-Serif" font-size="10.00">+</text>
<text text-anchor="start" x="41" y="-35.5" font-family="Helvetica,sans-Serif" font-size="10.00">dMean</text>
<text text-anchor="start" x="22" y="-20.5" font-family="Helvetica,sans-Serif" font-size="10.00">+</text>
<text text-anchor="start" x="41" y="-20.5" font-family="Helvetica,sans-Serif" font-size="10.00">CalFunctor()</text>
<text text-anchor="start" x="22" y="-5.5" font-family="Helvetica,sans-Serif" font-size="10.00">+</text>
<text text-anchor="start" x="41" y="-5.5" font-family="Helvetica,sans-Serif" font-size="10.00">operator()()</text>
<polygon fill="#666666" stroke="#666666" points="9,-122 9,-122 116,-122 116,-122 9,-122"/>
<polygon fill="#666666" stroke="#666666" points="9,-32 9,-32 39,-32 39,-32 9,-32"/>
<polygon fill="#666666" stroke="#666666" points="39,-32 39,-32 116,-32 116,-32 39,-32"/>
<polygon fill="none" stroke="#666666" points="9,0 9,-150 116,-150 116,0 9,0"/>
</a>
</g>
</g>
<!-- Node2 -->
<g id="Node000002" class="node">
<title>Node2</title>
<g id="a_Node000002"><a xlink:href="../../d4/d79/class_gam_r_1_1_tree_1_1_t_det_defn.html" target="_top" xlink:title=" ">
<polygon fill="white" stroke="none" points="125,-467.25 0,-467.25 0,-197.25 125,-197.25 125,-467.25"/>
<text text-anchor="start" x="13.75" y="-453.75" font-family="Helvetica,sans-Serif" font-size="10.00">GamR::Tree::TDetDefn</text>
<text text-anchor="start" x="48.62" y="-442.5" font-family="Helvetica,sans-Serif" font-size="10.00">&lt; Ts &gt;</text>
<text text-anchor="start" x="61" y="-427.75" font-family="Helvetica,sans-Serif" font-size="10.00"> </text>
<text text-anchor="start" x="4" y="-412.75" font-family="Helvetica,sans-Serif" font-size="10.00">+</text>
<text text-anchor="start" x="14" y="-412.75" font-family="Helvetica,sans-Serif" font-size="10.00">TDetDefn()</text>
<text text-anchor="start" x="4" y="-397.75" font-family="Helvetica,sans-Serif" font-size="10.00">+</text>
<text text-anchor="start" x="14" y="-397.75" font-family="Helvetica,sans-Serif" font-size="10.00">~TDetDefn()</text>
<text text-anchor="start" x="4" y="-382.75" font-family="Helvetica,sans-Serif" font-size="10.00">+</text>
<text text-anchor="start" x="14" y="-382.75" font-family="Helvetica,sans-Serif" font-size="10.00">GetDatum()</text>
<text text-anchor="start" x="4" y="-367.75" font-family="Helvetica,sans-Serif" font-size="10.00">+</text>
<text text-anchor="start" x="14" y="-367.75" font-family="Helvetica,sans-Serif" font-size="10.00">GetAllDatums()</text>
<text text-anchor="start" x="4" y="-352.75" font-family="Helvetica,sans-Serif" font-size="10.00">+</text>
<text text-anchor="start" x="14" y="-352.75" font-family="Helvetica,sans-Serif" font-size="10.00">GetNumMeasurements()</text>
<text text-anchor="start" x="4" y="-337.75" font-family="Helvetica,sans-Serif" font-size="10.00">+</text>
<text text-anchor="start" x="14" y="-337.75" font-family="Helvetica,sans-Serif" font-size="10.00">GetID()</text>
<text text-anchor="start" x="4" y="-322.75" font-family="Helvetica,sans-Serif" font-size="10.00">+</text>
<text text-anchor="start" x="14" y="-322.75" font-family="Helvetica,sans-Serif" font-size="10.00">GetEfficiency()</text>
<text text-anchor="start" x="4" y="-307.75" font-family="Helvetica,sans-Serif" font-size="10.00">+</text>
<text text-anchor="start" x="14" y="-307.75" font-family="Helvetica,sans-Serif" font-size="10.00">IsGood()</text>
<text text-anchor="start" x="4" y="-292.75" font-family="Helvetica,sans-Serif" font-size="10.00">+</text>
<text text-anchor="start" x="14" y="-292.75" font-family="Helvetica,sans-Serif" font-size="10.00">SetPtrs()</text>
<text text-anchor="start" x="4" y="-277.75" font-family="Helvetica,sans-Serif" font-size="10.00">+</text>
<text text-anchor="start" x="14" y="-277.75" font-family="Helvetica,sans-Serif" font-size="10.00">SetRequired()</text>
<text text-anchor="start" x="4" y="-262.75" font-family="Helvetica,sans-Serif" font-size="10.00">+</text>
<text text-anchor="start" x="14" y="-262.75" font-family="Helvetica,sans-Serif" font-size="10.00">SetCalFuncs()</text>
<text text-anchor="start" x="4" y="-247.75" font-family="Helvetica,sans-Serif" font-size="10.00">+</text>
<text text-anchor="start" x="14" y="-247.75" font-family="Helvetica,sans-Serif" font-size="10.00">SetPollGates()</text>
<text text-anchor="start" x="4" y="-232.75" font-family="Helvetica,sans-Serif" font-size="10.00">+</text>
<text text-anchor="start" x="14" y="-232.75" font-family="Helvetica,sans-Serif" font-size="10.00">SetEffFunc()</text>
<text text-anchor="start" x="4" y="-217.75" font-family="Helvetica,sans-Serif" font-size="10.00">+</text>
<text text-anchor="start" x="14" y="-217.75" font-family="Helvetica,sans-Serif" font-size="10.00">Calibrate()</text>
<text text-anchor="start" x="4" y="-202.75" font-family="Helvetica,sans-Serif" font-size="10.00">+</text>
<text text-anchor="start" x="14" y="-202.75" font-family="Helvetica,sans-Serif" font-size="10.00">ClassDef()</text>
<polygon fill="#666666" stroke="#666666" points="0,-439.25 0,-439.25 125,-439.25 125,-439.25 0,-439.25"/>
<polygon fill="#666666" stroke="#666666" points="0,-424.25 0,-424.25 125,-424.25 125,-424.25 0,-424.25"/>
<polygon fill="none" stroke="#666666" points="0,-197.25 0,-467.25 125,-467.25 125,-197.25 0,-197.25"/>
</a>
</g>
</g>
<!-- Node2&#45;&gt;Node1 -->
<g id="edge1_Node000001_Node000002" class="edge">
<title>Node2&#45;&gt;Node1</title>
<g id="a_edge1_Node000001_Node000002"><a xlink:title=" ">
<path fill="none" stroke="#63b8ff" d="M62.5,-197.27C62.5,-185.59 62.5,-173.98 62.5,-162.84"/>
<polygon fill="none" stroke="#63b8ff" points="62.5,-162.9 58.5,-156.9 62.5,-150.9 66.5,-156.9 62.5,-162.9"/>
</a>
</g>
<text text-anchor="middle" x="69.25" y="-169.75" font-family="Helvetica,sans-Serif" font-size="10.00" fill="grey"> +p</text>
</g>
<!-- Node3 -->
<g id="Node000003" class="node">
<title>Node3</title>
<g id="a_Node000003"><a xlink:title=" ">
<polygon fill="white" stroke="none" points="84.5,-553.25 40.5,-553.25 40.5,-504.25 84.5,-504.25 84.5,-553.25"/>
<text text-anchor="start" x="45.25" y="-539.75" font-family="Helvetica,sans-Serif" font-size="10.00">TObject</text>
<text text-anchor="start" x="61" y="-524.75" font-family="Helvetica,sans-Serif" font-size="10.00"> </text>
<text text-anchor="start" x="61" y="-509.75" font-family="Helvetica,sans-Serif" font-size="10.00"> </text>
<polygon fill="#666666" stroke="#666666" points="40.5,-536.25 40.5,-536.25 84.5,-536.25 84.5,-536.25 40.5,-536.25"/>
<polygon fill="#666666" stroke="#666666" points="40.5,-521.25 40.5,-521.25 84.5,-521.25 84.5,-521.25 40.5,-521.25"/>
<polygon fill="none" stroke="#666666" points="40.5,-504.25 40.5,-553.25 84.5,-553.25 84.5,-504.25 40.5,-504.25"/>
</a>
</g>
</g>
<!-- Node3&#45;&gt;Node2 -->
<g id="edge2_Node000002_Node000003" class="edge">
<title>Node3&#45;&gt;Node2</title>
<g id="a_edge2_Node000002_Node000003"><a xlink:title=" ">
<path fill="none" stroke="#63b8ff" d="M62.5,-492.89C62.5,-485.12 62.5,-476.43 62.5,-467.22"/>
<polygon fill="none" stroke="#63b8ff" points="59,-492.78 62.5,-502.78 66,-492.78 59,-492.78"/>
</a>
</g>
</g>
</g>
</svg>
