<?xml version="1.0" encoding="UTF-8" standalone="no"?>
<!DOCTYPE svg PUBLIC "-//W3C//DTD SVG 1.1//EN"
 "http://www.w3.org/Graphics/SVG/1.1/DTD/svg11.dtd">
<!-- Generated by graphviz version 6.0.2 (20221011.1828)
 -->
<!-- Title: src/lib/viewer/Viewer.cc Pages: 1 -->
<svg width="128pt" height="137pt"
 viewBox="0.00 0.00 128.00 137.00" xmlns="http://www.w3.org/2000/svg" xmlns:xlink="http://www.w3.org/1999/xlink">
<g id="graph0" class="graph" transform="scale(1 1) rotate(0) translate(4 133)">
<title>src/lib/viewer/Viewer.cc</title>
<!-- Node1 -->
<g id="node1" class="node">
<title>Node1</title>
<g id="a_node1"><a xlink:title=" ">
<polygon fill="#999999" stroke="#666666" points="120,-129 0,-129 0,-110 120,-110 120,-129"/>
<text text-anchor="middle" x="60" y="-117" font-family="Helvetica,sans-Serif" font-size="10.00">src/lib/viewer/Viewer.cc</text>
</a>
</g>
</g>
<!-- Node2 -->
<g id="node2" class="node">
<title>Node2</title>
<g id="a_node2"><a xlink:href="../../d0/d78/_viewer_8hh.html" target="_top" xlink:title=" ">
<polygon fill="white" stroke="#666666" points="89.5,-74 30.5,-74 30.5,-55 89.5,-55 89.5,-74"/>
<text text-anchor="middle" x="60" y="-62" font-family="Helvetica,sans-Serif" font-size="10.00">Viewer.hh</text>
</a>
</g>
</g>
<!-- Node1&#45;&gt;Node2 -->
<g id="edge1" class="edge">
<title>Node1&#45;&gt;Node2</title>
<path fill="none" stroke="#63b8ff" d="M60,-109.75C60,-102.8 60,-92.85 60,-84.13"/>
<polygon fill="#63b8ff" stroke="#63b8ff" points="63.5,-84.09 60,-74.09 56.5,-84.09 63.5,-84.09"/>
</g>
<!-- Node3 -->
<g id="node3" class="node">
<title>Node3</title>
<g id="a_node3"><a xlink:title=" ">
<polygon fill="#e0e0e0" stroke="#999999" points="94,-19 26,-19 26,0 94,0 94,-19"/>
<text text-anchor="middle" x="60" y="-7" font-family="Helvetica,sans-Serif" font-size="10.00">tree/Tree.hh</text>
</a>
</g>
</g>
<!-- Node2&#45;&gt;Node3 -->
<g id="edge2" class="edge">
<title>Node2&#45;&gt;Node3</title>
<path fill="none" stroke="#63b8ff" d="M60,-54.75C60,-47.8 60,-37.85 60,-29.13"/>
<polygon fill="#63b8ff" stroke="#63b8ff" points="63.5,-29.09 60,-19.09 56.5,-29.09 63.5,-29.09"/>
</g>
</g>
</svg>
