<?xml version="1.0" encoding="UTF-8" standalone="no"?>
<!DOCTYPE svg PUBLIC "-//W3C//DTD SVG 1.1//EN"
 "http://www.w3.org/Graphics/SVG/1.1/DTD/svg11.dtd">
<!-- Generated by graphviz version 12.2.1 (20241206.2353)
 -->
<!-- Title: GamR::Sort::Type::CoincidenceCubeDiff&lt; DetX, DetY, X, Y, Z &gt; Pages: 1 -->
<svg width="153pt" height="84pt"
 viewBox="0.00 0.00 153.25 84.25" xmlns="http://www.w3.org/2000/svg" xmlns:xlink="http://www.w3.org/1999/xlink">
<g id="graph0" class="graph" transform="scale(1 1) rotate(0) translate(4 80.25)">
<title>GamR::Sort::Type::CoincidenceCubeDiff&lt; DetX, DetY, X, Y, Z &gt;</title>
<!-- Node1 -->
<g id="Node000001" class="node">
<title>Node1</title>
<g id="a_Node000001"><a xlink:title=" ">
<polygon fill="#999999" stroke="none" points="145.25,-76.25 0,-76.25 0,0 145.25,0 145.25,-76.25"/>
<text text-anchor="start" x="4" y="-62.75" font-family="Helvetica,sans-Serif" font-size="10.00">GamR::Sort::Type::Coincidence</text>
<text text-anchor="start" x="4" y="-51.5" font-family="Helvetica,sans-Serif" font-size="10.00">CubeDiff&lt; DetX, DetY, X, Y, Z &gt;</text>
<text text-anchor="start" x="71.12" y="-36.25" font-family="Helvetica,sans-Serif" font-size="10.00"> </text>
<text text-anchor="start" x="11.81" y="-21" font-family="Helvetica,sans-Serif" font-size="10.00">+</text>
<text text-anchor="start" x="29.62" y="-21" font-family="Helvetica,sans-Serif" font-size="10.00">CoincidenceCubeDiff()</text>
<text text-anchor="start" x="11.81" y="-5.75" font-family="Helvetica,sans-Serif" font-size="10.00">+</text>
<text text-anchor="start" x="29.62" y="-5.75" font-family="Helvetica,sans-Serif" font-size="10.00">operator()()</text>
<polygon fill="#666666" stroke="#666666" points="0,-47.75 0,-47.75 145.25,-47.75 145.25,-47.75 0,-47.75"/>
<polygon fill="#666666" stroke="#666666" points="0,-32.5 0,-32.5 145.25,-32.5 145.25,-32.5 0,-32.5"/>
<polygon fill="none" stroke="#666666" points="0,0 0,-76.25 145.25,-76.25 145.25,0 0,0"/>
</a>
</g>
</g>
</g>
</svg>
