<?xml version="1.0" encoding="UTF-8" standalone="no"?>
<!DOCTYPE svg PUBLIC "-//W3C//DTD SVG 1.1//EN"
 "http://www.w3.org/Graphics/SVG/1.1/DTD/svg11.dtd">
<!-- Generated by graphviz version 5.0.0 (20220708.1001)
 -->
<!-- Title: GamR::Coulex::CoulexCalculation::SetBeam Pages: 1 -->
<svg width="299pt" height="57pt"
 viewBox="0.00 0.00 299.00 57.00" xmlns="http://www.w3.org/2000/svg" xmlns:xlink="http://www.w3.org/1999/xlink">
<g id="graph0" class="graph" transform="scale(1 1) rotate(0) translate(4 53)">
<title>GamR::Coulex::CoulexCalculation::SetBeam</title>
<polygon fill="white" stroke="transparent" points="-4,4 -4,-53 295,-53 295,4 -4,4"/>
<!-- Node1 -->
<g id="node1" class="node">
<title>Node1</title>
<g id="a_node1"><a xlink:title=" ">
<polygon fill="#bfbfbf" stroke="black" points="0,-0.5 0,-30.5 160,-30.5 160,-0.5 0,-0.5"/>
<text text-anchor="start" x="8" y="-18.5" font-family="Helvetica,sans-Serif" font-size="10.00">GamR::Coulex::CoulexCalculation</text>
<text text-anchor="middle" x="80" y="-7.5" font-family="Helvetica,sans-Serif" font-size="10.00">::SetBeam</text>
</a>
</g>
</g>
<!-- Node1&#45;&gt;Node1 -->
<g id="edge2" class="edge">
<title>Node1&#45;&gt;Node1</title>
<path fill="none" stroke="midnightblue" d="M51.77,-30.66C44.96,-40.06 54.37,-49 80,-49 95.62,-49 105.21,-45.68 108.79,-40.96"/>
<polygon fill="midnightblue" stroke="midnightblue" points="112.26,-40.46 108.23,-30.66 105.27,-40.83 112.26,-40.46"/>
</g>
<!-- Node2 -->
<g id="node2" class="node">
<title>Node2</title>
<g id="a_node2"><a xlink:href="../../d2/d80/namespace_gam_r_1_1_t_k.html#aa4ba5d5a5ab0b3c595e31d23334e4f90" target="_top" xlink:title=" ">
<polygon fill="white" stroke="black" points="196,-6 196,-25 291,-25 291,-6 196,-6"/>
<text text-anchor="middle" x="243.5" y="-13" font-family="Helvetica,sans-Serif" font-size="10.00">GamR::TK::GetZA</text>
</a>
</g>
</g>
<!-- Node1&#45;&gt;Node2 -->
<g id="edge1" class="edge">
<title>Node1&#45;&gt;Node2</title>
<path fill="none" stroke="midnightblue" d="M160.33,-15.5C168.86,-15.5 177.4,-15.5 185.59,-15.5"/>
<polygon fill="midnightblue" stroke="midnightblue" points="185.74,-19 195.74,-15.5 185.74,-12 185.74,-19"/>
</g>
</g>
</svg>
