<?xml version="1.0" encoding="UTF-8" standalone="no"?>
<!DOCTYPE svg PUBLIC "-//W3C//DTD SVG 1.1//EN"
 "http://www.w3.org/Graphics/SVG/1.1/DTD/svg11.dtd">
<!-- Generated by graphviz version 6.0.2 (20221011.1828)
 -->
<!-- Title: GamR::Coulex::CoulexCalculation::SetBeam Pages: 1 -->
<svg width="299pt" height="56pt"
 viewBox="0.00 0.00 299.00 56.00" xmlns="http://www.w3.org/2000/svg" xmlns:xlink="http://www.w3.org/1999/xlink">
<g id="graph0" class="graph" transform="scale(1 1) rotate(0) translate(4 52)">
<title>GamR::Coulex::CoulexCalculation::SetBeam</title>
<!-- Node1 -->
<g id="node1" class="node">
<title>Node1</title>
<g id="a_node1"><a xlink:title=" ">
<polygon fill="#999999" stroke="#666666" points="160,-30 0,-30 0,0 160,0 160,-30"/>
<text text-anchor="start" x="8" y="-18" font-family="Helvetica,sans-Serif" font-size="10.00">GamR::Coulex::CoulexCalculation</text>
<text text-anchor="middle" x="80" y="-7" font-family="Helvetica,sans-Serif" font-size="10.00">::SetBeam</text>
</a>
</g>
</g>
<!-- Node1&#45;&gt;Node1 -->
<g id="edge2" class="edge">
<title>Node1&#45;&gt;Node1</title>
<path fill="none" stroke="#63b8ff" d="M51.26,-30.28C44.87,-39.41 54.45,-48 80,-48 95.17,-48 104.71,-44.97 108.62,-40.6"/>
<polygon fill="#63b8ff" stroke="#63b8ff" points="112.12,-40.32 108.74,-30.28 105.12,-40.23 112.12,-40.32"/>
</g>
<!-- Node2 -->
<g id="node2" class="node">
<title>Node2</title>
<g id="a_node2"><a xlink:href="../../d2/d80/namespace_gam_r_1_1_t_k.html#aa4ba5d5a5ab0b3c595e31d23334e4f90" target="_top" xlink:title=" ">
<polygon fill="white" stroke="#666666" points="291,-24.5 196,-24.5 196,-5.5 291,-5.5 291,-24.5"/>
<text text-anchor="middle" x="243.5" y="-12.5" font-family="Helvetica,sans-Serif" font-size="10.00">GamR::TK::GetZA</text>
</a>
</g>
</g>
<!-- Node1&#45;&gt;Node2 -->
<g id="edge1" class="edge">
<title>Node1&#45;&gt;Node2</title>
<path fill="none" stroke="#63b8ff" d="M160.33,-15C168.86,-15 177.4,-15 185.59,-15"/>
<polygon fill="#63b8ff" stroke="#63b8ff" points="185.74,-18.5 195.74,-15 185.74,-11.5 185.74,-18.5"/>
</g>
</g>
</svg>
