<?xml version="1.0" encoding="UTF-8" standalone="no"?>
<!DOCTYPE svg PUBLIC "-//W3C//DTD SVG 1.1//EN"
 "http://www.w3.org/Graphics/SVG/1.1/DTD/svg11.dtd">
<!-- Generated by graphviz version 5.0.0 (20220708.1001)
 -->
<!-- Title: GamR::Coulex::CoulexCalculation::SetExcited Pages: 1 -->
<svg width="538pt" height="78pt"
 viewBox="0.00 0.00 538.00 77.50" xmlns="http://www.w3.org/2000/svg" xmlns:xlink="http://www.w3.org/1999/xlink">
<g id="graph0" class="graph" transform="scale(1 1) rotate(0) translate(4 73.5)">
<title>GamR::Coulex::CoulexCalculation::SetExcited</title>
<polygon fill="white" stroke="transparent" points="-4,4 -4,-73.5 534,-73.5 534,4 -4,4"/>
<!-- Node1 -->
<g id="node1" class="node">
<title>Node1</title>
<g id="a_node1"><a xlink:title=" ">
<polygon fill="#bfbfbf" stroke="black" points="370,-22.5 370,-52.5 530,-52.5 530,-22.5 370,-22.5"/>
<text text-anchor="start" x="378" y="-40.5" font-family="Helvetica,sans-Serif" font-size="10.00">GamR::Coulex::CoulexCalculation</text>
<text text-anchor="middle" x="450" y="-29.5" font-family="Helvetica,sans-Serif" font-size="10.00">::SetExcited</text>
</a>
</g>
</g>
<!-- Node2 -->
<g id="node2" class="node">
<title>Node2</title>
<g id="a_node2"><a xlink:href="../../dd/d3e/class_gam_r_1_1_coulex_1_1_coulex_calculation.html#ae8ce7427467c968c1a44f74a06ce4a30" target="_top" xlink:title=" ">
<polygon fill="white" stroke="black" points="174,-22.5 174,-52.5 334,-52.5 334,-22.5 174,-22.5"/>
<text text-anchor="start" x="182" y="-40.5" font-family="Helvetica,sans-Serif" font-size="10.00">GamR::Coulex::CoulexCalculation</text>
<text text-anchor="middle" x="254" y="-29.5" font-family="Helvetica,sans-Serif" font-size="10.00">::ExperimentalSetup</text>
</a>
</g>
</g>
<!-- Node1&#45;&gt;Node2 -->
<g id="edge1" class="edge">
<title>Node1&#45;&gt;Node2</title>
<path fill="none" stroke="midnightblue" d="M359.56,-37.5C351.12,-37.5 342.59,-37.5 334.25,-37.5"/>
<polygon fill="midnightblue" stroke="midnightblue" points="359.81,-41 369.81,-37.5 359.81,-34 359.81,-41"/>
</g>
<!-- Node3 -->
<g id="node3" class="node">
<title>Node3</title>
<g id="a_node3"><a xlink:href="../../d6/d76/namespace_gam_r_1_1_coulex.html#a41b07b0aa204c45d637b7c5a4e57d989" target="_top" xlink:title=" ">
<polygon fill="white" stroke="black" points="7,-50 7,-69 131,-69 131,-50 7,-50"/>
<text text-anchor="middle" x="69" y="-57" font-family="Helvetica,sans-Serif" font-size="10.00">GamR::Coulex::DoCoulex</text>
</a>
</g>
</g>
<!-- Node2&#45;&gt;Node3 -->
<g id="edge2" class="edge">
<title>Node2&#45;&gt;Node3</title>
<path fill="none" stroke="midnightblue" d="M163.7,-48.24C152.66,-49.56 141.59,-50.89 131.12,-52.15"/>
<polygon fill="midnightblue" stroke="midnightblue" points="164.29,-51.69 173.8,-47.02 163.45,-44.74 164.29,-51.69"/>
</g>
<!-- Node4 -->
<g id="node4" class="node">
<title>Node4</title>
<g id="a_node4"><a xlink:href="../../d6/d76/namespace_gam_r_1_1_coulex.html#a2551a0108b265de32e08ef2042a02212" target="_top" xlink:title=" ">
<polygon fill="white" stroke="black" points="0,-0.5 0,-30.5 138,-30.5 138,-0.5 0,-0.5"/>
<text text-anchor="start" x="8" y="-18.5" font-family="Helvetica,sans-Serif" font-size="10.00">GamR::Coulex::Experimental</text>
<text text-anchor="middle" x="69" y="-7.5" font-family="Helvetica,sans-Serif" font-size="10.00">Setup</text>
</a>
</g>
</g>
<!-- Node2&#45;&gt;Node4 -->
<g id="edge3" class="edge">
<title>Node2&#45;&gt;Node4</title>
<path fill="none" stroke="midnightblue" d="M163.72,-26.77C155.12,-25.73 146.48,-24.69 138.13,-23.69"/>
<polygon fill="midnightblue" stroke="midnightblue" points="163.45,-30.26 173.8,-27.98 164.29,-23.31 163.45,-30.26"/>
</g>
</g>
</svg>
