<?xml version="1.0" encoding="UTF-8" standalone="no"?>
<!DOCTYPE svg PUBLIC "-//W3C//DTD SVG 1.1//EN"
 "http://www.w3.org/Graphics/SVG/1.1/DTD/svg11.dtd">
<!-- Generated by graphviz version 9.0.0 (20230911.1827)
 -->
<!-- Title: GamR::Coulex::CoulexCalculation::SaveToFile Pages: 1 -->
<svg width="345pt" height="321pt"
 viewBox="0.00 0.00 345.25 320.50" xmlns="http://www.w3.org/2000/svg" xmlns:xlink="http://www.w3.org/1999/xlink">

<svg id="main" version="1.1" xmlns="http://www.w3.org/2000/svg" xmlns:xlink="http://www.w3.org/1999/xlink" xml:space="preserve" onload="init(evt)">
<style type="text/css"><![CDATA[
.node, .edge {opacity: 0.7;}
.node.selected, .edge.selected {opacity: 1;}
.edge:hover path { stroke: red; }
.edge:hover polygon { stroke: red; fill: red; }
]]></style>
<script type="application/ecmascript" xlink:href="../../svg.min.js"/>
<svg id="graph" class="graph">
<g id="graph0" class="graph" transform="scale(1 1) rotate(0) translate(4 316.5)">
<title>GamR::Coulex::CoulexCalculation::SaveToFile</title>
<!-- Node1 -->
<g id="Node000001" class="node">
<title>Node1</title>
<g id="a_Node000001"><a xlink:title=" ">
<polygon fill="#999999" stroke="#666666" points="159.25,-177.5 0,-177.5 0,-147 159.25,-147 159.25,-177.5"/>
<text text-anchor="start" x="8" y="-164" font-family="Helvetica,sans-Serif" font-size="10.00">GamR::Coulex::CoulexCalculation</text>
<text text-anchor="middle" x="79.62" y="-152.75" font-family="Helvetica,sans-Serif" font-size="10.00">::SaveToFile</text>
</a>
</g>
</g>
<!-- Node2 -->
<g id="Node000002" class="node">
<title>Node2</title>
<g id="a_Node000002"><a xlink:href="../../d1/d57/class_gam_r_1_1_coulex_1_1_transition.html#a85f89e555d85864ef047c7969560730a" target="_top" xlink:title=" ">
<polygon fill="white" stroke="#666666" points="328.62,-312.5 203.88,-312.5 203.88,-282 328.62,-282 328.62,-312.5"/>
<text text-anchor="start" x="211.88" y="-299" font-family="Helvetica,sans-Serif" font-size="10.00">GamR::Coulex::Transition</text>
<text text-anchor="middle" x="266.25" y="-287.75" font-family="Helvetica,sans-Serif" font-size="10.00">::GetBUp</text>
</a>
</g>
</g>
<!-- Node1&#45;&gt;Node2 -->
<g id="edge1_Node000001_Node000002" class="edge">
<title>Node1&#45;&gt;Node2</title>
<g id="a_edge1_Node000001_Node000002"><a xlink:title=" ">
<path fill="none" stroke="#63b8ff" d="M92.73,-177.72C112.03,-201.42 152.03,-246.76 195.25,-273.25 197.14,-274.41 199.09,-275.52 201.09,-276.58"/>
<polygon fill="#63b8ff" stroke="#63b8ff" points="199.5,-279.7 210.03,-280.87 202.53,-273.39 199.5,-279.7"/>
</a>
</g>
</g>
<!-- Node3 -->
<g id="Node000003" class="node">
<title>Node3</title>
<g id="a_Node000003"><a xlink:href="../../d2/d80/namespace_gam_r_1_1_t_k.html#a8e957f4effbe05201873e6d6caceeacc" target="_top" xlink:title=" ">
<polygon fill="white" stroke="#666666" points="324.5,-263.88 208,-263.88 208,-244.62 324.5,-244.62 324.5,-263.88"/>
<text text-anchor="middle" x="266.25" y="-250.38" font-family="Helvetica,sans-Serif" font-size="10.00">GamR::TK::GetElement</text>
</a>
</g>
</g>
<!-- Node1&#45;&gt;Node3 -->
<g id="edge2_Node000001_Node000003" class="edge">
<title>Node1&#45;&gt;Node3</title>
<g id="a_edge2_Node000001_Node000003"><a xlink:title=" ">
<path fill="none" stroke="#63b8ff" d="M101.09,-178C123.22,-194.36 160.07,-219.71 195.25,-235.25 199.78,-237.25 204.57,-239.09 209.43,-240.76"/>
<polygon fill="#63b8ff" stroke="#63b8ff" points="208.08,-244 218.67,-243.7 210.21,-237.33 208.08,-244"/>
</a>
</g>
</g>
<!-- Node4 -->
<g id="Node000004" class="node">
<title>Node4</title>
<g id="a_Node000004"><a xlink:href="../../db/d16/class_gam_r_1_1_coulex_1_1_level_scheme.html#a0084c39cedee838191658398fa05f16a" target="_top" xlink:title=" ">
<polygon fill="white" stroke="#666666" points="337.25,-226.5 195.25,-226.5 195.25,-196 337.25,-196 337.25,-226.5"/>
<text text-anchor="start" x="203.25" y="-213" font-family="Helvetica,sans-Serif" font-size="10.00">GamR::Coulex::LevelScheme</text>
<text text-anchor="middle" x="266.25" y="-201.75" font-family="Helvetica,sans-Serif" font-size="10.00">::GetLevelByIndex</text>
</a>
</g>
</g>
<!-- Node1&#45;&gt;Node4 -->
<g id="edge3_Node000001_Node000004" class="edge">
<title>Node1&#45;&gt;Node4</title>
<g id="a_edge3_Node000001_Node000004"><a xlink:title=" ">
<path fill="none" stroke="#63b8ff" d="M139.8,-177.96C157.44,-182.64 176.94,-187.81 195.21,-192.66"/>
<polygon fill="#63b8ff" stroke="#63b8ff" points="194.06,-195.98 204.63,-195.16 195.86,-189.21 194.06,-195.98"/>
</a>
</g>
</g>
<!-- Node5 -->
<g id="Node000005" class="node">
<title>Node5</title>
<g id="a_Node000005"><a xlink:href="../../db/d16/class_gam_r_1_1_coulex_1_1_level_scheme.html#ad1ef2663e6726c2d75a86c0c5f43f1f8" target="_top" xlink:title=" ">
<polygon fill="white" stroke="#666666" points="337.25,-177.5 195.25,-177.5 195.25,-147 337.25,-147 337.25,-177.5"/>
<text text-anchor="start" x="203.25" y="-164" font-family="Helvetica,sans-Serif" font-size="10.00">GamR::Coulex::LevelScheme</text>
<text text-anchor="middle" x="266.25" y="-152.75" font-family="Helvetica,sans-Serif" font-size="10.00">::GetNLevels</text>
</a>
</g>
</g>
<!-- Node1&#45;&gt;Node5 -->
<g id="edge4_Node000001_Node000005" class="edge">
<title>Node1&#45;&gt;Node5</title>
<g id="a_edge4_Node000001_Node000005"><a xlink:title=" ">
<path fill="none" stroke="#63b8ff" d="M159.73,-162.25C167.55,-162.25 175.51,-162.25 183.36,-162.25"/>
<polygon fill="#63b8ff" stroke="#63b8ff" points="183.25,-165.75 193.25,-162.25 183.25,-158.75 183.25,-165.75"/>
</a>
</g>
</g>
<!-- Node6 -->
<g id="Node000006" class="node">
<title>Node6</title>
<g id="a_Node000006"><a xlink:href="../../db/d16/class_gam_r_1_1_coulex_1_1_level_scheme.html#a055821f626f4d274171404aabf5dc60e" target="_top" xlink:title=" ">
<polygon fill="white" stroke="#666666" points="337.25,-128.5 195.25,-128.5 195.25,-98 337.25,-98 337.25,-128.5"/>
<text text-anchor="start" x="203.25" y="-115" font-family="Helvetica,sans-Serif" font-size="10.00">GamR::Coulex::LevelScheme</text>
<text text-anchor="middle" x="266.25" y="-103.75" font-family="Helvetica,sans-Serif" font-size="10.00">::GetNTransitions</text>
</a>
</g>
</g>
<!-- Node1&#45;&gt;Node6 -->
<g id="edge5_Node000001_Node000006" class="edge">
<title>Node1&#45;&gt;Node6</title>
<g id="a_edge5_Node000001_Node000006"><a xlink:title=" ">
<path fill="none" stroke="#63b8ff" d="M139.8,-146.54C157.44,-141.86 176.94,-136.69 195.21,-131.84"/>
<polygon fill="#63b8ff" stroke="#63b8ff" points="195.86,-135.29 204.63,-129.34 194.06,-128.52 195.86,-135.29"/>
</a>
</g>
</g>
<!-- Node7 -->
<g id="Node000007" class="node">
<title>Node7</title>
<g id="a_Node000007"><a xlink:href="../../d1/d65/class_gam_r_1_1_coulex_1_1_level.html#a5b8c0227f0d4f75f5e57c58d61b9bf4b" target="_top" xlink:title=" ">
<polygon fill="white" stroke="#666666" points="319.25,-79.5 213.25,-79.5 213.25,-49 319.25,-49 319.25,-79.5"/>
<text text-anchor="start" x="221.25" y="-66" font-family="Helvetica,sans-Serif" font-size="10.00">GamR::Coulex::Level</text>
<text text-anchor="middle" x="266.25" y="-54.75" font-family="Helvetica,sans-Serif" font-size="10.00">::PrintSP</text>
</a>
</g>
</g>
<!-- Node1&#45;&gt;Node7 -->
<g id="edge6_Node000001_Node000007" class="edge">
<title>Node1&#45;&gt;Node7</title>
<g id="a_edge6_Node000001_Node000007"><a xlink:title=" ">
<path fill="none" stroke="#63b8ff" d="M101.75,-146.75C124.14,-130.82 160.92,-106.05 195.25,-89.25 198.78,-87.52 202.45,-85.86 206.19,-84.26"/>
<polygon fill="#63b8ff" stroke="#63b8ff" points="207.49,-87.51 215.44,-80.5 204.86,-81.02 207.49,-87.51"/>
</a>
</g>
</g>
<!-- Node8 -->
<g id="Node000008" class="node">
<title>Node8</title>
<g id="a_Node000008"><a xlink:href="../../db/d16/class_gam_r_1_1_coulex_1_1_level_scheme.html#a807279006620a7c5d147431f72ed5be6" target="_top" xlink:title=" ">
<polygon fill="white" stroke="#666666" points="337.25,-30.5 195.25,-30.5 195.25,0 337.25,0 337.25,-30.5"/>
<text text-anchor="start" x="203.25" y="-17" font-family="Helvetica,sans-Serif" font-size="10.00">GamR::Coulex::LevelScheme</text>
<text text-anchor="middle" x="266.25" y="-5.75" font-family="Helvetica,sans-Serif" font-size="10.00">::SetIndices</text>
</a>
</g>
</g>
<!-- Node1&#45;&gt;Node8 -->
<g id="edge7_Node000001_Node000008" class="edge">
<title>Node1&#45;&gt;Node8</title>
<g id="a_edge7_Node000001_Node000008"><a xlink:title=" ">
<path fill="none" stroke="#63b8ff" d="M91.51,-146.52C110.01,-120.85 150.03,-69.86 195.25,-40.25 197.61,-38.7 200.08,-37.24 202.62,-35.85"/>
<polygon fill="#63b8ff" stroke="#63b8ff" points="203.92,-39.12 211.35,-31.56 200.83,-32.84 203.92,-39.12"/>
</a>
</g>
</g>
</g>
</svg>
</svg>

<style type='text/css'>
<![CDATA[
[data-mouse-over-selected='false'] { opacity: 0.7; }
[data-mouse-over-selected='true']  { opacity: 1.0; }
]]>
</style>
<script type="application/ecmascript"><![CDATA[
document.addEventListener('DOMContentLoaded', (event) => {
  highlightEdges();
  highlightAdjacentNodes();
});
]]></script>
</svg>
