<?xml version="1.0" encoding="UTF-8" standalone="no"?>
<!DOCTYPE svg PUBLIC "-//W3C//DTD SVG 1.1//EN"
 "http://www.w3.org/Graphics/SVG/1.1/DTD/svg11.dtd">
<!-- Generated by graphviz version 12.0.0 (20240704.0754)
 -->
<!-- Title: GamR::Coulex::CoulexCalculation::SetLevelScheme Pages: 1 -->
<!--zoomable 445 -->

<svg id="main" version="1.1" xmlns="http://www.w3.org/2000/svg" xmlns:xlink="http://www.w3.org/1999/xlink" xml:space="preserve" onload="init(evt)">
<style type="text/css"><![CDATA[
.node, .edge {opacity: 0.7;}
.node.selected, .edge.selected {opacity: 1;}
.edge:hover path { stroke: red; }
.edge:hover polygon { stroke: red; fill: red; }
]]></style>

<defs>
  <circle id="rim" cx="0" cy="0" r="7"/>
  <circle id="rim2" cx="0" cy="0" r="3.5"/>
  <g id="zoomPlus">
    <use xlink:href="#rim" fill="#404040"><set attributeName="fill" to="#808080" begin="zoomplus.mouseover" end="zoomplus.mouseout"/></use>
    <path d="M-4,0h8M0,-4v8" fill="none" stroke="white" stroke-width="1.5" pointer-events="none"/>
  </g>
  <g id="zoomMin">
    <use xlink:href="#rim" fill="#404040"><set attributeName="fill" to="#808080" begin="zoomminus.mouseover" end="zoomminus.mouseout"/></use>
    <path d="M-4,0h8" fill="none" stroke="white" stroke-width="1.5" pointer-events="none"/>
  </g>
  <g id="arrowUp" transform="translate(30 24)">
    <use xlink:href="#rim"/>
    <path pointer-events="none" fill="none" stroke="white" stroke-width="1.5" d="M0,-3.0v7 M-2.5,-0.5L0,-3.0L2.5,-0.5"/>
  </g>
  <g id="arrowRight" transform="rotate(90) translate(36 -43)">
    <use xlink:href="#rim"/>
    <path pointer-events="none" fill="none" stroke="white" stroke-width="1.5" d="M0,-3.0v7 M-2.5,-0.5L0,-3.0L2.5,-0.5"/>
  </g>
  <g id="arrowDown" transform="rotate(180) translate(-30 -48)">
    <use xlink:href="#rim"/>
    <path pointer-events="none" fill="none" stroke="white" stroke-width="1.5" d="M0,-3.0v7 M-2.5,-0.5L0,-3.0L2.5,-0.5"/>
  </g>
  <g id="arrowLeft" transform="rotate(270) translate(-36 17)">
    <use xlink:href="#rim"/>
    <path pointer-events="none" fill="none" stroke="white" stroke-width="1.5" d="M0,-3.0v7 M-2.5,-0.5L0,-3.0L2.5,-0.5"/>
  </g>
  <g id="resetDef">
    <use xlink:href="#rim2" fill="#404040"><set attributeName="fill" to="#808080" begin="reset.mouseover" end="reset.mouseout"/></use>
  </g>
</defs>
<script type="application/ecmascript">
var viewWidth = 700;
var viewHeight = 445;
var sectionId = 'dynsection-19';
</script>
<script type="application/ecmascript" xlink:href="../../svg.min.js"/>
<svg id="graph" class="graph">
<g id="viewport">
<title>GamR::Coulex::CoulexCalculation::SetLevelScheme</title>
<!-- Node1 -->
<g id="Node000001" class="node">
<title>Node1</title>
<g id="a_Node000001"><a xlink:title=" ">
<polygon fill="#999999" stroke="#666666" points="159.25,-235.88 0,-235.88 0,-205.38 159.25,-205.38 159.25,-235.88"/>
<text text-anchor="start" x="8" y="-222.38" font-family="Helvetica,sans-Serif" font-size="10.00">GamR::Coulex::CoulexCalculation</text>
<text text-anchor="middle" x="79.62" y="-211.12" font-family="Helvetica,sans-Serif" font-size="10.00">::SetLevelScheme</text>
</a>
</g>
</g>
<!-- Node2 -->
<g id="Node000002" class="node">
<title>Node2</title>
<g id="a_Node000002"><a xlink:href="../../db/d16/class_gam_r_1_1_coulex_1_1_level_scheme.html#a4d570498b70eb607e79cfb8670b25e15" target="_top" xlink:title=" ">
<polygon fill="white" stroke="#666666" points="337.25,-436.88 195.25,-436.88 195.25,-406.38 337.25,-406.38 337.25,-436.88"/>
<text text-anchor="start" x="203.25" y="-423.38" font-family="Helvetica,sans-Serif" font-size="10.00">GamR::Coulex::LevelScheme</text>
<text text-anchor="middle" x="266.25" y="-412.12" font-family="Helvetica,sans-Serif" font-size="10.00">::AddLevel</text>
</a>
</g>
</g>
<!-- Node1&#45;&gt;Node2 -->
<g id="edge1_Node000001_Node000002" class="edge">
<title>Node1&#45;&gt;Node2</title>
<g id="a_edge1_Node000001_Node000002"><a xlink:title=" ">
<path fill="none" stroke="#63b8ff" d="M86.67,-236.23C100.62,-270.25 138.29,-351.66 195.25,-396.62 196.96,-397.97 198.75,-399.25 200.6,-400.47"/>
<polygon fill="#63b8ff" stroke="#63b8ff" points="198.54,-403.32 208.95,-405.25 202.01,-397.25 198.54,-403.32"/>
</a>
</g>
</g>
<!-- Node3 -->
<g id="Node000003" class="node">
<title>Node3</title>
<g id="a_Node000003"><a xlink:href="../../db/d16/class_gam_r_1_1_coulex_1_1_level_scheme.html#aab00338f86c0c352793c8f20275fa510" target="_top" xlink:title=" ">
<polygon fill="white" stroke="#666666" points="337.25,-387.88 195.25,-387.88 195.25,-357.38 337.25,-357.38 337.25,-387.88"/>
<text text-anchor="start" x="203.25" y="-374.38" font-family="Helvetica,sans-Serif" font-size="10.00">GamR::Coulex::LevelScheme</text>
<text text-anchor="middle" x="266.25" y="-363.12" font-family="Helvetica,sans-Serif" font-size="10.00">::AddTransition</text>
</a>
</g>
</g>
<!-- Node1&#45;&gt;Node3 -->
<g id="edge2_Node000001_Node000003" class="edge">
<title>Node1&#45;&gt;Node3</title>
<g id="a_edge2_Node000001_Node000003"><a xlink:title=" ">
<path fill="none" stroke="#63b8ff" d="M90.77,-236.17C108.78,-262.63 148.85,-316.57 195.25,-347.62 197.47,-349.11 199.78,-350.52 202.17,-351.85"/>
<polygon fill="#63b8ff" stroke="#63b8ff" points="200.41,-354.88 210.92,-356.24 203.55,-348.63 200.41,-354.88"/>
</a>
</g>
</g>
<!-- Node4 -->
<g id="Node000004" class="node">
<title>Node4</title>
<g id="a_Node000004"><a xlink:href="../../d1/d57/class_gam_r_1_1_coulex_1_1_transition.html#a85f89e555d85864ef047c7969560730a" target="_top" xlink:title=" ">
<polygon fill="white" stroke="#666666" points="328.62,-338.88 203.88,-338.88 203.88,-308.38 328.62,-308.38 328.62,-338.88"/>
<text text-anchor="start" x="211.88" y="-325.38" font-family="Helvetica,sans-Serif" font-size="10.00">GamR::Coulex::Transition</text>
<text text-anchor="middle" x="266.25" y="-314.12" font-family="Helvetica,sans-Serif" font-size="10.00">::GetBUp</text>
</a>
</g>
</g>
<!-- Node1&#45;&gt;Node4 -->
<g id="edge3_Node000001_Node000004" class="edge">
<title>Node1&#45;&gt;Node4</title>
<g id="a_edge3_Node000001_Node000004"><a xlink:title=" ">
<path fill="none" stroke="#63b8ff" d="M99.88,-236.36C121.86,-253.71 159.42,-281.57 195.25,-299.62 197.95,-300.99 200.75,-302.3 203.61,-303.57"/>
<polygon fill="#63b8ff" stroke="#63b8ff" points="202.13,-306.74 212.71,-307.34 204.81,-300.28 202.13,-306.74"/>
</a>
</g>
</g>
<!-- Node5 -->
<g id="Node000005" class="node">
<title>Node5</title>
<g id="a_Node000005"><a xlink:href="../../d0/db7/namespace_gam_r_1_1_utils.html#aed2bea4374da5416077fee90a1ebf9e4" target="_top" xlink:title=" ">
<polygon fill="white" stroke="#666666" points="321.5,-290.25 211,-290.25 211,-271 321.5,-271 321.5,-290.25"/>
<text text-anchor="middle" x="266.25" y="-276.75" font-family="Helvetica,sans-Serif" font-size="10.00">GamR::Utils::GetInput</text>
</a>
</g>
</g>
<!-- Node1&#45;&gt;Node5 -->
<g id="edge4_Node000001_Node000005" class="edge">
<title>Node1&#45;&gt;Node5</title>
<g id="a_edge4_Node000001_Node000005"><a xlink:title=" ">
<path fill="none" stroke="#63b8ff" d="M128.65,-236.23C158.08,-245.8 195.38,-257.92 223.56,-267.08"/>
<polygon fill="#63b8ff" stroke="#63b8ff" points="222.23,-270.32 232.82,-270.09 224.4,-263.67 222.23,-270.32"/>
</a>
</g>
</g>
<!-- Node7 -->
<g id="Node000007" class="node">
<title>Node7</title>
<g id="a_Node000007"><a xlink:href="../../db/d16/class_gam_r_1_1_coulex_1_1_level_scheme.html#a0084c39cedee838191658398fa05f16a" target="_top" xlink:title=" ">
<polygon fill="white" stroke="#666666" points="515.25,-221.88 373.25,-221.88 373.25,-191.38 515.25,-191.38 515.25,-221.88"/>
<text text-anchor="start" x="381.25" y="-208.38" font-family="Helvetica,sans-Serif" font-size="10.00">GamR::Coulex::LevelScheme</text>
<text text-anchor="middle" x="444.25" y="-197.12" font-family="Helvetica,sans-Serif" font-size="10.00">::GetLevelByIndex</text>
</a>
</g>
</g>
<!-- Node1&#45;&gt;Node7 -->
<g id="edge6_Node000001_Node000007" class="edge">
<title>Node1&#45;&gt;Node7</title>
<g id="a_edge6_Node000001_Node000007"><a xlink:title=" ">
<path fill="none" stroke="#63b8ff" d="M159.66,-225.26C210.46,-227.33 277.84,-228.36 337.25,-223.62 345.23,-222.99 353.52,-222.09 361.79,-221.03"/>
<polygon fill="#63b8ff" stroke="#63b8ff" points="362.09,-224.52 371.52,-219.7 361.14,-217.58 362.09,-224.52"/>
</a>
</g>
</g>
<!-- Node8 -->
<g id="Node000008" class="node">
<title>Node8</title>
<g id="a_Node000008"><a xlink:href="../../db/d16/class_gam_r_1_1_coulex_1_1_level_scheme.html#ad1ef2663e6726c2d75a86c0c5f43f1f8" target="_top" xlink:title=" ">
<polygon fill="white" stroke="#666666" points="337.25,-214.88 195.25,-214.88 195.25,-184.38 337.25,-184.38 337.25,-214.88"/>
<text text-anchor="start" x="203.25" y="-201.38" font-family="Helvetica,sans-Serif" font-size="10.00">GamR::Coulex::LevelScheme</text>
<text text-anchor="middle" x="266.25" y="-190.12" font-family="Helvetica,sans-Serif" font-size="10.00">::GetNLevels</text>
</a>
</g>
</g>
<!-- Node1&#45;&gt;Node8 -->
<g id="edge7_Node000001_Node000008" class="edge">
<title>Node1&#45;&gt;Node8</title>
<g id="a_edge7_Node000001_Node000008"><a xlink:title=" ">
<path fill="none" stroke="#63b8ff" d="M159.73,-211.63C167.55,-210.74 175.51,-209.83 183.36,-208.94"/>
<polygon fill="#63b8ff" stroke="#63b8ff" points="183.72,-212.42 193.26,-207.81 182.93,-205.47 183.72,-212.42"/>
</a>
</g>
</g>
<!-- Node9 -->
<g id="Node000009" class="node">
<title>Node9</title>
<g id="a_Node000009"><a xlink:href="../../db/d16/class_gam_r_1_1_coulex_1_1_level_scheme.html#a055821f626f4d274171404aabf5dc60e" target="_top" xlink:title=" ">
<polygon fill="white" stroke="#666666" points="337.25,-165.88 195.25,-165.88 195.25,-135.38 337.25,-135.38 337.25,-165.88"/>
<text text-anchor="start" x="203.25" y="-152.38" font-family="Helvetica,sans-Serif" font-size="10.00">GamR::Coulex::LevelScheme</text>
<text text-anchor="middle" x="266.25" y="-141.12" font-family="Helvetica,sans-Serif" font-size="10.00">::GetNTransitions</text>
</a>
</g>
</g>
<!-- Node1&#45;&gt;Node9 -->
<g id="edge8_Node000001_Node000009" class="edge">
<title>Node1&#45;&gt;Node9</title>
<g id="a_edge8_Node000001_Node000009"><a xlink:title=" ">
<path fill="none" stroke="#63b8ff" d="M119.77,-204.91C141.86,-196.13 170.03,-185.08 195.25,-175.62 200.13,-173.8 205.21,-171.92 210.31,-170.06"/>
<polygon fill="#63b8ff" stroke="#63b8ff" points="211.1,-173.5 219.31,-166.8 208.72,-166.92 211.1,-173.5"/>
</a>
</g>
</g>
<!-- Node10 -->
<g id="Node000010" class="node">
<title>Node10</title>
<g id="a_Node000010"><a xlink:href="../../db/d16/class_gam_r_1_1_coulex_1_1_level_scheme.html#a4b86aa22b5d902bb4bd3a0103744e423" target="_top" xlink:title=" ">
<polygon fill="white" stroke="#666666" points="337.25,-116.88 195.25,-116.88 195.25,-86.38 337.25,-86.38 337.25,-116.88"/>
<text text-anchor="start" x="203.25" y="-103.38" font-family="Helvetica,sans-Serif" font-size="10.00">GamR::Coulex::LevelScheme</text>
<text text-anchor="middle" x="266.25" y="-92.12" font-family="Helvetica,sans-Serif" font-size="10.00">::PrintLevels</text>
</a>
</g>
</g>
<!-- Node1&#45;&gt;Node10 -->
<g id="edge9_Node000001_Node000010" class="edge">
<title>Node1&#45;&gt;Node10</title>
<g id="a_edge9_Node000001_Node000010"><a xlink:title=" ">
<path fill="none" stroke="#63b8ff" d="M96.02,-205.01C116.88,-184.59 156.05,-148.81 195.25,-126.62 198.09,-125.02 201.06,-123.48 204.09,-122.02"/>
<polygon fill="#63b8ff" stroke="#63b8ff" points="205.51,-125.22 213.23,-117.96 202.67,-118.83 205.51,-125.22"/>
</a>
</g>
</g>
<!-- Node13 -->
<g id="Node000013" class="node">
<title>Node13</title>
<g id="a_Node000013"><a xlink:href="../../d1/d57/class_gam_r_1_1_coulex_1_1_transition.html#ad0ac4badb9458504125fb31ed46d33e5" target="_top" xlink:title=" ">
<polygon fill="white" stroke="#666666" points="328.62,-67.88 203.88,-67.88 203.88,-37.38 328.62,-37.38 328.62,-67.88"/>
<text text-anchor="start" x="211.88" y="-54.38" font-family="Helvetica,sans-Serif" font-size="10.00">GamR::Coulex::Transition</text>
<text text-anchor="middle" x="266.25" y="-43.12" font-family="Helvetica,sans-Serif" font-size="10.00">::SetBUp</text>
</a>
</g>
</g>
<!-- Node1&#45;&gt;Node13 -->
<g id="edge13_Node000001_Node000013" class="edge">
<title>Node1&#45;&gt;Node13</title>
<g id="a_edge13_Node000001_Node000013"><a xlink:title=" ">
<path fill="none" stroke="#63b8ff" d="M89.21,-204.93C105.9,-175.79 145.5,-113.07 195.25,-77.62 197.18,-76.25 199.19,-74.94 201.27,-73.7"/>
<polygon fill="#63b8ff" stroke="#63b8ff" points="202.8,-76.85 210,-69.08 199.53,-70.66 202.8,-76.85"/>
</a>
</g>
</g>
<!-- Node14 -->
<g id="Node000014" class="node">
<title>Node14</title>
<g id="a_Node000014"><a xlink:href="../../d0/d17/_abbreviations_8cc.html#a33328e0e85d36ff8f7f299bb791c5364" target="_top" xlink:title=" ">
<polygon fill="white" stroke="#666666" points="280.65,-19.25 251.85,-19.25 251.85,0 280.65,0 280.65,-19.25"/>
<text text-anchor="middle" x="266.25" y="-5.75" font-family="Helvetica,sans-Serif" font-size="10.00">sp</text>
</a>
</g>
</g>
<!-- Node1&#45;&gt;Node14 -->
<g id="edge14_Node000001_Node000014" class="edge">
<title>Node1&#45;&gt;Node14</title>
<g id="a_edge14_Node000001_Node000014"><a xlink:title=" ">
<path fill="none" stroke="#63b8ff" d="M85.43,-204.93C97.52,-168.16 132.76,-76.01 195.25,-28.62 208.26,-18.76 226.06,-14.01 240.45,-11.73"/>
<polygon fill="#63b8ff" stroke="#63b8ff" points="240.57,-15.24 250.05,-10.52 239.69,-8.3 240.57,-15.24"/>
</a>
</g>
</g>
<!-- Node6 -->
<g id="Node000006" class="node">
<title>Node6</title>
<g id="a_Node000006"><a xlink:href="../../d0/db7/namespace_gam_r_1_1_utils.html#ad0dc77d5ee1f99355aa36516fa14731d" target="_top" xlink:title=" ">
<polygon fill="white" stroke="#666666" points="498.38,-290.25 390.12,-290.25 390.12,-271 498.38,-271 498.38,-290.25"/>
<text text-anchor="middle" x="444.25" y="-276.75" font-family="Helvetica,sans-Serif" font-size="10.00">GamR::Utils::catcherr</text>
</a>
</g>
</g>
<!-- Node5&#45;&gt;Node6 -->
<g id="edge5_Node000005_Node000006" class="edge">
<title>Node5&#45;&gt;Node6</title>
<g id="a_edge5_Node000005_Node000006"><a xlink:title=" ">
<path fill="none" stroke="#63b8ff" d="M321.97,-280.62C339.86,-280.62 359.89,-280.62 378.44,-280.62"/>
<polygon fill="#63b8ff" stroke="#63b8ff" points="378.25,-284.13 388.25,-280.63 378.25,-277.13 378.25,-284.13"/>
</a>
</g>
</g>
<!-- Node10&#45;&gt;Node7 -->
<g id="edge10_Node000010_Node000007" class="edge">
<title>Node10&#45;&gt;Node7</title>
<g id="a_edge10_Node000010_Node000007"><a xlink:title=" ">
<path fill="none" stroke="#63b8ff" d="M317.02,-117.28C323.96,-120.07 330.89,-123.19 337.25,-126.62 353.15,-135.21 389.32,-163.27 414.98,-183.74"/>
<polygon fill="#63b8ff" stroke="#63b8ff" points="412.72,-186.42 422.72,-189.95 417.1,-180.96 412.72,-186.42"/>
</a>
</g>
</g>
<!-- Node11 -->
<g id="Node000011" class="node">
<title>Node11</title>
<g id="a_Node000011"><a xlink:href="../../d1/d65/class_gam_r_1_1_coulex_1_1_level.html#a5b8c0227f0d4f75f5e57c58d61b9bf4b" target="_top" xlink:title=" ">
<polygon fill="white" stroke="#666666" points="497.25,-141.88 391.25,-141.88 391.25,-111.38 497.25,-111.38 497.25,-141.88"/>
<text text-anchor="start" x="399.25" y="-128.38" font-family="Helvetica,sans-Serif" font-size="10.00">GamR::Coulex::Level</text>
<text text-anchor="middle" x="444.25" y="-117.12" font-family="Helvetica,sans-Serif" font-size="10.00">::PrintSP</text>
</a>
</g>
</g>
<!-- Node10&#45;&gt;Node11 -->
<g id="edge11_Node000010_Node000011" class="edge">
<title>Node10&#45;&gt;Node11</title>
<g id="a_edge11_Node000010_Node000011"><a xlink:title=" ">
<path fill="none" stroke="#63b8ff" d="M337.57,-111.61C351.48,-113.59 366.01,-115.65 379.68,-117.6"/>
<polygon fill="#63b8ff" stroke="#63b8ff" points="379.05,-121.04 389.44,-118.98 380.03,-114.11 379.05,-121.04"/>
</a>
</g>
</g>
<!-- Node12 -->
<g id="Node000012" class="node">
<title>Node12</title>
<g id="a_Node000012"><a xlink:href="../../db/d16/class_gam_r_1_1_coulex_1_1_level_scheme.html#a807279006620a7c5d147431f72ed5be6" target="_top" xlink:title=" ">
<polygon fill="white" stroke="#666666" points="515.25,-92.88 373.25,-92.88 373.25,-62.38 515.25,-62.38 515.25,-92.88"/>
<text text-anchor="start" x="381.25" y="-79.38" font-family="Helvetica,sans-Serif" font-size="10.00">GamR::Coulex::LevelScheme</text>
<text text-anchor="middle" x="444.25" y="-68.12" font-family="Helvetica,sans-Serif" font-size="10.00">::SetIndices</text>
</a>
</g>
</g>
<!-- Node10&#45;&gt;Node12 -->
<g id="edge12_Node000010_Node000012" class="edge">
<title>Node10&#45;&gt;Node12</title>
<g id="a_edge12_Node000010_Node000012"><a xlink:title=" ">
<path fill="none" stroke="#63b8ff" d="M337.57,-92.04C345.44,-90.96 353.51,-89.86 361.52,-88.77"/>
<polygon fill="#63b8ff" stroke="#63b8ff" points="361.82,-92.26 371.26,-87.44 360.87,-85.33 361.82,-92.26"/>
</a>
</g>
</g>
<!-- Node15 -->
<g id="Node000015" class="node">
<title>Node15</title>
<g id="a_Node000015"><a xlink:href="../../dc/d89/namespace_gam_r_1_1_spect.html#a54b953c08bfbe870df0e0c9c6aa23648" target="_top" xlink:title=" ">
<polygon fill="white" stroke="#666666" points="494.62,-19.25 393.88,-19.25 393.88,0 494.62,0 494.62,-19.25"/>
<text text-anchor="middle" x="444.25" y="-5.75" font-family="Helvetica,sans-Serif" font-size="10.00">GamR::Spect::Draw</text>
</a>
</g>
</g>
<!-- Node14&#45;&gt;Node15 -->
<g id="edge15_Node000014_Node000015" class="edge">
<title>Node14&#45;&gt;Node15</title>
<g id="a_edge15_Node000014_Node000015"><a xlink:title=" ">
<path fill="none" stroke="#63b8ff" d="M281.06,-9.62C302.72,-9.62 345.99,-9.62 382.38,-9.62"/>
<polygon fill="#63b8ff" stroke="#63b8ff" points="381.91,-13.13 391.91,-9.63 381.91,-6.13 381.91,-13.13"/>
</a>
</g>
</g>
<!-- Node16 -->
<g id="Node000016" class="node">
<title>Node16</title>
<g id="a_Node000016"><a xlink:href="../../dc/d89/namespace_gam_r_1_1_spect.html#a56e80bce5bf691212c8b7dfb76c2d2b4" target="_top" xlink:title=" ">
<polygon fill="white" stroke="#666666" points="691.75,-19.25 551.25,-19.25 551.25,0 691.75,0 691.75,-19.25"/>
<text text-anchor="middle" x="621.5" y="-5.75" font-family="Helvetica,sans-Serif" font-size="10.00">GamR::Spect::List1DSpectra</text>
</a>
</g>
</g>
<!-- Node15&#45;&gt;Node16 -->
<g id="edge16_Node000015_Node000016" class="edge">
<title>Node15&#45;&gt;Node16</title>
<g id="a_edge16_Node000015_Node000016"><a xlink:title=" ">
<path fill="none" stroke="#63b8ff" d="M495,-9.62C509.01,-9.62 524.61,-9.62 539.93,-9.62"/>
<polygon fill="#63b8ff" stroke="#63b8ff" points="539.49,-13.13 549.49,-9.63 539.49,-6.13 539.49,-13.13"/>
</a>
</g>
</g>
</g>
</svg>

<g id="navigator" transform="translate(0 0)" fill="#404254">
  <rect fill="#f2f5e9" fill-opacity="0.5" stroke="#606060" stroke-width=".5" x="0" y="0" width="60" height="60"/>
  <use id="zoomplus" xlink:href="#zoomPlus" x="17" y="9" onmousedown="handleZoom(evt,'in')"/>
  <use id="zoomminus" xlink:href="#zoomMin" x="42" y="9" onmousedown="handleZoom(evt,'out')"/>
  <use id="reset" xlink:href="#resetDef" x="30" y="36" onmousedown="handleReset()"/>
   <use id="arrowup" xlink:href="#arrowUp" x="0" y="0" onmousedown="handlePan(0,-1)"/>
  <use id="arrowright" xlink:href="#arrowRight" x="0" y="0" onmousedown="handlePan(1,0)"/>
  <use id="arrowdown" xlink:href="#arrowDown" x="0" y="0" onmousedown="handlePan(0,1)"/>
  <use id="arrowleft" xlink:href="#arrowLeft" x="0" y="0" onmousedown="handlePan(-1,0)"/>
</g>
<svg viewBox="0 0 15 15" width="100%" height="30px" preserveAspectRatio="xMaxYMin meet">
 <g id="arrow_out" transform="scale(0.3 0.3)">
  <a xlink:href="class_gam_r_1_1_coulex_1_1_coulex_calculation_a46d4f1bd67b5c6c438efd93b9f1e4838_cgraph_org.svg" target="_base">
   <rect id="button" ry="5" rx="5" y="6" x="6" height="38" width="38"
        fill="#f2f5e9" fill-opacity="0.5" stroke="#606060" stroke-width="1.0"/>
   <path id="arrow"
     d="M 11.500037,31.436501 C 11.940474,20.09759 22.043105,11.32322 32.158766,21.979434 L 37.068811,17.246167 C 37.068811,17.246167 37.088388,32 37.088388,32 L 22.160133,31.978069 C 22.160133,31.978069 26.997745,27.140456 26.997745,27.140456 C 18.528582,18.264221 13.291696,25.230495 11.500037,31.436501 z"
     style="fill:#404040;"/>
  </a>
 </g>
</svg>

<style type='text/css'>
<![CDATA[
[data-mouse-over-selected='false'] { opacity: 0.7; }
[data-mouse-over-selected='true']  { opacity: 1.0; }
]]>
</style>
<script type="application/ecmascript"><![CDATA[
document.addEventListener('DOMContentLoaded', (event) => {
  highlightEdges();
  highlightAdjacentNodes();
});
]]></script>
</svg>
