<?xml version="1.0" encoding="UTF-8" standalone="no"?>
<!DOCTYPE svg PUBLIC "-//W3C//DTD SVG 1.1//EN"
 "http://www.w3.org/Graphics/SVG/1.1/DTD/svg11.dtd">
<!-- Generated by graphviz version 6.0.2 (20221011.1828)
 -->
<!-- Title: GamR::Coulex::CoulexCalculation::SaveToFile Pages: 1 -->
<svg width="347pt" height="316pt"
 viewBox="0.00 0.00 347.00 316.00" xmlns="http://www.w3.org/2000/svg" xmlns:xlink="http://www.w3.org/1999/xlink">
<g id="graph0" class="graph" transform="scale(1 1) rotate(0) translate(4 312)">
<title>GamR::Coulex::CoulexCalculation::SaveToFile</title>
<!-- Node1 -->
<g id="node1" class="node">
<title>Node1</title>
<g id="a_node1"><a xlink:title=" ">
<polygon fill="#999999" stroke="#666666" points="160,-174 0,-174 0,-144 160,-144 160,-174"/>
<text text-anchor="start" x="8" y="-162" font-family="Helvetica,sans-Serif" font-size="10.00">GamR::Coulex::CoulexCalculation</text>
<text text-anchor="middle" x="80" y="-151" font-family="Helvetica,sans-Serif" font-size="10.00">::SaveToFile</text>
</a>
</g>
</g>
<!-- Node2 -->
<g id="node2" class="node">
<title>Node2</title>
<g id="a_node2"><a xlink:href="../../d1/d57/class_gam_r_1_1_coulex_1_1_transition.html#a85f89e555d85864ef047c7969560730a" target="_top" xlink:title=" ">
<polygon fill="white" stroke="#666666" points="330,-308 205,-308 205,-278 330,-278 330,-308"/>
<text text-anchor="start" x="213" y="-296" font-family="Helvetica,sans-Serif" font-size="10.00">GamR::Coulex::Transition</text>
<text text-anchor="middle" x="267.5" y="-285" font-family="Helvetica,sans-Serif" font-size="10.00">::GetBUp</text>
</a>
</g>
</g>
<!-- Node1&#45;&gt;Node2 -->
<g id="edge1" class="edge">
<title>Node1&#45;&gt;Node2</title>
<path fill="none" stroke="#63b8ff" d="M93.18,-174.33C112.59,-197.83 152.78,-242.76 196,-269 198.76,-270.68 201.66,-272.26 204.63,-273.74"/>
<polygon fill="#63b8ff" stroke="#63b8ff" points="203.2,-276.93 213.75,-277.91 206.11,-270.57 203.2,-276.93"/>
</g>
<!-- Node3 -->
<g id="node3" class="node">
<title>Node3</title>
<g id="a_node3"><a xlink:href="../../d2/d80/namespace_gam_r_1_1_t_k.html#a8e957f4effbe05201873e6d6caceeacc" target="_top" xlink:title=" ">
<polygon fill="white" stroke="#666666" points="326,-259.5 209,-259.5 209,-240.5 326,-240.5 326,-259.5"/>
<text text-anchor="middle" x="267.5" y="-247.5" font-family="Helvetica,sans-Serif" font-size="10.00">GamR::TK::GetElement</text>
</a>
</g>
</g>
<!-- Node1&#45;&gt;Node3 -->
<g id="edge2" class="edge">
<title>Node1&#45;&gt;Node3</title>
<path fill="none" stroke="#63b8ff" d="M101.16,-174.23C123.35,-190.35 160.59,-215.55 196,-231 201.43,-233.37 207.23,-235.51 213.09,-237.42"/>
<polygon fill="#63b8ff" stroke="#63b8ff" points="212.35,-240.85 222.93,-240.43 214.39,-234.16 212.35,-240.85"/>
</g>
<!-- Node4 -->
<g id="node4" class="node">
<title>Node4</title>
<g id="a_node4"><a xlink:href="../../db/d16/class_gam_r_1_1_coulex_1_1_level_scheme.html#a0084c39cedee838191658398fa05f16a" target="_top" xlink:title=" ">
<polygon fill="white" stroke="#666666" points="339,-222 196,-222 196,-192 339,-192 339,-222"/>
<text text-anchor="start" x="204" y="-210" font-family="Helvetica,sans-Serif" font-size="10.00">GamR::Coulex::LevelScheme</text>
<text text-anchor="middle" x="267.5" y="-199" font-family="Helvetica,sans-Serif" font-size="10.00">::GetLevelByIndex</text>
</a>
</g>
</g>
<!-- Node1&#45;&gt;Node4 -->
<g id="edge3" class="edge">
<title>Node1&#45;&gt;Node4</title>
<path fill="none" stroke="#63b8ff" d="M139.18,-174.06C158.09,-178.95 179.23,-184.42 198.77,-189.48"/>
<polygon fill="#63b8ff" stroke="#63b8ff" points="197.96,-192.88 208.52,-192 199.72,-186.1 197.96,-192.88"/>
</g>
<!-- Node5 -->
<g id="node5" class="node">
<title>Node5</title>
<g id="a_node5"><a xlink:href="../../db/d16/class_gam_r_1_1_coulex_1_1_level_scheme.html#ad1ef2663e6726c2d75a86c0c5f43f1f8" target="_top" xlink:title=" ">
<polygon fill="white" stroke="#666666" points="339,-174 196,-174 196,-144 339,-144 339,-174"/>
<text text-anchor="start" x="204" y="-162" font-family="Helvetica,sans-Serif" font-size="10.00">GamR::Coulex::LevelScheme</text>
<text text-anchor="middle" x="267.5" y="-151" font-family="Helvetica,sans-Serif" font-size="10.00">::GetNLevels</text>
</a>
</g>
</g>
<!-- Node1&#45;&gt;Node5 -->
<g id="edge4" class="edge">
<title>Node1&#45;&gt;Node5</title>
<path fill="none" stroke="#63b8ff" d="M160.21,-159C168.61,-159 177.16,-159 185.58,-159"/>
<polygon fill="#63b8ff" stroke="#63b8ff" points="185.77,-162.5 195.77,-159 185.77,-155.5 185.77,-162.5"/>
</g>
<!-- Node6 -->
<g id="node6" class="node">
<title>Node6</title>
<g id="a_node6"><a xlink:href="../../db/d16/class_gam_r_1_1_coulex_1_1_level_scheme.html#a055821f626f4d274171404aabf5dc60e" target="_top" xlink:title=" ">
<polygon fill="white" stroke="#666666" points="339,-126 196,-126 196,-96 339,-96 339,-126"/>
<text text-anchor="start" x="204" y="-114" font-family="Helvetica,sans-Serif" font-size="10.00">GamR::Coulex::LevelScheme</text>
<text text-anchor="middle" x="267.5" y="-103" font-family="Helvetica,sans-Serif" font-size="10.00">::GetNTransitions</text>
</a>
</g>
</g>
<!-- Node1&#45;&gt;Node6 -->
<g id="edge5" class="edge">
<title>Node1&#45;&gt;Node6</title>
<path fill="none" stroke="#63b8ff" d="M139.18,-143.94C158.09,-139.05 179.23,-133.58 198.77,-128.52"/>
<polygon fill="#63b8ff" stroke="#63b8ff" points="199.72,-131.9 208.52,-126 197.96,-125.12 199.72,-131.9"/>
</g>
<!-- Node7 -->
<g id="node7" class="node">
<title>Node7</title>
<g id="a_node7"><a xlink:href="../../d1/d65/class_gam_r_1_1_coulex_1_1_level.html#a5b8c0227f0d4f75f5e57c58d61b9bf4b" target="_top" xlink:title=" ">
<polygon fill="white" stroke="#666666" points="321,-78 214,-78 214,-48 321,-48 321,-78"/>
<text text-anchor="start" x="222" y="-66" font-family="Helvetica,sans-Serif" font-size="10.00">GamR::Coulex::Level</text>
<text text-anchor="middle" x="267.5" y="-55" font-family="Helvetica,sans-Serif" font-size="10.00">::PrintSP</text>
</a>
</g>
</g>
<!-- Node1&#45;&gt;Node7 -->
<g id="edge6" class="edge">
<title>Node1&#45;&gt;Node7</title>
<path fill="none" stroke="#63b8ff" d="M101.77,-143.92C124.18,-128.17 161.32,-103.48 196,-87 199.81,-85.19 203.79,-83.45 207.84,-81.79"/>
<polygon fill="#63b8ff" stroke="#63b8ff" points="209.32,-84.97 217.37,-78.08 206.78,-78.45 209.32,-84.97"/>
</g>
<!-- Node8 -->
<g id="node8" class="node">
<title>Node8</title>
<g id="a_node8"><a xlink:href="../../db/d16/class_gam_r_1_1_coulex_1_1_level_scheme.html#a807279006620a7c5d147431f72ed5be6" target="_top" xlink:title=" ">
<polygon fill="white" stroke="#666666" points="339,-30 196,-30 196,0 339,0 339,-30"/>
<text text-anchor="start" x="204" y="-18" font-family="Helvetica,sans-Serif" font-size="10.00">GamR::Coulex::LevelScheme</text>
<text text-anchor="middle" x="267.5" y="-7" font-family="Helvetica,sans-Serif" font-size="10.00">::SetIndices</text>
</a>
</g>
</g>
<!-- Node1&#45;&gt;Node8 -->
<g id="edge7" class="edge">
<title>Node1&#45;&gt;Node8</title>
<path fill="none" stroke="#63b8ff" d="M91.64,-143.87C110.11,-118.66 150.5,-68 196,-39 198.59,-37.35 201.3,-35.8 204.1,-34.35"/>
<polygon fill="#63b8ff" stroke="#63b8ff" points="205.7,-37.46 213.24,-30.02 202.7,-31.13 205.7,-37.46"/>
</g>
</g>
</svg>
