<?xml version="1.0" encoding="UTF-8" standalone="no"?>
<!DOCTYPE svg PUBLIC "-//W3C//DTD SVG 1.1//EN"
 "http://www.w3.org/Graphics/SVG/1.1/DTD/svg11.dtd">
<!-- Generated by graphviz version 2.50.0 (20220203.2022)
 -->
<!-- Title: GamR::Coulex::CoulexCalculation::CalcTensor Pages: 1 -->
<!--zoomable 364 -->
<svg id="main" version="1.1" xmlns="http://www.w3.org/2000/svg" xmlns:xlink="http://www.w3.org/1999/xlink" xml:space="preserve" onload="init(evt)">
<style type="text/css"><![CDATA[
.edge:hover path { stroke: red; }
.edge:hover polygon { stroke: red; fill: red; }
]]></style>
<script type="text/javascript"><![CDATA[
var edges = document.getElementsByTagName('g');
if (edges && edges.length) {
  for (var i=0;i<edges.length;i++) {
    if (edges[i].id.substr(0,4)=='edge') {
      edges[i].setAttribute('class','edge');
    }
  }
}
]]></script>
        <defs>
                <circle id="rim" cx="0" cy="0" r="7"/>
                <circle id="rim2" cx="0" cy="0" r="3.5"/>
                <g id="zoomPlus">
                        <use xlink:href="#rim" fill="#404040">
                                <set attributeName="fill" to="#808080" begin="zoomplus.mouseover" end="zoomplus.mouseout"/>
                        </use>
                        <path d="M-4,0h8M0,-4v8" fill="none" stroke="white" stroke-width="1.5" pointer-events="none"/>
                </g>
                <g id="zoomMin">
                        <use xlink:href="#rim" fill="#404040">
                                <set attributeName="fill" to="#808080" begin="zoomminus.mouseover" end="zoomminus.mouseout"/>
                        </use>
                        <path d="M-4,0h8" fill="none" stroke="white" stroke-width="1.5" pointer-events="none"/>
                </g>
                <g id="dirArrow">
                        <path fill="none" stroke="white" stroke-width="1.5" d="M0,-3.0v7 M-2.5,-0.5L0,-3.0L2.5,-0.5"/>
                </g>
               <g id="resetDef">
                       <use xlink:href="#rim2" fill="#404040">
                               <set attributeName="fill" to="#808080" begin="reset.mouseover" end="reset.mouseout"/>
                       </use>
               </g>
        </defs>

<script type="text/javascript">
var viewWidth = 687;
var viewHeight = 364;
var sectionId = 'dynsection-1';
</script>
<script xlink:href="../../svgpan.js"/>
<svg id="graph" class="graph">
<g id="viewport">
<title>GamR::Coulex::CoulexCalculation::CalcTensor</title>
<polygon fill="white" stroke="transparent" points="-4,4 -4,-359.5 683,-359.5 683,4 -4,4"/>
<!-- Node1 -->
<g id="node1" class="node">
<title>Node1</title>
<g id="a_node1"><a xlink:title=" ">
<polygon fill="#bfbfbf" stroke="black" points="0,-166.5 0,-196.5 160,-196.5 160,-166.5 0,-166.5"/>
<text text-anchor="start" x="8" y="-184.5" font-family="Helvetica,sans-Serif" font-size="10.00">GamR::Coulex::CoulexCalculation</text>
<text text-anchor="middle" x="80" y="-173.5" font-family="Helvetica,sans-Serif" font-size="10.00">::CalcTensor</text>
</a>
</g>
</g>
<!-- Node2 -->
<g id="node2" class="node">
<title>Node2</title>
<g id="a_node2"><a xlink:href="../../d6/d76/namespace_gam_r_1_1_coulex.html#a5e6e1afc09661da620791f2153bb495d" target="_top" xlink:title=" ">
<polygon fill="white" stroke="black" points="218.5,-336 218.5,-355 328.5,-355 328.5,-336 218.5,-336"/>
<text text-anchor="middle" x="273.5" y="-343" font-family="Helvetica,sans-Serif" font-size="10.00">GamR::Coulex::ELoss</text>
</a>
</g>
</g>
<!-- Node1&#45;&gt;Node2 -->
<g id="edge1" class="edge">
<title>Node1&#45;&gt;Node2</title>
<path fill="none" stroke="midnightblue" d="M88.75,-196.96C104.57,-226.89 143.59,-292.77 196,-326.5 200.03,-329.09 204.39,-331.33 208.92,-333.27"/>
<polygon fill="midnightblue" stroke="midnightblue" points="207.79,-336.58 218.38,-336.83 210.25,-330.03 207.79,-336.58"/>
</g>
<!-- Node3 -->
<g id="node3" class="node">
<title>Node3</title>
<g id="a_node3"><a xlink:href="../../db/d16/class_gam_r_1_1_coulex_1_1_level_scheme.html#a4198739730a0df2ff34745f1361baee5" target="_top" xlink:title=" ">
<polygon fill="white" stroke="black" points="202,-286.5 202,-316.5 345,-316.5 345,-286.5 202,-286.5"/>
<text text-anchor="start" x="210" y="-304.5" font-family="Helvetica,sans-Serif" font-size="10.00">GamR::Coulex::LevelScheme</text>
<text text-anchor="middle" x="273.5" y="-293.5" font-family="Helvetica,sans-Serif" font-size="10.00">::GetETransitions</text>
</a>
</g>
</g>
<!-- Node1&#45;&gt;Node3 -->
<g id="edge2" class="edge">
<title>Node1&#45;&gt;Node3</title>
<path fill="none" stroke="midnightblue" d="M95.21,-196.63C115.64,-217.57 155.37,-255.31 196,-277.5 199.25,-279.27 202.64,-280.93 206.12,-282.49"/>
<polygon fill="midnightblue" stroke="midnightblue" points="204.9,-285.78 215.48,-286.37 207.58,-279.31 204.9,-285.78"/>
</g>
<!-- Node4 -->
<g id="node4" class="node">
<title>Node4</title>
<g id="a_node4"><a xlink:href="../../db/d16/class_gam_r_1_1_coulex_1_1_level_scheme.html#a2d7fa95126f4ce5824ce89a869dbf930" target="_top" xlink:title=" ">
<polygon fill="white" stroke="black" points="202,-237.5 202,-267.5 345,-267.5 345,-237.5 202,-237.5"/>
<text text-anchor="start" x="210" y="-255.5" font-family="Helvetica,sans-Serif" font-size="10.00">GamR::Coulex::LevelScheme</text>
<text text-anchor="middle" x="273.5" y="-244.5" font-family="Helvetica,sans-Serif" font-size="10.00">::GetLevels</text>
</a>
</g>
</g>
<!-- Node1&#45;&gt;Node4 -->
<g id="edge3" class="edge">
<title>Node1&#45;&gt;Node4</title>
<path fill="none" stroke="midnightblue" d="M115.68,-196.56C138.35,-206.19 168.71,-218.66 196,-228.5 201.45,-230.47 207.16,-232.43 212.88,-234.33"/>
<polygon fill="midnightblue" stroke="midnightblue" points="211.91,-237.7 222.51,-237.48 214.09,-231.04 211.91,-237.7"/>
</g>
<!-- Node5 -->
<g id="node5" class="node">
<title>Node5</title>
<g id="a_node5"><a xlink:href="../../db/d16/class_gam_r_1_1_coulex_1_1_level_scheme.html#aa81d5127966d94b8e9eb4da529cc5fbe" target="_top" xlink:title=" ">
<polygon fill="white" stroke="black" points="202,-188.5 202,-218.5 345,-218.5 345,-188.5 202,-188.5"/>
<text text-anchor="start" x="210" y="-206.5" font-family="Helvetica,sans-Serif" font-size="10.00">GamR::Coulex::LevelScheme</text>
<text text-anchor="middle" x="273.5" y="-195.5" font-family="Helvetica,sans-Serif" font-size="10.00">::GetMTransitions</text>
</a>
</g>
</g>
<!-- Node1&#45;&gt;Node5 -->
<g id="edge4" class="edge">
<title>Node1&#45;&gt;Node5</title>
<path fill="none" stroke="midnightblue" d="M160.27,-190.61C170.72,-191.81 181.44,-193.04 191.91,-194.24"/>
<polygon fill="midnightblue" stroke="midnightblue" points="191.52,-197.72 201.86,-195.38 192.32,-190.77 191.52,-197.72"/>
</g>
<!-- Node6 -->
<g id="node6" class="node">
<title>Node6</title>
<g id="a_node6"><a xlink:href="../../d6/d76/namespace_gam_r_1_1_coulex.html#ace79bcce69203b5740a6b158a40242d5" target="_top" xlink:title=" ">
<polygon fill="white" stroke="black" points="206.5,-150 206.5,-169 340.5,-169 340.5,-150 206.5,-150"/>
<text text-anchor="middle" x="273.5" y="-157" font-family="Helvetica,sans-Serif" font-size="10.00">GamR::Coulex::loadSCOEF</text>
</a>
</g>
</g>
<!-- Node1&#45;&gt;Node6 -->
<g id="edge5" class="edge">
<title>Node1&#45;&gt;Node6</title>
<path fill="none" stroke="midnightblue" d="M160.27,-172.39C172.13,-171.03 184.34,-169.63 196.13,-168.27"/>
<polygon fill="midnightblue" stroke="midnightblue" points="196.84,-171.72 206.37,-167.1 196.04,-164.76 196.84,-171.72"/>
</g>
<!-- Node7 -->
<g id="node7" class="node">
<title>Node7</title>
<g id="a_node7"><a xlink:href="../../da/dfc/class_gam_r_1_1_ang_dist_1_1_stat_tensor.html#a601edccee805ff4cf763bd8c8b7a6c6f" target="_top" xlink:title=" ">
<polygon fill="white" stroke="black" points="196,-112 196,-131 351,-131 351,-112 196,-112"/>
<text text-anchor="middle" x="273.5" y="-119" font-family="Helvetica,sans-Serif" font-size="10.00">GamR::AngDist::StatTensor::Set</text>
</a>
</g>
</g>
<!-- Node1&#45;&gt;Node7 -->
<g id="edge6" class="edge">
<title>Node1&#45;&gt;Node7</title>
<path fill="none" stroke="midnightblue" d="M120.07,-166.49C142.17,-158.27 170.43,-148.21 196,-140.5 204.1,-138.06 212.75,-135.69 221.21,-133.5"/>
<polygon fill="midnightblue" stroke="midnightblue" points="222.17,-136.86 231.01,-131.01 220.45,-130.08 222.17,-136.86"/>
</g>
<!-- Node8 -->
<g id="node8" class="node">
<title>Node8</title>
<g id="a_node8"><a xlink:href="../../d6/d76/namespace_gam_r_1_1_coulex.html#a97f94193e8a27067bda39495a4f4e005" target="_top" xlink:title=" ">
<polygon fill="white" stroke="black" points="206.5,-74 206.5,-93 340.5,-93 340.5,-74 206.5,-74"/>
<text text-anchor="middle" x="273.5" y="-81" font-family="Helvetica,sans-Serif" font-size="10.00">GamR::Coulex::setupcoulex</text>
</a>
</g>
</g>
<!-- Node1&#45;&gt;Node8 -->
<g id="edge7" class="edge">
<title>Node1&#45;&gt;Node8</title>
<path fill="none" stroke="midnightblue" d="M98.5,-166.46C120.06,-148.69 158.45,-119.39 196,-102.5 201.44,-100.05 207.24,-97.89 213.12,-95.98"/>
<polygon fill="midnightblue" stroke="midnightblue" points="214.48,-99.23 223.06,-93.01 212.47,-92.53 214.48,-99.23"/>
</g>
<!-- Node14 -->
<g id="node14" class="node">
<title>Node14</title>
<g id="a_node14"><a xlink:href="../../d0/db7/namespace_gam_r_1_1_utils.html#ace3f0394455ab3d454776c11e1573a1a" target="_top" xlink:title=" ">
<polygon fill="white" stroke="black" points="223,-36 223,-55 324,-55 324,-36 223,-36"/>
<text text-anchor="middle" x="273.5" y="-43" font-family="Helvetica,sans-Serif" font-size="10.00">GamR::Utils::Simps</text>
</a>
</g>
</g>
<!-- Node1&#45;&gt;Node14 -->
<g id="edge13" class="edge">
<title>Node1&#45;&gt;Node14</title>
<path fill="none" stroke="midnightblue" d="M91.48,-166.34C109.7,-141.16 149.75,-90.91 196,-64.5 201.38,-61.43 207.25,-58.85 213.27,-56.68"/>
<polygon fill="midnightblue" stroke="midnightblue" points="214.36,-60.01 222.8,-53.61 212.21,-53.35 214.36,-60.01"/>
</g>
<!-- Node9 -->
<g id="node9" class="node">
<title>Node9</title>
<g id="a_node9"><a xlink:href="../../d6/d76/namespace_gam_r_1_1_coulex.html#ad94f425f805a30d355c0c5d04b4736c4" target="_top" xlink:title=" ">
<polygon fill="white" stroke="black" points="387,-93 387,-112 526,-112 526,-93 387,-93"/>
<text text-anchor="middle" x="456.5" y="-100" font-family="Helvetica,sans-Serif" font-size="10.00">GamR::Coulex::MakeDatafile</text>
</a>
</g>
</g>
<!-- Node8&#45;&gt;Node9 -->
<g id="edge8" class="edge">
<title>Node8&#45;&gt;Node9</title>
<path fill="none" stroke="midnightblue" d="M340.61,-90.44C352.37,-91.67 364.72,-92.97 376.78,-94.24"/>
<polygon fill="midnightblue" stroke="midnightblue" points="376.52,-97.73 386.83,-95.29 377.25,-90.77 376.52,-97.73"/>
</g>
<!-- Node10 -->
<g id="node10" class="node">
<title>Node10</title>
<g id="a_node10"><a xlink:href="../../d6/d76/namespace_gam_r_1_1_coulex.html#a2f7b899a42bd6a1e2df9d55d26449acc" target="_top" xlink:title=" ">
<polygon fill="white" stroke="black" points="388,-55 388,-74 525,-74 525,-55 388,-55"/>
<text text-anchor="middle" x="456.5" y="-62" font-family="Helvetica,sans-Serif" font-size="10.00">GamR::Coulex::ReadDatafile</text>
</a>
</g>
</g>
<!-- Node8&#45;&gt;Node10 -->
<g id="edge9" class="edge">
<title>Node8&#45;&gt;Node10</title>
<path fill="none" stroke="midnightblue" d="M340.61,-76.56C352.61,-75.3 365.22,-73.98 377.51,-72.69"/>
<polygon fill="midnightblue" stroke="midnightblue" points="378.16,-76.14 387.74,-71.61 377.43,-69.18 378.16,-76.14"/>
</g>
<!-- Node11 -->
<g id="node11" class="node">
<title>Node11</title>
<g id="a_node11"><a xlink:href="../../d0/db7/namespace_gam_r_1_1_utils.html#a37f21bdeb0aebbff06a00907a11ffe39" target="_top" xlink:title=" ">
<polygon fill="white" stroke="black" points="562,-99 562,-118 679,-118 679,-99 562,-99"/>
<text text-anchor="middle" x="620.5" y="-106" font-family="Helvetica,sans-Serif" font-size="10.00">GamR::Utils::c_to_f_str</text>
</a>
</g>
</g>
<!-- Node10&#45;&gt;Node11 -->
<g id="edge10" class="edge">
<title>Node10&#45;&gt;Node11</title>
<path fill="none" stroke="midnightblue" d="M492.65,-74.05C516.64,-80.56 548.63,-89.25 574.48,-96.27"/>
<polygon fill="midnightblue" stroke="midnightblue" points="573.85,-99.73 584.42,-98.97 575.68,-92.97 573.85,-99.73"/>
</g>
<!-- Node12 -->
<g id="node12" class="node">
<title>Node12</title>
<g id="a_node12"><a xlink:href="../../d7/de5/namespace_gam_r_1_1_coulex_1_1_w_d_b.html#abb1e2f0523cadaff7200a74381f21048" target="_top" xlink:title=" ">
<polygon fill="white" stroke="black" points="565.5,-49.5 565.5,-79.5 675.5,-79.5 675.5,-49.5 565.5,-49.5"/>
<text text-anchor="start" x="573.5" y="-67.5" font-family="Helvetica,sans-Serif" font-size="10.00">GamR::Coulex::WDB::</text>
<text text-anchor="middle" x="620.5" y="-56.5" font-family="Helvetica,sans-Serif" font-size="10.00">freader_</text>
</a>
</g>
</g>
<!-- Node10&#45;&gt;Node12 -->
<g id="edge11" class="edge">
<title>Node10&#45;&gt;Node12</title>
<path fill="none" stroke="midnightblue" d="M525.26,-64.5C535.17,-64.5 545.36,-64.5 555.19,-64.5"/>
<polygon fill="midnightblue" stroke="midnightblue" points="555.3,-68 565.3,-64.5 555.3,-61 555.3,-68"/>
</g>
<!-- Node13 -->
<g id="node13" class="node">
<title>Node13</title>
<g id="a_node13"><a xlink:href="../../d7/de5/namespace_gam_r_1_1_coulex_1_1_w_d_b.html#a60ace2f38b0953aeb7bd0df9b723478e" target="_top" xlink:title=" ">
<polygon fill="white" stroke="black" points="565.5,-0.5 565.5,-30.5 675.5,-30.5 675.5,-0.5 565.5,-0.5"/>
<text text-anchor="start" x="573.5" y="-18.5" font-family="Helvetica,sans-Serif" font-size="10.00">GamR::Coulex::WDB::</text>
<text text-anchor="middle" x="620.5" y="-7.5" font-family="Helvetica,sans-Serif" font-size="10.00">setup_coulex_</text>
</a>
</g>
</g>
<!-- Node10&#45;&gt;Node13 -->
<g id="edge12" class="edge">
<title>Node10&#45;&gt;Node13</title>
<path fill="none" stroke="midnightblue" d="M489.12,-54.94C509.27,-48.84 536.02,-40.75 560.04,-33.49"/>
<polygon fill="midnightblue" stroke="midnightblue" points="561.23,-36.78 569.79,-30.54 559.2,-30.08 561.23,-36.78"/>
</g>
</g>
</svg>
        <g id="navigator" transform="translate(0 0)" fill="#404254">
                <rect fill="#f2f5e9" fill-opacity="0.5" stroke="#606060" stroke-width=".5" x="0" y="0" width="60" height="60"/>
                <use id="zoomplus" xlink:href="#zoomPlus" x="17" y="9" onmousedown="handleZoom(evt,'in')"/>
                <use id="zoomminus" xlink:href="#zoomMin" x="42" y="9" onmousedown="handleZoom(evt,'out')"/>
                <use id="reset" xlink:href="#resetDef" x="30" y="36" onmousedown="handleReset()"/>
                <g id="arrowUp" xlink:href="#dirArrow" transform="translate(30 24)" onmousedown="handlePan(0,-1)">
                  <use xlink:href="#rim" fill="#404040">
                        <set attributeName="fill" to="#808080" begin="arrowUp.mouseover" end="arrowUp.mouseout"/>
                  </use>
                  <path fill="none" stroke="white" stroke-width="1.5" d="M0,-3.0v7 M-2.5,-0.5L0,-3.0L2.5,-0.5"/>
                </g>
                <g id="arrowRight" xlink:href="#dirArrow" transform="rotate(90) translate(36 -43)" onmousedown="handlePan(1,0)">
                  <use xlink:href="#rim" fill="#404040">
                        <set attributeName="fill" to="#808080" begin="arrowRight.mouseover" end="arrowRight.mouseout"/>
                  </use>
                  <path fill="none" stroke="white" stroke-width="1.5" d="M0,-3.0v7 M-2.5,-0.5L0,-3.0L2.5,-0.5"/>
                </g>
                <g id="arrowDown" xlink:href="#dirArrow" transform="rotate(180) translate(-30 -48)" onmousedown="handlePan(0,1)">
                  <use xlink:href="#rim" fill="#404040">
                        <set attributeName="fill" to="#808080" begin="arrowDown.mouseover" end="arrowDown.mouseout"/>
                  </use>
                  <path fill="none" stroke="white" stroke-width="1.5" d="M0,-3.0v7 M-2.5,-0.5L0,-3.0L2.5,-0.5"/>
                </g>
                <g id="arrowLeft" xlink:href="#dirArrow" transform="rotate(270) translate(-36 17)" onmousedown="handlePan(-1,0)">
                  <use xlink:href="#rim" fill="#404040">
                        <set attributeName="fill" to="#808080" begin="arrowLeft.mouseover" end="arrowLeft.mouseout"/>
                  </use>
                  <path fill="none" stroke="white" stroke-width="1.5" d="M0,-3.0v7 M-2.5,-0.5L0,-3.0L2.5,-0.5"/>
                </g>
        </g>
        <svg viewBox="0 0 15 15" width="100%" height="30px" preserveAspectRatio="xMaxYMin meet">
         <g id="arrow_out" transform="scale(0.3 0.3)">
          <a xlink:href="class_gam_r_1_1_coulex_1_1_coulex_calculation_a4df2a2d0965e337fde3c1c7f2e68e669_cgraph_org.svg" target="_base">
           <rect id="button" ry="5" rx="5" y="6" x="6" height="38" width="38"
                fill="#f2f5e9" fill-opacity="0.5" stroke="#606060" stroke-width="1.0"/>
           <path id="arrow"
             d="M 11.500037,31.436501 C 11.940474,20.09759 22.043105,11.32322 32.158766,21.979434 L 37.068811,17.246167 C 37.068811,17.246167 37.088388,32 37.088388,32 L 22.160133,31.978069 C 22.160133,31.978069 26.997745,27.140456 26.997745,27.140456 C 18.528582,18.264221 13.291696,25.230495 11.500037,31.436501 z"
             style="fill:#404040;"/>
          </a>
         </g>
        </svg>
</svg>
