<?xml version="1.0" encoding="UTF-8" standalone="no"?>
<!DOCTYPE svg PUBLIC "-//W3C//DTD SVG 1.1//EN"
 "http://www.w3.org/Graphics/SVG/1.1/DTD/svg11.dtd">
<!-- Generated by graphviz version 6.0.2 (20221011.1828)
 -->
<!-- Title: GamR::Coulex::CoulexCalculation::ExperimentalSetup Pages: 1 -->
<svg width="899pt" height="588pt"
 viewBox="0.00 0.00 899.00 588.00" xmlns="http://www.w3.org/2000/svg" xmlns:xlink="http://www.w3.org/1999/xlink">
<g id="graph0" class="graph" transform="scale(1 1) rotate(0) translate(4 584)">
<title>GamR::Coulex::CoulexCalculation::ExperimentalSetup</title>
<!-- Node1 -->
<g id="node1" class="node">
<title>Node1</title>
<g id="a_node1"><a xlink:title=" ">
<polygon fill="#999999" stroke="#666666" points="160,-345.5 0,-345.5 0,-315.5 160,-315.5 160,-345.5"/>
<text text-anchor="start" x="8" y="-333.5" font-family="Helvetica,sans-Serif" font-size="10.00">GamR::Coulex::CoulexCalculation</text>
<text text-anchor="middle" x="80" y="-322.5" font-family="Helvetica,sans-Serif" font-size="10.00">::ExperimentalSetup</text>
</a>
</g>
</g>
<!-- Node2 -->
<g id="node2" class="node">
<title>Node2</title>
<g id="a_node2"><a xlink:href="../../dd/d3e/class_gam_r_1_1_coulex_1_1_coulex_calculation.html#acb08f0024d9a247dd0b03169bc5561fd" target="_top" xlink:title=" ">
<polygon fill="white" stroke="#666666" points="356,-487.5 196,-487.5 196,-457.5 356,-457.5 356,-487.5"/>
<text text-anchor="start" x="204" y="-475.5" font-family="Helvetica,sans-Serif" font-size="10.00">GamR::Coulex::CoulexCalculation</text>
<text text-anchor="middle" x="276" y="-464.5" font-family="Helvetica,sans-Serif" font-size="10.00">::SetBeam</text>
</a>
</g>
</g>
<!-- Node1&#45;&gt;Node2 -->
<g id="edge1" class="edge">
<title>Node1&#45;&gt;Node2</title>
<path fill="none" stroke="#63b8ff" d="M95.58,-345.7C116.46,-366.91 156.72,-405.79 196,-432.5 206.93,-439.93 219.44,-446.89 231.22,-452.85"/>
<polygon fill="#63b8ff" stroke="#63b8ff" points="229.96,-456.12 240.48,-457.4 233.05,-449.84 229.96,-456.12"/>
</g>
<!-- Node8 -->
<g id="node8" class="node">
<title>Node8</title>
<g id="a_node8"><a xlink:href="../../dd/d3e/class_gam_r_1_1_coulex_1_1_coulex_calculation.html#acae80ed0264d745708394f63dad5a28f" target="_top" xlink:title=" ">
<polygon fill="white" stroke="#666666" points="356,-249.5 196,-249.5 196,-219.5 356,-219.5 356,-249.5"/>
<text text-anchor="start" x="204" y="-237.5" font-family="Helvetica,sans-Serif" font-size="10.00">GamR::Coulex::CoulexCalculation</text>
<text text-anchor="middle" x="276" y="-226.5" font-family="Helvetica,sans-Serif" font-size="10.00">::SetDetected</text>
</a>
</g>
</g>
<!-- Node1&#45;&gt;Node8 -->
<g id="edge7" class="edge">
<title>Node1&#45;&gt;Node8</title>
<path fill="none" stroke="#63b8ff" d="M101.26,-315.49C123.53,-299.55 160.84,-274.5 196,-258.5 200.15,-256.61 204.48,-254.82 208.9,-253.14"/>
<polygon fill="#63b8ff" stroke="#63b8ff" points="210.43,-256.3 218.64,-249.61 208.05,-249.72 210.43,-256.3"/>
</g>
<!-- Node9 -->
<g id="node9" class="node">
<title>Node9</title>
<g id="a_node9"><a xlink:href="../../dd/d3e/class_gam_r_1_1_coulex_1_1_coulex_calculation.html#ac1a600b3ea06c9c5c6317482a2ea2a30" target="_top" xlink:title=" ">
<polygon fill="white" stroke="#666666" points="356,-201.5 196,-201.5 196,-171.5 356,-171.5 356,-201.5"/>
<text text-anchor="start" x="204" y="-189.5" font-family="Helvetica,sans-Serif" font-size="10.00">GamR::Coulex::CoulexCalculation</text>
<text text-anchor="middle" x="276" y="-178.5" font-family="Helvetica,sans-Serif" font-size="10.00">::SetExcited</text>
</a>
</g>
</g>
<!-- Node1&#45;&gt;Node9 -->
<g id="edge8" class="edge">
<title>Node1&#45;&gt;Node9</title>
<path fill="none" stroke="#63b8ff" d="M91.54,-315.2C109.85,-289.75 150.02,-238.74 196,-210.5 198.66,-208.86 201.44,-207.33 204.31,-205.9"/>
<polygon fill="#63b8ff" stroke="#63b8ff" points="206.01,-208.97 213.67,-201.66 203.11,-202.6 206.01,-208.97"/>
</g>
<!-- Node10 -->
<g id="node10" class="node">
<title>Node10</title>
<g id="a_node10"><a xlink:href="../../dd/d3e/class_gam_r_1_1_coulex_1_1_coulex_calculation.html#ad04858b6cf6ac528e6e56915fe7da556" target="_top" xlink:title=" ">
<polygon fill="white" stroke="#666666" points="356,-423.5 196,-423.5 196,-393.5 356,-393.5 356,-423.5"/>
<text text-anchor="start" x="204" y="-411.5" font-family="Helvetica,sans-Serif" font-size="10.00">GamR::Coulex::CoulexCalculation</text>
<text text-anchor="middle" x="276" y="-400.5" font-family="Helvetica,sans-Serif" font-size="10.00">::SetInterests</text>
</a>
</g>
</g>
<!-- Node1&#45;&gt;Node10 -->
<g id="edge9" class="edge">
<title>Node1&#45;&gt;Node10</title>
<path fill="none" stroke="#63b8ff" d="M118.41,-345.54C149.57,-358.07 194.14,-375.99 227.76,-389.51"/>
<polygon fill="#63b8ff" stroke="#63b8ff" points="226.8,-392.89 237.38,-393.37 229.41,-386.4 226.8,-392.89"/>
</g>
<!-- Node11 -->
<g id="node11" class="node">
<title>Node11</title>
<g id="a_node11"><a xlink:href="../../dd/d3e/class_gam_r_1_1_coulex_1_1_coulex_calculation.html#a46d4f1bd67b5c6c438efd93b9f1e4838" target="_top" xlink:title=" ">
<polygon fill="white" stroke="#666666" points="356,-345.5 196,-345.5 196,-315.5 356,-315.5 356,-345.5"/>
<text text-anchor="start" x="204" y="-333.5" font-family="Helvetica,sans-Serif" font-size="10.00">GamR::Coulex::CoulexCalculation</text>
<text text-anchor="middle" x="276" y="-322.5" font-family="Helvetica,sans-Serif" font-size="10.00">::SetLevelScheme</text>
</a>
</g>
</g>
<!-- Node1&#45;&gt;Node11 -->
<g id="edge11" class="edge">
<title>Node1&#45;&gt;Node11</title>
<path fill="none" stroke="#63b8ff" d="M160.19,-330.5C168.53,-330.5 177.05,-330.5 185.5,-330.5"/>
<polygon fill="#63b8ff" stroke="#63b8ff" points="185.75,-334 195.75,-330.5 185.75,-327 185.75,-334"/>
</g>
<!-- Node25 -->
<g id="node25" class="node">
<title>Node25</title>
<g id="a_node25"><a xlink:href="../../dd/d3e/class_gam_r_1_1_coulex_1_1_coulex_calculation.html#a6c9d40e4bda6ae80b19bfbfd46a0b8fb" target="_top" xlink:title=" ">
<polygon fill="white" stroke="#666666" points="356,-297.5 196,-297.5 196,-267.5 356,-267.5 356,-297.5"/>
<text text-anchor="start" x="204" y="-285.5" font-family="Helvetica,sans-Serif" font-size="10.00">GamR::Coulex::CoulexCalculation</text>
<text text-anchor="middle" x="276" y="-274.5" font-family="Helvetica,sans-Serif" font-size="10.00">::SetParticleDet</text>
</a>
</g>
</g>
<!-- Node1&#45;&gt;Node25 -->
<g id="edge27" class="edge">
<title>Node1&#45;&gt;Node25</title>
<path fill="none" stroke="#63b8ff" d="M141.85,-315.44C161.71,-310.53 183.94,-305.03 204.45,-299.96"/>
<polygon fill="#63b8ff" stroke="#63b8ff" points="205.5,-303.3 214.37,-297.5 203.82,-296.51 205.5,-303.3"/>
</g>
<!-- Node27 -->
<g id="node27" class="node">
<title>Node27</title>
<g id="a_node27"><a xlink:href="../../dd/d3e/class_gam_r_1_1_coulex_1_1_coulex_calculation.html#a2a7d4ff2433572678844223f385bba86" target="_top" xlink:title=" ">
<polygon fill="white" stroke="#666666" points="356,-535.5 196,-535.5 196,-505.5 356,-505.5 356,-535.5"/>
<text text-anchor="start" x="204" y="-523.5" font-family="Helvetica,sans-Serif" font-size="10.00">GamR::Coulex::CoulexCalculation</text>
<text text-anchor="middle" x="276" y="-512.5" font-family="Helvetica,sans-Serif" font-size="10.00">::SetTarget</text>
</a>
</g>
</g>
<!-- Node1&#45;&gt;Node27 -->
<g id="edge30" class="edge">
<title>Node1&#45;&gt;Node27</title>
<path fill="none" stroke="#63b8ff" d="M87.4,-345.9C101.79,-378.67 139.91,-455.61 196,-496.5 198.08,-498.01 200.25,-499.43 202.5,-500.77"/>
<polygon fill="#63b8ff" stroke="#63b8ff" points="201,-503.93 211.48,-505.48 204.25,-497.73 201,-503.93"/>
</g>
<!-- Node3 -->
<g id="node3" class="node">
<title>Node3</title>
<g id="a_node3"><a xlink:href="../../d2/d80/namespace_gam_r_1_1_t_k.html#a8e957f4effbe05201873e6d6caceeacc" target="_top" xlink:title=" ">
<polygon fill="white" stroke="#666666" points="522,-580 405,-580 405,-561 522,-561 522,-580"/>
<text text-anchor="middle" x="463.5" y="-568" font-family="Helvetica,sans-Serif" font-size="10.00">GamR::TK::GetElement</text>
</a>
</g>
</g>
<!-- Node2&#45;&gt;Node3 -->
<g id="edge2" class="edge">
<title>Node2&#45;&gt;Node3</title>
<path fill="none" stroke="#63b8ff" d="M341.05,-487.54C346.35,-490.08 351.43,-493.04 356,-496.5 379.6,-514.34 368,-535.19 392,-552.5 394.06,-553.99 396.24,-555.35 398.49,-556.6"/>
<polygon fill="#63b8ff" stroke="#63b8ff" points="396.99,-559.77 407.53,-560.9 400,-553.44 396.99,-559.77"/>
</g>
<!-- Node4 -->
<g id="node4" class="node">
<title>Node4</title>
<g id="a_node4"><a xlink:href="../../d0/db7/namespace_gam_r_1_1_utils.html#aed2bea4374da5416077fee90a1ebf9e4" target="_top" xlink:title=" ">
<polygon fill="white" stroke="#666666" points="519,-469 408,-469 408,-450 519,-450 519,-469"/>
<text text-anchor="middle" x="463.5" y="-457" font-family="Helvetica,sans-Serif" font-size="10.00">GamR::Utils::GetInput</text>
</a>
</g>
</g>
<!-- Node2&#45;&gt;Node4 -->
<g id="edge3" class="edge">
<title>Node2&#45;&gt;Node4</title>
<path fill="none" stroke="#63b8ff" d="M356.21,-466.95C370.1,-465.98 384.4,-464.97 397.83,-464.03"/>
<polygon fill="#63b8ff" stroke="#63b8ff" points="398.19,-467.52 407.92,-463.33 397.7,-460.53 398.19,-467.52"/>
</g>
<!-- Node6 -->
<g id="node6" class="node">
<title>Node6</title>
<g id="a_node6"><a xlink:href="../../d2/d80/namespace_gam_r_1_1_t_k.html#aa4ba5d5a5ab0b3c595e31d23334e4f90" target="_top" xlink:title=" ">
<polygon fill="white" stroke="#666666" points="511,-543 416,-543 416,-524 511,-524 511,-543"/>
<text text-anchor="middle" x="463.5" y="-531" font-family="Helvetica,sans-Serif" font-size="10.00">GamR::TK::GetZA</text>
</a>
</g>
</g>
<!-- Node2&#45;&gt;Node6 -->
<g id="edge5" class="edge">
<title>Node2&#45;&gt;Node6</title>
<path fill="none" stroke="#63b8ff" d="M331.45,-487.55C339.77,-490.27 348.18,-493.28 356,-496.5 372.73,-503.38 375.12,-508.99 392,-515.5 397.23,-517.52 402.77,-519.37 408.34,-521.07"/>
<polygon fill="#63b8ff" stroke="#63b8ff" points="407.8,-524.55 418.37,-523.94 409.72,-517.82 407.8,-524.55"/>
</g>
<!-- Node7 -->
<g id="node7" class="node">
<title>Node7</title>
<g id="a_node7"><a xlink:href="../../d6/d76/namespace_gam_r_1_1_coulex.html#ace79bcce69203b5740a6b158a40242d5" target="_top" xlink:title=" ">
<polygon fill="white" stroke="#666666" points="530.5,-506 396.5,-506 396.5,-487 530.5,-487 530.5,-506"/>
<text text-anchor="middle" x="463.5" y="-494" font-family="Helvetica,sans-Serif" font-size="10.00">GamR::Coulex::loadSCOEF</text>
</a>
</g>
</g>
<!-- Node2&#45;&gt;Node7 -->
<g id="edge6" class="edge">
<title>Node2&#45;&gt;Node7</title>
<path fill="none" stroke="#63b8ff" d="M356.21,-482.75C366.15,-484.03 376.3,-485.35 386.19,-486.63"/>
<polygon fill="#63b8ff" stroke="#63b8ff" points="386.02,-490.13 396.39,-487.95 386.92,-483.19 386.02,-490.13"/>
</g>
<!-- Node5 -->
<g id="node5" class="node">
<title>Node5</title>
<g id="a_node5"><a xlink:href="../../d0/db7/namespace_gam_r_1_1_utils.html#ad0dc77d5ee1f99355aa36516fa14731d" target="_top" xlink:title=" ">
<polygon fill="white" stroke="#666666" points="697,-474 588,-474 588,-455 697,-455 697,-474"/>
<text text-anchor="middle" x="642.5" y="-462" font-family="Helvetica,sans-Serif" font-size="10.00">GamR::Utils::catcherr</text>
</a>
</g>
</g>
<!-- Node4&#45;&gt;Node5 -->
<g id="edge4" class="edge">
<title>Node4&#45;&gt;Node5</title>
<path fill="none" stroke="#63b8ff" d="M519.05,-461.04C537.56,-461.56 558.41,-462.15 577.58,-462.69"/>
<polygon fill="#63b8ff" stroke="#63b8ff" points="577.64,-466.2 587.74,-462.98 577.84,-459.2 577.64,-466.2"/>
</g>
<!-- Node10&#45;&gt;Node4 -->
<g id="edge10" class="edge">
<title>Node10&#45;&gt;Node4</title>
<path fill="none" stroke="#63b8ff" d="M331.65,-423.53C359.11,-431.07 391.95,-440.1 417.87,-447.23"/>
<polygon fill="#63b8ff" stroke="#63b8ff" points="417.22,-450.68 427.79,-449.96 419.08,-443.93 417.22,-450.68"/>
</g>
<!-- Node11&#45;&gt;Node4 -->
<g id="edge15" class="edge">
<title>Node11&#45;&gt;Node4</title>
<path fill="none" stroke="#63b8ff" d="M304.02,-345.63C320.17,-355.45 340.5,-369.23 356,-384.5 375.77,-403.97 369.78,-418.88 392,-435.5 397.77,-439.81 404.36,-443.38 411.15,-446.33"/>
<polygon fill="#63b8ff" stroke="#63b8ff" points="409.88,-449.59 420.47,-449.98 412.43,-443.08 409.88,-449.59"/>
</g>
<!-- Node12 -->
<g id="node12" class="node">
<title>Node12</title>
<g id="a_node12"><a xlink:href="../../db/d16/class_gam_r_1_1_coulex_1_1_level_scheme.html#a4d570498b70eb607e79cfb8670b25e15" target="_top" xlink:title=" ">
<polygon fill="white" stroke="#666666" points="535,-163.5 392,-163.5 392,-133.5 535,-133.5 535,-163.5"/>
<text text-anchor="start" x="400" y="-151.5" font-family="Helvetica,sans-Serif" font-size="10.00">GamR::Coulex::LevelScheme</text>
<text text-anchor="middle" x="463.5" y="-140.5" font-family="Helvetica,sans-Serif" font-size="10.00">::AddLevel</text>
</a>
</g>
</g>
<!-- Node11&#45;&gt;Node12 -->
<g id="edge12" class="edge">
<title>Node11&#45;&gt;Node12</title>
<path fill="none" stroke="#63b8ff" d="M344.9,-315.32C348.95,-312.81 352.71,-309.9 356,-306.5 398.63,-262.54 350.38,-218.42 392,-173.5 393.36,-172.04 394.81,-170.66 396.33,-169.36"/>
<polygon fill="#63b8ff" stroke="#63b8ff" points="398.4,-172.18 404.5,-163.52 394.33,-166.48 398.4,-172.18"/>
</g>
<!-- Node13 -->
<g id="node13" class="node">
<title>Node13</title>
<g id="a_node13"><a xlink:href="../../db/d16/class_gam_r_1_1_coulex_1_1_level_scheme.html#aab00338f86c0c352793c8f20275fa510" target="_top" xlink:title=" ">
<polygon fill="white" stroke="#666666" points="535,-115.5 392,-115.5 392,-85.5 535,-85.5 535,-115.5"/>
<text text-anchor="start" x="400" y="-103.5" font-family="Helvetica,sans-Serif" font-size="10.00">GamR::Coulex::LevelScheme</text>
<text text-anchor="middle" x="463.5" y="-92.5" font-family="Helvetica,sans-Serif" font-size="10.00">::AddTransition</text>
</a>
</g>
</g>
<!-- Node11&#45;&gt;Node13 -->
<g id="edge13" class="edge">
<title>Node11&#45;&gt;Node13</title>
<path fill="none" stroke="#63b8ff" d="M345.54,-315.34C349.38,-312.83 352.92,-309.9 356,-306.5 411.33,-245.36 337.69,-186.55 392,-124.5 392.75,-123.65 393.52,-122.83 394.33,-122.04"/>
<polygon fill="#63b8ff" stroke="#63b8ff" points="396.65,-124.66 402.26,-115.66 392.27,-119.2 396.65,-124.66"/>
</g>
<!-- Node14 -->
<g id="node14" class="node">
<title>Node14</title>
<g id="a_node14"><a xlink:href="../../d1/d57/class_gam_r_1_1_coulex_1_1_transition.html#a85f89e555d85864ef047c7969560730a" target="_top" xlink:title=" ">
<polygon fill="white" stroke="#666666" points="526,-67.5 401,-67.5 401,-37.5 526,-37.5 526,-67.5"/>
<text text-anchor="start" x="409" y="-55.5" font-family="Helvetica,sans-Serif" font-size="10.00">GamR::Coulex::Transition</text>
<text text-anchor="middle" x="463.5" y="-44.5" font-family="Helvetica,sans-Serif" font-size="10.00">::GetBUp</text>
</a>
</g>
</g>
<!-- Node11&#45;&gt;Node14 -->
<g id="edge14" class="edge">
<title>Node11&#45;&gt;Node14</title>
<path fill="none" stroke="#63b8ff" d="M345.69,-315.48C349.5,-312.93 352.99,-309.96 356,-306.5 423.88,-228.41 325.43,-155.7 392,-76.5 392.73,-75.63 393.49,-74.8 394.28,-73.99"/>
<polygon fill="#63b8ff" stroke="#63b8ff" points="396.62,-76.6 402.1,-67.53 392.16,-71.2 396.62,-76.6"/>
</g>
<!-- Node15 -->
<g id="node15" class="node">
<title>Node15</title>
<g id="a_node15"><a xlink:href="../../db/d16/class_gam_r_1_1_coulex_1_1_level_scheme.html#a0084c39cedee838191658398fa05f16a" target="_top" xlink:title=" ">
<polygon fill="white" stroke="#666666" points="714,-436.5 571,-436.5 571,-406.5 714,-406.5 714,-436.5"/>
<text text-anchor="start" x="579" y="-424.5" font-family="Helvetica,sans-Serif" font-size="10.00">GamR::Coulex::LevelScheme</text>
<text text-anchor="middle" x="642.5" y="-413.5" font-family="Helvetica,sans-Serif" font-size="10.00">::GetLevelByIndex</text>
</a>
</g>
</g>
<!-- Node11&#45;&gt;Node15 -->
<g id="edge16" class="edge">
<title>Node11&#45;&gt;Node15</title>
<path fill="none" stroke="#63b8ff" d="M298.37,-345.63C325.87,-364.78 372.42,-396.06 392,-402.5 446.44,-420.4 511.02,-424.9 560.84,-425.05"/>
<polygon fill="#63b8ff" stroke="#63b8ff" points="560.93,-428.55 570.92,-425.03 560.91,-421.55 560.93,-428.55"/>
</g>
<!-- Node16 -->
<g id="node16" class="node">
<title>Node16</title>
<g id="a_node16"><a xlink:href="../../db/d16/class_gam_r_1_1_coulex_1_1_level_scheme.html#ad1ef2663e6726c2d75a86c0c5f43f1f8" target="_top" xlink:title=" ">
<polygon fill="white" stroke="#666666" points="535,-345.5 392,-345.5 392,-315.5 535,-315.5 535,-345.5"/>
<text text-anchor="start" x="400" y="-333.5" font-family="Helvetica,sans-Serif" font-size="10.00">GamR::Coulex::LevelScheme</text>
<text text-anchor="middle" x="463.5" y="-322.5" font-family="Helvetica,sans-Serif" font-size="10.00">::GetNLevels</text>
</a>
</g>
</g>
<!-- Node11&#45;&gt;Node16 -->
<g id="edge17" class="edge">
<title>Node11&#45;&gt;Node16</title>
<path fill="none" stroke="#63b8ff" d="M356.21,-330.5C364.61,-330.5 373.16,-330.5 381.58,-330.5"/>
<polygon fill="#63b8ff" stroke="#63b8ff" points="381.77,-334 391.77,-330.5 381.77,-327 381.77,-334"/>
</g>
<!-- Node17 -->
<g id="node17" class="node">
<title>Node17</title>
<g id="a_node17"><a xlink:href="../../db/d16/class_gam_r_1_1_coulex_1_1_level_scheme.html#a055821f626f4d274171404aabf5dc60e" target="_top" xlink:title=" ">
<polygon fill="white" stroke="#666666" points="535,-297.5 392,-297.5 392,-267.5 535,-267.5 535,-297.5"/>
<text text-anchor="start" x="400" y="-285.5" font-family="Helvetica,sans-Serif" font-size="10.00">GamR::Coulex::LevelScheme</text>
<text text-anchor="middle" x="463.5" y="-274.5" font-family="Helvetica,sans-Serif" font-size="10.00">::GetNTransitions</text>
</a>
</g>
</g>
<!-- Node11&#45;&gt;Node17 -->
<g id="edge18" class="edge">
<title>Node11&#45;&gt;Node17</title>
<path fill="none" stroke="#63b8ff" d="M335.18,-315.44C354.09,-310.55 375.23,-305.08 394.77,-300.02"/>
<polygon fill="#63b8ff" stroke="#63b8ff" points="395.72,-303.4 404.52,-297.5 393.96,-296.62 395.72,-303.4"/>
</g>
<!-- Node18 -->
<g id="node18" class="node">
<title>Node18</title>
<g id="a_node18"><a xlink:href="../../db/d16/class_gam_r_1_1_coulex_1_1_level_scheme.html#a4b86aa22b5d902bb4bd3a0103744e423" target="_top" xlink:title=" ">
<polygon fill="white" stroke="#666666" points="535,-393.5 392,-393.5 392,-363.5 535,-363.5 535,-393.5"/>
<text text-anchor="start" x="400" y="-381.5" font-family="Helvetica,sans-Serif" font-size="10.00">GamR::Coulex::LevelScheme</text>
<text text-anchor="middle" x="463.5" y="-370.5" font-family="Helvetica,sans-Serif" font-size="10.00">::PrintLevels</text>
</a>
</g>
</g>
<!-- Node11&#45;&gt;Node18 -->
<g id="edge19" class="edge">
<title>Node11&#45;&gt;Node18</title>
<path fill="none" stroke="#63b8ff" d="M335.18,-345.56C354.09,-350.45 375.23,-355.92 394.77,-360.98"/>
<polygon fill="#63b8ff" stroke="#63b8ff" points="393.96,-364.38 404.52,-363.5 395.72,-357.6 393.96,-364.38"/>
</g>
<!-- Node21 -->
<g id="node21" class="node">
<title>Node21</title>
<g id="a_node21"><a xlink:href="../../d1/d57/class_gam_r_1_1_coulex_1_1_transition.html#ad0ac4badb9458504125fb31ed46d33e5" target="_top" xlink:title=" ">
<polygon fill="white" stroke="#666666" points="526,-249.5 401,-249.5 401,-219.5 526,-219.5 526,-249.5"/>
<text text-anchor="start" x="409" y="-237.5" font-family="Helvetica,sans-Serif" font-size="10.00">GamR::Coulex::Transition</text>
<text text-anchor="middle" x="463.5" y="-226.5" font-family="Helvetica,sans-Serif" font-size="10.00">::SetBUp</text>
</a>
</g>
</g>
<!-- Node11&#45;&gt;Node21 -->
<g id="edge23" class="edge">
<title>Node11&#45;&gt;Node21</title>
<path fill="none" stroke="#63b8ff" d="M339.98,-315.47C345.63,-312.92 351.07,-309.95 356,-306.5 377.84,-291.2 370.42,-274.16 392,-258.5 394.06,-257.01 396.22,-255.6 398.45,-254.27"/>
<polygon fill="#63b8ff" stroke="#63b8ff" points="400.16,-257.33 407.37,-249.57 396.89,-251.14 400.16,-257.33"/>
</g>
<!-- Node22 -->
<g id="node22" class="node">
<title>Node22</title>
<g id="a_node22"><a xlink:href="../../d0/d17/_abbreviations_8cc.html#a33328e0e85d36ff8f7f299bb791c5364" target="_top" xlink:title=" ">
<polygon fill="white" stroke="#666666" points="478,-201 449,-201 449,-182 478,-182 478,-201"/>
<text text-anchor="middle" x="463.5" y="-189" font-family="Helvetica,sans-Serif" font-size="10.00">sp</text>
</a>
</g>
</g>
<!-- Node11&#45;&gt;Node22 -->
<g id="edge24" class="edge">
<title>Node11&#45;&gt;Node22</title>
<path fill="none" stroke="#63b8ff" d="M343.79,-315.4C348.21,-312.88 352.34,-309.93 356,-306.5 389.23,-275.32 358.28,-241.15 392,-210.5 404.68,-198.97 423.63,-194.32 438.69,-192.5"/>
<polygon fill="#63b8ff" stroke="#63b8ff" points="439.17,-195.97 448.82,-191.61 438.56,-189 439.17,-195.97"/>
</g>
<!-- Node18&#45;&gt;Node15 -->
<g id="edge20" class="edge">
<title>Node18&#45;&gt;Node15</title>
<path fill="none" stroke="#63b8ff" d="M526.41,-393.54C540.42,-396.94 555.41,-400.59 569.79,-404.08"/>
<polygon fill="#63b8ff" stroke="#63b8ff" points="569.09,-407.51 579.63,-406.47 570.74,-400.71 569.09,-407.51"/>
</g>
<!-- Node19 -->
<g id="node19" class="node">
<title>Node19</title>
<g id="a_node19"><a xlink:href="../../d1/d65/class_gam_r_1_1_coulex_1_1_level.html#a5b8c0227f0d4f75f5e57c58d61b9bf4b" target="_top" xlink:title=" ">
<polygon fill="white" stroke="#666666" points="696,-340.5 589,-340.5 589,-310.5 696,-310.5 696,-340.5"/>
<text text-anchor="start" x="597" y="-328.5" font-family="Helvetica,sans-Serif" font-size="10.00">GamR::Coulex::Level</text>
<text text-anchor="middle" x="642.5" y="-317.5" font-family="Helvetica,sans-Serif" font-size="10.00">::PrintSP</text>
</a>
</g>
</g>
<!-- Node18&#45;&gt;Node19 -->
<g id="edge21" class="edge">
<title>Node18&#45;&gt;Node19</title>
<path fill="none" stroke="#63b8ff" d="M514.75,-363.45C535.49,-357.24 559.7,-349.99 581.37,-343.51"/>
<polygon fill="#63b8ff" stroke="#63b8ff" points="582.55,-346.81 591.13,-340.58 580.54,-340.1 582.55,-346.81"/>
</g>
<!-- Node20 -->
<g id="node20" class="node">
<title>Node20</title>
<g id="a_node20"><a xlink:href="../../db/d16/class_gam_r_1_1_coulex_1_1_level_scheme.html#a807279006620a7c5d147431f72ed5be6" target="_top" xlink:title=" ">
<polygon fill="white" stroke="#666666" points="714,-388.5 571,-388.5 571,-358.5 714,-358.5 714,-388.5"/>
<text text-anchor="start" x="579" y="-376.5" font-family="Helvetica,sans-Serif" font-size="10.00">GamR::Coulex::LevelScheme</text>
<text text-anchor="middle" x="642.5" y="-365.5" font-family="Helvetica,sans-Serif" font-size="10.00">::SetIndices</text>
</a>
</g>
</g>
<!-- Node18&#45;&gt;Node20 -->
<g id="edge22" class="edge">
<title>Node18&#45;&gt;Node20</title>
<path fill="none" stroke="#63b8ff" d="M535.22,-376.5C543.57,-376.27 552.14,-376.02 560.62,-375.78"/>
<polygon fill="#63b8ff" stroke="#63b8ff" points="561,-379.28 570.89,-375.49 560.8,-372.28 561,-379.28"/>
</g>
<!-- Node23 -->
<g id="node23" class="node">
<title>Node23</title>
<g id="a_node23"><a xlink:href="../../dc/d89/namespace_gam_r_1_1_spect.html#a54b953c08bfbe870df0e0c9c6aa23648" target="_top" xlink:title=" ">
<polygon fill="white" stroke="#666666" points="693,-201 592,-201 592,-182 693,-182 693,-201"/>
<text text-anchor="middle" x="642.5" y="-189" font-family="Helvetica,sans-Serif" font-size="10.00">GamR::Spect::Draw</text>
</a>
</g>
</g>
<!-- Node22&#45;&gt;Node23 -->
<g id="edge25" class="edge">
<title>Node22&#45;&gt;Node23</title>
<path fill="none" stroke="#63b8ff" d="M478.09,-191.5C500.07,-191.5 544.68,-191.5 581.75,-191.5"/>
<polygon fill="#63b8ff" stroke="#63b8ff" points="581.98,-195 591.98,-191.5 581.98,-188 581.98,-195"/>
</g>
<!-- Node24 -->
<g id="node24" class="node">
<title>Node24</title>
<g id="a_node24"><a xlink:href="../../dc/d89/namespace_gam_r_1_1_spect.html#a56e80bce5bf691212c8b7dfb76c2d2b4" target="_top" xlink:title=" ">
<polygon fill="white" stroke="#666666" points="891,-201 750,-201 750,-182 891,-182 891,-201"/>
<text text-anchor="middle" x="820.5" y="-189" font-family="Helvetica,sans-Serif" font-size="10.00">GamR::Spect::List1DSpectra</text>
</a>
</g>
</g>
<!-- Node23&#45;&gt;Node24 -->
<g id="edge26" class="edge">
<title>Node23&#45;&gt;Node24</title>
<path fill="none" stroke="#63b8ff" d="M693.46,-191.5C707.8,-191.5 723.81,-191.5 739.48,-191.5"/>
<polygon fill="#63b8ff" stroke="#63b8ff" points="739.7,-195 749.7,-191.5 739.7,-188 739.7,-195"/>
</g>
<!-- Node25&#45;&gt;Node4 -->
<g id="edge29" class="edge">
<title>Node25&#45;&gt;Node4</title>
<path fill="none" stroke="#63b8ff" d="M343.79,-297.6C348.21,-300.12 352.34,-303.07 356,-306.5 389.23,-337.68 365.34,-365.54 392,-402.5 404.12,-419.31 422.43,-433.91 437.34,-444.12"/>
<polygon fill="#63b8ff" stroke="#63b8ff" points="435.83,-447.32 446.11,-449.89 439.68,-441.47 435.83,-447.32"/>
</g>
<!-- Node26 -->
<g id="node26" class="node">
<title>Node26</title>
<g id="a_node26"><a xlink:href="../../d6/d76/namespace_gam_r_1_1_coulex.html#a80c70c5c99095da3a8a10a05513f1d23" target="_top" xlink:title=" ">
<polygon fill="white" stroke="#666666" points="529,-19 398,-19 398,0 529,0 529,-19"/>
<text text-anchor="middle" x="463.5" y="-7" font-family="Helvetica,sans-Serif" font-size="10.00">GamR::Coulex::DrawSetup</text>
</a>
</g>
</g>
<!-- Node25&#45;&gt;Node26 -->
<g id="edge28" class="edge">
<title>Node25&#45;&gt;Node26</title>
<path fill="none" stroke="#63b8ff" d="M345.69,-267.48C349.5,-264.93 352.99,-261.96 356,-258.5 423.88,-180.41 322.89,-105.5 392,-28.5 393.19,-27.17 394.47,-25.93 395.81,-24.77"/>
<polygon fill="#63b8ff" stroke="#63b8ff" points="397.94,-27.56 404.19,-19.01 393.97,-21.79 397.94,-27.56"/>
</g>
<!-- Node27&#45;&gt;Node3 -->
<g id="edge31" class="edge">
<title>Node27&#45;&gt;Node3</title>
<path fill="none" stroke="#63b8ff" d="M330.18,-535.55C349.61,-540.99 371.78,-547.11 392,-552.5 399.3,-554.45 407.03,-556.47 414.6,-558.42"/>
<polygon fill="#63b8ff" stroke="#63b8ff" points="413.85,-561.84 424.41,-560.93 415.59,-555.06 413.85,-561.84"/>
</g>
<!-- Node27&#45;&gt;Node4 -->
<g id="edge32" class="edge">
<title>Node27&#45;&gt;Node4</title>
<path fill="none" stroke="#63b8ff" d="M330.97,-505.44C339.43,-502.69 348.01,-499.68 356,-496.5 372.62,-489.88 375.28,-484.86 392,-478.5 398.29,-476.11 405,-473.89 411.69,-471.88"/>
<polygon fill="#63b8ff" stroke="#63b8ff" points="412.78,-475.21 421.42,-469.08 410.84,-468.48 412.78,-475.21"/>
</g>
<!-- Node27&#45;&gt;Node6 -->
<g id="edge33" class="edge">
<title>Node27&#45;&gt;Node6</title>
<path fill="none" stroke="#63b8ff" d="M356.21,-526.05C372.93,-527.22 390.25,-528.44 405.93,-529.54"/>
<polygon fill="#63b8ff" stroke="#63b8ff" points="405.76,-533.03 415.98,-530.24 406.25,-526.05 405.76,-533.03"/>
</g>
<!-- Node27&#45;&gt;Node7 -->
<g id="edge34" class="edge">
<title>Node27&#45;&gt;Node7</title>
<path fill="none" stroke="#63b8ff" d="M356.21,-510.25C366.15,-508.97 376.3,-507.65 386.19,-506.37"/>
<polygon fill="#63b8ff" stroke="#63b8ff" points="386.92,-509.81 396.39,-505.05 386.02,-502.87 386.92,-509.81"/>
</g>
</g>
</svg>
