<?xml version="1.0" encoding="UTF-8" standalone="no"?>
<!DOCTYPE svg PUBLIC "-//W3C//DTD SVG 1.1//EN"
 "http://www.w3.org/Graphics/SVG/1.1/DTD/svg11.dtd">
<!-- Generated by graphviz version 8.1.0 (20230707.0739)
 -->
<!-- Title: GamR::Coulex::CoulexCalculation::CalcTensor Pages: 1 -->
<svg width="685pt" height="445pt"
 viewBox="0.00 0.00 684.75 445.25" xmlns="http://www.w3.org/2000/svg" xmlns:xlink="http://www.w3.org/1999/xlink">
<g id="graph0" class="graph" transform="scale(1 1) rotate(0) translate(4 441.25)">
<title>GamR::Coulex::CoulexCalculation::CalcTensor</title>
<!-- Node1 -->
<g id="Node000001" class="node">
<title>Node1</title>
<g id="a_Node000001"><a xlink:title=" ">
<polygon fill="#999999" stroke="#666666" points="159.25,-209.88 0,-209.88 0,-179.38 159.25,-179.38 159.25,-209.88"/>
<text text-anchor="start" x="8" y="-196.38" font-family="Helvetica,sans-Serif" font-size="10.00">GamR::Coulex::CoulexCalculation</text>
<text text-anchor="middle" x="79.62" y="-185.12" font-family="Helvetica,sans-Serif" font-size="10.00">::CalcTensor</text>
</a>
</g>
</g>
<!-- Node2 -->
<g id="Node000002" class="node">
<title>Node2</title>
<g id="a_Node000002"><a xlink:href="../../d6/d76/namespace_gam_r_1_1_coulex.html#a5e6e1afc09661da620791f2153bb495d" target="_top" xlink:title=" ">
<polygon fill="white" stroke="#666666" points="327.5,-437.25 217.75,-437.25 217.75,-418 327.5,-418 327.5,-437.25"/>
<text text-anchor="middle" x="272.62" y="-423.75" font-family="Helvetica,sans-Serif" font-size="10.00">GamR::Coulex::ELoss</text>
</a>
</g>
</g>
<!-- Node1&#45;&gt;Node2 -->
<g id="edge1_Node000001_Node000002" class="edge">
<title>Node1&#45;&gt;Node2</title>
<g id="a_edge1_Node000001_Node000002"><a xlink:title=" ">
<path fill="none" stroke="#63b8ff" d="M84.27,-210.11C94.42,-249.74 126.9,-355.42 195.25,-408.62 199.05,-411.58 203.26,-414.09 207.68,-416.21"/>
<polygon fill="#63b8ff" stroke="#63b8ff" points="206.06,-419.73 216.64,-420.26 208.7,-413.25 206.06,-419.73"/>
</a>
</g>
</g>
<!-- Node3 -->
<g id="Node000003" class="node">
<title>Node3</title>
<g id="a_Node000003"><a xlink:href="../../db/d16/class_gam_r_1_1_coulex_1_1_level_scheme.html#a4198739730a0df2ff34745f1361baee5" target="_top" xlink:title=" ">
<polygon fill="white" stroke="#666666" points="343.62,-399.88 201.62,-399.88 201.62,-369.38 343.62,-369.38 343.62,-399.88"/>
<text text-anchor="start" x="209.62" y="-386.38" font-family="Helvetica,sans-Serif" font-size="10.00">GamR::Coulex::LevelScheme</text>
<text text-anchor="middle" x="272.62" y="-375.12" font-family="Helvetica,sans-Serif" font-size="10.00">::GetETransitions</text>
</a>
</g>
</g>
<!-- Node1&#45;&gt;Node3 -->
<g id="edge2_Node000001_Node000003" class="edge">
<title>Node1&#45;&gt;Node3</title>
<g id="a_edge2_Node000001_Node000003"><a xlink:title=" ">
<path fill="none" stroke="#63b8ff" d="M87.3,-210.34C101.97,-243 140.13,-318.59 195.25,-359.62 197.2,-361.08 199.25,-362.45 201.36,-363.75"/>
<polygon fill="#63b8ff" stroke="#63b8ff" points="199.52,-367.27 209.98,-368.94 202.85,-361.11 199.52,-367.27"/>
</a>
</g>
</g>
<!-- Node4 -->
<g id="Node000004" class="node">
<title>Node4</title>
<g id="a_Node000004"><a xlink:href="../../db/d16/class_gam_r_1_1_coulex_1_1_level_scheme.html#a2d7fa95126f4ce5824ce89a869dbf930" target="_top" xlink:title=" ">
<polygon fill="white" stroke="#666666" points="343.62,-350.88 201.62,-350.88 201.62,-320.38 343.62,-320.38 343.62,-350.88"/>
<text text-anchor="start" x="209.62" y="-337.38" font-family="Helvetica,sans-Serif" font-size="10.00">GamR::Coulex::LevelScheme</text>
<text text-anchor="middle" x="272.62" y="-326.12" font-family="Helvetica,sans-Serif" font-size="10.00">::GetLevels</text>
</a>
</g>
</g>
<!-- Node1&#45;&gt;Node4 -->
<g id="edge3_Node000001_Node000004" class="edge">
<title>Node1&#45;&gt;Node4</title>
<g id="a_edge3_Node000001_Node000004"><a xlink:title=" ">
<path fill="none" stroke="#63b8ff" d="M91.91,-210.09C110.68,-234.77 150.7,-283.08 195.25,-310.62 198.01,-312.33 200.9,-313.93 203.87,-315.44"/>
<polygon fill="#63b8ff" stroke="#63b8ff" points="202.03,-318.91 212.58,-319.91 204.96,-312.55 202.03,-318.91"/>
</a>
</g>
</g>
<!-- Node5 -->
<g id="Node000005" class="node">
<title>Node5</title>
<g id="a_Node000005"><a xlink:href="../../db/d16/class_gam_r_1_1_coulex_1_1_level_scheme.html#aa81d5127966d94b8e9eb4da529cc5fbe" target="_top" xlink:title=" ">
<polygon fill="white" stroke="#666666" points="343.62,-301.88 201.62,-301.88 201.62,-271.38 343.62,-271.38 343.62,-301.88"/>
<text text-anchor="start" x="209.62" y="-288.38" font-family="Helvetica,sans-Serif" font-size="10.00">GamR::Coulex::LevelScheme</text>
<text text-anchor="middle" x="272.62" y="-277.12" font-family="Helvetica,sans-Serif" font-size="10.00">::GetMTransitions</text>
</a>
</g>
</g>
<!-- Node1&#45;&gt;Node5 -->
<g id="edge4_Node000001_Node000005" class="edge">
<title>Node1&#45;&gt;Node5</title>
<g id="a_edge4_Node000001_Node000005"><a xlink:title=" ">
<path fill="none" stroke="#63b8ff" d="M103.99,-210.28C126.61,-224.94 162.25,-246.78 195.25,-261.62 199.59,-263.58 204.13,-265.45 208.74,-267.24"/>
<polygon fill="#63b8ff" stroke="#63b8ff" points="207.29,-270.81 217.89,-270.99 209.72,-264.24 207.29,-270.81"/>
</a>
</g>
</g>
<!-- Node6 -->
<g id="Node000006" class="node">
<title>Node6</title>
<g id="a_Node000006"><a xlink:href="../../d6/d76/namespace_gam_r_1_1_coulex.html#a75a76e9e6cd58b5d2dd0792788d32390" target="_top" xlink:title=" ">
<polygon fill="white" stroke="#666666" points="330.12,-252.88 215.12,-252.88 215.12,-222.38 330.12,-222.38 330.12,-252.88"/>
<text text-anchor="start" x="223.12" y="-239.38" font-family="Helvetica,sans-Serif" font-size="10.00">GamR::Coulex::GP_AC</text>
<text text-anchor="middle" x="272.62" y="-228.12" font-family="Helvetica,sans-Serif" font-size="10.00">_Tensors</text>
</a>
</g>
</g>
<!-- Node1&#45;&gt;Node6 -->
<g id="edge5_Node000001_Node000006" class="edge">
<title>Node1&#45;&gt;Node6</title>
<g id="a_edge5_Node000001_Node000006"><a xlink:title=" ">
<path fill="none" stroke="#63b8ff" d="M150.39,-210.33C167.95,-214.29 186.77,-218.52 204.21,-222.45"/>
<polygon fill="#63b8ff" stroke="#63b8ff" points="203.35,-226.07 213.87,-224.85 204.89,-219.24 203.35,-226.07"/>
</a>
</g>
</g>
<!-- Node10 -->
<g id="Node000010" class="node">
<title>Node10</title>
<g id="a_Node000010"><a xlink:href="../../d6/d76/namespace_gam_r_1_1_coulex.html#a8bda628a11d99b6ff94a88a338ffd590" target="_top" xlink:title=" ">
<polygon fill="white" stroke="#666666" points="338,-204.25 207.25,-204.25 207.25,-185 338,-185 338,-204.25"/>
<text text-anchor="middle" x="272.62" y="-190.75" font-family="Helvetica,sans-Serif" font-size="10.00">GamR::Coulex::Kinematics</text>
</a>
</g>
</g>
<!-- Node1&#45;&gt;Node10 -->
<g id="edge9_Node000001_Node000010" class="edge">
<title>Node1&#45;&gt;Node10</title>
<g id="a_edge9_Node000001_Node000010"><a xlink:title=" ">
<path fill="none" stroke="#63b8ff" d="M159.69,-194.62C171.71,-194.62 184.09,-194.62 196.04,-194.62"/>
<polygon fill="#63b8ff" stroke="#63b8ff" points="195.86,-198.13 205.86,-194.62 195.86,-191.13 195.86,-198.13"/>
</a>
</g>
</g>
<!-- Node11 -->
<g id="Node000011" class="node">
<title>Node11</title>
<g id="a_Node000011"><a xlink:href="../../d6/d76/namespace_gam_r_1_1_coulex.html#ace79bcce69203b5740a6b158a40242d5" target="_top" xlink:title=" ">
<polygon fill="white" stroke="#666666" points="339.12,-167.25 206.12,-167.25 206.12,-148 339.12,-148 339.12,-167.25"/>
<text text-anchor="middle" x="272.62" y="-153.75" font-family="Helvetica,sans-Serif" font-size="10.00">GamR::Coulex::loadSCOEF</text>
</a>
</g>
</g>
<!-- Node1&#45;&gt;Node11 -->
<g id="edge10_Node000001_Node000011" class="edge">
<title>Node1&#45;&gt;Node11</title>
<g id="a_edge10_Node000001_Node000011"><a xlink:title=" ">
<path fill="none" stroke="#63b8ff" d="M159.69,-179.31C176.12,-176.13 193.21,-172.81 208.95,-169.77"/>
<polygon fill="#63b8ff" stroke="#63b8ff" points="209.46,-173.04 218.61,-167.7 208.13,-166.17 209.46,-173.04"/>
</a>
</g>
</g>
<!-- Node12 -->
<g id="Node000012" class="node">
<title>Node12</title>
<g id="a_Node000012"><a xlink:href="../../da/dfc/class_gam_r_1_1_ang_dist_1_1_stat_tensor.html#a601edccee805ff4cf763bd8c8b7a6c6f" target="_top" xlink:title=" ">
<polygon fill="white" stroke="#666666" points="350,-130.25 195.25,-130.25 195.25,-111 350,-111 350,-130.25"/>
<text text-anchor="middle" x="272.62" y="-116.75" font-family="Helvetica,sans-Serif" font-size="10.00">GamR::AngDist::StatTensor::Set</text>
</a>
</g>
</g>
<!-- Node1&#45;&gt;Node12 -->
<g id="edge11_Node000001_Node000012" class="edge">
<title>Node1&#45;&gt;Node12</title>
<g id="a_edge11_Node000001_Node000012"><a xlink:title=" ">
<path fill="none" stroke="#63b8ff" d="M108.13,-179.02C130.89,-166.64 164.38,-149.65 195.25,-138.62 200.41,-136.78 205.83,-135.07 211.31,-133.5"/>
<polygon fill="#63b8ff" stroke="#63b8ff" points="212.11,-136.64 220.85,-130.66 210.29,-129.89 212.11,-136.64"/>
</a>
</g>
</g>
<!-- Node13 -->
<g id="Node000013" class="node">
<title>Node13</title>
<g id="a_Node000013"><a xlink:href="../../d6/d76/namespace_gam_r_1_1_coulex.html#a97f94193e8a27067bda39495a4f4e005" target="_top" xlink:title=" ">
<polygon fill="white" stroke="#666666" points="339.5,-93.25 205.75,-93.25 205.75,-74 339.5,-74 339.5,-93.25"/>
<text text-anchor="middle" x="272.62" y="-79.75" font-family="Helvetica,sans-Serif" font-size="10.00">GamR::Coulex::setupcoulex</text>
</a>
</g>
</g>
<!-- Node1&#45;&gt;Node13 -->
<g id="edge12_Node000001_Node000013" class="edge">
<title>Node1&#45;&gt;Node13</title>
<g id="a_edge12_Node000001_Node000013"><a xlink:title=" ">
<path fill="none" stroke="#63b8ff" d="M95.35,-178.88C115.77,-158.01 154.77,-121.51 195.25,-101.62 198.43,-100.06 201.75,-98.63 205.15,-97.32"/>
<polygon fill="#63b8ff" stroke="#63b8ff" points="206.22,-100.31 214.54,-93.75 203.94,-93.7 206.22,-100.31"/>
</a>
</g>
</g>
<!-- Node19 -->
<g id="Node000019" class="node">
<title>Node19</title>
<g id="a_Node000019"><a xlink:href="../../d0/db7/namespace_gam_r_1_1_utils.html#ace3f0394455ab3d454776c11e1573a1a" target="_top" xlink:title=" ">
<polygon fill="white" stroke="#666666" points="323,-56.25 222.25,-56.25 222.25,-37 323,-37 323,-56.25"/>
<text text-anchor="middle" x="272.62" y="-42.75" font-family="Helvetica,sans-Serif" font-size="10.00">GamR::Utils::Simps</text>
</a>
</g>
</g>
<!-- Node1&#45;&gt;Node19 -->
<g id="edge18_Node000001_Node000019" class="edge">
<title>Node1&#45;&gt;Node19</title>
<g id="a_edge18_Node000001_Node000019"><a xlink:title=" ">
<path fill="none" stroke="#63b8ff" d="M89.77,-179.02C106.82,-151.39 146.21,-94.01 195.25,-64.62 200.29,-61.61 205.8,-59.09 211.48,-57"/>
<polygon fill="#63b8ff" stroke="#63b8ff" points="212.37,-60.07 220.81,-53.67 210.22,-53.41 212.37,-60.07"/>
</a>
</g>
</g>
<!-- Node20 -->
<g id="Node000020" class="node">
<title>Node20</title>
<g id="a_Node000020"><a xlink:href="../../d6/d76/namespace_gam_r_1_1_coulex.html#acdb93d9857283604c5d8106d50290b02" target="_top" xlink:title=" ">
<polygon fill="white" stroke="#666666" points="325.25,-19.25 220,-19.25 220,0 325.25,0 325.25,-19.25"/>
<text text-anchor="middle" x="272.62" y="-5.75" font-family="Helvetica,sans-Serif" font-size="10.00">GamR::Coulex::xcmlr</text>
</a>
</g>
</g>
<!-- Node1&#45;&gt;Node20 -->
<g id="edge19_Node000001_Node000020" class="edge">
<title>Node1&#45;&gt;Node20</title>
<g id="a_edge19_Node000001_Node000020"><a xlink:title=" ">
<path fill="none" stroke="#63b8ff" d="M86.66,-179.1C100.46,-145.75 137.65,-67.06 195.25,-27.62 199.7,-24.58 204.61,-22.04 209.71,-19.93"/>
<polygon fill="#63b8ff" stroke="#63b8ff" points="210.47,-23.02 218.72,-16.38 208.13,-16.43 210.47,-23.02"/>
</a>
</g>
</g>
<!-- Node7 -->
<g id="Node000007" class="node">
<title>Node7</title>
<g id="a_Node000007"><a xlink:href="../../d7/de5/namespace_gam_r_1_1_coulex_1_1_w_d_b.html#a1d67a1924aa8e24388857db043e61077" target="_top" xlink:title=" ">
<polygon fill="white" stroke="#666666" points="509.62,-301.88 400.62,-301.88 400.62,-271.38 509.62,-271.38 509.62,-301.88"/>
<text text-anchor="start" x="408.62" y="-288.38" font-family="Helvetica,sans-Serif" font-size="10.00">GamR::Coulex::WDB::</text>
<text text-anchor="middle" x="455.12" y="-277.12" font-family="Helvetica,sans-Serif" font-size="10.00">coulex_</text>
</a>
</g>
</g>
<!-- Node6&#45;&gt;Node7 -->
<g id="edge6_Node000006_Node000007" class="edge">
<title>Node6&#45;&gt;Node7</title>
<g id="a_edge6_Node000006_Node000007"><a xlink:title=" ">
<path fill="none" stroke="#63b8ff" d="M330.24,-252.99C349.08,-258.11 370.21,-263.84 389.6,-269.11"/>
<polygon fill="#63b8ff" stroke="#63b8ff" points="388.61,-272.74 399.18,-271.98 390.44,-265.98 388.61,-272.74"/>
</a>
</g>
</g>
<!-- Node8 -->
<g id="Node000008" class="node">
<title>Node8</title>
<g id="a_Node000008"><a xlink:href="../../d7/de5/namespace_gam_r_1_1_coulex_1_1_w_d_b.html#a8b2acc4816ac3e85ad57c8a59a66b1c9" target="_top" xlink:title=" ">
<polygon fill="white" stroke="#666666" points="509.62,-252.88 400.62,-252.88 400.62,-222.38 509.62,-222.38 509.62,-252.88"/>
<text text-anchor="start" x="408.62" y="-239.38" font-family="Helvetica,sans-Serif" font-size="10.00">GamR::Coulex::WDB::</text>
<text text-anchor="middle" x="455.12" y="-228.12" font-family="Helvetica,sans-Serif" font-size="10.00">coulparcm_</text>
</a>
</g>
</g>
<!-- Node6&#45;&gt;Node8 -->
<g id="edge7_Node000006_Node000008" class="edge">
<title>Node6&#45;&gt;Node8</title>
<g id="a_edge7_Node000006_Node000008"><a xlink:title=" ">
<path fill="none" stroke="#63b8ff" d="M330.24,-237.62C349,-237.62 370.01,-237.62 389.33,-237.62"/>
<polygon fill="#63b8ff" stroke="#63b8ff" points="389.18,-241.13 399.18,-237.62 389.18,-234.13 389.18,-241.13"/>
</a>
</g>
</g>
<!-- Node9 -->
<g id="Node000009" class="node">
<title>Node9</title>
<g id="a_Node000009"><a xlink:href="../../d7/de5/namespace_gam_r_1_1_coulex_1_1_w_d_b.html#af53e47c5f8112000a9e1787244c0fd04" target="_top" xlink:title=" ">
<polygon fill="white" stroke="#666666" points="509.62,-203.88 400.62,-203.88 400.62,-173.38 509.62,-173.38 509.62,-203.88"/>
<text text-anchor="start" x="408.62" y="-190.38" font-family="Helvetica,sans-Serif" font-size="10.00">GamR::Coulex::WDB::</text>
<text text-anchor="middle" x="455.12" y="-179.12" font-family="Helvetica,sans-Serif" font-size="10.00">getcoulex_</text>
</a>
</g>
</g>
<!-- Node6&#45;&gt;Node9 -->
<g id="edge8_Node000006_Node000009" class="edge">
<title>Node6&#45;&gt;Node9</title>
<g id="a_edge8_Node000006_Node000009"><a xlink:title=" ">
<path fill="none" stroke="#63b8ff" d="M330.24,-222.26C349.08,-217.14 370.21,-211.41 389.6,-206.14"/>
<polygon fill="#63b8ff" stroke="#63b8ff" points="390.44,-209.27 399.18,-203.27 388.61,-202.51 390.44,-209.27"/>
</a>
</g>
</g>
<!-- Node14 -->
<g id="Node000014" class="node">
<title>Node14</title>
<g id="a_Node000014"><a xlink:href="../../d6/d76/namespace_gam_r_1_1_coulex.html#ad94f425f805a30d355c0c5d04b4736c4" target="_top" xlink:title=" ">
<polygon fill="white" stroke="#666666" points="524.25,-111.25 386,-111.25 386,-92 524.25,-92 524.25,-111.25"/>
<text text-anchor="middle" x="455.12" y="-97.75" font-family="Helvetica,sans-Serif" font-size="10.00">GamR::Coulex::MakeDatafile</text>
</a>
</g>
</g>
<!-- Node13&#45;&gt;Node14 -->
<g id="edge13_Node000013_Node000014" class="edge">
<title>Node13&#45;&gt;Node14</title>
<g id="a_edge13_Node000013_Node000014"><a xlink:title=" ">
<path fill="none" stroke="#63b8ff" d="M339.81,-90.23C351.21,-91.36 363.17,-92.55 374.87,-93.72"/>
<polygon fill="#63b8ff" stroke="#63b8ff" points="374.23,-97.27 384.52,-94.78 374.92,-90.31 374.23,-97.27"/>
</a>
</g>
</g>
<!-- Node15 -->
<g id="Node000015" class="node">
<title>Node15</title>
<g id="a_Node000015"><a xlink:href="../../d6/d76/namespace_gam_r_1_1_coulex.html#a2f7b899a42bd6a1e2df9d55d26449acc" target="_top" xlink:title=" ">
<polygon fill="white" stroke="#666666" points="523.5,-74.25 386.75,-74.25 386.75,-55 523.5,-55 523.5,-74.25"/>
<text text-anchor="middle" x="455.12" y="-60.75" font-family="Helvetica,sans-Serif" font-size="10.00">GamR::Coulex::ReadDatafile</text>
</a>
</g>
</g>
<!-- Node13&#45;&gt;Node15 -->
<g id="edge14_Node000013_Node000015" class="edge">
<title>Node13&#45;&gt;Node15</title>
<g id="a_edge14_Node000013_Node000015"><a xlink:title=" ">
<path fill="none" stroke="#63b8ff" d="M339.81,-76.66C351.44,-75.43 363.65,-74.15 375.58,-72.89"/>
<polygon fill="#63b8ff" stroke="#63b8ff" points="375.86,-76.28 385.43,-71.75 375.12,-69.32 375.86,-76.28"/>
</a>
</g>
</g>
<!-- Node16 -->
<g id="Node000016" class="node">
<title>Node16</title>
<g id="a_Node000016"><a xlink:href="../../d0/db7/namespace_gam_r_1_1_utils.html#a37f21bdeb0aebbff06a00907a11ffe39" target="_top" xlink:title=" ">
<polygon fill="white" stroke="#666666" points="676.75,-117.25 560.25,-117.25 560.25,-98 676.75,-98 676.75,-117.25"/>
<text text-anchor="middle" x="618.5" y="-103.75" font-family="Helvetica,sans-Serif" font-size="10.00">GamR::Utils::c_to_f_str</text>
</a>
</g>
</g>
<!-- Node15&#45;&gt;Node16 -->
<g id="edge15_Node000015_Node000016" class="edge">
<title>Node15&#45;&gt;Node16</title>
<g id="a_edge15_Node000015_Node000016"><a xlink:title=" ">
<path fill="none" stroke="#63b8ff" d="M494.32,-74.69C504.08,-77.27 514.56,-80.04 524.25,-82.62 539.11,-86.58 555.29,-90.91 569.94,-94.84"/>
<polygon fill="#63b8ff" stroke="#63b8ff" points="568.73,-98.41 579.3,-97.62 570.55,-91.65 568.73,-98.41"/>
</a>
</g>
</g>
<!-- Node17 -->
<g id="Node000017" class="node">
<title>Node17</title>
<g id="a_Node000017"><a xlink:href="../../d7/de5/namespace_gam_r_1_1_coulex_1_1_w_d_b.html#abb1e2f0523cadaff7200a74381f21048" target="_top" xlink:title=" ">
<polygon fill="white" stroke="#666666" points="673,-79.88 564,-79.88 564,-49.38 673,-49.38 673,-79.88"/>
<text text-anchor="start" x="572" y="-66.38" font-family="Helvetica,sans-Serif" font-size="10.00">GamR::Coulex::WDB::</text>
<text text-anchor="middle" x="618.5" y="-55.12" font-family="Helvetica,sans-Serif" font-size="10.00">freader_</text>
</a>
</g>
</g>
<!-- Node15&#45;&gt;Node17 -->
<g id="edge16_Node000015_Node000017" class="edge">
<title>Node15&#45;&gt;Node17</title>
<g id="a_edge16_Node000015_Node000017"><a xlink:title=" ">
<path fill="none" stroke="#63b8ff" d="M523.63,-64.62C533.19,-64.62 543,-64.62 552.51,-64.62"/>
<polygon fill="#63b8ff" stroke="#63b8ff" points="552.51,-68.13 562.51,-64.62 552.5,-61.13 552.51,-68.13"/>
</a>
</g>
</g>
<!-- Node18 -->
<g id="Node000018" class="node">
<title>Node18</title>
<g id="a_Node000018"><a xlink:href="../../d7/de5/namespace_gam_r_1_1_coulex_1_1_w_d_b.html#a60ace2f38b0953aeb7bd0df9b723478e" target="_top" xlink:title=" ">
<polygon fill="white" stroke="#666666" points="673,-30.88 564,-30.88 564,-0.37 673,-0.37 673,-30.88"/>
<text text-anchor="start" x="572" y="-17.38" font-family="Helvetica,sans-Serif" font-size="10.00">GamR::Coulex::WDB::</text>
<text text-anchor="middle" x="618.5" y="-6.12" font-family="Helvetica,sans-Serif" font-size="10.00">setup_coulex_</text>
</a>
</g>
</g>
<!-- Node15&#45;&gt;Node18 -->
<g id="edge17_Node000015_Node000018" class="edge">
<title>Node15&#45;&gt;Node18</title>
<g id="a_edge17_Node000015_Node000018"><a xlink:title=" ">
<path fill="none" stroke="#63b8ff" d="M489.17,-54.59C508.2,-48.81 532.73,-41.37 555.24,-34.53"/>
<polygon fill="#63b8ff" stroke="#63b8ff" points="556.2,-37.59 564.75,-31.34 554.17,-30.89 556.2,-37.59"/>
</a>
</g>
</g>
</g>
</svg>
