<?xml version="1.0" encoding="UTF-8" standalone="no"?>
<!DOCTYPE svg PUBLIC "-//W3C//DTD SVG 1.1//EN"
 "http://www.w3.org/Graphics/SVG/1.1/DTD/svg11.dtd">
<!-- Generated by graphviz version 2.50.0 (20220203.2022)
 -->
<!-- Title: GamR::Tree::TDetector::TDetector Pages: 1 -->
<svg width="569pt" height="137pt"
 viewBox="0.00 0.00 569.00 137.00" xmlns="http://www.w3.org/2000/svg" xmlns:xlink="http://www.w3.org/1999/xlink">
<g id="graph0" class="graph" transform="scale(1 1) rotate(0) translate(4 133)">
<title>GamR::Tree::TDetector::TDetector</title>
<polygon fill="white" stroke="transparent" points="-4,4 -4,-133 565,-133 565,4 -4,4"/>
<!-- Node1 -->
<g id="node1" class="node">
<title>Node1</title>
<g id="a_node1"><a xlink:title=" ">
<polygon fill="#bfbfbf" stroke="black" points="0,-49.5 0,-79.5 116,-79.5 116,-49.5 0,-49.5"/>
<text text-anchor="start" x="8" y="-67.5" font-family="Helvetica,sans-Serif" font-size="10.00">GamR::Tree::TDetector</text>
<text text-anchor="middle" x="58" y="-56.5" font-family="Helvetica,sans-Serif" font-size="10.00">::TDetector</text>
</a>
</g>
</g>
<!-- Node2 -->
<g id="node2" class="node">
<title>Node2</title>
<g id="a_node2"><a xlink:href="../../d4/d79/class_gam_r_1_1_tree_1_1_t_det_defn.html#a70d0e35cffd2b1eee9b2313a5ce5f35b" target="_top" xlink:title=" ">
<polygon fill="white" stroke="black" points="152,-98.5 152,-128.5 266,-128.5 266,-98.5 152,-98.5"/>
<text text-anchor="start" x="160" y="-116.5" font-family="Helvetica,sans-Serif" font-size="10.00">GamR::Tree::TDetDefn</text>
<text text-anchor="middle" x="209" y="-105.5" font-family="Helvetica,sans-Serif" font-size="10.00">::GetAllDatums</text>
</a>
</g>
</g>
<!-- Node1&#45;&gt;Node2 -->
<g id="edge1" class="edge">
<title>Node1&#45;&gt;Node2</title>
<path fill="none" stroke="midnightblue" d="M104.92,-79.6C120,-84.56 136.93,-90.13 152.64,-95.29"/>
<polygon fill="midnightblue" stroke="midnightblue" points="151.64,-98.65 162.23,-98.45 153.82,-92 151.64,-98.65"/>
</g>
<!-- Node5 -->
<g id="node5" class="node">
<title>Node5</title>
<g id="a_node5"><a xlink:href="../../d4/d79/class_gam_r_1_1_tree_1_1_t_det_defn.html#a975e4d51ef11c887736f9a870fefa704" target="_top" xlink:title=" ">
<polygon fill="white" stroke="black" points="152,-49.5 152,-79.5 266,-79.5 266,-49.5 152,-49.5"/>
<text text-anchor="start" x="160" y="-67.5" font-family="Helvetica,sans-Serif" font-size="10.00">GamR::Tree::TDetDefn</text>
<text text-anchor="middle" x="209" y="-56.5" font-family="Helvetica,sans-Serif" font-size="10.00">::GetEfficiency</text>
</a>
</g>
</g>
<!-- Node1&#45;&gt;Node5 -->
<g id="edge4" class="edge">
<title>Node1&#45;&gt;Node5</title>
<path fill="none" stroke="midnightblue" d="M116.18,-64.5C124.47,-64.5 133.05,-64.5 141.5,-64.5"/>
<polygon fill="midnightblue" stroke="midnightblue" points="141.71,-68 151.71,-64.5 141.71,-61 141.71,-68"/>
</g>
<!-- Node6 -->
<g id="node6" class="node">
<title>Node6</title>
<g id="a_node6"><a xlink:href="../../d4/d79/class_gam_r_1_1_tree_1_1_t_det_defn.html#af4fc4e76e0097dbf5520cdc6f357584d" target="_top" xlink:title=" ">
<polygon fill="white" stroke="black" points="152,-0.5 152,-30.5 266,-30.5 266,-0.5 152,-0.5"/>
<text text-anchor="start" x="160" y="-18.5" font-family="Helvetica,sans-Serif" font-size="10.00">GamR::Tree::TDetDefn</text>
<text text-anchor="middle" x="209" y="-7.5" font-family="Helvetica,sans-Serif" font-size="10.00">::GetID</text>
</a>
</g>
</g>
<!-- Node1&#45;&gt;Node6 -->
<g id="edge5" class="edge">
<title>Node1&#45;&gt;Node6</title>
<path fill="none" stroke="midnightblue" d="M104.92,-49.4C120,-44.44 136.93,-38.87 152.64,-33.71"/>
<polygon fill="midnightblue" stroke="midnightblue" points="153.82,-37 162.23,-30.55 151.64,-30.35 153.82,-37"/>
</g>
<!-- Node3 -->
<g id="node3" class="node">
<title>Node3</title>
<g id="a_node3"><a xlink:href="../../d4/d79/class_gam_r_1_1_tree_1_1_t_det_defn.html#ab07152fb360c8aed5fa35ef70a253ba1" target="_top" xlink:title=" ">
<polygon fill="white" stroke="black" points="302,-98.5 302,-128.5 416,-128.5 416,-98.5 302,-98.5"/>
<text text-anchor="start" x="310" y="-116.5" font-family="Helvetica,sans-Serif" font-size="10.00">GamR::Tree::TDetDefn</text>
<text text-anchor="middle" x="359" y="-105.5" font-family="Helvetica,sans-Serif" font-size="10.00">::Calibrate</text>
</a>
</g>
</g>
<!-- Node2&#45;&gt;Node3 -->
<g id="edge2" class="edge">
<title>Node2&#45;&gt;Node3</title>
<path fill="none" stroke="midnightblue" d="M266.37,-113.5C274.62,-113.5 283.18,-113.5 291.6,-113.5"/>
<polygon fill="midnightblue" stroke="midnightblue" points="291.78,-117 301.78,-113.5 291.78,-110 291.78,-117"/>
</g>
<!-- Node4 -->
<g id="node4" class="node">
<title>Node4</title>
<g id="a_node4"><a xlink:href="../../d0/db7/namespace_gam_r_1_1_utils.html#a6a625e83f7fe144617cb2d4ab7acb6f8" target="_top" xlink:title="Applies function taking both elements of tuple as arguments.">
<polygon fill="white" stroke="black" points="452,-98.5 452,-128.5 561,-128.5 561,-98.5 452,-98.5"/>
<text text-anchor="start" x="460" y="-116.5" font-family="Helvetica,sans-Serif" font-size="10.00">GamR::Utils::for_both</text>
<text text-anchor="middle" x="506.5" y="-105.5" font-family="Helvetica,sans-Serif" font-size="10.00">_in_tuple</text>
</a>
</g>
</g>
<!-- Node3&#45;&gt;Node4 -->
<g id="edge3" class="edge">
<title>Node3&#45;&gt;Node4</title>
<path fill="none" stroke="midnightblue" d="M416.25,-113.5C424.55,-113.5 433.16,-113.5 441.6,-113.5"/>
<polygon fill="midnightblue" stroke="midnightblue" points="441.78,-117 451.78,-113.5 441.78,-110 441.78,-117"/>
</g>
</g>
</svg>
