<?xml version="1.0" encoding="UTF-8" standalone="no"?>
<!DOCTYPE svg PUBLIC "-//W3C//DTD SVG 1.1//EN"
 "http://www.w3.org/Graphics/SVG/1.1/DTD/svg11.dtd">
<!-- Generated by graphviz version 12.2.1 (20241206.2353)
 -->
<!-- Title: GamR::Coulex::CoulexCalculation Pages: 1 -->
<!--zoomable 1625 -->

<svg id="main" version="1.1" xmlns="http://www.w3.org/2000/svg" xmlns:xlink="http://www.w3.org/1999/xlink" xml:space="preserve" onload="init(evt)">

<style type="text/css"><![CDATA[
.node, .edge {opacity: 0.7;}
.node.selected, .edge.selected {opacity: 1;}
.edge:hover path { stroke: red; }
.edge:hover polygon { stroke: red; fill: red; }
]]></style>

<defs>
  <circle id="rim" cx="0" cy="0" r="7"/>
  <circle id="rim2" cx="0" cy="0" r="3.5"/>
  <g id="zoomPlus">
    <use xlink:href="#rim" fill="#404040"><set attributeName="fill" to="#808080" begin="zoomplus.mouseover" end="zoomplus.mouseout"/></use>
    <path d="M-4,0h8M0,-4v8" fill="none" stroke="white" stroke-width="1.5" pointer-events="none"/>
  </g>
  <g id="zoomMin">
    <use xlink:href="#rim" fill="#404040"><set attributeName="fill" to="#808080" begin="zoomminus.mouseover" end="zoomminus.mouseout"/></use>
    <path d="M-4,0h8" fill="none" stroke="white" stroke-width="1.5" pointer-events="none"/>
  </g>
  <g id="arrowUp" transform="translate(30 24)">
    <use xlink:href="#rim"/>
    <path pointer-events="none" fill="none" stroke="white" stroke-width="1.5" d="M0,-3.0v7 M-2.5,-0.5L0,-3.0L2.5,-0.5"/>
  </g>
  <g id="arrowRight" transform="rotate(90) translate(36 -43)">
    <use xlink:href="#rim"/>
    <path pointer-events="none" fill="none" stroke="white" stroke-width="1.5" d="M0,-3.0v7 M-2.5,-0.5L0,-3.0L2.5,-0.5"/>
  </g>
  <g id="arrowDown" transform="rotate(180) translate(-30 -48)">
    <use xlink:href="#rim"/>
    <path pointer-events="none" fill="none" stroke="white" stroke-width="1.5" d="M0,-3.0v7 M-2.5,-0.5L0,-3.0L2.5,-0.5"/>
  </g>
  <g id="arrowLeft" transform="rotate(270) translate(-36 17)">
    <use xlink:href="#rim"/>
    <path pointer-events="none" fill="none" stroke="white" stroke-width="1.5" d="M0,-3.0v7 M-2.5,-0.5L0,-3.0L2.5,-0.5"/>
  </g>
  <g id="resetDef">
    <use xlink:href="#rim2" fill="#404040"><set attributeName="fill" to="#808080" begin="reset.mouseover" end="reset.mouseout"/></use>
  </g>
</defs>
<script type="application/ecmascript">
var viewWidth = 556;
var viewHeight = 1625;
var sectionId = 'dynsection-0';
</script>
<script type="application/ecmascript" xlink:href="../../svg.min.js"/>
<svg id="graph" class="graph">
<g id="viewport">
<title>GamR::Coulex::CoulexCalculation</title>
<!-- Node1 -->
<g id="Node000001" class="node">
<title>Node1</title>
<g id="a_Node000001"><a xlink:title=" ">
<polygon fill="#999999" stroke="none" points="325.38,-400.5 174.12,-400.5 174.12,0 325.38,0 325.38,-400.5"/>
<text text-anchor="start" x="178.12" y="-387" font-family="Helvetica,sans-Serif" font-size="10.00">GamR::Coulex::CoulexCalculation</text>
<text text-anchor="start" x="189.12" y="-371.75" font-family="Helvetica,sans-Serif" font-size="10.00">+</text>
<text text-anchor="start" x="210.12" y="-371.75" font-family="Helvetica,sans-Serif" font-size="10.00">fDetected</text>
<text text-anchor="start" x="189.12" y="-356.5" font-family="Helvetica,sans-Serif" font-size="10.00">+</text>
<text text-anchor="start" x="210.12" y="-356.5" font-family="Helvetica,sans-Serif" font-size="10.00">fExcited</text>
<text text-anchor="start" x="189.12" y="-341.25" font-family="Helvetica,sans-Serif" font-size="10.00">+</text>
<text text-anchor="start" x="210.12" y="-341.25" font-family="Helvetica,sans-Serif" font-size="10.00">fBeamEnergy</text>
<text text-anchor="start" x="189.12" y="-326" font-family="Helvetica,sans-Serif" font-size="10.00">+</text>
<text text-anchor="start" x="210.12" y="-326" font-family="Helvetica,sans-Serif" font-size="10.00">fLevelOfInterest</text>
<text text-anchor="start" x="189.12" y="-310.75" font-family="Helvetica,sans-Serif" font-size="10.00">+</text>
<text text-anchor="start" x="210.12" y="-310.75" font-family="Helvetica,sans-Serif" font-size="10.00">fTransitionOfInterest</text>
<text text-anchor="start" x="189.12" y="-295.5" font-family="Helvetica,sans-Serif" font-size="10.00">+</text>
<text text-anchor="start" x="210.12" y="-295.5" font-family="Helvetica,sans-Serif" font-size="10.00">SetBeam()</text>
<text text-anchor="start" x="189.12" y="-280.25" font-family="Helvetica,sans-Serif" font-size="10.00">+</text>
<text text-anchor="start" x="210.12" y="-280.25" font-family="Helvetica,sans-Serif" font-size="10.00">SetBeam()</text>
<text text-anchor="start" x="189.12" y="-265" font-family="Helvetica,sans-Serif" font-size="10.00">+</text>
<text text-anchor="start" x="210.12" y="-265" font-family="Helvetica,sans-Serif" font-size="10.00">SetTarget()</text>
<text text-anchor="start" x="189.12" y="-249.75" font-family="Helvetica,sans-Serif" font-size="10.00">+</text>
<text text-anchor="start" x="210.12" y="-249.75" font-family="Helvetica,sans-Serif" font-size="10.00">SetTarget()</text>
<text text-anchor="start" x="189.12" y="-234.5" font-family="Helvetica,sans-Serif" font-size="10.00">+</text>
<text text-anchor="start" x="210.12" y="-234.5" font-family="Helvetica,sans-Serif" font-size="10.00">SetDetected()</text>
<text text-anchor="start" x="189.12" y="-219.25" font-family="Helvetica,sans-Serif" font-size="10.00">+</text>
<text text-anchor="start" x="210.12" y="-219.25" font-family="Helvetica,sans-Serif" font-size="10.00">SetExcited()</text>
<text text-anchor="start" x="189.12" y="-204" font-family="Helvetica,sans-Serif" font-size="10.00">+</text>
<text text-anchor="start" x="210.12" y="-204" font-family="Helvetica,sans-Serif" font-size="10.00">SetParticleDet()</text>
<text text-anchor="start" x="189.12" y="-188.75" font-family="Helvetica,sans-Serif" font-size="10.00">+</text>
<text text-anchor="start" x="210.12" y="-188.75" font-family="Helvetica,sans-Serif" font-size="10.00">SetInterests()</text>
<text text-anchor="start" x="189.12" y="-173.5" font-family="Helvetica,sans-Serif" font-size="10.00">+</text>
<text text-anchor="start" x="210.12" y="-173.5" font-family="Helvetica,sans-Serif" font-size="10.00">ReadFromFile()</text>
<text text-anchor="start" x="189.12" y="-158.25" font-family="Helvetica,sans-Serif" font-size="10.00">+</text>
<text text-anchor="start" x="210.12" y="-158.25" font-family="Helvetica,sans-Serif" font-size="10.00">SaveToFile()</text>
<text text-anchor="start" x="189.12" y="-143" font-family="Helvetica,sans-Serif" font-size="10.00">+</text>
<text text-anchor="start" x="210.12" y="-143" font-family="Helvetica,sans-Serif" font-size="10.00">SetBeam()</text>
<text text-anchor="start" x="189.12" y="-127.75" font-family="Helvetica,sans-Serif" font-size="10.00">+</text>
<text text-anchor="start" x="210.12" y="-127.75" font-family="Helvetica,sans-Serif" font-size="10.00">SetTarget()</text>
<text text-anchor="start" x="189.12" y="-112.5" font-family="Helvetica,sans-Serif" font-size="10.00">+</text>
<text text-anchor="start" x="210.12" y="-112.5" font-family="Helvetica,sans-Serif" font-size="10.00">SetDetected()</text>
<text text-anchor="start" x="189.12" y="-97.25" font-family="Helvetica,sans-Serif" font-size="10.00">+</text>
<text text-anchor="start" x="210.12" y="-97.25" font-family="Helvetica,sans-Serif" font-size="10.00">SetExcited()</text>
<text text-anchor="start" x="189.12" y="-82" font-family="Helvetica,sans-Serif" font-size="10.00">+</text>
<text text-anchor="start" x="210.12" y="-82" font-family="Helvetica,sans-Serif" font-size="10.00">SetLevelScheme()</text>
<text text-anchor="start" x="189.12" y="-66.75" font-family="Helvetica,sans-Serif" font-size="10.00">+</text>
<text text-anchor="start" x="210.12" y="-66.75" font-family="Helvetica,sans-Serif" font-size="10.00">SetInterests()</text>
<text text-anchor="start" x="189.12" y="-51.5" font-family="Helvetica,sans-Serif" font-size="10.00">+</text>
<text text-anchor="start" x="210.12" y="-51.5" font-family="Helvetica,sans-Serif" font-size="10.00">SetParticleDet()</text>
<text text-anchor="start" x="189.12" y="-36.25" font-family="Helvetica,sans-Serif" font-size="10.00">+</text>
<text text-anchor="start" x="210.12" y="-36.25" font-family="Helvetica,sans-Serif" font-size="10.00">ExperimentalSetup()</text>
<text text-anchor="start" x="189.12" y="-21" font-family="Helvetica,sans-Serif" font-size="10.00">+</text>
<text text-anchor="start" x="210.12" y="-21" font-family="Helvetica,sans-Serif" font-size="10.00">Print()</text>
<text text-anchor="start" x="189.12" y="-5.75" font-family="Helvetica,sans-Serif" font-size="10.00">+</text>
<text text-anchor="start" x="210.12" y="-5.75" font-family="Helvetica,sans-Serif" font-size="10.00">CalcTensor()</text>
<polygon fill="#666666" stroke="#666666" points="174.12,-383.25 174.12,-383.25 325.38,-383.25 325.38,-383.25 174.12,-383.25"/>
<polygon fill="#666666" stroke="#666666" points="174.12,-307 174.12,-307 208.12,-307 208.12,-307 174.12,-307"/>
<polygon fill="#666666" stroke="#666666" points="208.12,-307 208.12,-307 325.38,-307 325.38,-307 208.12,-307"/>
<polygon fill="none" stroke="#666666" points="174.12,0 174.12,-400.5 325.38,-400.5 325.38,0 174.12,0"/>
</a>
</g>
</g>
<!-- Node2 -->
<g id="Node000002" class="node">
<title>Node2</title>
<g id="a_Node000002"><a xlink:href="../../df/dd9/struct_gam_r_1_1_coulex_1_1_nucleus.html" target="_top" xlink:title=" ">
<polygon fill="white" stroke="none" points="163.75,-792.75 53.75,-792.75 53.75,-727.75 163.75,-727.75 163.75,-792.75"/>
<text text-anchor="start" x="57.75" y="-779.25" font-family="Helvetica,sans-Serif" font-size="10.00">GamR::Coulex::Nucleus</text>
<text text-anchor="start" x="79.06" y="-764" font-family="Helvetica,sans-Serif" font-size="10.00">+</text>
<text text-anchor="start" x="110.38" y="-764" font-family="Helvetica,sans-Serif" font-size="10.00">Z</text>
<text text-anchor="start" x="79.06" y="-748.75" font-family="Helvetica,sans-Serif" font-size="10.00">+</text>
<text text-anchor="start" x="110.38" y="-748.75" font-family="Helvetica,sans-Serif" font-size="10.00">A</text>
<text text-anchor="start" x="107.25" y="-733.5" font-family="Helvetica,sans-Serif" font-size="10.00"> </text>
<polygon fill="#666666" stroke="#666666" points="53.75,-775.5 53.75,-775.5 163.75,-775.5 163.75,-775.5 53.75,-775.5"/>
<polygon fill="#666666" stroke="#666666" points="53.75,-745 53.75,-745 108.38,-745 108.38,-745 53.75,-745"/>
<polygon fill="#666666" stroke="#666666" points="108.38,-745 108.38,-745 163.75,-745 163.75,-745 108.38,-745"/>
<polygon fill="none" stroke="#666666" points="53.75,-727.75 53.75,-792.75 163.75,-792.75 163.75,-727.75 53.75,-727.75"/>
</a>
</g>
</g>
<!-- Node2&#45;&gt;Node1 -->
<g id="edge1_Node000001_Node000002" class="edge">
<title>Node2&#45;&gt;Node1</title>
<g id="a_edge1_Node000001_Node000002"><a xlink:title=" ">
<path fill="none" stroke="#63b8ff" d="M97.49,-727.89C92.95,-713.63 88.25,-696.42 86,-680.5 71.5,-578.08 56.1,-546.78 86,-447.75 102.29,-393.79 134.69,-340.81 166.4,-297.88"/>
<polygon fill="none" stroke="#63b8ff" points="166.47,-297.79 166.88,-290.59 173.68,-288.19 173.27,-295.39 166.47,-297.79"/>
</a>
</g>
<text text-anchor="middle" x="104.38" y="-560.25" font-family="Helvetica,sans-Serif" font-size="10.00" fill="grey"> +fBeam</text>
</g>
<!-- Node3 -->
<g id="Node000003" class="node">
<title>Node3</title>
<g id="a_Node000003"><a xlink:href="../../d3/d33/struct_gam_r_1_1_coulex_1_1_target.html" target="_top" xlink:title=" ">
<polygon fill="white" stroke="none" points="233.62,-596.62 131.88,-596.62 131.88,-531.62 233.62,-531.62 233.62,-596.62"/>
<text text-anchor="start" x="135.88" y="-583.12" font-family="Helvetica,sans-Serif" font-size="10.00">GamR::Coulex::Target</text>
<text text-anchor="start" x="146.31" y="-567.88" font-family="Helvetica,sans-Serif" font-size="10.00">+</text>
<text text-anchor="start" x="166.75" y="-567.88" font-family="Helvetica,sans-Serif" font-size="10.00">density</text>
<text text-anchor="start" x="146.31" y="-552.62" font-family="Helvetica,sans-Serif" font-size="10.00">+</text>
<text text-anchor="start" x="166.75" y="-552.62" font-family="Helvetica,sans-Serif" font-size="10.00">thickness</text>
<text text-anchor="start" x="181.25" y="-537.38" font-family="Helvetica,sans-Serif" font-size="10.00"> </text>
<polygon fill="#666666" stroke="#666666" points="131.88,-579.38 131.88,-579.38 233.62,-579.38 233.62,-579.38 131.88,-579.38"/>
<polygon fill="#666666" stroke="#666666" points="131.88,-548.88 131.88,-548.88 164.75,-548.88 164.75,-548.88 131.88,-548.88"/>
<polygon fill="#666666" stroke="#666666" points="164.75,-548.88 164.75,-548.88 233.62,-548.88 233.62,-548.88 164.75,-548.88"/>
<polygon fill="none" stroke="#666666" points="131.88,-531.62 131.88,-596.62 233.62,-596.62 233.62,-531.62 131.88,-531.62"/>
</a>
</g>
</g>
<!-- Node2&#45;&gt;Node3 -->
<g id="edge3_Node000003_Node000002" class="edge">
<title>Node2&#45;&gt;Node3</title>
<g id="a_edge3_Node000003_Node000002"><a xlink:title=" ">
<path fill="none" stroke="#63b8ff" d="M120.64,-728.06C132.96,-695.75 152.3,-645 166.13,-608.73"/>
<polygon fill="none" stroke="#63b8ff" points="166.17,-608.61 164.57,-601.58 170.45,-597.4 172.05,-604.43 166.17,-608.61"/>
</a>
</g>
<text text-anchor="middle" x="150.49" y="-700.25" font-family="Helvetica,sans-Serif" font-size="10.00" fill="grey"> +isotope</text>
</g>
<!-- Node3&#45;&gt;Node1 -->
<g id="edge2_Node000001_Node000003" class="edge">
<title>Node3&#45;&gt;Node1</title>
<g id="a_edge2_Node000001_Node000003"><a xlink:title=" ">
<path fill="none" stroke="#63b8ff" d="M188.58,-531.64C193.8,-503.47 201.94,-459.49 210.6,-412.7"/>
<polygon fill="none" stroke="#63b8ff" points="210.58,-412.79 207.74,-406.16 212.77,-400.99 215.61,-407.62 210.58,-412.79"/>
</a>
</g>
<text text-anchor="middle" x="227.78" y="-420.25" font-family="Helvetica,sans-Serif" font-size="10.00" fill="grey"> +fTarget</text>
</g>
<!-- Node4 -->
<g id="Node000004" class="node">
<title>Node4</title>
<g id="a_Node000004"><a xlink:href="../../db/d16/class_gam_r_1_1_coulex_1_1_level_scheme.html" target="_top" xlink:title=" ">
<polygon fill="white" stroke="none" points="385.75,-680.5 251.75,-680.5 251.75,-447.75 385.75,-447.75 385.75,-680.5"/>
<text text-anchor="start" x="255.75" y="-667" font-family="Helvetica,sans-Serif" font-size="10.00">GamR::Coulex::LevelScheme</text>
<text text-anchor="start" x="317.25" y="-651.75" font-family="Helvetica,sans-Serif" font-size="10.00"> </text>
<text text-anchor="start" x="264.69" y="-636.5" font-family="Helvetica,sans-Serif" font-size="10.00">+</text>
<text text-anchor="start" x="283.62" y="-636.5" font-family="Helvetica,sans-Serif" font-size="10.00">AddLevel()</text>
<text text-anchor="start" x="264.69" y="-621.25" font-family="Helvetica,sans-Serif" font-size="10.00">+</text>
<text text-anchor="start" x="283.62" y="-621.25" font-family="Helvetica,sans-Serif" font-size="10.00">AddLevel()</text>
<text text-anchor="start" x="264.69" y="-606" font-family="Helvetica,sans-Serif" font-size="10.00">+</text>
<text text-anchor="start" x="283.62" y="-606" font-family="Helvetica,sans-Serif" font-size="10.00">AddTransition()</text>
<text text-anchor="start" x="264.69" y="-590.75" font-family="Helvetica,sans-Serif" font-size="10.00">+</text>
<text text-anchor="start" x="283.62" y="-590.75" font-family="Helvetica,sans-Serif" font-size="10.00">SetIndices()</text>
<text text-anchor="start" x="264.69" y="-575.5" font-family="Helvetica,sans-Serif" font-size="10.00">+</text>
<text text-anchor="start" x="283.62" y="-575.5" font-family="Helvetica,sans-Serif" font-size="10.00">PrintLevels()</text>
<text text-anchor="start" x="264.69" y="-560.25" font-family="Helvetica,sans-Serif" font-size="10.00">+</text>
<text text-anchor="start" x="283.62" y="-560.25" font-family="Helvetica,sans-Serif" font-size="10.00">PrintTransitions()</text>
<text text-anchor="start" x="264.69" y="-545" font-family="Helvetica,sans-Serif" font-size="10.00">+</text>
<text text-anchor="start" x="283.62" y="-545" font-family="Helvetica,sans-Serif" font-size="10.00">Print()</text>
<text text-anchor="start" x="264.69" y="-529.75" font-family="Helvetica,sans-Serif" font-size="10.00">+</text>
<text text-anchor="start" x="283.62" y="-529.75" font-family="Helvetica,sans-Serif" font-size="10.00">GetLevelByIndex()</text>
<text text-anchor="start" x="264.69" y="-514.5" font-family="Helvetica,sans-Serif" font-size="10.00">+</text>
<text text-anchor="start" x="283.62" y="-514.5" font-family="Helvetica,sans-Serif" font-size="10.00">GetNLevels()</text>
<text text-anchor="start" x="264.69" y="-499.25" font-family="Helvetica,sans-Serif" font-size="10.00">+</text>
<text text-anchor="start" x="283.62" y="-499.25" font-family="Helvetica,sans-Serif" font-size="10.00">GetNTransitions()</text>
<text text-anchor="start" x="264.69" y="-484" font-family="Helvetica,sans-Serif" font-size="10.00">+</text>
<text text-anchor="start" x="283.62" y="-484" font-family="Helvetica,sans-Serif" font-size="10.00">GetLevels()</text>
<text text-anchor="start" x="264.69" y="-468.75" font-family="Helvetica,sans-Serif" font-size="10.00">+</text>
<text text-anchor="start" x="283.62" y="-468.75" font-family="Helvetica,sans-Serif" font-size="10.00">GetETransitions()</text>
<text text-anchor="start" x="264.69" y="-453.5" font-family="Helvetica,sans-Serif" font-size="10.00">+</text>
<text text-anchor="start" x="283.62" y="-453.5" font-family="Helvetica,sans-Serif" font-size="10.00">GetMTransitions()</text>
<polygon fill="#666666" stroke="#666666" points="251.75,-663.25 251.75,-663.25 385.75,-663.25 385.75,-663.25 251.75,-663.25"/>
<polygon fill="#666666" stroke="#666666" points="251.75,-648 251.75,-648 385.75,-648 385.75,-648 251.75,-648"/>
<polygon fill="none" stroke="#666666" points="251.75,-447.75 251.75,-680.5 385.75,-680.5 385.75,-447.75 251.75,-447.75"/>
</a>
</g>
</g>
<!-- Node4&#45;&gt;Node1 -->
<g id="edge4_Node000001_Node000004" class="edge">
<title>Node4&#45;&gt;Node1</title>
<g id="a_edge4_Node000001_Node000004"><a xlink:title=" ">
<path fill="none" stroke="#63b8ff" d="M296.82,-448.13C294.64,-436.68 292.38,-424.83 290.09,-412.8"/>
<polygon fill="none" stroke="#63b8ff" points="290.1,-412.87 285.05,-407.72 287.85,-401.08 292.91,-406.22 290.1,-412.87"/>
</a>
</g>
<text text-anchor="middle" x="328.08" y="-420.25" font-family="Helvetica,sans-Serif" font-size="10.00" fill="grey"> +fLevelScheme</text>
</g>
<!-- Node5 -->
<g id="Node000005" class="node">
<title>Node5</title>
<g id="a_Node000005"><a xlink:title=" ">
<polygon fill="white" stroke="none" points="439,-948.75 324.5,-948.75 324.5,-887.75 439,-887.75 439,-948.75"/>
<text text-anchor="start" x="328.5" y="-935.25" font-family="Helvetica,sans-Serif" font-size="10.00">std::map&lt; std::string,</text>
<text text-anchor="start" x="328.5" y="-924" font-family="Helvetica,sans-Serif" font-size="10.00"> GamR::Coulex::Level * &gt;</text>
<text text-anchor="start" x="380.25" y="-908.75" font-family="Helvetica,sans-Serif" font-size="10.00"> </text>
<text text-anchor="start" x="380.25" y="-893.5" font-family="Helvetica,sans-Serif" font-size="10.00"> </text>
<polygon fill="#666666" stroke="#666666" points="324.5,-920.25 324.5,-920.25 439,-920.25 439,-920.25 324.5,-920.25"/>
<polygon fill="#666666" stroke="#666666" points="324.5,-905 324.5,-905 439,-905 439,-905 324.5,-905"/>
<polygon fill="none" stroke="#666666" points="324.5,-887.75 324.5,-948.75 439,-948.75 439,-887.75 324.5,-887.75"/>
</a>
</g>
</g>
<!-- Node5&#45;&gt;Node4 -->
<g id="edge5_Node000004_Node000005" class="edge">
<title>Node5&#45;&gt;Node4</title>
<g id="a_edge5_Node000004_Node000005"><a xlink:title=" ">
<path fill="none" stroke="#63b8ff" d="M376.49,-887.83C368.84,-845.11 354.2,-763.27 341.58,-692.71"/>
<polygon fill="none" stroke="#63b8ff" points="341.6,-692.83 336.6,-687.63 339.48,-681.02 344.48,-686.22 341.6,-692.83"/>
</a>
</g>
<text text-anchor="middle" x="378.81" y="-756.38" font-family="Helvetica,sans-Serif" font-size="10.00" fill="grey"> +fLevels</text>
</g>
<!-- Node6 -->
<g id="Node000006" class="node">
<title>Node6</title>
<g id="a_Node000006"><a xlink:title=" ">
<polygon fill="white" stroke="none" points="415.75,-1427.25 365.75,-1427.25 365.75,-1377.5 415.75,-1377.5 415.75,-1427.25"/>
<text text-anchor="start" x="369.75" y="-1413.75" font-family="Helvetica,sans-Serif" font-size="10.00">std::string</text>
<text text-anchor="start" x="389.25" y="-1398.5" font-family="Helvetica,sans-Serif" font-size="10.00"> </text>
<text text-anchor="start" x="389.25" y="-1383.25" font-family="Helvetica,sans-Serif" font-size="10.00"> </text>
<polygon fill="#666666" stroke="#666666" points="365.75,-1410 365.75,-1410 415.75,-1410 415.75,-1410 365.75,-1410"/>
<polygon fill="#666666" stroke="#666666" points="365.75,-1394.75 365.75,-1394.75 415.75,-1394.75 415.75,-1394.75 365.75,-1394.75"/>
<polygon fill="none" stroke="#666666" points="365.75,-1377.5 365.75,-1427.25 415.75,-1427.25 415.75,-1377.5 365.75,-1377.5"/>
</a>
</g>
</g>
<!-- Node6&#45;&gt;Node5 -->
<g id="edge6_Node000005_Node000006" class="edge">
<title>Node6&#45;&gt;Node5</title>
<g id="a_edge6_Node000005_Node000006"><a xlink:title=" ">
<path fill="none" stroke="#63b8ff" d="M391.52,-1377.81C393.33,-1317.38 397.23,-1152.04 390.75,-1014.5 389.92,-996.96 388.24,-977.66 386.56,-961.04"/>
<polygon fill="none" stroke="#63b8ff" points="386.58,-961.21 381.97,-955.66 385.31,-949.28 389.92,-954.82 386.58,-961.21"/>
</a>
</g>
<text text-anchor="middle" x="408.6" y="-1156.62" font-family="Helvetica,sans-Serif" font-size="10.00" fill="grey"> +keys</text>
</g>
<!-- Node8 -->
<g id="Node000008" class="node">
<title>Node8</title>
<g id="a_Node000008"><a xlink:href="../../d1/d65/class_gam_r_1_1_coulex_1_1_level.html" target="_top" xlink:title=" ">
<polygon fill="white" stroke="none" points="351.75,-1238.75 253.75,-1238.75 253.75,-1082.25 351.75,-1082.25 351.75,-1238.75"/>
<text text-anchor="start" x="257.75" y="-1225.25" font-family="Helvetica,sans-Serif" font-size="10.00">GamR::Coulex::Level</text>
<text text-anchor="start" x="262.38" y="-1210" font-family="Helvetica,sans-Serif" font-size="10.00">+</text>
<text text-anchor="start" x="277" y="-1210" font-family="Helvetica,sans-Serif" font-size="10.00">fIndex</text>
<text text-anchor="start" x="262.38" y="-1194.75" font-family="Helvetica,sans-Serif" font-size="10.00">+</text>
<text text-anchor="start" x="277" y="-1194.75" font-family="Helvetica,sans-Serif" font-size="10.00">fEnergy</text>
<text text-anchor="start" x="262.38" y="-1179.5" font-family="Helvetica,sans-Serif" font-size="10.00">+</text>
<text text-anchor="start" x="277" y="-1179.5" font-family="Helvetica,sans-Serif" font-size="10.00">fSpin</text>
<text text-anchor="start" x="262.38" y="-1164.25" font-family="Helvetica,sans-Serif" font-size="10.00">+</text>
<text text-anchor="start" x="277" y="-1164.25" font-family="Helvetica,sans-Serif" font-size="10.00">fParity</text>
<text text-anchor="start" x="262.38" y="-1149" font-family="Helvetica,sans-Serif" font-size="10.00">+</text>
<text text-anchor="start" x="277" y="-1149" font-family="Helvetica,sans-Serif" font-size="10.00">fKBand</text>
<text text-anchor="start" x="262.38" y="-1133.75" font-family="Helvetica,sans-Serif" font-size="10.00">+</text>
<text text-anchor="start" x="277" y="-1133.75" font-family="Helvetica,sans-Serif" font-size="10.00">fCrossSection</text>
<text text-anchor="start" x="262.38" y="-1118.5" font-family="Helvetica,sans-Serif" font-size="10.00">+</text>
<text text-anchor="start" x="277" y="-1118.5" font-family="Helvetica,sans-Serif" font-size="10.00">Level()</text>
<text text-anchor="start" x="262.38" y="-1103.25" font-family="Helvetica,sans-Serif" font-size="10.00">+</text>
<text text-anchor="start" x="277" y="-1103.25" font-family="Helvetica,sans-Serif" font-size="10.00">operator&lt;()</text>
<text text-anchor="start" x="262.38" y="-1088" font-family="Helvetica,sans-Serif" font-size="10.00">+</text>
<text text-anchor="start" x="277" y="-1088" font-family="Helvetica,sans-Serif" font-size="10.00">PrintSP()</text>
<polygon fill="#666666" stroke="#666666" points="253.75,-1221.5 253.75,-1221.5 351.75,-1221.5 351.75,-1221.5 253.75,-1221.5"/>
<polygon fill="#666666" stroke="#666666" points="253.75,-1130 253.75,-1130 275,-1130 275,-1130 253.75,-1130"/>
<polygon fill="#666666" stroke="#666666" points="275,-1130 275,-1130 351.75,-1130 351.75,-1130 275,-1130"/>
<polygon fill="none" stroke="#666666" points="253.75,-1082.25 253.75,-1238.75 351.75,-1238.75 351.75,-1082.25 253.75,-1082.25"/>
</a>
</g>
</g>
<!-- Node6&#45;&gt;Node8 -->
<g id="edge9_Node000008_Node000006" class="edge">
<title>Node6&#45;&gt;Node8</title>
<g id="a_edge9_Node000008_Node000006"><a xlink:title=" ">
<path fill="none" stroke="#63b8ff" d="M382.15,-1377.94C371.37,-1348.56 352.27,-1296.49 335.51,-1250.79"/>
<polygon fill="none" stroke="#63b8ff" points="335.52,-1250.83 329.7,-1246.57 331.39,-1239.56 337.21,-1243.82 335.52,-1250.83"/>
</a>
</g>
<text text-anchor="middle" x="360.23" y="-1258.5" font-family="Helvetica,sans-Serif" font-size="10.00" fill="grey"> +fName</text>
</g>
<!-- Node7 -->
<g id="Node000007" class="node">
<title>Node7</title>
<g id="a_Node000007"><a xlink:title=" ">
<polygon fill="white" stroke="none" points="433,-1616.75 348.5,-1616.75 348.5,-1555.75 433,-1555.75 433,-1616.75"/>
<text text-anchor="start" x="352.5" y="-1603.25" font-family="Helvetica,sans-Serif" font-size="10.00">std::basic_string&lt;</text>
<text text-anchor="start" x="375.38" y="-1592" font-family="Helvetica,sans-Serif" font-size="10.00"> Char &gt;</text>
<text text-anchor="start" x="389.25" y="-1576.75" font-family="Helvetica,sans-Serif" font-size="10.00"> </text>
<text text-anchor="start" x="389.25" y="-1561.5" font-family="Helvetica,sans-Serif" font-size="10.00"> </text>
<polygon fill="#666666" stroke="#666666" points="348.5,-1588.25 348.5,-1588.25 433,-1588.25 433,-1588.25 348.5,-1588.25"/>
<polygon fill="#666666" stroke="#666666" points="348.5,-1573 348.5,-1573 433,-1573 433,-1573 348.5,-1573"/>
<polygon fill="none" stroke="#666666" points="348.5,-1555.75 348.5,-1616.75 433,-1616.75 433,-1555.75 348.5,-1555.75"/>
</a>
</g>
</g>
<!-- Node7&#45;&gt;Node6 -->
<g id="edge7_Node000006_Node000007" class="edge">
<title>Node7&#45;&gt;Node6</title>
<g id="a_edge7_Node000006_Node000007"><a xlink:title=" ">
<path fill="none" stroke="#63b8ff" d="M390.75,-1544.88C390.75,-1508.71 390.75,-1456.88 390.75,-1427.02"/>
<polygon fill="none" stroke="#63b8ff" points="387.25,-1544.52 390.75,-1554.52 394.25,-1544.52 387.25,-1544.52"/>
</a>
</g>
</g>
<!-- Node8&#45;&gt;Node5 -->
<g id="edge8_Node000005_Node000008" class="edge">
<title>Node8&#45;&gt;Node5</title>
<g id="a_edge8_Node000005_Node000008"><a xlink:title=" ">
<path fill="none" stroke="#63b8ff" d="M322.13,-1082.6C328.2,-1060.45 335.29,-1036.37 342.75,-1014.5 348.93,-996.4 356.76,-976.79 363.78,-960.09"/>
<polygon fill="none" stroke="#63b8ff" points="363.65,-960.38 362.32,-953.29 368.35,-949.34 369.68,-956.43 363.65,-960.38"/>
</a>
</g>
<text text-anchor="middle" x="366.75" y="-1035.5" font-family="Helvetica,sans-Serif" font-size="10.00" fill="grey"> +elements</text>
</g>
<!-- Node14 -->
<g id="Node000014" class="node">
<title>Node14</title>
<g id="a_Node000014"><a xlink:href="../../d1/d57/class_gam_r_1_1_coulex_1_1_transition.html" target="_top" xlink:title=" ">
<polygon fill="white" stroke="none" points="306.12,-996.5 189.38,-996.5 189.38,-840 306.12,-840 306.12,-996.5"/>
<text text-anchor="start" x="193.38" y="-983" font-family="Helvetica,sans-Serif" font-size="10.00">GamR::Coulex::Transition</text>
<text text-anchor="start" x="205.88" y="-967.75" font-family="Helvetica,sans-Serif" font-size="10.00">+</text>
<text text-anchor="start" x="228.38" y="-967.75" font-family="Helvetica,sans-Serif" font-size="10.00">fMatEl</text>
<text text-anchor="start" x="205.88" y="-952.5" font-family="Helvetica,sans-Serif" font-size="10.00">+</text>
<text text-anchor="start" x="228.38" y="-952.5" font-family="Helvetica,sans-Serif" font-size="10.00">fMult</text>
<text text-anchor="start" x="205.88" y="-937.25" font-family="Helvetica,sans-Serif" font-size="10.00">+</text>
<text text-anchor="start" x="228.38" y="-937.25" font-family="Helvetica,sans-Serif" font-size="10.00">Transition()</text>
<text text-anchor="start" x="205.88" y="-922" font-family="Helvetica,sans-Serif" font-size="10.00">+</text>
<text text-anchor="start" x="228.38" y="-922" font-family="Helvetica,sans-Serif" font-size="10.00">SetMatEl()</text>
<text text-anchor="start" x="205.88" y="-906.75" font-family="Helvetica,sans-Serif" font-size="10.00">+</text>
<text text-anchor="start" x="228.38" y="-906.75" font-family="Helvetica,sans-Serif" font-size="10.00">SetBUp()</text>
<text text-anchor="start" x="205.88" y="-891.5" font-family="Helvetica,sans-Serif" font-size="10.00">+</text>
<text text-anchor="start" x="228.38" y="-891.5" font-family="Helvetica,sans-Serif" font-size="10.00">GetBUp()</text>
<text text-anchor="start" x="205.88" y="-876.25" font-family="Helvetica,sans-Serif" font-size="10.00">+</text>
<text text-anchor="start" x="228.38" y="-876.25" font-family="Helvetica,sans-Serif" font-size="10.00">Energy()</text>
<text text-anchor="start" x="205.88" y="-861" font-family="Helvetica,sans-Serif" font-size="10.00">+</text>
<text text-anchor="start" x="228.38" y="-861" font-family="Helvetica,sans-Serif" font-size="10.00">Character()</text>
<text text-anchor="start" x="205.88" y="-845.75" font-family="Helvetica,sans-Serif" font-size="10.00">+</text>
<text text-anchor="start" x="228.38" y="-845.75" font-family="Helvetica,sans-Serif" font-size="10.00">Type()</text>
<polygon fill="#666666" stroke="#666666" points="189.38,-979.25 189.38,-979.25 306.12,-979.25 306.12,-979.25 189.38,-979.25"/>
<polygon fill="#666666" stroke="#666666" points="189.38,-948.75 189.38,-948.75 226.38,-948.75 226.38,-948.75 189.38,-948.75"/>
<polygon fill="#666666" stroke="#666666" points="226.38,-948.75 226.38,-948.75 306.12,-948.75 306.12,-948.75 226.38,-948.75"/>
<polygon fill="none" stroke="#666666" points="189.38,-840 189.38,-996.5 306.12,-996.5 306.12,-840 189.38,-840"/>
</a>
</g>
</g>
<!-- Node8&#45;&gt;Node14 -->
<g id="edge16_Node000014_Node000008" class="edge">
<title>Node8&#45;&gt;Node14</title>
<g id="a_edge16_Node000014_Node000008"><a xlink:title=" ">
<path fill="none" stroke="#63b8ff" d="M285.12,-1082.49C279.74,-1059 273.78,-1032.97 268.23,-1008.73"/>
<polygon fill="none" stroke="#63b8ff" points="268.25,-1008.81 263.01,-1003.85 265.57,-997.11 270.81,-1002.07 268.25,-1008.81"/>
</a>
</g>
<text text-anchor="middle" x="296.3" y="-1041.12" font-family="Helvetica,sans-Serif" font-size="10.00" fill="grey"> +fFinal</text>
<text text-anchor="middle" x="296.3" y="-1029.88" font-family="Helvetica,sans-Serif" font-size="10.00" fill="grey">+fInitial</text>
</g>
<!-- Node9 -->
<g id="Node000009" class="node">
<title>Node9</title>
<g id="a_Node000009"><a xlink:href="../../da/dfc/class_gam_r_1_1_ang_dist_1_1_stat_tensor.html" target="_top" xlink:title=" ">
<polygon fill="white" stroke="none" points="333.38,-1518.75 206.12,-1518.75 206.12,-1286 333.38,-1286 333.38,-1518.75"/>
<text text-anchor="start" x="210.12" y="-1505.25" font-family="Helvetica,sans-Serif" font-size="10.00">GamR::AngDist::StatTensor</text>
<text text-anchor="start" x="268.25" y="-1490" font-family="Helvetica,sans-Serif" font-size="10.00"> </text>
<text text-anchor="start" x="217.75" y="-1474.75" font-family="Helvetica,sans-Serif" font-size="10.00">+</text>
<text text-anchor="start" x="235.38" y="-1474.75" font-family="Helvetica,sans-Serif" font-size="10.00">StatTensor()</text>
<text text-anchor="start" x="217.75" y="-1459.5" font-family="Helvetica,sans-Serif" font-size="10.00">+</text>
<text text-anchor="start" x="235.38" y="-1459.5" font-family="Helvetica,sans-Serif" font-size="10.00">StatTensor()</text>
<text text-anchor="start" x="217.75" y="-1444.25" font-family="Helvetica,sans-Serif" font-size="10.00">+</text>
<text text-anchor="start" x="235.38" y="-1444.25" font-family="Helvetica,sans-Serif" font-size="10.00">StatTensor()</text>
<text text-anchor="start" x="217.75" y="-1429" font-family="Helvetica,sans-Serif" font-size="10.00">+</text>
<text text-anchor="start" x="235.38" y="-1429" font-family="Helvetica,sans-Serif" font-size="10.00">Clear()</text>
<text text-anchor="start" x="217.75" y="-1413.75" font-family="Helvetica,sans-Serif" font-size="10.00">+</text>
<text text-anchor="start" x="235.38" y="-1413.75" font-family="Helvetica,sans-Serif" font-size="10.00">Set()</text>
<text text-anchor="start" x="217.75" y="-1398.5" font-family="Helvetica,sans-Serif" font-size="10.00">+</text>
<text text-anchor="start" x="235.38" y="-1398.5" font-family="Helvetica,sans-Serif" font-size="10.00">Get()</text>
<text text-anchor="start" x="217.75" y="-1383.25" font-family="Helvetica,sans-Serif" font-size="10.00">+</text>
<text text-anchor="start" x="235.38" y="-1383.25" font-family="Helvetica,sans-Serif" font-size="10.00">Set()</text>
<text text-anchor="start" x="217.75" y="-1368" font-family="Helvetica,sans-Serif" font-size="10.00">+</text>
<text text-anchor="start" x="235.38" y="-1368" font-family="Helvetica,sans-Serif" font-size="10.00">GetBk()</text>
<text text-anchor="start" x="217.75" y="-1352.75" font-family="Helvetica,sans-Serif" font-size="10.00">+</text>
<text text-anchor="start" x="235.38" y="-1352.75" font-family="Helvetica,sans-Serif" font-size="10.00">ObservedProp()</text>
<text text-anchor="start" x="217.75" y="-1337.5" font-family="Helvetica,sans-Serif" font-size="10.00">+</text>
<text text-anchor="start" x="235.38" y="-1337.5" font-family="Helvetica,sans-Serif" font-size="10.00">UnobservedProp()</text>
<text text-anchor="start" x="217.75" y="-1322.25" font-family="Helvetica,sans-Serif" font-size="10.00">+</text>
<text text-anchor="start" x="235.38" y="-1322.25" font-family="Helvetica,sans-Serif" font-size="10.00">Perturbation()</text>
<text text-anchor="start" x="217.75" y="-1307" font-family="Helvetica,sans-Serif" font-size="10.00">+</text>
<text text-anchor="start" x="235.38" y="-1307" font-family="Helvetica,sans-Serif" font-size="10.00">W()</text>
<text text-anchor="start" x="217.75" y="-1291.75" font-family="Helvetica,sans-Serif" font-size="10.00">+</text>
<text text-anchor="start" x="235.38" y="-1291.75" font-family="Helvetica,sans-Serif" font-size="10.00">Print()</text>
<polygon fill="#666666" stroke="#666666" points="206.12,-1501.5 206.12,-1501.5 333.38,-1501.5 333.38,-1501.5 206.12,-1501.5"/>
<polygon fill="#666666" stroke="#666666" points="206.12,-1486.25 206.12,-1486.25 333.38,-1486.25 333.38,-1486.25 206.12,-1486.25"/>
<polygon fill="none" stroke="#666666" points="206.12,-1286 206.12,-1518.75 333.38,-1518.75 333.38,-1286 206.12,-1286"/>
</a>
</g>
</g>
<!-- Node9&#45;&gt;Node8 -->
<g id="edge10_Node000008_Node000009" class="edge">
<title>Node9&#45;&gt;Node8</title>
<g id="a_edge10_Node000008_Node000009"><a xlink:title=" ">
<path fill="none" stroke="#63b8ff" d="M267,-1286.23C267.77,-1276.22 268.9,-1266.28 270.5,-1256.75 270.81,-1254.89 271.15,-1253.02 271.52,-1251.15"/>
<polygon fill="none" stroke="#63b8ff" points="271.49,-1251.27 268.91,-1244.54 274.13,-1239.56 276.72,-1246.3 271.49,-1251.27"/>
</a>
</g>
<text text-anchor="middle" x="300.12" y="-1258.5" font-family="Helvetica,sans-Serif" font-size="10.00" fill="grey"> +fStatTensor</text>
</g>
<!-- Node10 -->
<g id="Node000010" class="node">
<title>Node10</title>
<g id="a_Node000010"><a xlink:title=" ">
<polygon fill="white" stroke="none" points="217.38,-1185.38 138.12,-1185.38 138.12,-1135.62 217.38,-1135.62 217.38,-1185.38"/>
<text text-anchor="start" x="142.12" y="-1171.88" font-family="Helvetica,sans-Serif" font-size="10.00">std::map&lt; K, T &gt;</text>
<text text-anchor="start" x="176.25" y="-1156.62" font-family="Helvetica,sans-Serif" font-size="10.00"> </text>
<text text-anchor="start" x="176.25" y="-1141.38" font-family="Helvetica,sans-Serif" font-size="10.00"> </text>
<polygon fill="#666666" stroke="#666666" points="138.12,-1168.12 138.12,-1168.12 217.38,-1168.12 217.38,-1168.12 138.12,-1168.12"/>
<polygon fill="#666666" stroke="#666666" points="138.12,-1152.88 138.12,-1152.88 217.38,-1152.88 217.38,-1152.88 138.12,-1152.88"/>
<polygon fill="none" stroke="#666666" points="138.12,-1135.62 138.12,-1185.38 217.38,-1185.38 217.38,-1135.62 138.12,-1135.62"/>
</a>
</g>
</g>
<!-- Node10&#45;&gt;Node5 -->
<g id="edge11_Node000005_Node000010" class="edge">
<title>Node10&#45;&gt;Node5</title>
<g id="a_edge11_Node000005_Node000010"><a xlink:title=" ">
<path fill="none" stroke="orange" d="M167.21,-1124.98C159.59,-1092.35 154.72,-1044.11 181.25,-1014.5 201.22,-992.2 288.41,-1010.72 314.75,-996.5 335.21,-985.45 352.28,-965.48 364.06,-948.61"/>
<polygon fill="orange" stroke="orange" points="163.74,-1125.52 169.6,-1134.35 170.52,-1123.79 163.74,-1125.52"/>
</a>
</g>
<text text-anchor="start" x="181.25" y="-1041.12" font-family="Helvetica,sans-Serif" font-size="10.00" fill="grey"> &lt; std::string, GamR</text>
<text text-anchor="middle" x="224" y="-1029.88" font-family="Helvetica,sans-Serif" font-size="10.00" fill="grey">::Coulex::Level * &gt;</text>
</g>
<!-- Node11 -->
<g id="Node000011" class="node">
<title>Node11</title>
<g id="a_Node000011"><a xlink:title=" ">
<polygon fill="white" stroke="none" points="187.12,-1427.25 172.38,-1427.25 172.38,-1377.5 187.12,-1377.5 187.12,-1427.25"/>
<text text-anchor="start" x="176.38" y="-1413.75" font-family="Helvetica,sans-Serif" font-size="10.00">K</text>
<text text-anchor="start" x="178.25" y="-1398.5" font-family="Helvetica,sans-Serif" font-size="10.00"> </text>
<text text-anchor="start" x="178.25" y="-1383.25" font-family="Helvetica,sans-Serif" font-size="10.00"> </text>
<polygon fill="#666666" stroke="#666666" points="172.38,-1410 172.38,-1410 187.12,-1410 187.12,-1410 172.38,-1410"/>
<polygon fill="#666666" stroke="#666666" points="172.38,-1394.75 172.38,-1394.75 187.12,-1394.75 187.12,-1394.75 172.38,-1394.75"/>
<polygon fill="none" stroke="#666666" points="172.38,-1377.5 172.38,-1427.25 187.12,-1427.25 187.12,-1377.5 172.38,-1377.5"/>
</a>
</g>
</g>
<!-- Node11&#45;&gt;Node10 -->
<g id="edge12_Node000010_Node000011" class="edge">
<title>Node11&#45;&gt;Node10</title>
<g id="a_edge12_Node000010_Node000011"><a xlink:title=" ">
<path fill="none" stroke="#63b8ff" d="M179.55,-1377.94C179.21,-1336.02 178.47,-1247.94 178.05,-1198.03"/>
<polygon fill="none" stroke="#63b8ff" points="178.05,-1197.93 174,-1191.97 177.95,-1185.93 182,-1191.9 178.05,-1197.93"/>
</a>
</g>
<text text-anchor="middle" x="192.88" y="-1258.5" font-family="Helvetica,sans-Serif" font-size="10.00" fill="grey"> +keys</text>
</g>
<!-- Node12 -->
<g id="Node000012" class="node">
<title>Node12</title>
<g id="a_Node000012"><a xlink:title=" ">
<polygon fill="white" stroke="none" points="80.75,-1427.25 66.75,-1427.25 66.75,-1377.5 80.75,-1377.5 80.75,-1427.25"/>
<text text-anchor="start" x="70.75" y="-1413.75" font-family="Helvetica,sans-Serif" font-size="10.00">T</text>
<text text-anchor="start" x="72.25" y="-1398.5" font-family="Helvetica,sans-Serif" font-size="10.00"> </text>
<text text-anchor="start" x="72.25" y="-1383.25" font-family="Helvetica,sans-Serif" font-size="10.00"> </text>
<polygon fill="#666666" stroke="#666666" points="66.75,-1410 66.75,-1410 80.75,-1410 80.75,-1410 66.75,-1410"/>
<polygon fill="#666666" stroke="#666666" points="66.75,-1394.75 66.75,-1394.75 80.75,-1394.75 80.75,-1394.75 66.75,-1394.75"/>
<polygon fill="none" stroke="#666666" points="66.75,-1377.5 66.75,-1427.25 80.75,-1427.25 80.75,-1377.5 66.75,-1377.5"/>
</a>
</g>
</g>
<!-- Node12&#45;&gt;Node10 -->
<g id="edge13_Node000010_Node000012" class="edge">
<title>Node12&#45;&gt;Node10</title>
<g id="a_edge13_Node000010_Node000012"><a xlink:title=" ">
<path fill="none" stroke="#63b8ff" d="M80.72,-1379.43C90.07,-1350.76 107.72,-1299.21 126.75,-1256.75 135.9,-1236.35 147.58,-1214.3 157.46,-1196.55"/>
<polygon fill="none" stroke="#63b8ff" points="157.46,-1196.54 156.93,-1189.35 163.36,-1186.09 163.89,-1193.28 157.46,-1196.54"/>
</a>
</g>
<text text-anchor="middle" x="150.75" y="-1258.5" font-family="Helvetica,sans-Serif" font-size="10.00" fill="grey"> +elements</text>
</g>
<!-- Node15 -->
<g id="Node000015" class="node">
<title>Node15</title>
<g id="a_Node000015"><a xlink:title=" ">
<polygon fill="white" stroke="none" points="75.5,-1064.25 0,-1064.25 0,-1014.5 75.5,-1014.5 75.5,-1064.25"/>
<text text-anchor="start" x="4" y="-1050.75" font-family="Helvetica,sans-Serif" font-size="10.00">std::vector&lt; T &gt;</text>
<text text-anchor="start" x="36.25" y="-1035.5" font-family="Helvetica,sans-Serif" font-size="10.00"> </text>
<text text-anchor="start" x="36.25" y="-1020.25" font-family="Helvetica,sans-Serif" font-size="10.00"> </text>
<polygon fill="#666666" stroke="#666666" points="0,-1047 0,-1047 75.5,-1047 75.5,-1047 0,-1047"/>
<polygon fill="#666666" stroke="#666666" points="0,-1031.75 0,-1031.75 75.5,-1031.75 75.5,-1031.75 0,-1031.75"/>
<polygon fill="none" stroke="#666666" points="0,-1014.5 0,-1064.25 75.5,-1064.25 75.5,-1014.5 0,-1014.5"/>
</a>
</g>
</g>
<!-- Node12&#45;&gt;Node15 -->
<g id="edge18_Node000015_Node000012" class="edge">
<title>Node12&#45;&gt;Node15</title>
<g id="a_edge18_Node000015_Node000012"><a xlink:title=" ">
<path fill="none" stroke="#63b8ff" d="M71.39,-1377.69C65.25,-1316.11 48.75,-1150.66 41.38,-1076.82"/>
<polygon fill="none" stroke="#63b8ff" points="41.4,-1076.99 36.83,-1071.41 40.21,-1065.05 44.79,-1070.62 41.4,-1076.99"/>
</a>
</g>
<text text-anchor="middle" x="84.33" y="-1258.5" font-family="Helvetica,sans-Serif" font-size="10.00" fill="grey"> +elements</text>
</g>
<!-- Node13 -->
<g id="Node000013" class="node">
<title>Node13</title>
<g id="a_Node000013"><a xlink:title=" ">
<polygon fill="white" stroke="none" points="297.12,-790.75 198.38,-790.75 198.38,-729.75 297.12,-729.75 297.12,-790.75"/>
<text text-anchor="start" x="202.38" y="-777.25" font-family="Helvetica,sans-Serif" font-size="10.00">std::vector&lt; GamR::</text>
<text text-anchor="start" x="202.38" y="-766" font-family="Helvetica,sans-Serif" font-size="10.00">Coulex::Transition * &gt;</text>
<text text-anchor="start" x="246.25" y="-750.75" font-family="Helvetica,sans-Serif" font-size="10.00"> </text>
<text text-anchor="start" x="246.25" y="-735.5" font-family="Helvetica,sans-Serif" font-size="10.00"> </text>
<polygon fill="#666666" stroke="#666666" points="198.38,-762.25 198.38,-762.25 297.12,-762.25 297.12,-762.25 198.38,-762.25"/>
<polygon fill="#666666" stroke="#666666" points="198.38,-747 198.38,-747 297.12,-747 297.12,-747 198.38,-747"/>
<polygon fill="none" stroke="#666666" points="198.38,-729.75 198.38,-790.75 297.12,-790.75 297.12,-729.75 198.38,-729.75"/>
</a>
</g>
</g>
<!-- Node13&#45;&gt;Node4 -->
<g id="edge14_Node000004_Node000013" class="edge">
<title>Node13&#45;&gt;Node4</title>
<g id="a_edge14_Node000004_Node000013"><a xlink:title=" ">
<path fill="none" stroke="#63b8ff" d="M257.59,-729.83C260.98,-719.86 264.85,-708.67 268.5,-698.5 269.2,-696.55 269.91,-694.59 270.62,-692.61"/>
<polygon fill="none" stroke="#63b8ff" points="270.67,-692.47 268.96,-685.47 274.77,-681.2 276.48,-688.2 270.67,-692.47"/>
</a>
</g>
<text text-anchor="middle" x="298.12" y="-700.25" font-family="Helvetica,sans-Serif" font-size="10.00" fill="grey"> +fTransitions</text>
</g>
<!-- Node14&#45;&gt;Node13 -->
<g id="edge15_Node000013_Node000014" class="edge">
<title>Node14&#45;&gt;Node13</title>
<g id="a_edge15_Node000013_Node000014"><a xlink:title=" ">
<path fill="none" stroke="#63b8ff" d="M247.75,-840.16C247.75,-827.47 247.75,-814.75 247.75,-803.34"/>
<polygon fill="none" stroke="#63b8ff" points="247.75,-803.53 243.75,-797.53 247.75,-791.53 251.75,-797.53 247.75,-803.53"/>
</a>
</g>
<text text-anchor="middle" x="271.75" y="-812.5" font-family="Helvetica,sans-Serif" font-size="10.00" fill="grey"> +elements</text>
</g>
<!-- Node15&#45;&gt;Node13 -->
<g id="edge17_Node000013_Node000015" class="edge">
<title>Node15&#45;&gt;Node13</title>
<g id="a_edge17_Node000013_Node000015"><a xlink:title=" ">
<path fill="none" stroke="orange" d="M28.84,-1003.62C20.03,-960.8 12.4,-887.88 47.25,-840 82.33,-791.82 117.38,-814.79 172.75,-792.75 181.15,-789.41 190.03,-785.77 198.64,-782.19"/>
<polygon fill="orange" stroke="orange" points="25.36,-1004.1 30.93,-1013.11 32.19,-1002.6 25.36,-1004.1"/>
</a>
</g>
<text text-anchor="middle" x="114" y="-914.38" font-family="Helvetica,sans-Serif" font-size="10.00" fill="grey"> &lt; GamR::Coulex::Transition * &gt;</text>
</g>
<!-- Node16 -->
<g id="Node000016" class="node">
<title>Node16</title>
<g id="a_Node000016"><a xlink:href="../../dd/d82/class_gam_r_1_1_coulex_1_1_particle_detector.html" target="_top" xlink:title=" ">
<polygon fill="white" stroke="none" points="547.62,-619.5 403.88,-619.5 403.88,-508.75 547.62,-508.75 547.62,-619.5"/>
<text text-anchor="start" x="407.88" y="-606" font-family="Helvetica,sans-Serif" font-size="10.00">GamR::Coulex::ParticleDetector</text>
<text text-anchor="start" x="425.81" y="-590.75" font-family="Helvetica,sans-Serif" font-size="10.00">+</text>
<text text-anchor="start" x="453.75" y="-590.75" font-family="Helvetica,sans-Serif" font-size="10.00">fWidth</text>
<text text-anchor="start" x="425.81" y="-575.5" font-family="Helvetica,sans-Serif" font-size="10.00">+</text>
<text text-anchor="start" x="453.75" y="-575.5" font-family="Helvetica,sans-Serif" font-size="10.00">fHeight</text>
<text text-anchor="start" x="425.81" y="-560.25" font-family="Helvetica,sans-Serif" font-size="10.00">+</text>
<text text-anchor="start" x="453.75" y="-560.25" font-family="Helvetica,sans-Serif" font-size="10.00">fDistanceZ</text>
<text text-anchor="start" x="425.81" y="-545" font-family="Helvetica,sans-Serif" font-size="10.00">+</text>
<text text-anchor="start" x="453.75" y="-545" font-family="Helvetica,sans-Serif" font-size="10.00">fDistanceR</text>
<text text-anchor="start" x="425.81" y="-529.75" font-family="Helvetica,sans-Serif" font-size="10.00">+</text>
<text text-anchor="start" x="453.75" y="-529.75" font-family="Helvetica,sans-Serif" font-size="10.00">Print()</text>
<text text-anchor="start" x="425.81" y="-514.5" font-family="Helvetica,sans-Serif" font-size="10.00">+</text>
<text text-anchor="start" x="453.75" y="-514.5" font-family="Helvetica,sans-Serif" font-size="10.00">DrawSetup()</text>
<polygon fill="#666666" stroke="#666666" points="403.88,-602.25 403.88,-602.25 547.62,-602.25 547.62,-602.25 403.88,-602.25"/>
<polygon fill="#666666" stroke="#666666" points="403.88,-541.25 403.88,-541.25 451.75,-541.25 451.75,-541.25 403.88,-541.25"/>
<polygon fill="#666666" stroke="#666666" points="451.75,-541.25 451.75,-541.25 547.62,-541.25 547.62,-541.25 451.75,-541.25"/>
<polygon fill="none" stroke="#666666" points="403.88,-508.75 403.88,-619.5 547.62,-619.5 547.62,-508.75 403.88,-508.75"/>
</a>
</g>
</g>
<!-- Node16&#45;&gt;Node1 -->
<g id="edge19_Node000001_Node000016" class="edge">
<title>Node16&#45;&gt;Node1</title>
<g id="a_edge19_Node000001_Node000016"><a xlink:title=" ">
<path fill="none" stroke="#63b8ff" d="M441.92,-508.95C412.93,-462.54 369.99,-393.78 332.04,-333.02"/>
<polygon fill="none" stroke="#63b8ff" points="332.1,-333.11 325.53,-330.14 325.74,-322.93 332.31,-325.9 332.1,-333.11"/>
</a>
</g>
<text text-anchor="middle" x="430.14" y="-420.25" font-family="Helvetica,sans-Serif" font-size="10.00" fill="grey"> +fParticleDetector</text>
</g>
</g>
</svg>

<g id="navigator" transform="translate(0 0)" fill="#404254">
  <rect fill="#f2f5e9" fill-opacity="0.5" stroke="#606060" stroke-width=".5" x="0" y="0" width="60" height="60"/>
  <use id="zoomplus" xlink:href="#zoomPlus" x="17" y="9" onmousedown="handleZoom(evt,'in')"/>
  <use id="zoomminus" xlink:href="#zoomMin" x="42" y="9" onmousedown="handleZoom(evt,'out')"/>
  <use id="reset" xlink:href="#resetDef" x="30" y="36" onmousedown="handleReset()"/>
   <use id="arrowup" xlink:href="#arrowUp" x="0" y="0" onmousedown="handlePan(0,-1)"/>
  <use id="arrowright" xlink:href="#arrowRight" x="0" y="0" onmousedown="handlePan(1,0)"/>
  <use id="arrowdown" xlink:href="#arrowDown" x="0" y="0" onmousedown="handlePan(0,1)"/>
  <use id="arrowleft" xlink:href="#arrowLeft" x="0" y="0" onmousedown="handlePan(-1,0)"/>
</g>
<svg viewBox="0 0 15 15" width="100%" height="30px" preserveAspectRatio="xMaxYMin meet">
 <g id="arrow_out" transform="scale(0.3 0.3)">
  <a xlink:href="class_gam_r_1_1_coulex_1_1_coulex_calculation__coll__graph_org.svg" target="_base">
   <rect id="button" ry="5" rx="5" y="6" x="6" height="38" width="38"
        fill="#f2f5e9" fill-opacity="0.5" stroke="#606060" stroke-width="1.0"/>
   <path id="arrow"
     d="M 11.500037,31.436501 C 11.940474,20.09759 22.043105,11.32322 32.158766,21.979434 L 37.068811,17.246167 C 37.068811,17.246167 37.088388,32 37.088388,32 L 22.160133,31.978069 C 22.160133,31.978069 26.997745,27.140456 26.997745,27.140456 C 18.528582,18.264221 13.291696,25.230495 11.500037,31.436501 z"
     style="fill:#404040;"/>
  </a>
 </g>
</svg>

<style type='text/css'>
<![CDATA[
[data-mouse-over-selected='false'] { opacity: 0.7; }
[data-mouse-over-selected='true']  { opacity: 1.0; }
]]>
</style>
<script type="application/ecmascript"><![CDATA[
document.addEventListener('DOMContentLoaded', (event) => {
  highlightEdges();
  highlightAdjacentNodes();
});
]]></script>
</svg>
