<?xml version="1.0" encoding="UTF-8" standalone="no"?>
<!DOCTYPE svg PUBLIC "-//W3C//DTD SVG 1.1//EN"
 "http://www.w3.org/Graphics/SVG/1.1/DTD/svg11.dtd">
<!-- Generated by graphviz version 9.0.0 (20230911.1827)
 -->
<!-- Title: GamR::Nucleus::TransitionMap Pages: 1 -->
<svg width="152pt" height="247pt"
 viewBox="0.00 0.00 152.00 247.00" xmlns="http://www.w3.org/2000/svg" xmlns:xlink="http://www.w3.org/1999/xlink">

<svg id="main" version="1.1" xmlns="http://www.w3.org/2000/svg" xmlns:xlink="http://www.w3.org/1999/xlink" xml:space="preserve" onload="init(evt)">
<style type="text/css"><![CDATA[
.node, .edge {opacity: 0.7;}
.node.selected, .edge.selected {opacity: 1;}
.edge:hover path { stroke: red; }
.edge:hover polygon { stroke: red; fill: red; }
]]></style>
<script type="application/ecmascript" xlink:href="../../svg.min.js"/>
<svg id="graph" class="graph">
<g id="graph0" class="graph" transform="scale(1 1) rotate(0) translate(4 243)">
<title>GamR::Nucleus::TransitionMap</title>
<!-- Node1 -->
<g id="Node000001" class="node">
<title>Node1</title>
<g id="a_Node000001"><a xlink:title=" ">
<polygon fill="#999999" stroke="none" points="144,-154 0,-154 0,0 144,0 144,-154"/>
<text text-anchor="start" x="4.88" y="-140.5" font-family="Helvetica,sans-Serif" font-size="10.00">GamR::Nucleus::TransitionMap</text>
<text text-anchor="start" x="70.5" y="-125.5" font-family="Helvetica,sans-Serif" font-size="10.00"> </text>
<text text-anchor="start" x="18.5" y="-110.5" font-family="Helvetica,sans-Serif" font-size="10.00">+</text>
<text text-anchor="start" x="43" y="-110.5" font-family="Helvetica,sans-Serif" font-size="10.00">TransitionMap()</text>
<text text-anchor="start" x="18.5" y="-95.5" font-family="Helvetica,sans-Serif" font-size="10.00">+</text>
<text text-anchor="start" x="43" y="-95.5" font-family="Helvetica,sans-Serif" font-size="10.00">TransitionMap()</text>
<text text-anchor="start" x="18.5" y="-80.5" font-family="Helvetica,sans-Serif" font-size="10.00">+</text>
<text text-anchor="start" x="43" y="-80.5" font-family="Helvetica,sans-Serif" font-size="10.00">TransitionMap()</text>
<text text-anchor="start" x="18.5" y="-65.5" font-family="Helvetica,sans-Serif" font-size="10.00">+</text>
<text text-anchor="start" x="43" y="-65.5" font-family="Helvetica,sans-Serif" font-size="10.00">operator[]()</text>
<text text-anchor="start" x="18.5" y="-50.5" font-family="Helvetica,sans-Serif" font-size="10.00">+</text>
<text text-anchor="start" x="43" y="-50.5" font-family="Helvetica,sans-Serif" font-size="10.00">GetMap()</text>
<text text-anchor="start" x="18.5" y="-35.5" font-family="Helvetica,sans-Serif" font-size="10.00">+</text>
<text text-anchor="start" x="43" y="-35.5" font-family="Helvetica,sans-Serif" font-size="10.00">ReadFile()</text>
<text text-anchor="start" x="18.5" y="-20.5" font-family="Helvetica,sans-Serif" font-size="10.00">+</text>
<text text-anchor="start" x="43" y="-20.5" font-family="Helvetica,sans-Serif" font-size="10.00">WriteFile()</text>
<text text-anchor="start" x="18.5" y="-5.5" font-family="Helvetica,sans-Serif" font-size="10.00">+</text>
<text text-anchor="start" x="43" y="-5.5" font-family="Helvetica,sans-Serif" font-size="10.00">ls()</text>
<polygon fill="#666666" stroke="#666666" points="0,-137 0,-137 144,-137 144,-137 0,-137"/>
<polygon fill="#666666" stroke="#666666" points="0,-122 0,-122 144,-122 144,-122 0,-122"/>
<polygon fill="none" stroke="#666666" points="0,0 0,-154 144,-154 144,0 0,0"/>
</a>
</g>
</g>
<!-- Node2 -->
<g id="Node000002" class="node">
<title>Node2</title>
<g id="a_Node000002"><a xlink:title=" ">
<polygon fill="white" stroke="none" points="95.5,-239 48.5,-239 48.5,-190 95.5,-190 95.5,-239"/>
<text text-anchor="start" x="53.25" y="-225.5" font-family="Helvetica,sans-Serif" font-size="10.00">TNamed</text>
<text text-anchor="start" x="70.5" y="-210.5" font-family="Helvetica,sans-Serif" font-size="10.00"> </text>
<text text-anchor="start" x="70.5" y="-195.5" font-family="Helvetica,sans-Serif" font-size="10.00"> </text>
<polygon fill="#666666" stroke="#666666" points="48.5,-222 48.5,-222 95.5,-222 95.5,-222 48.5,-222"/>
<polygon fill="#666666" stroke="#666666" points="48.5,-207 48.5,-207 95.5,-207 95.5,-207 48.5,-207"/>
<polygon fill="none" stroke="#666666" points="48.5,-190 48.5,-239 95.5,-239 95.5,-190 48.5,-190"/>
</a>
</g>
</g>
<!-- Node2&#45;&gt;Node1 -->
<g id="edge1_Node000001_Node000002" class="edge">
<title>Node2&#45;&gt;Node1</title>
<g id="a_edge1_Node000001_Node000002"><a xlink:title=" ">
<path fill="none" stroke="#63b8ff" d="M72,-178.72C72,-170.96 72,-162.43 72,-153.72"/>
<polygon fill="none" stroke="#63b8ff" points="68.5,-178.69 72,-188.69 75.5,-178.69 68.5,-178.69"/>
</a>
</g>
</g>
</g>
</svg>
</svg>

<style type='text/css'>
<![CDATA[
[data-mouse-over-selected='false'] { opacity: 0.7; }
[data-mouse-over-selected='true']  { opacity: 1.0; }
]]>
</style>
<script type="application/ecmascript"><![CDATA[
document.addEventListener('DOMContentLoaded', (event) => {
  highlightEdges();
  highlightAdjacentNodes();
});
]]></script>
</svg>
