<?xml version="1.0" encoding="UTF-8" standalone="no"?>
<!DOCTYPE svg PUBLIC "-//W3C//DTD SVG 1.1//EN"
 "http://www.w3.org/Graphics/SVG/1.1/DTD/svg11.dtd">
<!-- Generated by graphviz version 9.0.0 (20230911.1827)
 -->
<!-- Title: src/lib/spect/IO.cc Pages: 1 -->
<svg width="484pt" height="138pt"
 viewBox="0.00 0.00 483.50 137.75" xmlns="http://www.w3.org/2000/svg" xmlns:xlink="http://www.w3.org/1999/xlink">

<svg id="main" version="1.1" xmlns="http://www.w3.org/2000/svg" xmlns:xlink="http://www.w3.org/1999/xlink" xml:space="preserve" onload="init(evt)">
<style type="text/css"><![CDATA[
.node, .edge {opacity: 0.7;}
.node.selected, .edge.selected {opacity: 1;}
.edge:hover path { stroke: red; }
.edge:hover polygon { stroke: red; fill: red; }
]]></style>
<script type="application/ecmascript" xlink:href="../../svg.min.js"/>
<svg id="graph" class="graph">
<g id="graph0" class="graph" transform="scale(1 1) rotate(0) translate(4 133.75)">
<title>src/lib/spect/IO.cc</title>
<!-- Node1 -->
<g id="Node000001" class="node">
<title>Node1</title>
<g id="a_Node000001"><a xlink:title=" ">
<polygon fill="#999999" stroke="#666666" points="176.25,-129.75 80.75,-129.75 80.75,-110.5 176.25,-110.5 176.25,-129.75"/>
<text text-anchor="middle" x="128.5" y="-116.25" font-family="Helvetica,sans-Serif" font-size="10.00">src/lib/spect/IO.cc</text>
</a>
</g>
</g>
<!-- Node2 -->
<g id="Node000002" class="node">
<title>Node2</title>
<g id="a_Node000002"><a xlink:title=" ">
<polygon fill="#e0e0e0" stroke="#999999" points="49,-74.5 0,-74.5 0,-55.25 49,-55.25 49,-74.5"/>
<text text-anchor="middle" x="24.5" y="-61" font-family="Helvetica,sans-Serif" font-size="10.00">fstream</text>
</a>
</g>
</g>
<!-- Node1&#45;&gt;Node2 -->
<g id="edge1_Node000001_Node000002" class="edge">
<title>Node1&#45;&gt;Node2</title>
<g id="a_edge1_Node000001_Node000002"><a xlink:title=" ">
<path fill="none" stroke="#63b8ff" d="M110.86,-110.09C94.87,-101.91 71.04,-89.71 52.46,-80.19"/>
<polygon fill="#63b8ff" stroke="#63b8ff" points="54.07,-77.08 43.58,-75.64 50.88,-83.32 54.07,-77.08"/>
</a>
</g>
</g>
<!-- Node3 -->
<g id="Node000003" class="node">
<title>Node3</title>
<g id="a_Node000003"><a xlink:title=" ">
<polygon fill="#e0e0e0" stroke="#999999" points="120.25,-74.5 66.75,-74.5 66.75,-55.25 120.25,-55.25 120.25,-74.5"/>
<text text-anchor="middle" x="93.5" y="-61" font-family="Helvetica,sans-Serif" font-size="10.00">iostream</text>
</a>
</g>
</g>
<!-- Node1&#45;&gt;Node3 -->
<g id="edge2_Node000001_Node000003" class="edge">
<title>Node1&#45;&gt;Node3</title>
<g id="a_edge2_Node000001_Node000003"><a xlink:title=" ">
<path fill="none" stroke="#63b8ff" d="M122.72,-110.33C118.09,-103.28 111.43,-93.15 105.63,-84.33"/>
<polygon fill="#63b8ff" stroke="#63b8ff" points="108.65,-82.56 100.24,-76.12 102.8,-86.4 108.65,-82.56"/>
</a>
</g>
</g>
<!-- Node4 -->
<g id="Node000004" class="node">
<title>Node4</title>
<g id="a_Node000004"><a xlink:title=" ">
<polygon fill="#e0e0e0" stroke="#999999" points="189.12,-74.5 137.88,-74.5 137.88,-55.25 189.12,-55.25 189.12,-74.5"/>
<text text-anchor="middle" x="163.5" y="-61" font-family="Helvetica,sans-Serif" font-size="10.00">sstream</text>
</a>
</g>
</g>
<!-- Node1&#45;&gt;Node4 -->
<g id="edge3_Node000001_Node000004" class="edge">
<title>Node1&#45;&gt;Node4</title>
<g id="a_edge3_Node000001_Node000004"><a xlink:title=" ">
<path fill="none" stroke="#63b8ff" d="M134.28,-110.33C138.91,-103.28 145.57,-93.15 151.37,-84.33"/>
<polygon fill="#63b8ff" stroke="#63b8ff" points="154.2,-86.4 156.76,-76.12 148.35,-82.56 154.2,-86.4"/>
</a>
</g>
</g>
<!-- Node5 -->
<g id="Node000005" class="node">
<title>Node5</title>
<g id="a_Node000005"><a xlink:href="../../d4/d9c/_i_o_8hh.html" target="_top" xlink:title=" ">
<polygon fill="white" stroke="#666666" points="246.12,-74.5 206.88,-74.5 206.88,-55.25 246.12,-55.25 246.12,-74.5"/>
<text text-anchor="middle" x="226.5" y="-61" font-family="Helvetica,sans-Serif" font-size="10.00">IO.hh</text>
</a>
</g>
</g>
<!-- Node1&#45;&gt;Node5 -->
<g id="edge4_Node000001_Node000005" class="edge">
<title>Node1&#45;&gt;Node5</title>
<g id="a_edge4_Node000001_Node000005"><a xlink:title=" ">
<path fill="none" stroke="#63b8ff" d="M145.12,-110.09C160.19,-101.91 182.64,-89.71 200.15,-80.19"/>
<polygon fill="#63b8ff" stroke="#63b8ff" points="201.35,-83.52 208.46,-75.68 198.01,-77.37 201.35,-83.52"/>
</a>
</g>
</g>
<!-- Node6 -->
<g id="Node000006" class="node">
<title>Node6</title>
<g id="a_Node000006"><a xlink:title=" ">
<polygon fill="#e0e0e0" stroke="#999999" points="65.5,-19.25 25.5,-19.25 25.5,0 65.5,0 65.5,-19.25"/>
<text text-anchor="middle" x="45.5" y="-5.75" font-family="Helvetica,sans-Serif" font-size="10.00">string</text>
</a>
</g>
</g>
<!-- Node5&#45;&gt;Node6 -->
<g id="edge5_Node000005_Node000006" class="edge">
<title>Node5&#45;&gt;Node6</title>
<g id="a_edge5_Node000005_Node000006"><a xlink:title=" ">
<path fill="none" stroke="#63b8ff" d="M206.63,-57.71C203.9,-56.88 201.13,-56.04 198.5,-55.25 146.74,-39.77 131.34,-35.87 76.49,-19.82"/>
<polygon fill="#63b8ff" stroke="#63b8ff" points="77.81,-16.56 67.23,-17.1 75.84,-23.27 77.81,-16.56"/>
</a>
</g>
</g>
<!-- Node7 -->
<g id="Node000007" class="node">
<title>Node7</title>
<g id="a_Node000007"><a xlink:title=" ">
<polygon fill="#e0e0e0" stroke="#999999" points="127,-19.25 84,-19.25 84,0 127,0 127,-19.25"/>
<text text-anchor="middle" x="105.5" y="-5.75" font-family="Helvetica,sans-Serif" font-size="10.00">vector</text>
</a>
</g>
</g>
<!-- Node5&#45;&gt;Node7 -->
<g id="edge6_Node000005_Node000007" class="edge">
<title>Node5&#45;&gt;Node7</title>
<g id="a_edge6_Node000005_Node000007"><a xlink:title=" ">
<path fill="none" stroke="#63b8ff" d="M206.52,-55.08C187.46,-46.69 158.46,-33.93 136.41,-24.23"/>
<polygon fill="#63b8ff" stroke="#63b8ff" points="137.86,-21.04 127.3,-20.22 135.04,-27.45 137.86,-21.04"/>
</a>
</g>
</g>
<!-- Node8 -->
<g id="Node000008" class="node">
<title>Node8</title>
<g id="a_Node000008"><a xlink:title=" ">
<polygon fill="#e0e0e0" stroke="#999999" points="187.62,-19.25 145.38,-19.25 145.38,0 187.62,0 187.62,-19.25"/>
<text text-anchor="middle" x="166.5" y="-5.75" font-family="Helvetica,sans-Serif" font-size="10.00">TH1.h</text>
</a>
</g>
</g>
<!-- Node5&#45;&gt;Node8 -->
<g id="edge7_Node000005_Node000008" class="edge">
<title>Node5&#45;&gt;Node8</title>
<g id="a_edge7_Node000005_Node000008"><a xlink:title=" ">
<path fill="none" stroke="#63b8ff" d="M216.32,-54.84C207.74,-47.22 195.23,-36.12 184.9,-26.95"/>
<polygon fill="#63b8ff" stroke="#63b8ff" points="187.46,-24.55 177.66,-20.53 182.82,-29.79 187.46,-24.55"/>
</a>
</g>
</g>
<!-- Node9 -->
<g id="Node000009" class="node">
<title>Node9</title>
<g id="a_Node000009"><a xlink:title=" ">
<polygon fill="#e0e0e0" stroke="#999999" points="247.62,-19.25 205.38,-19.25 205.38,0 247.62,0 247.62,-19.25"/>
<text text-anchor="middle" x="226.5" y="-5.75" font-family="Helvetica,sans-Serif" font-size="10.00">TH2.h</text>
</a>
</g>
</g>
<!-- Node5&#45;&gt;Node9 -->
<g id="edge8_Node000005_Node000009" class="edge">
<title>Node5&#45;&gt;Node9</title>
<g id="a_edge8_Node000005_Node000009"><a xlink:title=" ">
<path fill="none" stroke="#63b8ff" d="M226.5,-55.08C226.5,-48.57 226.5,-39.42 226.5,-31.12"/>
<polygon fill="#63b8ff" stroke="#63b8ff" points="230,-31.12 226.5,-21.12 223,-31.12 230,-31.12"/>
</a>
</g>
</g>
<!-- Node10 -->
<g id="Node000010" class="node">
<title>Node10</title>
<g id="a_Node000010"><a xlink:title=" ">
<polygon fill="#e0e0e0" stroke="#999999" points="347.12,-19.25 265.88,-19.25 265.88,0 347.12,0 347.12,-19.25"/>
<text text-anchor="middle" x="306.5" y="-5.75" font-family="Helvetica,sans-Serif" font-size="10.00">TGraphErrors.h</text>
</a>
</g>
</g>
<!-- Node5&#45;&gt;Node10 -->
<g id="edge9_Node000005_Node000010" class="edge">
<title>Node5&#45;&gt;Node10</title>
<g id="a_edge9_Node000005_Node000010"><a xlink:title=" ">
<path fill="none" stroke="#63b8ff" d="M240.07,-54.84C251.91,-46.96 269.34,-35.36 283.37,-26.02"/>
<polygon fill="#63b8ff" stroke="#63b8ff" points="285.22,-29 291.6,-20.54 281.34,-23.17 285.22,-29"/>
</a>
</g>
</g>
<!-- Node11 -->
<g id="Node000011" class="node">
<title>Node11</title>
<g id="a_Node000011"><a xlink:title=" ">
<polygon fill="#e0e0e0" stroke="#999999" points="405.88,-19.25 365.12,-19.25 365.12,0 405.88,0 405.88,-19.25"/>
<text text-anchor="middle" x="385.5" y="-5.75" font-family="Helvetica,sans-Serif" font-size="10.00">TF1.h</text>
</a>
</g>
</g>
<!-- Node5&#45;&gt;Node11 -->
<g id="edge10_Node000005_Node000011" class="edge">
<title>Node5&#45;&gt;Node11</title>
<g id="a_edge10_Node000005_Node000011"><a xlink:title=" ">
<path fill="none" stroke="#63b8ff" d="M246.32,-57.24C273.35,-48.19 322.07,-31.87 354.11,-21.14"/>
<polygon fill="#63b8ff" stroke="#63b8ff" points="354.87,-24.57 363.24,-18.08 352.65,-17.94 354.87,-24.57"/>
</a>
</g>
</g>
<!-- Node12 -->
<g id="Node000012" class="node">
<title>Node12</title>
<g id="a_Node000012"><a xlink:title=" ">
<polygon fill="#e0e0e0" stroke="#999999" points="475.5,-19.25 423.5,-19.25 423.5,0 475.5,0 475.5,-19.25"/>
<text text-anchor="middle" x="449.5" y="-5.75" font-family="Helvetica,sans-Serif" font-size="10.00">TCutG.h</text>
</a>
</g>
</g>
<!-- Node5&#45;&gt;Node12 -->
<g id="edge11_Node000005_Node000012" class="edge">
<title>Node5&#45;&gt;Node12</title>
<g id="a_edge11_Node000005_Node000012"><a xlink:title=" ">
<path fill="none" stroke="#63b8ff" d="M246.55,-59.18C279.12,-51.53 345.83,-35.81 412.08,-19.82"/>
<polygon fill="#63b8ff" stroke="#63b8ff" points="412.76,-23.26 421.66,-17.5 411.12,-16.45 412.76,-23.26"/>
</a>
</g>
</g>
</g>
</svg>
</svg>

<style type='text/css'>
<![CDATA[
[data-mouse-over-selected='false'] { opacity: 0.7; }
[data-mouse-over-selected='true']  { opacity: 1.0; }
]]>
</style>
<script type="application/ecmascript"><![CDATA[
document.addEventListener('DOMContentLoaded', (event) => {
  highlightEdges();
  highlightAdjacentNodes();
});
]]></script>
</svg>
