<?xml version="1.0" encoding="UTF-8" standalone="no"?>
<!DOCTYPE svg PUBLIC "-//W3C//DTD SVG 1.1//EN"
 "http://www.w3.org/Graphics/SVG/1.1/DTD/svg11.dtd">
<!-- Generated by graphviz version 9.0.0 (20230911.1827)
 -->
<!-- Title: src/lib/bateman/Solver.hh Pages: 1 -->
<svg width="286pt" height="83pt"
 viewBox="0.00 0.00 286.38 82.50" xmlns="http://www.w3.org/2000/svg" xmlns:xlink="http://www.w3.org/1999/xlink">
<g id="graph0" class="graph" transform="scale(1 1) rotate(0) translate(4 78.5)">
<title>src/lib/bateman/Solver.hh</title>
<!-- Node1 -->
<g id="Node000001" class="node">
<title>Node1</title>
<g id="a_Node000001"><a xlink:title=" ">
<polygon fill="#999999" stroke="#666666" points="204.38,-74.5 78.12,-74.5 78.12,-55.25 204.38,-55.25 204.38,-74.5"/>
<text text-anchor="middle" x="141.25" y="-61" font-family="Helvetica,sans-Serif" font-size="10.00">src/lib/bateman/Solver.hh</text>
</a>
</g>
</g>
<!-- Node2 -->
<g id="Node000002" class="node">
<title>Node2</title>
<g id="a_Node000002"><a xlink:href="../../dc/d62/_scheme_8cc.html" target="_top" xlink:title=" ">
<polygon fill="white" stroke="#666666" points="134.5,-19.25 0,-19.25 0,0 134.5,0 134.5,-19.25"/>
<text text-anchor="middle" x="67.25" y="-5.75" font-family="Helvetica,sans-Serif" font-size="10.00">src/lib/bateman/Scheme.cc</text>
</a>
</g>
</g>
<!-- Node1&#45;&gt;Node2 -->
<g id="edge1_Node000001_Node000002" class="edge">
<title>Node1&#45;&gt;Node2</title>
<g id="a_edge1_Node000001_Node000002"><a xlink:title=" ">
<path fill="none" stroke="#63b8ff" d="M119.49,-48.22C106.5,-38.87 90.47,-27.33 79.62,-19.52"/>
<polygon fill="#63b8ff" stroke="#63b8ff" points="117.31,-50.96 127.47,-53.96 121.4,-45.28 117.31,-50.96"/>
</a>
</g>
</g>
<!-- Node3 -->
<g id="Node000003" class="node">
<title>Node3</title>
<g id="a_Node000003"><a xlink:href="../../d2/de3/_solver_8cc.html" target="_top" xlink:title=" ">
<polygon fill="white" stroke="#666666" points="278.38,-19.25 152.12,-19.25 152.12,0 278.38,0 278.38,-19.25"/>
<text text-anchor="middle" x="215.25" y="-5.75" font-family="Helvetica,sans-Serif" font-size="10.00">src/lib/bateman/Solver.cc</text>
</a>
</g>
</g>
<!-- Node1&#45;&gt;Node3 -->
<g id="edge2_Node000001_Node000003" class="edge">
<title>Node1&#45;&gt;Node3</title>
<g id="a_edge2_Node000001_Node000003"><a xlink:title=" ">
<path fill="none" stroke="#63b8ff" d="M163.01,-48.22C176,-38.87 192.03,-27.33 202.88,-19.52"/>
<polygon fill="#63b8ff" stroke="#63b8ff" points="161.1,-45.28 155.03,-53.96 165.19,-50.96 161.1,-45.28"/>
</a>
</g>
</g>
</g>
</svg>
