<?xml version="1.0" encoding="UTF-8" standalone="no"?>
<!DOCTYPE svg PUBLIC "-//W3C//DTD SVG 1.1//EN"
 "http://www.w3.org/Graphics/SVG/1.1/DTD/svg11.dtd">
<!-- Generated by graphviz version 12.0.0 (20240704.0754)
 -->
<!-- Title: GamR::AngDist::RatioFunction Pages: 1 -->
<svg width="339pt" height="138pt"
 viewBox="0.00 0.00 338.50 138.25" xmlns="http://www.w3.org/2000/svg" xmlns:xlink="http://www.w3.org/1999/xlink">
<g id="graph0" class="graph" transform="scale(1 1) rotate(0) translate(4 134.25)">
<title>GamR::AngDist::RatioFunction</title>
<!-- Node1 -->
<g id="Node000001" class="node">
<title>Node1</title>
<g id="a_Node000001"><a xlink:title=" ">
<polygon fill="#999999" stroke="#666666" points="330.5,-74.25 183.25,-74.25 183.25,-55 330.5,-55 330.5,-74.25"/>
<text text-anchor="middle" x="256.88" y="-60.75" font-family="Helvetica,sans-Serif" font-size="10.00">GamR::AngDist::RatioFunction</text>
</a>
</g>
</g>
<!-- Node2 -->
<g id="Node000002" class="node">
<title>Node2</title>
<g id="a_Node000002"><a xlink:href="../../d1/dab/namespace_gam_r_1_1_ang_dist.html#aca4fecef890dcba5b92901d09b227c71" target="_top" xlink:title=" ">
<polygon fill="white" stroke="#666666" points="147.25,-130.25 0,-130.25 0,-111 147.25,-111 147.25,-130.25"/>
<text text-anchor="middle" x="73.62" y="-116.75" font-family="Helvetica,sans-Serif" font-size="10.00">GamR::AngDist::RatioFunction</text>
</a>
</g>
</g>
<!-- Node1&#45;&gt;Node2 -->
<g id="edge1_Node000001_Node000002" class="edge">
<title>Node1&#45;&gt;Node2</title>
<g id="a_edge1_Node000001_Node000002"><a xlink:title=" ">
<path fill="none" stroke="#63b8ff" d="M218.68,-78.61C197.83,-86.2 171.27,-95.46 147.25,-102.62 137.91,-105.41 127.81,-108.11 118.2,-110.53"/>
<polygon fill="#63b8ff" stroke="#63b8ff" points="219.72,-81.95 227.9,-75.22 217.3,-75.38 219.72,-81.95"/>
</a>
</g>
</g>
<!-- Node3 -->
<g id="Node000003" class="node">
<title>Node3</title>
<g id="a_Node000003"><a xlink:href="../../d1/dab/namespace_gam_r_1_1_ang_dist.html#a27d6ed29ea36eacdc97228eaf2cb5cab" target="_top" xlink:title=" ">
<polygon fill="white" stroke="#666666" points="147.25,-93.25 0,-93.25 0,-74 147.25,-74 147.25,-93.25"/>
<text text-anchor="middle" x="73.62" y="-79.75" font-family="Helvetica,sans-Serif" font-size="10.00">GamR::AngDist::RatioFunction</text>
</a>
</g>
</g>
<!-- Node1&#45;&gt;Node3 -->
<g id="edge2_Node000001_Node000003" class="edge">
<title>Node1&#45;&gt;Node3</title>
<g id="a_edge2_Node000001_Node000003"><a xlink:title=" ">
<path fill="none" stroke="#63b8ff" d="M171.69,-73.45C163.68,-74.29 155.6,-75.14 147.71,-75.96"/>
<polygon fill="#63b8ff" stroke="#63b8ff" points="171.85,-76.95 181.43,-72.43 171.12,-69.99 171.85,-76.95"/>
</a>
</g>
</g>
<!-- Node4 -->
<g id="Node000004" class="node">
<title>Node4</title>
<g id="a_Node000004"><a xlink:href="../../d1/dab/namespace_gam_r_1_1_ang_dist.html#ae3807ba0c16b7aa0265371dfb9ed06ae" target="_top" xlink:title=" ">
<polygon fill="white" stroke="#666666" points="147.25,-56.25 0,-56.25 0,-37 147.25,-37 147.25,-56.25"/>
<text text-anchor="middle" x="73.62" y="-42.75" font-family="Helvetica,sans-Serif" font-size="10.00">GamR::AngDist::RatioFunction</text>
</a>
</g>
</g>
<!-- Node1&#45;&gt;Node4 -->
<g id="edge3_Node000001_Node000004" class="edge">
<title>Node1&#45;&gt;Node4</title>
<g id="a_edge3_Node000001_Node000004"><a xlink:title=" ">
<path fill="none" stroke="#63b8ff" d="M171.69,-56.26C163.68,-55.47 155.6,-54.67 147.71,-53.88"/>
<polygon fill="#63b8ff" stroke="#63b8ff" points="171.13,-59.73 181.43,-57.23 171.83,-52.76 171.13,-59.73"/>
</a>
</g>
</g>
<!-- Node5 -->
<g id="Node000005" class="node">
<title>Node5</title>
<g id="a_Node000005"><a xlink:href="../../d1/dab/namespace_gam_r_1_1_ang_dist.html#ab1285067386ad9d3c80f6a7d9f6531fb" target="_top" xlink:title=" ">
<polygon fill="white" stroke="#666666" points="147.25,-19.25 0,-19.25 0,0 147.25,0 147.25,-19.25"/>
<text text-anchor="middle" x="73.62" y="-5.75" font-family="Helvetica,sans-Serif" font-size="10.00">GamR::AngDist::RatioFunction</text>
</a>
</g>
</g>
<!-- Node1&#45;&gt;Node5 -->
<g id="edge4_Node000001_Node000005" class="edge">
<title>Node1&#45;&gt;Node5</title>
<g id="a_edge4_Node000001_Node000005"><a xlink:title=" ">
<path fill="none" stroke="#63b8ff" d="M217.8,-50.77C197.08,-43.45 170.91,-34.57 147.25,-27.62 137.78,-24.84 127.53,-22.13 117.8,-19.68"/>
<polygon fill="#63b8ff" stroke="#63b8ff" points="216.38,-53.98 226.98,-54.03 218.73,-47.38 216.38,-53.98"/>
</a>
</g>
</g>
</g>
</svg>
