<?xml version="1.0" encoding="UTF-8" standalone="no"?>
<!DOCTYPE svg PUBLIC "-//W3C//DTD SVG 1.1//EN"
 "http://www.w3.org/Graphics/SVG/1.1/DTD/svg11.dtd">
<!-- Generated by graphviz version 6.0.2 (20221011.1828)
 -->
<!-- Title: GamR::AngDist::TransFrame Pages: 1 -->
<svg width="578pt" height="27pt"
 viewBox="0.00 0.00 578.00 27.00" xmlns="http://www.w3.org/2000/svg" xmlns:xlink="http://www.w3.org/1999/xlink">
<g id="graph0" class="graph" transform="scale(1 1) rotate(0) translate(4 23)">
<title>GamR::AngDist::TransFrame</title>
<!-- Node1 -->
<g id="node1" class="node">
<title>Node1</title>
<g id="a_node1"><a xlink:title=" ">
<polygon fill="#999999" stroke="#666666" points="140,-19 0,-19 0,0 140,0 140,-19"/>
<text text-anchor="middle" x="70" y="-7" font-family="Helvetica,sans-Serif" font-size="10.00">GamR::AngDist::TransFrame</text>
</a>
</g>
</g>
<!-- Node2 -->
<g id="node2" class="node">
<title>Node2</title>
<g id="a_node2"><a xlink:href="../../d1/dab/namespace_gam_r_1_1_ang_dist.html#a64b5a4704ab13f1fca8a2a787a30adde" target="_top" xlink:title=" ">
<polygon fill="white" stroke="#666666" points="285,-19 176,-19 176,0 285,0 285,-19"/>
<text text-anchor="middle" x="230.5" y="-7" font-family="Helvetica,sans-Serif" font-size="10.00">GamR::AngDist::BigD</text>
</a>
</g>
</g>
<!-- Node1&#45;&gt;Node2 -->
<g id="edge1" class="edge">
<title>Node1&#45;&gt;Node2</title>
<path fill="none" stroke="#63b8ff" d="M140.06,-9.5C148.6,-9.5 157.3,-9.5 165.76,-9.5"/>
<polygon fill="#63b8ff" stroke="#63b8ff" points="165.92,-13 175.92,-9.5 165.92,-6 165.92,-13"/>
</g>
<!-- Node3 -->
<g id="node3" class="node">
<title>Node3</title>
<g id="a_node3"><a xlink:href="../../d1/dab/namespace_gam_r_1_1_ang_dist.html#a0877eda04da307add630755c3b61f322" target="_top" xlink:title=" ">
<polygon fill="white" stroke="#666666" points="433,-19 321,-19 321,0 433,0 433,-19"/>
<text text-anchor="middle" x="377" y="-7" font-family="Helvetica,sans-Serif" font-size="10.00">GamR::AngDist::djmm</text>
</a>
</g>
</g>
<!-- Node2&#45;&gt;Node3 -->
<g id="edge2" class="edge">
<title>Node2&#45;&gt;Node3</title>
<path fill="none" stroke="#63b8ff" d="M285.31,-9.5C293.52,-9.5 302.08,-9.5 310.51,-9.5"/>
<polygon fill="#63b8ff" stroke="#63b8ff" points="310.7,-13 320.7,-9.5 310.7,-6 310.7,-13"/>
</g>
<!-- Node4 -->
<g id="node4" class="node">
<title>Node4</title>
<g id="a_node4"><a xlink:href="../../d0/db7/namespace_gam_r_1_1_utils.html#a7099ce4f94ee95597184a93c9bd8607a" target="_top" xlink:title=" ">
<polygon fill="white" stroke="#666666" points="570,-19 469,-19 469,0 570,0 570,-19"/>
<text text-anchor="middle" x="519.5" y="-7" font-family="Helvetica,sans-Serif" font-size="10.00">GamR::Utils::Fac10</text>
</a>
</g>
</g>
<!-- Node3&#45;&gt;Node4 -->
<g id="edge3" class="edge">
<title>Node3&#45;&gt;Node4</title>
<path fill="none" stroke="#63b8ff" d="M433.13,-9.5C441.43,-9.5 450.04,-9.5 458.44,-9.5"/>
<polygon fill="#63b8ff" stroke="#63b8ff" points="458.56,-13 468.56,-9.5 458.56,-6 458.56,-13"/>
</g>
</g>
</svg>
