<?xml version="1.0" encoding="UTF-8" standalone="no"?>
<!DOCTYPE svg PUBLIC "-//W3C//DTD SVG 1.1//EN"
 "http://www.w3.org/Graphics/SVG/1.1/DTD/svg11.dtd">
<!-- Generated by graphviz version 2.50.0 (20220203.2022)
 -->
<!-- Title: GamR::AngDist::Fk Pages: 1 -->
<!--zoomable 128 -->
<svg id="main" version="1.1" xmlns="http://www.w3.org/2000/svg" xmlns:xlink="http://www.w3.org/1999/xlink" xml:space="preserve" onload="init(evt)">
<style type="text/css"><![CDATA[
.edge:hover path { stroke: red; }
.edge:hover polygon { stroke: red; fill: red; }
]]></style>
<script type="text/javascript"><![CDATA[
var edges = document.getElementsByTagName('g');
if (edges && edges.length) {
  for (var i=0;i<edges.length;i++) {
    if (edges[i].id.substr(0,4)=='edge') {
      edges[i].setAttribute('class','edge');
    }
  }
}
]]></script>
        <defs>
                <circle id="rim" cx="0" cy="0" r="7"/>
                <circle id="rim2" cx="0" cy="0" r="3.5"/>
                <g id="zoomPlus">
                        <use xlink:href="#rim" fill="#404040">
                                <set attributeName="fill" to="#808080" begin="zoomplus.mouseover" end="zoomplus.mouseout"/>
                        </use>
                        <path d="M-4,0h8M0,-4v8" fill="none" stroke="white" stroke-width="1.5" pointer-events="none"/>
                </g>
                <g id="zoomMin">
                        <use xlink:href="#rim" fill="#404040">
                                <set attributeName="fill" to="#808080" begin="zoomminus.mouseover" end="zoomminus.mouseout"/>
                        </use>
                        <path d="M-4,0h8" fill="none" stroke="white" stroke-width="1.5" pointer-events="none"/>
                </g>
                <g id="dirArrow">
                        <path fill="none" stroke="white" stroke-width="1.5" d="M0,-3.0v7 M-2.5,-0.5L0,-3.0L2.5,-0.5"/>
                </g>
               <g id="resetDef">
                       <use xlink:href="#rim2" fill="#404040">
                               <set attributeName="fill" to="#808080" begin="reset.mouseover" end="reset.mouseout"/>
                       </use>
               </g>
        </defs>

<script type="text/javascript">
var viewWidth = 587;
var viewHeight = 128;
var sectionId = 'dynsection-13';
</script>
<script xlink:href="../../svgpan.js"/>
<svg id="graph" class="graph">
<g id="viewport">
<title>GamR::AngDist::Fk</title>
<polygon fill="white" stroke="transparent" points="-4,4 -4,-123.5 583,-123.5 583,4 -4,4"/>
<!-- Node1 -->
<g id="node1" class="node">
<title>Node1</title>
<g id="a_node1"><a xlink:title=" ">
<polygon fill="#bfbfbf" stroke="black" points="480,-66.5 480,-85.5 579,-85.5 579,-66.5 480,-66.5"/>
<text text-anchor="middle" x="529.5" y="-73.5" font-family="Helvetica,sans-Serif" font-size="10.00">GamR::AngDist::Fk</text>
</a>
</g>
</g>
<!-- Node2 -->
<g id="node2" class="node">
<title>Node2</title>
<g id="a_node2"><a xlink:href="../../da/d73/class_gam_r_1_1_ang_dist_1_1_ang_corr.html#a6476abedaa195d3205a83d9dfc263ac5" target="_top" xlink:title=" ">
<polygon fill="white" stroke="black" points="163.5,-94.5 163.5,-113.5 303.5,-113.5 303.5,-94.5 163.5,-94.5"/>
<text text-anchor="middle" x="233.5" y="-101.5" font-family="Helvetica,sans-Serif" font-size="10.00">GamR::AngDist::AngCorr::Ak</text>
</a>
</g>
</g>
<!-- Node1&#45;&gt;Node2 -->
<g id="edge1" class="edge">
<title>Node1&#45;&gt;Node2</title>
<path fill="none" stroke="midnightblue" d="M469.75,-81.6C421.9,-86.15 354.23,-92.6 303.75,-97.41"/>
<polygon fill="midnightblue" stroke="midnightblue" points="470.33,-85.06 479.95,-80.62 469.67,-78.09 470.33,-85.06"/>
</g>
<!-- Node4 -->
<g id="node4" class="node">
<title>Node4</title>
<g id="a_node4"><a xlink:href="../../d1/dab/namespace_gam_r_1_1_ang_dist.html#a89a9c2f80ccb6db585b8de73129aefdd" target="_top" xlink:title=" ">
<polygon fill="white" stroke="black" points="344,-47.5 344,-66.5 444,-66.5 444,-47.5 344,-47.5"/>
<text text-anchor="middle" x="394" y="-54.5" font-family="Helvetica,sans-Serif" font-size="10.00">GamR::AngDist::Ak</text>
</a>
</g>
</g>
<!-- Node1&#45;&gt;Node4 -->
<g id="edge3" class="edge">
<title>Node1&#45;&gt;Node4</title>
<path fill="none" stroke="midnightblue" d="M469.96,-67.67C461.37,-66.45 452.59,-65.2 444.21,-64"/>
<polygon fill="midnightblue" stroke="midnightblue" points="469.53,-71.14 479.93,-69.09 470.52,-64.21 469.53,-71.14"/>
</g>
<!-- Node3 -->
<g id="node3" class="node">
<title>Node3</title>
<g id="a_node3"><a xlink:href="../../da/d73/class_gam_r_1_1_ang_dist_1_1_ang_corr.html#ab736c46e109d3b9c91d984576886d861" target="_top" xlink:title=" ">
<polygon fill="white" stroke="black" points="0,-89 0,-119 123,-119 123,-89 0,-89"/>
<text text-anchor="start" x="8" y="-107" font-family="Helvetica,sans-Serif" font-size="10.00">GamR::AngDist::AngCorr</text>
<text text-anchor="middle" x="61.5" y="-96" font-family="Helvetica,sans-Serif" font-size="10.00">::operator()</text>
</a>
</g>
</g>
<!-- Node2&#45;&gt;Node3 -->
<g id="edge2" class="edge">
<title>Node2&#45;&gt;Node3</title>
<path fill="none" stroke="midnightblue" d="M153.28,-104C143.14,-104 132.9,-104 123.12,-104"/>
<polygon fill="midnightblue" stroke="midnightblue" points="153.35,-107.5 163.35,-104 153.35,-100.5 153.35,-107.5"/>
</g>
<!-- Node4&#45;&gt;Node2 -->
<g id="edge4" class="edge">
<title>Node4&#45;&gt;Node2</title>
<path fill="none" stroke="midnightblue" d="M355.77,-69.85C340.97,-74.8 323.75,-80.38 308,-85 296.87,-88.27 284.71,-91.53 273.54,-94.41"/>
<polygon fill="midnightblue" stroke="midnightblue" points="357.22,-73.05 365.58,-66.54 354.99,-66.42 357.22,-73.05"/>
</g>
<!-- Node5 -->
<g id="node5" class="node">
<title>Node5</title>
<g id="a_node5"><a xlink:href="../../da/dfc/class_gam_r_1_1_ang_dist_1_1_stat_tensor.html#ad2b2d77bf8d7c0f4d159c5e0011e1b78" target="_top" xlink:title=" ">
<polygon fill="white" stroke="black" points="159,-38.5 159,-57.5 308,-57.5 308,-38.5 159,-38.5"/>
<text text-anchor="middle" x="233.5" y="-45.5" font-family="Helvetica,sans-Serif" font-size="10.00">GamR::AngDist::StatTensor::W</text>
</a>
</g>
</g>
<!-- Node4&#45;&gt;Node5 -->
<g id="edge5" class="edge">
<title>Node4&#45;&gt;Node5</title>
<path fill="none" stroke="midnightblue" d="M333.46,-53.62C325.21,-53.15 316.66,-52.67 308.19,-52.18"/>
<polygon fill="midnightblue" stroke="midnightblue" points="333.54,-57.13 343.72,-54.2 333.93,-50.14 333.54,-57.13"/>
</g>
<!-- Node6 -->
<g id="node6" class="node">
<title>Node6</title>
<g id="a_node6"><a xlink:href="../../d1/dab/namespace_gam_r_1_1_ang_dist.html#a86706e3a9cf18220393e8bed727f8e3e" target="_top" xlink:title=" ">
<polygon fill="white" stroke="black" points="185,-0.5 185,-19.5 282,-19.5 282,-0.5 185,-0.5"/>
<text text-anchor="middle" x="233.5" y="-7.5" font-family="Helvetica,sans-Serif" font-size="10.00">GamR::AngDist::W</text>
</a>
</g>
</g>
<!-- Node4&#45;&gt;Node6 -->
<g id="edge7" class="edge">
<title>Node4&#45;&gt;Node6</title>
<path fill="none" stroke="midnightblue" d="M355.77,-44.15C340.97,-39.2 323.75,-33.62 308,-29 296.87,-25.73 284.71,-22.47 273.54,-19.59"/>
<polygon fill="midnightblue" stroke="midnightblue" points="354.99,-47.58 365.58,-47.46 357.22,-40.95 354.99,-47.58"/>
</g>
<!-- Node5&#45;&gt;Node5 -->
<g id="edge6" class="edge">
<title>Node5&#45;&gt;Node5</title>
<path fill="none" stroke="midnightblue" d="M263.44,-66.27C262.59,-71.74 252.61,-76 233.5,-76 205.06,-76 196.84,-66.57 208.84,-57.76"/>
<polygon fill="midnightblue" stroke="midnightblue" points="266.4,-64.41 258.16,-57.76 260.45,-68.1 266.4,-64.41"/>
</g>
<!-- Node7 -->
<g id="node7" class="node">
<title>Node7</title>
<g id="a_node7"><a xlink:href="../../d1/dab/namespace_gam_r_1_1_ang_dist.html#acb8013df6dcb1d7635f67a7371bb0eb5" target="_top" xlink:title=" ">
<polygon fill="white" stroke="black" points="13,-0.5 13,-19.5 110,-19.5 110,-0.5 13,-0.5"/>
<text text-anchor="middle" x="61.5" y="-7.5" font-family="Helvetica,sans-Serif" font-size="10.00">GamR::AngDist::W</text>
</a>
</g>
</g>
<!-- Node6&#45;&gt;Node7 -->
<g id="edge8" class="edge">
<title>Node6&#45;&gt;Node7</title>
<path fill="none" stroke="midnightblue" d="M174.62,-10C153.66,-10 130.24,-10 110.24,-10"/>
<polygon fill="midnightblue" stroke="midnightblue" points="174.69,-13.5 184.69,-10 174.69,-6.5 174.69,-13.5"/>
</g>
</g>
</svg>
        <g id="navigator" transform="translate(0 0)" fill="#404254">
                <rect fill="#f2f5e9" fill-opacity="0.5" stroke="#606060" stroke-width=".5" x="0" y="0" width="60" height="60"/>
                <use id="zoomplus" xlink:href="#zoomPlus" x="17" y="9" onmousedown="handleZoom(evt,'in')"/>
                <use id="zoomminus" xlink:href="#zoomMin" x="42" y="9" onmousedown="handleZoom(evt,'out')"/>
                <use id="reset" xlink:href="#resetDef" x="30" y="36" onmousedown="handleReset()"/>
                <g id="arrowUp" xlink:href="#dirArrow" transform="translate(30 24)" onmousedown="handlePan(0,-1)">
                  <use xlink:href="#rim" fill="#404040">
                        <set attributeName="fill" to="#808080" begin="arrowUp.mouseover" end="arrowUp.mouseout"/>
                  </use>
                  <path fill="none" stroke="white" stroke-width="1.5" d="M0,-3.0v7 M-2.5,-0.5L0,-3.0L2.5,-0.5"/>
                </g>
                <g id="arrowRight" xlink:href="#dirArrow" transform="rotate(90) translate(36 -43)" onmousedown="handlePan(1,0)">
                  <use xlink:href="#rim" fill="#404040">
                        <set attributeName="fill" to="#808080" begin="arrowRight.mouseover" end="arrowRight.mouseout"/>
                  </use>
                  <path fill="none" stroke="white" stroke-width="1.5" d="M0,-3.0v7 M-2.5,-0.5L0,-3.0L2.5,-0.5"/>
                </g>
                <g id="arrowDown" xlink:href="#dirArrow" transform="rotate(180) translate(-30 -48)" onmousedown="handlePan(0,1)">
                  <use xlink:href="#rim" fill="#404040">
                        <set attributeName="fill" to="#808080" begin="arrowDown.mouseover" end="arrowDown.mouseout"/>
                  </use>
                  <path fill="none" stroke="white" stroke-width="1.5" d="M0,-3.0v7 M-2.5,-0.5L0,-3.0L2.5,-0.5"/>
                </g>
                <g id="arrowLeft" xlink:href="#dirArrow" transform="rotate(270) translate(-36 17)" onmousedown="handlePan(-1,0)">
                  <use xlink:href="#rim" fill="#404040">
                        <set attributeName="fill" to="#808080" begin="arrowLeft.mouseover" end="arrowLeft.mouseout"/>
                  </use>
                  <path fill="none" stroke="white" stroke-width="1.5" d="M0,-3.0v7 M-2.5,-0.5L0,-3.0L2.5,-0.5"/>
                </g>
        </g>
        <svg viewBox="0 0 15 15" width="100%" height="30px" preserveAspectRatio="xMaxYMin meet">
         <g id="arrow_out" transform="scale(0.3 0.3)">
          <a xlink:href="namespace_gam_r_1_1_ang_dist_adfb2b629389730b25f867d1e51922438_icgraph_org.svg" target="_base">
           <rect id="button" ry="5" rx="5" y="6" x="6" height="38" width="38"
                fill="#f2f5e9" fill-opacity="0.5" stroke="#606060" stroke-width="1.0"/>
           <path id="arrow"
             d="M 11.500037,31.436501 C 11.940474,20.09759 22.043105,11.32322 32.158766,21.979434 L 37.068811,17.246167 C 37.068811,17.246167 37.088388,32 37.088388,32 L 22.160133,31.978069 C 22.160133,31.978069 26.997745,27.140456 26.997745,27.140456 C 18.528582,18.264221 13.291696,25.230495 11.500037,31.436501 z"
             style="fill:#404040;"/>
          </a>
         </g>
        </svg>
</svg>
