<?xml version="1.0" encoding="UTF-8" standalone="no"?>
<!DOCTYPE svg PUBLIC "-//W3C//DTD SVG 1.1//EN"
 "http://www.w3.org/Graphics/SVG/1.1/DTD/svg11.dtd">
<!-- Generated by graphviz version 6.0.2 (20221011.1828)
 -->
<!-- Title: GamR::Nucleus::Photon Pages: 1 -->
<!--zoomable 1249 -->
<svg id="main" version="1.1" xmlns="http://www.w3.org/2000/svg" xmlns:xlink="http://www.w3.org/1999/xlink" xml:space="preserve" onload="init(evt)">
<style type="text/css"><![CDATA[
.edge:hover path { stroke: red; }
.edge:hover polygon { stroke: red; fill: red; }
]]></style>
<script type="text/javascript"><![CDATA[
var edges = document.getElementsByTagName('g');
if (edges && edges.length) {
  for (var i=0;i<edges.length;i++) {
    if (edges[i].id.substr(0,4)=='edge') {
      edges[i].setAttribute('class','edge');
    }
  }
}
]]></script>
        <defs>
                <circle id="rim" cx="0" cy="0" r="7"/>
                <circle id="rim2" cx="0" cy="0" r="3.5"/>
                <g id="zoomPlus">
                        <use xlink:href="#rim" fill="#404040">
                                <set attributeName="fill" to="#808080" begin="zoomplus.mouseover" end="zoomplus.mouseout"/>
                        </use>
                        <path d="M-4,0h8M0,-4v8" fill="none" stroke="white" stroke-width="1.5" pointer-events="none"/>
                </g>
                <g id="zoomMin">
                        <use xlink:href="#rim" fill="#404040">
                                <set attributeName="fill" to="#808080" begin="zoomminus.mouseover" end="zoomminus.mouseout"/>
                        </use>
                        <path d="M-4,0h8" fill="none" stroke="white" stroke-width="1.5" pointer-events="none"/>
                </g>
                <g id="dirArrow">
                        <path fill="none" stroke="white" stroke-width="1.5" d="M0,-3.0v7 M-2.5,-0.5L0,-3.0L2.5,-0.5"/>
                </g>
               <g id="resetDef">
                       <use xlink:href="#rim2" fill="#404040">
                               <set attributeName="fill" to="#808080" begin="reset.mouseover" end="reset.mouseout"/>
                       </use>
               </g>
        </defs>

<script type="text/javascript">
var viewWidth = 291;
var viewHeight = 1249;
var sectionId = 'dynsection-1';
</script>
<script xlink:href="../../svgpan.js"/>
<svg id="graph" class="graph">
<g id="viewport">
<title>GamR::Nucleus::Photon</title>
<!-- Node1 -->
<g id="node1" class="node">
<title>Node1</title>
<g id="a_node1"><a xlink:title=" ">
<polygon fill="#999999" stroke="#666666" points="138,-162 15,-162 15,0 138,0 138,-162"/>
<text text-anchor="middle" x="76.5" y="-150" font-family="Helvetica,sans-Serif" font-size="10.00">{GamR::Nucleus::Photon</text>
<text text-anchor="start" x="23" y="-139" font-family="Helvetica,sans-Serif" font-size="10.00">||+ SetElectric()</text>
<text text-anchor="start" x="23" y="-128" font-family="Helvetica,sans-Serif" font-size="10.00">+ SetMagnetic()</text>
<text text-anchor="start" x="23" y="-117" font-family="Helvetica,sans-Serif" font-size="10.00">+ SetSpin()</text>
<text text-anchor="start" x="23" y="-106" font-family="Helvetica,sans-Serif" font-size="10.00">+ GetSpin()</text>
<text text-anchor="start" x="23" y="-95" font-family="Helvetica,sans-Serif" font-size="10.00">+ IsElectric()</text>
<text text-anchor="start" x="23" y="-84" font-family="Helvetica,sans-Serif" font-size="10.00">+ IsMagnetic()</text>
<text text-anchor="start" x="23" y="-73" font-family="Helvetica,sans-Serif" font-size="10.00">+ operator==()</text>
<text text-anchor="start" x="23" y="-62" font-family="Helvetica,sans-Serif" font-size="10.00">+ operator!=()</text>
<text text-anchor="start" x="23" y="-51" font-family="Helvetica,sans-Serif" font-size="10.00">+ operator&lt;()</text>
<text text-anchor="start" x="23" y="-40" font-family="Helvetica,sans-Serif" font-size="10.00">+ operator&gt;()</text>
<text text-anchor="start" x="23" y="-29" font-family="Helvetica,sans-Serif" font-size="10.00">+ ClassDef()</text>
<text text-anchor="start" x="23" y="-18" font-family="Helvetica,sans-Serif" font-size="10.00">+ Transition()</text>
<text text-anchor="middle" x="76.5" y="-7" font-family="Helvetica,sans-Serif" font-size="10.00">}</text>
</a>
</g>
</g>
<!-- Node2 -->
<g id="node2" class="node">
<title>Node2</title>
<g id="a_node2"><a xlink:href="../../df/d6f/class_gam_r_1_1_nucleus_1_1_transition.html" target="_top" xlink:title=" ">
<polygon fill="white" stroke="#666666" points="144,-438 9,-438 9,-199 144,-199 144,-438"/>
<text text-anchor="middle" x="76.5" y="-426" font-family="Helvetica,sans-Serif" font-size="10.00">{GamR::Nucleus::Transition</text>
<text text-anchor="start" x="17" y="-415" font-family="Helvetica,sans-Serif" font-size="10.00">|# fEnergy</text>
<text text-anchor="start" x="17" y="-404" font-family="Helvetica,sans-Serif" font-size="10.00">|+ Transition()</text>
<text text-anchor="start" x="17" y="-393" font-family="Helvetica,sans-Serif" font-size="10.00">+ SetEnergy()</text>
<text text-anchor="start" x="17" y="-382" font-family="Helvetica,sans-Serif" font-size="10.00">+ SetPeak()</text>
<text text-anchor="start" x="17" y="-371" font-family="Helvetica,sans-Serif" font-size="10.00">+ SetPeak()</text>
<text text-anchor="start" x="17" y="-360" font-family="Helvetica,sans-Serif" font-size="10.00">+ SetBackground()</text>
<text text-anchor="start" x="17" y="-349" font-family="Helvetica,sans-Serif" font-size="10.00">+ SetBackground()</text>
<text text-anchor="start" x="17" y="-338" font-family="Helvetica,sans-Serif" font-size="10.00">+ AddBackground()</text>
<text text-anchor="start" x="17" y="-327" font-family="Helvetica,sans-Serif" font-size="10.00">+ AddBackground()</text>
<text text-anchor="start" x="17" y="-316" font-family="Helvetica,sans-Serif" font-size="10.00">+ SetTransition()</text>
<text text-anchor="start" x="17" y="-305" font-family="Helvetica,sans-Serif" font-size="10.00">+ Apply()</text>
<text text-anchor="start" x="17" y="-294" font-family="Helvetica,sans-Serif" font-size="10.00">+ ApplyError()</text>
<text text-anchor="start" x="17" y="-283" font-family="Helvetica,sans-Serif" font-size="10.00">+ ApplyCounts()</text>
<text text-anchor="start" x="17" y="-272" font-family="Helvetica,sans-Serif" font-size="10.00">+ ApplyCountsError()</text>
<text text-anchor="start" x="17" y="-261" font-family="Helvetica,sans-Serif" font-size="10.00">+ GetEnergy()</text>
<text text-anchor="start" x="17" y="-250" font-family="Helvetica,sans-Serif" font-size="10.00">+ GetGate()</text>
<text text-anchor="start" x="17" y="-239" font-family="Helvetica,sans-Serif" font-size="10.00">+ GetGateBG()</text>
<text text-anchor="start" x="17" y="-228" font-family="Helvetica,sans-Serif" font-size="10.00">+ GetGateBGs()</text>
<text text-anchor="start" x="17" y="-217" font-family="Helvetica,sans-Serif" font-size="10.00">+ ClassDef()</text>
<text text-anchor="middle" x="76.5" y="-206" font-family="Helvetica,sans-Serif" font-size="10.00">}</text>
</a>
</g>
</g>
<!-- Node2&#45;&gt;Node1 -->
<g id="edge1" class="edge">
<title>Node2&#45;&gt;Node1</title>
<path fill="none" stroke="#63b8ff" d="M76.5,-188.6C76.5,-179.67 76.5,-170.82 76.5,-162.27"/>
<polygon fill="none" stroke="#63b8ff" points="73,-188.72 76.5,-198.72 80,-188.72 73,-188.72"/>
</g>
<!-- Node3 -->
<g id="node3" class="node">
<title>Node3</title>
<g id="a_node3"><a xlink:title=" ">
<polygon fill="white" stroke="#666666" points="57,-1241 0,-1241 0,-1211 57,-1211 57,-1241"/>
<text text-anchor="middle" x="28.5" y="-1229" font-family="Helvetica,sans-Serif" font-size="10.00">{TNamed</text>
<text text-anchor="middle" x="28.5" y="-1218" font-family="Helvetica,sans-Serif" font-size="10.00">||}</text>
</a>
</g>
</g>
<!-- Node3&#45;&gt;Node2 -->
<g id="edge2" class="edge">
<title>Node3&#45;&gt;Node2</title>
<path fill="none" stroke="#63b8ff" d="M28.38,-1200.7C28.13,-1114.8 28.69,-817.52 46.5,-573 49.71,-528.91 54.97,-480.69 60.2,-438.26"/>
<polygon fill="none" stroke="#63b8ff" points="24.88,-1200.77 28.42,-1210.75 31.88,-1200.74 24.88,-1200.77"/>
</g>
<!-- Node4 -->
<g id="node4" class="node">
<title>Node4</title>
<g id="a_node4"><a xlink:href="../../d0/d79/class_gam_r_1_1_t_k_1_1_gate.html" target="_top" xlink:title=" ">
<polygon fill="white" stroke="#666666" points="171.5,-1164 55.5,-1164 55.5,-573 171.5,-573 171.5,-1164"/>
<text text-anchor="middle" x="113.5" y="-1152" font-family="Helvetica,sans-Serif" font-size="10.00">{GamR::TK::Gate</text>
<text text-anchor="start" x="63.5" y="-1141" font-family="Helvetica,sans-Serif" font-size="10.00">||+ Gate()</text>
<text text-anchor="start" x="63.5" y="-1130" font-family="Helvetica,sans-Serif" font-size="10.00">+ Gate()</text>
<text text-anchor="start" x="63.5" y="-1119" font-family="Helvetica,sans-Serif" font-size="10.00">+ Gate()</text>
<text text-anchor="start" x="63.5" y="-1108" font-family="Helvetica,sans-Serif" font-size="10.00">+ Gate()</text>
<text text-anchor="start" x="63.5" y="-1097" font-family="Helvetica,sans-Serif" font-size="10.00">+ Gate()</text>
<text text-anchor="start" x="63.5" y="-1086" font-family="Helvetica,sans-Serif" font-size="10.00">+ Gate()</text>
<text text-anchor="start" x="63.5" y="-1075" font-family="Helvetica,sans-Serif" font-size="10.00">+ Gate()</text>
<text text-anchor="start" x="63.5" y="-1064" font-family="Helvetica,sans-Serif" font-size="10.00">+ ~Gate()</text>
<text text-anchor="start" x="63.5" y="-1053" font-family="Helvetica,sans-Serif" font-size="10.00">+ SetGate()</text>
<text text-anchor="start" x="63.5" y="-1042" font-family="Helvetica,sans-Serif" font-size="10.00">+ SetGate()</text>
<text text-anchor="start" x="63.5" y="-1031" font-family="Helvetica,sans-Serif" font-size="10.00">+ SetGate()</text>
<text text-anchor="start" x="63.5" y="-1020" font-family="Helvetica,sans-Serif" font-size="10.00">+ SetLow()</text>
<text text-anchor="start" x="63.5" y="-1009" font-family="Helvetica,sans-Serif" font-size="10.00">+ SetLow()</text>
<text text-anchor="start" x="63.5" y="-998" font-family="Helvetica,sans-Serif" font-size="10.00">+ SetHigh()</text>
<text text-anchor="start" x="63.5" y="-987" font-family="Helvetica,sans-Serif" font-size="10.00">+ SetHigh()</text>
<text text-anchor="start" x="63.5" y="-976" font-family="Helvetica,sans-Serif" font-size="10.00">+ GetLow()</text>
<text text-anchor="start" x="63.5" y="-965" font-family="Helvetica,sans-Serif" font-size="10.00">+ GetHigh()</text>
<text text-anchor="start" x="63.5" y="-954" font-family="Helvetica,sans-Serif" font-size="10.00">+ GetWidth()</text>
<text text-anchor="start" x="63.5" y="-943" font-family="Helvetica,sans-Serif" font-size="10.00">+ GetBinLow()</text>
<text text-anchor="start" x="63.5" y="-932" font-family="Helvetica,sans-Serif" font-size="10.00">+ GetBinHigh()</text>
<text text-anchor="start" x="63.5" y="-921" font-family="Helvetica,sans-Serif" font-size="10.00">+ GetBinWidth()</text>
<text text-anchor="start" x="63.5" y="-910" font-family="Helvetica,sans-Serif" font-size="10.00">+ GetTrueWidth()</text>
<text text-anchor="start" x="63.5" y="-899" font-family="Helvetica,sans-Serif" font-size="10.00">+ GetIntegral()</text>
<text text-anchor="start" x="63.5" y="-888" font-family="Helvetica,sans-Serif" font-size="10.00">+ GetIntegral()</text>
<text text-anchor="start" x="63.5" y="-877" font-family="Helvetica,sans-Serif" font-size="10.00">+ GetIntegral()</text>
<text text-anchor="start" x="63.5" y="-866" font-family="Helvetica,sans-Serif" font-size="10.00">+ GetIntegral()</text>
<text text-anchor="start" x="63.5" y="-855" font-family="Helvetica,sans-Serif" font-size="10.00">+ GetIntegralError()</text>
<text text-anchor="start" x="63.5" y="-844" font-family="Helvetica,sans-Serif" font-size="10.00">+ GetIntegralError()</text>
<text text-anchor="start" x="63.5" y="-833" font-family="Helvetica,sans-Serif" font-size="10.00">+ GetIntegralError()</text>
<text text-anchor="start" x="63.5" y="-822" font-family="Helvetica,sans-Serif" font-size="10.00">+ GetCounts()</text>
<text text-anchor="start" x="63.5" y="-811" font-family="Helvetica,sans-Serif" font-size="10.00">+ GetCounts()</text>
<text text-anchor="start" x="63.5" y="-800" font-family="Helvetica,sans-Serif" font-size="10.00">+ GetCounts()</text>
<text text-anchor="start" x="63.5" y="-789" font-family="Helvetica,sans-Serif" font-size="10.00">+ GetCountsError()</text>
<text text-anchor="start" x="63.5" y="-778" font-family="Helvetica,sans-Serif" font-size="10.00">+ GetCountsError()</text>
<text text-anchor="start" x="63.5" y="-767" font-family="Helvetica,sans-Serif" font-size="10.00">+ GetCountsError()</text>
<text text-anchor="start" x="63.5" y="-756" font-family="Helvetica,sans-Serif" font-size="10.00">+ Browse()</text>
<text text-anchor="start" x="63.5" y="-745" font-family="Helvetica,sans-Serif" font-size="10.00">+ Pass()</text>
<text text-anchor="start" x="63.5" y="-734" font-family="Helvetica,sans-Serif" font-size="10.00">+ Pass()</text>
<text text-anchor="start" x="63.5" y="-723" font-family="Helvetica,sans-Serif" font-size="10.00">+ PassDetector()</text>
<text text-anchor="start" x="63.5" y="-712" font-family="Helvetica,sans-Serif" font-size="10.00">+ ApplyX()</text>
<text text-anchor="start" x="63.5" y="-701" font-family="Helvetica,sans-Serif" font-size="10.00">+ ApplyX()</text>
<text text-anchor="start" x="63.5" y="-690" font-family="Helvetica,sans-Serif" font-size="10.00">+ ApplyY()</text>
<text text-anchor="start" x="63.5" y="-679" font-family="Helvetica,sans-Serif" font-size="10.00">+ ApplyY()</text>
<text text-anchor="start" x="63.5" y="-668" font-family="Helvetica,sans-Serif" font-size="10.00">+ Norm()</text>
<text text-anchor="start" x="63.5" y="-657" font-family="Helvetica,sans-Serif" font-size="10.00">+ NormBackSub()</text>
<text text-anchor="start" x="63.5" y="-646" font-family="Helvetica,sans-Serif" font-size="10.00">+ Paint()</text>
<text text-anchor="start" x="63.5" y="-635" font-family="Helvetica,sans-Serif" font-size="10.00">+ DistancetoPrimitive()</text>
<text text-anchor="start" x="63.5" y="-624" font-family="Helvetica,sans-Serif" font-size="10.00">+ ExecuteEvent()</text>
<text text-anchor="start" x="63.5" y="-613" font-family="Helvetica,sans-Serif" font-size="10.00">+ IsFolder()</text>
<text text-anchor="start" x="63.5" y="-602" font-family="Helvetica,sans-Serif" font-size="10.00">+ ls()</text>
<text text-anchor="start" x="63.5" y="-591" font-family="Helvetica,sans-Serif" font-size="10.00">+ Valid()</text>
<text text-anchor="middle" x="113.5" y="-580" font-family="Helvetica,sans-Serif" font-size="10.00">}</text>
</a>
</g>
</g>
<!-- Node3&#45;&gt;Node4 -->
<g id="edge4" class="edge">
<title>Node3&#45;&gt;Node4</title>
<path fill="none" stroke="#63b8ff" d="M38.55,-1201.53C39.62,-1198.68 40.63,-1195.79 41.5,-1193 46.34,-1177.48 50.99,-1161.45 55.43,-1145.21"/>
<polygon fill="none" stroke="#63b8ff" points="35.29,-1200.26 34.84,-1210.85 41.79,-1202.85 35.29,-1200.26"/>
</g>
<!-- Node4&#45;&gt;Node2 -->
<g id="edge3" class="edge">
<title>Node4&#45;&gt;Node2</title>
<path fill="none" stroke="#404040" d="M88.62,-572.77C87.51,-556.96 86.46,-541.29 85.5,-526 83.96,-501.53 82.61,-475.42 81.44,-450.27"/>
<polygon fill="none" stroke="#404040" points="81.43,-450.01 77.16,-444.2 80.89,-438.02 85.15,-443.83 81.43,-450.01"/>
<text text-anchor="middle" x="102.5" y="-503" font-family="Helvetica,sans-Serif" font-size="10.00"> #fPeak</text>
</g>
<!-- Node7 -->
<g id="node7" class="node">
<title>Node7</title>
<g id="a_node7"><a xlink:title=" ">
<polygon fill="white" stroke="#666666" points="234,-526 129,-526 129,-485 234,-485 234,-526"/>
<text text-anchor="start" x="137" y="-514" font-family="Helvetica,sans-Serif" font-size="10.00">{std::vector&lt; GamR::</text>
<text text-anchor="middle" x="181.5" y="-503" font-family="Helvetica,sans-Serif" font-size="10.00">TK::Gate &gt;</text>
<text text-anchor="middle" x="181.5" y="-492" font-family="Helvetica,sans-Serif" font-size="10.00">||}</text>
</a>
</g>
</g>
<!-- Node4&#45;&gt;Node7 -->
<g id="edge8" class="edge">
<title>Node4&#45;&gt;Node7</title>
<path fill="none" stroke="#404040" d="M120.68,-572.61C124.4,-562.78 128.65,-553.21 133.5,-544 135.16,-540.84 137.22,-537.86 139.54,-535.08"/>
<polygon fill="none" stroke="#404040" points="139.79,-534.83 141.18,-527.76 148.25,-526.33 146.85,-533.4 139.79,-534.83"/>
<text text-anchor="middle" x="158" y="-547" font-family="Helvetica,sans-Serif" font-size="10.00"> +elements</text>
</g>
<!-- Node5 -->
<g id="node5" class="node">
<title>Node5</title>
<g id="a_node5"><a xlink:title=" ">
<polygon fill="white" stroke="#666666" points="132,-1241 75,-1241 75,-1211 132,-1211 132,-1241"/>
<text text-anchor="middle" x="103.5" y="-1229" font-family="Helvetica,sans-Serif" font-size="10.00">{TAttLine</text>
<text text-anchor="middle" x="103.5" y="-1218" font-family="Helvetica,sans-Serif" font-size="10.00">||}</text>
</a>
</g>
</g>
<!-- Node5&#45;&gt;Node4 -->
<g id="edge5" class="edge">
<title>Node5&#45;&gt;Node4</title>
<path fill="none" stroke="#63b8ff" d="M104.19,-1200.34C104.47,-1190.57 104.81,-1178.3 105.21,-1164.28"/>
<polygon fill="none" stroke="#63b8ff" points="100.69,-1200.53 103.9,-1210.62 107.68,-1200.73 100.69,-1200.53"/>
</g>
<!-- Node6 -->
<g id="node6" class="node">
<title>Node6</title>
<g id="a_node6"><a xlink:title=" ">
<polygon fill="white" stroke="#666666" points="201,-1241 150,-1241 150,-1211 201,-1211 201,-1241"/>
<text text-anchor="middle" x="175.5" y="-1229" font-family="Helvetica,sans-Serif" font-size="10.00">{TAttFill</text>
<text text-anchor="middle" x="175.5" y="-1218" font-family="Helvetica,sans-Serif" font-size="10.00">||}</text>
</a>
</g>
</g>
<!-- Node6&#45;&gt;Node4 -->
<g id="edge6" class="edge">
<title>Node6&#45;&gt;Node4</title>
<path fill="none" stroke="#63b8ff" d="M171.26,-1200.66C169.54,-1190.84 167.38,-1178.45 164.91,-1164.28"/>
<polygon fill="none" stroke="#63b8ff" points="167.83,-1201.37 172.99,-1210.62 174.72,-1200.17 167.83,-1201.37"/>
</g>
<!-- Node7&#45;&gt;Node2 -->
<g id="edge7" class="edge">
<title>Node7&#45;&gt;Node2</title>
<path fill="none" stroke="#404040" d="M170.26,-484.7C164.82,-475.12 157.79,-462.73 150.02,-449.04"/>
<polygon fill="none" stroke="#404040" points="149.87,-448.78 143.43,-445.53 143.95,-438.34 150.39,-441.58 149.87,-448.78"/>
<text text-anchor="middle" x="191" y="-459" font-family="Helvetica,sans-Serif" font-size="10.00"> #fBackground</text>
</g>
<!-- Node8 -->
<g id="node8" class="node">
<title>Node8</title>
<g id="a_node8"><a xlink:title=" ">
<polygon fill="white" stroke="#666666" points="277,-883.5 190,-883.5 190,-853.5 277,-853.5 277,-883.5"/>
<text text-anchor="middle" x="233.5" y="-871.5" font-family="Helvetica,sans-Serif" font-size="10.00">{std::vector&lt; T &gt;</text>
<text text-anchor="middle" x="233.5" y="-860.5" font-family="Helvetica,sans-Serif" font-size="10.00">||}</text>
</a>
</g>
</g>
<!-- Node8&#45;&gt;Node7 -->
<g id="edge9" class="edge">
<title>Node8&#45;&gt;Node7</title>
<path fill="none" stroke="orange" d="M230.01,-843.27C220.31,-775.9 193.14,-587.34 184.31,-526.03"/>
<polygon fill="orange" stroke="orange" points="226.57,-843.95 231.46,-853.35 233.5,-842.95 226.57,-843.95"/>
<text text-anchor="middle" x="232.5" y="-547" font-family="Helvetica,sans-Serif" font-size="10.00"> &lt; GamR::TK::Gate &gt;</text>
</g>
<!-- Node9 -->
<g id="node9" class="node">
<title>Node9</title>
<g id="a_node9"><a xlink:title=" ">
<polygon fill="white" stroke="#666666" points="248,-1241 219,-1241 219,-1211 248,-1211 248,-1241"/>
<text text-anchor="middle" x="233.5" y="-1229" font-family="Helvetica,sans-Serif" font-size="10.00">{T</text>
<text text-anchor="middle" x="233.5" y="-1218" font-family="Helvetica,sans-Serif" font-size="10.00">||}</text>
</a>
</g>
</g>
<!-- Node9&#45;&gt;Node8 -->
<g id="edge10" class="edge">
<title>Node9&#45;&gt;Node8</title>
<path fill="none" stroke="#404040" d="M233.5,-1210.62C233.5,-1156.68 233.5,-965.87 233.5,-895.67"/>
<polygon fill="none" stroke="#404040" points="233.5,-895.67 229.5,-889.67 233.5,-883.67 237.5,-889.67 233.5,-895.67"/>
<text text-anchor="middle" x="258" y="-1185" font-family="Helvetica,sans-Serif" font-size="10.00"> +elements</text>
</g>
</g>
</svg>
        <g id="navigator" transform="translate(0 0)" fill="#404254">
                <rect fill="#f2f5e9" fill-opacity="0.5" stroke="#606060" stroke-width=".5" x="0" y="0" width="60" height="60"/>
                <use id="zoomplus" xlink:href="#zoomPlus" x="17" y="9" onmousedown="handleZoom(evt,'in')"/>
                <use id="zoomminus" xlink:href="#zoomMin" x="42" y="9" onmousedown="handleZoom(evt,'out')"/>
                <use id="reset" xlink:href="#resetDef" x="30" y="36" onmousedown="handleReset()"/>
                <g id="arrowUp" xlink:href="#dirArrow" transform="translate(30 24)" onmousedown="handlePan(0,-1)">
                  <use xlink:href="#rim" fill="#404040">
                        <set attributeName="fill" to="#808080" begin="arrowUp.mouseover" end="arrowUp.mouseout"/>
                  </use>
                  <path fill="none" stroke="white" stroke-width="1.5" d="M0,-3.0v7 M-2.5,-0.5L0,-3.0L2.5,-0.5"/>
                </g>
                <g id="arrowRight" xlink:href="#dirArrow" transform="rotate(90) translate(36 -43)" onmousedown="handlePan(1,0)">
                  <use xlink:href="#rim" fill="#404040">
                        <set attributeName="fill" to="#808080" begin="arrowRight.mouseover" end="arrowRight.mouseout"/>
                  </use>
                  <path fill="none" stroke="white" stroke-width="1.5" d="M0,-3.0v7 M-2.5,-0.5L0,-3.0L2.5,-0.5"/>
                </g>
                <g id="arrowDown" xlink:href="#dirArrow" transform="rotate(180) translate(-30 -48)" onmousedown="handlePan(0,1)">
                  <use xlink:href="#rim" fill="#404040">
                        <set attributeName="fill" to="#808080" begin="arrowDown.mouseover" end="arrowDown.mouseout"/>
                  </use>
                  <path fill="none" stroke="white" stroke-width="1.5" d="M0,-3.0v7 M-2.5,-0.5L0,-3.0L2.5,-0.5"/>
                </g>
                <g id="arrowLeft" xlink:href="#dirArrow" transform="rotate(270) translate(-36 17)" onmousedown="handlePan(-1,0)">
                  <use xlink:href="#rim" fill="#404040">
                        <set attributeName="fill" to="#808080" begin="arrowLeft.mouseover" end="arrowLeft.mouseout"/>
                  </use>
                  <path fill="none" stroke="white" stroke-width="1.5" d="M0,-3.0v7 M-2.5,-0.5L0,-3.0L2.5,-0.5"/>
                </g>
        </g>
        <svg viewBox="0 0 15 15" width="100%" height="30px" preserveAspectRatio="xMaxYMin meet">
         <g id="arrow_out" transform="scale(0.3 0.3)">
          <a xlink:href="class_gam_r_1_1_nucleus_1_1_photon__coll__graph_org.svg" target="_base">
           <rect id="button" ry="5" rx="5" y="6" x="6" height="38" width="38"
                fill="#f2f5e9" fill-opacity="0.5" stroke="#606060" stroke-width="1.0"/>
           <path id="arrow"
             d="M 11.500037,31.436501 C 11.940474,20.09759 22.043105,11.32322 32.158766,21.979434 L 37.068811,17.246167 C 37.068811,17.246167 37.088388,32 37.088388,32 L 22.160133,31.978069 C 22.160133,31.978069 26.997745,27.140456 26.997745,27.140456 C 18.528582,18.264221 13.291696,25.230495 11.500037,31.436501 z"
             style="fill:#404040;"/>
          </a>
         </g>
        </svg>
</svg>
