<?xml version="1.0" encoding="UTF-8" standalone="no"?>
<!DOCTYPE svg PUBLIC "-//W3C//DTD SVG 1.1//EN"
 "http://www.w3.org/Graphics/SVG/1.1/DTD/svg11.dtd">
<!-- Generated by graphviz version 12.2.1 (20241206.2353)
 -->
<!-- Title: GamR::Nucleus::Photon Pages: 1 -->
<!--zoomable 1670 -->

<svg id="main" version="1.1" xmlns="http://www.w3.org/2000/svg" xmlns:xlink="http://www.w3.org/1999/xlink" xml:space="preserve" onload="init(evt)">

<style type="text/css"><![CDATA[
.node, .edge {opacity: 0.7;}
.node.selected, .edge.selected {opacity: 1;}
.edge:hover path { stroke: red; }
.edge:hover polygon { stroke: red; fill: red; }
]]></style>

<defs>
  <circle id="rim" cx="0" cy="0" r="7"/>
  <circle id="rim2" cx="0" cy="0" r="3.5"/>
  <g id="zoomPlus">
    <use xlink:href="#rim" fill="#404040"><set attributeName="fill" to="#808080" begin="zoomplus.mouseover" end="zoomplus.mouseout"/></use>
    <path d="M-4,0h8M0,-4v8" fill="none" stroke="white" stroke-width="1.5" pointer-events="none"/>
  </g>
  <g id="zoomMin">
    <use xlink:href="#rim" fill="#404040"><set attributeName="fill" to="#808080" begin="zoomminus.mouseover" end="zoomminus.mouseout"/></use>
    <path d="M-4,0h8" fill="none" stroke="white" stroke-width="1.5" pointer-events="none"/>
  </g>
  <g id="arrowUp" transform="translate(30 24)">
    <use xlink:href="#rim"/>
    <path pointer-events="none" fill="none" stroke="white" stroke-width="1.5" d="M0,-3.0v7 M-2.5,-0.5L0,-3.0L2.5,-0.5"/>
  </g>
  <g id="arrowRight" transform="rotate(90) translate(36 -43)">
    <use xlink:href="#rim"/>
    <path pointer-events="none" fill="none" stroke="white" stroke-width="1.5" d="M0,-3.0v7 M-2.5,-0.5L0,-3.0L2.5,-0.5"/>
  </g>
  <g id="arrowDown" transform="rotate(180) translate(-30 -48)">
    <use xlink:href="#rim"/>
    <path pointer-events="none" fill="none" stroke="white" stroke-width="1.5" d="M0,-3.0v7 M-2.5,-0.5L0,-3.0L2.5,-0.5"/>
  </g>
  <g id="arrowLeft" transform="rotate(270) translate(-36 17)">
    <use xlink:href="#rim"/>
    <path pointer-events="none" fill="none" stroke="white" stroke-width="1.5" d="M0,-3.0v7 M-2.5,-0.5L0,-3.0L2.5,-0.5"/>
  </g>
  <g id="resetDef">
    <use xlink:href="#rim2" fill="#404040"><set attributeName="fill" to="#808080" begin="reset.mouseover" end="reset.mouseout"/></use>
  </g>
</defs>
<script type="application/ecmascript">
var viewWidth = 273;
var viewHeight = 1670;
var sectionId = 'dynsection-1';
</script>
<script type="application/ecmascript" xlink:href="../../svg.min.js"/>
<svg id="graph" class="graph">
<g id="viewport">
<title>GamR::Nucleus::Photon</title>
<!-- Node1 -->
<g id="Node000001" class="node">
<title>Node1</title>
<g id="a_Node000001"><a xlink:title=" ">
<polygon fill="#999999" stroke="none" points="120.5,-217.5 9,-217.5 9,0 120.5,0 120.5,-217.5"/>
<text text-anchor="start" x="13" y="-204" font-family="Helvetica,sans-Serif" font-size="10.00">GamR::Nucleus::Photon</text>
<text text-anchor="start" x="63.25" y="-188.75" font-family="Helvetica,sans-Serif" font-size="10.00"> </text>
<text text-anchor="start" x="21.19" y="-173.5" font-family="Helvetica,sans-Serif" font-size="10.00">+</text>
<text text-anchor="start" x="39.38" y="-173.5" font-family="Helvetica,sans-Serif" font-size="10.00">SetElectric()</text>
<text text-anchor="start" x="21.19" y="-158.25" font-family="Helvetica,sans-Serif" font-size="10.00">+</text>
<text text-anchor="start" x="39.38" y="-158.25" font-family="Helvetica,sans-Serif" font-size="10.00">SetMagnetic()</text>
<text text-anchor="start" x="21.19" y="-143" font-family="Helvetica,sans-Serif" font-size="10.00">+</text>
<text text-anchor="start" x="39.38" y="-143" font-family="Helvetica,sans-Serif" font-size="10.00">SetSpin()</text>
<text text-anchor="start" x="21.19" y="-127.75" font-family="Helvetica,sans-Serif" font-size="10.00">+</text>
<text text-anchor="start" x="39.38" y="-127.75" font-family="Helvetica,sans-Serif" font-size="10.00">GetSpin()</text>
<text text-anchor="start" x="21.19" y="-112.5" font-family="Helvetica,sans-Serif" font-size="10.00">+</text>
<text text-anchor="start" x="39.38" y="-112.5" font-family="Helvetica,sans-Serif" font-size="10.00">IsElectric()</text>
<text text-anchor="start" x="21.19" y="-97.25" font-family="Helvetica,sans-Serif" font-size="10.00">+</text>
<text text-anchor="start" x="39.38" y="-97.25" font-family="Helvetica,sans-Serif" font-size="10.00">IsMagnetic()</text>
<text text-anchor="start" x="21.19" y="-82" font-family="Helvetica,sans-Serif" font-size="10.00">+</text>
<text text-anchor="start" x="39.38" y="-82" font-family="Helvetica,sans-Serif" font-size="10.00">operator==()</text>
<text text-anchor="start" x="21.19" y="-66.75" font-family="Helvetica,sans-Serif" font-size="10.00">+</text>
<text text-anchor="start" x="39.38" y="-66.75" font-family="Helvetica,sans-Serif" font-size="10.00">operator!=()</text>
<text text-anchor="start" x="21.19" y="-51.5" font-family="Helvetica,sans-Serif" font-size="10.00">+</text>
<text text-anchor="start" x="39.38" y="-51.5" font-family="Helvetica,sans-Serif" font-size="10.00">operator&lt;()</text>
<text text-anchor="start" x="21.19" y="-36.25" font-family="Helvetica,sans-Serif" font-size="10.00">+</text>
<text text-anchor="start" x="39.38" y="-36.25" font-family="Helvetica,sans-Serif" font-size="10.00">operator&gt;()</text>
<text text-anchor="start" x="21.19" y="-21" font-family="Helvetica,sans-Serif" font-size="10.00">+</text>
<text text-anchor="start" x="39.38" y="-21" font-family="Helvetica,sans-Serif" font-size="10.00">ClassDef()</text>
<text text-anchor="start" x="21.19" y="-5.75" font-family="Helvetica,sans-Serif" font-size="10.00">+</text>
<text text-anchor="start" x="39.38" y="-5.75" font-family="Helvetica,sans-Serif" font-size="10.00">Transition()</text>
<polygon fill="#666666" stroke="#666666" points="9,-200.25 9,-200.25 120.5,-200.25 120.5,-200.25 9,-200.25"/>
<polygon fill="#666666" stroke="#666666" points="9,-185 9,-185 120.5,-185 120.5,-185 9,-185"/>
<polygon fill="none" stroke="#666666" points="9,0 9,-217.5 120.5,-217.5 120.5,0 9,0"/>
</a>
</g>
</g>
<!-- Node2 -->
<g id="Node000002" class="node">
<title>Node2</title>
<g id="a_Node000002"><a xlink:href="../../df/d6f/class_gam_r_1_1_nucleus_1_1_transition.html" target="_top" xlink:title=" ">
<polygon fill="white" stroke="none" points="126.5,-563.5 3,-563.5 3,-254.5 126.5,-254.5 126.5,-563.5"/>
<text text-anchor="start" x="7" y="-550" font-family="Helvetica,sans-Serif" font-size="10.00">GamR::Nucleus::Transition</text>
<text text-anchor="start" x="13.5" y="-534.75" font-family="Helvetica,sans-Serif" font-size="10.00">#</text>
<text text-anchor="start" x="29.25" y="-534.75" font-family="Helvetica,sans-Serif" font-size="10.00">fEnergy</text>
<text text-anchor="start" x="13.12" y="-519.5" font-family="Helvetica,sans-Serif" font-size="10.00">+</text>
<text text-anchor="start" x="29.25" y="-519.5" font-family="Helvetica,sans-Serif" font-size="10.00">Transition()</text>
<text text-anchor="start" x="13.12" y="-504.25" font-family="Helvetica,sans-Serif" font-size="10.00">+</text>
<text text-anchor="start" x="29.25" y="-504.25" font-family="Helvetica,sans-Serif" font-size="10.00">SetEnergy()</text>
<text text-anchor="start" x="13.12" y="-489" font-family="Helvetica,sans-Serif" font-size="10.00">+</text>
<text text-anchor="start" x="29.25" y="-489" font-family="Helvetica,sans-Serif" font-size="10.00">SetPeak()</text>
<text text-anchor="start" x="13.12" y="-473.75" font-family="Helvetica,sans-Serif" font-size="10.00">+</text>
<text text-anchor="start" x="29.25" y="-473.75" font-family="Helvetica,sans-Serif" font-size="10.00">SetPeak()</text>
<text text-anchor="start" x="13.12" y="-458.5" font-family="Helvetica,sans-Serif" font-size="10.00">+</text>
<text text-anchor="start" x="29.25" y="-458.5" font-family="Helvetica,sans-Serif" font-size="10.00">SetBackground()</text>
<text text-anchor="start" x="13.12" y="-443.25" font-family="Helvetica,sans-Serif" font-size="10.00">+</text>
<text text-anchor="start" x="29.25" y="-443.25" font-family="Helvetica,sans-Serif" font-size="10.00">SetBackground()</text>
<text text-anchor="start" x="13.12" y="-428" font-family="Helvetica,sans-Serif" font-size="10.00">+</text>
<text text-anchor="start" x="29.25" y="-428" font-family="Helvetica,sans-Serif" font-size="10.00">AddBackground()</text>
<text text-anchor="start" x="13.12" y="-412.75" font-family="Helvetica,sans-Serif" font-size="10.00">+</text>
<text text-anchor="start" x="29.25" y="-412.75" font-family="Helvetica,sans-Serif" font-size="10.00">AddBackground()</text>
<text text-anchor="start" x="13.12" y="-397.5" font-family="Helvetica,sans-Serif" font-size="10.00">+</text>
<text text-anchor="start" x="29.25" y="-397.5" font-family="Helvetica,sans-Serif" font-size="10.00">SetTransition()</text>
<text text-anchor="start" x="13.12" y="-382.25" font-family="Helvetica,sans-Serif" font-size="10.00">+</text>
<text text-anchor="start" x="29.25" y="-382.25" font-family="Helvetica,sans-Serif" font-size="10.00">Apply()</text>
<text text-anchor="start" x="13.12" y="-367" font-family="Helvetica,sans-Serif" font-size="10.00">+</text>
<text text-anchor="start" x="29.25" y="-367" font-family="Helvetica,sans-Serif" font-size="10.00">ApplyError()</text>
<text text-anchor="start" x="13.12" y="-351.75" font-family="Helvetica,sans-Serif" font-size="10.00">+</text>
<text text-anchor="start" x="29.25" y="-351.75" font-family="Helvetica,sans-Serif" font-size="10.00">ApplyCounts()</text>
<text text-anchor="start" x="13.12" y="-336.5" font-family="Helvetica,sans-Serif" font-size="10.00">+</text>
<text text-anchor="start" x="29.25" y="-336.5" font-family="Helvetica,sans-Serif" font-size="10.00">ApplyCountsError()</text>
<text text-anchor="start" x="13.12" y="-321.25" font-family="Helvetica,sans-Serif" font-size="10.00">+</text>
<text text-anchor="start" x="29.25" y="-321.25" font-family="Helvetica,sans-Serif" font-size="10.00">GetEnergy()</text>
<text text-anchor="start" x="13.12" y="-306" font-family="Helvetica,sans-Serif" font-size="10.00">+</text>
<text text-anchor="start" x="29.25" y="-306" font-family="Helvetica,sans-Serif" font-size="10.00">GetGate()</text>
<text text-anchor="start" x="13.12" y="-290.75" font-family="Helvetica,sans-Serif" font-size="10.00">+</text>
<text text-anchor="start" x="29.25" y="-290.75" font-family="Helvetica,sans-Serif" font-size="10.00">GetGateBG()</text>
<text text-anchor="start" x="13.12" y="-275.5" font-family="Helvetica,sans-Serif" font-size="10.00">+</text>
<text text-anchor="start" x="29.25" y="-275.5" font-family="Helvetica,sans-Serif" font-size="10.00">GetGateBGs()</text>
<text text-anchor="start" x="13.12" y="-260.25" font-family="Helvetica,sans-Serif" font-size="10.00">+</text>
<text text-anchor="start" x="29.25" y="-260.25" font-family="Helvetica,sans-Serif" font-size="10.00">ClassDef()</text>
<polygon fill="#666666" stroke="#666666" points="3,-546.25 3,-546.25 126.5,-546.25 126.5,-546.25 3,-546.25"/>
<polygon fill="#666666" stroke="#666666" points="3,-531 3,-531 27.25,-531 27.25,-531 3,-531"/>
<polygon fill="#666666" stroke="#666666" points="27.25,-531 27.25,-531 126.5,-531 126.5,-531 27.25,-531"/>
<polygon fill="none" stroke="#666666" points="3,-254.5 3,-563.5 126.5,-563.5 126.5,-254.5 3,-254.5"/>
</a>
</g>
</g>
<!-- Node2&#45;&gt;Node1 -->
<g id="edge1_Node000001_Node000002" class="edge">
<title>Node2&#45;&gt;Node1</title>
<g id="a_edge1_Node000001_Node000002"><a xlink:title=" ">
<path fill="none" stroke="#63b8ff" d="M64.75,-243.05C64.75,-234.35 64.75,-225.73 64.75,-217.31"/>
<polygon fill="none" stroke="#63b8ff" points="61.25,-242.99 64.75,-252.99 68.25,-242.99 61.25,-242.99"/>
</a>
</g>
</g>
<!-- Node3 -->
<g id="Node000003" class="node">
<title>Node3</title>
<g id="a_Node000003"><a xlink:title=" ">
<polygon fill="white" stroke="none" points="45.5,-1661.5 0,-1661.5 0,-1611.75 45.5,-1611.75 45.5,-1661.5"/>
<text text-anchor="start" x="4" y="-1648" font-family="Helvetica,sans-Serif" font-size="10.00">TNamed</text>
<text text-anchor="start" x="21.25" y="-1632.75" font-family="Helvetica,sans-Serif" font-size="10.00"> </text>
<text text-anchor="start" x="21.25" y="-1617.5" font-family="Helvetica,sans-Serif" font-size="10.00"> </text>
<polygon fill="#666666" stroke="#666666" points="0,-1644.25 0,-1644.25 45.5,-1644.25 45.5,-1644.25 0,-1644.25"/>
<polygon fill="#666666" stroke="#666666" points="0,-1629 0,-1629 45.5,-1629 45.5,-1629 0,-1629"/>
<polygon fill="none" stroke="#666666" points="0,-1611.75 0,-1661.5 45.5,-1661.5 45.5,-1611.75 0,-1611.75"/>
</a>
</g>
</g>
<!-- Node3&#45;&gt;Node2 -->
<g id="edge2_Node000002_Node000003" class="edge">
<title>Node3&#45;&gt;Node2</title>
<g id="a_edge2_Node000002_Node000003"><a xlink:title=" ">
<path fill="none" stroke="#63b8ff" d="M22.39,-1600.41C21.35,-1479.36 19.41,-1069.2 36.75,-731 39.56,-676.25 44.32,-616.38 49.13,-563.33"/>
<polygon fill="none" stroke="#63b8ff" points="18.89,-1600.36 22.48,-1610.33 25.89,-1600.3 18.89,-1600.36"/>
</a>
</g>
</g>
<!-- Node4 -->
<g id="Node000004" class="node">
<title>Node4</title>
<g id="a_Node000004"><a xlink:href="../../d0/d79/class_gam_r_1_1_t_k_1_1_gate.html" target="_top" xlink:title=" ">
<polygon fill="white" stroke="none" points="154.12,-1558.5 45.37,-1558.5 45.37,-731 154.12,-731 154.12,-1558.5"/>
<text text-anchor="start" x="64.5" y="-1545" font-family="Helvetica,sans-Serif" font-size="10.00">GamR::TK::Gate</text>
<text text-anchor="start" x="98.25" y="-1529.75" font-family="Helvetica,sans-Serif" font-size="10.00"> </text>
<text text-anchor="start" x="49.38" y="-1514.5" font-family="Helvetica,sans-Serif" font-size="10.00">+</text>
<text text-anchor="start" x="59.38" y="-1514.5" font-family="Helvetica,sans-Serif" font-size="10.00">Gate()</text>
<text text-anchor="start" x="49.38" y="-1499.25" font-family="Helvetica,sans-Serif" font-size="10.00">+</text>
<text text-anchor="start" x="59.38" y="-1499.25" font-family="Helvetica,sans-Serif" font-size="10.00">Gate()</text>
<text text-anchor="start" x="49.38" y="-1484" font-family="Helvetica,sans-Serif" font-size="10.00">+</text>
<text text-anchor="start" x="59.38" y="-1484" font-family="Helvetica,sans-Serif" font-size="10.00">Gate()</text>
<text text-anchor="start" x="49.38" y="-1468.75" font-family="Helvetica,sans-Serif" font-size="10.00">+</text>
<text text-anchor="start" x="59.38" y="-1468.75" font-family="Helvetica,sans-Serif" font-size="10.00">Gate()</text>
<text text-anchor="start" x="49.38" y="-1453.5" font-family="Helvetica,sans-Serif" font-size="10.00">+</text>
<text text-anchor="start" x="59.38" y="-1453.5" font-family="Helvetica,sans-Serif" font-size="10.00">Gate()</text>
<text text-anchor="start" x="49.38" y="-1438.25" font-family="Helvetica,sans-Serif" font-size="10.00">+</text>
<text text-anchor="start" x="59.38" y="-1438.25" font-family="Helvetica,sans-Serif" font-size="10.00">Gate()</text>
<text text-anchor="start" x="49.38" y="-1423" font-family="Helvetica,sans-Serif" font-size="10.00">+</text>
<text text-anchor="start" x="59.38" y="-1423" font-family="Helvetica,sans-Serif" font-size="10.00">Gate()</text>
<text text-anchor="start" x="49.38" y="-1407.75" font-family="Helvetica,sans-Serif" font-size="10.00">+</text>
<text text-anchor="start" x="59.38" y="-1407.75" font-family="Helvetica,sans-Serif" font-size="10.00">~Gate()</text>
<text text-anchor="start" x="49.38" y="-1392.5" font-family="Helvetica,sans-Serif" font-size="10.00">+</text>
<text text-anchor="start" x="59.38" y="-1392.5" font-family="Helvetica,sans-Serif" font-size="10.00">SetGate()</text>
<text text-anchor="start" x="49.38" y="-1377.25" font-family="Helvetica,sans-Serif" font-size="10.00">+</text>
<text text-anchor="start" x="59.38" y="-1377.25" font-family="Helvetica,sans-Serif" font-size="10.00">SetGate()</text>
<text text-anchor="start" x="49.38" y="-1362" font-family="Helvetica,sans-Serif" font-size="10.00">+</text>
<text text-anchor="start" x="59.38" y="-1362" font-family="Helvetica,sans-Serif" font-size="10.00">SetGate()</text>
<text text-anchor="start" x="49.38" y="-1346.75" font-family="Helvetica,sans-Serif" font-size="10.00">+</text>
<text text-anchor="start" x="59.38" y="-1346.75" font-family="Helvetica,sans-Serif" font-size="10.00">SetLow()</text>
<text text-anchor="start" x="49.38" y="-1331.5" font-family="Helvetica,sans-Serif" font-size="10.00">+</text>
<text text-anchor="start" x="59.38" y="-1331.5" font-family="Helvetica,sans-Serif" font-size="10.00">SetLow()</text>
<text text-anchor="start" x="49.38" y="-1316.25" font-family="Helvetica,sans-Serif" font-size="10.00">+</text>
<text text-anchor="start" x="59.38" y="-1316.25" font-family="Helvetica,sans-Serif" font-size="10.00">SetHigh()</text>
<text text-anchor="start" x="49.38" y="-1301" font-family="Helvetica,sans-Serif" font-size="10.00">+</text>
<text text-anchor="start" x="59.38" y="-1301" font-family="Helvetica,sans-Serif" font-size="10.00">SetHigh()</text>
<text text-anchor="start" x="49.38" y="-1285.75" font-family="Helvetica,sans-Serif" font-size="10.00">+</text>
<text text-anchor="start" x="59.38" y="-1285.75" font-family="Helvetica,sans-Serif" font-size="10.00">SetScale()</text>
<text text-anchor="start" x="49.38" y="-1270.5" font-family="Helvetica,sans-Serif" font-size="10.00">+</text>
<text text-anchor="start" x="59.38" y="-1270.5" font-family="Helvetica,sans-Serif" font-size="10.00">GetLow()</text>
<text text-anchor="start" x="49.38" y="-1255.25" font-family="Helvetica,sans-Serif" font-size="10.00">+</text>
<text text-anchor="start" x="59.38" y="-1255.25" font-family="Helvetica,sans-Serif" font-size="10.00">GetHigh()</text>
<text text-anchor="start" x="49.38" y="-1240" font-family="Helvetica,sans-Serif" font-size="10.00">+</text>
<text text-anchor="start" x="59.38" y="-1240" font-family="Helvetica,sans-Serif" font-size="10.00">GetWidth()</text>
<text text-anchor="start" x="49.38" y="-1224.75" font-family="Helvetica,sans-Serif" font-size="10.00">+</text>
<text text-anchor="start" x="59.38" y="-1224.75" font-family="Helvetica,sans-Serif" font-size="10.00">GetBinLow()</text>
<text text-anchor="start" x="49.38" y="-1209.5" font-family="Helvetica,sans-Serif" font-size="10.00">+</text>
<text text-anchor="start" x="59.38" y="-1209.5" font-family="Helvetica,sans-Serif" font-size="10.00">GetBinHigh()</text>
<text text-anchor="start" x="49.38" y="-1194.25" font-family="Helvetica,sans-Serif" font-size="10.00">+</text>
<text text-anchor="start" x="59.38" y="-1194.25" font-family="Helvetica,sans-Serif" font-size="10.00">GetBinWidth()</text>
<text text-anchor="start" x="49.38" y="-1179" font-family="Helvetica,sans-Serif" font-size="10.00">+</text>
<text text-anchor="start" x="59.38" y="-1179" font-family="Helvetica,sans-Serif" font-size="10.00">GetTrueWidth()</text>
<text text-anchor="start" x="49.38" y="-1163.75" font-family="Helvetica,sans-Serif" font-size="10.00">+</text>
<text text-anchor="start" x="59.38" y="-1163.75" font-family="Helvetica,sans-Serif" font-size="10.00">GetIntegral()</text>
<text text-anchor="start" x="49.38" y="-1148.5" font-family="Helvetica,sans-Serif" font-size="10.00">+</text>
<text text-anchor="start" x="59.38" y="-1148.5" font-family="Helvetica,sans-Serif" font-size="10.00">GetIntegral()</text>
<text text-anchor="start" x="49.38" y="-1133.25" font-family="Helvetica,sans-Serif" font-size="10.00">+</text>
<text text-anchor="start" x="59.38" y="-1133.25" font-family="Helvetica,sans-Serif" font-size="10.00">GetIntegral()</text>
<text text-anchor="start" x="49.38" y="-1118" font-family="Helvetica,sans-Serif" font-size="10.00">+</text>
<text text-anchor="start" x="59.38" y="-1118" font-family="Helvetica,sans-Serif" font-size="10.00">GetIntegral()</text>
<text text-anchor="start" x="49.38" y="-1102.75" font-family="Helvetica,sans-Serif" font-size="10.00">+</text>
<text text-anchor="start" x="59.38" y="-1102.75" font-family="Helvetica,sans-Serif" font-size="10.00">GetIntegralError()</text>
<text text-anchor="start" x="49.38" y="-1087.5" font-family="Helvetica,sans-Serif" font-size="10.00">+</text>
<text text-anchor="start" x="59.38" y="-1087.5" font-family="Helvetica,sans-Serif" font-size="10.00">GetIntegralError()</text>
<text text-anchor="start" x="49.38" y="-1072.25" font-family="Helvetica,sans-Serif" font-size="10.00">+</text>
<text text-anchor="start" x="59.38" y="-1072.25" font-family="Helvetica,sans-Serif" font-size="10.00">GetIntegralError()</text>
<text text-anchor="start" x="49.38" y="-1057" font-family="Helvetica,sans-Serif" font-size="10.00">+</text>
<text text-anchor="start" x="59.38" y="-1057" font-family="Helvetica,sans-Serif" font-size="10.00">GetCounts()</text>
<text text-anchor="start" x="49.38" y="-1041.75" font-family="Helvetica,sans-Serif" font-size="10.00">+</text>
<text text-anchor="start" x="59.38" y="-1041.75" font-family="Helvetica,sans-Serif" font-size="10.00">GetCounts()</text>
<text text-anchor="start" x="49.38" y="-1026.5" font-family="Helvetica,sans-Serif" font-size="10.00">+</text>
<text text-anchor="start" x="59.38" y="-1026.5" font-family="Helvetica,sans-Serif" font-size="10.00">GetCounts()</text>
<text text-anchor="start" x="49.38" y="-1011.25" font-family="Helvetica,sans-Serif" font-size="10.00">+</text>
<text text-anchor="start" x="59.38" y="-1011.25" font-family="Helvetica,sans-Serif" font-size="10.00">GetCountsError()</text>
<text text-anchor="start" x="49.38" y="-996" font-family="Helvetica,sans-Serif" font-size="10.00">+</text>
<text text-anchor="start" x="59.38" y="-996" font-family="Helvetica,sans-Serif" font-size="10.00">GetCountsError()</text>
<text text-anchor="start" x="49.38" y="-980.75" font-family="Helvetica,sans-Serif" font-size="10.00">+</text>
<text text-anchor="start" x="59.38" y="-980.75" font-family="Helvetica,sans-Serif" font-size="10.00">GetCountsError()</text>
<text text-anchor="start" x="49.38" y="-965.5" font-family="Helvetica,sans-Serif" font-size="10.00">+</text>
<text text-anchor="start" x="59.38" y="-965.5" font-family="Helvetica,sans-Serif" font-size="10.00">Browse()</text>
<text text-anchor="start" x="49.38" y="-950.25" font-family="Helvetica,sans-Serif" font-size="10.00">+</text>
<text text-anchor="start" x="59.38" y="-950.25" font-family="Helvetica,sans-Serif" font-size="10.00">Pass()</text>
<text text-anchor="start" x="49.38" y="-935" font-family="Helvetica,sans-Serif" font-size="10.00">+</text>
<text text-anchor="start" x="59.38" y="-935" font-family="Helvetica,sans-Serif" font-size="10.00">Pass()</text>
<text text-anchor="start" x="49.38" y="-919.75" font-family="Helvetica,sans-Serif" font-size="10.00">+</text>
<text text-anchor="start" x="59.38" y="-919.75" font-family="Helvetica,sans-Serif" font-size="10.00">PassDetector()</text>
<text text-anchor="start" x="49.38" y="-904.5" font-family="Helvetica,sans-Serif" font-size="10.00">+</text>
<text text-anchor="start" x="59.38" y="-904.5" font-family="Helvetica,sans-Serif" font-size="10.00">ApplyX()</text>
<text text-anchor="start" x="49.38" y="-889.25" font-family="Helvetica,sans-Serif" font-size="10.00">+</text>
<text text-anchor="start" x="59.38" y="-889.25" font-family="Helvetica,sans-Serif" font-size="10.00">ApplyX()</text>
<text text-anchor="start" x="49.38" y="-874" font-family="Helvetica,sans-Serif" font-size="10.00">+</text>
<text text-anchor="start" x="59.38" y="-874" font-family="Helvetica,sans-Serif" font-size="10.00">ApplyY()</text>
<text text-anchor="start" x="49.38" y="-858.75" font-family="Helvetica,sans-Serif" font-size="10.00">+</text>
<text text-anchor="start" x="59.38" y="-858.75" font-family="Helvetica,sans-Serif" font-size="10.00">ApplyY()</text>
<text text-anchor="start" x="49.38" y="-843.5" font-family="Helvetica,sans-Serif" font-size="10.00">+</text>
<text text-anchor="start" x="59.38" y="-843.5" font-family="Helvetica,sans-Serif" font-size="10.00">Norm()</text>
<text text-anchor="start" x="49.38" y="-828.25" font-family="Helvetica,sans-Serif" font-size="10.00">+</text>
<text text-anchor="start" x="59.38" y="-828.25" font-family="Helvetica,sans-Serif" font-size="10.00">NormBackSub()</text>
<text text-anchor="start" x="49.38" y="-813" font-family="Helvetica,sans-Serif" font-size="10.00">+</text>
<text text-anchor="start" x="59.38" y="-813" font-family="Helvetica,sans-Serif" font-size="10.00">Paint()</text>
<text text-anchor="start" x="49.38" y="-797.75" font-family="Helvetica,sans-Serif" font-size="10.00">+</text>
<text text-anchor="start" x="59.38" y="-797.75" font-family="Helvetica,sans-Serif" font-size="10.00">DistancetoPrimitive()</text>
<text text-anchor="start" x="49.38" y="-782.5" font-family="Helvetica,sans-Serif" font-size="10.00">+</text>
<text text-anchor="start" x="59.38" y="-782.5" font-family="Helvetica,sans-Serif" font-size="10.00">ExecuteEvent()</text>
<text text-anchor="start" x="49.38" y="-767.25" font-family="Helvetica,sans-Serif" font-size="10.00">+</text>
<text text-anchor="start" x="59.38" y="-767.25" font-family="Helvetica,sans-Serif" font-size="10.00">IsFolder()</text>
<text text-anchor="start" x="49.38" y="-752" font-family="Helvetica,sans-Serif" font-size="10.00">+</text>
<text text-anchor="start" x="59.38" y="-752" font-family="Helvetica,sans-Serif" font-size="10.00">ls()</text>
<text text-anchor="start" x="49.38" y="-736.75" font-family="Helvetica,sans-Serif" font-size="10.00">+</text>
<text text-anchor="start" x="59.38" y="-736.75" font-family="Helvetica,sans-Serif" font-size="10.00">Valid()</text>
<polygon fill="#666666" stroke="#666666" points="45.38,-1541.25 45.38,-1541.25 154.12,-1541.25 154.12,-1541.25 45.38,-1541.25"/>
<polygon fill="#666666" stroke="#666666" points="45.38,-1526 45.38,-1526 154.12,-1526 154.12,-1526 45.38,-1526"/>
<polygon fill="none" stroke="#666666" points="45.38,-731 45.38,-1558.5 154.12,-1558.5 154.12,-731 45.38,-731"/>
</a>
</g>
</g>
<!-- Node3&#45;&gt;Node4 -->
<g id="edge4_Node000004_Node000003" class="edge">
<title>Node3&#45;&gt;Node4</title>
<g id="a_edge4_Node000004_Node000003"><a xlink:title=" ">
<path fill="none" stroke="#63b8ff" d="M30.41,-1600.75C30.88,-1598.39 31.33,-1596.04 31.75,-1593.75 36.39,-1568.41 40.96,-1542.22 45.4,-1515.81"/>
<polygon fill="none" stroke="#63b8ff" points="27.04,-1599.78 28.45,-1610.28 33.9,-1601.19 27.04,-1599.78"/>
</a>
</g>
</g>
<!-- Node4&#45;&gt;Node2 -->
<g id="edge3_Node000002_Node000004" class="edge">
<title>Node4&#45;&gt;Node2</title>
<g id="a_edge3_Node000002_Node000004"><a xlink:title=" ">
<path fill="none" stroke="#63b8ff" d="M76.5,-731.18C75.62,-713.13 74.79,-695.25 74,-677.75 72.52,-644.89 71.16,-609.76 69.95,-576.11"/>
<polygon fill="none" stroke="#63b8ff" points="69.96,-576.19 65.75,-570.33 69.53,-564.19 73.74,-570.05 69.96,-576.19"/>
</a>
</g>
<text text-anchor="start" x="77" y="-643.38" font-family="Helvetica,sans-Serif" font-size="10.00" fill="grey">#fPeak</text>
</g>
<!-- Node7 -->
<g id="Node000007" class="node">
<title>Node7</title>
<g id="a_Node000007"><a xlink:title=" ">
<polygon fill="white" stroke="none" points="213.5,-677.75 120,-677.75 120,-616.75 213.5,-616.75 213.5,-677.75"/>
<text text-anchor="start" x="124" y="-664.25" font-family="Helvetica,sans-Serif" font-size="10.00">std::vector&lt; GamR::</text>
<text text-anchor="start" x="143.5" y="-653" font-family="Helvetica,sans-Serif" font-size="10.00">TK::Gate &gt;</text>
<text text-anchor="start" x="165.25" y="-637.75" font-family="Helvetica,sans-Serif" font-size="10.00"> </text>
<text text-anchor="start" x="165.25" y="-622.5" font-family="Helvetica,sans-Serif" font-size="10.00"> </text>
<polygon fill="#666666" stroke="#666666" points="120,-649.25 120,-649.25 213.5,-649.25 213.5,-649.25 120,-649.25"/>
<polygon fill="#666666" stroke="#666666" points="120,-634 120,-634 213.5,-634 213.5,-634 120,-634"/>
<polygon fill="none" stroke="#666666" points="120,-616.75 120,-677.75 213.5,-677.75 213.5,-616.75 120,-616.75"/>
</a>
</g>
</g>
<!-- Node4&#45;&gt;Node7 -->
<g id="edge8_Node000007_Node000004" class="edge">
<title>Node4&#45;&gt;Node7</title>
<g id="a_edge8_Node000007_Node000004"><a xlink:title=" ">
<path fill="none" stroke="#63b8ff" d="M100.92,-731.17C105.04,-719.07 109.72,-707.24 115,-695.75 116.27,-692.99 117.78,-690.32 119.47,-687.75"/>
<polygon fill="none" stroke="#63b8ff" points="119.36,-687.89 119.92,-680.7 126.76,-678.44 126.21,-685.63 119.36,-687.89"/>
</a>
</g>
<text text-anchor="start" x="118" y="-700.5" font-family="Helvetica,sans-Serif" font-size="10.00" fill="grey">+elements</text>
</g>
<!-- Node5 -->
<g id="Node000005" class="node">
<title>Node5</title>
<g id="a_Node000005"><a xlink:title=" ">
<polygon fill="white" stroke="none" points="113.5,-1661.5 68,-1661.5 68,-1611.75 113.5,-1611.75 113.5,-1661.5"/>
<text text-anchor="start" x="72" y="-1648" font-family="Helvetica,sans-Serif" font-size="10.00">TAttLine</text>
<text text-anchor="start" x="89.25" y="-1632.75" font-family="Helvetica,sans-Serif" font-size="10.00"> </text>
<text text-anchor="start" x="89.25" y="-1617.5" font-family="Helvetica,sans-Serif" font-size="10.00"> </text>
<polygon fill="#666666" stroke="#666666" points="68,-1644.25 68,-1644.25 113.5,-1644.25 113.5,-1644.25 68,-1644.25"/>
<polygon fill="#666666" stroke="#666666" points="68,-1629 68,-1629 113.5,-1629 113.5,-1629 68,-1629"/>
<polygon fill="none" stroke="#666666" points="68,-1611.75 68,-1661.5 113.5,-1661.5 113.5,-1611.75 68,-1611.75"/>
</a>
</g>
</g>
<!-- Node5&#45;&gt;Node4 -->
<g id="edge5_Node000004_Node000005" class="edge">
<title>Node5&#45;&gt;Node4</title>
<g id="a_edge5_Node000004_Node000005"><a xlink:title=" ">
<path fill="none" stroke="#63b8ff" d="M91.39,-1600.67C91.61,-1588.89 91.87,-1574.55 92.17,-1558.32"/>
<polygon fill="none" stroke="#63b8ff" points="87.9,-1600.42 91.21,-1610.48 94.9,-1600.55 87.9,-1600.42"/>
</a>
</g>
</g>
<!-- Node6 -->
<g id="Node000006" class="node">
<title>Node6</title>
<g id="a_Node000006"><a xlink:title=" ">
<polygon fill="white" stroke="none" points="171.5,-1661.5 132,-1661.5 132,-1611.75 171.5,-1611.75 171.5,-1661.5"/>
<text text-anchor="start" x="136" y="-1648" font-family="Helvetica,sans-Serif" font-size="10.00">TAttFill</text>
<text text-anchor="start" x="150.25" y="-1632.75" font-family="Helvetica,sans-Serif" font-size="10.00"> </text>
<text text-anchor="start" x="150.25" y="-1617.5" font-family="Helvetica,sans-Serif" font-size="10.00"> </text>
<polygon fill="#666666" stroke="#666666" points="132,-1644.25 132,-1644.25 171.5,-1644.25 171.5,-1644.25 132,-1644.25"/>
<polygon fill="#666666" stroke="#666666" points="132,-1629 132,-1629 171.5,-1629 171.5,-1629 132,-1629"/>
<polygon fill="none" stroke="#666666" points="132,-1611.75 132,-1661.5 171.5,-1661.5 171.5,-1611.75 132,-1611.75"/>
</a>
</g>
</g>
<!-- Node6&#45;&gt;Node4 -->
<g id="edge6_Node000004_Node000006" class="edge">
<title>Node6&#45;&gt;Node4</title>
<g id="a_edge6_Node000004_Node000006"><a xlink:title=" ">
<path fill="none" stroke="#63b8ff" d="M148.04,-1600.67C146.79,-1588.89 145.27,-1574.55 143.54,-1558.32"/>
<polygon fill="none" stroke="#63b8ff" points="144.55,-1600.92 149.08,-1610.49 151.51,-1600.18 144.55,-1600.92"/>
</a>
</g>
</g>
<!-- Node7&#45;&gt;Node2 -->
<g id="edge7_Node000002_Node000007" class="edge">
<title>Node7&#45;&gt;Node2</title>
<g id="a_edge7_Node000002_Node000007"><a xlink:title=" ">
<path fill="none" stroke="#63b8ff" d="M154.04,-616.81C147.9,-602.59 140.02,-584.33 131.48,-564.57"/>
<polygon fill="none" stroke="#63b8ff" points="131.51,-564.62 125.46,-560.7 126.75,-553.6 132.8,-557.52 131.51,-564.62"/>
</a>
</g>
<text text-anchor="start" x="147.72" y="-586.25" font-family="Helvetica,sans-Serif" font-size="10.00" fill="grey">#fBackground</text>
</g>
<!-- Node8 -->
<g id="Node000008" class="node">
<title>Node8</title>
<g id="a_Node000008"><a xlink:title=" ">
<polygon fill="white" stroke="none" points="247.5,-1169.62 172,-1169.62 172,-1119.88 247.5,-1119.88 247.5,-1169.62"/>
<text text-anchor="start" x="176" y="-1156.12" font-family="Helvetica,sans-Serif" font-size="10.00">std::vector&lt; T &gt;</text>
<text text-anchor="start" x="208.25" y="-1140.88" font-family="Helvetica,sans-Serif" font-size="10.00"> </text>
<text text-anchor="start" x="208.25" y="-1125.62" font-family="Helvetica,sans-Serif" font-size="10.00"> </text>
<polygon fill="#666666" stroke="#666666" points="172,-1152.38 172,-1152.38 247.5,-1152.38 247.5,-1152.38 172,-1152.38"/>
<polygon fill="#666666" stroke="#666666" points="172,-1137.12 172,-1137.12 247.5,-1137.12 247.5,-1137.12 172,-1137.12"/>
<polygon fill="none" stroke="#666666" points="172,-1119.88 172,-1169.62 247.5,-1169.62 247.5,-1119.88 172,-1119.88"/>
</a>
</g>
</g>
<!-- Node8&#45;&gt;Node7 -->
<g id="edge9_Node000007_Node000008" class="edge">
<title>Node8&#45;&gt;Node7</title>
<g id="a_edge9_Node000007_Node000008"><a xlink:title=" ">
<path fill="none" stroke="orange" d="M206.73,-1108.93C198.67,-1016.13 176.8,-764.08 169.31,-677.74"/>
<polygon fill="orange" stroke="orange" points="203.22,-1109.02 207.57,-1118.68 210.2,-1108.41 203.22,-1109.02"/>
</a>
</g>
<text text-anchor="start" x="175.08" y="-700.5" font-family="Helvetica,sans-Serif" font-size="10.00" fill="grey">&lt; GamR::TK::Gate &gt;</text>
</g>
<!-- Node9 -->
<g id="Node000009" class="node">
<title>Node9</title>
<g id="a_Node000009"><a xlink:title=" ">
<polygon fill="white" stroke="none" points="216.75,-1661.5 202.75,-1661.5 202.75,-1611.75 216.75,-1611.75 216.75,-1661.5"/>
<text text-anchor="start" x="206.75" y="-1648" font-family="Helvetica,sans-Serif" font-size="10.00">T</text>
<text text-anchor="start" x="208.25" y="-1632.75" font-family="Helvetica,sans-Serif" font-size="10.00"> </text>
<text text-anchor="start" x="208.25" y="-1617.5" font-family="Helvetica,sans-Serif" font-size="10.00"> </text>
<polygon fill="#666666" stroke="#666666" points="202.75,-1644.25 202.75,-1644.25 216.75,-1644.25 216.75,-1644.25 202.75,-1644.25"/>
<polygon fill="#666666" stroke="#666666" points="202.75,-1629 202.75,-1629 216.75,-1629 216.75,-1629 202.75,-1629"/>
<polygon fill="none" stroke="#666666" points="202.75,-1611.75 202.75,-1661.5 216.75,-1661.5 216.75,-1611.75 202.75,-1611.75"/>
</a>
</g>
</g>
<!-- Node9&#45;&gt;Node8 -->
<g id="edge10_Node000008_Node000009" class="edge">
<title>Node9&#45;&gt;Node8</title>
<g id="a_edge10_Node000008_Node000009"><a xlink:title=" ">
<path fill="none" stroke="#63b8ff" d="M209.75,-1612C209.75,-1533.03 209.75,-1277.88 209.75,-1182.33"/>
<polygon fill="none" stroke="#63b8ff" points="209.75,-1182.33 205.75,-1176.33 209.75,-1170.33 213.75,-1176.33 209.75,-1182.33"/>
</a>
</g>
<text text-anchor="start" x="212.75" y="-1581.25" font-family="Helvetica,sans-Serif" font-size="10.00" fill="grey">+elements</text>
</g>
</g>
</svg>

<g id="navigator" transform="translate(0 0)" fill="#404254">
  <rect fill="#f2f5e9" fill-opacity="0.5" stroke="#606060" stroke-width=".5" x="0" y="0" width="60" height="60"/>
  <use id="zoomplus" xlink:href="#zoomPlus" x="17" y="9" onmousedown="handleZoom(evt,'in')"/>
  <use id="zoomminus" xlink:href="#zoomMin" x="42" y="9" onmousedown="handleZoom(evt,'out')"/>
  <use id="reset" xlink:href="#resetDef" x="30" y="36" onmousedown="handleReset()"/>
   <use id="arrowup" xlink:href="#arrowUp" x="0" y="0" onmousedown="handlePan(0,-1)"/>
  <use id="arrowright" xlink:href="#arrowRight" x="0" y="0" onmousedown="handlePan(1,0)"/>
  <use id="arrowdown" xlink:href="#arrowDown" x="0" y="0" onmousedown="handlePan(0,1)"/>
  <use id="arrowleft" xlink:href="#arrowLeft" x="0" y="0" onmousedown="handlePan(-1,0)"/>
</g>
<svg viewBox="0 0 15 15" width="100%" height="30px" preserveAspectRatio="xMaxYMin meet">
 <g id="arrow_out" transform="scale(0.3 0.3)">
  <a xlink:href="class_gam_r_1_1_nucleus_1_1_photon__coll__graph_org.svg" target="_base">
   <rect id="button" ry="5" rx="5" y="6" x="6" height="38" width="38"
        fill="#f2f5e9" fill-opacity="0.5" stroke="#606060" stroke-width="1.0"/>
   <path id="arrow"
     d="M 11.500037,31.436501 C 11.940474,20.09759 22.043105,11.32322 32.158766,21.979434 L 37.068811,17.246167 C 37.068811,17.246167 37.088388,32 37.088388,32 L 22.160133,31.978069 C 22.160133,31.978069 26.997745,27.140456 26.997745,27.140456 C 18.528582,18.264221 13.291696,25.230495 11.500037,31.436501 z"
     style="fill:#404040;"/>
  </a>
 </g>
</svg>

<style type='text/css'>
<![CDATA[
[data-mouse-over-selected='false'] { opacity: 0.7; }
[data-mouse-over-selected='true']  { opacity: 1.0; }
]]>
</style>
<script type="application/ecmascript"><![CDATA[
document.addEventListener('DOMContentLoaded', (event) => {
  highlightEdges();
  highlightAdjacentNodes();
});
]]></script>
</svg>
