<?xml version="1.0" encoding="UTF-8" standalone="no"?>
<!DOCTYPE svg PUBLIC "-//W3C//DTD SVG 1.1//EN"
 "http://www.w3.org/Graphics/SVG/1.1/DTD/svg11.dtd">
<!-- Generated by graphviz version 2.50.0 (20220203.2022)
 -->
<!-- Title: GamR::ORNL::readAllBananas Pages: 1 -->
<!--zoomable 753 -->
<svg id="main" version="1.1" xmlns="http://www.w3.org/2000/svg" xmlns:xlink="http://www.w3.org/1999/xlink" xml:space="preserve" onload="init(evt)">
<style type="text/css"><![CDATA[
.edge:hover path { stroke: red; }
.edge:hover polygon { stroke: red; fill: red; }
]]></style>
<script type="text/javascript"><![CDATA[
var edges = document.getElementsByTagName('g');
if (edges && edges.length) {
  for (var i=0;i<edges.length;i++) {
    if (edges[i].id.substr(0,4)=='edge') {
      edges[i].setAttribute('class','edge');
    }
  }
}
]]></script>
        <defs>
                <circle id="rim" cx="0" cy="0" r="7"/>
                <circle id="rim2" cx="0" cy="0" r="3.5"/>
                <g id="zoomPlus">
                        <use xlink:href="#rim" fill="#404040">
                                <set attributeName="fill" to="#808080" begin="zoomplus.mouseover" end="zoomplus.mouseout"/>
                        </use>
                        <path d="M-4,0h8M0,-4v8" fill="none" stroke="white" stroke-width="1.5" pointer-events="none"/>
                </g>
                <g id="zoomMin">
                        <use xlink:href="#rim" fill="#404040">
                                <set attributeName="fill" to="#808080" begin="zoomminus.mouseover" end="zoomminus.mouseout"/>
                        </use>
                        <path d="M-4,0h8" fill="none" stroke="white" stroke-width="1.5" pointer-events="none"/>
                </g>
                <g id="dirArrow">
                        <path fill="none" stroke="white" stroke-width="1.5" d="M0,-3.0v7 M-2.5,-0.5L0,-3.0L2.5,-0.5"/>
                </g>
               <g id="resetDef">
                       <use xlink:href="#rim2" fill="#404040">
                               <set attributeName="fill" to="#808080" begin="reset.mouseover" end="reset.mouseout"/>
                       </use>
               </g>
        </defs>

<script type="text/javascript">
var viewWidth = 848;
var viewHeight = 753;
var sectionId = 'dynsection-0';
</script>
<script xlink:href="../../svgpan.js"/>
<svg id="graph" class="graph">
<g id="viewport">
<title>GamR::ORNL::readAllBananas</title>
<polygon fill="white" stroke="transparent" points="-4,4 -4,-749 844,-749 844,4 -4,4"/>
<!-- Node1 -->
<g id="node1" class="node">
<title>Node1</title>
<g id="a_node1"><a xlink:title=" ">
<polygon fill="#bfbfbf" stroke="black" points="0,-362.5 0,-381.5 149,-381.5 149,-362.5 0,-362.5"/>
<text text-anchor="middle" x="74.5" y="-369.5" font-family="Helvetica,sans-Serif" font-size="10.00">GamR::ORNL::readAllBananas</text>
</a>
</g>
</g>
<!-- Node2 -->
<g id="node2" class="node">
<title>Node2</title>
<g id="a_node2"><a xlink:href="../../d0/db7/namespace_gam_r_1_1_utils.html#a0a7aaf911b057208b84e3b98d071c5c0" target="_top" xlink:title=" ">
<polygon fill="white" stroke="black" points="370.5,-725.5 370.5,-744.5 472.5,-744.5 472.5,-725.5 370.5,-725.5"/>
<text text-anchor="middle" x="421.5" y="-732.5" font-family="Helvetica,sans-Serif" font-size="10.00">GamR::Utils::getline</text>
</a>
</g>
</g>
<!-- Node1&#45;&gt;Node2 -->
<g id="edge1" class="edge">
<title>Node1&#45;&gt;Node2</title>
<path fill="none" stroke="midnightblue" d="M80.42,-381.72C103.94,-427.17 209.79,-620.63 354,-716 357.09,-718.04 360.39,-719.87 363.82,-721.5"/>
<polygon fill="midnightblue" stroke="midnightblue" points="362.54,-724.76 373.12,-725.38 365.24,-718.3 362.54,-724.76"/>
</g>
<!-- Node3 -->
<g id="node3" class="node">
<title>Node3</title>
<g id="a_node3"><a xlink:href="../../d1/d06/group___o_r_n_l.html#gadf516cfb4c9ea542a49beb4a7c8b3abd" target="_top" xlink:title=" ">
<polygon fill="white" stroke="black" points="185,-362.5 185,-381.5 318,-381.5 318,-362.5 185,-362.5"/>
<text text-anchor="middle" x="251.5" y="-369.5" font-family="Helvetica,sans-Serif" font-size="10.00">GamR::ORNL::readBanana</text>
</a>
</g>
</g>
<!-- Node1&#45;&gt;Node3 -->
<g id="edge2" class="edge">
<title>Node1&#45;&gt;Node3</title>
<path fill="none" stroke="midnightblue" d="M149.21,-372C157.64,-372 166.25,-372 174.71,-372"/>
<polygon fill="midnightblue" stroke="midnightblue" points="174.94,-375.5 184.94,-372 174.94,-368.5 174.94,-375.5"/>
</g>
<!-- Node18 -->
<g id="node18" class="node">
<title>Node18</title>
<g id="a_node18"><a xlink:href="../../d0/d17/_abbreviations_8cc.html#a5d1794b612bdcca3f4f4baa3d2e38a0b" target="_top" xlink:title=" ">
<polygon fill="white" stroke="black" points="407,-0.5 407,-19.5 436,-19.5 436,-0.5 407,-0.5"/>
<text text-anchor="middle" x="421.5" y="-7.5" font-family="Helvetica,sans-Serif" font-size="10.00">ss</text>
</a>
</g>
</g>
<!-- Node1&#45;&gt;Node18 -->
<g id="edge22" class="edge">
<title>Node1&#45;&gt;Node18</title>
<path fill="none" stroke="midnightblue" d="M80.43,-362.31C103.98,-316.99 209.97,-124.1 354,-29 366.81,-20.54 383.41,-15.79 396.82,-13.16"/>
<polygon fill="midnightblue" stroke="midnightblue" points="397.48,-16.6 406.75,-11.47 396.31,-9.7 397.48,-16.6"/>
</g>
<!-- Node3&#45;&gt;Node2 -->
<g id="edge3" class="edge">
<title>Node3&#45;&gt;Node2</title>
<path fill="none" stroke="midnightblue" d="M256.04,-381.8C266.36,-410.51 296.94,-496.94 318,-570 336.51,-634.22 307.61,-667.89 354,-716 356.22,-718.3 358.7,-720.33 361.36,-722.12"/>
<polygon fill="midnightblue" stroke="midnightblue" points="359.91,-725.32 370.37,-727.05 363.27,-719.18 359.91,-725.32"/>
</g>
<!-- Node4 -->
<g id="node4" class="node">
<title>Node4</title>
<g id="a_node4"><a xlink:href="../../d1/d06/group___o_r_n_l.html#ga1b8b343a02efb0d61061d6e2fc4b6745" target="_top" xlink:title=" ">
<polygon fill="white" stroke="black" points="354,-676 354,-706 489,-706 489,-676 354,-676"/>
<text text-anchor="start" x="362" y="-694" font-family="Helvetica,sans-Serif" font-size="10.00">GamR::ORNL::BananaGate</text>
<text text-anchor="middle" x="421.5" y="-683" font-family="Helvetica,sans-Serif" font-size="10.00">::SetDG</text>
</a>
</g>
</g>
<!-- Node3&#45;&gt;Node4 -->
<g id="edge4" class="edge">
<title>Node3&#45;&gt;Node4</title>
<path fill="none" stroke="midnightblue" d="M255.68,-381.62C272.3,-431.8 348.58,-661.5 354,-667 354.94,-667.96 355.93,-668.88 356.95,-669.76"/>
<polygon fill="midnightblue" stroke="midnightblue" points="355.24,-672.85 365.4,-675.85 359.33,-667.17 355.24,-672.85"/>
</g>
<!-- Node5 -->
<g id="node5" class="node">
<title>Node5</title>
<g id="a_node5"><a xlink:href="../../d1/d06/group___o_r_n_l.html#gacd0499872badfb298bd1272f12b41f23" target="_top" xlink:title=" ">
<polygon fill="white" stroke="black" points="354,-627 354,-657 489,-657 489,-627 354,-627"/>
<text text-anchor="start" x="362" y="-645" font-family="Helvetica,sans-Serif" font-size="10.00">GamR::ORNL::BananaGate</text>
<text text-anchor="middle" x="421.5" y="-634" font-family="Helvetica,sans-Serif" font-size="10.00">::SetFileName</text>
</a>
</g>
</g>
<!-- Node3&#45;&gt;Node5 -->
<g id="edge5" class="edge">
<title>Node3&#45;&gt;Node5</title>
<path fill="none" stroke="midnightblue" d="M255.35,-381.71C267.6,-422.87 316.85,-582.48 354,-618 355.11,-619.06 356.27,-620.07 357.47,-621.04"/>
<polygon fill="midnightblue" stroke="midnightblue" points="355.71,-624.08 365.94,-626.82 359.65,-618.3 355.71,-624.08"/>
</g>
<!-- Node6 -->
<g id="node6" class="node">
<title>Node6</title>
<g id="a_node6"><a xlink:href="../../d1/d06/group___o_r_n_l.html#ga828addea595481b96d3f41002826e8ba" target="_top" xlink:title=" ">
<polygon fill="white" stroke="black" points="354,-578 354,-608 489,-608 489,-578 354,-578"/>
<text text-anchor="start" x="362" y="-596" font-family="Helvetica,sans-Serif" font-size="10.00">GamR::ORNL::BananaGate</text>
<text text-anchor="middle" x="421.5" y="-585" font-family="Helvetica,sans-Serif" font-size="10.00">::SetIAUX</text>
</a>
</g>
</g>
<!-- Node3&#45;&gt;Node6 -->
<g id="edge6" class="edge">
<title>Node3&#45;&gt;Node6</title>
<path fill="none" stroke="midnightblue" d="M254.8,-381.78C262.77,-413.51 292.14,-514.67 354,-569 355.33,-570.17 356.72,-571.28 358.17,-572.34"/>
<polygon fill="midnightblue" stroke="midnightblue" points="356.58,-575.48 366.9,-577.86 360.31,-569.56 356.58,-575.48"/>
</g>
<!-- Node7 -->
<g id="node7" class="node">
<title>Node7</title>
<g id="a_node7"><a xlink:href="../../d1/d06/group___o_r_n_l.html#ga09cadfda3190414a9bf225552e745612" target="_top" xlink:title=" ">
<polygon fill="white" stroke="black" points="354,-529 354,-559 489,-559 489,-529 354,-529"/>
<text text-anchor="start" x="362" y="-547" font-family="Helvetica,sans-Serif" font-size="10.00">GamR::ORNL::BananaGate</text>
<text text-anchor="middle" x="421.5" y="-536" font-family="Helvetica,sans-Serif" font-size="10.00">::SetIB</text>
</a>
</g>
</g>
<!-- Node3&#45;&gt;Node7 -->
<g id="edge7" class="edge">
<title>Node3&#45;&gt;Node7</title>
<path fill="none" stroke="midnightblue" d="M256.62,-381.86C268.1,-408.14 302.97,-480.56 354,-520 355.78,-521.37 357.64,-522.67 359.56,-523.9"/>
<polygon fill="midnightblue" stroke="midnightblue" points="357.92,-526.99 368.35,-528.85 361.35,-520.89 357.92,-526.99"/>
</g>
<!-- Node8 -->
<g id="node8" class="node">
<title>Node8</title>
<g id="a_node8"><a xlink:href="../../d1/d06/group___o_r_n_l.html#ga60f97af383724875b1544ecb8281cc58" target="_top" xlink:title=" ">
<polygon fill="white" stroke="black" points="354,-480 354,-510 489,-510 489,-480 354,-480"/>
<text text-anchor="start" x="362" y="-498" font-family="Helvetica,sans-Serif" font-size="10.00">GamR::ORNL::BananaGate</text>
<text text-anchor="middle" x="421.5" y="-487" font-family="Helvetica,sans-Serif" font-size="10.00">::SetIH</text>
</a>
</g>
</g>
<!-- Node3&#45;&gt;Node8 -->
<g id="edge8" class="edge">
<title>Node3&#45;&gt;Node8</title>
<path fill="none" stroke="midnightblue" d="M259.88,-381.54C275.34,-400.96 313.11,-445.39 354,-471 356.57,-472.61 359.26,-474.13 362.03,-475.57"/>
<polygon fill="midnightblue" stroke="midnightblue" points="360.54,-478.73 371.07,-479.87 363.55,-472.41 360.54,-478.73"/>
</g>
<!-- Node9 -->
<g id="node9" class="node">
<title>Node9</title>
<g id="a_node9"><a xlink:href="../../d1/d06/group___o_r_n_l.html#gaa4083f529683a721acdc300c1e3c3afc" target="_top" xlink:title=" ">
<polygon fill="white" stroke="black" points="354,-431 354,-461 489,-461 489,-431 354,-431"/>
<text text-anchor="start" x="362" y="-449" font-family="Helvetica,sans-Serif" font-size="10.00">GamR::ORNL::BananaGate</text>
<text text-anchor="middle" x="421.5" y="-438" font-family="Helvetica,sans-Serif" font-size="10.00">::SetIPX</text>
</a>
</g>
</g>
<!-- Node3&#45;&gt;Node9 -->
<g id="edge9" class="edge">
<title>Node3&#45;&gt;Node9</title>
<path fill="none" stroke="midnightblue" d="M270.55,-381.65C290.63,-392.21 324.17,-409.32 354,-422 358.18,-423.78 362.54,-425.54 366.94,-427.26"/>
<polygon fill="midnightblue" stroke="midnightblue" points="366,-430.65 376.59,-430.94 368.49,-424.11 366,-430.65"/>
</g>
<!-- Node10 -->
<g id="node10" class="node">
<title>Node10</title>
<g id="a_node10"><a xlink:href="../../d1/d06/group___o_r_n_l.html#ga04f3d0b54f752fc65ed238db00d9c696" target="_top" xlink:title=" ">
<polygon fill="white" stroke="black" points="354,-382 354,-412 489,-412 489,-382 354,-382"/>
<text text-anchor="start" x="362" y="-400" font-family="Helvetica,sans-Serif" font-size="10.00">GamR::ORNL::BananaGate</text>
<text text-anchor="middle" x="421.5" y="-389" font-family="Helvetica,sans-Serif" font-size="10.00">::SetIPY</text>
</a>
</g>
</g>
<!-- Node3&#45;&gt;Node10 -->
<g id="edge10" class="edge">
<title>Node3&#45;&gt;Node10</title>
<path fill="none" stroke="midnightblue" d="M316.49,-381.52C325.48,-382.86 334.8,-384.25 343.99,-385.61"/>
<polygon fill="midnightblue" stroke="midnightblue" points="343.49,-389.08 353.89,-387.09 344.52,-382.15 343.49,-389.08"/>
</g>
<!-- Node11 -->
<g id="node11" class="node">
<title>Node11</title>
<g id="a_node11"><a xlink:href="../../d1/d06/group___o_r_n_l.html#ga400b10a64714b99aad436239aab3feb7" target="_top" xlink:title=" ">
<polygon fill="white" stroke="black" points="354,-333 354,-363 489,-363 489,-333 354,-333"/>
<text text-anchor="start" x="362" y="-351" font-family="Helvetica,sans-Serif" font-size="10.00">GamR::ORNL::BananaGate</text>
<text text-anchor="middle" x="421.5" y="-340" font-family="Helvetica,sans-Serif" font-size="10.00">::SetJAUX</text>
</a>
</g>
</g>
<!-- Node3&#45;&gt;Node11 -->
<g id="edge11" class="edge">
<title>Node3&#45;&gt;Node11</title>
<path fill="none" stroke="midnightblue" d="M318.42,-362.58C326.81,-361.38 335.45,-360.15 343.99,-358.93"/>
<polygon fill="midnightblue" stroke="midnightblue" points="344.54,-362.39 353.95,-357.51 343.55,-355.46 344.54,-362.39"/>
</g>
<!-- Node12 -->
<g id="node12" class="node">
<title>Node12</title>
<g id="a_node12"><a xlink:href="../../d1/d06/group___o_r_n_l.html#ga2bef3cf9878028d6fd427101c0a537b3" target="_top" xlink:title=" ">
<polygon fill="white" stroke="black" points="354,-284 354,-314 489,-314 489,-284 354,-284"/>
<text text-anchor="start" x="362" y="-302" font-family="Helvetica,sans-Serif" font-size="10.00">GamR::ORNL::BananaGate</text>
<text text-anchor="middle" x="421.5" y="-291" font-family="Helvetica,sans-Serif" font-size="10.00">::SetLXD</text>
</a>
</g>
</g>
<!-- Node3&#45;&gt;Node12 -->
<g id="edge12" class="edge">
<title>Node3&#45;&gt;Node12</title>
<path fill="none" stroke="midnightblue" d="M271.74,-362.32C292,-352.27 324.92,-336.32 354,-324 358.97,-321.9 364.18,-319.78 369.41,-317.72"/>
<polygon fill="midnightblue" stroke="midnightblue" points="370.73,-320.96 378.79,-314.08 368.2,-314.43 370.73,-320.96"/>
</g>
<!-- Node13 -->
<g id="node13" class="node">
<title>Node13</title>
<g id="a_node13"><a xlink:href="../../d1/d06/group___o_r_n_l.html#gaffd868e98112f2188173e23b387e2e8e" target="_top" xlink:title=" ">
<polygon fill="white" stroke="black" points="354,-235 354,-265 489,-265 489,-235 354,-235"/>
<text text-anchor="start" x="362" y="-253" font-family="Helvetica,sans-Serif" font-size="10.00">GamR::ORNL::BananaGate</text>
<text text-anchor="middle" x="421.5" y="-242" font-family="Helvetica,sans-Serif" font-size="10.00">::SetLXG</text>
</a>
</g>
</g>
<!-- Node3&#45;&gt;Node13 -->
<g id="edge13" class="edge">
<title>Node3&#45;&gt;Node13</title>
<path fill="none" stroke="midnightblue" d="M260.19,-362.41C275.93,-343.34 313.76,-300.29 354,-275 357.16,-273.01 360.51,-271.15 363.95,-269.4"/>
<polygon fill="midnightblue" stroke="midnightblue" points="365.65,-272.47 373.21,-265.05 362.67,-266.13 365.65,-272.47"/>
</g>
<!-- Node14 -->
<g id="node14" class="node">
<title>Node14</title>
<g id="a_node14"><a xlink:href="../../d1/d06/group___o_r_n_l.html#ga1c3e7b158df72bab8110d838fd1f4ea2" target="_top" xlink:title=" ">
<polygon fill="white" stroke="black" points="354,-186 354,-216 489,-216 489,-186 354,-186"/>
<text text-anchor="start" x="362" y="-204" font-family="Helvetica,sans-Serif" font-size="10.00">GamR::ORNL::BananaGate</text>
<text text-anchor="middle" x="421.5" y="-193" font-family="Helvetica,sans-Serif" font-size="10.00">::SetLYD</text>
</a>
</g>
</g>
<!-- Node3&#45;&gt;Node14 -->
<g id="edge14" class="edge">
<title>Node3&#45;&gt;Node14</title>
<path fill="none" stroke="midnightblue" d="M256.69,-362.32C268.33,-336.48 303.57,-265.25 354,-226 356.28,-224.22 358.7,-222.56 361.22,-221.01"/>
<polygon fill="midnightblue" stroke="midnightblue" points="362.99,-224.03 370.07,-216.15 359.62,-217.9 362.99,-224.03"/>
</g>
<!-- Node15 -->
<g id="node15" class="node">
<title>Node15</title>
<g id="a_node15"><a xlink:href="../../d1/d06/group___o_r_n_l.html#ga7cfce869f65b00cad1f052fbcf7b5f05" target="_top" xlink:title=" ">
<polygon fill="white" stroke="black" points="354,-137 354,-167 489,-167 489,-137 354,-137"/>
<text text-anchor="start" x="362" y="-155" font-family="Helvetica,sans-Serif" font-size="10.00">GamR::ORNL::BananaGate</text>
<text text-anchor="middle" x="421.5" y="-144" font-family="Helvetica,sans-Serif" font-size="10.00">::SetLYG</text>
</a>
</g>
</g>
<!-- Node3&#45;&gt;Node15 -->
<g id="edge15" class="edge">
<title>Node3&#45;&gt;Node15</title>
<path fill="none" stroke="midnightblue" d="M254.86,-362.35C263.02,-331.04 292.88,-231.18 354,-177 355.76,-175.44 357.63,-173.97 359.58,-172.59"/>
<polygon fill="midnightblue" stroke="midnightblue" points="361.87,-175.29 368.58,-167.09 358.22,-169.32 361.87,-175.29"/>
</g>
<!-- Node16 -->
<g id="node16" class="node">
<title>Node16</title>
<g id="a_node16"><a xlink:href="../../d1/d06/group___o_r_n_l.html#ga37d14ea365da5b9bc604b6270ce12c6c" target="_top" xlink:title=" ">
<polygon fill="white" stroke="black" points="354,-88 354,-118 489,-118 489,-88 354,-88"/>
<text text-anchor="start" x="362" y="-106" font-family="Helvetica,sans-Serif" font-size="10.00">GamR::ORNL::BananaGate</text>
<text text-anchor="middle" x="421.5" y="-95" font-family="Helvetica,sans-Serif" font-size="10.00">::SetNP</text>
</a>
</g>
</g>
<!-- Node3&#45;&gt;Node16 -->
<g id="edge16" class="edge">
<title>Node3&#45;&gt;Node16</title>
<path fill="none" stroke="midnightblue" d="M256,-362.35C271.67,-319.28 335.52,-145.85 354,-128 355.62,-126.43 357.35,-124.96 359.16,-123.58"/>
<polygon fill="midnightblue" stroke="midnightblue" points="361.11,-126.49 367.58,-118.1 357.29,-120.63 361.11,-126.49"/>
</g>
<!-- Node17 -->
<g id="node17" class="node">
<title>Node17</title>
<g id="a_node17"><a xlink:href="../../d1/d06/group___o_r_n_l.html#gae35a530867a4df87be125f2df9b27f15" target="_top" xlink:title=" ">
<polygon fill="white" stroke="black" points="354,-39 354,-69 489,-69 489,-39 354,-39"/>
<text text-anchor="start" x="362" y="-57" font-family="Helvetica,sans-Serif" font-size="10.00">GamR::ORNL::BananaGate</text>
<text text-anchor="middle" x="421.5" y="-46" font-family="Helvetica,sans-Serif" font-size="10.00">::SetNUPM</text>
</a>
</g>
</g>
<!-- Node3&#45;&gt;Node17 -->
<g id="edge17" class="edge">
<title>Node3&#45;&gt;Node17</title>
<path fill="none" stroke="midnightblue" d="M256.42,-362.27C266.96,-335.99 296.55,-261.28 318,-198 335.74,-145.67 316.23,-119.34 354,-79 355.36,-77.55 356.81,-76.18 358.34,-74.89"/>
<polygon fill="midnightblue" stroke="midnightblue" points="360.4,-77.72 366.53,-69.08 356.35,-72.01 360.4,-77.72"/>
</g>
<!-- Node3&#45;&gt;Node18 -->
<g id="edge18" class="edge">
<title>Node3&#45;&gt;Node18</title>
<path fill="none" stroke="midnightblue" d="M256.72,-362.36C267.98,-336.31 299.22,-262.12 318,-198 339.59,-124.3 301.59,-85.13 354,-29 364.91,-17.32 382.44,-12.65 396.77,-10.86"/>
<polygon fill="midnightblue" stroke="midnightblue" points="397.28,-14.33 406.94,-9.98 396.67,-7.35 397.28,-14.33"/>
</g>
<!-- Node19 -->
<g id="node19" class="node">
<title>Node19</title>
<g id="a_node19"><a xlink:href="../../dc/d89/namespace_gam_r_1_1_spect.html#ab983da62eb972889ea13491189e13913" target="_top" xlink:title=" ">
<polygon fill="white" stroke="black" points="525,-0.5 525,-19.5 663,-19.5 663,-0.5 525,-0.5"/>
<text text-anchor="middle" x="594" y="-7.5" font-family="Helvetica,sans-Serif" font-size="10.00">GamR::Spect::StackSpectra</text>
</a>
</g>
</g>
<!-- Node18&#45;&gt;Node19 -->
<g id="edge19" class="edge">
<title>Node18&#45;&gt;Node19</title>
<path fill="none" stroke="midnightblue" d="M436.16,-10C453.49,-10 484.73,-10 514.79,-10"/>
<polygon fill="midnightblue" stroke="midnightblue" points="514.92,-13.5 524.92,-10 514.92,-6.5 514.92,-13.5"/>
</g>
<!-- Node19&#45;&gt;Node19 -->
<g id="edge21" class="edge">
<title>Node19&#45;&gt;Node19</title>
<path fill="none" stroke="midnightblue" d="M567.49,-19.76C554.59,-28.57 563.43,-38 594,-38 614.54,-38 625.27,-33.74 626.19,-28.27"/>
<polygon fill="midnightblue" stroke="midnightblue" points="628.97,-26.14 620.51,-19.76 623.14,-30.02 628.97,-26.14"/>
</g>
<!-- Node20 -->
<g id="node20" class="node">
<title>Node20</title>
<g id="a_node20"><a xlink:href="../../dc/d89/namespace_gam_r_1_1_spect.html#a56e80bce5bf691212c8b7dfb76c2d2b4" target="_top" xlink:title=" ">
<polygon fill="white" stroke="black" points="699,-0.5 699,-19.5 840,-19.5 840,-0.5 699,-0.5"/>
<text text-anchor="middle" x="769.5" y="-7.5" font-family="Helvetica,sans-Serif" font-size="10.00">GamR::Spect::List1DSpectra</text>
</a>
</g>
</g>
<!-- Node19&#45;&gt;Node20 -->
<g id="edge20" class="edge">
<title>Node19&#45;&gt;Node20</title>
<path fill="none" stroke="midnightblue" d="M663.07,-10C671.53,-10 680.24,-10 688.86,-10"/>
<polygon fill="midnightblue" stroke="midnightblue" points="688.91,-13.5 698.91,-10 688.91,-6.5 688.91,-13.5"/>
</g>
</g>
</svg>
        <g id="navigator" transform="translate(0 0)" fill="#404254">
                <rect fill="#f2f5e9" fill-opacity="0.5" stroke="#606060" stroke-width=".5" x="0" y="0" width="60" height="60"/>
                <use id="zoomplus" xlink:href="#zoomPlus" x="17" y="9" onmousedown="handleZoom(evt,'in')"/>
                <use id="zoomminus" xlink:href="#zoomMin" x="42" y="9" onmousedown="handleZoom(evt,'out')"/>
                <use id="reset" xlink:href="#resetDef" x="30" y="36" onmousedown="handleReset()"/>
                <g id="arrowUp" xlink:href="#dirArrow" transform="translate(30 24)" onmousedown="handlePan(0,-1)">
                  <use xlink:href="#rim" fill="#404040">
                        <set attributeName="fill" to="#808080" begin="arrowUp.mouseover" end="arrowUp.mouseout"/>
                  </use>
                  <path fill="none" stroke="white" stroke-width="1.5" d="M0,-3.0v7 M-2.5,-0.5L0,-3.0L2.5,-0.5"/>
                </g>
                <g id="arrowRight" xlink:href="#dirArrow" transform="rotate(90) translate(36 -43)" onmousedown="handlePan(1,0)">
                  <use xlink:href="#rim" fill="#404040">
                        <set attributeName="fill" to="#808080" begin="arrowRight.mouseover" end="arrowRight.mouseout"/>
                  </use>
                  <path fill="none" stroke="white" stroke-width="1.5" d="M0,-3.0v7 M-2.5,-0.5L0,-3.0L2.5,-0.5"/>
                </g>
                <g id="arrowDown" xlink:href="#dirArrow" transform="rotate(180) translate(-30 -48)" onmousedown="handlePan(0,1)">
                  <use xlink:href="#rim" fill="#404040">
                        <set attributeName="fill" to="#808080" begin="arrowDown.mouseover" end="arrowDown.mouseout"/>
                  </use>
                  <path fill="none" stroke="white" stroke-width="1.5" d="M0,-3.0v7 M-2.5,-0.5L0,-3.0L2.5,-0.5"/>
                </g>
                <g id="arrowLeft" xlink:href="#dirArrow" transform="rotate(270) translate(-36 17)" onmousedown="handlePan(-1,0)">
                  <use xlink:href="#rim" fill="#404040">
                        <set attributeName="fill" to="#808080" begin="arrowLeft.mouseover" end="arrowLeft.mouseout"/>
                  </use>
                  <path fill="none" stroke="white" stroke-width="1.5" d="M0,-3.0v7 M-2.5,-0.5L0,-3.0L2.5,-0.5"/>
                </g>
        </g>
        <svg viewBox="0 0 15 15" width="100%" height="30px" preserveAspectRatio="xMaxYMin meet">
         <g id="arrow_out" transform="scale(0.3 0.3)">
          <a xlink:href="group___o_r_n_l_ga8dadacfbdfaeef91b856b23b906ac4e2_cgraph_org.svg" target="_base">
           <rect id="button" ry="5" rx="5" y="6" x="6" height="38" width="38"
                fill="#f2f5e9" fill-opacity="0.5" stroke="#606060" stroke-width="1.0"/>
           <path id="arrow"
             d="M 11.500037,31.436501 C 11.940474,20.09759 22.043105,11.32322 32.158766,21.979434 L 37.068811,17.246167 C 37.068811,17.246167 37.088388,32 37.088388,32 L 22.160133,31.978069 C 22.160133,31.978069 26.997745,27.140456 26.997745,27.140456 C 18.528582,18.264221 13.291696,25.230495 11.500037,31.436501 z"
             style="fill:#404040;"/>
          </a>
         </g>
        </svg>
</svg>
