<?xml version="1.0" encoding="UTF-8" standalone="no"?>
<!DOCTYPE svg PUBLIC "-//W3C//DTD SVG 1.1//EN"
 "http://www.w3.org/Graphics/SVG/1.1/DTD/svg11.dtd">
<!-- Generated by graphviz version 8.1.0 (20230707.0739)
 -->
<!-- Title: GamR::ORNL::readAllBananas Pages: 1 -->
<svg width="846pt" height="713pt"
 viewBox="0.00 0.00 845.50 712.88" xmlns="http://www.w3.org/2000/svg" xmlns:xlink="http://www.w3.org/1999/xlink">
<g id="graph0" class="graph" transform="scale(1 1) rotate(0) translate(4 708.88)">
<title>GamR::ORNL::readAllBananas</title>
<!-- Node1 -->
<g id="Node000001" class="node">
<title>Node1</title>
<g id="a_Node000001"><a xlink:title=" ">
<polygon fill="#999999" stroke="#666666" points="148.75,-187.25 0,-187.25 0,-168 148.75,-168 148.75,-187.25"/>
<text text-anchor="middle" x="74.38" y="-173.75" font-family="Helvetica,sans-Serif" font-size="10.00">GamR::ORNL::readAllBananas</text>
</a>
</g>
</g>
<!-- Node2 -->
<g id="Node000002" class="node">
<title>Node2</title>
<g id="a_Node000002"><a xlink:href="../../d1/d06/group___o_r_n_l.html#gadf516cfb4c9ea542a49beb4a7c8b3abd" target="_top" xlink:title=" ">
<polygon fill="white" stroke="#666666" points="317,-331.25 184.75,-331.25 184.75,-312 317,-312 317,-331.25"/>
<text text-anchor="middle" x="250.88" y="-317.75" font-family="Helvetica,sans-Serif" font-size="10.00">GamR::ORNL::readBanana</text>
</a>
</g>
</g>
<!-- Node1&#45;&gt;Node2 -->
<g id="edge1_Node000001_Node000002" class="edge">
<title>Node1&#45;&gt;Node2</title>
<g id="a_edge1_Node000001_Node000002"><a xlink:title=" ">
<path fill="none" stroke="#63b8ff" d="M87.37,-187.52C116.76,-211.77 192.63,-274.38 229.36,-304.69"/>
<polygon fill="#63b8ff" stroke="#63b8ff" points="226.86,-307.99 236.8,-311.66 231.31,-302.59 226.86,-307.99"/>
</a>
</g>
</g>
<!-- Node17 -->
<g id="Node000017" class="node">
<title>Node17</title>
<g id="a_Node000017"><a xlink:href="../../d0/d17/_abbreviations_8cc.html#a5d1794b612bdcca3f4f4baa3d2e38a0b" target="_top" xlink:title=" ">
<polygon fill="white" stroke="#666666" points="434.65,-19.25 405.85,-19.25 405.85,0 434.65,0 434.65,-19.25"/>
<text text-anchor="middle" x="420.25" y="-5.75" font-family="Helvetica,sans-Serif" font-size="10.00">ss</text>
</a>
</g>
</g>
<!-- Node1&#45;&gt;Node17 -->
<g id="edge20_Node000001_Node000017" class="edge">
<title>Node1&#45;&gt;Node17</title>
<g id="a_edge20_Node000001_Node000017"><a xlink:title=" ">
<path fill="none" stroke="#63b8ff" d="M91.06,-167.65C132.45,-141.68 248.6,-71.04 353,-28.62 366.63,-23.09 382.46,-18.48 395.22,-15.2"/>
<polygon fill="#63b8ff" stroke="#63b8ff" points="395.64,-18.45 404.51,-12.66 393.97,-11.65 395.64,-18.45"/>
</a>
</g>
</g>
<!-- Node3 -->
<g id="Node000003" class="node">
<title>Node3</title>
<g id="a_Node000003"><a xlink:href="../../d1/d06/group___o_r_n_l.html#ga1b8b343a02efb0d61061d6e2fc4b6745" target="_top" xlink:title=" ">
<polygon fill="white" stroke="#666666" points="487.5,-704.88 353,-704.88 353,-674.38 487.5,-674.38 487.5,-704.88"/>
<text text-anchor="start" x="361" y="-691.38" font-family="Helvetica,sans-Serif" font-size="10.00">GamR::ORNL::BananaGate</text>
<text text-anchor="middle" x="420.25" y="-680.12" font-family="Helvetica,sans-Serif" font-size="10.00">::SetDG</text>
</a>
</g>
</g>
<!-- Node2&#45;&gt;Node3 -->
<g id="edge2_Node000002_Node000003" class="edge">
<title>Node2&#45;&gt;Node3</title>
<g id="a_edge2_Node000002_Node000003"><a xlink:title=" ">
<path fill="none" stroke="#63b8ff" d="M251.78,-331.59C251.92,-376.54 258.38,-562.71 353,-664.62 353.94,-665.64 354.93,-666.61 355.95,-667.54"/>
<polygon fill="#63b8ff" stroke="#63b8ff" points="353.4,-670.75 363.49,-673.96 357.6,-665.16 353.4,-670.75"/>
</a>
</g>
</g>
<!-- Node4 -->
<g id="Node000004" class="node">
<title>Node4</title>
<g id="a_Node000004"><a xlink:href="../../d1/d06/group___o_r_n_l.html#gacd0499872badfb298bd1272f12b41f23" target="_top" xlink:title=" ">
<polygon fill="white" stroke="#666666" points="487.5,-655.88 353,-655.88 353,-625.38 487.5,-625.38 487.5,-655.88"/>
<text text-anchor="start" x="361" y="-642.38" font-family="Helvetica,sans-Serif" font-size="10.00">GamR::ORNL::BananaGate</text>
<text text-anchor="middle" x="420.25" y="-631.12" font-family="Helvetica,sans-Serif" font-size="10.00">::SetFileName</text>
</a>
</g>
</g>
<!-- Node2&#45;&gt;Node4 -->
<g id="edge3_Node000002_Node000004" class="edge">
<title>Node2&#45;&gt;Node4</title>
<g id="a_edge3_Node000002_Node000004"><a xlink:title=" ">
<path fill="none" stroke="#63b8ff" d="M252.35,-331.53C254.85,-372.41 269.72,-529.84 353,-615.62 353.99,-616.64 355.02,-617.62 356.09,-618.56"/>
<polygon fill="#63b8ff" stroke="#63b8ff" points="353.83,-621.96 363.98,-625 357.94,-616.29 353.83,-621.96"/>
</a>
</g>
</g>
<!-- Node5 -->
<g id="Node000005" class="node">
<title>Node5</title>
<g id="a_Node000005"><a xlink:href="../../d1/d06/group___o_r_n_l.html#ga828addea595481b96d3f41002826e8ba" target="_top" xlink:title=" ">
<polygon fill="white" stroke="#666666" points="487.5,-606.88 353,-606.88 353,-576.38 487.5,-576.38 487.5,-606.88"/>
<text text-anchor="start" x="361" y="-593.38" font-family="Helvetica,sans-Serif" font-size="10.00">GamR::ORNL::BananaGate</text>
<text text-anchor="middle" x="420.25" y="-582.12" font-family="Helvetica,sans-Serif" font-size="10.00">::SetIAUX</text>
</a>
</g>
</g>
<!-- Node2&#45;&gt;Node5 -->
<g id="edge4_Node000002_Node000005" class="edge">
<title>Node2&#45;&gt;Node5</title>
<g id="a_edge4_Node000002_Node000005"><a xlink:title=" ">
<path fill="none" stroke="#63b8ff" d="M253.14,-331.6C258.29,-368.23 280.99,-496.79 353,-566.62 354.16,-567.75 355.37,-568.82 356.63,-569.85"/>
<polygon fill="#63b8ff" stroke="#63b8ff" points="354.31,-573.19 364.53,-575.96 358.27,-567.41 354.31,-573.19"/>
</a>
</g>
</g>
<!-- Node6 -->
<g id="Node000006" class="node">
<title>Node6</title>
<g id="a_Node000006"><a xlink:href="../../d1/d06/group___o_r_n_l.html#ga09cadfda3190414a9bf225552e745612" target="_top" xlink:title=" ">
<polygon fill="white" stroke="#666666" points="487.5,-557.88 353,-557.88 353,-527.38 487.5,-527.38 487.5,-557.88"/>
<text text-anchor="start" x="361" y="-544.38" font-family="Helvetica,sans-Serif" font-size="10.00">GamR::ORNL::BananaGate</text>
<text text-anchor="middle" x="420.25" y="-533.12" font-family="Helvetica,sans-Serif" font-size="10.00">::SetIB</text>
</a>
</g>
</g>
<!-- Node2&#45;&gt;Node6 -->
<g id="edge5_Node000002_Node000006" class="edge">
<title>Node2&#45;&gt;Node6</title>
<g id="a_edge5_Node000002_Node000006"><a xlink:title=" ">
<path fill="none" stroke="#63b8ff" d="M254.21,-331.32C262.26,-362.78 291.81,-463.12 353,-517.62 354.39,-518.86 355.84,-520.04 357.35,-521.16"/>
<polygon fill="#63b8ff" stroke="#63b8ff" points="355.19,-524.57 365.51,-526.99 358.95,-518.67 355.19,-524.57"/>
</a>
</g>
</g>
<!-- Node7 -->
<g id="Node000007" class="node">
<title>Node7</title>
<g id="a_Node000007"><a xlink:href="../../d1/d06/group___o_r_n_l.html#ga60f97af383724875b1544ecb8281cc58" target="_top" xlink:title=" ">
<polygon fill="white" stroke="#666666" points="487.5,-508.88 353,-508.88 353,-478.38 487.5,-478.38 487.5,-508.88"/>
<text text-anchor="start" x="361" y="-495.38" font-family="Helvetica,sans-Serif" font-size="10.00">GamR::ORNL::BananaGate</text>
<text text-anchor="middle" x="420.25" y="-484.12" font-family="Helvetica,sans-Serif" font-size="10.00">::SetIH</text>
</a>
</g>
</g>
<!-- Node2&#45;&gt;Node7 -->
<g id="edge6_Node000002_Node000007" class="edge">
<title>Node2&#45;&gt;Node7</title>
<g id="a_edge6_Node000002_Node000007"><a xlink:title=" ">
<path fill="none" stroke="#63b8ff" d="M256.02,-331.37C267.56,-357.38 302.52,-429.08 353,-468.62 354.85,-470.07 356.79,-471.44 358.8,-472.74"/>
<polygon fill="#63b8ff" stroke="#63b8ff" points="356.55,-476.06 366.97,-477.97 360.02,-469.98 356.55,-476.06"/>
</a>
</g>
</g>
<!-- Node8 -->
<g id="Node000008" class="node">
<title>Node8</title>
<g id="a_Node000008"><a xlink:href="../../d1/d06/group___o_r_n_l.html#gaa4083f529683a721acdc300c1e3c3afc" target="_top" xlink:title=" ">
<polygon fill="white" stroke="#666666" points="487.5,-459.88 353,-459.88 353,-429.38 487.5,-429.38 487.5,-459.88"/>
<text text-anchor="start" x="361" y="-446.38" font-family="Helvetica,sans-Serif" font-size="10.00">GamR::ORNL::BananaGate</text>
<text text-anchor="middle" x="420.25" y="-435.12" font-family="Helvetica,sans-Serif" font-size="10.00">::SetIPX</text>
</a>
</g>
</g>
<!-- Node2&#45;&gt;Node8 -->
<g id="edge7_Node000002_Node000008" class="edge">
<title>Node2&#45;&gt;Node8</title>
<g id="a_edge7_Node000002_Node000008"><a xlink:title=" ">
<path fill="none" stroke="#63b8ff" d="M259.75,-331.61C275.53,-351.04 312.95,-394.22 353,-419.62 355.58,-421.26 358.28,-422.81 361.06,-424.29"/>
<polygon fill="#63b8ff" stroke="#63b8ff" points="359.2,-427.76 369.72,-428.98 362.26,-421.46 359.2,-427.76"/>
</a>
</g>
</g>
<!-- Node9 -->
<g id="Node000009" class="node">
<title>Node9</title>
<g id="a_Node000009"><a xlink:href="../../d1/d06/group___o_r_n_l.html#ga04f3d0b54f752fc65ed238db00d9c696" target="_top" xlink:title=" ">
<polygon fill="white" stroke="#666666" points="487.5,-410.88 353,-410.88 353,-380.38 487.5,-380.38 487.5,-410.88"/>
<text text-anchor="start" x="361" y="-397.38" font-family="Helvetica,sans-Serif" font-size="10.00">GamR::ORNL::BananaGate</text>
<text text-anchor="middle" x="420.25" y="-386.12" font-family="Helvetica,sans-Serif" font-size="10.00">::SetIPY</text>
</a>
</g>
</g>
<!-- Node2&#45;&gt;Node9 -->
<g id="edge8_Node000002_Node000009" class="edge">
<title>Node2&#45;&gt;Node9</title>
<g id="a_edge8_Node000002_Node000009"><a xlink:title=" ">
<path fill="none" stroke="#63b8ff" d="M271.4,-331.74C291.59,-342.04 324.14,-358.22 353,-370.62 357.13,-372.4 361.43,-374.18 365.77,-375.92"/>
<polygon fill="#63b8ff" stroke="#63b8ff" points="364.32,-379.51 374.9,-379.91 366.88,-372.99 364.32,-379.51"/>
</a>
</g>
</g>
<!-- Node10 -->
<g id="Node000010" class="node">
<title>Node10</title>
<g id="a_Node000010"><a xlink:href="../../d1/d06/group___o_r_n_l.html#ga400b10a64714b99aad436239aab3feb7" target="_top" xlink:title=" ">
<polygon fill="white" stroke="#666666" points="487.5,-361.88 353,-361.88 353,-331.38 487.5,-331.38 487.5,-361.88"/>
<text text-anchor="start" x="361" y="-348.38" font-family="Helvetica,sans-Serif" font-size="10.00">GamR::ORNL::BananaGate</text>
<text text-anchor="middle" x="420.25" y="-337.12" font-family="Helvetica,sans-Serif" font-size="10.00">::SetJAUX</text>
</a>
</g>
</g>
<!-- Node2&#45;&gt;Node10 -->
<g id="edge9_Node000002_Node000010" class="edge">
<title>Node2&#45;&gt;Node10</title>
<g id="a_edge9_Node000002_Node000010"><a xlink:title=" ">
<path fill="none" stroke="#63b8ff" d="M317.07,-331.36C325.17,-332.57 333.52,-333.82 341.79,-335.05"/>
<polygon fill="#63b8ff" stroke="#63b8ff" points="341.17,-338.65 351.58,-336.67 342.21,-331.73 341.17,-338.65"/>
</a>
</g>
</g>
<!-- Node11 -->
<g id="Node000011" class="node">
<title>Node11</title>
<g id="a_Node000011"><a xlink:href="../../d1/d06/group___o_r_n_l.html#ga2bef3cf9878028d6fd427101c0a537b3" target="_top" xlink:title=" ">
<polygon fill="white" stroke="#666666" points="487.5,-312.88 353,-312.88 353,-282.38 487.5,-282.38 487.5,-312.88"/>
<text text-anchor="start" x="361" y="-299.38" font-family="Helvetica,sans-Serif" font-size="10.00">GamR::ORNL::BananaGate</text>
<text text-anchor="middle" x="420.25" y="-288.12" font-family="Helvetica,sans-Serif" font-size="10.00">::SetLXD</text>
</a>
</g>
</g>
<!-- Node2&#45;&gt;Node11 -->
<g id="edge10_Node000002_Node000011" class="edge">
<title>Node2&#45;&gt;Node11</title>
<g id="a_edge10_Node000002_Node000011"><a xlink:title=" ">
<path fill="none" stroke="#63b8ff" d="M317.07,-312.28C325.17,-311.12 333.52,-309.92 341.79,-308.73"/>
<polygon fill="#63b8ff" stroke="#63b8ff" points="342.18,-312.07 351.58,-307.18 341.19,-305.14 342.18,-312.07"/>
</a>
</g>
</g>
<!-- Node12 -->
<g id="Node000012" class="node">
<title>Node12</title>
<g id="a_Node000012"><a xlink:href="../../d1/d06/group___o_r_n_l.html#gaffd868e98112f2188173e23b387e2e8e" target="_top" xlink:title=" ">
<polygon fill="white" stroke="#666666" points="487.5,-263.88 353,-263.88 353,-233.38 487.5,-233.38 487.5,-263.88"/>
<text text-anchor="start" x="361" y="-250.38" font-family="Helvetica,sans-Serif" font-size="10.00">GamR::ORNL::BananaGate</text>
<text text-anchor="middle" x="420.25" y="-239.12" font-family="Helvetica,sans-Serif" font-size="10.00">::SetLXG</text>
</a>
</g>
</g>
<!-- Node2&#45;&gt;Node12 -->
<g id="edge11_Node000002_Node000012" class="edge">
<title>Node2&#45;&gt;Node12</title>
<g id="a_edge11_Node000002_Node000012"><a xlink:title=" ">
<path fill="none" stroke="#63b8ff" d="M271.8,-311.57C292.04,-301.5 324.38,-285.79 353,-273.62 357.32,-271.79 361.82,-269.95 366.35,-268.14"/>
<polygon fill="#63b8ff" stroke="#63b8ff" points="367.24,-271.16 375.28,-264.25 364.69,-264.64 367.24,-271.16"/>
</a>
</g>
</g>
<!-- Node13 -->
<g id="Node000013" class="node">
<title>Node13</title>
<g id="a_Node000013"><a xlink:href="../../d1/d06/group___o_r_n_l.html#ga1c3e7b158df72bab8110d838fd1f4ea2" target="_top" xlink:title=" ">
<polygon fill="white" stroke="#666666" points="487.5,-214.88 353,-214.88 353,-184.38 487.5,-184.38 487.5,-214.88"/>
<text text-anchor="start" x="361" y="-201.38" font-family="Helvetica,sans-Serif" font-size="10.00">GamR::ORNL::BananaGate</text>
<text text-anchor="middle" x="420.25" y="-190.12" font-family="Helvetica,sans-Serif" font-size="10.00">::SetLYD</text>
</a>
</g>
</g>
<!-- Node2&#45;&gt;Node13 -->
<g id="edge12_Node000002_Node000013" class="edge">
<title>Node2&#45;&gt;Node13</title>
<g id="a_edge12_Node000002_Node000013"><a xlink:title=" ">
<path fill="none" stroke="#63b8ff" d="M259.77,-311.74C275.59,-292.53 313.08,-249.8 353,-224.62 355.58,-223 358.29,-221.45 361.07,-219.98"/>
<polygon fill="#63b8ff" stroke="#63b8ff" points="362.26,-222.81 369.74,-215.3 359.21,-216.5 362.26,-222.81"/>
</a>
</g>
</g>
<!-- Node14 -->
<g id="Node000014" class="node">
<title>Node14</title>
<g id="a_Node000014"><a xlink:href="../../d1/d06/group___o_r_n_l.html#ga7cfce869f65b00cad1f052fbcf7b5f05" target="_top" xlink:title=" ">
<polygon fill="white" stroke="#666666" points="487.5,-165.88 353,-165.88 353,-135.38 487.5,-135.38 487.5,-165.88"/>
<text text-anchor="start" x="361" y="-152.38" font-family="Helvetica,sans-Serif" font-size="10.00">GamR::ORNL::BananaGate</text>
<text text-anchor="middle" x="420.25" y="-141.12" font-family="Helvetica,sans-Serif" font-size="10.00">::SetLYG</text>
</a>
</g>
</g>
<!-- Node2&#45;&gt;Node14 -->
<g id="edge13_Node000002_Node000014" class="edge">
<title>Node2&#45;&gt;Node14</title>
<g id="a_edge13_Node000002_Node000014"><a xlink:title=" ">
<path fill="none" stroke="#63b8ff" d="M256.21,-311.57C267.96,-285.43 302.94,-214.72 353,-175.62 354.85,-174.18 356.79,-172.81 358.8,-171.52"/>
<polygon fill="#63b8ff" stroke="#63b8ff" points="360.02,-174.28 366.99,-166.3 356.56,-168.2 360.02,-174.28"/>
</a>
</g>
</g>
<!-- Node15 -->
<g id="Node000015" class="node">
<title>Node15</title>
<g id="a_Node000015"><a xlink:href="../../d1/d06/group___o_r_n_l.html#ga37d14ea365da5b9bc604b6270ce12c6c" target="_top" xlink:title=" ">
<polygon fill="white" stroke="#666666" points="487.5,-116.88 353,-116.88 353,-86.38 487.5,-86.38 487.5,-116.88"/>
<text text-anchor="start" x="361" y="-103.38" font-family="Helvetica,sans-Serif" font-size="10.00">GamR::ORNL::BananaGate</text>
<text text-anchor="middle" x="420.25" y="-92.12" font-family="Helvetica,sans-Serif" font-size="10.00">::SetNP</text>
</a>
</g>
</g>
<!-- Node2&#45;&gt;Node15 -->
<g id="edge14_Node000002_Node000015" class="edge">
<title>Node2&#45;&gt;Node15</title>
<g id="a_edge14_Node000002_Node000015"><a xlink:title=" ">
<path fill="none" stroke="#63b8ff" d="M255.84,-311.84C270.44,-276.23 321.93,-154.24 353,-126.62 354.39,-125.39 355.85,-124.21 357.36,-123.09"/>
<polygon fill="#63b8ff" stroke="#63b8ff" points="358.96,-125.59 365.52,-117.27 355.2,-119.68 358.96,-125.59"/>
</a>
</g>
</g>
<!-- Node16 -->
<g id="Node000016" class="node">
<title>Node16</title>
<g id="a_Node000016"><a xlink:href="../../d1/d06/group___o_r_n_l.html#gae35a530867a4df87be125f2df9b27f15" target="_top" xlink:title=" ">
<polygon fill="white" stroke="#666666" points="487.5,-67.88 353,-67.88 353,-37.38 487.5,-37.38 487.5,-67.88"/>
<text text-anchor="start" x="361" y="-54.38" font-family="Helvetica,sans-Serif" font-size="10.00">GamR::ORNL::BananaGate</text>
<text text-anchor="middle" x="420.25" y="-43.12" font-family="Helvetica,sans-Serif" font-size="10.00">::SetNUPM</text>
</a>
</g>
</g>
<!-- Node2&#45;&gt;Node16 -->
<g id="edge15_Node000002_Node000016" class="edge">
<title>Node2&#45;&gt;Node16</title>
<g id="a_edge15_Node000002_Node000016"><a xlink:title=" ">
<path fill="none" stroke="#63b8ff" d="M256.47,-311.58C267.37,-287.67 295.47,-225.43 317,-172.62 334.05,-130.81 321.05,-109.53 353,-77.62 354,-76.62 355.05,-75.66 356.14,-74.74"/>
<polygon fill="#63b8ff" stroke="#63b8ff" points="357.97,-77.01 364.1,-68.37 353.92,-71.31 357.97,-77.01"/>
</a>
</g>
</g>
<!-- Node2&#45;&gt;Node17 -->
<g id="edge16_Node000002_Node000017" class="edge">
<title>Node2&#45;&gt;Node17</title>
<g id="a_edge16_Node000002_Node000017"><a xlink:title=" ">
<path fill="none" stroke="#63b8ff" d="M256.89,-311.74C268.69,-288.17 298.6,-226.6 317,-172.62 338.28,-110.18 307.16,-76.07 353,-28.62 363.78,-17.47 380.64,-12.74 394.66,-10.79"/>
<polygon fill="#63b8ff" stroke="#63b8ff" points="394.95,-14.18 404.56,-9.72 394.27,-7.21 394.95,-14.18"/>
</a>
</g>
</g>
<!-- Node18 -->
<g id="Node000018" class="node">
<title>Node18</title>
<g id="a_Node000018"><a xlink:href="../../dc/d89/namespace_gam_r_1_1_spect.html#ab983da62eb972889ea13491189e13913" target="_top" xlink:title=" ">
<polygon fill="white" stroke="#666666" points="661,-19.25 523.5,-19.25 523.5,0 661,0 661,-19.25"/>
<text text-anchor="middle" x="592.25" y="-5.75" font-family="Helvetica,sans-Serif" font-size="10.00">GamR::Spect::StackSpectra</text>
</a>
</g>
</g>
<!-- Node17&#45;&gt;Node18 -->
<g id="edge17_Node000017_Node000018" class="edge">
<title>Node17&#45;&gt;Node18</title>
<g id="a_edge17_Node000017_Node000018"><a xlink:title=" ">
<path fill="none" stroke="#63b8ff" d="M434.87,-9.62C452,-9.62 482.75,-9.62 512.49,-9.62"/>
<polygon fill="#63b8ff" stroke="#63b8ff" points="512.37,-13.13 522.37,-9.62 512.37,-6.13 512.37,-13.13"/>
</a>
</g>
</g>
<!-- Node18&#45;&gt;Node18 -->
<g id="edge19_Node000018_Node000018" class="edge">
<title>Node18&#45;&gt;Node18</title>
<g id="a_edge19_Node000018_Node000018"><a xlink:title=" ">
<path fill="none" stroke="#63b8ff" d="M565.32,-19.54C553.04,-28.15 562.02,-37.25 592.25,-37.25 610.67,-37.25 621.2,-33.87 623.84,-29.28"/>
<polygon fill="#63b8ff" stroke="#63b8ff" points="626.65,-28.05 619.18,-20.54 620.34,-31.07 626.65,-28.05"/>
</a>
</g>
</g>
<!-- Node19 -->
<g id="Node000019" class="node">
<title>Node19</title>
<g id="a_Node000019"><a xlink:href="../../dc/d89/namespace_gam_r_1_1_spect.html#a56e80bce5bf691212c8b7dfb76c2d2b4" target="_top" xlink:title=" ">
<polygon fill="white" stroke="#666666" points="837.5,-19.25 697,-19.25 697,0 837.5,0 837.5,-19.25"/>
<text text-anchor="middle" x="767.25" y="-5.75" font-family="Helvetica,sans-Serif" font-size="10.00">GamR::Spect::List1DSpectra</text>
</a>
</g>
</g>
<!-- Node18&#45;&gt;Node19 -->
<g id="edge18_Node000018_Node000019" class="edge">
<title>Node18&#45;&gt;Node19</title>
<g id="a_edge18_Node000018_Node000019"><a xlink:title=" ">
<path fill="none" stroke="#63b8ff" d="M661.13,-9.62C669.22,-9.62 677.55,-9.62 685.8,-9.62"/>
<polygon fill="#63b8ff" stroke="#63b8ff" points="685.58,-13.13 695.58,-9.62 685.58,-6.13 685.58,-13.13"/>
</a>
</g>
</g>
</g>
</svg>
