<?xml version="1.0" encoding="UTF-8" standalone="no"?>
<!DOCTYPE svg PUBLIC "-//W3C//DTD SVG 1.1//EN"
 "http://www.w3.org/Graphics/SVG/1.1/DTD/svg11.dtd">
<!-- Generated by graphviz version 6.0.2 (20221011.1828)
 -->
<!-- Title: src/lib/coulex/CoulexCalculation.hh Pages: 1 -->
<svg width="921pt" height="302pt"
 viewBox="0.00 0.00 921.19 302.00" xmlns="http://www.w3.org/2000/svg" xmlns:xlink="http://www.w3.org/1999/xlink">
<g id="graph0" class="graph" transform="scale(1 1) rotate(0) translate(4 298)">
<title>src/lib/coulex/CoulexCalculation.hh</title>
<!-- Node1 -->
<g id="node1" class="node">
<title>Node1</title>
<g id="a_node1"><a xlink:title=" ">
<polygon fill="#999999" stroke="#666666" points="424.69,-294 257.69,-294 257.69,-275 424.69,-275 424.69,-294"/>
<text text-anchor="middle" x="341.19" y="-282" font-family="Helvetica,sans-Serif" font-size="10.00">src/lib/coulex/CoulexCalculation.hh</text>
</a>
</g>
</g>
<!-- Node2 -->
<g id="node2" class="node">
<title>Node2</title>
<g id="a_node2"><a xlink:title=" ">
<polygon fill="#e0e0e0" stroke="#999999" points="66.19,-129 12.19,-129 12.19,-110 66.19,-110 66.19,-129"/>
<text text-anchor="middle" x="39.19" y="-117" font-family="Helvetica,sans-Serif" font-size="10.00">iostream</text>
</a>
</g>
</g>
<!-- Node1&#45;&gt;Node2 -->
<g id="edge1" class="edge">
<title>Node1&#45;&gt;Node2</title>
<path fill="none" stroke="#63b8ff" d="M257.63,-276.62C213.21,-270.66 158.55,-259.58 113.19,-239 76.84,-222.51 60.6,-219.42 42.19,-184 35.1,-170.37 34.84,-152.78 36.07,-139.58"/>
<polygon fill="#63b8ff" stroke="#63b8ff" points="39.59,-139.67 37.4,-129.31 32.64,-138.77 39.59,-139.67"/>
</g>
<!-- Node3 -->
<g id="node3" class="node">
<title>Node3</title>
<g id="a_node3"><a xlink:title=" ">
<polygon fill="#e0e0e0" stroke="#999999" points="242.19,-129 192.19,-129 192.19,-110 242.19,-110 242.19,-129"/>
<text text-anchor="middle" x="217.19" y="-117" font-family="Helvetica,sans-Serif" font-size="10.00">fstream</text>
</a>
</g>
</g>
<!-- Node1&#45;&gt;Node3 -->
<g id="edge2" class="edge">
<title>Node1&#45;&gt;Node3</title>
<path fill="none" stroke="#63b8ff" d="M305.77,-274.91C264.06,-262.65 196.83,-235.67 168.19,-184 158.13,-165.85 176.39,-147.31 193.4,-134.99"/>
<polygon fill="#63b8ff" stroke="#63b8ff" points="195.71,-137.65 202.03,-129.15 191.79,-131.86 195.71,-137.65"/>
</g>
<!-- Node4 -->
<g id="node4" class="node">
<title>Node4</title>
<g id="a_node4"><a xlink:title=" ">
<polygon fill="#e0e0e0" stroke="#999999" points="242.19,-74 198.19,-74 198.19,-55 242.19,-55 242.19,-74"/>
<text text-anchor="middle" x="220.19" y="-62" font-family="Helvetica,sans-Serif" font-size="10.00">cmath</text>
</a>
</g>
</g>
<!-- Node1&#45;&gt;Node4 -->
<g id="edge3" class="edge">
<title>Node1&#45;&gt;Node4</title>
<path fill="none" stroke="#63b8ff" d="M257.44,-277.03C189.62,-270.47 100.53,-258.48 70.19,-239 22.02,-208.08 17.33,-184.47 3.19,-129 1.1,-120.82 -2.15,-116.54 3.19,-110 26.09,-81.92 132.85,-71.07 187.61,-67.3"/>
<polygon fill="#63b8ff" stroke="#63b8ff" points="188.08,-70.77 197.83,-66.63 187.62,-63.79 188.08,-70.77"/>
</g>
<!-- Node5 -->
<g id="node5" class="node">
<title>Node5</title>
<g id="a_node5"><a xlink:title=" ">
<polygon fill="#e0e0e0" stroke="#999999" points="666.19,-19 622.19,-19 622.19,0 666.19,0 666.19,-19"/>
<text text-anchor="middle" x="644.19" y="-7" font-family="Helvetica,sans-Serif" font-size="10.00">vector</text>
</a>
</g>
</g>
<!-- Node1&#45;&gt;Node5 -->
<g id="edge4" class="edge">
<title>Node1&#45;&gt;Node5</title>
<path fill="none" stroke="#63b8ff" d="M424.86,-282.92C513.16,-280.46 655.69,-271.22 774.19,-239 839.73,-221.18 913.19,-243.42 913.19,-175.5 913.19,-175.5 913.19,-175.5 913.19,-118.5 913.19,-85.15 900.71,-73.84 873.19,-55 841.56,-33.35 731.49,-19.38 676.28,-13.58"/>
<polygon fill="#63b8ff" stroke="#63b8ff" points="676.63,-10.1 666.33,-12.56 675.92,-17.06 676.63,-10.1"/>
</g>
<!-- Node6 -->
<g id="node6" class="node">
<title>Node6</title>
<g id="a_node6"><a xlink:title=" ">
<polygon fill="#e0e0e0" stroke="#999999" points="212.69,-184 177.69,-184 177.69,-165 212.69,-165 212.69,-184"/>
<text text-anchor="middle" x="195.19" y="-172" font-family="Helvetica,sans-Serif" font-size="10.00">map</text>
</a>
</g>
</g>
<!-- Node1&#45;&gt;Node6 -->
<g id="edge5" class="edge">
<title>Node1&#45;&gt;Node6</title>
<path fill="none" stroke="#63b8ff" d="M329.49,-274.84C304.61,-256.44 246.2,-213.23 215.25,-190.34"/>
<polygon fill="#63b8ff" stroke="#63b8ff" points="217.07,-187.33 206.95,-184.2 212.91,-192.96 217.07,-187.33"/>
</g>
<!-- Node7 -->
<g id="node7" class="node">
<title>Node7</title>
<g id="a_node7"><a xlink:title=" ">
<polygon fill="#e0e0e0" stroke="#999999" points="494.69,-129 453.69,-129 453.69,-110 494.69,-110 494.69,-129"/>
<text text-anchor="middle" x="474.19" y="-117" font-family="Helvetica,sans-Serif" font-size="10.00">string</text>
</a>
</g>
</g>
<!-- Node1&#45;&gt;Node7 -->
<g id="edge6" class="edge">
<title>Node1&#45;&gt;Node7</title>
<path fill="none" stroke="#63b8ff" d="M396.56,-274.99C481.97,-260.61 639.44,-228.63 672.19,-184 677.19,-177.19 677.47,-171.59 672.19,-165 661.74,-151.94 557.82,-133.77 504.87,-125.25"/>
<polygon fill="#63b8ff" stroke="#63b8ff" points="505.13,-121.75 494.7,-123.64 504.03,-128.66 505.13,-121.75"/>
</g>
<!-- Node8 -->
<g id="node8" class="node">
<title>Node8</title>
<g id="a_node8"><a xlink:title=" ">
<polygon fill="#e0e0e0" stroke="#999999" points="846.69,-74 793.69,-74 793.69,-55 846.69,-55 846.69,-74"/>
<text text-anchor="middle" x="820.19" y="-62" font-family="Helvetica,sans-Serif" font-size="10.00">complex</text>
</a>
</g>
</g>
<!-- Node1&#45;&gt;Node8 -->
<g id="edge7" class="edge">
<title>Node1&#45;&gt;Node8</title>
<path fill="none" stroke="#63b8ff" d="M424.71,-283.77C505.15,-281.76 629.28,-272.68 731.19,-239 777.51,-223.69 801.82,-226.27 826.19,-184 844.3,-152.6 834.68,-108.38 826.89,-83.8"/>
<polygon fill="#63b8ff" stroke="#63b8ff" points="830.19,-82.62 823.65,-74.28 823.56,-84.88 830.19,-82.62"/>
</g>
<!-- Node9 -->
<g id="node9" class="node">
<title>Node9</title>
<g id="a_node9"><a xlink:title=" ">
<polygon fill="#e0e0e0" stroke="#999999" points="283.19,-184 231.19,-184 231.19,-165 283.19,-165 283.19,-184"/>
<text text-anchor="middle" x="257.19" y="-172" font-family="Helvetica,sans-Serif" font-size="10.00">TMath.h</text>
</a>
</g>
</g>
<!-- Node1&#45;&gt;Node9 -->
<g id="edge8" class="edge">
<title>Node1&#45;&gt;Node9</title>
<path fill="none" stroke="#63b8ff" d="M334.32,-274.66C320.28,-256.61 288.13,-215.28 270.08,-192.08"/>
<polygon fill="#63b8ff" stroke="#63b8ff" points="272.83,-189.9 263.92,-184.16 267.3,-194.2 272.83,-189.9"/>
</g>
<!-- Node10 -->
<g id="node10" class="node">
<title>Node10</title>
<g id="a_node10"><a xlink:href="../../df/d32/_misc_8hh.html" target="_top" xlink:title=" ">
<polygon fill="white" stroke="#666666" points="381.19,-184 301.19,-184 301.19,-165 381.19,-165 381.19,-184"/>
<text text-anchor="middle" x="341.19" y="-172" font-family="Helvetica,sans-Serif" font-size="10.00">toolkit/Misc.hh</text>
</a>
</g>
</g>
<!-- Node1&#45;&gt;Node10 -->
<g id="edge9" class="edge">
<title>Node1&#45;&gt;Node10</title>
<path fill="none" stroke="#63b8ff" d="M341.19,-274.66C341.19,-257.17 341.19,-217.8 341.19,-194.27"/>
<polygon fill="#63b8ff" stroke="#63b8ff" points="344.69,-194.16 341.19,-184.16 337.69,-194.16 344.69,-194.16"/>
</g>
<!-- Node11 -->
<g id="node11" class="node">
<title>Node11</title>
<g id="a_node11"><a xlink:href="../../da/da2/_ang_dist_8hh.html" target="_top" xlink:title=" ">
<polygon fill="white" stroke="#666666" points="817.19,-184 719.19,-184 719.19,-165 817.19,-165 817.19,-184"/>
<text text-anchor="middle" x="768.19" y="-172" font-family="Helvetica,sans-Serif" font-size="10.00">angdist/AngDist.hh</text>
</a>
</g>
</g>
<!-- Node1&#45;&gt;Node11 -->
<g id="edge10" class="edge">
<title>Node1&#45;&gt;Node11</title>
<path fill="none" stroke="#63b8ff" d="M424.86,-279.61C516.67,-274.23 657.38,-262.42 705.19,-239 726.67,-228.48 745.11,-207.63 756.39,-192.69"/>
<polygon fill="#63b8ff" stroke="#63b8ff" points="759.44,-194.45 762.45,-184.3 753.76,-190.35 759.44,-194.45"/>
</g>
<!-- Node16 -->
<g id="node16" class="node">
<title>Node16</title>
<g id="a_node16"><a xlink:href="../../d5/d35/_eloss_8hh.html" target="_top" xlink:title=" ">
<polygon fill="white" stroke="#666666" points="120.69,-184 67.69,-184 67.69,-165 120.69,-165 120.69,-184"/>
<text text-anchor="middle" x="94.19" y="-172" font-family="Helvetica,sans-Serif" font-size="10.00">Eloss.hh</text>
</a>
</g>
</g>
<!-- Node1&#45;&gt;Node16 -->
<g id="edge24" class="edge">
<title>Node1&#45;&gt;Node16</title>
<path fill="none" stroke="#63b8ff" d="M257.61,-280.12C217.64,-275.03 170.85,-263.66 135.19,-239 119.04,-227.83 107.76,-208.01 101.17,-193.48"/>
<polygon fill="#63b8ff" stroke="#63b8ff" points="104.31,-191.9 97.21,-184.03 97.85,-194.61 104.31,-191.9"/>
</g>
<!-- Node18 -->
<g id="node18" class="node">
<title>Node18</title>
<g id="a_node18"><a xlink:href="../../db/d0f/_w_d_b_subs_8hh.html" target="_top" xlink:title=" ">
<polygon fill="white" stroke="#666666" points="663.19,-184 589.19,-184 589.19,-165 663.19,-165 663.19,-184"/>
<text text-anchor="middle" x="626.19" y="-172" font-family="Helvetica,sans-Serif" font-size="10.00">WDBSubs.hh</text>
</a>
</g>
</g>
<!-- Node1&#45;&gt;Node18 -->
<g id="edge30" class="edge">
<title>Node1&#45;&gt;Node18</title>
<path fill="none" stroke="#63b8ff" d="M364.03,-274.84C414.6,-255.68 536.13,-209.63 594.22,-187.62"/>
<polygon fill="#63b8ff" stroke="#63b8ff" points="595.53,-190.86 603.64,-184.05 593.04,-184.32 595.53,-190.86"/>
</g>
<!-- Node19 -->
<g id="node19" class="node">
<title>Node19</title>
<g id="a_node19"><a xlink:href="../../df/d7f/_coulex_8hh.html" target="_top" xlink:title=" ">
<polygon fill="white" stroke="#666666" points="438.69,-239 379.69,-239 379.69,-220 438.69,-220 438.69,-239"/>
<text text-anchor="middle" x="409.19" y="-227" font-family="Helvetica,sans-Serif" font-size="10.00">Coulex.hh</text>
</a>
</g>
</g>
<!-- Node1&#45;&gt;Node19 -->
<g id="edge31" class="edge">
<title>Node1&#45;&gt;Node19</title>
<path fill="none" stroke="#63b8ff" d="M352.12,-274.98C362.27,-267.07 377.61,-255.11 389.84,-245.58"/>
<polygon fill="#63b8ff" stroke="#63b8ff" points="392.33,-248.08 398.07,-239.17 388.03,-242.56 392.33,-248.08"/>
</g>
<!-- Node11&#45;&gt;Node5 -->
<g id="edge11" class="edge">
<title>Node11&#45;&gt;Node5</title>
<path fill="none" stroke="#63b8ff" d="M783.13,-164.98C815.89,-145.23 888.66,-94.99 856.19,-55 833.91,-27.56 730.05,-16.42 676.43,-12.44"/>
<polygon fill="#63b8ff" stroke="#63b8ff" points="676.63,-8.95 666.41,-11.74 676.14,-15.93 676.63,-8.95"/>
</g>
<!-- Node11&#45;&gt;Node8 -->
<g id="edge12" class="edge">
<title>Node11&#45;&gt;Node8</title>
<path fill="none" stroke="#63b8ff" d="M772.45,-164.66C780.98,-146.93 800.34,-106.73 811.61,-83.32"/>
<polygon fill="#63b8ff" stroke="#63b8ff" points="814.84,-84.69 816.02,-74.16 808.53,-81.65 814.84,-84.69"/>
</g>
<!-- Node12 -->
<g id="node12" class="node">
<title>Node12</title>
<g id="a_node12"><a xlink:title=" ">
<polygon fill="#e0e0e0" stroke="#999999" points="775.69,-74 716.69,-74 716.69,-55 775.69,-55 775.69,-74"/>
<text text-anchor="middle" x="746.19" y="-62" font-family="Helvetica,sans-Serif" font-size="10.00">functional</text>
</a>
</g>
</g>
<!-- Node11&#45;&gt;Node12 -->
<g id="edge13" class="edge">
<title>Node11&#45;&gt;Node12</title>
<path fill="none" stroke="#63b8ff" d="M766.39,-164.66C762.83,-147.17 754.81,-107.8 750.01,-84.27"/>
<polygon fill="#63b8ff" stroke="#63b8ff" points="753.38,-83.26 747.95,-74.16 746.52,-84.66 753.38,-83.26"/>
</g>
<!-- Node13 -->
<g id="node13" class="node">
<title>Node13</title>
<g id="a_node13"><a xlink:href="../../de/dcb/_solid_attenuation_8hh.html" target="_top" xlink:title=" ">
<polygon fill="white" stroke="#666666" points="521.69,-74 420.69,-74 420.69,-55 521.69,-55 521.69,-74"/>
<text text-anchor="middle" x="471.19" y="-62" font-family="Helvetica,sans-Serif" font-size="10.00">SolidAttenuation.hh</text>
</a>
</g>
</g>
<!-- Node11&#45;&gt;Node13 -->
<g id="edge14" class="edge">
<title>Node11&#45;&gt;Node13</title>
<path fill="none" stroke="#63b8ff" d="M718.96,-165.82C680.55,-158.87 626.31,-146.95 581.19,-129 548.2,-115.88 513.2,-94.15 491.76,-79.82"/>
<polygon fill="#63b8ff" stroke="#63b8ff" points="493.69,-76.9 483.45,-74.18 489.76,-82.7 493.69,-76.9"/>
</g>
<!-- Node14 -->
<g id="node14" class="node">
<title>Node14</title>
<g id="a_node14"><a xlink:href="../../da/da6/_stat_tensor_8hh.html" target="_top" xlink:title=" ">
<polygon fill="white" stroke="#666666" points="666.69,-129 589.69,-129 589.69,-110 666.69,-110 666.69,-129"/>
<text text-anchor="middle" x="628.19" y="-117" font-family="Helvetica,sans-Serif" font-size="10.00">StatTensor.hh</text>
</a>
</g>
</g>
<!-- Node11&#45;&gt;Node14 -->
<g id="edge16" class="edge">
<title>Node11&#45;&gt;Node14</title>
<path fill="none" stroke="#63b8ff" d="M745.7,-164.98C722.67,-156.27 686.65,-142.63 660.56,-132.75"/>
<polygon fill="#63b8ff" stroke="#63b8ff" points="661.68,-129.44 651.09,-129.17 659.21,-135.98 661.68,-129.44"/>
</g>
<!-- Node13&#45;&gt;Node5 -->
<g id="edge15" class="edge">
<title>Node13&#45;&gt;Node5</title>
<path fill="none" stroke="#63b8ff" d="M498.99,-54.98C529.84,-45.53 579.56,-30.3 612.06,-20.34"/>
<polygon fill="#63b8ff" stroke="#63b8ff" points="613.43,-23.59 621.96,-17.31 611.38,-16.89 613.43,-23.59"/>
</g>
<!-- Node14&#45;&gt;Node4 -->
<g id="edge17" class="edge">
<title>Node14&#45;&gt;Node4</title>
<path fill="none" stroke="#63b8ff" d="M589.44,-113.47C509.43,-103.07 327.25,-79.41 252.8,-69.74"/>
<polygon fill="#63b8ff" stroke="#63b8ff" points="252.99,-66.23 242.63,-68.41 252.09,-73.17 252.99,-66.23"/>
</g>
<!-- Node14&#45;&gt;Node5 -->
<g id="edge19" class="edge">
<title>Node14&#45;&gt;Node5</title>
<path fill="none" stroke="#63b8ff" d="M640.12,-109.8C650.02,-101.77 663.38,-88.87 669.19,-74 675.36,-58.19 666.8,-40.19 658.06,-27.41"/>
<polygon fill="#63b8ff" stroke="#63b8ff" points="660.66,-25.04 651.88,-19.12 655.05,-29.23 660.66,-25.04"/>
</g>
<!-- Node14&#45;&gt;Node8 -->
<g id="edge18" class="edge">
<title>Node14&#45;&gt;Node8</title>
<path fill="none" stroke="#63b8ff" d="M659.04,-109.98C693.05,-100.6 747.71,-85.51 783.79,-75.55"/>
<polygon fill="#63b8ff" stroke="#63b8ff" points="784.74,-78.92 793.44,-72.88 782.87,-72.17 784.74,-78.92"/>
</g>
<!-- Node14&#45;&gt;Node12 -->
<g id="edge20" class="edge">
<title>Node14&#45;&gt;Node12</title>
<path fill="none" stroke="#63b8ff" d="M647.15,-109.98C666.22,-101.42 695.85,-88.11 717.74,-78.28"/>
<polygon fill="#63b8ff" stroke="#63b8ff" points="719.2,-81.46 726.89,-74.17 716.33,-75.07 719.2,-81.46"/>
</g>
<!-- Node14&#45;&gt;Node13 -->
<g id="edge23" class="edge">
<title>Node14&#45;&gt;Node13</title>
<path fill="none" stroke="#63b8ff" d="M602.97,-109.98C576.84,-101.16 535.79,-87.31 506.46,-77.41"/>
<polygon fill="#63b8ff" stroke="#63b8ff" points="507.21,-73.96 496.61,-74.08 504.97,-80.6 507.21,-73.96"/>
</g>
<!-- Node15 -->
<g id="node15" class="node">
<title>Node15</title>
<g id="a_node15"><a xlink:href="../../d0/d3d/_population_parameter_8hh.html" target="_top" xlink:title=" ">
<polygon fill="white" stroke="#666666" points="660.19,-74 540.19,-74 540.19,-55 660.19,-55 660.19,-74"/>
<text text-anchor="middle" x="600.19" y="-62" font-family="Helvetica,sans-Serif" font-size="10.00">PopulationParameter.hh</text>
</a>
</g>
</g>
<!-- Node14&#45;&gt;Node15 -->
<g id="edge21" class="edge">
<title>Node14&#45;&gt;Node15</title>
<path fill="none" stroke="#63b8ff" d="M623.57,-109.75C619.73,-102.49 614.17,-91.95 609.43,-82.98"/>
<polygon fill="#63b8ff" stroke="#63b8ff" points="612.49,-81.3 604.73,-74.09 606.3,-84.57 612.49,-81.3"/>
</g>
<!-- Node15&#45;&gt;Node5 -->
<g id="edge22" class="edge">
<title>Node15&#45;&gt;Node5</title>
<path fill="none" stroke="#63b8ff" d="M607.46,-54.75C613.74,-47.18 622.98,-36.05 630.62,-26.84"/>
<polygon fill="#63b8ff" stroke="#63b8ff" points="633.37,-29.02 637.06,-19.09 627.98,-24.55 633.37,-29.02"/>
</g>
<!-- Node16&#45;&gt;Node2 -->
<g id="edge25" class="edge">
<title>Node16&#45;&gt;Node2</title>
<path fill="none" stroke="#63b8ff" d="M85.11,-164.75C77.1,-157.03 65.23,-145.6 55.57,-136.28"/>
<polygon fill="#63b8ff" stroke="#63b8ff" points="57.73,-133.51 48.1,-129.09 52.88,-138.55 57.73,-133.51"/>
</g>
<!-- Node16&#45;&gt;Node3 -->
<g id="edge27" class="edge">
<title>Node16&#45;&gt;Node3</title>
<path fill="none" stroke="#63b8ff" d="M113.95,-164.98C133.92,-156.38 164.99,-142.99 187.84,-133.15"/>
<polygon fill="#63b8ff" stroke="#63b8ff" points="189.27,-136.34 197.07,-129.17 186.5,-129.91 189.27,-136.34"/>
</g>
<!-- Node16&#45;&gt;Node4 -->
<g id="edge28" class="edge">
<title>Node16&#45;&gt;Node4</title>
<path fill="none" stroke="#63b8ff" d="M94.49,-164.99C95.4,-151.65 99.01,-125.73 113.19,-110 132.67,-88.39 164.28,-77 188.11,-71.17"/>
<polygon fill="#63b8ff" stroke="#63b8ff" points="189.11,-74.53 198.11,-68.94 187.58,-67.7 189.11,-74.53"/>
</g>
<!-- Node16&#45;&gt;Node7 -->
<g id="edge26" class="edge">
<title>Node16&#45;&gt;Node7</title>
<path fill="none" stroke="#63b8ff" d="M120.91,-169.77C189.34,-160.23 370.63,-134.94 443.36,-124.8"/>
<polygon fill="#63b8ff" stroke="#63b8ff" points="443.85,-128.27 453.28,-123.42 442.89,-121.33 443.85,-128.27"/>
</g>
<!-- Node17 -->
<g id="node17" class="node">
<title>Node17</title>
<g id="a_node17"><a xlink:title=" ">
<polygon fill="#e0e0e0" stroke="#999999" points="174.19,-129 122.19,-129 122.19,-110 174.19,-110 174.19,-129"/>
<text text-anchor="middle" x="148.19" y="-117" font-family="Helvetica,sans-Serif" font-size="10.00">sstream</text>
</a>
</g>
</g>
<!-- Node16&#45;&gt;Node17 -->
<g id="edge29" class="edge">
<title>Node16&#45;&gt;Node17</title>
<path fill="none" stroke="#63b8ff" d="M103.11,-164.75C110.97,-157.03 122.62,-145.6 132.11,-136.28"/>
<polygon fill="#63b8ff" stroke="#63b8ff" points="134.75,-138.59 139.44,-129.09 129.85,-133.6 134.75,-138.59"/>
</g>
<!-- Node19&#45;&gt;Node2 -->
<g id="edge32" class="edge">
<title>Node19&#45;&gt;Node2</title>
<path fill="none" stroke="#63b8ff" d="M379.5,-228.75C303.84,-228.78 106.4,-224.86 58.19,-184 45.31,-173.08 40.95,-153.81 39.58,-139.35"/>
<polygon fill="#63b8ff" stroke="#63b8ff" points="43.06,-138.84 39.01,-129.04 36.07,-139.22 43.06,-138.84"/>
</g>
<!-- Node19&#45;&gt;Node3 -->
<g id="edge33" class="edge">
<title>Node19&#45;&gt;Node3</title>
<path fill="none" stroke="#63b8ff" d="M409.15,-219.74C408.59,-206.06 405.45,-179.68 390.19,-165 353.11,-129.33 291.43,-121.21 252.61,-119.9"/>
<polygon fill="#63b8ff" stroke="#63b8ff" points="252.38,-116.4 242.31,-119.7 252.24,-123.4 252.38,-116.4"/>
</g>
<!-- Node19&#45;&gt;Node4 -->
<g id="edge34" class="edge">
<title>Node19&#45;&gt;Node4</title>
<path fill="none" stroke="#63b8ff" d="M411.79,-219.96C415.19,-207.03 419.56,-182.18 409.19,-165 375.04,-108.42 296.84,-82.4 252.48,-71.81"/>
<polygon fill="#63b8ff" stroke="#63b8ff" points="253.02,-68.34 242.5,-69.55 251.48,-75.17 253.02,-68.34"/>
</g>
<!-- Node19&#45;&gt;Node5 -->
<g id="edge35" class="edge">
<title>Node19&#45;&gt;Node5</title>
<path fill="none" stroke="#63b8ff" d="M425.62,-219.94C459.96,-200.9 533.77,-153.34 504.19,-110 477.33,-70.65 381.84,-91.72 412.19,-55 437.15,-24.79 554.13,-14.89 611.84,-11.81"/>
<polygon fill="#63b8ff" stroke="#63b8ff" points="612.07,-15.3 621.89,-11.31 611.72,-8.31 612.07,-15.3"/>
</g>
<!-- Node19&#45;&gt;Node6 -->
<g id="edge36" class="edge">
<title>Node19&#45;&gt;Node6</title>
<path fill="none" stroke="#63b8ff" d="M379.55,-222.13C344.42,-214.44 283.91,-200.71 222.68,-183.97"/>
<polygon fill="#63b8ff" stroke="#63b8ff" points="223.43,-180.55 212.86,-181.26 221.56,-187.29 223.43,-180.55"/>
</g>
<!-- Node19&#45;&gt;Node7 -->
<g id="edge37" class="edge">
<title>Node19&#45;&gt;Node7</title>
<path fill="none" stroke="#63b8ff" d="M423.9,-219.83C435.84,-211.99 452.14,-199.36 461.19,-184 469.14,-170.5 472.29,-152.91 473.51,-139.66"/>
<polygon fill="#63b8ff" stroke="#63b8ff" points="477.02,-139.55 474.15,-129.35 470.03,-139.11 477.02,-139.55"/>
</g>
<!-- Node19&#45;&gt;Node8 -->
<g id="edge38" class="edge">
<title>Node19&#45;&gt;Node8</title>
<path fill="none" stroke="#63b8ff" d="M435.9,-219.92C461.95,-211.38 502.61,-197.63 537.19,-184 556.63,-176.34 560.85,-172.89 580.19,-165 622.38,-147.78 633.99,-146.2 676.19,-129 716.93,-112.39 763.39,-91.56 792.25,-78.38"/>
<polygon fill="#63b8ff" stroke="#63b8ff" points="794.06,-81.4 801.69,-74.06 791.14,-75.04 794.06,-81.4"/>
</g>
<!-- Node19&#45;&gt;Node9 -->
<g id="edge39" class="edge">
<title>Node19&#45;&gt;Node9</title>
<path fill="none" stroke="#63b8ff" d="M384.77,-219.98C359.47,-211.16 319.74,-197.31 291.33,-187.41"/>
<polygon fill="#63b8ff" stroke="#63b8ff" points="292.4,-184.07 281.8,-184.08 290.09,-190.68 292.4,-184.07"/>
</g>
<!-- Node19&#45;&gt;Node10 -->
<g id="edge40" class="edge">
<title>Node19&#45;&gt;Node10</title>
<path fill="none" stroke="#63b8ff" d="M398.27,-219.98C388.11,-212.07 372.77,-200.11 360.54,-190.58"/>
<polygon fill="#63b8ff" stroke="#63b8ff" points="362.35,-187.56 352.31,-184.17 358.05,-193.08 362.35,-187.56"/>
</g>
<!-- Node19&#45;&gt;Node11 -->
<g id="edge41" class="edge">
<title>Node19&#45;&gt;Node11</title>
<path fill="none" stroke="#63b8ff" d="M438.87,-224.12C497.96,-215.39 631.27,-195.71 708.94,-184.25"/>
<polygon fill="#63b8ff" stroke="#63b8ff" points="709.68,-187.68 719.06,-182.75 708.65,-180.75 709.68,-187.68"/>
</g>
<!-- Node19&#45;&gt;Node16 -->
<g id="edge42" class="edge">
<title>Node19&#45;&gt;Node16</title>
<path fill="none" stroke="#63b8ff" d="M379.56,-223.51C321.67,-213.77 193.74,-192.25 130.72,-181.65"/>
<polygon fill="#63b8ff" stroke="#63b8ff" points="131.27,-178.19 120.83,-179.98 130.11,-185.09 131.27,-178.19"/>
</g>
<!-- Node19&#45;&gt;Node18 -->
<g id="edge43" class="edge">
<title>Node19&#45;&gt;Node18</title>
<path fill="none" stroke="#63b8ff" d="M438.91,-221.24C475.66,-212.27 538.58,-196.9 581.24,-186.48"/>
<polygon fill="#63b8ff" stroke="#63b8ff" points="582.21,-189.85 591.09,-184.07 580.55,-183.05 582.21,-189.85"/>
</g>
</g>
</svg>
