<?xml version="1.0" encoding="UTF-8" standalone="no"?>
<!DOCTYPE svg PUBLIC "-//W3C//DTD SVG 1.1//EN"
 "http://www.w3.org/Graphics/SVG/1.1/DTD/svg11.dtd">
<!-- Generated by graphviz version 8.1.0 (20230707.0739)
 -->
<!-- Title: src/lib/toolkit/Misc.cc Pages: 1 -->
<svg width="192pt" height="83pt"
 viewBox="0.00 0.00 191.88 82.50" xmlns="http://www.w3.org/2000/svg" xmlns:xlink="http://www.w3.org/1999/xlink">

<svg id="main" version="1.1" xmlns="http://www.w3.org/2000/svg" xmlns:xlink="http://www.w3.org/1999/xlink" xml:space="preserve" onload="init(evt)">
<style type="text/css"><![CDATA[
.node, .edge {opacity: 0.7;}
.node.selected, .edge.selected {opacity: 1;}
.edge:hover path { stroke: red; }
.edge:hover polygon { stroke: red; fill: red; }
]]></style>
<script type="application/ecmascript" xlink:href="../../svg.min.js"/>
<svg id="graph" class="graph">
<g id="graph0" class="graph" transform="scale(1 1) rotate(0) translate(4 78.5)">
<title>src/lib/toolkit/Misc.cc</title>
<!-- Node1 -->
<g id="Node000001" class="node">
<title>Node1</title>
<g id="a_Node000001"><a xlink:title=" ">
<polygon fill="#999999" stroke="#666666" points="141.12,-74.5 32.88,-74.5 32.88,-55.25 141.12,-55.25 141.12,-74.5"/>
<text text-anchor="middle" x="87" y="-61" font-family="Helvetica,sans-Serif" font-size="10.00">src/lib/toolkit/Misc.cc</text>
</a>
</g>
</g>
<!-- Node2 -->
<g id="Node000002" class="node">
<title>Node2</title>
<g id="a_Node000002"><a xlink:title=" ">
<polygon fill="#e0e0e0" stroke="#999999" points="40,-19.25 0,-19.25 0,0 40,0 40,-19.25"/>
<text text-anchor="middle" x="20" y="-5.75" font-family="Helvetica,sans-Serif" font-size="10.00">string</text>
</a>
</g>
</g>
<!-- Node1&#45;&gt;Node2 -->
<g id="edge1_Node000001_Node000002" class="edge">
<title>Node1&#45;&gt;Node2</title>
<g id="a_edge1_Node000001_Node000002"><a xlink:title=" ">
<path fill="none" stroke="#63b8ff" d="M75.63,-54.84C65.76,-46.99 51.23,-35.45 39.5,-26.12"/>
<polygon fill="#63b8ff" stroke="#63b8ff" points="42.2,-23.01 32.2,-19.52 37.85,-28.49 42.2,-23.01"/>
</a>
</g>
</g>
<!-- Node3 -->
<g id="Node000003" class="node">
<title>Node3</title>
<g id="a_Node000003"><a xlink:title=" ">
<polygon fill="#e0e0e0" stroke="#999999" points="116,-19.25 58,-19.25 58,0 116,0 116,-19.25"/>
<text text-anchor="middle" x="87" y="-5.75" font-family="Helvetica,sans-Serif" font-size="10.00">stdexcept</text>
</a>
</g>
</g>
<!-- Node1&#45;&gt;Node3 -->
<g id="edge2_Node000001_Node000003" class="edge">
<title>Node1&#45;&gt;Node3</title>
<g id="a_edge2_Node000001_Node000003"><a xlink:title=" ">
<path fill="none" stroke="#63b8ff" d="M87,-55.08C87,-48.42 87,-38.99 87,-30.53"/>
<polygon fill="#63b8ff" stroke="#63b8ff" points="90.5,-30.61 87,-20.61 83.5,-30.61 90.5,-30.61"/>
</a>
</g>
</g>
<!-- Node4 -->
<g id="Node000004" class="node">
<title>Node4</title>
<g id="a_Node000004"><a xlink:href="../../df/d32/_misc_8hh.html" target="_top" xlink:title=" ">
<polygon fill="white" stroke="#666666" points="183.88,-19.25 134.12,-19.25 134.12,0 183.88,0 183.88,-19.25"/>
<text text-anchor="middle" x="159" y="-5.75" font-family="Helvetica,sans-Serif" font-size="10.00">Misc.hh</text>
</a>
</g>
</g>
<!-- Node1&#45;&gt;Node4 -->
<g id="edge3_Node000001_Node000004" class="edge">
<title>Node1&#45;&gt;Node4</title>
<g id="a_edge3_Node000001_Node000004"><a xlink:title=" ">
<path fill="none" stroke="#63b8ff" d="M99.21,-54.84C109.93,-46.91 125.74,-35.22 138.41,-25.85"/>
<polygon fill="#63b8ff" stroke="#63b8ff" points="140.01,-28.29 145.97,-19.52 135.85,-22.66 140.01,-28.29"/>
</a>
</g>
</g>
</g>
</svg>
</svg>

<style type='text/css'>
<![CDATA[
[data-mouse-over-selected='false'] { opacity: 0.7; }
[data-mouse-over-selected='true']  { opacity: 1.0; }
]]>
</style>
<script type="application/ecmascript"><![CDATA[
document.addEventListener('DOMContentLoaded', (event) => {
  highlightEdges();
  highlightAdjacentNodes();
});
]]></script>
</svg>
