<?xml version="1.0" encoding="UTF-8" standalone="no"?>
<!DOCTYPE svg PUBLIC "-//W3C//DTD SVG 1.1//EN"
 "http://www.w3.org/Graphics/SVG/1.1/DTD/svg11.dtd">
<!-- Generated by graphviz version 6.0.2 (20221011.1828)
 -->
<!-- Title: src/lib/tree/DetDefn.tt Pages: 1 -->
<svg width="406pt" height="82pt"
 viewBox="0.00 0.00 405.50 82.00" xmlns="http://www.w3.org/2000/svg" xmlns:xlink="http://www.w3.org/1999/xlink">
<g id="graph0" class="graph" transform="scale(1 1) rotate(0) translate(4 78)">
<title>src/lib/tree/DetDefn.tt</title>
<!-- Node1 -->
<g id="node1" class="node">
<title>Node1</title>
<g id="a_node1"><a xlink:title=" ">
<polygon fill="#999999" stroke="#666666" points="242.5,-74 133.5,-74 133.5,-55 242.5,-55 242.5,-74"/>
<text text-anchor="middle" x="188" y="-62" font-family="Helvetica,sans-Serif" font-size="10.00">src/lib/tree/DetDefn.tt</text>
</a>
</g>
</g>
<!-- Node2 -->
<g id="node2" class="node">
<title>Node2</title>
<g id="a_node2"><a xlink:title=" ">
<polygon fill="#e0e0e0" stroke="#999999" points="44,-19 0,-19 0,0 44,0 44,-19"/>
<text text-anchor="middle" x="22" y="-7" font-family="Helvetica,sans-Serif" font-size="10.00">cmath</text>
</a>
</g>
</g>
<!-- Node1&#45;&gt;Node2 -->
<g id="edge1" class="edge">
<title>Node1&#45;&gt;Node2</title>
<path fill="none" stroke="#63b8ff" d="M161.33,-54.98C132.1,-45.65 85.22,-30.68 54.02,-20.72"/>
<polygon fill="#63b8ff" stroke="#63b8ff" points="54.68,-17.26 44.09,-17.55 52.55,-23.93 54.68,-17.26"/>
</g>
<!-- Node3 -->
<g id="node3" class="node">
<title>Node3</title>
<g id="a_node3"><a xlink:title=" ">
<polygon fill="#e0e0e0" stroke="#999999" points="107.5,-19 62.5,-19 62.5,0 107.5,0 107.5,-19"/>
<text text-anchor="middle" x="85" y="-7" font-family="Helvetica,sans-Serif" font-size="10.00">cstdlib</text>
</a>
</g>
</g>
<!-- Node1&#45;&gt;Node3 -->
<g id="edge2" class="edge">
<title>Node1&#45;&gt;Node3</title>
<path fill="none" stroke="#63b8ff" d="M171.45,-54.98C155.11,-46.57 129.87,-33.59 110.87,-23.81"/>
<polygon fill="#63b8ff" stroke="#63b8ff" points="112.34,-20.63 101.85,-19.17 109.14,-26.86 112.34,-20.63"/>
</g>
<!-- Node4 -->
<g id="node4" class="node">
<title>Node4</title>
<g id="a_node4"><a xlink:title=" ">
<polygon fill="#e0e0e0" stroke="#999999" points="180,-19 126,-19 126,0 180,0 180,-19"/>
<text text-anchor="middle" x="153" y="-7" font-family="Helvetica,sans-Serif" font-size="10.00">iostream</text>
</a>
</g>
</g>
<!-- Node1&#45;&gt;Node4 -->
<g id="edge3" class="edge">
<title>Node1&#45;&gt;Node4</title>
<path fill="none" stroke="#63b8ff" d="M182.22,-54.75C177.38,-47.42 170.32,-36.73 164.36,-27.7"/>
<polygon fill="#63b8ff" stroke="#63b8ff" points="167.1,-25.5 158.67,-19.09 161.26,-29.36 167.1,-25.5"/>
</g>
<!-- Node5 -->
<g id="node5" class="node">
<title>Node5</title>
<g id="a_node5"><a xlink:title=" ">
<polygon fill="#e0e0e0" stroke="#999999" points="249.5,-19 198.5,-19 198.5,0 249.5,0 249.5,-19"/>
<text text-anchor="middle" x="224" y="-7" font-family="Helvetica,sans-Serif" font-size="10.00">numeric</text>
</a>
</g>
</g>
<!-- Node1&#45;&gt;Node5 -->
<g id="edge4" class="edge">
<title>Node1&#45;&gt;Node5</title>
<path fill="none" stroke="#63b8ff" d="M193.94,-54.75C198.98,-47.34 206.34,-36.5 212.51,-27.41"/>
<polygon fill="#63b8ff" stroke="#63b8ff" points="215.44,-29.33 218.17,-19.09 209.65,-25.39 215.44,-29.33"/>
</g>
<!-- Node6 -->
<g id="node6" class="node">
<title>Node6</title>
<g id="a_node6"><a xlink:title=" ">
<polygon fill="#e0e0e0" stroke="#999999" points="320,-19 268,-19 268,0 320,0 320,-19"/>
<text text-anchor="middle" x="294" y="-7" font-family="Helvetica,sans-Serif" font-size="10.00">sstream</text>
</a>
</g>
</g>
<!-- Node1&#45;&gt;Node6 -->
<g id="edge5" class="edge">
<title>Node1&#45;&gt;Node6</title>
<path fill="none" stroke="#63b8ff" d="M205.03,-54.98C221.93,-46.54 248.06,-33.47 267.64,-23.68"/>
<polygon fill="#63b8ff" stroke="#63b8ff" points="269.28,-26.77 276.66,-19.17 266.15,-20.51 269.28,-26.77"/>
</g>
<!-- Node7 -->
<g id="node7" class="node">
<title>Node7</title>
<g id="a_node7"><a xlink:title=" ">
<polygon fill="#e0e0e0" stroke="#999999" points="397.5,-19 338.5,-19 338.5,0 397.5,0 397.5,-19"/>
<text text-anchor="middle" x="368" y="-7" font-family="Helvetica,sans-Serif" font-size="10.00">stdexcept</text>
</a>
</g>
</g>
<!-- Node1&#45;&gt;Node7 -->
<g id="edge6" class="edge">
<title>Node1&#45;&gt;Node7</title>
<path fill="none" stroke="#63b8ff" d="M216.92,-54.98C247.27,-46.05 295.17,-31.94 328.88,-22.02"/>
<polygon fill="#63b8ff" stroke="#63b8ff" points="330.25,-25.26 338.85,-19.08 328.27,-18.55 330.25,-25.26"/>
</g>
</g>
</svg>
