<?xml version="1.0" encoding="UTF-8" standalone="no"?>
<!DOCTYPE svg PUBLIC "-//W3C//DTD SVG 1.1//EN"
 "http://www.w3.org/Graphics/SVG/1.1/DTD/svg11.dtd">
<!-- Generated by graphviz version 12.2.1 (20241206.2353)
 -->
<!-- Title: GamR::Coulex::Transition Pages: 1 -->
<!--zoomable 758 -->

<svg id="main" version="1.1" xmlns="http://www.w3.org/2000/svg" xmlns:xlink="http://www.w3.org/1999/xlink" xml:space="preserve" onload="init(evt)">

<style type="text/css"><![CDATA[
.node, .edge {opacity: 0.7;}
.node.selected, .edge.selected {opacity: 1;}
.edge:hover path { stroke: red; }
.edge:hover polygon { stroke: red; fill: red; }
]]></style>

<defs>
  <circle id="rim" cx="0" cy="0" r="7"/>
  <circle id="rim2" cx="0" cy="0" r="3.5"/>
  <g id="zoomPlus">
    <use xlink:href="#rim" fill="#404040"><set attributeName="fill" to="#808080" begin="zoomplus.mouseover" end="zoomplus.mouseout"/></use>
    <path d="M-4,0h8M0,-4v8" fill="none" stroke="white" stroke-width="1.5" pointer-events="none"/>
  </g>
  <g id="zoomMin">
    <use xlink:href="#rim" fill="#404040"><set attributeName="fill" to="#808080" begin="zoomminus.mouseover" end="zoomminus.mouseout"/></use>
    <path d="M-4,0h8" fill="none" stroke="white" stroke-width="1.5" pointer-events="none"/>
  </g>
  <g id="arrowUp" transform="translate(30 24)">
    <use xlink:href="#rim"/>
    <path pointer-events="none" fill="none" stroke="white" stroke-width="1.5" d="M0,-3.0v7 M-2.5,-0.5L0,-3.0L2.5,-0.5"/>
  </g>
  <g id="arrowRight" transform="rotate(90) translate(36 -43)">
    <use xlink:href="#rim"/>
    <path pointer-events="none" fill="none" stroke="white" stroke-width="1.5" d="M0,-3.0v7 M-2.5,-0.5L0,-3.0L2.5,-0.5"/>
  </g>
  <g id="arrowDown" transform="rotate(180) translate(-30 -48)">
    <use xlink:href="#rim"/>
    <path pointer-events="none" fill="none" stroke="white" stroke-width="1.5" d="M0,-3.0v7 M-2.5,-0.5L0,-3.0L2.5,-0.5"/>
  </g>
  <g id="arrowLeft" transform="rotate(270) translate(-36 17)">
    <use xlink:href="#rim"/>
    <path pointer-events="none" fill="none" stroke="white" stroke-width="1.5" d="M0,-3.0v7 M-2.5,-0.5L0,-3.0L2.5,-0.5"/>
  </g>
  <g id="resetDef">
    <use xlink:href="#rim2" fill="#404040"><set attributeName="fill" to="#808080" begin="reset.mouseover" end="reset.mouseout"/></use>
  </g>
</defs>
<script type="application/ecmascript">
var viewWidth = 221;
var viewHeight = 758;
var sectionId = 'dynsection-0';
</script>
<script type="application/ecmascript" xlink:href="../../svg.min.js"/>
<svg id="graph" class="graph">
<g id="viewport">
<title>GamR::Coulex::Transition</title>
<!-- Node1 -->
<g id="Node000001" class="node">
<title>Node1</title>
<g id="a_Node000001"><a xlink:title=" ">
<polygon fill="#999999" stroke="none" points="153.62,-156.5 36.87,-156.5 36.87,0 153.62,0 153.62,-156.5"/>
<text text-anchor="start" x="40.88" y="-143" font-family="Helvetica,sans-Serif" font-size="10.00">GamR::Coulex::Transition</text>
<text text-anchor="start" x="53.38" y="-127.75" font-family="Helvetica,sans-Serif" font-size="10.00">+</text>
<text text-anchor="start" x="75.88" y="-127.75" font-family="Helvetica,sans-Serif" font-size="10.00">fMatEl</text>
<text text-anchor="start" x="53.38" y="-112.5" font-family="Helvetica,sans-Serif" font-size="10.00">+</text>
<text text-anchor="start" x="75.88" y="-112.5" font-family="Helvetica,sans-Serif" font-size="10.00">fMult</text>
<text text-anchor="start" x="53.38" y="-97.25" font-family="Helvetica,sans-Serif" font-size="10.00">+</text>
<text text-anchor="start" x="75.88" y="-97.25" font-family="Helvetica,sans-Serif" font-size="10.00">Transition()</text>
<text text-anchor="start" x="53.38" y="-82" font-family="Helvetica,sans-Serif" font-size="10.00">+</text>
<text text-anchor="start" x="75.88" y="-82" font-family="Helvetica,sans-Serif" font-size="10.00">SetMatEl()</text>
<text text-anchor="start" x="53.38" y="-66.75" font-family="Helvetica,sans-Serif" font-size="10.00">+</text>
<text text-anchor="start" x="75.88" y="-66.75" font-family="Helvetica,sans-Serif" font-size="10.00">SetBUp()</text>
<text text-anchor="start" x="53.38" y="-51.5" font-family="Helvetica,sans-Serif" font-size="10.00">+</text>
<text text-anchor="start" x="75.88" y="-51.5" font-family="Helvetica,sans-Serif" font-size="10.00">GetBUp()</text>
<text text-anchor="start" x="53.38" y="-36.25" font-family="Helvetica,sans-Serif" font-size="10.00">+</text>
<text text-anchor="start" x="75.88" y="-36.25" font-family="Helvetica,sans-Serif" font-size="10.00">Energy()</text>
<text text-anchor="start" x="53.38" y="-21" font-family="Helvetica,sans-Serif" font-size="10.00">+</text>
<text text-anchor="start" x="75.88" y="-21" font-family="Helvetica,sans-Serif" font-size="10.00">Character()</text>
<text text-anchor="start" x="53.38" y="-5.75" font-family="Helvetica,sans-Serif" font-size="10.00">+</text>
<text text-anchor="start" x="75.88" y="-5.75" font-family="Helvetica,sans-Serif" font-size="10.00">Type()</text>
<polygon fill="#666666" stroke="#666666" points="36.88,-139.25 36.88,-139.25 153.62,-139.25 153.62,-139.25 36.88,-139.25"/>
<polygon fill="#666666" stroke="#666666" points="36.88,-108.75 36.88,-108.75 73.88,-108.75 73.88,-108.75 36.88,-108.75"/>
<polygon fill="#666666" stroke="#666666" points="73.88,-108.75 73.88,-108.75 153.62,-108.75 153.62,-108.75 73.88,-108.75"/>
<polygon fill="none" stroke="#666666" points="36.88,0 36.88,-156.5 153.62,-156.5 153.62,0 36.88,0"/>
</a>
</g>
</g>
<!-- Node2 -->
<g id="Node000002" class="node">
<title>Node2</title>
<g id="a_Node000002"><a xlink:href="../../d1/d65/class_gam_r_1_1_coulex_1_1_level.html" target="_top" xlink:title=" ">
<polygon fill="white" stroke="none" points="144.25,-371.5 46.25,-371.5 46.25,-215 144.25,-215 144.25,-371.5"/>
<text text-anchor="start" x="50.25" y="-358" font-family="Helvetica,sans-Serif" font-size="10.00">GamR::Coulex::Level</text>
<text text-anchor="start" x="54.88" y="-342.75" font-family="Helvetica,sans-Serif" font-size="10.00">+</text>
<text text-anchor="start" x="69.5" y="-342.75" font-family="Helvetica,sans-Serif" font-size="10.00">fIndex</text>
<text text-anchor="start" x="54.88" y="-327.5" font-family="Helvetica,sans-Serif" font-size="10.00">+</text>
<text text-anchor="start" x="69.5" y="-327.5" font-family="Helvetica,sans-Serif" font-size="10.00">fEnergy</text>
<text text-anchor="start" x="54.88" y="-312.25" font-family="Helvetica,sans-Serif" font-size="10.00">+</text>
<text text-anchor="start" x="69.5" y="-312.25" font-family="Helvetica,sans-Serif" font-size="10.00">fSpin</text>
<text text-anchor="start" x="54.88" y="-297" font-family="Helvetica,sans-Serif" font-size="10.00">+</text>
<text text-anchor="start" x="69.5" y="-297" font-family="Helvetica,sans-Serif" font-size="10.00">fParity</text>
<text text-anchor="start" x="54.88" y="-281.75" font-family="Helvetica,sans-Serif" font-size="10.00">+</text>
<text text-anchor="start" x="69.5" y="-281.75" font-family="Helvetica,sans-Serif" font-size="10.00">fKBand</text>
<text text-anchor="start" x="54.88" y="-266.5" font-family="Helvetica,sans-Serif" font-size="10.00">+</text>
<text text-anchor="start" x="69.5" y="-266.5" font-family="Helvetica,sans-Serif" font-size="10.00">fCrossSection</text>
<text text-anchor="start" x="54.88" y="-251.25" font-family="Helvetica,sans-Serif" font-size="10.00">+</text>
<text text-anchor="start" x="69.5" y="-251.25" font-family="Helvetica,sans-Serif" font-size="10.00">Level()</text>
<text text-anchor="start" x="54.88" y="-236" font-family="Helvetica,sans-Serif" font-size="10.00">+</text>
<text text-anchor="start" x="69.5" y="-236" font-family="Helvetica,sans-Serif" font-size="10.00">operator&lt;()</text>
<text text-anchor="start" x="54.88" y="-220.75" font-family="Helvetica,sans-Serif" font-size="10.00">+</text>
<text text-anchor="start" x="69.5" y="-220.75" font-family="Helvetica,sans-Serif" font-size="10.00">PrintSP()</text>
<polygon fill="#666666" stroke="#666666" points="46.25,-354.25 46.25,-354.25 144.25,-354.25 144.25,-354.25 46.25,-354.25"/>
<polygon fill="#666666" stroke="#666666" points="46.25,-262.75 46.25,-262.75 67.5,-262.75 67.5,-262.75 46.25,-262.75"/>
<polygon fill="#666666" stroke="#666666" points="67.5,-262.75 67.5,-262.75 144.25,-262.75 144.25,-262.75 67.5,-262.75"/>
<polygon fill="none" stroke="#666666" points="46.25,-215 46.25,-371.5 144.25,-371.5 144.25,-215 46.25,-215"/>
</a>
</g>
</g>
<!-- Node2&#45;&gt;Node1 -->
<g id="edge1_Node000001_Node000002" class="edge">
<title>Node2&#45;&gt;Node1</title>
<g id="a_edge1_Node000001_Node000002"><a xlink:title=" ">
<path fill="none" stroke="#63b8ff" d="M95.25,-215.05C95.25,-200.08 95.25,-184.26 95.25,-168.93"/>
<polygon fill="none" stroke="#63b8ff" points="95.25,-169.09 91.25,-163.09 95.25,-157.09 99.25,-163.09 95.25,-169.09"/>
</a>
</g>
<text text-anchor="middle" x="111.38" y="-187.5" font-family="Helvetica,sans-Serif" font-size="10.00" fill="grey"> +fFinal</text>
<text text-anchor="middle" x="111.38" y="-176.25" font-family="Helvetica,sans-Serif" font-size="10.00" fill="grey">+fInitial</text>
</g>
<!-- Node3 -->
<g id="Node000003" class="node">
<title>Node3</title>
<g id="a_Node000003"><a xlink:title=" ">
<polygon fill="white" stroke="none" points="67.25,-560 17.25,-560 17.25,-510.25 67.25,-510.25 67.25,-560"/>
<text text-anchor="start" x="21.25" y="-546.5" font-family="Helvetica,sans-Serif" font-size="10.00">std::string</text>
<text text-anchor="start" x="40.75" y="-531.25" font-family="Helvetica,sans-Serif" font-size="10.00"> </text>
<text text-anchor="start" x="40.75" y="-516" font-family="Helvetica,sans-Serif" font-size="10.00"> </text>
<polygon fill="#666666" stroke="#666666" points="17.25,-542.75 17.25,-542.75 67.25,-542.75 67.25,-542.75 17.25,-542.75"/>
<polygon fill="#666666" stroke="#666666" points="17.25,-527.5 17.25,-527.5 67.25,-527.5 67.25,-527.5 17.25,-527.5"/>
<polygon fill="none" stroke="#666666" points="17.25,-510.25 17.25,-560 67.25,-560 67.25,-510.25 17.25,-510.25"/>
</a>
</g>
</g>
<!-- Node3&#45;&gt;Node2 -->
<g id="edge2_Node000002_Node000003" class="edge">
<title>Node3&#45;&gt;Node2</title>
<g id="a_edge2_Node000002_Node000003"><a xlink:title=" ">
<path fill="none" stroke="#63b8ff" d="M47.43,-510.69C53.89,-481.43 65.33,-429.69 75.39,-384.13"/>
<polygon fill="none" stroke="#63b8ff" points="75.41,-384.06 72.79,-377.34 77.99,-372.35 80.61,-379.07 75.41,-384.06"/>
</a>
</g>
<text text-anchor="middle" x="92.25" y="-391.25" font-family="Helvetica,sans-Serif" font-size="10.00" fill="grey"> +fName</text>
</g>
<!-- Node4 -->
<g id="Node000004" class="node">
<title>Node4</title>
<g id="a_Node000004"><a xlink:title=" ">
<polygon fill="white" stroke="none" points="84.5,-749.5 0,-749.5 0,-688.5 84.5,-688.5 84.5,-749.5"/>
<text text-anchor="start" x="4" y="-736" font-family="Helvetica,sans-Serif" font-size="10.00">std::basic_string&lt;</text>
<text text-anchor="start" x="26.88" y="-724.75" font-family="Helvetica,sans-Serif" font-size="10.00"> Char &gt;</text>
<text text-anchor="start" x="40.75" y="-709.5" font-family="Helvetica,sans-Serif" font-size="10.00"> </text>
<text text-anchor="start" x="40.75" y="-694.25" font-family="Helvetica,sans-Serif" font-size="10.00"> </text>
<polygon fill="#666666" stroke="#666666" points="0,-721 0,-721 84.5,-721 84.5,-721 0,-721"/>
<polygon fill="#666666" stroke="#666666" points="0,-705.75 0,-705.75 84.5,-705.75 84.5,-705.75 0,-705.75"/>
<polygon fill="none" stroke="#666666" points="0,-688.5 0,-749.5 84.5,-749.5 84.5,-688.5 0,-688.5"/>
</a>
</g>
</g>
<!-- Node4&#45;&gt;Node3 -->
<g id="edge3_Node000003_Node000004" class="edge">
<title>Node4&#45;&gt;Node3</title>
<g id="a_edge3_Node000003_Node000004"><a xlink:title=" ">
<path fill="none" stroke="#63b8ff" d="M42.25,-677.63C42.25,-641.46 42.25,-589.63 42.25,-559.77"/>
<polygon fill="none" stroke="#63b8ff" points="38.75,-677.27 42.25,-687.27 45.75,-677.27 38.75,-677.27"/>
</a>
</g>
</g>
<!-- Node5 -->
<g id="Node000005" class="node">
<title>Node5</title>
<g id="a_Node000005"><a xlink:href="../../da/dfc/class_gam_r_1_1_ang_dist_1_1_stat_tensor.html" target="_top" xlink:title=" ">
<polygon fill="white" stroke="none" points="212.88,-651.5 85.62,-651.5 85.62,-418.75 212.88,-418.75 212.88,-651.5"/>
<text text-anchor="start" x="89.62" y="-638" font-family="Helvetica,sans-Serif" font-size="10.00">GamR::AngDist::StatTensor</text>
<text text-anchor="start" x="147.75" y="-622.75" font-family="Helvetica,sans-Serif" font-size="10.00"> </text>
<text text-anchor="start" x="97.25" y="-607.5" font-family="Helvetica,sans-Serif" font-size="10.00">+</text>
<text text-anchor="start" x="114.88" y="-607.5" font-family="Helvetica,sans-Serif" font-size="10.00">StatTensor()</text>
<text text-anchor="start" x="97.25" y="-592.25" font-family="Helvetica,sans-Serif" font-size="10.00">+</text>
<text text-anchor="start" x="114.88" y="-592.25" font-family="Helvetica,sans-Serif" font-size="10.00">StatTensor()</text>
<text text-anchor="start" x="97.25" y="-577" font-family="Helvetica,sans-Serif" font-size="10.00">+</text>
<text text-anchor="start" x="114.88" y="-577" font-family="Helvetica,sans-Serif" font-size="10.00">StatTensor()</text>
<text text-anchor="start" x="97.25" y="-561.75" font-family="Helvetica,sans-Serif" font-size="10.00">+</text>
<text text-anchor="start" x="114.88" y="-561.75" font-family="Helvetica,sans-Serif" font-size="10.00">Clear()</text>
<text text-anchor="start" x="97.25" y="-546.5" font-family="Helvetica,sans-Serif" font-size="10.00">+</text>
<text text-anchor="start" x="114.88" y="-546.5" font-family="Helvetica,sans-Serif" font-size="10.00">Set()</text>
<text text-anchor="start" x="97.25" y="-531.25" font-family="Helvetica,sans-Serif" font-size="10.00">+</text>
<text text-anchor="start" x="114.88" y="-531.25" font-family="Helvetica,sans-Serif" font-size="10.00">Get()</text>
<text text-anchor="start" x="97.25" y="-516" font-family="Helvetica,sans-Serif" font-size="10.00">+</text>
<text text-anchor="start" x="114.88" y="-516" font-family="Helvetica,sans-Serif" font-size="10.00">Set()</text>
<text text-anchor="start" x="97.25" y="-500.75" font-family="Helvetica,sans-Serif" font-size="10.00">+</text>
<text text-anchor="start" x="114.88" y="-500.75" font-family="Helvetica,sans-Serif" font-size="10.00">GetBk()</text>
<text text-anchor="start" x="97.25" y="-485.5" font-family="Helvetica,sans-Serif" font-size="10.00">+</text>
<text text-anchor="start" x="114.88" y="-485.5" font-family="Helvetica,sans-Serif" font-size="10.00">ObservedProp()</text>
<text text-anchor="start" x="97.25" y="-470.25" font-family="Helvetica,sans-Serif" font-size="10.00">+</text>
<text text-anchor="start" x="114.88" y="-470.25" font-family="Helvetica,sans-Serif" font-size="10.00">UnobservedProp()</text>
<text text-anchor="start" x="97.25" y="-455" font-family="Helvetica,sans-Serif" font-size="10.00">+</text>
<text text-anchor="start" x="114.88" y="-455" font-family="Helvetica,sans-Serif" font-size="10.00">Perturbation()</text>
<text text-anchor="start" x="97.25" y="-439.75" font-family="Helvetica,sans-Serif" font-size="10.00">+</text>
<text text-anchor="start" x="114.88" y="-439.75" font-family="Helvetica,sans-Serif" font-size="10.00">W()</text>
<text text-anchor="start" x="97.25" y="-424.5" font-family="Helvetica,sans-Serif" font-size="10.00">+</text>
<text text-anchor="start" x="114.88" y="-424.5" font-family="Helvetica,sans-Serif" font-size="10.00">Print()</text>
<polygon fill="#666666" stroke="#666666" points="85.62,-634.25 85.62,-634.25 212.88,-634.25 212.88,-634.25 85.62,-634.25"/>
<polygon fill="#666666" stroke="#666666" points="85.62,-619 85.62,-619 212.88,-619 212.88,-619 85.62,-619"/>
<polygon fill="none" stroke="#666666" points="85.62,-418.75 85.62,-651.5 212.88,-651.5 212.88,-418.75 85.62,-418.75"/>
</a>
</g>
</g>
<!-- Node5&#45;&gt;Node2 -->
<g id="edge4_Node000002_Node000005" class="edge">
<title>Node5&#45;&gt;Node2</title>
<g id="a_edge4_Node000002_Node000005"><a xlink:title=" ">
<path fill="none" stroke="#63b8ff" d="M123.28,-418.75C120.65,-407.07 118,-395.33 115.45,-383.97"/>
<polygon fill="none" stroke="#63b8ff" points="115.44,-383.92 110.22,-378.95 112.8,-372.21 118.02,-377.19 115.44,-383.92"/>
</a>
</g>
<text text-anchor="middle" x="148.64" y="-391.25" font-family="Helvetica,sans-Serif" font-size="10.00" fill="grey"> +fStatTensor</text>
</g>
</g>
</svg>

<g id="navigator" transform="translate(0 0)" fill="#404254">
  <rect fill="#f2f5e9" fill-opacity="0.5" stroke="#606060" stroke-width=".5" x="0" y="0" width="60" height="60"/>
  <use id="zoomplus" xlink:href="#zoomPlus" x="17" y="9" onmousedown="handleZoom(evt,'in')"/>
  <use id="zoomminus" xlink:href="#zoomMin" x="42" y="9" onmousedown="handleZoom(evt,'out')"/>
  <use id="reset" xlink:href="#resetDef" x="30" y="36" onmousedown="handleReset()"/>
   <use id="arrowup" xlink:href="#arrowUp" x="0" y="0" onmousedown="handlePan(0,-1)"/>
  <use id="arrowright" xlink:href="#arrowRight" x="0" y="0" onmousedown="handlePan(1,0)"/>
  <use id="arrowdown" xlink:href="#arrowDown" x="0" y="0" onmousedown="handlePan(0,1)"/>
  <use id="arrowleft" xlink:href="#arrowLeft" x="0" y="0" onmousedown="handlePan(-1,0)"/>
</g>
<svg viewBox="0 0 15 15" width="100%" height="30px" preserveAspectRatio="xMaxYMin meet">
 <g id="arrow_out" transform="scale(0.3 0.3)">
  <a xlink:href="class_gam_r_1_1_coulex_1_1_transition__coll__graph_org.svg" target="_base">
   <rect id="button" ry="5" rx="5" y="6" x="6" height="38" width="38"
        fill="#f2f5e9" fill-opacity="0.5" stroke="#606060" stroke-width="1.0"/>
   <path id="arrow"
     d="M 11.500037,31.436501 C 11.940474,20.09759 22.043105,11.32322 32.158766,21.979434 L 37.068811,17.246167 C 37.068811,17.246167 37.088388,32 37.088388,32 L 22.160133,31.978069 C 22.160133,31.978069 26.997745,27.140456 26.997745,27.140456 C 18.528582,18.264221 13.291696,25.230495 11.500037,31.436501 z"
     style="fill:#404040;"/>
  </a>
 </g>
</svg>

<style type='text/css'>
<![CDATA[
[data-mouse-over-selected='false'] { opacity: 0.7; }
[data-mouse-over-selected='true']  { opacity: 1.0; }
]]>
</style>
<script type="application/ecmascript"><![CDATA[
document.addEventListener('DOMContentLoaded', (event) => {
  highlightEdges();
  highlightAdjacentNodes();
});
]]></script>
</svg>
