<?xml version="1.0" encoding="UTF-8" standalone="no"?>
<!DOCTYPE svg PUBLIC "-//W3C//DTD SVG 1.1//EN"
 "http://www.w3.org/Graphics/SVG/1.1/DTD/svg11.dtd">
<!-- Generated by graphviz version 6.0.2 (20221011.1828)
 -->
<!-- Title: GamR::Coulex::Transition Pages: 1 -->
<svg width="245pt" height="622pt"
 viewBox="0.00 0.00 244.50 622.00" xmlns="http://www.w3.org/2000/svg" xmlns:xlink="http://www.w3.org/1999/xlink">
<g id="graph0" class="graph" transform="scale(1 1) rotate(0) translate(4 618)">
<title>GamR::Coulex::Transition</title>
<!-- Node1 -->
<g id="node1" class="node">
<title>Node1</title>
<g id="a_node1"><a xlink:title=" ">
<polygon fill="#999999" stroke="#666666" points="171,-129 43,-129 43,0 171,0 171,-129"/>
<text text-anchor="middle" x="107" y="-117" font-family="Helvetica,sans-Serif" font-size="10.00">{GamR::Coulex::Transition</text>
<text text-anchor="start" x="51" y="-106" font-family="Helvetica,sans-Serif" font-size="10.00">|+ fMatEl</text>
<text text-anchor="start" x="51" y="-95" font-family="Helvetica,sans-Serif" font-size="10.00">+ fMult</text>
<text text-anchor="start" x="51" y="-84" font-family="Helvetica,sans-Serif" font-size="10.00">|+ Transition()</text>
<text text-anchor="start" x="51" y="-73" font-family="Helvetica,sans-Serif" font-size="10.00">+ SetMatEl()</text>
<text text-anchor="start" x="51" y="-62" font-family="Helvetica,sans-Serif" font-size="10.00">+ SetBUp()</text>
<text text-anchor="start" x="51" y="-51" font-family="Helvetica,sans-Serif" font-size="10.00">+ GetBUp()</text>
<text text-anchor="start" x="51" y="-40" font-family="Helvetica,sans-Serif" font-size="10.00">+ Energy()</text>
<text text-anchor="start" x="51" y="-29" font-family="Helvetica,sans-Serif" font-size="10.00">+ Character()</text>
<text text-anchor="start" x="51" y="-18" font-family="Helvetica,sans-Serif" font-size="10.00">+ Type()</text>
<text text-anchor="middle" x="107" y="-7" font-family="Helvetica,sans-Serif" font-size="10.00">}</text>
</a>
</g>
</g>
<!-- Node2 -->
<g id="node2" class="node">
<title>Node2</title>
<g id="a_node2"><a xlink:href="../../d1/d65/class_gam_r_1_1_coulex_1_1_level.html" target="_top" xlink:title=" ">
<polygon fill="white" stroke="#666666" points="162,-316 52,-316 52,-187 162,-187 162,-316"/>
<text text-anchor="middle" x="107" y="-304" font-family="Helvetica,sans-Serif" font-size="10.00">{GamR::Coulex::Level</text>
<text text-anchor="start" x="60" y="-293" font-family="Helvetica,sans-Serif" font-size="10.00">|+ fIndex</text>
<text text-anchor="start" x="60" y="-282" font-family="Helvetica,sans-Serif" font-size="10.00">+ fEnergy</text>
<text text-anchor="start" x="60" y="-271" font-family="Helvetica,sans-Serif" font-size="10.00">+ fSpin</text>
<text text-anchor="start" x="60" y="-260" font-family="Helvetica,sans-Serif" font-size="10.00">+ fParity</text>
<text text-anchor="start" x="60" y="-249" font-family="Helvetica,sans-Serif" font-size="10.00">+ fKBand</text>
<text text-anchor="start" x="60" y="-238" font-family="Helvetica,sans-Serif" font-size="10.00">+ fCrossSection</text>
<text text-anchor="start" x="60" y="-227" font-family="Helvetica,sans-Serif" font-size="10.00">|+ Level()</text>
<text text-anchor="start" x="60" y="-216" font-family="Helvetica,sans-Serif" font-size="10.00">+ operator&lt;()</text>
<text text-anchor="start" x="60" y="-205" font-family="Helvetica,sans-Serif" font-size="10.00">+ PrintSP()</text>
<text text-anchor="middle" x="107" y="-194" font-family="Helvetica,sans-Serif" font-size="10.00">}</text>
</a>
</g>
</g>
<!-- Node2&#45;&gt;Node1 -->
<g id="edge1" class="edge">
<title>Node2&#45;&gt;Node1</title>
<path fill="none" stroke="#404040" d="M107,-186.83C107,-172.3 107,-156.71 107,-141.71"/>
<polygon fill="none" stroke="#404040" points="107,-141.28 103,-135.28 107,-129.28 111,-135.28 107,-141.28"/>
<text text-anchor="middle" x="123.5" y="-161" font-family="Helvetica,sans-Serif" font-size="10.00"> +fFinal</text>
<text text-anchor="middle" x="123.5" y="-150" font-family="Helvetica,sans-Serif" font-size="10.00">+fInitial</text>
</g>
<!-- Node3 -->
<g id="node3" class="node">
<title>Node3</title>
<g id="a_node3"><a xlink:title=" ">
<polygon fill="white" stroke="#666666" points="79,-464.5 17,-464.5 17,-434.5 79,-434.5 79,-464.5"/>
<text text-anchor="middle" x="48" y="-452.5" font-family="Helvetica,sans-Serif" font-size="10.00">{std::string</text>
<text text-anchor="middle" x="48" y="-441.5" font-family="Helvetica,sans-Serif" font-size="10.00">||}</text>
</a>
</g>
</g>
<!-- Node3&#45;&gt;Node2 -->
<g id="edge2" class="edge">
<title>Node3&#45;&gt;Node2</title>
<path fill="none" stroke="#404040" d="M52.24,-434.4C58.95,-412.12 72.48,-367.19 84.4,-327.57"/>
<polygon fill="none" stroke="#404040" points="84.42,-327.5 82.32,-320.61 87.88,-316.01 89.98,-322.91 84.42,-327.5"/>
<text text-anchor="middle" x="101" y="-337" font-family="Helvetica,sans-Serif" font-size="10.00"> +fName</text>
</g>
<!-- Node4 -->
<g id="node4" class="node">
<title>Node4</title>
<g id="a_node4"><a xlink:title=" ">
<polygon fill="white" stroke="#666666" points="96,-614 0,-614 0,-573 96,-573 96,-614"/>
<text text-anchor="start" x="8" y="-602" font-family="Helvetica,sans-Serif" font-size="10.00">{std::basic_string&lt;</text>
<text text-anchor="middle" x="48" y="-591" font-family="Helvetica,sans-Serif" font-size="10.00"> Char &gt;</text>
<text text-anchor="middle" x="48" y="-580" font-family="Helvetica,sans-Serif" font-size="10.00">||}</text>
</a>
</g>
</g>
<!-- Node4&#45;&gt;Node3 -->
<g id="edge3" class="edge">
<title>Node4&#45;&gt;Node3</title>
<path fill="none" stroke="#63b8ff" d="M48,-562.39C48,-532.23 48,-487.14 48,-464.51"/>
<polygon fill="none" stroke="#63b8ff" points="44.5,-562.76 48,-572.76 51.5,-562.76 44.5,-562.76"/>
</g>
<!-- Node5 -->
<g id="node5" class="node">
<title>Node5</title>
<g id="a_node5"><a xlink:href="../../da/dfc/class_gam_r_1_1_ang_dist_1_1_stat_tensor.html" target="_top" xlink:title=" ">
<polygon fill="white" stroke="#666666" points="236.5,-536 97.5,-536 97.5,-363 236.5,-363 236.5,-536"/>
<text text-anchor="middle" x="167" y="-524" font-family="Helvetica,sans-Serif" font-size="10.00">{GamR::AngDist::StatTensor</text>
<text text-anchor="start" x="105.5" y="-513" font-family="Helvetica,sans-Serif" font-size="10.00">||+ StatTensor()</text>
<text text-anchor="start" x="105.5" y="-502" font-family="Helvetica,sans-Serif" font-size="10.00">+ StatTensor()</text>
<text text-anchor="start" x="105.5" y="-491" font-family="Helvetica,sans-Serif" font-size="10.00">+ StatTensor()</text>
<text text-anchor="start" x="105.5" y="-480" font-family="Helvetica,sans-Serif" font-size="10.00">+ Clear()</text>
<text text-anchor="start" x="105.5" y="-469" font-family="Helvetica,sans-Serif" font-size="10.00">+ Set()</text>
<text text-anchor="start" x="105.5" y="-458" font-family="Helvetica,sans-Serif" font-size="10.00">+ Get()</text>
<text text-anchor="start" x="105.5" y="-447" font-family="Helvetica,sans-Serif" font-size="10.00">+ Set()</text>
<text text-anchor="start" x="105.5" y="-436" font-family="Helvetica,sans-Serif" font-size="10.00">+ GetBk()</text>
<text text-anchor="start" x="105.5" y="-425" font-family="Helvetica,sans-Serif" font-size="10.00">+ ObservedProp()</text>
<text text-anchor="start" x="105.5" y="-414" font-family="Helvetica,sans-Serif" font-size="10.00">+ UnobservedProp()</text>
<text text-anchor="start" x="105.5" y="-403" font-family="Helvetica,sans-Serif" font-size="10.00">+ Perturbation()</text>
<text text-anchor="start" x="105.5" y="-392" font-family="Helvetica,sans-Serif" font-size="10.00">+ W()</text>
<text text-anchor="start" x="105.5" y="-381" font-family="Helvetica,sans-Serif" font-size="10.00">+ Print()</text>
<text text-anchor="middle" x="167" y="-370" font-family="Helvetica,sans-Serif" font-size="10.00">}</text>
</a>
</g>
</g>
<!-- Node5&#45;&gt;Node2 -->
<g id="edge4" class="edge">
<title>Node5&#45;&gt;Node2</title>
<path fill="none" stroke="#404040" d="M140.77,-362.82C137.21,-351.2 133.58,-339.34 130.09,-327.92"/>
<polygon fill="none" stroke="#404040" points="130.01,-327.67 124.43,-323.11 126.5,-316.2 132.08,-320.77 130.01,-327.67"/>
<text text-anchor="middle" x="165" y="-337" font-family="Helvetica,sans-Serif" font-size="10.00"> +fStatTensor</text>
</g>
</g>
</svg>
