<?xml version="1.0" encoding="UTF-8" standalone="no"?>
<!DOCTYPE svg PUBLIC "-//W3C//DTD SVG 1.1//EN"
 "http://www.w3.org/Graphics/SVG/1.1/DTD/svg11.dtd">
<!-- Generated by graphviz version 6.0.2 (20221011.1828)
 -->
<!-- Title: GamR::Nucleus::LevelSchemeFitter::State::ExecuteEvent Pages: 1 -->
<svg width="553pt" height="67pt"
 viewBox="0.00 0.00 553.00 67.00" xmlns="http://www.w3.org/2000/svg" xmlns:xlink="http://www.w3.org/1999/xlink">
<g id="graph0" class="graph" transform="scale(1 1) rotate(0) translate(4 63)">
<title>GamR::Nucleus::LevelSchemeFitter::State::ExecuteEvent</title>
<!-- Node1 -->
<g id="node1" class="node">
<title>Node1</title>
<g id="a_node1"><a xlink:title=" ">
<polygon fill="#999999" stroke="#666666" points="149,-44.5 0,-44.5 0,-14.5 149,-14.5 149,-44.5"/>
<text text-anchor="start" x="8" y="-32.5" font-family="Helvetica,sans-Serif" font-size="10.00">GamR::Nucleus::LevelScheme</text>
<text text-anchor="middle" x="74.5" y="-21.5" font-family="Helvetica,sans-Serif" font-size="10.00">Fitter::State::ExecuteEvent</text>
</a>
</g>
</g>
<!-- Node2 -->
<g id="node2" class="node">
<title>Node2</title>
<g id="a_node2"><a xlink:href="../../d3/d4b/class_gam_r_1_1_nucleus_1_1_level_scheme_fitter_1_1_state.html#a062dd0dec8beb4be1b22ac0cba205a10" target="_top" xlink:title=" ">
<polygon fill="white" stroke="#666666" points="341,-44.5 185,-44.5 185,-14.5 341,-14.5 341,-44.5"/>
<text text-anchor="start" x="193" y="-32.5" font-family="Helvetica,sans-Serif" font-size="10.00">GamR::Nucleus::LevelScheme</text>
<text text-anchor="middle" x="263" y="-21.5" font-family="Helvetica,sans-Serif" font-size="10.00">Fitter::State::DistancetoPrimitive</text>
</a>
</g>
</g>
<!-- Node1&#45;&gt;Node2 -->
<g id="edge1" class="edge">
<title>Node1&#45;&gt;Node2</title>
<path fill="none" stroke="#63b8ff" d="M149.21,-29.5C157.63,-29.5 166.26,-29.5 174.83,-29.5"/>
<polygon fill="#63b8ff" stroke="#63b8ff" points="174.84,-33 184.84,-29.5 174.84,-26 174.84,-33"/>
</g>
<!-- Node3 -->
<g id="node3" class="node">
<title>Node3</title>
<g id="a_node3"><a xlink:href="../../d0/d17/_abbreviations_8cc.html#addb21d32acc58c64bf98c616bebe77fc" target="_top" xlink:title=" ">
<polygon fill="white" stroke="#666666" points="406,-59 377,-59 377,-40 406,-40 406,-59"/>
<text text-anchor="middle" x="391.5" y="-47" font-family="Helvetica,sans-Serif" font-size="10.00">px</text>
</a>
</g>
</g>
<!-- Node1&#45;&gt;Node3 -->
<g id="edge6" class="edge">
<title>Node1&#45;&gt;Node3</title>
<path fill="none" stroke="#63b8ff" d="M133.08,-44.56C149.71,-48.24 167.97,-51.66 185,-53.5 253.93,-60.97 271.72,-56.29 341,-53.5 349.29,-53.17 358.35,-52.52 366.42,-51.84"/>
<polygon fill="#63b8ff" stroke="#63b8ff" points="367,-55.3 376.65,-50.92 366.38,-48.33 367,-55.3"/>
</g>
<!-- Node5 -->
<g id="node5" class="node">
<title>Node5</title>
<g id="a_node5"><a xlink:href="../../d0/d17/_abbreviations_8cc.html#ada52d00d8b5e1ca20ee1be4110ac3175" target="_top" xlink:title=" ">
<polygon fill="white" stroke="#666666" points="406,-19 377,-19 377,0 406,0 406,-19"/>
<text text-anchor="middle" x="391.5" y="-7" font-family="Helvetica,sans-Serif" font-size="10.00">py</text>
</a>
</g>
</g>
<!-- Node1&#45;&gt;Node5 -->
<g id="edge7" class="edge">
<title>Node1&#45;&gt;Node5</title>
<path fill="none" stroke="#63b8ff" d="M133.08,-14.44C149.71,-10.76 167.97,-7.34 185,-5.5 253.93,1.97 271.72,-2.71 341,-5.5 349.29,-5.83 358.35,-6.48 366.42,-7.16"/>
<polygon fill="#63b8ff" stroke="#63b8ff" points="366.38,-10.67 376.65,-8.08 367,-3.7 366.38,-10.67"/>
</g>
<!-- Node2&#45;&gt;Node3 -->
<g id="edge2" class="edge">
<title>Node2&#45;&gt;Node3</title>
<path fill="none" stroke="#63b8ff" d="M341.23,-41.71C350.49,-43.17 359.33,-44.57 366.9,-45.77"/>
<polygon fill="#63b8ff" stroke="#63b8ff" points="366.56,-49.26 376.99,-47.36 367.66,-42.35 366.56,-49.26"/>
</g>
<!-- Node2&#45;&gt;Node5 -->
<g id="edge4" class="edge">
<title>Node2&#45;&gt;Node5</title>
<path fill="none" stroke="#63b8ff" d="M341.23,-17.29C350.49,-15.83 359.33,-14.43 366.9,-13.23"/>
<polygon fill="#63b8ff" stroke="#63b8ff" points="367.66,-16.65 376.99,-11.64 366.56,-9.74 367.66,-16.65"/>
</g>
<!-- Node4 -->
<g id="node4" class="node">
<title>Node4</title>
<g id="a_node4"><a xlink:href="../../dc/d89/namespace_gam_r_1_1_spect.html#aab35a8f2d75f6fd8f3175f37c4f5f0cd" target="_top" xlink:title=" ">
<polygon fill="white" stroke="#666666" points="545,-59 442,-59 442,-40 545,-40 545,-59"/>
<text text-anchor="middle" x="493.5" y="-47" font-family="Helvetica,sans-Serif" font-size="10.00">GamR::Spect::ProjX</text>
</a>
</g>
</g>
<!-- Node3&#45;&gt;Node4 -->
<g id="edge3" class="edge">
<title>Node3&#45;&gt;Node4</title>
<path fill="none" stroke="#63b8ff" d="M406.4,-49.5C413.26,-49.5 422.06,-49.5 431.4,-49.5"/>
<polygon fill="#63b8ff" stroke="#63b8ff" points="431.69,-53 441.69,-49.5 431.69,-46 431.69,-53"/>
</g>
<!-- Node6 -->
<g id="node6" class="node">
<title>Node6</title>
<g id="a_node6"><a xlink:href="../../dc/d89/namespace_gam_r_1_1_spect.html#a16ff9da3440d1c99c085b58a70b447b9" target="_top" xlink:title=" ">
<polygon fill="white" stroke="#666666" points="545,-19 442,-19 442,0 545,0 545,-19"/>
<text text-anchor="middle" x="493.5" y="-7" font-family="Helvetica,sans-Serif" font-size="10.00">GamR::Spect::ProjY</text>
</a>
</g>
</g>
<!-- Node5&#45;&gt;Node6 -->
<g id="edge5" class="edge">
<title>Node5&#45;&gt;Node6</title>
<path fill="none" stroke="#63b8ff" d="M406.4,-9.5C413.26,-9.5 422.06,-9.5 431.4,-9.5"/>
<polygon fill="#63b8ff" stroke="#63b8ff" points="431.69,-13 441.69,-9.5 431.69,-6 431.69,-13"/>
</g>
</g>
</svg>
