<?xml version="1.0" encoding="UTF-8" standalone="no"?>
<!DOCTYPE svg PUBLIC "-//W3C//DTD SVG 1.1//EN"
 "http://www.w3.org/Graphics/SVG/1.1/DTD/svg11.dtd">
<!-- Generated by graphviz version 8.1.0 (20230707.0739)
 -->
<!-- Title: src/lib/spect/Display.hh Pages: 1 -->
<svg width="445pt" height="138pt"
 viewBox="0.00 0.00 445.00 137.75" xmlns="http://www.w3.org/2000/svg" xmlns:xlink="http://www.w3.org/1999/xlink">
<g id="graph0" class="graph" transform="scale(1 1) rotate(0) translate(4 133.75)">
<title>src/lib/spect/Display.hh</title>
<!-- Node1 -->
<g id="Node000001" class="node">
<title>Node1</title>
<g id="a_Node000001"><a xlink:title=" ">
<polygon fill="#999999" stroke="#666666" points="289.62,-129.75 173.12,-129.75 173.12,-110.5 289.62,-110.5 289.62,-129.75"/>
<text text-anchor="middle" x="231.38" y="-116.25" font-family="Helvetica,sans-Serif" font-size="10.00">src/lib/spect/Display.hh</text>
</a>
</g>
</g>
<!-- Node2 -->
<g id="Node000002" class="node">
<title>Node2</title>
<g id="a_Node000002"><a xlink:href="../../d0/d68/_abbreviations_8hh.html" target="_top" xlink:title=" ">
<polygon fill="white" stroke="#666666" points="154.75,-74.5 0,-74.5 0,-55.25 154.75,-55.25 154.75,-74.5"/>
<text text-anchor="middle" x="77.38" y="-61" font-family="Helvetica,sans-Serif" font-size="10.00">src/lib/abbrevs/Abbreviations.hh</text>
</a>
</g>
</g>
<!-- Node1&#45;&gt;Node2 -->
<g id="edge1_Node000001_Node000002" class="edge">
<title>Node1&#45;&gt;Node2</title>
<g id="a_edge1_Node000001_Node000002"><a xlink:title=" ">
<path fill="none" stroke="#63b8ff" d="M195.04,-106.56C166.96,-96.85 128.78,-83.65 103.63,-74.95"/>
<polygon fill="#63b8ff" stroke="#63b8ff" points="193.66,-110.13 204.25,-110.09 195.94,-103.52 193.66,-110.13"/>
</a>
</g>
</g>
<!-- Node4 -->
<g id="Node000004" class="node">
<title>Node4</title>
<g id="a_Node000004"><a xlink:href="../../d4/def/_display_8cc.html" target="_top" xlink:title=" ">
<polygon fill="white" stroke="#666666" points="289.62,-74.5 173.12,-74.5 173.12,-55.25 289.62,-55.25 289.62,-74.5"/>
<text text-anchor="middle" x="231.38" y="-61" font-family="Helvetica,sans-Serif" font-size="10.00">src/lib/spect/Display.cc</text>
</a>
</g>
</g>
<!-- Node1&#45;&gt;Node4 -->
<g id="edge3_Node000001_Node000004" class="edge">
<title>Node1&#45;&gt;Node4</title>
<g id="a_edge3_Node000001_Node000004"><a xlink:title=" ">
<path fill="none" stroke="#63b8ff" d="M231.38,-99.46C231.38,-91.02 231.38,-81.58 231.38,-74.86"/>
<polygon fill="#63b8ff" stroke="#63b8ff" points="227.88,-99.33 231.38,-109.33 234.88,-99.33 227.88,-99.33"/>
</a>
</g>
</g>
<!-- Node5 -->
<g id="Node000005" class="node">
<title>Node5</title>
<g id="a_Node000005"><a xlink:href="../../d2/dec/_transform_8cc.html" target="_top" xlink:title=" ">
<polygon fill="white" stroke="#666666" points="437,-74.5 307.75,-74.5 307.75,-55.25 437,-55.25 437,-74.5"/>
<text text-anchor="middle" x="372.38" y="-61" font-family="Helvetica,sans-Serif" font-size="10.00">src/lib/spect/Transform.cc</text>
</a>
</g>
</g>
<!-- Node1&#45;&gt;Node5 -->
<g id="edge4_Node000001_Node000005" class="edge">
<title>Node1&#45;&gt;Node5</title>
<g id="a_edge4_Node000001_Node000005"><a xlink:title=" ">
<path fill="none" stroke="#63b8ff" d="M265.33,-106.3C290.96,-96.62 325.51,-83.57 348.34,-74.95"/>
<polygon fill="#63b8ff" stroke="#63b8ff" points="264.41,-103.28 256.29,-110.09 266.89,-109.83 264.41,-103.28"/>
</a>
</g>
</g>
<!-- Node3 -->
<g id="Node000003" class="node">
<title>Node3</title>
<g id="a_Node000003"><a xlink:href="../../d0/d17/_abbreviations_8cc.html" target="_top" xlink:title=" ">
<polygon fill="white" stroke="#666666" points="154.75,-19.25 0,-19.25 0,0 154.75,0 154.75,-19.25"/>
<text text-anchor="middle" x="77.38" y="-5.75" font-family="Helvetica,sans-Serif" font-size="10.00">src/lib/abbrevs/Abbreviations.cc</text>
</a>
</g>
</g>
<!-- Node2&#45;&gt;Node3 -->
<g id="edge2_Node000002_Node000003" class="edge">
<title>Node2&#45;&gt;Node3</title>
<g id="a_edge2_Node000002_Node000003"><a xlink:title=" ">
<path fill="none" stroke="#63b8ff" d="M77.38,-44.21C77.38,-35.77 77.38,-26.33 77.38,-19.61"/>
<polygon fill="#63b8ff" stroke="#63b8ff" points="73.88,-44.08 77.38,-54.08 80.88,-44.08 73.88,-44.08"/>
</a>
</g>
</g>
</g>
</svg>
