<?xml version="1.0" encoding="UTF-8" standalone="no"?>
<!DOCTYPE svg PUBLIC "-//W3C//DTD SVG 1.1//EN"
 "http://www.w3.org/Graphics/SVG/1.1/DTD/svg11.dtd">
<!-- Generated by graphviz version 6.0.2 (20221011.1828)
 -->
<!-- Title: GamR::AngDist::AngCorrFit::Fit Pages: 1 -->
<!--zoomable 258 -->
<svg id="main" version="1.1" xmlns="http://www.w3.org/2000/svg" xmlns:xlink="http://www.w3.org/1999/xlink" xml:space="preserve" onload="init(evt)">
<style type="text/css"><![CDATA[
.edge:hover path { stroke: red; }
.edge:hover polygon { stroke: red; fill: red; }
]]></style>
<script type="text/javascript"><![CDATA[
var edges = document.getElementsByTagName('g');
if (edges && edges.length) {
  for (var i=0;i<edges.length;i++) {
    if (edges[i].id.substr(0,4)=='edge') {
      edges[i].setAttribute('class','edge');
    }
  }
}
]]></script>
        <defs>
                <circle id="rim" cx="0" cy="0" r="7"/>
                <circle id="rim2" cx="0" cy="0" r="3.5"/>
                <g id="zoomPlus">
                        <use xlink:href="#rim" fill="#404040">
                                <set attributeName="fill" to="#808080" begin="zoomplus.mouseover" end="zoomplus.mouseout"/>
                        </use>
                        <path d="M-4,0h8M0,-4v8" fill="none" stroke="white" stroke-width="1.5" pointer-events="none"/>
                </g>
                <g id="zoomMin">
                        <use xlink:href="#rim" fill="#404040">
                                <set attributeName="fill" to="#808080" begin="zoomminus.mouseover" end="zoomminus.mouseout"/>
                        </use>
                        <path d="M-4,0h8" fill="none" stroke="white" stroke-width="1.5" pointer-events="none"/>
                </g>
                <g id="dirArrow">
                        <path fill="none" stroke="white" stroke-width="1.5" d="M0,-3.0v7 M-2.5,-0.5L0,-3.0L2.5,-0.5"/>
                </g>
               <g id="resetDef">
                       <use xlink:href="#rim2" fill="#404040">
                               <set attributeName="fill" to="#808080" begin="reset.mouseover" end="reset.mouseout"/>
                       </use>
               </g>
        </defs>

<script type="text/javascript">
var viewWidth = 674;
var viewHeight = 258;
var sectionId = 'dynsection-9';
</script>
<script xlink:href="../../svgpan.js"/>
<svg id="graph" class="graph">
<g id="viewport">
<title>GamR::AngDist::AngCorrFit::Fit</title>
<!-- Node1 -->
<g id="node1" class="node">
<title>Node1</title>
<g id="a_node1"><a xlink:title=" ">
<polygon fill="#999999" stroke="#666666" points="150,-134.5 0,-134.5 0,-115.5 150,-115.5 150,-134.5"/>
<text text-anchor="middle" x="75" y="-122.5" font-family="Helvetica,sans-Serif" font-size="10.00">GamR::AngDist::AngCorrFit::Fit</text>
</a>
</g>
</g>
<!-- Node2 -->
<g id="node2" class="node">
<title>Node2</title>
<g id="a_node2"><a xlink:href="../../d2/da9/class_gam_r_1_1_ang_dist_1_1_ang_corr_fit.html#aea5839b405c7bdc201f23fb609acad5a" target="_top" xlink:title=" ">
<polygon fill="white" stroke="#666666" points="320,-250 186,-250 186,-220 320,-220 320,-250"/>
<text text-anchor="start" x="194" y="-238" font-family="Helvetica,sans-Serif" font-size="10.00">GamR::AngDist::AngCorrFit</text>
<text text-anchor="middle" x="253" y="-227" font-family="Helvetica,sans-Serif" font-size="10.00">::Average</text>
</a>
</g>
</g>
<!-- Node1&#45;&gt;Node2 -->
<g id="edge1" class="edge">
<title>Node1&#45;&gt;Node2</title>
<path fill="none" stroke="#63b8ff" d="M86.13,-134.75C104.64,-152.11 145.72,-188.67 186,-211 189.02,-212.68 192.19,-214.28 195.42,-215.79"/>
<polygon fill="#63b8ff" stroke="#63b8ff" points="194.11,-219.04 204.68,-219.86 196.93,-212.63 194.11,-219.04"/>
</g>
<!-- Node4 -->
<g id="node4" class="node">
<title>Node4</title>
<g id="a_node4"><a xlink:href="../../d2/da9/class_gam_r_1_1_ang_dist_1_1_ang_corr_fit.html#ae8da376a3b1939de1ca2df5a88c830c6" target="_top" xlink:title=" ">
<polygon fill="white" stroke="#666666" points="320,-202 186,-202 186,-172 320,-172 320,-202"/>
<text text-anchor="start" x="194" y="-190" font-family="Helvetica,sans-Serif" font-size="10.00">GamR::AngDist::AngCorrFit</text>
<text text-anchor="middle" x="253" y="-179" font-family="Helvetica,sans-Serif" font-size="10.00">::GetGraph</text>
</a>
</g>
</g>
<!-- Node1&#45;&gt;Node4 -->
<g id="edge3" class="edge">
<title>Node1&#45;&gt;Node4</title>
<path fill="none" stroke="#63b8ff" d="M103.11,-134.55C128.72,-143.57 167.81,-157.34 199.51,-168.51"/>
<polygon fill="#63b8ff" stroke="#63b8ff" points="198.5,-171.86 209.09,-171.88 200.82,-165.26 198.5,-171.86"/>
</g>
<!-- Node5 -->
<g id="node5" class="node">
<title>Node5</title>
<g id="a_node5"><a xlink:href="../../d0/d17/_abbreviations_8cc.html#abfd2dbc0c115ba48ef99c0b72edfce7a" target="_top" xlink:title=" ">
<polygon fill="white" stroke="#666666" points="267.5,-153.5 238.5,-153.5 238.5,-134.5 267.5,-134.5 267.5,-153.5"/>
<text text-anchor="middle" x="253" y="-141.5" font-family="Helvetica,sans-Serif" font-size="10.00">ig</text>
</a>
</g>
</g>
<!-- Node1&#45;&gt;Node5 -->
<g id="edge5" class="edge">
<title>Node1&#45;&gt;Node5</title>
<path fill="none" stroke="#63b8ff" d="M150.13,-133C178.19,-136.03 208.18,-139.27 228.3,-141.44"/>
<polygon fill="#63b8ff" stroke="#63b8ff" points="228.07,-144.94 238.39,-142.53 228.82,-137.98 228.07,-144.94"/>
</g>
<!-- Node9 -->
<g id="node9" class="node">
<title>Node9</title>
<g id="a_node9"><a xlink:href="../../da/d73/class_gam_r_1_1_ang_dist_1_1_ang_corr.html#a5820aca3c27eca5ac487a83c958076f7" target="_top" xlink:title=" ">
<polygon fill="white" stroke="#666666" points="484.5,-78 361.5,-78 361.5,-48 484.5,-48 484.5,-78"/>
<text text-anchor="start" x="369.5" y="-66" font-family="Helvetica,sans-Serif" font-size="10.00">GamR::AngDist::AngCorr</text>
<text text-anchor="middle" x="423" y="-55" font-family="Helvetica,sans-Serif" font-size="10.00">::Mixed</text>
</a>
</g>
</g>
<!-- Node1&#45;&gt;Node9 -->
<g id="edge9" class="edge">
<title>Node1&#45;&gt;Node9</title>
<path fill="none" stroke="#63b8ff" d="M146.46,-115.49C195.33,-108.53 261.83,-98.36 320,-87 330.22,-85.01 340.96,-82.7 351.49,-80.33"/>
<polygon fill="#63b8ff" stroke="#63b8ff" points="352.52,-83.69 361.49,-78.04 350.96,-76.86 352.52,-83.69"/>
</g>
<!-- Node10 -->
<g id="node10" class="node">
<title>Node10</title>
<g id="a_node10"><a xlink:href="../../da/d73/class_gam_r_1_1_ang_dist_1_1_ang_corr.html#ad883a52cf63a6ee2b4bfbdd133c6d145" target="_top" xlink:title=" ">
<polygon fill="white" stroke="#666666" points="314.5,-78 191.5,-78 191.5,-48 314.5,-48 314.5,-78"/>
<text text-anchor="start" x="199.5" y="-66" font-family="Helvetica,sans-Serif" font-size="10.00">GamR::AngDist::AngCorr</text>
<text text-anchor="middle" x="253" y="-55" font-family="Helvetica,sans-Serif" font-size="10.00">::Mixed1</text>
</a>
</g>
</g>
<!-- Node1&#45;&gt;Node10 -->
<g id="edge10" class="edge">
<title>Node1&#45;&gt;Node10</title>
<path fill="none" stroke="#63b8ff" d="M103.11,-115.45C128.72,-106.43 167.81,-92.66 199.51,-81.49"/>
<polygon fill="#63b8ff" stroke="#63b8ff" points="200.82,-84.74 209.09,-78.12 198.5,-78.14 200.82,-84.74"/>
</g>
<!-- Node11 -->
<g id="node11" class="node">
<title>Node11</title>
<g id="a_node11"><a xlink:href="../../da/d73/class_gam_r_1_1_ang_dist_1_1_ang_corr.html#a2ce08f5274d4e7b9467b7dfd65831a73" target="_top" xlink:title=" ">
<polygon fill="white" stroke="#666666" points="314.5,-30 191.5,-30 191.5,0 314.5,0 314.5,-30"/>
<text text-anchor="start" x="199.5" y="-18" font-family="Helvetica,sans-Serif" font-size="10.00">GamR::AngDist::AngCorr</text>
<text text-anchor="middle" x="253" y="-7" font-family="Helvetica,sans-Serif" font-size="10.00">::Mixed2</text>
</a>
</g>
</g>
<!-- Node1&#45;&gt;Node11 -->
<g id="edge12" class="edge">
<title>Node1&#45;&gt;Node11</title>
<path fill="none" stroke="#63b8ff" d="M86.13,-115.25C104.64,-97.89 145.72,-61.33 186,-39 189.02,-37.32 192.19,-35.72 195.42,-34.21"/>
<polygon fill="#63b8ff" stroke="#63b8ff" points="196.93,-37.37 204.68,-30.14 194.11,-30.96 196.93,-37.37"/>
</g>
<!-- Node3 -->
<g id="node3" class="node">
<title>Node3</title>
<g id="a_node3"><a xlink:href="../../d2/da9/class_gam_r_1_1_ang_dist_1_1_ang_corr_fit.html#a4d81cebc9b14541b49741fdc1e705345" target="_top" xlink:title=" ">
<polygon fill="white" stroke="#666666" points="490,-226 356,-226 356,-196 490,-196 490,-226"/>
<text text-anchor="start" x="364" y="-214" font-family="Helvetica,sans-Serif" font-size="10.00">GamR::AngDist::AngCorrFit</text>
<text text-anchor="middle" x="423" y="-203" font-family="Helvetica,sans-Serif" font-size="10.00">::GetNPoints</text>
</a>
</g>
</g>
<!-- Node2&#45;&gt;Node3 -->
<g id="edge2" class="edge">
<title>Node2&#45;&gt;Node3</title>
<path fill="none" stroke="#63b8ff" d="M320.4,-225.51C328.77,-224.32 337.39,-223.09 345.89,-221.87"/>
<polygon fill="#63b8ff" stroke="#63b8ff" points="346.4,-225.33 355.81,-220.46 345.41,-218.41 346.4,-225.33"/>
</g>
<!-- Node4&#45;&gt;Node3 -->
<g id="edge4" class="edge">
<title>Node4&#45;&gt;Node3</title>
<path fill="none" stroke="#63b8ff" d="M320.4,-196.49C328.77,-197.68 337.39,-198.91 345.89,-200.13"/>
<polygon fill="#63b8ff" stroke="#63b8ff" points="345.41,-203.59 355.81,-201.54 346.4,-196.67 345.41,-203.59"/>
</g>
<!-- Node6 -->
<g id="node6" class="node">
<title>Node6</title>
<g id="a_node6"><a xlink:href="../../dc/d89/namespace_gam_r_1_1_spect.html#afbcb55a2fec43bce818cc083d4ce1a67" target="_top" xlink:title=" ">
<polygon fill="white" stroke="#666666" points="478.5,-153.5 367.5,-153.5 367.5,-134.5 478.5,-134.5 478.5,-153.5"/>
<text text-anchor="middle" x="423" y="-141.5" font-family="Helvetica,sans-Serif" font-size="10.00">GamR::Spect::Integral</text>
</a>
</g>
</g>
<!-- Node5&#45;&gt;Node6 -->
<g id="edge6" class="edge">
<title>Node5&#45;&gt;Node6</title>
<path fill="none" stroke="#63b8ff" d="M267.75,-144C287.28,-144 324.34,-144 357.24,-144"/>
<polygon fill="#63b8ff" stroke="#63b8ff" points="357.3,-147.5 367.3,-144 357.3,-140.5 357.3,-147.5"/>
</g>
<!-- Node7 -->
<g id="node7" class="node">
<title>Node7</title>
<g id="a_node7"><a xlink:href="../../d0/d74/group___t_k.html#gaae543a7d595e5faacbfb4da05718e3f3" target="_top" xlink:title=" ">
<polygon fill="white" stroke="#666666" points="666,-174.5 526,-174.5 526,-155.5 666,-155.5 666,-174.5"/>
<text text-anchor="middle" x="596" y="-162.5" font-family="Helvetica,sans-Serif" font-size="10.00">GamR::TK::Gate::GetIntegral</text>
</a>
</g>
</g>
<!-- Node6&#45;&gt;Node7 -->
<g id="edge7" class="edge">
<title>Node6&#45;&gt;Node7</title>
<path fill="none" stroke="#63b8ff" d="M478.58,-150.7C490.45,-152.16 503.25,-153.73 515.86,-155.28"/>
<polygon fill="#63b8ff" stroke="#63b8ff" points="515.56,-158.77 525.92,-156.52 516.42,-151.82 515.56,-158.77"/>
</g>
<!-- Node8 -->
<g id="node8" class="node">
<title>Node8</title>
<g id="a_node8"><a xlink:href="../../d0/d74/group___t_k.html#gaa69e554368ffbdbf2a5aa6cb6828e52b" target="_top" xlink:title=" ">
<polygon fill="white" stroke="#666666" points="666,-137 526,-137 526,-107 666,-107 666,-137"/>
<text text-anchor="start" x="534" y="-125" font-family="Helvetica,sans-Serif" font-size="10.00">GamR::TK::Gate::GetIntegral</text>
<text text-anchor="middle" x="596" y="-114" font-family="Helvetica,sans-Serif" font-size="10.00">Error</text>
</a>
</g>
</g>
<!-- Node6&#45;&gt;Node8 -->
<g id="edge8" class="edge">
<title>Node6&#45;&gt;Node8</title>
<path fill="none" stroke="#63b8ff" d="M478.58,-136.98C490.45,-135.45 503.25,-133.8 515.86,-132.18"/>
<polygon fill="#63b8ff" stroke="#63b8ff" points="516.44,-135.64 525.92,-130.89 515.55,-128.69 516.44,-135.64"/>
</g>
<!-- Node10&#45;&gt;Node9 -->
<g id="edge11" class="edge">
<title>Node10&#45;&gt;Node9</title>
<path fill="none" stroke="#63b8ff" d="M314.65,-63C326.55,-63 339.12,-63 351.31,-63"/>
<polygon fill="#63b8ff" stroke="#63b8ff" points="351.44,-66.5 361.44,-63 351.44,-59.5 351.44,-66.5"/>
</g>
<!-- Node11&#45;&gt;Node9 -->
<g id="edge13" class="edge">
<title>Node11&#45;&gt;Node9</title>
<path fill="none" stroke="#63b8ff" d="M306.7,-30.06C323.43,-34.84 342.09,-40.17 359.45,-45.13"/>
<polygon fill="#63b8ff" stroke="#63b8ff" points="358.91,-48.62 369.49,-48 360.84,-41.89 358.91,-48.62"/>
</g>
</g>
</svg>
        <g id="navigator" transform="translate(0 0)" fill="#404254">
                <rect fill="#f2f5e9" fill-opacity="0.5" stroke="#606060" stroke-width=".5" x="0" y="0" width="60" height="60"/>
                <use id="zoomplus" xlink:href="#zoomPlus" x="17" y="9" onmousedown="handleZoom(evt,'in')"/>
                <use id="zoomminus" xlink:href="#zoomMin" x="42" y="9" onmousedown="handleZoom(evt,'out')"/>
                <use id="reset" xlink:href="#resetDef" x="30" y="36" onmousedown="handleReset()"/>
                <g id="arrowUp" xlink:href="#dirArrow" transform="translate(30 24)" onmousedown="handlePan(0,-1)">
                  <use xlink:href="#rim" fill="#404040">
                        <set attributeName="fill" to="#808080" begin="arrowUp.mouseover" end="arrowUp.mouseout"/>
                  </use>
                  <path fill="none" stroke="white" stroke-width="1.5" d="M0,-3.0v7 M-2.5,-0.5L0,-3.0L2.5,-0.5"/>
                </g>
                <g id="arrowRight" xlink:href="#dirArrow" transform="rotate(90) translate(36 -43)" onmousedown="handlePan(1,0)">
                  <use xlink:href="#rim" fill="#404040">
                        <set attributeName="fill" to="#808080" begin="arrowRight.mouseover" end="arrowRight.mouseout"/>
                  </use>
                  <path fill="none" stroke="white" stroke-width="1.5" d="M0,-3.0v7 M-2.5,-0.5L0,-3.0L2.5,-0.5"/>
                </g>
                <g id="arrowDown" xlink:href="#dirArrow" transform="rotate(180) translate(-30 -48)" onmousedown="handlePan(0,1)">
                  <use xlink:href="#rim" fill="#404040">
                        <set attributeName="fill" to="#808080" begin="arrowDown.mouseover" end="arrowDown.mouseout"/>
                  </use>
                  <path fill="none" stroke="white" stroke-width="1.5" d="M0,-3.0v7 M-2.5,-0.5L0,-3.0L2.5,-0.5"/>
                </g>
                <g id="arrowLeft" xlink:href="#dirArrow" transform="rotate(270) translate(-36 17)" onmousedown="handlePan(-1,0)">
                  <use xlink:href="#rim" fill="#404040">
                        <set attributeName="fill" to="#808080" begin="arrowLeft.mouseover" end="arrowLeft.mouseout"/>
                  </use>
                  <path fill="none" stroke="white" stroke-width="1.5" d="M0,-3.0v7 M-2.5,-0.5L0,-3.0L2.5,-0.5"/>
                </g>
        </g>
        <svg viewBox="0 0 15 15" width="100%" height="30px" preserveAspectRatio="xMaxYMin meet">
         <g id="arrow_out" transform="scale(0.3 0.3)">
          <a xlink:href="class_gam_r_1_1_ang_dist_1_1_ang_corr_fit_afb40b46c8473166d5449b680a03eed79_cgraph_org.svg" target="_base">
           <rect id="button" ry="5" rx="5" y="6" x="6" height="38" width="38"
                fill="#f2f5e9" fill-opacity="0.5" stroke="#606060" stroke-width="1.0"/>
           <path id="arrow"
             d="M 11.500037,31.436501 C 11.940474,20.09759 22.043105,11.32322 32.158766,21.979434 L 37.068811,17.246167 C 37.068811,17.246167 37.088388,32 37.088388,32 L 22.160133,31.978069 C 22.160133,31.978069 26.997745,27.140456 26.997745,27.140456 C 18.528582,18.264221 13.291696,25.230495 11.500037,31.436501 z"
             style="fill:#404040;"/>
          </a>
         </g>
        </svg>
</svg>
