<?xml version="1.0" encoding="UTF-8" standalone="no"?>
<!DOCTYPE svg PUBLIC "-//W3C//DTD SVG 1.1//EN"
 "http://www.w3.org/Graphics/SVG/1.1/DTD/svg11.dtd">
<!-- Generated by graphviz version 8.1.0 (20230707.0739)
 -->
<!-- Title: GamR::AngDist::AngCorrFit::Fit Pages: 1 -->
<svg width="672pt" height="261pt"
 viewBox="0.00 0.00 672.00 260.50" xmlns="http://www.w3.org/2000/svg" xmlns:xlink="http://www.w3.org/1999/xlink">
<g id="graph0" class="graph" transform="scale(1 1) rotate(0) translate(4 256.5)">
<title>GamR::AngDist::AngCorrFit::Fit</title>
<!-- Node1 -->
<g id="Node000001" class="node">
<title>Node1</title>
<g id="a_Node000001"><a xlink:title=" ">
<polygon fill="#999999" stroke="#666666" points="149.5,-135.88 0,-135.88 0,-116.62 149.5,-116.62 149.5,-135.88"/>
<text text-anchor="middle" x="74.75" y="-122.38" font-family="Helvetica,sans-Serif" font-size="10.00">GamR::AngDist::AngCorrFit::Fit</text>
</a>
</g>
</g>
<!-- Node2 -->
<g id="Node000002" class="node">
<title>Node2</title>
<g id="a_Node000002"><a xlink:href="../../d2/da9/class_gam_r_1_1_ang_dist_1_1_ang_corr_fit.html#aea5839b405c7bdc201f23fb609acad5a" target="_top" xlink:title=" ">
<polygon fill="white" stroke="#666666" points="319.25,-252.5 185.5,-252.5 185.5,-222 319.25,-222 319.25,-252.5"/>
<text text-anchor="start" x="193.5" y="-239" font-family="Helvetica,sans-Serif" font-size="10.00">GamR::AngDist::AngCorrFit</text>
<text text-anchor="middle" x="252.38" y="-227.75" font-family="Helvetica,sans-Serif" font-size="10.00">::Average</text>
</a>
</g>
</g>
<!-- Node1&#45;&gt;Node2 -->
<g id="edge1_Node000001_Node000002" class="edge">
<title>Node1&#45;&gt;Node2</title>
<g id="a_edge1_Node000001_Node000002"><a xlink:title=" ">
<path fill="none" stroke="#63b8ff" d="M86.18,-136.22C104.82,-153.61 145.65,-189.77 185.5,-212.25 188.54,-213.96 191.71,-215.6 194.96,-217.17"/>
<polygon fill="#63b8ff" stroke="#63b8ff" points="193.3,-220.71 203.85,-221.63 196.17,-214.33 193.3,-220.71"/>
</a>
</g>
</g>
<!-- Node4 -->
<g id="Node000004" class="node">
<title>Node4</title>
<g id="a_Node000004"><a xlink:href="../../d2/da9/class_gam_r_1_1_ang_dist_1_1_ang_corr_fit.html#ae8da376a3b1939de1ca2df5a88c830c6" target="_top" xlink:title=" ">
<polygon fill="white" stroke="#666666" points="319.25,-203.5 185.5,-203.5 185.5,-173 319.25,-173 319.25,-203.5"/>
<text text-anchor="start" x="193.5" y="-190" font-family="Helvetica,sans-Serif" font-size="10.00">GamR::AngDist::AngCorrFit</text>
<text text-anchor="middle" x="252.38" y="-178.75" font-family="Helvetica,sans-Serif" font-size="10.00">::GetGraph</text>
</a>
</g>
</g>
<!-- Node1&#45;&gt;Node4 -->
<g id="edge3_Node000001_Node000004" class="edge">
<title>Node1&#45;&gt;Node4</title>
<g id="a_edge3_Node000001_Node000004"><a xlink:title=" ">
<path fill="none" stroke="#63b8ff" d="M104.36,-136.35C129.33,-145.17 166.27,-158.21 196.87,-169.01"/>
<polygon fill="#63b8ff" stroke="#63b8ff" points="195.38,-172.55 205.98,-172.58 197.71,-165.95 195.38,-172.55"/>
</a>
</g>
</g>
<!-- Node5 -->
<g id="Node000005" class="node">
<title>Node5</title>
<g id="a_Node000005"><a xlink:href="../../d0/d17/_abbreviations_8cc.html#abfd2dbc0c115ba48ef99c0b72edfce7a" target="_top" xlink:title=" ">
<polygon fill="white" stroke="#666666" points="266.77,-154.88 237.97,-154.88 237.97,-135.62 266.77,-135.62 266.77,-154.88"/>
<text text-anchor="middle" x="252.38" y="-141.38" font-family="Helvetica,sans-Serif" font-size="10.00">ig</text>
</a>
</g>
</g>
<!-- Node1&#45;&gt;Node5 -->
<g id="edge5_Node000001_Node000005" class="edge">
<title>Node1&#45;&gt;Node5</title>
<g id="a_edge5_Node000001_Node000005"><a xlink:title=" ">
<path fill="none" stroke="#63b8ff" d="M149.98,-134.28C177.39,-137.25 206.62,-140.41 226.62,-142.57"/>
<polygon fill="#63b8ff" stroke="#63b8ff" points="226.19,-146.15 236.51,-143.75 226.95,-139.19 226.19,-146.15"/>
</a>
</g>
</g>
<!-- Node9 -->
<g id="Node000009" class="node">
<title>Node9</title>
<g id="a_Node000009"><a xlink:href="../../da/d73/class_gam_r_1_1_ang_dist_1_1_ang_corr.html#a5820aca3c27eca5ac487a83c958076f7" target="_top" xlink:title=" ">
<polygon fill="white" stroke="#666666" points="483.38,-79.5 360.88,-79.5 360.88,-49 483.38,-49 483.38,-79.5"/>
<text text-anchor="start" x="368.88" y="-66" font-family="Helvetica,sans-Serif" font-size="10.00">GamR::AngDist::AngCorr</text>
<text text-anchor="middle" x="422.12" y="-54.75" font-family="Helvetica,sans-Serif" font-size="10.00">::Mixed</text>
</a>
</g>
</g>
<!-- Node1&#45;&gt;Node9 -->
<g id="edge9_Node000001_Node000009" class="edge">
<title>Node1&#45;&gt;Node9</title>
<g id="a_edge9_Node000001_Node000009"><a xlink:title=" ">
<path fill="none" stroke="#63b8ff" d="M149.8,-116.2C198.19,-109.26 262.67,-99.31 319.25,-88.25 329.18,-86.31 339.6,-84.08 349.84,-81.77"/>
<polygon fill="#63b8ff" stroke="#63b8ff" points="350.45,-85 359.42,-79.36 348.89,-78.17 350.45,-85"/>
</a>
</g>
</g>
<!-- Node10 -->
<g id="Node000010" class="node">
<title>Node10</title>
<g id="a_Node000010"><a xlink:href="../../da/d73/class_gam_r_1_1_ang_dist_1_1_ang_corr.html#ad883a52cf63a6ee2b4bfbdd133c6d145" target="_top" xlink:title=" ">
<polygon fill="white" stroke="#666666" points="313.62,-79.5 191.12,-79.5 191.12,-49 313.62,-49 313.62,-79.5"/>
<text text-anchor="start" x="199.12" y="-66" font-family="Helvetica,sans-Serif" font-size="10.00">GamR::AngDist::AngCorr</text>
<text text-anchor="middle" x="252.38" y="-54.75" font-family="Helvetica,sans-Serif" font-size="10.00">::Mixed1</text>
</a>
</g>
</g>
<!-- Node1&#45;&gt;Node10 -->
<g id="edge10_Node000001_Node000010" class="edge">
<title>Node1&#45;&gt;Node10</title>
<g id="a_edge10_Node000001_Node000010"><a xlink:title=" ">
<path fill="none" stroke="#63b8ff" d="M104.36,-116.15C129.33,-107.33 166.27,-94.29 196.87,-83.49"/>
<polygon fill="#63b8ff" stroke="#63b8ff" points="197.71,-86.55 205.98,-79.92 195.38,-79.95 197.71,-86.55"/>
</a>
</g>
</g>
<!-- Node11 -->
<g id="Node000011" class="node">
<title>Node11</title>
<g id="a_Node000011"><a xlink:href="../../da/d73/class_gam_r_1_1_ang_dist_1_1_ang_corr.html#a2ce08f5274d4e7b9467b7dfd65831a73" target="_top" xlink:title=" ">
<polygon fill="white" stroke="#666666" points="313.62,-30.5 191.12,-30.5 191.12,0 313.62,0 313.62,-30.5"/>
<text text-anchor="start" x="199.12" y="-17" font-family="Helvetica,sans-Serif" font-size="10.00">GamR::AngDist::AngCorr</text>
<text text-anchor="middle" x="252.38" y="-5.75" font-family="Helvetica,sans-Serif" font-size="10.00">::Mixed2</text>
</a>
</g>
</g>
<!-- Node1&#45;&gt;Node11 -->
<g id="edge12_Node000001_Node000011" class="edge">
<title>Node1&#45;&gt;Node11</title>
<g id="a_edge12_Node000001_Node000011"><a xlink:title=" ">
<path fill="none" stroke="#63b8ff" d="M86.18,-116.28C104.82,-98.89 145.65,-62.73 185.5,-40.25 188.54,-38.54 191.71,-36.9 194.96,-35.33"/>
<polygon fill="#63b8ff" stroke="#63b8ff" points="196.17,-38.17 203.85,-30.87 193.3,-31.79 196.17,-38.17"/>
</a>
</g>
</g>
<!-- Node3 -->
<g id="Node000003" class="node">
<title>Node3</title>
<g id="a_Node000003"><a xlink:href="../../d2/da9/class_gam_r_1_1_ang_dist_1_1_ang_corr_fit.html#a4d81cebc9b14541b49741fdc1e705345" target="_top" xlink:title=" ">
<polygon fill="white" stroke="#666666" points="489,-227.5 355.25,-227.5 355.25,-197 489,-197 489,-227.5"/>
<text text-anchor="start" x="363.25" y="-214" font-family="Helvetica,sans-Serif" font-size="10.00">GamR::AngDist::AngCorrFit</text>
<text text-anchor="middle" x="422.12" y="-202.75" font-family="Helvetica,sans-Serif" font-size="10.00">::GetNPoints</text>
</a>
</g>
</g>
<!-- Node2&#45;&gt;Node3 -->
<g id="edge2_Node000002_Node000003" class="edge">
<title>Node2&#45;&gt;Node3</title>
<g id="a_edge2_Node000002_Node000003"><a xlink:title=" ">
<path fill="none" stroke="#63b8ff" d="M319.67,-227.37C327.7,-226.17 335.95,-224.94 344.11,-223.73"/>
<polygon fill="#63b8ff" stroke="#63b8ff" points="344.38,-227.08 353.76,-222.14 343.35,-220.15 344.38,-227.08"/>
</a>
</g>
</g>
<!-- Node4&#45;&gt;Node3 -->
<g id="edge4_Node000004_Node000003" class="edge">
<title>Node4&#45;&gt;Node3</title>
<g id="a_edge4_Node000004_Node000003"><a xlink:title=" ">
<path fill="none" stroke="#63b8ff" d="M319.67,-197.74C327.7,-198.88 335.95,-200.06 344.11,-201.23"/>
<polygon fill="#63b8ff" stroke="#63b8ff" points="343.36,-204.8 353.76,-202.75 344.35,-197.87 343.36,-204.8"/>
</a>
</g>
</g>
<!-- Node6 -->
<g id="Node000006" class="node">
<title>Node6</title>
<g id="a_Node000006"><a xlink:href="../../dc/d89/namespace_gam_r_1_1_spect.html#afbcb55a2fec43bce818cc083d4ce1a67" target="_top" xlink:title=" ">
<polygon fill="white" stroke="#666666" points="477.38,-154.88 366.88,-154.88 366.88,-135.62 477.38,-135.62 477.38,-154.88"/>
<text text-anchor="middle" x="422.12" y="-141.38" font-family="Helvetica,sans-Serif" font-size="10.00">GamR::Spect::Integral</text>
</a>
</g>
</g>
<!-- Node5&#45;&gt;Node6 -->
<g id="edge6_Node000005_Node000006" class="edge">
<title>Node5&#45;&gt;Node6</title>
<g id="a_edge6_Node000005_Node000006"><a xlink:title=" ">
<path fill="none" stroke="#63b8ff" d="M267.1,-145.25C286.44,-145.25 322.98,-145.25 355.62,-145.25"/>
<polygon fill="#63b8ff" stroke="#63b8ff" points="355.5,-148.75 365.5,-145.25 355.5,-141.75 355.5,-148.75"/>
</a>
</g>
</g>
<!-- Node7 -->
<g id="Node000007" class="node">
<title>Node7</title>
<g id="a_Node000007"><a xlink:href="../../d0/d74/group___t_k.html#gaae543a7d595e5faacbfb4da05718e3f3" target="_top" xlink:title=" ">
<polygon fill="white" stroke="#666666" points="664,-175.88 525,-175.88 525,-156.62 664,-156.62 664,-175.88"/>
<text text-anchor="middle" x="594.5" y="-162.38" font-family="Helvetica,sans-Serif" font-size="10.00">GamR::TK::Gate::GetIntegral</text>
</a>
</g>
</g>
<!-- Node6&#45;&gt;Node7 -->
<g id="edge7_Node000006_Node000007" class="edge">
<title>Node6&#45;&gt;Node7</title>
<g id="a_edge7_Node000006_Node000007"><a xlink:title=" ">
<path fill="none" stroke="#63b8ff" d="M477.5,-151.95C489.1,-153.38 501.58,-154.92 513.9,-156.44"/>
<polygon fill="#63b8ff" stroke="#63b8ff" points="513.32,-160.02 523.67,-157.77 514.17,-153.07 513.32,-160.02"/>
</a>
</g>
</g>
<!-- Node8 -->
<g id="Node000008" class="node">
<title>Node8</title>
<g id="a_Node000008"><a xlink:href="../../d0/d74/group___t_k.html#gaa69e554368ffbdbf2a5aa6cb6828e52b" target="_top" xlink:title=" ">
<polygon fill="white" stroke="#666666" points="664,-138.5 525,-138.5 525,-108 664,-108 664,-138.5"/>
<text text-anchor="start" x="533" y="-125" font-family="Helvetica,sans-Serif" font-size="10.00">GamR::TK::Gate::GetIntegral</text>
<text text-anchor="middle" x="594.5" y="-113.75" font-family="Helvetica,sans-Serif" font-size="10.00">Error</text>
</a>
</g>
</g>
<!-- Node6&#45;&gt;Node8 -->
<g id="edge8_Node000006_Node000008" class="edge">
<title>Node6&#45;&gt;Node8</title>
<g id="a_edge8_Node000006_Node000008"><a xlink:title=" ">
<path fill="none" stroke="#63b8ff" d="M477.5,-138.23C489.1,-136.73 501.58,-135.12 513.9,-133.53"/>
<polygon fill="#63b8ff" stroke="#63b8ff" points="514.2,-136.89 523.67,-132.14 513.3,-129.95 514.2,-136.89"/>
</a>
</g>
</g>
<!-- Node10&#45;&gt;Node9 -->
<g id="edge11_Node000010_Node000009" class="edge">
<title>Node10&#45;&gt;Node9</title>
<g id="a_edge11_Node000010_Node000009"><a xlink:title=" ">
<path fill="none" stroke="#63b8ff" d="M313.94,-64.25C325.58,-64.25 337.87,-64.25 349.81,-64.25"/>
<polygon fill="#63b8ff" stroke="#63b8ff" points="349.65,-67.75 359.65,-64.25 349.65,-60.75 349.65,-67.75"/>
</a>
</g>
</g>
<!-- Node11&#45;&gt;Node9 -->
<g id="edge13_Node000011_Node000009" class="edge">
<title>Node11&#45;&gt;Node9</title>
<g id="a_edge13_Node000011_Node000009"><a xlink:title=" ">
<path fill="none" stroke="#63b8ff" d="M306.91,-30.89C322.87,-35.55 340.53,-40.71 357.09,-45.54"/>
<polygon fill="#63b8ff" stroke="#63b8ff" points="355.65,-49.06 366.23,-48.51 357.61,-42.34 355.65,-49.06"/>
</a>
</g>
</g>
</g>
</svg>
