<?xml version="1.0" encoding="UTF-8" standalone="no"?>
<!DOCTYPE svg PUBLIC "-//W3C//DTD SVG 1.1//EN"
 "http://www.w3.org/Graphics/SVG/1.1/DTD/svg11.dtd">
<!-- Generated by graphviz version 12.2.1 (20241206.2353)
 -->
<!-- Title: GamR::AngDist::AngCorrFit::ClassDef Pages: 1 -->
<svg width="873pt" height="162pt"
 viewBox="0.00 0.00 872.50 161.88" xmlns="http://www.w3.org/2000/svg" xmlns:xlink="http://www.w3.org/1999/xlink">
<g id="graph0" class="graph" transform="scale(1 1) rotate(0) translate(4 157.88)">
<title>GamR::AngDist::AngCorrFit::ClassDef</title>
<!-- Node1 -->
<g id="Node000001" class="node">
<title>Node1</title>
<g id="a_Node000001"><a xlink:title=" ">
<polygon fill="#999999" stroke="#666666" points="133.75,-104.88 0,-104.88 0,-74.38 133.75,-74.38 133.75,-104.88"/>
<text text-anchor="start" x="8" y="-91.38" font-family="Helvetica,sans-Serif" font-size="10.00">GamR::AngDist::AngCorrFit</text>
<text text-anchor="middle" x="66.88" y="-80.12" font-family="Helvetica,sans-Serif" font-size="10.00">::ClassDef</text>
</a>
</g>
</g>
<!-- Node2 -->
<g id="Node000002" class="node">
<title>Node2</title>
<g id="a_Node000002"><a xlink:href="../../d2/da9/class_gam_r_1_1_ang_dist_1_1_ang_corr_fit.html#a22cc58bf6eb5d0eda0bc207561b76921" target="_top" xlink:title=" ">
<polygon fill="white" stroke="#666666" points="303.5,-104.88 169.75,-104.88 169.75,-74.38 303.5,-74.38 303.5,-104.88"/>
<text text-anchor="start" x="177.75" y="-91.38" font-family="Helvetica,sans-Serif" font-size="10.00">GamR::AngDist::AngCorrFit</text>
<text text-anchor="middle" x="236.62" y="-80.12" font-family="Helvetica,sans-Serif" font-size="10.00">::AngCorrFit</text>
</a>
</g>
</g>
<!-- Node1&#45;&gt;Node2 -->
<g id="edge1_Node000001_Node000002" class="edge">
<title>Node1&#45;&gt;Node2</title>
<g id="a_edge1_Node000001_Node000002"><a xlink:title=" ">
<path fill="none" stroke="#63b8ff" d="M134.17,-89.62C141.93,-89.62 149.89,-89.62 157.78,-89.62"/>
<polygon fill="#63b8ff" stroke="#63b8ff" points="157.74,-93.13 167.74,-89.63 157.74,-86.13 157.74,-93.13"/>
</a>
</g>
</g>
<!-- Node3 -->
<g id="Node000003" class="node">
<title>Node3</title>
<g id="a_Node000003"><a xlink:href="../../d2/da9/class_gam_r_1_1_ang_dist_1_1_ang_corr_fit.html#a7d0d1589078b53be7a8da0372924c349" target="_top" xlink:title=" ">
<polygon fill="white" stroke="#666666" points="473.25,-104.88 339.5,-104.88 339.5,-74.38 473.25,-74.38 473.25,-104.88"/>
<text text-anchor="start" x="347.5" y="-91.38" font-family="Helvetica,sans-Serif" font-size="10.00">GamR::AngDist::AngCorrFit</text>
<text text-anchor="middle" x="406.38" y="-80.12" font-family="Helvetica,sans-Serif" font-size="10.00">::SetData</text>
</a>
</g>
</g>
<!-- Node2&#45;&gt;Node3 -->
<g id="edge2_Node000002_Node000003" class="edge">
<title>Node2&#45;&gt;Node3</title>
<g id="a_edge2_Node000002_Node000003"><a xlink:title=" ">
<path fill="none" stroke="#63b8ff" d="M303.92,-89.62C311.68,-89.62 319.64,-89.62 327.53,-89.62"/>
<polygon fill="#63b8ff" stroke="#63b8ff" points="327.49,-93.13 337.49,-89.63 327.49,-86.13 327.49,-93.13"/>
</a>
</g>
</g>
<!-- Node4 -->
<g id="Node000004" class="node">
<title>Node4</title>
<g id="a_Node000004"><a xlink:href="../../df/d6f/class_gam_r_1_1_nucleus_1_1_transition.html#a3565d6396e4ff99984e83a27e2ab35ce" target="_top" xlink:title=" ">
<polygon fill="white" stroke="#666666" points="661.75,-104.88 530.25,-104.88 530.25,-74.38 661.75,-74.38 661.75,-104.88"/>
<text text-anchor="start" x="538.25" y="-91.38" font-family="Helvetica,sans-Serif" font-size="10.00">GamR::Nucleus::Transition</text>
<text text-anchor="middle" x="596" y="-80.12" font-family="Helvetica,sans-Serif" font-size="10.00">::Apply</text>
</a>
</g>
</g>
<!-- Node3&#45;&gt;Node4 -->
<g id="edge3_Node000003_Node000004" class="edge">
<title>Node3&#45;&gt;Node4</title>
<g id="a_edge3_Node000003_Node000004"><a xlink:title=" ">
<path fill="none" stroke="#63b8ff" d="M473.52,-89.62C488.07,-89.62 503.59,-89.62 518.5,-89.62"/>
<polygon fill="#63b8ff" stroke="#63b8ff" points="518.25,-93.13 528.25,-89.63 518.25,-86.13 518.25,-93.13"/>
</a>
</g>
</g>
<!-- Node7 -->
<g id="Node000007" class="node">
<title>Node7</title>
<g id="a_Node000007"><a xlink:href="../../df/d6f/class_gam_r_1_1_nucleus_1_1_transition.html#a8054df5976ecd1f68768286918001af5" target="_top" xlink:title=" ">
<polygon fill="white" stroke="#666666" points="661.75,-153.88 530.25,-153.88 530.25,-123.38 661.75,-123.38 661.75,-153.88"/>
<text text-anchor="start" x="538.25" y="-140.38" font-family="Helvetica,sans-Serif" font-size="10.00">GamR::Nucleus::Transition</text>
<text text-anchor="middle" x="596" y="-129.12" font-family="Helvetica,sans-Serif" font-size="10.00">::ApplyError</text>
</a>
</g>
</g>
<!-- Node3&#45;&gt;Node7 -->
<g id="edge6_Node000003_Node000007" class="edge">
<title>Node3&#45;&gt;Node7</title>
<g id="a_edge6_Node000003_Node000007"><a xlink:title=" ">
<path fill="none" stroke="#63b8ff" d="M467.51,-105.33C485.44,-110.01 505.26,-115.19 523.82,-120.04"/>
<polygon fill="#63b8ff" stroke="#63b8ff" points="522.85,-123.4 533.41,-122.54 524.62,-116.63 522.85,-123.4"/>
</a>
</g>
</g>
<!-- Node8 -->
<g id="Node000008" class="node">
<title>Node8</title>
<g id="a_Node000008"><a xlink:href="../../dc/d89/namespace_gam_r_1_1_spect.html#a30e3d5141c8253d594aae4bf21b2ffe8" target="_top" xlink:title=" ">
<polygon fill="white" stroke="#666666" points="682.75,-56.25 509.25,-56.25 509.25,-37 682.75,-37 682.75,-56.25"/>
<text text-anchor="middle" x="596" y="-42.75" font-family="Helvetica,sans-Serif" font-size="10.00">GamR::Spect::BackgroundSubtractY</text>
</a>
</g>
</g>
<!-- Node3&#45;&gt;Node8 -->
<g id="edge9_Node000003_Node000008" class="edge">
<title>Node3&#45;&gt;Node8</title>
<g id="a_edge9_Node000003_Node000008"><a xlink:title=" ">
<path fill="none" stroke="#63b8ff" d="M473.65,-73.88C485.5,-71.1 497.74,-68.26 509.25,-65.62 518.55,-63.5 528.42,-61.28 538.03,-59.14"/>
<polygon fill="#63b8ff" stroke="#63b8ff" points="538.66,-62.58 547.66,-57 537.14,-55.75 538.66,-62.58"/>
</a>
</g>
</g>
<!-- Node5 -->
<g id="Node000005" class="node">
<title>Node5</title>
<g id="a_Node000005"><a xlink:href="../../df/d6f/class_gam_r_1_1_nucleus_1_1_transition.html#a3eacef62898caaaff029fd33931ad1bb" target="_top" xlink:title=" ">
<polygon fill="white" stroke="#666666" points="857.38,-153.88 725.88,-153.88 725.88,-123.38 857.38,-123.38 857.38,-153.88"/>
<text text-anchor="start" x="733.88" y="-140.38" font-family="Helvetica,sans-Serif" font-size="10.00">GamR::Nucleus::Transition</text>
<text text-anchor="middle" x="791.62" y="-129.12" font-family="Helvetica,sans-Serif" font-size="10.00">::GetGate</text>
</a>
</g>
</g>
<!-- Node4&#45;&gt;Node5 -->
<g id="edge4_Node000004_Node000005" class="edge">
<title>Node4&#45;&gt;Node5</title>
<g id="a_edge4_Node000004_Node000005"><a xlink:title=" ">
<path fill="none" stroke="#63b8ff" d="M659.06,-105.33C677.65,-110.03 698.2,-115.24 717.44,-120.1"/>
<polygon fill="#63b8ff" stroke="#63b8ff" points="716.56,-123.49 727.11,-122.55 718.28,-116.71 716.56,-123.49"/>
</a>
</g>
</g>
<!-- Node6 -->
<g id="Node000006" class="node">
<title>Node6</title>
<g id="a_Node000006"><a xlink:href="../../df/d6f/class_gam_r_1_1_nucleus_1_1_transition.html#a7a6d76bd209176b0448f58d8292ae293" target="_top" xlink:title=" ">
<polygon fill="white" stroke="#666666" points="857.38,-104.88 725.88,-104.88 725.88,-74.38 857.38,-74.38 857.38,-104.88"/>
<text text-anchor="start" x="733.88" y="-91.38" font-family="Helvetica,sans-Serif" font-size="10.00">GamR::Nucleus::Transition</text>
<text text-anchor="middle" x="791.62" y="-80.12" font-family="Helvetica,sans-Serif" font-size="10.00">::GetGateBGs</text>
</a>
</g>
</g>
<!-- Node4&#45;&gt;Node6 -->
<g id="edge5_Node000004_Node000006" class="edge">
<title>Node4&#45;&gt;Node6</title>
<g id="a_edge5_Node000004_Node000006"><a xlink:title=" ">
<path fill="none" stroke="#63b8ff" d="M662.01,-89.62C678.78,-89.62 696.97,-89.62 714.25,-89.62"/>
<polygon fill="#63b8ff" stroke="#63b8ff" points="713.94,-93.13 723.94,-89.63 713.94,-86.13 713.94,-93.13"/>
</a>
</g>
</g>
<!-- Node7&#45;&gt;Node5 -->
<g id="edge7_Node000007_Node000005" class="edge">
<title>Node7&#45;&gt;Node5</title>
<g id="a_edge7_Node000007_Node000005"><a xlink:title=" ">
<path fill="none" stroke="#63b8ff" d="M662.01,-138.62C678.78,-138.62 696.97,-138.62 714.25,-138.62"/>
<polygon fill="#63b8ff" stroke="#63b8ff" points="713.94,-142.13 723.94,-138.63 713.94,-135.13 713.94,-142.13"/>
</a>
</g>
</g>
<!-- Node7&#45;&gt;Node6 -->
<g id="edge8_Node000007_Node000006" class="edge">
<title>Node7&#45;&gt;Node6</title>
<g id="a_edge8_Node000007_Node000006"><a xlink:title=" ">
<path fill="none" stroke="#63b8ff" d="M659.06,-122.92C677.65,-118.22 698.2,-113.01 717.44,-108.15"/>
<polygon fill="#63b8ff" stroke="#63b8ff" points="718.28,-111.54 727.11,-105.7 716.56,-104.76 718.28,-111.54"/>
</a>
</g>
</g>
<!-- Node9 -->
<g id="Node000009" class="node">
<title>Node9</title>
<g id="a_Node000009"><a xlink:href="../../d0/d74/group___t_k.html#ga32700ec383e9f60b1a48009bec316606" target="_top" xlink:title=" ">
<polygon fill="white" stroke="#666666" points="852.5,-56.25 730.75,-56.25 730.75,-37 852.5,-37 852.5,-56.25"/>
<text text-anchor="middle" x="791.62" y="-42.75" font-family="Helvetica,sans-Serif" font-size="10.00">GamR::TK::Gate::ApplyY</text>
</a>
</g>
</g>
<!-- Node8&#45;&gt;Node9 -->
<g id="edge10_Node000008_Node000009" class="edge">
<title>Node8&#45;&gt;Node9</title>
<g id="a_edge10_Node000008_Node000009"><a xlink:title=" ">
<path fill="none" stroke="#63b8ff" d="M683.05,-46.62C695.02,-46.62 707.21,-46.62 718.88,-46.62"/>
<polygon fill="#63b8ff" stroke="#63b8ff" points="718.84,-50.13 728.84,-46.63 718.84,-43.13 718.84,-50.13"/>
</a>
</g>
</g>
<!-- Node10 -->
<g id="Node000010" class="node">
<title>Node10</title>
<g id="a_Node000010"><a xlink:href="../../d0/d74/group___t_k.html#ga19210db8af7134007ff4fc26878b5dc2" target="_top" xlink:title=" ">
<polygon fill="white" stroke="#666666" points="864.5,-19.25 718.75,-19.25 718.75,0 864.5,0 864.5,-19.25"/>
<text text-anchor="middle" x="791.62" y="-5.75" font-family="Helvetica,sans-Serif" font-size="10.00">GamR::TK::Gate::GetBinWidth</text>
</a>
</g>
</g>
<!-- Node8&#45;&gt;Node10 -->
<g id="edge11_Node000008_Node000010" class="edge">
<title>Node8&#45;&gt;Node10</title>
<g id="a_edge11_Node000008_Node000010"><a xlink:title=" ">
<path fill="none" stroke="#63b8ff" d="M649.91,-36.51C673.6,-31.99 701.74,-26.61 726.61,-21.86"/>
<polygon fill="#63b8ff" stroke="#63b8ff" points="727.13,-25.32 736.29,-20.01 725.81,-18.45 727.13,-25.32"/>
</a>
</g>
</g>
</g>
</svg>
