<?xml version="1.0" encoding="UTF-8" standalone="no"?>
<!DOCTYPE svg PUBLIC "-//W3C//DTD SVG 1.1//EN"
 "http://www.w3.org/Graphics/SVG/1.1/DTD/svg11.dtd">
<!-- Generated by graphviz version 12.2.1 (20241206.2353)
 -->
<!-- Title: GamR::AngDist::AngCorrFit::SetData Pages: 1 -->
<svg width="533pt" height="162pt"
 viewBox="0.00 0.00 533.00 161.88" xmlns="http://www.w3.org/2000/svg" xmlns:xlink="http://www.w3.org/1999/xlink">
<g id="graph0" class="graph" transform="scale(1 1) rotate(0) translate(4 157.88)">
<title>GamR::AngDist::AngCorrFit::SetData</title>
<!-- Node1 -->
<g id="Node000001" class="node">
<title>Node1</title>
<g id="a_Node000001"><a xlink:title=" ">
<polygon fill="#999999" stroke="#666666" points="133.75,-104.88 0,-104.88 0,-74.38 133.75,-74.38 133.75,-104.88"/>
<text text-anchor="start" x="8" y="-91.38" font-family="Helvetica,sans-Serif" font-size="10.00">GamR::AngDist::AngCorrFit</text>
<text text-anchor="middle" x="66.88" y="-80.12" font-family="Helvetica,sans-Serif" font-size="10.00">::SetData</text>
</a>
</g>
</g>
<!-- Node2 -->
<g id="Node000002" class="node">
<title>Node2</title>
<g id="a_Node000002"><a xlink:href="../../df/d6f/class_gam_r_1_1_nucleus_1_1_transition.html#a3565d6396e4ff99984e83a27e2ab35ce" target="_top" xlink:title=" ">
<polygon fill="white" stroke="#666666" points="322.25,-104.88 190.75,-104.88 190.75,-74.38 322.25,-74.38 322.25,-104.88"/>
<text text-anchor="start" x="198.75" y="-91.38" font-family="Helvetica,sans-Serif" font-size="10.00">GamR::Nucleus::Transition</text>
<text text-anchor="middle" x="256.5" y="-80.12" font-family="Helvetica,sans-Serif" font-size="10.00">::Apply</text>
</a>
</g>
</g>
<!-- Node1&#45;&gt;Node2 -->
<g id="edge1_Node000001_Node000002" class="edge">
<title>Node1&#45;&gt;Node2</title>
<g id="a_edge1_Node000001_Node000002"><a xlink:title=" ">
<path fill="none" stroke="#63b8ff" d="M134.02,-89.62C148.57,-89.62 164.09,-89.62 179,-89.62"/>
<polygon fill="#63b8ff" stroke="#63b8ff" points="178.75,-93.13 188.75,-89.63 178.75,-86.13 178.75,-93.13"/>
</a>
</g>
</g>
<!-- Node5 -->
<g id="Node000005" class="node">
<title>Node5</title>
<g id="a_Node000005"><a xlink:href="../../df/d6f/class_gam_r_1_1_nucleus_1_1_transition.html#a8054df5976ecd1f68768286918001af5" target="_top" xlink:title=" ">
<polygon fill="white" stroke="#666666" points="322.25,-153.88 190.75,-153.88 190.75,-123.38 322.25,-123.38 322.25,-153.88"/>
<text text-anchor="start" x="198.75" y="-140.38" font-family="Helvetica,sans-Serif" font-size="10.00">GamR::Nucleus::Transition</text>
<text text-anchor="middle" x="256.5" y="-129.12" font-family="Helvetica,sans-Serif" font-size="10.00">::ApplyError</text>
</a>
</g>
</g>
<!-- Node1&#45;&gt;Node5 -->
<g id="edge4_Node000001_Node000005" class="edge">
<title>Node1&#45;&gt;Node5</title>
<g id="a_edge4_Node000001_Node000005"><a xlink:title=" ">
<path fill="none" stroke="#63b8ff" d="M128.01,-105.33C145.94,-110.01 165.76,-115.19 184.32,-120.04"/>
<polygon fill="#63b8ff" stroke="#63b8ff" points="183.35,-123.4 193.91,-122.54 185.12,-116.63 183.35,-123.4"/>
</a>
</g>
</g>
<!-- Node6 -->
<g id="Node000006" class="node">
<title>Node6</title>
<g id="a_Node000006"><a xlink:href="../../dc/d89/namespace_gam_r_1_1_spect.html#a30e3d5141c8253d594aae4bf21b2ffe8" target="_top" xlink:title=" ">
<polygon fill="white" stroke="#666666" points="343.25,-56.25 169.75,-56.25 169.75,-37 343.25,-37 343.25,-56.25"/>
<text text-anchor="middle" x="256.5" y="-42.75" font-family="Helvetica,sans-Serif" font-size="10.00">GamR::Spect::BackgroundSubtractY</text>
</a>
</g>
</g>
<!-- Node1&#45;&gt;Node6 -->
<g id="edge7_Node000001_Node000006" class="edge">
<title>Node1&#45;&gt;Node6</title>
<g id="a_edge7_Node000001_Node000006"><a xlink:title=" ">
<path fill="none" stroke="#63b8ff" d="M134.15,-73.88C146,-71.1 158.24,-68.26 169.75,-65.62 179.05,-63.5 188.92,-61.28 198.53,-59.14"/>
<polygon fill="#63b8ff" stroke="#63b8ff" points="199.16,-62.58 208.16,-57 197.64,-55.75 199.16,-62.58"/>
</a>
</g>
</g>
<!-- Node3 -->
<g id="Node000003" class="node">
<title>Node3</title>
<g id="a_Node000003"><a xlink:href="../../df/d6f/class_gam_r_1_1_nucleus_1_1_transition.html#a3eacef62898caaaff029fd33931ad1bb" target="_top" xlink:title=" ">
<polygon fill="white" stroke="#666666" points="517.88,-153.88 386.38,-153.88 386.38,-123.38 517.88,-123.38 517.88,-153.88"/>
<text text-anchor="start" x="394.38" y="-140.38" font-family="Helvetica,sans-Serif" font-size="10.00">GamR::Nucleus::Transition</text>
<text text-anchor="middle" x="452.12" y="-129.12" font-family="Helvetica,sans-Serif" font-size="10.00">::GetGate</text>
</a>
</g>
</g>
<!-- Node2&#45;&gt;Node3 -->
<g id="edge2_Node000002_Node000003" class="edge">
<title>Node2&#45;&gt;Node3</title>
<g id="a_edge2_Node000002_Node000003"><a xlink:title=" ">
<path fill="none" stroke="#63b8ff" d="M319.56,-105.33C338.15,-110.03 358.7,-115.24 377.94,-120.1"/>
<polygon fill="#63b8ff" stroke="#63b8ff" points="377.06,-123.49 387.61,-122.55 378.78,-116.71 377.06,-123.49"/>
</a>
</g>
</g>
<!-- Node4 -->
<g id="Node000004" class="node">
<title>Node4</title>
<g id="a_Node000004"><a xlink:href="../../df/d6f/class_gam_r_1_1_nucleus_1_1_transition.html#a7a6d76bd209176b0448f58d8292ae293" target="_top" xlink:title=" ">
<polygon fill="white" stroke="#666666" points="517.88,-104.88 386.38,-104.88 386.38,-74.38 517.88,-74.38 517.88,-104.88"/>
<text text-anchor="start" x="394.38" y="-91.38" font-family="Helvetica,sans-Serif" font-size="10.00">GamR::Nucleus::Transition</text>
<text text-anchor="middle" x="452.12" y="-80.12" font-family="Helvetica,sans-Serif" font-size="10.00">::GetGateBGs</text>
</a>
</g>
</g>
<!-- Node2&#45;&gt;Node4 -->
<g id="edge3_Node000002_Node000004" class="edge">
<title>Node2&#45;&gt;Node4</title>
<g id="a_edge3_Node000002_Node000004"><a xlink:title=" ">
<path fill="none" stroke="#63b8ff" d="M322.51,-89.62C339.28,-89.62 357.47,-89.62 374.75,-89.62"/>
<polygon fill="#63b8ff" stroke="#63b8ff" points="374.44,-93.13 384.44,-89.63 374.44,-86.13 374.44,-93.13"/>
</a>
</g>
</g>
<!-- Node5&#45;&gt;Node3 -->
<g id="edge5_Node000005_Node000003" class="edge">
<title>Node5&#45;&gt;Node3</title>
<g id="a_edge5_Node000005_Node000003"><a xlink:title=" ">
<path fill="none" stroke="#63b8ff" d="M322.51,-138.62C339.28,-138.62 357.47,-138.62 374.75,-138.62"/>
<polygon fill="#63b8ff" stroke="#63b8ff" points="374.44,-142.13 384.44,-138.63 374.44,-135.13 374.44,-142.13"/>
</a>
</g>
</g>
<!-- Node5&#45;&gt;Node4 -->
<g id="edge6_Node000005_Node000004" class="edge">
<title>Node5&#45;&gt;Node4</title>
<g id="a_edge6_Node000005_Node000004"><a xlink:title=" ">
<path fill="none" stroke="#63b8ff" d="M319.56,-122.92C338.15,-118.22 358.7,-113.01 377.94,-108.15"/>
<polygon fill="#63b8ff" stroke="#63b8ff" points="378.78,-111.54 387.61,-105.7 377.06,-104.76 378.78,-111.54"/>
</a>
</g>
</g>
<!-- Node7 -->
<g id="Node000007" class="node">
<title>Node7</title>
<g id="a_Node000007"><a xlink:href="../../d0/d74/group___t_k.html#ga32700ec383e9f60b1a48009bec316606" target="_top" xlink:title=" ">
<polygon fill="white" stroke="#666666" points="513,-56.25 391.25,-56.25 391.25,-37 513,-37 513,-56.25"/>
<text text-anchor="middle" x="452.12" y="-42.75" font-family="Helvetica,sans-Serif" font-size="10.00">GamR::TK::Gate::ApplyY</text>
</a>
</g>
</g>
<!-- Node6&#45;&gt;Node7 -->
<g id="edge8_Node000006_Node000007" class="edge">
<title>Node6&#45;&gt;Node7</title>
<g id="a_edge8_Node000006_Node000007"><a xlink:title=" ">
<path fill="none" stroke="#63b8ff" d="M343.55,-46.62C355.52,-46.62 367.71,-46.62 379.38,-46.62"/>
<polygon fill="#63b8ff" stroke="#63b8ff" points="379.34,-50.13 389.34,-46.63 379.34,-43.13 379.34,-50.13"/>
</a>
</g>
</g>
<!-- Node8 -->
<g id="Node000008" class="node">
<title>Node8</title>
<g id="a_Node000008"><a xlink:href="../../d0/d74/group___t_k.html#ga19210db8af7134007ff4fc26878b5dc2" target="_top" xlink:title=" ">
<polygon fill="white" stroke="#666666" points="525,-19.25 379.25,-19.25 379.25,0 525,0 525,-19.25"/>
<text text-anchor="middle" x="452.12" y="-5.75" font-family="Helvetica,sans-Serif" font-size="10.00">GamR::TK::Gate::GetBinWidth</text>
</a>
</g>
</g>
<!-- Node6&#45;&gt;Node8 -->
<g id="edge9_Node000006_Node000008" class="edge">
<title>Node6&#45;&gt;Node8</title>
<g id="a_edge9_Node000006_Node000008"><a xlink:title=" ">
<path fill="none" stroke="#63b8ff" d="M310.41,-36.51C334.1,-31.99 362.24,-26.61 387.11,-21.86"/>
<polygon fill="#63b8ff" stroke="#63b8ff" points="387.63,-25.32 396.79,-20.01 386.31,-18.45 387.63,-25.32"/>
</a>
</g>
</g>
</g>
</svg>
