<?xml version="1.0" encoding="UTF-8" standalone="no"?>
<!DOCTYPE svg PUBLIC "-//W3C//DTD SVG 1.1//EN"
 "http://www.w3.org/Graphics/SVG/1.1/DTD/svg11.dtd">
<!-- Generated by graphviz version 6.0.2 (20221011.1828)
 -->
<!-- Title: GamR::AngDist::AngCorrFit::AngCorrFit Pages: 1 -->
<!--zoomable 142 -->
<svg id="main" version="1.1" xmlns="http://www.w3.org/2000/svg" xmlns:xlink="http://www.w3.org/1999/xlink" xml:space="preserve" onload="init(evt)">
<style type="text/css"><![CDATA[
.edge:hover path { stroke: red; }
.edge:hover polygon { stroke: red; fill: red; }
]]></style>
<script type="text/javascript"><![CDATA[
var edges = document.getElementsByTagName('g');
if (edges && edges.length) {
  for (var i=0;i<edges.length;i++) {
    if (edges[i].id.substr(0,4)=='edge') {
      edges[i].setAttribute('class','edge');
    }
  }
}
]]></script>
        <defs>
                <circle id="rim" cx="0" cy="0" r="7"/>
                <circle id="rim2" cx="0" cy="0" r="3.5"/>
                <g id="zoomPlus">
                        <use xlink:href="#rim" fill="#404040">
                                <set attributeName="fill" to="#808080" begin="zoomplus.mouseover" end="zoomplus.mouseout"/>
                        </use>
                        <path d="M-4,0h8M0,-4v8" fill="none" stroke="white" stroke-width="1.5" pointer-events="none"/>
                </g>
                <g id="zoomMin">
                        <use xlink:href="#rim" fill="#404040">
                                <set attributeName="fill" to="#808080" begin="zoomminus.mouseover" end="zoomminus.mouseout"/>
                        </use>
                        <path d="M-4,0h8" fill="none" stroke="white" stroke-width="1.5" pointer-events="none"/>
                </g>
                <g id="dirArrow">
                        <path fill="none" stroke="white" stroke-width="1.5" d="M0,-3.0v7 M-2.5,-0.5L0,-3.0L2.5,-0.5"/>
                </g>
               <g id="resetDef">
                       <use xlink:href="#rim2" fill="#404040">
                               <set attributeName="fill" to="#808080" begin="reset.mouseover" end="reset.mouseout"/>
                       </use>
               </g>
        </defs>

<script type="text/javascript">
var viewWidth = 704;
var viewHeight = 142;
var sectionId = 'dynsection-3';
</script>
<script xlink:href="../../svgpan.js"/>
<svg id="graph" class="graph">
<g id="viewport">
<title>GamR::AngDist::AngCorrFit::AngCorrFit</title>
<!-- Node1 -->
<g id="node1" class="node">
<title>Node1</title>
<g id="a_node1"><a xlink:title=" ">
<polygon fill="#999999" stroke="#666666" points="134,-85.5 0,-85.5 0,-55.5 134,-55.5 134,-85.5"/>
<text text-anchor="start" x="8" y="-73.5" font-family="Helvetica,sans-Serif" font-size="10.00">GamR::AngDist::AngCorrFit</text>
<text text-anchor="middle" x="67" y="-62.5" font-family="Helvetica,sans-Serif" font-size="10.00">::AngCorrFit</text>
</a>
</g>
</g>
<!-- Node2 -->
<g id="node2" class="node">
<title>Node2</title>
<g id="a_node2"><a xlink:href="../../d2/da9/class_gam_r_1_1_ang_dist_1_1_ang_corr_fit.html#a7d0d1589078b53be7a8da0372924c349" target="_top" xlink:title=" ">
<polygon fill="white" stroke="#666666" points="304,-85.5 170,-85.5 170,-55.5 304,-55.5 304,-85.5"/>
<text text-anchor="start" x="178" y="-73.5" font-family="Helvetica,sans-Serif" font-size="10.00">GamR::AngDist::AngCorrFit</text>
<text text-anchor="middle" x="237" y="-62.5" font-family="Helvetica,sans-Serif" font-size="10.00">::SetData</text>
</a>
</g>
</g>
<!-- Node1&#45;&gt;Node2 -->
<g id="edge1" class="edge">
<title>Node1&#45;&gt;Node2</title>
<path fill="none" stroke="#63b8ff" d="M134.4,-70.5C142.68,-70.5 151.2,-70.5 159.62,-70.5"/>
<polygon fill="#63b8ff" stroke="#63b8ff" points="159.81,-74 169.81,-70.5 159.81,-67 159.81,-74"/>
</g>
<!-- Node3 -->
<g id="node3" class="node">
<title>Node3</title>
<g id="a_node3"><a xlink:href="../../df/d6f/class_gam_r_1_1_nucleus_1_1_transition.html#a3565d6396e4ff99984e83a27e2ab35ce" target="_top" xlink:title=" ">
<polygon fill="white" stroke="#666666" points="493,-133.5 361,-133.5 361,-103.5 493,-103.5 493,-133.5"/>
<text text-anchor="start" x="369" y="-121.5" font-family="Helvetica,sans-Serif" font-size="10.00">GamR::Nucleus::Transition</text>
<text text-anchor="middle" x="427" y="-110.5" font-family="Helvetica,sans-Serif" font-size="10.00">::Apply</text>
</a>
</g>
</g>
<!-- Node2&#45;&gt;Node3 -->
<g id="edge2" class="edge">
<title>Node2&#45;&gt;Node3</title>
<path fill="none" stroke="#63b8ff" d="M296.97,-85.56C316.13,-90.45 337.56,-95.92 357.36,-100.98"/>
<polygon fill="#63b8ff" stroke="#63b8ff" points="356.69,-104.41 367.24,-103.5 358.42,-97.63 356.69,-104.41"/>
</g>
<!-- Node4 -->
<g id="node4" class="node">
<title>Node4</title>
<g id="a_node4"><a xlink:href="../../df/d6f/class_gam_r_1_1_nucleus_1_1_transition.html#a8054df5976ecd1f68768286918001af5" target="_top" xlink:title=" ">
<polygon fill="white" stroke="#666666" points="493,-85.5 361,-85.5 361,-55.5 493,-55.5 493,-85.5"/>
<text text-anchor="start" x="369" y="-73.5" font-family="Helvetica,sans-Serif" font-size="10.00">GamR::Nucleus::Transition</text>
<text text-anchor="middle" x="427" y="-62.5" font-family="Helvetica,sans-Serif" font-size="10.00">::ApplyError</text>
</a>
</g>
</g>
<!-- Node2&#45;&gt;Node4 -->
<g id="edge3" class="edge">
<title>Node2&#45;&gt;Node4</title>
<path fill="none" stroke="#63b8ff" d="M304.02,-70.5C319.12,-70.5 335.28,-70.5 350.74,-70.5"/>
<polygon fill="#63b8ff" stroke="#63b8ff" points="350.78,-74 360.78,-70.5 350.78,-67 350.78,-74"/>
</g>
<!-- Node5 -->
<g id="node5" class="node">
<title>Node5</title>
<g id="a_node5"><a xlink:href="../../dc/d89/namespace_gam_r_1_1_spect.html#a30e3d5141c8253d594aae4bf21b2ffe8" target="_top" xlink:title=" ">
<polygon fill="white" stroke="#666666" points="514,-37 340,-37 340,-18 514,-18 514,-37"/>
<text text-anchor="middle" x="427" y="-25" font-family="Helvetica,sans-Serif" font-size="10.00">GamR::Spect::BackgroundSubtractY</text>
</a>
</g>
</g>
<!-- Node2&#45;&gt;Node5 -->
<g id="edge4" class="edge">
<title>Node2&#45;&gt;Node5</title>
<path fill="none" stroke="#63b8ff" d="M301.36,-55.45C314.14,-52.45 327.5,-49.35 340,-46.5 350.39,-44.13 361.5,-41.64 372.17,-39.27"/>
<polygon fill="#63b8ff" stroke="#63b8ff" points="373.22,-42.63 382.22,-37.05 371.7,-35.79 373.22,-42.63"/>
</g>
<!-- Node6 -->
<g id="node6" class="node">
<title>Node6</title>
<g id="a_node6"><a xlink:href="../../d0/d74/group___t_k.html#ga32700ec383e9f60b1a48009bec316606" target="_top" xlink:title=" ">
<polygon fill="white" stroke="#666666" points="684,-56 562,-56 562,-37 684,-37 684,-56"/>
<text text-anchor="middle" x="623" y="-44" font-family="Helvetica,sans-Serif" font-size="10.00">GamR::TK::Gate::ApplyY</text>
</a>
</g>
</g>
<!-- Node5&#45;&gt;Node6 -->
<g id="edge5" class="edge">
<title>Node5&#45;&gt;Node6</title>
<path fill="none" stroke="#63b8ff" d="M514.22,-35.94C526.79,-37.18 539.61,-38.43 551.81,-39.63"/>
<polygon fill="#63b8ff" stroke="#63b8ff" points="551.6,-43.12 561.89,-40.61 552.28,-36.16 551.6,-43.12"/>
</g>
<!-- Node7 -->
<g id="node7" class="node">
<title>Node7</title>
<g id="a_node7"><a xlink:href="../../d0/d74/group___t_k.html#ga19210db8af7134007ff4fc26878b5dc2" target="_top" xlink:title=" ">
<polygon fill="white" stroke="#666666" points="696,-19 550,-19 550,0 696,0 696,-19"/>
<text text-anchor="middle" x="623" y="-7" font-family="Helvetica,sans-Serif" font-size="10.00">GamR::TK::Gate::GetBinWidth</text>
</a>
</g>
</g>
<!-- Node5&#45;&gt;Node7 -->
<g id="edge6" class="edge">
<title>Node5&#45;&gt;Node7</title>
<path fill="none" stroke="#63b8ff" d="M514.22,-19.5C522.71,-18.71 531.31,-17.91 539.76,-17.13"/>
<polygon fill="#63b8ff" stroke="#63b8ff" points="540.34,-20.59 549.97,-16.18 539.69,-13.62 540.34,-20.59"/>
</g>
</g>
</svg>
        <g id="navigator" transform="translate(0 0)" fill="#404254">
                <rect fill="#f2f5e9" fill-opacity="0.5" stroke="#606060" stroke-width=".5" x="0" y="0" width="60" height="60"/>
                <use id="zoomplus" xlink:href="#zoomPlus" x="17" y="9" onmousedown="handleZoom(evt,'in')"/>
                <use id="zoomminus" xlink:href="#zoomMin" x="42" y="9" onmousedown="handleZoom(evt,'out')"/>
                <use id="reset" xlink:href="#resetDef" x="30" y="36" onmousedown="handleReset()"/>
                <g id="arrowUp" xlink:href="#dirArrow" transform="translate(30 24)" onmousedown="handlePan(0,-1)">
                  <use xlink:href="#rim" fill="#404040">
                        <set attributeName="fill" to="#808080" begin="arrowUp.mouseover" end="arrowUp.mouseout"/>
                  </use>
                  <path fill="none" stroke="white" stroke-width="1.5" d="M0,-3.0v7 M-2.5,-0.5L0,-3.0L2.5,-0.5"/>
                </g>
                <g id="arrowRight" xlink:href="#dirArrow" transform="rotate(90) translate(36 -43)" onmousedown="handlePan(1,0)">
                  <use xlink:href="#rim" fill="#404040">
                        <set attributeName="fill" to="#808080" begin="arrowRight.mouseover" end="arrowRight.mouseout"/>
                  </use>
                  <path fill="none" stroke="white" stroke-width="1.5" d="M0,-3.0v7 M-2.5,-0.5L0,-3.0L2.5,-0.5"/>
                </g>
                <g id="arrowDown" xlink:href="#dirArrow" transform="rotate(180) translate(-30 -48)" onmousedown="handlePan(0,1)">
                  <use xlink:href="#rim" fill="#404040">
                        <set attributeName="fill" to="#808080" begin="arrowDown.mouseover" end="arrowDown.mouseout"/>
                  </use>
                  <path fill="none" stroke="white" stroke-width="1.5" d="M0,-3.0v7 M-2.5,-0.5L0,-3.0L2.5,-0.5"/>
                </g>
                <g id="arrowLeft" xlink:href="#dirArrow" transform="rotate(270) translate(-36 17)" onmousedown="handlePan(-1,0)">
                  <use xlink:href="#rim" fill="#404040">
                        <set attributeName="fill" to="#808080" begin="arrowLeft.mouseover" end="arrowLeft.mouseout"/>
                  </use>
                  <path fill="none" stroke="white" stroke-width="1.5" d="M0,-3.0v7 M-2.5,-0.5L0,-3.0L2.5,-0.5"/>
                </g>
        </g>
        <svg viewBox="0 0 15 15" width="100%" height="30px" preserveAspectRatio="xMaxYMin meet">
         <g id="arrow_out" transform="scale(0.3 0.3)">
          <a xlink:href="class_gam_r_1_1_ang_dist_1_1_ang_corr_fit_ade67fbd9efac760657e3d1455a2f5592_cgraph_org.svg" target="_base">
           <rect id="button" ry="5" rx="5" y="6" x="6" height="38" width="38"
                fill="#f2f5e9" fill-opacity="0.5" stroke="#606060" stroke-width="1.0"/>
           <path id="arrow"
             d="M 11.500037,31.436501 C 11.940474,20.09759 22.043105,11.32322 32.158766,21.979434 L 37.068811,17.246167 C 37.068811,17.246167 37.088388,32 37.088388,32 L 22.160133,31.978069 C 22.160133,31.978069 26.997745,27.140456 26.997745,27.140456 C 18.528582,18.264221 13.291696,25.230495 11.500037,31.436501 z"
             style="fill:#404040;"/>
          </a>
         </g>
        </svg>
</svg>
