<?xml version="1.0" encoding="UTF-8" standalone="no"?>
<!DOCTYPE svg PUBLIC "-//W3C//DTD SVG 1.1//EN"
 "http://www.w3.org/Graphics/SVG/1.1/DTD/svg11.dtd">
<!-- Generated by graphviz version 12.2.1 (20241206.2353)
 -->
<!-- Title: GamR::Nucleus::LevelSchemeFitter::Transition Pages: 1 -->
<svg width="241pt" height="626pt"
 viewBox="0.00 0.00 240.75 626.00" xmlns="http://www.w3.org/2000/svg" xmlns:xlink="http://www.w3.org/1999/xlink">
<g id="graph0" class="graph" transform="scale(1 1) rotate(0) translate(4 622)">
<title>GamR::Nucleus::LevelSchemeFitter::Transition</title>
<!-- Node1 -->
<g id="Node000001" class="node">
<title>Node1</title>
<g id="a_Node000001"><a xlink:title=" ">
<polygon fill="#999999" stroke="none" points="140.75,-213.5 0,-213.5 0,0 140.75,0 140.75,-213.5"/>
<text text-anchor="start" x="4" y="-200" font-family="Helvetica,sans-Serif" font-size="10.00">GamR::Nucleus::LevelScheme</text>
<text text-anchor="start" x="35.5" y="-188.75" font-family="Helvetica,sans-Serif" font-size="10.00">Fitter::Transition</text>
<text text-anchor="start" x="12" y="-173.5" font-family="Helvetica,sans-Serif" font-size="10.00">+</text>
<text text-anchor="start" x="30" y="-173.5" font-family="Helvetica,sans-Serif" font-size="10.00">fEnergy</text>
<text text-anchor="start" x="12" y="-158.25" font-family="Helvetica,sans-Serif" font-size="10.00">+</text>
<text text-anchor="start" x="30" y="-158.25" font-family="Helvetica,sans-Serif" font-size="10.00">fUncertainty</text>
<text text-anchor="start" x="12" y="-143" font-family="Helvetica,sans-Serif" font-size="10.00">+</text>
<text text-anchor="start" x="30" y="-143" font-family="Helvetica,sans-Serif" font-size="10.00">fLabel</text>
<text text-anchor="start" x="12" y="-127.75" font-family="Helvetica,sans-Serif" font-size="10.00">+</text>
<text text-anchor="start" x="30" y="-127.75" font-family="Helvetica,sans-Serif" font-size="10.00">Transition()</text>
<text text-anchor="start" x="12" y="-112.5" font-family="Helvetica,sans-Serif" font-size="10.00">+</text>
<text text-anchor="start" x="30" y="-112.5" font-family="Helvetica,sans-Serif" font-size="10.00">Transition()</text>
<text text-anchor="start" x="12" y="-97.25" font-family="Helvetica,sans-Serif" font-size="10.00">+</text>
<text text-anchor="start" x="30" y="-97.25" font-family="Helvetica,sans-Serif" font-size="10.00">~Transition()</text>
<text text-anchor="start" x="12" y="-82" font-family="Helvetica,sans-Serif" font-size="10.00">+</text>
<text text-anchor="start" x="30" y="-82" font-family="Helvetica,sans-Serif" font-size="10.00">Paint()</text>
<text text-anchor="start" x="12" y="-66.75" font-family="Helvetica,sans-Serif" font-size="10.00">+</text>
<text text-anchor="start" x="30" y="-66.75" font-family="Helvetica,sans-Serif" font-size="10.00">DistancetoPrimitive()</text>
<text text-anchor="start" x="12" y="-51.5" font-family="Helvetica,sans-Serif" font-size="10.00">+</text>
<text text-anchor="start" x="30" y="-51.5" font-family="Helvetica,sans-Serif" font-size="10.00">ExecuteEvent()</text>
<text text-anchor="start" x="12" y="-36.25" font-family="Helvetica,sans-Serif" font-size="10.00">+</text>
<text text-anchor="start" x="30" y="-36.25" font-family="Helvetica,sans-Serif" font-size="10.00">Draw()</text>
<text text-anchor="start" x="12" y="-21" font-family="Helvetica,sans-Serif" font-size="10.00">+</text>
<text text-anchor="start" x="30" y="-21" font-family="Helvetica,sans-Serif" font-size="10.00">operator&lt;()</text>
<text text-anchor="start" x="12" y="-5.75" font-family="Helvetica,sans-Serif" font-size="10.00">+</text>
<text text-anchor="start" x="30" y="-5.75" font-family="Helvetica,sans-Serif" font-size="10.00">ClassDef()</text>
<polygon fill="#666666" stroke="#666666" points="0,-185 0,-185 140.75,-185 140.75,-185 0,-185"/>
<polygon fill="#666666" stroke="#666666" points="0,-139.25 0,-139.25 28,-139.25 28,-139.25 0,-139.25"/>
<polygon fill="#666666" stroke="#666666" points="28,-139.25 28,-139.25 140.75,-139.25 140.75,-139.25 28,-139.25"/>
<polygon fill="none" stroke="#666666" points="0,0 0,-213.5 140.75,-213.5 140.75,0 0,0"/>
</a>
</g>
</g>
<!-- Node2 -->
<g id="Node000002" class="node">
<title>Node2</title>
<g id="a_Node000002"><a xlink:title=" ">
<polygon fill="white" stroke="none" points="74.12,-426.5 34.62,-426.5 34.62,-376.75 74.12,-376.75 74.12,-426.5"/>
<text text-anchor="start" x="38.62" y="-413" font-family="Helvetica,sans-Serif" font-size="10.00">TArrow</text>
<text text-anchor="start" x="52.88" y="-397.75" font-family="Helvetica,sans-Serif" font-size="10.00"> </text>
<text text-anchor="start" x="52.88" y="-382.5" font-family="Helvetica,sans-Serif" font-size="10.00"> </text>
<polygon fill="#666666" stroke="#666666" points="34.62,-409.25 34.62,-409.25 74.12,-409.25 74.12,-409.25 34.62,-409.25"/>
<polygon fill="#666666" stroke="#666666" points="34.62,-394 34.62,-394 74.12,-394 74.12,-394 34.62,-394"/>
<polygon fill="none" stroke="#666666" points="34.62,-376.75 34.62,-426.5 74.12,-426.5 74.12,-376.75 34.62,-376.75"/>
</a>
</g>
</g>
<!-- Node2&#45;&gt;Node1 -->
<g id="edge1_Node000001_Node000002" class="edge">
<title>Node2&#45;&gt;Node1</title>
<g id="a_edge1_Node000001_Node000002"><a xlink:title=" ">
<path fill="none" stroke="#63b8ff" d="M56.27,-365.87C58.32,-328.39 61.68,-266.88 64.61,-213.3"/>
<polygon fill="none" stroke="#63b8ff" points="52.79,-365.47 55.74,-375.64 59.78,-365.85 52.79,-365.47"/>
</a>
</g>
</g>
<!-- Node3 -->
<g id="Node000003" class="node">
<title>Node3</title>
<g id="a_Node000003"><a xlink:href="../../d3/d4b/class_gam_r_1_1_nucleus_1_1_level_scheme_fitter_1_1_state.html" target="_top" xlink:title=" ">
<polygon fill="white" stroke="none" points="232.75,-531.25 92,-531.25 92,-272 232.75,-272 232.75,-531.25"/>
<text text-anchor="start" x="96" y="-517.75" font-family="Helvetica,sans-Serif" font-size="10.00">GamR::Nucleus::LevelScheme</text>
<text text-anchor="start" x="137.25" y="-506.5" font-family="Helvetica,sans-Serif" font-size="10.00">Fitter::State</text>
<text text-anchor="start" x="104" y="-491.25" font-family="Helvetica,sans-Serif" font-size="10.00">+</text>
<text text-anchor="start" x="122" y="-491.25" font-family="Helvetica,sans-Serif" font-size="10.00">index</text>
<text text-anchor="start" x="104" y="-476" font-family="Helvetica,sans-Serif" font-size="10.00">+</text>
<text text-anchor="start" x="122" y="-476" font-family="Helvetica,sans-Serif" font-size="10.00">fEnergy</text>
<text text-anchor="start" x="104" y="-460.75" font-family="Helvetica,sans-Serif" font-size="10.00">+</text>
<text text-anchor="start" x="122" y="-460.75" font-family="Helvetica,sans-Serif" font-size="10.00">fUncertainty</text>
<text text-anchor="start" x="104" y="-445.5" font-family="Helvetica,sans-Serif" font-size="10.00">+</text>
<text text-anchor="start" x="122" y="-445.5" font-family="Helvetica,sans-Serif" font-size="10.00">fDrawPos</text>
<text text-anchor="start" x="104" y="-430.25" font-family="Helvetica,sans-Serif" font-size="10.00">+</text>
<text text-anchor="start" x="122" y="-430.25" font-family="Helvetica,sans-Serif" font-size="10.00">fLabelPos</text>
<text text-anchor="start" x="104" y="-415" font-family="Helvetica,sans-Serif" font-size="10.00">+</text>
<text text-anchor="start" x="122" y="-415" font-family="Helvetica,sans-Serif" font-size="10.00">fLabel</text>
<text text-anchor="start" x="104" y="-399.75" font-family="Helvetica,sans-Serif" font-size="10.00">+</text>
<text text-anchor="start" x="122" y="-399.75" font-family="Helvetica,sans-Serif" font-size="10.00">State()</text>
<text text-anchor="start" x="104" y="-384.5" font-family="Helvetica,sans-Serif" font-size="10.00">+</text>
<text text-anchor="start" x="122" y="-384.5" font-family="Helvetica,sans-Serif" font-size="10.00">State()</text>
<text text-anchor="start" x="104" y="-369.25" font-family="Helvetica,sans-Serif" font-size="10.00">+</text>
<text text-anchor="start" x="122" y="-369.25" font-family="Helvetica,sans-Serif" font-size="10.00">~State()</text>
<text text-anchor="start" x="104" y="-354" font-family="Helvetica,sans-Serif" font-size="10.00">+</text>
<text text-anchor="start" x="122" y="-354" font-family="Helvetica,sans-Serif" font-size="10.00">DistancetoPrimitive()</text>
<text text-anchor="start" x="104" y="-338.75" font-family="Helvetica,sans-Serif" font-size="10.00">+</text>
<text text-anchor="start" x="122" y="-338.75" font-family="Helvetica,sans-Serif" font-size="10.00">ExecuteEvent()</text>
<text text-anchor="start" x="104" y="-323.5" font-family="Helvetica,sans-Serif" font-size="10.00">+</text>
<text text-anchor="start" x="122" y="-323.5" font-family="Helvetica,sans-Serif" font-size="10.00">Paint()</text>
<text text-anchor="start" x="104" y="-308.25" font-family="Helvetica,sans-Serif" font-size="10.00">+</text>
<text text-anchor="start" x="122" y="-308.25" font-family="Helvetica,sans-Serif" font-size="10.00">operator&lt;()</text>
<text text-anchor="start" x="104" y="-293" font-family="Helvetica,sans-Serif" font-size="10.00">+</text>
<text text-anchor="start" x="122" y="-293" font-family="Helvetica,sans-Serif" font-size="10.00">operator==()</text>
<text text-anchor="start" x="104" y="-277.75" font-family="Helvetica,sans-Serif" font-size="10.00">+</text>
<text text-anchor="start" x="122" y="-277.75" font-family="Helvetica,sans-Serif" font-size="10.00">ClassDef()</text>
<polygon fill="#666666" stroke="#666666" points="92,-502.75 92,-502.75 232.75,-502.75 232.75,-502.75 92,-502.75"/>
<polygon fill="#666666" stroke="#666666" points="92,-411.25 92,-411.25 120,-411.25 120,-411.25 92,-411.25"/>
<polygon fill="#666666" stroke="#666666" points="120,-411.25 120,-411.25 232.75,-411.25 232.75,-411.25 120,-411.25"/>
<polygon fill="none" stroke="#666666" points="92,-272 92,-531.25 232.75,-531.25 232.75,-272 92,-272"/>
</a>
</g>
</g>
<!-- Node3&#45;&gt;Node1 -->
<g id="edge2_Node000001_Node000003" class="edge">
<title>Node3&#45;&gt;Node1</title>
<g id="a_edge2_Node000001_Node000003"><a xlink:title=" ">
<path fill="none" stroke="#63b8ff" d="M122.02,-272.17C117.15,-256.64 112.18,-240.85 107.36,-225.49"/>
<polygon fill="none" stroke="#63b8ff" points="107.39,-225.59 101.78,-221.06 103.79,-214.14 109.41,-218.66 107.39,-225.59"/>
</a>
</g>
<text text-anchor="middle" x="129.74" y="-244.5" font-family="Helvetica,sans-Serif" font-size="10.00" fill="grey"> +fFinal</text>
<text text-anchor="middle" x="129.74" y="-233.25" font-family="Helvetica,sans-Serif" font-size="10.00" fill="grey">+fInitial</text>
</g>
<!-- Node4 -->
<g id="Node000004" class="node">
<title>Node4</title>
<g id="a_Node000004"><a xlink:title=" ">
<polygon fill="white" stroke="none" points="153.12,-618 107.62,-618 107.62,-568.25 153.12,-568.25 153.12,-618"/>
<text text-anchor="start" x="111.62" y="-604.5" font-family="Helvetica,sans-Serif" font-size="10.00">TNamed</text>
<text text-anchor="start" x="128.88" y="-589.25" font-family="Helvetica,sans-Serif" font-size="10.00"> </text>
<text text-anchor="start" x="128.88" y="-574" font-family="Helvetica,sans-Serif" font-size="10.00"> </text>
<polygon fill="#666666" stroke="#666666" points="107.62,-600.75 107.62,-600.75 153.12,-600.75 153.12,-600.75 107.62,-600.75"/>
<polygon fill="#666666" stroke="#666666" points="107.62,-585.5 107.62,-585.5 153.12,-585.5 153.12,-585.5 107.62,-585.5"/>
<polygon fill="none" stroke="#666666" points="107.62,-568.25 107.62,-618 153.12,-618 153.12,-568.25 107.62,-568.25"/>
</a>
</g>
</g>
<!-- Node4&#45;&gt;Node3 -->
<g id="edge3_Node000003_Node000004" class="edge">
<title>Node4&#45;&gt;Node3</title>
<g id="a_edge3_Node000003_Node000004"><a xlink:title=" ">
<path fill="none" stroke="#63b8ff" d="M136.26,-557.27C137.6,-549.34 139.1,-540.47 140.68,-531.1"/>
<polygon fill="none" stroke="#63b8ff" points="132.83,-556.57 134.62,-567.02 139.73,-557.74 132.83,-556.57"/>
</a>
</g>
</g>
<!-- Node5 -->
<g id="Node000005" class="node">
<title>Node5</title>
<g id="a_Node000005"><a xlink:title=" ">
<polygon fill="white" stroke="none" points="217.12,-618 171.62,-618 171.62,-568.25 217.12,-568.25 217.12,-618"/>
<text text-anchor="start" x="175.62" y="-604.5" font-family="Helvetica,sans-Serif" font-size="10.00">TAttLine</text>
<text text-anchor="start" x="192.88" y="-589.25" font-family="Helvetica,sans-Serif" font-size="10.00"> </text>
<text text-anchor="start" x="192.88" y="-574" font-family="Helvetica,sans-Serif" font-size="10.00"> </text>
<polygon fill="#666666" stroke="#666666" points="171.62,-600.75 171.62,-600.75 217.12,-600.75 217.12,-600.75 171.62,-600.75"/>
<polygon fill="#666666" stroke="#666666" points="171.62,-585.5 171.62,-585.5 217.12,-585.5 217.12,-585.5 171.62,-585.5"/>
<polygon fill="none" stroke="#666666" points="171.62,-568.25 171.62,-618 217.12,-618 217.12,-568.25 171.62,-568.25"/>
</a>
</g>
</g>
<!-- Node5&#45;&gt;Node3 -->
<g id="edge4_Node000003_Node000005" class="edge">
<title>Node5&#45;&gt;Node3</title>
<g id="a_edge4_Node000003_Node000005"><a xlink:title=" ">
<path fill="none" stroke="#63b8ff" d="M188.49,-557.27C187.15,-549.34 185.65,-540.47 184.07,-531.1"/>
<polygon fill="none" stroke="#63b8ff" points="185.02,-557.74 190.13,-567.02 191.92,-556.57 185.02,-557.74"/>
</a>
</g>
</g>
</g>
</svg>
