<?xml version="1.0" encoding="UTF-8" standalone="no"?>
<!DOCTYPE svg PUBLIC "-//W3C//DTD SVG 1.1//EN"
 "http://www.w3.org/Graphics/SVG/1.1/DTD/svg11.dtd">
<!-- Generated by graphviz version 8.1.0 (20230707.0739)
 -->
<!-- Title: GamR::Nucleus::LevelSchemeFitter::Transition Pages: 1 -->
<svg width="244pt" height="618pt"
 viewBox="0.00 0.00 244.00 617.50" xmlns="http://www.w3.org/2000/svg" xmlns:xlink="http://www.w3.org/1999/xlink">
<g id="graph0" class="graph" transform="scale(1 1) rotate(0) translate(4 613.5)">
<title>GamR::Nucleus::LevelSchemeFitter::Transition</title>
<!-- Node1 -->
<g id="Node000001" class="node">
<title>Node1</title>
<g id="a_Node000001"><a xlink:title=" ">
<polygon fill="#999999" stroke="none" points="142,-210 0,-210 0,0 142,0 142,-210"/>
<text text-anchor="start" x="4.62" y="-196.5" font-family="Helvetica,sans-Serif" font-size="10.00">GamR::Nucleus::LevelScheme</text>
<text text-anchor="start" x="36.12" y="-185.25" font-family="Helvetica,sans-Serif" font-size="10.00">Fitter::Transition</text>
<text text-anchor="start" x="12.5" y="-170.5" font-family="Helvetica,sans-Serif" font-size="10.00">+</text>
<text text-anchor="start" x="31" y="-170.5" font-family="Helvetica,sans-Serif" font-size="10.00">fEnergy</text>
<text text-anchor="start" x="12.5" y="-155.5" font-family="Helvetica,sans-Serif" font-size="10.00">+</text>
<text text-anchor="start" x="31" y="-155.5" font-family="Helvetica,sans-Serif" font-size="10.00">fUncertainty</text>
<text text-anchor="start" x="12.5" y="-140.5" font-family="Helvetica,sans-Serif" font-size="10.00">+</text>
<text text-anchor="start" x="31" y="-140.5" font-family="Helvetica,sans-Serif" font-size="10.00">fLabel</text>
<text text-anchor="start" x="12.5" y="-125.5" font-family="Helvetica,sans-Serif" font-size="10.00">+</text>
<text text-anchor="start" x="31" y="-125.5" font-family="Helvetica,sans-Serif" font-size="10.00">Transition()</text>
<text text-anchor="start" x="12.5" y="-110.5" font-family="Helvetica,sans-Serif" font-size="10.00">+</text>
<text text-anchor="start" x="31" y="-110.5" font-family="Helvetica,sans-Serif" font-size="10.00">Transition()</text>
<text text-anchor="start" x="12.5" y="-95.5" font-family="Helvetica,sans-Serif" font-size="10.00">+</text>
<text text-anchor="start" x="31" y="-95.5" font-family="Helvetica,sans-Serif" font-size="10.00">~Transition()</text>
<text text-anchor="start" x="12.5" y="-80.5" font-family="Helvetica,sans-Serif" font-size="10.00">+</text>
<text text-anchor="start" x="31" y="-80.5" font-family="Helvetica,sans-Serif" font-size="10.00">Paint()</text>
<text text-anchor="start" x="12.5" y="-65.5" font-family="Helvetica,sans-Serif" font-size="10.00">+</text>
<text text-anchor="start" x="31" y="-65.5" font-family="Helvetica,sans-Serif" font-size="10.00">DistancetoPrimitive()</text>
<text text-anchor="start" x="12.5" y="-50.5" font-family="Helvetica,sans-Serif" font-size="10.00">+</text>
<text text-anchor="start" x="31" y="-50.5" font-family="Helvetica,sans-Serif" font-size="10.00">ExecuteEvent()</text>
<text text-anchor="start" x="12.5" y="-35.5" font-family="Helvetica,sans-Serif" font-size="10.00">+</text>
<text text-anchor="start" x="31" y="-35.5" font-family="Helvetica,sans-Serif" font-size="10.00">Draw()</text>
<text text-anchor="start" x="12.5" y="-20.5" font-family="Helvetica,sans-Serif" font-size="10.00">+</text>
<text text-anchor="start" x="31" y="-20.5" font-family="Helvetica,sans-Serif" font-size="10.00">operator&lt;()</text>
<text text-anchor="start" x="12.5" y="-5.5" font-family="Helvetica,sans-Serif" font-size="10.00">+</text>
<text text-anchor="start" x="31" y="-5.5" font-family="Helvetica,sans-Serif" font-size="10.00">ClassDef()</text>
<polygon fill="#666666" stroke="#666666" points="0,-182 0,-182 142,-182 142,-182 0,-182"/>
<polygon fill="#666666" stroke="#666666" points="0,-137 0,-137 29,-137 29,-137 0,-137"/>
<polygon fill="#666666" stroke="#666666" points="29,-137 29,-137 142,-137 142,-137 29,-137"/>
<polygon fill="none" stroke="#666666" points="0,0 0,-210 142,-210 142,0 0,0"/>
</a>
</g>
</g>
<!-- Node2 -->
<g id="Node000002" class="node">
<title>Node2</title>
<g id="a_Node000002"><a xlink:title=" ">
<polygon fill="white" stroke="none" points="75.5,-420.5 34.5,-420.5 34.5,-371.5 75.5,-371.5 75.5,-420.5"/>
<text text-anchor="start" x="39.25" y="-407" font-family="Helvetica,sans-Serif" font-size="10.00">TArrow</text>
<text text-anchor="start" x="53.5" y="-392" font-family="Helvetica,sans-Serif" font-size="10.00"> </text>
<text text-anchor="start" x="53.5" y="-377" font-family="Helvetica,sans-Serif" font-size="10.00"> </text>
<polygon fill="#666666" stroke="#666666" points="34.5,-403.5 34.5,-403.5 75.5,-403.5 75.5,-403.5 34.5,-403.5"/>
<polygon fill="#666666" stroke="#666666" points="34.5,-388.5 34.5,-388.5 75.5,-388.5 75.5,-388.5 34.5,-388.5"/>
<polygon fill="none" stroke="#666666" points="34.5,-371.5 34.5,-420.5 75.5,-420.5 75.5,-371.5 34.5,-371.5"/>
</a>
</g>
</g>
<!-- Node2&#45;&gt;Node1 -->
<g id="edge1_Node000001_Node000002" class="edge">
<title>Node2&#45;&gt;Node1</title>
<g id="a_edge1_Node000001_Node000002"><a xlink:title=" ">
<path fill="none" stroke="#63b8ff" d="M56.87,-361.16C58.92,-324.14 62.31,-262.98 65.25,-209.82"/>
<polygon fill="none" stroke="#63b8ff" points="53.34,-360.66 56.28,-370.84 60.33,-361.05 53.34,-360.66"/>
</a>
</g>
</g>
<!-- Node3 -->
<g id="Node000003" class="node">
<title>Node3</title>
<g id="a_Node000003"><a xlink:href="../../d3/d4b/class_gam_r_1_1_nucleus_1_1_level_scheme_fitter_1_1_state.html" target="_top" xlink:title=" ">
<polygon fill="white" stroke="none" points="236,-523.5 94,-523.5 94,-268.5 236,-268.5 236,-523.5"/>
<text text-anchor="start" x="98.62" y="-510" font-family="Helvetica,sans-Serif" font-size="10.00">GamR::Nucleus::LevelScheme</text>
<text text-anchor="start" x="139.88" y="-498.75" font-family="Helvetica,sans-Serif" font-size="10.00">Fitter::State</text>
<text text-anchor="start" x="106.5" y="-484" font-family="Helvetica,sans-Serif" font-size="10.00">+</text>
<text text-anchor="start" x="125" y="-484" font-family="Helvetica,sans-Serif" font-size="10.00">index</text>
<text text-anchor="start" x="106.5" y="-469" font-family="Helvetica,sans-Serif" font-size="10.00">+</text>
<text text-anchor="start" x="125" y="-469" font-family="Helvetica,sans-Serif" font-size="10.00">fEnergy</text>
<text text-anchor="start" x="106.5" y="-454" font-family="Helvetica,sans-Serif" font-size="10.00">+</text>
<text text-anchor="start" x="125" y="-454" font-family="Helvetica,sans-Serif" font-size="10.00">fUncertainty</text>
<text text-anchor="start" x="106.5" y="-439" font-family="Helvetica,sans-Serif" font-size="10.00">+</text>
<text text-anchor="start" x="125" y="-439" font-family="Helvetica,sans-Serif" font-size="10.00">fDrawPos</text>
<text text-anchor="start" x="106.5" y="-424" font-family="Helvetica,sans-Serif" font-size="10.00">+</text>
<text text-anchor="start" x="125" y="-424" font-family="Helvetica,sans-Serif" font-size="10.00">fLabelPos</text>
<text text-anchor="start" x="106.5" y="-409" font-family="Helvetica,sans-Serif" font-size="10.00">+</text>
<text text-anchor="start" x="125" y="-409" font-family="Helvetica,sans-Serif" font-size="10.00">fLabel</text>
<text text-anchor="start" x="106.5" y="-394" font-family="Helvetica,sans-Serif" font-size="10.00">+</text>
<text text-anchor="start" x="125" y="-394" font-family="Helvetica,sans-Serif" font-size="10.00">State()</text>
<text text-anchor="start" x="106.5" y="-379" font-family="Helvetica,sans-Serif" font-size="10.00">+</text>
<text text-anchor="start" x="125" y="-379" font-family="Helvetica,sans-Serif" font-size="10.00">State()</text>
<text text-anchor="start" x="106.5" y="-364" font-family="Helvetica,sans-Serif" font-size="10.00">+</text>
<text text-anchor="start" x="125" y="-364" font-family="Helvetica,sans-Serif" font-size="10.00">~State()</text>
<text text-anchor="start" x="106.5" y="-349" font-family="Helvetica,sans-Serif" font-size="10.00">+</text>
<text text-anchor="start" x="125" y="-349" font-family="Helvetica,sans-Serif" font-size="10.00">DistancetoPrimitive()</text>
<text text-anchor="start" x="106.5" y="-334" font-family="Helvetica,sans-Serif" font-size="10.00">+</text>
<text text-anchor="start" x="125" y="-334" font-family="Helvetica,sans-Serif" font-size="10.00">ExecuteEvent()</text>
<text text-anchor="start" x="106.5" y="-319" font-family="Helvetica,sans-Serif" font-size="10.00">+</text>
<text text-anchor="start" x="125" y="-319" font-family="Helvetica,sans-Serif" font-size="10.00">Paint()</text>
<text text-anchor="start" x="106.5" y="-304" font-family="Helvetica,sans-Serif" font-size="10.00">+</text>
<text text-anchor="start" x="125" y="-304" font-family="Helvetica,sans-Serif" font-size="10.00">operator&lt;()</text>
<text text-anchor="start" x="106.5" y="-289" font-family="Helvetica,sans-Serif" font-size="10.00">+</text>
<text text-anchor="start" x="125" y="-289" font-family="Helvetica,sans-Serif" font-size="10.00">operator==()</text>
<text text-anchor="start" x="106.5" y="-274" font-family="Helvetica,sans-Serif" font-size="10.00">+</text>
<text text-anchor="start" x="125" y="-274" font-family="Helvetica,sans-Serif" font-size="10.00">ClassDef()</text>
<polygon fill="#666666" stroke="#666666" points="94,-495.5 94,-495.5 236,-495.5 236,-495.5 94,-495.5"/>
<polygon fill="#666666" stroke="#666666" points="94,-405.5 94,-405.5 123,-405.5 123,-405.5 94,-405.5"/>
<polygon fill="#666666" stroke="#666666" points="123,-405.5 123,-405.5 236,-405.5 236,-405.5 123,-405.5"/>
<polygon fill="none" stroke="#666666" points="94,-268.5 94,-523.5 236,-523.5 236,-268.5 94,-268.5"/>
</a>
</g>
</g>
<!-- Node3&#45;&gt;Node1 -->
<g id="edge2_Node000001_Node000003" class="edge">
<title>Node3&#45;&gt;Node1</title>
<g id="a_edge2_Node000001_Node000003"><a xlink:title=" ">
<path fill="none" stroke="#63b8ff" d="M123.91,-268.66C118.88,-253.2 113.76,-237.46 108.78,-222.16"/>
<polygon fill="none" stroke="#63b8ff" points="108.82,-222.26 103.16,-217.8 105.1,-210.85 110.76,-215.32 108.82,-222.26"/>
</a>
</g>
<text text-anchor="middle" x="134.12" y="-241" font-family="Helvetica,sans-Serif" font-size="10.00" fill="grey"> +fFinal</text>
<text text-anchor="middle" x="134.12" y="-229.75" font-family="Helvetica,sans-Serif" font-size="10.00" fill="grey">+fInitial</text>
</g>
<!-- Node4 -->
<g id="Node000004" class="node">
<title>Node4</title>
<g id="a_Node000004"><a xlink:title=" ">
<polygon fill="white" stroke="none" points="156.5,-609.5 109.5,-609.5 109.5,-560.5 156.5,-560.5 156.5,-609.5"/>
<text text-anchor="start" x="114.25" y="-596" font-family="Helvetica,sans-Serif" font-size="10.00">TNamed</text>
<text text-anchor="start" x="131.5" y="-581" font-family="Helvetica,sans-Serif" font-size="10.00"> </text>
<text text-anchor="start" x="131.5" y="-566" font-family="Helvetica,sans-Serif" font-size="10.00"> </text>
<polygon fill="#666666" stroke="#666666" points="109.5,-592.5 109.5,-592.5 156.5,-592.5 156.5,-592.5 109.5,-592.5"/>
<polygon fill="#666666" stroke="#666666" points="109.5,-577.5 109.5,-577.5 156.5,-577.5 156.5,-577.5 109.5,-577.5"/>
<polygon fill="none" stroke="#666666" points="109.5,-560.5 109.5,-609.5 156.5,-609.5 156.5,-560.5 109.5,-560.5"/>
</a>
</g>
</g>
<!-- Node4&#45;&gt;Node3 -->
<g id="edge3_Node000003_Node000004" class="edge">
<title>Node4&#45;&gt;Node3</title>
<g id="a_edge3_Node000003_Node000004"><a xlink:title=" ">
<path fill="none" stroke="#63b8ff" d="M138.81,-550.04C140.19,-542 141.74,-532.95 143.37,-523.38"/>
<polygon fill="none" stroke="#63b8ff" points="135.23,-549.25 136.99,-559.69 142.12,-550.43 135.23,-549.25"/>
</a>
</g>
</g>
<!-- Node5 -->
<g id="Node000005" class="node">
<title>Node5</title>
<g id="a_Node000005"><a xlink:title=" ">
<polygon fill="white" stroke="none" points="221.5,-609.5 174.5,-609.5 174.5,-560.5 221.5,-560.5 221.5,-609.5"/>
<text text-anchor="start" x="179.25" y="-596" font-family="Helvetica,sans-Serif" font-size="10.00">TAttLine</text>
<text text-anchor="start" x="196.5" y="-581" font-family="Helvetica,sans-Serif" font-size="10.00"> </text>
<text text-anchor="start" x="196.5" y="-566" font-family="Helvetica,sans-Serif" font-size="10.00"> </text>
<polygon fill="#666666" stroke="#666666" points="174.5,-592.5 174.5,-592.5 221.5,-592.5 221.5,-592.5 174.5,-592.5"/>
<polygon fill="#666666" stroke="#666666" points="174.5,-577.5 174.5,-577.5 221.5,-577.5 221.5,-577.5 174.5,-577.5"/>
<polygon fill="none" stroke="#666666" points="174.5,-560.5 174.5,-609.5 221.5,-609.5 221.5,-560.5 174.5,-560.5"/>
</a>
</g>
</g>
<!-- Node5&#45;&gt;Node3 -->
<g id="edge4_Node000003_Node000005" class="edge">
<title>Node5&#45;&gt;Node3</title>
<g id="a_edge4_Node000003_Node000005"><a xlink:title=" ">
<path fill="none" stroke="#63b8ff" d="M192.01,-550.04C190.59,-542 188.99,-532.95 187.3,-523.38"/>
<polygon fill="none" stroke="#63b8ff" points="188.7,-550.45 193.89,-559.69 195.6,-549.24 188.7,-550.45"/>
</a>
</g>
</g>
</g>
</svg>
