<?xml version="1.0" encoding="UTF-8" standalone="no"?>
<!DOCTYPE svg PUBLIC "-//W3C//DTD SVG 1.1//EN"
 "http://www.w3.org/Graphics/SVG/1.1/DTD/svg11.dtd">
<!-- Generated by graphviz version 2.49.3 (20211023.0002)
 -->
<!-- Title: GamR::Sort::Type::TimeWalkCal::TimeWalkCal Pages: 1 -->
<svg width="651pt" height="127pt"
 viewBox="0.00 0.00 651.00 127.00" xmlns="http://www.w3.org/2000/svg" xmlns:xlink="http://www.w3.org/1999/xlink">
<g id="graph0" class="graph" transform="scale(1 1) rotate(0) translate(4 123)">
<title>GamR::Sort::Type::TimeWalkCal::TimeWalkCal</title>
<polygon fill="white" stroke="transparent" points="-4,4 -4,-123 647,-123 647,4 -4,4"/>
<!-- Node1 -->
<g id="node1" class="node">
<title>Node1</title>
<g id="a_node1"><a xlink:title=" ">
<polygon fill="#bfbfbf" stroke="black" points="0,-44.5 0,-74.5 146,-74.5 146,-44.5 0,-44.5"/>
<text text-anchor="start" x="8" y="-62.5" font-family="Helvetica,sans-Serif" font-size="10.00">GamR::Sort::Type::TimeWalk</text>
<text text-anchor="middle" x="73" y="-51.5" font-family="Helvetica,sans-Serif" font-size="10.00">Cal::TimeWalkCal</text>
</a>
</g>
</g>
<!-- Node2 -->
<g id="node2" class="node">
<title>Node2</title>
<g id="a_node2"><a xlink:href="../../d3/d27/class_gam_r_1_1_sort_1_1_sorter.html#ae6f53503e0c3225df3b5763192a54f0a" target="_top" xlink:title=" ">
<polygon fill="white" stroke="black" points="182,-88.5 182,-118.5 284,-118.5 284,-88.5 182,-88.5"/>
<text text-anchor="start" x="190" y="-106.5" font-family="Helvetica,sans-Serif" font-size="10.00">GamR::Sort::Sorter</text>
<text text-anchor="middle" x="233" y="-95.5" font-family="Helvetica,sans-Serif" font-size="10.00">::GetMatrix</text>
</a>
</g>
</g>
<!-- Node1&#45;&gt;Node2 -->
<g id="edge1" class="edge">
<title>Node1&#45;&gt;Node2</title>
<path fill="none" stroke="midnightblue" d="M127.93,-74.52C142.1,-78.46 157.46,-82.74 171.92,-86.77"/>
<polygon fill="midnightblue" stroke="midnightblue" points="171.2,-90.2 181.77,-89.51 173.07,-83.46 171.2,-90.2"/>
</g>
<!-- Node3 -->
<g id="node3" class="node">
<title>Node3</title>
<g id="a_node3"><a xlink:href="../../d0/d17/_abbreviations_8cc.html#a5d1794b612bdcca3f4f4baa3d2e38a0b" target="_top" xlink:title=" ">
<polygon fill="white" stroke="black" points="218.5,-50 218.5,-69 247.5,-69 247.5,-50 218.5,-50"/>
<text text-anchor="middle" x="233" y="-57" font-family="Helvetica,sans-Serif" font-size="10.00">ss</text>
</a>
</g>
</g>
<!-- Node1&#45;&gt;Node3 -->
<g id="edge2" class="edge">
<title>Node1&#45;&gt;Node3</title>
<path fill="none" stroke="midnightblue" d="M146.06,-59.5C168.28,-59.5 191.24,-59.5 207.83,-59.5"/>
<polygon fill="midnightblue" stroke="midnightblue" points="208.21,-63 218.21,-59.5 208.21,-56 208.21,-63"/>
</g>
<!-- Node6 -->
<g id="node6" class="node">
<title>Node6</title>
<g id="a_node6"><a xlink:href="../../d3/d27/class_gam_r_1_1_sort_1_1_sorter.html#a51c1581fef56e2b16c8e9a3fc3a4ad4e" target="_top" xlink:title=" ">
<polygon fill="white" stroke="black" points="182,-0.5 182,-30.5 284,-30.5 284,-0.5 182,-0.5"/>
<text text-anchor="start" x="190" y="-18.5" font-family="Helvetica,sans-Serif" font-size="10.00">GamR::Sort::Sorter</text>
<text text-anchor="middle" x="233" y="-7.5" font-family="Helvetica,sans-Serif" font-size="10.00">::WriteObject</text>
</a>
</g>
</g>
<!-- Node1&#45;&gt;Node6 -->
<g id="edge6" class="edge">
<title>Node1&#45;&gt;Node6</title>
<path fill="none" stroke="midnightblue" d="M127.93,-44.48C142.1,-40.54 157.46,-36.26 171.92,-32.23"/>
<polygon fill="midnightblue" stroke="midnightblue" points="173.07,-35.54 181.77,-29.49 171.2,-28.8 173.07,-35.54"/>
</g>
<!-- Node4 -->
<g id="node4" class="node">
<title>Node4</title>
<g id="a_node4"><a xlink:href="../../dc/d89/namespace_gam_r_1_1_spect.html#ab983da62eb972889ea13491189e13913" target="_top" xlink:title=" ">
<polygon fill="white" stroke="black" points="320,-50 320,-69 462,-69 462,-50 320,-50"/>
<text text-anchor="middle" x="391" y="-57" font-family="Helvetica,sans-Serif" font-size="10.00">GamR::Spect::StackSpectra</text>
</a>
</g>
</g>
<!-- Node3&#45;&gt;Node4 -->
<g id="edge3" class="edge">
<title>Node3&#45;&gt;Node4</title>
<path fill="none" stroke="midnightblue" d="M247.57,-59.5C261.84,-59.5 285.51,-59.5 309.5,-59.5"/>
<polygon fill="midnightblue" stroke="midnightblue" points="309.78,-63 319.78,-59.5 309.78,-56 309.78,-63"/>
</g>
<!-- Node4&#45;&gt;Node4 -->
<g id="edge5" class="edge">
<title>Node4&#45;&gt;Node4</title>
<path fill="none" stroke="midnightblue" d="M366.65,-69.26C354.8,-78.07 362.92,-87.5 391,-87.5 409.43,-87.5 419.26,-83.44 420.49,-78.15"/>
<polygon fill="midnightblue" stroke="midnightblue" points="423.39,-76.16 415.35,-69.26 417.32,-79.67 423.39,-76.16"/>
</g>
<!-- Node5 -->
<g id="node5" class="node">
<title>Node5</title>
<g id="a_node5"><a xlink:href="../../dc/d89/namespace_gam_r_1_1_spect.html#a56e80bce5bf691212c8b7dfb76c2d2b4" target="_top" xlink:title=" ">
<polygon fill="white" stroke="black" points="498,-50 498,-69 643,-69 643,-50 498,-50"/>
<text text-anchor="middle" x="570.5" y="-57" font-family="Helvetica,sans-Serif" font-size="10.00">GamR::Spect::List1DSpectra</text>
</a>
</g>
</g>
<!-- Node4&#45;&gt;Node5 -->
<g id="edge4" class="edge">
<title>Node4&#45;&gt;Node5</title>
<path fill="none" stroke="midnightblue" d="M462.15,-59.5C470.58,-59.5 479.24,-59.5 487.82,-59.5"/>
<polygon fill="midnightblue" stroke="midnightblue" points="487.82,-63 497.82,-59.5 487.82,-56 487.82,-63"/>
</g>
</g>
</svg>
