<?xml version="1.0" encoding="UTF-8" standalone="no"?>
<!DOCTYPE svg PUBLIC "-//W3C//DTD SVG 1.1//EN"
 "http://www.w3.org/Graphics/SVG/1.1/DTD/svg11.dtd">
<!-- Generated by graphviz version 2.49.3 (20211023.0002)
 -->
<!-- Title: GamR::Spect::Counts Pages: 1 -->
<svg width="471pt" height="144pt"
 viewBox="0.00 0.00 471.00 144.00" xmlns="http://www.w3.org/2000/svg" xmlns:xlink="http://www.w3.org/1999/xlink">
<g id="graph0" class="graph" transform="scale(1 1) rotate(0) translate(4 140)">
<title>GamR::Spect::Counts</title>
<polygon fill="white" stroke="transparent" points="-4,4 -4,-140 467,-140 467,4 -4,4"/>
<!-- Node1 -->
<g id="node1" class="node">
<title>Node1</title>
<g id="a_node1"><a xlink:title=" ">
<polygon fill="#bfbfbf" stroke="black" points="0,-56.5 0,-75.5 114,-75.5 114,-56.5 0,-56.5"/>
<text text-anchor="middle" x="57" y="-63.5" font-family="Helvetica,sans-Serif" font-size="10.00">GamR::Spect::Counts</text>
</a>
</g>
</g>
<!-- Node2 -->
<g id="node2" class="node">
<title>Node2</title>
<g id="a_node2"><a xlink:href="../../dc/d89/namespace_gam_r_1_1_spect.html#a100c7a24b9e9670a79f4707d985bd259" target="_top" xlink:title=" ">
<polygon fill="white" stroke="black" points="159.5,-94.5 159.5,-113.5 273.5,-113.5 273.5,-94.5 159.5,-94.5"/>
<text text-anchor="middle" x="216.5" y="-101.5" font-family="Helvetica,sans-Serif" font-size="10.00">GamR::Spect::Counts</text>
</a>
</g>
</g>
<!-- Node1&#45;&gt;Node2 -->
<g id="edge1" class="edge">
<title>Node1&#45;&gt;Node2</title>
<path fill="none" stroke="midnightblue" d="M97.74,-75.59C118.53,-80.6 144.16,-86.79 166.2,-92.11"/>
<polygon fill="midnightblue" stroke="midnightblue" points="165.5,-95.54 176.04,-94.48 167.14,-88.73 165.5,-95.54"/>
</g>
<!-- Node5 -->
<g id="node5" class="node">
<title>Node5</title>
<g id="a_node5"><a xlink:href="../../d0/db7/namespace_gam_r_1_1_utils.html#a31f74a9ca644d560dc14e19c4dbd773b" target="_top" xlink:title=" ">
<polygon fill="white" stroke="black" points="155.5,-56.5 155.5,-75.5 277.5,-75.5 277.5,-56.5 155.5,-56.5"/>
<text text-anchor="middle" x="216.5" y="-63.5" font-family="Helvetica,sans-Serif" font-size="10.00">GamR::Utils::GetHist1D</text>
</a>
</g>
</g>
<!-- Node1&#45;&gt;Node5 -->
<g id="edge4" class="edge">
<title>Node1&#45;&gt;Node5</title>
<path fill="none" stroke="midnightblue" d="M114.42,-66C124.41,-66 134.93,-66 145.25,-66"/>
<polygon fill="midnightblue" stroke="midnightblue" points="145.48,-69.5 155.48,-66 145.48,-62.5 145.48,-69.5"/>
</g>
<!-- Node6 -->
<g id="node6" class="node">
<title>Node6</title>
<g id="a_node6"><a xlink:href="../../d0/d74/group___t_k.html#ga78f4477af7c95058e8a572065086f68a" target="_top" xlink:title=" ">
<polygon fill="white" stroke="black" points="150,-0.5 150,-19.5 283,-19.5 283,-0.5 150,-0.5"/>
<text text-anchor="middle" x="216.5" y="-7.5" font-family="Helvetica,sans-Serif" font-size="10.00">GamR::TK::Gate::SetGate</text>
</a>
</g>
</g>
<!-- Node1&#45;&gt;Node6 -->
<g id="edge5" class="edge">
<title>Node1&#45;&gt;Node6</title>
<path fill="none" stroke="midnightblue" d="M85.08,-56.37C111.04,-47.14 150.42,-33.14 179.11,-22.94"/>
<polygon fill="midnightblue" stroke="midnightblue" points="180.53,-26.15 188.78,-19.5 178.18,-19.55 180.53,-26.15"/>
</g>
<!-- Node3 -->
<g id="node3" class="node">
<title>Node3</title>
<g id="a_node3"><a xlink:href="../../d0/d74/group___t_k.html#ga4607d5e3d8f5d83d75f4ca038572a7f8" target="_top" xlink:title=" ">
<polygon fill="white" stroke="black" points="319,-116.5 319,-135.5 463,-135.5 463,-116.5 319,-116.5"/>
<text text-anchor="middle" x="391" y="-123.5" font-family="Helvetica,sans-Serif" font-size="10.00">GamR::TK::Gate::GetCounts</text>
</a>
</g>
</g>
<!-- Node2&#45;&gt;Node3 -->
<g id="edge2" class="edge">
<title>Node2&#45;&gt;Node3</title>
<path fill="none" stroke="midnightblue" d="M273.51,-111.14C284.8,-112.58 296.89,-114.13 308.85,-115.65"/>
<polygon fill="midnightblue" stroke="midnightblue" points="308.49,-119.13 318.85,-116.93 309.37,-112.19 308.49,-119.13"/>
</g>
<!-- Node4 -->
<g id="node4" class="node">
<title>Node4</title>
<g id="a_node4"><a xlink:href="../../d0/d74/group___t_k.html#ga0073e987a24adc053cfbf2c833d41749" target="_top" xlink:title=" ">
<polygon fill="white" stroke="black" points="319,-67 319,-97 463,-97 463,-67 319,-67"/>
<text text-anchor="start" x="327" y="-85" font-family="Helvetica,sans-Serif" font-size="10.00">GamR::TK::Gate::GetCounts</text>
<text text-anchor="middle" x="391" y="-74" font-family="Helvetica,sans-Serif" font-size="10.00">Error</text>
</a>
</g>
</g>
<!-- Node2&#45;&gt;Node4 -->
<g id="edge3" class="edge">
<title>Node2&#45;&gt;Node4</title>
<path fill="none" stroke="midnightblue" d="M273.51,-96.86C284.8,-95.42 296.89,-93.87 308.85,-92.35"/>
<polygon fill="midnightblue" stroke="midnightblue" points="309.37,-95.81 318.85,-91.07 308.49,-88.87 309.37,-95.81"/>
</g>
<!-- Node6&#45;&gt;Node6 -->
<g id="edge6" class="edge">
<title>Node6&#45;&gt;Node6</title>
<path fill="none" stroke="midnightblue" d="M192.15,-19.76C180.3,-28.57 188.42,-38 216.5,-38 234.93,-38 244.76,-33.94 245.99,-28.65"/>
<polygon fill="midnightblue" stroke="midnightblue" points="248.89,-26.66 240.85,-19.76 242.82,-30.17 248.89,-26.66"/>
</g>
</g>
</svg>
