<?xml version="1.0" encoding="UTF-8" standalone="no"?>
<!DOCTYPE svg PUBLIC "-//W3C//DTD SVG 1.1//EN"
 "http://www.w3.org/Graphics/SVG/1.1/DTD/svg11.dtd">
<!-- Generated by graphviz version 2.49.3 (20211023.0002)
 -->
<!-- Title: GamR::Spect::Rebin Pages: 1 -->
<svg width="260pt" height="66pt"
 viewBox="0.00 0.00 260.00 66.00" xmlns="http://www.w3.org/2000/svg" xmlns:xlink="http://www.w3.org/1999/xlink">
<g id="graph0" class="graph" transform="scale(1 1) rotate(0) translate(4 62)">
<title>GamR::Spect::Rebin</title>
<polygon fill="white" stroke="transparent" points="-4,4 -4,-62 256,-62 256,4 -4,4"/>
<!-- Node1 -->
<g id="node1" class="node">
<title>Node1</title>
<g id="a_node1"><a xlink:title=" ">
<polygon fill="#bfbfbf" stroke="black" points="144,-19.5 144,-38.5 252,-38.5 252,-19.5 144,-19.5"/>
<text text-anchor="middle" x="198" y="-26.5" font-family="Helvetica,sans-Serif" font-size="10.00">GamR::Spect::Rebin</text>
</a>
</g>
</g>
<!-- Node2 -->
<g id="node2" class="node">
<title>Node2</title>
<g id="a_node2"><a xlink:href="../../d0/d17/_abbreviations_8cc.html#a369e706be79fe586cf8c2de1ad10eb76" target="_top" xlink:title=" ">
<polygon fill="white" stroke="black" points="39.5,-38.5 39.5,-57.5 68.5,-57.5 68.5,-38.5 39.5,-38.5"/>
<text text-anchor="middle" x="54" y="-45.5" font-family="Helvetica,sans-Serif" font-size="10.00">rb</text>
</a>
</g>
</g>
<!-- Node1&#45;&gt;Node2 -->
<g id="edge1" class="edge">
<title>Node1&#45;&gt;Node2</title>
<path fill="none" stroke="midnightblue" d="M133.75,-37.46C109.4,-40.72 83.81,-44.14 68.64,-46.17"/>
<polygon fill="midnightblue" stroke="midnightblue" points="134.27,-40.92 143.72,-36.13 133.34,-33.99 134.27,-40.92"/>
</g>
<!-- Node3 -->
<g id="node3" class="node">
<title>Node3</title>
<g id="a_node3"><a xlink:href="../../dc/d89/namespace_gam_r_1_1_spect.html#ab6884a6323a0b4f61d4e3e5a47ce60ae" target="_top" xlink:title=" ">
<polygon fill="white" stroke="black" points="0,-0.5 0,-19.5 108,-19.5 108,-0.5 0,-0.5"/>
<text text-anchor="middle" x="54" y="-7.5" font-family="Helvetica,sans-Serif" font-size="10.00">GamR::Spect::Rebin</text>
</a>
</g>
</g>
<!-- Node1&#45;&gt;Node3 -->
<g id="edge2" class="edge">
<title>Node1&#45;&gt;Node3</title>
<path fill="none" stroke="midnightblue" d="M133.76,-20.54C125.19,-19.39 116.47,-18.23 108.11,-17.11"/>
<polygon fill="midnightblue" stroke="midnightblue" points="133.34,-24.01 143.72,-21.87 134.27,-17.08 133.34,-24.01"/>
</g>
</g>
</svg>
