<?xml version="1.0" encoding="UTF-8" standalone="no"?>
<!DOCTYPE svg PUBLIC "-//W3C//DTD SVG 1.1//EN"
 "http://www.w3.org/Graphics/SVG/1.1/DTD/svg11.dtd">
<!-- Generated by graphviz version 2.49.3 (20211023.0002)
 -->
<!-- Title: GamR::Spect::CountsBS Pages: 1 -->
<svg width="648pt" height="202pt"
 viewBox="0.00 0.00 648.00 202.00" xmlns="http://www.w3.org/2000/svg" xmlns:xlink="http://www.w3.org/1999/xlink">
<g id="graph0" class="graph" transform="scale(1 1) rotate(0) translate(4 198)">
<title>GamR::Spect::CountsBS</title>
<polygon fill="white" stroke="transparent" points="-4,4 -4,-198 644,-198 644,4 -4,4"/>
<!-- Node1 -->
<g id="node1" class="node">
<title>Node1</title>
<g id="a_node1"><a xlink:title=" ">
<polygon fill="#bfbfbf" stroke="black" points="0,-90 0,-109 127,-109 127,-90 0,-90"/>
<text text-anchor="middle" x="63.5" y="-97" font-family="Helvetica,sans-Serif" font-size="10.00">GamR::Spect::CountsBS</text>
</a>
</g>
</g>
<!-- Node2 -->
<g id="node2" class="node">
<title>Node2</title>
<g id="a_node2"><a xlink:href="../../dc/d89/namespace_gam_r_1_1_spect.html#a4be92f8a1a93dce88a3536f732eb6080" target="_top" xlink:title=" ">
<polygon fill="white" stroke="black" points="167.5,-128 167.5,-147 294.5,-147 294.5,-128 167.5,-128"/>
<text text-anchor="middle" x="231" y="-135" font-family="Helvetica,sans-Serif" font-size="10.00">GamR::Spect::CountsBS</text>
</a>
</g>
</g>
<!-- Node1&#45;&gt;Node2 -->
<g id="edge1" class="edge">
<title>Node1&#45;&gt;Node2</title>
<path fill="none" stroke="midnightblue" d="M106.26,-109.09C128.2,-114.13 155.28,-120.34 178.51,-125.68"/>
<polygon fill="midnightblue" stroke="midnightblue" points="178.01,-129.15 188.54,-127.98 179.57,-122.33 178.01,-129.15"/>
</g>
<!-- Node5 -->
<g id="node5" class="node">
<title>Node5</title>
<g id="a_node5"><a xlink:href="../../d0/db7/namespace_gam_r_1_1_utils.html#a31f74a9ca644d560dc14e19c4dbd773b" target="_top" xlink:title=" ">
<polygon fill="white" stroke="black" points="170,-90 170,-109 292,-109 292,-90 170,-90"/>
<text text-anchor="middle" x="231" y="-97" font-family="Helvetica,sans-Serif" font-size="10.00">GamR::Utils::GetHist1D</text>
</a>
</g>
</g>
<!-- Node1&#45;&gt;Node5 -->
<g id="edge4" class="edge">
<title>Node1&#45;&gt;Node5</title>
<path fill="none" stroke="midnightblue" d="M127.07,-99.5C137.68,-99.5 148.77,-99.5 159.57,-99.5"/>
<polygon fill="midnightblue" stroke="midnightblue" points="159.81,-103 169.81,-99.5 159.81,-96 159.81,-103"/>
</g>
<!-- Node6 -->
<g id="node6" class="node">
<title>Node6</title>
<g id="a_node6"><a xlink:href="../../df/d6f/class_gam_r_1_1_nucleus_1_1_transition.html#a8396c7f1f74d0314bf9e4c4cfe07e033" target="_top" xlink:title=" ">
<polygon fill="white" stroke="black" points="163,-40.5 163,-70.5 299,-70.5 299,-40.5 163,-40.5"/>
<text text-anchor="start" x="171" y="-58.5" font-family="Helvetica,sans-Serif" font-size="10.00">GamR::Nucleus::Transition</text>
<text text-anchor="middle" x="231" y="-47.5" font-family="Helvetica,sans-Serif" font-size="10.00">::SetTransition</text>
</a>
</g>
</g>
<!-- Node1&#45;&gt;Node6 -->
<g id="edge5" class="edge">
<title>Node1&#45;&gt;Node6</title>
<path fill="none" stroke="midnightblue" d="M100.41,-89.95C118.88,-85.04 141.99,-78.9 163.55,-73.17"/>
<polygon fill="midnightblue" stroke="midnightblue" points="164.57,-76.52 173.33,-70.57 162.77,-69.75 164.57,-76.52"/>
</g>
<!-- Node3 -->
<g id="node3" class="node">
<title>Node3</title>
<g id="a_node3"><a xlink:href="../../df/d6f/class_gam_r_1_1_nucleus_1_1_transition.html#afd83986d64ce37818c1d1dade9881e75" target="_top" xlink:title=" ">
<polygon fill="white" stroke="black" points="335,-163.5 335,-193.5 471,-193.5 471,-163.5 335,-163.5"/>
<text text-anchor="start" x="343" y="-181.5" font-family="Helvetica,sans-Serif" font-size="10.00">GamR::Nucleus::Transition</text>
<text text-anchor="middle" x="403" y="-170.5" font-family="Helvetica,sans-Serif" font-size="10.00">::ApplyCounts</text>
</a>
</g>
</g>
<!-- Node2&#45;&gt;Node3 -->
<g id="edge2" class="edge">
<title>Node2&#45;&gt;Node3</title>
<path fill="none" stroke="midnightblue" d="M271.43,-147.01C288.79,-151.2 309.76,-156.25 329.76,-161.08"/>
<polygon fill="midnightblue" stroke="midnightblue" points="328.94,-164.48 339.48,-163.42 330.58,-157.68 328.94,-164.48"/>
</g>
<!-- Node4 -->
<g id="node4" class="node">
<title>Node4</title>
<g id="a_node4"><a xlink:href="../../df/d6f/class_gam_r_1_1_nucleus_1_1_transition.html#a3f8c39fbbcecc2006167727936830ae0" target="_top" xlink:title=" ">
<polygon fill="white" stroke="black" points="335,-114.5 335,-144.5 471,-144.5 471,-114.5 335,-114.5"/>
<text text-anchor="start" x="343" y="-132.5" font-family="Helvetica,sans-Serif" font-size="10.00">GamR::Nucleus::Transition</text>
<text text-anchor="middle" x="403" y="-121.5" font-family="Helvetica,sans-Serif" font-size="10.00">::ApplyCountsError</text>
</a>
</g>
</g>
<!-- Node2&#45;&gt;Node4 -->
<g id="edge3" class="edge">
<title>Node2&#45;&gt;Node4</title>
<path fill="none" stroke="midnightblue" d="M294.82,-134.54C304.61,-134.08 314.82,-133.6 324.88,-133.13"/>
<polygon fill="midnightblue" stroke="midnightblue" points="325.05,-136.63 334.87,-132.66 324.72,-129.63 325.05,-136.63"/>
</g>
<!-- Node7 -->
<g id="node7" class="node">
<title>Node7</title>
<g id="a_node7"><a xlink:href="../../df/d6f/class_gam_r_1_1_nucleus_1_1_transition.html#a0bdde1b1141578330beeab42b8b5dbc4" target="_top" xlink:title=" ">
<polygon fill="white" stroke="black" points="335,-49.5 335,-79.5 471,-79.5 471,-49.5 335,-49.5"/>
<text text-anchor="start" x="343" y="-67.5" font-family="Helvetica,sans-Serif" font-size="10.00">GamR::Nucleus::Transition</text>
<text text-anchor="middle" x="403" y="-56.5" font-family="Helvetica,sans-Serif" font-size="10.00">::SetBackground</text>
</a>
</g>
</g>
<!-- Node6&#45;&gt;Node7 -->
<g id="edge6" class="edge">
<title>Node6&#45;&gt;Node7</title>
<path fill="none" stroke="midnightblue" d="M299.19,-59.06C307.5,-59.5 316.05,-59.95 324.51,-60.4"/>
<polygon fill="midnightblue" stroke="midnightblue" points="324.57,-63.91 334.74,-60.94 324.94,-56.92 324.57,-63.91"/>
</g>
<!-- Node9 -->
<g id="node9" class="node">
<title>Node9</title>
<g id="a_node9"><a xlink:href="../../df/d6f/class_gam_r_1_1_nucleus_1_1_transition.html#a55eeee9e8bc166f0ef8cce260b3da59b" target="_top" xlink:title=" ">
<polygon fill="white" stroke="black" points="335,-0.5 335,-30.5 471,-30.5 471,-0.5 335,-0.5"/>
<text text-anchor="start" x="343" y="-18.5" font-family="Helvetica,sans-Serif" font-size="10.00">GamR::Nucleus::Transition</text>
<text text-anchor="middle" x="403" y="-7.5" font-family="Helvetica,sans-Serif" font-size="10.00">::SetPeak</text>
</a>
</g>
</g>
<!-- Node6&#45;&gt;Node9 -->
<g id="edge9" class="edge">
<title>Node6&#45;&gt;Node9</title>
<path fill="none" stroke="midnightblue" d="M295.79,-40.49C306.39,-38 317.46,-35.39 328.29,-32.84"/>
<polygon fill="midnightblue" stroke="midnightblue" points="329.21,-36.22 338.14,-30.53 327.6,-29.41 329.21,-36.22"/>
</g>
<!-- Node8 -->
<g id="node8" class="node">
<title>Node8</title>
<g id="a_node8"><a xlink:href="../../d0/d74/group___t_k.html#ga78f4477af7c95058e8a572065086f68a" target="_top" xlink:title=" ">
<polygon fill="white" stroke="black" points="507,-30 507,-49 640,-49 640,-30 507,-30"/>
<text text-anchor="middle" x="573.5" y="-37" font-family="Helvetica,sans-Serif" font-size="10.00">GamR::TK::Gate::SetGate</text>
</a>
</g>
</g>
<!-- Node7&#45;&gt;Node8 -->
<g id="edge7" class="edge">
<title>Node7&#45;&gt;Node8</title>
<path fill="none" stroke="midnightblue" d="M471.08,-54.55C480.02,-53.22 489.22,-51.86 498.27,-50.51"/>
<polygon fill="midnightblue" stroke="midnightblue" points="499.02,-53.94 508.39,-49.01 497.99,-47.02 499.02,-53.94"/>
</g>
<!-- Node8&#45;&gt;Node8 -->
<g id="edge8" class="edge">
<title>Node8&#45;&gt;Node8</title>
<path fill="none" stroke="midnightblue" d="M547.3,-49.26C534.55,-58.07 543.29,-67.5 573.5,-67.5 593.8,-67.5 604.4,-63.24 605.31,-57.77"/>
<polygon fill="midnightblue" stroke="midnightblue" points="608.13,-55.68 599.7,-49.26 602.28,-59.53 608.13,-55.68"/>
</g>
<!-- Node9&#45;&gt;Node8 -->
<g id="edge10" class="edge">
<title>Node9&#45;&gt;Node8</title>
<path fill="none" stroke="midnightblue" d="M471.08,-25.05C479.52,-26.26 488.21,-27.49 496.77,-28.71"/>
<polygon fill="midnightblue" stroke="midnightblue" points="496.36,-32.19 506.75,-30.14 497.34,-25.26 496.36,-32.19"/>
</g>
</g>
</svg>
