<?xml version="1.0" encoding="UTF-8" standalone="no"?>
<!DOCTYPE svg PUBLIC "-//W3C//DTD SVG 1.1//EN"
 "http://www.w3.org/Graphics/SVG/1.1/DTD/svg11.dtd">
<!-- Generated by graphviz version 2.49.3 (20211023.0002)
 -->
<!-- Title: GamR::Spect::GateX Pages: 1 -->
<svg width="440pt" height="66pt"
 viewBox="0.00 0.00 440.00 66.00" xmlns="http://www.w3.org/2000/svg" xmlns:xlink="http://www.w3.org/1999/xlink">
<g id="graph0" class="graph" transform="scale(1 1) rotate(0) translate(4 62)">
<title>GamR::Spect::GateX</title>
<polygon fill="white" stroke="transparent" points="-4,4 -4,-62 436,-62 436,4 -4,4"/>
<!-- Node1 -->
<g id="node1" class="node">
<title>Node1</title>
<g id="a_node1"><a xlink:title=" ">
<polygon fill="#bfbfbf" stroke="black" points="0,-19.5 0,-38.5 110,-38.5 110,-19.5 0,-19.5"/>
<text text-anchor="middle" x="55" y="-26.5" font-family="Helvetica,sans-Serif" font-size="10.00">GamR::Spect::GateX</text>
</a>
</g>
</g>
<!-- Node2 -->
<g id="node2" class="node">
<title>Node2</title>
<g id="a_node2"><a xlink:href="../../dc/d89/namespace_gam_r_1_1_spect.html#afc1d3c98f1aa4fdc052b238ab931a9f9" target="_top" xlink:title=" ">
<polygon fill="white" stroke="black" points="152,-38.5 152,-57.5 262,-57.5 262,-38.5 152,-38.5"/>
<text text-anchor="middle" x="207" y="-45.5" font-family="Helvetica,sans-Serif" font-size="10.00">GamR::Spect::GateX</text>
</a>
</g>
</g>
<!-- Node1&#45;&gt;Node2 -->
<g id="edge1" class="edge">
<title>Node1&#45;&gt;Node2</title>
<path fill="none" stroke="midnightblue" d="M110.15,-35.86C120.46,-37.16 131.33,-38.54 141.9,-39.88"/>
<polygon fill="midnightblue" stroke="midnightblue" points="141.57,-43.37 151.93,-41.15 142.45,-36.42 141.57,-43.37"/>
</g>
<!-- Node4 -->
<g id="node4" class="node">
<title>Node4</title>
<g id="a_node4"><a xlink:href="../../d0/db7/namespace_gam_r_1_1_utils.html#ae51db26569561ca73c083a6c9276f148" target="_top" xlink:title=" ">
<polygon fill="white" stroke="black" points="146,-0.5 146,-19.5 268,-19.5 268,-0.5 146,-0.5"/>
<text text-anchor="middle" x="207" y="-7.5" font-family="Helvetica,sans-Serif" font-size="10.00">GamR::Utils::GetHist2D</text>
</a>
</g>
</g>
<!-- Node1&#45;&gt;Node4 -->
<g id="edge3" class="edge">
<title>Node1&#45;&gt;Node4</title>
<path fill="none" stroke="midnightblue" d="M110.15,-22.14C118.48,-21.09 127.17,-19.98 135.78,-18.89"/>
<polygon fill="midnightblue" stroke="midnightblue" points="136.35,-22.35 145.83,-17.62 135.47,-15.41 136.35,-22.35"/>
</g>
<!-- Node3 -->
<g id="node3" class="node">
<title>Node3</title>
<g id="a_node3"><a xlink:href="../../d0/d74/group___t_k.html#ga6a034a8dfa2c1699aabb9e4111d79cbf" target="_top" xlink:title=" ">
<polygon fill="white" stroke="black" points="304,-38.5 304,-57.5 432,-57.5 432,-38.5 304,-38.5"/>
<text text-anchor="middle" x="368" y="-45.5" font-family="Helvetica,sans-Serif" font-size="10.00">GamR::TK::Gate::ApplyX</text>
</a>
</g>
</g>
<!-- Node2&#45;&gt;Node3 -->
<g id="edge2" class="edge">
<title>Node2&#45;&gt;Node3</title>
<path fill="none" stroke="midnightblue" d="M262.27,-48C272.43,-48 283.2,-48 293.82,-48"/>
<polygon fill="midnightblue" stroke="midnightblue" points="293.93,-51.5 303.93,-48 293.93,-44.5 293.93,-51.5"/>
</g>
</g>
</svg>
