<?xml version="1.0" encoding="UTF-8" standalone="no"?>
<!DOCTYPE svg PUBLIC "-//W3C//DTD SVG 1.1//EN"
 "http://www.w3.org/Graphics/SVG/1.1/DTD/svg11.dtd">
<!-- Generated by graphviz version 2.49.3 (20211023.0002)
 -->
<!-- Title: GamR::Spect::ProjX Pages: 1 -->
<!--zoomable 254 -->
<svg id="main" version="1.1" xmlns="http://www.w3.org/2000/svg" xmlns:xlink="http://www.w3.org/1999/xlink" xml:space="preserve" onload="init(evt)">
<style type="text/css"><![CDATA[
.edge:hover path { stroke: red; }
.edge:hover polygon { stroke: red; fill: red; }
]]></style>
<script type="text/javascript"><![CDATA[
var edges = document.getElementsByTagName('g');
if (edges && edges.length) {
  for (var i=0;i<edges.length;i++) {
    if (edges[i].id.substr(0,4)=='edge') {
      edges[i].setAttribute('class','edge');
    }
  }
}
]]></script>
        <defs>
                <circle id="rim" cx="0" cy="0" r="7"/>
                <circle id="rim2" cx="0" cy="0" r="3.5"/>
                <g id="zoomPlus">
                        <use xlink:href="#rim" fill="#404040">
                                <set attributeName="fill" to="#808080" begin="zoomplus.mouseover" end="zoomplus.mouseout"/>
                        </use>
                        <path d="M-4,0h8M0,-4v8" fill="none" stroke="white" stroke-width="1.5" pointer-events="none"/>
                </g>
                <g id="zoomMin">
                        <use xlink:href="#rim" fill="#404040">
                                <set attributeName="fill" to="#808080" begin="zoomminus.mouseover" end="zoomminus.mouseout"/>
                        </use>
                        <path d="M-4,0h8" fill="none" stroke="white" stroke-width="1.5" pointer-events="none"/>
                </g>
                <g id="dirArrow">
                        <path fill="none" stroke="white" stroke-width="1.5" d="M0,-3.0v7 M-2.5,-0.5L0,-3.0L2.5,-0.5"/>
                </g>
               <g id="resetDef">
                       <use xlink:href="#rim2" fill="#404040">
                               <set attributeName="fill" to="#808080" begin="reset.mouseover" end="reset.mouseout"/>
                       </use>
               </g>
        </defs>

<script type="text/javascript">
var viewWidth = 641;
var viewHeight = 254;
var sectionId = 'dynsection-84';
</script>
<script xlink:href="../../svgpan.js"/>
<svg id="graph" class="graph">
<g id="viewport">
<title>GamR::Spect::ProjX</title>
<polygon fill="white" stroke="transparent" points="-4,4 -4,-249.5 637,-249.5 637,4 -4,4"/>
<!-- Node1 -->
<g id="node1" class="node">
<title>Node1</title>
<g id="a_node1"><a xlink:title=" ">
<polygon fill="#bfbfbf" stroke="black" points="526,-129.5 526,-148.5 633,-148.5 633,-129.5 526,-129.5"/>
<text text-anchor="middle" x="579.5" y="-136.5" font-family="Helvetica,sans-Serif" font-size="10.00">GamR::Spect::ProjX</text>
</a>
</g>
</g>
<!-- Node2 -->
<g id="node2" class="node">
<title>Node2</title>
<g id="a_node2"><a xlink:href="../../dc/d89/namespace_gam_r_1_1_spect.html#aa26a7c7e6e210c64559b7cd14f96a8f3" target="_top" xlink:title=" ">
<polygon fill="white" stroke="black" points="383,-148.5 383,-167.5 490,-167.5 490,-148.5 383,-148.5"/>
<text text-anchor="middle" x="436.5" y="-155.5" font-family="Helvetica,sans-Serif" font-size="10.00">GamR::Spect::ProjX</text>
</a>
</g>
</g>
<!-- Node1&#45;&gt;Node2 -->
<g id="edge1" class="edge">
<title>Node1&#45;&gt;Node2</title>
<path fill="none" stroke="midnightblue" d="M515.95,-147.43C507.3,-148.59 498.49,-149.78 490.05,-150.92"/>
<polygon fill="midnightblue" stroke="midnightblue" points="516.55,-150.88 526,-146.07 515.62,-143.94 516.55,-150.88"/>
</g>
<!-- Node3 -->
<g id="node3" class="node">
<title>Node3</title>
<g id="a_node3"><a xlink:href="../../d0/d17/_abbreviations_8cc.html#addb21d32acc58c64bf98c616bebe77fc" target="_top" xlink:title=" ">
<polygon fill="white" stroke="black" points="422,-110.5 422,-129.5 451,-129.5 451,-110.5 422,-110.5"/>
<text text-anchor="middle" x="436.5" y="-117.5" font-family="Helvetica,sans-Serif" font-size="10.00">px</text>
</a>
</g>
</g>
<!-- Node1&#45;&gt;Node3 -->
<g id="edge2" class="edge">
<title>Node1&#45;&gt;Node3</title>
<path fill="none" stroke="midnightblue" d="M516.08,-130.59C491.83,-127.32 466.28,-123.88 451.13,-121.84"/>
<polygon fill="midnightblue" stroke="midnightblue" points="515.62,-134.06 526,-131.93 516.55,-127.12 515.62,-134.06"/>
</g>
<!-- Node4 -->
<g id="node4" class="node">
<title>Node4</title>
<g id="a_node4"><a xlink:href="../../d6/dc7/class_gam_r_1_1_nucleus_1_1_level_scheme_1_1_state.html#a798290ccdb0b213d555c5c348ec7a4c4" target="_top" xlink:title=" ">
<polygon fill="white" stroke="black" points="191.5,-215 191.5,-245 344.5,-245 344.5,-215 191.5,-215"/>
<text text-anchor="start" x="199.5" y="-233" font-family="Helvetica,sans-Serif" font-size="10.00">GamR::Nucleus::LevelScheme</text>
<text text-anchor="middle" x="268" y="-222" font-family="Helvetica,sans-Serif" font-size="10.00">::State::DistancetoPrimitive</text>
</a>
</g>
</g>
<!-- Node3&#45;&gt;Node4 -->
<g id="edge3" class="edge">
<title>Node3&#45;&gt;Node4</title>
<path fill="none" stroke="midnightblue" d="M411.8,-124.84C402.08,-127.71 391.22,-132.18 383,-139 358.77,-159.1 371.03,-179.66 347,-200 339.8,-206.09 331.23,-211.03 322.45,-214.99"/>
<polygon fill="midnightblue" stroke="midnightblue" points="412.89,-128.17 421.71,-122.3 411.15,-121.39 412.89,-128.17"/>
</g>
<!-- Node5 -->
<g id="node5" class="node">
<title>Node5</title>
<g id="a_node5"><a xlink:href="../../d6/dc7/class_gam_r_1_1_nucleus_1_1_level_scheme_1_1_state.html#afbbb260426193d4f68f805c541f8b6f1" target="_top" xlink:title=" ">
<polygon fill="white" stroke="black" points="0,-183 0,-213 153,-213 153,-183 0,-183"/>
<text text-anchor="start" x="8" y="-201" font-family="Helvetica,sans-Serif" font-size="10.00">GamR::Nucleus::LevelScheme</text>
<text text-anchor="middle" x="76.5" y="-190" font-family="Helvetica,sans-Serif" font-size="10.00">::State::ExecuteEvent</text>
</a>
</g>
</g>
<!-- Node3&#45;&gt;Node5 -->
<g id="edge8" class="edge">
<title>Node3&#45;&gt;Node5</title>
<path fill="none" stroke="midnightblue" d="M411.84,-126.81C402.56,-129.92 392,-134.03 383,-139 365.25,-148.79 365.76,-159.34 347,-167 284.98,-192.33 208.67,-199.08 153.11,-200.08"/>
<polygon fill="midnightblue" stroke="midnightblue" points="413.13,-130.07 421.61,-123.72 411.02,-123.39 413.13,-130.07"/>
</g>
<!-- Node6 -->
<g id="node6" class="node">
<title>Node6</title>
<g id="a_node6"><a xlink:href="../../d5/d3a/class_gam_r_1_1_nucleus_1_1_level_scheme_1_1_transition.html#adcbc35b4270d5ce2adfdf8ddc839f601" target="_top" xlink:title=" ">
<polygon fill="white" stroke="black" points="189.5,-127 189.5,-157 346.5,-157 346.5,-127 189.5,-127"/>
<text text-anchor="start" x="197.5" y="-145" font-family="Helvetica,sans-Serif" font-size="10.00">GamR::Nucleus::LevelScheme</text>
<text text-anchor="middle" x="268" y="-134" font-family="Helvetica,sans-Serif" font-size="10.00">::Transition::DistancetoPrimitive</text>
</a>
</g>
</g>
<!-- Node3&#45;&gt;Node6 -->
<g id="edge5" class="edge">
<title>Node3&#45;&gt;Node6</title>
<path fill="none" stroke="midnightblue" d="M411.7,-123.14C394.56,-125.41 370.38,-128.6 346.79,-131.72"/>
<polygon fill="midnightblue" stroke="midnightblue" points="412.42,-126.58 421.87,-121.8 411.5,-119.64 412.42,-126.58"/>
</g>
<!-- Node7 -->
<g id="node7" class="node">
<title>Node7</title>
<g id="a_node7"><a xlink:href="../../d5/d3a/class_gam_r_1_1_nucleus_1_1_level_scheme_1_1_transition.html#ac98314ae7252853adc7605e89cef9a4c" target="_top" xlink:title=" ">
<polygon fill="white" stroke="black" points="0,-115 0,-145 153,-145 153,-115 0,-115"/>
<text text-anchor="start" x="8" y="-133" font-family="Helvetica,sans-Serif" font-size="10.00">GamR::Nucleus::LevelScheme</text>
<text text-anchor="middle" x="76.5" y="-122" font-family="Helvetica,sans-Serif" font-size="10.00">::Transition::ExecuteEvent</text>
</a>
</g>
</g>
<!-- Node3&#45;&gt;Node7 -->
<g id="edge9" class="edge">
<title>Node3&#45;&gt;Node7</title>
<path fill="none" stroke="midnightblue" d="M411.63,-118.97C393.82,-118.26 368.89,-117.37 347,-117 276.79,-115.81 259.1,-112.93 189,-117 177.42,-117.67 165.21,-118.73 153.27,-119.97"/>
<polygon fill="midnightblue" stroke="midnightblue" points="411.57,-122.47 421.71,-119.39 411.86,-115.48 411.57,-122.47"/>
</g>
<!-- Node8 -->
<g id="node8" class="node">
<title>Node8</title>
<g id="a_node8"><a xlink:href="../../d0/d74/group___t_k.html#gac731f3c9e019bc69f52732bcfddab7fd" target="_top" xlink:title=" ">
<polygon fill="white" stroke="black" points="196,-39 196,-69 340,-69 340,-39 196,-39"/>
<text text-anchor="start" x="204" y="-57" font-family="Helvetica,sans-Serif" font-size="10.00">GamR::TK::Gate::Distanceto</text>
<text text-anchor="middle" x="268" y="-46" font-family="Helvetica,sans-Serif" font-size="10.00">Primitive</text>
</a>
</g>
</g>
<!-- Node3&#45;&gt;Node8 -->
<g id="edge7" class="edge">
<title>Node3&#45;&gt;Node8</title>
<path fill="none" stroke="midnightblue" d="M412.43,-110.47C394.59,-103.14 369.28,-92.82 347,-84 334.59,-79.09 321.02,-73.83 308.74,-69.12"/>
<polygon fill="midnightblue" stroke="midnightblue" points="411.16,-113.74 421.74,-114.31 413.82,-107.26 411.16,-113.74"/>
</g>
<!-- Node9 -->
<g id="node9" class="node">
<title>Node9</title>
<g id="a_node9"><a xlink:href="../../d0/d74/group___t_k.html#gaaa4358ac4e22aea13191978c5dcc846e" target="_top" xlink:title=" ">
<polygon fill="white" stroke="black" points="189,-0.5 189,-19.5 347,-19.5 347,-0.5 189,-0.5"/>
<text text-anchor="middle" x="268" y="-7.5" font-family="Helvetica,sans-Serif" font-size="10.00">GamR::TK::Gate::ExecuteEvent</text>
</a>
</g>
</g>
<!-- Node3&#45;&gt;Node9 -->
<g id="edge10" class="edge">
<title>Node3&#45;&gt;Node9</title>
<path fill="none" stroke="midnightblue" d="M422.99,-102.01C407.55,-81.21 379.34,-47.48 347,-29 340.22,-25.13 332.68,-22.04 325.03,-19.58"/>
<polygon fill="midnightblue" stroke="midnightblue" points="420.28,-104.25 428.97,-110.31 425.96,-100.15 420.28,-104.25"/>
</g>
<!-- Node4&#45;&gt;Node5 -->
<g id="edge4" class="edge">
<title>Node4&#45;&gt;Node5</title>
<path fill="none" stroke="midnightblue" d="M181.18,-215.51C171.81,-213.93 162.33,-212.32 153.09,-210.76"/>
<polygon fill="midnightblue" stroke="midnightblue" points="180.84,-219 191.29,-217.21 182.01,-212.1 180.84,-219"/>
</g>
<!-- Node6&#45;&gt;Node7 -->
<g id="edge6" class="edge">
<title>Node6&#45;&gt;Node7</title>
<path fill="none" stroke="midnightblue" d="M179.21,-136.44C170.51,-135.89 161.73,-135.33 153.17,-134.79"/>
<polygon fill="midnightblue" stroke="midnightblue" points="179.18,-139.95 189.38,-137.08 179.62,-132.96 179.18,-139.95"/>
</g>
</g>
</svg>
        <g id="navigator" transform="translate(0 0)" fill="#404254">
                <rect fill="#f2f5e9" fill-opacity="0.5" stroke="#606060" stroke-width=".5" x="0" y="0" width="60" height="60"/>
                <use id="zoomplus" xlink:href="#zoomPlus" x="17" y="9" onmousedown="handleZoom(evt,'in')"/>
                <use id="zoomminus" xlink:href="#zoomMin" x="42" y="9" onmousedown="handleZoom(evt,'out')"/>
                <use id="reset" xlink:href="#resetDef" x="30" y="36" onmousedown="handleReset()"/>
                <g id="arrowUp" xlink:href="#dirArrow" transform="translate(30 24)" onmousedown="handlePan(0,-1)">
                  <use xlink:href="#rim" fill="#404040">
                        <set attributeName="fill" to="#808080" begin="arrowUp.mouseover" end="arrowUp.mouseout"/>
                  </use>
                  <path fill="none" stroke="white" stroke-width="1.5" d="M0,-3.0v7 M-2.5,-0.5L0,-3.0L2.5,-0.5"/>
                </g>
                <g id="arrowRight" xlink:href="#dirArrow" transform="rotate(90) translate(36 -43)" onmousedown="handlePan(1,0)">
                  <use xlink:href="#rim" fill="#404040">
                        <set attributeName="fill" to="#808080" begin="arrowRight.mouseover" end="arrowRight.mouseout"/>
                  </use>
                  <path fill="none" stroke="white" stroke-width="1.5" d="M0,-3.0v7 M-2.5,-0.5L0,-3.0L2.5,-0.5"/>
                </g>
                <g id="arrowDown" xlink:href="#dirArrow" transform="rotate(180) translate(-30 -48)" onmousedown="handlePan(0,1)">
                  <use xlink:href="#rim" fill="#404040">
                        <set attributeName="fill" to="#808080" begin="arrowDown.mouseover" end="arrowDown.mouseout"/>
                  </use>
                  <path fill="none" stroke="white" stroke-width="1.5" d="M0,-3.0v7 M-2.5,-0.5L0,-3.0L2.5,-0.5"/>
                </g>
                <g id="arrowLeft" xlink:href="#dirArrow" transform="rotate(270) translate(-36 17)" onmousedown="handlePan(-1,0)">
                  <use xlink:href="#rim" fill="#404040">
                        <set attributeName="fill" to="#808080" begin="arrowLeft.mouseover" end="arrowLeft.mouseout"/>
                  </use>
                  <path fill="none" stroke="white" stroke-width="1.5" d="M0,-3.0v7 M-2.5,-0.5L0,-3.0L2.5,-0.5"/>
                </g>
        </g>
        <svg viewBox="0 0 15 15" width="100%" height="30px" preserveAspectRatio="xMaxYMin meet">
         <g id="arrow_out" transform="scale(0.3 0.3)">
          <a xlink:href="namespace_gam_r_1_1_spect_aab35a8f2d75f6fd8f3175f37c4f5f0cd_icgraph_org.svg" target="_base">
           <rect id="button" ry="5" rx="5" y="6" x="6" height="38" width="38"
                fill="#f2f5e9" fill-opacity="0.5" stroke="#606060" stroke-width="1.0"/>
           <path id="arrow"
             d="M 11.500037,31.436501 C 11.940474,20.09759 22.043105,11.32322 32.158766,21.979434 L 37.068811,17.246167 C 37.068811,17.246167 37.088388,32 37.088388,32 L 22.160133,31.978069 C 22.160133,31.978069 26.997745,27.140456 26.997745,27.140456 C 18.528582,18.264221 13.291696,25.230495 11.500037,31.436501 z"
             style="fill:#404040;"/>
          </a>
         </g>
        </svg>
</svg>
