<?xml version="1.0" encoding="UTF-8" standalone="no"?>
<!DOCTYPE svg PUBLIC "-//W3C//DTD SVG 1.1//EN"
 "http://www.w3.org/Graphics/SVG/1.1/DTD/svg11.dtd">
<!-- Generated by graphviz version 2.49.3 (20211023.0002)
 -->
<!-- Title: GamR::Spect::NormSpectra Pages: 1 -->
<svg width="500pt" height="122pt"
 viewBox="0.00 0.00 500.00 122.00" xmlns="http://www.w3.org/2000/svg" xmlns:xlink="http://www.w3.org/1999/xlink">
<g id="graph0" class="graph" transform="scale(1 1) rotate(0) translate(4 118)">
<title>GamR::Spect::NormSpectra</title>
<polygon fill="white" stroke="transparent" points="-4,4 -4,-118 496,-118 496,4 -4,4"/>
<!-- Node1 -->
<g id="node1" class="node">
<title>Node1</title>
<g id="a_node1"><a xlink:title=" ">
<polygon fill="#bfbfbf" stroke="black" points="0,-56.5 0,-75.5 141,-75.5 141,-56.5 0,-56.5"/>
<text text-anchor="middle" x="70.5" y="-63.5" font-family="Helvetica,sans-Serif" font-size="10.00">GamR::Spect::NormSpectra</text>
</a>
</g>
</g>
<!-- Node2 -->
<g id="node2" class="node">
<title>Node2</title>
<g id="a_node2"><a xlink:href="../../d0/db7/namespace_gam_r_1_1_utils.html#a80902df5d8d695b20de04c64ed685df2" target="_top" xlink:title=" ">
<polygon fill="white" stroke="black" points="180,-94.5 180,-113.5 307,-113.5 307,-94.5 180,-94.5"/>
<text text-anchor="middle" x="243.5" y="-101.5" font-family="Helvetica,sans-Serif" font-size="10.00">GamR::Utils::GetHists1D</text>
</a>
</g>
</g>
<!-- Node1&#45;&gt;Node2 -->
<g id="edge1" class="edge">
<title>Node1&#45;&gt;Node2</title>
<path fill="none" stroke="midnightblue" d="M114.65,-75.59C137.42,-80.65 165.55,-86.9 189.62,-92.25"/>
<polygon fill="midnightblue" stroke="midnightblue" points="189.14,-95.73 199.66,-94.48 190.66,-88.89 189.14,-95.73"/>
</g>
<!-- Node3 -->
<g id="node3" class="node">
<title>Node3</title>
<g id="a_node3"><a xlink:href="../../d0/d74/group___t_k.html#gab5b438142cc5953f3d17e77e81ec7f2e" target="_top" xlink:title=" ">
<polygon fill="white" stroke="black" points="183,-56.5 183,-75.5 304,-75.5 304,-56.5 183,-56.5"/>
<text text-anchor="middle" x="243.5" y="-63.5" font-family="Helvetica,sans-Serif" font-size="10.00">GamR::TK::Gate::Norm</text>
</a>
</g>
</g>
<!-- Node1&#45;&gt;Node3 -->
<g id="edge2" class="edge">
<title>Node1&#45;&gt;Node3</title>
<path fill="none" stroke="midnightblue" d="M141.05,-66C151.45,-66 162.18,-66 172.59,-66"/>
<polygon fill="midnightblue" stroke="midnightblue" points="172.87,-69.5 182.87,-66 172.87,-62.5 172.87,-69.5"/>
</g>
<!-- Node5 -->
<g id="node5" class="node">
<title>Node5</title>
<g id="a_node5"><a xlink:href="../../d0/d74/group___t_k.html#ga78f4477af7c95058e8a572065086f68a" target="_top" xlink:title=" ">
<polygon fill="white" stroke="black" points="177,-0.5 177,-19.5 310,-19.5 310,-0.5 177,-0.5"/>
<text text-anchor="middle" x="243.5" y="-7.5" font-family="Helvetica,sans-Serif" font-size="10.00">GamR::TK::Gate::SetGate</text>
</a>
</g>
</g>
<!-- Node1&#45;&gt;Node5 -->
<g id="edge4" class="edge">
<title>Node1&#45;&gt;Node5</title>
<path fill="none" stroke="midnightblue" d="M100.9,-56.37C129.33,-47.06 172.59,-32.9 203.81,-22.67"/>
<polygon fill="midnightblue" stroke="midnightblue" points="205.07,-25.94 213.49,-19.5 202.89,-19.29 205.07,-25.94"/>
</g>
<!-- Node4 -->
<g id="node4" class="node">
<title>Node4</title>
<g id="a_node4"><a xlink:href="../../d0/d74/group___t_k.html#gaae543a7d595e5faacbfb4da05718e3f3" target="_top" xlink:title=" ">
<polygon fill="white" stroke="black" points="346,-56.5 346,-75.5 492,-75.5 492,-56.5 346,-56.5"/>
<text text-anchor="middle" x="419" y="-63.5" font-family="Helvetica,sans-Serif" font-size="10.00">GamR::TK::Gate::GetIntegral</text>
</a>
</g>
</g>
<!-- Node3&#45;&gt;Node4 -->
<g id="edge3" class="edge">
<title>Node3&#45;&gt;Node4</title>
<path fill="none" stroke="midnightblue" d="M304.21,-66C314.39,-66 325.11,-66 335.75,-66"/>
<polygon fill="midnightblue" stroke="midnightblue" points="335.9,-69.5 345.9,-66 335.9,-62.5 335.9,-69.5"/>
</g>
<!-- Node5&#45;&gt;Node5 -->
<g id="edge5" class="edge">
<title>Node5&#45;&gt;Node5</title>
<path fill="none" stroke="midnightblue" d="M216.99,-19.76C204.09,-28.57 212.93,-38 243.5,-38 264.04,-38 274.77,-33.74 275.69,-28.27"/>
<polygon fill="midnightblue" stroke="midnightblue" points="278.47,-26.14 270.01,-19.76 272.64,-30.02 278.47,-26.14"/>
</g>
</g>
</svg>
