<?xml version="1.0" encoding="UTF-8" standalone="no"?>
<!DOCTYPE svg PUBLIC "-//W3C//DTD SVG 1.1//EN"
 "http://www.w3.org/Graphics/SVG/1.1/DTD/svg11.dtd">
<!-- Generated by graphviz version 5.0.0 (20220708.1001)
 -->
<!-- Title: GamR::Processor::TimeWalk::MakeGraphs Pages: 1 -->
<!--zoomable 564 -->
<svg id="main" version="1.1" xmlns="http://www.w3.org/2000/svg" xmlns:xlink="http://www.w3.org/1999/xlink" xml:space="preserve" onload="init(evt)">
<style type="text/css"><![CDATA[
.edge:hover path { stroke: red; }
.edge:hover polygon { stroke: red; fill: red; }
]]></style>
<script type="text/javascript"><![CDATA[
var edges = document.getElementsByTagName('g');
if (edges && edges.length) {
  for (var i=0;i<edges.length;i++) {
    if (edges[i].id.substr(0,4)=='edge') {
      edges[i].setAttribute('class','edge');
    }
  }
}
]]></script>
        <defs>
                <circle id="rim" cx="0" cy="0" r="7"/>
                <circle id="rim2" cx="0" cy="0" r="3.5"/>
                <g id="zoomPlus">
                        <use xlink:href="#rim" fill="#404040">
                                <set attributeName="fill" to="#808080" begin="zoomplus.mouseover" end="zoomplus.mouseout"/>
                        </use>
                        <path d="M-4,0h8M0,-4v8" fill="none" stroke="white" stroke-width="1.5" pointer-events="none"/>
                </g>
                <g id="zoomMin">
                        <use xlink:href="#rim" fill="#404040">
                                <set attributeName="fill" to="#808080" begin="zoomminus.mouseover" end="zoomminus.mouseout"/>
                        </use>
                        <path d="M-4,0h8" fill="none" stroke="white" stroke-width="1.5" pointer-events="none"/>
                </g>
                <g id="dirArrow">
                        <path fill="none" stroke="white" stroke-width="1.5" d="M0,-3.0v7 M-2.5,-0.5L0,-3.0L2.5,-0.5"/>
                </g>
               <g id="resetDef">
                       <use xlink:href="#rim2" fill="#404040">
                               <set attributeName="fill" to="#808080" begin="reset.mouseover" end="reset.mouseout"/>
                       </use>
               </g>
        </defs>

<script type="text/javascript">
var viewWidth = 835;
var viewHeight = 564;
var sectionId = 'dynsection-4';
</script>
<script xlink:href="../../svgpan.js"/>
<svg id="graph" class="graph">
<g id="viewport">
<title>GamR::Processor::TimeWalk::MakeGraphs</title>
<polygon fill="white" stroke="transparent" points="-4,4 -4,-560 831,-560 831,4 -4,4"/>
<!-- Node1 -->
<g id="node1" class="node">
<title>Node1</title>
<g id="a_node1"><a xlink:title="Iterating through calibration peaks for each detector pair: calculate the time difference spectrum (w...">
<polygon fill="#bfbfbf" stroke="black" points="0,-77 0,-107 141,-107 141,-77 0,-77"/>
<text text-anchor="start" x="8" y="-95" font-family="Helvetica,sans-Serif" font-size="10.00">GamR::Processor::TimeWalk</text>
<text text-anchor="middle" x="70.5" y="-84" font-family="Helvetica,sans-Serif" font-size="10.00">::MakeGraphs</text>
</a>
</g>
</g>
<!-- Node2 -->
<g id="node2" class="node">
<title>Node2</title>
<g id="a_node2"><a xlink:href="../../d0/d17/_abbreviations_8cc.html#a544c36017b9d9387f39e84863d9ae9a4" target="_top" xlink:title=" ">
<polygon fill="white" stroke="black" points="233,-246.5 233,-265.5 262,-265.5 262,-246.5 233,-246.5"/>
<text text-anchor="middle" x="247.5" y="-253.5" font-family="Helvetica,sans-Serif" font-size="10.00">bp</text>
</a>
</g>
</g>
<!-- Node1&#45;&gt;Node2 -->
<g id="edge1" class="edge">
<title>Node1&#45;&gt;Node2</title>
<path fill="none" stroke="midnightblue" d="M87.65,-107.13C120.39,-137.82 194.38,-207.16 228.57,-239.19"/>
<polygon fill="midnightblue" stroke="midnightblue" points="226.29,-241.86 235.98,-246.14 231.08,-236.75 226.29,-241.86"/>
</g>
<!-- Node14 -->
<g id="node14" class="node">
<title>Node14</title>
<g id="a_node14"><a xlink:href="../../d0/d74/group___t_k.html#gaa2200a38a3956d5e129aeeca03b2952a" target="_top" xlink:title=" ">
<polygon fill="white" stroke="black" points="679,-109.5 679,-128.5 819,-128.5 819,-109.5 679,-109.5"/>
<text text-anchor="middle" x="749" y="-116.5" font-family="Helvetica,sans-Serif" font-size="10.00">GamR::TK::BPeak::GetWidth</text>
</a>
</g>
</g>
<!-- Node1&#45;&gt;Node14 -->
<g id="edge21" class="edge">
<title>Node1&#45;&gt;Node14</title>
<path fill="none" stroke="midnightblue" d="M124.47,-107.06C141.14,-111.12 159.71,-114.95 177,-117 351.46,-137.7 558.01,-130.7 668.62,-124.43"/>
<polygon fill="midnightblue" stroke="midnightblue" points="668.91,-127.92 678.69,-123.84 668.51,-120.93 668.91,-127.92"/>
</g>
<!-- Node17 -->
<g id="node17" class="node">
<title>Node17</title>
<g id="a_node17"><a xlink:href="../../d3/d48/class_gam_r_1_1_processor_1_1_time_walk.html#a0b862c355e247c0e71d9e40e821c7cfe" target="_top" xlink:title="Draws Time Walk graphs.">
<polygon fill="white" stroke="black" points="177,-77 177,-107 318,-107 318,-77 177,-77"/>
<text text-anchor="start" x="185" y="-95" font-family="Helvetica,sans-Serif" font-size="10.00">GamR::Processor::TimeWalk</text>
<text text-anchor="middle" x="247.5" y="-84" font-family="Helvetica,sans-Serif" font-size="10.00">::Draw</text>
</a>
</g>
</g>
<!-- Node1&#45;&gt;Node17 -->
<g id="edge16" class="edge">
<title>Node1&#45;&gt;Node17</title>
<path fill="none" stroke="midnightblue" d="M141.17,-92C149.5,-92 158.06,-92 166.53,-92"/>
<polygon fill="midnightblue" stroke="midnightblue" points="166.79,-95.5 176.79,-92 166.79,-88.5 166.79,-95.5"/>
</g>
<!-- Node18 -->
<g id="node18" class="node">
<title>Node18</title>
<g id="a_node18"><a xlink:href="../../d0/d17/_abbreviations_8cc.html#a5d1794b612bdcca3f4f4baa3d2e38a0b" target="_top" xlink:title=" ">
<polygon fill="white" stroke="black" points="393,-54.5 393,-73.5 422,-73.5 422,-54.5 393,-54.5"/>
<text text-anchor="middle" x="407.5" y="-61.5" font-family="Helvetica,sans-Serif" font-size="10.00">ss</text>
</a>
</g>
</g>
<!-- Node1&#45;&gt;Node18 -->
<g id="edge23" class="edge">
<title>Node1&#45;&gt;Node18</title>
<path fill="none" stroke="midnightblue" d="M124.76,-76.98C141.35,-72.95 159.81,-69.12 177,-67 251.62,-57.78 340.93,-60.52 382.73,-62.6"/>
<polygon fill="midnightblue" stroke="midnightblue" points="382.81,-66.11 392.98,-63.15 383.18,-59.12 382.81,-66.11"/>
</g>
<!-- Node21 -->
<g id="node21" class="node">
<title>Node21</title>
<g id="a_node21"><a xlink:href="../../d2/d80/namespace_gam_r_1_1_t_k.html#a718e33e862c5ff75b9ef81e312ff2325" target="_top" xlink:title=" ">
<polygon fill="white" stroke="black" points="189.5,-0.5 189.5,-19.5 305.5,-19.5 305.5,-0.5 189.5,-0.5"/>
<text text-anchor="middle" x="247.5" y="-7.5" font-family="Helvetica,sans-Serif" font-size="10.00">GamR::TK::MonteCarlo</text>
</a>
</g>
</g>
<!-- Node1&#45;&gt;Node21 -->
<g id="edge22" class="edge">
<title>Node1&#45;&gt;Node21</title>
<path fill="none" stroke="midnightblue" d="M96.04,-76.94C117.05,-64.44 148.34,-46.71 177,-34 186.09,-29.97 196.09,-26.16 205.6,-22.83"/>
<polygon fill="midnightblue" stroke="midnightblue" points="206.94,-26.07 215.27,-19.53 204.68,-19.44 206.94,-26.07"/>
</g>
<!-- Node3 -->
<g id="node3" class="node">
<title>Node3</title>
<g id="a_node3"><a xlink:href="../../d0/d74/group___t_k.html#gaf641b8c1f292803f8695310a0aee1896" target="_top" xlink:title=" ">
<polygon fill="white" stroke="black" points="354,-306.5 354,-325.5 461,-325.5 461,-306.5 354,-306.5"/>
<text text-anchor="middle" x="407.5" y="-313.5" font-family="Helvetica,sans-Serif" font-size="10.00">GamR::TK::FitBPeak</text>
</a>
</g>
</g>
<!-- Node2&#45;&gt;Node3 -->
<g id="edge2" class="edge">
<title>Node2&#45;&gt;Node3</title>
<path fill="none" stroke="midnightblue" d="M262.25,-261.22C286.44,-270.41 337.31,-289.72 371.7,-302.78"/>
<polygon fill="midnightblue" stroke="midnightblue" points="370.77,-306.17 381.36,-306.45 373.25,-299.63 370.77,-306.17"/>
</g>
<!-- Node4 -->
<g id="node4" class="node">
<title>Node4</title>
<g id="a_node4"><a xlink:href="../../d0/db7/namespace_gam_r_1_1_utils.html#a31f74a9ca644d560dc14e19c4dbd773b" target="_top" xlink:title=" ">
<polygon fill="white" stroke="black" points="506.5,-344.5 506.5,-363.5 625.5,-363.5 625.5,-344.5 506.5,-344.5"/>
<text text-anchor="middle" x="566" y="-351.5" font-family="Helvetica,sans-Serif" font-size="10.00">GamR::Utils::GetHist1D</text>
</a>
</g>
</g>
<!-- Node3&#45;&gt;Node4 -->
<g id="edge3" class="edge">
<title>Node3&#45;&gt;Node4</title>
<path fill="none" stroke="midnightblue" d="M447.99,-325.59C468.64,-330.6 494.11,-336.79 516.01,-342.11"/>
<polygon fill="midnightblue" stroke="midnightblue" points="515.25,-345.52 525.79,-344.48 516.9,-338.72 515.25,-345.52"/>
</g>
<!-- Node5 -->
<g id="node5" class="node">
<title>Node5</title>
<g id="a_node5"><a xlink:href="../../d0/d74/group___t_k.html#gaa496d15cf9600fa5790ff50c9392b0fd" target="_top" xlink:title=" ">
<polygon fill="white" stroke="black" points="506,-306.5 506,-325.5 626,-325.5 626,-306.5 506,-306.5"/>
<text text-anchor="middle" x="566" y="-313.5" font-family="Helvetica,sans-Serif" font-size="10.00">GamR::TK::BPeak::Print</text>
</a>
</g>
</g>
<!-- Node3&#45;&gt;Node5 -->
<g id="edge4" class="edge">
<title>Node3&#45;&gt;Node5</title>
<path fill="none" stroke="midnightblue" d="M461.05,-316C472.17,-316 484.08,-316 495.72,-316"/>
<polygon fill="midnightblue" stroke="midnightblue" points="495.85,-319.5 505.85,-316 495.85,-312.5 495.85,-319.5"/>
</g>
<!-- Node6 -->
<g id="node6" class="node">
<title>Node6</title>
<g id="a_node6"><a xlink:href="../../d0/d74/group___t_k.html#ga0133d6b49ae4051d478518e61ae0c8a5" target="_top" xlink:title=" ">
<polygon fill="white" stroke="black" points="681,-536.5 681,-555.5 817,-555.5 817,-536.5 681,-536.5"/>
<text text-anchor="middle" x="749" y="-543.5" font-family="Helvetica,sans-Serif" font-size="10.00">GamR::TK::BPeak::GetAmp</text>
</a>
</g>
</g>
<!-- Node5&#45;&gt;Node6 -->
<g id="edge5" class="edge">
<title>Node5&#45;&gt;Node6</title>
<path fill="none" stroke="midnightblue" d="M622.49,-325.5C627.16,-328 631.44,-331.11 635,-335 693.66,-399.01 611.37,-463.9 671,-527 672.24,-528.31 673.55,-529.53 674.92,-530.68"/>
<polygon fill="midnightblue" stroke="midnightblue" points="673.16,-533.71 683.4,-536.4 677.07,-527.91 673.16,-533.71"/>
</g>
<!-- Node7 -->
<g id="node7" class="node">
<title>Node7</title>
<g id="a_node7"><a xlink:href="../../d0/d74/group___t_k.html#gaa14fdc374518d186c18b0aabeb91898f" target="_top" xlink:title=" ">
<polygon fill="white" stroke="black" points="671,-498.5 671,-517.5 827,-517.5 827,-498.5 671,-498.5"/>
<text text-anchor="middle" x="749" y="-505.5" font-family="Helvetica,sans-Serif" font-size="10.00">GamR::TK::BPeak::GetAmpError</text>
</a>
</g>
</g>
<!-- Node5&#45;&gt;Node7 -->
<g id="edge6" class="edge">
<title>Node5&#45;&gt;Node7</title>
<path fill="none" stroke="midnightblue" d="M622.32,-325.67C627.01,-328.13 631.35,-331.19 635,-335 683.63,-385.75 621.6,-438.99 671,-489 672.42,-490.43 673.92,-491.76 675.5,-493"/>
<polygon fill="midnightblue" stroke="midnightblue" points="673.64,-495.97 683.95,-498.42 677.43,-490.08 673.64,-495.97"/>
</g>
<!-- Node8 -->
<g id="node8" class="node">
<title>Node8</title>
<g id="a_node8"><a xlink:href="../../d0/d74/group___t_k.html#gad927a2d29f50b92c440bc6ece786ef72" target="_top" xlink:title=" ">
<polygon fill="white" stroke="black" points="681,-460.5 681,-479.5 817,-479.5 817,-460.5 681,-460.5"/>
<text text-anchor="middle" x="749" y="-467.5" font-family="Helvetica,sans-Serif" font-size="10.00">GamR::TK::BPeak::GetArea</text>
</a>
</g>
</g>
<!-- Node5&#45;&gt;Node8 -->
<g id="edge7" class="edge">
<title>Node5&#45;&gt;Node8</title>
<path fill="none" stroke="midnightblue" d="M621.37,-325.61C626.38,-328.08 631.04,-331.16 635,-335 673.71,-372.62 631.72,-413.97 671,-451 672.67,-452.57 674.45,-454.02 676.31,-455.36"/>
<polygon fill="midnightblue" stroke="midnightblue" points="674.6,-458.41 684.98,-460.5 678.17,-452.39 674.6,-458.41"/>
</g>
<!-- Node9 -->
<g id="node9" class="node">
<title>Node9</title>
<g id="a_node9"><a xlink:href="../../d0/d74/group___t_k.html#ga4aaec131e418c8788ab191a4eb6a7fa9" target="_top" xlink:title=" ">
<polygon fill="white" stroke="black" points="681,-411 681,-441 817,-441 817,-411 681,-411"/>
<text text-anchor="start" x="689" y="-429" font-family="Helvetica,sans-Serif" font-size="10.00">GamR::TK::BPeak::GetArea</text>
<text text-anchor="middle" x="749" y="-418" font-family="Helvetica,sans-Serif" font-size="10.00">Error</text>
</a>
</g>
</g>
<!-- Node5&#45;&gt;Node9 -->
<g id="edge8" class="edge">
<title>Node5&#45;&gt;Node9</title>
<path fill="none" stroke="midnightblue" d="M618.57,-325.55C624.47,-328.01 630.11,-331.11 635,-335 661.15,-355.8 645.29,-379.66 671,-401 673.03,-402.69 675.19,-404.26 677.43,-405.73"/>
<polygon fill="midnightblue" stroke="midnightblue" points="676.03,-408.97 686.45,-410.89 679.5,-402.89 676.03,-408.97"/>
</g>
<!-- Node10 -->
<g id="node10" class="node">
<title>Node10</title>
<g id="a_node10"><a xlink:href="../../d0/d74/group___t_k.html#ga2bc60e269306be300511aa630417506d" target="_top" xlink:title=" ">
<polygon fill="white" stroke="black" points="681,-372.5 681,-391.5 817,-391.5 817,-372.5 681,-372.5"/>
<text text-anchor="middle" x="749" y="-379.5" font-family="Helvetica,sans-Serif" font-size="10.00">GamR::TK::BPeak::GetCent</text>
</a>
</g>
</g>
<!-- Node5&#45;&gt;Node10 -->
<g id="edge9" class="edge">
<title>Node5&#45;&gt;Node10</title>
<path fill="none" stroke="midnightblue" d="M610.75,-325.51C619.03,-328.06 627.45,-331.19 635,-335 653.1,-344.12 652.76,-354.16 671,-363 675.96,-365.4 681.24,-367.52 686.64,-369.38"/>
<polygon fill="midnightblue" stroke="midnightblue" points="685.82,-372.79 696.41,-372.46 687.92,-366.11 685.82,-372.79"/>
</g>
<!-- Node11 -->
<g id="node11" class="node">
<title>Node11</title>
<g id="a_node11"><a xlink:href="../../d0/d74/group___t_k.html#ga32d918b4d80ea9e892c18f5936ae1c49" target="_top" xlink:title=" ">
<polygon fill="white" stroke="black" points="681,-323 681,-353 817,-353 817,-323 681,-323"/>
<text text-anchor="start" x="689" y="-341" font-family="Helvetica,sans-Serif" font-size="10.00">GamR::TK::BPeak::GetCent</text>
<text text-anchor="middle" x="749" y="-330" font-family="Helvetica,sans-Serif" font-size="10.00">Error</text>
</a>
</g>
</g>
<!-- Node5&#45;&gt;Node11 -->
<g id="edge10" class="edge">
<title>Node5&#45;&gt;Node11</title>
<path fill="none" stroke="midnightblue" d="M626.27,-323.2C640.42,-324.92 655.74,-326.79 670.58,-328.59"/>
<polygon fill="midnightblue" stroke="midnightblue" points="670.41,-332.09 680.76,-329.83 671.25,-325.15 670.41,-332.09"/>
</g>
<!-- Node12 -->
<g id="node12" class="node">
<title>Node12</title>
<g id="a_node12"><a xlink:href="../../d0/d74/group___t_k.html#ga86fb9a62fe918832b4fb6f6ae42f1965" target="_top" xlink:title=" ">
<polygon fill="white" stroke="black" points="676,-284.5 676,-303.5 822,-303.5 822,-284.5 676,-284.5"/>
<text text-anchor="middle" x="749" y="-291.5" font-family="Helvetica,sans-Serif" font-size="10.00">GamR::TK::BPeak::GetCounts</text>
</a>
</g>
</g>
<!-- Node5&#45;&gt;Node12 -->
<g id="edge11" class="edge">
<title>Node5&#45;&gt;Node12</title>
<path fill="none" stroke="midnightblue" d="M626.27,-308.8C638.92,-307.26 652.5,-305.61 665.84,-303.99"/>
<polygon fill="midnightblue" stroke="midnightblue" points="666.46,-307.44 675.97,-302.76 665.62,-300.49 666.46,-307.44"/>
</g>
<!-- Node13 -->
<g id="node13" class="node">
<title>Node13</title>
<g id="a_node13"><a xlink:href="../../d0/d74/group___t_k.html#gac083ac86c150085adae965936f41bb49" target="_top" xlink:title=" ">
<polygon fill="white" stroke="black" points="676,-235 676,-265 822,-265 822,-235 676,-235"/>
<text text-anchor="start" x="684" y="-253" font-family="Helvetica,sans-Serif" font-size="10.00">GamR::TK::BPeak::GetCounts</text>
<text text-anchor="middle" x="749" y="-242" font-family="Helvetica,sans-Serif" font-size="10.00">Error</text>
</a>
</g>
</g>
<!-- Node5&#45;&gt;Node13 -->
<g id="edge12" class="edge">
<title>Node5&#45;&gt;Node13</title>
<path fill="none" stroke="midnightblue" d="M589.98,-306.47C610.95,-297.89 642.87,-285.1 671,-275 677.31,-272.73 683.94,-270.44 690.56,-268.22"/>
<polygon fill="midnightblue" stroke="midnightblue" points="691.81,-271.49 700.2,-265.01 689.6,-264.85 691.81,-271.49"/>
</g>
<!-- Node5&#45;&gt;Node14 -->
<g id="edge13" class="edge">
<title>Node5&#45;&gt;Node14</title>
<path fill="none" stroke="midnightblue" d="M569.65,-306.48C578.49,-276.56 609.94,-183.65 671,-138 673.51,-136.12 676.18,-134.43 678.97,-132.9"/>
<polygon fill="midnightblue" stroke="midnightblue" points="680.64,-135.99 688.2,-128.57 677.66,-129.65 680.64,-135.99"/>
</g>
<!-- Node15 -->
<g id="node15" class="node">
<title>Node15</title>
<g id="a_node15"><a xlink:href="../../d0/d74/group___t_k.html#ga7673c2803d0941563430bf8ef217da80" target="_top" xlink:title=" ">
<polygon fill="white" stroke="black" points="679,-186 679,-216 819,-216 819,-186 679,-186"/>
<text text-anchor="start" x="687" y="-204" font-family="Helvetica,sans-Serif" font-size="10.00">GamR::TK::BPeak::GetWidth</text>
<text text-anchor="middle" x="749" y="-193" font-family="Helvetica,sans-Serif" font-size="10.00">Error</text>
</a>
</g>
</g>
<!-- Node5&#45;&gt;Node15 -->
<g id="edge14" class="edge">
<title>Node5&#45;&gt;Node15</title>
<path fill="none" stroke="midnightblue" d="M575.5,-306.44C592.13,-288.3 630.86,-248.64 671,-226 674.89,-223.8 679.01,-221.77 683.23,-219.89"/>
<polygon fill="midnightblue" stroke="midnightblue" points="684.69,-223.07 692.59,-216.01 682.01,-216.6 684.69,-223.07"/>
</g>
<!-- Node16 -->
<g id="node16" class="node">
<title>Node16</title>
<g id="a_node16"><a xlink:href="../../d0/db7/namespace_gam_r_1_1_utils.html#a80bc6c0c1ecd5d28cd4f9e3ae38f92ed" target="_top" xlink:title=" ">
<polygon fill="white" stroke="black" points="695,-147.5 695,-166.5 803,-166.5 803,-147.5 695,-147.5"/>
<text text-anchor="middle" x="749" y="-154.5" font-family="Helvetica,sans-Serif" font-size="10.00">GamR::Utils::wrresult</text>
</a>
</g>
</g>
<!-- Node5&#45;&gt;Node16 -->
<g id="edge15" class="edge">
<title>Node5&#45;&gt;Node16</title>
<path fill="none" stroke="midnightblue" d="M571.28,-306.49C583.17,-281.19 619.2,-211.78 671,-177 675.33,-174.09 680.06,-171.61 684.98,-169.48"/>
<polygon fill="midnightblue" stroke="midnightblue" points="686.5,-172.65 694.61,-165.83 684.02,-166.1 686.5,-172.65"/>
</g>
<!-- Node17&#45;&gt;Node18 -->
<g id="edge17" class="edge">
<title>Node17&#45;&gt;Node18</title>
<path fill="none" stroke="midnightblue" d="M318.26,-79.64C341.32,-75.55 365.44,-71.28 382.62,-68.23"/>
<polygon fill="midnightblue" stroke="midnightblue" points="383.6,-71.61 392.83,-66.42 382.37,-64.72 383.6,-71.61"/>
</g>
<!-- Node19 -->
<g id="node19" class="node">
<title>Node19</title>
<g id="a_node19"><a xlink:href="../../dc/d89/namespace_gam_r_1_1_spect.html#ab983da62eb972889ea13491189e13913" target="_top" xlink:title=" ">
<polygon fill="white" stroke="black" points="497,-54.5 497,-73.5 635,-73.5 635,-54.5 497,-54.5"/>
<text text-anchor="middle" x="566" y="-61.5" font-family="Helvetica,sans-Serif" font-size="10.00">GamR::Spect::StackSpectra</text>
</a>
</g>
</g>
<!-- Node18&#45;&gt;Node19 -->
<g id="edge18" class="edge">
<title>Node18&#45;&gt;Node19</title>
<path fill="none" stroke="midnightblue" d="M422.11,-64C436.89,-64 461.7,-64 486.55,-64"/>
<polygon fill="midnightblue" stroke="midnightblue" points="486.79,-67.5 496.79,-64 486.79,-60.5 486.79,-67.5"/>
</g>
<!-- Node19&#45;&gt;Node19 -->
<g id="edge20" class="edge">
<title>Node19&#45;&gt;Node19</title>
<path fill="none" stroke="midnightblue" d="M541.65,-73.76C529.8,-82.57 537.92,-92 566,-92 584.43,-92 594.26,-87.94 595.49,-82.65"/>
<polygon fill="midnightblue" stroke="midnightblue" points="598.39,-80.66 590.35,-73.76 592.32,-84.17 598.39,-80.66"/>
</g>
<!-- Node20 -->
<g id="node20" class="node">
<title>Node20</title>
<g id="a_node20"><a xlink:href="../../dc/d89/namespace_gam_r_1_1_spect.html#a56e80bce5bf691212c8b7dfb76c2d2b4" target="_top" xlink:title=" ">
<polygon fill="white" stroke="black" points="678.5,-54.5 678.5,-73.5 819.5,-73.5 819.5,-54.5 678.5,-54.5"/>
<text text-anchor="middle" x="749" y="-61.5" font-family="Helvetica,sans-Serif" font-size="10.00">GamR::Spect::List1DSpectra</text>
</a>
</g>
</g>
<!-- Node19&#45;&gt;Node20 -->
<g id="edge19" class="edge">
<title>Node19&#45;&gt;Node20</title>
<path fill="none" stroke="midnightblue" d="M635.17,-64C645.99,-64 657.26,-64 668.31,-64"/>
<polygon fill="midnightblue" stroke="midnightblue" points="668.39,-67.5 678.39,-64 668.39,-60.5 668.39,-67.5"/>
</g>
</g>
</svg>
        <g id="navigator" transform="translate(0 0)" fill="#404254">
                <rect fill="#f2f5e9" fill-opacity="0.5" stroke="#606060" stroke-width=".5" x="0" y="0" width="60" height="60"/>
                <use id="zoomplus" xlink:href="#zoomPlus" x="17" y="9" onmousedown="handleZoom(evt,'in')"/>
                <use id="zoomminus" xlink:href="#zoomMin" x="42" y="9" onmousedown="handleZoom(evt,'out')"/>
                <use id="reset" xlink:href="#resetDef" x="30" y="36" onmousedown="handleReset()"/>
                <g id="arrowUp" xlink:href="#dirArrow" transform="translate(30 24)" onmousedown="handlePan(0,-1)">
                  <use xlink:href="#rim" fill="#404040">
                        <set attributeName="fill" to="#808080" begin="arrowUp.mouseover" end="arrowUp.mouseout"/>
                  </use>
                  <path fill="none" stroke="white" stroke-width="1.5" d="M0,-3.0v7 M-2.5,-0.5L0,-3.0L2.5,-0.5"/>
                </g>
                <g id="arrowRight" xlink:href="#dirArrow" transform="rotate(90) translate(36 -43)" onmousedown="handlePan(1,0)">
                  <use xlink:href="#rim" fill="#404040">
                        <set attributeName="fill" to="#808080" begin="arrowRight.mouseover" end="arrowRight.mouseout"/>
                  </use>
                  <path fill="none" stroke="white" stroke-width="1.5" d="M0,-3.0v7 M-2.5,-0.5L0,-3.0L2.5,-0.5"/>
                </g>
                <g id="arrowDown" xlink:href="#dirArrow" transform="rotate(180) translate(-30 -48)" onmousedown="handlePan(0,1)">
                  <use xlink:href="#rim" fill="#404040">
                        <set attributeName="fill" to="#808080" begin="arrowDown.mouseover" end="arrowDown.mouseout"/>
                  </use>
                  <path fill="none" stroke="white" stroke-width="1.5" d="M0,-3.0v7 M-2.5,-0.5L0,-3.0L2.5,-0.5"/>
                </g>
                <g id="arrowLeft" xlink:href="#dirArrow" transform="rotate(270) translate(-36 17)" onmousedown="handlePan(-1,0)">
                  <use xlink:href="#rim" fill="#404040">
                        <set attributeName="fill" to="#808080" begin="arrowLeft.mouseover" end="arrowLeft.mouseout"/>
                  </use>
                  <path fill="none" stroke="white" stroke-width="1.5" d="M0,-3.0v7 M-2.5,-0.5L0,-3.0L2.5,-0.5"/>
                </g>
        </g>
        <svg viewBox="0 0 15 15" width="100%" height="30px" preserveAspectRatio="xMaxYMin meet">
         <g id="arrow_out" transform="scale(0.3 0.3)">
          <a xlink:href="class_gam_r_1_1_processor_1_1_time_walk_a10cdc74a1e9f4a14e1c449c9712ba085_cgraph_org.svg" target="_base">
           <rect id="button" ry="5" rx="5" y="6" x="6" height="38" width="38"
                fill="#f2f5e9" fill-opacity="0.5" stroke="#606060" stroke-width="1.0"/>
           <path id="arrow"
             d="M 11.500037,31.436501 C 11.940474,20.09759 22.043105,11.32322 32.158766,21.979434 L 37.068811,17.246167 C 37.068811,17.246167 37.088388,32 37.088388,32 L 22.160133,31.978069 C 22.160133,31.978069 26.997745,27.140456 26.997745,27.140456 C 18.528582,18.264221 13.291696,25.230495 11.500037,31.436501 z"
             style="fill:#404040;"/>
          </a>
         </g>
        </svg>
</svg>
