<?xml version="1.0" encoding="UTF-8" standalone="no"?>
<!DOCTYPE svg PUBLIC "-//W3C//DTD SVG 1.1//EN"
 "http://www.w3.org/Graphics/SVG/1.1/DTD/svg11.dtd">
<!-- Generated by graphviz version 8.1.0 (20230707.0739)
 -->
<!-- Title: GamR::Processor::TimeWalk::MakeGraphs Pages: 1 -->
<!--zoomable 552 -->

<svg id="main" version="1.1" xmlns="http://www.w3.org/2000/svg" xmlns:xlink="http://www.w3.org/1999/xlink" xml:space="preserve" onload="init(evt)">
<style type="text/css"><![CDATA[
.node, .edge {opacity: 0.7;}
.node.selected, .edge.selected {opacity: 1;}
.edge:hover path { stroke: red; }
.edge:hover polygon { stroke: red; fill: red; }
]]></style>

<defs>
  <circle id="rim" cx="0" cy="0" r="7"/>
  <circle id="rim2" cx="0" cy="0" r="3.5"/>
  <g id="zoomPlus">
    <use xlink:href="#rim" fill="#404040"><set attributeName="fill" to="#808080" begin="zoomplus.mouseover" end="zoomplus.mouseout"/></use>
    <path d="M-4,0h8M0,-4v8" fill="none" stroke="white" stroke-width="1.5" pointer-events="none"/>
  </g>
  <g id="zoomMin">
    <use xlink:href="#rim" fill="#404040"><set attributeName="fill" to="#808080" begin="zoomminus.mouseover" end="zoomminus.mouseout"/></use>
    <path d="M-4,0h8" fill="none" stroke="white" stroke-width="1.5" pointer-events="none"/>
  </g>
  <g id="arrowUp" transform="translate(30 24)">
    <use xlink:href="#rim"/>
    <path pointer-events="none" fill="none" stroke="white" stroke-width="1.5" d="M0,-3.0v7 M-2.5,-0.5L0,-3.0L2.5,-0.5"/>
  </g>
  <g id="arrowRight" transform="rotate(90) translate(36 -43)">
    <use xlink:href="#rim"/>
    <path pointer-events="none" fill="none" stroke="white" stroke-width="1.5" d="M0,-3.0v7 M-2.5,-0.5L0,-3.0L2.5,-0.5"/>
  </g>
  <g id="arrowDown" transform="rotate(180) translate(-30 -48)">
    <use xlink:href="#rim"/>
    <path pointer-events="none" fill="none" stroke="white" stroke-width="1.5" d="M0,-3.0v7 M-2.5,-0.5L0,-3.0L2.5,-0.5"/>
  </g>
  <g id="arrowLeft" transform="rotate(270) translate(-36 17)">
    <use xlink:href="#rim"/>
    <path pointer-events="none" fill="none" stroke="white" stroke-width="1.5" d="M0,-3.0v7 M-2.5,-0.5L0,-3.0L2.5,-0.5"/>
  </g>
  <g id="resetDef">
    <use xlink:href="#rim2" fill="#404040"><set attributeName="fill" to="#808080" begin="reset.mouseover" end="reset.mouseout"/></use>
  </g>
</defs>
<script type="application/ecmascript">
var viewWidth = 832;
var viewHeight = 552;
var sectionId = 'dynsection-4';
</script>
<script type="application/ecmascript" xlink:href="../../svg.min.js"/>
<svg id="graph" class="graph">
<g id="viewport">
<title>GamR::Processor::TimeWalk::MakeGraphs</title>
<!-- Node1 -->
<g id="Node000001" class="node">
<title>Node1</title>
<g id="a_Node000001"><a xlink:title="Iterating through calibration peaks for each detector pair: calculate the time difference spectrum (w...">
<polygon fill="#999999" stroke="#666666" points="140.5,-105.88 0,-105.88 0,-75.38 140.5,-75.38 140.5,-105.88"/>
<text text-anchor="start" x="8" y="-92.38" font-family="Helvetica,sans-Serif" font-size="10.00">GamR::Processor::TimeWalk</text>
<text text-anchor="middle" x="70.25" y="-81.12" font-family="Helvetica,sans-Serif" font-size="10.00">::MakeGraphs</text>
</a>
</g>
</g>
<!-- Node2 -->
<g id="Node000002" class="node">
<title>Node2</title>
<g id="a_Node000002"><a xlink:href="../../d0/d17/_abbreviations_8cc.html#a544c36017b9d9387f39e84863d9ae9a4" target="_top" xlink:title=" ">
<polygon fill="white" stroke="#666666" points="261.15,-261.25 232.35,-261.25 232.35,-242 261.15,-242 261.15,-261.25"/>
<text text-anchor="middle" x="246.75" y="-247.75" font-family="Helvetica,sans-Serif" font-size="10.00">bp</text>
</a>
</g>
</g>
<!-- Node1&#45;&gt;Node2 -->
<g id="edge1_Node000001_Node000002" class="edge">
<title>Node1&#45;&gt;Node2</title>
<g id="a_edge1_Node000001_Node000002"><a xlink:title=" ">
<path fill="none" stroke="#63b8ff" d="M88.3,-106.36C121.19,-136.7 193.14,-203.09 227.19,-234.5"/>
<polygon fill="#63b8ff" stroke="#63b8ff" points="224.26,-236.48 233.98,-240.69 229.01,-231.34 224.26,-236.48"/>
</a>
</g>
</g>
<!-- Node14 -->
<g id="Node000014" class="node">
<title>Node14</title>
<g id="a_Node000014"><a xlink:href="../../d0/d74/group___t_k.html#gaa2200a38a3956d5e129aeeca03b2952a" target="_top" xlink:title=" ">
<polygon fill="white" stroke="#666666" points="816.12,-126.25 676.38,-126.25 676.38,-107 816.12,-107 816.12,-126.25"/>
<text text-anchor="middle" x="746.25" y="-112.75" font-family="Helvetica,sans-Serif" font-size="10.00">GamR::TK::BPeak::GetWidth</text>
</a>
</g>
</g>
<!-- Node1&#45;&gt;Node14 -->
<g id="edge21_Node000001_Node000014" class="edge">
<title>Node1&#45;&gt;Node14</title>
<g id="a_edge21_Node000001_Node000014"><a xlink:title=" ">
<path fill="none" stroke="#63b8ff" d="M129.58,-106.33C144.75,-109.75 161.14,-112.87 176.5,-114.62 350,-134.47 555.23,-127.85 665.54,-121.86"/>
<polygon fill="#63b8ff" stroke="#63b8ff" points="665.45,-125.31 675.24,-121.26 665.06,-118.32 665.45,-125.31"/>
</a>
</g>
</g>
<!-- Node17 -->
<g id="Node000017" class="node">
<title>Node17</title>
<g id="a_Node000017"><a xlink:href="../../d3/d48/class_gam_r_1_1_processor_1_1_time_walk.html#a0b862c355e247c0e71d9e40e821c7cfe" target="_top" xlink:title="Draws Time Walk graphs.">
<polygon fill="white" stroke="#666666" points="317,-105.88 176.5,-105.88 176.5,-75.38 317,-75.38 317,-105.88"/>
<text text-anchor="start" x="184.5" y="-92.38" font-family="Helvetica,sans-Serif" font-size="10.00">GamR::Processor::TimeWalk</text>
<text text-anchor="middle" x="246.75" y="-81.12" font-family="Helvetica,sans-Serif" font-size="10.00">::Draw</text>
</a>
</g>
</g>
<!-- Node1&#45;&gt;Node17 -->
<g id="edge16_Node000001_Node000017" class="edge">
<title>Node1&#45;&gt;Node17</title>
<g id="a_edge16_Node000001_Node000017"><a xlink:title=" ">
<path fill="none" stroke="#63b8ff" d="M140.97,-90.62C148.93,-90.62 157.1,-90.62 165.19,-90.62"/>
<polygon fill="#63b8ff" stroke="#63b8ff" points="165.14,-94.13 175.14,-90.62 165.14,-87.13 165.14,-94.13"/>
</a>
</g>
</g>
<!-- Node18 -->
<g id="Node000018" class="node">
<title>Node18</title>
<g id="a_Node000018"><a xlink:href="../../d0/d17/_abbreviations_8cc.html#a5d1794b612bdcca3f4f4baa3d2e38a0b" target="_top" xlink:title=" ">
<polygon fill="white" stroke="#666666" points="420.4,-72.25 391.6,-72.25 391.6,-53 420.4,-53 420.4,-72.25"/>
<text text-anchor="middle" x="406" y="-58.75" font-family="Helvetica,sans-Serif" font-size="10.00">ss</text>
</a>
</g>
</g>
<!-- Node1&#45;&gt;Node18 -->
<g id="edge23_Node000001_Node000018" class="edge">
<title>Node1&#45;&gt;Node18</title>
<g id="a_edge23_Node000001_Node000018"><a xlink:title=" ">
<path fill="none" stroke="#63b8ff" d="M130.43,-74.88C145.36,-71.53 161.43,-68.46 176.5,-66.62 250.33,-57.66 338.54,-59.68 380.5,-61.4"/>
<polygon fill="#63b8ff" stroke="#63b8ff" points="380.14,-64.93 390.28,-61.88 380.45,-57.94 380.14,-64.93"/>
</a>
</g>
</g>
<!-- Node21 -->
<g id="Node000021" class="node">
<title>Node21</title>
<g id="a_Node000021"><a xlink:href="../../d2/d80/namespace_gam_r_1_1_t_k.html#a718e33e862c5ff75b9ef81e312ff2325" target="_top" xlink:title=" ">
<polygon fill="white" stroke="#666666" points="304.25,-19.25 189.25,-19.25 189.25,0 304.25,0 304.25,-19.25"/>
<text text-anchor="middle" x="246.75" y="-5.75" font-family="Helvetica,sans-Serif" font-size="10.00">GamR::TK::MonteCarlo</text>
</a>
</g>
</g>
<!-- Node1&#45;&gt;Node21 -->
<g id="edge22_Node000001_Node000021" class="edge">
<title>Node1&#45;&gt;Node21</title>
<g id="a_edge22_Node000001_Node000021"><a xlink:title=" ">
<path fill="none" stroke="#63b8ff" d="M97.04,-75.12C117.99,-62.91 148.55,-45.94 176.5,-33.62 184.95,-29.9 194.18,-26.36 203.06,-23.2"/>
<polygon fill="#63b8ff" stroke="#63b8ff" points="203.96,-26.24 212.27,-19.67 201.67,-19.63 203.96,-26.24"/>
</a>
</g>
</g>
<!-- Node3 -->
<g id="Node000003" class="node">
<title>Node3</title>
<g id="a_Node000003"><a xlink:href="../../d0/d74/group___t_k.html#gaf641b8c1f292803f8695310a0aee1896" target="_top" xlink:title=" ">
<polygon fill="white" stroke="#666666" points="459,-319.25 353,-319.25 353,-300 459,-300 459,-319.25"/>
<text text-anchor="middle" x="406" y="-305.75" font-family="Helvetica,sans-Serif" font-size="10.00">GamR::TK::FitBPeak</text>
</a>
</g>
</g>
<!-- Node2&#45;&gt;Node3 -->
<g id="edge2_Node000002_Node000003" class="edge">
<title>Node2&#45;&gt;Node3</title>
<g id="a_edge2_Node000002_Node000003"><a xlink:title=" ">
<path fill="none" stroke="#63b8ff" d="M261.43,-256.67C284.86,-265.31 333.44,-283.23 367.58,-295.82"/>
<polygon fill="#63b8ff" stroke="#63b8ff" points="366.07,-299.37 376.66,-299.54 368.49,-292.8 366.07,-299.37"/>
</a>
</g>
</g>
<!-- Node4 -->
<g id="Node000004" class="node">
<title>Node4</title>
<g id="a_Node000004"><a xlink:href="../../d0/db7/namespace_gam_r_1_1_utils.html#a31f74a9ca644d560dc14e19c4dbd773b" target="_top" xlink:title=" ">
<polygon fill="white" stroke="#666666" points="623.12,-356.25 504.38,-356.25 504.38,-337 623.12,-337 623.12,-356.25"/>
<text text-anchor="middle" x="563.75" y="-342.75" font-family="Helvetica,sans-Serif" font-size="10.00">GamR::Utils::GetHist1D</text>
</a>
</g>
</g>
<!-- Node3&#45;&gt;Node4 -->
<g id="edge3_Node000003_Node000004" class="edge">
<title>Node3&#45;&gt;Node4</title>
<g id="a_edge3_Node000003_Node000004"><a xlink:title=" ">
<path fill="none" stroke="#63b8ff" d="M449.56,-319.74C468.1,-324.14 490.03,-329.35 509.63,-334.01"/>
<polygon fill="#63b8ff" stroke="#63b8ff" points="508.7,-337.62 519.24,-336.53 510.32,-330.81 508.7,-337.62"/>
</a>
</g>
</g>
<!-- Node5 -->
<g id="Node000005" class="node">
<title>Node5</title>
<g id="a_Node000005"><a xlink:href="../../d0/d74/group___t_k.html#gaa496d15cf9600fa5790ff50c9392b0fd" target="_top" xlink:title=" ">
<polygon fill="white" stroke="#666666" points="623.5,-319.25 504,-319.25 504,-300 623.5,-300 623.5,-319.25"/>
<text text-anchor="middle" x="563.75" y="-305.75" font-family="Helvetica,sans-Serif" font-size="10.00">GamR::TK::BPeak::Print</text>
</a>
</g>
</g>
<!-- Node3&#45;&gt;Node5 -->
<g id="edge4_Node000003_Node000005" class="edge">
<title>Node3&#45;&gt;Node5</title>
<g id="a_edge4_Node000003_Node000005"><a xlink:title=" ">
<path fill="none" stroke="#63b8ff" d="M459.3,-309.62C470.08,-309.62 481.6,-309.62 492.89,-309.62"/>
<polygon fill="#63b8ff" stroke="#63b8ff" points="492.61,-313.13 502.61,-309.62 492.61,-306.13 492.61,-313.13"/>
</a>
</g>
</g>
<!-- Node6 -->
<g id="Node000006" class="node">
<title>Node6</title>
<g id="a_Node000006"><a xlink:href="../../d0/d74/group___t_k.html#ga0133d6b49ae4051d478518e61ae0c8a5" target="_top" xlink:title=" ">
<polygon fill="white" stroke="#666666" points="813.88,-544.25 678.62,-544.25 678.62,-525 813.88,-525 813.88,-544.25"/>
<text text-anchor="middle" x="746.25" y="-530.75" font-family="Helvetica,sans-Serif" font-size="10.00">GamR::TK::BPeak::GetAmp</text>
</a>
</g>
</g>
<!-- Node5&#45;&gt;Node6 -->
<g id="edge5_Node000005_Node000006" class="edge">
<title>Node5&#45;&gt;Node6</title>
<g id="a_edge5_Node000005_Node000006"><a xlink:title=" ">
<path fill="none" stroke="#63b8ff" d="M622.56,-319.74C626.22,-321.91 629.6,-324.51 632.5,-327.62 690.77,-390.21 609.32,-454.9 668.5,-516.62 668.97,-517.12 669.46,-517.6 669.95,-518.07"/>
<polygon fill="#63b8ff" stroke="#63b8ff" points="667.66,-521.47 677.76,-524.66 671.85,-515.87 667.66,-521.47"/>
</a>
</g>
</g>
<!-- Node7 -->
<g id="Node000007" class="node">
<title>Node7</title>
<g id="a_Node000007"><a xlink:href="../../d0/d74/group___t_k.html#gaa14fdc374518d186c18b0aabeb91898f" target="_top" xlink:title=" ">
<polygon fill="white" stroke="#666666" points="824,-507.25 668.5,-507.25 668.5,-488 824,-488 824,-507.25"/>
<text text-anchor="middle" x="746.25" y="-493.75" font-family="Helvetica,sans-Serif" font-size="10.00">GamR::TK::BPeak::GetAmpError</text>
</a>
</g>
</g>
<!-- Node5&#45;&gt;Node7 -->
<g id="edge6_Node000005_Node000007" class="edge">
<title>Node5&#45;&gt;Node7</title>
<g id="a_edge6_Node000005_Node000007"><a xlink:title=" ">
<path fill="none" stroke="#63b8ff" d="M622.09,-319.7C625.91,-321.87 629.44,-324.49 632.5,-327.62 680.92,-377.38 619.36,-430.59 668.5,-479.62 669.08,-480.21 669.68,-480.77 670.29,-481.31"/>
<polygon fill="#63b8ff" stroke="#63b8ff" points="667.75,-484.52 677.92,-487.5 671.83,-478.83 667.75,-484.52"/>
</a>
</g>
</g>
<!-- Node8 -->
<g id="Node000008" class="node">
<title>Node8</title>
<g id="a_Node000008"><a xlink:href="../../d0/d74/group___t_k.html#gad927a2d29f50b92c440bc6ece786ef72" target="_top" xlink:title=" ">
<polygon fill="white" stroke="#666666" points="813.88,-470.25 678.62,-470.25 678.62,-451 813.88,-451 813.88,-470.25"/>
<text text-anchor="middle" x="746.25" y="-456.75" font-family="Helvetica,sans-Serif" font-size="10.00">GamR::TK::BPeak::GetArea</text>
</a>
</g>
</g>
<!-- Node5&#45;&gt;Node8 -->
<g id="edge7_Node000005_Node000008" class="edge">
<title>Node5&#45;&gt;Node8</title>
<g id="a_edge7_Node000005_Node000008"><a xlink:title=" ">
<path fill="none" stroke="#63b8ff" d="M621.19,-319.61C625.31,-321.79 629.16,-324.43 632.5,-327.62 670.93,-364.32 629.76,-405.26 668.5,-441.62 669.69,-442.74 670.93,-443.79 672.22,-444.79"/>
<polygon fill="#63b8ff" stroke="#63b8ff" points="670.02,-448.16 680.34,-450.52 673.74,-442.24 670.02,-448.16"/>
</a>
</g>
</g>
<!-- Node9 -->
<g id="Node000009" class="node">
<title>Node9</title>
<g id="a_Node000009"><a xlink:href="../../d0/d74/group___t_k.html#ga4aaec131e418c8788ab191a4eb6a7fa9" target="_top" xlink:title=" ">
<polygon fill="white" stroke="#666666" points="813.88,-432.88 678.62,-432.88 678.62,-402.38 813.88,-402.38 813.88,-432.88"/>
<text text-anchor="start" x="686.62" y="-419.38" font-family="Helvetica,sans-Serif" font-size="10.00">GamR::TK::BPeak::GetArea</text>
<text text-anchor="middle" x="746.25" y="-408.12" font-family="Helvetica,sans-Serif" font-size="10.00">Error</text>
</a>
</g>
</g>
<!-- Node5&#45;&gt;Node9 -->
<g id="edge8_Node000005_Node000009" class="edge">
<title>Node5&#45;&gt;Node9</title>
<g id="a_edge8_Node000005_Node000009"><a xlink:title=" ">
<path fill="none" stroke="#63b8ff" d="M619.2,-319.71C623.95,-321.86 628.48,-324.47 632.5,-327.62 658.78,-348.26 642.67,-372.43 668.5,-393.62 669.59,-394.52 670.72,-395.39 671.87,-396.22"/>
<polygon fill="#63b8ff" stroke="#63b8ff" points="669.88,-399.72 680.23,-401.98 673.55,-393.76 669.88,-399.72"/>
</a>
</g>
</g>
<!-- Node10 -->
<g id="Node000010" class="node">
<title>Node10</title>
<g id="a_Node000010"><a xlink:href="../../d0/d74/group___t_k.html#ga2bc60e269306be300511aa630417506d" target="_top" xlink:title=" ">
<polygon fill="white" stroke="#666666" points="813.88,-384.25 678.62,-384.25 678.62,-365 813.88,-365 813.88,-384.25"/>
<text text-anchor="middle" x="746.25" y="-370.75" font-family="Helvetica,sans-Serif" font-size="10.00">GamR::TK::BPeak::GetCent</text>
</a>
</g>
</g>
<!-- Node5&#45;&gt;Node10 -->
<g id="edge9_Node000005_Node000010" class="edge">
<title>Node5&#45;&gt;Node10</title>
<g id="a_edge9_Node000005_Node000010"><a xlink:title=" ">
<path fill="none" stroke="#63b8ff" d="M612.29,-319.64C619.24,-321.85 626.18,-324.49 632.5,-327.62 650.66,-336.63 650.26,-346.77 668.5,-355.62 672.78,-357.7 677.32,-359.57 681.95,-361.24"/>
<polygon fill="#63b8ff" stroke="#63b8ff" points="680.61,-364.81 691.2,-364.59 682.78,-358.16 680.61,-364.81"/>
</a>
</g>
</g>
<!-- Node11 -->
<g id="Node000011" class="node">
<title>Node11</title>
<g id="a_Node000011"><a xlink:href="../../d0/d74/group___t_k.html#ga32d918b4d80ea9e892c18f5936ae1c49" target="_top" xlink:title=" ">
<polygon fill="white" stroke="#666666" points="813.88,-346.88 678.62,-346.88 678.62,-316.38 813.88,-316.38 813.88,-346.88"/>
<text text-anchor="start" x="686.62" y="-333.38" font-family="Helvetica,sans-Serif" font-size="10.00">GamR::TK::BPeak::GetCent</text>
<text text-anchor="middle" x="746.25" y="-322.12" font-family="Helvetica,sans-Serif" font-size="10.00">Error</text>
</a>
</g>
</g>
<!-- Node5&#45;&gt;Node11 -->
<g id="edge10_Node000005_Node000011" class="edge">
<title>Node5&#45;&gt;Node11</title>
<g id="a_edge10_Node000005_Node000011"><a xlink:title=" ">
<path fill="none" stroke="#63b8ff" d="M623.85,-316.83C637.83,-318.53 652.95,-320.38 667.62,-322.16"/>
<polygon fill="#63b8ff" stroke="#63b8ff" points="666.84,-325.72 677.19,-323.45 667.69,-318.77 666.84,-325.72"/>
</a>
</g>
</g>
<!-- Node12 -->
<g id="Node000012" class="node">
<title>Node12</title>
<g id="a_Node000012"><a xlink:href="../../d0/d74/group___t_k.html#ga86fb9a62fe918832b4fb6f6ae42f1965" target="_top" xlink:title=" ">
<polygon fill="white" stroke="#666666" points="819.12,-298.25 673.38,-298.25 673.38,-279 819.12,-279 819.12,-298.25"/>
<text text-anchor="middle" x="746.25" y="-284.75" font-family="Helvetica,sans-Serif" font-size="10.00">GamR::TK::BPeak::GetCounts</text>
</a>
</g>
</g>
<!-- Node5&#45;&gt;Node12 -->
<g id="edge11_Node000005_Node000012" class="edge">
<title>Node5&#45;&gt;Node12</title>
<g id="a_edge11_Node000005_Node000012"><a xlink:title=" ">
<path fill="none" stroke="#63b8ff" d="M623.85,-302.75C636.14,-301.32 649.31,-299.79 662.28,-298.28"/>
<polygon fill="#63b8ff" stroke="#63b8ff" points="662.57,-301.65 672.1,-297.02 661.76,-294.7 662.57,-301.65"/>
</a>
</g>
</g>
<!-- Node13 -->
<g id="Node000013" class="node">
<title>Node13</title>
<g id="a_Node000013"><a xlink:href="../../d0/d74/group___t_k.html#gac083ac86c150085adae965936f41bb49" target="_top" xlink:title=" ">
<polygon fill="white" stroke="#666666" points="819.12,-260.88 673.38,-260.88 673.38,-230.38 819.12,-230.38 819.12,-260.88"/>
<text text-anchor="start" x="681.38" y="-247.38" font-family="Helvetica,sans-Serif" font-size="10.00">GamR::TK::BPeak::GetCounts</text>
<text text-anchor="middle" x="746.25" y="-236.12" font-family="Helvetica,sans-Serif" font-size="10.00">Error</text>
</a>
</g>
</g>
<!-- Node5&#45;&gt;Node13 -->
<g id="edge12_Node000005_Node000013" class="edge">
<title>Node5&#45;&gt;Node13</title>
<g id="a_edge12_Node000005_Node000013"><a xlink:title=" ">
<path fill="none" stroke="#63b8ff" d="M589.32,-299.63C610.24,-291.25 641.16,-279.16 668.5,-269.62 673.27,-267.96 678.23,-266.29 683.23,-264.64"/>
<polygon fill="#63b8ff" stroke="#63b8ff" points="684.06,-267.72 692.49,-261.31 681.9,-261.07 684.06,-267.72"/>
</a>
</g>
</g>
<!-- Node5&#45;&gt;Node14 -->
<g id="edge13_Node000005_Node000014" class="edge">
<title>Node5&#45;&gt;Node14</title>
<g id="a_edge13_Node000005_Node000014"><a xlink:title=" ">
<path fill="none" stroke="#63b8ff" d="M567.54,-299.82C576.6,-269.87 608.13,-178.92 668.5,-134.62 669.98,-133.54 671.51,-132.52 673.09,-131.56"/>
<polygon fill="#63b8ff" stroke="#63b8ff" points="674.28,-134.37 681.58,-126.69 671.08,-128.14 674.28,-134.37"/>
</a>
</g>
</g>
<!-- Node15 -->
<g id="Node000015" class="node">
<title>Node15</title>
<g id="a_Node000015"><a xlink:href="../../d0/d74/group___t_k.html#ga7673c2803d0941563430bf8ef217da80" target="_top" xlink:title=" ">
<polygon fill="white" stroke="#666666" points="816.12,-211.88 676.38,-211.88 676.38,-181.38 816.12,-181.38 816.12,-211.88"/>
<text text-anchor="start" x="684.38" y="-198.38" font-family="Helvetica,sans-Serif" font-size="10.00">GamR::TK::BPeak::GetWidth</text>
<text text-anchor="middle" x="746.25" y="-187.12" font-family="Helvetica,sans-Serif" font-size="10.00">Error</text>
</a>
</g>
</g>
<!-- Node5&#45;&gt;Node15 -->
<g id="edge14_Node000005_Node000015" class="edge">
<title>Node5&#45;&gt;Node15</title>
<g id="a_edge14_Node000005_Node000015"><a xlink:title=" ">
<path fill="none" stroke="#63b8ff" d="M573.8,-299.74C590.74,-281.78 629.11,-243.61 668.5,-221.62 671.72,-219.83 675.08,-218.14 678.53,-216.55"/>
<polygon fill="#63b8ff" stroke="#63b8ff" points="679.6,-219.48 687.43,-212.34 676.86,-213.03 679.6,-219.48"/>
</a>
</g>
</g>
<!-- Node16 -->
<g id="Node000016" class="node">
<title>Node16</title>
<g id="a_Node000016"><a xlink:href="../../d0/db7/namespace_gam_r_1_1_utils.html#a80bc6c0c1ecd5d28cd4f9e3ae38f92ed" target="_top" xlink:title=" ">
<polygon fill="white" stroke="#666666" points="800,-163.25 692.5,-163.25 692.5,-144 800,-144 800,-163.25"/>
<text text-anchor="middle" x="746.25" y="-149.75" font-family="Helvetica,sans-Serif" font-size="10.00">GamR::Utils::wrresult</text>
</a>
</g>
</g>
<!-- Node5&#45;&gt;Node16 -->
<g id="edge15_Node000005_Node000016" class="edge">
<title>Node5&#45;&gt;Node16</title>
<g id="a_edge15_Node000005_Node000016"><a xlink:title=" ">
<path fill="none" stroke="#63b8ff" d="M569.2,-299.86C581.27,-274.55 617.18,-206.44 668.5,-172.62 672.72,-169.84 677.31,-167.47 682.08,-165.44"/>
<polygon fill="#63b8ff" stroke="#63b8ff" points="682.9,-168.5 691.07,-161.75 680.47,-161.94 682.9,-168.5"/>
</a>
</g>
</g>
<!-- Node17&#45;&gt;Node18 -->
<g id="edge17_Node000017_Node000018" class="edge">
<title>Node17&#45;&gt;Node18</title>
<g id="a_edge17_Node000017_Node000018"><a xlink:title=" ">
<path fill="none" stroke="#63b8ff" d="M317.18,-78.26C339.77,-74.24 363.4,-70.03 380.44,-67"/>
<polygon fill="#63b8ff" stroke="#63b8ff" points="380.87,-70.3 390.1,-65.1 379.64,-63.41 380.87,-70.3"/>
</a>
</g>
</g>
<!-- Node19 -->
<g id="Node000019" class="node">
<title>Node19</title>
<g id="a_Node000019"><a xlink:href="../../dc/d89/namespace_gam_r_1_1_spect.html#ab983da62eb972889ea13491189e13913" target="_top" xlink:title=" ">
<polygon fill="white" stroke="#666666" points="632.5,-72.25 495,-72.25 495,-53 632.5,-53 632.5,-72.25"/>
<text text-anchor="middle" x="563.75" y="-58.75" font-family="Helvetica,sans-Serif" font-size="10.00">GamR::Spect::StackSpectra</text>
</a>
</g>
</g>
<!-- Node18&#45;&gt;Node19 -->
<g id="edge18_Node000018_Node000019" class="edge">
<title>Node18&#45;&gt;Node19</title>
<g id="a_edge18_Node000018_Node000019"><a xlink:title=" ">
<path fill="none" stroke="#63b8ff" d="M420.82,-62.62C435.41,-62.62 459.63,-62.62 483.97,-62.62"/>
<polygon fill="#63b8ff" stroke="#63b8ff" points="483.75,-66.13 493.75,-62.62 483.75,-59.13 483.75,-66.13"/>
</a>
</g>
</g>
<!-- Node19&#45;&gt;Node19 -->
<g id="edge20_Node000019_Node000019" class="edge">
<title>Node19&#45;&gt;Node19</title>
<g id="a_edge20_Node000019_Node000019"><a xlink:title=" ">
<path fill="none" stroke="#63b8ff" d="M539.05,-72.54C527.79,-81.15 536.02,-90.25 563.75,-90.25 580.21,-90.25 589.81,-87.04 592.52,-82.63"/>
<polygon fill="#63b8ff" stroke="#63b8ff" points="595.44,-81.5 588.45,-73.54 588.95,-84.12 595.44,-81.5"/>
</a>
</g>
</g>
<!-- Node20 -->
<g id="Node000020" class="node">
<title>Node20</title>
<g id="a_Node000020"><a xlink:href="../../dc/d89/namespace_gam_r_1_1_spect.html#a56e80bce5bf691212c8b7dfb76c2d2b4" target="_top" xlink:title=" ">
<polygon fill="white" stroke="#666666" points="816.5,-72.25 676,-72.25 676,-53 816.5,-53 816.5,-72.25"/>
<text text-anchor="middle" x="746.25" y="-58.75" font-family="Helvetica,sans-Serif" font-size="10.00">GamR::Spect::List1DSpectra</text>
</a>
</g>
</g>
<!-- Node19&#45;&gt;Node20 -->
<g id="edge19_Node000019_Node000020" class="edge">
<title>Node19&#45;&gt;Node20</title>
<g id="a_edge19_Node000019_Node000020"><a xlink:title=" ">
<path fill="none" stroke="#63b8ff" d="M632.99,-62.62C643.36,-62.62 654.15,-62.62 664.75,-62.62"/>
<polygon fill="#63b8ff" stroke="#63b8ff" points="664.71,-66.13 674.71,-62.62 664.71,-59.13 664.71,-66.13"/>
</a>
</g>
</g>
</g>
</svg>

<g id="navigator" transform="translate(0 0)" fill="#404254">
  <rect fill="#f2f5e9" fill-opacity="0.5" stroke="#606060" stroke-width=".5" x="0" y="0" width="60" height="60"/>
  <use id="zoomplus" xlink:href="#zoomPlus" x="17" y="9" onmousedown="handleZoom(evt,'in')"/>
  <use id="zoomminus" xlink:href="#zoomMin" x="42" y="9" onmousedown="handleZoom(evt,'out')"/>
  <use id="reset" xlink:href="#resetDef" x="30" y="36" onmousedown="handleReset()"/>
   <use id="arrowup" xlink:href="#arrowUp" x="0" y="0" onmousedown="handlePan(0,-1)"/>
  <use id="arrowright" xlink:href="#arrowRight" x="0" y="0" onmousedown="handlePan(1,0)"/>
  <use id="arrowdown" xlink:href="#arrowDown" x="0" y="0" onmousedown="handlePan(0,1)"/>
  <use id="arrowleft" xlink:href="#arrowLeft" x="0" y="0" onmousedown="handlePan(-1,0)"/>
</g>
<svg viewBox="0 0 15 15" width="100%" height="30px" preserveAspectRatio="xMaxYMin meet">
 <g id="arrow_out" transform="scale(0.3 0.3)">
  <a xlink:href="class_gam_r_1_1_processor_1_1_time_walk_a10cdc74a1e9f4a14e1c449c9712ba085_cgraph_org.svg" target="_base">
   <rect id="button" ry="5" rx="5" y="6" x="6" height="38" width="38"
        fill="#f2f5e9" fill-opacity="0.5" stroke="#606060" stroke-width="1.0"/>
   <path id="arrow"
     d="M 11.500037,31.436501 C 11.940474,20.09759 22.043105,11.32322 32.158766,21.979434 L 37.068811,17.246167 C 37.068811,17.246167 37.088388,32 37.088388,32 L 22.160133,31.978069 C 22.160133,31.978069 26.997745,27.140456 26.997745,27.140456 C 18.528582,18.264221 13.291696,25.230495 11.500037,31.436501 z"
     style="fill:#404040;"/>
  </a>
 </g>
</svg>

<style type='text/css'>
<![CDATA[
[data-mouse-over-selected='false'] { opacity: 0.7; }
[data-mouse-over-selected='true']  { opacity: 1.0; }
]]>
</style>
<script type="application/ecmascript"><![CDATA[
document.addEventListener('DOMContentLoaded', (event) => {
  highlightEdges();
  highlightAdjacentNodes();
});
]]></script>
</svg>
