<?xml version="1.0" encoding="UTF-8" standalone="no"?>
<!DOCTYPE svg PUBLIC "-//W3C//DTD SVG 1.1//EN"
 "http://www.w3.org/Graphics/SVG/1.1/DTD/svg11.dtd">
<!-- Generated by graphviz version 6.0.2 (20221011.1828)
 -->
<!-- Title: GamR::Processor::TimeWalk::Draw Pages: 1 -->
<svg width="565pt" height="51pt"
 viewBox="0.00 0.00 565.00 50.50" xmlns="http://www.w3.org/2000/svg" xmlns:xlink="http://www.w3.org/1999/xlink">
<g id="graph0" class="graph" transform="scale(1 1) rotate(0) translate(4 46.5)">
<title>GamR::Processor::TimeWalk::Draw</title>
<!-- Node1 -->
<g id="node1" class="node">
<title>Node1</title>
<g id="a_node1"><a xlink:title="Draws Time Walk graphs.">
<polygon fill="#999999" stroke="#666666" points="141,-30 0,-30 0,0 141,0 141,-30"/>
<text text-anchor="start" x="8" y="-18" font-family="Helvetica,sans-Serif" font-size="10.00">GamR::Processor::TimeWalk</text>
<text text-anchor="middle" x="70.5" y="-7" font-family="Helvetica,sans-Serif" font-size="10.00">::Draw</text>
</a>
</g>
</g>
<!-- Node2 -->
<g id="node2" class="node">
<title>Node2</title>
<g id="a_node2"><a xlink:href="../../d0/d17/_abbreviations_8cc.html#a5d1794b612bdcca3f4f4baa3d2e38a0b" target="_top" xlink:title=" ">
<polygon fill="white" stroke="#666666" points="206,-24.5 177,-24.5 177,-5.5 206,-5.5 206,-24.5"/>
<text text-anchor="middle" x="191.5" y="-12.5" font-family="Helvetica,sans-Serif" font-size="10.00">ss</text>
</a>
</g>
</g>
<!-- Node1&#45;&gt;Node2 -->
<g id="edge1" class="edge">
<title>Node1&#45;&gt;Node2</title>
<path fill="none" stroke="#63b8ff" d="M141.07,-15C150.23,-15 159.06,-15 166.66,-15"/>
<polygon fill="#63b8ff" stroke="#63b8ff" points="166.81,-18.5 176.81,-15 166.81,-11.5 166.81,-18.5"/>
</g>
<!-- Node3 -->
<g id="node3" class="node">
<title>Node3</title>
<g id="a_node3"><a xlink:href="../../dc/d89/namespace_gam_r_1_1_spect.html#ab983da62eb972889ea13491189e13913" target="_top" xlink:title=" ">
<polygon fill="white" stroke="#666666" points="380,-24.5 242,-24.5 242,-5.5 380,-5.5 380,-24.5"/>
<text text-anchor="middle" x="311" y="-12.5" font-family="Helvetica,sans-Serif" font-size="10.00">GamR::Spect::StackSpectra</text>
</a>
</g>
</g>
<!-- Node2&#45;&gt;Node3 -->
<g id="edge2" class="edge">
<title>Node2&#45;&gt;Node3</title>
<path fill="none" stroke="#63b8ff" d="M206.44,-15C213.25,-15 222.05,-15 231.62,-15"/>
<polygon fill="#63b8ff" stroke="#63b8ff" points="231.84,-18.5 241.84,-15 231.84,-11.5 231.84,-18.5"/>
</g>
<!-- Node3&#45;&gt;Node3 -->
<g id="edge4" class="edge">
<title>Node3&#45;&gt;Node3</title>
<path fill="none" stroke="#63b8ff" d="M292.58,-24.58C283.62,-33.23 289.76,-42.5 311,-42.5 324.27,-42.5 331.65,-38.88 333.13,-34.05"/>
<polygon fill="#63b8ff" stroke="#63b8ff" points="336.32,-32.62 329.42,-24.58 329.81,-35.17 336.32,-32.62"/>
</g>
<!-- Node4 -->
<g id="node4" class="node">
<title>Node4</title>
<g id="a_node4"><a xlink:href="../../dc/d89/namespace_gam_r_1_1_spect.html#a56e80bce5bf691212c8b7dfb76c2d2b4" target="_top" xlink:title=" ">
<polygon fill="white" stroke="#666666" points="557,-24.5 416,-24.5 416,-5.5 557,-5.5 557,-24.5"/>
<text text-anchor="middle" x="486.5" y="-12.5" font-family="Helvetica,sans-Serif" font-size="10.00">GamR::Spect::List1DSpectra</text>
</a>
</g>
</g>
<!-- Node3&#45;&gt;Node4 -->
<g id="edge3" class="edge">
<title>Node3&#45;&gt;Node4</title>
<path fill="none" stroke="#63b8ff" d="M380.07,-15C388.53,-15 397.24,-15 405.86,-15"/>
<polygon fill="#63b8ff" stroke="#63b8ff" points="405.91,-18.5 415.91,-15 405.91,-11.5 405.91,-18.5"/>
</g>
</g>
</svg>
