<?xml version="1.0" encoding="UTF-8" standalone="no"?>
<!DOCTYPE svg PUBLIC "-//W3C//DTD SVG 1.1//EN"
 "http://www.w3.org/Graphics/SVG/1.1/DTD/svg11.dtd">
<!-- Generated by graphviz version 8.1.0 (20230707.0739)
 -->
<!-- Title: src/lib/spect/FFT.cc Pages: 1 -->
<svg width="517pt" height="138pt"
 viewBox="0.00 0.00 516.62 137.75" xmlns="http://www.w3.org/2000/svg" xmlns:xlink="http://www.w3.org/1999/xlink">
<g id="graph0" class="graph" transform="scale(1 1) rotate(0) translate(4 133.75)">
<title>src/lib/spect/FFT.cc</title>
<!-- Node1 -->
<g id="Node000001" class="node">
<title>Node1</title>
<g id="a_Node000001"><a xlink:title=" ">
<polygon fill="#999999" stroke="#666666" points="133.88,-129.75 30.88,-129.75 30.88,-110.5 133.88,-110.5 133.88,-129.75"/>
<text text-anchor="middle" x="82.38" y="-116.25" font-family="Helvetica,sans-Serif" font-size="10.00">src/lib/spect/FFT.cc</text>
</a>
</g>
</g>
<!-- Node2 -->
<g id="Node000002" class="node">
<title>Node2</title>
<g id="a_Node000002"><a xlink:title=" ">
<polygon fill="#e0e0e0" stroke="#999999" points="40.75,-74.5 0,-74.5 0,-55.25 40.75,-55.25 40.75,-74.5"/>
<text text-anchor="middle" x="20.38" y="-61" font-family="Helvetica,sans-Serif" font-size="10.00">TF1.h</text>
</a>
</g>
</g>
<!-- Node1&#45;&gt;Node2 -->
<g id="edge1_Node000001_Node000002" class="edge">
<title>Node1&#45;&gt;Node2</title>
<g id="a_edge1_Node000001_Node000002"><a xlink:title=" ">
<path fill="none" stroke="#63b8ff" d="M71.86,-110.09C62.9,-102.4 49.8,-91.15 39.06,-81.93"/>
<polygon fill="#63b8ff" stroke="#63b8ff" points="41.6,-78.64 31.74,-74.77 37.04,-83.95 41.6,-78.64"/>
</a>
</g>
</g>
<!-- Node3 -->
<g id="Node000003" class="node">
<title>Node3</title>
<g id="a_Node000003"><a xlink:href="../../d5/d59/_f_f_t_8hh.html" target="_top" xlink:title=" ">
<polygon fill="white" stroke="#666666" points="105.75,-74.5 59,-74.5 59,-55.25 105.75,-55.25 105.75,-74.5"/>
<text text-anchor="middle" x="82.38" y="-61" font-family="Helvetica,sans-Serif" font-size="10.00">FFT.hh</text>
</a>
</g>
</g>
<!-- Node1&#45;&gt;Node3 -->
<g id="edge2_Node000001_Node000003" class="edge">
<title>Node1&#45;&gt;Node3</title>
<g id="a_edge2_Node000001_Node000003"><a xlink:title=" ">
<path fill="none" stroke="#63b8ff" d="M82.38,-110.33C82.38,-103.67 82.38,-94.24 82.38,-85.78"/>
<polygon fill="#63b8ff" stroke="#63b8ff" points="85.88,-85.86 82.38,-75.86 78.88,-85.86 85.88,-85.86"/>
</a>
</g>
</g>
<!-- Node5 -->
<g id="Node000005" class="node">
<title>Node5</title>
<g id="a_Node000005"><a xlink:href="../../dc/d1a/_transform_8hh.html" target="_top" xlink:title=" ">
<polygon fill="white" stroke="#666666" points="250.88,-74.5 177.88,-74.5 177.88,-55.25 250.88,-55.25 250.88,-74.5"/>
<text text-anchor="middle" x="214.38" y="-61" font-family="Helvetica,sans-Serif" font-size="10.00">Transform.hh</text>
</a>
</g>
</g>
<!-- Node1&#45;&gt;Node5 -->
<g id="edge4_Node000001_Node000005" class="edge">
<title>Node1&#45;&gt;Node5</title>
<g id="a_edge4_Node000001_Node000005"><a xlink:title=" ">
<path fill="none" stroke="#63b8ff" d="M104.77,-110.09C125.91,-101.56 157.86,-88.67 181.82,-79.01"/>
<polygon fill="#63b8ff" stroke="#63b8ff" points="182.91,-81.94 190.87,-74.95 180.29,-75.45 182.91,-81.94"/>
</a>
</g>
</g>
<!-- Node4 -->
<g id="Node000004" class="node">
<title>Node4</title>
<g id="a_Node000004"><a xlink:title=" ">
<polygon fill="#e0e0e0" stroke="#999999" points="83.5,-19.25 41.25,-19.25 41.25,0 83.5,0 83.5,-19.25"/>
<text text-anchor="middle" x="62.38" y="-5.75" font-family="Helvetica,sans-Serif" font-size="10.00">TH1.h</text>
</a>
</g>
</g>
<!-- Node3&#45;&gt;Node4 -->
<g id="edge3_Node000003_Node000004" class="edge">
<title>Node3&#45;&gt;Node4</title>
<g id="a_edge3_Node000003_Node000004"><a xlink:title=" ">
<path fill="none" stroke="#63b8ff" d="M79.07,-55.08C76.48,-48.19 72.78,-38.34 69.52,-29.66"/>
<polygon fill="#63b8ff" stroke="#63b8ff" points="72.54,-28.74 65.75,-20.61 65.99,-31.2 72.54,-28.74"/>
</a>
</g>
</g>
<!-- Node5&#45;&gt;Node4 -->
<g id="edge9_Node000005_Node000004" class="edge">
<title>Node5&#45;&gt;Node4</title>
<g id="a_edge9_Node000005_Node000004"><a xlink:title=" ">
<path fill="none" stroke="#63b8ff" d="M188.59,-54.84C162.45,-45.69 121.98,-31.5 93.94,-21.68"/>
<polygon fill="#63b8ff" stroke="#63b8ff" points="95.45,-18.15 84.86,-18.15 93.14,-24.76 95.45,-18.15"/>
</a>
</g>
</g>
<!-- Node6 -->
<g id="Node000006" class="node">
<title>Node6</title>
<g id="a_Node000006"><a xlink:title=" ">
<polygon fill="#e0e0e0" stroke="#999999" points="141.38,-19.25 101.38,-19.25 101.38,0 141.38,0 141.38,-19.25"/>
<text text-anchor="middle" x="121.38" y="-5.75" font-family="Helvetica,sans-Serif" font-size="10.00">string</text>
</a>
</g>
</g>
<!-- Node5&#45;&gt;Node6 -->
<g id="edge5_Node000005_Node000006" class="edge">
<title>Node5&#45;&gt;Node6</title>
<g id="a_edge5_Node000005_Node000006"><a xlink:title=" ">
<path fill="none" stroke="#63b8ff" d="M198.6,-54.84C184.3,-46.66 162.99,-34.46 146.38,-24.94"/>
<polygon fill="#63b8ff" stroke="#63b8ff" points="148.65,-21.63 138.23,-19.7 145.17,-27.71 148.65,-21.63"/>
</a>
</g>
</g>
<!-- Node7 -->
<g id="Node000007" class="node">
<title>Node7</title>
<g id="a_Node000007"><a xlink:title=" ">
<polygon fill="#e0e0e0" stroke="#999999" points="202.88,-19.25 159.88,-19.25 159.88,0 202.88,0 202.88,-19.25"/>
<text text-anchor="middle" x="181.38" y="-5.75" font-family="Helvetica,sans-Serif" font-size="10.00">vector</text>
</a>
</g>
</g>
<!-- Node5&#45;&gt;Node7 -->
<g id="edge6_Node000005_Node000007" class="edge">
<title>Node5&#45;&gt;Node7</title>
<g id="a_edge6_Node000005_Node000007"><a xlink:title=" ">
<path fill="none" stroke="#63b8ff" d="M208.93,-55.08C204.51,-47.96 198.14,-37.68 192.64,-28.8"/>
<polygon fill="#63b8ff" stroke="#63b8ff" points="195.19,-27.27 186.94,-20.61 189.24,-30.95 195.19,-27.27"/>
</a>
</g>
</g>
<!-- Node8 -->
<g id="Node000008" class="node">
<title>Node8</title>
<g id="a_Node000008"><a xlink:title=" ">
<polygon fill="#e0e0e0" stroke="#999999" points="273.38,-19.25 221.38,-19.25 221.38,0 273.38,0 273.38,-19.25"/>
<text text-anchor="middle" x="247.38" y="-5.75" font-family="Helvetica,sans-Serif" font-size="10.00">TCutG.h</text>
</a>
</g>
</g>
<!-- Node5&#45;&gt;Node8 -->
<g id="edge7_Node000005_Node000008" class="edge">
<title>Node5&#45;&gt;Node8</title>
<g id="a_edge7_Node000005_Node000008"><a xlink:title=" ">
<path fill="none" stroke="#63b8ff" d="M219.82,-55.08C224.24,-47.96 230.61,-37.68 236.11,-28.8"/>
<polygon fill="#63b8ff" stroke="#63b8ff" points="239.51,-30.95 241.81,-20.61 233.56,-27.27 239.51,-30.95"/>
</a>
</g>
</g>
<!-- Node9 -->
<g id="Node000009" class="node">
<title>Node9</title>
<g id="a_Node000009"><a xlink:title=" ">
<polygon fill="#e0e0e0" stroke="#999999" points="355.75,-19.25 291,-19.25 291,0 355.75,0 355.75,-19.25"/>
<text text-anchor="middle" x="323.38" y="-5.75" font-family="Helvetica,sans-Serif" font-size="10.00">TFormula.h</text>
</a>
</g>
</g>
<!-- Node5&#45;&gt;Node9 -->
<g id="edge8_Node000005_Node000009" class="edge">
<title>Node5&#45;&gt;Node9</title>
<g id="a_edge8_Node000005_Node000009"><a xlink:title=" ">
<path fill="none" stroke="#63b8ff" d="M232.87,-54.84C249.93,-46.5 275.53,-34 295.15,-24.41"/>
<polygon fill="#63b8ff" stroke="#63b8ff" points="296.35,-27.24 303.79,-19.7 293.27,-20.95 296.35,-27.24"/>
</a>
</g>
</g>
<!-- Node10 -->
<g id="Node000010" class="node">
<title>Node10</title>
<g id="a_Node000010"><a xlink:title=" ">
<polygon fill="#e0e0e0" stroke="#999999" points="416.5,-19.25 374.25,-19.25 374.25,0 416.5,0 416.5,-19.25"/>
<text text-anchor="middle" x="395.38" y="-5.75" font-family="Helvetica,sans-Serif" font-size="10.00">TH2.h</text>
</a>
</g>
</g>
<!-- Node5&#45;&gt;Node10 -->
<g id="edge10_Node000005_Node000010" class="edge">
<title>Node5&#45;&gt;Node10</title>
<g id="a_edge10_Node000005_Node000010"><a xlink:title=" ">
<path fill="none" stroke="#63b8ff" d="M245.08,-54.84C278.12,-45.12 330.39,-29.74 363.77,-19.92"/>
<polygon fill="#63b8ff" stroke="#63b8ff" points="364.29,-23.12 372.9,-16.94 362.32,-16.41 364.29,-23.12"/>
</a>
</g>
</g>
<!-- Node11 -->
<g id="Node000011" class="node">
<title>Node11</title>
<g id="a_Node000011"><a xlink:title=" ">
<polygon fill="#e0e0e0" stroke="#999999" points="508.62,-19.25 434.12,-19.25 434.12,0 508.62,0 508.62,-19.25"/>
<text text-anchor="middle" x="471.38" y="-5.75" font-family="Helvetica,sans-Serif" font-size="10.00">TVirtualPad.h</text>
</a>
</g>
</g>
<!-- Node5&#45;&gt;Node11 -->
<g id="edge11_Node000005_Node000011" class="edge">
<title>Node5&#45;&gt;Node11</title>
<g id="a_edge11_Node000005_Node000011"><a xlink:title=" ">
<path fill="none" stroke="#63b8ff" d="M251.2,-56.25C296.45,-46.87 373.37,-30.93 423.26,-20.59"/>
<polygon fill="#63b8ff" stroke="#63b8ff" points="423.7,-23.87 432.79,-18.41 422.28,-17.02 423.7,-23.87"/>
</a>
</g>
</g>
</g>
</svg>
