<?xml version="1.0" encoding="UTF-8" standalone="no"?>
<!DOCTYPE svg PUBLIC "-//W3C//DTD SVG 1.1//EN"
 "http://www.w3.org/Graphics/SVG/1.1/DTD/svg11.dtd">
<!-- Generated by graphviz version 2.49.3 (20211023.0002)
 -->
<!-- Title: /Users/99j/git/gamma&#45;root/src/lib/sort/Sorter.hh Pages: 1 -->
<svg width="1451pt" height="195pt"
 viewBox="0.00 0.00 1451.46 195.00" xmlns="http://www.w3.org/2000/svg" xmlns:xlink="http://www.w3.org/1999/xlink">
<g id="graph0" class="graph" transform="scale(1 1) rotate(0) translate(4 191)">
<title>/Users/99j/git/gamma&#45;root/src/lib/sort/Sorter.hh</title>
<polygon fill="white" stroke="transparent" points="-4,4 -4,-191 1447.46,-191 1447.46,4 -4,4"/>
<!-- Node1 -->
<g id="node1" class="node">
<title>Node1</title>
<g id="a_node1"><a xlink:title=" ">
<polygon fill="#bfbfbf" stroke="black" points="580.96,-156.5 580.96,-186.5 709.96,-186.5 709.96,-156.5 580.96,-156.5"/>
<text text-anchor="start" x="588.96" y="-174.5" font-family="Helvetica,sans-Serif" font-size="10.00">/Users/99j/git/gamma</text>
<text text-anchor="middle" x="645.46" y="-163.5" font-family="Helvetica,sans-Serif" font-size="10.00">&#45;root/src/lib/sort/Sorter.hh</text>
</a>
</g>
</g>
<!-- Node2 -->
<g id="node2" class="node">
<title>Node2</title>
<g id="a_node2"><a xlink:href="../../d9/da5/gamrsort_8cc.html" target="_top" xlink:title=" ">
<polygon fill="white" stroke="black" points="514.46,-0.5 514.46,-41.5 626.46,-41.5 626.46,-0.5 514.46,-0.5"/>
<text text-anchor="start" x="522.46" y="-29.5" font-family="Helvetica,sans-Serif" font-size="10.00">/Users/99j/git/gamma</text>
<text text-anchor="start" x="522.46" y="-18.5" font-family="Helvetica,sans-Serif" font-size="10.00">&#45;root/src/bin/gamrsort</text>
<text text-anchor="middle" x="570.46" y="-7.5" font-family="Helvetica,sans-Serif" font-size="10.00">/gamrsort.cc</text>
</a>
</g>
</g>
<!-- Node1&#45;&gt;Node2 -->
<g id="edge1" class="edge">
<title>Node1&#45;&gt;Node2</title>
<path fill="none" stroke="midnightblue" d="M570.48,-170.12C410.44,-168.54 46.85,-160.48 9.46,-120 -3.21,-106.29 -3.07,-91.84 9.46,-78 42.91,-41.04 378.48,-27.44 514.07,-23.43"/>
<polygon fill="midnightblue" stroke="midnightblue" points="570.69,-173.63 580.72,-170.22 570.76,-166.63 570.69,-173.63"/>
</g>
<!-- Node3 -->
<g id="node3" class="node">
<title>Node3</title>
<g id="a_node3"><a xlink:href="../../d1/dec/_coincidence_cube_diff_8hh.html" target="_top" xlink:title=" ">
<polygon fill="white" stroke="black" points="18.96,-78.5 18.96,-119.5 161.96,-119.5 161.96,-78.5 18.96,-78.5"/>
<text text-anchor="start" x="26.96" y="-107.5" font-family="Helvetica,sans-Serif" font-size="10.00">/Users/99j/git/gamma</text>
<text text-anchor="start" x="26.96" y="-96.5" font-family="Helvetica,sans-Serif" font-size="10.00">&#45;root/src/lib/sort/Coincidence</text>
<text text-anchor="middle" x="90.46" y="-85.5" font-family="Helvetica,sans-Serif" font-size="10.00">CubeDiff.hh</text>
</a>
</g>
</g>
<!-- Node1&#45;&gt;Node3 -->
<g id="edge2" class="edge">
<title>Node1&#45;&gt;Node3</title>
<path fill="none" stroke="midnightblue" d="M570.65,-165.78C476.68,-159.1 310.75,-144.87 170.46,-120 167.78,-119.53 165.06,-119.01 162.31,-118.47"/>
<polygon fill="midnightblue" stroke="midnightblue" points="570.68,-169.29 580.9,-166.5 571.17,-162.3 570.68,-169.29"/>
</g>
<!-- Node4 -->
<g id="node4" class="node">
<title>Node4</title>
<g id="a_node4"><a xlink:href="../../d4/d50/_coincidence_matrix_8hh.html" target="_top" xlink:title=" ">
<polygon fill="white" stroke="black" points="179.96,-78.5 179.96,-119.5 322.96,-119.5 322.96,-78.5 179.96,-78.5"/>
<text text-anchor="start" x="187.96" y="-107.5" font-family="Helvetica,sans-Serif" font-size="10.00">/Users/99j/git/gamma</text>
<text text-anchor="start" x="187.96" y="-96.5" font-family="Helvetica,sans-Serif" font-size="10.00">&#45;root/src/lib/sort/Coincidence</text>
<text text-anchor="middle" x="251.46" y="-85.5" font-family="Helvetica,sans-Serif" font-size="10.00">Matrix.hh</text>
</a>
</g>
</g>
<!-- Node1&#45;&gt;Node4 -->
<g id="edge4" class="edge">
<title>Node1&#45;&gt;Node4</title>
<path fill="none" stroke="midnightblue" d="M570.84,-160.33C507.01,-151.2 412.83,-136.68 331.46,-120 328.79,-119.45 326.08,-118.88 323.35,-118.28"/>
<polygon fill="midnightblue" stroke="midnightblue" points="570.42,-163.81 580.82,-161.75 571.41,-156.88 570.42,-163.81"/>
</g>
<!-- Node5 -->
<g id="node5" class="node">
<title>Node5</title>
<g id="a_node5"><a xlink:href="../../db/dde/_coincidence_matrix_pair_8hh.html" target="_top" xlink:title=" ">
<polygon fill="white" stroke="black" points="340.96,-78.5 340.96,-119.5 483.96,-119.5 483.96,-78.5 340.96,-78.5"/>
<text text-anchor="start" x="348.96" y="-107.5" font-family="Helvetica,sans-Serif" font-size="10.00">/Users/99j/git/gamma</text>
<text text-anchor="start" x="348.96" y="-96.5" font-family="Helvetica,sans-Serif" font-size="10.00">&#45;root/src/lib/sort/Coincidence</text>
<text text-anchor="middle" x="412.46" y="-85.5" font-family="Helvetica,sans-Serif" font-size="10.00">MatrixPair.hh</text>
</a>
</g>
</g>
<!-- Node1&#45;&gt;Node5 -->
<g id="edge6" class="edge">
<title>Node1&#45;&gt;Node5</title>
<path fill="none" stroke="midnightblue" d="M589.43,-153.55C555.64,-143.32 512.46,-130.26 477.21,-119.59"/>
<polygon fill="midnightblue" stroke="midnightblue" points="588.56,-156.94 599.14,-156.49 590.59,-150.24 588.56,-156.94"/>
</g>
<!-- Node6 -->
<g id="node6" class="node">
<title>Node6</title>
<g id="a_node6"><a xlink:href="../../dc/d02/_gated_time_difference_8hh.html" target="_top" xlink:title=" ">
<polygon fill="white" stroke="black" points="501.96,-78.5 501.96,-119.5 638.96,-119.5 638.96,-78.5 501.96,-78.5"/>
<text text-anchor="start" x="509.96" y="-107.5" font-family="Helvetica,sans-Serif" font-size="10.00">/Users/99j/git/gamma</text>
<text text-anchor="start" x="509.96" y="-96.5" font-family="Helvetica,sans-Serif" font-size="10.00">&#45;root/src/lib/sort/GatedTime</text>
<text text-anchor="middle" x="570.46" y="-85.5" font-family="Helvetica,sans-Serif" font-size="10.00">Difference.hh</text>
</a>
</g>
</g>
<!-- Node1&#45;&gt;Node6 -->
<g id="edge8" class="edge">
<title>Node1&#45;&gt;Node6</title>
<path fill="none" stroke="midnightblue" d="M622.99,-149.38C612.93,-139.93 601.15,-128.85 591.29,-119.59"/>
<polygon fill="midnightblue" stroke="midnightblue" points="620.6,-151.93 630.28,-156.23 625.39,-146.83 620.6,-151.93"/>
</g>
<!-- Node7 -->
<g id="node7" class="node">
<title>Node7</title>
<g id="a_node7"><a xlink:href="../../db/d1b/_matrix_8hh.html" target="_top" xlink:title=" ">
<polygon fill="white" stroke="black" points="656.96,-84 656.96,-114 785.96,-114 785.96,-84 656.96,-84"/>
<text text-anchor="start" x="664.96" y="-102" font-family="Helvetica,sans-Serif" font-size="10.00">/Users/99j/git/gamma</text>
<text text-anchor="middle" x="721.46" y="-91" font-family="Helvetica,sans-Serif" font-size="10.00">&#45;root/src/lib/sort/Matrix.hh</text>
</a>
</g>
</g>
<!-- Node1&#45;&gt;Node7 -->
<g id="edge10" class="edge">
<title>Node1&#45;&gt;Node7</title>
<path fill="none" stroke="midnightblue" d="M668.48,-149.14C680.77,-137.74 695.54,-124.04 706.36,-114"/>
<polygon fill="midnightblue" stroke="midnightblue" points="665.79,-146.87 660.84,-156.23 670.55,-152 665.79,-146.87"/>
</g>
<!-- Node8 -->
<g id="node8" class="node">
<title>Node8</title>
<g id="a_node8"><a xlink:href="../../d0/d63/_sorter_8cc.html" target="_top" xlink:title=" ">
<polygon fill="white" stroke="black" points="804.46,-84 804.46,-114 932.46,-114 932.46,-84 804.46,-84"/>
<text text-anchor="start" x="812.46" y="-102" font-family="Helvetica,sans-Serif" font-size="10.00">/Users/99j/git/gamma</text>
<text text-anchor="middle" x="868.46" y="-91" font-family="Helvetica,sans-Serif" font-size="10.00">&#45;root/src/lib/sort/Sorter.cc</text>
</a>
</g>
</g>
<!-- Node1&#45;&gt;Node8 -->
<g id="edge12" class="edge">
<title>Node1&#45;&gt;Node8</title>
<path fill="none" stroke="midnightblue" d="M699.68,-153.36C737.76,-141.32 788.07,-125.41 823.83,-114.11"/>
<polygon fill="midnightblue" stroke="midnightblue" points="698.26,-150.14 689.78,-156.49 700.37,-156.81 698.26,-150.14"/>
</g>
<!-- Node9 -->
<g id="node9" class="node">
<title>Node9</title>
<g id="a_node9"><a xlink:href="../../d7/d98/_time_difference_8hh.html" target="_top" xlink:title=" ">
<polygon fill="white" stroke="black" points="950.96,-84 950.96,-114 1119.96,-114 1119.96,-84 950.96,-84"/>
<text text-anchor="start" x="958.96" y="-102" font-family="Helvetica,sans-Serif" font-size="10.00">/Users/99j/git/gamma</text>
<text text-anchor="middle" x="1035.46" y="-91" font-family="Helvetica,sans-Serif" font-size="10.00">&#45;root/src/lib/sort/TimeDifference.hh</text>
</a>
</g>
</g>
<!-- Node1&#45;&gt;Node9 -->
<g id="edge13" class="edge">
<title>Node1&#45;&gt;Node9</title>
<path fill="none" stroke="midnightblue" d="M720.11,-158.63C780.05,-148.88 866.31,-134.4 941.46,-120 951.12,-118.15 961.33,-116.09 971.31,-114.01"/>
<polygon fill="midnightblue" stroke="midnightblue" points="719.28,-155.21 709.97,-160.27 720.4,-162.12 719.28,-155.21"/>
</g>
<!-- Node10 -->
<g id="node10" class="node">
<title>Node10</title>
<g id="a_node10"><a xlink:href="../../de/d1d/_time_difference_pairs_8hh.html" target="_top" xlink:title=" ">
<polygon fill="white" stroke="black" points="1137.96,-78.5 1137.96,-119.5 1292.96,-119.5 1292.96,-78.5 1137.96,-78.5"/>
<text text-anchor="start" x="1145.96" y="-107.5" font-family="Helvetica,sans-Serif" font-size="10.00">/Users/99j/git/gamma</text>
<text text-anchor="start" x="1145.96" y="-96.5" font-family="Helvetica,sans-Serif" font-size="10.00">&#45;root/src/lib/sort/TimeDifference</text>
<text text-anchor="middle" x="1215.46" y="-85.5" font-family="Helvetica,sans-Serif" font-size="10.00">Pairs.hh</text>
</a>
</g>
</g>
<!-- Node1&#45;&gt;Node10 -->
<g id="edge15" class="edge">
<title>Node1&#45;&gt;Node10</title>
<path fill="none" stroke="midnightblue" d="M720.13,-165.61C815.53,-158.69 985.56,-144.14 1129.46,-120 1132.18,-119.54 1134.94,-119.05 1137.73,-118.53"/>
<polygon fill="midnightblue" stroke="midnightblue" points="719.72,-162.13 710,-166.33 720.22,-169.11 719.72,-162.13"/>
</g>
<!-- Node11 -->
<g id="node11" class="node">
<title>Node11</title>
<g id="a_node11"><a xlink:href="../../dd/d62/_time_walk_cal_8hh.html" target="_top" xlink:title=" ">
<polygon fill="white" stroke="black" points="1311.46,-78.5 1311.46,-119.5 1443.46,-119.5 1443.46,-78.5 1311.46,-78.5"/>
<text text-anchor="start" x="1319.46" y="-107.5" font-family="Helvetica,sans-Serif" font-size="10.00">/Users/99j/git/gamma</text>
<text text-anchor="start" x="1319.46" y="-96.5" font-family="Helvetica,sans-Serif" font-size="10.00">&#45;root/src/lib/sort/TimeWalk</text>
<text text-anchor="middle" x="1377.46" y="-85.5" font-family="Helvetica,sans-Serif" font-size="10.00">Cal.hh</text>
</a>
</g>
</g>
<!-- Node1&#45;&gt;Node11 -->
<g id="edge17" class="edge">
<title>Node1&#45;&gt;Node11</title>
<path fill="none" stroke="midnightblue" d="M720.31,-169.21C842.84,-166.11 1093.49,-155.58 1302.46,-120 1305.38,-119.5 1308.35,-118.94 1311.35,-118.33"/>
<polygon fill="midnightblue" stroke="midnightblue" points="720.2,-165.72 710.28,-169.46 720.37,-172.71 720.2,-165.72"/>
</g>
<!-- Node3&#45;&gt;Node2 -->
<g id="edge3" class="edge">
<title>Node3&#45;&gt;Node2</title>
<path fill="none" stroke="midnightblue" d="M172.25,-77.74C299.4,-53.45 438.43,-36.44 514.17,-27.98"/>
<polygon fill="midnightblue" stroke="midnightblue" points="171.49,-74.32 162.33,-79.65 172.82,-81.19 171.49,-74.32"/>
</g>
<!-- Node4&#45;&gt;Node2 -->
<g id="edge5" class="edge">
<title>Node4&#45;&gt;Node2</title>
<path fill="none" stroke="midnightblue" d="M332.96,-77.65C400.69,-61.3 468.19,-45.57 514.38,-34.89"/>
<polygon fill="midnightblue" stroke="midnightblue" points="331.87,-74.31 322.97,-80.07 333.52,-81.12 331.87,-74.31"/>
</g>
<!-- Node5&#45;&gt;Node2 -->
<g id="edge7" class="edge">
<title>Node5&#45;&gt;Node2</title>
<path fill="none" stroke="midnightblue" d="M462.25,-74.05C484.04,-63.57 509.28,-51.42 529.9,-41.51"/>
<polygon fill="midnightblue" stroke="midnightblue" points="460.64,-70.94 453.14,-78.43 463.67,-77.25 460.64,-70.94"/>
</g>
<!-- Node6&#45;&gt;Node2 -->
<g id="edge9" class="edge">
<title>Node6&#45;&gt;Node2</title>
<path fill="none" stroke="midnightblue" d="M570.46,-68.3C570.46,-59.3 570.46,-49.65 570.46,-41.51"/>
<polygon fill="midnightblue" stroke="midnightblue" points="566.96,-68.43 570.46,-78.43 573.96,-68.43 566.96,-68.43"/>
</g>
<!-- Node7&#45;&gt;Node2 -->
<g id="edge11" class="edge">
<title>Node7&#45;&gt;Node2</title>
<path fill="none" stroke="midnightblue" d="M684.4,-79.35C661.65,-67.9 632.55,-53.25 609.45,-41.63"/>
<polygon fill="midnightblue" stroke="midnightblue" points="682.9,-82.51 693.41,-83.88 686.05,-76.26 682.9,-82.51"/>
</g>
<!-- Node9&#45;&gt;Node2 -->
<g id="edge14" class="edge">
<title>Node9&#45;&gt;Node2</title>
<path fill="none" stroke="midnightblue" d="M961.98,-81.93C955.05,-80.54 948.13,-79.21 941.46,-78 830.26,-57.8 699.38,-39.26 626.57,-29.4"/>
<polygon fill="midnightblue" stroke="midnightblue" points="961.6,-85.42 972.1,-83.98 963,-78.56 961.6,-85.42"/>
</g>
<!-- Node10&#45;&gt;Node2 -->
<g id="edge16" class="edge">
<title>Node10&#45;&gt;Node2</title>
<path fill="none" stroke="midnightblue" d="M1127.64,-77.79C939.21,-47.19 726.07,-31.47 626.71,-25.23"/>
<polygon fill="midnightblue" stroke="midnightblue" points="1127.3,-81.28 1137.73,-79.45 1128.43,-74.38 1127.3,-81.28"/>
</g>
<!-- Node11&#45;&gt;Node2 -->
<g id="edge18" class="edge">
<title>Node11&#45;&gt;Node2</title>
<path fill="none" stroke="midnightblue" d="M1301.11,-77.94C1045.09,-35.31 748.69,-25.24 626.91,-22.79"/>
<polygon fill="midnightblue" stroke="midnightblue" points="1300.91,-81.45 1311.35,-79.66 1302.07,-74.55 1300.91,-81.45"/>
</g>
</g>
</svg>
