<?xml version="1.0" encoding="UTF-8" standalone="no"?>
<!DOCTYPE svg PUBLIC "-//W3C//DTD SVG 1.1//EN"
 "http://www.w3.org/Graphics/SVG/1.1/DTD/svg11.dtd">
<!-- Generated by graphviz version 8.1.0 (20230707.0739)
 -->
<!-- Title: GamR::Efficiency::MultiDataSet::GetDataSets Pages: 1 -->
<svg width="304pt" height="57pt"
 viewBox="0.00 0.00 304.00 56.50" xmlns="http://www.w3.org/2000/svg" xmlns:xlink="http://www.w3.org/1999/xlink">
<g id="graph0" class="graph" transform="scale(1 1) rotate(0) translate(4 52.5)">
<title>GamR::Efficiency::MultiDataSet::GetDataSets</title>
<!-- Node1 -->
<g id="Node000001" class="node">
<title>Node1</title>
<g id="a_Node000001"><a xlink:title=" ">
<polygon fill="#999999" stroke="#666666" points="296,-30.5 161.5,-30.5 161.5,0 296,0 296,-30.5"/>
<text text-anchor="start" x="169.5" y="-17" font-family="Helvetica,sans-Serif" font-size="10.00">GamR::Efficiency::MultiData</text>
<text text-anchor="middle" x="228.75" y="-5.75" font-family="Helvetica,sans-Serif" font-size="10.00">Set::GetDataSets</text>
</a>
</g>
</g>
<!-- Node2 -->
<g id="Node000002" class="node">
<title>Node2</title>
<g id="a_Node000002"><a xlink:href="../../df/dea/class_gam_r_1_1_efficiency_1_1_multi_eff_fit.html#a5f681061967984aca7315871f9bdea66" target="_top" xlink:title=" ">
<polygon fill="white" stroke="#666666" points="125.5,-30.5 0,-30.5 0,0 125.5,0 125.5,-30.5"/>
<text text-anchor="start" x="8" y="-17" font-family="Helvetica,sans-Serif" font-size="10.00">GamR::Efficiency::MultiEff</text>
<text text-anchor="middle" x="62.75" y="-5.75" font-family="Helvetica,sans-Serif" font-size="10.00">Fit::AddData</text>
</a>
</g>
</g>
<!-- Node1&#45;&gt;Node2 -->
<g id="edge1_Node000001_Node000002" class="edge">
<title>Node1&#45;&gt;Node2</title>
<g id="a_edge1_Node000001_Node000002"><a xlink:title=" ">
<path fill="none" stroke="#63b8ff" d="M150.06,-15.25C141.96,-15.25 133.8,-15.25 125.9,-15.25"/>
<polygon fill="#63b8ff" stroke="#63b8ff" points="150.04,-18.75 160.04,-15.25 150.04,-11.75 150.04,-18.75"/>
</a>
</g>
</g>
<!-- Node2&#45;&gt;Node2 -->
<g id="edge2_Node000002_Node000002" class="edge">
<title>Node2&#45;&gt;Node2</title>
<g id="a_edge2_Node000002_Node000002"><a xlink:title=" ">
<path fill="none" stroke="#63b8ff" d="M90.97,-41.88C86.56,-45.83 77.16,-48.5 62.75,-48.5 37.14,-48.5 27.33,-40.06 33.33,-30.99"/>
<polygon fill="#63b8ff" stroke="#63b8ff" points="94.55,-42.31 92.17,-31.99 87.59,-41.54 94.55,-42.31"/>
</a>
</g>
</g>
</g>
</svg>
