<?xml version="1.0" encoding="UTF-8" standalone="no"?>
<!DOCTYPE svg PUBLIC "-//W3C//DTD SVG 1.1//EN"
 "http://www.w3.org/Graphics/SVG/1.1/DTD/svg11.dtd">
<!-- Generated by graphviz version 12.2.1 (20241206.2353)
 -->
<!-- Title: GamR::Tree::TExpDefn&lt; ADefns &gt;::FillDetDefns Pages: 1 -->
<!--zoomable 728 -->

<svg id="main" version="1.1" xmlns="http://www.w3.org/2000/svg" xmlns:xlink="http://www.w3.org/1999/xlink" xml:space="preserve" onload="init(evt)">

<style type="text/css"><![CDATA[
.node, .edge {opacity: 0.7;}
.node.selected, .edge.selected {opacity: 1;}
.edge:hover path { stroke: red; }
.edge:hover polygon { stroke: red; fill: red; }
]]></style>

<defs>
  <circle id="rim" cx="0" cy="0" r="7"/>
  <circle id="rim2" cx="0" cy="0" r="3.5"/>
  <g id="zoomPlus">
    <use xlink:href="#rim" fill="#404040"><set attributeName="fill" to="#808080" begin="zoomplus.mouseover" end="zoomplus.mouseout"/></use>
    <path d="M-4,0h8M0,-4v8" fill="none" stroke="white" stroke-width="1.5" pointer-events="none"/>
  </g>
  <g id="zoomMin">
    <use xlink:href="#rim" fill="#404040"><set attributeName="fill" to="#808080" begin="zoomminus.mouseover" end="zoomminus.mouseout"/></use>
    <path d="M-4,0h8" fill="none" stroke="white" stroke-width="1.5" pointer-events="none"/>
  </g>
  <g id="arrowUp" transform="translate(30 24)">
    <use xlink:href="#rim"/>
    <path pointer-events="none" fill="none" stroke="white" stroke-width="1.5" d="M0,-3.0v7 M-2.5,-0.5L0,-3.0L2.5,-0.5"/>
  </g>
  <g id="arrowRight" transform="rotate(90) translate(36 -43)">
    <use xlink:href="#rim"/>
    <path pointer-events="none" fill="none" stroke="white" stroke-width="1.5" d="M0,-3.0v7 M-2.5,-0.5L0,-3.0L2.5,-0.5"/>
  </g>
  <g id="arrowDown" transform="rotate(180) translate(-30 -48)">
    <use xlink:href="#rim"/>
    <path pointer-events="none" fill="none" stroke="white" stroke-width="1.5" d="M0,-3.0v7 M-2.5,-0.5L0,-3.0L2.5,-0.5"/>
  </g>
  <g id="arrowLeft" transform="rotate(270) translate(-36 17)">
    <use xlink:href="#rim"/>
    <path pointer-events="none" fill="none" stroke="white" stroke-width="1.5" d="M0,-3.0v7 M-2.5,-0.5L0,-3.0L2.5,-0.5"/>
  </g>
  <g id="resetDef">
    <use xlink:href="#rim2" fill="#404040"><set attributeName="fill" to="#808080" begin="reset.mouseover" end="reset.mouseout"/></use>
  </g>
</defs>
<script type="application/ecmascript">
var viewWidth = 365;
var viewHeight = 728;
var sectionId = 'dynsection-0';
</script>
<script type="application/ecmascript" xlink:href="../../svg.min.js"/>
<svg id="graph" class="graph">
<g id="viewport">
<title>GamR::Tree::TExpDefn&lt; ADefns &gt;::FillDetDefns</title>
<!-- Node1 -->
<g id="Node000001" class="node">
<title>Node1</title>
<g id="a_Node000001"><a xlink:title=" ">
<polygon fill="#999999" stroke="none" points="210.5,-76.25 96,-76.25 96,0 210.5,0 210.5,-76.25"/>
<text text-anchor="start" x="100" y="-62.75" font-family="Helvetica,sans-Serif" font-size="10.00">GamR::Tree::TExpDefn</text>
<text text-anchor="start" x="100" y="-51.5" font-family="Helvetica,sans-Serif" font-size="10.00">&lt; ADefns &gt;::FillDetDefns</text>
<text text-anchor="start" x="109.31" y="-36.25" font-family="Helvetica,sans-Serif" font-size="10.00">+</text>
<text text-anchor="start" x="128.62" y="-36.25" font-family="Helvetica,sans-Serif" font-size="10.00">idxDetGroup</text>
<text text-anchor="start" x="109.31" y="-21" font-family="Helvetica,sans-Serif" font-size="10.00">+</text>
<text text-anchor="start" x="128.62" y="-21" font-family="Helvetica,sans-Serif" font-size="10.00">FillDetDefns()</text>
<text text-anchor="start" x="109.31" y="-5.75" font-family="Helvetica,sans-Serif" font-size="10.00">+</text>
<text text-anchor="start" x="128.62" y="-5.75" font-family="Helvetica,sans-Serif" font-size="10.00">operator()()</text>
<polygon fill="#666666" stroke="#666666" points="96,-47.75 96,-47.75 210.5,-47.75 210.5,-47.75 96,-47.75"/>
<polygon fill="#666666" stroke="#666666" points="96,-32.5 96,-32.5 126.62,-32.5 126.62,-32.5 96,-32.5"/>
<polygon fill="#666666" stroke="#666666" points="126.62,-32.5 126.62,-32.5 210.5,-32.5 210.5,-32.5 126.62,-32.5"/>
<polygon fill="none" stroke="#666666" points="96,0 96,-76.25 210.5,-76.25 210.5,0 96,0"/>
</a>
</g>
</g>
<!-- Node2 -->
<g id="Node000002" class="node">
<title>Node2</title>
<g id="a_Node000002"><a xlink:href="../../d1/d1e/class_gam_r_1_1_tree_1_1_t_exp_defn.html" target="_top" xlink:title=" ">
<polygon fill="white" stroke="none" points="206.38,-388.75 100.12,-388.75 100.12,-129.5 206.38,-129.5 206.38,-388.75"/>
<text text-anchor="start" x="104.12" y="-375.25" font-family="Helvetica,sans-Serif" font-size="10.00">GamR::Tree::TExpDefn</text>
<text text-anchor="start" x="128.88" y="-364" font-family="Helvetica,sans-Serif" font-size="10.00">&lt; ADefns &gt;</text>
<text text-anchor="start" x="107.81" y="-348.75" font-family="Helvetica,sans-Serif" font-size="10.00">+</text>
<text text-anchor="start" x="121.5" y="-348.75" font-family="Helvetica,sans-Serif" font-size="10.00">fOutFile</text>
<text text-anchor="start" x="107.81" y="-333.5" font-family="Helvetica,sans-Serif" font-size="10.00">+</text>
<text text-anchor="start" x="121.5" y="-333.5" font-family="Helvetica,sans-Serif" font-size="10.00">fRawChain</text>
<text text-anchor="start" x="107.81" y="-318.25" font-family="Helvetica,sans-Serif" font-size="10.00">+</text>
<text text-anchor="start" x="121.5" y="-318.25" font-family="Helvetica,sans-Serif" font-size="10.00">fOutTree</text>
<text text-anchor="start" x="107.81" y="-303" font-family="Helvetica,sans-Serif" font-size="10.00">+</text>
<text text-anchor="start" x="121.5" y="-303" font-family="Helvetica,sans-Serif" font-size="10.00">fDetDefns</text>
<text text-anchor="start" x="107.81" y="-287.75" font-family="Helvetica,sans-Serif" font-size="10.00">+</text>
<text text-anchor="start" x="121.5" y="-287.75" font-family="Helvetica,sans-Serif" font-size="10.00">fINIReader</text>
<text text-anchor="start" x="107.81" y="-272.5" font-family="Helvetica,sans-Serif" font-size="10.00">+</text>
<text text-anchor="start" x="121.5" y="-272.5" font-family="Helvetica,sans-Serif" font-size="10.00">TExpDefn()</text>
<text text-anchor="start" x="107.81" y="-257.25" font-family="Helvetica,sans-Serif" font-size="10.00">+</text>
<text text-anchor="start" x="121.5" y="-257.25" font-family="Helvetica,sans-Serif" font-size="10.00">~TExpDefn()</text>
<text text-anchor="start" x="107.81" y="-242" font-family="Helvetica,sans-Serif" font-size="10.00">+</text>
<text text-anchor="start" x="121.5" y="-242" font-family="Helvetica,sans-Serif" font-size="10.00">GetDetDefns()</text>
<text text-anchor="start" x="107.81" y="-226.75" font-family="Helvetica,sans-Serif" font-size="10.00">+</text>
<text text-anchor="start" x="121.5" y="-226.75" font-family="Helvetica,sans-Serif" font-size="10.00">GetAllDetDefns()</text>
<text text-anchor="start" x="107.81" y="-211.5" font-family="Helvetica,sans-Serif" font-size="10.00">+</text>
<text text-anchor="start" x="121.5" y="-211.5" font-family="Helvetica,sans-Serif" font-size="10.00">CloseFiles()</text>
<text text-anchor="start" x="107.81" y="-196.25" font-family="Helvetica,sans-Serif" font-size="10.00">+</text>
<text text-anchor="start" x="121.5" y="-196.25" font-family="Helvetica,sans-Serif" font-size="10.00">Load()</text>
<text text-anchor="start" x="107.81" y="-181" font-family="Helvetica,sans-Serif" font-size="10.00">+</text>
<text text-anchor="start" x="121.5" y="-181" font-family="Helvetica,sans-Serif" font-size="10.00">LoadRaw()</text>
<text text-anchor="start" x="107.81" y="-165.75" font-family="Helvetica,sans-Serif" font-size="10.00">+</text>
<text text-anchor="start" x="121.5" y="-165.75" font-family="Helvetica,sans-Serif" font-size="10.00">ResetBranches()</text>
<text text-anchor="start" x="107.81" y="-150.5" font-family="Helvetica,sans-Serif" font-size="10.00">+</text>
<text text-anchor="start" x="121.5" y="-150.5" font-family="Helvetica,sans-Serif" font-size="10.00">Convert()</text>
<text text-anchor="start" x="107.81" y="-135.25" font-family="Helvetica,sans-Serif" font-size="10.00">+</text>
<text text-anchor="start" x="121.5" y="-135.25" font-family="Helvetica,sans-Serif" font-size="10.00">ClassDef()</text>
<polygon fill="#666666" stroke="#666666" points="100.12,-360.25 100.12,-360.25 206.38,-360.25 206.38,-360.25 100.12,-360.25"/>
<polygon fill="#666666" stroke="#666666" points="100.12,-284 100.12,-284 119.5,-284 119.5,-284 100.12,-284"/>
<polygon fill="#666666" stroke="#666666" points="119.5,-284 119.5,-284 206.38,-284 206.38,-284 119.5,-284"/>
<polygon fill="none" stroke="#666666" points="100.12,-129.5 100.12,-388.75 206.38,-388.75 206.38,-129.5 100.12,-129.5"/>
</a>
</g>
</g>
<!-- Node2&#45;&gt;Node1 -->
<g id="edge1_Node000001_Node000002" class="edge">
<title>Node2&#45;&gt;Node1</title>
<g id="a_edge1_Node000001_Node000002"><a xlink:title=" ">
<path fill="none" stroke="#63b8ff" d="M153.25,-129.78C153.25,-115.38 153.25,-101.44 153.25,-88.97"/>
<polygon fill="none" stroke="#63b8ff" points="153.25,-88.98 149.25,-82.98 153.25,-76.98 157.25,-82.98 153.25,-88.98"/>
</a>
</g>
<text text-anchor="start" x="156.25" y="-99" font-family="Helvetica,sans-Serif" font-size="10.00" fill="grey">+p</text>
</g>
<!-- Node3 -->
<g id="Node000003" class="node">
<title>Node3</title>
<g id="a_Node000003"><a xlink:title=" ">
<polygon fill="white" stroke="none" points="42.5,-497.38 0,-497.38 0,-447.62 42.5,-447.62 42.5,-497.38"/>
<text text-anchor="start" x="4" y="-483.88" font-family="Helvetica,sans-Serif" font-size="10.00">TObject</text>
<text text-anchor="start" x="19.75" y="-468.62" font-family="Helvetica,sans-Serif" font-size="10.00"> </text>
<text text-anchor="start" x="19.75" y="-453.38" font-family="Helvetica,sans-Serif" font-size="10.00"> </text>
<polygon fill="#666666" stroke="#666666" points="0,-480.12 0,-480.12 42.5,-480.12 42.5,-480.12 0,-480.12"/>
<polygon fill="#666666" stroke="#666666" points="0,-464.88 0,-464.88 42.5,-464.88 42.5,-464.88 0,-464.88"/>
<polygon fill="none" stroke="#666666" points="0,-447.62 0,-497.38 42.5,-497.38 42.5,-447.62 0,-447.62"/>
</a>
</g>
</g>
<!-- Node3&#45;&gt;Node2 -->
<g id="edge2_Node000002_Node000003" class="edge">
<title>Node3&#45;&gt;Node2</title>
<g id="a_edge2_Node000002_Node000003"><a xlink:title=" ">
<path fill="none" stroke="#63b8ff" d="M42.2,-437.95C57.82,-412.94 79.87,-377.62 100.22,-345.05"/>
<polygon fill="none" stroke="#63b8ff" points="39.27,-436.04 36.94,-446.38 45.2,-439.75 39.27,-436.04"/>
</a>
</g>
</g>
<!-- Node4 -->
<g id="Node000004" class="node">
<title>Node4</title>
<g id="a_Node000004"><a xlink:title=" ">
<polygon fill="white" stroke="none" points="158.25,-503 60.25,-503 60.25,-442 158.25,-442 158.25,-503"/>
<text text-anchor="start" x="64.25" y="-489.5" font-family="Helvetica,sans-Serif" font-size="10.00">std::map&lt; std::string,</text>
<text text-anchor="start" x="92" y="-478.25" font-family="Helvetica,sans-Serif" font-size="10.00"> void * &gt;</text>
<text text-anchor="start" x="74.31" y="-463" font-family="Helvetica,sans-Serif" font-size="10.00">+</text>
<text text-anchor="start" x="94.38" y="-463" font-family="Helvetica,sans-Serif" font-size="10.00">elements</text>
<text text-anchor="start" x="107.75" y="-447.75" font-family="Helvetica,sans-Serif" font-size="10.00"> </text>
<polygon fill="#666666" stroke="#666666" points="60.25,-474.5 60.25,-474.5 158.25,-474.5 158.25,-474.5 60.25,-474.5"/>
<polygon fill="#666666" stroke="#666666" points="60.25,-459.25 60.25,-459.25 92.38,-459.25 92.38,-459.25 60.25,-459.25"/>
<polygon fill="#666666" stroke="#666666" points="92.38,-459.25 92.38,-459.25 158.25,-459.25 158.25,-459.25 92.38,-459.25"/>
<polygon fill="none" stroke="#666666" points="60.25,-442 60.25,-503 158.25,-503 158.25,-442 60.25,-442"/>
</a>
</g>
</g>
<!-- Node4&#45;&gt;Node2 -->
<g id="edge3_Node000002_Node000004" class="edge">
<title>Node4&#45;&gt;Node2</title>
<g id="a_edge3_Node000002_Node000004"><a xlink:title=" ">
<path fill="none" stroke="#63b8ff" d="M111.27,-442.04C112.27,-430.93 113.72,-418.21 115.75,-406.75 116.06,-404.98 116.39,-403.21 116.72,-401.42"/>
<polygon fill="none" stroke="#63b8ff" points="116.74,-401.28 113.97,-394.63 119.05,-389.51 121.82,-396.16 116.74,-401.28"/>
</a>
</g>
<text text-anchor="start" x="118.75" y="-411.5" font-family="Helvetica,sans-Serif" font-size="10.00" fill="grey">+fBranchMap</text>
</g>
<!-- Node5 -->
<g id="Node000005" class="node">
<title>Node5</title>
<g id="a_Node000005"><a xlink:title=" ">
<polygon fill="white" stroke="none" points="219.25,-606 169.25,-606 169.25,-556.25 219.25,-556.25 219.25,-606"/>
<text text-anchor="start" x="173.25" y="-592.5" font-family="Helvetica,sans-Serif" font-size="10.00">std::string</text>
<text text-anchor="start" x="192.75" y="-577.25" font-family="Helvetica,sans-Serif" font-size="10.00"> </text>
<text text-anchor="start" x="192.75" y="-562" font-family="Helvetica,sans-Serif" font-size="10.00"> </text>
<polygon fill="#666666" stroke="#666666" points="169.25,-588.75 169.25,-588.75 219.25,-588.75 219.25,-588.75 169.25,-588.75"/>
<polygon fill="#666666" stroke="#666666" points="169.25,-573.5 169.25,-573.5 219.25,-573.5 219.25,-573.5 169.25,-573.5"/>
<polygon fill="none" stroke="#666666" points="169.25,-556.25 169.25,-606 219.25,-606 219.25,-556.25 169.25,-556.25"/>
</a>
</g>
</g>
<!-- Node5&#45;&gt;Node2 -->
<g id="edge13_Node000002_Node000005" class="edge">
<title>Node5&#45;&gt;Node2</title>
<g id="a_edge13_Node000002_Node000005"><a xlink:title=" ">
<path fill="none" stroke="#63b8ff" d="M193.1,-556.49C191.31,-523.04 187.29,-460.04 180.25,-406.75 180.02,-405 179.78,-403.23 179.54,-401.46"/>
<polygon fill="none" stroke="#63b8ff" points="179.54,-401.51 174.73,-396.15 177.83,-389.64 182.64,-395 179.54,-401.51"/>
</a>
</g>
<text text-anchor="start" x="192.55" y="-468.62" font-family="Helvetica,sans-Serif" font-size="10.00" fill="grey">+fINI</text>
</g>
<!-- Node5&#45;&gt;Node4 -->
<g id="edge4_Node000004_Node000005" class="edge">
<title>Node5&#45;&gt;Node4</title>
<g id="a_edge4_Node000004_Node000005"><a xlink:title=" ">
<path fill="none" stroke="#63b8ff" d="M169.41,-560.07C162.07,-553.53 154.32,-545.95 148,-538.25 141.89,-530.8 136.09,-522.28 130.93,-513.93"/>
<polygon fill="none" stroke="#63b8ff" points="130.88,-513.86 124.39,-510.73 124.77,-503.53 131.27,-506.66 130.88,-513.86"/>
</a>
</g>
<text text-anchor="start" x="151" y="-525.75" font-family="Helvetica,sans-Serif" font-size="10.00" fill="grey">+keys</text>
</g>
<!-- Node10 -->
<g id="Node000010" class="node">
<title>Node10</title>
<g id="a_Node000010"><a xlink:title=" ">
<polygon fill="white" stroke="none" points="352,-497.38 240.5,-497.38 240.5,-447.62 352,-447.62 352,-497.38"/>
<text text-anchor="start" x="244.5" y="-483.88" font-family="Helvetica,sans-Serif" font-size="10.00">std::vector&lt; std::string &gt;</text>
<text text-anchor="start" x="294.75" y="-468.62" font-family="Helvetica,sans-Serif" font-size="10.00"> </text>
<text text-anchor="start" x="294.75" y="-453.38" font-family="Helvetica,sans-Serif" font-size="10.00"> </text>
<polygon fill="#666666" stroke="#666666" points="240.5,-480.12 240.5,-480.12 352,-480.12 352,-480.12 240.5,-480.12"/>
<polygon fill="#666666" stroke="#666666" points="240.5,-464.88 240.5,-464.88 352,-464.88 352,-464.88 240.5,-464.88"/>
<polygon fill="none" stroke="#666666" points="240.5,-447.62 240.5,-497.38 352,-497.38 352,-447.62 240.5,-447.62"/>
</a>
</g>
</g>
<!-- Node5&#45;&gt;Node10 -->
<g id="edge10_Node000010_Node000005" class="edge">
<title>Node5&#45;&gt;Node10</title>
<g id="a_edge10_Node000010_Node000005"><a xlink:title=" ">
<path fill="none" stroke="#63b8ff" d="M208.43,-556.45C215.79,-545.12 225.34,-531.72 235.5,-521 240.63,-515.58 246.41,-510.27 252.3,-505.28"/>
<polygon fill="none" stroke="#63b8ff" points="252.23,-505.34 254.37,-498.45 261.55,-497.78 259.41,-504.67 252.23,-505.34"/>
</a>
</g>
<text text-anchor="start" x="238.5" y="-525.75" font-family="Helvetica,sans-Serif" font-size="10.00" fill="grey">+elements</text>
</g>
<!-- Node6 -->
<g id="Node000006" class="node">
<title>Node6</title>
<g id="a_Node000006"><a xlink:title=" ">
<polygon fill="white" stroke="none" points="236.5,-720.25 152,-720.25 152,-659.25 236.5,-659.25 236.5,-720.25"/>
<text text-anchor="start" x="156" y="-706.75" font-family="Helvetica,sans-Serif" font-size="10.00">std::basic_string&lt;</text>
<text text-anchor="start" x="178.88" y="-695.5" font-family="Helvetica,sans-Serif" font-size="10.00"> Char &gt;</text>
<text text-anchor="start" x="192.75" y="-680.25" font-family="Helvetica,sans-Serif" font-size="10.00"> </text>
<text text-anchor="start" x="192.75" y="-665" font-family="Helvetica,sans-Serif" font-size="10.00"> </text>
<polygon fill="#666666" stroke="#666666" points="152,-691.75 152,-691.75 236.5,-691.75 236.5,-691.75 152,-691.75"/>
<polygon fill="#666666" stroke="#666666" points="152,-676.5 152,-676.5 236.5,-676.5 236.5,-676.5 152,-676.5"/>
<polygon fill="none" stroke="#666666" points="152,-659.25 152,-720.25 236.5,-720.25 236.5,-659.25 152,-659.25"/>
</a>
</g>
</g>
<!-- Node6&#45;&gt;Node5 -->
<g id="edge5_Node000005_Node000006" class="edge">
<title>Node6&#45;&gt;Node5</title>
<g id="a_edge5_Node000005_Node000006"><a xlink:title=" ">
<path fill="none" stroke="#63b8ff" d="M194.25,-648.19C194.25,-633.84 194.25,-618.18 194.25,-605.72"/>
<polygon fill="none" stroke="#63b8ff" points="190.75,-647.82 194.25,-657.82 197.75,-647.82 190.75,-647.82"/>
</a>
</g>
</g>
<!-- Node7 -->
<g id="Node000007" class="node">
<title>Node7</title>
<g id="a_Node000007"><a xlink:title=" ">
<polygon fill="white" stroke="none" points="80.88,-606 1.62,-606 1.62,-556.25 80.88,-556.25 80.88,-606"/>
<text text-anchor="start" x="5.62" y="-592.5" font-family="Helvetica,sans-Serif" font-size="10.00">std::map&lt; K, T &gt;</text>
<text text-anchor="start" x="39.75" y="-577.25" font-family="Helvetica,sans-Serif" font-size="10.00"> </text>
<text text-anchor="start" x="39.75" y="-562" font-family="Helvetica,sans-Serif" font-size="10.00"> </text>
<polygon fill="#666666" stroke="#666666" points="1.62,-588.75 1.62,-588.75 80.88,-588.75 80.88,-588.75 1.62,-588.75"/>
<polygon fill="#666666" stroke="#666666" points="1.62,-573.5 1.62,-573.5 80.88,-573.5 80.88,-573.5 1.62,-573.5"/>
<polygon fill="none" stroke="#666666" points="1.62,-556.25 1.62,-606 80.88,-606 80.88,-556.25 1.62,-556.25"/>
</a>
</g>
</g>
<!-- Node7&#45;&gt;Node4 -->
<g id="edge6_Node000004_Node000007" class="edge">
<title>Node7&#45;&gt;Node4</title>
<g id="a_edge6_Node000004_Node000007"><a xlink:title=" ">
<path fill="none" stroke="orange" d="M28.04,-545.35C26.84,-536.99 27.37,-528.36 31.5,-521 35.21,-514.38 47.08,-506.04 60.45,-498.21"/>
<polygon fill="orange" stroke="orange" points="24.59,-545.99 30.23,-554.96 31.42,-544.44 24.59,-545.99"/>
</a>
</g>
<text text-anchor="start" x="34.5" y="-525.75" font-family="Helvetica,sans-Serif" font-size="10.00" fill="grey">&lt; std::string, void * &gt;</text>
</g>
<!-- Node8 -->
<g id="Node000008" class="node">
<title>Node8</title>
<g id="a_Node000008"><a xlink:title=" ">
<polygon fill="white" stroke="none" points="48.62,-714.62 33.88,-714.62 33.88,-664.88 48.62,-664.88 48.62,-714.62"/>
<text text-anchor="start" x="37.88" y="-701.12" font-family="Helvetica,sans-Serif" font-size="10.00">K</text>
<text text-anchor="start" x="39.75" y="-685.88" font-family="Helvetica,sans-Serif" font-size="10.00"> </text>
<text text-anchor="start" x="39.75" y="-670.62" font-family="Helvetica,sans-Serif" font-size="10.00"> </text>
<polygon fill="#666666" stroke="#666666" points="33.88,-697.38 33.88,-697.38 48.62,-697.38 48.62,-697.38 33.88,-697.38"/>
<polygon fill="#666666" stroke="#666666" points="33.88,-682.12 33.88,-682.12 48.62,-682.12 48.62,-682.12 33.88,-682.12"/>
<polygon fill="none" stroke="#666666" points="33.88,-664.88 33.88,-714.62 48.62,-714.62 48.62,-664.88 33.88,-664.88"/>
</a>
</g>
</g>
<!-- Node8&#45;&gt;Node7 -->
<g id="edge7_Node000007_Node000008" class="edge">
<title>Node8&#45;&gt;Node7</title>
<g id="a_edge7_Node000007_Node000008"><a xlink:title=" ">
<path fill="none" stroke="#63b8ff" d="M41.25,-665.09C41.25,-651.42 41.25,-633.94 41.25,-618.56"/>
<polygon fill="none" stroke="#63b8ff" points="41.25,-618.62 37.25,-612.62 41.25,-606.62 45.25,-612.62 41.25,-618.62"/>
</a>
</g>
<text text-anchor="start" x="44.25" y="-628.75" font-family="Helvetica,sans-Serif" font-size="10.00" fill="grey">+keys</text>
</g>
<!-- Node9 -->
<g id="Node000009" class="node">
<title>Node9</title>
<g id="a_Node000009"><a xlink:title=" ">
<polygon fill="white" stroke="none" points="271.25,-714.62 257.25,-714.62 257.25,-664.88 271.25,-664.88 271.25,-714.62"/>
<text text-anchor="start" x="261.25" y="-701.12" font-family="Helvetica,sans-Serif" font-size="10.00">T</text>
<text text-anchor="start" x="262.75" y="-685.88" font-family="Helvetica,sans-Serif" font-size="10.00"> </text>
<text text-anchor="start" x="262.75" y="-670.62" font-family="Helvetica,sans-Serif" font-size="10.00"> </text>
<polygon fill="#666666" stroke="#666666" points="257.25,-697.38 257.25,-697.38 271.25,-697.38 271.25,-697.38 257.25,-697.38"/>
<polygon fill="#666666" stroke="#666666" points="257.25,-682.12 257.25,-682.12 271.25,-682.12 271.25,-682.12 257.25,-682.12"/>
<polygon fill="none" stroke="#666666" points="257.25,-664.88 257.25,-714.62 271.25,-714.62 271.25,-664.88 257.25,-664.88"/>
</a>
</g>
</g>
<!-- Node9&#45;&gt;Node7 -->
<g id="edge8_Node000007_Node000009" class="edge">
<title>Node9&#45;&gt;Node7</title>
<g id="a_edge8_Node000007_Node000009"><a xlink:title=" ">
<path fill="none" stroke="#63b8ff" d="M257.32,-674.11C254.24,-668.85 250.18,-663.23 245.25,-659.25 221.25,-639.84 145.06,-613.87 92.9,-597.57"/>
<polygon fill="none" stroke="#63b8ff" points="92.86,-597.55 85.95,-599.6 81.4,-594.01 88.31,-591.96 92.86,-597.55"/>
</a>
</g>
<text text-anchor="start" x="212.56" y="-628.75" font-family="Helvetica,sans-Serif" font-size="10.00" fill="grey">+elements</text>
</g>
<!-- Node11 -->
<g id="Node000011" class="node">
<title>Node11</title>
<g id="a_Node000011"><a xlink:title=" ">
<polygon fill="white" stroke="none" points="326,-606 250.5,-606 250.5,-556.25 326,-556.25 326,-606"/>
<text text-anchor="start" x="254.5" y="-592.5" font-family="Helvetica,sans-Serif" font-size="10.00">std::vector&lt; T &gt;</text>
<text text-anchor="start" x="286.75" y="-577.25" font-family="Helvetica,sans-Serif" font-size="10.00"> </text>
<text text-anchor="start" x="286.75" y="-562" font-family="Helvetica,sans-Serif" font-size="10.00"> </text>
<polygon fill="#666666" stroke="#666666" points="250.5,-588.75 250.5,-588.75 326,-588.75 326,-588.75 250.5,-588.75"/>
<polygon fill="#666666" stroke="#666666" points="250.5,-573.5 250.5,-573.5 326,-573.5 326,-573.5 250.5,-573.5"/>
<polygon fill="none" stroke="#666666" points="250.5,-556.25 250.5,-606 326,-606 326,-556.25 250.5,-556.25"/>
</a>
</g>
</g>
<!-- Node9&#45;&gt;Node11 -->
<g id="edge12_Node000011_Node000009" class="edge">
<title>Node9&#45;&gt;Node11</title>
<g id="a_edge12_Node000011_Node000009"><a xlink:title=" ">
<path fill="none" stroke="#63b8ff" d="M269.58,-665.09C272.68,-651.28 276.67,-633.59 280.15,-618.09"/>
<polygon fill="none" stroke="#63b8ff" points="280.11,-618.31 277.52,-611.58 282.74,-606.6 285.33,-613.33 280.11,-618.31"/>
</a>
</g>
<text text-anchor="start" x="281.4" y="-628.75" font-family="Helvetica,sans-Serif" font-size="10.00" fill="grey">+elements</text>
</g>
<!-- Node10&#45;&gt;Node2 -->
<g id="edge9_Node000002_Node000010" class="edge">
<title>Node10&#45;&gt;Node2</title>
<g id="a_edge9_Node000002_Node000010"><a xlink:title=" ">
<path fill="none" stroke="#63b8ff" d="M280.12,-447.66C263.84,-423.59 237.67,-384.91 213.32,-348.92"/>
<polygon fill="none" stroke="#63b8ff" points="213.4,-349.04 206.73,-346.31 206.68,-339.1 213.35,-341.83 213.4,-349.04"/>
</a>
</g>
<text text-anchor="start" x="264.69" y="-411.5" font-family="Helvetica,sans-Serif" font-size="10.00" fill="grey">+fDetGroups</text>
</g>
<!-- Node11&#45;&gt;Node10 -->
<g id="edge11_Node000010_Node000011" class="edge">
<title>Node11&#45;&gt;Node10</title>
<g id="a_edge11_Node000010_Node000011"><a xlink:title=" ">
<path fill="none" stroke="orange" d="M290.88,-545.01C292.06,-529.29 293.42,-511.17 294.48,-497.1"/>
<polygon fill="orange" stroke="orange" points="287.4,-544.72 290.14,-554.95 294.38,-545.24 287.4,-544.72"/>
</a>
</g>
<text text-anchor="start" x="295.49" y="-525.75" font-family="Helvetica,sans-Serif" font-size="10.00" fill="grey">&lt; std::string &gt;</text>
</g>
</g>
</svg>

<g id="navigator" transform="translate(0 0)" fill="#404254">
  <rect fill="#f2f5e9" fill-opacity="0.5" stroke="#606060" stroke-width=".5" x="0" y="0" width="60" height="60"/>
  <use id="zoomplus" xlink:href="#zoomPlus" x="17" y="9" onmousedown="handleZoom(evt,'in')"/>
  <use id="zoomminus" xlink:href="#zoomMin" x="42" y="9" onmousedown="handleZoom(evt,'out')"/>
  <use id="reset" xlink:href="#resetDef" x="30" y="36" onmousedown="handleReset()"/>
   <use id="arrowup" xlink:href="#arrowUp" x="0" y="0" onmousedown="handlePan(0,-1)"/>
  <use id="arrowright" xlink:href="#arrowRight" x="0" y="0" onmousedown="handlePan(1,0)"/>
  <use id="arrowdown" xlink:href="#arrowDown" x="0" y="0" onmousedown="handlePan(0,1)"/>
  <use id="arrowleft" xlink:href="#arrowLeft" x="0" y="0" onmousedown="handlePan(-1,0)"/>
</g>
<svg viewBox="0 0 15 15" width="100%" height="30px" preserveAspectRatio="xMaxYMin meet">
 <g id="arrow_out" transform="scale(0.3 0.3)">
  <a xlink:href="struct_gam_r_1_1_tree_1_1_t_exp_defn_1_1_fill_det_defns__coll__graph_org.svg" target="_base">
   <rect id="button" ry="5" rx="5" y="6" x="6" height="38" width="38"
        fill="#f2f5e9" fill-opacity="0.5" stroke="#606060" stroke-width="1.0"/>
   <path id="arrow"
     d="M 11.500037,31.436501 C 11.940474,20.09759 22.043105,11.32322 32.158766,21.979434 L 37.068811,17.246167 C 37.068811,17.246167 37.088388,32 37.088388,32 L 22.160133,31.978069 C 22.160133,31.978069 26.997745,27.140456 26.997745,27.140456 C 18.528582,18.264221 13.291696,25.230495 11.500037,31.436501 z"
     style="fill:#404040;"/>
  </a>
 </g>
</svg>

<style type='text/css'>
<![CDATA[
[data-mouse-over-selected='false'] { opacity: 0.7; }
[data-mouse-over-selected='true']  { opacity: 1.0; }
]]>
</style>
<script type="application/ecmascript"><![CDATA[
document.addEventListener('DOMContentLoaded', (event) => {
  highlightEdges();
  highlightAdjacentNodes();
});
]]></script>
</svg>
