<?xml version="1.0" encoding="UTF-8" standalone="no"?>
<!DOCTYPE svg PUBLIC "-//W3C//DTD SVG 1.1//EN"
 "http://www.w3.org/Graphics/SVG/1.1/DTD/svg11.dtd">
<!-- Generated by graphviz version 6.0.2 (20221011.1828)
 -->
<!-- Title: GamR::Tree::TExpDefn&lt; ADefns &gt;::FillDetDefns Pages: 1 -->
<!--zoomable 599 -->
<svg id="main" version="1.1" xmlns="http://www.w3.org/2000/svg" xmlns:xlink="http://www.w3.org/1999/xlink" xml:space="preserve" onload="init(evt)">
<style type="text/css"><![CDATA[
.edge:hover path { stroke: red; }
.edge:hover polygon { stroke: red; fill: red; }
]]></style>
<script type="text/javascript"><![CDATA[
var edges = document.getElementsByTagName('g');
if (edges && edges.length) {
  for (var i=0;i<edges.length;i++) {
    if (edges[i].id.substr(0,4)=='edge') {
      edges[i].setAttribute('class','edge');
    }
  }
}
]]></script>
        <defs>
                <circle id="rim" cx="0" cy="0" r="7"/>
                <circle id="rim2" cx="0" cy="0" r="3.5"/>
                <g id="zoomPlus">
                        <use xlink:href="#rim" fill="#404040">
                                <set attributeName="fill" to="#808080" begin="zoomplus.mouseover" end="zoomplus.mouseout"/>
                        </use>
                        <path d="M-4,0h8M0,-4v8" fill="none" stroke="white" stroke-width="1.5" pointer-events="none"/>
                </g>
                <g id="zoomMin">
                        <use xlink:href="#rim" fill="#404040">
                                <set attributeName="fill" to="#808080" begin="zoomminus.mouseover" end="zoomminus.mouseout"/>
                        </use>
                        <path d="M-4,0h8" fill="none" stroke="white" stroke-width="1.5" pointer-events="none"/>
                </g>
                <g id="dirArrow">
                        <path fill="none" stroke="white" stroke-width="1.5" d="M0,-3.0v7 M-2.5,-0.5L0,-3.0L2.5,-0.5"/>
                </g>
               <g id="resetDef">
                       <use xlink:href="#rim2" fill="#404040">
                               <set attributeName="fill" to="#808080" begin="reset.mouseover" end="reset.mouseout"/>
                       </use>
               </g>
        </defs>

<script type="text/javascript">
var viewWidth = 393;
var viewHeight = 599;
var sectionId = 'dynsection-0';
</script>
<script xlink:href="../../svgpan.js"/>
<svg id="graph" class="graph">
<g id="viewport">
<title>GamR::Tree::TExpDefn&lt; ADefns &gt;::FillDetDefns</title>
<!-- Node1 -->
<g id="node1" class="node">
<title>Node1</title>
<g id="a_node1"><a xlink:title=" ">
<polygon fill="#999999" stroke="#666666" points="240.5,-74 117.5,-74 117.5,0 240.5,0 240.5,-74"/>
<text text-anchor="start" x="125.5" y="-62" font-family="Helvetica,sans-Serif" font-size="10.00">{GamR::Tree::TExpDefn</text>
<text text-anchor="middle" x="179" y="-51" font-family="Helvetica,sans-Serif" font-size="10.00">&lt; ADefns &gt;::FillDetDefns</text>
<text text-anchor="start" x="125.5" y="-40" font-family="Helvetica,sans-Serif" font-size="10.00">|+ idxDetGroup</text>
<text text-anchor="start" x="125.5" y="-29" font-family="Helvetica,sans-Serif" font-size="10.00">|+ FillDetDefns()</text>
<text text-anchor="start" x="125.5" y="-18" font-family="Helvetica,sans-Serif" font-size="10.00">+ operator()()</text>
<text text-anchor="middle" x="179" y="-7" font-family="Helvetica,sans-Serif" font-size="10.00">}</text>
</a>
</g>
</g>
<!-- Node2 -->
<g id="node2" class="node">
<title>Node2</title>
<g id="a_node2"><a xlink:href="../../d1/d1e/class_gam_r_1_1_tree_1_1_t_exp_defn.html" target="_top" xlink:title=" ">
<polygon fill="white" stroke="#666666" points="238,-327 120,-327 120,-121 238,-121 238,-327"/>
<text text-anchor="start" x="128" y="-315" font-family="Helvetica,sans-Serif" font-size="10.00">{GamR::Tree::TExpDefn</text>
<text text-anchor="middle" x="179" y="-304" font-family="Helvetica,sans-Serif" font-size="10.00">&lt; ADefns &gt;</text>
<text text-anchor="start" x="128" y="-293" font-family="Helvetica,sans-Serif" font-size="10.00">|+ fOutFile</text>
<text text-anchor="start" x="128" y="-282" font-family="Helvetica,sans-Serif" font-size="10.00">+ fRawChain</text>
<text text-anchor="start" x="128" y="-271" font-family="Helvetica,sans-Serif" font-size="10.00">+ fOutTree</text>
<text text-anchor="start" x="128" y="-260" font-family="Helvetica,sans-Serif" font-size="10.00">+ fDetDefns</text>
<text text-anchor="start" x="128" y="-249" font-family="Helvetica,sans-Serif" font-size="10.00">+ fINIReader</text>
<text text-anchor="start" x="128" y="-238" font-family="Helvetica,sans-Serif" font-size="10.00">|+ TExpDefn()</text>
<text text-anchor="start" x="128" y="-227" font-family="Helvetica,sans-Serif" font-size="10.00">+ ~TExpDefn()</text>
<text text-anchor="start" x="128" y="-216" font-family="Helvetica,sans-Serif" font-size="10.00">+ GetDetDefns()</text>
<text text-anchor="start" x="128" y="-205" font-family="Helvetica,sans-Serif" font-size="10.00">+ GetAllDetDefns()</text>
<text text-anchor="start" x="128" y="-194" font-family="Helvetica,sans-Serif" font-size="10.00">+ CloseFiles()</text>
<text text-anchor="start" x="128" y="-183" font-family="Helvetica,sans-Serif" font-size="10.00">+ Load()</text>
<text text-anchor="start" x="128" y="-172" font-family="Helvetica,sans-Serif" font-size="10.00">+ LoadRaw()</text>
<text text-anchor="start" x="128" y="-161" font-family="Helvetica,sans-Serif" font-size="10.00">+ ResetBranches()</text>
<text text-anchor="start" x="128" y="-150" font-family="Helvetica,sans-Serif" font-size="10.00">+ Convert()</text>
<text text-anchor="start" x="128" y="-139" font-family="Helvetica,sans-Serif" font-size="10.00">+ ClassDef()</text>
<text text-anchor="middle" x="179" y="-128" font-family="Helvetica,sans-Serif" font-size="10.00">}</text>
</a>
</g>
</g>
<!-- Node2&#45;&gt;Node1 -->
<g id="edge1" class="edge">
<title>Node2&#45;&gt;Node1</title>
<path fill="none" stroke="#404040" d="M179,-120.76C179,-108.75 179,-96.96 179,-86.21"/>
<polygon fill="none" stroke="#404040" points="179,-86.12 175,-80.12 179,-74.12 183,-80.12 179,-86.12"/>
<text text-anchor="middle" x="186" y="-95" font-family="Helvetica,sans-Serif" font-size="10.00"> +p</text>
</g>
<!-- Node3 -->
<g id="node3" class="node">
<title>Node3</title>
<g id="a_node3"><a xlink:title=" ">
<polygon fill="white" stroke="#666666" points="54,-415 0,-415 0,-385 54,-385 54,-415"/>
<text text-anchor="middle" x="27" y="-403" font-family="Helvetica,sans-Serif" font-size="10.00">{TObject</text>
<text text-anchor="middle" x="27" y="-392" font-family="Helvetica,sans-Serif" font-size="10.00">||}</text>
</a>
</g>
</g>
<!-- Node3&#45;&gt;Node2 -->
<g id="edge2" class="edge">
<title>Node3&#45;&gt;Node2</title>
<path fill="none" stroke="#63b8ff" d="M46.24,-376.98C64.78,-355.76 93.79,-322.54 119.97,-292.57"/>
<polygon fill="none" stroke="#63b8ff" points="43.38,-374.93 39.44,-384.76 48.65,-379.53 43.38,-374.93"/>
</g>
<!-- Node4 -->
<g id="node4" class="node">
<title>Node4</title>
<g id="a_node4"><a xlink:title=" ">
<polygon fill="white" stroke="#666666" points="182,-426 72,-426 72,-374 182,-374 182,-426"/>
<text text-anchor="start" x="80" y="-414" font-family="Helvetica,sans-Serif" font-size="10.00">{std::map&lt; std::string,</text>
<text text-anchor="middle" x="127" y="-403" font-family="Helvetica,sans-Serif" font-size="10.00"> void * &gt;</text>
<text text-anchor="start" x="80" y="-392" font-family="Helvetica,sans-Serif" font-size="10.00">|+ elements</text>
<text text-anchor="middle" x="127" y="-381" font-family="Helvetica,sans-Serif" font-size="10.00">|}</text>
</a>
</g>
</g>
<!-- Node4&#45;&gt;Node2 -->
<g id="edge3" class="edge">
<title>Node4&#45;&gt;Node2</title>
<path fill="none" stroke="#404040" d="M134.39,-373.99C137.09,-364.87 140.18,-354.46 143,-345 143.63,-342.9 144.26,-340.78 144.89,-338.65"/>
<polygon fill="none" stroke="#404040" points="144.9,-338.62 142.79,-331.72 148.34,-327.12 150.45,-334.01 144.9,-338.62"/>
<text text-anchor="middle" x="173.5" y="-348" font-family="Helvetica,sans-Serif" font-size="10.00"> +fBranchMap</text>
</g>
<!-- Node5 -->
<g id="node5" class="node">
<title>Node5</title>
<g id="a_node5"><a xlink:title=" ">
<polygon fill="white" stroke="#666666" points="249,-503 187,-503 187,-473 249,-473 249,-503"/>
<text text-anchor="middle" x="218" y="-491" font-family="Helvetica,sans-Serif" font-size="10.00">{std::string</text>
<text text-anchor="middle" x="218" y="-480" font-family="Helvetica,sans-Serif" font-size="10.00">||}</text>
</a>
</g>
</g>
<!-- Node5&#45;&gt;Node2 -->
<g id="edge13" class="edge">
<title>Node5&#45;&gt;Node2</title>
<path fill="none" stroke="#404040" d="M217.11,-472.83C215.38,-447.21 211.12,-391.53 204,-345 203.71,-343.1 203.41,-341.19 203.1,-339.26"/>
<polygon fill="none" stroke="#404040" points="203.08,-339.15 198.14,-333.9 201.08,-327.32 206.02,-332.57 203.08,-339.15"/>
<text text-anchor="middle" x="226.5" y="-397.5" font-family="Helvetica,sans-Serif" font-size="10.00"> +fINI</text>
</g>
<!-- Node5&#45;&gt;Node4 -->
<g id="edge4" class="edge">
<title>Node5&#45;&gt;Node4</title>
<path fill="none" stroke="#404040" d="M197.2,-472.84C189.92,-467.55 181.86,-461.29 175,-455 168.39,-448.94 161.73,-442.05 155.56,-435.27"/>
<polygon fill="none" stroke="#404040" points="155.46,-435.16 148.49,-433.33 147.5,-426.18 154.47,-428.02 155.46,-435.16"/>
<text text-anchor="middle" x="189.5" y="-447" font-family="Helvetica,sans-Serif" font-size="10.00"> +keys</text>
</g>
<!-- Node10 -->
<g id="node10" class="node">
<title>Node10</title>
<g id="a_node10"><a xlink:title=" ">
<polygon fill="white" stroke="#666666" points="384.5,-415 261.5,-415 261.5,-385 384.5,-385 384.5,-415"/>
<text text-anchor="middle" x="323" y="-403" font-family="Helvetica,sans-Serif" font-size="10.00">{std::vector&lt; std::string &gt;</text>
<text text-anchor="middle" x="323" y="-392" font-family="Helvetica,sans-Serif" font-size="10.00">||}</text>
</a>
</g>
</g>
<!-- Node5&#45;&gt;Node10 -->
<g id="edge10" class="edge">
<title>Node5&#45;&gt;Node10</title>
<path fill="none" stroke="#404040" d="M233.27,-472.72C242.57,-464.18 254.77,-453.24 266,-444 274.83,-436.73 284.7,-429.12 293.72,-422.35"/>
<polygon fill="none" stroke="#404040" points="293.8,-422.29 296.23,-415.5 303.43,-415.13 301,-421.92 293.8,-422.29"/>
<text text-anchor="middle" x="290.5" y="-447" font-family="Helvetica,sans-Serif" font-size="10.00"> +elements</text>
</g>
<!-- Node6 -->
<g id="node6" class="node">
<title>Node6</title>
<g id="a_node6"><a xlink:title=" ">
<polygon fill="white" stroke="#666666" points="266,-591 170,-591 170,-550 266,-550 266,-591"/>
<text text-anchor="start" x="178" y="-579" font-family="Helvetica,sans-Serif" font-size="10.00">{std::basic_string&lt;</text>
<text text-anchor="middle" x="218" y="-568" font-family="Helvetica,sans-Serif" font-size="10.00"> Char &gt;</text>
<text text-anchor="middle" x="218" y="-557" font-family="Helvetica,sans-Serif" font-size="10.00">||}</text>
</a>
</g>
</g>
<!-- Node6&#45;&gt;Node5 -->
<g id="edge5" class="edge">
<title>Node6&#45;&gt;Node5</title>
<path fill="none" stroke="#63b8ff" d="M218,-539.26C218,-526.96 218,-513.33 218,-503.37"/>
<polygon fill="none" stroke="#63b8ff" points="214.5,-539.6 218,-549.6 221.5,-539.6 214.5,-539.6"/>
</g>
<!-- Node7 -->
<g id="node7" class="node">
<title>Node7</title>
<g id="a_node7"><a xlink:title=" ">
<polygon fill="white" stroke="#666666" points="116.5,-503 25.5,-503 25.5,-473 116.5,-473 116.5,-503"/>
<text text-anchor="middle" x="71" y="-491" font-family="Helvetica,sans-Serif" font-size="10.00">{std::map&lt; K, T &gt;</text>
<text text-anchor="middle" x="71" y="-480" font-family="Helvetica,sans-Serif" font-size="10.00">||}</text>
</a>
</g>
</g>
<!-- Node7&#45;&gt;Node4 -->
<g id="edge6" class="edge">
<title>Node7&#45;&gt;Node4</title>
<path fill="none" stroke="orange" d="M59.51,-463.1C57.96,-456.65 57.84,-449.84 61,-444 64.71,-437.15 70.05,-431.21 76.09,-426.13"/>
<polygon fill="orange" stroke="orange" points="56.27,-464.46 62.84,-472.77 62.89,-462.17 56.27,-464.46"/>
<text text-anchor="middle" x="106.5" y="-447" font-family="Helvetica,sans-Serif" font-size="10.00"> &lt; std::string, void * &gt;</text>
</g>
<!-- Node8 -->
<g id="node8" class="node">
<title>Node8</title>
<g id="a_node8"><a xlink:title=" ">
<polygon fill="white" stroke="#666666" points="85.5,-585.5 56.5,-585.5 56.5,-555.5 85.5,-555.5 85.5,-585.5"/>
<text text-anchor="middle" x="71" y="-573.5" font-family="Helvetica,sans-Serif" font-size="10.00">{K</text>
<text text-anchor="middle" x="71" y="-562.5" font-family="Helvetica,sans-Serif" font-size="10.00">||}</text>
</a>
</g>
</g>
<!-- Node8&#45;&gt;Node7 -->
<g id="edge7" class="edge">
<title>Node8&#45;&gt;Node7</title>
<path fill="none" stroke="#404040" d="M71,-555.48C71,-544.46 71,-528.81 71,-515.46"/>
<polygon fill="none" stroke="#404040" points="71,-515.13 67,-509.13 71,-503.13 75,-509.13 71,-515.13"/>
<text text-anchor="middle" x="85.5" y="-524" font-family="Helvetica,sans-Serif" font-size="10.00"> +keys</text>
</g>
<!-- Node9 -->
<g id="node9" class="node">
<title>Node9</title>
<g id="a_node9"><a xlink:title=" ">
<polygon fill="white" stroke="#666666" points="319.5,-585.5 290.5,-585.5 290.5,-555.5 319.5,-555.5 319.5,-585.5"/>
<text text-anchor="middle" x="305" y="-573.5" font-family="Helvetica,sans-Serif" font-size="10.00">{T</text>
<text text-anchor="middle" x="305" y="-562.5" font-family="Helvetica,sans-Serif" font-size="10.00">||}</text>
</a>
</g>
</g>
<!-- Node9&#45;&gt;Node7 -->
<g id="edge8" class="edge">
<title>Node9&#45;&gt;Node7</title>
<path fill="none" stroke="#404040" d="M290.22,-558.7C285.52,-555.59 280.19,-552.4 275,-550 227.52,-528.03 170.19,-511.7 128.41,-501.5"/>
<polygon fill="none" stroke="#404040" points="128.19,-501.45 121.42,-503.94 116.52,-498.66 123.28,-496.16 128.19,-501.45"/>
<text text-anchor="middle" x="251.5" y="-524" font-family="Helvetica,sans-Serif" font-size="10.00"> +elements</text>
</g>
<!-- Node11 -->
<g id="node11" class="node">
<title>Node11</title>
<g id="a_node11"><a xlink:title=" ">
<polygon fill="white" stroke="#666666" points="360.5,-503 273.5,-503 273.5,-473 360.5,-473 360.5,-503"/>
<text text-anchor="middle" x="317" y="-491" font-family="Helvetica,sans-Serif" font-size="10.00">{std::vector&lt; T &gt;</text>
<text text-anchor="middle" x="317" y="-480" font-family="Helvetica,sans-Serif" font-size="10.00">||}</text>
</a>
</g>
</g>
<!-- Node9&#45;&gt;Node11 -->
<g id="edge12" class="edge">
<title>Node9&#45;&gt;Node11</title>
<path fill="none" stroke="#404040" d="M307.09,-555.48C308.75,-544.35 311.11,-528.48 313.12,-515.04"/>
<polygon fill="none" stroke="#404040" points="313.12,-515 310.05,-508.48 314.89,-503.13 317.97,-509.66 313.12,-515"/>
<text text-anchor="middle" x="336.5" y="-524" font-family="Helvetica,sans-Serif" font-size="10.00"> +elements</text>
</g>
<!-- Node10&#45;&gt;Node2 -->
<g id="edge9" class="edge">
<title>Node10&#45;&gt;Node2</title>
<path fill="none" stroke="#404040" d="M311.22,-384.76C296.73,-367.25 270.98,-336.15 246.04,-306"/>
<polygon fill="none" stroke="#404040" points="245.98,-305.94 239.08,-303.87 238.33,-296.69 245.24,-298.77 245.98,-305.94"/>
<text text-anchor="middle" x="313" y="-348" font-family="Helvetica,sans-Serif" font-size="10.00"> +fDetGroups</text>
</g>
<!-- Node11&#45;&gt;Node10 -->
<g id="edge11" class="edge">
<title>Node11&#45;&gt;Node10</title>
<path fill="none" stroke="orange" d="M318.71,-462.49C319.78,-447.2 321.11,-428.05 322.01,-415.22"/>
<polygon fill="orange" stroke="orange" points="315.2,-462.58 317.99,-472.8 322.18,-463.07 315.2,-462.58"/>
<text text-anchor="middle" x="350.5" y="-447" font-family="Helvetica,sans-Serif" font-size="10.00"> &lt; std::string &gt;</text>
</g>
</g>
</svg>
        <g id="navigator" transform="translate(0 0)" fill="#404254">
                <rect fill="#f2f5e9" fill-opacity="0.5" stroke="#606060" stroke-width=".5" x="0" y="0" width="60" height="60"/>
                <use id="zoomplus" xlink:href="#zoomPlus" x="17" y="9" onmousedown="handleZoom(evt,'in')"/>
                <use id="zoomminus" xlink:href="#zoomMin" x="42" y="9" onmousedown="handleZoom(evt,'out')"/>
                <use id="reset" xlink:href="#resetDef" x="30" y="36" onmousedown="handleReset()"/>
                <g id="arrowUp" xlink:href="#dirArrow" transform="translate(30 24)" onmousedown="handlePan(0,-1)">
                  <use xlink:href="#rim" fill="#404040">
                        <set attributeName="fill" to="#808080" begin="arrowUp.mouseover" end="arrowUp.mouseout"/>
                  </use>
                  <path fill="none" stroke="white" stroke-width="1.5" d="M0,-3.0v7 M-2.5,-0.5L0,-3.0L2.5,-0.5"/>
                </g>
                <g id="arrowRight" xlink:href="#dirArrow" transform="rotate(90) translate(36 -43)" onmousedown="handlePan(1,0)">
                  <use xlink:href="#rim" fill="#404040">
                        <set attributeName="fill" to="#808080" begin="arrowRight.mouseover" end="arrowRight.mouseout"/>
                  </use>
                  <path fill="none" stroke="white" stroke-width="1.5" d="M0,-3.0v7 M-2.5,-0.5L0,-3.0L2.5,-0.5"/>
                </g>
                <g id="arrowDown" xlink:href="#dirArrow" transform="rotate(180) translate(-30 -48)" onmousedown="handlePan(0,1)">
                  <use xlink:href="#rim" fill="#404040">
                        <set attributeName="fill" to="#808080" begin="arrowDown.mouseover" end="arrowDown.mouseout"/>
                  </use>
                  <path fill="none" stroke="white" stroke-width="1.5" d="M0,-3.0v7 M-2.5,-0.5L0,-3.0L2.5,-0.5"/>
                </g>
                <g id="arrowLeft" xlink:href="#dirArrow" transform="rotate(270) translate(-36 17)" onmousedown="handlePan(-1,0)">
                  <use xlink:href="#rim" fill="#404040">
                        <set attributeName="fill" to="#808080" begin="arrowLeft.mouseover" end="arrowLeft.mouseout"/>
                  </use>
                  <path fill="none" stroke="white" stroke-width="1.5" d="M0,-3.0v7 M-2.5,-0.5L0,-3.0L2.5,-0.5"/>
                </g>
        </g>
        <svg viewBox="0 0 15 15" width="100%" height="30px" preserveAspectRatio="xMaxYMin meet">
         <g id="arrow_out" transform="scale(0.3 0.3)">
          <a xlink:href="struct_gam_r_1_1_tree_1_1_t_exp_defn_1_1_fill_det_defns__coll__graph_org.svg" target="_base">
           <rect id="button" ry="5" rx="5" y="6" x="6" height="38" width="38"
                fill="#f2f5e9" fill-opacity="0.5" stroke="#606060" stroke-width="1.0"/>
           <path id="arrow"
             d="M 11.500037,31.436501 C 11.940474,20.09759 22.043105,11.32322 32.158766,21.979434 L 37.068811,17.246167 C 37.068811,17.246167 37.088388,32 37.088388,32 L 22.160133,31.978069 C 22.160133,31.978069 26.997745,27.140456 26.997745,27.140456 C 18.528582,18.264221 13.291696,25.230495 11.500037,31.436501 z"
             style="fill:#404040;"/>
          </a>
         </g>
        </svg>
</svg>
