<?xml version="1.0" encoding="UTF-8" standalone="no"?>
<!DOCTYPE svg PUBLIC "-//W3C//DTD SVG 1.1//EN"
 "http://www.w3.org/Graphics/SVG/1.1/DTD/svg11.dtd">
<!-- Generated by graphviz version 8.1.0 (20230707.0739)
 -->
<!-- Title: GamR::Sort::Sorter::GetMatrix Pages: 1 -->
<svg width="303pt" height="333pt"
 viewBox="0.00 0.00 302.50 332.50" xmlns="http://www.w3.org/2000/svg" xmlns:xlink="http://www.w3.org/1999/xlink">

<svg id="main" version="1.1" xmlns="http://www.w3.org/2000/svg" xmlns:xlink="http://www.w3.org/1999/xlink" xml:space="preserve" onload="init(evt)">
<style type="text/css"><![CDATA[
.node, .edge {opacity: 0.7;}
.node.selected, .edge.selected {opacity: 1;}
.edge:hover path { stroke: red; }
.edge:hover polygon { stroke: red; fill: red; }
]]></style>
<script type="application/ecmascript" xlink:href="../../svg.min.js"/>
<svg id="graph" class="graph">
<g id="graph0" class="graph" transform="scale(1 1) rotate(0) translate(4 328.5)">
<title>GamR::Sort::Sorter::GetMatrix</title>
<!-- Node1 -->
<g id="Node000001" class="node">
<title>Node1</title>
<g id="a_Node000001"><a xlink:title=" ">
<polygon fill="#999999" stroke="#666666" points="294.5,-177.5 197.5,-177.5 197.5,-147 294.5,-147 294.5,-177.5"/>
<text text-anchor="start" x="205.5" y="-164" font-family="Helvetica,sans-Serif" font-size="10.00">GamR::Sort::Sorter</text>
<text text-anchor="middle" x="246" y="-152.75" font-family="Helvetica,sans-Serif" font-size="10.00">::GetMatrix</text>
</a>
</g>
</g>
<!-- Node2 -->
<g id="Node000002" class="node">
<title>Node2</title>
<g id="a_Node000002"><a xlink:href="../../df/d71/class_gam_r_1_1_sort_1_1_type_1_1_coincidence_matrix.html#a24aa51e13015e482caf76330cf53e074" target="_top" xlink:title=" ">
<polygon fill="white" stroke="#666666" points="155.5,-324.5 6,-324.5 6,-294 155.5,-294 155.5,-324.5"/>
<text text-anchor="start" x="14" y="-311" font-family="Helvetica,sans-Serif" font-size="10.00">GamR::Sort::Type::Coincidence</text>
<text text-anchor="middle" x="80.75" y="-299.75" font-family="Helvetica,sans-Serif" font-size="10.00">Matrix::CoincidenceMatrix</text>
</a>
</g>
</g>
<!-- Node1&#45;&gt;Node2 -->
<g id="edge1_Node000001_Node000002" class="edge">
<title>Node1&#45;&gt;Node2</title>
<g id="a_edge1_Node000001_Node000002"><a xlink:title=" ">
<path fill="none" stroke="#63b8ff" d="M233.95,-187.58C220.63,-215.23 195.71,-258.93 161.5,-284.25 156.6,-287.88 151.16,-290.98 145.5,-293.65"/>
<polygon fill="#63b8ff" stroke="#63b8ff" points="237.44,-189.38 238.48,-178.84 231.09,-186.43 237.44,-189.38"/>
</a>
</g>
</g>
<!-- Node3 -->
<g id="Node000003" class="node">
<title>Node3</title>
<g id="a_Node000003"><a xlink:href="../../d6/daa/class_gam_r_1_1_sort_1_1_type_1_1_coincidence_matrix_pair.html#a55f5a71ebac6483ad276b8566d540aae" target="_top" xlink:title=" ">
<polygon fill="white" stroke="#666666" points="161.12,-275.5 0.38,-275.5 0.38,-245 161.12,-245 161.12,-275.5"/>
<text text-anchor="start" x="8.38" y="-262" font-family="Helvetica,sans-Serif" font-size="10.00">GamR::Sort::Type::Coincidence</text>
<text text-anchor="middle" x="80.75" y="-250.75" font-family="Helvetica,sans-Serif" font-size="10.00">MatrixPair::CoincidenceMatrixPair</text>
</a>
</g>
</g>
<!-- Node1&#45;&gt;Node3 -->
<g id="edge2_Node000001_Node000003" class="edge">
<title>Node1&#45;&gt;Node3</title>
<g id="a_edge2_Node000001_Node000003"><a xlink:title=" ">
<path fill="none" stroke="#63b8ff" d="M223.47,-185.63C207.67,-201.57 184.95,-222.1 161.5,-235.25 155.17,-238.8 148.27,-241.91 141.27,-244.63"/>
<polygon fill="#63b8ff" stroke="#63b8ff" points="225.63,-188.39 230.07,-178.77 220.6,-183.53 225.63,-188.39"/>
</a>
</g>
</g>
<!-- Node4 -->
<g id="Node000004" class="node">
<title>Node4</title>
<g id="a_Node000004"><a xlink:href="../../d3/d6c/class_gam_r_1_1_sort_1_1_type_1_1_gated_time_difference.html#a044c4c6493ecba6989b7e92b36da6ddc" target="_top" xlink:title=" ">
<polygon fill="white" stroke="#666666" points="158.5,-226.5 3,-226.5 3,-196 158.5,-196 158.5,-226.5"/>
<text text-anchor="start" x="11" y="-213" font-family="Helvetica,sans-Serif" font-size="10.00">GamR::Sort::Type::GatedTime</text>
<text text-anchor="middle" x="80.75" y="-201.75" font-family="Helvetica,sans-Serif" font-size="10.00">Difference::GatedTimeDifference</text>
</a>
</g>
</g>
<!-- Node1&#45;&gt;Node4 -->
<g id="edge3_Node000001_Node000004" class="edge">
<title>Node1&#45;&gt;Node4</title>
<g id="a_edge3_Node000001_Node000004"><a xlink:title=" ">
<path fill="none" stroke="#63b8ff" d="M186.84,-179.71C169.62,-184.88 150.87,-190.5 134.04,-195.56"/>
<polygon fill="#63b8ff" stroke="#63b8ff" points="187.77,-182.78 196.34,-176.55 185.76,-176.08 187.77,-182.78"/>
</a>
</g>
</g>
<!-- Node5 -->
<g id="Node000005" class="node">
<title>Node5</title>
<g id="a_Node000005"><a xlink:href="../../d1/da3/class_gam_r_1_1_sort_1_1_type_1_1_matrix.html#a00e6aa66c1c3b6a8a75dba762085c610" target="_top" xlink:title=" ">
<polygon fill="white" stroke="#666666" points="142,-177.5 19.5,-177.5 19.5,-147 142,-147 142,-177.5"/>
<text text-anchor="start" x="27.5" y="-164" font-family="Helvetica,sans-Serif" font-size="10.00">GamR::Sort::Type::Matrix</text>
<text text-anchor="middle" x="80.75" y="-152.75" font-family="Helvetica,sans-Serif" font-size="10.00">::Matrix</text>
</a>
</g>
</g>
<!-- Node1&#45;&gt;Node5 -->
<g id="edge4_Node000001_Node000005" class="edge">
<title>Node1&#45;&gt;Node5</title>
<g id="a_edge4_Node000001_Node000005"><a xlink:title=" ">
<path fill="none" stroke="#63b8ff" d="M186.58,-162.25C172.19,-162.25 156.75,-162.25 142.26,-162.25"/>
<polygon fill="#63b8ff" stroke="#63b8ff" points="186.34,-165.75 196.34,-162.25 186.34,-158.75 186.34,-165.75"/>
</a>
</g>
</g>
<!-- Node6 -->
<g id="Node000006" class="node">
<title>Node6</title>
<g id="a_Node000006"><a xlink:href="../../db/d1b/class_gam_r_1_1_sort_1_1_type_1_1_time_difference.html#a7cf59bfec4ee14f850901a3d1fbe7103" target="_top" xlink:title=" ">
<polygon fill="white" stroke="#666666" points="161.5,-128.5 0,-128.5 0,-98 161.5,-98 161.5,-128.5"/>
<text text-anchor="start" x="8" y="-115" font-family="Helvetica,sans-Serif" font-size="10.00">GamR::Sort::Type::TimeDifference</text>
<text text-anchor="middle" x="80.75" y="-103.75" font-family="Helvetica,sans-Serif" font-size="10.00">::TimeDifference</text>
</a>
</g>
</g>
<!-- Node1&#45;&gt;Node6 -->
<g id="edge5_Node000001_Node000006" class="edge">
<title>Node1&#45;&gt;Node6</title>
<g id="a_edge5_Node000001_Node000006"><a xlink:title=" ">
<path fill="none" stroke="#63b8ff" d="M186.84,-144.79C169.62,-139.62 150.87,-134 134.04,-128.94"/>
<polygon fill="#63b8ff" stroke="#63b8ff" points="185.76,-148.42 196.34,-147.95 187.77,-141.72 185.76,-148.42"/>
</a>
</g>
</g>
<!-- Node7 -->
<g id="Node000007" class="node">
<title>Node7</title>
<g id="a_Node000007"><a xlink:href="../../d7/d5f/class_gam_r_1_1_sort_1_1_type_1_1_time_difference_pairs.html#af4ef18d212f6e817fc857b1b460b7e1a" target="_top" xlink:title=" ">
<polygon fill="white" stroke="#666666" points="161.5,-79.5 0,-79.5 0,-49 161.5,-49 161.5,-79.5"/>
<text text-anchor="start" x="8" y="-66" font-family="Helvetica,sans-Serif" font-size="10.00">GamR::Sort::Type::TimeDifference</text>
<text text-anchor="middle" x="80.75" y="-54.75" font-family="Helvetica,sans-Serif" font-size="10.00">Pairs::TimeDifferencePairs</text>
</a>
</g>
</g>
<!-- Node1&#45;&gt;Node7 -->
<g id="edge6_Node000001_Node000007" class="edge">
<title>Node1&#45;&gt;Node7</title>
<g id="a_edge6_Node000001_Node000007"><a xlink:title=" ">
<path fill="none" stroke="#63b8ff" d="M223.47,-138.87C207.67,-122.93 184.95,-102.4 161.5,-89.25 155.17,-85.7 148.27,-82.59 141.27,-79.87"/>
<polygon fill="#63b8ff" stroke="#63b8ff" points="220.6,-140.97 230.07,-145.73 225.63,-136.11 220.6,-140.97"/>
</a>
</g>
</g>
<!-- Node8 -->
<g id="Node000008" class="node">
<title>Node8</title>
<g id="a_Node000008"><a xlink:href="../../df/d01/class_gam_r_1_1_sort_1_1_type_1_1_time_walk_cal.html#a178824712e938d37a02d75e23ceae6c9" target="_top" xlink:title=" ">
<polygon fill="white" stroke="#666666" points="150.62,-30.5 10.88,-30.5 10.88,0 150.62,0 150.62,-30.5"/>
<text text-anchor="start" x="18.88" y="-17" font-family="Helvetica,sans-Serif" font-size="10.00">GamR::Sort::Type::TimeWalk</text>
<text text-anchor="middle" x="80.75" y="-5.75" font-family="Helvetica,sans-Serif" font-size="10.00">Cal::TimeWalkCal</text>
</a>
</g>
</g>
<!-- Node1&#45;&gt;Node8 -->
<g id="edge7_Node000001_Node000008" class="edge">
<title>Node1&#45;&gt;Node8</title>
<g id="a_edge7_Node000001_Node000008"><a xlink:title=" ">
<path fill="none" stroke="#63b8ff" d="M233.95,-136.92C220.63,-109.27 195.71,-65.57 161.5,-40.25 156.6,-36.62 151.16,-33.52 145.5,-30.85"/>
<polygon fill="#63b8ff" stroke="#63b8ff" points="231.09,-138.07 238.48,-145.66 237.44,-135.12 231.09,-138.07"/>
</a>
</g>
</g>
</g>
</svg>
</svg>

<style type='text/css'>
<![CDATA[
[data-mouse-over-selected='false'] { opacity: 0.7; }
[data-mouse-over-selected='true']  { opacity: 1.0; }
]]>
</style>
<script type="application/ecmascript"><![CDATA[
document.addEventListener('DOMContentLoaded', (event) => {
  highlightEdges();
  highlightAdjacentNodes();
});
]]></script>
</svg>
