<?xml version="1.0" encoding="UTF-8" standalone="no"?>
<!DOCTYPE svg PUBLIC "-//W3C//DTD SVG 1.1//EN"
 "http://www.w3.org/Graphics/SVG/1.1/DTD/svg11.dtd">
<!-- Generated by graphviz version 8.1.0 (20230707.0739)
 -->
<!-- Title: GamR::Sort::Sorter::Done Pages: 1 -->
<svg width="303pt" height="419pt"
 viewBox="0.00 0.00 302.50 418.88" xmlns="http://www.w3.org/2000/svg" xmlns:xlink="http://www.w3.org/1999/xlink">
<g id="graph0" class="graph" transform="scale(1 1) rotate(0) translate(4 414.88)">
<title>GamR::Sort::Sorter::Done</title>
<!-- Node1 -->
<g id="Node000001" class="node">
<title>Node1</title>
<g id="a_Node000001"><a xlink:title=" ">
<polygon fill="#999999" stroke="#666666" points="294.5,-226.5 197.5,-226.5 197.5,-196 294.5,-196 294.5,-226.5"/>
<text text-anchor="start" x="205.5" y="-213" font-family="Helvetica,sans-Serif" font-size="10.00">GamR::Sort::Sorter</text>
<text text-anchor="middle" x="246" y="-201.75" font-family="Helvetica,sans-Serif" font-size="10.00">::Done</text>
</a>
</g>
</g>
<!-- Node2 -->
<g id="Node000002" class="node">
<title>Node2</title>
<g id="a_Node000002"><a xlink:href="../../d9/da5/gamrsort_8cc.html#ad53223b8779f25caeddb70a3b9172967" target="_top" xlink:title=" ">
<polygon fill="white" stroke="#666666" points="99.25,-410.88 62.25,-410.88 62.25,-391.62 99.25,-391.62 99.25,-410.88"/>
<text text-anchor="middle" x="80.75" y="-397.38" font-family="Helvetica,sans-Serif" font-size="10.00">main</text>
</a>
</g>
</g>
<!-- Node1&#45;&gt;Node2 -->
<g id="edge1_Node000001_Node000002" class="edge">
<title>Node1&#45;&gt;Node2</title>
<g id="a_edge1_Node000001_Node000002"><a xlink:title=" ">
<path fill="none" stroke="#63b8ff" d="M239.62,-237.47C230.43,-275.37 208.01,-345.01 161.5,-382.25 143.72,-396.48 117.02,-400.35 99.48,-401.24"/>
<polygon fill="#63b8ff" stroke="#63b8ff" points="243.24,-238.32 242.06,-227.8 236.42,-236.76 243.24,-238.32"/>
</a>
</g>
</g>
<!-- Node3 -->
<g id="Node000003" class="node">
<title>Node3</title>
<g id="a_Node000003"><a xlink:href="../../dd/da0/class_gam_r_1_1_sort_1_1_type_1_1_coincidence_cube_diff.html#a38594500e35cc42a7d2d255023895993" target="_top" xlink:title=" ">
<polygon fill="white" stroke="#666666" points="155.5,-373.5 6,-373.5 6,-343 155.5,-343 155.5,-373.5"/>
<text text-anchor="start" x="14" y="-360" font-family="Helvetica,sans-Serif" font-size="10.00">GamR::Sort::Type::Coincidence</text>
<text text-anchor="middle" x="80.75" y="-348.75" font-family="Helvetica,sans-Serif" font-size="10.00">CubeDiff::operator()</text>
</a>
</g>
</g>
<!-- Node1&#45;&gt;Node3 -->
<g id="edge2_Node000001_Node000003" class="edge">
<title>Node1&#45;&gt;Node3</title>
<g id="a_edge2_Node000001_Node000003"><a xlink:title=" ">
<path fill="none" stroke="#63b8ff" d="M233.95,-236.58C220.63,-264.23 195.71,-307.93 161.5,-333.25 156.6,-336.88 151.16,-339.98 145.5,-342.65"/>
<polygon fill="#63b8ff" stroke="#63b8ff" points="237.44,-238.38 238.48,-227.84 231.09,-235.43 237.44,-238.38"/>
</a>
</g>
</g>
<!-- Node4 -->
<g id="Node000004" class="node">
<title>Node4</title>
<g id="a_Node000004"><a xlink:href="../../df/d71/class_gam_r_1_1_sort_1_1_type_1_1_coincidence_matrix.html#a132a50b82dd314a036a883c70e6cb765" target="_top" xlink:title=" ">
<polygon fill="white" stroke="#666666" points="155.5,-324.5 6,-324.5 6,-294 155.5,-294 155.5,-324.5"/>
<text text-anchor="start" x="14" y="-311" font-family="Helvetica,sans-Serif" font-size="10.00">GamR::Sort::Type::Coincidence</text>
<text text-anchor="middle" x="80.75" y="-299.75" font-family="Helvetica,sans-Serif" font-size="10.00">Matrix::operator()</text>
</a>
</g>
</g>
<!-- Node1&#45;&gt;Node4 -->
<g id="edge3_Node000001_Node000004" class="edge">
<title>Node1&#45;&gt;Node4</title>
<g id="a_edge3_Node000001_Node000004"><a xlink:title=" ">
<path fill="none" stroke="#63b8ff" d="M223.47,-234.63C207.67,-250.57 184.95,-271.1 161.5,-284.25 155.17,-287.8 148.27,-290.91 141.27,-293.63"/>
<polygon fill="#63b8ff" stroke="#63b8ff" points="225.63,-237.39 230.07,-227.77 220.6,-232.53 225.63,-237.39"/>
</a>
</g>
</g>
<!-- Node5 -->
<g id="Node000005" class="node">
<title>Node5</title>
<g id="a_Node000005"><a xlink:href="../../d6/daa/class_gam_r_1_1_sort_1_1_type_1_1_coincidence_matrix_pair.html#a8e27cf0183aa0b2d8520fff0575909f9" target="_top" xlink:title=" ">
<polygon fill="white" stroke="#666666" points="155.5,-275.5 6,-275.5 6,-245 155.5,-245 155.5,-275.5"/>
<text text-anchor="start" x="14" y="-262" font-family="Helvetica,sans-Serif" font-size="10.00">GamR::Sort::Type::Coincidence</text>
<text text-anchor="middle" x="80.75" y="-250.75" font-family="Helvetica,sans-Serif" font-size="10.00">MatrixPair::operator()</text>
</a>
</g>
</g>
<!-- Node1&#45;&gt;Node5 -->
<g id="edge4_Node000001_Node000005" class="edge">
<title>Node1&#45;&gt;Node5</title>
<g id="a_edge4_Node000001_Node000005"><a xlink:title=" ">
<path fill="none" stroke="#63b8ff" d="M186.84,-228.71C169.62,-233.88 150.87,-239.5 134.04,-244.56"/>
<polygon fill="#63b8ff" stroke="#63b8ff" points="187.77,-231.78 196.34,-225.55 185.76,-225.08 187.77,-231.78"/>
</a>
</g>
</g>
<!-- Node6 -->
<g id="Node000006" class="node">
<title>Node6</title>
<g id="a_Node000006"><a xlink:href="../../d3/d6c/class_gam_r_1_1_sort_1_1_type_1_1_gated_time_difference.html#a24e85e6f4818336f371ac8e011146570" target="_top" xlink:title=" ">
<polygon fill="white" stroke="#666666" points="152.88,-226.5 8.62,-226.5 8.62,-196 152.88,-196 152.88,-226.5"/>
<text text-anchor="start" x="16.62" y="-213" font-family="Helvetica,sans-Serif" font-size="10.00">GamR::Sort::Type::GatedTime</text>
<text text-anchor="middle" x="80.75" y="-201.75" font-family="Helvetica,sans-Serif" font-size="10.00">Difference::operator()</text>
</a>
</g>
</g>
<!-- Node1&#45;&gt;Node6 -->
<g id="edge5_Node000001_Node000006" class="edge">
<title>Node1&#45;&gt;Node6</title>
<g id="a_edge5_Node000001_Node000006"><a xlink:title=" ">
<path fill="none" stroke="#63b8ff" d="M186.36,-211.25C175.59,-211.25 164.23,-211.25 153.14,-211.25"/>
<polygon fill="#63b8ff" stroke="#63b8ff" points="186.34,-214.75 196.34,-211.25 186.34,-207.75 186.34,-214.75"/>
</a>
</g>
</g>
<!-- Node7 -->
<g id="Node000007" class="node">
<title>Node7</title>
<g id="a_Node000007"><a xlink:href="../../d1/da3/class_gam_r_1_1_sort_1_1_type_1_1_matrix.html#ae415be51a3f058b904d921fc7443b220" target="_top" xlink:title=" ">
<polygon fill="white" stroke="#666666" points="142,-177.5 19.5,-177.5 19.5,-147 142,-147 142,-177.5"/>
<text text-anchor="start" x="27.5" y="-164" font-family="Helvetica,sans-Serif" font-size="10.00">GamR::Sort::Type::Matrix</text>
<text text-anchor="middle" x="80.75" y="-152.75" font-family="Helvetica,sans-Serif" font-size="10.00">::operator()</text>
</a>
</g>
</g>
<!-- Node1&#45;&gt;Node7 -->
<g id="edge6_Node000001_Node000007" class="edge">
<title>Node1&#45;&gt;Node7</title>
<g id="a_edge6_Node000001_Node000007"><a xlink:title=" ">
<path fill="none" stroke="#63b8ff" d="M186.84,-193.79C169.62,-188.62 150.87,-183 134.04,-177.94"/>
<polygon fill="#63b8ff" stroke="#63b8ff" points="185.76,-197.42 196.34,-196.95 187.77,-190.72 185.76,-197.42"/>
</a>
</g>
</g>
<!-- Node8 -->
<g id="Node000008" class="node">
<title>Node8</title>
<g id="a_Node000008"><a xlink:href="../../db/d1b/class_gam_r_1_1_sort_1_1_type_1_1_time_difference.html#af280ea60b9b0fd1ad348775bd7c0383a" target="_top" xlink:title=" ">
<polygon fill="white" stroke="#666666" points="161.5,-128.5 0,-128.5 0,-98 161.5,-98 161.5,-128.5"/>
<text text-anchor="start" x="8" y="-115" font-family="Helvetica,sans-Serif" font-size="10.00">GamR::Sort::Type::TimeDifference</text>
<text text-anchor="middle" x="80.75" y="-103.75" font-family="Helvetica,sans-Serif" font-size="10.00">::operator()</text>
</a>
</g>
</g>
<!-- Node1&#45;&gt;Node8 -->
<g id="edge7_Node000001_Node000008" class="edge">
<title>Node1&#45;&gt;Node8</title>
<g id="a_edge7_Node000001_Node000008"><a xlink:title=" ">
<path fill="none" stroke="#63b8ff" d="M223.47,-187.87C207.67,-171.93 184.95,-151.4 161.5,-138.25 155.17,-134.7 148.27,-131.59 141.27,-128.87"/>
<polygon fill="#63b8ff" stroke="#63b8ff" points="220.6,-189.97 230.07,-194.73 225.63,-185.11 220.6,-189.97"/>
</a>
</g>
</g>
<!-- Node9 -->
<g id="Node000009" class="node">
<title>Node9</title>
<g id="a_Node000009"><a xlink:href="../../d7/d5f/class_gam_r_1_1_sort_1_1_type_1_1_time_difference_pairs.html#a364f5b4a6df32433f3b866409864cf2e" target="_top" xlink:title=" ">
<polygon fill="white" stroke="#666666" points="161.5,-79.5 0,-79.5 0,-49 161.5,-49 161.5,-79.5"/>
<text text-anchor="start" x="8" y="-66" font-family="Helvetica,sans-Serif" font-size="10.00">GamR::Sort::Type::TimeDifference</text>
<text text-anchor="middle" x="80.75" y="-54.75" font-family="Helvetica,sans-Serif" font-size="10.00">Pairs::operator()</text>
</a>
</g>
</g>
<!-- Node1&#45;&gt;Node9 -->
<g id="edge8_Node000001_Node000009" class="edge">
<title>Node1&#45;&gt;Node9</title>
<g id="a_edge8_Node000001_Node000009"><a xlink:title=" ">
<path fill="none" stroke="#63b8ff" d="M233.95,-185.92C220.63,-158.27 195.71,-114.57 161.5,-89.25 156.6,-85.62 151.16,-82.52 145.5,-79.85"/>
<polygon fill="#63b8ff" stroke="#63b8ff" points="231.09,-187.07 238.48,-194.66 237.44,-184.12 231.09,-187.07"/>
</a>
</g>
</g>
<!-- Node10 -->
<g id="Node000010" class="node">
<title>Node10</title>
<g id="a_Node000010"><a xlink:href="../../df/d01/class_gam_r_1_1_sort_1_1_type_1_1_time_walk_cal.html#a15bb7f30ca89fcb2f9e8dac0ef351cfc" target="_top" xlink:title=" ">
<polygon fill="white" stroke="#666666" points="150.62,-30.5 10.88,-30.5 10.88,0 150.62,0 150.62,-30.5"/>
<text text-anchor="start" x="18.88" y="-17" font-family="Helvetica,sans-Serif" font-size="10.00">GamR::Sort::Type::TimeWalk</text>
<text text-anchor="middle" x="80.75" y="-5.75" font-family="Helvetica,sans-Serif" font-size="10.00">Cal::operator()</text>
</a>
</g>
</g>
<!-- Node1&#45;&gt;Node10 -->
<g id="edge9_Node000001_Node000010" class="edge">
<title>Node1&#45;&gt;Node10</title>
<g id="a_edge9_Node000001_Node000010"><a xlink:title=" ">
<path fill="none" stroke="#63b8ff" d="M239.2,-185.17C229.53,-147.73 206.56,-79 161.5,-40.25 157.32,-36.66 152.62,-33.58 147.65,-30.94"/>
<polygon fill="#63b8ff" stroke="#63b8ff" points="236,-185.84 241.78,-194.72 242.8,-184.17 236,-185.84"/>
</a>
</g>
</g>
</g>
</svg>
