<?xml version="1.0" encoding="UTF-8" standalone="no"?>
<!DOCTYPE svg PUBLIC "-//W3C//DTD SVG 1.1//EN"
 "http://www.w3.org/Graphics/SVG/1.1/DTD/svg11.dtd">
<!-- Generated by graphviz version 5.0.0 (20220708.1001)
 -->
<!-- Title: GamR::Coulex::loadSCOEF Pages: 1 -->
<svg width="708pt" height="147pt"
 viewBox="0.00 0.00 708.00 147.00" xmlns="http://www.w3.org/2000/svg" xmlns:xlink="http://www.w3.org/1999/xlink">
<g id="graph0" class="graph" transform="scale(1 1) rotate(0) translate(4 143)">
<title>GamR::Coulex::loadSCOEF</title>
<polygon fill="white" stroke="transparent" points="-4,4 -4,-143 704,-143 704,4 -4,4"/>
<!-- Node1 -->
<g id="node1" class="node">
<title>Node1</title>
<g id="a_node1"><a xlink:title=" ">
<polygon fill="#bfbfbf" stroke="black" points="566,-55 566,-74 700,-74 700,-55 566,-55"/>
<text text-anchor="middle" x="633" y="-62" font-family="Helvetica,sans-Serif" font-size="10.00">GamR::Coulex::loadSCOEF</text>
</a>
</g>
</g>
<!-- Node2 -->
<g id="node2" class="node">
<title>Node2</title>
<g id="a_node2"><a xlink:href="../../dd/d3e/class_gam_r_1_1_coulex_1_1_coulex_calculation.html#a4df2a2d0965e337fde3c1c7f2e68e669" target="_top" xlink:title=" ">
<polygon fill="white" stroke="black" points="174,-108.5 174,-138.5 334,-138.5 334,-108.5 174,-108.5"/>
<text text-anchor="start" x="182" y="-126.5" font-family="Helvetica,sans-Serif" font-size="10.00">GamR::Coulex::CoulexCalculation</text>
<text text-anchor="middle" x="254" y="-115.5" font-family="Helvetica,sans-Serif" font-size="10.00">::CalcTensor</text>
</a>
</g>
</g>
<!-- Node1&#45;&gt;Node2 -->
<g id="edge1" class="edge">
<title>Node1&#45;&gt;Node2</title>
<path fill="none" stroke="midnightblue" d="M608.87,-79.39C588.87,-91.36 558.74,-107.34 530,-114.5 465.46,-130.59 389.76,-131.83 334.15,-129.63"/>
<polygon fill="midnightblue" stroke="midnightblue" points="610.87,-82.27 617.56,-74.05 607.2,-76.3 610.87,-82.27"/>
</g>
<!-- Node4 -->
<g id="node4" class="node">
<title>Node4</title>
<g id="a_node4"><a xlink:href="../../dd/d3e/class_gam_r_1_1_coulex_1_1_coulex_calculation.html#a79a4ea8f06954b1cf8b8431010fedbf3" target="_top" xlink:title=" ">
<polygon fill="white" stroke="black" points="174,-0.5 174,-30.5 334,-30.5 334,-0.5 174,-0.5"/>
<text text-anchor="start" x="182" y="-18.5" font-family="Helvetica,sans-Serif" font-size="10.00">GamR::Coulex::CoulexCalculation</text>
<text text-anchor="middle" x="254" y="-7.5" font-family="Helvetica,sans-Serif" font-size="10.00">::ReadFromFile</text>
</a>
</g>
</g>
<!-- Node1&#45;&gt;Node4 -->
<g id="edge3" class="edge">
<title>Node1&#45;&gt;Node4</title>
<path fill="none" stroke="midnightblue" d="M608.88,-49.67C588.9,-37.79 558.77,-22.05 530,-15.5 465.29,-0.76 389.78,-2.03 334.27,-6.27"/>
<polygon fill="midnightblue" stroke="midnightblue" points="607.21,-52.75 617.57,-54.97 610.86,-46.78 607.21,-52.75"/>
</g>
<!-- Node6 -->
<g id="node6" class="node">
<title>Node6</title>
<g id="a_node6"><a xlink:href="../../dd/d3e/class_gam_r_1_1_coulex_1_1_coulex_calculation.html#acb08f0024d9a247dd0b03169bc5561fd" target="_top" xlink:title=" ">
<polygon fill="white" stroke="black" points="370,-25.5 370,-55.5 530,-55.5 530,-25.5 370,-25.5"/>
<text text-anchor="start" x="378" y="-43.5" font-family="Helvetica,sans-Serif" font-size="10.00">GamR::Coulex::CoulexCalculation</text>
<text text-anchor="middle" x="450" y="-32.5" font-family="Helvetica,sans-Serif" font-size="10.00">::SetBeam</text>
</a>
</g>
</g>
<!-- Node1&#45;&gt;Node6 -->
<g id="edge6" class="edge">
<title>Node1&#45;&gt;Node6</title>
<path fill="none" stroke="midnightblue" d="M555.97,-54.42C547.44,-53.29 538.73,-52.13 530.16,-51"/>
<polygon fill="midnightblue" stroke="midnightblue" points="555.51,-57.89 565.89,-55.73 556.43,-50.95 555.51,-57.89"/>
</g>
<!-- Node8 -->
<g id="node8" class="node">
<title>Node8</title>
<g id="a_node8"><a xlink:href="../../dd/d3e/class_gam_r_1_1_coulex_1_1_coulex_calculation.html#a2a7d4ff2433572678844223f385bba86" target="_top" xlink:title=" ">
<polygon fill="white" stroke="black" points="370,-74.5 370,-104.5 530,-104.5 530,-74.5 370,-74.5"/>
<text text-anchor="start" x="378" y="-92.5" font-family="Helvetica,sans-Serif" font-size="10.00">GamR::Coulex::CoulexCalculation</text>
<text text-anchor="middle" x="450" y="-81.5" font-family="Helvetica,sans-Serif" font-size="10.00">::SetTarget</text>
</a>
</g>
</g>
<!-- Node1&#45;&gt;Node8 -->
<g id="edge10" class="edge">
<title>Node1&#45;&gt;Node8</title>
<path fill="none" stroke="midnightblue" d="M555.97,-75C547.44,-76.18 538.73,-77.38 530.16,-78.57"/>
<polygon fill="midnightblue" stroke="midnightblue" points="556.46,-78.47 565.89,-73.63 555.5,-71.53 556.46,-78.47"/>
</g>
<!-- Node3 -->
<g id="node3" class="node">
<title>Node3</title>
<g id="a_node3"><a xlink:href="../../d6/d76/namespace_gam_r_1_1_coulex.html#a41b07b0aa204c45d637b7c5a4e57d989" target="_top" xlink:title=" ">
<polygon fill="white" stroke="black" points="7,-55 7,-74 131,-74 131,-55 7,-55"/>
<text text-anchor="middle" x="69" y="-62" font-family="Helvetica,sans-Serif" font-size="10.00">GamR::Coulex::DoCoulex</text>
</a>
</g>
</g>
<!-- Node2&#45;&gt;Node3 -->
<g id="edge2" class="edge">
<title>Node2&#45;&gt;Node3</title>
<path fill="none" stroke="midnightblue" d="M196.65,-105.33C164.61,-95 125.81,-82.49 99.66,-74.06"/>
<polygon fill="midnightblue" stroke="midnightblue" points="195.76,-108.72 206.35,-108.46 197.9,-102.06 195.76,-108.72"/>
</g>
<!-- Node4&#45;&gt;Node3 -->
<g id="edge4" class="edge">
<title>Node4&#45;&gt;Node3</title>
<path fill="none" stroke="midnightblue" d="M186.66,-33.26C159.22,-40.61 128.51,-48.83 105.49,-55"/>
<polygon fill="midnightblue" stroke="midnightblue" points="187.85,-36.57 196.6,-30.6 186.04,-29.81 187.85,-36.57"/>
</g>
<!-- Node5 -->
<g id="node5" class="node">
<title>Node5</title>
<g id="a_node5"><a xlink:href="../../d6/d76/namespace_gam_r_1_1_coulex.html#a2551a0108b265de32e08ef2042a02212" target="_top" xlink:title=" ">
<polygon fill="white" stroke="black" points="0,-3.5 0,-33.5 138,-33.5 138,-3.5 0,-3.5"/>
<text text-anchor="start" x="8" y="-21.5" font-family="Helvetica,sans-Serif" font-size="10.00">GamR::Coulex::Experimental</text>
<text text-anchor="middle" x="69" y="-10.5" font-family="Helvetica,sans-Serif" font-size="10.00">Setup</text>
</a>
</g>
</g>
<!-- Node4&#45;&gt;Node5 -->
<g id="edge5" class="edge">
<title>Node4&#45;&gt;Node5</title>
<path fill="none" stroke="midnightblue" d="M163.72,-16.96C155.12,-17.1 146.48,-17.25 138.13,-17.38"/>
<polygon fill="midnightblue" stroke="midnightblue" points="163.86,-20.46 173.8,-16.8 163.74,-13.46 163.86,-20.46"/>
</g>
<!-- Node7 -->
<g id="node7" class="node">
<title>Node7</title>
<g id="a_node7"><a xlink:href="../../dd/d3e/class_gam_r_1_1_coulex_1_1_coulex_calculation.html#ae8ce7427467c968c1a44f74a06ce4a30" target="_top" xlink:title=" ">
<polygon fill="white" stroke="black" points="174,-49.5 174,-79.5 334,-79.5 334,-49.5 174,-49.5"/>
<text text-anchor="start" x="182" y="-67.5" font-family="Helvetica,sans-Serif" font-size="10.00">GamR::Coulex::CoulexCalculation</text>
<text text-anchor="middle" x="254" y="-56.5" font-family="Helvetica,sans-Serif" font-size="10.00">::ExperimentalSetup</text>
</a>
</g>
</g>
<!-- Node6&#45;&gt;Node7 -->
<g id="edge7" class="edge">
<title>Node6&#45;&gt;Node7</title>
<path fill="none" stroke="midnightblue" d="M359.84,-51.53C351.3,-52.59 342.68,-53.65 334.25,-54.7"/>
<polygon fill="midnightblue" stroke="midnightblue" points="360.32,-55 369.81,-50.3 359.46,-48.05 360.32,-55"/>
</g>
<!-- Node7&#45;&gt;Node3 -->
<g id="edge8" class="edge">
<title>Node7&#45;&gt;Node3</title>
<path fill="none" stroke="midnightblue" d="M163.7,-64.5C152.66,-64.5 141.59,-64.5 131.12,-64.5"/>
<polygon fill="midnightblue" stroke="midnightblue" points="163.8,-68 173.8,-64.5 163.8,-61 163.8,-68"/>
</g>
<!-- Node7&#45;&gt;Node5 -->
<g id="edge9" class="edge">
<title>Node7&#45;&gt;Node5</title>
<path fill="none" stroke="midnightblue" d="M182.9,-46.88C165.37,-42.47 146.72,-37.79 129.74,-33.52"/>
<polygon fill="midnightblue" stroke="midnightblue" points="182.53,-50.39 193.08,-49.44 184.23,-43.61 182.53,-50.39"/>
</g>
<!-- Node8&#45;&gt;Node7 -->
<g id="edge11" class="edge">
<title>Node8&#45;&gt;Node7</title>
<path fill="none" stroke="midnightblue" d="M359.84,-78.01C351.3,-76.91 342.68,-75.8 334.25,-74.71"/>
<polygon fill="midnightblue" stroke="midnightblue" points="359.45,-81.49 369.81,-79.3 360.34,-74.55 359.45,-81.49"/>
</g>
</g>
</svg>
